G75*
%MOIN*%
%OFA0B0*%
%FSLAX25Y25*%
%IPPOS*%
%LPD*%
%AMOC8*
5,1,8,0,0,1.08239X$1,22.5*
%
%ADD10C,0.00000*%
D10*
X0031420Y0001000D02*
X0031420Y0101000D01*
X0247670Y0101000D01*
X0247670Y0001000D01*
X0031420Y0001000D01*
X0037621Y0011000D02*
X0037623Y0011158D01*
X0037629Y0011316D01*
X0037639Y0011474D01*
X0037653Y0011632D01*
X0037671Y0011789D01*
X0037692Y0011946D01*
X0037718Y0012102D01*
X0037748Y0012258D01*
X0037781Y0012413D01*
X0037819Y0012566D01*
X0037860Y0012719D01*
X0037905Y0012871D01*
X0037954Y0013022D01*
X0038007Y0013171D01*
X0038063Y0013319D01*
X0038123Y0013465D01*
X0038187Y0013610D01*
X0038255Y0013753D01*
X0038326Y0013895D01*
X0038400Y0014035D01*
X0038478Y0014172D01*
X0038560Y0014308D01*
X0038644Y0014442D01*
X0038733Y0014573D01*
X0038824Y0014702D01*
X0038919Y0014829D01*
X0039016Y0014954D01*
X0039117Y0015076D01*
X0039221Y0015195D01*
X0039328Y0015312D01*
X0039438Y0015426D01*
X0039551Y0015537D01*
X0039666Y0015646D01*
X0039784Y0015751D01*
X0039905Y0015853D01*
X0040028Y0015953D01*
X0040154Y0016049D01*
X0040282Y0016142D01*
X0040412Y0016232D01*
X0040545Y0016318D01*
X0040680Y0016402D01*
X0040816Y0016481D01*
X0040955Y0016558D01*
X0041096Y0016630D01*
X0041238Y0016700D01*
X0041382Y0016765D01*
X0041528Y0016827D01*
X0041675Y0016885D01*
X0041824Y0016940D01*
X0041974Y0016991D01*
X0042125Y0017038D01*
X0042277Y0017081D01*
X0042430Y0017120D01*
X0042585Y0017156D01*
X0042740Y0017187D01*
X0042896Y0017215D01*
X0043052Y0017239D01*
X0043209Y0017259D01*
X0043367Y0017275D01*
X0043524Y0017287D01*
X0043683Y0017295D01*
X0043841Y0017299D01*
X0043999Y0017299D01*
X0044157Y0017295D01*
X0044316Y0017287D01*
X0044473Y0017275D01*
X0044631Y0017259D01*
X0044788Y0017239D01*
X0044944Y0017215D01*
X0045100Y0017187D01*
X0045255Y0017156D01*
X0045410Y0017120D01*
X0045563Y0017081D01*
X0045715Y0017038D01*
X0045866Y0016991D01*
X0046016Y0016940D01*
X0046165Y0016885D01*
X0046312Y0016827D01*
X0046458Y0016765D01*
X0046602Y0016700D01*
X0046744Y0016630D01*
X0046885Y0016558D01*
X0047024Y0016481D01*
X0047160Y0016402D01*
X0047295Y0016318D01*
X0047428Y0016232D01*
X0047558Y0016142D01*
X0047686Y0016049D01*
X0047812Y0015953D01*
X0047935Y0015853D01*
X0048056Y0015751D01*
X0048174Y0015646D01*
X0048289Y0015537D01*
X0048402Y0015426D01*
X0048512Y0015312D01*
X0048619Y0015195D01*
X0048723Y0015076D01*
X0048824Y0014954D01*
X0048921Y0014829D01*
X0049016Y0014702D01*
X0049107Y0014573D01*
X0049196Y0014442D01*
X0049280Y0014308D01*
X0049362Y0014172D01*
X0049440Y0014035D01*
X0049514Y0013895D01*
X0049585Y0013753D01*
X0049653Y0013610D01*
X0049717Y0013465D01*
X0049777Y0013319D01*
X0049833Y0013171D01*
X0049886Y0013022D01*
X0049935Y0012871D01*
X0049980Y0012719D01*
X0050021Y0012566D01*
X0050059Y0012413D01*
X0050092Y0012258D01*
X0050122Y0012102D01*
X0050148Y0011946D01*
X0050169Y0011789D01*
X0050187Y0011632D01*
X0050201Y0011474D01*
X0050211Y0011316D01*
X0050217Y0011158D01*
X0050219Y0011000D01*
X0050217Y0010842D01*
X0050211Y0010684D01*
X0050201Y0010526D01*
X0050187Y0010368D01*
X0050169Y0010211D01*
X0050148Y0010054D01*
X0050122Y0009898D01*
X0050092Y0009742D01*
X0050059Y0009587D01*
X0050021Y0009434D01*
X0049980Y0009281D01*
X0049935Y0009129D01*
X0049886Y0008978D01*
X0049833Y0008829D01*
X0049777Y0008681D01*
X0049717Y0008535D01*
X0049653Y0008390D01*
X0049585Y0008247D01*
X0049514Y0008105D01*
X0049440Y0007965D01*
X0049362Y0007828D01*
X0049280Y0007692D01*
X0049196Y0007558D01*
X0049107Y0007427D01*
X0049016Y0007298D01*
X0048921Y0007171D01*
X0048824Y0007046D01*
X0048723Y0006924D01*
X0048619Y0006805D01*
X0048512Y0006688D01*
X0048402Y0006574D01*
X0048289Y0006463D01*
X0048174Y0006354D01*
X0048056Y0006249D01*
X0047935Y0006147D01*
X0047812Y0006047D01*
X0047686Y0005951D01*
X0047558Y0005858D01*
X0047428Y0005768D01*
X0047295Y0005682D01*
X0047160Y0005598D01*
X0047024Y0005519D01*
X0046885Y0005442D01*
X0046744Y0005370D01*
X0046602Y0005300D01*
X0046458Y0005235D01*
X0046312Y0005173D01*
X0046165Y0005115D01*
X0046016Y0005060D01*
X0045866Y0005009D01*
X0045715Y0004962D01*
X0045563Y0004919D01*
X0045410Y0004880D01*
X0045255Y0004844D01*
X0045100Y0004813D01*
X0044944Y0004785D01*
X0044788Y0004761D01*
X0044631Y0004741D01*
X0044473Y0004725D01*
X0044316Y0004713D01*
X0044157Y0004705D01*
X0043999Y0004701D01*
X0043841Y0004701D01*
X0043683Y0004705D01*
X0043524Y0004713D01*
X0043367Y0004725D01*
X0043209Y0004741D01*
X0043052Y0004761D01*
X0042896Y0004785D01*
X0042740Y0004813D01*
X0042585Y0004844D01*
X0042430Y0004880D01*
X0042277Y0004919D01*
X0042125Y0004962D01*
X0041974Y0005009D01*
X0041824Y0005060D01*
X0041675Y0005115D01*
X0041528Y0005173D01*
X0041382Y0005235D01*
X0041238Y0005300D01*
X0041096Y0005370D01*
X0040955Y0005442D01*
X0040816Y0005519D01*
X0040680Y0005598D01*
X0040545Y0005682D01*
X0040412Y0005768D01*
X0040282Y0005858D01*
X0040154Y0005951D01*
X0040028Y0006047D01*
X0039905Y0006147D01*
X0039784Y0006249D01*
X0039666Y0006354D01*
X0039551Y0006463D01*
X0039438Y0006574D01*
X0039328Y0006688D01*
X0039221Y0006805D01*
X0039117Y0006924D01*
X0039016Y0007046D01*
X0038919Y0007171D01*
X0038824Y0007298D01*
X0038733Y0007427D01*
X0038644Y0007558D01*
X0038560Y0007692D01*
X0038478Y0007828D01*
X0038400Y0007965D01*
X0038326Y0008105D01*
X0038255Y0008247D01*
X0038187Y0008390D01*
X0038123Y0008535D01*
X0038063Y0008681D01*
X0038007Y0008829D01*
X0037954Y0008978D01*
X0037905Y0009129D01*
X0037860Y0009281D01*
X0037819Y0009434D01*
X0037781Y0009587D01*
X0037748Y0009742D01*
X0037718Y0009898D01*
X0037692Y0010054D01*
X0037671Y0010211D01*
X0037653Y0010368D01*
X0037639Y0010526D01*
X0037629Y0010684D01*
X0037623Y0010842D01*
X0037621Y0011000D01*
X0037621Y0056000D02*
X0037623Y0056158D01*
X0037629Y0056316D01*
X0037639Y0056474D01*
X0037653Y0056632D01*
X0037671Y0056789D01*
X0037692Y0056946D01*
X0037718Y0057102D01*
X0037748Y0057258D01*
X0037781Y0057413D01*
X0037819Y0057566D01*
X0037860Y0057719D01*
X0037905Y0057871D01*
X0037954Y0058022D01*
X0038007Y0058171D01*
X0038063Y0058319D01*
X0038123Y0058465D01*
X0038187Y0058610D01*
X0038255Y0058753D01*
X0038326Y0058895D01*
X0038400Y0059035D01*
X0038478Y0059172D01*
X0038560Y0059308D01*
X0038644Y0059442D01*
X0038733Y0059573D01*
X0038824Y0059702D01*
X0038919Y0059829D01*
X0039016Y0059954D01*
X0039117Y0060076D01*
X0039221Y0060195D01*
X0039328Y0060312D01*
X0039438Y0060426D01*
X0039551Y0060537D01*
X0039666Y0060646D01*
X0039784Y0060751D01*
X0039905Y0060853D01*
X0040028Y0060953D01*
X0040154Y0061049D01*
X0040282Y0061142D01*
X0040412Y0061232D01*
X0040545Y0061318D01*
X0040680Y0061402D01*
X0040816Y0061481D01*
X0040955Y0061558D01*
X0041096Y0061630D01*
X0041238Y0061700D01*
X0041382Y0061765D01*
X0041528Y0061827D01*
X0041675Y0061885D01*
X0041824Y0061940D01*
X0041974Y0061991D01*
X0042125Y0062038D01*
X0042277Y0062081D01*
X0042430Y0062120D01*
X0042585Y0062156D01*
X0042740Y0062187D01*
X0042896Y0062215D01*
X0043052Y0062239D01*
X0043209Y0062259D01*
X0043367Y0062275D01*
X0043524Y0062287D01*
X0043683Y0062295D01*
X0043841Y0062299D01*
X0043999Y0062299D01*
X0044157Y0062295D01*
X0044316Y0062287D01*
X0044473Y0062275D01*
X0044631Y0062259D01*
X0044788Y0062239D01*
X0044944Y0062215D01*
X0045100Y0062187D01*
X0045255Y0062156D01*
X0045410Y0062120D01*
X0045563Y0062081D01*
X0045715Y0062038D01*
X0045866Y0061991D01*
X0046016Y0061940D01*
X0046165Y0061885D01*
X0046312Y0061827D01*
X0046458Y0061765D01*
X0046602Y0061700D01*
X0046744Y0061630D01*
X0046885Y0061558D01*
X0047024Y0061481D01*
X0047160Y0061402D01*
X0047295Y0061318D01*
X0047428Y0061232D01*
X0047558Y0061142D01*
X0047686Y0061049D01*
X0047812Y0060953D01*
X0047935Y0060853D01*
X0048056Y0060751D01*
X0048174Y0060646D01*
X0048289Y0060537D01*
X0048402Y0060426D01*
X0048512Y0060312D01*
X0048619Y0060195D01*
X0048723Y0060076D01*
X0048824Y0059954D01*
X0048921Y0059829D01*
X0049016Y0059702D01*
X0049107Y0059573D01*
X0049196Y0059442D01*
X0049280Y0059308D01*
X0049362Y0059172D01*
X0049440Y0059035D01*
X0049514Y0058895D01*
X0049585Y0058753D01*
X0049653Y0058610D01*
X0049717Y0058465D01*
X0049777Y0058319D01*
X0049833Y0058171D01*
X0049886Y0058022D01*
X0049935Y0057871D01*
X0049980Y0057719D01*
X0050021Y0057566D01*
X0050059Y0057413D01*
X0050092Y0057258D01*
X0050122Y0057102D01*
X0050148Y0056946D01*
X0050169Y0056789D01*
X0050187Y0056632D01*
X0050201Y0056474D01*
X0050211Y0056316D01*
X0050217Y0056158D01*
X0050219Y0056000D01*
X0050217Y0055842D01*
X0050211Y0055684D01*
X0050201Y0055526D01*
X0050187Y0055368D01*
X0050169Y0055211D01*
X0050148Y0055054D01*
X0050122Y0054898D01*
X0050092Y0054742D01*
X0050059Y0054587D01*
X0050021Y0054434D01*
X0049980Y0054281D01*
X0049935Y0054129D01*
X0049886Y0053978D01*
X0049833Y0053829D01*
X0049777Y0053681D01*
X0049717Y0053535D01*
X0049653Y0053390D01*
X0049585Y0053247D01*
X0049514Y0053105D01*
X0049440Y0052965D01*
X0049362Y0052828D01*
X0049280Y0052692D01*
X0049196Y0052558D01*
X0049107Y0052427D01*
X0049016Y0052298D01*
X0048921Y0052171D01*
X0048824Y0052046D01*
X0048723Y0051924D01*
X0048619Y0051805D01*
X0048512Y0051688D01*
X0048402Y0051574D01*
X0048289Y0051463D01*
X0048174Y0051354D01*
X0048056Y0051249D01*
X0047935Y0051147D01*
X0047812Y0051047D01*
X0047686Y0050951D01*
X0047558Y0050858D01*
X0047428Y0050768D01*
X0047295Y0050682D01*
X0047160Y0050598D01*
X0047024Y0050519D01*
X0046885Y0050442D01*
X0046744Y0050370D01*
X0046602Y0050300D01*
X0046458Y0050235D01*
X0046312Y0050173D01*
X0046165Y0050115D01*
X0046016Y0050060D01*
X0045866Y0050009D01*
X0045715Y0049962D01*
X0045563Y0049919D01*
X0045410Y0049880D01*
X0045255Y0049844D01*
X0045100Y0049813D01*
X0044944Y0049785D01*
X0044788Y0049761D01*
X0044631Y0049741D01*
X0044473Y0049725D01*
X0044316Y0049713D01*
X0044157Y0049705D01*
X0043999Y0049701D01*
X0043841Y0049701D01*
X0043683Y0049705D01*
X0043524Y0049713D01*
X0043367Y0049725D01*
X0043209Y0049741D01*
X0043052Y0049761D01*
X0042896Y0049785D01*
X0042740Y0049813D01*
X0042585Y0049844D01*
X0042430Y0049880D01*
X0042277Y0049919D01*
X0042125Y0049962D01*
X0041974Y0050009D01*
X0041824Y0050060D01*
X0041675Y0050115D01*
X0041528Y0050173D01*
X0041382Y0050235D01*
X0041238Y0050300D01*
X0041096Y0050370D01*
X0040955Y0050442D01*
X0040816Y0050519D01*
X0040680Y0050598D01*
X0040545Y0050682D01*
X0040412Y0050768D01*
X0040282Y0050858D01*
X0040154Y0050951D01*
X0040028Y0051047D01*
X0039905Y0051147D01*
X0039784Y0051249D01*
X0039666Y0051354D01*
X0039551Y0051463D01*
X0039438Y0051574D01*
X0039328Y0051688D01*
X0039221Y0051805D01*
X0039117Y0051924D01*
X0039016Y0052046D01*
X0038919Y0052171D01*
X0038824Y0052298D01*
X0038733Y0052427D01*
X0038644Y0052558D01*
X0038560Y0052692D01*
X0038478Y0052828D01*
X0038400Y0052965D01*
X0038326Y0053105D01*
X0038255Y0053247D01*
X0038187Y0053390D01*
X0038123Y0053535D01*
X0038063Y0053681D01*
X0038007Y0053829D01*
X0037954Y0053978D01*
X0037905Y0054129D01*
X0037860Y0054281D01*
X0037819Y0054434D01*
X0037781Y0054587D01*
X0037748Y0054742D01*
X0037718Y0054898D01*
X0037692Y0055054D01*
X0037671Y0055211D01*
X0037653Y0055368D01*
X0037639Y0055526D01*
X0037629Y0055684D01*
X0037623Y0055842D01*
X0037621Y0056000D01*
X0225121Y0083500D02*
X0225123Y0083658D01*
X0225129Y0083816D01*
X0225139Y0083974D01*
X0225153Y0084132D01*
X0225171Y0084289D01*
X0225192Y0084446D01*
X0225218Y0084602D01*
X0225248Y0084758D01*
X0225281Y0084913D01*
X0225319Y0085066D01*
X0225360Y0085219D01*
X0225405Y0085371D01*
X0225454Y0085522D01*
X0225507Y0085671D01*
X0225563Y0085819D01*
X0225623Y0085965D01*
X0225687Y0086110D01*
X0225755Y0086253D01*
X0225826Y0086395D01*
X0225900Y0086535D01*
X0225978Y0086672D01*
X0226060Y0086808D01*
X0226144Y0086942D01*
X0226233Y0087073D01*
X0226324Y0087202D01*
X0226419Y0087329D01*
X0226516Y0087454D01*
X0226617Y0087576D01*
X0226721Y0087695D01*
X0226828Y0087812D01*
X0226938Y0087926D01*
X0227051Y0088037D01*
X0227166Y0088146D01*
X0227284Y0088251D01*
X0227405Y0088353D01*
X0227528Y0088453D01*
X0227654Y0088549D01*
X0227782Y0088642D01*
X0227912Y0088732D01*
X0228045Y0088818D01*
X0228180Y0088902D01*
X0228316Y0088981D01*
X0228455Y0089058D01*
X0228596Y0089130D01*
X0228738Y0089200D01*
X0228882Y0089265D01*
X0229028Y0089327D01*
X0229175Y0089385D01*
X0229324Y0089440D01*
X0229474Y0089491D01*
X0229625Y0089538D01*
X0229777Y0089581D01*
X0229930Y0089620D01*
X0230085Y0089656D01*
X0230240Y0089687D01*
X0230396Y0089715D01*
X0230552Y0089739D01*
X0230709Y0089759D01*
X0230867Y0089775D01*
X0231024Y0089787D01*
X0231183Y0089795D01*
X0231341Y0089799D01*
X0231499Y0089799D01*
X0231657Y0089795D01*
X0231816Y0089787D01*
X0231973Y0089775D01*
X0232131Y0089759D01*
X0232288Y0089739D01*
X0232444Y0089715D01*
X0232600Y0089687D01*
X0232755Y0089656D01*
X0232910Y0089620D01*
X0233063Y0089581D01*
X0233215Y0089538D01*
X0233366Y0089491D01*
X0233516Y0089440D01*
X0233665Y0089385D01*
X0233812Y0089327D01*
X0233958Y0089265D01*
X0234102Y0089200D01*
X0234244Y0089130D01*
X0234385Y0089058D01*
X0234524Y0088981D01*
X0234660Y0088902D01*
X0234795Y0088818D01*
X0234928Y0088732D01*
X0235058Y0088642D01*
X0235186Y0088549D01*
X0235312Y0088453D01*
X0235435Y0088353D01*
X0235556Y0088251D01*
X0235674Y0088146D01*
X0235789Y0088037D01*
X0235902Y0087926D01*
X0236012Y0087812D01*
X0236119Y0087695D01*
X0236223Y0087576D01*
X0236324Y0087454D01*
X0236421Y0087329D01*
X0236516Y0087202D01*
X0236607Y0087073D01*
X0236696Y0086942D01*
X0236780Y0086808D01*
X0236862Y0086672D01*
X0236940Y0086535D01*
X0237014Y0086395D01*
X0237085Y0086253D01*
X0237153Y0086110D01*
X0237217Y0085965D01*
X0237277Y0085819D01*
X0237333Y0085671D01*
X0237386Y0085522D01*
X0237435Y0085371D01*
X0237480Y0085219D01*
X0237521Y0085066D01*
X0237559Y0084913D01*
X0237592Y0084758D01*
X0237622Y0084602D01*
X0237648Y0084446D01*
X0237669Y0084289D01*
X0237687Y0084132D01*
X0237701Y0083974D01*
X0237711Y0083816D01*
X0237717Y0083658D01*
X0237719Y0083500D01*
X0237717Y0083342D01*
X0237711Y0083184D01*
X0237701Y0083026D01*
X0237687Y0082868D01*
X0237669Y0082711D01*
X0237648Y0082554D01*
X0237622Y0082398D01*
X0237592Y0082242D01*
X0237559Y0082087D01*
X0237521Y0081934D01*
X0237480Y0081781D01*
X0237435Y0081629D01*
X0237386Y0081478D01*
X0237333Y0081329D01*
X0237277Y0081181D01*
X0237217Y0081035D01*
X0237153Y0080890D01*
X0237085Y0080747D01*
X0237014Y0080605D01*
X0236940Y0080465D01*
X0236862Y0080328D01*
X0236780Y0080192D01*
X0236696Y0080058D01*
X0236607Y0079927D01*
X0236516Y0079798D01*
X0236421Y0079671D01*
X0236324Y0079546D01*
X0236223Y0079424D01*
X0236119Y0079305D01*
X0236012Y0079188D01*
X0235902Y0079074D01*
X0235789Y0078963D01*
X0235674Y0078854D01*
X0235556Y0078749D01*
X0235435Y0078647D01*
X0235312Y0078547D01*
X0235186Y0078451D01*
X0235058Y0078358D01*
X0234928Y0078268D01*
X0234795Y0078182D01*
X0234660Y0078098D01*
X0234524Y0078019D01*
X0234385Y0077942D01*
X0234244Y0077870D01*
X0234102Y0077800D01*
X0233958Y0077735D01*
X0233812Y0077673D01*
X0233665Y0077615D01*
X0233516Y0077560D01*
X0233366Y0077509D01*
X0233215Y0077462D01*
X0233063Y0077419D01*
X0232910Y0077380D01*
X0232755Y0077344D01*
X0232600Y0077313D01*
X0232444Y0077285D01*
X0232288Y0077261D01*
X0232131Y0077241D01*
X0231973Y0077225D01*
X0231816Y0077213D01*
X0231657Y0077205D01*
X0231499Y0077201D01*
X0231341Y0077201D01*
X0231183Y0077205D01*
X0231024Y0077213D01*
X0230867Y0077225D01*
X0230709Y0077241D01*
X0230552Y0077261D01*
X0230396Y0077285D01*
X0230240Y0077313D01*
X0230085Y0077344D01*
X0229930Y0077380D01*
X0229777Y0077419D01*
X0229625Y0077462D01*
X0229474Y0077509D01*
X0229324Y0077560D01*
X0229175Y0077615D01*
X0229028Y0077673D01*
X0228882Y0077735D01*
X0228738Y0077800D01*
X0228596Y0077870D01*
X0228455Y0077942D01*
X0228316Y0078019D01*
X0228180Y0078098D01*
X0228045Y0078182D01*
X0227912Y0078268D01*
X0227782Y0078358D01*
X0227654Y0078451D01*
X0227528Y0078547D01*
X0227405Y0078647D01*
X0227284Y0078749D01*
X0227166Y0078854D01*
X0227051Y0078963D01*
X0226938Y0079074D01*
X0226828Y0079188D01*
X0226721Y0079305D01*
X0226617Y0079424D01*
X0226516Y0079546D01*
X0226419Y0079671D01*
X0226324Y0079798D01*
X0226233Y0079927D01*
X0226144Y0080058D01*
X0226060Y0080192D01*
X0225978Y0080328D01*
X0225900Y0080465D01*
X0225826Y0080605D01*
X0225755Y0080747D01*
X0225687Y0080890D01*
X0225623Y0081035D01*
X0225563Y0081181D01*
X0225507Y0081329D01*
X0225454Y0081478D01*
X0225405Y0081629D01*
X0225360Y0081781D01*
X0225319Y0081934D01*
X0225281Y0082087D01*
X0225248Y0082242D01*
X0225218Y0082398D01*
X0225192Y0082554D01*
X0225171Y0082711D01*
X0225153Y0082868D01*
X0225139Y0083026D01*
X0225129Y0083184D01*
X0225123Y0083342D01*
X0225121Y0083500D01*
X0230121Y0056000D02*
X0230123Y0056158D01*
X0230129Y0056316D01*
X0230139Y0056474D01*
X0230153Y0056632D01*
X0230171Y0056789D01*
X0230192Y0056946D01*
X0230218Y0057102D01*
X0230248Y0057258D01*
X0230281Y0057413D01*
X0230319Y0057566D01*
X0230360Y0057719D01*
X0230405Y0057871D01*
X0230454Y0058022D01*
X0230507Y0058171D01*
X0230563Y0058319D01*
X0230623Y0058465D01*
X0230687Y0058610D01*
X0230755Y0058753D01*
X0230826Y0058895D01*
X0230900Y0059035D01*
X0230978Y0059172D01*
X0231060Y0059308D01*
X0231144Y0059442D01*
X0231233Y0059573D01*
X0231324Y0059702D01*
X0231419Y0059829D01*
X0231516Y0059954D01*
X0231617Y0060076D01*
X0231721Y0060195D01*
X0231828Y0060312D01*
X0231938Y0060426D01*
X0232051Y0060537D01*
X0232166Y0060646D01*
X0232284Y0060751D01*
X0232405Y0060853D01*
X0232528Y0060953D01*
X0232654Y0061049D01*
X0232782Y0061142D01*
X0232912Y0061232D01*
X0233045Y0061318D01*
X0233180Y0061402D01*
X0233316Y0061481D01*
X0233455Y0061558D01*
X0233596Y0061630D01*
X0233738Y0061700D01*
X0233882Y0061765D01*
X0234028Y0061827D01*
X0234175Y0061885D01*
X0234324Y0061940D01*
X0234474Y0061991D01*
X0234625Y0062038D01*
X0234777Y0062081D01*
X0234930Y0062120D01*
X0235085Y0062156D01*
X0235240Y0062187D01*
X0235396Y0062215D01*
X0235552Y0062239D01*
X0235709Y0062259D01*
X0235867Y0062275D01*
X0236024Y0062287D01*
X0236183Y0062295D01*
X0236341Y0062299D01*
X0236499Y0062299D01*
X0236657Y0062295D01*
X0236816Y0062287D01*
X0236973Y0062275D01*
X0237131Y0062259D01*
X0237288Y0062239D01*
X0237444Y0062215D01*
X0237600Y0062187D01*
X0237755Y0062156D01*
X0237910Y0062120D01*
X0238063Y0062081D01*
X0238215Y0062038D01*
X0238366Y0061991D01*
X0238516Y0061940D01*
X0238665Y0061885D01*
X0238812Y0061827D01*
X0238958Y0061765D01*
X0239102Y0061700D01*
X0239244Y0061630D01*
X0239385Y0061558D01*
X0239524Y0061481D01*
X0239660Y0061402D01*
X0239795Y0061318D01*
X0239928Y0061232D01*
X0240058Y0061142D01*
X0240186Y0061049D01*
X0240312Y0060953D01*
X0240435Y0060853D01*
X0240556Y0060751D01*
X0240674Y0060646D01*
X0240789Y0060537D01*
X0240902Y0060426D01*
X0241012Y0060312D01*
X0241119Y0060195D01*
X0241223Y0060076D01*
X0241324Y0059954D01*
X0241421Y0059829D01*
X0241516Y0059702D01*
X0241607Y0059573D01*
X0241696Y0059442D01*
X0241780Y0059308D01*
X0241862Y0059172D01*
X0241940Y0059035D01*
X0242014Y0058895D01*
X0242085Y0058753D01*
X0242153Y0058610D01*
X0242217Y0058465D01*
X0242277Y0058319D01*
X0242333Y0058171D01*
X0242386Y0058022D01*
X0242435Y0057871D01*
X0242480Y0057719D01*
X0242521Y0057566D01*
X0242559Y0057413D01*
X0242592Y0057258D01*
X0242622Y0057102D01*
X0242648Y0056946D01*
X0242669Y0056789D01*
X0242687Y0056632D01*
X0242701Y0056474D01*
X0242711Y0056316D01*
X0242717Y0056158D01*
X0242719Y0056000D01*
X0242717Y0055842D01*
X0242711Y0055684D01*
X0242701Y0055526D01*
X0242687Y0055368D01*
X0242669Y0055211D01*
X0242648Y0055054D01*
X0242622Y0054898D01*
X0242592Y0054742D01*
X0242559Y0054587D01*
X0242521Y0054434D01*
X0242480Y0054281D01*
X0242435Y0054129D01*
X0242386Y0053978D01*
X0242333Y0053829D01*
X0242277Y0053681D01*
X0242217Y0053535D01*
X0242153Y0053390D01*
X0242085Y0053247D01*
X0242014Y0053105D01*
X0241940Y0052965D01*
X0241862Y0052828D01*
X0241780Y0052692D01*
X0241696Y0052558D01*
X0241607Y0052427D01*
X0241516Y0052298D01*
X0241421Y0052171D01*
X0241324Y0052046D01*
X0241223Y0051924D01*
X0241119Y0051805D01*
X0241012Y0051688D01*
X0240902Y0051574D01*
X0240789Y0051463D01*
X0240674Y0051354D01*
X0240556Y0051249D01*
X0240435Y0051147D01*
X0240312Y0051047D01*
X0240186Y0050951D01*
X0240058Y0050858D01*
X0239928Y0050768D01*
X0239795Y0050682D01*
X0239660Y0050598D01*
X0239524Y0050519D01*
X0239385Y0050442D01*
X0239244Y0050370D01*
X0239102Y0050300D01*
X0238958Y0050235D01*
X0238812Y0050173D01*
X0238665Y0050115D01*
X0238516Y0050060D01*
X0238366Y0050009D01*
X0238215Y0049962D01*
X0238063Y0049919D01*
X0237910Y0049880D01*
X0237755Y0049844D01*
X0237600Y0049813D01*
X0237444Y0049785D01*
X0237288Y0049761D01*
X0237131Y0049741D01*
X0236973Y0049725D01*
X0236816Y0049713D01*
X0236657Y0049705D01*
X0236499Y0049701D01*
X0236341Y0049701D01*
X0236183Y0049705D01*
X0236024Y0049713D01*
X0235867Y0049725D01*
X0235709Y0049741D01*
X0235552Y0049761D01*
X0235396Y0049785D01*
X0235240Y0049813D01*
X0235085Y0049844D01*
X0234930Y0049880D01*
X0234777Y0049919D01*
X0234625Y0049962D01*
X0234474Y0050009D01*
X0234324Y0050060D01*
X0234175Y0050115D01*
X0234028Y0050173D01*
X0233882Y0050235D01*
X0233738Y0050300D01*
X0233596Y0050370D01*
X0233455Y0050442D01*
X0233316Y0050519D01*
X0233180Y0050598D01*
X0233045Y0050682D01*
X0232912Y0050768D01*
X0232782Y0050858D01*
X0232654Y0050951D01*
X0232528Y0051047D01*
X0232405Y0051147D01*
X0232284Y0051249D01*
X0232166Y0051354D01*
X0232051Y0051463D01*
X0231938Y0051574D01*
X0231828Y0051688D01*
X0231721Y0051805D01*
X0231617Y0051924D01*
X0231516Y0052046D01*
X0231419Y0052171D01*
X0231324Y0052298D01*
X0231233Y0052427D01*
X0231144Y0052558D01*
X0231060Y0052692D01*
X0230978Y0052828D01*
X0230900Y0052965D01*
X0230826Y0053105D01*
X0230755Y0053247D01*
X0230687Y0053390D01*
X0230623Y0053535D01*
X0230563Y0053681D01*
X0230507Y0053829D01*
X0230454Y0053978D01*
X0230405Y0054129D01*
X0230360Y0054281D01*
X0230319Y0054434D01*
X0230281Y0054587D01*
X0230248Y0054742D01*
X0230218Y0054898D01*
X0230192Y0055054D01*
X0230171Y0055211D01*
X0230153Y0055368D01*
X0230139Y0055526D01*
X0230129Y0055684D01*
X0230123Y0055842D01*
X0230121Y0056000D01*
X0230121Y0011000D02*
X0230123Y0011158D01*
X0230129Y0011316D01*
X0230139Y0011474D01*
X0230153Y0011632D01*
X0230171Y0011789D01*
X0230192Y0011946D01*
X0230218Y0012102D01*
X0230248Y0012258D01*
X0230281Y0012413D01*
X0230319Y0012566D01*
X0230360Y0012719D01*
X0230405Y0012871D01*
X0230454Y0013022D01*
X0230507Y0013171D01*
X0230563Y0013319D01*
X0230623Y0013465D01*
X0230687Y0013610D01*
X0230755Y0013753D01*
X0230826Y0013895D01*
X0230900Y0014035D01*
X0230978Y0014172D01*
X0231060Y0014308D01*
X0231144Y0014442D01*
X0231233Y0014573D01*
X0231324Y0014702D01*
X0231419Y0014829D01*
X0231516Y0014954D01*
X0231617Y0015076D01*
X0231721Y0015195D01*
X0231828Y0015312D01*
X0231938Y0015426D01*
X0232051Y0015537D01*
X0232166Y0015646D01*
X0232284Y0015751D01*
X0232405Y0015853D01*
X0232528Y0015953D01*
X0232654Y0016049D01*
X0232782Y0016142D01*
X0232912Y0016232D01*
X0233045Y0016318D01*
X0233180Y0016402D01*
X0233316Y0016481D01*
X0233455Y0016558D01*
X0233596Y0016630D01*
X0233738Y0016700D01*
X0233882Y0016765D01*
X0234028Y0016827D01*
X0234175Y0016885D01*
X0234324Y0016940D01*
X0234474Y0016991D01*
X0234625Y0017038D01*
X0234777Y0017081D01*
X0234930Y0017120D01*
X0235085Y0017156D01*
X0235240Y0017187D01*
X0235396Y0017215D01*
X0235552Y0017239D01*
X0235709Y0017259D01*
X0235867Y0017275D01*
X0236024Y0017287D01*
X0236183Y0017295D01*
X0236341Y0017299D01*
X0236499Y0017299D01*
X0236657Y0017295D01*
X0236816Y0017287D01*
X0236973Y0017275D01*
X0237131Y0017259D01*
X0237288Y0017239D01*
X0237444Y0017215D01*
X0237600Y0017187D01*
X0237755Y0017156D01*
X0237910Y0017120D01*
X0238063Y0017081D01*
X0238215Y0017038D01*
X0238366Y0016991D01*
X0238516Y0016940D01*
X0238665Y0016885D01*
X0238812Y0016827D01*
X0238958Y0016765D01*
X0239102Y0016700D01*
X0239244Y0016630D01*
X0239385Y0016558D01*
X0239524Y0016481D01*
X0239660Y0016402D01*
X0239795Y0016318D01*
X0239928Y0016232D01*
X0240058Y0016142D01*
X0240186Y0016049D01*
X0240312Y0015953D01*
X0240435Y0015853D01*
X0240556Y0015751D01*
X0240674Y0015646D01*
X0240789Y0015537D01*
X0240902Y0015426D01*
X0241012Y0015312D01*
X0241119Y0015195D01*
X0241223Y0015076D01*
X0241324Y0014954D01*
X0241421Y0014829D01*
X0241516Y0014702D01*
X0241607Y0014573D01*
X0241696Y0014442D01*
X0241780Y0014308D01*
X0241862Y0014172D01*
X0241940Y0014035D01*
X0242014Y0013895D01*
X0242085Y0013753D01*
X0242153Y0013610D01*
X0242217Y0013465D01*
X0242277Y0013319D01*
X0242333Y0013171D01*
X0242386Y0013022D01*
X0242435Y0012871D01*
X0242480Y0012719D01*
X0242521Y0012566D01*
X0242559Y0012413D01*
X0242592Y0012258D01*
X0242622Y0012102D01*
X0242648Y0011946D01*
X0242669Y0011789D01*
X0242687Y0011632D01*
X0242701Y0011474D01*
X0242711Y0011316D01*
X0242717Y0011158D01*
X0242719Y0011000D01*
X0242717Y0010842D01*
X0242711Y0010684D01*
X0242701Y0010526D01*
X0242687Y0010368D01*
X0242669Y0010211D01*
X0242648Y0010054D01*
X0242622Y0009898D01*
X0242592Y0009742D01*
X0242559Y0009587D01*
X0242521Y0009434D01*
X0242480Y0009281D01*
X0242435Y0009129D01*
X0242386Y0008978D01*
X0242333Y0008829D01*
X0242277Y0008681D01*
X0242217Y0008535D01*
X0242153Y0008390D01*
X0242085Y0008247D01*
X0242014Y0008105D01*
X0241940Y0007965D01*
X0241862Y0007828D01*
X0241780Y0007692D01*
X0241696Y0007558D01*
X0241607Y0007427D01*
X0241516Y0007298D01*
X0241421Y0007171D01*
X0241324Y0007046D01*
X0241223Y0006924D01*
X0241119Y0006805D01*
X0241012Y0006688D01*
X0240902Y0006574D01*
X0240789Y0006463D01*
X0240674Y0006354D01*
X0240556Y0006249D01*
X0240435Y0006147D01*
X0240312Y0006047D01*
X0240186Y0005951D01*
X0240058Y0005858D01*
X0239928Y0005768D01*
X0239795Y0005682D01*
X0239660Y0005598D01*
X0239524Y0005519D01*
X0239385Y0005442D01*
X0239244Y0005370D01*
X0239102Y0005300D01*
X0238958Y0005235D01*
X0238812Y0005173D01*
X0238665Y0005115D01*
X0238516Y0005060D01*
X0238366Y0005009D01*
X0238215Y0004962D01*
X0238063Y0004919D01*
X0237910Y0004880D01*
X0237755Y0004844D01*
X0237600Y0004813D01*
X0237444Y0004785D01*
X0237288Y0004761D01*
X0237131Y0004741D01*
X0236973Y0004725D01*
X0236816Y0004713D01*
X0236657Y0004705D01*
X0236499Y0004701D01*
X0236341Y0004701D01*
X0236183Y0004705D01*
X0236024Y0004713D01*
X0235867Y0004725D01*
X0235709Y0004741D01*
X0235552Y0004761D01*
X0235396Y0004785D01*
X0235240Y0004813D01*
X0235085Y0004844D01*
X0234930Y0004880D01*
X0234777Y0004919D01*
X0234625Y0004962D01*
X0234474Y0005009D01*
X0234324Y0005060D01*
X0234175Y0005115D01*
X0234028Y0005173D01*
X0233882Y0005235D01*
X0233738Y0005300D01*
X0233596Y0005370D01*
X0233455Y0005442D01*
X0233316Y0005519D01*
X0233180Y0005598D01*
X0233045Y0005682D01*
X0232912Y0005768D01*
X0232782Y0005858D01*
X0232654Y0005951D01*
X0232528Y0006047D01*
X0232405Y0006147D01*
X0232284Y0006249D01*
X0232166Y0006354D01*
X0232051Y0006463D01*
X0231938Y0006574D01*
X0231828Y0006688D01*
X0231721Y0006805D01*
X0231617Y0006924D01*
X0231516Y0007046D01*
X0231419Y0007171D01*
X0231324Y0007298D01*
X0231233Y0007427D01*
X0231144Y0007558D01*
X0231060Y0007692D01*
X0230978Y0007828D01*
X0230900Y0007965D01*
X0230826Y0008105D01*
X0230755Y0008247D01*
X0230687Y0008390D01*
X0230623Y0008535D01*
X0230563Y0008681D01*
X0230507Y0008829D01*
X0230454Y0008978D01*
X0230405Y0009129D01*
X0230360Y0009281D01*
X0230319Y0009434D01*
X0230281Y0009587D01*
X0230248Y0009742D01*
X0230218Y0009898D01*
X0230192Y0010054D01*
X0230171Y0010211D01*
X0230153Y0010368D01*
X0230139Y0010526D01*
X0230129Y0010684D01*
X0230123Y0010842D01*
X0230121Y0011000D01*
M02*
