G75*
%MOIN*%
%OFA0B0*%
%FSLAX25Y25*%
%IPPOS*%
%LPD*%
%AMOC8*
5,1,8,0,0,1.08239X$1,22.5*
%
%ADD10C,0.00000*%
%ADD11C,0.00600*%
%ADD12C,0.00300*%
%ADD13C,0.00800*%
%ADD14C,0.00400*%
%ADD15C,0.00500*%
%ADD16C,0.00100*%
%ADD17C,0.00060*%
D10*
X0031420Y0001000D02*
X0031420Y0101000D01*
X0247670Y0101000D01*
X0247670Y0001000D01*
X0031420Y0001000D01*
X0037621Y0011000D02*
X0037623Y0011158D01*
X0037629Y0011316D01*
X0037639Y0011474D01*
X0037653Y0011632D01*
X0037671Y0011789D01*
X0037692Y0011946D01*
X0037718Y0012102D01*
X0037748Y0012258D01*
X0037781Y0012413D01*
X0037819Y0012566D01*
X0037860Y0012719D01*
X0037905Y0012871D01*
X0037954Y0013022D01*
X0038007Y0013171D01*
X0038063Y0013319D01*
X0038123Y0013465D01*
X0038187Y0013610D01*
X0038255Y0013753D01*
X0038326Y0013895D01*
X0038400Y0014035D01*
X0038478Y0014172D01*
X0038560Y0014308D01*
X0038644Y0014442D01*
X0038733Y0014573D01*
X0038824Y0014702D01*
X0038919Y0014829D01*
X0039016Y0014954D01*
X0039117Y0015076D01*
X0039221Y0015195D01*
X0039328Y0015312D01*
X0039438Y0015426D01*
X0039551Y0015537D01*
X0039666Y0015646D01*
X0039784Y0015751D01*
X0039905Y0015853D01*
X0040028Y0015953D01*
X0040154Y0016049D01*
X0040282Y0016142D01*
X0040412Y0016232D01*
X0040545Y0016318D01*
X0040680Y0016402D01*
X0040816Y0016481D01*
X0040955Y0016558D01*
X0041096Y0016630D01*
X0041238Y0016700D01*
X0041382Y0016765D01*
X0041528Y0016827D01*
X0041675Y0016885D01*
X0041824Y0016940D01*
X0041974Y0016991D01*
X0042125Y0017038D01*
X0042277Y0017081D01*
X0042430Y0017120D01*
X0042585Y0017156D01*
X0042740Y0017187D01*
X0042896Y0017215D01*
X0043052Y0017239D01*
X0043209Y0017259D01*
X0043367Y0017275D01*
X0043524Y0017287D01*
X0043683Y0017295D01*
X0043841Y0017299D01*
X0043999Y0017299D01*
X0044157Y0017295D01*
X0044316Y0017287D01*
X0044473Y0017275D01*
X0044631Y0017259D01*
X0044788Y0017239D01*
X0044944Y0017215D01*
X0045100Y0017187D01*
X0045255Y0017156D01*
X0045410Y0017120D01*
X0045563Y0017081D01*
X0045715Y0017038D01*
X0045866Y0016991D01*
X0046016Y0016940D01*
X0046165Y0016885D01*
X0046312Y0016827D01*
X0046458Y0016765D01*
X0046602Y0016700D01*
X0046744Y0016630D01*
X0046885Y0016558D01*
X0047024Y0016481D01*
X0047160Y0016402D01*
X0047295Y0016318D01*
X0047428Y0016232D01*
X0047558Y0016142D01*
X0047686Y0016049D01*
X0047812Y0015953D01*
X0047935Y0015853D01*
X0048056Y0015751D01*
X0048174Y0015646D01*
X0048289Y0015537D01*
X0048402Y0015426D01*
X0048512Y0015312D01*
X0048619Y0015195D01*
X0048723Y0015076D01*
X0048824Y0014954D01*
X0048921Y0014829D01*
X0049016Y0014702D01*
X0049107Y0014573D01*
X0049196Y0014442D01*
X0049280Y0014308D01*
X0049362Y0014172D01*
X0049440Y0014035D01*
X0049514Y0013895D01*
X0049585Y0013753D01*
X0049653Y0013610D01*
X0049717Y0013465D01*
X0049777Y0013319D01*
X0049833Y0013171D01*
X0049886Y0013022D01*
X0049935Y0012871D01*
X0049980Y0012719D01*
X0050021Y0012566D01*
X0050059Y0012413D01*
X0050092Y0012258D01*
X0050122Y0012102D01*
X0050148Y0011946D01*
X0050169Y0011789D01*
X0050187Y0011632D01*
X0050201Y0011474D01*
X0050211Y0011316D01*
X0050217Y0011158D01*
X0050219Y0011000D01*
X0050217Y0010842D01*
X0050211Y0010684D01*
X0050201Y0010526D01*
X0050187Y0010368D01*
X0050169Y0010211D01*
X0050148Y0010054D01*
X0050122Y0009898D01*
X0050092Y0009742D01*
X0050059Y0009587D01*
X0050021Y0009434D01*
X0049980Y0009281D01*
X0049935Y0009129D01*
X0049886Y0008978D01*
X0049833Y0008829D01*
X0049777Y0008681D01*
X0049717Y0008535D01*
X0049653Y0008390D01*
X0049585Y0008247D01*
X0049514Y0008105D01*
X0049440Y0007965D01*
X0049362Y0007828D01*
X0049280Y0007692D01*
X0049196Y0007558D01*
X0049107Y0007427D01*
X0049016Y0007298D01*
X0048921Y0007171D01*
X0048824Y0007046D01*
X0048723Y0006924D01*
X0048619Y0006805D01*
X0048512Y0006688D01*
X0048402Y0006574D01*
X0048289Y0006463D01*
X0048174Y0006354D01*
X0048056Y0006249D01*
X0047935Y0006147D01*
X0047812Y0006047D01*
X0047686Y0005951D01*
X0047558Y0005858D01*
X0047428Y0005768D01*
X0047295Y0005682D01*
X0047160Y0005598D01*
X0047024Y0005519D01*
X0046885Y0005442D01*
X0046744Y0005370D01*
X0046602Y0005300D01*
X0046458Y0005235D01*
X0046312Y0005173D01*
X0046165Y0005115D01*
X0046016Y0005060D01*
X0045866Y0005009D01*
X0045715Y0004962D01*
X0045563Y0004919D01*
X0045410Y0004880D01*
X0045255Y0004844D01*
X0045100Y0004813D01*
X0044944Y0004785D01*
X0044788Y0004761D01*
X0044631Y0004741D01*
X0044473Y0004725D01*
X0044316Y0004713D01*
X0044157Y0004705D01*
X0043999Y0004701D01*
X0043841Y0004701D01*
X0043683Y0004705D01*
X0043524Y0004713D01*
X0043367Y0004725D01*
X0043209Y0004741D01*
X0043052Y0004761D01*
X0042896Y0004785D01*
X0042740Y0004813D01*
X0042585Y0004844D01*
X0042430Y0004880D01*
X0042277Y0004919D01*
X0042125Y0004962D01*
X0041974Y0005009D01*
X0041824Y0005060D01*
X0041675Y0005115D01*
X0041528Y0005173D01*
X0041382Y0005235D01*
X0041238Y0005300D01*
X0041096Y0005370D01*
X0040955Y0005442D01*
X0040816Y0005519D01*
X0040680Y0005598D01*
X0040545Y0005682D01*
X0040412Y0005768D01*
X0040282Y0005858D01*
X0040154Y0005951D01*
X0040028Y0006047D01*
X0039905Y0006147D01*
X0039784Y0006249D01*
X0039666Y0006354D01*
X0039551Y0006463D01*
X0039438Y0006574D01*
X0039328Y0006688D01*
X0039221Y0006805D01*
X0039117Y0006924D01*
X0039016Y0007046D01*
X0038919Y0007171D01*
X0038824Y0007298D01*
X0038733Y0007427D01*
X0038644Y0007558D01*
X0038560Y0007692D01*
X0038478Y0007828D01*
X0038400Y0007965D01*
X0038326Y0008105D01*
X0038255Y0008247D01*
X0038187Y0008390D01*
X0038123Y0008535D01*
X0038063Y0008681D01*
X0038007Y0008829D01*
X0037954Y0008978D01*
X0037905Y0009129D01*
X0037860Y0009281D01*
X0037819Y0009434D01*
X0037781Y0009587D01*
X0037748Y0009742D01*
X0037718Y0009898D01*
X0037692Y0010054D01*
X0037671Y0010211D01*
X0037653Y0010368D01*
X0037639Y0010526D01*
X0037629Y0010684D01*
X0037623Y0010842D01*
X0037621Y0011000D01*
X0037621Y0056000D02*
X0037623Y0056158D01*
X0037629Y0056316D01*
X0037639Y0056474D01*
X0037653Y0056632D01*
X0037671Y0056789D01*
X0037692Y0056946D01*
X0037718Y0057102D01*
X0037748Y0057258D01*
X0037781Y0057413D01*
X0037819Y0057566D01*
X0037860Y0057719D01*
X0037905Y0057871D01*
X0037954Y0058022D01*
X0038007Y0058171D01*
X0038063Y0058319D01*
X0038123Y0058465D01*
X0038187Y0058610D01*
X0038255Y0058753D01*
X0038326Y0058895D01*
X0038400Y0059035D01*
X0038478Y0059172D01*
X0038560Y0059308D01*
X0038644Y0059442D01*
X0038733Y0059573D01*
X0038824Y0059702D01*
X0038919Y0059829D01*
X0039016Y0059954D01*
X0039117Y0060076D01*
X0039221Y0060195D01*
X0039328Y0060312D01*
X0039438Y0060426D01*
X0039551Y0060537D01*
X0039666Y0060646D01*
X0039784Y0060751D01*
X0039905Y0060853D01*
X0040028Y0060953D01*
X0040154Y0061049D01*
X0040282Y0061142D01*
X0040412Y0061232D01*
X0040545Y0061318D01*
X0040680Y0061402D01*
X0040816Y0061481D01*
X0040955Y0061558D01*
X0041096Y0061630D01*
X0041238Y0061700D01*
X0041382Y0061765D01*
X0041528Y0061827D01*
X0041675Y0061885D01*
X0041824Y0061940D01*
X0041974Y0061991D01*
X0042125Y0062038D01*
X0042277Y0062081D01*
X0042430Y0062120D01*
X0042585Y0062156D01*
X0042740Y0062187D01*
X0042896Y0062215D01*
X0043052Y0062239D01*
X0043209Y0062259D01*
X0043367Y0062275D01*
X0043524Y0062287D01*
X0043683Y0062295D01*
X0043841Y0062299D01*
X0043999Y0062299D01*
X0044157Y0062295D01*
X0044316Y0062287D01*
X0044473Y0062275D01*
X0044631Y0062259D01*
X0044788Y0062239D01*
X0044944Y0062215D01*
X0045100Y0062187D01*
X0045255Y0062156D01*
X0045410Y0062120D01*
X0045563Y0062081D01*
X0045715Y0062038D01*
X0045866Y0061991D01*
X0046016Y0061940D01*
X0046165Y0061885D01*
X0046312Y0061827D01*
X0046458Y0061765D01*
X0046602Y0061700D01*
X0046744Y0061630D01*
X0046885Y0061558D01*
X0047024Y0061481D01*
X0047160Y0061402D01*
X0047295Y0061318D01*
X0047428Y0061232D01*
X0047558Y0061142D01*
X0047686Y0061049D01*
X0047812Y0060953D01*
X0047935Y0060853D01*
X0048056Y0060751D01*
X0048174Y0060646D01*
X0048289Y0060537D01*
X0048402Y0060426D01*
X0048512Y0060312D01*
X0048619Y0060195D01*
X0048723Y0060076D01*
X0048824Y0059954D01*
X0048921Y0059829D01*
X0049016Y0059702D01*
X0049107Y0059573D01*
X0049196Y0059442D01*
X0049280Y0059308D01*
X0049362Y0059172D01*
X0049440Y0059035D01*
X0049514Y0058895D01*
X0049585Y0058753D01*
X0049653Y0058610D01*
X0049717Y0058465D01*
X0049777Y0058319D01*
X0049833Y0058171D01*
X0049886Y0058022D01*
X0049935Y0057871D01*
X0049980Y0057719D01*
X0050021Y0057566D01*
X0050059Y0057413D01*
X0050092Y0057258D01*
X0050122Y0057102D01*
X0050148Y0056946D01*
X0050169Y0056789D01*
X0050187Y0056632D01*
X0050201Y0056474D01*
X0050211Y0056316D01*
X0050217Y0056158D01*
X0050219Y0056000D01*
X0050217Y0055842D01*
X0050211Y0055684D01*
X0050201Y0055526D01*
X0050187Y0055368D01*
X0050169Y0055211D01*
X0050148Y0055054D01*
X0050122Y0054898D01*
X0050092Y0054742D01*
X0050059Y0054587D01*
X0050021Y0054434D01*
X0049980Y0054281D01*
X0049935Y0054129D01*
X0049886Y0053978D01*
X0049833Y0053829D01*
X0049777Y0053681D01*
X0049717Y0053535D01*
X0049653Y0053390D01*
X0049585Y0053247D01*
X0049514Y0053105D01*
X0049440Y0052965D01*
X0049362Y0052828D01*
X0049280Y0052692D01*
X0049196Y0052558D01*
X0049107Y0052427D01*
X0049016Y0052298D01*
X0048921Y0052171D01*
X0048824Y0052046D01*
X0048723Y0051924D01*
X0048619Y0051805D01*
X0048512Y0051688D01*
X0048402Y0051574D01*
X0048289Y0051463D01*
X0048174Y0051354D01*
X0048056Y0051249D01*
X0047935Y0051147D01*
X0047812Y0051047D01*
X0047686Y0050951D01*
X0047558Y0050858D01*
X0047428Y0050768D01*
X0047295Y0050682D01*
X0047160Y0050598D01*
X0047024Y0050519D01*
X0046885Y0050442D01*
X0046744Y0050370D01*
X0046602Y0050300D01*
X0046458Y0050235D01*
X0046312Y0050173D01*
X0046165Y0050115D01*
X0046016Y0050060D01*
X0045866Y0050009D01*
X0045715Y0049962D01*
X0045563Y0049919D01*
X0045410Y0049880D01*
X0045255Y0049844D01*
X0045100Y0049813D01*
X0044944Y0049785D01*
X0044788Y0049761D01*
X0044631Y0049741D01*
X0044473Y0049725D01*
X0044316Y0049713D01*
X0044157Y0049705D01*
X0043999Y0049701D01*
X0043841Y0049701D01*
X0043683Y0049705D01*
X0043524Y0049713D01*
X0043367Y0049725D01*
X0043209Y0049741D01*
X0043052Y0049761D01*
X0042896Y0049785D01*
X0042740Y0049813D01*
X0042585Y0049844D01*
X0042430Y0049880D01*
X0042277Y0049919D01*
X0042125Y0049962D01*
X0041974Y0050009D01*
X0041824Y0050060D01*
X0041675Y0050115D01*
X0041528Y0050173D01*
X0041382Y0050235D01*
X0041238Y0050300D01*
X0041096Y0050370D01*
X0040955Y0050442D01*
X0040816Y0050519D01*
X0040680Y0050598D01*
X0040545Y0050682D01*
X0040412Y0050768D01*
X0040282Y0050858D01*
X0040154Y0050951D01*
X0040028Y0051047D01*
X0039905Y0051147D01*
X0039784Y0051249D01*
X0039666Y0051354D01*
X0039551Y0051463D01*
X0039438Y0051574D01*
X0039328Y0051688D01*
X0039221Y0051805D01*
X0039117Y0051924D01*
X0039016Y0052046D01*
X0038919Y0052171D01*
X0038824Y0052298D01*
X0038733Y0052427D01*
X0038644Y0052558D01*
X0038560Y0052692D01*
X0038478Y0052828D01*
X0038400Y0052965D01*
X0038326Y0053105D01*
X0038255Y0053247D01*
X0038187Y0053390D01*
X0038123Y0053535D01*
X0038063Y0053681D01*
X0038007Y0053829D01*
X0037954Y0053978D01*
X0037905Y0054129D01*
X0037860Y0054281D01*
X0037819Y0054434D01*
X0037781Y0054587D01*
X0037748Y0054742D01*
X0037718Y0054898D01*
X0037692Y0055054D01*
X0037671Y0055211D01*
X0037653Y0055368D01*
X0037639Y0055526D01*
X0037629Y0055684D01*
X0037623Y0055842D01*
X0037621Y0056000D01*
X0225121Y0083500D02*
X0225123Y0083658D01*
X0225129Y0083816D01*
X0225139Y0083974D01*
X0225153Y0084132D01*
X0225171Y0084289D01*
X0225192Y0084446D01*
X0225218Y0084602D01*
X0225248Y0084758D01*
X0225281Y0084913D01*
X0225319Y0085066D01*
X0225360Y0085219D01*
X0225405Y0085371D01*
X0225454Y0085522D01*
X0225507Y0085671D01*
X0225563Y0085819D01*
X0225623Y0085965D01*
X0225687Y0086110D01*
X0225755Y0086253D01*
X0225826Y0086395D01*
X0225900Y0086535D01*
X0225978Y0086672D01*
X0226060Y0086808D01*
X0226144Y0086942D01*
X0226233Y0087073D01*
X0226324Y0087202D01*
X0226419Y0087329D01*
X0226516Y0087454D01*
X0226617Y0087576D01*
X0226721Y0087695D01*
X0226828Y0087812D01*
X0226938Y0087926D01*
X0227051Y0088037D01*
X0227166Y0088146D01*
X0227284Y0088251D01*
X0227405Y0088353D01*
X0227528Y0088453D01*
X0227654Y0088549D01*
X0227782Y0088642D01*
X0227912Y0088732D01*
X0228045Y0088818D01*
X0228180Y0088902D01*
X0228316Y0088981D01*
X0228455Y0089058D01*
X0228596Y0089130D01*
X0228738Y0089200D01*
X0228882Y0089265D01*
X0229028Y0089327D01*
X0229175Y0089385D01*
X0229324Y0089440D01*
X0229474Y0089491D01*
X0229625Y0089538D01*
X0229777Y0089581D01*
X0229930Y0089620D01*
X0230085Y0089656D01*
X0230240Y0089687D01*
X0230396Y0089715D01*
X0230552Y0089739D01*
X0230709Y0089759D01*
X0230867Y0089775D01*
X0231024Y0089787D01*
X0231183Y0089795D01*
X0231341Y0089799D01*
X0231499Y0089799D01*
X0231657Y0089795D01*
X0231816Y0089787D01*
X0231973Y0089775D01*
X0232131Y0089759D01*
X0232288Y0089739D01*
X0232444Y0089715D01*
X0232600Y0089687D01*
X0232755Y0089656D01*
X0232910Y0089620D01*
X0233063Y0089581D01*
X0233215Y0089538D01*
X0233366Y0089491D01*
X0233516Y0089440D01*
X0233665Y0089385D01*
X0233812Y0089327D01*
X0233958Y0089265D01*
X0234102Y0089200D01*
X0234244Y0089130D01*
X0234385Y0089058D01*
X0234524Y0088981D01*
X0234660Y0088902D01*
X0234795Y0088818D01*
X0234928Y0088732D01*
X0235058Y0088642D01*
X0235186Y0088549D01*
X0235312Y0088453D01*
X0235435Y0088353D01*
X0235556Y0088251D01*
X0235674Y0088146D01*
X0235789Y0088037D01*
X0235902Y0087926D01*
X0236012Y0087812D01*
X0236119Y0087695D01*
X0236223Y0087576D01*
X0236324Y0087454D01*
X0236421Y0087329D01*
X0236516Y0087202D01*
X0236607Y0087073D01*
X0236696Y0086942D01*
X0236780Y0086808D01*
X0236862Y0086672D01*
X0236940Y0086535D01*
X0237014Y0086395D01*
X0237085Y0086253D01*
X0237153Y0086110D01*
X0237217Y0085965D01*
X0237277Y0085819D01*
X0237333Y0085671D01*
X0237386Y0085522D01*
X0237435Y0085371D01*
X0237480Y0085219D01*
X0237521Y0085066D01*
X0237559Y0084913D01*
X0237592Y0084758D01*
X0237622Y0084602D01*
X0237648Y0084446D01*
X0237669Y0084289D01*
X0237687Y0084132D01*
X0237701Y0083974D01*
X0237711Y0083816D01*
X0237717Y0083658D01*
X0237719Y0083500D01*
X0237717Y0083342D01*
X0237711Y0083184D01*
X0237701Y0083026D01*
X0237687Y0082868D01*
X0237669Y0082711D01*
X0237648Y0082554D01*
X0237622Y0082398D01*
X0237592Y0082242D01*
X0237559Y0082087D01*
X0237521Y0081934D01*
X0237480Y0081781D01*
X0237435Y0081629D01*
X0237386Y0081478D01*
X0237333Y0081329D01*
X0237277Y0081181D01*
X0237217Y0081035D01*
X0237153Y0080890D01*
X0237085Y0080747D01*
X0237014Y0080605D01*
X0236940Y0080465D01*
X0236862Y0080328D01*
X0236780Y0080192D01*
X0236696Y0080058D01*
X0236607Y0079927D01*
X0236516Y0079798D01*
X0236421Y0079671D01*
X0236324Y0079546D01*
X0236223Y0079424D01*
X0236119Y0079305D01*
X0236012Y0079188D01*
X0235902Y0079074D01*
X0235789Y0078963D01*
X0235674Y0078854D01*
X0235556Y0078749D01*
X0235435Y0078647D01*
X0235312Y0078547D01*
X0235186Y0078451D01*
X0235058Y0078358D01*
X0234928Y0078268D01*
X0234795Y0078182D01*
X0234660Y0078098D01*
X0234524Y0078019D01*
X0234385Y0077942D01*
X0234244Y0077870D01*
X0234102Y0077800D01*
X0233958Y0077735D01*
X0233812Y0077673D01*
X0233665Y0077615D01*
X0233516Y0077560D01*
X0233366Y0077509D01*
X0233215Y0077462D01*
X0233063Y0077419D01*
X0232910Y0077380D01*
X0232755Y0077344D01*
X0232600Y0077313D01*
X0232444Y0077285D01*
X0232288Y0077261D01*
X0232131Y0077241D01*
X0231973Y0077225D01*
X0231816Y0077213D01*
X0231657Y0077205D01*
X0231499Y0077201D01*
X0231341Y0077201D01*
X0231183Y0077205D01*
X0231024Y0077213D01*
X0230867Y0077225D01*
X0230709Y0077241D01*
X0230552Y0077261D01*
X0230396Y0077285D01*
X0230240Y0077313D01*
X0230085Y0077344D01*
X0229930Y0077380D01*
X0229777Y0077419D01*
X0229625Y0077462D01*
X0229474Y0077509D01*
X0229324Y0077560D01*
X0229175Y0077615D01*
X0229028Y0077673D01*
X0228882Y0077735D01*
X0228738Y0077800D01*
X0228596Y0077870D01*
X0228455Y0077942D01*
X0228316Y0078019D01*
X0228180Y0078098D01*
X0228045Y0078182D01*
X0227912Y0078268D01*
X0227782Y0078358D01*
X0227654Y0078451D01*
X0227528Y0078547D01*
X0227405Y0078647D01*
X0227284Y0078749D01*
X0227166Y0078854D01*
X0227051Y0078963D01*
X0226938Y0079074D01*
X0226828Y0079188D01*
X0226721Y0079305D01*
X0226617Y0079424D01*
X0226516Y0079546D01*
X0226419Y0079671D01*
X0226324Y0079798D01*
X0226233Y0079927D01*
X0226144Y0080058D01*
X0226060Y0080192D01*
X0225978Y0080328D01*
X0225900Y0080465D01*
X0225826Y0080605D01*
X0225755Y0080747D01*
X0225687Y0080890D01*
X0225623Y0081035D01*
X0225563Y0081181D01*
X0225507Y0081329D01*
X0225454Y0081478D01*
X0225405Y0081629D01*
X0225360Y0081781D01*
X0225319Y0081934D01*
X0225281Y0082087D01*
X0225248Y0082242D01*
X0225218Y0082398D01*
X0225192Y0082554D01*
X0225171Y0082711D01*
X0225153Y0082868D01*
X0225139Y0083026D01*
X0225129Y0083184D01*
X0225123Y0083342D01*
X0225121Y0083500D01*
X0230121Y0056000D02*
X0230123Y0056158D01*
X0230129Y0056316D01*
X0230139Y0056474D01*
X0230153Y0056632D01*
X0230171Y0056789D01*
X0230192Y0056946D01*
X0230218Y0057102D01*
X0230248Y0057258D01*
X0230281Y0057413D01*
X0230319Y0057566D01*
X0230360Y0057719D01*
X0230405Y0057871D01*
X0230454Y0058022D01*
X0230507Y0058171D01*
X0230563Y0058319D01*
X0230623Y0058465D01*
X0230687Y0058610D01*
X0230755Y0058753D01*
X0230826Y0058895D01*
X0230900Y0059035D01*
X0230978Y0059172D01*
X0231060Y0059308D01*
X0231144Y0059442D01*
X0231233Y0059573D01*
X0231324Y0059702D01*
X0231419Y0059829D01*
X0231516Y0059954D01*
X0231617Y0060076D01*
X0231721Y0060195D01*
X0231828Y0060312D01*
X0231938Y0060426D01*
X0232051Y0060537D01*
X0232166Y0060646D01*
X0232284Y0060751D01*
X0232405Y0060853D01*
X0232528Y0060953D01*
X0232654Y0061049D01*
X0232782Y0061142D01*
X0232912Y0061232D01*
X0233045Y0061318D01*
X0233180Y0061402D01*
X0233316Y0061481D01*
X0233455Y0061558D01*
X0233596Y0061630D01*
X0233738Y0061700D01*
X0233882Y0061765D01*
X0234028Y0061827D01*
X0234175Y0061885D01*
X0234324Y0061940D01*
X0234474Y0061991D01*
X0234625Y0062038D01*
X0234777Y0062081D01*
X0234930Y0062120D01*
X0235085Y0062156D01*
X0235240Y0062187D01*
X0235396Y0062215D01*
X0235552Y0062239D01*
X0235709Y0062259D01*
X0235867Y0062275D01*
X0236024Y0062287D01*
X0236183Y0062295D01*
X0236341Y0062299D01*
X0236499Y0062299D01*
X0236657Y0062295D01*
X0236816Y0062287D01*
X0236973Y0062275D01*
X0237131Y0062259D01*
X0237288Y0062239D01*
X0237444Y0062215D01*
X0237600Y0062187D01*
X0237755Y0062156D01*
X0237910Y0062120D01*
X0238063Y0062081D01*
X0238215Y0062038D01*
X0238366Y0061991D01*
X0238516Y0061940D01*
X0238665Y0061885D01*
X0238812Y0061827D01*
X0238958Y0061765D01*
X0239102Y0061700D01*
X0239244Y0061630D01*
X0239385Y0061558D01*
X0239524Y0061481D01*
X0239660Y0061402D01*
X0239795Y0061318D01*
X0239928Y0061232D01*
X0240058Y0061142D01*
X0240186Y0061049D01*
X0240312Y0060953D01*
X0240435Y0060853D01*
X0240556Y0060751D01*
X0240674Y0060646D01*
X0240789Y0060537D01*
X0240902Y0060426D01*
X0241012Y0060312D01*
X0241119Y0060195D01*
X0241223Y0060076D01*
X0241324Y0059954D01*
X0241421Y0059829D01*
X0241516Y0059702D01*
X0241607Y0059573D01*
X0241696Y0059442D01*
X0241780Y0059308D01*
X0241862Y0059172D01*
X0241940Y0059035D01*
X0242014Y0058895D01*
X0242085Y0058753D01*
X0242153Y0058610D01*
X0242217Y0058465D01*
X0242277Y0058319D01*
X0242333Y0058171D01*
X0242386Y0058022D01*
X0242435Y0057871D01*
X0242480Y0057719D01*
X0242521Y0057566D01*
X0242559Y0057413D01*
X0242592Y0057258D01*
X0242622Y0057102D01*
X0242648Y0056946D01*
X0242669Y0056789D01*
X0242687Y0056632D01*
X0242701Y0056474D01*
X0242711Y0056316D01*
X0242717Y0056158D01*
X0242719Y0056000D01*
X0242717Y0055842D01*
X0242711Y0055684D01*
X0242701Y0055526D01*
X0242687Y0055368D01*
X0242669Y0055211D01*
X0242648Y0055054D01*
X0242622Y0054898D01*
X0242592Y0054742D01*
X0242559Y0054587D01*
X0242521Y0054434D01*
X0242480Y0054281D01*
X0242435Y0054129D01*
X0242386Y0053978D01*
X0242333Y0053829D01*
X0242277Y0053681D01*
X0242217Y0053535D01*
X0242153Y0053390D01*
X0242085Y0053247D01*
X0242014Y0053105D01*
X0241940Y0052965D01*
X0241862Y0052828D01*
X0241780Y0052692D01*
X0241696Y0052558D01*
X0241607Y0052427D01*
X0241516Y0052298D01*
X0241421Y0052171D01*
X0241324Y0052046D01*
X0241223Y0051924D01*
X0241119Y0051805D01*
X0241012Y0051688D01*
X0240902Y0051574D01*
X0240789Y0051463D01*
X0240674Y0051354D01*
X0240556Y0051249D01*
X0240435Y0051147D01*
X0240312Y0051047D01*
X0240186Y0050951D01*
X0240058Y0050858D01*
X0239928Y0050768D01*
X0239795Y0050682D01*
X0239660Y0050598D01*
X0239524Y0050519D01*
X0239385Y0050442D01*
X0239244Y0050370D01*
X0239102Y0050300D01*
X0238958Y0050235D01*
X0238812Y0050173D01*
X0238665Y0050115D01*
X0238516Y0050060D01*
X0238366Y0050009D01*
X0238215Y0049962D01*
X0238063Y0049919D01*
X0237910Y0049880D01*
X0237755Y0049844D01*
X0237600Y0049813D01*
X0237444Y0049785D01*
X0237288Y0049761D01*
X0237131Y0049741D01*
X0236973Y0049725D01*
X0236816Y0049713D01*
X0236657Y0049705D01*
X0236499Y0049701D01*
X0236341Y0049701D01*
X0236183Y0049705D01*
X0236024Y0049713D01*
X0235867Y0049725D01*
X0235709Y0049741D01*
X0235552Y0049761D01*
X0235396Y0049785D01*
X0235240Y0049813D01*
X0235085Y0049844D01*
X0234930Y0049880D01*
X0234777Y0049919D01*
X0234625Y0049962D01*
X0234474Y0050009D01*
X0234324Y0050060D01*
X0234175Y0050115D01*
X0234028Y0050173D01*
X0233882Y0050235D01*
X0233738Y0050300D01*
X0233596Y0050370D01*
X0233455Y0050442D01*
X0233316Y0050519D01*
X0233180Y0050598D01*
X0233045Y0050682D01*
X0232912Y0050768D01*
X0232782Y0050858D01*
X0232654Y0050951D01*
X0232528Y0051047D01*
X0232405Y0051147D01*
X0232284Y0051249D01*
X0232166Y0051354D01*
X0232051Y0051463D01*
X0231938Y0051574D01*
X0231828Y0051688D01*
X0231721Y0051805D01*
X0231617Y0051924D01*
X0231516Y0052046D01*
X0231419Y0052171D01*
X0231324Y0052298D01*
X0231233Y0052427D01*
X0231144Y0052558D01*
X0231060Y0052692D01*
X0230978Y0052828D01*
X0230900Y0052965D01*
X0230826Y0053105D01*
X0230755Y0053247D01*
X0230687Y0053390D01*
X0230623Y0053535D01*
X0230563Y0053681D01*
X0230507Y0053829D01*
X0230454Y0053978D01*
X0230405Y0054129D01*
X0230360Y0054281D01*
X0230319Y0054434D01*
X0230281Y0054587D01*
X0230248Y0054742D01*
X0230218Y0054898D01*
X0230192Y0055054D01*
X0230171Y0055211D01*
X0230153Y0055368D01*
X0230139Y0055526D01*
X0230129Y0055684D01*
X0230123Y0055842D01*
X0230121Y0056000D01*
X0230121Y0011000D02*
X0230123Y0011158D01*
X0230129Y0011316D01*
X0230139Y0011474D01*
X0230153Y0011632D01*
X0230171Y0011789D01*
X0230192Y0011946D01*
X0230218Y0012102D01*
X0230248Y0012258D01*
X0230281Y0012413D01*
X0230319Y0012566D01*
X0230360Y0012719D01*
X0230405Y0012871D01*
X0230454Y0013022D01*
X0230507Y0013171D01*
X0230563Y0013319D01*
X0230623Y0013465D01*
X0230687Y0013610D01*
X0230755Y0013753D01*
X0230826Y0013895D01*
X0230900Y0014035D01*
X0230978Y0014172D01*
X0231060Y0014308D01*
X0231144Y0014442D01*
X0231233Y0014573D01*
X0231324Y0014702D01*
X0231419Y0014829D01*
X0231516Y0014954D01*
X0231617Y0015076D01*
X0231721Y0015195D01*
X0231828Y0015312D01*
X0231938Y0015426D01*
X0232051Y0015537D01*
X0232166Y0015646D01*
X0232284Y0015751D01*
X0232405Y0015853D01*
X0232528Y0015953D01*
X0232654Y0016049D01*
X0232782Y0016142D01*
X0232912Y0016232D01*
X0233045Y0016318D01*
X0233180Y0016402D01*
X0233316Y0016481D01*
X0233455Y0016558D01*
X0233596Y0016630D01*
X0233738Y0016700D01*
X0233882Y0016765D01*
X0234028Y0016827D01*
X0234175Y0016885D01*
X0234324Y0016940D01*
X0234474Y0016991D01*
X0234625Y0017038D01*
X0234777Y0017081D01*
X0234930Y0017120D01*
X0235085Y0017156D01*
X0235240Y0017187D01*
X0235396Y0017215D01*
X0235552Y0017239D01*
X0235709Y0017259D01*
X0235867Y0017275D01*
X0236024Y0017287D01*
X0236183Y0017295D01*
X0236341Y0017299D01*
X0236499Y0017299D01*
X0236657Y0017295D01*
X0236816Y0017287D01*
X0236973Y0017275D01*
X0237131Y0017259D01*
X0237288Y0017239D01*
X0237444Y0017215D01*
X0237600Y0017187D01*
X0237755Y0017156D01*
X0237910Y0017120D01*
X0238063Y0017081D01*
X0238215Y0017038D01*
X0238366Y0016991D01*
X0238516Y0016940D01*
X0238665Y0016885D01*
X0238812Y0016827D01*
X0238958Y0016765D01*
X0239102Y0016700D01*
X0239244Y0016630D01*
X0239385Y0016558D01*
X0239524Y0016481D01*
X0239660Y0016402D01*
X0239795Y0016318D01*
X0239928Y0016232D01*
X0240058Y0016142D01*
X0240186Y0016049D01*
X0240312Y0015953D01*
X0240435Y0015853D01*
X0240556Y0015751D01*
X0240674Y0015646D01*
X0240789Y0015537D01*
X0240902Y0015426D01*
X0241012Y0015312D01*
X0241119Y0015195D01*
X0241223Y0015076D01*
X0241324Y0014954D01*
X0241421Y0014829D01*
X0241516Y0014702D01*
X0241607Y0014573D01*
X0241696Y0014442D01*
X0241780Y0014308D01*
X0241862Y0014172D01*
X0241940Y0014035D01*
X0242014Y0013895D01*
X0242085Y0013753D01*
X0242153Y0013610D01*
X0242217Y0013465D01*
X0242277Y0013319D01*
X0242333Y0013171D01*
X0242386Y0013022D01*
X0242435Y0012871D01*
X0242480Y0012719D01*
X0242521Y0012566D01*
X0242559Y0012413D01*
X0242592Y0012258D01*
X0242622Y0012102D01*
X0242648Y0011946D01*
X0242669Y0011789D01*
X0242687Y0011632D01*
X0242701Y0011474D01*
X0242711Y0011316D01*
X0242717Y0011158D01*
X0242719Y0011000D01*
X0242717Y0010842D01*
X0242711Y0010684D01*
X0242701Y0010526D01*
X0242687Y0010368D01*
X0242669Y0010211D01*
X0242648Y0010054D01*
X0242622Y0009898D01*
X0242592Y0009742D01*
X0242559Y0009587D01*
X0242521Y0009434D01*
X0242480Y0009281D01*
X0242435Y0009129D01*
X0242386Y0008978D01*
X0242333Y0008829D01*
X0242277Y0008681D01*
X0242217Y0008535D01*
X0242153Y0008390D01*
X0242085Y0008247D01*
X0242014Y0008105D01*
X0241940Y0007965D01*
X0241862Y0007828D01*
X0241780Y0007692D01*
X0241696Y0007558D01*
X0241607Y0007427D01*
X0241516Y0007298D01*
X0241421Y0007171D01*
X0241324Y0007046D01*
X0241223Y0006924D01*
X0241119Y0006805D01*
X0241012Y0006688D01*
X0240902Y0006574D01*
X0240789Y0006463D01*
X0240674Y0006354D01*
X0240556Y0006249D01*
X0240435Y0006147D01*
X0240312Y0006047D01*
X0240186Y0005951D01*
X0240058Y0005858D01*
X0239928Y0005768D01*
X0239795Y0005682D01*
X0239660Y0005598D01*
X0239524Y0005519D01*
X0239385Y0005442D01*
X0239244Y0005370D01*
X0239102Y0005300D01*
X0238958Y0005235D01*
X0238812Y0005173D01*
X0238665Y0005115D01*
X0238516Y0005060D01*
X0238366Y0005009D01*
X0238215Y0004962D01*
X0238063Y0004919D01*
X0237910Y0004880D01*
X0237755Y0004844D01*
X0237600Y0004813D01*
X0237444Y0004785D01*
X0237288Y0004761D01*
X0237131Y0004741D01*
X0236973Y0004725D01*
X0236816Y0004713D01*
X0236657Y0004705D01*
X0236499Y0004701D01*
X0236341Y0004701D01*
X0236183Y0004705D01*
X0236024Y0004713D01*
X0235867Y0004725D01*
X0235709Y0004741D01*
X0235552Y0004761D01*
X0235396Y0004785D01*
X0235240Y0004813D01*
X0235085Y0004844D01*
X0234930Y0004880D01*
X0234777Y0004919D01*
X0234625Y0004962D01*
X0234474Y0005009D01*
X0234324Y0005060D01*
X0234175Y0005115D01*
X0234028Y0005173D01*
X0233882Y0005235D01*
X0233738Y0005300D01*
X0233596Y0005370D01*
X0233455Y0005442D01*
X0233316Y0005519D01*
X0233180Y0005598D01*
X0233045Y0005682D01*
X0232912Y0005768D01*
X0232782Y0005858D01*
X0232654Y0005951D01*
X0232528Y0006047D01*
X0232405Y0006147D01*
X0232284Y0006249D01*
X0232166Y0006354D01*
X0232051Y0006463D01*
X0231938Y0006574D01*
X0231828Y0006688D01*
X0231721Y0006805D01*
X0231617Y0006924D01*
X0231516Y0007046D01*
X0231419Y0007171D01*
X0231324Y0007298D01*
X0231233Y0007427D01*
X0231144Y0007558D01*
X0231060Y0007692D01*
X0230978Y0007828D01*
X0230900Y0007965D01*
X0230826Y0008105D01*
X0230755Y0008247D01*
X0230687Y0008390D01*
X0230623Y0008535D01*
X0230563Y0008681D01*
X0230507Y0008829D01*
X0230454Y0008978D01*
X0230405Y0009129D01*
X0230360Y0009281D01*
X0230319Y0009434D01*
X0230281Y0009587D01*
X0230248Y0009742D01*
X0230218Y0009898D01*
X0230192Y0010054D01*
X0230171Y0010211D01*
X0230153Y0010368D01*
X0230139Y0010526D01*
X0230129Y0010684D01*
X0230123Y0010842D01*
X0230121Y0011000D01*
D11*
X0156920Y0020300D02*
X0156920Y0046700D01*
X0156920Y0038500D02*
X0156780Y0038498D01*
X0156640Y0038492D01*
X0156500Y0038482D01*
X0156360Y0038469D01*
X0156221Y0038451D01*
X0156082Y0038429D01*
X0155945Y0038404D01*
X0155807Y0038375D01*
X0155671Y0038342D01*
X0155536Y0038305D01*
X0155402Y0038264D01*
X0155269Y0038219D01*
X0155137Y0038171D01*
X0155007Y0038119D01*
X0154878Y0038064D01*
X0154751Y0038005D01*
X0154625Y0037942D01*
X0154501Y0037876D01*
X0154380Y0037807D01*
X0154260Y0037734D01*
X0154142Y0037657D01*
X0154027Y0037578D01*
X0153913Y0037495D01*
X0153803Y0037409D01*
X0153694Y0037320D01*
X0153588Y0037228D01*
X0153485Y0037133D01*
X0153384Y0037036D01*
X0153287Y0036935D01*
X0153192Y0036832D01*
X0153100Y0036726D01*
X0153011Y0036617D01*
X0152925Y0036507D01*
X0152842Y0036393D01*
X0152763Y0036278D01*
X0152686Y0036160D01*
X0152613Y0036040D01*
X0152544Y0035919D01*
X0152478Y0035795D01*
X0152415Y0035669D01*
X0152356Y0035542D01*
X0152301Y0035413D01*
X0152249Y0035283D01*
X0152201Y0035151D01*
X0152156Y0035018D01*
X0152115Y0034884D01*
X0152078Y0034749D01*
X0152045Y0034613D01*
X0152016Y0034475D01*
X0151991Y0034338D01*
X0151969Y0034199D01*
X0151951Y0034060D01*
X0151938Y0033920D01*
X0151928Y0033780D01*
X0151922Y0033640D01*
X0151920Y0033500D01*
X0151922Y0033360D01*
X0151928Y0033220D01*
X0151938Y0033080D01*
X0151951Y0032940D01*
X0151969Y0032801D01*
X0151991Y0032662D01*
X0152016Y0032525D01*
X0152045Y0032387D01*
X0152078Y0032251D01*
X0152115Y0032116D01*
X0152156Y0031982D01*
X0152201Y0031849D01*
X0152249Y0031717D01*
X0152301Y0031587D01*
X0152356Y0031458D01*
X0152415Y0031331D01*
X0152478Y0031205D01*
X0152544Y0031081D01*
X0152613Y0030960D01*
X0152686Y0030840D01*
X0152763Y0030722D01*
X0152842Y0030607D01*
X0152925Y0030493D01*
X0153011Y0030383D01*
X0153100Y0030274D01*
X0153192Y0030168D01*
X0153287Y0030065D01*
X0153384Y0029964D01*
X0153485Y0029867D01*
X0153588Y0029772D01*
X0153694Y0029680D01*
X0153803Y0029591D01*
X0153913Y0029505D01*
X0154027Y0029422D01*
X0154142Y0029343D01*
X0154260Y0029266D01*
X0154380Y0029193D01*
X0154501Y0029124D01*
X0154625Y0029058D01*
X0154751Y0028995D01*
X0154878Y0028936D01*
X0155007Y0028881D01*
X0155137Y0028829D01*
X0155269Y0028781D01*
X0155402Y0028736D01*
X0155536Y0028695D01*
X0155671Y0028658D01*
X0155807Y0028625D01*
X0155945Y0028596D01*
X0156082Y0028571D01*
X0156221Y0028549D01*
X0156360Y0028531D01*
X0156500Y0028518D01*
X0156640Y0028508D01*
X0156780Y0028502D01*
X0156920Y0028500D01*
X0095920Y0020300D02*
X0095920Y0046700D01*
X0169714Y0070050D02*
X0176120Y0070050D01*
X0176120Y0074320D01*
X0175052Y0081300D02*
X0170782Y0081300D01*
X0169714Y0082368D01*
X0169714Y0084503D01*
X0170782Y0085570D01*
X0175052Y0085570D02*
X0176120Y0084503D01*
X0176120Y0082368D01*
X0175052Y0081300D01*
X0176120Y0091300D02*
X0169714Y0091300D01*
X0172917Y0091300D02*
X0172917Y0095570D01*
X0169714Y0095570D02*
X0176120Y0095570D01*
D12*
X0135355Y0093353D02*
X0132887Y0093353D01*
X0132887Y0091502D01*
X0134121Y0092119D01*
X0134738Y0092119D01*
X0135355Y0091502D01*
X0135355Y0090267D01*
X0134738Y0089650D01*
X0133504Y0089650D01*
X0132887Y0090267D01*
X0131672Y0091502D02*
X0129203Y0091502D01*
X0130438Y0092736D02*
X0130438Y0090267D01*
X0122855Y0089650D02*
X0120387Y0089650D01*
X0121621Y0089650D02*
X0121621Y0093353D01*
X0120387Y0092119D01*
X0112855Y0092119D02*
X0112238Y0091502D01*
X0112855Y0090884D01*
X0112855Y0090267D01*
X0112238Y0089650D01*
X0111004Y0089650D01*
X0110387Y0090267D01*
X0111621Y0091502D02*
X0112238Y0091502D01*
X0112855Y0092119D02*
X0112855Y0092736D01*
X0112238Y0093353D01*
X0111004Y0093353D01*
X0110387Y0092736D01*
X0101605Y0093353D02*
X0099137Y0093353D01*
X0099137Y0091502D01*
X0100371Y0092119D01*
X0100988Y0092119D01*
X0101605Y0091502D01*
X0101605Y0090267D01*
X0100988Y0089650D01*
X0099754Y0089650D01*
X0099137Y0090267D01*
X0094105Y0092736D02*
X0091637Y0090267D01*
X0091637Y0089650D01*
X0094105Y0092736D02*
X0094105Y0093353D01*
X0091637Y0093353D01*
X0081605Y0092736D02*
X0081605Y0090267D01*
X0080988Y0089650D01*
X0079754Y0089650D01*
X0079137Y0090267D01*
X0079754Y0091502D02*
X0081605Y0091502D01*
X0081605Y0092736D02*
X0080988Y0093353D01*
X0079754Y0093353D01*
X0079137Y0092736D01*
X0079137Y0092119D01*
X0079754Y0091502D01*
X0074105Y0089650D02*
X0071637Y0089650D01*
X0070422Y0089650D02*
X0067953Y0089650D01*
X0069188Y0089650D02*
X0069188Y0093353D01*
X0067953Y0092119D01*
X0071637Y0092119D02*
X0072871Y0093353D01*
X0072871Y0089650D01*
X0064105Y0090267D02*
X0063488Y0089650D01*
X0062254Y0089650D01*
X0061637Y0090267D01*
X0060422Y0089650D02*
X0057953Y0089650D01*
X0059188Y0089650D02*
X0059188Y0093353D01*
X0057953Y0092119D01*
X0061637Y0092736D02*
X0062254Y0093353D01*
X0063488Y0093353D01*
X0064105Y0092736D01*
X0064105Y0092119D01*
X0063488Y0091502D01*
X0064105Y0090884D01*
X0064105Y0090267D01*
X0063488Y0091502D02*
X0062871Y0091502D01*
X0054105Y0091502D02*
X0054105Y0090267D01*
X0053488Y0089650D01*
X0052254Y0089650D01*
X0051637Y0090267D01*
X0051637Y0091502D02*
X0052871Y0092119D01*
X0053488Y0092119D01*
X0054105Y0091502D01*
X0051637Y0091502D02*
X0051637Y0093353D01*
X0054105Y0093353D01*
X0049188Y0093353D02*
X0047953Y0092119D01*
X0049188Y0093353D02*
X0049188Y0089650D01*
X0050422Y0089650D02*
X0047953Y0089650D01*
X0042770Y0090718D02*
X0042770Y0091952D01*
X0042152Y0092569D01*
X0040918Y0092569D01*
X0040918Y0091335D01*
X0039684Y0092569D02*
X0039067Y0091952D01*
X0039067Y0090718D01*
X0039684Y0090101D01*
X0042152Y0090101D01*
X0042770Y0090718D01*
X0042770Y0093784D02*
X0039067Y0093784D01*
X0042770Y0096252D01*
X0039067Y0096252D01*
X0039067Y0097467D02*
X0039067Y0099318D01*
X0039684Y0099936D01*
X0042152Y0099936D01*
X0042770Y0099318D01*
X0042770Y0097467D01*
X0039067Y0097467D01*
X0039172Y0067103D02*
X0039172Y0063400D01*
X0036703Y0067103D01*
X0036703Y0063400D01*
X0035489Y0064017D02*
X0035489Y0065252D01*
X0034255Y0065252D01*
X0035489Y0066486D02*
X0034872Y0067103D01*
X0033637Y0067103D01*
X0033020Y0066486D01*
X0033020Y0064017D01*
X0033637Y0063400D01*
X0034872Y0063400D01*
X0035489Y0064017D01*
X0040387Y0063400D02*
X0040387Y0067103D01*
X0042238Y0067103D01*
X0042855Y0066486D01*
X0042855Y0064017D01*
X0042238Y0063400D01*
X0040387Y0063400D01*
X0046703Y0063400D02*
X0049172Y0063400D01*
X0047938Y0063400D02*
X0047938Y0067103D01*
X0046703Y0065869D01*
X0050387Y0065252D02*
X0050387Y0064017D01*
X0051004Y0063400D01*
X0052238Y0063400D01*
X0052855Y0064017D01*
X0052855Y0064634D01*
X0052238Y0065252D01*
X0050387Y0065252D01*
X0051621Y0066486D01*
X0052855Y0067103D01*
X0055453Y0065869D02*
X0056688Y0067103D01*
X0056688Y0063400D01*
X0057922Y0063400D02*
X0055453Y0063400D01*
X0059137Y0065252D02*
X0061605Y0065252D01*
X0060988Y0067103D02*
X0059137Y0065252D01*
X0060988Y0067103D02*
X0060988Y0063400D01*
X0067953Y0063400D02*
X0070422Y0063400D01*
X0071637Y0063400D02*
X0074105Y0065869D01*
X0074105Y0066486D01*
X0073488Y0067103D01*
X0072254Y0067103D01*
X0071637Y0066486D01*
X0069188Y0067103D02*
X0067953Y0065869D01*
X0069188Y0067103D02*
X0069188Y0063400D01*
X0071637Y0063400D02*
X0074105Y0063400D01*
X0076703Y0063400D02*
X0079172Y0063400D01*
X0077938Y0063400D02*
X0077938Y0067103D01*
X0076703Y0065869D01*
X0080387Y0066486D02*
X0080387Y0064017D01*
X0082855Y0066486D01*
X0082855Y0064017D01*
X0082238Y0063400D01*
X0081004Y0063400D01*
X0080387Y0064017D01*
X0080387Y0066486D02*
X0081004Y0067103D01*
X0082238Y0067103D01*
X0082855Y0066486D01*
X0089137Y0066486D02*
X0089137Y0065869D01*
X0089754Y0065252D01*
X0090988Y0065252D01*
X0091605Y0064634D01*
X0091605Y0064017D01*
X0090988Y0063400D01*
X0089754Y0063400D01*
X0089137Y0064017D01*
X0089137Y0064634D01*
X0089754Y0065252D01*
X0090988Y0065252D02*
X0091605Y0065869D01*
X0091605Y0066486D01*
X0090988Y0067103D01*
X0089754Y0067103D01*
X0089137Y0066486D01*
X0099137Y0065252D02*
X0099137Y0064017D01*
X0099754Y0063400D01*
X0100988Y0063400D01*
X0101605Y0064017D01*
X0101605Y0064634D01*
X0100988Y0065252D01*
X0099137Y0065252D01*
X0100371Y0066486D01*
X0101605Y0067103D01*
X0110387Y0065252D02*
X0112855Y0065252D01*
X0112238Y0067103D02*
X0110387Y0065252D01*
X0112238Y0067103D02*
X0112238Y0063400D01*
X0120387Y0063400D02*
X0122855Y0065869D01*
X0122855Y0066486D01*
X0122238Y0067103D01*
X0121004Y0067103D01*
X0120387Y0066486D01*
X0120387Y0063400D02*
X0122855Y0063400D01*
X0129203Y0065252D02*
X0131672Y0065252D01*
X0132887Y0065252D02*
X0132887Y0067103D01*
X0135355Y0067103D01*
X0134738Y0065869D02*
X0134121Y0065869D01*
X0132887Y0065252D01*
X0132887Y0064017D02*
X0133504Y0063400D01*
X0134738Y0063400D01*
X0135355Y0064017D01*
X0135355Y0065252D01*
X0134738Y0065869D01*
X0130438Y0066486D02*
X0130438Y0064017D01*
X0170453Y0038486D02*
X0171071Y0039103D01*
X0172305Y0039103D01*
X0172922Y0038486D01*
X0174137Y0037869D02*
X0175371Y0039103D01*
X0175371Y0035400D01*
X0174137Y0035400D02*
X0176605Y0035400D01*
X0172922Y0036017D02*
X0172305Y0035400D01*
X0171071Y0035400D01*
X0170453Y0036017D01*
X0170453Y0038486D01*
X0195067Y0030318D02*
X0195067Y0029084D01*
X0195684Y0028467D01*
X0195067Y0030318D02*
X0195684Y0030936D01*
X0196301Y0030936D01*
X0198770Y0028467D01*
X0198770Y0030936D01*
X0198152Y0027252D02*
X0198770Y0026635D01*
X0198770Y0025401D01*
X0198152Y0024784D01*
X0195684Y0024784D01*
X0195067Y0025401D01*
X0195067Y0026635D01*
X0195684Y0027252D01*
X0172877Y0022302D02*
X0172393Y0021819D01*
X0172393Y0019400D01*
X0170898Y0019400D02*
X0170898Y0021335D01*
X0171909Y0020851D02*
X0172877Y0020851D01*
X0170898Y0019400D02*
X0169446Y0019400D01*
X0168963Y0019884D01*
X0168963Y0021335D01*
X0167951Y0021819D02*
X0167467Y0022302D01*
X0166500Y0022302D01*
X0166016Y0021819D01*
X0166016Y0019884D01*
X0167951Y0021819D01*
X0167951Y0019884D01*
X0167467Y0019400D01*
X0166500Y0019400D01*
X0166016Y0019884D01*
X0165005Y0019400D02*
X0163070Y0019400D01*
X0164037Y0019400D02*
X0164037Y0022302D01*
X0163070Y0021335D01*
D13*
X0174077Y0023500D02*
X0174080Y0023742D01*
X0174089Y0023983D01*
X0174104Y0024224D01*
X0174124Y0024465D01*
X0174151Y0024705D01*
X0174184Y0024944D01*
X0174222Y0025183D01*
X0174266Y0025420D01*
X0174316Y0025657D01*
X0174372Y0025892D01*
X0174434Y0026125D01*
X0174501Y0026357D01*
X0174574Y0026588D01*
X0174652Y0026816D01*
X0174737Y0027042D01*
X0174826Y0027267D01*
X0174921Y0027489D01*
X0175022Y0027708D01*
X0175128Y0027926D01*
X0175239Y0028140D01*
X0175356Y0028352D01*
X0175477Y0028560D01*
X0175604Y0028766D01*
X0175736Y0028968D01*
X0175873Y0029168D01*
X0176014Y0029363D01*
X0176160Y0029556D01*
X0176311Y0029744D01*
X0176467Y0029929D01*
X0176627Y0030110D01*
X0176791Y0030287D01*
X0176960Y0030460D01*
X0177133Y0030629D01*
X0177310Y0030793D01*
X0177491Y0030953D01*
X0177676Y0031109D01*
X0177864Y0031260D01*
X0178057Y0031406D01*
X0178252Y0031547D01*
X0178452Y0031684D01*
X0178654Y0031816D01*
X0178860Y0031943D01*
X0179068Y0032064D01*
X0179280Y0032181D01*
X0179494Y0032292D01*
X0179712Y0032398D01*
X0179931Y0032499D01*
X0180153Y0032594D01*
X0180378Y0032683D01*
X0180604Y0032768D01*
X0180832Y0032846D01*
X0181063Y0032919D01*
X0181295Y0032986D01*
X0181528Y0033048D01*
X0181763Y0033104D01*
X0182000Y0033154D01*
X0182237Y0033198D01*
X0182476Y0033236D01*
X0182715Y0033269D01*
X0182955Y0033296D01*
X0183196Y0033316D01*
X0183437Y0033331D01*
X0183678Y0033340D01*
X0183920Y0033343D01*
X0184162Y0033340D01*
X0184403Y0033331D01*
X0184644Y0033316D01*
X0184885Y0033296D01*
X0185125Y0033269D01*
X0185364Y0033236D01*
X0185603Y0033198D01*
X0185840Y0033154D01*
X0186077Y0033104D01*
X0186312Y0033048D01*
X0186545Y0032986D01*
X0186777Y0032919D01*
X0187008Y0032846D01*
X0187236Y0032768D01*
X0187462Y0032683D01*
X0187687Y0032594D01*
X0187909Y0032499D01*
X0188128Y0032398D01*
X0188346Y0032292D01*
X0188560Y0032181D01*
X0188772Y0032064D01*
X0188980Y0031943D01*
X0189186Y0031816D01*
X0189388Y0031684D01*
X0189588Y0031547D01*
X0189783Y0031406D01*
X0189976Y0031260D01*
X0190164Y0031109D01*
X0190349Y0030953D01*
X0190530Y0030793D01*
X0190707Y0030629D01*
X0190880Y0030460D01*
X0191049Y0030287D01*
X0191213Y0030110D01*
X0191373Y0029929D01*
X0191529Y0029744D01*
X0191680Y0029556D01*
X0191826Y0029363D01*
X0191967Y0029168D01*
X0192104Y0028968D01*
X0192236Y0028766D01*
X0192363Y0028560D01*
X0192484Y0028352D01*
X0192601Y0028140D01*
X0192712Y0027926D01*
X0192818Y0027708D01*
X0192919Y0027489D01*
X0193014Y0027267D01*
X0193103Y0027042D01*
X0193188Y0026816D01*
X0193266Y0026588D01*
X0193339Y0026357D01*
X0193406Y0026125D01*
X0193468Y0025892D01*
X0193524Y0025657D01*
X0193574Y0025420D01*
X0193618Y0025183D01*
X0193656Y0024944D01*
X0193689Y0024705D01*
X0193716Y0024465D01*
X0193736Y0024224D01*
X0193751Y0023983D01*
X0193760Y0023742D01*
X0193763Y0023500D01*
X0193760Y0023258D01*
X0193751Y0023017D01*
X0193736Y0022776D01*
X0193716Y0022535D01*
X0193689Y0022295D01*
X0193656Y0022056D01*
X0193618Y0021817D01*
X0193574Y0021580D01*
X0193524Y0021343D01*
X0193468Y0021108D01*
X0193406Y0020875D01*
X0193339Y0020643D01*
X0193266Y0020412D01*
X0193188Y0020184D01*
X0193103Y0019958D01*
X0193014Y0019733D01*
X0192919Y0019511D01*
X0192818Y0019292D01*
X0192712Y0019074D01*
X0192601Y0018860D01*
X0192484Y0018648D01*
X0192363Y0018440D01*
X0192236Y0018234D01*
X0192104Y0018032D01*
X0191967Y0017832D01*
X0191826Y0017637D01*
X0191680Y0017444D01*
X0191529Y0017256D01*
X0191373Y0017071D01*
X0191213Y0016890D01*
X0191049Y0016713D01*
X0190880Y0016540D01*
X0190707Y0016371D01*
X0190530Y0016207D01*
X0190349Y0016047D01*
X0190164Y0015891D01*
X0189976Y0015740D01*
X0189783Y0015594D01*
X0189588Y0015453D01*
X0189388Y0015316D01*
X0189186Y0015184D01*
X0188980Y0015057D01*
X0188772Y0014936D01*
X0188560Y0014819D01*
X0188346Y0014708D01*
X0188128Y0014602D01*
X0187909Y0014501D01*
X0187687Y0014406D01*
X0187462Y0014317D01*
X0187236Y0014232D01*
X0187008Y0014154D01*
X0186777Y0014081D01*
X0186545Y0014014D01*
X0186312Y0013952D01*
X0186077Y0013896D01*
X0185840Y0013846D01*
X0185603Y0013802D01*
X0185364Y0013764D01*
X0185125Y0013731D01*
X0184885Y0013704D01*
X0184644Y0013684D01*
X0184403Y0013669D01*
X0184162Y0013660D01*
X0183920Y0013657D01*
X0183678Y0013660D01*
X0183437Y0013669D01*
X0183196Y0013684D01*
X0182955Y0013704D01*
X0182715Y0013731D01*
X0182476Y0013764D01*
X0182237Y0013802D01*
X0182000Y0013846D01*
X0181763Y0013896D01*
X0181528Y0013952D01*
X0181295Y0014014D01*
X0181063Y0014081D01*
X0180832Y0014154D01*
X0180604Y0014232D01*
X0180378Y0014317D01*
X0180153Y0014406D01*
X0179931Y0014501D01*
X0179712Y0014602D01*
X0179494Y0014708D01*
X0179280Y0014819D01*
X0179068Y0014936D01*
X0178860Y0015057D01*
X0178654Y0015184D01*
X0178452Y0015316D01*
X0178252Y0015453D01*
X0178057Y0015594D01*
X0177864Y0015740D01*
X0177676Y0015891D01*
X0177491Y0016047D01*
X0177310Y0016207D01*
X0177133Y0016371D01*
X0176960Y0016540D01*
X0176791Y0016713D01*
X0176627Y0016890D01*
X0176467Y0017071D01*
X0176311Y0017256D01*
X0176160Y0017444D01*
X0176014Y0017637D01*
X0175873Y0017832D01*
X0175736Y0018032D01*
X0175604Y0018234D01*
X0175477Y0018440D01*
X0175356Y0018648D01*
X0175239Y0018860D01*
X0175128Y0019074D01*
X0175022Y0019292D01*
X0174921Y0019511D01*
X0174826Y0019733D01*
X0174737Y0019958D01*
X0174652Y0020184D01*
X0174574Y0020412D01*
X0174501Y0020643D01*
X0174434Y0020875D01*
X0174372Y0021108D01*
X0174316Y0021343D01*
X0174266Y0021580D01*
X0174222Y0021817D01*
X0174184Y0022056D01*
X0174151Y0022295D01*
X0174124Y0022535D01*
X0174104Y0022776D01*
X0174089Y0023017D01*
X0174080Y0023258D01*
X0174077Y0023500D01*
X0186920Y0018000D02*
X0190920Y0018000D01*
X0191420Y0013500D02*
X0186420Y0013500D01*
X0183920Y0011000D01*
X0181420Y0013500D01*
X0176420Y0013500D01*
X0173920Y0011000D01*
X0173920Y0006000D01*
X0176420Y0003500D01*
X0181420Y0003500D01*
X0183920Y0006000D01*
X0186420Y0003500D01*
X0191420Y0003500D01*
X0193920Y0006000D01*
X0193920Y0011000D01*
X0191420Y0013500D01*
X0197050Y0003500D02*
X0248231Y0003500D01*
X0248231Y0063500D01*
X0197050Y0063500D01*
X0197050Y0003500D01*
X0166420Y0036000D02*
X0161420Y0036000D01*
X0083290Y0063500D02*
X0032109Y0063500D01*
X0032109Y0003500D01*
X0083290Y0003500D01*
X0083290Y0063500D01*
X0143920Y0071000D02*
X0146420Y0068500D01*
X0151420Y0068500D01*
X0153920Y0071000D01*
X0153920Y0076000D01*
X0151420Y0078500D01*
X0153920Y0081000D01*
X0153920Y0086000D01*
X0151420Y0088500D01*
X0146420Y0088500D01*
X0143920Y0086000D01*
X0143920Y0081000D01*
X0146420Y0078500D01*
X0143920Y0076000D01*
X0143920Y0071000D01*
X0178920Y0071000D02*
X0178920Y0076000D01*
X0181420Y0078500D01*
X0178920Y0081000D01*
X0178920Y0086000D01*
X0181420Y0088500D01*
X0178920Y0091000D01*
X0178920Y0096000D01*
X0181420Y0098500D01*
X0186420Y0098500D01*
X0188920Y0096000D01*
X0188920Y0091000D01*
X0186420Y0088500D01*
X0188920Y0086000D01*
X0188920Y0081000D01*
X0186420Y0078500D01*
X0188920Y0076000D01*
X0188920Y0071000D01*
X0186420Y0068500D01*
X0181420Y0068500D01*
X0178920Y0071000D01*
X0188920Y0071000D02*
X0188920Y0076000D01*
X0191420Y0078500D01*
X0188920Y0081000D01*
X0188920Y0086000D01*
X0191420Y0088500D01*
X0188920Y0091000D01*
X0188920Y0096000D01*
X0191420Y0098500D01*
X0196420Y0098500D01*
X0198920Y0096000D01*
X0198920Y0091000D01*
X0196420Y0088500D01*
X0198920Y0086000D01*
X0198920Y0081000D01*
X0196420Y0078500D01*
X0198920Y0076000D01*
X0198920Y0071000D01*
X0196420Y0068500D01*
X0191420Y0068500D01*
X0188920Y0071000D01*
X0198920Y0071000D02*
X0198920Y0076000D01*
X0201420Y0078500D01*
X0198920Y0081000D01*
X0198920Y0086000D01*
X0201420Y0088500D01*
X0198920Y0091000D01*
X0198920Y0096000D01*
X0201420Y0098500D01*
X0206420Y0098500D01*
X0208920Y0096000D01*
X0208920Y0091000D01*
X0206420Y0088500D01*
X0208920Y0086000D01*
X0208920Y0081000D01*
X0206420Y0078500D01*
X0208920Y0076000D01*
X0208920Y0071000D01*
X0206420Y0068500D01*
X0201420Y0068500D01*
X0198920Y0071000D01*
D14*
X0196220Y0067165D02*
X0196220Y0064096D01*
X0196220Y0065631D02*
X0191616Y0065631D01*
X0193150Y0064096D01*
X0192383Y0062561D02*
X0191616Y0061794D01*
X0191616Y0059492D01*
X0196220Y0059492D01*
X0196220Y0061794D01*
X0195452Y0062561D01*
X0192383Y0062561D01*
X0186220Y0061596D02*
X0186220Y0064665D01*
X0186220Y0061596D02*
X0183150Y0064665D01*
X0182383Y0064665D01*
X0181616Y0063898D01*
X0181616Y0062363D01*
X0182383Y0061596D01*
X0182383Y0060061D02*
X0181616Y0059294D01*
X0181616Y0056992D01*
X0186220Y0056992D01*
X0186220Y0059294D01*
X0185452Y0060061D01*
X0182383Y0060061D01*
X0191616Y0056423D02*
X0193150Y0057957D01*
X0196220Y0057957D01*
X0193918Y0057957D02*
X0193918Y0054888D01*
X0193150Y0054888D02*
X0196220Y0054888D01*
X0193150Y0054888D02*
X0191616Y0056423D01*
X0186220Y0055457D02*
X0183150Y0055457D01*
X0181616Y0053923D01*
X0183150Y0052388D01*
X0186220Y0052388D01*
X0183918Y0052388D02*
X0183918Y0055457D01*
X0204120Y0063700D02*
X0204120Y0066769D01*
X0205654Y0068304D01*
X0207189Y0066769D01*
X0207189Y0063700D01*
X0208724Y0063700D02*
X0211026Y0063700D01*
X0211793Y0064467D01*
X0211793Y0067537D01*
X0211026Y0068304D01*
X0208724Y0068304D01*
X0208724Y0063700D01*
X0207189Y0066002D02*
X0204120Y0066002D01*
X0213328Y0064467D02*
X0213328Y0067537D01*
X0214095Y0068304D01*
X0215629Y0068304D01*
X0216397Y0067537D01*
X0213328Y0064467D01*
X0214095Y0063700D01*
X0215629Y0063700D01*
X0216397Y0064467D01*
X0216397Y0067537D01*
X0159430Y0070158D02*
X0154826Y0070158D01*
X0157128Y0070158D02*
X0157128Y0073227D01*
X0154826Y0073227D02*
X0159430Y0073227D01*
X0159430Y0074761D02*
X0154826Y0074761D01*
X0154826Y0077063D01*
X0155593Y0077831D01*
X0158662Y0077831D01*
X0159430Y0077063D01*
X0159430Y0074761D01*
X0159430Y0079365D02*
X0154826Y0079365D01*
X0154826Y0081667D01*
X0155593Y0082435D01*
X0157128Y0082435D01*
X0157895Y0081667D01*
X0157895Y0079365D01*
X0157895Y0080900D02*
X0159430Y0082435D01*
X0159430Y0088573D02*
X0154826Y0088573D01*
X0154826Y0090875D01*
X0155593Y0091642D01*
X0157128Y0091642D01*
X0157895Y0090875D01*
X0157895Y0088573D01*
X0159430Y0093177D02*
X0154826Y0093177D01*
X0157895Y0094712D02*
X0159430Y0093177D01*
X0157895Y0094712D02*
X0159430Y0096246D01*
X0154826Y0096246D01*
X0154826Y0097781D02*
X0154826Y0100083D01*
X0155593Y0100850D01*
X0157128Y0100850D01*
X0157895Y0100083D01*
X0157895Y0097781D01*
X0159430Y0097781D02*
X0154826Y0097781D01*
X0157895Y0099316D02*
X0159430Y0100850D01*
X0126050Y0098787D02*
X0126050Y0095717D01*
X0125282Y0094950D01*
X0123748Y0094950D01*
X0122980Y0095717D01*
X0122980Y0098787D01*
X0123748Y0099554D01*
X0125282Y0099554D01*
X0126050Y0098787D01*
X0121446Y0099554D02*
X0119911Y0099554D01*
X0120679Y0099554D02*
X0120679Y0094950D01*
X0121446Y0094950D02*
X0119911Y0094950D01*
X0115307Y0094950D02*
X0115307Y0099554D01*
X0117609Y0099554D01*
X0118377Y0098787D01*
X0118377Y0097252D01*
X0117609Y0096485D01*
X0115307Y0096485D01*
X0113773Y0095717D02*
X0113773Y0097252D01*
X0112238Y0097252D01*
X0110703Y0098787D02*
X0110703Y0095717D01*
X0111471Y0094950D01*
X0113005Y0094950D01*
X0113773Y0095717D01*
X0113773Y0098787D02*
X0113005Y0099554D01*
X0111471Y0099554D01*
X0110703Y0098787D01*
X0109169Y0099554D02*
X0106099Y0094950D01*
X0104565Y0094950D02*
X0103030Y0094950D01*
X0103797Y0094950D02*
X0103797Y0099554D01*
X0103030Y0099554D01*
X0100728Y0098019D02*
X0099194Y0098019D01*
X0098426Y0097252D01*
X0098426Y0095717D01*
X0099194Y0094950D01*
X0100728Y0094950D01*
X0101496Y0095717D01*
X0101496Y0097252D01*
X0100728Y0098019D01*
X0096892Y0098019D02*
X0096124Y0098019D01*
X0094590Y0096485D01*
X0094590Y0098019D02*
X0094590Y0094950D01*
X0093055Y0094950D02*
X0092288Y0095717D01*
X0092288Y0098787D01*
X0093055Y0098019D02*
X0091520Y0098019D01*
X0089986Y0097252D02*
X0089986Y0094950D01*
X0086916Y0094950D02*
X0086916Y0098019D01*
X0089218Y0098019D01*
X0089986Y0097252D01*
X0085382Y0097252D02*
X0085382Y0095717D01*
X0084614Y0094950D01*
X0083080Y0094950D01*
X0082313Y0095717D01*
X0082313Y0097252D01*
X0083080Y0098019D01*
X0084614Y0098019D01*
X0085382Y0097252D01*
X0080778Y0098787D02*
X0080011Y0099554D01*
X0078476Y0099554D01*
X0077709Y0098787D01*
X0077709Y0095717D01*
X0078476Y0094950D01*
X0080011Y0094950D01*
X0080778Y0095717D01*
X0071570Y0094950D02*
X0069268Y0094950D01*
X0068501Y0095717D01*
X0068501Y0098019D01*
X0066966Y0097252D02*
X0066966Y0094950D01*
X0064664Y0094950D01*
X0063897Y0095717D01*
X0064664Y0096485D01*
X0066966Y0096485D01*
X0066966Y0097252D02*
X0066199Y0098019D01*
X0064664Y0098019D01*
X0061595Y0099554D02*
X0061595Y0094950D01*
X0060828Y0094950D02*
X0062362Y0094950D01*
X0059293Y0096485D02*
X0056224Y0096485D01*
X0056224Y0097252D02*
X0056991Y0098019D01*
X0058526Y0098019D01*
X0059293Y0097252D01*
X0059293Y0096485D01*
X0056991Y0094950D02*
X0056224Y0095717D01*
X0056224Y0097252D01*
X0054689Y0097252D02*
X0053922Y0096485D01*
X0051620Y0096485D01*
X0053154Y0096485D02*
X0054689Y0094950D01*
X0056991Y0094950D02*
X0058526Y0094950D01*
X0054689Y0097252D02*
X0054689Y0098787D01*
X0053922Y0099554D01*
X0051620Y0099554D01*
X0051620Y0094950D01*
X0060828Y0099554D02*
X0061595Y0099554D01*
X0071570Y0098019D02*
X0071570Y0094183D01*
X0070803Y0093415D01*
X0070035Y0093415D01*
X0140195Y0008831D02*
X0142497Y0008831D01*
X0143264Y0008064D01*
X0143264Y0007297D01*
X0142497Y0006529D01*
X0140195Y0006529D01*
X0142497Y0006529D02*
X0143264Y0005762D01*
X0143264Y0004995D01*
X0142497Y0004227D01*
X0140195Y0004227D01*
X0140195Y0008831D01*
X0144799Y0008831D02*
X0144799Y0004995D01*
X0145566Y0004227D01*
X0147101Y0004227D01*
X0147868Y0004995D01*
X0147868Y0008831D01*
X0149403Y0008064D02*
X0149403Y0007297D01*
X0150170Y0006529D01*
X0151704Y0006529D01*
X0152472Y0005762D01*
X0152472Y0004995D01*
X0151704Y0004227D01*
X0150170Y0004227D01*
X0149403Y0004995D01*
X0149403Y0008064D02*
X0150170Y0008831D01*
X0151704Y0008831D01*
X0152472Y0008064D01*
X0158610Y0008831D02*
X0160912Y0008831D01*
X0161680Y0008064D01*
X0161680Y0006529D01*
X0160912Y0005762D01*
X0158610Y0005762D01*
X0158610Y0004227D02*
X0158610Y0008831D01*
X0163214Y0008831D02*
X0163214Y0004227D01*
X0164749Y0005762D01*
X0166284Y0004227D01*
X0166284Y0008831D01*
X0167818Y0008831D02*
X0170120Y0008831D01*
X0170888Y0008064D01*
X0170888Y0006529D01*
X0170120Y0005762D01*
X0167818Y0005762D01*
X0167818Y0004227D02*
X0167818Y0008831D01*
X0169353Y0005762D02*
X0170888Y0004227D01*
D15*
X0094170Y0016919D02*
X0089666Y0016919D01*
X0089666Y0019170D01*
X0090416Y0019921D01*
X0091918Y0019921D01*
X0092668Y0019170D01*
X0092668Y0016919D01*
X0093419Y0021522D02*
X0090416Y0021522D01*
X0089666Y0022273D01*
X0089666Y0023774D01*
X0090416Y0024525D01*
X0091167Y0026126D02*
X0089666Y0027628D01*
X0091167Y0029129D01*
X0094170Y0029129D01*
X0091918Y0029129D02*
X0091918Y0026126D01*
X0091167Y0026126D02*
X0094170Y0026126D01*
X0093419Y0024525D02*
X0094170Y0023774D01*
X0094170Y0022273D01*
X0093419Y0021522D01*
X0093419Y0030730D02*
X0094170Y0031481D01*
X0094170Y0032982D01*
X0093419Y0033733D01*
X0090416Y0033733D01*
X0089666Y0032982D01*
X0089666Y0031481D01*
X0090416Y0030730D01*
X0091167Y0030730D01*
X0091918Y0031481D01*
X0091918Y0033733D01*
X0091918Y0035334D02*
X0091918Y0037586D01*
X0092668Y0038337D01*
X0093419Y0038337D01*
X0094170Y0037586D01*
X0094170Y0036085D01*
X0093419Y0035334D01*
X0091918Y0035334D01*
X0090416Y0036836D01*
X0089666Y0038337D01*
X0089666Y0039938D02*
X0089666Y0042941D01*
X0090416Y0042941D01*
X0093419Y0039938D01*
X0094170Y0039938D01*
X0094170Y0044542D02*
X0094170Y0047545D01*
X0094170Y0049146D02*
X0094170Y0051398D01*
X0093419Y0052149D01*
X0090416Y0052149D01*
X0089666Y0051398D01*
X0089666Y0049146D01*
X0094170Y0049146D01*
X0094170Y0046043D02*
X0089666Y0046043D01*
X0091167Y0044542D01*
X0145775Y0058605D02*
X0147276Y0058605D01*
X0146525Y0058605D02*
X0146525Y0063109D01*
X0145775Y0063109D02*
X0147276Y0063109D01*
X0148844Y0062358D02*
X0148844Y0059356D01*
X0149595Y0058605D01*
X0151096Y0058605D01*
X0151847Y0059356D01*
X0153448Y0058605D02*
X0156450Y0058605D01*
X0154949Y0058605D02*
X0154949Y0063109D01*
X0153448Y0061608D01*
X0151847Y0062358D02*
X0151096Y0063109D01*
X0149595Y0063109D01*
X0148844Y0062358D01*
X0215672Y0067752D02*
X0247168Y0067752D01*
X0247168Y0100035D01*
X0215672Y0100035D01*
X0215672Y0067752D01*
X0036174Y0075189D02*
X0036174Y0076691D01*
X0036174Y0075940D02*
X0032420Y0075940D01*
X0031670Y0075189D01*
X0031670Y0074439D01*
X0032420Y0073688D01*
X0031670Y0078292D02*
X0036174Y0078292D01*
X0036174Y0080544D01*
X0035423Y0081295D01*
X0033922Y0081295D01*
X0033171Y0080544D01*
X0033171Y0078292D01*
X0033922Y0082896D02*
X0033922Y0085899D01*
X0036174Y0085148D02*
X0033922Y0082896D01*
X0031670Y0085148D02*
X0036174Y0085148D01*
D16*
X0163541Y0024701D02*
X0164041Y0025201D01*
X0164041Y0023700D01*
X0163541Y0023700D02*
X0164542Y0023700D01*
X0165014Y0023950D02*
X0165264Y0023700D01*
X0166015Y0023700D01*
X0166015Y0024701D01*
X0166488Y0024451D02*
X0166988Y0024451D01*
X0166738Y0024951D02*
X0166988Y0025201D01*
X0166738Y0024951D02*
X0166738Y0023700D01*
X0165014Y0023950D02*
X0165014Y0024701D01*
X0163055Y0023950D02*
X0163055Y0023700D01*
X0162804Y0023700D01*
X0162804Y0023950D01*
X0163055Y0023950D01*
D17*
X0155449Y0018531D02*
X0155449Y0019071D01*
X0155450Y0019070D02*
X0155519Y0019074D01*
X0155588Y0019082D01*
X0155657Y0019093D01*
X0155724Y0019108D01*
X0155791Y0019127D01*
X0155856Y0019150D01*
X0155920Y0019176D01*
X0155983Y0019206D01*
X0156044Y0019240D01*
X0156102Y0019277D01*
X0156159Y0019317D01*
X0156213Y0019360D01*
X0156265Y0019406D01*
X0156314Y0019455D01*
X0156360Y0019507D01*
X0156403Y0019561D01*
X0156443Y0019618D01*
X0156480Y0019676D01*
X0156514Y0019737D01*
X0156544Y0019800D01*
X0156570Y0019864D01*
X0156593Y0019929D01*
X0156612Y0019996D01*
X0156627Y0020063D01*
X0156638Y0020132D01*
X0156646Y0020201D01*
X0156650Y0020270D01*
X0157189Y0020271D01*
X0157190Y0020270D01*
X0157186Y0020188D01*
X0157179Y0020106D01*
X0157168Y0020024D01*
X0157154Y0019943D01*
X0157135Y0019862D01*
X0157113Y0019783D01*
X0157087Y0019705D01*
X0157057Y0019628D01*
X0157024Y0019552D01*
X0156988Y0019478D01*
X0156948Y0019406D01*
X0156905Y0019336D01*
X0156858Y0019268D01*
X0156808Y0019202D01*
X0156756Y0019139D01*
X0156700Y0019078D01*
X0156642Y0019020D01*
X0156581Y0018964D01*
X0156518Y0018912D01*
X0156452Y0018862D01*
X0156384Y0018815D01*
X0156314Y0018772D01*
X0156242Y0018732D01*
X0156168Y0018696D01*
X0156092Y0018663D01*
X0156015Y0018633D01*
X0155937Y0018607D01*
X0155858Y0018585D01*
X0155777Y0018566D01*
X0155696Y0018552D01*
X0155614Y0018541D01*
X0155532Y0018534D01*
X0155450Y0018530D01*
X0155450Y0018586D01*
X0155530Y0018590D01*
X0155609Y0018596D01*
X0155688Y0018607D01*
X0155767Y0018621D01*
X0155844Y0018639D01*
X0155921Y0018661D01*
X0155997Y0018686D01*
X0156071Y0018715D01*
X0156144Y0018747D01*
X0156216Y0018782D01*
X0156286Y0018821D01*
X0156354Y0018863D01*
X0156419Y0018908D01*
X0156483Y0018956D01*
X0156544Y0019006D01*
X0156603Y0019060D01*
X0156660Y0019117D01*
X0156714Y0019176D01*
X0156764Y0019237D01*
X0156812Y0019301D01*
X0156857Y0019366D01*
X0156899Y0019434D01*
X0156938Y0019504D01*
X0156973Y0019576D01*
X0157005Y0019649D01*
X0157034Y0019723D01*
X0157059Y0019799D01*
X0157081Y0019876D01*
X0157099Y0019953D01*
X0157113Y0020032D01*
X0157124Y0020111D01*
X0157130Y0020190D01*
X0157134Y0020270D01*
X0157078Y0020270D01*
X0157074Y0020191D01*
X0157067Y0020111D01*
X0157056Y0020033D01*
X0157042Y0019955D01*
X0157023Y0019877D01*
X0157001Y0019801D01*
X0156975Y0019726D01*
X0156946Y0019652D01*
X0156913Y0019579D01*
X0156877Y0019509D01*
X0156837Y0019440D01*
X0156794Y0019373D01*
X0156748Y0019308D01*
X0156699Y0019245D01*
X0156647Y0019185D01*
X0156592Y0019128D01*
X0156535Y0019073D01*
X0156475Y0019021D01*
X0156412Y0018972D01*
X0156347Y0018926D01*
X0156280Y0018883D01*
X0156211Y0018843D01*
X0156141Y0018807D01*
X0156068Y0018774D01*
X0155994Y0018745D01*
X0155919Y0018719D01*
X0155843Y0018697D01*
X0155765Y0018678D01*
X0155687Y0018664D01*
X0155609Y0018653D01*
X0155529Y0018646D01*
X0155450Y0018642D01*
X0155450Y0018698D01*
X0155529Y0018702D01*
X0155608Y0018709D01*
X0155686Y0018720D01*
X0155764Y0018735D01*
X0155841Y0018754D01*
X0155917Y0018777D01*
X0155992Y0018804D01*
X0156065Y0018834D01*
X0156137Y0018867D01*
X0156207Y0018904D01*
X0156275Y0018945D01*
X0156341Y0018989D01*
X0156404Y0019036D01*
X0156466Y0019086D01*
X0156524Y0019140D01*
X0156580Y0019196D01*
X0156634Y0019254D01*
X0156684Y0019316D01*
X0156731Y0019379D01*
X0156775Y0019445D01*
X0156816Y0019513D01*
X0156853Y0019583D01*
X0156886Y0019655D01*
X0156916Y0019728D01*
X0156943Y0019803D01*
X0156966Y0019879D01*
X0156985Y0019956D01*
X0157000Y0020034D01*
X0157011Y0020112D01*
X0157018Y0020191D01*
X0157022Y0020270D01*
X0156966Y0020270D01*
X0156962Y0020194D01*
X0156955Y0020118D01*
X0156944Y0020042D01*
X0156930Y0019967D01*
X0156911Y0019893D01*
X0156889Y0019820D01*
X0156864Y0019748D01*
X0156835Y0019677D01*
X0156802Y0019608D01*
X0156767Y0019540D01*
X0156727Y0019475D01*
X0156685Y0019411D01*
X0156640Y0019350D01*
X0156591Y0019291D01*
X0156540Y0019234D01*
X0156486Y0019180D01*
X0156429Y0019129D01*
X0156370Y0019080D01*
X0156309Y0019035D01*
X0156245Y0018993D01*
X0156180Y0018953D01*
X0156112Y0018918D01*
X0156043Y0018885D01*
X0155972Y0018856D01*
X0155900Y0018831D01*
X0155827Y0018809D01*
X0155753Y0018790D01*
X0155678Y0018776D01*
X0155602Y0018765D01*
X0155526Y0018758D01*
X0155450Y0018754D01*
X0155450Y0018810D01*
X0155526Y0018814D01*
X0155602Y0018821D01*
X0155677Y0018832D01*
X0155751Y0018847D01*
X0155825Y0018866D01*
X0155898Y0018889D01*
X0155969Y0018915D01*
X0156039Y0018945D01*
X0156107Y0018978D01*
X0156174Y0019015D01*
X0156238Y0019055D01*
X0156301Y0019098D01*
X0156361Y0019145D01*
X0156418Y0019194D01*
X0156474Y0019246D01*
X0156526Y0019302D01*
X0156575Y0019359D01*
X0156622Y0019419D01*
X0156665Y0019482D01*
X0156705Y0019546D01*
X0156742Y0019613D01*
X0156775Y0019681D01*
X0156805Y0019751D01*
X0156831Y0019822D01*
X0156854Y0019895D01*
X0156873Y0019969D01*
X0156888Y0020043D01*
X0156899Y0020118D01*
X0156906Y0020194D01*
X0156910Y0020270D01*
X0156854Y0020270D01*
X0156850Y0020194D01*
X0156843Y0020119D01*
X0156831Y0020045D01*
X0156816Y0019971D01*
X0156796Y0019897D01*
X0156773Y0019825D01*
X0156746Y0019755D01*
X0156716Y0019686D01*
X0156682Y0019618D01*
X0156644Y0019553D01*
X0156603Y0019489D01*
X0156558Y0019428D01*
X0156511Y0019369D01*
X0156460Y0019313D01*
X0156407Y0019260D01*
X0156351Y0019209D01*
X0156292Y0019162D01*
X0156231Y0019117D01*
X0156167Y0019076D01*
X0156102Y0019038D01*
X0156034Y0019004D01*
X0155965Y0018974D01*
X0155895Y0018947D01*
X0155823Y0018924D01*
X0155749Y0018904D01*
X0155675Y0018889D01*
X0155601Y0018877D01*
X0155526Y0018870D01*
X0155450Y0018866D01*
X0155450Y0018922D01*
X0155522Y0018926D01*
X0155595Y0018933D01*
X0155666Y0018944D01*
X0155737Y0018959D01*
X0155808Y0018978D01*
X0155877Y0019000D01*
X0155944Y0019026D01*
X0156011Y0019055D01*
X0156075Y0019088D01*
X0156138Y0019124D01*
X0156199Y0019164D01*
X0156258Y0019206D01*
X0156314Y0019252D01*
X0156368Y0019300D01*
X0156420Y0019352D01*
X0156468Y0019406D01*
X0156514Y0019462D01*
X0156556Y0019521D01*
X0156596Y0019582D01*
X0156632Y0019645D01*
X0156665Y0019709D01*
X0156694Y0019776D01*
X0156720Y0019843D01*
X0156742Y0019912D01*
X0156761Y0019983D01*
X0156776Y0020054D01*
X0156787Y0020125D01*
X0156794Y0020198D01*
X0156798Y0020270D01*
X0156742Y0020270D01*
X0156738Y0020198D01*
X0156731Y0020126D01*
X0156719Y0020055D01*
X0156704Y0019985D01*
X0156685Y0019916D01*
X0156662Y0019847D01*
X0156636Y0019780D01*
X0156605Y0019715D01*
X0156572Y0019651D01*
X0156535Y0019589D01*
X0156494Y0019530D01*
X0156451Y0019472D01*
X0156404Y0019417D01*
X0156355Y0019365D01*
X0156303Y0019316D01*
X0156248Y0019269D01*
X0156190Y0019226D01*
X0156131Y0019185D01*
X0156069Y0019148D01*
X0156005Y0019115D01*
X0155940Y0019084D01*
X0155873Y0019058D01*
X0155804Y0019035D01*
X0155735Y0019016D01*
X0155665Y0019001D01*
X0155594Y0018989D01*
X0155522Y0018982D01*
X0155450Y0018978D01*
X0155450Y0019034D01*
X0155519Y0019038D01*
X0155587Y0019045D01*
X0155655Y0019056D01*
X0155723Y0019071D01*
X0155789Y0019089D01*
X0155854Y0019111D01*
X0155918Y0019136D01*
X0155981Y0019165D01*
X0156042Y0019197D01*
X0156101Y0019233D01*
X0156158Y0019271D01*
X0156213Y0019313D01*
X0156265Y0019357D01*
X0156315Y0019405D01*
X0156363Y0019455D01*
X0156407Y0019507D01*
X0156449Y0019562D01*
X0156487Y0019619D01*
X0156523Y0019678D01*
X0156555Y0019739D01*
X0156584Y0019802D01*
X0156609Y0019866D01*
X0156631Y0019931D01*
X0156649Y0019997D01*
X0156664Y0020065D01*
X0156675Y0020133D01*
X0156682Y0020201D01*
X0156686Y0020270D01*
X0095651Y0020271D02*
X0096191Y0020271D01*
X0096190Y0020270D02*
X0096194Y0020201D01*
X0096202Y0020132D01*
X0096213Y0020063D01*
X0096228Y0019996D01*
X0096247Y0019929D01*
X0096270Y0019864D01*
X0096296Y0019800D01*
X0096326Y0019737D01*
X0096360Y0019676D01*
X0096397Y0019618D01*
X0096437Y0019561D01*
X0096480Y0019507D01*
X0096526Y0019455D01*
X0096575Y0019406D01*
X0096627Y0019360D01*
X0096681Y0019317D01*
X0096738Y0019277D01*
X0096796Y0019240D01*
X0096857Y0019206D01*
X0096920Y0019176D01*
X0096984Y0019150D01*
X0097049Y0019127D01*
X0097116Y0019108D01*
X0097183Y0019093D01*
X0097252Y0019082D01*
X0097321Y0019074D01*
X0097390Y0019070D01*
X0097391Y0018531D01*
X0097390Y0018530D01*
X0097308Y0018534D01*
X0097226Y0018541D01*
X0097144Y0018552D01*
X0097063Y0018566D01*
X0096982Y0018585D01*
X0096903Y0018607D01*
X0096825Y0018633D01*
X0096748Y0018663D01*
X0096672Y0018696D01*
X0096598Y0018732D01*
X0096526Y0018772D01*
X0096456Y0018815D01*
X0096388Y0018862D01*
X0096322Y0018912D01*
X0096259Y0018964D01*
X0096198Y0019020D01*
X0096140Y0019078D01*
X0096084Y0019139D01*
X0096032Y0019202D01*
X0095982Y0019268D01*
X0095935Y0019336D01*
X0095892Y0019406D01*
X0095852Y0019478D01*
X0095816Y0019552D01*
X0095783Y0019628D01*
X0095753Y0019705D01*
X0095727Y0019783D01*
X0095705Y0019862D01*
X0095686Y0019943D01*
X0095672Y0020024D01*
X0095661Y0020106D01*
X0095654Y0020188D01*
X0095650Y0020270D01*
X0095706Y0020270D01*
X0095710Y0020190D01*
X0095716Y0020111D01*
X0095727Y0020032D01*
X0095741Y0019953D01*
X0095759Y0019876D01*
X0095781Y0019799D01*
X0095806Y0019723D01*
X0095835Y0019649D01*
X0095867Y0019576D01*
X0095902Y0019504D01*
X0095941Y0019434D01*
X0095983Y0019366D01*
X0096028Y0019301D01*
X0096076Y0019237D01*
X0096126Y0019176D01*
X0096180Y0019117D01*
X0096237Y0019060D01*
X0096296Y0019006D01*
X0096357Y0018956D01*
X0096421Y0018908D01*
X0096486Y0018863D01*
X0096554Y0018821D01*
X0096624Y0018782D01*
X0096696Y0018747D01*
X0096769Y0018715D01*
X0096843Y0018686D01*
X0096919Y0018661D01*
X0096996Y0018639D01*
X0097073Y0018621D01*
X0097152Y0018607D01*
X0097231Y0018596D01*
X0097310Y0018590D01*
X0097390Y0018586D01*
X0097390Y0018642D01*
X0097311Y0018646D01*
X0097231Y0018653D01*
X0097153Y0018664D01*
X0097075Y0018678D01*
X0096997Y0018697D01*
X0096921Y0018719D01*
X0096846Y0018745D01*
X0096772Y0018774D01*
X0096699Y0018807D01*
X0096629Y0018843D01*
X0096560Y0018883D01*
X0096493Y0018926D01*
X0096428Y0018972D01*
X0096365Y0019021D01*
X0096305Y0019073D01*
X0096248Y0019128D01*
X0096193Y0019185D01*
X0096141Y0019245D01*
X0096092Y0019308D01*
X0096046Y0019373D01*
X0096003Y0019440D01*
X0095963Y0019509D01*
X0095927Y0019579D01*
X0095894Y0019652D01*
X0095865Y0019726D01*
X0095839Y0019801D01*
X0095817Y0019877D01*
X0095798Y0019955D01*
X0095784Y0020033D01*
X0095773Y0020111D01*
X0095766Y0020191D01*
X0095762Y0020270D01*
X0095818Y0020270D01*
X0095822Y0020191D01*
X0095829Y0020112D01*
X0095840Y0020034D01*
X0095855Y0019956D01*
X0095874Y0019879D01*
X0095897Y0019803D01*
X0095924Y0019728D01*
X0095954Y0019655D01*
X0095987Y0019583D01*
X0096024Y0019513D01*
X0096065Y0019445D01*
X0096109Y0019379D01*
X0096156Y0019316D01*
X0096206Y0019254D01*
X0096260Y0019196D01*
X0096316Y0019140D01*
X0096374Y0019086D01*
X0096436Y0019036D01*
X0096499Y0018989D01*
X0096565Y0018945D01*
X0096633Y0018904D01*
X0096703Y0018867D01*
X0096775Y0018834D01*
X0096848Y0018804D01*
X0096923Y0018777D01*
X0096999Y0018754D01*
X0097076Y0018735D01*
X0097154Y0018720D01*
X0097232Y0018709D01*
X0097311Y0018702D01*
X0097390Y0018698D01*
X0097390Y0018754D01*
X0097314Y0018758D01*
X0097238Y0018765D01*
X0097162Y0018776D01*
X0097087Y0018790D01*
X0097013Y0018809D01*
X0096940Y0018831D01*
X0096868Y0018856D01*
X0096797Y0018885D01*
X0096728Y0018918D01*
X0096660Y0018953D01*
X0096595Y0018993D01*
X0096531Y0019035D01*
X0096470Y0019080D01*
X0096411Y0019129D01*
X0096354Y0019180D01*
X0096300Y0019234D01*
X0096249Y0019291D01*
X0096200Y0019350D01*
X0096155Y0019411D01*
X0096113Y0019475D01*
X0096073Y0019540D01*
X0096038Y0019608D01*
X0096005Y0019677D01*
X0095976Y0019748D01*
X0095951Y0019820D01*
X0095929Y0019893D01*
X0095910Y0019967D01*
X0095896Y0020042D01*
X0095885Y0020118D01*
X0095878Y0020194D01*
X0095874Y0020270D01*
X0095930Y0020270D01*
X0095934Y0020194D01*
X0095941Y0020118D01*
X0095952Y0020043D01*
X0095967Y0019969D01*
X0095986Y0019895D01*
X0096009Y0019822D01*
X0096035Y0019751D01*
X0096065Y0019681D01*
X0096098Y0019613D01*
X0096135Y0019546D01*
X0096175Y0019482D01*
X0096218Y0019419D01*
X0096265Y0019359D01*
X0096314Y0019302D01*
X0096366Y0019246D01*
X0096422Y0019194D01*
X0096479Y0019145D01*
X0096539Y0019098D01*
X0096602Y0019055D01*
X0096666Y0019015D01*
X0096733Y0018978D01*
X0096801Y0018945D01*
X0096871Y0018915D01*
X0096942Y0018889D01*
X0097015Y0018866D01*
X0097089Y0018847D01*
X0097163Y0018832D01*
X0097238Y0018821D01*
X0097314Y0018814D01*
X0097390Y0018810D01*
X0097390Y0018866D01*
X0097314Y0018870D01*
X0097239Y0018877D01*
X0097165Y0018889D01*
X0097091Y0018904D01*
X0097017Y0018924D01*
X0096945Y0018947D01*
X0096875Y0018974D01*
X0096806Y0019004D01*
X0096738Y0019038D01*
X0096673Y0019076D01*
X0096609Y0019117D01*
X0096548Y0019162D01*
X0096489Y0019209D01*
X0096433Y0019260D01*
X0096380Y0019313D01*
X0096329Y0019369D01*
X0096282Y0019428D01*
X0096237Y0019489D01*
X0096196Y0019553D01*
X0096158Y0019618D01*
X0096124Y0019686D01*
X0096094Y0019755D01*
X0096067Y0019825D01*
X0096044Y0019897D01*
X0096024Y0019971D01*
X0096009Y0020045D01*
X0095997Y0020119D01*
X0095990Y0020194D01*
X0095986Y0020270D01*
X0096042Y0020270D01*
X0096046Y0020198D01*
X0096053Y0020125D01*
X0096064Y0020054D01*
X0096079Y0019983D01*
X0096098Y0019912D01*
X0096120Y0019843D01*
X0096146Y0019776D01*
X0096175Y0019709D01*
X0096208Y0019645D01*
X0096244Y0019582D01*
X0096284Y0019521D01*
X0096326Y0019462D01*
X0096372Y0019406D01*
X0096420Y0019352D01*
X0096472Y0019300D01*
X0096526Y0019252D01*
X0096582Y0019206D01*
X0096641Y0019164D01*
X0096702Y0019124D01*
X0096765Y0019088D01*
X0096829Y0019055D01*
X0096896Y0019026D01*
X0096963Y0019000D01*
X0097032Y0018978D01*
X0097103Y0018959D01*
X0097174Y0018944D01*
X0097245Y0018933D01*
X0097318Y0018926D01*
X0097390Y0018922D01*
X0097390Y0018978D01*
X0097318Y0018982D01*
X0097246Y0018989D01*
X0097175Y0019001D01*
X0097105Y0019016D01*
X0097036Y0019035D01*
X0096967Y0019058D01*
X0096900Y0019084D01*
X0096835Y0019115D01*
X0096771Y0019148D01*
X0096709Y0019185D01*
X0096650Y0019226D01*
X0096592Y0019269D01*
X0096537Y0019316D01*
X0096485Y0019365D01*
X0096436Y0019417D01*
X0096389Y0019472D01*
X0096346Y0019530D01*
X0096305Y0019589D01*
X0096268Y0019651D01*
X0096235Y0019715D01*
X0096204Y0019780D01*
X0096178Y0019847D01*
X0096155Y0019916D01*
X0096136Y0019985D01*
X0096121Y0020055D01*
X0096109Y0020126D01*
X0096102Y0020198D01*
X0096098Y0020270D01*
X0096154Y0020270D01*
X0096158Y0020201D01*
X0096165Y0020133D01*
X0096176Y0020065D01*
X0096191Y0019997D01*
X0096209Y0019931D01*
X0096231Y0019866D01*
X0096256Y0019802D01*
X0096285Y0019739D01*
X0096317Y0019678D01*
X0096353Y0019619D01*
X0096391Y0019562D01*
X0096433Y0019507D01*
X0096477Y0019455D01*
X0096525Y0019405D01*
X0096575Y0019357D01*
X0096627Y0019313D01*
X0096682Y0019271D01*
X0096739Y0019233D01*
X0096798Y0019197D01*
X0096859Y0019165D01*
X0096922Y0019136D01*
X0096986Y0019111D01*
X0097051Y0019089D01*
X0097117Y0019071D01*
X0097185Y0019056D01*
X0097253Y0019045D01*
X0097321Y0019038D01*
X0097390Y0019034D01*
X0097391Y0048469D02*
X0097391Y0047929D01*
X0097390Y0047930D02*
X0097321Y0047926D01*
X0097252Y0047918D01*
X0097183Y0047907D01*
X0097116Y0047892D01*
X0097049Y0047873D01*
X0096984Y0047850D01*
X0096920Y0047824D01*
X0096857Y0047794D01*
X0096796Y0047760D01*
X0096738Y0047723D01*
X0096681Y0047683D01*
X0096627Y0047640D01*
X0096575Y0047594D01*
X0096526Y0047545D01*
X0096480Y0047493D01*
X0096437Y0047439D01*
X0096397Y0047382D01*
X0096360Y0047324D01*
X0096326Y0047263D01*
X0096296Y0047200D01*
X0096270Y0047136D01*
X0096247Y0047071D01*
X0096228Y0047004D01*
X0096213Y0046937D01*
X0096202Y0046868D01*
X0096194Y0046799D01*
X0096190Y0046730D01*
X0095651Y0046729D01*
X0095650Y0046730D01*
X0095654Y0046812D01*
X0095661Y0046894D01*
X0095672Y0046976D01*
X0095686Y0047057D01*
X0095705Y0047138D01*
X0095727Y0047217D01*
X0095753Y0047295D01*
X0095783Y0047372D01*
X0095816Y0047448D01*
X0095852Y0047522D01*
X0095892Y0047594D01*
X0095935Y0047664D01*
X0095982Y0047732D01*
X0096032Y0047798D01*
X0096084Y0047861D01*
X0096140Y0047922D01*
X0096198Y0047980D01*
X0096259Y0048036D01*
X0096322Y0048088D01*
X0096388Y0048138D01*
X0096456Y0048185D01*
X0096526Y0048228D01*
X0096598Y0048268D01*
X0096672Y0048304D01*
X0096748Y0048337D01*
X0096825Y0048367D01*
X0096903Y0048393D01*
X0096982Y0048415D01*
X0097063Y0048434D01*
X0097144Y0048448D01*
X0097226Y0048459D01*
X0097308Y0048466D01*
X0097390Y0048470D01*
X0097390Y0048414D01*
X0097310Y0048410D01*
X0097231Y0048404D01*
X0097152Y0048393D01*
X0097073Y0048379D01*
X0096996Y0048361D01*
X0096919Y0048339D01*
X0096843Y0048314D01*
X0096769Y0048285D01*
X0096696Y0048253D01*
X0096624Y0048218D01*
X0096554Y0048179D01*
X0096486Y0048137D01*
X0096421Y0048092D01*
X0096357Y0048044D01*
X0096296Y0047994D01*
X0096237Y0047940D01*
X0096180Y0047883D01*
X0096126Y0047824D01*
X0096076Y0047763D01*
X0096028Y0047699D01*
X0095983Y0047634D01*
X0095941Y0047566D01*
X0095902Y0047496D01*
X0095867Y0047424D01*
X0095835Y0047351D01*
X0095806Y0047277D01*
X0095781Y0047201D01*
X0095759Y0047124D01*
X0095741Y0047047D01*
X0095727Y0046968D01*
X0095716Y0046889D01*
X0095710Y0046810D01*
X0095706Y0046730D01*
X0095762Y0046730D01*
X0095766Y0046809D01*
X0095773Y0046889D01*
X0095784Y0046967D01*
X0095798Y0047045D01*
X0095817Y0047123D01*
X0095839Y0047199D01*
X0095865Y0047274D01*
X0095894Y0047348D01*
X0095927Y0047421D01*
X0095963Y0047491D01*
X0096003Y0047560D01*
X0096046Y0047627D01*
X0096092Y0047692D01*
X0096141Y0047755D01*
X0096193Y0047815D01*
X0096248Y0047872D01*
X0096305Y0047927D01*
X0096365Y0047979D01*
X0096428Y0048028D01*
X0096493Y0048074D01*
X0096560Y0048117D01*
X0096629Y0048157D01*
X0096699Y0048193D01*
X0096772Y0048226D01*
X0096846Y0048255D01*
X0096921Y0048281D01*
X0096997Y0048303D01*
X0097075Y0048322D01*
X0097153Y0048336D01*
X0097231Y0048347D01*
X0097311Y0048354D01*
X0097390Y0048358D01*
X0097390Y0048302D01*
X0097311Y0048298D01*
X0097232Y0048291D01*
X0097154Y0048280D01*
X0097076Y0048265D01*
X0096999Y0048246D01*
X0096923Y0048223D01*
X0096848Y0048196D01*
X0096775Y0048166D01*
X0096703Y0048133D01*
X0096633Y0048096D01*
X0096565Y0048055D01*
X0096499Y0048011D01*
X0096436Y0047964D01*
X0096374Y0047914D01*
X0096316Y0047860D01*
X0096260Y0047804D01*
X0096206Y0047746D01*
X0096156Y0047684D01*
X0096109Y0047621D01*
X0096065Y0047555D01*
X0096024Y0047487D01*
X0095987Y0047417D01*
X0095954Y0047345D01*
X0095924Y0047272D01*
X0095897Y0047197D01*
X0095874Y0047121D01*
X0095855Y0047044D01*
X0095840Y0046966D01*
X0095829Y0046888D01*
X0095822Y0046809D01*
X0095818Y0046730D01*
X0095874Y0046730D01*
X0095878Y0046806D01*
X0095885Y0046882D01*
X0095896Y0046958D01*
X0095910Y0047033D01*
X0095929Y0047107D01*
X0095951Y0047180D01*
X0095976Y0047252D01*
X0096005Y0047323D01*
X0096038Y0047392D01*
X0096073Y0047460D01*
X0096113Y0047525D01*
X0096155Y0047589D01*
X0096200Y0047650D01*
X0096249Y0047709D01*
X0096300Y0047766D01*
X0096354Y0047820D01*
X0096411Y0047871D01*
X0096470Y0047920D01*
X0096531Y0047965D01*
X0096595Y0048007D01*
X0096660Y0048047D01*
X0096728Y0048082D01*
X0096797Y0048115D01*
X0096868Y0048144D01*
X0096940Y0048169D01*
X0097013Y0048191D01*
X0097087Y0048210D01*
X0097162Y0048224D01*
X0097238Y0048235D01*
X0097314Y0048242D01*
X0097390Y0048246D01*
X0097390Y0048190D01*
X0097314Y0048186D01*
X0097238Y0048179D01*
X0097163Y0048168D01*
X0097089Y0048153D01*
X0097015Y0048134D01*
X0096942Y0048111D01*
X0096871Y0048085D01*
X0096801Y0048055D01*
X0096733Y0048022D01*
X0096666Y0047985D01*
X0096602Y0047945D01*
X0096539Y0047902D01*
X0096479Y0047855D01*
X0096422Y0047806D01*
X0096366Y0047754D01*
X0096314Y0047698D01*
X0096265Y0047641D01*
X0096218Y0047581D01*
X0096175Y0047518D01*
X0096135Y0047454D01*
X0096098Y0047387D01*
X0096065Y0047319D01*
X0096035Y0047249D01*
X0096009Y0047178D01*
X0095986Y0047105D01*
X0095967Y0047031D01*
X0095952Y0046957D01*
X0095941Y0046882D01*
X0095934Y0046806D01*
X0095930Y0046730D01*
X0095986Y0046730D01*
X0095990Y0046806D01*
X0095997Y0046881D01*
X0096009Y0046955D01*
X0096024Y0047029D01*
X0096044Y0047103D01*
X0096067Y0047175D01*
X0096094Y0047245D01*
X0096124Y0047314D01*
X0096158Y0047382D01*
X0096196Y0047447D01*
X0096237Y0047511D01*
X0096282Y0047572D01*
X0096329Y0047631D01*
X0096380Y0047687D01*
X0096433Y0047740D01*
X0096489Y0047791D01*
X0096548Y0047838D01*
X0096609Y0047883D01*
X0096673Y0047924D01*
X0096738Y0047962D01*
X0096806Y0047996D01*
X0096875Y0048026D01*
X0096945Y0048053D01*
X0097017Y0048076D01*
X0097091Y0048096D01*
X0097165Y0048111D01*
X0097239Y0048123D01*
X0097314Y0048130D01*
X0097390Y0048134D01*
X0097390Y0048078D01*
X0097318Y0048074D01*
X0097245Y0048067D01*
X0097174Y0048056D01*
X0097103Y0048041D01*
X0097032Y0048022D01*
X0096963Y0048000D01*
X0096896Y0047974D01*
X0096829Y0047945D01*
X0096765Y0047912D01*
X0096702Y0047876D01*
X0096641Y0047836D01*
X0096582Y0047794D01*
X0096526Y0047748D01*
X0096472Y0047700D01*
X0096420Y0047648D01*
X0096372Y0047594D01*
X0096326Y0047538D01*
X0096284Y0047479D01*
X0096244Y0047418D01*
X0096208Y0047355D01*
X0096175Y0047291D01*
X0096146Y0047224D01*
X0096120Y0047157D01*
X0096098Y0047088D01*
X0096079Y0047017D01*
X0096064Y0046946D01*
X0096053Y0046875D01*
X0096046Y0046802D01*
X0096042Y0046730D01*
X0096098Y0046730D01*
X0096102Y0046802D01*
X0096109Y0046874D01*
X0096121Y0046945D01*
X0096136Y0047015D01*
X0096155Y0047084D01*
X0096178Y0047153D01*
X0096204Y0047220D01*
X0096235Y0047285D01*
X0096268Y0047349D01*
X0096305Y0047411D01*
X0096346Y0047470D01*
X0096389Y0047528D01*
X0096436Y0047583D01*
X0096485Y0047635D01*
X0096537Y0047684D01*
X0096592Y0047731D01*
X0096650Y0047774D01*
X0096709Y0047815D01*
X0096771Y0047852D01*
X0096835Y0047885D01*
X0096900Y0047916D01*
X0096967Y0047942D01*
X0097036Y0047965D01*
X0097105Y0047984D01*
X0097175Y0047999D01*
X0097246Y0048011D01*
X0097318Y0048018D01*
X0097390Y0048022D01*
X0097390Y0047966D01*
X0097321Y0047962D01*
X0097253Y0047955D01*
X0097185Y0047944D01*
X0097117Y0047929D01*
X0097051Y0047911D01*
X0096986Y0047889D01*
X0096922Y0047864D01*
X0096859Y0047835D01*
X0096798Y0047803D01*
X0096739Y0047767D01*
X0096682Y0047729D01*
X0096627Y0047687D01*
X0096575Y0047643D01*
X0096525Y0047595D01*
X0096477Y0047545D01*
X0096433Y0047493D01*
X0096391Y0047438D01*
X0096353Y0047381D01*
X0096317Y0047322D01*
X0096285Y0047261D01*
X0096256Y0047198D01*
X0096231Y0047134D01*
X0096209Y0047069D01*
X0096191Y0047003D01*
X0096176Y0046935D01*
X0096165Y0046867D01*
X0096158Y0046799D01*
X0096154Y0046730D01*
X0157189Y0046729D02*
X0156649Y0046729D01*
X0156650Y0046730D02*
X0156646Y0046799D01*
X0156638Y0046868D01*
X0156627Y0046937D01*
X0156612Y0047004D01*
X0156593Y0047071D01*
X0156570Y0047136D01*
X0156544Y0047200D01*
X0156514Y0047263D01*
X0156480Y0047324D01*
X0156443Y0047382D01*
X0156403Y0047439D01*
X0156360Y0047493D01*
X0156314Y0047545D01*
X0156265Y0047594D01*
X0156213Y0047640D01*
X0156159Y0047683D01*
X0156102Y0047723D01*
X0156044Y0047760D01*
X0155983Y0047794D01*
X0155920Y0047824D01*
X0155856Y0047850D01*
X0155791Y0047873D01*
X0155724Y0047892D01*
X0155657Y0047907D01*
X0155588Y0047918D01*
X0155519Y0047926D01*
X0155450Y0047930D01*
X0155449Y0048469D01*
X0155450Y0048470D01*
X0155532Y0048466D01*
X0155614Y0048459D01*
X0155696Y0048448D01*
X0155777Y0048434D01*
X0155858Y0048415D01*
X0155937Y0048393D01*
X0156015Y0048367D01*
X0156092Y0048337D01*
X0156168Y0048304D01*
X0156242Y0048268D01*
X0156314Y0048228D01*
X0156384Y0048185D01*
X0156452Y0048138D01*
X0156518Y0048088D01*
X0156581Y0048036D01*
X0156642Y0047980D01*
X0156700Y0047922D01*
X0156756Y0047861D01*
X0156808Y0047798D01*
X0156858Y0047732D01*
X0156905Y0047664D01*
X0156948Y0047594D01*
X0156988Y0047522D01*
X0157024Y0047448D01*
X0157057Y0047372D01*
X0157087Y0047295D01*
X0157113Y0047217D01*
X0157135Y0047138D01*
X0157154Y0047057D01*
X0157168Y0046976D01*
X0157179Y0046894D01*
X0157186Y0046812D01*
X0157190Y0046730D01*
X0157134Y0046730D01*
X0157130Y0046810D01*
X0157124Y0046889D01*
X0157113Y0046968D01*
X0157099Y0047047D01*
X0157081Y0047124D01*
X0157059Y0047201D01*
X0157034Y0047277D01*
X0157005Y0047351D01*
X0156973Y0047424D01*
X0156938Y0047496D01*
X0156899Y0047566D01*
X0156857Y0047634D01*
X0156812Y0047699D01*
X0156764Y0047763D01*
X0156714Y0047824D01*
X0156660Y0047883D01*
X0156603Y0047940D01*
X0156544Y0047994D01*
X0156483Y0048044D01*
X0156419Y0048092D01*
X0156354Y0048137D01*
X0156286Y0048179D01*
X0156216Y0048218D01*
X0156144Y0048253D01*
X0156071Y0048285D01*
X0155997Y0048314D01*
X0155921Y0048339D01*
X0155844Y0048361D01*
X0155767Y0048379D01*
X0155688Y0048393D01*
X0155609Y0048404D01*
X0155530Y0048410D01*
X0155450Y0048414D01*
X0155450Y0048358D01*
X0155529Y0048354D01*
X0155609Y0048347D01*
X0155687Y0048336D01*
X0155765Y0048322D01*
X0155843Y0048303D01*
X0155919Y0048281D01*
X0155994Y0048255D01*
X0156068Y0048226D01*
X0156141Y0048193D01*
X0156211Y0048157D01*
X0156280Y0048117D01*
X0156347Y0048074D01*
X0156412Y0048028D01*
X0156475Y0047979D01*
X0156535Y0047927D01*
X0156592Y0047872D01*
X0156647Y0047815D01*
X0156699Y0047755D01*
X0156748Y0047692D01*
X0156794Y0047627D01*
X0156837Y0047560D01*
X0156877Y0047491D01*
X0156913Y0047421D01*
X0156946Y0047348D01*
X0156975Y0047274D01*
X0157001Y0047199D01*
X0157023Y0047123D01*
X0157042Y0047045D01*
X0157056Y0046967D01*
X0157067Y0046889D01*
X0157074Y0046809D01*
X0157078Y0046730D01*
X0157022Y0046730D01*
X0157018Y0046809D01*
X0157011Y0046888D01*
X0157000Y0046966D01*
X0156985Y0047044D01*
X0156966Y0047121D01*
X0156943Y0047197D01*
X0156916Y0047272D01*
X0156886Y0047345D01*
X0156853Y0047417D01*
X0156816Y0047487D01*
X0156775Y0047555D01*
X0156731Y0047621D01*
X0156684Y0047684D01*
X0156634Y0047746D01*
X0156580Y0047804D01*
X0156524Y0047860D01*
X0156466Y0047914D01*
X0156404Y0047964D01*
X0156341Y0048011D01*
X0156275Y0048055D01*
X0156207Y0048096D01*
X0156137Y0048133D01*
X0156065Y0048166D01*
X0155992Y0048196D01*
X0155917Y0048223D01*
X0155841Y0048246D01*
X0155764Y0048265D01*
X0155686Y0048280D01*
X0155608Y0048291D01*
X0155529Y0048298D01*
X0155450Y0048302D01*
X0155450Y0048246D01*
X0155526Y0048242D01*
X0155602Y0048235D01*
X0155678Y0048224D01*
X0155753Y0048210D01*
X0155827Y0048191D01*
X0155900Y0048169D01*
X0155972Y0048144D01*
X0156043Y0048115D01*
X0156112Y0048082D01*
X0156180Y0048047D01*
X0156245Y0048007D01*
X0156309Y0047965D01*
X0156370Y0047920D01*
X0156429Y0047871D01*
X0156486Y0047820D01*
X0156540Y0047766D01*
X0156591Y0047709D01*
X0156640Y0047650D01*
X0156685Y0047589D01*
X0156727Y0047525D01*
X0156767Y0047460D01*
X0156802Y0047392D01*
X0156835Y0047323D01*
X0156864Y0047252D01*
X0156889Y0047180D01*
X0156911Y0047107D01*
X0156930Y0047033D01*
X0156944Y0046958D01*
X0156955Y0046882D01*
X0156962Y0046806D01*
X0156966Y0046730D01*
X0156910Y0046730D01*
X0156906Y0046806D01*
X0156899Y0046882D01*
X0156888Y0046957D01*
X0156873Y0047031D01*
X0156854Y0047105D01*
X0156831Y0047178D01*
X0156805Y0047249D01*
X0156775Y0047319D01*
X0156742Y0047387D01*
X0156705Y0047454D01*
X0156665Y0047518D01*
X0156622Y0047581D01*
X0156575Y0047641D01*
X0156526Y0047698D01*
X0156474Y0047754D01*
X0156418Y0047806D01*
X0156361Y0047855D01*
X0156301Y0047902D01*
X0156238Y0047945D01*
X0156174Y0047985D01*
X0156107Y0048022D01*
X0156039Y0048055D01*
X0155969Y0048085D01*
X0155898Y0048111D01*
X0155825Y0048134D01*
X0155751Y0048153D01*
X0155677Y0048168D01*
X0155602Y0048179D01*
X0155526Y0048186D01*
X0155450Y0048190D01*
X0155450Y0048134D01*
X0155526Y0048130D01*
X0155601Y0048123D01*
X0155675Y0048111D01*
X0155749Y0048096D01*
X0155823Y0048076D01*
X0155895Y0048053D01*
X0155965Y0048026D01*
X0156034Y0047996D01*
X0156102Y0047962D01*
X0156167Y0047924D01*
X0156231Y0047883D01*
X0156292Y0047838D01*
X0156351Y0047791D01*
X0156407Y0047740D01*
X0156460Y0047687D01*
X0156511Y0047631D01*
X0156558Y0047572D01*
X0156603Y0047511D01*
X0156644Y0047447D01*
X0156682Y0047382D01*
X0156716Y0047314D01*
X0156746Y0047245D01*
X0156773Y0047175D01*
X0156796Y0047103D01*
X0156816Y0047029D01*
X0156831Y0046955D01*
X0156843Y0046881D01*
X0156850Y0046806D01*
X0156854Y0046730D01*
X0156798Y0046730D01*
X0156794Y0046802D01*
X0156787Y0046875D01*
X0156776Y0046946D01*
X0156761Y0047017D01*
X0156742Y0047088D01*
X0156720Y0047157D01*
X0156694Y0047224D01*
X0156665Y0047291D01*
X0156632Y0047355D01*
X0156596Y0047418D01*
X0156556Y0047479D01*
X0156514Y0047538D01*
X0156468Y0047594D01*
X0156420Y0047648D01*
X0156368Y0047700D01*
X0156314Y0047748D01*
X0156258Y0047794D01*
X0156199Y0047836D01*
X0156138Y0047876D01*
X0156075Y0047912D01*
X0156011Y0047945D01*
X0155944Y0047974D01*
X0155877Y0048000D01*
X0155808Y0048022D01*
X0155737Y0048041D01*
X0155666Y0048056D01*
X0155595Y0048067D01*
X0155522Y0048074D01*
X0155450Y0048078D01*
X0155450Y0048022D01*
X0155522Y0048018D01*
X0155594Y0048011D01*
X0155665Y0047999D01*
X0155735Y0047984D01*
X0155804Y0047965D01*
X0155873Y0047942D01*
X0155940Y0047916D01*
X0156005Y0047885D01*
X0156069Y0047852D01*
X0156131Y0047815D01*
X0156190Y0047774D01*
X0156248Y0047731D01*
X0156303Y0047684D01*
X0156355Y0047635D01*
X0156404Y0047583D01*
X0156451Y0047528D01*
X0156494Y0047470D01*
X0156535Y0047411D01*
X0156572Y0047349D01*
X0156605Y0047285D01*
X0156636Y0047220D01*
X0156662Y0047153D01*
X0156685Y0047084D01*
X0156704Y0047015D01*
X0156719Y0046945D01*
X0156731Y0046874D01*
X0156738Y0046802D01*
X0156742Y0046730D01*
X0156686Y0046730D01*
X0156682Y0046799D01*
X0156675Y0046867D01*
X0156664Y0046935D01*
X0156649Y0047003D01*
X0156631Y0047069D01*
X0156609Y0047134D01*
X0156584Y0047198D01*
X0156555Y0047261D01*
X0156523Y0047322D01*
X0156487Y0047381D01*
X0156449Y0047438D01*
X0156407Y0047493D01*
X0156363Y0047545D01*
X0156315Y0047595D01*
X0156265Y0047643D01*
X0156213Y0047687D01*
X0156158Y0047729D01*
X0156101Y0047767D01*
X0156042Y0047803D01*
X0155981Y0047835D01*
X0155918Y0047864D01*
X0155854Y0047889D01*
X0155789Y0047911D01*
X0155723Y0047929D01*
X0155655Y0047944D01*
X0155587Y0047955D01*
X0155519Y0047962D01*
X0155450Y0047966D01*
M02*
