%
M48
M72
T01C0.0130
T02C0.0276
T03C0.0394
T04C0.0400
T05C0.1260
%
T01
X8427Y5315
X11122Y5910
X15917Y4580
X18542Y4090
X15882Y2865
X14167Y1955
X14132Y800
T02
X17892Y2350
X18892Y2350
X16392Y3100
X16392Y4100
T03
X20142Y4100
X21142Y4600
X20142Y5100
X21142Y3600
X20142Y3100
X21142Y2600
X20142Y2100
X21142Y1600
X7892Y1600
X6892Y2100
X7892Y2600
X6892Y3100
X7892Y3600
X6892Y4100
X7892Y4600
X6892Y5100
T04
X7142Y7350
X8142Y7350
X9142Y7350
X10142Y7350
X11142Y7350
X12142Y7350
X13142Y7350
X14892Y7350
X14892Y8350
X13142Y8350
X12142Y8350
X11142Y8350
X10142Y8350
X9142Y8350
X8142Y8350
X7142Y8350
X6142Y8350
X5142Y8350
X4142Y8350
X4142Y7350
X5142Y7350
X6142Y7350
X18392Y7350
X19392Y7350
X20392Y7350
X20392Y8350
X19392Y8350
X18392Y8350
X18392Y9350
X19392Y9350
X20392Y9350
X18892Y850
X17892Y850
T05
X4392Y1100
X4392Y5600
X23142Y8350
X23642Y5600
X23642Y1100
M30
