G75*
%MOIN*%
%OFA0B0*%
%FSLAX25Y25*%
%IPPOS*%
%LPD*%
%AMOC8*
5,1,8,0,0,1.08239X$1,22.5*
%
%ADD10C,0.00800*%
%ADD11C,0.00200*%
%ADD12C,0.00400*%
%ADD13C,0.00300*%
%ADD14C,0.01000*%
%ADD15R,0.01181X0.00591*%
%ADD16R,0.01181X0.01181*%
%ADD17C,0.00600*%
%ADD18C,0.00500*%
%ADD19C,0.00000*%
%ADD20C,0.00700*%
%ADD21R,0.00591X0.01181*%
D10*
X0055400Y0026400D02*
X0300400Y0026400D01*
X0301608Y0026415D01*
X0302816Y0026458D01*
X0304022Y0026531D01*
X0305226Y0026633D01*
X0306427Y0026765D01*
X0307624Y0026925D01*
X0308818Y0027114D01*
X0310006Y0027331D01*
X0311189Y0027578D01*
X0312366Y0027853D01*
X0313535Y0028156D01*
X0314697Y0028488D01*
X0315851Y0028847D01*
X0316995Y0029234D01*
X0318130Y0029649D01*
X0319255Y0030091D01*
X0320368Y0030560D01*
X0321470Y0031056D01*
X0322560Y0031579D01*
X0323636Y0032127D01*
X0324699Y0032702D01*
X0325748Y0033302D01*
X0326782Y0033927D01*
X0327801Y0034576D01*
X0328803Y0035251D01*
X0329789Y0035949D01*
X0330758Y0036671D01*
X0331709Y0037416D01*
X0332642Y0038184D01*
X0333556Y0038974D01*
X0334451Y0039787D01*
X0335326Y0040620D01*
X0336180Y0041474D01*
X0337013Y0042349D01*
X0337826Y0043244D01*
X0338616Y0044158D01*
X0339384Y0045091D01*
X0340129Y0046042D01*
X0340851Y0047011D01*
X0341549Y0047997D01*
X0342224Y0048999D01*
X0342873Y0050018D01*
X0343498Y0051052D01*
X0344098Y0052101D01*
X0344673Y0053164D01*
X0345221Y0054240D01*
X0345744Y0055330D01*
X0346240Y0056432D01*
X0346709Y0057545D01*
X0347151Y0058670D01*
X0347566Y0059805D01*
X0347953Y0060949D01*
X0348312Y0062103D01*
X0348644Y0063265D01*
X0348947Y0064434D01*
X0349222Y0065611D01*
X0349469Y0066794D01*
X0349686Y0067982D01*
X0349875Y0069176D01*
X0350035Y0070373D01*
X0350167Y0071574D01*
X0350269Y0072778D01*
X0350342Y0073984D01*
X0350385Y0075192D01*
X0350400Y0076400D01*
X0350400Y0191400D01*
X0350385Y0192608D01*
X0350342Y0193816D01*
X0350269Y0195022D01*
X0350167Y0196226D01*
X0350035Y0197427D01*
X0349875Y0198624D01*
X0349686Y0199818D01*
X0349469Y0201006D01*
X0349222Y0202189D01*
X0348947Y0203366D01*
X0348644Y0204535D01*
X0348312Y0205697D01*
X0347953Y0206851D01*
X0347566Y0207995D01*
X0347151Y0209130D01*
X0346709Y0210255D01*
X0346240Y0211368D01*
X0345744Y0212470D01*
X0345221Y0213560D01*
X0344673Y0214636D01*
X0344098Y0215699D01*
X0343498Y0216748D01*
X0342873Y0217782D01*
X0342224Y0218801D01*
X0341549Y0219803D01*
X0340851Y0220789D01*
X0340129Y0221758D01*
X0339384Y0222709D01*
X0338616Y0223642D01*
X0337826Y0224556D01*
X0337013Y0225451D01*
X0336180Y0226326D01*
X0335326Y0227180D01*
X0334451Y0228013D01*
X0333556Y0228826D01*
X0332642Y0229616D01*
X0331709Y0230384D01*
X0330758Y0231129D01*
X0329789Y0231851D01*
X0328803Y0232549D01*
X0327801Y0233224D01*
X0326782Y0233873D01*
X0325748Y0234498D01*
X0324699Y0235098D01*
X0323636Y0235673D01*
X0322560Y0236221D01*
X0321470Y0236744D01*
X0320368Y0237240D01*
X0319255Y0237709D01*
X0318130Y0238151D01*
X0316995Y0238566D01*
X0315851Y0238953D01*
X0314697Y0239312D01*
X0313535Y0239644D01*
X0312366Y0239947D01*
X0311189Y0240222D01*
X0310006Y0240469D01*
X0308818Y0240686D01*
X0307624Y0240875D01*
X0306427Y0241035D01*
X0305226Y0241167D01*
X0304022Y0241269D01*
X0302816Y0241342D01*
X0301608Y0241385D01*
X0300400Y0241400D01*
X0055400Y0241400D01*
X0055400Y0178900D01*
X0090400Y0178900D01*
X0090400Y0108900D01*
X0055400Y0108900D01*
X0055400Y0026400D01*
X0075796Y0034696D02*
X0075796Y0036798D01*
X0076497Y0037498D01*
X0077898Y0037498D01*
X0078599Y0036798D01*
X0078599Y0034696D01*
X0080000Y0034696D02*
X0075796Y0034696D01*
X0076497Y0039300D02*
X0077198Y0039300D01*
X0077898Y0040001D01*
X0077898Y0042102D01*
X0076497Y0042102D02*
X0075796Y0041402D01*
X0075796Y0040001D01*
X0076497Y0039300D01*
X0076497Y0042102D02*
X0079299Y0042102D01*
X0080000Y0041402D01*
X0080000Y0040001D01*
X0079299Y0039300D01*
X0082198Y0221998D02*
X0080796Y0223399D01*
X0085000Y0223399D01*
X0085000Y0221998D02*
X0085000Y0224800D01*
X0080000Y0224696D02*
X0075796Y0224696D01*
X0075796Y0226798D01*
X0076497Y0227498D01*
X0077898Y0227498D01*
X0078599Y0226798D01*
X0078599Y0224696D01*
X0078599Y0229300D02*
X0077898Y0230001D01*
X0077898Y0231402D01*
X0078599Y0232102D01*
X0079299Y0232102D01*
X0080000Y0231402D01*
X0080000Y0230001D01*
X0079299Y0229300D01*
X0078599Y0229300D01*
X0077898Y0230001D02*
X0077198Y0229300D01*
X0076497Y0229300D01*
X0075796Y0230001D01*
X0075796Y0231402D01*
X0076497Y0232102D01*
X0077198Y0232102D01*
X0077898Y0231402D01*
D11*
X0078181Y0200802D02*
X0077080Y0200802D01*
X0077080Y0198600D01*
X0078181Y0198600D01*
X0078548Y0198967D01*
X0078548Y0200435D01*
X0078181Y0200802D01*
X0079290Y0200068D02*
X0080024Y0200802D01*
X0080024Y0198600D01*
X0079290Y0198600D02*
X0080758Y0198600D01*
X0083500Y0198500D02*
X0083500Y0200702D01*
X0084601Y0200702D01*
X0084968Y0200335D01*
X0084968Y0199601D01*
X0084601Y0199234D01*
X0083500Y0199234D01*
X0084234Y0199234D02*
X0084968Y0198500D01*
X0085710Y0198500D02*
X0087178Y0198500D01*
X0086444Y0198500D02*
X0086444Y0200702D01*
X0085710Y0199968D01*
X0088867Y0196702D02*
X0089601Y0196702D01*
X0089968Y0196335D01*
X0089968Y0195968D01*
X0089601Y0195601D01*
X0089968Y0195234D01*
X0089968Y0194867D01*
X0089601Y0194500D01*
X0088867Y0194500D01*
X0088500Y0194867D01*
X0089234Y0195601D02*
X0089601Y0195601D01*
X0088500Y0196335D02*
X0088867Y0196702D01*
X0090710Y0196335D02*
X0091077Y0196702D01*
X0091811Y0196702D01*
X0092178Y0196335D01*
X0090710Y0194867D01*
X0091077Y0194500D01*
X0091811Y0194500D01*
X0092178Y0194867D01*
X0092178Y0196335D01*
X0092920Y0196335D02*
X0093287Y0196702D01*
X0094021Y0196702D01*
X0094388Y0196335D01*
X0092920Y0194867D01*
X0093287Y0194500D01*
X0094021Y0194500D01*
X0094388Y0194867D01*
X0094388Y0196335D01*
X0092920Y0196335D02*
X0092920Y0194867D01*
X0090710Y0194867D02*
X0090710Y0196335D01*
X0091077Y0191202D02*
X0091811Y0191202D01*
X0092178Y0190835D01*
X0092178Y0190468D01*
X0091811Y0190101D01*
X0092178Y0189734D01*
X0092178Y0189367D01*
X0091811Y0189000D01*
X0091077Y0189000D01*
X0090710Y0189367D01*
X0089968Y0189367D02*
X0089601Y0189000D01*
X0088867Y0189000D01*
X0088500Y0189367D01*
X0089234Y0190101D02*
X0089601Y0190101D01*
X0089968Y0189734D01*
X0089968Y0189367D01*
X0089601Y0190101D02*
X0089968Y0190468D01*
X0089968Y0190835D01*
X0089601Y0191202D01*
X0088867Y0191202D01*
X0088500Y0190835D01*
X0090710Y0190835D02*
X0091077Y0191202D01*
X0091444Y0190101D02*
X0091811Y0190101D01*
X0092920Y0190835D02*
X0093287Y0191202D01*
X0094021Y0191202D01*
X0094388Y0190835D01*
X0092920Y0189367D01*
X0093287Y0189000D01*
X0094021Y0189000D01*
X0094388Y0189367D01*
X0094388Y0190835D01*
X0092920Y0190835D02*
X0092920Y0189367D01*
X0087178Y0186835D02*
X0086811Y0187202D01*
X0086077Y0187202D01*
X0085710Y0186835D01*
X0084968Y0186835D02*
X0084968Y0186101D01*
X0084601Y0185734D01*
X0083500Y0185734D01*
X0084234Y0185734D02*
X0084968Y0185000D01*
X0085710Y0185000D02*
X0087178Y0186468D01*
X0087178Y0186835D01*
X0087178Y0185000D02*
X0085710Y0185000D01*
X0084968Y0186835D02*
X0084601Y0187202D01*
X0083500Y0187202D01*
X0083500Y0185000D01*
X0080758Y0184600D02*
X0079290Y0184600D01*
X0080758Y0186068D01*
X0080758Y0186435D01*
X0080391Y0186802D01*
X0079657Y0186802D01*
X0079290Y0186435D01*
X0078548Y0186435D02*
X0078548Y0184967D01*
X0078181Y0184600D01*
X0077080Y0184600D01*
X0077080Y0186802D01*
X0078181Y0186802D01*
X0078548Y0186435D01*
X0076338Y0186802D02*
X0074870Y0186802D01*
X0074870Y0184600D01*
X0076338Y0184600D01*
X0075604Y0185701D02*
X0074870Y0185701D01*
X0074128Y0184600D02*
X0072660Y0184600D01*
X0072660Y0186802D01*
X0071918Y0184233D02*
X0070451Y0184233D01*
X0069709Y0184600D02*
X0068975Y0185334D01*
X0069342Y0185334D02*
X0068241Y0185334D01*
X0068241Y0184600D02*
X0068241Y0186802D01*
X0069342Y0186802D01*
X0069709Y0186435D01*
X0069709Y0185701D01*
X0069342Y0185334D01*
X0067499Y0184600D02*
X0066031Y0184600D01*
X0066031Y0186802D01*
X0067499Y0186802D01*
X0066765Y0185701D02*
X0066031Y0185701D01*
X0065289Y0185334D02*
X0065289Y0184967D01*
X0064922Y0184600D01*
X0064188Y0184600D01*
X0063821Y0184967D01*
X0063079Y0184967D02*
X0063079Y0186802D01*
X0063821Y0186435D02*
X0063821Y0186068D01*
X0064188Y0185701D01*
X0064922Y0185701D01*
X0065289Y0185334D01*
X0065289Y0186435D02*
X0064922Y0186802D01*
X0064188Y0186802D01*
X0063821Y0186435D01*
X0063079Y0184967D02*
X0062712Y0184600D01*
X0061978Y0184600D01*
X0061611Y0184967D01*
X0061611Y0186802D01*
X0061978Y0198600D02*
X0062712Y0198600D01*
X0063079Y0198967D01*
X0063079Y0200802D01*
X0063821Y0200435D02*
X0063821Y0200068D01*
X0064188Y0199701D01*
X0064922Y0199701D01*
X0065289Y0199334D01*
X0065289Y0198967D01*
X0064922Y0198600D01*
X0064188Y0198600D01*
X0063821Y0198967D01*
X0063821Y0200435D02*
X0064188Y0200802D01*
X0064922Y0200802D01*
X0065289Y0200435D01*
X0066031Y0200802D02*
X0066031Y0198600D01*
X0067499Y0198600D01*
X0068241Y0198600D02*
X0068241Y0200802D01*
X0069342Y0200802D01*
X0069709Y0200435D01*
X0069709Y0199701D01*
X0069342Y0199334D01*
X0068241Y0199334D01*
X0068975Y0199334D02*
X0069709Y0198600D01*
X0070451Y0198233D02*
X0071918Y0198233D01*
X0072660Y0198600D02*
X0072660Y0200802D01*
X0072660Y0198600D02*
X0074128Y0198600D01*
X0074870Y0198600D02*
X0076338Y0198600D01*
X0075604Y0199701D02*
X0074870Y0199701D01*
X0074870Y0200802D02*
X0074870Y0198600D01*
X0074870Y0200802D02*
X0076338Y0200802D01*
X0067499Y0200802D02*
X0066031Y0200802D01*
X0066031Y0199701D02*
X0066765Y0199701D01*
X0061978Y0198600D02*
X0061611Y0198967D01*
X0061611Y0200802D01*
X0133098Y0140678D02*
X0133098Y0139210D01*
X0134199Y0139210D01*
X0133832Y0139944D01*
X0133832Y0140311D01*
X0134199Y0140678D01*
X0134933Y0140678D01*
X0135300Y0140311D01*
X0135300Y0139577D01*
X0134933Y0139210D01*
X0134933Y0138468D02*
X0135300Y0138101D01*
X0135300Y0137367D01*
X0134933Y0137000D01*
X0133465Y0137000D01*
X0133098Y0137367D01*
X0133098Y0138101D01*
X0133465Y0138468D01*
X0140598Y0137234D02*
X0142800Y0137234D01*
X0142800Y0136500D02*
X0142800Y0137968D01*
X0142433Y0138710D02*
X0142800Y0139077D01*
X0142800Y0140178D01*
X0141332Y0140178D01*
X0141699Y0140920D02*
X0141699Y0141654D01*
X0140598Y0140920D02*
X0140598Y0142388D01*
X0140598Y0140920D02*
X0142800Y0140920D01*
X0142433Y0138710D02*
X0141332Y0138710D01*
X0140598Y0137234D02*
X0141332Y0136500D01*
X0134891Y0127302D02*
X0135258Y0126935D01*
X0133790Y0125467D01*
X0134157Y0125100D01*
X0134891Y0125100D01*
X0135258Y0125467D01*
X0135258Y0126935D01*
X0134891Y0127302D02*
X0134157Y0127302D01*
X0133790Y0126935D01*
X0133790Y0125467D01*
X0133048Y0125100D02*
X0131580Y0125100D01*
X0132314Y0125100D02*
X0132314Y0127302D01*
X0131580Y0126568D01*
X0130838Y0126935D02*
X0130838Y0126201D01*
X0130471Y0125834D01*
X0129370Y0125834D01*
X0129370Y0125100D02*
X0129370Y0127302D01*
X0130471Y0127302D01*
X0130838Y0126935D01*
X0130104Y0125834D02*
X0130838Y0125100D01*
X0128759Y0125068D02*
X0127658Y0124334D01*
X0128759Y0123600D01*
X0127658Y0123600D02*
X0127658Y0125802D01*
X0126916Y0125435D02*
X0125449Y0123967D01*
X0125816Y0123600D01*
X0126549Y0123600D01*
X0126916Y0123967D01*
X0126916Y0125435D01*
X0126549Y0125802D01*
X0125816Y0125802D01*
X0125449Y0125435D01*
X0125449Y0123967D01*
X0124707Y0123600D02*
X0123239Y0123600D01*
X0123973Y0123600D02*
X0123973Y0125802D01*
X0123239Y0125068D01*
X0123604Y0117802D02*
X0123604Y0115600D01*
X0122870Y0115600D02*
X0124338Y0115600D01*
X0125080Y0115967D02*
X0125447Y0115600D01*
X0126548Y0115600D01*
X0126548Y0117068D01*
X0127290Y0116701D02*
X0128024Y0116701D01*
X0127290Y0115600D02*
X0127290Y0117802D01*
X0128758Y0117802D01*
X0125080Y0117068D02*
X0125080Y0115967D01*
X0123604Y0117802D02*
X0122870Y0117068D01*
X0122132Y0115967D02*
X0122132Y0115600D01*
X0121765Y0115600D01*
X0121765Y0115967D01*
X0122132Y0115967D01*
X0132080Y0114435D02*
X0132080Y0112967D01*
X0132447Y0112600D01*
X0133181Y0112600D01*
X0133548Y0112967D01*
X0134290Y0112967D02*
X0134290Y0112600D01*
X0134290Y0112967D02*
X0135758Y0114435D01*
X0135758Y0114802D01*
X0134290Y0114802D01*
X0133548Y0114435D02*
X0133181Y0114802D01*
X0132447Y0114802D01*
X0132080Y0114435D01*
X0135865Y0100258D02*
X0136232Y0100258D01*
X0136599Y0099891D01*
X0136966Y0100258D01*
X0137333Y0100258D01*
X0137700Y0099891D01*
X0137700Y0099157D01*
X0137333Y0098790D01*
X0136599Y0099524D02*
X0136599Y0099891D01*
X0135865Y0100258D02*
X0135498Y0099891D01*
X0135498Y0099157D01*
X0135865Y0098790D01*
X0135498Y0098048D02*
X0135498Y0097314D01*
X0135498Y0097681D02*
X0137333Y0097681D01*
X0137700Y0097314D01*
X0137700Y0096947D01*
X0137333Y0096580D01*
X0123200Y0096657D02*
X0122833Y0096290D01*
X0123200Y0096657D02*
X0123200Y0097391D01*
X0122833Y0097758D01*
X0122099Y0097758D01*
X0121732Y0097391D01*
X0121732Y0097024D01*
X0122099Y0096290D01*
X0120998Y0096290D01*
X0120998Y0097758D01*
X0120998Y0094814D02*
X0123200Y0094814D01*
X0123200Y0094080D02*
X0123200Y0095548D01*
X0121732Y0094080D02*
X0120998Y0094814D01*
X0121365Y0093338D02*
X0120998Y0092971D01*
X0120998Y0092237D01*
X0121365Y0091870D01*
X0122833Y0091870D01*
X0123200Y0092237D01*
X0123200Y0092971D01*
X0122833Y0093338D01*
X0119700Y0089290D02*
X0117498Y0089290D01*
X0117498Y0090758D01*
X0118599Y0090024D02*
X0118599Y0089290D01*
X0118232Y0088548D02*
X0119700Y0088548D01*
X0119700Y0087447D01*
X0119333Y0087080D01*
X0118232Y0087080D01*
X0119700Y0086338D02*
X0119700Y0084870D01*
X0119700Y0085604D02*
X0117498Y0085604D01*
X0118232Y0084870D01*
X0119333Y0084132D02*
X0119700Y0084132D01*
X0119700Y0083765D01*
X0119333Y0083765D01*
X0119333Y0084132D01*
X0119333Y0083023D02*
X0119700Y0082656D01*
X0119700Y0081922D01*
X0119333Y0081556D01*
X0117865Y0083023D01*
X0119333Y0083023D01*
X0119333Y0081556D02*
X0117865Y0081556D01*
X0117498Y0081922D01*
X0117498Y0082656D01*
X0117865Y0083023D01*
X0114700Y0083447D02*
X0114700Y0084548D01*
X0113232Y0084548D01*
X0113599Y0085290D02*
X0113599Y0086024D01*
X0112498Y0085290D02*
X0112498Y0086758D01*
X0112498Y0085290D02*
X0114700Y0085290D01*
X0114700Y0083447D02*
X0114333Y0083080D01*
X0113232Y0083080D01*
X0114700Y0082338D02*
X0114700Y0080870D01*
X0114700Y0081604D02*
X0112498Y0081604D01*
X0113232Y0080870D01*
X0110678Y0080000D02*
X0109577Y0081101D01*
X0109210Y0080734D02*
X0110678Y0082202D01*
X0109210Y0082202D02*
X0109210Y0080000D01*
X0108468Y0080000D02*
X0107000Y0080000D01*
X0107734Y0080000D02*
X0107734Y0082202D01*
X0107000Y0081468D01*
X0104888Y0083367D02*
X0104521Y0083000D01*
X0103787Y0083000D01*
X0103420Y0083367D01*
X0103420Y0084101D02*
X0104154Y0084468D01*
X0104521Y0084468D01*
X0104888Y0084101D01*
X0104888Y0083367D01*
X0103420Y0084101D02*
X0103420Y0085202D01*
X0104888Y0085202D01*
X0103651Y0087000D02*
X0102183Y0087000D01*
X0102917Y0087000D02*
X0102917Y0089202D01*
X0102183Y0088468D01*
X0101441Y0088835D02*
X0101074Y0089202D01*
X0100340Y0089202D01*
X0099973Y0088835D01*
X0099973Y0087367D01*
X0100340Y0087000D01*
X0101074Y0087000D01*
X0101441Y0087367D01*
X0101944Y0085202D02*
X0101944Y0083000D01*
X0101210Y0083000D02*
X0102678Y0083000D01*
X0101210Y0084468D02*
X0101944Y0085202D01*
X0100468Y0084835D02*
X0100468Y0084101D01*
X0100101Y0083734D01*
X0099000Y0083734D01*
X0099734Y0083734D02*
X0100468Y0083000D01*
X0099000Y0083000D02*
X0099000Y0085202D01*
X0100101Y0085202D01*
X0100468Y0084835D01*
X0099234Y0087000D02*
X0098500Y0087000D01*
X0098867Y0087000D02*
X0098867Y0089202D01*
X0098500Y0089202D02*
X0099234Y0089202D01*
X0093258Y0084802D02*
X0093258Y0083334D01*
X0092524Y0082600D01*
X0091790Y0083334D01*
X0091790Y0084802D01*
X0091048Y0084802D02*
X0089580Y0084802D01*
X0089580Y0083701D01*
X0090314Y0084068D01*
X0090681Y0084068D01*
X0091048Y0083701D01*
X0091048Y0082967D01*
X0090681Y0082600D01*
X0089947Y0082600D01*
X0089580Y0082967D01*
X0084700Y0090660D02*
X0084700Y0092128D01*
X0084700Y0091394D02*
X0082498Y0091394D01*
X0083232Y0090660D01*
X0082865Y0092870D02*
X0082498Y0093237D01*
X0082498Y0093971D01*
X0082865Y0094338D01*
X0084333Y0092870D01*
X0084700Y0093237D01*
X0084700Y0093971D01*
X0084333Y0094338D01*
X0082865Y0094338D01*
X0083232Y0095080D02*
X0084333Y0095080D01*
X0084700Y0095447D01*
X0084700Y0096548D01*
X0083232Y0096548D01*
X0083599Y0097290D02*
X0083599Y0098024D01*
X0084700Y0097290D02*
X0082498Y0097290D01*
X0082498Y0098758D01*
X0082865Y0092870D02*
X0084333Y0092870D01*
X0089498Y0093237D02*
X0089865Y0092870D01*
X0091333Y0092870D01*
X0091700Y0093237D01*
X0091700Y0093971D01*
X0091333Y0094338D01*
X0091700Y0095080D02*
X0091700Y0096548D01*
X0091700Y0095814D02*
X0089498Y0095814D01*
X0090232Y0095080D01*
X0089865Y0094338D02*
X0089498Y0093971D01*
X0089498Y0093237D01*
X0089865Y0097290D02*
X0089498Y0097657D01*
X0089498Y0098391D01*
X0089865Y0098758D01*
X0090232Y0098758D01*
X0090599Y0098391D01*
X0090966Y0098758D01*
X0091333Y0098758D01*
X0091700Y0098391D01*
X0091700Y0097657D01*
X0091333Y0097290D01*
X0090599Y0098024D02*
X0090599Y0098391D01*
X0099000Y0098367D02*
X0099367Y0098000D01*
X0100101Y0098000D01*
X0100468Y0098367D01*
X0100468Y0099101D01*
X0100101Y0099468D01*
X0099734Y0099468D01*
X0099000Y0099101D01*
X0099000Y0100202D01*
X0100468Y0100202D01*
X0101210Y0099468D02*
X0101210Y0098367D01*
X0101577Y0098000D01*
X0102678Y0098000D01*
X0102678Y0099468D01*
X0103420Y0099101D02*
X0104154Y0099101D01*
X0103420Y0100202D02*
X0104888Y0100202D01*
X0103420Y0100202D02*
X0103420Y0098000D01*
X0108498Y0097391D02*
X0109599Y0096290D01*
X0109599Y0097758D01*
X0110700Y0097391D02*
X0108498Y0097391D01*
X0108498Y0094814D02*
X0110700Y0094814D01*
X0110700Y0094080D02*
X0110700Y0095548D01*
X0109232Y0094080D02*
X0108498Y0094814D01*
X0108865Y0093338D02*
X0108498Y0092971D01*
X0108498Y0092237D01*
X0108865Y0091870D01*
X0110333Y0091870D01*
X0110700Y0092237D01*
X0110700Y0092971D01*
X0110333Y0093338D01*
X0110194Y0104250D02*
X0110194Y0106452D01*
X0109460Y0105718D01*
X0108718Y0106085D02*
X0108351Y0106452D01*
X0107617Y0106452D01*
X0107250Y0106085D01*
X0107250Y0104617D01*
X0107617Y0104250D01*
X0108351Y0104250D01*
X0108718Y0104617D01*
X0109460Y0104250D02*
X0110928Y0104250D01*
X0111670Y0104250D02*
X0113138Y0105718D01*
X0113138Y0106085D01*
X0112771Y0106452D01*
X0112037Y0106452D01*
X0111670Y0106085D01*
X0111670Y0104250D02*
X0113138Y0104250D01*
X0147056Y0082467D02*
X0147422Y0082467D01*
X0147422Y0082100D01*
X0147056Y0082100D01*
X0147056Y0082467D01*
X0148160Y0082467D02*
X0149628Y0083935D01*
X0149628Y0082467D01*
X0149261Y0082100D01*
X0148527Y0082100D01*
X0148160Y0082467D01*
X0148160Y0083935D01*
X0148527Y0084302D01*
X0149261Y0084302D01*
X0149628Y0083935D01*
X0150370Y0083568D02*
X0151104Y0084302D01*
X0151104Y0082100D01*
X0150370Y0082100D02*
X0151838Y0082100D01*
X0152580Y0082467D02*
X0152947Y0082100D01*
X0154048Y0082100D01*
X0154048Y0083568D01*
X0154790Y0083201D02*
X0155524Y0083201D01*
X0154790Y0084302D02*
X0156258Y0084302D01*
X0154790Y0084302D02*
X0154790Y0082100D01*
X0152580Y0082467D02*
X0152580Y0083568D01*
X0153314Y0077302D02*
X0153314Y0075100D01*
X0152580Y0075100D02*
X0154048Y0075100D01*
X0154790Y0075467D02*
X0155157Y0075100D01*
X0155891Y0075100D01*
X0156258Y0075467D01*
X0156258Y0075834D01*
X0155891Y0076201D01*
X0154790Y0076201D01*
X0154790Y0075467D01*
X0154790Y0076201D02*
X0155524Y0076935D01*
X0156258Y0077302D01*
X0153314Y0077302D02*
X0152580Y0076568D01*
X0151838Y0076935D02*
X0151471Y0077302D01*
X0150737Y0077302D01*
X0150370Y0076935D01*
X0150370Y0075467D01*
X0150737Y0075100D01*
X0151471Y0075100D01*
X0151838Y0075467D01*
X0111178Y0076202D02*
X0109710Y0074734D01*
X0110077Y0075101D02*
X0111178Y0074000D01*
X0109710Y0074000D02*
X0109710Y0076202D01*
X0108234Y0076202D02*
X0108234Y0074000D01*
X0107500Y0074000D02*
X0108968Y0074000D01*
X0107500Y0075468D02*
X0108234Y0076202D01*
X0104888Y0072202D02*
X0104154Y0071835D01*
X0103420Y0071101D01*
X0104521Y0071101D01*
X0104888Y0070734D01*
X0104888Y0070367D01*
X0104521Y0070000D01*
X0103787Y0070000D01*
X0103420Y0070367D01*
X0103420Y0071101D01*
X0102678Y0070000D02*
X0101210Y0070000D01*
X0101944Y0070000D02*
X0101944Y0072202D01*
X0101210Y0071468D01*
X0100468Y0071835D02*
X0100468Y0071101D01*
X0100101Y0070734D01*
X0099000Y0070734D01*
X0099734Y0070734D02*
X0100468Y0070000D01*
X0099000Y0070000D02*
X0099000Y0072202D01*
X0100101Y0072202D01*
X0100468Y0071835D01*
X0094258Y0071802D02*
X0094258Y0070334D01*
X0093524Y0069600D01*
X0092790Y0070334D01*
X0092790Y0071802D01*
X0092048Y0071435D02*
X0091681Y0071802D01*
X0090947Y0071802D01*
X0090580Y0071435D01*
X0091314Y0070701D02*
X0091681Y0070701D01*
X0092048Y0070334D01*
X0092048Y0069967D01*
X0091681Y0069600D01*
X0090947Y0069600D01*
X0090580Y0069967D01*
X0089842Y0069967D02*
X0089842Y0069600D01*
X0089475Y0069600D01*
X0089475Y0069967D01*
X0089842Y0069967D01*
X0088733Y0069967D02*
X0088366Y0069600D01*
X0087632Y0069600D01*
X0087265Y0069967D01*
X0087999Y0070701D02*
X0088366Y0070701D01*
X0088733Y0070334D01*
X0088733Y0069967D01*
X0088366Y0070701D02*
X0088733Y0071068D01*
X0088733Y0071435D01*
X0088366Y0071802D01*
X0087632Y0071802D01*
X0087265Y0071435D01*
X0091681Y0070701D02*
X0092048Y0071068D01*
X0092048Y0071435D01*
X0155300Y0120067D02*
X0155667Y0119700D01*
X0156401Y0119700D01*
X0156768Y0120067D01*
X0156768Y0121902D01*
X0157510Y0121168D02*
X0158244Y0121902D01*
X0158244Y0119700D01*
X0157510Y0119700D02*
X0158978Y0119700D01*
X0155300Y0120067D02*
X0155300Y0121902D01*
X0176500Y0129367D02*
X0176867Y0129000D01*
X0177601Y0129000D01*
X0177968Y0129367D01*
X0178710Y0129367D02*
X0179077Y0129000D01*
X0179811Y0129000D01*
X0180178Y0129367D01*
X0180178Y0129734D01*
X0179811Y0130101D01*
X0178710Y0130101D01*
X0178710Y0129367D01*
X0178710Y0130101D02*
X0179444Y0130835D01*
X0180178Y0131202D01*
X0177968Y0130835D02*
X0177601Y0131202D01*
X0176867Y0131202D01*
X0176500Y0130835D01*
X0176500Y0129367D01*
X0181500Y0133367D02*
X0182968Y0134835D01*
X0182968Y0133367D01*
X0182601Y0133000D01*
X0181867Y0133000D01*
X0181500Y0133367D01*
X0181500Y0134835D01*
X0181867Y0135202D01*
X0182601Y0135202D01*
X0182968Y0134835D01*
X0183710Y0133367D02*
X0184077Y0133367D01*
X0184077Y0133000D01*
X0183710Y0133000D01*
X0183710Y0133367D01*
X0184815Y0133000D02*
X0186283Y0133000D01*
X0185549Y0133000D02*
X0185549Y0135202D01*
X0184815Y0134468D01*
X0187025Y0134468D02*
X0187025Y0133367D01*
X0187392Y0133000D01*
X0188493Y0133000D01*
X0188493Y0134468D01*
X0189235Y0134101D02*
X0189969Y0134101D01*
X0190702Y0135202D02*
X0189235Y0135202D01*
X0189235Y0133000D01*
X0183468Y0138367D02*
X0183101Y0138000D01*
X0182367Y0138000D01*
X0182000Y0138367D01*
X0183468Y0139835D01*
X0183468Y0138367D01*
X0183468Y0139835D02*
X0183101Y0140202D01*
X0182367Y0140202D01*
X0182000Y0139835D01*
X0182000Y0138367D01*
X0177178Y0142835D02*
X0175710Y0141367D01*
X0175710Y0141000D01*
X0174968Y0141000D02*
X0174234Y0141734D01*
X0174601Y0141734D02*
X0173500Y0141734D01*
X0173500Y0141000D02*
X0173500Y0143202D01*
X0174601Y0143202D01*
X0174968Y0142835D01*
X0174968Y0142101D01*
X0174601Y0141734D01*
X0175710Y0143202D02*
X0177178Y0143202D01*
X0177178Y0142835D01*
X0166300Y0155500D02*
X0166300Y0155867D01*
X0165933Y0155867D01*
X0165933Y0155500D01*
X0166300Y0155500D01*
X0166300Y0156605D02*
X0166300Y0158073D01*
X0166300Y0157339D02*
X0164098Y0157339D01*
X0164832Y0156605D01*
X0164832Y0158815D02*
X0165933Y0158815D01*
X0166300Y0159182D01*
X0166300Y0160283D01*
X0164832Y0160283D01*
X0165199Y0161025D02*
X0165199Y0161759D01*
X0164098Y0161025D02*
X0164098Y0162493D01*
X0164098Y0161025D02*
X0166300Y0161025D01*
X0159300Y0160178D02*
X0159300Y0158710D01*
X0157832Y0160178D01*
X0157465Y0160178D01*
X0157098Y0159811D01*
X0157098Y0159077D01*
X0157465Y0158710D01*
X0157465Y0157968D02*
X0157098Y0157601D01*
X0157098Y0156867D01*
X0157465Y0156500D01*
X0158933Y0156500D01*
X0159300Y0156867D01*
X0159300Y0157601D01*
X0158933Y0157968D01*
X0155800Y0158101D02*
X0155433Y0158468D01*
X0153965Y0158468D01*
X0155433Y0157000D01*
X0155800Y0157367D01*
X0155800Y0158101D01*
X0155433Y0157000D02*
X0153965Y0157000D01*
X0153598Y0157367D01*
X0153598Y0158101D01*
X0153965Y0158468D01*
X0149300Y0158811D02*
X0149300Y0158077D01*
X0148933Y0157710D01*
X0148199Y0157710D02*
X0147832Y0158444D01*
X0147832Y0158811D01*
X0148199Y0159178D01*
X0148933Y0159178D01*
X0149300Y0158811D01*
X0148199Y0157710D02*
X0147098Y0157710D01*
X0147098Y0159178D01*
X0147465Y0156968D02*
X0148199Y0156968D01*
X0148566Y0156601D01*
X0148566Y0155500D01*
X0148566Y0156234D02*
X0149300Y0156968D01*
X0149300Y0155500D02*
X0147098Y0155500D01*
X0147098Y0156601D01*
X0147465Y0156968D01*
X0219598Y0118021D02*
X0219598Y0117287D01*
X0219965Y0116920D01*
X0221433Y0116920D01*
X0219965Y0118388D01*
X0221433Y0118388D01*
X0221800Y0118021D01*
X0221800Y0117287D01*
X0221433Y0116920D01*
X0221800Y0116178D02*
X0221800Y0114710D01*
X0221800Y0115444D02*
X0219598Y0115444D01*
X0220332Y0114710D01*
X0219965Y0113968D02*
X0219598Y0113601D01*
X0219598Y0112867D01*
X0219965Y0112500D01*
X0221433Y0112500D01*
X0221800Y0112867D01*
X0221800Y0113601D01*
X0221433Y0113968D01*
X0219598Y0118021D02*
X0219965Y0118388D01*
X0228598Y0112154D02*
X0230800Y0112154D01*
X0230800Y0111420D02*
X0230800Y0112888D01*
X0229332Y0111420D02*
X0228598Y0112154D01*
X0228598Y0109944D02*
X0230800Y0109944D01*
X0230800Y0109210D02*
X0230800Y0110678D01*
X0229332Y0109210D02*
X0228598Y0109944D01*
X0228965Y0108468D02*
X0228598Y0108101D01*
X0228598Y0107367D01*
X0228965Y0107000D01*
X0230433Y0107000D01*
X0230800Y0107367D01*
X0230800Y0108101D01*
X0230433Y0108468D01*
X0239500Y0094202D02*
X0240601Y0094202D01*
X0240968Y0093835D01*
X0240968Y0093101D01*
X0240601Y0092734D01*
X0239500Y0092734D01*
X0240234Y0092734D02*
X0240968Y0092000D01*
X0241710Y0092000D02*
X0243178Y0092000D01*
X0242444Y0092000D02*
X0242444Y0094202D01*
X0241710Y0093468D01*
X0243920Y0093835D02*
X0244287Y0094202D01*
X0245021Y0094202D01*
X0245388Y0093835D01*
X0245388Y0093468D01*
X0245021Y0093101D01*
X0245388Y0092734D01*
X0245388Y0092367D01*
X0245021Y0092000D01*
X0244287Y0092000D01*
X0243920Y0092367D01*
X0244654Y0093101D02*
X0245021Y0093101D01*
X0250500Y0090335D02*
X0250867Y0090702D01*
X0251601Y0090702D01*
X0251968Y0090335D01*
X0250500Y0088867D01*
X0250867Y0088500D01*
X0251601Y0088500D01*
X0251968Y0088867D01*
X0251968Y0090335D01*
X0250500Y0090335D02*
X0250500Y0088867D01*
X0245388Y0084202D02*
X0243920Y0084202D01*
X0245388Y0084202D02*
X0245388Y0083835D01*
X0243920Y0082367D01*
X0243920Y0082000D01*
X0243178Y0082000D02*
X0241710Y0082000D01*
X0242444Y0082000D02*
X0242444Y0084202D01*
X0241710Y0083468D01*
X0240968Y0083835D02*
X0240601Y0084202D01*
X0239867Y0084202D01*
X0239500Y0083835D01*
X0239500Y0082367D01*
X0239867Y0082000D01*
X0240601Y0082000D01*
X0240968Y0082367D01*
X0241339Y0077202D02*
X0241339Y0075000D01*
X0240605Y0075000D02*
X0242073Y0075000D01*
X0242815Y0075367D02*
X0243182Y0075000D01*
X0244283Y0075000D01*
X0244283Y0076468D01*
X0245025Y0076101D02*
X0245759Y0076101D01*
X0245025Y0077202D02*
X0246493Y0077202D01*
X0245025Y0077202D02*
X0245025Y0075000D01*
X0242815Y0075367D02*
X0242815Y0076468D01*
X0241339Y0077202D02*
X0240605Y0076468D01*
X0239867Y0075367D02*
X0239867Y0075000D01*
X0239500Y0075000D01*
X0239500Y0075367D01*
X0239867Y0075367D01*
X0254098Y0075420D02*
X0254098Y0076888D01*
X0254465Y0076888D01*
X0255933Y0075420D01*
X0256300Y0075420D01*
X0256300Y0074678D02*
X0256300Y0073210D01*
X0256300Y0073944D02*
X0254098Y0073944D01*
X0254832Y0073210D01*
X0254465Y0072468D02*
X0255199Y0072468D01*
X0255566Y0072101D01*
X0255566Y0071000D01*
X0255566Y0071734D02*
X0256300Y0072468D01*
X0256300Y0071000D02*
X0254098Y0071000D01*
X0254098Y0072101D01*
X0254465Y0072468D01*
X0254599Y0068258D02*
X0255333Y0068258D01*
X0255700Y0067891D01*
X0255700Y0067157D01*
X0255333Y0066790D01*
X0254599Y0066790D02*
X0254232Y0067524D01*
X0254232Y0067891D01*
X0254599Y0068258D01*
X0253498Y0068258D02*
X0253498Y0066790D01*
X0254599Y0066790D01*
X0253865Y0066048D02*
X0253498Y0065681D01*
X0253498Y0064580D01*
X0255700Y0064580D01*
X0255700Y0065681D01*
X0255333Y0066048D01*
X0253865Y0066048D01*
X0253498Y0063838D02*
X0253498Y0062370D01*
X0255700Y0062370D01*
X0255700Y0063838D01*
X0254599Y0063104D02*
X0254599Y0062370D01*
X0255700Y0061628D02*
X0255700Y0060160D01*
X0253498Y0060160D01*
X0256067Y0059418D02*
X0256067Y0057951D01*
X0255700Y0057209D02*
X0254966Y0056475D01*
X0254966Y0056842D02*
X0254966Y0055741D01*
X0255700Y0055741D02*
X0253498Y0055741D01*
X0253498Y0056842D01*
X0253865Y0057209D01*
X0254599Y0057209D01*
X0254966Y0056842D01*
X0255700Y0054999D02*
X0255700Y0053531D01*
X0253498Y0053531D01*
X0253498Y0054999D01*
X0254599Y0054265D02*
X0254599Y0053531D01*
X0254966Y0052789D02*
X0255333Y0052789D01*
X0255700Y0052422D01*
X0255700Y0051688D01*
X0255333Y0051321D01*
X0255333Y0050579D02*
X0253498Y0050579D01*
X0253865Y0051321D02*
X0254232Y0051321D01*
X0254599Y0051688D01*
X0254599Y0052422D01*
X0254966Y0052789D01*
X0253865Y0052789D02*
X0253498Y0052422D01*
X0253498Y0051688D01*
X0253865Y0051321D01*
X0255333Y0050579D02*
X0255700Y0050212D01*
X0255700Y0049478D01*
X0255333Y0049111D01*
X0253498Y0049111D01*
X0266498Y0049579D02*
X0268333Y0049579D01*
X0268700Y0049212D01*
X0268700Y0048478D01*
X0268333Y0048111D01*
X0266498Y0048111D01*
X0266865Y0050321D02*
X0266498Y0050688D01*
X0266498Y0051422D01*
X0266865Y0051789D01*
X0267599Y0051422D02*
X0267966Y0051789D01*
X0268333Y0051789D01*
X0268700Y0051422D01*
X0268700Y0050688D01*
X0268333Y0050321D01*
X0267599Y0050688D02*
X0267599Y0051422D01*
X0267599Y0050688D02*
X0267232Y0050321D01*
X0266865Y0050321D01*
X0266498Y0052531D02*
X0268700Y0052531D01*
X0268700Y0053999D01*
X0268700Y0054741D02*
X0266498Y0054741D01*
X0266498Y0055842D01*
X0266865Y0056209D01*
X0267599Y0056209D01*
X0267966Y0055842D01*
X0267966Y0054741D01*
X0267966Y0055475D02*
X0268700Y0056209D01*
X0269067Y0056951D02*
X0269067Y0058418D01*
X0268700Y0059160D02*
X0266498Y0059160D01*
X0268700Y0059160D02*
X0268700Y0060628D01*
X0268700Y0061370D02*
X0266498Y0061370D01*
X0266498Y0062838D01*
X0266498Y0063580D02*
X0266498Y0064681D01*
X0266865Y0065048D01*
X0268333Y0065048D01*
X0268700Y0064681D01*
X0268700Y0063580D01*
X0266498Y0063580D01*
X0267599Y0062104D02*
X0267599Y0061370D01*
X0268700Y0061370D02*
X0268700Y0062838D01*
X0268333Y0065790D02*
X0268700Y0066157D01*
X0268700Y0066891D01*
X0268333Y0067258D01*
X0267966Y0067258D01*
X0267599Y0066891D01*
X0267599Y0065790D01*
X0268333Y0065790D01*
X0267599Y0065790D02*
X0266865Y0066524D01*
X0266498Y0067258D01*
X0266598Y0070500D02*
X0266598Y0071601D01*
X0266965Y0071968D01*
X0267699Y0071968D01*
X0268066Y0071601D01*
X0268066Y0070500D01*
X0268066Y0071234D02*
X0268800Y0071968D01*
X0268800Y0072710D02*
X0268800Y0074178D01*
X0268800Y0073444D02*
X0266598Y0073444D01*
X0267332Y0072710D01*
X0267332Y0074920D02*
X0266965Y0074920D01*
X0266598Y0075287D01*
X0266598Y0076021D01*
X0266965Y0076388D01*
X0267332Y0076388D01*
X0267699Y0076021D01*
X0267699Y0075287D01*
X0267332Y0074920D01*
X0267699Y0075287D02*
X0268066Y0074920D01*
X0268433Y0074920D01*
X0268800Y0075287D01*
X0268800Y0076021D01*
X0268433Y0076388D01*
X0268066Y0076388D01*
X0267699Y0076021D01*
X0264800Y0078367D02*
X0264433Y0078000D01*
X0264800Y0078367D02*
X0264800Y0079101D01*
X0264433Y0079468D01*
X0264066Y0079468D01*
X0263699Y0079101D01*
X0263699Y0078734D01*
X0263699Y0079101D02*
X0263332Y0079468D01*
X0262965Y0079468D01*
X0262598Y0079101D01*
X0262598Y0078367D01*
X0262965Y0078000D01*
X0262965Y0080210D02*
X0262598Y0080577D01*
X0262598Y0081311D01*
X0262965Y0081678D01*
X0263332Y0081678D01*
X0263699Y0081311D01*
X0264066Y0081678D01*
X0264433Y0081678D01*
X0264800Y0081311D01*
X0264800Y0080577D01*
X0264433Y0080210D01*
X0263699Y0080944D02*
X0263699Y0081311D01*
X0262965Y0082420D02*
X0262598Y0082787D01*
X0262598Y0083521D01*
X0262965Y0083888D01*
X0264433Y0082420D01*
X0264800Y0082787D01*
X0264800Y0083521D01*
X0264433Y0083888D01*
X0262965Y0083888D01*
X0262965Y0082420D02*
X0264433Y0082420D01*
X0259800Y0081811D02*
X0259800Y0081077D01*
X0259433Y0080710D01*
X0259433Y0079968D02*
X0259800Y0079601D01*
X0259800Y0078867D01*
X0259433Y0078500D01*
X0258699Y0079234D02*
X0258699Y0079601D01*
X0259066Y0079968D01*
X0259433Y0079968D01*
X0258699Y0079601D02*
X0258332Y0079968D01*
X0257965Y0079968D01*
X0257598Y0079601D01*
X0257598Y0078867D01*
X0257965Y0078500D01*
X0257965Y0080710D02*
X0257598Y0081077D01*
X0257598Y0081811D01*
X0257965Y0082178D01*
X0258332Y0082178D01*
X0258699Y0081811D01*
X0259066Y0082178D01*
X0259433Y0082178D01*
X0259800Y0081811D01*
X0258699Y0081811D02*
X0258699Y0081444D01*
X0257965Y0082920D02*
X0257598Y0083287D01*
X0257598Y0084021D01*
X0257965Y0084388D01*
X0259433Y0082920D01*
X0259800Y0083287D01*
X0259800Y0084021D01*
X0259433Y0084388D01*
X0257965Y0084388D01*
X0257965Y0082920D02*
X0259433Y0082920D01*
X0266598Y0070500D02*
X0268800Y0070500D01*
X0266498Y0053999D02*
X0266498Y0052531D01*
X0267599Y0052531D02*
X0267599Y0053265D01*
X0309580Y0059600D02*
X0311048Y0059600D01*
X0311790Y0059600D02*
X0311790Y0061802D01*
X0313258Y0059600D01*
X0313258Y0061802D01*
X0311048Y0061802D02*
X0309580Y0061802D01*
X0309580Y0059600D01*
X0309580Y0060701D02*
X0310314Y0060701D01*
X0319830Y0060217D02*
X0320197Y0059850D01*
X0320931Y0059850D01*
X0321298Y0060217D01*
X0322040Y0059850D02*
X0322040Y0062052D01*
X0321298Y0061685D02*
X0320931Y0062052D01*
X0320197Y0062052D01*
X0319830Y0061685D01*
X0319830Y0060217D01*
X0322040Y0060951D02*
X0323508Y0060951D01*
X0323508Y0062052D02*
X0323508Y0059850D01*
X0330080Y0060217D02*
X0330447Y0059850D01*
X0331181Y0059850D01*
X0331548Y0060217D01*
X0331548Y0060951D01*
X0331181Y0061318D01*
X0330814Y0061318D01*
X0330080Y0060951D01*
X0330080Y0062052D01*
X0331548Y0062052D01*
X0332290Y0062052D02*
X0332290Y0060584D01*
X0333024Y0059850D01*
X0333758Y0060584D01*
X0333758Y0062052D01*
X0337870Y0061685D02*
X0337870Y0060217D01*
X0338237Y0059850D01*
X0338971Y0059850D01*
X0339338Y0060217D01*
X0339338Y0060951D01*
X0338604Y0060951D01*
X0337870Y0061685D02*
X0338237Y0062052D01*
X0338971Y0062052D01*
X0339338Y0061685D01*
X0340080Y0062052D02*
X0341548Y0059850D01*
X0341548Y0062052D01*
X0342290Y0062052D02*
X0342290Y0059850D01*
X0343391Y0059850D01*
X0343758Y0060217D01*
X0343758Y0061685D01*
X0343391Y0062052D01*
X0342290Y0062052D01*
X0340080Y0062052D02*
X0340080Y0059850D01*
X0273788Y0096350D02*
X0272320Y0096350D01*
X0273788Y0097818D01*
X0273788Y0098185D01*
X0273421Y0098552D01*
X0272687Y0098552D01*
X0272320Y0098185D01*
X0271578Y0098185D02*
X0271211Y0098552D01*
X0270477Y0098552D01*
X0270110Y0098185D01*
X0270110Y0097818D01*
X0270477Y0097451D01*
X0271211Y0097451D01*
X0271578Y0097084D01*
X0271578Y0096717D01*
X0271211Y0096350D01*
X0270477Y0096350D01*
X0270110Y0096717D01*
X0269368Y0096717D02*
X0269368Y0098552D01*
X0267900Y0098552D02*
X0267900Y0096717D01*
X0268267Y0096350D01*
X0269001Y0096350D01*
X0269368Y0096717D01*
X0270844Y0095983D02*
X0270844Y0098919D01*
X0265050Y0103117D02*
X0264683Y0102750D01*
X0263215Y0104218D01*
X0264683Y0104218D01*
X0265050Y0103851D01*
X0265050Y0103117D01*
X0264683Y0102750D02*
X0263215Y0102750D01*
X0262848Y0103117D01*
X0262848Y0103851D01*
X0263215Y0104218D01*
X0264683Y0104960D02*
X0264683Y0105327D01*
X0265050Y0105327D01*
X0265050Y0104960D01*
X0264683Y0104960D01*
X0265050Y0106065D02*
X0265050Y0107533D01*
X0265050Y0106799D02*
X0262848Y0106799D01*
X0263582Y0106065D01*
X0263582Y0108275D02*
X0264683Y0108275D01*
X0265050Y0108642D01*
X0265050Y0109743D01*
X0263582Y0109743D01*
X0263949Y0110485D02*
X0263949Y0111219D01*
X0262848Y0111952D02*
X0262848Y0110485D01*
X0265050Y0110485D01*
X0266965Y0114000D02*
X0266598Y0114367D01*
X0266598Y0115101D01*
X0266965Y0115468D01*
X0266965Y0116210D02*
X0267332Y0116210D01*
X0267699Y0116577D01*
X0267699Y0117678D01*
X0266965Y0117678D02*
X0266598Y0117311D01*
X0266598Y0116577D01*
X0266965Y0116210D01*
X0266965Y0117678D02*
X0268433Y0117678D01*
X0268800Y0117311D01*
X0268800Y0116577D01*
X0268433Y0116210D01*
X0268433Y0115468D02*
X0268800Y0115101D01*
X0268800Y0114367D01*
X0268433Y0114000D01*
X0266965Y0114000D01*
X0260300Y0110170D02*
X0258098Y0110170D01*
X0258098Y0111638D01*
X0259199Y0110904D02*
X0259199Y0110170D01*
X0258832Y0109428D02*
X0260300Y0109428D01*
X0260300Y0108327D01*
X0259933Y0107960D01*
X0258832Y0107960D01*
X0260300Y0107218D02*
X0260300Y0105750D01*
X0260300Y0106484D02*
X0258098Y0106484D01*
X0258832Y0105750D01*
X0255933Y0114500D02*
X0254465Y0114500D01*
X0254098Y0114867D01*
X0254098Y0115601D01*
X0254465Y0115968D01*
X0254465Y0116710D02*
X0254832Y0116710D01*
X0255199Y0117077D01*
X0255199Y0117811D01*
X0255566Y0118178D01*
X0255933Y0118178D01*
X0256300Y0117811D01*
X0256300Y0117077D01*
X0255933Y0116710D01*
X0255566Y0116710D01*
X0255199Y0117077D01*
X0255199Y0117811D02*
X0254832Y0118178D01*
X0254465Y0118178D01*
X0254098Y0117811D01*
X0254098Y0117077D01*
X0254465Y0116710D01*
X0255933Y0115968D02*
X0256300Y0115601D01*
X0256300Y0114867D01*
X0255933Y0114500D01*
X0250311Y0123500D02*
X0250678Y0123867D01*
X0250678Y0125335D01*
X0250311Y0125702D01*
X0249577Y0125702D01*
X0249210Y0125335D01*
X0249210Y0124968D01*
X0249577Y0124601D01*
X0250678Y0124601D01*
X0250311Y0123500D02*
X0249577Y0123500D01*
X0249210Y0123867D01*
X0248468Y0123500D02*
X0247734Y0124234D01*
X0248101Y0124234D02*
X0247000Y0124234D01*
X0247000Y0123500D02*
X0247000Y0125702D01*
X0248101Y0125702D01*
X0248468Y0125335D01*
X0248468Y0124601D01*
X0248101Y0124234D01*
X0241641Y0129350D02*
X0241641Y0131552D01*
X0240540Y0130451D01*
X0242008Y0130451D01*
X0239798Y0129717D02*
X0239798Y0131185D01*
X0239431Y0131552D01*
X0238330Y0131552D01*
X0238330Y0129350D01*
X0239431Y0129350D01*
X0239798Y0129717D01*
X0237588Y0129350D02*
X0236120Y0129350D01*
X0236120Y0131552D01*
X0237588Y0131552D01*
X0236854Y0130451D02*
X0236120Y0130451D01*
X0235378Y0129350D02*
X0233910Y0129350D01*
X0233910Y0131552D01*
X0233168Y0128983D02*
X0231701Y0128983D01*
X0230959Y0129350D02*
X0230225Y0130084D01*
X0230592Y0130084D02*
X0229491Y0130084D01*
X0229491Y0129350D02*
X0229491Y0131552D01*
X0230592Y0131552D01*
X0230959Y0131185D01*
X0230959Y0130451D01*
X0230592Y0130084D01*
X0228749Y0129350D02*
X0227281Y0129350D01*
X0227281Y0131552D01*
X0228749Y0131552D01*
X0228015Y0130451D02*
X0227281Y0130451D01*
X0226539Y0130084D02*
X0226539Y0129717D01*
X0226172Y0129350D01*
X0225438Y0129350D01*
X0225071Y0129717D01*
X0224329Y0129717D02*
X0224329Y0131552D01*
X0225071Y0131185D02*
X0225071Y0130818D01*
X0225438Y0130451D01*
X0226172Y0130451D01*
X0226539Y0130084D01*
X0226539Y0131185D02*
X0226172Y0131552D01*
X0225438Y0131552D01*
X0225071Y0131185D01*
X0224329Y0129717D02*
X0223962Y0129350D01*
X0223228Y0129350D01*
X0222861Y0129717D01*
X0222861Y0131552D01*
X0223228Y0136600D02*
X0223962Y0136600D01*
X0224329Y0136967D01*
X0224329Y0138802D01*
X0225071Y0138435D02*
X0225071Y0138068D01*
X0225438Y0137701D01*
X0226172Y0137701D01*
X0226539Y0137334D01*
X0226539Y0136967D01*
X0226172Y0136600D01*
X0225438Y0136600D01*
X0225071Y0136967D01*
X0225071Y0138435D02*
X0225438Y0138802D01*
X0226172Y0138802D01*
X0226539Y0138435D01*
X0227281Y0138802D02*
X0227281Y0136600D01*
X0228749Y0136600D01*
X0229491Y0136600D02*
X0229491Y0138802D01*
X0230592Y0138802D01*
X0230959Y0138435D01*
X0230959Y0137701D01*
X0230592Y0137334D01*
X0229491Y0137334D01*
X0230225Y0137334D02*
X0230959Y0136600D01*
X0231701Y0136233D02*
X0233168Y0136233D01*
X0233910Y0136600D02*
X0235378Y0136600D01*
X0236120Y0136600D02*
X0237588Y0136600D01*
X0238330Y0136600D02*
X0238330Y0138802D01*
X0239431Y0138802D01*
X0239798Y0138435D01*
X0239798Y0136967D01*
X0239431Y0136600D01*
X0238330Y0136600D01*
X0236854Y0137701D02*
X0236120Y0137701D01*
X0236120Y0138802D02*
X0236120Y0136600D01*
X0236120Y0138802D02*
X0237588Y0138802D01*
X0240540Y0138435D02*
X0240907Y0138802D01*
X0241641Y0138802D01*
X0242008Y0138435D01*
X0242008Y0138068D01*
X0241641Y0137701D01*
X0242008Y0137334D01*
X0242008Y0136967D01*
X0241641Y0136600D01*
X0240907Y0136600D01*
X0240540Y0136967D01*
X0241274Y0137701D02*
X0241641Y0137701D01*
X0247500Y0137984D02*
X0248601Y0137984D01*
X0248968Y0138351D01*
X0248968Y0139085D01*
X0248601Y0139452D01*
X0247500Y0139452D01*
X0247500Y0137250D01*
X0248234Y0137984D02*
X0248968Y0137250D01*
X0249710Y0137617D02*
X0249710Y0137984D01*
X0250077Y0138351D01*
X0250811Y0138351D01*
X0251178Y0137984D01*
X0251178Y0137617D01*
X0250811Y0137250D01*
X0250077Y0137250D01*
X0249710Y0137617D01*
X0250077Y0138351D02*
X0249710Y0138718D01*
X0249710Y0139085D01*
X0250077Y0139452D01*
X0250811Y0139452D01*
X0251178Y0139085D01*
X0251178Y0138718D01*
X0250811Y0138351D01*
X0257250Y0134952D02*
X0257250Y0133851D01*
X0257984Y0134218D01*
X0258351Y0134218D01*
X0258718Y0133851D01*
X0258718Y0133117D01*
X0258351Y0132750D01*
X0257617Y0132750D01*
X0257250Y0133117D01*
X0257250Y0134952D02*
X0258718Y0134952D01*
X0259460Y0134585D02*
X0259827Y0134952D01*
X0260561Y0134952D01*
X0260928Y0134585D01*
X0259460Y0133117D01*
X0259827Y0132750D01*
X0260561Y0132750D01*
X0260928Y0133117D01*
X0260928Y0134585D01*
X0261670Y0134585D02*
X0262037Y0134952D01*
X0262771Y0134952D01*
X0263138Y0134585D01*
X0261670Y0133117D01*
X0262037Y0132750D01*
X0262771Y0132750D01*
X0263138Y0133117D01*
X0263138Y0134585D01*
X0261670Y0134585D02*
X0261670Y0133117D01*
X0259460Y0133117D02*
X0259460Y0134585D01*
X0259327Y0129702D02*
X0260061Y0129702D01*
X0260428Y0129335D01*
X0258960Y0127867D01*
X0259327Y0127500D01*
X0260061Y0127500D01*
X0260428Y0127867D01*
X0260428Y0129335D01*
X0261170Y0129335D02*
X0261537Y0129702D01*
X0262271Y0129702D01*
X0262638Y0129335D01*
X0261170Y0127867D01*
X0261537Y0127500D01*
X0262271Y0127500D01*
X0262638Y0127867D01*
X0262638Y0129335D01*
X0261170Y0129335D02*
X0261170Y0127867D01*
X0258960Y0127867D02*
X0258960Y0129335D01*
X0259327Y0129702D01*
X0258218Y0129702D02*
X0256750Y0129702D01*
X0256750Y0128601D01*
X0257484Y0128968D01*
X0257851Y0128968D01*
X0258218Y0128601D01*
X0258218Y0127867D01*
X0257851Y0127500D01*
X0257117Y0127500D01*
X0256750Y0127867D01*
X0233910Y0136600D02*
X0233910Y0138802D01*
X0228749Y0138802D02*
X0227281Y0138802D01*
X0227281Y0137701D02*
X0228015Y0137701D01*
X0223228Y0136600D02*
X0222861Y0136967D01*
X0222861Y0138802D01*
X0241080Y0155967D02*
X0241447Y0155600D01*
X0242181Y0155600D01*
X0242548Y0155967D01*
X0243290Y0155967D02*
X0243657Y0155600D01*
X0244391Y0155600D01*
X0244758Y0155967D01*
X0244758Y0156334D01*
X0244391Y0156701D01*
X0244024Y0156701D01*
X0244391Y0156701D02*
X0244758Y0157068D01*
X0244758Y0157435D01*
X0244391Y0157802D01*
X0243657Y0157802D01*
X0243290Y0157435D01*
X0242548Y0157435D02*
X0242181Y0157802D01*
X0241447Y0157802D01*
X0241080Y0157435D01*
X0241080Y0155967D01*
X0246056Y0153935D02*
X0246056Y0152467D01*
X0247523Y0153935D01*
X0247523Y0152467D01*
X0247156Y0152100D01*
X0246422Y0152100D01*
X0246056Y0152467D01*
X0246056Y0153935D02*
X0246422Y0154302D01*
X0247156Y0154302D01*
X0247523Y0153935D01*
X0248265Y0152467D02*
X0248632Y0152467D01*
X0248632Y0152100D01*
X0248265Y0152100D01*
X0248265Y0152467D01*
X0249370Y0152100D02*
X0250838Y0152100D01*
X0250104Y0152100D02*
X0250104Y0154302D01*
X0249370Y0153568D01*
X0251580Y0153568D02*
X0251580Y0152467D01*
X0251947Y0152100D01*
X0253048Y0152100D01*
X0253048Y0153568D01*
X0253790Y0153201D02*
X0254524Y0153201D01*
X0253790Y0154302D02*
X0255258Y0154302D01*
X0253790Y0154302D02*
X0253790Y0152100D01*
X0258844Y0187733D02*
X0258844Y0190669D01*
X0259211Y0190302D02*
X0259578Y0189935D01*
X0259211Y0190302D02*
X0258477Y0190302D01*
X0258110Y0189935D01*
X0258110Y0189568D01*
X0258477Y0189201D01*
X0259211Y0189201D01*
X0259578Y0188834D01*
X0259578Y0188467D01*
X0259211Y0188100D01*
X0258477Y0188100D01*
X0258110Y0188467D01*
X0257368Y0188467D02*
X0257368Y0190302D01*
X0255900Y0190302D02*
X0255900Y0188467D01*
X0256267Y0188100D01*
X0257001Y0188100D01*
X0257368Y0188467D01*
X0260320Y0188100D02*
X0261788Y0188100D01*
X0261054Y0188100D02*
X0261054Y0190302D01*
X0260320Y0189568D01*
X0239500Y0094202D02*
X0239500Y0092000D01*
X0215978Y0069035D02*
X0215611Y0069402D01*
X0214877Y0069402D01*
X0214510Y0069035D01*
X0213768Y0069402D02*
X0213768Y0067567D01*
X0213401Y0067200D01*
X0212667Y0067200D01*
X0212300Y0067567D01*
X0212300Y0069402D01*
X0214510Y0067200D02*
X0215978Y0068668D01*
X0215978Y0069035D01*
X0215978Y0067200D02*
X0214510Y0067200D01*
D12*
X0147236Y0054669D02*
X0144934Y0054669D01*
X0144166Y0053902D01*
X0144934Y0053135D01*
X0146468Y0053135D01*
X0147236Y0052367D01*
X0146468Y0051600D01*
X0144166Y0051600D01*
X0142632Y0051600D02*
X0142632Y0053902D01*
X0141864Y0054669D01*
X0139562Y0054669D01*
X0139562Y0051600D01*
X0138028Y0053135D02*
X0134959Y0053135D01*
X0134959Y0053902D02*
X0134959Y0052367D01*
X0135726Y0051600D01*
X0137260Y0051600D01*
X0138028Y0053135D02*
X0138028Y0053902D01*
X0137260Y0054669D01*
X0135726Y0054669D01*
X0134959Y0053902D01*
X0133424Y0054669D02*
X0131889Y0051600D01*
X0130355Y0054669D01*
X0128820Y0053902D02*
X0128820Y0053135D01*
X0125751Y0053135D01*
X0125751Y0053902D02*
X0125751Y0052367D01*
X0126518Y0051600D01*
X0128053Y0051600D01*
X0128820Y0053902D02*
X0128053Y0054669D01*
X0126518Y0054669D01*
X0125751Y0053902D01*
X0124216Y0054669D02*
X0122681Y0054669D01*
X0123449Y0055437D02*
X0123449Y0052367D01*
X0124216Y0051600D01*
X0121147Y0052367D02*
X0120379Y0051600D01*
X0118845Y0051600D01*
X0118077Y0052367D01*
X0118845Y0053902D02*
X0120379Y0053902D01*
X0121147Y0053135D01*
X0121147Y0052367D01*
X0118845Y0053902D02*
X0118077Y0054669D01*
X0118077Y0055437D01*
X0118845Y0056204D01*
X0120379Y0056204D01*
X0121147Y0055437D01*
X0111939Y0053902D02*
X0111939Y0051600D01*
X0109637Y0051600D01*
X0108870Y0052367D01*
X0109637Y0053135D01*
X0111939Y0053135D01*
X0111939Y0053902D02*
X0111172Y0054669D01*
X0109637Y0054669D01*
X0107335Y0054669D02*
X0107335Y0051600D01*
X0105033Y0051600D01*
X0104266Y0052367D01*
X0104266Y0054669D01*
X0102731Y0053902D02*
X0102731Y0051600D01*
X0102731Y0053902D02*
X0101964Y0054669D01*
X0100429Y0054669D01*
X0099662Y0053902D01*
X0098127Y0054669D02*
X0095825Y0054669D01*
X0095058Y0053902D01*
X0095825Y0053135D01*
X0097360Y0053135D01*
X0098127Y0052367D01*
X0097360Y0051600D01*
X0095058Y0051600D01*
X0093523Y0052367D02*
X0093523Y0053902D01*
X0092756Y0054669D01*
X0091221Y0054669D01*
X0090454Y0053902D01*
X0090454Y0052367D01*
X0091221Y0051600D01*
X0092756Y0051600D01*
X0093523Y0052367D01*
X0088152Y0052367D02*
X0088152Y0056204D01*
X0087385Y0056204D02*
X0088919Y0056204D01*
X0088152Y0052367D02*
X0087385Y0051600D01*
X0086617Y0051600D01*
X0085850Y0052367D01*
X0099662Y0051600D02*
X0099662Y0056204D01*
D13*
X0145830Y0118250D02*
X0148966Y0121386D01*
X0148966Y0119818D02*
X0145830Y0119818D01*
X0145830Y0121386D02*
X0148966Y0118250D01*
X0147398Y0118250D02*
X0147398Y0121386D01*
X0203750Y0095470D02*
X0206886Y0092334D01*
X0206886Y0093902D02*
X0203750Y0093902D01*
X0203750Y0092334D02*
X0206886Y0095470D01*
X0205318Y0095470D02*
X0205318Y0092334D01*
X0218050Y0119050D02*
X0218050Y0121952D01*
X0219501Y0121952D01*
X0219985Y0121469D01*
X0219985Y0120501D01*
X0219501Y0120017D01*
X0218050Y0120017D01*
X0220997Y0119050D02*
X0221964Y0119050D01*
X0221480Y0119050D02*
X0221480Y0120985D01*
X0220997Y0120985D01*
X0221480Y0121952D02*
X0221480Y0122436D01*
X0222961Y0120501D02*
X0222961Y0119534D01*
X0223445Y0119050D01*
X0224412Y0119050D01*
X0224896Y0119534D01*
X0224896Y0120501D01*
X0224412Y0120985D01*
X0223445Y0120985D01*
X0222961Y0120501D01*
X0225907Y0119050D02*
X0226875Y0119050D01*
X0226391Y0119050D02*
X0226391Y0121952D01*
X0225907Y0121952D01*
X0227872Y0120985D02*
X0228839Y0120985D01*
X0228355Y0121469D02*
X0228355Y0119534D01*
X0228839Y0119050D01*
X0225394Y0133550D02*
X0225878Y0134034D01*
X0225394Y0133550D02*
X0224427Y0133550D01*
X0223943Y0134034D01*
X0223943Y0135969D01*
X0224427Y0136452D01*
X0225394Y0136452D01*
X0225878Y0135969D01*
X0222931Y0135969D02*
X0222931Y0134034D01*
X0222448Y0133550D01*
X0220997Y0133550D01*
X0220997Y0136452D01*
X0222448Y0136452D01*
X0222931Y0135969D01*
X0219985Y0135485D02*
X0219985Y0133550D01*
X0219985Y0135001D02*
X0218050Y0135001D01*
X0218050Y0135485D02*
X0218050Y0133550D01*
X0218050Y0135485D02*
X0219017Y0136452D01*
X0219985Y0135485D01*
X0219501Y0144050D02*
X0219985Y0144534D01*
X0219985Y0146952D01*
X0220997Y0146469D02*
X0220997Y0145985D01*
X0221480Y0145501D01*
X0222448Y0145501D01*
X0222931Y0145017D01*
X0222931Y0144534D01*
X0222448Y0144050D01*
X0221480Y0144050D01*
X0220997Y0144534D01*
X0219501Y0144050D02*
X0218534Y0144050D01*
X0218050Y0144534D01*
X0218050Y0146952D01*
X0220997Y0146469D02*
X0221480Y0146952D01*
X0222448Y0146952D01*
X0222931Y0146469D01*
X0222464Y0154050D02*
X0221497Y0154050D01*
X0221980Y0154050D02*
X0221980Y0155985D01*
X0221497Y0155985D01*
X0221980Y0156952D02*
X0221980Y0157436D01*
X0223461Y0155501D02*
X0223945Y0155985D01*
X0225396Y0155985D01*
X0225396Y0156952D02*
X0225396Y0154050D01*
X0223945Y0154050D01*
X0223461Y0154534D01*
X0223461Y0155501D01*
X0226407Y0154534D02*
X0226891Y0155017D01*
X0228342Y0155017D01*
X0228342Y0155501D02*
X0228342Y0154050D01*
X0226891Y0154050D01*
X0226407Y0154534D01*
X0226891Y0155985D02*
X0227859Y0155985D01*
X0228342Y0155501D01*
X0229354Y0155017D02*
X0230321Y0155985D01*
X0230805Y0155985D01*
X0229354Y0155985D02*
X0229354Y0154050D01*
X0220485Y0154050D02*
X0218550Y0154050D01*
X0218550Y0156952D01*
X0260834Y0186914D02*
X0263970Y0190050D01*
X0263970Y0188482D02*
X0260834Y0188482D01*
X0260834Y0190050D02*
X0263970Y0186914D01*
X0262402Y0186914D02*
X0262402Y0190050D01*
X0297414Y0102966D02*
X0300550Y0099830D01*
X0300550Y0101398D02*
X0297414Y0101398D01*
X0297414Y0099830D02*
X0300550Y0102966D01*
X0298982Y0102966D02*
X0298982Y0099830D01*
D14*
X0118400Y0108900D02*
X0110900Y0108900D01*
X0110900Y0178900D01*
X0118400Y0178900D01*
X0118400Y0108900D01*
X0110900Y0108900D02*
X0093400Y0108900D01*
X0093400Y0178900D01*
X0110900Y0178900D01*
X0067900Y0091900D02*
X0055400Y0091900D01*
X0055400Y0088400D01*
X0030900Y0088400D01*
X0029500Y0087100D01*
X0023900Y0086900D02*
X0021900Y0085900D01*
X0021900Y0082100D01*
X0021900Y0081700D01*
X0021900Y0082100D02*
X0021900Y0077900D01*
X0023900Y0076900D01*
X0055400Y0076900D01*
X0055400Y0071900D01*
X0067900Y0071900D01*
X0067900Y0074400D01*
X0065400Y0074400D01*
X0065400Y0079400D01*
X0067900Y0079400D01*
X0067900Y0084400D01*
X0065400Y0084400D01*
X0065400Y0089400D01*
X0067900Y0089400D01*
X0067900Y0091900D01*
X0055400Y0088400D02*
X0055400Y0076900D01*
X0055400Y0075400D02*
X0030900Y0075400D01*
X0029500Y0076700D01*
X0023900Y0086900D02*
X0055400Y0086900D01*
D15*
X0090809Y0081876D03*
X0090809Y0078924D03*
X0090809Y0076376D03*
X0090809Y0073424D03*
X0236559Y0125674D03*
X0236559Y0128626D03*
X0236809Y0132424D03*
X0236809Y0135376D03*
X0071809Y0188424D03*
X0071809Y0191376D03*
X0071809Y0193924D03*
X0071809Y0196876D03*
D16*
X0071809Y0195400D03*
X0071809Y0189900D03*
X0090809Y0080400D03*
X0090809Y0074900D03*
X0236559Y0127150D03*
X0236809Y0133900D03*
X0258900Y0060809D03*
X0263900Y0060809D03*
D17*
X0233200Y0071600D02*
X0233200Y0073700D01*
X0233200Y0071600D02*
X0231100Y0071600D01*
X0219600Y0069400D02*
X0219600Y0068400D01*
X0218100Y0068400D01*
X0218100Y0069400D01*
X0211700Y0071600D02*
X0209600Y0071600D01*
X0209600Y0073700D01*
X0235400Y0087800D02*
X0235400Y0089300D01*
X0236400Y0089300D02*
X0236400Y0087800D01*
X0235400Y0087800D01*
X0233200Y0093100D02*
X0233200Y0095200D01*
X0231100Y0095200D01*
X0211700Y0095200D02*
X0209600Y0095200D01*
X0209600Y0093100D01*
X0213900Y0119900D02*
X0198900Y0119900D01*
X0196400Y0122400D01*
X0196400Y0127400D01*
X0198900Y0129900D01*
X0196400Y0132400D01*
X0196400Y0137400D01*
X0198900Y0139900D01*
X0196400Y0142400D01*
X0196400Y0147400D01*
X0198900Y0149900D01*
X0196400Y0152400D01*
X0196400Y0157400D01*
X0198900Y0159900D01*
X0213900Y0159900D01*
X0216400Y0157400D01*
X0216400Y0152400D01*
X0213900Y0149900D01*
X0216400Y0147400D01*
X0216400Y0142400D01*
X0213900Y0139900D01*
X0216400Y0137400D01*
X0216400Y0132400D01*
X0213900Y0129900D01*
X0216400Y0127400D01*
X0216400Y0122400D01*
X0213900Y0119900D01*
X0172900Y0132600D02*
X0172900Y0134100D01*
X0171900Y0134100D01*
X0171900Y0132600D02*
X0172900Y0132600D01*
X0169700Y0126200D02*
X0169700Y0124100D01*
X0167600Y0124100D01*
X0148200Y0124100D02*
X0146100Y0124100D01*
X0146100Y0126200D01*
X0146100Y0145600D02*
X0146100Y0147700D01*
X0148200Y0147700D01*
X0152000Y0149900D02*
X0153500Y0149900D01*
X0153500Y0150900D01*
X0152000Y0150900D01*
X0167600Y0147700D02*
X0169700Y0147700D01*
X0169700Y0145600D01*
X0236900Y0174200D02*
X0237900Y0174200D01*
X0236900Y0174200D02*
X0236900Y0175700D01*
X0237900Y0175700D01*
X0240100Y0182200D02*
X0240100Y0184200D01*
X0242100Y0184200D01*
X0261700Y0184200D02*
X0263700Y0184200D01*
X0263700Y0182200D01*
X0263700Y0162600D02*
X0263700Y0160600D01*
X0261700Y0160600D01*
X0257800Y0158400D02*
X0256300Y0158400D01*
X0256300Y0157400D01*
X0257800Y0157400D01*
X0242100Y0160600D02*
X0240100Y0160600D01*
X0240100Y0162600D01*
X0284700Y0126900D02*
X0284700Y0125900D01*
X0284700Y0126900D02*
X0286200Y0126900D01*
X0286200Y0125900D01*
X0292700Y0123700D02*
X0294700Y0123700D01*
X0294700Y0121700D01*
X0306400Y0124900D02*
X0308900Y0122400D01*
X0313900Y0122400D01*
X0316400Y0124900D01*
X0318900Y0122400D01*
X0323900Y0122400D01*
X0326400Y0124900D01*
X0328900Y0122400D01*
X0333900Y0122400D01*
X0336400Y0124900D01*
X0338900Y0122400D01*
X0343900Y0122400D01*
X0346400Y0124900D01*
X0346400Y0129900D01*
X0343900Y0132400D01*
X0338900Y0132400D01*
X0336400Y0129900D01*
X0333900Y0132400D01*
X0328900Y0132400D01*
X0326400Y0129900D01*
X0323900Y0132400D01*
X0318900Y0132400D01*
X0316400Y0129900D01*
X0313900Y0132400D01*
X0308900Y0132400D01*
X0306400Y0129900D01*
X0306400Y0124900D01*
X0308900Y0117900D02*
X0313900Y0117900D01*
X0316400Y0115400D01*
X0318900Y0117900D01*
X0323900Y0117900D01*
X0326400Y0115400D01*
X0328900Y0117900D01*
X0333900Y0117900D01*
X0336400Y0115400D01*
X0338900Y0117900D01*
X0343900Y0117900D01*
X0346400Y0115400D01*
X0346400Y0110400D01*
X0343900Y0107900D01*
X0338900Y0107900D01*
X0336400Y0110400D01*
X0333900Y0107900D01*
X0328900Y0107900D01*
X0326400Y0110400D01*
X0323900Y0107900D01*
X0318900Y0107900D01*
X0316400Y0110400D01*
X0313900Y0107900D01*
X0308900Y0107900D01*
X0306400Y0110400D01*
X0306400Y0115400D01*
X0308900Y0117900D01*
X0308900Y0103400D02*
X0313900Y0103400D01*
X0316400Y0100900D01*
X0318900Y0103400D01*
X0323900Y0103400D01*
X0326400Y0100900D01*
X0328900Y0103400D01*
X0333900Y0103400D01*
X0336400Y0100900D01*
X0338900Y0103400D01*
X0343900Y0103400D01*
X0346400Y0100900D01*
X0346400Y0095900D01*
X0343900Y0093400D01*
X0338900Y0093400D01*
X0336400Y0095900D01*
X0333900Y0093400D01*
X0328900Y0093400D01*
X0326400Y0095900D01*
X0323900Y0093400D01*
X0318900Y0093400D01*
X0316400Y0095900D01*
X0313900Y0093400D01*
X0308900Y0093400D01*
X0306400Y0095900D01*
X0306400Y0100900D01*
X0308900Y0103400D01*
X0294700Y0102100D02*
X0294700Y0100100D01*
X0292700Y0100100D01*
X0306400Y0086400D02*
X0308900Y0088900D01*
X0313900Y0088900D01*
X0316400Y0086400D01*
X0318900Y0088900D01*
X0323900Y0088900D01*
X0326400Y0086400D01*
X0328900Y0088900D01*
X0333900Y0088900D01*
X0336400Y0086400D01*
X0338900Y0088900D01*
X0343900Y0088900D01*
X0346400Y0086400D01*
X0346400Y0081400D01*
X0343900Y0078900D01*
X0338900Y0078900D01*
X0336400Y0081400D01*
X0333900Y0078900D01*
X0328900Y0078900D01*
X0326400Y0081400D01*
X0323900Y0078900D01*
X0318900Y0078900D01*
X0316400Y0081400D01*
X0313900Y0078900D01*
X0308900Y0078900D01*
X0306400Y0081400D01*
X0306400Y0086400D01*
X0308900Y0074400D02*
X0313900Y0074400D01*
X0316400Y0071900D01*
X0318900Y0074400D01*
X0323900Y0074400D01*
X0326400Y0071900D01*
X0328900Y0074400D01*
X0333900Y0074400D01*
X0336400Y0071900D01*
X0338900Y0074400D01*
X0343900Y0074400D01*
X0346400Y0071900D01*
X0346400Y0066900D01*
X0343900Y0064400D01*
X0338900Y0064400D01*
X0336400Y0066900D01*
X0333900Y0064400D01*
X0328900Y0064400D01*
X0326400Y0066900D01*
X0323900Y0064400D01*
X0318900Y0064400D01*
X0316400Y0066900D01*
X0313900Y0064400D01*
X0308900Y0064400D01*
X0306400Y0066900D01*
X0306400Y0071900D01*
X0308900Y0074400D01*
X0273100Y0100100D02*
X0271100Y0100100D01*
X0271100Y0102100D01*
X0268900Y0106000D02*
X0268900Y0107500D01*
X0267900Y0107500D01*
X0267900Y0106000D01*
X0271100Y0121700D02*
X0271100Y0123700D01*
X0273100Y0123700D01*
X0306400Y0139400D02*
X0308900Y0136900D01*
X0313900Y0136900D01*
X0316400Y0139400D01*
X0318900Y0136900D01*
X0323900Y0136900D01*
X0326400Y0139400D01*
X0328900Y0136900D01*
X0333900Y0136900D01*
X0336400Y0139400D01*
X0338900Y0136900D01*
X0343900Y0136900D01*
X0346400Y0139400D01*
X0346400Y0144400D01*
X0343900Y0146900D01*
X0338900Y0146900D01*
X0336400Y0144400D01*
X0333900Y0146900D01*
X0328900Y0146900D01*
X0326400Y0144400D01*
X0323900Y0146900D01*
X0318900Y0146900D01*
X0316400Y0144400D01*
X0313900Y0146900D01*
X0308900Y0146900D01*
X0306400Y0144400D01*
X0306400Y0139400D01*
X0308900Y0151400D02*
X0306400Y0153900D01*
X0306400Y0158900D01*
X0308900Y0161400D01*
X0313900Y0161400D01*
X0316400Y0158900D01*
X0318900Y0161400D01*
X0323900Y0161400D01*
X0326400Y0158900D01*
X0328900Y0161400D01*
X0333900Y0161400D01*
X0336400Y0158900D01*
X0338900Y0161400D01*
X0343900Y0161400D01*
X0346400Y0158900D01*
X0346400Y0153900D01*
X0343900Y0151400D01*
X0338900Y0151400D01*
X0336400Y0153900D01*
X0333900Y0151400D01*
X0328900Y0151400D01*
X0326400Y0153900D01*
X0323900Y0151400D01*
X0318900Y0151400D01*
X0316400Y0153900D01*
X0313900Y0151400D01*
X0308900Y0151400D01*
X0308900Y0165900D02*
X0306400Y0168400D01*
X0306400Y0173400D01*
X0308900Y0175900D01*
X0313900Y0175900D01*
X0316400Y0173400D01*
X0318900Y0175900D01*
X0323900Y0175900D01*
X0326400Y0173400D01*
X0328900Y0175900D01*
X0333900Y0175900D01*
X0336400Y0173400D01*
X0338900Y0175900D01*
X0343900Y0175900D01*
X0346400Y0173400D01*
X0346400Y0168400D01*
X0343900Y0165900D01*
X0338900Y0165900D01*
X0336400Y0168400D01*
X0333900Y0165900D01*
X0328900Y0165900D01*
X0326400Y0168400D01*
X0323900Y0165900D01*
X0318900Y0165900D01*
X0316400Y0168400D01*
X0313900Y0165900D01*
X0308900Y0165900D01*
X0308900Y0180400D02*
X0306400Y0182900D01*
X0306400Y0187900D01*
X0308900Y0190400D01*
X0313900Y0190400D01*
X0316400Y0187900D01*
X0318900Y0190400D01*
X0323900Y0190400D01*
X0326400Y0187900D01*
X0328900Y0190400D01*
X0333900Y0190400D01*
X0336400Y0187900D01*
X0338900Y0190400D01*
X0343900Y0190400D01*
X0346400Y0187900D01*
X0346400Y0182900D01*
X0343900Y0180400D01*
X0338900Y0180400D01*
X0336400Y0182900D01*
X0333900Y0180400D01*
X0328900Y0180400D01*
X0326400Y0182900D01*
X0323900Y0180400D01*
X0318900Y0180400D01*
X0316400Y0182900D01*
X0313900Y0180400D01*
X0308900Y0180400D01*
X0308900Y0194900D02*
X0306400Y0197400D01*
X0306400Y0202400D01*
X0308900Y0204900D01*
X0313900Y0204900D01*
X0316400Y0202400D01*
X0318900Y0204900D01*
X0323900Y0204900D01*
X0326400Y0202400D01*
X0328900Y0204900D01*
X0333900Y0204900D01*
X0336400Y0202400D01*
X0338900Y0204900D01*
X0343900Y0204900D01*
X0346400Y0202400D01*
X0346400Y0197400D01*
X0343900Y0194900D01*
X0338900Y0194900D01*
X0336400Y0197400D01*
X0333900Y0194900D01*
X0328900Y0194900D01*
X0326400Y0197400D01*
X0323900Y0194900D01*
X0318900Y0194900D01*
X0316400Y0197400D01*
X0313900Y0194900D01*
X0308900Y0194900D01*
X0318399Y0220517D02*
X0318399Y0222785D01*
X0318399Y0224200D02*
X0317831Y0225334D01*
X0317831Y0225901D01*
X0318399Y0226469D01*
X0319533Y0226469D01*
X0320100Y0225901D01*
X0320100Y0224767D01*
X0319533Y0224200D01*
X0318399Y0224200D02*
X0316697Y0224200D01*
X0316697Y0226469D01*
X0316697Y0222218D02*
X0318399Y0220517D01*
X0320100Y0222218D02*
X0316697Y0222218D01*
X0318399Y0230517D02*
X0316697Y0232218D01*
X0320100Y0232218D01*
X0318399Y0232785D02*
X0318399Y0230517D01*
X0318399Y0234200D02*
X0318399Y0235901D01*
X0318966Y0236469D01*
X0319533Y0236469D01*
X0320100Y0235901D01*
X0320100Y0234767D01*
X0319533Y0234200D01*
X0318399Y0234200D01*
X0317264Y0235334D01*
X0316697Y0236469D01*
X0103491Y0101498D02*
X0103491Y0101128D01*
X0103491Y0101498D02*
X0097309Y0101498D01*
X0097309Y0101128D01*
X0097309Y0097955D02*
X0097309Y0097585D01*
X0103491Y0097955D02*
X0103491Y0093845D01*
X0103491Y0090672D02*
X0103491Y0090302D01*
X0097309Y0090302D01*
X0097309Y0090672D01*
X0097309Y0093845D02*
X0097309Y0094215D01*
X0085100Y0044627D02*
X0085100Y0042358D01*
X0082831Y0044627D01*
X0082264Y0044627D01*
X0081697Y0044060D01*
X0081697Y0042926D01*
X0082264Y0042358D01*
X0085100Y0034627D02*
X0085100Y0032358D01*
X0085100Y0033493D02*
X0081697Y0033493D01*
X0082831Y0032358D01*
X0316697Y0032218D02*
X0318399Y0030517D01*
X0318399Y0032785D01*
X0318399Y0034200D02*
X0316697Y0034200D01*
X0316697Y0036469D01*
X0317831Y0035901D02*
X0317831Y0035334D01*
X0318399Y0034200D01*
X0319533Y0034200D02*
X0320100Y0034767D01*
X0320100Y0035901D01*
X0319533Y0036469D01*
X0318399Y0036469D01*
X0317831Y0035901D01*
X0318399Y0040517D02*
X0318399Y0042785D01*
X0318399Y0044200D02*
X0318399Y0045901D01*
X0318966Y0046469D01*
X0319533Y0046469D01*
X0320100Y0045901D01*
X0320100Y0044767D01*
X0319533Y0044200D01*
X0318399Y0044200D01*
X0317264Y0045334D01*
X0316697Y0046469D01*
X0316697Y0042218D02*
X0318399Y0040517D01*
X0320100Y0042218D02*
X0316697Y0042218D01*
X0316697Y0032218D02*
X0320100Y0032218D01*
X0085100Y0232358D02*
X0082831Y0234627D01*
X0082264Y0234627D01*
X0081697Y0234060D01*
X0081697Y0232926D01*
X0082264Y0232358D01*
X0085100Y0232358D02*
X0085100Y0234627D01*
D18*
X0190146Y0157402D02*
X0190897Y0158153D01*
X0191647Y0158153D01*
X0192398Y0157402D01*
X0192398Y0155901D01*
X0191647Y0155150D01*
X0190897Y0155150D01*
X0190146Y0155901D01*
X0190146Y0157402D01*
X0192398Y0157402D02*
X0193149Y0158153D01*
X0193899Y0158153D01*
X0194650Y0157402D01*
X0194650Y0155901D01*
X0193899Y0155150D01*
X0193149Y0155150D01*
X0192398Y0155901D01*
X0194650Y0136964D02*
X0194650Y0133962D01*
X0194650Y0135463D02*
X0190146Y0135463D01*
X0191647Y0133962D01*
X0194650Y0132360D02*
X0194650Y0129358D01*
X0194650Y0130859D02*
X0190146Y0130859D01*
X0191647Y0129358D01*
X0193149Y0127756D02*
X0190146Y0127756D01*
X0193149Y0127756D02*
X0194650Y0126255D01*
X0193149Y0124754D01*
X0190146Y0124754D01*
X0190897Y0123153D02*
X0190146Y0122402D01*
X0190146Y0120901D01*
X0190897Y0120150D01*
X0191647Y0120150D01*
X0192398Y0120901D01*
X0192398Y0122402D01*
X0193149Y0123153D01*
X0193899Y0123153D01*
X0194650Y0122402D01*
X0194650Y0120901D01*
X0193899Y0120150D01*
X0218146Y0124651D02*
X0222650Y0124651D01*
X0222650Y0123150D02*
X0222650Y0126153D01*
X0219647Y0123150D02*
X0218146Y0124651D01*
X0164400Y0108900D02*
X0164400Y0092900D01*
X0138400Y0092900D01*
X0138400Y0108900D01*
X0164400Y0108900D01*
X0161900Y0087900D02*
X0165400Y0083900D01*
X0157900Y0083900D01*
X0161400Y0087900D01*
X0301046Y0083902D02*
X0304049Y0083902D01*
X0303298Y0081650D02*
X0303298Y0086154D01*
X0301046Y0083902D01*
X0303298Y0071654D02*
X0301046Y0069402D01*
X0304049Y0069402D01*
X0303298Y0067150D02*
X0303298Y0071654D01*
X0303298Y0096150D02*
X0303298Y0100654D01*
X0301046Y0098402D01*
X0304049Y0098402D01*
X0303298Y0110650D02*
X0303298Y0115154D01*
X0301046Y0112902D01*
X0304049Y0112902D01*
X0303298Y0125150D02*
X0303298Y0129654D01*
X0301046Y0127402D01*
X0304049Y0127402D01*
X0303298Y0139650D02*
X0303298Y0144154D01*
X0301046Y0141902D01*
X0304049Y0141902D01*
X0303298Y0154150D02*
X0303298Y0158654D01*
X0301046Y0156402D01*
X0304049Y0156402D01*
X0303298Y0168650D02*
X0303298Y0173154D01*
X0301046Y0170902D01*
X0304049Y0170902D01*
X0303298Y0183150D02*
X0303298Y0187654D01*
X0301046Y0185402D01*
X0304049Y0185402D01*
X0303298Y0197650D02*
X0303298Y0202154D01*
X0301046Y0199902D01*
X0304049Y0199902D01*
X0346546Y0200653D02*
X0348047Y0202154D01*
X0348047Y0197650D01*
X0346546Y0197650D02*
X0349549Y0197650D01*
X0348047Y0187654D02*
X0348047Y0183150D01*
X0346546Y0183150D02*
X0349549Y0183150D01*
X0346546Y0186153D02*
X0348047Y0187654D01*
X0348047Y0173154D02*
X0348047Y0168650D01*
X0346546Y0168650D02*
X0349549Y0168650D01*
X0346546Y0171653D02*
X0348047Y0173154D01*
X0348047Y0158654D02*
X0348047Y0154150D01*
X0346546Y0154150D02*
X0349549Y0154150D01*
X0346546Y0157153D02*
X0348047Y0158654D01*
X0348047Y0144154D02*
X0348047Y0139650D01*
X0346546Y0139650D02*
X0349549Y0139650D01*
X0346546Y0142653D02*
X0348047Y0144154D01*
X0348047Y0129654D02*
X0348047Y0125150D01*
X0346546Y0125150D02*
X0349549Y0125150D01*
X0346546Y0128153D02*
X0348047Y0129654D01*
X0348047Y0115154D02*
X0348047Y0110650D01*
X0346546Y0110650D02*
X0349549Y0110650D01*
X0346546Y0113653D02*
X0348047Y0115154D01*
X0348047Y0100654D02*
X0348047Y0096150D01*
X0346546Y0096150D02*
X0349549Y0096150D01*
X0346546Y0099153D02*
X0348047Y0100654D01*
X0348047Y0086154D02*
X0348047Y0081650D01*
X0346546Y0081650D02*
X0349549Y0081650D01*
X0346546Y0084653D02*
X0348047Y0086154D01*
X0348047Y0071654D02*
X0348047Y0067150D01*
X0346546Y0067150D02*
X0349549Y0067150D01*
X0346546Y0070153D02*
X0348047Y0071654D01*
D19*
X0321650Y0051400D02*
X0321652Y0051558D01*
X0321658Y0051715D01*
X0321668Y0051873D01*
X0321682Y0052030D01*
X0321700Y0052186D01*
X0321721Y0052343D01*
X0321747Y0052498D01*
X0321777Y0052653D01*
X0321810Y0052807D01*
X0321848Y0052960D01*
X0321889Y0053113D01*
X0321934Y0053264D01*
X0321983Y0053414D01*
X0322036Y0053562D01*
X0322092Y0053710D01*
X0322153Y0053855D01*
X0322216Y0054000D01*
X0322284Y0054142D01*
X0322355Y0054283D01*
X0322429Y0054422D01*
X0322507Y0054559D01*
X0322589Y0054694D01*
X0322673Y0054827D01*
X0322762Y0054958D01*
X0322853Y0055086D01*
X0322948Y0055213D01*
X0323045Y0055336D01*
X0323146Y0055458D01*
X0323250Y0055576D01*
X0323357Y0055692D01*
X0323467Y0055805D01*
X0323579Y0055916D01*
X0323695Y0056023D01*
X0323813Y0056128D01*
X0323933Y0056230D01*
X0324056Y0056328D01*
X0324182Y0056424D01*
X0324310Y0056516D01*
X0324440Y0056605D01*
X0324572Y0056691D01*
X0324707Y0056773D01*
X0324844Y0056852D01*
X0324982Y0056927D01*
X0325122Y0056999D01*
X0325265Y0057067D01*
X0325408Y0057132D01*
X0325554Y0057193D01*
X0325701Y0057250D01*
X0325849Y0057304D01*
X0325999Y0057354D01*
X0326149Y0057400D01*
X0326301Y0057442D01*
X0326454Y0057481D01*
X0326608Y0057515D01*
X0326763Y0057546D01*
X0326918Y0057572D01*
X0327074Y0057595D01*
X0327231Y0057614D01*
X0327388Y0057629D01*
X0327545Y0057640D01*
X0327703Y0057647D01*
X0327861Y0057650D01*
X0328018Y0057649D01*
X0328176Y0057644D01*
X0328333Y0057635D01*
X0328491Y0057622D01*
X0328647Y0057605D01*
X0328804Y0057584D01*
X0328959Y0057560D01*
X0329114Y0057531D01*
X0329269Y0057498D01*
X0329422Y0057462D01*
X0329575Y0057421D01*
X0329726Y0057377D01*
X0329876Y0057329D01*
X0330025Y0057278D01*
X0330173Y0057222D01*
X0330319Y0057163D01*
X0330464Y0057100D01*
X0330607Y0057033D01*
X0330748Y0056963D01*
X0330887Y0056890D01*
X0331025Y0056813D01*
X0331161Y0056732D01*
X0331294Y0056648D01*
X0331425Y0056561D01*
X0331554Y0056470D01*
X0331681Y0056376D01*
X0331806Y0056279D01*
X0331927Y0056179D01*
X0332047Y0056076D01*
X0332163Y0055970D01*
X0332277Y0055861D01*
X0332389Y0055749D01*
X0332497Y0055635D01*
X0332602Y0055517D01*
X0332705Y0055397D01*
X0332804Y0055275D01*
X0332900Y0055150D01*
X0332993Y0055022D01*
X0333083Y0054893D01*
X0333169Y0054761D01*
X0333253Y0054627D01*
X0333332Y0054491D01*
X0333409Y0054353D01*
X0333481Y0054213D01*
X0333550Y0054071D01*
X0333616Y0053928D01*
X0333678Y0053783D01*
X0333736Y0053636D01*
X0333791Y0053488D01*
X0333842Y0053339D01*
X0333889Y0053188D01*
X0333932Y0053037D01*
X0333971Y0052884D01*
X0334007Y0052730D01*
X0334038Y0052576D01*
X0334066Y0052421D01*
X0334090Y0052265D01*
X0334110Y0052108D01*
X0334126Y0051951D01*
X0334138Y0051794D01*
X0334146Y0051637D01*
X0334150Y0051479D01*
X0334150Y0051321D01*
X0334146Y0051163D01*
X0334138Y0051006D01*
X0334126Y0050849D01*
X0334110Y0050692D01*
X0334090Y0050535D01*
X0334066Y0050379D01*
X0334038Y0050224D01*
X0334007Y0050070D01*
X0333971Y0049916D01*
X0333932Y0049763D01*
X0333889Y0049612D01*
X0333842Y0049461D01*
X0333791Y0049312D01*
X0333736Y0049164D01*
X0333678Y0049017D01*
X0333616Y0048872D01*
X0333550Y0048729D01*
X0333481Y0048587D01*
X0333409Y0048447D01*
X0333332Y0048309D01*
X0333253Y0048173D01*
X0333169Y0048039D01*
X0333083Y0047907D01*
X0332993Y0047778D01*
X0332900Y0047650D01*
X0332804Y0047525D01*
X0332705Y0047403D01*
X0332602Y0047283D01*
X0332497Y0047165D01*
X0332389Y0047051D01*
X0332277Y0046939D01*
X0332163Y0046830D01*
X0332047Y0046724D01*
X0331927Y0046621D01*
X0331806Y0046521D01*
X0331681Y0046424D01*
X0331554Y0046330D01*
X0331425Y0046239D01*
X0331294Y0046152D01*
X0331161Y0046068D01*
X0331025Y0045987D01*
X0330887Y0045910D01*
X0330748Y0045837D01*
X0330607Y0045767D01*
X0330464Y0045700D01*
X0330319Y0045637D01*
X0330173Y0045578D01*
X0330025Y0045522D01*
X0329876Y0045471D01*
X0329726Y0045423D01*
X0329575Y0045379D01*
X0329422Y0045338D01*
X0329269Y0045302D01*
X0329114Y0045269D01*
X0328959Y0045240D01*
X0328804Y0045216D01*
X0328647Y0045195D01*
X0328491Y0045178D01*
X0328333Y0045165D01*
X0328176Y0045156D01*
X0328018Y0045151D01*
X0327861Y0045150D01*
X0327703Y0045153D01*
X0327545Y0045160D01*
X0327388Y0045171D01*
X0327231Y0045186D01*
X0327074Y0045205D01*
X0326918Y0045228D01*
X0326763Y0045254D01*
X0326608Y0045285D01*
X0326454Y0045319D01*
X0326301Y0045358D01*
X0326149Y0045400D01*
X0325999Y0045446D01*
X0325849Y0045496D01*
X0325701Y0045550D01*
X0325554Y0045607D01*
X0325408Y0045668D01*
X0325265Y0045733D01*
X0325122Y0045801D01*
X0324982Y0045873D01*
X0324844Y0045948D01*
X0324707Y0046027D01*
X0324572Y0046109D01*
X0324440Y0046195D01*
X0324310Y0046284D01*
X0324182Y0046376D01*
X0324056Y0046472D01*
X0323933Y0046570D01*
X0323813Y0046672D01*
X0323695Y0046777D01*
X0323579Y0046884D01*
X0323467Y0046995D01*
X0323357Y0047108D01*
X0323250Y0047224D01*
X0323146Y0047342D01*
X0323045Y0047464D01*
X0322948Y0047587D01*
X0322853Y0047714D01*
X0322762Y0047842D01*
X0322673Y0047973D01*
X0322589Y0048106D01*
X0322507Y0048241D01*
X0322429Y0048378D01*
X0322355Y0048517D01*
X0322284Y0048658D01*
X0322216Y0048800D01*
X0322153Y0048945D01*
X0322092Y0049090D01*
X0322036Y0049238D01*
X0321983Y0049386D01*
X0321934Y0049536D01*
X0321889Y0049687D01*
X0321848Y0049840D01*
X0321810Y0049993D01*
X0321777Y0050147D01*
X0321747Y0050302D01*
X0321721Y0050457D01*
X0321700Y0050614D01*
X0321682Y0050770D01*
X0321668Y0050927D01*
X0321658Y0051085D01*
X0321652Y0051242D01*
X0321650Y0051400D01*
X0321650Y0216400D02*
X0321652Y0216558D01*
X0321658Y0216715D01*
X0321668Y0216873D01*
X0321682Y0217030D01*
X0321700Y0217186D01*
X0321721Y0217343D01*
X0321747Y0217498D01*
X0321777Y0217653D01*
X0321810Y0217807D01*
X0321848Y0217960D01*
X0321889Y0218113D01*
X0321934Y0218264D01*
X0321983Y0218414D01*
X0322036Y0218562D01*
X0322092Y0218710D01*
X0322153Y0218855D01*
X0322216Y0219000D01*
X0322284Y0219142D01*
X0322355Y0219283D01*
X0322429Y0219422D01*
X0322507Y0219559D01*
X0322589Y0219694D01*
X0322673Y0219827D01*
X0322762Y0219958D01*
X0322853Y0220086D01*
X0322948Y0220213D01*
X0323045Y0220336D01*
X0323146Y0220458D01*
X0323250Y0220576D01*
X0323357Y0220692D01*
X0323467Y0220805D01*
X0323579Y0220916D01*
X0323695Y0221023D01*
X0323813Y0221128D01*
X0323933Y0221230D01*
X0324056Y0221328D01*
X0324182Y0221424D01*
X0324310Y0221516D01*
X0324440Y0221605D01*
X0324572Y0221691D01*
X0324707Y0221773D01*
X0324844Y0221852D01*
X0324982Y0221927D01*
X0325122Y0221999D01*
X0325265Y0222067D01*
X0325408Y0222132D01*
X0325554Y0222193D01*
X0325701Y0222250D01*
X0325849Y0222304D01*
X0325999Y0222354D01*
X0326149Y0222400D01*
X0326301Y0222442D01*
X0326454Y0222481D01*
X0326608Y0222515D01*
X0326763Y0222546D01*
X0326918Y0222572D01*
X0327074Y0222595D01*
X0327231Y0222614D01*
X0327388Y0222629D01*
X0327545Y0222640D01*
X0327703Y0222647D01*
X0327861Y0222650D01*
X0328018Y0222649D01*
X0328176Y0222644D01*
X0328333Y0222635D01*
X0328491Y0222622D01*
X0328647Y0222605D01*
X0328804Y0222584D01*
X0328959Y0222560D01*
X0329114Y0222531D01*
X0329269Y0222498D01*
X0329422Y0222462D01*
X0329575Y0222421D01*
X0329726Y0222377D01*
X0329876Y0222329D01*
X0330025Y0222278D01*
X0330173Y0222222D01*
X0330319Y0222163D01*
X0330464Y0222100D01*
X0330607Y0222033D01*
X0330748Y0221963D01*
X0330887Y0221890D01*
X0331025Y0221813D01*
X0331161Y0221732D01*
X0331294Y0221648D01*
X0331425Y0221561D01*
X0331554Y0221470D01*
X0331681Y0221376D01*
X0331806Y0221279D01*
X0331927Y0221179D01*
X0332047Y0221076D01*
X0332163Y0220970D01*
X0332277Y0220861D01*
X0332389Y0220749D01*
X0332497Y0220635D01*
X0332602Y0220517D01*
X0332705Y0220397D01*
X0332804Y0220275D01*
X0332900Y0220150D01*
X0332993Y0220022D01*
X0333083Y0219893D01*
X0333169Y0219761D01*
X0333253Y0219627D01*
X0333332Y0219491D01*
X0333409Y0219353D01*
X0333481Y0219213D01*
X0333550Y0219071D01*
X0333616Y0218928D01*
X0333678Y0218783D01*
X0333736Y0218636D01*
X0333791Y0218488D01*
X0333842Y0218339D01*
X0333889Y0218188D01*
X0333932Y0218037D01*
X0333971Y0217884D01*
X0334007Y0217730D01*
X0334038Y0217576D01*
X0334066Y0217421D01*
X0334090Y0217265D01*
X0334110Y0217108D01*
X0334126Y0216951D01*
X0334138Y0216794D01*
X0334146Y0216637D01*
X0334150Y0216479D01*
X0334150Y0216321D01*
X0334146Y0216163D01*
X0334138Y0216006D01*
X0334126Y0215849D01*
X0334110Y0215692D01*
X0334090Y0215535D01*
X0334066Y0215379D01*
X0334038Y0215224D01*
X0334007Y0215070D01*
X0333971Y0214916D01*
X0333932Y0214763D01*
X0333889Y0214612D01*
X0333842Y0214461D01*
X0333791Y0214312D01*
X0333736Y0214164D01*
X0333678Y0214017D01*
X0333616Y0213872D01*
X0333550Y0213729D01*
X0333481Y0213587D01*
X0333409Y0213447D01*
X0333332Y0213309D01*
X0333253Y0213173D01*
X0333169Y0213039D01*
X0333083Y0212907D01*
X0332993Y0212778D01*
X0332900Y0212650D01*
X0332804Y0212525D01*
X0332705Y0212403D01*
X0332602Y0212283D01*
X0332497Y0212165D01*
X0332389Y0212051D01*
X0332277Y0211939D01*
X0332163Y0211830D01*
X0332047Y0211724D01*
X0331927Y0211621D01*
X0331806Y0211521D01*
X0331681Y0211424D01*
X0331554Y0211330D01*
X0331425Y0211239D01*
X0331294Y0211152D01*
X0331161Y0211068D01*
X0331025Y0210987D01*
X0330887Y0210910D01*
X0330748Y0210837D01*
X0330607Y0210767D01*
X0330464Y0210700D01*
X0330319Y0210637D01*
X0330173Y0210578D01*
X0330025Y0210522D01*
X0329876Y0210471D01*
X0329726Y0210423D01*
X0329575Y0210379D01*
X0329422Y0210338D01*
X0329269Y0210302D01*
X0329114Y0210269D01*
X0328959Y0210240D01*
X0328804Y0210216D01*
X0328647Y0210195D01*
X0328491Y0210178D01*
X0328333Y0210165D01*
X0328176Y0210156D01*
X0328018Y0210151D01*
X0327861Y0210150D01*
X0327703Y0210153D01*
X0327545Y0210160D01*
X0327388Y0210171D01*
X0327231Y0210186D01*
X0327074Y0210205D01*
X0326918Y0210228D01*
X0326763Y0210254D01*
X0326608Y0210285D01*
X0326454Y0210319D01*
X0326301Y0210358D01*
X0326149Y0210400D01*
X0325999Y0210446D01*
X0325849Y0210496D01*
X0325701Y0210550D01*
X0325554Y0210607D01*
X0325408Y0210668D01*
X0325265Y0210733D01*
X0325122Y0210801D01*
X0324982Y0210873D01*
X0324844Y0210948D01*
X0324707Y0211027D01*
X0324572Y0211109D01*
X0324440Y0211195D01*
X0324310Y0211284D01*
X0324182Y0211376D01*
X0324056Y0211472D01*
X0323933Y0211570D01*
X0323813Y0211672D01*
X0323695Y0211777D01*
X0323579Y0211884D01*
X0323467Y0211995D01*
X0323357Y0212108D01*
X0323250Y0212224D01*
X0323146Y0212342D01*
X0323045Y0212464D01*
X0322948Y0212587D01*
X0322853Y0212714D01*
X0322762Y0212842D01*
X0322673Y0212973D01*
X0322589Y0213106D01*
X0322507Y0213241D01*
X0322429Y0213378D01*
X0322355Y0213517D01*
X0322284Y0213658D01*
X0322216Y0213800D01*
X0322153Y0213945D01*
X0322092Y0214090D01*
X0322036Y0214238D01*
X0321983Y0214386D01*
X0321934Y0214536D01*
X0321889Y0214687D01*
X0321848Y0214840D01*
X0321810Y0214993D01*
X0321777Y0215147D01*
X0321747Y0215302D01*
X0321721Y0215457D01*
X0321700Y0215614D01*
X0321682Y0215770D01*
X0321668Y0215927D01*
X0321658Y0216085D01*
X0321652Y0216242D01*
X0321650Y0216400D01*
X0061650Y0228900D02*
X0061652Y0229058D01*
X0061658Y0229215D01*
X0061668Y0229373D01*
X0061682Y0229530D01*
X0061700Y0229686D01*
X0061721Y0229843D01*
X0061747Y0229998D01*
X0061777Y0230153D01*
X0061810Y0230307D01*
X0061848Y0230460D01*
X0061889Y0230613D01*
X0061934Y0230764D01*
X0061983Y0230914D01*
X0062036Y0231062D01*
X0062092Y0231210D01*
X0062153Y0231355D01*
X0062216Y0231500D01*
X0062284Y0231642D01*
X0062355Y0231783D01*
X0062429Y0231922D01*
X0062507Y0232059D01*
X0062589Y0232194D01*
X0062673Y0232327D01*
X0062762Y0232458D01*
X0062853Y0232586D01*
X0062948Y0232713D01*
X0063045Y0232836D01*
X0063146Y0232958D01*
X0063250Y0233076D01*
X0063357Y0233192D01*
X0063467Y0233305D01*
X0063579Y0233416D01*
X0063695Y0233523D01*
X0063813Y0233628D01*
X0063933Y0233730D01*
X0064056Y0233828D01*
X0064182Y0233924D01*
X0064310Y0234016D01*
X0064440Y0234105D01*
X0064572Y0234191D01*
X0064707Y0234273D01*
X0064844Y0234352D01*
X0064982Y0234427D01*
X0065122Y0234499D01*
X0065265Y0234567D01*
X0065408Y0234632D01*
X0065554Y0234693D01*
X0065701Y0234750D01*
X0065849Y0234804D01*
X0065999Y0234854D01*
X0066149Y0234900D01*
X0066301Y0234942D01*
X0066454Y0234981D01*
X0066608Y0235015D01*
X0066763Y0235046D01*
X0066918Y0235072D01*
X0067074Y0235095D01*
X0067231Y0235114D01*
X0067388Y0235129D01*
X0067545Y0235140D01*
X0067703Y0235147D01*
X0067861Y0235150D01*
X0068018Y0235149D01*
X0068176Y0235144D01*
X0068333Y0235135D01*
X0068491Y0235122D01*
X0068647Y0235105D01*
X0068804Y0235084D01*
X0068959Y0235060D01*
X0069114Y0235031D01*
X0069269Y0234998D01*
X0069422Y0234962D01*
X0069575Y0234921D01*
X0069726Y0234877D01*
X0069876Y0234829D01*
X0070025Y0234778D01*
X0070173Y0234722D01*
X0070319Y0234663D01*
X0070464Y0234600D01*
X0070607Y0234533D01*
X0070748Y0234463D01*
X0070887Y0234390D01*
X0071025Y0234313D01*
X0071161Y0234232D01*
X0071294Y0234148D01*
X0071425Y0234061D01*
X0071554Y0233970D01*
X0071681Y0233876D01*
X0071806Y0233779D01*
X0071927Y0233679D01*
X0072047Y0233576D01*
X0072163Y0233470D01*
X0072277Y0233361D01*
X0072389Y0233249D01*
X0072497Y0233135D01*
X0072602Y0233017D01*
X0072705Y0232897D01*
X0072804Y0232775D01*
X0072900Y0232650D01*
X0072993Y0232522D01*
X0073083Y0232393D01*
X0073169Y0232261D01*
X0073253Y0232127D01*
X0073332Y0231991D01*
X0073409Y0231853D01*
X0073481Y0231713D01*
X0073550Y0231571D01*
X0073616Y0231428D01*
X0073678Y0231283D01*
X0073736Y0231136D01*
X0073791Y0230988D01*
X0073842Y0230839D01*
X0073889Y0230688D01*
X0073932Y0230537D01*
X0073971Y0230384D01*
X0074007Y0230230D01*
X0074038Y0230076D01*
X0074066Y0229921D01*
X0074090Y0229765D01*
X0074110Y0229608D01*
X0074126Y0229451D01*
X0074138Y0229294D01*
X0074146Y0229137D01*
X0074150Y0228979D01*
X0074150Y0228821D01*
X0074146Y0228663D01*
X0074138Y0228506D01*
X0074126Y0228349D01*
X0074110Y0228192D01*
X0074090Y0228035D01*
X0074066Y0227879D01*
X0074038Y0227724D01*
X0074007Y0227570D01*
X0073971Y0227416D01*
X0073932Y0227263D01*
X0073889Y0227112D01*
X0073842Y0226961D01*
X0073791Y0226812D01*
X0073736Y0226664D01*
X0073678Y0226517D01*
X0073616Y0226372D01*
X0073550Y0226229D01*
X0073481Y0226087D01*
X0073409Y0225947D01*
X0073332Y0225809D01*
X0073253Y0225673D01*
X0073169Y0225539D01*
X0073083Y0225407D01*
X0072993Y0225278D01*
X0072900Y0225150D01*
X0072804Y0225025D01*
X0072705Y0224903D01*
X0072602Y0224783D01*
X0072497Y0224665D01*
X0072389Y0224551D01*
X0072277Y0224439D01*
X0072163Y0224330D01*
X0072047Y0224224D01*
X0071927Y0224121D01*
X0071806Y0224021D01*
X0071681Y0223924D01*
X0071554Y0223830D01*
X0071425Y0223739D01*
X0071294Y0223652D01*
X0071161Y0223568D01*
X0071025Y0223487D01*
X0070887Y0223410D01*
X0070748Y0223337D01*
X0070607Y0223267D01*
X0070464Y0223200D01*
X0070319Y0223137D01*
X0070173Y0223078D01*
X0070025Y0223022D01*
X0069876Y0222971D01*
X0069726Y0222923D01*
X0069575Y0222879D01*
X0069422Y0222838D01*
X0069269Y0222802D01*
X0069114Y0222769D01*
X0068959Y0222740D01*
X0068804Y0222716D01*
X0068647Y0222695D01*
X0068491Y0222678D01*
X0068333Y0222665D01*
X0068176Y0222656D01*
X0068018Y0222651D01*
X0067861Y0222650D01*
X0067703Y0222653D01*
X0067545Y0222660D01*
X0067388Y0222671D01*
X0067231Y0222686D01*
X0067074Y0222705D01*
X0066918Y0222728D01*
X0066763Y0222754D01*
X0066608Y0222785D01*
X0066454Y0222819D01*
X0066301Y0222858D01*
X0066149Y0222900D01*
X0065999Y0222946D01*
X0065849Y0222996D01*
X0065701Y0223050D01*
X0065554Y0223107D01*
X0065408Y0223168D01*
X0065265Y0223233D01*
X0065122Y0223301D01*
X0064982Y0223373D01*
X0064844Y0223448D01*
X0064707Y0223527D01*
X0064572Y0223609D01*
X0064440Y0223695D01*
X0064310Y0223784D01*
X0064182Y0223876D01*
X0064056Y0223972D01*
X0063933Y0224070D01*
X0063813Y0224172D01*
X0063695Y0224277D01*
X0063579Y0224384D01*
X0063467Y0224495D01*
X0063357Y0224608D01*
X0063250Y0224724D01*
X0063146Y0224842D01*
X0063045Y0224964D01*
X0062948Y0225087D01*
X0062853Y0225214D01*
X0062762Y0225342D01*
X0062673Y0225473D01*
X0062589Y0225606D01*
X0062507Y0225741D01*
X0062429Y0225878D01*
X0062355Y0226017D01*
X0062284Y0226158D01*
X0062216Y0226300D01*
X0062153Y0226445D01*
X0062092Y0226590D01*
X0062036Y0226738D01*
X0061983Y0226886D01*
X0061934Y0227036D01*
X0061889Y0227187D01*
X0061848Y0227340D01*
X0061810Y0227493D01*
X0061777Y0227647D01*
X0061747Y0227802D01*
X0061721Y0227957D01*
X0061700Y0228114D01*
X0061682Y0228270D01*
X0061668Y0228427D01*
X0061658Y0228585D01*
X0061652Y0228742D01*
X0061650Y0228900D01*
X0061650Y0038900D02*
X0061652Y0039058D01*
X0061658Y0039215D01*
X0061668Y0039373D01*
X0061682Y0039530D01*
X0061700Y0039686D01*
X0061721Y0039843D01*
X0061747Y0039998D01*
X0061777Y0040153D01*
X0061810Y0040307D01*
X0061848Y0040460D01*
X0061889Y0040613D01*
X0061934Y0040764D01*
X0061983Y0040914D01*
X0062036Y0041062D01*
X0062092Y0041210D01*
X0062153Y0041355D01*
X0062216Y0041500D01*
X0062284Y0041642D01*
X0062355Y0041783D01*
X0062429Y0041922D01*
X0062507Y0042059D01*
X0062589Y0042194D01*
X0062673Y0042327D01*
X0062762Y0042458D01*
X0062853Y0042586D01*
X0062948Y0042713D01*
X0063045Y0042836D01*
X0063146Y0042958D01*
X0063250Y0043076D01*
X0063357Y0043192D01*
X0063467Y0043305D01*
X0063579Y0043416D01*
X0063695Y0043523D01*
X0063813Y0043628D01*
X0063933Y0043730D01*
X0064056Y0043828D01*
X0064182Y0043924D01*
X0064310Y0044016D01*
X0064440Y0044105D01*
X0064572Y0044191D01*
X0064707Y0044273D01*
X0064844Y0044352D01*
X0064982Y0044427D01*
X0065122Y0044499D01*
X0065265Y0044567D01*
X0065408Y0044632D01*
X0065554Y0044693D01*
X0065701Y0044750D01*
X0065849Y0044804D01*
X0065999Y0044854D01*
X0066149Y0044900D01*
X0066301Y0044942D01*
X0066454Y0044981D01*
X0066608Y0045015D01*
X0066763Y0045046D01*
X0066918Y0045072D01*
X0067074Y0045095D01*
X0067231Y0045114D01*
X0067388Y0045129D01*
X0067545Y0045140D01*
X0067703Y0045147D01*
X0067861Y0045150D01*
X0068018Y0045149D01*
X0068176Y0045144D01*
X0068333Y0045135D01*
X0068491Y0045122D01*
X0068647Y0045105D01*
X0068804Y0045084D01*
X0068959Y0045060D01*
X0069114Y0045031D01*
X0069269Y0044998D01*
X0069422Y0044962D01*
X0069575Y0044921D01*
X0069726Y0044877D01*
X0069876Y0044829D01*
X0070025Y0044778D01*
X0070173Y0044722D01*
X0070319Y0044663D01*
X0070464Y0044600D01*
X0070607Y0044533D01*
X0070748Y0044463D01*
X0070887Y0044390D01*
X0071025Y0044313D01*
X0071161Y0044232D01*
X0071294Y0044148D01*
X0071425Y0044061D01*
X0071554Y0043970D01*
X0071681Y0043876D01*
X0071806Y0043779D01*
X0071927Y0043679D01*
X0072047Y0043576D01*
X0072163Y0043470D01*
X0072277Y0043361D01*
X0072389Y0043249D01*
X0072497Y0043135D01*
X0072602Y0043017D01*
X0072705Y0042897D01*
X0072804Y0042775D01*
X0072900Y0042650D01*
X0072993Y0042522D01*
X0073083Y0042393D01*
X0073169Y0042261D01*
X0073253Y0042127D01*
X0073332Y0041991D01*
X0073409Y0041853D01*
X0073481Y0041713D01*
X0073550Y0041571D01*
X0073616Y0041428D01*
X0073678Y0041283D01*
X0073736Y0041136D01*
X0073791Y0040988D01*
X0073842Y0040839D01*
X0073889Y0040688D01*
X0073932Y0040537D01*
X0073971Y0040384D01*
X0074007Y0040230D01*
X0074038Y0040076D01*
X0074066Y0039921D01*
X0074090Y0039765D01*
X0074110Y0039608D01*
X0074126Y0039451D01*
X0074138Y0039294D01*
X0074146Y0039137D01*
X0074150Y0038979D01*
X0074150Y0038821D01*
X0074146Y0038663D01*
X0074138Y0038506D01*
X0074126Y0038349D01*
X0074110Y0038192D01*
X0074090Y0038035D01*
X0074066Y0037879D01*
X0074038Y0037724D01*
X0074007Y0037570D01*
X0073971Y0037416D01*
X0073932Y0037263D01*
X0073889Y0037112D01*
X0073842Y0036961D01*
X0073791Y0036812D01*
X0073736Y0036664D01*
X0073678Y0036517D01*
X0073616Y0036372D01*
X0073550Y0036229D01*
X0073481Y0036087D01*
X0073409Y0035947D01*
X0073332Y0035809D01*
X0073253Y0035673D01*
X0073169Y0035539D01*
X0073083Y0035407D01*
X0072993Y0035278D01*
X0072900Y0035150D01*
X0072804Y0035025D01*
X0072705Y0034903D01*
X0072602Y0034783D01*
X0072497Y0034665D01*
X0072389Y0034551D01*
X0072277Y0034439D01*
X0072163Y0034330D01*
X0072047Y0034224D01*
X0071927Y0034121D01*
X0071806Y0034021D01*
X0071681Y0033924D01*
X0071554Y0033830D01*
X0071425Y0033739D01*
X0071294Y0033652D01*
X0071161Y0033568D01*
X0071025Y0033487D01*
X0070887Y0033410D01*
X0070748Y0033337D01*
X0070607Y0033267D01*
X0070464Y0033200D01*
X0070319Y0033137D01*
X0070173Y0033078D01*
X0070025Y0033022D01*
X0069876Y0032971D01*
X0069726Y0032923D01*
X0069575Y0032879D01*
X0069422Y0032838D01*
X0069269Y0032802D01*
X0069114Y0032769D01*
X0068959Y0032740D01*
X0068804Y0032716D01*
X0068647Y0032695D01*
X0068491Y0032678D01*
X0068333Y0032665D01*
X0068176Y0032656D01*
X0068018Y0032651D01*
X0067861Y0032650D01*
X0067703Y0032653D01*
X0067545Y0032660D01*
X0067388Y0032671D01*
X0067231Y0032686D01*
X0067074Y0032705D01*
X0066918Y0032728D01*
X0066763Y0032754D01*
X0066608Y0032785D01*
X0066454Y0032819D01*
X0066301Y0032858D01*
X0066149Y0032900D01*
X0065999Y0032946D01*
X0065849Y0032996D01*
X0065701Y0033050D01*
X0065554Y0033107D01*
X0065408Y0033168D01*
X0065265Y0033233D01*
X0065122Y0033301D01*
X0064982Y0033373D01*
X0064844Y0033448D01*
X0064707Y0033527D01*
X0064572Y0033609D01*
X0064440Y0033695D01*
X0064310Y0033784D01*
X0064182Y0033876D01*
X0064056Y0033972D01*
X0063933Y0034070D01*
X0063813Y0034172D01*
X0063695Y0034277D01*
X0063579Y0034384D01*
X0063467Y0034495D01*
X0063357Y0034608D01*
X0063250Y0034724D01*
X0063146Y0034842D01*
X0063045Y0034964D01*
X0062948Y0035087D01*
X0062853Y0035214D01*
X0062762Y0035342D01*
X0062673Y0035473D01*
X0062589Y0035606D01*
X0062507Y0035741D01*
X0062429Y0035878D01*
X0062355Y0036017D01*
X0062284Y0036158D01*
X0062216Y0036300D01*
X0062153Y0036445D01*
X0062092Y0036590D01*
X0062036Y0036738D01*
X0061983Y0036886D01*
X0061934Y0037036D01*
X0061889Y0037187D01*
X0061848Y0037340D01*
X0061810Y0037493D01*
X0061777Y0037647D01*
X0061747Y0037802D01*
X0061721Y0037957D01*
X0061700Y0038114D01*
X0061682Y0038270D01*
X0061668Y0038427D01*
X0061658Y0038585D01*
X0061652Y0038742D01*
X0061650Y0038900D01*
D20*
X0060621Y0074156D02*
X0057752Y0074156D01*
X0059187Y0074156D02*
X0059187Y0078460D01*
X0057752Y0077025D01*
X0058252Y0083956D02*
X0061121Y0086825D01*
X0061121Y0087542D01*
X0060404Y0088260D01*
X0058969Y0088260D01*
X0058252Y0087542D01*
X0058252Y0083956D02*
X0061121Y0083956D01*
D21*
X0257424Y0060809D03*
X0260376Y0060809D03*
X0262424Y0060809D03*
X0265376Y0060809D03*
M02*
