G75*
%MOIN*%
%OFA0B0*%
%FSLAX25Y25*%
%IPPOS*%
%LPD*%
%AMOC8*
5,1,8,0,0,1.08239X$1,22.5*
%
%ADD10C,0.00800*%
%ADD11C,0.00200*%
%ADD12C,0.00000*%
%ADD13C,0.00600*%
D10*
X0055400Y0026400D02*
X0300400Y0026400D01*
X0301608Y0026415D01*
X0302816Y0026458D01*
X0304022Y0026531D01*
X0305226Y0026633D01*
X0306427Y0026765D01*
X0307624Y0026925D01*
X0308818Y0027114D01*
X0310006Y0027331D01*
X0311189Y0027578D01*
X0312366Y0027853D01*
X0313535Y0028156D01*
X0314697Y0028488D01*
X0315851Y0028847D01*
X0316995Y0029234D01*
X0318130Y0029649D01*
X0319255Y0030091D01*
X0320368Y0030560D01*
X0321470Y0031056D01*
X0322560Y0031579D01*
X0323636Y0032127D01*
X0324699Y0032702D01*
X0325748Y0033302D01*
X0326782Y0033927D01*
X0327801Y0034576D01*
X0328803Y0035251D01*
X0329789Y0035949D01*
X0330758Y0036671D01*
X0331709Y0037416D01*
X0332642Y0038184D01*
X0333556Y0038974D01*
X0334451Y0039787D01*
X0335326Y0040620D01*
X0336180Y0041474D01*
X0337013Y0042349D01*
X0337826Y0043244D01*
X0338616Y0044158D01*
X0339384Y0045091D01*
X0340129Y0046042D01*
X0340851Y0047011D01*
X0341549Y0047997D01*
X0342224Y0048999D01*
X0342873Y0050018D01*
X0343498Y0051052D01*
X0344098Y0052101D01*
X0344673Y0053164D01*
X0345221Y0054240D01*
X0345744Y0055330D01*
X0346240Y0056432D01*
X0346709Y0057545D01*
X0347151Y0058670D01*
X0347566Y0059805D01*
X0347953Y0060949D01*
X0348312Y0062103D01*
X0348644Y0063265D01*
X0348947Y0064434D01*
X0349222Y0065611D01*
X0349469Y0066794D01*
X0349686Y0067982D01*
X0349875Y0069176D01*
X0350035Y0070373D01*
X0350167Y0071574D01*
X0350269Y0072778D01*
X0350342Y0073984D01*
X0350385Y0075192D01*
X0350400Y0076400D01*
X0350400Y0191400D01*
X0350385Y0192608D01*
X0350342Y0193816D01*
X0350269Y0195022D01*
X0350167Y0196226D01*
X0350035Y0197427D01*
X0349875Y0198624D01*
X0349686Y0199818D01*
X0349469Y0201006D01*
X0349222Y0202189D01*
X0348947Y0203366D01*
X0348644Y0204535D01*
X0348312Y0205697D01*
X0347953Y0206851D01*
X0347566Y0207995D01*
X0347151Y0209130D01*
X0346709Y0210255D01*
X0346240Y0211368D01*
X0345744Y0212470D01*
X0345221Y0213560D01*
X0344673Y0214636D01*
X0344098Y0215699D01*
X0343498Y0216748D01*
X0342873Y0217782D01*
X0342224Y0218801D01*
X0341549Y0219803D01*
X0340851Y0220789D01*
X0340129Y0221758D01*
X0339384Y0222709D01*
X0338616Y0223642D01*
X0337826Y0224556D01*
X0337013Y0225451D01*
X0336180Y0226326D01*
X0335326Y0227180D01*
X0334451Y0228013D01*
X0333556Y0228826D01*
X0332642Y0229616D01*
X0331709Y0230384D01*
X0330758Y0231129D01*
X0329789Y0231851D01*
X0328803Y0232549D01*
X0327801Y0233224D01*
X0326782Y0233873D01*
X0325748Y0234498D01*
X0324699Y0235098D01*
X0323636Y0235673D01*
X0322560Y0236221D01*
X0321470Y0236744D01*
X0320368Y0237240D01*
X0319255Y0237709D01*
X0318130Y0238151D01*
X0316995Y0238566D01*
X0315851Y0238953D01*
X0314697Y0239312D01*
X0313535Y0239644D01*
X0312366Y0239947D01*
X0311189Y0240222D01*
X0310006Y0240469D01*
X0308818Y0240686D01*
X0307624Y0240875D01*
X0306427Y0241035D01*
X0305226Y0241167D01*
X0304022Y0241269D01*
X0302816Y0241342D01*
X0301608Y0241385D01*
X0300400Y0241400D01*
X0055400Y0241400D01*
X0055400Y0178900D01*
X0090400Y0178900D01*
X0090400Y0108900D01*
X0055400Y0108900D01*
X0055400Y0026400D01*
X0075796Y0036398D02*
X0076497Y0035698D01*
X0079299Y0035698D01*
X0080000Y0036398D01*
X0080000Y0037799D01*
X0079299Y0038500D01*
X0077898Y0037799D02*
X0077898Y0035698D01*
X0077898Y0037799D02*
X0077198Y0038500D01*
X0076497Y0038500D01*
X0075796Y0037799D01*
X0075796Y0036398D01*
X0076497Y0040302D02*
X0077898Y0040302D01*
X0078599Y0041002D01*
X0078599Y0043104D01*
X0080000Y0043104D02*
X0075796Y0043104D01*
X0075796Y0041002D01*
X0076497Y0040302D01*
X0085000Y0223000D02*
X0085000Y0225802D01*
X0085000Y0224401D02*
X0080796Y0224401D01*
X0082198Y0225802D01*
X0080000Y0226398D02*
X0080000Y0227799D01*
X0079299Y0228500D01*
X0078599Y0228500D01*
X0077898Y0227799D01*
X0077898Y0226398D01*
X0078599Y0225698D01*
X0079299Y0225698D01*
X0080000Y0226398D01*
X0077898Y0226398D02*
X0077198Y0225698D01*
X0076497Y0225698D01*
X0075796Y0226398D01*
X0075796Y0227799D01*
X0076497Y0228500D01*
X0077198Y0228500D01*
X0077898Y0227799D01*
X0077898Y0230302D02*
X0078599Y0231002D01*
X0078599Y0233104D01*
X0080000Y0233104D02*
X0075796Y0233104D01*
X0075796Y0231002D01*
X0076497Y0230302D01*
X0077898Y0230302D01*
D11*
X0106042Y0190302D02*
X0107510Y0190302D01*
X0107510Y0188100D01*
X0108252Y0188100D02*
X0108252Y0189568D01*
X0107510Y0189201D02*
X0106776Y0189201D01*
X0108252Y0188100D02*
X0109353Y0188100D01*
X0109720Y0188467D01*
X0109720Y0189568D01*
X0110462Y0189201D02*
X0110462Y0188467D01*
X0110829Y0188100D01*
X0111563Y0188100D01*
X0111930Y0188467D01*
X0111930Y0189201D02*
X0111196Y0189568D01*
X0110829Y0189568D01*
X0110462Y0189201D01*
X0110462Y0190302D02*
X0111930Y0190302D01*
X0111930Y0189201D01*
X0111196Y0181802D02*
X0111196Y0179600D01*
X0111930Y0179600D02*
X0110462Y0179600D01*
X0109720Y0179967D02*
X0108252Y0181435D01*
X0108252Y0179967D01*
X0108619Y0179600D01*
X0109353Y0179600D01*
X0109720Y0179967D01*
X0109720Y0181435D01*
X0109353Y0181802D01*
X0108619Y0181802D01*
X0108252Y0181435D01*
X0107510Y0181435D02*
X0107143Y0181802D01*
X0106409Y0181802D01*
X0106042Y0181435D01*
X0106042Y0181068D01*
X0107510Y0179600D01*
X0106042Y0179600D01*
X0111196Y0181802D02*
X0111930Y0181068D01*
X0112672Y0181435D02*
X0113039Y0181802D01*
X0113773Y0181802D01*
X0114140Y0181435D01*
X0114140Y0179967D01*
X0113773Y0179600D01*
X0113039Y0179600D01*
X0112672Y0179967D01*
X0165600Y0209027D02*
X0165600Y0209761D01*
X0165967Y0210128D01*
X0165600Y0210870D02*
X0165600Y0212338D01*
X0165600Y0211604D02*
X0167802Y0211604D01*
X0167068Y0210870D01*
X0167435Y0210128D02*
X0167802Y0209761D01*
X0167802Y0209027D01*
X0167435Y0208660D01*
X0165967Y0208660D01*
X0165600Y0209027D01*
X0165967Y0213080D02*
X0165600Y0213447D01*
X0165600Y0214181D01*
X0165967Y0214548D01*
X0167435Y0214548D01*
X0165967Y0213080D01*
X0167435Y0213080D01*
X0167802Y0213447D01*
X0167802Y0214181D01*
X0167435Y0214548D01*
X0166701Y0215290D02*
X0166701Y0216758D01*
X0167802Y0216391D02*
X0166701Y0215290D01*
X0165600Y0216391D02*
X0167802Y0216391D01*
X0174100Y0216290D02*
X0176302Y0216290D01*
X0176302Y0217758D01*
X0175201Y0217024D02*
X0175201Y0216290D01*
X0175568Y0215548D02*
X0174100Y0215548D01*
X0174100Y0214447D01*
X0174467Y0214080D01*
X0175568Y0214080D01*
X0175201Y0213338D02*
X0174467Y0213338D01*
X0174100Y0212971D01*
X0174100Y0212237D01*
X0174467Y0211870D01*
X0175201Y0211870D02*
X0175568Y0212604D01*
X0175568Y0212971D01*
X0175201Y0213338D01*
X0176302Y0213338D02*
X0176302Y0211870D01*
X0175201Y0211870D01*
X0252100Y0160290D02*
X0254302Y0160290D01*
X0254302Y0161758D01*
X0253201Y0161024D02*
X0253201Y0160290D01*
X0253568Y0159548D02*
X0252100Y0159548D01*
X0252100Y0158447D01*
X0252467Y0158080D01*
X0253568Y0158080D01*
X0252100Y0157338D02*
X0252100Y0155870D01*
X0252100Y0156604D02*
X0254302Y0156604D01*
X0253568Y0155870D01*
X0252467Y0155132D02*
X0252100Y0155132D01*
X0252100Y0154765D01*
X0252467Y0154765D01*
X0252467Y0155132D01*
X0252467Y0154023D02*
X0252100Y0153656D01*
X0252100Y0152922D01*
X0252467Y0152556D01*
X0253935Y0154023D01*
X0252467Y0154023D01*
X0252467Y0152556D02*
X0253935Y0152556D01*
X0254302Y0152922D01*
X0254302Y0153656D01*
X0253935Y0154023D01*
X0250302Y0151524D02*
X0248100Y0151524D01*
X0248100Y0150790D02*
X0248100Y0152258D01*
X0249568Y0150790D02*
X0250302Y0151524D01*
X0249935Y0150048D02*
X0248467Y0148580D01*
X0248100Y0148947D01*
X0248100Y0149681D01*
X0248467Y0150048D01*
X0249935Y0150048D01*
X0250302Y0149681D01*
X0250302Y0148947D01*
X0249935Y0148580D01*
X0248467Y0148580D01*
X0248100Y0147838D02*
X0248100Y0146370D01*
X0248100Y0147104D02*
X0250302Y0147104D01*
X0249568Y0146370D01*
X0249935Y0145628D02*
X0250302Y0145261D01*
X0250302Y0144527D01*
X0249935Y0144160D01*
X0248467Y0144160D01*
X0248100Y0144527D01*
X0248100Y0145261D01*
X0248467Y0145628D01*
X0164800Y0092702D02*
X0164800Y0090500D01*
X0164800Y0091234D02*
X0163699Y0091234D01*
X0163332Y0091601D01*
X0163332Y0092335D01*
X0163699Y0092702D01*
X0164800Y0092702D01*
X0164066Y0091234D02*
X0163332Y0090500D01*
X0162590Y0090500D02*
X0161122Y0090500D01*
X0161856Y0090500D02*
X0161856Y0092702D01*
X0162590Y0091968D01*
X0160380Y0091968D02*
X0159646Y0092702D01*
X0159646Y0090500D01*
X0160380Y0090500D02*
X0158912Y0090500D01*
X0157300Y0094500D02*
X0155832Y0094500D01*
X0156566Y0094500D02*
X0156566Y0096702D01*
X0157300Y0095968D01*
X0155090Y0096335D02*
X0154723Y0096702D01*
X0153989Y0096702D01*
X0153622Y0096335D01*
X0155090Y0094867D01*
X0154723Y0094500D01*
X0153989Y0094500D01*
X0153622Y0094867D01*
X0153622Y0096335D01*
X0152880Y0096335D02*
X0152513Y0096702D01*
X0151779Y0096702D01*
X0151412Y0096335D01*
X0152880Y0094867D01*
X0152513Y0094500D01*
X0151779Y0094500D01*
X0151412Y0094867D01*
X0151412Y0096335D01*
X0152880Y0096335D02*
X0152880Y0094867D01*
X0155090Y0094867D02*
X0155090Y0096335D01*
X0161276Y0071802D02*
X0161276Y0069600D01*
X0162010Y0069600D02*
X0160542Y0069600D01*
X0162010Y0071068D02*
X0161276Y0071802D01*
X0162752Y0071435D02*
X0164220Y0069967D01*
X0163853Y0069600D01*
X0163119Y0069600D01*
X0162752Y0069967D01*
X0162752Y0071435D01*
X0163119Y0071802D01*
X0163853Y0071802D01*
X0164220Y0071435D01*
X0164220Y0069967D01*
X0164962Y0069600D02*
X0166430Y0069600D01*
X0165696Y0069600D02*
X0165696Y0071802D01*
X0166430Y0071068D01*
X0167172Y0071435D02*
X0167172Y0070701D01*
X0167539Y0070334D01*
X0168640Y0070334D01*
X0168640Y0069600D02*
X0168640Y0071802D01*
X0167539Y0071802D01*
X0167172Y0071435D01*
X0167906Y0070334D02*
X0167172Y0069600D01*
X0155510Y0066935D02*
X0155510Y0065467D01*
X0154042Y0066935D01*
X0154042Y0065467D01*
X0154409Y0065100D01*
X0155143Y0065100D01*
X0155510Y0065467D01*
X0155510Y0066935D02*
X0155143Y0067302D01*
X0154409Y0067302D01*
X0154042Y0066935D01*
X0154409Y0061302D02*
X0154042Y0060935D01*
X0155510Y0059467D01*
X0155143Y0059100D01*
X0154409Y0059100D01*
X0154042Y0059467D01*
X0154042Y0060935D01*
X0154409Y0061302D02*
X0155143Y0061302D01*
X0155510Y0060935D01*
X0155510Y0059467D01*
X0157409Y0057802D02*
X0157042Y0057435D01*
X0158510Y0055967D01*
X0158143Y0055600D01*
X0157409Y0055600D01*
X0157042Y0055967D01*
X0157042Y0057435D01*
X0157409Y0057802D02*
X0158143Y0057802D01*
X0158510Y0057435D01*
X0158510Y0055967D01*
X0159252Y0055967D02*
X0159252Y0057435D01*
X0160720Y0055967D01*
X0160353Y0055600D01*
X0159619Y0055600D01*
X0159252Y0055967D01*
X0160720Y0055967D02*
X0160720Y0057435D01*
X0160353Y0057802D01*
X0159619Y0057802D01*
X0159252Y0057435D01*
X0161462Y0055600D02*
X0162930Y0055600D01*
X0162196Y0055600D02*
X0162196Y0057802D01*
X0162930Y0057068D01*
X0163672Y0057435D02*
X0163672Y0056701D01*
X0164039Y0056334D01*
X0165140Y0056334D01*
X0165140Y0055600D02*
X0165140Y0057802D01*
X0164039Y0057802D01*
X0163672Y0057435D01*
X0164406Y0056334D02*
X0163672Y0055600D01*
X0206598Y0069202D02*
X0208065Y0069202D01*
X0208065Y0067000D01*
X0208807Y0067000D02*
X0208807Y0068468D01*
X0208065Y0068101D02*
X0207331Y0068101D01*
X0208807Y0067000D02*
X0209908Y0067000D01*
X0210275Y0067367D01*
X0210275Y0068468D01*
X0211017Y0067000D02*
X0212485Y0067000D01*
X0211751Y0067000D02*
X0211751Y0069202D01*
X0212485Y0068468D01*
X0213223Y0067367D02*
X0213223Y0067000D01*
X0213590Y0067000D01*
X0213590Y0067367D01*
X0213223Y0067367D01*
X0214332Y0067367D02*
X0214699Y0067000D01*
X0215433Y0067000D01*
X0215800Y0067367D01*
X0214332Y0068835D01*
X0214332Y0067367D01*
X0214332Y0068835D02*
X0214699Y0069202D01*
X0215433Y0069202D01*
X0215800Y0068835D01*
X0215800Y0067367D01*
X0213933Y0076000D02*
X0213199Y0076000D01*
X0212832Y0076367D01*
X0212090Y0076000D02*
X0210622Y0076000D01*
X0211356Y0076000D02*
X0211356Y0078202D01*
X0212090Y0077468D01*
X0212832Y0077835D02*
X0213199Y0078202D01*
X0213933Y0078202D01*
X0214300Y0077835D01*
X0214300Y0076367D01*
X0213933Y0076000D01*
X0209880Y0076367D02*
X0209880Y0077835D01*
X0209513Y0078202D01*
X0208779Y0078202D01*
X0208412Y0077835D01*
X0209880Y0076367D01*
X0209513Y0076000D01*
X0208779Y0076000D01*
X0208412Y0076367D01*
X0208412Y0077835D01*
X0207670Y0077835D02*
X0207303Y0078202D01*
X0206569Y0078202D01*
X0206202Y0077835D01*
X0207670Y0076367D01*
X0207303Y0076000D01*
X0206569Y0076000D01*
X0206202Y0076367D01*
X0206202Y0077835D01*
X0207670Y0077835D02*
X0207670Y0076367D01*
X0227042Y0068935D02*
X0227042Y0068568D01*
X0228510Y0067100D01*
X0227042Y0067100D01*
X0227042Y0068935D02*
X0227409Y0069302D01*
X0228143Y0069302D01*
X0228510Y0068935D01*
X0229252Y0068935D02*
X0230720Y0067467D01*
X0230353Y0067100D01*
X0229619Y0067100D01*
X0229252Y0067467D01*
X0229252Y0068935D01*
X0229619Y0069302D01*
X0230353Y0069302D01*
X0230720Y0068935D01*
X0230720Y0067467D01*
X0231462Y0067100D02*
X0232930Y0067100D01*
X0232196Y0067100D02*
X0232196Y0069302D01*
X0232930Y0068568D01*
X0233672Y0068935D02*
X0233672Y0068201D01*
X0234039Y0067834D01*
X0235140Y0067834D01*
X0235140Y0067100D02*
X0235140Y0069302D01*
X0234039Y0069302D01*
X0233672Y0068935D01*
X0234406Y0067834D02*
X0233672Y0067100D01*
X0233909Y0071100D02*
X0234643Y0071100D01*
X0235010Y0071467D01*
X0233542Y0072935D01*
X0233542Y0071467D01*
X0233909Y0071100D01*
X0235010Y0071467D02*
X0235010Y0072935D01*
X0234643Y0073302D01*
X0233909Y0073302D01*
X0233542Y0072935D01*
X0294967Y0208660D02*
X0294600Y0209027D01*
X0294600Y0209761D01*
X0294967Y0210128D01*
X0294600Y0210870D02*
X0294600Y0212338D01*
X0294600Y0211604D02*
X0296802Y0211604D01*
X0296068Y0210870D01*
X0296435Y0210128D02*
X0296802Y0209761D01*
X0296802Y0209027D01*
X0296435Y0208660D01*
X0294967Y0208660D01*
X0294967Y0213080D02*
X0296435Y0214548D01*
X0294967Y0214548D01*
X0294600Y0214181D01*
X0294600Y0213447D01*
X0294967Y0213080D01*
X0296435Y0213080D01*
X0296802Y0213447D01*
X0296802Y0214181D01*
X0296435Y0214548D01*
X0296435Y0215290D02*
X0296802Y0215657D01*
X0296802Y0216391D01*
X0296435Y0216758D01*
X0296068Y0216758D01*
X0295701Y0216391D01*
X0295334Y0216758D01*
X0294967Y0216758D01*
X0294600Y0216391D01*
X0294600Y0215657D01*
X0294967Y0215290D01*
X0295701Y0216024D02*
X0295701Y0216391D01*
X0303100Y0215290D02*
X0305302Y0215290D01*
X0305302Y0216758D01*
X0304201Y0216024D02*
X0304201Y0215290D01*
X0304568Y0214548D02*
X0303100Y0214548D01*
X0303100Y0213447D01*
X0303467Y0213080D01*
X0304568Y0213080D01*
X0304201Y0212338D02*
X0303467Y0212338D01*
X0303100Y0211971D01*
X0303100Y0211237D01*
X0303467Y0210870D01*
X0304201Y0210870D02*
X0304568Y0211604D01*
X0304568Y0211971D01*
X0304201Y0212338D01*
X0305302Y0212338D02*
X0305302Y0210870D01*
X0304201Y0210870D01*
D12*
X0321650Y0216400D02*
X0321652Y0216558D01*
X0321658Y0216715D01*
X0321668Y0216873D01*
X0321682Y0217030D01*
X0321700Y0217186D01*
X0321721Y0217343D01*
X0321747Y0217498D01*
X0321777Y0217653D01*
X0321810Y0217807D01*
X0321848Y0217960D01*
X0321889Y0218113D01*
X0321934Y0218264D01*
X0321983Y0218414D01*
X0322036Y0218562D01*
X0322092Y0218710D01*
X0322153Y0218855D01*
X0322216Y0219000D01*
X0322284Y0219142D01*
X0322355Y0219283D01*
X0322429Y0219422D01*
X0322507Y0219559D01*
X0322589Y0219694D01*
X0322673Y0219827D01*
X0322762Y0219958D01*
X0322853Y0220086D01*
X0322948Y0220213D01*
X0323045Y0220336D01*
X0323146Y0220458D01*
X0323250Y0220576D01*
X0323357Y0220692D01*
X0323467Y0220805D01*
X0323579Y0220916D01*
X0323695Y0221023D01*
X0323813Y0221128D01*
X0323933Y0221230D01*
X0324056Y0221328D01*
X0324182Y0221424D01*
X0324310Y0221516D01*
X0324440Y0221605D01*
X0324572Y0221691D01*
X0324707Y0221773D01*
X0324844Y0221852D01*
X0324982Y0221927D01*
X0325122Y0221999D01*
X0325265Y0222067D01*
X0325408Y0222132D01*
X0325554Y0222193D01*
X0325701Y0222250D01*
X0325849Y0222304D01*
X0325999Y0222354D01*
X0326149Y0222400D01*
X0326301Y0222442D01*
X0326454Y0222481D01*
X0326608Y0222515D01*
X0326763Y0222546D01*
X0326918Y0222572D01*
X0327074Y0222595D01*
X0327231Y0222614D01*
X0327388Y0222629D01*
X0327545Y0222640D01*
X0327703Y0222647D01*
X0327861Y0222650D01*
X0328018Y0222649D01*
X0328176Y0222644D01*
X0328333Y0222635D01*
X0328491Y0222622D01*
X0328647Y0222605D01*
X0328804Y0222584D01*
X0328959Y0222560D01*
X0329114Y0222531D01*
X0329269Y0222498D01*
X0329422Y0222462D01*
X0329575Y0222421D01*
X0329726Y0222377D01*
X0329876Y0222329D01*
X0330025Y0222278D01*
X0330173Y0222222D01*
X0330319Y0222163D01*
X0330464Y0222100D01*
X0330607Y0222033D01*
X0330748Y0221963D01*
X0330887Y0221890D01*
X0331025Y0221813D01*
X0331161Y0221732D01*
X0331294Y0221648D01*
X0331425Y0221561D01*
X0331554Y0221470D01*
X0331681Y0221376D01*
X0331806Y0221279D01*
X0331927Y0221179D01*
X0332047Y0221076D01*
X0332163Y0220970D01*
X0332277Y0220861D01*
X0332389Y0220749D01*
X0332497Y0220635D01*
X0332602Y0220517D01*
X0332705Y0220397D01*
X0332804Y0220275D01*
X0332900Y0220150D01*
X0332993Y0220022D01*
X0333083Y0219893D01*
X0333169Y0219761D01*
X0333253Y0219627D01*
X0333332Y0219491D01*
X0333409Y0219353D01*
X0333481Y0219213D01*
X0333550Y0219071D01*
X0333616Y0218928D01*
X0333678Y0218783D01*
X0333736Y0218636D01*
X0333791Y0218488D01*
X0333842Y0218339D01*
X0333889Y0218188D01*
X0333932Y0218037D01*
X0333971Y0217884D01*
X0334007Y0217730D01*
X0334038Y0217576D01*
X0334066Y0217421D01*
X0334090Y0217265D01*
X0334110Y0217108D01*
X0334126Y0216951D01*
X0334138Y0216794D01*
X0334146Y0216637D01*
X0334150Y0216479D01*
X0334150Y0216321D01*
X0334146Y0216163D01*
X0334138Y0216006D01*
X0334126Y0215849D01*
X0334110Y0215692D01*
X0334090Y0215535D01*
X0334066Y0215379D01*
X0334038Y0215224D01*
X0334007Y0215070D01*
X0333971Y0214916D01*
X0333932Y0214763D01*
X0333889Y0214612D01*
X0333842Y0214461D01*
X0333791Y0214312D01*
X0333736Y0214164D01*
X0333678Y0214017D01*
X0333616Y0213872D01*
X0333550Y0213729D01*
X0333481Y0213587D01*
X0333409Y0213447D01*
X0333332Y0213309D01*
X0333253Y0213173D01*
X0333169Y0213039D01*
X0333083Y0212907D01*
X0332993Y0212778D01*
X0332900Y0212650D01*
X0332804Y0212525D01*
X0332705Y0212403D01*
X0332602Y0212283D01*
X0332497Y0212165D01*
X0332389Y0212051D01*
X0332277Y0211939D01*
X0332163Y0211830D01*
X0332047Y0211724D01*
X0331927Y0211621D01*
X0331806Y0211521D01*
X0331681Y0211424D01*
X0331554Y0211330D01*
X0331425Y0211239D01*
X0331294Y0211152D01*
X0331161Y0211068D01*
X0331025Y0210987D01*
X0330887Y0210910D01*
X0330748Y0210837D01*
X0330607Y0210767D01*
X0330464Y0210700D01*
X0330319Y0210637D01*
X0330173Y0210578D01*
X0330025Y0210522D01*
X0329876Y0210471D01*
X0329726Y0210423D01*
X0329575Y0210379D01*
X0329422Y0210338D01*
X0329269Y0210302D01*
X0329114Y0210269D01*
X0328959Y0210240D01*
X0328804Y0210216D01*
X0328647Y0210195D01*
X0328491Y0210178D01*
X0328333Y0210165D01*
X0328176Y0210156D01*
X0328018Y0210151D01*
X0327861Y0210150D01*
X0327703Y0210153D01*
X0327545Y0210160D01*
X0327388Y0210171D01*
X0327231Y0210186D01*
X0327074Y0210205D01*
X0326918Y0210228D01*
X0326763Y0210254D01*
X0326608Y0210285D01*
X0326454Y0210319D01*
X0326301Y0210358D01*
X0326149Y0210400D01*
X0325999Y0210446D01*
X0325849Y0210496D01*
X0325701Y0210550D01*
X0325554Y0210607D01*
X0325408Y0210668D01*
X0325265Y0210733D01*
X0325122Y0210801D01*
X0324982Y0210873D01*
X0324844Y0210948D01*
X0324707Y0211027D01*
X0324572Y0211109D01*
X0324440Y0211195D01*
X0324310Y0211284D01*
X0324182Y0211376D01*
X0324056Y0211472D01*
X0323933Y0211570D01*
X0323813Y0211672D01*
X0323695Y0211777D01*
X0323579Y0211884D01*
X0323467Y0211995D01*
X0323357Y0212108D01*
X0323250Y0212224D01*
X0323146Y0212342D01*
X0323045Y0212464D01*
X0322948Y0212587D01*
X0322853Y0212714D01*
X0322762Y0212842D01*
X0322673Y0212973D01*
X0322589Y0213106D01*
X0322507Y0213241D01*
X0322429Y0213378D01*
X0322355Y0213517D01*
X0322284Y0213658D01*
X0322216Y0213800D01*
X0322153Y0213945D01*
X0322092Y0214090D01*
X0322036Y0214238D01*
X0321983Y0214386D01*
X0321934Y0214536D01*
X0321889Y0214687D01*
X0321848Y0214840D01*
X0321810Y0214993D01*
X0321777Y0215147D01*
X0321747Y0215302D01*
X0321721Y0215457D01*
X0321700Y0215614D01*
X0321682Y0215770D01*
X0321668Y0215927D01*
X0321658Y0216085D01*
X0321652Y0216242D01*
X0321650Y0216400D01*
X0321650Y0051400D02*
X0321652Y0051558D01*
X0321658Y0051715D01*
X0321668Y0051873D01*
X0321682Y0052030D01*
X0321700Y0052186D01*
X0321721Y0052343D01*
X0321747Y0052498D01*
X0321777Y0052653D01*
X0321810Y0052807D01*
X0321848Y0052960D01*
X0321889Y0053113D01*
X0321934Y0053264D01*
X0321983Y0053414D01*
X0322036Y0053562D01*
X0322092Y0053710D01*
X0322153Y0053855D01*
X0322216Y0054000D01*
X0322284Y0054142D01*
X0322355Y0054283D01*
X0322429Y0054422D01*
X0322507Y0054559D01*
X0322589Y0054694D01*
X0322673Y0054827D01*
X0322762Y0054958D01*
X0322853Y0055086D01*
X0322948Y0055213D01*
X0323045Y0055336D01*
X0323146Y0055458D01*
X0323250Y0055576D01*
X0323357Y0055692D01*
X0323467Y0055805D01*
X0323579Y0055916D01*
X0323695Y0056023D01*
X0323813Y0056128D01*
X0323933Y0056230D01*
X0324056Y0056328D01*
X0324182Y0056424D01*
X0324310Y0056516D01*
X0324440Y0056605D01*
X0324572Y0056691D01*
X0324707Y0056773D01*
X0324844Y0056852D01*
X0324982Y0056927D01*
X0325122Y0056999D01*
X0325265Y0057067D01*
X0325408Y0057132D01*
X0325554Y0057193D01*
X0325701Y0057250D01*
X0325849Y0057304D01*
X0325999Y0057354D01*
X0326149Y0057400D01*
X0326301Y0057442D01*
X0326454Y0057481D01*
X0326608Y0057515D01*
X0326763Y0057546D01*
X0326918Y0057572D01*
X0327074Y0057595D01*
X0327231Y0057614D01*
X0327388Y0057629D01*
X0327545Y0057640D01*
X0327703Y0057647D01*
X0327861Y0057650D01*
X0328018Y0057649D01*
X0328176Y0057644D01*
X0328333Y0057635D01*
X0328491Y0057622D01*
X0328647Y0057605D01*
X0328804Y0057584D01*
X0328959Y0057560D01*
X0329114Y0057531D01*
X0329269Y0057498D01*
X0329422Y0057462D01*
X0329575Y0057421D01*
X0329726Y0057377D01*
X0329876Y0057329D01*
X0330025Y0057278D01*
X0330173Y0057222D01*
X0330319Y0057163D01*
X0330464Y0057100D01*
X0330607Y0057033D01*
X0330748Y0056963D01*
X0330887Y0056890D01*
X0331025Y0056813D01*
X0331161Y0056732D01*
X0331294Y0056648D01*
X0331425Y0056561D01*
X0331554Y0056470D01*
X0331681Y0056376D01*
X0331806Y0056279D01*
X0331927Y0056179D01*
X0332047Y0056076D01*
X0332163Y0055970D01*
X0332277Y0055861D01*
X0332389Y0055749D01*
X0332497Y0055635D01*
X0332602Y0055517D01*
X0332705Y0055397D01*
X0332804Y0055275D01*
X0332900Y0055150D01*
X0332993Y0055022D01*
X0333083Y0054893D01*
X0333169Y0054761D01*
X0333253Y0054627D01*
X0333332Y0054491D01*
X0333409Y0054353D01*
X0333481Y0054213D01*
X0333550Y0054071D01*
X0333616Y0053928D01*
X0333678Y0053783D01*
X0333736Y0053636D01*
X0333791Y0053488D01*
X0333842Y0053339D01*
X0333889Y0053188D01*
X0333932Y0053037D01*
X0333971Y0052884D01*
X0334007Y0052730D01*
X0334038Y0052576D01*
X0334066Y0052421D01*
X0334090Y0052265D01*
X0334110Y0052108D01*
X0334126Y0051951D01*
X0334138Y0051794D01*
X0334146Y0051637D01*
X0334150Y0051479D01*
X0334150Y0051321D01*
X0334146Y0051163D01*
X0334138Y0051006D01*
X0334126Y0050849D01*
X0334110Y0050692D01*
X0334090Y0050535D01*
X0334066Y0050379D01*
X0334038Y0050224D01*
X0334007Y0050070D01*
X0333971Y0049916D01*
X0333932Y0049763D01*
X0333889Y0049612D01*
X0333842Y0049461D01*
X0333791Y0049312D01*
X0333736Y0049164D01*
X0333678Y0049017D01*
X0333616Y0048872D01*
X0333550Y0048729D01*
X0333481Y0048587D01*
X0333409Y0048447D01*
X0333332Y0048309D01*
X0333253Y0048173D01*
X0333169Y0048039D01*
X0333083Y0047907D01*
X0332993Y0047778D01*
X0332900Y0047650D01*
X0332804Y0047525D01*
X0332705Y0047403D01*
X0332602Y0047283D01*
X0332497Y0047165D01*
X0332389Y0047051D01*
X0332277Y0046939D01*
X0332163Y0046830D01*
X0332047Y0046724D01*
X0331927Y0046621D01*
X0331806Y0046521D01*
X0331681Y0046424D01*
X0331554Y0046330D01*
X0331425Y0046239D01*
X0331294Y0046152D01*
X0331161Y0046068D01*
X0331025Y0045987D01*
X0330887Y0045910D01*
X0330748Y0045837D01*
X0330607Y0045767D01*
X0330464Y0045700D01*
X0330319Y0045637D01*
X0330173Y0045578D01*
X0330025Y0045522D01*
X0329876Y0045471D01*
X0329726Y0045423D01*
X0329575Y0045379D01*
X0329422Y0045338D01*
X0329269Y0045302D01*
X0329114Y0045269D01*
X0328959Y0045240D01*
X0328804Y0045216D01*
X0328647Y0045195D01*
X0328491Y0045178D01*
X0328333Y0045165D01*
X0328176Y0045156D01*
X0328018Y0045151D01*
X0327861Y0045150D01*
X0327703Y0045153D01*
X0327545Y0045160D01*
X0327388Y0045171D01*
X0327231Y0045186D01*
X0327074Y0045205D01*
X0326918Y0045228D01*
X0326763Y0045254D01*
X0326608Y0045285D01*
X0326454Y0045319D01*
X0326301Y0045358D01*
X0326149Y0045400D01*
X0325999Y0045446D01*
X0325849Y0045496D01*
X0325701Y0045550D01*
X0325554Y0045607D01*
X0325408Y0045668D01*
X0325265Y0045733D01*
X0325122Y0045801D01*
X0324982Y0045873D01*
X0324844Y0045948D01*
X0324707Y0046027D01*
X0324572Y0046109D01*
X0324440Y0046195D01*
X0324310Y0046284D01*
X0324182Y0046376D01*
X0324056Y0046472D01*
X0323933Y0046570D01*
X0323813Y0046672D01*
X0323695Y0046777D01*
X0323579Y0046884D01*
X0323467Y0046995D01*
X0323357Y0047108D01*
X0323250Y0047224D01*
X0323146Y0047342D01*
X0323045Y0047464D01*
X0322948Y0047587D01*
X0322853Y0047714D01*
X0322762Y0047842D01*
X0322673Y0047973D01*
X0322589Y0048106D01*
X0322507Y0048241D01*
X0322429Y0048378D01*
X0322355Y0048517D01*
X0322284Y0048658D01*
X0322216Y0048800D01*
X0322153Y0048945D01*
X0322092Y0049090D01*
X0322036Y0049238D01*
X0321983Y0049386D01*
X0321934Y0049536D01*
X0321889Y0049687D01*
X0321848Y0049840D01*
X0321810Y0049993D01*
X0321777Y0050147D01*
X0321747Y0050302D01*
X0321721Y0050457D01*
X0321700Y0050614D01*
X0321682Y0050770D01*
X0321668Y0050927D01*
X0321658Y0051085D01*
X0321652Y0051242D01*
X0321650Y0051400D01*
X0061650Y0038900D02*
X0061652Y0039058D01*
X0061658Y0039215D01*
X0061668Y0039373D01*
X0061682Y0039530D01*
X0061700Y0039686D01*
X0061721Y0039843D01*
X0061747Y0039998D01*
X0061777Y0040153D01*
X0061810Y0040307D01*
X0061848Y0040460D01*
X0061889Y0040613D01*
X0061934Y0040764D01*
X0061983Y0040914D01*
X0062036Y0041062D01*
X0062092Y0041210D01*
X0062153Y0041355D01*
X0062216Y0041500D01*
X0062284Y0041642D01*
X0062355Y0041783D01*
X0062429Y0041922D01*
X0062507Y0042059D01*
X0062589Y0042194D01*
X0062673Y0042327D01*
X0062762Y0042458D01*
X0062853Y0042586D01*
X0062948Y0042713D01*
X0063045Y0042836D01*
X0063146Y0042958D01*
X0063250Y0043076D01*
X0063357Y0043192D01*
X0063467Y0043305D01*
X0063579Y0043416D01*
X0063695Y0043523D01*
X0063813Y0043628D01*
X0063933Y0043730D01*
X0064056Y0043828D01*
X0064182Y0043924D01*
X0064310Y0044016D01*
X0064440Y0044105D01*
X0064572Y0044191D01*
X0064707Y0044273D01*
X0064844Y0044352D01*
X0064982Y0044427D01*
X0065122Y0044499D01*
X0065265Y0044567D01*
X0065408Y0044632D01*
X0065554Y0044693D01*
X0065701Y0044750D01*
X0065849Y0044804D01*
X0065999Y0044854D01*
X0066149Y0044900D01*
X0066301Y0044942D01*
X0066454Y0044981D01*
X0066608Y0045015D01*
X0066763Y0045046D01*
X0066918Y0045072D01*
X0067074Y0045095D01*
X0067231Y0045114D01*
X0067388Y0045129D01*
X0067545Y0045140D01*
X0067703Y0045147D01*
X0067861Y0045150D01*
X0068018Y0045149D01*
X0068176Y0045144D01*
X0068333Y0045135D01*
X0068491Y0045122D01*
X0068647Y0045105D01*
X0068804Y0045084D01*
X0068959Y0045060D01*
X0069114Y0045031D01*
X0069269Y0044998D01*
X0069422Y0044962D01*
X0069575Y0044921D01*
X0069726Y0044877D01*
X0069876Y0044829D01*
X0070025Y0044778D01*
X0070173Y0044722D01*
X0070319Y0044663D01*
X0070464Y0044600D01*
X0070607Y0044533D01*
X0070748Y0044463D01*
X0070887Y0044390D01*
X0071025Y0044313D01*
X0071161Y0044232D01*
X0071294Y0044148D01*
X0071425Y0044061D01*
X0071554Y0043970D01*
X0071681Y0043876D01*
X0071806Y0043779D01*
X0071927Y0043679D01*
X0072047Y0043576D01*
X0072163Y0043470D01*
X0072277Y0043361D01*
X0072389Y0043249D01*
X0072497Y0043135D01*
X0072602Y0043017D01*
X0072705Y0042897D01*
X0072804Y0042775D01*
X0072900Y0042650D01*
X0072993Y0042522D01*
X0073083Y0042393D01*
X0073169Y0042261D01*
X0073253Y0042127D01*
X0073332Y0041991D01*
X0073409Y0041853D01*
X0073481Y0041713D01*
X0073550Y0041571D01*
X0073616Y0041428D01*
X0073678Y0041283D01*
X0073736Y0041136D01*
X0073791Y0040988D01*
X0073842Y0040839D01*
X0073889Y0040688D01*
X0073932Y0040537D01*
X0073971Y0040384D01*
X0074007Y0040230D01*
X0074038Y0040076D01*
X0074066Y0039921D01*
X0074090Y0039765D01*
X0074110Y0039608D01*
X0074126Y0039451D01*
X0074138Y0039294D01*
X0074146Y0039137D01*
X0074150Y0038979D01*
X0074150Y0038821D01*
X0074146Y0038663D01*
X0074138Y0038506D01*
X0074126Y0038349D01*
X0074110Y0038192D01*
X0074090Y0038035D01*
X0074066Y0037879D01*
X0074038Y0037724D01*
X0074007Y0037570D01*
X0073971Y0037416D01*
X0073932Y0037263D01*
X0073889Y0037112D01*
X0073842Y0036961D01*
X0073791Y0036812D01*
X0073736Y0036664D01*
X0073678Y0036517D01*
X0073616Y0036372D01*
X0073550Y0036229D01*
X0073481Y0036087D01*
X0073409Y0035947D01*
X0073332Y0035809D01*
X0073253Y0035673D01*
X0073169Y0035539D01*
X0073083Y0035407D01*
X0072993Y0035278D01*
X0072900Y0035150D01*
X0072804Y0035025D01*
X0072705Y0034903D01*
X0072602Y0034783D01*
X0072497Y0034665D01*
X0072389Y0034551D01*
X0072277Y0034439D01*
X0072163Y0034330D01*
X0072047Y0034224D01*
X0071927Y0034121D01*
X0071806Y0034021D01*
X0071681Y0033924D01*
X0071554Y0033830D01*
X0071425Y0033739D01*
X0071294Y0033652D01*
X0071161Y0033568D01*
X0071025Y0033487D01*
X0070887Y0033410D01*
X0070748Y0033337D01*
X0070607Y0033267D01*
X0070464Y0033200D01*
X0070319Y0033137D01*
X0070173Y0033078D01*
X0070025Y0033022D01*
X0069876Y0032971D01*
X0069726Y0032923D01*
X0069575Y0032879D01*
X0069422Y0032838D01*
X0069269Y0032802D01*
X0069114Y0032769D01*
X0068959Y0032740D01*
X0068804Y0032716D01*
X0068647Y0032695D01*
X0068491Y0032678D01*
X0068333Y0032665D01*
X0068176Y0032656D01*
X0068018Y0032651D01*
X0067861Y0032650D01*
X0067703Y0032653D01*
X0067545Y0032660D01*
X0067388Y0032671D01*
X0067231Y0032686D01*
X0067074Y0032705D01*
X0066918Y0032728D01*
X0066763Y0032754D01*
X0066608Y0032785D01*
X0066454Y0032819D01*
X0066301Y0032858D01*
X0066149Y0032900D01*
X0065999Y0032946D01*
X0065849Y0032996D01*
X0065701Y0033050D01*
X0065554Y0033107D01*
X0065408Y0033168D01*
X0065265Y0033233D01*
X0065122Y0033301D01*
X0064982Y0033373D01*
X0064844Y0033448D01*
X0064707Y0033527D01*
X0064572Y0033609D01*
X0064440Y0033695D01*
X0064310Y0033784D01*
X0064182Y0033876D01*
X0064056Y0033972D01*
X0063933Y0034070D01*
X0063813Y0034172D01*
X0063695Y0034277D01*
X0063579Y0034384D01*
X0063467Y0034495D01*
X0063357Y0034608D01*
X0063250Y0034724D01*
X0063146Y0034842D01*
X0063045Y0034964D01*
X0062948Y0035087D01*
X0062853Y0035214D01*
X0062762Y0035342D01*
X0062673Y0035473D01*
X0062589Y0035606D01*
X0062507Y0035741D01*
X0062429Y0035878D01*
X0062355Y0036017D01*
X0062284Y0036158D01*
X0062216Y0036300D01*
X0062153Y0036445D01*
X0062092Y0036590D01*
X0062036Y0036738D01*
X0061983Y0036886D01*
X0061934Y0037036D01*
X0061889Y0037187D01*
X0061848Y0037340D01*
X0061810Y0037493D01*
X0061777Y0037647D01*
X0061747Y0037802D01*
X0061721Y0037957D01*
X0061700Y0038114D01*
X0061682Y0038270D01*
X0061668Y0038427D01*
X0061658Y0038585D01*
X0061652Y0038742D01*
X0061650Y0038900D01*
X0061650Y0228900D02*
X0061652Y0229058D01*
X0061658Y0229215D01*
X0061668Y0229373D01*
X0061682Y0229530D01*
X0061700Y0229686D01*
X0061721Y0229843D01*
X0061747Y0229998D01*
X0061777Y0230153D01*
X0061810Y0230307D01*
X0061848Y0230460D01*
X0061889Y0230613D01*
X0061934Y0230764D01*
X0061983Y0230914D01*
X0062036Y0231062D01*
X0062092Y0231210D01*
X0062153Y0231355D01*
X0062216Y0231500D01*
X0062284Y0231642D01*
X0062355Y0231783D01*
X0062429Y0231922D01*
X0062507Y0232059D01*
X0062589Y0232194D01*
X0062673Y0232327D01*
X0062762Y0232458D01*
X0062853Y0232586D01*
X0062948Y0232713D01*
X0063045Y0232836D01*
X0063146Y0232958D01*
X0063250Y0233076D01*
X0063357Y0233192D01*
X0063467Y0233305D01*
X0063579Y0233416D01*
X0063695Y0233523D01*
X0063813Y0233628D01*
X0063933Y0233730D01*
X0064056Y0233828D01*
X0064182Y0233924D01*
X0064310Y0234016D01*
X0064440Y0234105D01*
X0064572Y0234191D01*
X0064707Y0234273D01*
X0064844Y0234352D01*
X0064982Y0234427D01*
X0065122Y0234499D01*
X0065265Y0234567D01*
X0065408Y0234632D01*
X0065554Y0234693D01*
X0065701Y0234750D01*
X0065849Y0234804D01*
X0065999Y0234854D01*
X0066149Y0234900D01*
X0066301Y0234942D01*
X0066454Y0234981D01*
X0066608Y0235015D01*
X0066763Y0235046D01*
X0066918Y0235072D01*
X0067074Y0235095D01*
X0067231Y0235114D01*
X0067388Y0235129D01*
X0067545Y0235140D01*
X0067703Y0235147D01*
X0067861Y0235150D01*
X0068018Y0235149D01*
X0068176Y0235144D01*
X0068333Y0235135D01*
X0068491Y0235122D01*
X0068647Y0235105D01*
X0068804Y0235084D01*
X0068959Y0235060D01*
X0069114Y0235031D01*
X0069269Y0234998D01*
X0069422Y0234962D01*
X0069575Y0234921D01*
X0069726Y0234877D01*
X0069876Y0234829D01*
X0070025Y0234778D01*
X0070173Y0234722D01*
X0070319Y0234663D01*
X0070464Y0234600D01*
X0070607Y0234533D01*
X0070748Y0234463D01*
X0070887Y0234390D01*
X0071025Y0234313D01*
X0071161Y0234232D01*
X0071294Y0234148D01*
X0071425Y0234061D01*
X0071554Y0233970D01*
X0071681Y0233876D01*
X0071806Y0233779D01*
X0071927Y0233679D01*
X0072047Y0233576D01*
X0072163Y0233470D01*
X0072277Y0233361D01*
X0072389Y0233249D01*
X0072497Y0233135D01*
X0072602Y0233017D01*
X0072705Y0232897D01*
X0072804Y0232775D01*
X0072900Y0232650D01*
X0072993Y0232522D01*
X0073083Y0232393D01*
X0073169Y0232261D01*
X0073253Y0232127D01*
X0073332Y0231991D01*
X0073409Y0231853D01*
X0073481Y0231713D01*
X0073550Y0231571D01*
X0073616Y0231428D01*
X0073678Y0231283D01*
X0073736Y0231136D01*
X0073791Y0230988D01*
X0073842Y0230839D01*
X0073889Y0230688D01*
X0073932Y0230537D01*
X0073971Y0230384D01*
X0074007Y0230230D01*
X0074038Y0230076D01*
X0074066Y0229921D01*
X0074090Y0229765D01*
X0074110Y0229608D01*
X0074126Y0229451D01*
X0074138Y0229294D01*
X0074146Y0229137D01*
X0074150Y0228979D01*
X0074150Y0228821D01*
X0074146Y0228663D01*
X0074138Y0228506D01*
X0074126Y0228349D01*
X0074110Y0228192D01*
X0074090Y0228035D01*
X0074066Y0227879D01*
X0074038Y0227724D01*
X0074007Y0227570D01*
X0073971Y0227416D01*
X0073932Y0227263D01*
X0073889Y0227112D01*
X0073842Y0226961D01*
X0073791Y0226812D01*
X0073736Y0226664D01*
X0073678Y0226517D01*
X0073616Y0226372D01*
X0073550Y0226229D01*
X0073481Y0226087D01*
X0073409Y0225947D01*
X0073332Y0225809D01*
X0073253Y0225673D01*
X0073169Y0225539D01*
X0073083Y0225407D01*
X0072993Y0225278D01*
X0072900Y0225150D01*
X0072804Y0225025D01*
X0072705Y0224903D01*
X0072602Y0224783D01*
X0072497Y0224665D01*
X0072389Y0224551D01*
X0072277Y0224439D01*
X0072163Y0224330D01*
X0072047Y0224224D01*
X0071927Y0224121D01*
X0071806Y0224021D01*
X0071681Y0223924D01*
X0071554Y0223830D01*
X0071425Y0223739D01*
X0071294Y0223652D01*
X0071161Y0223568D01*
X0071025Y0223487D01*
X0070887Y0223410D01*
X0070748Y0223337D01*
X0070607Y0223267D01*
X0070464Y0223200D01*
X0070319Y0223137D01*
X0070173Y0223078D01*
X0070025Y0223022D01*
X0069876Y0222971D01*
X0069726Y0222923D01*
X0069575Y0222879D01*
X0069422Y0222838D01*
X0069269Y0222802D01*
X0069114Y0222769D01*
X0068959Y0222740D01*
X0068804Y0222716D01*
X0068647Y0222695D01*
X0068491Y0222678D01*
X0068333Y0222665D01*
X0068176Y0222656D01*
X0068018Y0222651D01*
X0067861Y0222650D01*
X0067703Y0222653D01*
X0067545Y0222660D01*
X0067388Y0222671D01*
X0067231Y0222686D01*
X0067074Y0222705D01*
X0066918Y0222728D01*
X0066763Y0222754D01*
X0066608Y0222785D01*
X0066454Y0222819D01*
X0066301Y0222858D01*
X0066149Y0222900D01*
X0065999Y0222946D01*
X0065849Y0222996D01*
X0065701Y0223050D01*
X0065554Y0223107D01*
X0065408Y0223168D01*
X0065265Y0223233D01*
X0065122Y0223301D01*
X0064982Y0223373D01*
X0064844Y0223448D01*
X0064707Y0223527D01*
X0064572Y0223609D01*
X0064440Y0223695D01*
X0064310Y0223784D01*
X0064182Y0223876D01*
X0064056Y0223972D01*
X0063933Y0224070D01*
X0063813Y0224172D01*
X0063695Y0224277D01*
X0063579Y0224384D01*
X0063467Y0224495D01*
X0063357Y0224608D01*
X0063250Y0224724D01*
X0063146Y0224842D01*
X0063045Y0224964D01*
X0062948Y0225087D01*
X0062853Y0225214D01*
X0062762Y0225342D01*
X0062673Y0225473D01*
X0062589Y0225606D01*
X0062507Y0225741D01*
X0062429Y0225878D01*
X0062355Y0226017D01*
X0062284Y0226158D01*
X0062216Y0226300D01*
X0062153Y0226445D01*
X0062092Y0226590D01*
X0062036Y0226738D01*
X0061983Y0226886D01*
X0061934Y0227036D01*
X0061889Y0227187D01*
X0061848Y0227340D01*
X0061810Y0227493D01*
X0061777Y0227647D01*
X0061747Y0227802D01*
X0061721Y0227957D01*
X0061700Y0228114D01*
X0061682Y0228270D01*
X0061668Y0228427D01*
X0061658Y0228585D01*
X0061652Y0228742D01*
X0061650Y0228900D01*
D13*
X0081697Y0233740D02*
X0081697Y0234874D01*
X0082264Y0235442D01*
X0081697Y0233740D02*
X0082264Y0233173D01*
X0082831Y0233173D01*
X0085100Y0235442D01*
X0085100Y0233173D01*
X0316697Y0231331D02*
X0317264Y0232466D01*
X0318399Y0233600D01*
X0318399Y0231899D01*
X0318966Y0231331D01*
X0319533Y0231331D01*
X0320100Y0231899D01*
X0320100Y0233033D01*
X0319533Y0233600D01*
X0318399Y0233600D01*
X0318399Y0235015D02*
X0318399Y0237283D01*
X0316697Y0235582D01*
X0320100Y0235582D01*
X0318399Y0227283D02*
X0318399Y0225015D01*
X0318399Y0223600D02*
X0316697Y0223600D01*
X0316697Y0221331D01*
X0317831Y0221899D02*
X0317831Y0222466D01*
X0318399Y0223600D01*
X0319533Y0223600D02*
X0320100Y0223033D01*
X0320100Y0221899D01*
X0319533Y0221331D01*
X0318399Y0221331D01*
X0317831Y0221899D01*
X0316697Y0225582D02*
X0318399Y0227283D01*
X0320100Y0225582D02*
X0316697Y0225582D01*
X0318399Y0047283D02*
X0318399Y0045015D01*
X0318399Y0043600D02*
X0318399Y0041899D01*
X0318966Y0041331D01*
X0319533Y0041331D01*
X0320100Y0041899D01*
X0320100Y0043033D01*
X0319533Y0043600D01*
X0318399Y0043600D01*
X0317264Y0042466D01*
X0316697Y0041331D01*
X0316697Y0045582D02*
X0318399Y0047283D01*
X0320100Y0045582D02*
X0316697Y0045582D01*
X0318399Y0037283D02*
X0318399Y0035015D01*
X0318399Y0033600D02*
X0317831Y0032466D01*
X0317831Y0031899D01*
X0318399Y0031331D01*
X0319533Y0031331D01*
X0320100Y0031899D01*
X0320100Y0033033D01*
X0319533Y0033600D01*
X0318399Y0033600D02*
X0316697Y0033600D01*
X0316697Y0031331D01*
X0316697Y0035582D02*
X0318399Y0037283D01*
X0320100Y0035582D02*
X0316697Y0035582D01*
X0085100Y0035442D02*
X0085100Y0033173D01*
X0085100Y0034307D02*
X0081697Y0034307D01*
X0082831Y0035442D01*
X0082831Y0043173D02*
X0082264Y0043173D01*
X0081697Y0043740D01*
X0081697Y0044874D01*
X0082264Y0045442D01*
X0082831Y0043173D02*
X0085100Y0045442D01*
X0085100Y0043173D01*
M02*
