G75*
%MOIN*%
%OFA0B0*%
%FSLAX25Y25*%
%IPPOS*%
%LPD*%
%AMOC8*
5,1,8,0,0,1.08239X$1,22.5*
%
%ADD10C,0.00500*%
%ADD11C,0.06000*%
%ADD12OC8,0.06000*%
%ADD13C,0.23000*%
%ADD14C,0.00800*%
%ADD15C,0.01950*%
%ADD16C,0.01400*%
%ADD17C,0.02000*%
D10*
X0001250Y0030000D02*
X0001250Y0161850D01*
X0176100Y0161850D01*
X0176100Y0030000D01*
X0001250Y0030000D01*
D11*
X0086250Y0052000D02*
X0086250Y0058000D01*
X0096250Y0058000D02*
X0096250Y0052000D01*
X0111750Y0052000D02*
X0111750Y0058000D01*
X0121750Y0058000D02*
X0121750Y0052000D01*
X0151750Y0093000D02*
X0157750Y0093000D01*
X0157750Y0103000D02*
X0151750Y0103000D01*
X0151750Y0123000D02*
X0157750Y0123000D01*
X0157750Y0133000D02*
X0151750Y0133000D01*
D12*
X0047250Y0130500D03*
X0037250Y0130500D03*
X0027250Y0130500D03*
X0017250Y0130500D03*
X0017250Y0140500D03*
X0027250Y0140500D03*
X0037250Y0140500D03*
X0047250Y0140500D03*
X0047250Y0150500D03*
X0037250Y0150500D03*
X0027250Y0150500D03*
X0017250Y0150500D03*
X0017250Y0120500D03*
X0027250Y0120500D03*
X0037250Y0120500D03*
X0047250Y0120500D03*
X0047250Y0110500D03*
X0037250Y0110500D03*
X0027250Y0110500D03*
X0017250Y0110500D03*
X0017250Y0100500D03*
X0027250Y0100500D03*
X0037250Y0100500D03*
X0047250Y0100500D03*
X0047250Y0090500D03*
X0037250Y0090500D03*
X0027250Y0090500D03*
X0017250Y0090500D03*
X0017250Y0080500D03*
X0027250Y0080500D03*
X0037250Y0080500D03*
X0047250Y0080500D03*
X0047250Y0070500D03*
X0037250Y0070500D03*
X0027250Y0070500D03*
X0017250Y0070500D03*
X0017250Y0060500D03*
X0027250Y0060500D03*
X0037250Y0060500D03*
X0047250Y0060500D03*
X0047250Y0050500D03*
X0037250Y0050500D03*
X0027250Y0050500D03*
X0017250Y0050500D03*
X0017250Y0040500D03*
X0027250Y0040500D03*
X0037250Y0040500D03*
X0047250Y0040500D03*
D13*
X0153250Y0055500D03*
D14*
X0132750Y0055552D02*
X0116150Y0055552D01*
X0116150Y0054754D02*
X0132750Y0054754D01*
X0132750Y0053955D02*
X0116150Y0053955D01*
X0116150Y0053157D02*
X0132750Y0053157D01*
X0132750Y0052358D02*
X0116150Y0052358D01*
X0116150Y0051560D02*
X0132750Y0051560D01*
X0132750Y0050761D02*
X0115999Y0050761D01*
X0116150Y0051125D02*
X0116150Y0058875D01*
X0115480Y0060492D01*
X0114242Y0061730D01*
X0112625Y0062400D01*
X0110875Y0062400D01*
X0109258Y0061730D01*
X0108020Y0060492D01*
X0107350Y0058875D01*
X0107350Y0051125D01*
X0108020Y0049508D01*
X0109258Y0048270D01*
X0110875Y0047600D01*
X0112625Y0047600D01*
X0114242Y0048270D01*
X0115480Y0049508D01*
X0116150Y0051125D01*
X0115669Y0049963D02*
X0132750Y0049963D01*
X0132750Y0049164D02*
X0115137Y0049164D01*
X0114338Y0048366D02*
X0132750Y0048366D01*
X0132750Y0047567D02*
X0088650Y0047567D01*
X0088650Y0047023D02*
X0088650Y0048232D01*
X0088742Y0048270D01*
X0089980Y0049508D01*
X0090650Y0051125D01*
X0090650Y0058875D01*
X0089980Y0060492D01*
X0088742Y0061730D01*
X0087125Y0062400D01*
X0085375Y0062400D01*
X0083758Y0061730D01*
X0082520Y0060492D01*
X0081850Y0058875D01*
X0081850Y0051125D01*
X0082520Y0049508D01*
X0083692Y0048336D01*
X0072756Y0037400D01*
X0041250Y0037400D01*
X0041250Y0038277D01*
X0041650Y0038677D01*
X0041650Y0042323D01*
X0041250Y0042723D01*
X0041250Y0048277D01*
X0041650Y0048677D01*
X0041650Y0052323D01*
X0041250Y0052723D01*
X0041250Y0058277D01*
X0041650Y0058677D01*
X0041650Y0062323D01*
X0041250Y0062723D01*
X0041250Y0068277D01*
X0041650Y0068677D01*
X0041650Y0072323D01*
X0041250Y0072723D01*
X0041250Y0078277D01*
X0041650Y0078677D01*
X0041650Y0082323D01*
X0041250Y0082723D01*
X0041250Y0088277D01*
X0041650Y0088677D01*
X0041650Y0092323D01*
X0041250Y0092723D01*
X0041250Y0098277D01*
X0041650Y0098677D01*
X0041650Y0102323D01*
X0041250Y0102723D01*
X0041250Y0108277D01*
X0041650Y0108677D01*
X0041650Y0112323D01*
X0041250Y0112723D01*
X0041250Y0118277D01*
X0041650Y0118677D01*
X0041650Y0122323D01*
X0041250Y0122723D01*
X0041250Y0128277D01*
X0041650Y0128677D01*
X0041650Y0132323D01*
X0041250Y0132723D01*
X0041250Y0138277D01*
X0041650Y0138677D01*
X0041650Y0142323D01*
X0041250Y0142723D01*
X0041250Y0148277D01*
X0041650Y0148677D01*
X0041650Y0152323D01*
X0041250Y0152723D01*
X0041250Y0155500D01*
X0132250Y0155500D01*
X0132250Y0135500D01*
X0109609Y0135500D01*
X0110125Y0136016D01*
X0110125Y0137984D01*
X0108734Y0139375D01*
X0106766Y0139375D01*
X0106191Y0138800D01*
X0084004Y0138800D01*
X0082079Y0136875D01*
X0081266Y0136875D01*
X0079875Y0135484D01*
X0079875Y0133516D01*
X0081266Y0132125D01*
X0083234Y0132125D01*
X0084625Y0133516D01*
X0084625Y0134329D01*
X0085496Y0135200D01*
X0101250Y0135200D01*
X0101250Y0086500D01*
X0132750Y0086500D01*
X0132750Y0035000D01*
X0077144Y0035000D01*
X0088285Y0046141D01*
X0088650Y0047023D01*
X0088545Y0046769D02*
X0132750Y0046769D01*
X0132750Y0045970D02*
X0088114Y0045970D01*
X0087316Y0045172D02*
X0132750Y0045172D01*
X0132750Y0044373D02*
X0086517Y0044373D01*
X0085719Y0043575D02*
X0132750Y0043575D01*
X0132750Y0042776D02*
X0084920Y0042776D01*
X0084122Y0041978D02*
X0132750Y0041978D01*
X0132750Y0041179D02*
X0083323Y0041179D01*
X0082525Y0040381D02*
X0132750Y0040381D01*
X0132750Y0039582D02*
X0081726Y0039582D01*
X0080928Y0038784D02*
X0132750Y0038784D01*
X0132750Y0037985D02*
X0080129Y0037985D01*
X0079331Y0037187D02*
X0132750Y0037187D01*
X0132750Y0036388D02*
X0078532Y0036388D01*
X0077734Y0035590D02*
X0132750Y0035590D01*
X0109162Y0048366D02*
X0088838Y0048366D01*
X0089637Y0049164D02*
X0108363Y0049164D01*
X0107831Y0049963D02*
X0090169Y0049963D01*
X0090499Y0050761D02*
X0107501Y0050761D01*
X0107350Y0051560D02*
X0090650Y0051560D01*
X0090650Y0052358D02*
X0107350Y0052358D01*
X0107350Y0053157D02*
X0090650Y0053157D01*
X0090650Y0053955D02*
X0107350Y0053955D01*
X0107350Y0054754D02*
X0090650Y0054754D01*
X0090650Y0055552D02*
X0107350Y0055552D01*
X0107350Y0056351D02*
X0090650Y0056351D01*
X0090650Y0057149D02*
X0107350Y0057149D01*
X0107350Y0057948D02*
X0090650Y0057948D01*
X0090650Y0058746D02*
X0107350Y0058746D01*
X0107627Y0059545D02*
X0090373Y0059545D01*
X0090042Y0060343D02*
X0107958Y0060343D01*
X0108669Y0061142D02*
X0089331Y0061142D01*
X0088235Y0061940D02*
X0109765Y0061940D01*
X0113735Y0061940D02*
X0132750Y0061940D01*
X0132750Y0061142D02*
X0114831Y0061142D01*
X0115542Y0060343D02*
X0132750Y0060343D01*
X0132750Y0059545D02*
X0115873Y0059545D01*
X0116150Y0058746D02*
X0132750Y0058746D01*
X0132750Y0057948D02*
X0116150Y0057948D01*
X0116150Y0057149D02*
X0132750Y0057149D01*
X0132750Y0056351D02*
X0116150Y0056351D01*
X0132750Y0062739D02*
X0041250Y0062739D01*
X0041250Y0063537D02*
X0132750Y0063537D01*
X0132750Y0064336D02*
X0041250Y0064336D01*
X0041250Y0065134D02*
X0132750Y0065134D01*
X0132750Y0065933D02*
X0041250Y0065933D01*
X0041250Y0066732D02*
X0132750Y0066732D01*
X0132750Y0067530D02*
X0041250Y0067530D01*
X0041301Y0068329D02*
X0132750Y0068329D01*
X0132750Y0069127D02*
X0041650Y0069127D01*
X0041650Y0069926D02*
X0132750Y0069926D01*
X0132750Y0070724D02*
X0041650Y0070724D01*
X0041650Y0071523D02*
X0132750Y0071523D01*
X0132750Y0072321D02*
X0041650Y0072321D01*
X0041250Y0073120D02*
X0132750Y0073120D01*
X0132750Y0073918D02*
X0041250Y0073918D01*
X0041250Y0074717D02*
X0132750Y0074717D01*
X0132750Y0075515D02*
X0041250Y0075515D01*
X0041250Y0076314D02*
X0132750Y0076314D01*
X0132750Y0077112D02*
X0041250Y0077112D01*
X0041250Y0077911D02*
X0132750Y0077911D01*
X0132750Y0078709D02*
X0041650Y0078709D01*
X0041650Y0079508D02*
X0132750Y0079508D01*
X0132750Y0080306D02*
X0041650Y0080306D01*
X0041650Y0081105D02*
X0132750Y0081105D01*
X0132750Y0081903D02*
X0041650Y0081903D01*
X0041271Y0082702D02*
X0132750Y0082702D01*
X0132750Y0083500D02*
X0041250Y0083500D01*
X0041250Y0084299D02*
X0132750Y0084299D01*
X0132750Y0085097D02*
X0041250Y0085097D01*
X0041250Y0085896D02*
X0132750Y0085896D01*
X0101250Y0086694D02*
X0041250Y0086694D01*
X0041250Y0087493D02*
X0101250Y0087493D01*
X0101250Y0088291D02*
X0041264Y0088291D01*
X0041650Y0089090D02*
X0101250Y0089090D01*
X0101250Y0089888D02*
X0041650Y0089888D01*
X0041650Y0090687D02*
X0101250Y0090687D01*
X0101250Y0091485D02*
X0041650Y0091485D01*
X0041650Y0092284D02*
X0101250Y0092284D01*
X0101250Y0093082D02*
X0041250Y0093082D01*
X0041250Y0093881D02*
X0101250Y0093881D01*
X0101250Y0094679D02*
X0041250Y0094679D01*
X0041250Y0095478D02*
X0101250Y0095478D01*
X0101250Y0096276D02*
X0041250Y0096276D01*
X0041250Y0097075D02*
X0101250Y0097075D01*
X0101250Y0097873D02*
X0041250Y0097873D01*
X0041645Y0098672D02*
X0101250Y0098672D01*
X0101250Y0099470D02*
X0041650Y0099470D01*
X0041650Y0100269D02*
X0101250Y0100269D01*
X0101250Y0101068D02*
X0041650Y0101068D01*
X0041650Y0101866D02*
X0101250Y0101866D01*
X0101250Y0102665D02*
X0041308Y0102665D01*
X0041250Y0103463D02*
X0101250Y0103463D01*
X0101250Y0104262D02*
X0041250Y0104262D01*
X0041250Y0105060D02*
X0101250Y0105060D01*
X0101250Y0105859D02*
X0041250Y0105859D01*
X0041250Y0106657D02*
X0101250Y0106657D01*
X0101250Y0107456D02*
X0041250Y0107456D01*
X0041250Y0108254D02*
X0101250Y0108254D01*
X0101250Y0109053D02*
X0041650Y0109053D01*
X0041650Y0109851D02*
X0101250Y0109851D01*
X0101250Y0110650D02*
X0041650Y0110650D01*
X0041650Y0111448D02*
X0101250Y0111448D01*
X0101250Y0112247D02*
X0041650Y0112247D01*
X0041250Y0113045D02*
X0101250Y0113045D01*
X0101250Y0113844D02*
X0041250Y0113844D01*
X0041250Y0114642D02*
X0101250Y0114642D01*
X0101250Y0115441D02*
X0041250Y0115441D01*
X0041250Y0116239D02*
X0101250Y0116239D01*
X0101250Y0117038D02*
X0041250Y0117038D01*
X0041250Y0117836D02*
X0101250Y0117836D01*
X0101250Y0118635D02*
X0041607Y0118635D01*
X0041650Y0119433D02*
X0101250Y0119433D01*
X0101250Y0120232D02*
X0041650Y0120232D01*
X0041650Y0121030D02*
X0101250Y0121030D01*
X0101250Y0121829D02*
X0041650Y0121829D01*
X0041345Y0122627D02*
X0101250Y0122627D01*
X0101250Y0123426D02*
X0041250Y0123426D01*
X0041250Y0124224D02*
X0101250Y0124224D01*
X0101250Y0125023D02*
X0041250Y0125023D01*
X0041250Y0125821D02*
X0101250Y0125821D01*
X0101250Y0126620D02*
X0041250Y0126620D01*
X0041250Y0127418D02*
X0101250Y0127418D01*
X0101250Y0128217D02*
X0041250Y0128217D01*
X0041650Y0129015D02*
X0101250Y0129015D01*
X0101250Y0129814D02*
X0041650Y0129814D01*
X0041650Y0130612D02*
X0101250Y0130612D01*
X0101250Y0131411D02*
X0041650Y0131411D01*
X0041650Y0132209D02*
X0081182Y0132209D01*
X0080383Y0133008D02*
X0041250Y0133008D01*
X0041250Y0133806D02*
X0079875Y0133806D01*
X0079875Y0134605D02*
X0041250Y0134605D01*
X0041250Y0135403D02*
X0079875Y0135403D01*
X0080593Y0136202D02*
X0041250Y0136202D01*
X0041250Y0137001D02*
X0082205Y0137001D01*
X0083003Y0137799D02*
X0041250Y0137799D01*
X0041570Y0138598D02*
X0083802Y0138598D01*
X0084750Y0137000D02*
X0082250Y0134500D01*
X0084117Y0133008D02*
X0101250Y0133008D01*
X0101250Y0133806D02*
X0084625Y0133806D01*
X0084901Y0134605D02*
X0101250Y0134605D01*
X0101250Y0132209D02*
X0083318Y0132209D01*
X0084750Y0137000D02*
X0107750Y0137000D01*
X0110125Y0137001D02*
X0132250Y0137001D01*
X0132250Y0137799D02*
X0110125Y0137799D01*
X0109511Y0138598D02*
X0132250Y0138598D01*
X0132250Y0139396D02*
X0041650Y0139396D01*
X0041650Y0140195D02*
X0132250Y0140195D01*
X0132250Y0140993D02*
X0041650Y0140993D01*
X0041650Y0141792D02*
X0132250Y0141792D01*
X0132250Y0142590D02*
X0041382Y0142590D01*
X0041250Y0143389D02*
X0132250Y0143389D01*
X0132250Y0144187D02*
X0041250Y0144187D01*
X0041250Y0144986D02*
X0132250Y0144986D01*
X0132250Y0145784D02*
X0041250Y0145784D01*
X0041250Y0146583D02*
X0132250Y0146583D01*
X0132250Y0147381D02*
X0041250Y0147381D01*
X0041250Y0148180D02*
X0132250Y0148180D01*
X0132250Y0148978D02*
X0041650Y0148978D01*
X0041650Y0149777D02*
X0132250Y0149777D01*
X0132250Y0150575D02*
X0041650Y0150575D01*
X0041650Y0151374D02*
X0132250Y0151374D01*
X0132250Y0152172D02*
X0041650Y0152172D01*
X0041250Y0152971D02*
X0132250Y0152971D01*
X0132250Y0153769D02*
X0041250Y0153769D01*
X0041250Y0154568D02*
X0132250Y0154568D01*
X0132250Y0155366D02*
X0041250Y0155366D01*
X0110125Y0136202D02*
X0132250Y0136202D01*
X0084265Y0061940D02*
X0041650Y0061940D01*
X0041650Y0061142D02*
X0083169Y0061142D01*
X0082458Y0060343D02*
X0041650Y0060343D01*
X0041650Y0059545D02*
X0082127Y0059545D01*
X0081850Y0058746D02*
X0041650Y0058746D01*
X0041250Y0057948D02*
X0081850Y0057948D01*
X0081850Y0057149D02*
X0041250Y0057149D01*
X0041250Y0056351D02*
X0081850Y0056351D01*
X0081850Y0055552D02*
X0041250Y0055552D01*
X0041250Y0054754D02*
X0081850Y0054754D01*
X0081850Y0053955D02*
X0041250Y0053955D01*
X0041250Y0053157D02*
X0081850Y0053157D01*
X0081850Y0052358D02*
X0041614Y0052358D01*
X0041650Y0051560D02*
X0081850Y0051560D01*
X0082001Y0050761D02*
X0041650Y0050761D01*
X0041650Y0049963D02*
X0082331Y0049963D01*
X0082863Y0049164D02*
X0041650Y0049164D01*
X0041338Y0048366D02*
X0083662Y0048366D01*
X0082923Y0047567D02*
X0041250Y0047567D01*
X0041250Y0046769D02*
X0082125Y0046769D01*
X0081326Y0045970D02*
X0041250Y0045970D01*
X0041250Y0045172D02*
X0080528Y0045172D01*
X0079729Y0044373D02*
X0041250Y0044373D01*
X0041250Y0043575D02*
X0078931Y0043575D01*
X0078132Y0042776D02*
X0041250Y0042776D01*
X0041650Y0041978D02*
X0077334Y0041978D01*
X0076535Y0041179D02*
X0041650Y0041179D01*
X0041650Y0040381D02*
X0075737Y0040381D01*
X0074938Y0039582D02*
X0041650Y0039582D01*
X0041650Y0038784D02*
X0074140Y0038784D01*
X0073341Y0037985D02*
X0041250Y0037985D01*
D15*
X0092250Y0100000D03*
X0097250Y0100000D03*
X0097250Y0107000D03*
X0097250Y0111000D03*
X0097250Y0115500D03*
X0097250Y0119500D03*
X0092250Y0119500D03*
X0092250Y0115500D03*
X0092250Y0111000D03*
X0092250Y0107000D03*
X0112250Y0123000D03*
X0116250Y0123000D03*
X0116250Y0127500D03*
X0111750Y0127500D03*
X0121250Y0127500D03*
X0107750Y0137000D03*
X0097250Y0125500D03*
X0092250Y0125500D03*
X0082250Y0134500D03*
X0116250Y0103000D03*
X0119250Y0100000D03*
X0121750Y0096500D03*
X0121750Y0093000D03*
X0127250Y0039000D03*
D16*
X0132250Y0092000D02*
X0103750Y0092000D01*
X0103750Y0132500D01*
X0132250Y0132500D01*
X0132250Y0092000D01*
X0132250Y0092933D02*
X0103750Y0092933D01*
X0103750Y0094332D02*
X0132250Y0094332D01*
X0132250Y0095730D02*
X0103750Y0095730D01*
X0103750Y0097129D02*
X0132250Y0097129D01*
X0132250Y0098527D02*
X0103750Y0098527D01*
X0103750Y0099926D02*
X0132250Y0099926D01*
X0132250Y0101324D02*
X0103750Y0101324D01*
X0103750Y0102723D02*
X0132250Y0102723D01*
X0132250Y0104121D02*
X0103750Y0104121D01*
X0103750Y0105520D02*
X0132250Y0105520D01*
X0132250Y0106918D02*
X0103750Y0106918D01*
X0103750Y0108317D02*
X0132250Y0108317D01*
X0132250Y0109715D02*
X0103750Y0109715D01*
X0103750Y0111114D02*
X0132250Y0111114D01*
X0132250Y0112512D02*
X0103750Y0112512D01*
X0103750Y0113911D02*
X0132250Y0113911D01*
X0132250Y0115309D02*
X0103750Y0115309D01*
X0103750Y0116708D02*
X0132250Y0116708D01*
X0132250Y0118106D02*
X0103750Y0118106D01*
X0103750Y0119505D02*
X0132250Y0119505D01*
X0132250Y0120903D02*
X0103750Y0120903D01*
X0103750Y0122302D02*
X0132250Y0122302D01*
X0132250Y0123700D02*
X0103750Y0123700D01*
X0103750Y0125099D02*
X0132250Y0125099D01*
X0132250Y0126497D02*
X0103750Y0126497D01*
X0103750Y0127896D02*
X0132250Y0127896D01*
X0132250Y0129294D02*
X0103750Y0129294D01*
X0103750Y0130693D02*
X0132250Y0130693D01*
X0132250Y0132091D02*
X0103750Y0132091D01*
D17*
X0027250Y0130500D02*
X0027250Y0120500D01*
X0027250Y0110500D01*
X0027250Y0100500D01*
X0027250Y0090500D01*
X0027250Y0080500D01*
X0027250Y0070500D01*
X0027250Y0060500D01*
X0027250Y0050500D01*
X0027250Y0040500D01*
X0032750Y0035000D01*
X0073750Y0035000D01*
X0086250Y0047500D01*
X0086250Y0055000D01*
X0027250Y0130500D02*
X0027250Y0140500D01*
X0027250Y0150500D01*
M02*
