G75*
%MOIN*%
%OFA0B0*%
%FSLAX25Y25*%
%IPPOS*%
%LPD*%
%AMOC8*
5,1,8,0,0,1.08239X$1,22.5*
%
%ADD10C,0.00500*%
%ADD11R,0.03937X0.01378*%
%ADD12R,0.11811X0.19685*%
%ADD13R,0.07098X0.06299*%
%ADD14R,0.02756X0.03543*%
%ADD15R,0.03543X0.02756*%
%ADD16R,0.10039X0.10630*%
%ADD17R,0.03150X0.03150*%
D10*
X0001250Y0030000D02*
X0001250Y0161850D01*
X0176100Y0161850D01*
X0176100Y0030000D01*
X0001250Y0030000D01*
D11*
X0082594Y0096366D03*
X0082594Y0098925D03*
X0082594Y0101484D03*
X0082594Y0104043D03*
X0082594Y0106602D03*
X0082594Y0109161D03*
X0082594Y0111720D03*
X0082594Y0114280D03*
X0082594Y0116839D03*
X0082594Y0119398D03*
X0082594Y0121957D03*
X0082594Y0124516D03*
X0082594Y0127075D03*
X0082594Y0129634D03*
X0106906Y0129634D03*
X0106906Y0127075D03*
X0106906Y0124516D03*
X0106906Y0121957D03*
X0106906Y0119398D03*
X0106906Y0116839D03*
X0106906Y0114280D03*
X0106906Y0111720D03*
X0106906Y0109161D03*
X0106906Y0106602D03*
X0106906Y0104043D03*
X0106906Y0101484D03*
X0106906Y0098925D03*
X0106906Y0096366D03*
D12*
X0094750Y0113000D03*
D13*
X0066750Y0120402D03*
X0066750Y0131598D03*
X0129250Y0130598D03*
X0129250Y0119402D03*
X0129250Y0106598D03*
X0129250Y0095402D03*
D14*
X0120309Y0090000D03*
X0120309Y0085000D03*
X0115191Y0085000D03*
X0115191Y0090000D03*
X0110309Y0090000D03*
X0105191Y0090000D03*
D15*
X0132250Y0057059D03*
X0132250Y0051941D03*
X0076250Y0049941D03*
X0076250Y0055059D03*
X0112250Y0131941D03*
X0117250Y0131941D03*
X0122250Y0131941D03*
X0122250Y0137059D03*
X0117250Y0137059D03*
X0112250Y0137059D03*
X0075750Y0138059D03*
X0075750Y0132941D03*
D16*
X0100270Y0073000D03*
X0125230Y0073000D03*
D17*
X0132250Y0044953D03*
X0132250Y0039047D03*
X0076250Y0039047D03*
X0076250Y0044953D03*
M02*
