%
M48
M72
T01C0.0130
T02C0.0400
T03C0.1181
%
T01
X12175Y9300
X12175Y9650
X11925Y10000
X11625Y10300
X9725Y10000
X9225Y10000
X9225Y10700
X9225Y11100
X9225Y11550
X9225Y11950
X9725Y11950
X9725Y11550
X9725Y11100
X9725Y10700
X11225Y12300
X11625Y12300
X11625Y12750
X11175Y12750
X12125Y12750
X10775Y13700
X9725Y12550
X9225Y12550
X8225Y13450
X12725Y3900
T02
X1725Y4050
X2725Y4050
X3725Y4050
X4725Y4050
X4725Y5050
X3725Y5050
X2725Y5050
X1725Y5050
X1725Y6050
X2725Y6050
X3725Y6050
X4725Y6050
X4725Y7050
X3725Y7050
X2725Y7050
X1725Y7050
X1725Y8050
X2725Y8050
X3725Y8050
X4725Y8050
X4725Y9050
X3725Y9050
X2725Y9050
X1725Y9050
X1725Y10050
X2725Y10050
X3725Y10050
X4725Y10050
X4725Y11050
X3725Y11050
X2725Y11050
X1725Y11050
X1725Y12050
X2725Y12050
X3725Y12050
X4725Y12050
X4725Y13050
X3725Y13050
X2725Y13050
X1725Y13050
X1725Y14050
X2725Y14050
X3725Y14050
X4725Y14050
X4725Y15050
X3725Y15050
X2725Y15050
X1725Y15050
X8625Y5500
X9625Y5500
X11175Y5500
X12175Y5500
X15475Y9300
X15475Y10300
X15475Y12300
X15475Y13300
T03
X15325Y5550
M30
