G75*
%MOIN*%
%OFA0B0*%
%FSLAX25Y25*%
%IPPOS*%
%LPD*%
%AMOC8*
5,1,8,0,0,1.08239X$1,22.5*
%
%ADD10C,0.00500*%
%ADD11C,0.00300*%
%ADD12C,0.03157*%
%ADD13C,0.00600*%
%ADD14C,0.01000*%
%ADD15C,0.00700*%
%ADD16C,0.00800*%
%ADD17C,0.00100*%
%ADD18R,0.00591X0.01181*%
%ADD19R,0.01181X0.01181*%
D10*
X0001250Y0030000D02*
X0001250Y0161850D01*
X0176100Y0161850D01*
X0176100Y0030000D01*
X0001250Y0030000D01*
X0033996Y0040751D02*
X0038500Y0040751D01*
X0038500Y0039250D02*
X0038500Y0042253D01*
X0035497Y0039250D02*
X0033996Y0040751D01*
X0010500Y0145750D02*
X0007497Y0148753D01*
X0006747Y0148753D01*
X0005996Y0148002D01*
X0005996Y0146501D01*
X0006747Y0145750D01*
X0010500Y0145750D02*
X0010500Y0148753D01*
X0008248Y0150354D02*
X0008248Y0153356D01*
X0005996Y0152606D02*
X0008248Y0150354D01*
X0010500Y0152606D02*
X0005996Y0152606D01*
D11*
X0053400Y0143585D02*
X0053400Y0141650D01*
X0055335Y0141650D02*
X0055335Y0143101D01*
X0054851Y0143585D01*
X0053400Y0143585D01*
X0056347Y0143585D02*
X0056830Y0143101D01*
X0057798Y0143101D01*
X0058281Y0142617D01*
X0058281Y0142134D01*
X0057798Y0141650D01*
X0056830Y0141650D01*
X0056347Y0142134D01*
X0056347Y0143585D02*
X0056347Y0144069D01*
X0056830Y0144552D01*
X0057798Y0144552D01*
X0058281Y0144069D01*
X0059293Y0144552D02*
X0059777Y0144552D01*
X0059777Y0141650D01*
X0059293Y0141650D02*
X0060261Y0141650D01*
X0061257Y0142134D02*
X0061257Y0143101D01*
X0061741Y0143585D01*
X0062709Y0143585D01*
X0063192Y0143101D01*
X0063192Y0142617D01*
X0061257Y0142617D01*
X0061257Y0142134D02*
X0061741Y0141650D01*
X0062709Y0141650D01*
X0064204Y0142134D02*
X0064204Y0143101D01*
X0064688Y0143585D01*
X0065655Y0143585D01*
X0066139Y0143101D01*
X0066139Y0142617D01*
X0064204Y0142617D01*
X0064204Y0142134D02*
X0064688Y0141650D01*
X0065655Y0141650D01*
X0067150Y0141650D02*
X0068602Y0141650D01*
X0069085Y0142134D01*
X0069085Y0143101D01*
X0068602Y0143585D01*
X0067150Y0143585D01*
X0067150Y0140683D01*
X0068134Y0138569D02*
X0068134Y0136634D01*
X0068618Y0136150D01*
X0068618Y0138085D02*
X0067650Y0138085D01*
X0066639Y0138085D02*
X0066639Y0136150D01*
X0065188Y0136150D01*
X0064704Y0136634D01*
X0064704Y0138085D01*
X0063223Y0139052D02*
X0062740Y0139052D01*
X0063223Y0139052D02*
X0063223Y0136150D01*
X0062740Y0136150D02*
X0063707Y0136150D01*
X0061728Y0136150D02*
X0061728Y0137601D01*
X0061244Y0138085D01*
X0060277Y0138085D01*
X0060277Y0137117D02*
X0061728Y0137117D01*
X0061728Y0136150D02*
X0060277Y0136150D01*
X0059793Y0136634D01*
X0060277Y0137117D01*
X0058781Y0139052D02*
X0056847Y0139052D01*
X0056847Y0136150D01*
X0055835Y0136150D02*
X0055835Y0137601D01*
X0055351Y0138085D01*
X0053900Y0138085D01*
X0053900Y0136150D01*
X0056847Y0137601D02*
X0057814Y0137601D01*
X0059181Y0126031D02*
X0059665Y0126031D01*
X0060149Y0125548D01*
X0060633Y0126031D01*
X0061116Y0126031D01*
X0061600Y0125548D01*
X0061600Y0124580D01*
X0061116Y0124097D01*
X0061600Y0123085D02*
X0060633Y0122117D01*
X0060633Y0122601D02*
X0060633Y0121150D01*
X0061600Y0121150D02*
X0058698Y0121150D01*
X0058698Y0122601D01*
X0059181Y0123085D01*
X0060149Y0123085D01*
X0060633Y0122601D01*
X0059181Y0124097D02*
X0058698Y0124580D01*
X0058698Y0125548D01*
X0059181Y0126031D01*
X0060149Y0125548D02*
X0060149Y0125064D01*
X0059793Y0116552D02*
X0059793Y0113650D01*
X0061728Y0113650D01*
X0062740Y0114134D02*
X0063223Y0113650D01*
X0064191Y0113650D01*
X0064675Y0114134D01*
X0065686Y0113650D02*
X0065686Y0115585D01*
X0066654Y0116552D01*
X0067621Y0115585D01*
X0067621Y0113650D01*
X0067621Y0115101D02*
X0065686Y0115101D01*
X0064675Y0116069D02*
X0064191Y0116552D01*
X0063223Y0116552D01*
X0062740Y0116069D01*
X0062740Y0114134D01*
X0060761Y0115101D02*
X0059793Y0115101D01*
X0058781Y0114134D02*
X0058298Y0113650D01*
X0056847Y0113650D01*
X0056847Y0116552D01*
X0058298Y0116552D01*
X0058781Y0116069D01*
X0058781Y0114134D01*
X0058298Y0111052D02*
X0056847Y0111052D01*
X0056847Y0108150D01*
X0058298Y0108150D01*
X0058781Y0108634D01*
X0058781Y0110569D01*
X0058298Y0111052D01*
X0059793Y0111052D02*
X0059793Y0108150D01*
X0061728Y0108150D01*
X0062740Y0108634D02*
X0063223Y0108150D01*
X0064191Y0108150D01*
X0064675Y0108634D01*
X0065686Y0108150D02*
X0065686Y0110085D01*
X0066654Y0111052D01*
X0067621Y0110085D01*
X0067621Y0108150D01*
X0067621Y0109601D02*
X0065686Y0109601D01*
X0064675Y0110569D02*
X0064191Y0111052D01*
X0063223Y0111052D01*
X0062740Y0110569D01*
X0062740Y0108634D01*
X0060761Y0109601D02*
X0059793Y0109601D01*
X0059793Y0111052D02*
X0061728Y0111052D01*
X0061728Y0116552D02*
X0059793Y0116552D01*
X0055835Y0116069D02*
X0055835Y0115585D01*
X0055351Y0115101D01*
X0053900Y0115101D01*
X0053900Y0113650D02*
X0055351Y0113650D01*
X0055835Y0114134D01*
X0055835Y0114617D01*
X0055351Y0115101D01*
X0055835Y0116069D02*
X0055351Y0116552D01*
X0053900Y0116552D01*
X0053900Y0113650D01*
X0054867Y0111052D02*
X0055835Y0110085D01*
X0055835Y0108150D01*
X0055835Y0109601D02*
X0053900Y0109601D01*
X0053900Y0110085D02*
X0054867Y0111052D01*
X0053900Y0110085D02*
X0053900Y0108150D01*
X0054400Y0102552D02*
X0055851Y0102552D01*
X0056335Y0102069D01*
X0056335Y0101585D01*
X0055851Y0101101D01*
X0054400Y0101101D01*
X0054400Y0099650D02*
X0055851Y0099650D01*
X0056335Y0100134D01*
X0056335Y0100617D01*
X0055851Y0101101D01*
X0057347Y0101101D02*
X0058314Y0101101D01*
X0057347Y0099650D02*
X0059281Y0099650D01*
X0060293Y0099650D02*
X0060293Y0102552D01*
X0062228Y0099650D01*
X0062228Y0102552D01*
X0059281Y0102552D02*
X0057347Y0102552D01*
X0057347Y0099650D01*
X0054400Y0099650D02*
X0054400Y0102552D01*
X0054400Y0092552D02*
X0055851Y0092552D01*
X0056335Y0092069D01*
X0056335Y0091585D01*
X0055851Y0091101D01*
X0054400Y0091101D01*
X0054400Y0089650D02*
X0055851Y0089650D01*
X0056335Y0090134D01*
X0056335Y0090617D01*
X0055851Y0091101D01*
X0057347Y0090617D02*
X0058798Y0090617D01*
X0059281Y0091101D01*
X0059281Y0092069D01*
X0058798Y0092552D01*
X0057347Y0092552D01*
X0057347Y0089650D01*
X0060293Y0089650D02*
X0060293Y0092552D01*
X0060293Y0091101D02*
X0062228Y0091101D01*
X0062228Y0092552D02*
X0062228Y0089650D01*
X0062228Y0082052D02*
X0062228Y0079150D01*
X0060293Y0082052D01*
X0060293Y0079150D01*
X0059281Y0079150D02*
X0057347Y0079150D01*
X0057347Y0082052D01*
X0059281Y0082052D01*
X0058314Y0080601D02*
X0057347Y0080601D01*
X0056335Y0080601D02*
X0054400Y0080601D01*
X0054400Y0081085D02*
X0055367Y0082052D01*
X0056335Y0081085D01*
X0056335Y0079150D01*
X0054400Y0079150D02*
X0054400Y0081085D01*
X0054400Y0089650D02*
X0054400Y0092552D01*
X0069600Y0108150D02*
X0069600Y0109601D01*
X0070568Y0110569D01*
X0070568Y0111052D01*
X0069600Y0109601D02*
X0068633Y0110569D01*
X0068633Y0111052D01*
X0069600Y0113650D02*
X0069600Y0115101D01*
X0070568Y0116069D01*
X0070568Y0116552D01*
X0069600Y0115101D02*
X0068633Y0116069D01*
X0068633Y0116552D01*
X0088141Y0116117D02*
X0088141Y0117569D01*
X0088625Y0118052D01*
X0089592Y0118052D01*
X0090076Y0117569D01*
X0090076Y0116117D01*
X0091043Y0116117D02*
X0088141Y0116117D01*
X0091043Y0115106D02*
X0091043Y0113171D01*
X0091043Y0114138D02*
X0088141Y0114138D01*
X0089108Y0113171D01*
X0089108Y0112159D02*
X0089592Y0111676D01*
X0089592Y0110708D01*
X0089108Y0110224D01*
X0088625Y0110224D01*
X0088141Y0110708D01*
X0088141Y0111676D01*
X0088625Y0112159D01*
X0089108Y0112159D01*
X0089592Y0111676D02*
X0090076Y0112159D01*
X0090560Y0112159D01*
X0091043Y0111676D01*
X0091043Y0110708D01*
X0090560Y0110224D01*
X0090076Y0110224D01*
X0089592Y0110708D01*
X0089108Y0109213D02*
X0089592Y0108729D01*
X0089592Y0107762D01*
X0089108Y0107278D01*
X0088625Y0107278D01*
X0088141Y0107762D01*
X0088141Y0108729D01*
X0088625Y0109213D01*
X0089108Y0109213D01*
X0089592Y0108729D02*
X0090076Y0109213D01*
X0090560Y0109213D01*
X0091043Y0108729D01*
X0091043Y0107762D01*
X0090560Y0107278D01*
X0090076Y0107278D01*
X0089592Y0107762D01*
X0089108Y0106266D02*
X0089592Y0105783D01*
X0089592Y0104815D01*
X0089108Y0104331D01*
X0088625Y0104331D01*
X0088141Y0104815D01*
X0088141Y0105783D01*
X0088625Y0106266D01*
X0089108Y0106266D01*
X0089592Y0105783D02*
X0090076Y0106266D01*
X0090560Y0106266D01*
X0091043Y0105783D01*
X0091043Y0104815D01*
X0090560Y0104331D01*
X0090076Y0104331D01*
X0089592Y0104815D01*
X0090076Y0103320D02*
X0088141Y0103320D01*
X0090076Y0103320D02*
X0091043Y0102352D01*
X0090076Y0101385D01*
X0088141Y0101385D01*
X0088625Y0100373D02*
X0089592Y0100373D01*
X0090076Y0099890D01*
X0090076Y0098438D01*
X0091043Y0098438D02*
X0088141Y0098438D01*
X0088141Y0099890D01*
X0088625Y0100373D01*
X0090076Y0099406D02*
X0091043Y0100373D01*
X0090560Y0097427D02*
X0088625Y0097427D01*
X0088141Y0096943D01*
X0088141Y0095492D01*
X0091043Y0095492D01*
X0091043Y0096943D01*
X0090560Y0097427D01*
X0094260Y0092496D02*
X0094260Y0090077D01*
X0094744Y0089593D01*
X0095712Y0089593D01*
X0096195Y0090077D01*
X0096195Y0092496D01*
X0097207Y0092012D02*
X0097691Y0092496D01*
X0098658Y0092496D01*
X0099142Y0092012D01*
X0098658Y0091045D02*
X0097691Y0091045D01*
X0097207Y0091528D01*
X0097207Y0092012D01*
X0098174Y0092980D02*
X0098174Y0089110D01*
X0097691Y0089593D02*
X0098658Y0089593D01*
X0099142Y0090077D01*
X0099142Y0090561D01*
X0098658Y0091045D01*
X0100153Y0091528D02*
X0101121Y0092496D01*
X0101121Y0089593D01*
X0102088Y0089593D02*
X0100153Y0089593D01*
X0097691Y0089593D02*
X0097207Y0090077D01*
X0105400Y0087069D02*
X0105400Y0085134D01*
X0105884Y0084650D01*
X0106851Y0084650D01*
X0107335Y0085134D01*
X0108347Y0085134D02*
X0108830Y0084650D01*
X0109798Y0084650D01*
X0110281Y0085134D01*
X0110281Y0085617D01*
X0109798Y0086101D01*
X0109314Y0086101D01*
X0109798Y0086101D02*
X0110281Y0086585D01*
X0110281Y0087069D01*
X0109798Y0087552D01*
X0108830Y0087552D01*
X0108347Y0087069D01*
X0107335Y0087069D02*
X0106851Y0087552D01*
X0105884Y0087552D01*
X0105400Y0087069D01*
X0114507Y0081869D02*
X0114507Y0079934D01*
X0114991Y0079450D01*
X0115958Y0079450D01*
X0116442Y0079934D01*
X0117453Y0079934D02*
X0117937Y0079450D01*
X0118905Y0079450D01*
X0119388Y0079934D01*
X0119388Y0080901D01*
X0118905Y0081385D01*
X0118421Y0081385D01*
X0117453Y0080901D01*
X0117453Y0082352D01*
X0119388Y0082352D01*
X0116442Y0081869D02*
X0115958Y0082352D01*
X0114991Y0082352D01*
X0114507Y0081869D01*
X0115884Y0092650D02*
X0116851Y0092650D01*
X0117335Y0093134D01*
X0118347Y0094101D02*
X0120281Y0094101D01*
X0119798Y0092650D02*
X0119798Y0095552D01*
X0118347Y0094101D01*
X0117335Y0095069D02*
X0116851Y0095552D01*
X0115884Y0095552D01*
X0115400Y0095069D01*
X0115400Y0093134D01*
X0115884Y0092650D01*
X0134398Y0100257D02*
X0134398Y0101708D01*
X0134881Y0102192D01*
X0135849Y0102192D01*
X0136333Y0101708D01*
X0136333Y0100257D01*
X0137300Y0100257D02*
X0134398Y0100257D01*
X0136333Y0101224D02*
X0137300Y0102192D01*
X0136816Y0103203D02*
X0137300Y0103687D01*
X0137300Y0104655D01*
X0136816Y0105138D01*
X0135849Y0105138D01*
X0135365Y0104655D01*
X0135365Y0104171D01*
X0135849Y0103203D01*
X0134398Y0103203D01*
X0134398Y0105138D01*
X0124100Y0120150D02*
X0121198Y0120150D01*
X0121198Y0121601D01*
X0121681Y0122085D01*
X0122649Y0122085D01*
X0123133Y0121601D01*
X0123133Y0120150D01*
X0123133Y0121117D02*
X0124100Y0122085D01*
X0122649Y0123097D02*
X0122649Y0125031D01*
X0124100Y0124548D02*
X0121198Y0124548D01*
X0122649Y0123097D01*
X0123116Y0139650D02*
X0121181Y0139650D01*
X0120698Y0140134D01*
X0120698Y0141101D01*
X0121181Y0141585D01*
X0121181Y0142597D02*
X0120698Y0143080D01*
X0120698Y0144048D01*
X0121181Y0144531D01*
X0121665Y0144531D01*
X0123600Y0142597D01*
X0123600Y0144531D01*
X0123116Y0141585D02*
X0123600Y0141101D01*
X0123600Y0140134D01*
X0123116Y0139650D01*
X0118300Y0139257D02*
X0115398Y0139257D01*
X0115398Y0140708D01*
X0115881Y0141192D01*
X0116849Y0141192D01*
X0117333Y0140708D01*
X0117333Y0139257D01*
X0117333Y0140224D02*
X0118300Y0141192D01*
X0118300Y0142203D02*
X0118300Y0144138D01*
X0118300Y0143171D02*
X0115398Y0143171D01*
X0116365Y0142203D01*
X0113600Y0142597D02*
X0113600Y0144531D01*
X0113600Y0142597D02*
X0111665Y0144531D01*
X0111181Y0144531D01*
X0110698Y0144048D01*
X0110698Y0143080D01*
X0111181Y0142597D01*
X0111181Y0141585D02*
X0110698Y0141101D01*
X0110698Y0139650D01*
X0113600Y0139650D01*
X0112633Y0139650D02*
X0112633Y0141101D01*
X0112149Y0141585D01*
X0111181Y0141585D01*
X0112633Y0140617D02*
X0113600Y0141585D01*
X0091043Y0129838D02*
X0090076Y0128871D01*
X0090076Y0129355D02*
X0090076Y0127903D01*
X0091043Y0127903D02*
X0088141Y0127903D01*
X0088141Y0129355D01*
X0088625Y0129838D01*
X0089592Y0129838D01*
X0090076Y0129355D01*
X0089592Y0126892D02*
X0090076Y0126408D01*
X0090076Y0124957D01*
X0091043Y0124957D02*
X0088141Y0124957D01*
X0088141Y0126408D01*
X0088625Y0126892D01*
X0089592Y0126892D01*
X0091043Y0123945D02*
X0088141Y0123945D01*
X0088141Y0122010D02*
X0091043Y0122010D01*
X0090076Y0122978D01*
X0091043Y0123945D01*
X0089592Y0120999D02*
X0090076Y0120515D01*
X0090076Y0119064D01*
X0091043Y0119064D02*
X0088141Y0119064D01*
X0088141Y0120515D01*
X0088625Y0120999D01*
X0089592Y0120999D01*
X0077388Y0140450D02*
X0075453Y0140450D01*
X0076421Y0140450D02*
X0076421Y0143352D01*
X0075453Y0142385D01*
X0074442Y0142869D02*
X0073958Y0143352D01*
X0072991Y0143352D01*
X0072507Y0142869D01*
X0072507Y0140934D01*
X0072991Y0140450D01*
X0073958Y0140450D01*
X0074442Y0140934D01*
X0063240Y0149650D02*
X0063240Y0152552D01*
X0065175Y0152552D01*
X0064207Y0151101D02*
X0063240Y0151101D01*
X0062228Y0152552D02*
X0060293Y0152552D01*
X0060293Y0149650D01*
X0059281Y0150134D02*
X0058798Y0149650D01*
X0057830Y0149650D01*
X0057347Y0150134D01*
X0057347Y0152069D01*
X0057830Y0152552D01*
X0058798Y0152552D01*
X0059281Y0152069D01*
X0059281Y0150134D01*
X0060293Y0151101D02*
X0061261Y0151101D01*
X0056335Y0152552D02*
X0054400Y0152552D01*
X0055367Y0152552D02*
X0055367Y0149650D01*
X0143292Y0136565D02*
X0146194Y0136565D01*
X0146194Y0135598D02*
X0146194Y0137533D01*
X0144259Y0135598D02*
X0143292Y0136565D01*
X0143775Y0134586D02*
X0144743Y0134586D01*
X0145227Y0134102D01*
X0145227Y0132651D01*
X0146194Y0132651D02*
X0143292Y0132651D01*
X0143292Y0134102D01*
X0143775Y0134586D01*
X0145227Y0133619D02*
X0146194Y0134586D01*
X0145710Y0131640D02*
X0143775Y0131640D01*
X0143292Y0131156D01*
X0143292Y0130188D01*
X0143775Y0129705D01*
X0145710Y0129705D01*
X0146194Y0130188D01*
X0146194Y0131156D01*
X0145710Y0131640D01*
X0143292Y0128693D02*
X0143292Y0126758D01*
X0143292Y0127726D02*
X0146194Y0127726D01*
X0145710Y0125746D02*
X0143775Y0125746D01*
X0143292Y0125263D01*
X0143292Y0124295D01*
X0143775Y0123812D01*
X0145710Y0123812D01*
X0146194Y0124295D01*
X0146194Y0125263D01*
X0145710Y0125746D01*
X0146194Y0122800D02*
X0143292Y0122800D01*
X0144259Y0121832D01*
X0143292Y0120865D01*
X0146194Y0120865D01*
X0090813Y0067447D02*
X0090813Y0064544D01*
X0091780Y0064544D02*
X0089845Y0064544D01*
X0088834Y0065512D02*
X0088834Y0067447D01*
X0089845Y0066479D02*
X0090813Y0067447D01*
X0088834Y0065512D02*
X0087866Y0064544D01*
X0086899Y0065512D01*
X0086899Y0067447D01*
X0085887Y0066963D02*
X0085887Y0066479D01*
X0085404Y0065995D01*
X0085887Y0065512D01*
X0085887Y0065028D01*
X0085404Y0064544D01*
X0084436Y0064544D01*
X0083952Y0065028D01*
X0084920Y0065995D02*
X0085404Y0065995D01*
X0085887Y0066963D02*
X0085404Y0067447D01*
X0084436Y0067447D01*
X0083952Y0066963D01*
X0082941Y0065995D02*
X0081006Y0065995D01*
X0081973Y0065028D02*
X0081973Y0066963D01*
X0071181Y0055031D02*
X0073116Y0053097D01*
X0073600Y0053097D01*
X0073600Y0052085D02*
X0072633Y0051117D01*
X0072633Y0051601D02*
X0072633Y0050150D01*
X0073600Y0050150D02*
X0070698Y0050150D01*
X0070698Y0051601D01*
X0071181Y0052085D01*
X0072149Y0052085D01*
X0072633Y0051601D01*
X0070698Y0053097D02*
X0070698Y0055031D01*
X0071181Y0055031D01*
X0064207Y0052552D02*
X0064207Y0049650D01*
X0063240Y0049650D02*
X0065175Y0049650D01*
X0063240Y0051585D02*
X0064207Y0052552D01*
X0062228Y0052069D02*
X0062228Y0050134D01*
X0061744Y0049650D01*
X0060777Y0049650D01*
X0060293Y0050134D01*
X0060293Y0052069D01*
X0060777Y0052552D01*
X0061744Y0052552D01*
X0062228Y0052069D01*
X0061261Y0050617D02*
X0062228Y0049650D01*
X0059281Y0049650D02*
X0058314Y0050617D01*
X0058798Y0050617D02*
X0057347Y0050617D01*
X0057347Y0049650D02*
X0057347Y0052552D01*
X0058798Y0052552D01*
X0059281Y0052069D01*
X0059281Y0051101D01*
X0058798Y0050617D01*
X0056335Y0052552D02*
X0054400Y0052552D01*
X0055367Y0052552D02*
X0055367Y0049650D01*
X0055835Y0042052D02*
X0053900Y0042052D01*
X0054867Y0042052D02*
X0054867Y0039150D01*
X0056847Y0039150D02*
X0056847Y0042052D01*
X0058298Y0042052D01*
X0058781Y0041569D01*
X0058781Y0040601D01*
X0058298Y0040117D01*
X0056847Y0040117D01*
X0057814Y0040117D02*
X0058781Y0039150D01*
X0059793Y0039634D02*
X0060277Y0039150D01*
X0061244Y0039150D01*
X0061728Y0039634D01*
X0061728Y0041569D01*
X0061244Y0042052D01*
X0060277Y0042052D01*
X0059793Y0041569D01*
X0059793Y0039634D01*
X0060761Y0040117D02*
X0061728Y0039150D01*
X0062740Y0039634D02*
X0064675Y0041569D01*
X0064675Y0039634D01*
X0064191Y0039150D01*
X0063223Y0039150D01*
X0062740Y0039634D01*
X0062740Y0041569D01*
X0063223Y0042052D01*
X0064191Y0042052D01*
X0064675Y0041569D01*
X0069898Y0041757D02*
X0071833Y0041757D01*
X0072800Y0042724D01*
X0071833Y0043692D01*
X0069898Y0043692D01*
X0070381Y0044703D02*
X0069898Y0045187D01*
X0069898Y0046155D01*
X0070381Y0046638D01*
X0070865Y0046638D01*
X0071349Y0046155D01*
X0071833Y0046638D01*
X0072316Y0046638D01*
X0072800Y0046155D01*
X0072800Y0045187D01*
X0072316Y0044703D01*
X0071349Y0045671D02*
X0071349Y0046155D01*
X0071833Y0040745D02*
X0072316Y0040745D01*
X0072800Y0040262D01*
X0072800Y0039294D01*
X0072316Y0038810D01*
X0071349Y0039778D02*
X0071349Y0040262D01*
X0071833Y0040745D01*
X0071349Y0040262D02*
X0070865Y0040745D01*
X0070381Y0040745D01*
X0069898Y0040262D01*
X0069898Y0039294D01*
X0070381Y0038810D01*
X0071349Y0037799D02*
X0071349Y0035864D01*
X0072316Y0036831D02*
X0070381Y0036831D01*
X0062728Y0060150D02*
X0060793Y0060150D01*
X0060793Y0063052D01*
X0062728Y0063052D01*
X0061761Y0061601D02*
X0060793Y0061601D01*
X0059781Y0063052D02*
X0057847Y0063052D01*
X0058814Y0063052D02*
X0058814Y0060150D01*
X0056835Y0060150D02*
X0056835Y0062085D01*
X0055867Y0063052D01*
X0054900Y0062085D01*
X0054900Y0060150D01*
X0054900Y0061601D02*
X0056835Y0061601D01*
X0056835Y0069650D02*
X0056835Y0071585D01*
X0055867Y0072552D01*
X0054900Y0071585D01*
X0054900Y0069650D01*
X0054900Y0071101D02*
X0056835Y0071101D01*
X0057847Y0070617D02*
X0059298Y0070617D01*
X0059781Y0071101D01*
X0059781Y0072069D01*
X0059298Y0072552D01*
X0057847Y0072552D01*
X0057847Y0069650D01*
X0060793Y0069650D02*
X0060793Y0072552D01*
X0060793Y0071101D02*
X0062728Y0071101D01*
X0062728Y0072552D02*
X0062728Y0069650D01*
X0102292Y0057533D02*
X0104227Y0057533D01*
X0105194Y0056565D01*
X0104227Y0055598D01*
X0102292Y0055598D01*
X0102292Y0054586D02*
X0102775Y0054586D01*
X0104710Y0052651D01*
X0105194Y0052651D01*
X0103743Y0051640D02*
X0103743Y0049705D01*
X0104710Y0050672D02*
X0102775Y0050672D01*
X0102292Y0052651D02*
X0102292Y0054586D01*
X0126698Y0053601D02*
X0126698Y0052150D01*
X0129600Y0052150D01*
X0128633Y0052150D02*
X0128633Y0053601D01*
X0128149Y0054085D01*
X0127181Y0054085D01*
X0126698Y0053601D01*
X0128633Y0053117D02*
X0129600Y0054085D01*
X0129116Y0055097D02*
X0129600Y0055580D01*
X0129600Y0056548D01*
X0129116Y0057031D01*
X0128633Y0057031D01*
X0128149Y0056548D01*
X0128149Y0055097D01*
X0129116Y0055097D01*
X0128149Y0055097D02*
X0127181Y0056064D01*
X0126698Y0057031D01*
X0126398Y0043638D02*
X0128333Y0043638D01*
X0129300Y0042671D01*
X0128333Y0041703D01*
X0126398Y0041703D01*
X0126398Y0040692D02*
X0126881Y0040692D01*
X0128816Y0038757D01*
X0129300Y0038757D01*
X0126398Y0038757D02*
X0126398Y0040692D01*
X0010600Y0041543D02*
X0010600Y0043478D01*
X0010600Y0042511D02*
X0007698Y0042511D01*
X0008665Y0041543D01*
X0007698Y0040531D02*
X0009633Y0040531D01*
X0010600Y0039564D01*
X0009633Y0038597D01*
X0007698Y0038597D01*
X0008181Y0037585D02*
X0007698Y0037101D01*
X0007698Y0036134D01*
X0008181Y0035650D01*
X0008665Y0035650D01*
X0009149Y0036134D01*
X0009149Y0037101D01*
X0009633Y0037585D01*
X0010116Y0037585D01*
X0010600Y0037101D01*
X0010600Y0036134D01*
X0010116Y0035650D01*
D12*
X0100042Y0097545D03*
D13*
X0103344Y0094143D02*
X0086156Y0094143D01*
X0086156Y0131857D01*
X0103344Y0131857D01*
X0103344Y0094143D01*
X0139750Y0055500D02*
X0139754Y0055831D01*
X0139766Y0056162D01*
X0139787Y0056493D01*
X0139815Y0056823D01*
X0139852Y0057153D01*
X0139896Y0057481D01*
X0139949Y0057808D01*
X0140009Y0058134D01*
X0140078Y0058458D01*
X0140155Y0058780D01*
X0140239Y0059101D01*
X0140331Y0059419D01*
X0140431Y0059735D01*
X0140539Y0060048D01*
X0140655Y0060359D01*
X0140778Y0060666D01*
X0140908Y0060971D01*
X0141046Y0061272D01*
X0141191Y0061570D01*
X0141344Y0061864D01*
X0141504Y0062154D01*
X0141671Y0062440D01*
X0141844Y0062722D01*
X0142025Y0063000D01*
X0142213Y0063273D01*
X0142407Y0063542D01*
X0142607Y0063806D01*
X0142814Y0064064D01*
X0143028Y0064318D01*
X0143247Y0064566D01*
X0143473Y0064809D01*
X0143704Y0065046D01*
X0143941Y0065277D01*
X0144184Y0065503D01*
X0144432Y0065722D01*
X0144686Y0065936D01*
X0144944Y0066143D01*
X0145208Y0066343D01*
X0145477Y0066537D01*
X0145750Y0066725D01*
X0146028Y0066906D01*
X0146310Y0067079D01*
X0146596Y0067246D01*
X0146886Y0067406D01*
X0147180Y0067559D01*
X0147478Y0067704D01*
X0147779Y0067842D01*
X0148084Y0067972D01*
X0148391Y0068095D01*
X0148702Y0068211D01*
X0149015Y0068319D01*
X0149331Y0068419D01*
X0149649Y0068511D01*
X0149970Y0068595D01*
X0150292Y0068672D01*
X0150616Y0068741D01*
X0150942Y0068801D01*
X0151269Y0068854D01*
X0151597Y0068898D01*
X0151927Y0068935D01*
X0152257Y0068963D01*
X0152588Y0068984D01*
X0152919Y0068996D01*
X0153250Y0069000D01*
X0153581Y0068996D01*
X0153912Y0068984D01*
X0154243Y0068963D01*
X0154573Y0068935D01*
X0154903Y0068898D01*
X0155231Y0068854D01*
X0155558Y0068801D01*
X0155884Y0068741D01*
X0156208Y0068672D01*
X0156530Y0068595D01*
X0156851Y0068511D01*
X0157169Y0068419D01*
X0157485Y0068319D01*
X0157798Y0068211D01*
X0158109Y0068095D01*
X0158416Y0067972D01*
X0158721Y0067842D01*
X0159022Y0067704D01*
X0159320Y0067559D01*
X0159614Y0067406D01*
X0159904Y0067246D01*
X0160190Y0067079D01*
X0160472Y0066906D01*
X0160750Y0066725D01*
X0161023Y0066537D01*
X0161292Y0066343D01*
X0161556Y0066143D01*
X0161814Y0065936D01*
X0162068Y0065722D01*
X0162316Y0065503D01*
X0162559Y0065277D01*
X0162796Y0065046D01*
X0163027Y0064809D01*
X0163253Y0064566D01*
X0163472Y0064318D01*
X0163686Y0064064D01*
X0163893Y0063806D01*
X0164093Y0063542D01*
X0164287Y0063273D01*
X0164475Y0063000D01*
X0164656Y0062722D01*
X0164829Y0062440D01*
X0164996Y0062154D01*
X0165156Y0061864D01*
X0165309Y0061570D01*
X0165454Y0061272D01*
X0165592Y0060971D01*
X0165722Y0060666D01*
X0165845Y0060359D01*
X0165961Y0060048D01*
X0166069Y0059735D01*
X0166169Y0059419D01*
X0166261Y0059101D01*
X0166345Y0058780D01*
X0166422Y0058458D01*
X0166491Y0058134D01*
X0166551Y0057808D01*
X0166604Y0057481D01*
X0166648Y0057153D01*
X0166685Y0056823D01*
X0166713Y0056493D01*
X0166734Y0056162D01*
X0166746Y0055831D01*
X0166750Y0055500D01*
X0166746Y0055169D01*
X0166734Y0054838D01*
X0166713Y0054507D01*
X0166685Y0054177D01*
X0166648Y0053847D01*
X0166604Y0053519D01*
X0166551Y0053192D01*
X0166491Y0052866D01*
X0166422Y0052542D01*
X0166345Y0052220D01*
X0166261Y0051899D01*
X0166169Y0051581D01*
X0166069Y0051265D01*
X0165961Y0050952D01*
X0165845Y0050641D01*
X0165722Y0050334D01*
X0165592Y0050029D01*
X0165454Y0049728D01*
X0165309Y0049430D01*
X0165156Y0049136D01*
X0164996Y0048846D01*
X0164829Y0048560D01*
X0164656Y0048278D01*
X0164475Y0048000D01*
X0164287Y0047727D01*
X0164093Y0047458D01*
X0163893Y0047194D01*
X0163686Y0046936D01*
X0163472Y0046682D01*
X0163253Y0046434D01*
X0163027Y0046191D01*
X0162796Y0045954D01*
X0162559Y0045723D01*
X0162316Y0045497D01*
X0162068Y0045278D01*
X0161814Y0045064D01*
X0161556Y0044857D01*
X0161292Y0044657D01*
X0161023Y0044463D01*
X0160750Y0044275D01*
X0160472Y0044094D01*
X0160190Y0043921D01*
X0159904Y0043754D01*
X0159614Y0043594D01*
X0159320Y0043441D01*
X0159022Y0043296D01*
X0158721Y0043158D01*
X0158416Y0043028D01*
X0158109Y0042905D01*
X0157798Y0042789D01*
X0157485Y0042681D01*
X0157169Y0042581D01*
X0156851Y0042489D01*
X0156530Y0042405D01*
X0156208Y0042328D01*
X0155884Y0042259D01*
X0155558Y0042199D01*
X0155231Y0042146D01*
X0154903Y0042102D01*
X0154573Y0042065D01*
X0154243Y0042037D01*
X0153912Y0042016D01*
X0153581Y0042004D01*
X0153250Y0042000D01*
X0152919Y0042004D01*
X0152588Y0042016D01*
X0152257Y0042037D01*
X0151927Y0042065D01*
X0151597Y0042102D01*
X0151269Y0042146D01*
X0150942Y0042199D01*
X0150616Y0042259D01*
X0150292Y0042328D01*
X0149970Y0042405D01*
X0149649Y0042489D01*
X0149331Y0042581D01*
X0149015Y0042681D01*
X0148702Y0042789D01*
X0148391Y0042905D01*
X0148084Y0043028D01*
X0147779Y0043158D01*
X0147478Y0043296D01*
X0147180Y0043441D01*
X0146886Y0043594D01*
X0146596Y0043754D01*
X0146310Y0043921D01*
X0146028Y0044094D01*
X0145750Y0044275D01*
X0145477Y0044463D01*
X0145208Y0044657D01*
X0144944Y0044857D01*
X0144686Y0045064D01*
X0144432Y0045278D01*
X0144184Y0045497D01*
X0143941Y0045723D01*
X0143704Y0045954D01*
X0143473Y0046191D01*
X0143247Y0046434D01*
X0143028Y0046682D01*
X0142814Y0046936D01*
X0142607Y0047194D01*
X0142407Y0047458D01*
X0142213Y0047727D01*
X0142025Y0048000D01*
X0141844Y0048278D01*
X0141671Y0048560D01*
X0141504Y0048846D01*
X0141344Y0049136D01*
X0141191Y0049430D01*
X0141046Y0049728D01*
X0140908Y0050029D01*
X0140778Y0050334D01*
X0140655Y0050641D01*
X0140539Y0050952D01*
X0140431Y0051265D01*
X0140331Y0051581D01*
X0140239Y0051899D01*
X0140155Y0052220D01*
X0140078Y0052542D01*
X0140009Y0052866D01*
X0139949Y0053192D01*
X0139896Y0053519D01*
X0139852Y0053847D01*
X0139815Y0054177D01*
X0139787Y0054507D01*
X0139766Y0054838D01*
X0139754Y0055169D01*
X0139750Y0055500D01*
X0032250Y0053000D02*
X0032250Y0048000D01*
X0029750Y0045500D01*
X0032250Y0043000D01*
X0032250Y0038000D01*
X0029750Y0035500D01*
X0014750Y0035500D01*
X0012250Y0038000D01*
X0012250Y0043000D01*
X0014750Y0045500D01*
X0012250Y0048000D01*
X0012250Y0053000D01*
X0014750Y0055500D01*
X0012250Y0058000D01*
X0012250Y0063000D01*
X0014750Y0065500D01*
X0012250Y0068000D01*
X0012250Y0073000D01*
X0014750Y0075500D01*
X0012250Y0078000D01*
X0012250Y0083000D01*
X0014750Y0085500D01*
X0012250Y0088000D01*
X0012250Y0093000D01*
X0014750Y0095500D01*
X0012250Y0098000D01*
X0012250Y0103000D01*
X0014750Y0105500D01*
X0012250Y0108000D01*
X0012250Y0113000D01*
X0014750Y0115500D01*
X0012250Y0118000D01*
X0012250Y0123000D01*
X0014750Y0125500D01*
X0012250Y0128000D01*
X0012250Y0133000D01*
X0014750Y0135500D01*
X0012250Y0138000D01*
X0012250Y0143000D01*
X0014750Y0145500D01*
X0012250Y0148000D01*
X0012250Y0153000D01*
X0014750Y0155500D01*
X0029750Y0155500D01*
X0032250Y0153000D01*
X0032250Y0148000D01*
X0029750Y0145500D01*
X0032250Y0143000D01*
X0032250Y0138000D01*
X0029750Y0135500D01*
X0032250Y0133000D01*
X0032250Y0128000D01*
X0029750Y0125500D01*
X0032250Y0123000D01*
X0032250Y0118000D01*
X0029750Y0115500D01*
X0032250Y0113000D01*
X0032250Y0108000D01*
X0029750Y0105500D01*
X0032250Y0103000D01*
X0032250Y0098000D01*
X0029750Y0095500D01*
X0032250Y0093000D01*
X0032250Y0088000D01*
X0029750Y0085500D01*
X0032250Y0083000D01*
X0032250Y0078000D01*
X0029750Y0075500D01*
X0032250Y0073000D01*
X0032250Y0068000D01*
X0029750Y0065500D01*
X0032250Y0063000D01*
X0032250Y0058000D01*
X0029750Y0055500D01*
X0032250Y0053000D01*
D14*
X0081250Y0047500D02*
X0081250Y0035000D01*
X0084750Y0035000D01*
X0084750Y0010500D01*
X0086050Y0009100D01*
X0086250Y0003500D02*
X0087250Y0001500D01*
X0095250Y0001500D01*
X0096250Y0003500D01*
X0096250Y0035000D01*
X0097750Y0035000D01*
X0097750Y0010500D01*
X0096450Y0009100D01*
X0086250Y0003500D02*
X0086250Y0035000D01*
X0096250Y0035000D01*
X0097750Y0035000D02*
X0101250Y0035000D01*
X0101250Y0047500D01*
X0098750Y0047500D01*
X0098750Y0045000D01*
X0093750Y0045000D01*
X0093750Y0047500D01*
X0088750Y0047500D01*
X0088750Y0045000D01*
X0083750Y0045000D01*
X0083750Y0047500D01*
X0081250Y0047500D01*
X0084750Y0035000D02*
X0086250Y0035000D01*
X0106750Y0035000D02*
X0110250Y0035000D01*
X0110250Y0010500D01*
X0111550Y0009100D01*
X0111750Y0003500D02*
X0112750Y0001500D01*
X0120750Y0001500D01*
X0121750Y0003500D01*
X0121750Y0035000D01*
X0123250Y0035000D01*
X0123250Y0010500D01*
X0121950Y0009100D01*
X0111750Y0003500D02*
X0111750Y0035000D01*
X0121750Y0035000D01*
X0123250Y0035000D02*
X0126750Y0035000D01*
X0126750Y0047500D01*
X0124250Y0047500D01*
X0124250Y0045000D01*
X0119250Y0045000D01*
X0119250Y0047500D01*
X0114250Y0047500D01*
X0114250Y0045000D01*
X0109250Y0045000D01*
X0109250Y0047500D01*
X0106750Y0047500D01*
X0106750Y0035000D01*
X0110250Y0035000D02*
X0111750Y0035000D01*
X0162250Y0118000D02*
X0174750Y0118000D01*
X0174750Y0121500D01*
X0199250Y0121500D01*
X0200650Y0122800D01*
X0206250Y0123000D02*
X0208250Y0124000D01*
X0208250Y0132000D01*
X0206250Y0133000D01*
X0174750Y0133000D01*
X0174750Y0134500D01*
X0199250Y0134500D01*
X0200650Y0133200D01*
X0206250Y0123000D02*
X0174750Y0123000D01*
X0174750Y0133000D01*
X0174750Y0134500D02*
X0174750Y0138000D01*
X0162250Y0138000D01*
X0162250Y0135500D01*
X0164750Y0135500D01*
X0164750Y0130500D01*
X0162250Y0130500D01*
X0162250Y0125500D01*
X0164750Y0125500D01*
X0164750Y0120500D01*
X0162250Y0120500D01*
X0162250Y0118000D01*
X0174750Y0121500D02*
X0174750Y0123000D01*
D15*
X0170863Y0121644D02*
X0167994Y0121644D01*
X0170863Y0124513D01*
X0170863Y0125230D01*
X0170146Y0125948D01*
X0168711Y0125948D01*
X0167994Y0125230D01*
X0168494Y0131444D02*
X0171363Y0131444D01*
X0169929Y0131444D02*
X0169929Y0135748D01*
X0168494Y0134313D01*
X0124494Y0040221D02*
X0124494Y0037352D01*
X0124494Y0038787D02*
X0120190Y0038787D01*
X0121625Y0037352D01*
X0114694Y0037852D02*
X0111825Y0040721D01*
X0111108Y0040721D01*
X0110390Y0040004D01*
X0110390Y0038569D01*
X0111108Y0037852D01*
X0114694Y0037852D02*
X0114694Y0040721D01*
X0098994Y0040221D02*
X0098994Y0037352D01*
X0098994Y0038787D02*
X0094690Y0038787D01*
X0096125Y0037352D01*
X0089194Y0037852D02*
X0086325Y0040721D01*
X0085608Y0040721D01*
X0084890Y0040004D01*
X0084890Y0038569D01*
X0085608Y0037852D01*
X0089194Y0037852D02*
X0089194Y0040721D01*
D16*
X0093065Y0063157D02*
X0104876Y0063157D01*
X0093065Y0063157D02*
X0093065Y0082843D01*
X0104876Y0082843D01*
X0120624Y0082843D02*
X0128498Y0082843D01*
X0132435Y0078906D01*
X0132435Y0067094D01*
X0128498Y0063157D01*
X0120624Y0063157D01*
X0146951Y0055500D02*
X0146953Y0055658D01*
X0146959Y0055816D01*
X0146969Y0055974D01*
X0146983Y0056132D01*
X0147001Y0056289D01*
X0147022Y0056446D01*
X0147048Y0056602D01*
X0147078Y0056758D01*
X0147111Y0056913D01*
X0147149Y0057066D01*
X0147190Y0057219D01*
X0147235Y0057371D01*
X0147284Y0057522D01*
X0147337Y0057671D01*
X0147393Y0057819D01*
X0147453Y0057965D01*
X0147517Y0058110D01*
X0147585Y0058253D01*
X0147656Y0058395D01*
X0147730Y0058535D01*
X0147808Y0058672D01*
X0147890Y0058808D01*
X0147974Y0058942D01*
X0148063Y0059073D01*
X0148154Y0059202D01*
X0148249Y0059329D01*
X0148346Y0059454D01*
X0148447Y0059576D01*
X0148551Y0059695D01*
X0148658Y0059812D01*
X0148768Y0059926D01*
X0148881Y0060037D01*
X0148996Y0060146D01*
X0149114Y0060251D01*
X0149235Y0060353D01*
X0149358Y0060453D01*
X0149484Y0060549D01*
X0149612Y0060642D01*
X0149742Y0060732D01*
X0149875Y0060818D01*
X0150010Y0060902D01*
X0150146Y0060981D01*
X0150285Y0061058D01*
X0150426Y0061130D01*
X0150568Y0061200D01*
X0150712Y0061265D01*
X0150858Y0061327D01*
X0151005Y0061385D01*
X0151154Y0061440D01*
X0151304Y0061491D01*
X0151455Y0061538D01*
X0151607Y0061581D01*
X0151760Y0061620D01*
X0151915Y0061656D01*
X0152070Y0061687D01*
X0152226Y0061715D01*
X0152382Y0061739D01*
X0152539Y0061759D01*
X0152697Y0061775D01*
X0152854Y0061787D01*
X0153013Y0061795D01*
X0153171Y0061799D01*
X0153329Y0061799D01*
X0153487Y0061795D01*
X0153646Y0061787D01*
X0153803Y0061775D01*
X0153961Y0061759D01*
X0154118Y0061739D01*
X0154274Y0061715D01*
X0154430Y0061687D01*
X0154585Y0061656D01*
X0154740Y0061620D01*
X0154893Y0061581D01*
X0155045Y0061538D01*
X0155196Y0061491D01*
X0155346Y0061440D01*
X0155495Y0061385D01*
X0155642Y0061327D01*
X0155788Y0061265D01*
X0155932Y0061200D01*
X0156074Y0061130D01*
X0156215Y0061058D01*
X0156354Y0060981D01*
X0156490Y0060902D01*
X0156625Y0060818D01*
X0156758Y0060732D01*
X0156888Y0060642D01*
X0157016Y0060549D01*
X0157142Y0060453D01*
X0157265Y0060353D01*
X0157386Y0060251D01*
X0157504Y0060146D01*
X0157619Y0060037D01*
X0157732Y0059926D01*
X0157842Y0059812D01*
X0157949Y0059695D01*
X0158053Y0059576D01*
X0158154Y0059454D01*
X0158251Y0059329D01*
X0158346Y0059202D01*
X0158437Y0059073D01*
X0158526Y0058942D01*
X0158610Y0058808D01*
X0158692Y0058672D01*
X0158770Y0058535D01*
X0158844Y0058395D01*
X0158915Y0058253D01*
X0158983Y0058110D01*
X0159047Y0057965D01*
X0159107Y0057819D01*
X0159163Y0057671D01*
X0159216Y0057522D01*
X0159265Y0057371D01*
X0159310Y0057219D01*
X0159351Y0057066D01*
X0159389Y0056913D01*
X0159422Y0056758D01*
X0159452Y0056602D01*
X0159478Y0056446D01*
X0159499Y0056289D01*
X0159517Y0056132D01*
X0159531Y0055974D01*
X0159541Y0055816D01*
X0159547Y0055658D01*
X0159549Y0055500D01*
X0159547Y0055342D01*
X0159541Y0055184D01*
X0159531Y0055026D01*
X0159517Y0054868D01*
X0159499Y0054711D01*
X0159478Y0054554D01*
X0159452Y0054398D01*
X0159422Y0054242D01*
X0159389Y0054087D01*
X0159351Y0053934D01*
X0159310Y0053781D01*
X0159265Y0053629D01*
X0159216Y0053478D01*
X0159163Y0053329D01*
X0159107Y0053181D01*
X0159047Y0053035D01*
X0158983Y0052890D01*
X0158915Y0052747D01*
X0158844Y0052605D01*
X0158770Y0052465D01*
X0158692Y0052328D01*
X0158610Y0052192D01*
X0158526Y0052058D01*
X0158437Y0051927D01*
X0158346Y0051798D01*
X0158251Y0051671D01*
X0158154Y0051546D01*
X0158053Y0051424D01*
X0157949Y0051305D01*
X0157842Y0051188D01*
X0157732Y0051074D01*
X0157619Y0050963D01*
X0157504Y0050854D01*
X0157386Y0050749D01*
X0157265Y0050647D01*
X0157142Y0050547D01*
X0157016Y0050451D01*
X0156888Y0050358D01*
X0156758Y0050268D01*
X0156625Y0050182D01*
X0156490Y0050098D01*
X0156354Y0050019D01*
X0156215Y0049942D01*
X0156074Y0049870D01*
X0155932Y0049800D01*
X0155788Y0049735D01*
X0155642Y0049673D01*
X0155495Y0049615D01*
X0155346Y0049560D01*
X0155196Y0049509D01*
X0155045Y0049462D01*
X0154893Y0049419D01*
X0154740Y0049380D01*
X0154585Y0049344D01*
X0154430Y0049313D01*
X0154274Y0049285D01*
X0154118Y0049261D01*
X0153961Y0049241D01*
X0153803Y0049225D01*
X0153646Y0049213D01*
X0153487Y0049205D01*
X0153329Y0049201D01*
X0153171Y0049201D01*
X0153013Y0049205D01*
X0152854Y0049213D01*
X0152697Y0049225D01*
X0152539Y0049241D01*
X0152382Y0049261D01*
X0152226Y0049285D01*
X0152070Y0049313D01*
X0151915Y0049344D01*
X0151760Y0049380D01*
X0151607Y0049419D01*
X0151455Y0049462D01*
X0151304Y0049509D01*
X0151154Y0049560D01*
X0151005Y0049615D01*
X0150858Y0049673D01*
X0150712Y0049735D01*
X0150568Y0049800D01*
X0150426Y0049870D01*
X0150285Y0049942D01*
X0150146Y0050019D01*
X0150010Y0050098D01*
X0149875Y0050182D01*
X0149742Y0050268D01*
X0149612Y0050358D01*
X0149484Y0050451D01*
X0149358Y0050547D01*
X0149235Y0050647D01*
X0149114Y0050749D01*
X0148996Y0050854D01*
X0148881Y0050963D01*
X0148768Y0051074D01*
X0148658Y0051188D01*
X0148551Y0051305D01*
X0148447Y0051424D01*
X0148346Y0051546D01*
X0148249Y0051671D01*
X0148154Y0051798D01*
X0148063Y0051927D01*
X0147974Y0052058D01*
X0147890Y0052192D01*
X0147808Y0052328D01*
X0147730Y0052465D01*
X0147656Y0052605D01*
X0147585Y0052747D01*
X0147517Y0052890D01*
X0147453Y0053035D01*
X0147393Y0053181D01*
X0147337Y0053329D01*
X0147284Y0053478D01*
X0147235Y0053629D01*
X0147190Y0053781D01*
X0147149Y0053934D01*
X0147111Y0054087D01*
X0147078Y0054242D01*
X0147048Y0054398D01*
X0147022Y0054554D01*
X0147001Y0054711D01*
X0146983Y0054868D01*
X0146969Y0055026D01*
X0146959Y0055184D01*
X0146953Y0055342D01*
X0146951Y0055500D01*
D17*
X0114694Y0069551D02*
X0113693Y0069551D01*
X0113693Y0068050D01*
X0113221Y0068050D02*
X0113221Y0069051D01*
X0113693Y0068801D02*
X0114193Y0068801D01*
X0113221Y0068050D02*
X0112470Y0068050D01*
X0112220Y0068300D01*
X0112220Y0069051D01*
X0111747Y0069301D02*
X0110747Y0068300D01*
X0110997Y0068050D01*
X0111497Y0068050D01*
X0111747Y0068300D01*
X0111747Y0069301D01*
X0111497Y0069551D01*
X0110997Y0069551D01*
X0110747Y0069301D01*
X0110747Y0068300D01*
X0110274Y0068300D02*
X0110024Y0068050D01*
X0109523Y0068050D01*
X0109273Y0068300D01*
X0110274Y0069301D01*
X0110274Y0068300D01*
X0109273Y0068300D02*
X0109273Y0069301D01*
X0109523Y0069551D01*
X0110024Y0069551D01*
X0110274Y0069301D01*
X0108801Y0068050D02*
X0107800Y0068050D01*
X0108300Y0068050D02*
X0108300Y0069551D01*
X0107800Y0069051D01*
X0108050Y0078050D02*
X0108551Y0078050D01*
X0108801Y0078300D01*
X0109273Y0078300D02*
X0109523Y0078050D01*
X0110024Y0078050D01*
X0110274Y0078300D01*
X0110274Y0078550D01*
X0110024Y0078801D01*
X0109273Y0078801D01*
X0109273Y0078300D01*
X0109273Y0078801D02*
X0109774Y0079301D01*
X0110274Y0079551D01*
X0108801Y0079301D02*
X0108551Y0079551D01*
X0108050Y0079551D01*
X0107800Y0079301D01*
X0107800Y0078300D01*
X0108050Y0078050D01*
D18*
X0130774Y0041409D03*
X0133726Y0041409D03*
X0077726Y0041409D03*
X0074774Y0041409D03*
D19*
X0076250Y0041409D03*
X0132250Y0041409D03*
M02*
