G75*
%MOIN*%
%OFA0B0*%
%FSLAX25Y25*%
%IPPOS*%
%LPD*%
%AMOC8*
5,1,8,0,0,1.08239X$1,22.5*
%
%ADD10C,0.00500*%
%ADD11C,0.06400*%
%ADD12OC8,0.06400*%
%ADD13C,0.23400*%
D10*
X0001250Y0030000D02*
X0001250Y0161850D01*
X0176100Y0161850D01*
X0176100Y0030000D01*
X0001250Y0030000D01*
D11*
X0086250Y0052000D02*
X0086250Y0058000D01*
X0096250Y0058000D02*
X0096250Y0052000D01*
X0111750Y0052000D02*
X0111750Y0058000D01*
X0121750Y0058000D02*
X0121750Y0052000D01*
X0151750Y0093000D02*
X0157750Y0093000D01*
X0157750Y0103000D02*
X0151750Y0103000D01*
X0151750Y0123000D02*
X0157750Y0123000D01*
X0157750Y0133000D02*
X0151750Y0133000D01*
D12*
X0047250Y0130500D03*
X0037250Y0130500D03*
X0027250Y0130500D03*
X0017250Y0130500D03*
X0017250Y0140500D03*
X0027250Y0140500D03*
X0037250Y0140500D03*
X0047250Y0140500D03*
X0047250Y0150500D03*
X0037250Y0150500D03*
X0027250Y0150500D03*
X0017250Y0150500D03*
X0017250Y0120500D03*
X0027250Y0120500D03*
X0037250Y0120500D03*
X0047250Y0120500D03*
X0047250Y0110500D03*
X0037250Y0110500D03*
X0027250Y0110500D03*
X0017250Y0110500D03*
X0017250Y0100500D03*
X0027250Y0100500D03*
X0037250Y0100500D03*
X0047250Y0100500D03*
X0047250Y0090500D03*
X0037250Y0090500D03*
X0027250Y0090500D03*
X0017250Y0090500D03*
X0017250Y0080500D03*
X0027250Y0080500D03*
X0037250Y0080500D03*
X0047250Y0080500D03*
X0047250Y0070500D03*
X0037250Y0070500D03*
X0027250Y0070500D03*
X0017250Y0070500D03*
X0017250Y0060500D03*
X0027250Y0060500D03*
X0037250Y0060500D03*
X0047250Y0060500D03*
X0047250Y0050500D03*
X0037250Y0050500D03*
X0027250Y0050500D03*
X0017250Y0050500D03*
X0017250Y0040500D03*
X0027250Y0040500D03*
X0037250Y0040500D03*
X0047250Y0040500D03*
D13*
X0153250Y0055500D03*
M02*
