G75*
%MOIN*%
%OFA0B0*%
%FSLAX25Y25*%
%IPPOS*%
%LPD*%
%AMOC8*
5,1,8,0,0,1.08239X$1,22.5*
%
%ADD10C,0.00500*%
%ADD11R,0.04337X0.01778*%
%ADD12R,0.12211X0.20085*%
%ADD13R,0.07498X0.06699*%
%ADD14C,0.06400*%
%ADD15R,0.03156X0.03943*%
%ADD16R,0.03943X0.03156*%
%ADD17OC8,0.06400*%
%ADD18C,0.23400*%
%ADD19R,0.10439X0.11030*%
%ADD20R,0.03550X0.03550*%
D10*
X0001250Y0030000D02*
X0001250Y0161850D01*
X0176100Y0161850D01*
X0176100Y0030000D01*
X0001250Y0030000D01*
D11*
X0082594Y0096366D03*
X0082594Y0098925D03*
X0082594Y0101484D03*
X0082594Y0104043D03*
X0082594Y0106602D03*
X0082594Y0109161D03*
X0082594Y0111720D03*
X0082594Y0114280D03*
X0082594Y0116839D03*
X0082594Y0119398D03*
X0082594Y0121957D03*
X0082594Y0124516D03*
X0082594Y0127075D03*
X0082594Y0129634D03*
X0106906Y0129634D03*
X0106906Y0127075D03*
X0106906Y0124516D03*
X0106906Y0121957D03*
X0106906Y0119398D03*
X0106906Y0116839D03*
X0106906Y0114280D03*
X0106906Y0111720D03*
X0106906Y0109161D03*
X0106906Y0106602D03*
X0106906Y0104043D03*
X0106906Y0101484D03*
X0106906Y0098925D03*
X0106906Y0096366D03*
D12*
X0094750Y0113000D03*
D13*
X0066750Y0120402D03*
X0066750Y0131598D03*
X0129250Y0130598D03*
X0129250Y0119402D03*
X0129250Y0106598D03*
X0129250Y0095402D03*
D14*
X0151750Y0093000D02*
X0157750Y0093000D01*
X0157750Y0103000D02*
X0151750Y0103000D01*
X0151750Y0123000D02*
X0157750Y0123000D01*
X0157750Y0133000D02*
X0151750Y0133000D01*
X0121750Y0058000D02*
X0121750Y0052000D01*
X0111750Y0052000D02*
X0111750Y0058000D01*
X0096250Y0058000D02*
X0096250Y0052000D01*
X0086250Y0052000D02*
X0086250Y0058000D01*
D15*
X0115191Y0085000D03*
X0115191Y0090000D03*
X0110309Y0090000D03*
X0105191Y0090000D03*
X0120309Y0090000D03*
X0120309Y0085000D03*
D16*
X0132250Y0057059D03*
X0132250Y0051941D03*
X0076250Y0049941D03*
X0076250Y0055059D03*
X0112250Y0131941D03*
X0117250Y0131941D03*
X0122250Y0131941D03*
X0122250Y0137059D03*
X0117250Y0137059D03*
X0112250Y0137059D03*
X0075750Y0138059D03*
X0075750Y0132941D03*
D17*
X0047250Y0130500D03*
X0037250Y0130500D03*
X0027250Y0130500D03*
X0017250Y0130500D03*
X0017250Y0140500D03*
X0027250Y0140500D03*
X0037250Y0140500D03*
X0047250Y0140500D03*
X0047250Y0150500D03*
X0037250Y0150500D03*
X0027250Y0150500D03*
X0017250Y0150500D03*
X0017250Y0120500D03*
X0027250Y0120500D03*
X0037250Y0120500D03*
X0047250Y0120500D03*
X0047250Y0110500D03*
X0037250Y0110500D03*
X0027250Y0110500D03*
X0017250Y0110500D03*
X0017250Y0100500D03*
X0027250Y0100500D03*
X0037250Y0100500D03*
X0047250Y0100500D03*
X0047250Y0090500D03*
X0037250Y0090500D03*
X0027250Y0090500D03*
X0017250Y0090500D03*
X0017250Y0080500D03*
X0027250Y0080500D03*
X0037250Y0080500D03*
X0047250Y0080500D03*
X0047250Y0070500D03*
X0037250Y0070500D03*
X0027250Y0070500D03*
X0017250Y0070500D03*
X0017250Y0060500D03*
X0027250Y0060500D03*
X0037250Y0060500D03*
X0047250Y0060500D03*
X0047250Y0050500D03*
X0037250Y0050500D03*
X0027250Y0050500D03*
X0017250Y0050500D03*
X0017250Y0040500D03*
X0027250Y0040500D03*
X0037250Y0040500D03*
X0047250Y0040500D03*
D18*
X0153250Y0055500D03*
D19*
X0125230Y0073000D03*
X0100270Y0073000D03*
D20*
X0076250Y0044953D03*
X0076250Y0039047D03*
X0132250Y0039047D03*
X0132250Y0044953D03*
M02*
