%
M48
M72
T01C0.0130
T02C0.0394
T03C0.0400
T04C0.1260
%
T01
X3045Y3588
X19940Y6533
T02
X18850Y6350
X17850Y6350
X16850Y6350
X15850Y6350
X16350Y5350
X17350Y5350
X18350Y5350
X19350Y5350
T03
X820Y710
X3380Y710
X3380Y2490
X820Y2490
X1100Y5600
X2100Y5600
X3100Y5600
X4100Y5600
X7820Y2490
X10380Y2490
X10380Y710
X7820Y710
X14820Y710
X17380Y710
X17380Y2490
X14820Y2490
X21820Y2490
X24380Y2490
X24380Y710
X21820Y710
T04
X19600Y1850
X23100Y8100
X19850Y8850
X15350Y8850
X2100Y8100
X5600Y1850
M30
