G75*
%MOIN*%
%OFA0B0*%
%FSLAX25Y25*%
%IPPOS*%
%LPD*%
%AMOC8*
5,1,8,0,0,1.08239X$1,22.5*
%
%ADD10C,0.00000*%
D10*
X0001000Y0001000D02*
X0001000Y0101000D01*
X0251000Y0101000D01*
X0251001Y0001500D01*
X0001000Y0001000D01*
X0049701Y0018500D02*
X0049703Y0018658D01*
X0049709Y0018816D01*
X0049719Y0018974D01*
X0049733Y0019132D01*
X0049751Y0019289D01*
X0049772Y0019446D01*
X0049798Y0019602D01*
X0049828Y0019758D01*
X0049861Y0019913D01*
X0049899Y0020066D01*
X0049940Y0020219D01*
X0049985Y0020371D01*
X0050034Y0020522D01*
X0050087Y0020671D01*
X0050143Y0020819D01*
X0050203Y0020965D01*
X0050267Y0021110D01*
X0050335Y0021253D01*
X0050406Y0021395D01*
X0050480Y0021535D01*
X0050558Y0021672D01*
X0050640Y0021808D01*
X0050724Y0021942D01*
X0050813Y0022073D01*
X0050904Y0022202D01*
X0050999Y0022329D01*
X0051096Y0022454D01*
X0051197Y0022576D01*
X0051301Y0022695D01*
X0051408Y0022812D01*
X0051518Y0022926D01*
X0051631Y0023037D01*
X0051746Y0023146D01*
X0051864Y0023251D01*
X0051985Y0023353D01*
X0052108Y0023453D01*
X0052234Y0023549D01*
X0052362Y0023642D01*
X0052492Y0023732D01*
X0052625Y0023818D01*
X0052760Y0023902D01*
X0052896Y0023981D01*
X0053035Y0024058D01*
X0053176Y0024130D01*
X0053318Y0024200D01*
X0053462Y0024265D01*
X0053608Y0024327D01*
X0053755Y0024385D01*
X0053904Y0024440D01*
X0054054Y0024491D01*
X0054205Y0024538D01*
X0054357Y0024581D01*
X0054510Y0024620D01*
X0054665Y0024656D01*
X0054820Y0024687D01*
X0054976Y0024715D01*
X0055132Y0024739D01*
X0055289Y0024759D01*
X0055447Y0024775D01*
X0055604Y0024787D01*
X0055763Y0024795D01*
X0055921Y0024799D01*
X0056079Y0024799D01*
X0056237Y0024795D01*
X0056396Y0024787D01*
X0056553Y0024775D01*
X0056711Y0024759D01*
X0056868Y0024739D01*
X0057024Y0024715D01*
X0057180Y0024687D01*
X0057335Y0024656D01*
X0057490Y0024620D01*
X0057643Y0024581D01*
X0057795Y0024538D01*
X0057946Y0024491D01*
X0058096Y0024440D01*
X0058245Y0024385D01*
X0058392Y0024327D01*
X0058538Y0024265D01*
X0058682Y0024200D01*
X0058824Y0024130D01*
X0058965Y0024058D01*
X0059104Y0023981D01*
X0059240Y0023902D01*
X0059375Y0023818D01*
X0059508Y0023732D01*
X0059638Y0023642D01*
X0059766Y0023549D01*
X0059892Y0023453D01*
X0060015Y0023353D01*
X0060136Y0023251D01*
X0060254Y0023146D01*
X0060369Y0023037D01*
X0060482Y0022926D01*
X0060592Y0022812D01*
X0060699Y0022695D01*
X0060803Y0022576D01*
X0060904Y0022454D01*
X0061001Y0022329D01*
X0061096Y0022202D01*
X0061187Y0022073D01*
X0061276Y0021942D01*
X0061360Y0021808D01*
X0061442Y0021672D01*
X0061520Y0021535D01*
X0061594Y0021395D01*
X0061665Y0021253D01*
X0061733Y0021110D01*
X0061797Y0020965D01*
X0061857Y0020819D01*
X0061913Y0020671D01*
X0061966Y0020522D01*
X0062015Y0020371D01*
X0062060Y0020219D01*
X0062101Y0020066D01*
X0062139Y0019913D01*
X0062172Y0019758D01*
X0062202Y0019602D01*
X0062228Y0019446D01*
X0062249Y0019289D01*
X0062267Y0019132D01*
X0062281Y0018974D01*
X0062291Y0018816D01*
X0062297Y0018658D01*
X0062299Y0018500D01*
X0062297Y0018342D01*
X0062291Y0018184D01*
X0062281Y0018026D01*
X0062267Y0017868D01*
X0062249Y0017711D01*
X0062228Y0017554D01*
X0062202Y0017398D01*
X0062172Y0017242D01*
X0062139Y0017087D01*
X0062101Y0016934D01*
X0062060Y0016781D01*
X0062015Y0016629D01*
X0061966Y0016478D01*
X0061913Y0016329D01*
X0061857Y0016181D01*
X0061797Y0016035D01*
X0061733Y0015890D01*
X0061665Y0015747D01*
X0061594Y0015605D01*
X0061520Y0015465D01*
X0061442Y0015328D01*
X0061360Y0015192D01*
X0061276Y0015058D01*
X0061187Y0014927D01*
X0061096Y0014798D01*
X0061001Y0014671D01*
X0060904Y0014546D01*
X0060803Y0014424D01*
X0060699Y0014305D01*
X0060592Y0014188D01*
X0060482Y0014074D01*
X0060369Y0013963D01*
X0060254Y0013854D01*
X0060136Y0013749D01*
X0060015Y0013647D01*
X0059892Y0013547D01*
X0059766Y0013451D01*
X0059638Y0013358D01*
X0059508Y0013268D01*
X0059375Y0013182D01*
X0059240Y0013098D01*
X0059104Y0013019D01*
X0058965Y0012942D01*
X0058824Y0012870D01*
X0058682Y0012800D01*
X0058538Y0012735D01*
X0058392Y0012673D01*
X0058245Y0012615D01*
X0058096Y0012560D01*
X0057946Y0012509D01*
X0057795Y0012462D01*
X0057643Y0012419D01*
X0057490Y0012380D01*
X0057335Y0012344D01*
X0057180Y0012313D01*
X0057024Y0012285D01*
X0056868Y0012261D01*
X0056711Y0012241D01*
X0056553Y0012225D01*
X0056396Y0012213D01*
X0056237Y0012205D01*
X0056079Y0012201D01*
X0055921Y0012201D01*
X0055763Y0012205D01*
X0055604Y0012213D01*
X0055447Y0012225D01*
X0055289Y0012241D01*
X0055132Y0012261D01*
X0054976Y0012285D01*
X0054820Y0012313D01*
X0054665Y0012344D01*
X0054510Y0012380D01*
X0054357Y0012419D01*
X0054205Y0012462D01*
X0054054Y0012509D01*
X0053904Y0012560D01*
X0053755Y0012615D01*
X0053608Y0012673D01*
X0053462Y0012735D01*
X0053318Y0012800D01*
X0053176Y0012870D01*
X0053035Y0012942D01*
X0052896Y0013019D01*
X0052760Y0013098D01*
X0052625Y0013182D01*
X0052492Y0013268D01*
X0052362Y0013358D01*
X0052234Y0013451D01*
X0052108Y0013547D01*
X0051985Y0013647D01*
X0051864Y0013749D01*
X0051746Y0013854D01*
X0051631Y0013963D01*
X0051518Y0014074D01*
X0051408Y0014188D01*
X0051301Y0014305D01*
X0051197Y0014424D01*
X0051096Y0014546D01*
X0050999Y0014671D01*
X0050904Y0014798D01*
X0050813Y0014927D01*
X0050724Y0015058D01*
X0050640Y0015192D01*
X0050558Y0015328D01*
X0050480Y0015465D01*
X0050406Y0015605D01*
X0050335Y0015747D01*
X0050267Y0015890D01*
X0050203Y0016035D01*
X0050143Y0016181D01*
X0050087Y0016329D01*
X0050034Y0016478D01*
X0049985Y0016629D01*
X0049940Y0016781D01*
X0049899Y0016934D01*
X0049861Y0017087D01*
X0049828Y0017242D01*
X0049798Y0017398D01*
X0049772Y0017554D01*
X0049751Y0017711D01*
X0049733Y0017868D01*
X0049719Y0018026D01*
X0049709Y0018184D01*
X0049703Y0018342D01*
X0049701Y0018500D01*
X0014701Y0081000D02*
X0014703Y0081158D01*
X0014709Y0081316D01*
X0014719Y0081474D01*
X0014733Y0081632D01*
X0014751Y0081789D01*
X0014772Y0081946D01*
X0014798Y0082102D01*
X0014828Y0082258D01*
X0014861Y0082413D01*
X0014899Y0082566D01*
X0014940Y0082719D01*
X0014985Y0082871D01*
X0015034Y0083022D01*
X0015087Y0083171D01*
X0015143Y0083319D01*
X0015203Y0083465D01*
X0015267Y0083610D01*
X0015335Y0083753D01*
X0015406Y0083895D01*
X0015480Y0084035D01*
X0015558Y0084172D01*
X0015640Y0084308D01*
X0015724Y0084442D01*
X0015813Y0084573D01*
X0015904Y0084702D01*
X0015999Y0084829D01*
X0016096Y0084954D01*
X0016197Y0085076D01*
X0016301Y0085195D01*
X0016408Y0085312D01*
X0016518Y0085426D01*
X0016631Y0085537D01*
X0016746Y0085646D01*
X0016864Y0085751D01*
X0016985Y0085853D01*
X0017108Y0085953D01*
X0017234Y0086049D01*
X0017362Y0086142D01*
X0017492Y0086232D01*
X0017625Y0086318D01*
X0017760Y0086402D01*
X0017896Y0086481D01*
X0018035Y0086558D01*
X0018176Y0086630D01*
X0018318Y0086700D01*
X0018462Y0086765D01*
X0018608Y0086827D01*
X0018755Y0086885D01*
X0018904Y0086940D01*
X0019054Y0086991D01*
X0019205Y0087038D01*
X0019357Y0087081D01*
X0019510Y0087120D01*
X0019665Y0087156D01*
X0019820Y0087187D01*
X0019976Y0087215D01*
X0020132Y0087239D01*
X0020289Y0087259D01*
X0020447Y0087275D01*
X0020604Y0087287D01*
X0020763Y0087295D01*
X0020921Y0087299D01*
X0021079Y0087299D01*
X0021237Y0087295D01*
X0021396Y0087287D01*
X0021553Y0087275D01*
X0021711Y0087259D01*
X0021868Y0087239D01*
X0022024Y0087215D01*
X0022180Y0087187D01*
X0022335Y0087156D01*
X0022490Y0087120D01*
X0022643Y0087081D01*
X0022795Y0087038D01*
X0022946Y0086991D01*
X0023096Y0086940D01*
X0023245Y0086885D01*
X0023392Y0086827D01*
X0023538Y0086765D01*
X0023682Y0086700D01*
X0023824Y0086630D01*
X0023965Y0086558D01*
X0024104Y0086481D01*
X0024240Y0086402D01*
X0024375Y0086318D01*
X0024508Y0086232D01*
X0024638Y0086142D01*
X0024766Y0086049D01*
X0024892Y0085953D01*
X0025015Y0085853D01*
X0025136Y0085751D01*
X0025254Y0085646D01*
X0025369Y0085537D01*
X0025482Y0085426D01*
X0025592Y0085312D01*
X0025699Y0085195D01*
X0025803Y0085076D01*
X0025904Y0084954D01*
X0026001Y0084829D01*
X0026096Y0084702D01*
X0026187Y0084573D01*
X0026276Y0084442D01*
X0026360Y0084308D01*
X0026442Y0084172D01*
X0026520Y0084035D01*
X0026594Y0083895D01*
X0026665Y0083753D01*
X0026733Y0083610D01*
X0026797Y0083465D01*
X0026857Y0083319D01*
X0026913Y0083171D01*
X0026966Y0083022D01*
X0027015Y0082871D01*
X0027060Y0082719D01*
X0027101Y0082566D01*
X0027139Y0082413D01*
X0027172Y0082258D01*
X0027202Y0082102D01*
X0027228Y0081946D01*
X0027249Y0081789D01*
X0027267Y0081632D01*
X0027281Y0081474D01*
X0027291Y0081316D01*
X0027297Y0081158D01*
X0027299Y0081000D01*
X0027297Y0080842D01*
X0027291Y0080684D01*
X0027281Y0080526D01*
X0027267Y0080368D01*
X0027249Y0080211D01*
X0027228Y0080054D01*
X0027202Y0079898D01*
X0027172Y0079742D01*
X0027139Y0079587D01*
X0027101Y0079434D01*
X0027060Y0079281D01*
X0027015Y0079129D01*
X0026966Y0078978D01*
X0026913Y0078829D01*
X0026857Y0078681D01*
X0026797Y0078535D01*
X0026733Y0078390D01*
X0026665Y0078247D01*
X0026594Y0078105D01*
X0026520Y0077965D01*
X0026442Y0077828D01*
X0026360Y0077692D01*
X0026276Y0077558D01*
X0026187Y0077427D01*
X0026096Y0077298D01*
X0026001Y0077171D01*
X0025904Y0077046D01*
X0025803Y0076924D01*
X0025699Y0076805D01*
X0025592Y0076688D01*
X0025482Y0076574D01*
X0025369Y0076463D01*
X0025254Y0076354D01*
X0025136Y0076249D01*
X0025015Y0076147D01*
X0024892Y0076047D01*
X0024766Y0075951D01*
X0024638Y0075858D01*
X0024508Y0075768D01*
X0024375Y0075682D01*
X0024240Y0075598D01*
X0024104Y0075519D01*
X0023965Y0075442D01*
X0023824Y0075370D01*
X0023682Y0075300D01*
X0023538Y0075235D01*
X0023392Y0075173D01*
X0023245Y0075115D01*
X0023096Y0075060D01*
X0022946Y0075009D01*
X0022795Y0074962D01*
X0022643Y0074919D01*
X0022490Y0074880D01*
X0022335Y0074844D01*
X0022180Y0074813D01*
X0022024Y0074785D01*
X0021868Y0074761D01*
X0021711Y0074741D01*
X0021553Y0074725D01*
X0021396Y0074713D01*
X0021237Y0074705D01*
X0021079Y0074701D01*
X0020921Y0074701D01*
X0020763Y0074705D01*
X0020604Y0074713D01*
X0020447Y0074725D01*
X0020289Y0074741D01*
X0020132Y0074761D01*
X0019976Y0074785D01*
X0019820Y0074813D01*
X0019665Y0074844D01*
X0019510Y0074880D01*
X0019357Y0074919D01*
X0019205Y0074962D01*
X0019054Y0075009D01*
X0018904Y0075060D01*
X0018755Y0075115D01*
X0018608Y0075173D01*
X0018462Y0075235D01*
X0018318Y0075300D01*
X0018176Y0075370D01*
X0018035Y0075442D01*
X0017896Y0075519D01*
X0017760Y0075598D01*
X0017625Y0075682D01*
X0017492Y0075768D01*
X0017362Y0075858D01*
X0017234Y0075951D01*
X0017108Y0076047D01*
X0016985Y0076147D01*
X0016864Y0076249D01*
X0016746Y0076354D01*
X0016631Y0076463D01*
X0016518Y0076574D01*
X0016408Y0076688D01*
X0016301Y0076805D01*
X0016197Y0076924D01*
X0016096Y0077046D01*
X0015999Y0077171D01*
X0015904Y0077298D01*
X0015813Y0077427D01*
X0015724Y0077558D01*
X0015640Y0077692D01*
X0015558Y0077828D01*
X0015480Y0077965D01*
X0015406Y0078105D01*
X0015335Y0078247D01*
X0015267Y0078390D01*
X0015203Y0078535D01*
X0015143Y0078681D01*
X0015087Y0078829D01*
X0015034Y0078978D01*
X0014985Y0079129D01*
X0014940Y0079281D01*
X0014899Y0079434D01*
X0014861Y0079587D01*
X0014828Y0079742D01*
X0014798Y0079898D01*
X0014772Y0080054D01*
X0014751Y0080211D01*
X0014733Y0080368D01*
X0014719Y0080526D01*
X0014709Y0080684D01*
X0014703Y0080842D01*
X0014701Y0081000D01*
X0147201Y0088500D02*
X0147203Y0088658D01*
X0147209Y0088816D01*
X0147219Y0088974D01*
X0147233Y0089132D01*
X0147251Y0089289D01*
X0147272Y0089446D01*
X0147298Y0089602D01*
X0147328Y0089758D01*
X0147361Y0089913D01*
X0147399Y0090066D01*
X0147440Y0090219D01*
X0147485Y0090371D01*
X0147534Y0090522D01*
X0147587Y0090671D01*
X0147643Y0090819D01*
X0147703Y0090965D01*
X0147767Y0091110D01*
X0147835Y0091253D01*
X0147906Y0091395D01*
X0147980Y0091535D01*
X0148058Y0091672D01*
X0148140Y0091808D01*
X0148224Y0091942D01*
X0148313Y0092073D01*
X0148404Y0092202D01*
X0148499Y0092329D01*
X0148596Y0092454D01*
X0148697Y0092576D01*
X0148801Y0092695D01*
X0148908Y0092812D01*
X0149018Y0092926D01*
X0149131Y0093037D01*
X0149246Y0093146D01*
X0149364Y0093251D01*
X0149485Y0093353D01*
X0149608Y0093453D01*
X0149734Y0093549D01*
X0149862Y0093642D01*
X0149992Y0093732D01*
X0150125Y0093818D01*
X0150260Y0093902D01*
X0150396Y0093981D01*
X0150535Y0094058D01*
X0150676Y0094130D01*
X0150818Y0094200D01*
X0150962Y0094265D01*
X0151108Y0094327D01*
X0151255Y0094385D01*
X0151404Y0094440D01*
X0151554Y0094491D01*
X0151705Y0094538D01*
X0151857Y0094581D01*
X0152010Y0094620D01*
X0152165Y0094656D01*
X0152320Y0094687D01*
X0152476Y0094715D01*
X0152632Y0094739D01*
X0152789Y0094759D01*
X0152947Y0094775D01*
X0153104Y0094787D01*
X0153263Y0094795D01*
X0153421Y0094799D01*
X0153579Y0094799D01*
X0153737Y0094795D01*
X0153896Y0094787D01*
X0154053Y0094775D01*
X0154211Y0094759D01*
X0154368Y0094739D01*
X0154524Y0094715D01*
X0154680Y0094687D01*
X0154835Y0094656D01*
X0154990Y0094620D01*
X0155143Y0094581D01*
X0155295Y0094538D01*
X0155446Y0094491D01*
X0155596Y0094440D01*
X0155745Y0094385D01*
X0155892Y0094327D01*
X0156038Y0094265D01*
X0156182Y0094200D01*
X0156324Y0094130D01*
X0156465Y0094058D01*
X0156604Y0093981D01*
X0156740Y0093902D01*
X0156875Y0093818D01*
X0157008Y0093732D01*
X0157138Y0093642D01*
X0157266Y0093549D01*
X0157392Y0093453D01*
X0157515Y0093353D01*
X0157636Y0093251D01*
X0157754Y0093146D01*
X0157869Y0093037D01*
X0157982Y0092926D01*
X0158092Y0092812D01*
X0158199Y0092695D01*
X0158303Y0092576D01*
X0158404Y0092454D01*
X0158501Y0092329D01*
X0158596Y0092202D01*
X0158687Y0092073D01*
X0158776Y0091942D01*
X0158860Y0091808D01*
X0158942Y0091672D01*
X0159020Y0091535D01*
X0159094Y0091395D01*
X0159165Y0091253D01*
X0159233Y0091110D01*
X0159297Y0090965D01*
X0159357Y0090819D01*
X0159413Y0090671D01*
X0159466Y0090522D01*
X0159515Y0090371D01*
X0159560Y0090219D01*
X0159601Y0090066D01*
X0159639Y0089913D01*
X0159672Y0089758D01*
X0159702Y0089602D01*
X0159728Y0089446D01*
X0159749Y0089289D01*
X0159767Y0089132D01*
X0159781Y0088974D01*
X0159791Y0088816D01*
X0159797Y0088658D01*
X0159799Y0088500D01*
X0159797Y0088342D01*
X0159791Y0088184D01*
X0159781Y0088026D01*
X0159767Y0087868D01*
X0159749Y0087711D01*
X0159728Y0087554D01*
X0159702Y0087398D01*
X0159672Y0087242D01*
X0159639Y0087087D01*
X0159601Y0086934D01*
X0159560Y0086781D01*
X0159515Y0086629D01*
X0159466Y0086478D01*
X0159413Y0086329D01*
X0159357Y0086181D01*
X0159297Y0086035D01*
X0159233Y0085890D01*
X0159165Y0085747D01*
X0159094Y0085605D01*
X0159020Y0085465D01*
X0158942Y0085328D01*
X0158860Y0085192D01*
X0158776Y0085058D01*
X0158687Y0084927D01*
X0158596Y0084798D01*
X0158501Y0084671D01*
X0158404Y0084546D01*
X0158303Y0084424D01*
X0158199Y0084305D01*
X0158092Y0084188D01*
X0157982Y0084074D01*
X0157869Y0083963D01*
X0157754Y0083854D01*
X0157636Y0083749D01*
X0157515Y0083647D01*
X0157392Y0083547D01*
X0157266Y0083451D01*
X0157138Y0083358D01*
X0157008Y0083268D01*
X0156875Y0083182D01*
X0156740Y0083098D01*
X0156604Y0083019D01*
X0156465Y0082942D01*
X0156324Y0082870D01*
X0156182Y0082800D01*
X0156038Y0082735D01*
X0155892Y0082673D01*
X0155745Y0082615D01*
X0155596Y0082560D01*
X0155446Y0082509D01*
X0155295Y0082462D01*
X0155143Y0082419D01*
X0154990Y0082380D01*
X0154835Y0082344D01*
X0154680Y0082313D01*
X0154524Y0082285D01*
X0154368Y0082261D01*
X0154211Y0082241D01*
X0154053Y0082225D01*
X0153896Y0082213D01*
X0153737Y0082205D01*
X0153579Y0082201D01*
X0153421Y0082201D01*
X0153263Y0082205D01*
X0153104Y0082213D01*
X0152947Y0082225D01*
X0152789Y0082241D01*
X0152632Y0082261D01*
X0152476Y0082285D01*
X0152320Y0082313D01*
X0152165Y0082344D01*
X0152010Y0082380D01*
X0151857Y0082419D01*
X0151705Y0082462D01*
X0151554Y0082509D01*
X0151404Y0082560D01*
X0151255Y0082615D01*
X0151108Y0082673D01*
X0150962Y0082735D01*
X0150818Y0082800D01*
X0150676Y0082870D01*
X0150535Y0082942D01*
X0150396Y0083019D01*
X0150260Y0083098D01*
X0150125Y0083182D01*
X0149992Y0083268D01*
X0149862Y0083358D01*
X0149734Y0083451D01*
X0149608Y0083547D01*
X0149485Y0083647D01*
X0149364Y0083749D01*
X0149246Y0083854D01*
X0149131Y0083963D01*
X0149018Y0084074D01*
X0148908Y0084188D01*
X0148801Y0084305D01*
X0148697Y0084424D01*
X0148596Y0084546D01*
X0148499Y0084671D01*
X0148404Y0084798D01*
X0148313Y0084927D01*
X0148224Y0085058D01*
X0148140Y0085192D01*
X0148058Y0085328D01*
X0147980Y0085465D01*
X0147906Y0085605D01*
X0147835Y0085747D01*
X0147767Y0085890D01*
X0147703Y0086035D01*
X0147643Y0086181D01*
X0147587Y0086329D01*
X0147534Y0086478D01*
X0147485Y0086629D01*
X0147440Y0086781D01*
X0147399Y0086934D01*
X0147361Y0087087D01*
X0147328Y0087242D01*
X0147298Y0087398D01*
X0147272Y0087554D01*
X0147251Y0087711D01*
X0147233Y0087868D01*
X0147219Y0088026D01*
X0147209Y0088184D01*
X0147203Y0088342D01*
X0147201Y0088500D01*
X0192201Y0088500D02*
X0192203Y0088658D01*
X0192209Y0088816D01*
X0192219Y0088974D01*
X0192233Y0089132D01*
X0192251Y0089289D01*
X0192272Y0089446D01*
X0192298Y0089602D01*
X0192328Y0089758D01*
X0192361Y0089913D01*
X0192399Y0090066D01*
X0192440Y0090219D01*
X0192485Y0090371D01*
X0192534Y0090522D01*
X0192587Y0090671D01*
X0192643Y0090819D01*
X0192703Y0090965D01*
X0192767Y0091110D01*
X0192835Y0091253D01*
X0192906Y0091395D01*
X0192980Y0091535D01*
X0193058Y0091672D01*
X0193140Y0091808D01*
X0193224Y0091942D01*
X0193313Y0092073D01*
X0193404Y0092202D01*
X0193499Y0092329D01*
X0193596Y0092454D01*
X0193697Y0092576D01*
X0193801Y0092695D01*
X0193908Y0092812D01*
X0194018Y0092926D01*
X0194131Y0093037D01*
X0194246Y0093146D01*
X0194364Y0093251D01*
X0194485Y0093353D01*
X0194608Y0093453D01*
X0194734Y0093549D01*
X0194862Y0093642D01*
X0194992Y0093732D01*
X0195125Y0093818D01*
X0195260Y0093902D01*
X0195396Y0093981D01*
X0195535Y0094058D01*
X0195676Y0094130D01*
X0195818Y0094200D01*
X0195962Y0094265D01*
X0196108Y0094327D01*
X0196255Y0094385D01*
X0196404Y0094440D01*
X0196554Y0094491D01*
X0196705Y0094538D01*
X0196857Y0094581D01*
X0197010Y0094620D01*
X0197165Y0094656D01*
X0197320Y0094687D01*
X0197476Y0094715D01*
X0197632Y0094739D01*
X0197789Y0094759D01*
X0197947Y0094775D01*
X0198104Y0094787D01*
X0198263Y0094795D01*
X0198421Y0094799D01*
X0198579Y0094799D01*
X0198737Y0094795D01*
X0198896Y0094787D01*
X0199053Y0094775D01*
X0199211Y0094759D01*
X0199368Y0094739D01*
X0199524Y0094715D01*
X0199680Y0094687D01*
X0199835Y0094656D01*
X0199990Y0094620D01*
X0200143Y0094581D01*
X0200295Y0094538D01*
X0200446Y0094491D01*
X0200596Y0094440D01*
X0200745Y0094385D01*
X0200892Y0094327D01*
X0201038Y0094265D01*
X0201182Y0094200D01*
X0201324Y0094130D01*
X0201465Y0094058D01*
X0201604Y0093981D01*
X0201740Y0093902D01*
X0201875Y0093818D01*
X0202008Y0093732D01*
X0202138Y0093642D01*
X0202266Y0093549D01*
X0202392Y0093453D01*
X0202515Y0093353D01*
X0202636Y0093251D01*
X0202754Y0093146D01*
X0202869Y0093037D01*
X0202982Y0092926D01*
X0203092Y0092812D01*
X0203199Y0092695D01*
X0203303Y0092576D01*
X0203404Y0092454D01*
X0203501Y0092329D01*
X0203596Y0092202D01*
X0203687Y0092073D01*
X0203776Y0091942D01*
X0203860Y0091808D01*
X0203942Y0091672D01*
X0204020Y0091535D01*
X0204094Y0091395D01*
X0204165Y0091253D01*
X0204233Y0091110D01*
X0204297Y0090965D01*
X0204357Y0090819D01*
X0204413Y0090671D01*
X0204466Y0090522D01*
X0204515Y0090371D01*
X0204560Y0090219D01*
X0204601Y0090066D01*
X0204639Y0089913D01*
X0204672Y0089758D01*
X0204702Y0089602D01*
X0204728Y0089446D01*
X0204749Y0089289D01*
X0204767Y0089132D01*
X0204781Y0088974D01*
X0204791Y0088816D01*
X0204797Y0088658D01*
X0204799Y0088500D01*
X0204797Y0088342D01*
X0204791Y0088184D01*
X0204781Y0088026D01*
X0204767Y0087868D01*
X0204749Y0087711D01*
X0204728Y0087554D01*
X0204702Y0087398D01*
X0204672Y0087242D01*
X0204639Y0087087D01*
X0204601Y0086934D01*
X0204560Y0086781D01*
X0204515Y0086629D01*
X0204466Y0086478D01*
X0204413Y0086329D01*
X0204357Y0086181D01*
X0204297Y0086035D01*
X0204233Y0085890D01*
X0204165Y0085747D01*
X0204094Y0085605D01*
X0204020Y0085465D01*
X0203942Y0085328D01*
X0203860Y0085192D01*
X0203776Y0085058D01*
X0203687Y0084927D01*
X0203596Y0084798D01*
X0203501Y0084671D01*
X0203404Y0084546D01*
X0203303Y0084424D01*
X0203199Y0084305D01*
X0203092Y0084188D01*
X0202982Y0084074D01*
X0202869Y0083963D01*
X0202754Y0083854D01*
X0202636Y0083749D01*
X0202515Y0083647D01*
X0202392Y0083547D01*
X0202266Y0083451D01*
X0202138Y0083358D01*
X0202008Y0083268D01*
X0201875Y0083182D01*
X0201740Y0083098D01*
X0201604Y0083019D01*
X0201465Y0082942D01*
X0201324Y0082870D01*
X0201182Y0082800D01*
X0201038Y0082735D01*
X0200892Y0082673D01*
X0200745Y0082615D01*
X0200596Y0082560D01*
X0200446Y0082509D01*
X0200295Y0082462D01*
X0200143Y0082419D01*
X0199990Y0082380D01*
X0199835Y0082344D01*
X0199680Y0082313D01*
X0199524Y0082285D01*
X0199368Y0082261D01*
X0199211Y0082241D01*
X0199053Y0082225D01*
X0198896Y0082213D01*
X0198737Y0082205D01*
X0198579Y0082201D01*
X0198421Y0082201D01*
X0198263Y0082205D01*
X0198104Y0082213D01*
X0197947Y0082225D01*
X0197789Y0082241D01*
X0197632Y0082261D01*
X0197476Y0082285D01*
X0197320Y0082313D01*
X0197165Y0082344D01*
X0197010Y0082380D01*
X0196857Y0082419D01*
X0196705Y0082462D01*
X0196554Y0082509D01*
X0196404Y0082560D01*
X0196255Y0082615D01*
X0196108Y0082673D01*
X0195962Y0082735D01*
X0195818Y0082800D01*
X0195676Y0082870D01*
X0195535Y0082942D01*
X0195396Y0083019D01*
X0195260Y0083098D01*
X0195125Y0083182D01*
X0194992Y0083268D01*
X0194862Y0083358D01*
X0194734Y0083451D01*
X0194608Y0083547D01*
X0194485Y0083647D01*
X0194364Y0083749D01*
X0194246Y0083854D01*
X0194131Y0083963D01*
X0194018Y0084074D01*
X0193908Y0084188D01*
X0193801Y0084305D01*
X0193697Y0084424D01*
X0193596Y0084546D01*
X0193499Y0084671D01*
X0193404Y0084798D01*
X0193313Y0084927D01*
X0193224Y0085058D01*
X0193140Y0085192D01*
X0193058Y0085328D01*
X0192980Y0085465D01*
X0192906Y0085605D01*
X0192835Y0085747D01*
X0192767Y0085890D01*
X0192703Y0086035D01*
X0192643Y0086181D01*
X0192587Y0086329D01*
X0192534Y0086478D01*
X0192485Y0086629D01*
X0192440Y0086781D01*
X0192399Y0086934D01*
X0192361Y0087087D01*
X0192328Y0087242D01*
X0192298Y0087398D01*
X0192272Y0087554D01*
X0192251Y0087711D01*
X0192233Y0087868D01*
X0192219Y0088026D01*
X0192209Y0088184D01*
X0192203Y0088342D01*
X0192201Y0088500D01*
X0224701Y0081000D02*
X0224703Y0081158D01*
X0224709Y0081316D01*
X0224719Y0081474D01*
X0224733Y0081632D01*
X0224751Y0081789D01*
X0224772Y0081946D01*
X0224798Y0082102D01*
X0224828Y0082258D01*
X0224861Y0082413D01*
X0224899Y0082566D01*
X0224940Y0082719D01*
X0224985Y0082871D01*
X0225034Y0083022D01*
X0225087Y0083171D01*
X0225143Y0083319D01*
X0225203Y0083465D01*
X0225267Y0083610D01*
X0225335Y0083753D01*
X0225406Y0083895D01*
X0225480Y0084035D01*
X0225558Y0084172D01*
X0225640Y0084308D01*
X0225724Y0084442D01*
X0225813Y0084573D01*
X0225904Y0084702D01*
X0225999Y0084829D01*
X0226096Y0084954D01*
X0226197Y0085076D01*
X0226301Y0085195D01*
X0226408Y0085312D01*
X0226518Y0085426D01*
X0226631Y0085537D01*
X0226746Y0085646D01*
X0226864Y0085751D01*
X0226985Y0085853D01*
X0227108Y0085953D01*
X0227234Y0086049D01*
X0227362Y0086142D01*
X0227492Y0086232D01*
X0227625Y0086318D01*
X0227760Y0086402D01*
X0227896Y0086481D01*
X0228035Y0086558D01*
X0228176Y0086630D01*
X0228318Y0086700D01*
X0228462Y0086765D01*
X0228608Y0086827D01*
X0228755Y0086885D01*
X0228904Y0086940D01*
X0229054Y0086991D01*
X0229205Y0087038D01*
X0229357Y0087081D01*
X0229510Y0087120D01*
X0229665Y0087156D01*
X0229820Y0087187D01*
X0229976Y0087215D01*
X0230132Y0087239D01*
X0230289Y0087259D01*
X0230447Y0087275D01*
X0230604Y0087287D01*
X0230763Y0087295D01*
X0230921Y0087299D01*
X0231079Y0087299D01*
X0231237Y0087295D01*
X0231396Y0087287D01*
X0231553Y0087275D01*
X0231711Y0087259D01*
X0231868Y0087239D01*
X0232024Y0087215D01*
X0232180Y0087187D01*
X0232335Y0087156D01*
X0232490Y0087120D01*
X0232643Y0087081D01*
X0232795Y0087038D01*
X0232946Y0086991D01*
X0233096Y0086940D01*
X0233245Y0086885D01*
X0233392Y0086827D01*
X0233538Y0086765D01*
X0233682Y0086700D01*
X0233824Y0086630D01*
X0233965Y0086558D01*
X0234104Y0086481D01*
X0234240Y0086402D01*
X0234375Y0086318D01*
X0234508Y0086232D01*
X0234638Y0086142D01*
X0234766Y0086049D01*
X0234892Y0085953D01*
X0235015Y0085853D01*
X0235136Y0085751D01*
X0235254Y0085646D01*
X0235369Y0085537D01*
X0235482Y0085426D01*
X0235592Y0085312D01*
X0235699Y0085195D01*
X0235803Y0085076D01*
X0235904Y0084954D01*
X0236001Y0084829D01*
X0236096Y0084702D01*
X0236187Y0084573D01*
X0236276Y0084442D01*
X0236360Y0084308D01*
X0236442Y0084172D01*
X0236520Y0084035D01*
X0236594Y0083895D01*
X0236665Y0083753D01*
X0236733Y0083610D01*
X0236797Y0083465D01*
X0236857Y0083319D01*
X0236913Y0083171D01*
X0236966Y0083022D01*
X0237015Y0082871D01*
X0237060Y0082719D01*
X0237101Y0082566D01*
X0237139Y0082413D01*
X0237172Y0082258D01*
X0237202Y0082102D01*
X0237228Y0081946D01*
X0237249Y0081789D01*
X0237267Y0081632D01*
X0237281Y0081474D01*
X0237291Y0081316D01*
X0237297Y0081158D01*
X0237299Y0081000D01*
X0237297Y0080842D01*
X0237291Y0080684D01*
X0237281Y0080526D01*
X0237267Y0080368D01*
X0237249Y0080211D01*
X0237228Y0080054D01*
X0237202Y0079898D01*
X0237172Y0079742D01*
X0237139Y0079587D01*
X0237101Y0079434D01*
X0237060Y0079281D01*
X0237015Y0079129D01*
X0236966Y0078978D01*
X0236913Y0078829D01*
X0236857Y0078681D01*
X0236797Y0078535D01*
X0236733Y0078390D01*
X0236665Y0078247D01*
X0236594Y0078105D01*
X0236520Y0077965D01*
X0236442Y0077828D01*
X0236360Y0077692D01*
X0236276Y0077558D01*
X0236187Y0077427D01*
X0236096Y0077298D01*
X0236001Y0077171D01*
X0235904Y0077046D01*
X0235803Y0076924D01*
X0235699Y0076805D01*
X0235592Y0076688D01*
X0235482Y0076574D01*
X0235369Y0076463D01*
X0235254Y0076354D01*
X0235136Y0076249D01*
X0235015Y0076147D01*
X0234892Y0076047D01*
X0234766Y0075951D01*
X0234638Y0075858D01*
X0234508Y0075768D01*
X0234375Y0075682D01*
X0234240Y0075598D01*
X0234104Y0075519D01*
X0233965Y0075442D01*
X0233824Y0075370D01*
X0233682Y0075300D01*
X0233538Y0075235D01*
X0233392Y0075173D01*
X0233245Y0075115D01*
X0233096Y0075060D01*
X0232946Y0075009D01*
X0232795Y0074962D01*
X0232643Y0074919D01*
X0232490Y0074880D01*
X0232335Y0074844D01*
X0232180Y0074813D01*
X0232024Y0074785D01*
X0231868Y0074761D01*
X0231711Y0074741D01*
X0231553Y0074725D01*
X0231396Y0074713D01*
X0231237Y0074705D01*
X0231079Y0074701D01*
X0230921Y0074701D01*
X0230763Y0074705D01*
X0230604Y0074713D01*
X0230447Y0074725D01*
X0230289Y0074741D01*
X0230132Y0074761D01*
X0229976Y0074785D01*
X0229820Y0074813D01*
X0229665Y0074844D01*
X0229510Y0074880D01*
X0229357Y0074919D01*
X0229205Y0074962D01*
X0229054Y0075009D01*
X0228904Y0075060D01*
X0228755Y0075115D01*
X0228608Y0075173D01*
X0228462Y0075235D01*
X0228318Y0075300D01*
X0228176Y0075370D01*
X0228035Y0075442D01*
X0227896Y0075519D01*
X0227760Y0075598D01*
X0227625Y0075682D01*
X0227492Y0075768D01*
X0227362Y0075858D01*
X0227234Y0075951D01*
X0227108Y0076047D01*
X0226985Y0076147D01*
X0226864Y0076249D01*
X0226746Y0076354D01*
X0226631Y0076463D01*
X0226518Y0076574D01*
X0226408Y0076688D01*
X0226301Y0076805D01*
X0226197Y0076924D01*
X0226096Y0077046D01*
X0225999Y0077171D01*
X0225904Y0077298D01*
X0225813Y0077427D01*
X0225724Y0077558D01*
X0225640Y0077692D01*
X0225558Y0077828D01*
X0225480Y0077965D01*
X0225406Y0078105D01*
X0225335Y0078247D01*
X0225267Y0078390D01*
X0225203Y0078535D01*
X0225143Y0078681D01*
X0225087Y0078829D01*
X0225034Y0078978D01*
X0224985Y0079129D01*
X0224940Y0079281D01*
X0224899Y0079434D01*
X0224861Y0079587D01*
X0224828Y0079742D01*
X0224798Y0079898D01*
X0224772Y0080054D01*
X0224751Y0080211D01*
X0224733Y0080368D01*
X0224719Y0080526D01*
X0224709Y0080684D01*
X0224703Y0080842D01*
X0224701Y0081000D01*
X0189701Y0018500D02*
X0189703Y0018658D01*
X0189709Y0018816D01*
X0189719Y0018974D01*
X0189733Y0019132D01*
X0189751Y0019289D01*
X0189772Y0019446D01*
X0189798Y0019602D01*
X0189828Y0019758D01*
X0189861Y0019913D01*
X0189899Y0020066D01*
X0189940Y0020219D01*
X0189985Y0020371D01*
X0190034Y0020522D01*
X0190087Y0020671D01*
X0190143Y0020819D01*
X0190203Y0020965D01*
X0190267Y0021110D01*
X0190335Y0021253D01*
X0190406Y0021395D01*
X0190480Y0021535D01*
X0190558Y0021672D01*
X0190640Y0021808D01*
X0190724Y0021942D01*
X0190813Y0022073D01*
X0190904Y0022202D01*
X0190999Y0022329D01*
X0191096Y0022454D01*
X0191197Y0022576D01*
X0191301Y0022695D01*
X0191408Y0022812D01*
X0191518Y0022926D01*
X0191631Y0023037D01*
X0191746Y0023146D01*
X0191864Y0023251D01*
X0191985Y0023353D01*
X0192108Y0023453D01*
X0192234Y0023549D01*
X0192362Y0023642D01*
X0192492Y0023732D01*
X0192625Y0023818D01*
X0192760Y0023902D01*
X0192896Y0023981D01*
X0193035Y0024058D01*
X0193176Y0024130D01*
X0193318Y0024200D01*
X0193462Y0024265D01*
X0193608Y0024327D01*
X0193755Y0024385D01*
X0193904Y0024440D01*
X0194054Y0024491D01*
X0194205Y0024538D01*
X0194357Y0024581D01*
X0194510Y0024620D01*
X0194665Y0024656D01*
X0194820Y0024687D01*
X0194976Y0024715D01*
X0195132Y0024739D01*
X0195289Y0024759D01*
X0195447Y0024775D01*
X0195604Y0024787D01*
X0195763Y0024795D01*
X0195921Y0024799D01*
X0196079Y0024799D01*
X0196237Y0024795D01*
X0196396Y0024787D01*
X0196553Y0024775D01*
X0196711Y0024759D01*
X0196868Y0024739D01*
X0197024Y0024715D01*
X0197180Y0024687D01*
X0197335Y0024656D01*
X0197490Y0024620D01*
X0197643Y0024581D01*
X0197795Y0024538D01*
X0197946Y0024491D01*
X0198096Y0024440D01*
X0198245Y0024385D01*
X0198392Y0024327D01*
X0198538Y0024265D01*
X0198682Y0024200D01*
X0198824Y0024130D01*
X0198965Y0024058D01*
X0199104Y0023981D01*
X0199240Y0023902D01*
X0199375Y0023818D01*
X0199508Y0023732D01*
X0199638Y0023642D01*
X0199766Y0023549D01*
X0199892Y0023453D01*
X0200015Y0023353D01*
X0200136Y0023251D01*
X0200254Y0023146D01*
X0200369Y0023037D01*
X0200482Y0022926D01*
X0200592Y0022812D01*
X0200699Y0022695D01*
X0200803Y0022576D01*
X0200904Y0022454D01*
X0201001Y0022329D01*
X0201096Y0022202D01*
X0201187Y0022073D01*
X0201276Y0021942D01*
X0201360Y0021808D01*
X0201442Y0021672D01*
X0201520Y0021535D01*
X0201594Y0021395D01*
X0201665Y0021253D01*
X0201733Y0021110D01*
X0201797Y0020965D01*
X0201857Y0020819D01*
X0201913Y0020671D01*
X0201966Y0020522D01*
X0202015Y0020371D01*
X0202060Y0020219D01*
X0202101Y0020066D01*
X0202139Y0019913D01*
X0202172Y0019758D01*
X0202202Y0019602D01*
X0202228Y0019446D01*
X0202249Y0019289D01*
X0202267Y0019132D01*
X0202281Y0018974D01*
X0202291Y0018816D01*
X0202297Y0018658D01*
X0202299Y0018500D01*
X0202297Y0018342D01*
X0202291Y0018184D01*
X0202281Y0018026D01*
X0202267Y0017868D01*
X0202249Y0017711D01*
X0202228Y0017554D01*
X0202202Y0017398D01*
X0202172Y0017242D01*
X0202139Y0017087D01*
X0202101Y0016934D01*
X0202060Y0016781D01*
X0202015Y0016629D01*
X0201966Y0016478D01*
X0201913Y0016329D01*
X0201857Y0016181D01*
X0201797Y0016035D01*
X0201733Y0015890D01*
X0201665Y0015747D01*
X0201594Y0015605D01*
X0201520Y0015465D01*
X0201442Y0015328D01*
X0201360Y0015192D01*
X0201276Y0015058D01*
X0201187Y0014927D01*
X0201096Y0014798D01*
X0201001Y0014671D01*
X0200904Y0014546D01*
X0200803Y0014424D01*
X0200699Y0014305D01*
X0200592Y0014188D01*
X0200482Y0014074D01*
X0200369Y0013963D01*
X0200254Y0013854D01*
X0200136Y0013749D01*
X0200015Y0013647D01*
X0199892Y0013547D01*
X0199766Y0013451D01*
X0199638Y0013358D01*
X0199508Y0013268D01*
X0199375Y0013182D01*
X0199240Y0013098D01*
X0199104Y0013019D01*
X0198965Y0012942D01*
X0198824Y0012870D01*
X0198682Y0012800D01*
X0198538Y0012735D01*
X0198392Y0012673D01*
X0198245Y0012615D01*
X0198096Y0012560D01*
X0197946Y0012509D01*
X0197795Y0012462D01*
X0197643Y0012419D01*
X0197490Y0012380D01*
X0197335Y0012344D01*
X0197180Y0012313D01*
X0197024Y0012285D01*
X0196868Y0012261D01*
X0196711Y0012241D01*
X0196553Y0012225D01*
X0196396Y0012213D01*
X0196237Y0012205D01*
X0196079Y0012201D01*
X0195921Y0012201D01*
X0195763Y0012205D01*
X0195604Y0012213D01*
X0195447Y0012225D01*
X0195289Y0012241D01*
X0195132Y0012261D01*
X0194976Y0012285D01*
X0194820Y0012313D01*
X0194665Y0012344D01*
X0194510Y0012380D01*
X0194357Y0012419D01*
X0194205Y0012462D01*
X0194054Y0012509D01*
X0193904Y0012560D01*
X0193755Y0012615D01*
X0193608Y0012673D01*
X0193462Y0012735D01*
X0193318Y0012800D01*
X0193176Y0012870D01*
X0193035Y0012942D01*
X0192896Y0013019D01*
X0192760Y0013098D01*
X0192625Y0013182D01*
X0192492Y0013268D01*
X0192362Y0013358D01*
X0192234Y0013451D01*
X0192108Y0013547D01*
X0191985Y0013647D01*
X0191864Y0013749D01*
X0191746Y0013854D01*
X0191631Y0013963D01*
X0191518Y0014074D01*
X0191408Y0014188D01*
X0191301Y0014305D01*
X0191197Y0014424D01*
X0191096Y0014546D01*
X0190999Y0014671D01*
X0190904Y0014798D01*
X0190813Y0014927D01*
X0190724Y0015058D01*
X0190640Y0015192D01*
X0190558Y0015328D01*
X0190480Y0015465D01*
X0190406Y0015605D01*
X0190335Y0015747D01*
X0190267Y0015890D01*
X0190203Y0016035D01*
X0190143Y0016181D01*
X0190087Y0016329D01*
X0190034Y0016478D01*
X0189985Y0016629D01*
X0189940Y0016781D01*
X0189899Y0016934D01*
X0189861Y0017087D01*
X0189828Y0017242D01*
X0189798Y0017398D01*
X0189772Y0017554D01*
X0189751Y0017711D01*
X0189733Y0017868D01*
X0189719Y0018026D01*
X0189709Y0018184D01*
X0189703Y0018342D01*
X0189701Y0018500D01*
M02*
