%
M48
M72
T01C0.0354
T02C0.0394
T03C0.0433
T04C0.0827
T05C0.1260
%
T01
X1850Y7100
X4100Y7100
X4100Y11100
X1850Y11100
X10100Y11100
X10100Y7100
T02
X8750Y12400
X8250Y13400
X7750Y12400
X7250Y13400
X6750Y12400
X6250Y13400
X5750Y12400
X5250Y13400
T03
X5525Y6356
X6313Y6356
X7100Y6356
X7887Y6356
X8675Y6356
X8084Y647
X7100Y647
X6116Y647
T04
X4915Y3600
X9285Y3600
T05
X1850Y1850
X7100Y8600
X9250Y15900
X12350Y15100
X4750Y15900
X1850Y15100
X12350Y1850
M30
