G75*
%MOIN*%
%OFA0B0*%
%FSLAX25Y25*%
%IPPOS*%
%LPD*%
%AMOC8*
5,1,8,0,0,1.08239X$1,22.5*
%
%ADD10C,0.00000*%
%ADD11C,0.00800*%
%ADD12C,0.00500*%
D10*
X0001000Y0001000D02*
X0001000Y0170961D01*
X0141000Y0171000D01*
X0141000Y0001000D01*
X0001000Y0001000D01*
X0012201Y0018500D02*
X0012203Y0018658D01*
X0012209Y0018816D01*
X0012219Y0018974D01*
X0012233Y0019132D01*
X0012251Y0019289D01*
X0012272Y0019446D01*
X0012298Y0019602D01*
X0012328Y0019758D01*
X0012361Y0019913D01*
X0012399Y0020066D01*
X0012440Y0020219D01*
X0012485Y0020371D01*
X0012534Y0020522D01*
X0012587Y0020671D01*
X0012643Y0020819D01*
X0012703Y0020965D01*
X0012767Y0021110D01*
X0012835Y0021253D01*
X0012906Y0021395D01*
X0012980Y0021535D01*
X0013058Y0021672D01*
X0013140Y0021808D01*
X0013224Y0021942D01*
X0013313Y0022073D01*
X0013404Y0022202D01*
X0013499Y0022329D01*
X0013596Y0022454D01*
X0013697Y0022576D01*
X0013801Y0022695D01*
X0013908Y0022812D01*
X0014018Y0022926D01*
X0014131Y0023037D01*
X0014246Y0023146D01*
X0014364Y0023251D01*
X0014485Y0023353D01*
X0014608Y0023453D01*
X0014734Y0023549D01*
X0014862Y0023642D01*
X0014992Y0023732D01*
X0015125Y0023818D01*
X0015260Y0023902D01*
X0015396Y0023981D01*
X0015535Y0024058D01*
X0015676Y0024130D01*
X0015818Y0024200D01*
X0015962Y0024265D01*
X0016108Y0024327D01*
X0016255Y0024385D01*
X0016404Y0024440D01*
X0016554Y0024491D01*
X0016705Y0024538D01*
X0016857Y0024581D01*
X0017010Y0024620D01*
X0017165Y0024656D01*
X0017320Y0024687D01*
X0017476Y0024715D01*
X0017632Y0024739D01*
X0017789Y0024759D01*
X0017947Y0024775D01*
X0018104Y0024787D01*
X0018263Y0024795D01*
X0018421Y0024799D01*
X0018579Y0024799D01*
X0018737Y0024795D01*
X0018896Y0024787D01*
X0019053Y0024775D01*
X0019211Y0024759D01*
X0019368Y0024739D01*
X0019524Y0024715D01*
X0019680Y0024687D01*
X0019835Y0024656D01*
X0019990Y0024620D01*
X0020143Y0024581D01*
X0020295Y0024538D01*
X0020446Y0024491D01*
X0020596Y0024440D01*
X0020745Y0024385D01*
X0020892Y0024327D01*
X0021038Y0024265D01*
X0021182Y0024200D01*
X0021324Y0024130D01*
X0021465Y0024058D01*
X0021604Y0023981D01*
X0021740Y0023902D01*
X0021875Y0023818D01*
X0022008Y0023732D01*
X0022138Y0023642D01*
X0022266Y0023549D01*
X0022392Y0023453D01*
X0022515Y0023353D01*
X0022636Y0023251D01*
X0022754Y0023146D01*
X0022869Y0023037D01*
X0022982Y0022926D01*
X0023092Y0022812D01*
X0023199Y0022695D01*
X0023303Y0022576D01*
X0023404Y0022454D01*
X0023501Y0022329D01*
X0023596Y0022202D01*
X0023687Y0022073D01*
X0023776Y0021942D01*
X0023860Y0021808D01*
X0023942Y0021672D01*
X0024020Y0021535D01*
X0024094Y0021395D01*
X0024165Y0021253D01*
X0024233Y0021110D01*
X0024297Y0020965D01*
X0024357Y0020819D01*
X0024413Y0020671D01*
X0024466Y0020522D01*
X0024515Y0020371D01*
X0024560Y0020219D01*
X0024601Y0020066D01*
X0024639Y0019913D01*
X0024672Y0019758D01*
X0024702Y0019602D01*
X0024728Y0019446D01*
X0024749Y0019289D01*
X0024767Y0019132D01*
X0024781Y0018974D01*
X0024791Y0018816D01*
X0024797Y0018658D01*
X0024799Y0018500D01*
X0024797Y0018342D01*
X0024791Y0018184D01*
X0024781Y0018026D01*
X0024767Y0017868D01*
X0024749Y0017711D01*
X0024728Y0017554D01*
X0024702Y0017398D01*
X0024672Y0017242D01*
X0024639Y0017087D01*
X0024601Y0016934D01*
X0024560Y0016781D01*
X0024515Y0016629D01*
X0024466Y0016478D01*
X0024413Y0016329D01*
X0024357Y0016181D01*
X0024297Y0016035D01*
X0024233Y0015890D01*
X0024165Y0015747D01*
X0024094Y0015605D01*
X0024020Y0015465D01*
X0023942Y0015328D01*
X0023860Y0015192D01*
X0023776Y0015058D01*
X0023687Y0014927D01*
X0023596Y0014798D01*
X0023501Y0014671D01*
X0023404Y0014546D01*
X0023303Y0014424D01*
X0023199Y0014305D01*
X0023092Y0014188D01*
X0022982Y0014074D01*
X0022869Y0013963D01*
X0022754Y0013854D01*
X0022636Y0013749D01*
X0022515Y0013647D01*
X0022392Y0013547D01*
X0022266Y0013451D01*
X0022138Y0013358D01*
X0022008Y0013268D01*
X0021875Y0013182D01*
X0021740Y0013098D01*
X0021604Y0013019D01*
X0021465Y0012942D01*
X0021324Y0012870D01*
X0021182Y0012800D01*
X0021038Y0012735D01*
X0020892Y0012673D01*
X0020745Y0012615D01*
X0020596Y0012560D01*
X0020446Y0012509D01*
X0020295Y0012462D01*
X0020143Y0012419D01*
X0019990Y0012380D01*
X0019835Y0012344D01*
X0019680Y0012313D01*
X0019524Y0012285D01*
X0019368Y0012261D01*
X0019211Y0012241D01*
X0019053Y0012225D01*
X0018896Y0012213D01*
X0018737Y0012205D01*
X0018579Y0012201D01*
X0018421Y0012201D01*
X0018263Y0012205D01*
X0018104Y0012213D01*
X0017947Y0012225D01*
X0017789Y0012241D01*
X0017632Y0012261D01*
X0017476Y0012285D01*
X0017320Y0012313D01*
X0017165Y0012344D01*
X0017010Y0012380D01*
X0016857Y0012419D01*
X0016705Y0012462D01*
X0016554Y0012509D01*
X0016404Y0012560D01*
X0016255Y0012615D01*
X0016108Y0012673D01*
X0015962Y0012735D01*
X0015818Y0012800D01*
X0015676Y0012870D01*
X0015535Y0012942D01*
X0015396Y0013019D01*
X0015260Y0013098D01*
X0015125Y0013182D01*
X0014992Y0013268D01*
X0014862Y0013358D01*
X0014734Y0013451D01*
X0014608Y0013547D01*
X0014485Y0013647D01*
X0014364Y0013749D01*
X0014246Y0013854D01*
X0014131Y0013963D01*
X0014018Y0014074D01*
X0013908Y0014188D01*
X0013801Y0014305D01*
X0013697Y0014424D01*
X0013596Y0014546D01*
X0013499Y0014671D01*
X0013404Y0014798D01*
X0013313Y0014927D01*
X0013224Y0015058D01*
X0013140Y0015192D01*
X0013058Y0015328D01*
X0012980Y0015465D01*
X0012906Y0015605D01*
X0012835Y0015747D01*
X0012767Y0015890D01*
X0012703Y0016035D01*
X0012643Y0016181D01*
X0012587Y0016329D01*
X0012534Y0016478D01*
X0012485Y0016629D01*
X0012440Y0016781D01*
X0012399Y0016934D01*
X0012361Y0017087D01*
X0012328Y0017242D01*
X0012298Y0017398D01*
X0012272Y0017554D01*
X0012251Y0017711D01*
X0012233Y0017868D01*
X0012219Y0018026D01*
X0012209Y0018184D01*
X0012203Y0018342D01*
X0012201Y0018500D01*
X0064701Y0086000D02*
X0064703Y0086158D01*
X0064709Y0086316D01*
X0064719Y0086474D01*
X0064733Y0086632D01*
X0064751Y0086789D01*
X0064772Y0086946D01*
X0064798Y0087102D01*
X0064828Y0087258D01*
X0064861Y0087413D01*
X0064899Y0087566D01*
X0064940Y0087719D01*
X0064985Y0087871D01*
X0065034Y0088022D01*
X0065087Y0088171D01*
X0065143Y0088319D01*
X0065203Y0088465D01*
X0065267Y0088610D01*
X0065335Y0088753D01*
X0065406Y0088895D01*
X0065480Y0089035D01*
X0065558Y0089172D01*
X0065640Y0089308D01*
X0065724Y0089442D01*
X0065813Y0089573D01*
X0065904Y0089702D01*
X0065999Y0089829D01*
X0066096Y0089954D01*
X0066197Y0090076D01*
X0066301Y0090195D01*
X0066408Y0090312D01*
X0066518Y0090426D01*
X0066631Y0090537D01*
X0066746Y0090646D01*
X0066864Y0090751D01*
X0066985Y0090853D01*
X0067108Y0090953D01*
X0067234Y0091049D01*
X0067362Y0091142D01*
X0067492Y0091232D01*
X0067625Y0091318D01*
X0067760Y0091402D01*
X0067896Y0091481D01*
X0068035Y0091558D01*
X0068176Y0091630D01*
X0068318Y0091700D01*
X0068462Y0091765D01*
X0068608Y0091827D01*
X0068755Y0091885D01*
X0068904Y0091940D01*
X0069054Y0091991D01*
X0069205Y0092038D01*
X0069357Y0092081D01*
X0069510Y0092120D01*
X0069665Y0092156D01*
X0069820Y0092187D01*
X0069976Y0092215D01*
X0070132Y0092239D01*
X0070289Y0092259D01*
X0070447Y0092275D01*
X0070604Y0092287D01*
X0070763Y0092295D01*
X0070921Y0092299D01*
X0071079Y0092299D01*
X0071237Y0092295D01*
X0071396Y0092287D01*
X0071553Y0092275D01*
X0071711Y0092259D01*
X0071868Y0092239D01*
X0072024Y0092215D01*
X0072180Y0092187D01*
X0072335Y0092156D01*
X0072490Y0092120D01*
X0072643Y0092081D01*
X0072795Y0092038D01*
X0072946Y0091991D01*
X0073096Y0091940D01*
X0073245Y0091885D01*
X0073392Y0091827D01*
X0073538Y0091765D01*
X0073682Y0091700D01*
X0073824Y0091630D01*
X0073965Y0091558D01*
X0074104Y0091481D01*
X0074240Y0091402D01*
X0074375Y0091318D01*
X0074508Y0091232D01*
X0074638Y0091142D01*
X0074766Y0091049D01*
X0074892Y0090953D01*
X0075015Y0090853D01*
X0075136Y0090751D01*
X0075254Y0090646D01*
X0075369Y0090537D01*
X0075482Y0090426D01*
X0075592Y0090312D01*
X0075699Y0090195D01*
X0075803Y0090076D01*
X0075904Y0089954D01*
X0076001Y0089829D01*
X0076096Y0089702D01*
X0076187Y0089573D01*
X0076276Y0089442D01*
X0076360Y0089308D01*
X0076442Y0089172D01*
X0076520Y0089035D01*
X0076594Y0088895D01*
X0076665Y0088753D01*
X0076733Y0088610D01*
X0076797Y0088465D01*
X0076857Y0088319D01*
X0076913Y0088171D01*
X0076966Y0088022D01*
X0077015Y0087871D01*
X0077060Y0087719D01*
X0077101Y0087566D01*
X0077139Y0087413D01*
X0077172Y0087258D01*
X0077202Y0087102D01*
X0077228Y0086946D01*
X0077249Y0086789D01*
X0077267Y0086632D01*
X0077281Y0086474D01*
X0077291Y0086316D01*
X0077297Y0086158D01*
X0077299Y0086000D01*
X0077297Y0085842D01*
X0077291Y0085684D01*
X0077281Y0085526D01*
X0077267Y0085368D01*
X0077249Y0085211D01*
X0077228Y0085054D01*
X0077202Y0084898D01*
X0077172Y0084742D01*
X0077139Y0084587D01*
X0077101Y0084434D01*
X0077060Y0084281D01*
X0077015Y0084129D01*
X0076966Y0083978D01*
X0076913Y0083829D01*
X0076857Y0083681D01*
X0076797Y0083535D01*
X0076733Y0083390D01*
X0076665Y0083247D01*
X0076594Y0083105D01*
X0076520Y0082965D01*
X0076442Y0082828D01*
X0076360Y0082692D01*
X0076276Y0082558D01*
X0076187Y0082427D01*
X0076096Y0082298D01*
X0076001Y0082171D01*
X0075904Y0082046D01*
X0075803Y0081924D01*
X0075699Y0081805D01*
X0075592Y0081688D01*
X0075482Y0081574D01*
X0075369Y0081463D01*
X0075254Y0081354D01*
X0075136Y0081249D01*
X0075015Y0081147D01*
X0074892Y0081047D01*
X0074766Y0080951D01*
X0074638Y0080858D01*
X0074508Y0080768D01*
X0074375Y0080682D01*
X0074240Y0080598D01*
X0074104Y0080519D01*
X0073965Y0080442D01*
X0073824Y0080370D01*
X0073682Y0080300D01*
X0073538Y0080235D01*
X0073392Y0080173D01*
X0073245Y0080115D01*
X0073096Y0080060D01*
X0072946Y0080009D01*
X0072795Y0079962D01*
X0072643Y0079919D01*
X0072490Y0079880D01*
X0072335Y0079844D01*
X0072180Y0079813D01*
X0072024Y0079785D01*
X0071868Y0079761D01*
X0071711Y0079741D01*
X0071553Y0079725D01*
X0071396Y0079713D01*
X0071237Y0079705D01*
X0071079Y0079701D01*
X0070921Y0079701D01*
X0070763Y0079705D01*
X0070604Y0079713D01*
X0070447Y0079725D01*
X0070289Y0079741D01*
X0070132Y0079761D01*
X0069976Y0079785D01*
X0069820Y0079813D01*
X0069665Y0079844D01*
X0069510Y0079880D01*
X0069357Y0079919D01*
X0069205Y0079962D01*
X0069054Y0080009D01*
X0068904Y0080060D01*
X0068755Y0080115D01*
X0068608Y0080173D01*
X0068462Y0080235D01*
X0068318Y0080300D01*
X0068176Y0080370D01*
X0068035Y0080442D01*
X0067896Y0080519D01*
X0067760Y0080598D01*
X0067625Y0080682D01*
X0067492Y0080768D01*
X0067362Y0080858D01*
X0067234Y0080951D01*
X0067108Y0081047D01*
X0066985Y0081147D01*
X0066864Y0081249D01*
X0066746Y0081354D01*
X0066631Y0081463D01*
X0066518Y0081574D01*
X0066408Y0081688D01*
X0066301Y0081805D01*
X0066197Y0081924D01*
X0066096Y0082046D01*
X0065999Y0082171D01*
X0065904Y0082298D01*
X0065813Y0082427D01*
X0065724Y0082558D01*
X0065640Y0082692D01*
X0065558Y0082828D01*
X0065480Y0082965D01*
X0065406Y0083105D01*
X0065335Y0083247D01*
X0065267Y0083390D01*
X0065203Y0083535D01*
X0065143Y0083681D01*
X0065087Y0083829D01*
X0065034Y0083978D01*
X0064985Y0084129D01*
X0064940Y0084281D01*
X0064899Y0084434D01*
X0064861Y0084587D01*
X0064828Y0084742D01*
X0064798Y0084898D01*
X0064772Y0085054D01*
X0064751Y0085211D01*
X0064733Y0085368D01*
X0064719Y0085526D01*
X0064709Y0085684D01*
X0064703Y0085842D01*
X0064701Y0086000D01*
X0012201Y0151000D02*
X0012203Y0151158D01*
X0012209Y0151316D01*
X0012219Y0151474D01*
X0012233Y0151632D01*
X0012251Y0151789D01*
X0012272Y0151946D01*
X0012298Y0152102D01*
X0012328Y0152258D01*
X0012361Y0152413D01*
X0012399Y0152566D01*
X0012440Y0152719D01*
X0012485Y0152871D01*
X0012534Y0153022D01*
X0012587Y0153171D01*
X0012643Y0153319D01*
X0012703Y0153465D01*
X0012767Y0153610D01*
X0012835Y0153753D01*
X0012906Y0153895D01*
X0012980Y0154035D01*
X0013058Y0154172D01*
X0013140Y0154308D01*
X0013224Y0154442D01*
X0013313Y0154573D01*
X0013404Y0154702D01*
X0013499Y0154829D01*
X0013596Y0154954D01*
X0013697Y0155076D01*
X0013801Y0155195D01*
X0013908Y0155312D01*
X0014018Y0155426D01*
X0014131Y0155537D01*
X0014246Y0155646D01*
X0014364Y0155751D01*
X0014485Y0155853D01*
X0014608Y0155953D01*
X0014734Y0156049D01*
X0014862Y0156142D01*
X0014992Y0156232D01*
X0015125Y0156318D01*
X0015260Y0156402D01*
X0015396Y0156481D01*
X0015535Y0156558D01*
X0015676Y0156630D01*
X0015818Y0156700D01*
X0015962Y0156765D01*
X0016108Y0156827D01*
X0016255Y0156885D01*
X0016404Y0156940D01*
X0016554Y0156991D01*
X0016705Y0157038D01*
X0016857Y0157081D01*
X0017010Y0157120D01*
X0017165Y0157156D01*
X0017320Y0157187D01*
X0017476Y0157215D01*
X0017632Y0157239D01*
X0017789Y0157259D01*
X0017947Y0157275D01*
X0018104Y0157287D01*
X0018263Y0157295D01*
X0018421Y0157299D01*
X0018579Y0157299D01*
X0018737Y0157295D01*
X0018896Y0157287D01*
X0019053Y0157275D01*
X0019211Y0157259D01*
X0019368Y0157239D01*
X0019524Y0157215D01*
X0019680Y0157187D01*
X0019835Y0157156D01*
X0019990Y0157120D01*
X0020143Y0157081D01*
X0020295Y0157038D01*
X0020446Y0156991D01*
X0020596Y0156940D01*
X0020745Y0156885D01*
X0020892Y0156827D01*
X0021038Y0156765D01*
X0021182Y0156700D01*
X0021324Y0156630D01*
X0021465Y0156558D01*
X0021604Y0156481D01*
X0021740Y0156402D01*
X0021875Y0156318D01*
X0022008Y0156232D01*
X0022138Y0156142D01*
X0022266Y0156049D01*
X0022392Y0155953D01*
X0022515Y0155853D01*
X0022636Y0155751D01*
X0022754Y0155646D01*
X0022869Y0155537D01*
X0022982Y0155426D01*
X0023092Y0155312D01*
X0023199Y0155195D01*
X0023303Y0155076D01*
X0023404Y0154954D01*
X0023501Y0154829D01*
X0023596Y0154702D01*
X0023687Y0154573D01*
X0023776Y0154442D01*
X0023860Y0154308D01*
X0023942Y0154172D01*
X0024020Y0154035D01*
X0024094Y0153895D01*
X0024165Y0153753D01*
X0024233Y0153610D01*
X0024297Y0153465D01*
X0024357Y0153319D01*
X0024413Y0153171D01*
X0024466Y0153022D01*
X0024515Y0152871D01*
X0024560Y0152719D01*
X0024601Y0152566D01*
X0024639Y0152413D01*
X0024672Y0152258D01*
X0024702Y0152102D01*
X0024728Y0151946D01*
X0024749Y0151789D01*
X0024767Y0151632D01*
X0024781Y0151474D01*
X0024791Y0151316D01*
X0024797Y0151158D01*
X0024799Y0151000D01*
X0024797Y0150842D01*
X0024791Y0150684D01*
X0024781Y0150526D01*
X0024767Y0150368D01*
X0024749Y0150211D01*
X0024728Y0150054D01*
X0024702Y0149898D01*
X0024672Y0149742D01*
X0024639Y0149587D01*
X0024601Y0149434D01*
X0024560Y0149281D01*
X0024515Y0149129D01*
X0024466Y0148978D01*
X0024413Y0148829D01*
X0024357Y0148681D01*
X0024297Y0148535D01*
X0024233Y0148390D01*
X0024165Y0148247D01*
X0024094Y0148105D01*
X0024020Y0147965D01*
X0023942Y0147828D01*
X0023860Y0147692D01*
X0023776Y0147558D01*
X0023687Y0147427D01*
X0023596Y0147298D01*
X0023501Y0147171D01*
X0023404Y0147046D01*
X0023303Y0146924D01*
X0023199Y0146805D01*
X0023092Y0146688D01*
X0022982Y0146574D01*
X0022869Y0146463D01*
X0022754Y0146354D01*
X0022636Y0146249D01*
X0022515Y0146147D01*
X0022392Y0146047D01*
X0022266Y0145951D01*
X0022138Y0145858D01*
X0022008Y0145768D01*
X0021875Y0145682D01*
X0021740Y0145598D01*
X0021604Y0145519D01*
X0021465Y0145442D01*
X0021324Y0145370D01*
X0021182Y0145300D01*
X0021038Y0145235D01*
X0020892Y0145173D01*
X0020745Y0145115D01*
X0020596Y0145060D01*
X0020446Y0145009D01*
X0020295Y0144962D01*
X0020143Y0144919D01*
X0019990Y0144880D01*
X0019835Y0144844D01*
X0019680Y0144813D01*
X0019524Y0144785D01*
X0019368Y0144761D01*
X0019211Y0144741D01*
X0019053Y0144725D01*
X0018896Y0144713D01*
X0018737Y0144705D01*
X0018579Y0144701D01*
X0018421Y0144701D01*
X0018263Y0144705D01*
X0018104Y0144713D01*
X0017947Y0144725D01*
X0017789Y0144741D01*
X0017632Y0144761D01*
X0017476Y0144785D01*
X0017320Y0144813D01*
X0017165Y0144844D01*
X0017010Y0144880D01*
X0016857Y0144919D01*
X0016705Y0144962D01*
X0016554Y0145009D01*
X0016404Y0145060D01*
X0016255Y0145115D01*
X0016108Y0145173D01*
X0015962Y0145235D01*
X0015818Y0145300D01*
X0015676Y0145370D01*
X0015535Y0145442D01*
X0015396Y0145519D01*
X0015260Y0145598D01*
X0015125Y0145682D01*
X0014992Y0145768D01*
X0014862Y0145858D01*
X0014734Y0145951D01*
X0014608Y0146047D01*
X0014485Y0146147D01*
X0014364Y0146249D01*
X0014246Y0146354D01*
X0014131Y0146463D01*
X0014018Y0146574D01*
X0013908Y0146688D01*
X0013801Y0146805D01*
X0013697Y0146924D01*
X0013596Y0147046D01*
X0013499Y0147171D01*
X0013404Y0147298D01*
X0013313Y0147427D01*
X0013224Y0147558D01*
X0013140Y0147692D01*
X0013058Y0147828D01*
X0012980Y0147965D01*
X0012906Y0148105D01*
X0012835Y0148247D01*
X0012767Y0148390D01*
X0012703Y0148535D01*
X0012643Y0148681D01*
X0012587Y0148829D01*
X0012534Y0148978D01*
X0012485Y0149129D01*
X0012440Y0149281D01*
X0012399Y0149434D01*
X0012361Y0149587D01*
X0012328Y0149742D01*
X0012298Y0149898D01*
X0012272Y0150054D01*
X0012251Y0150211D01*
X0012233Y0150368D01*
X0012219Y0150526D01*
X0012209Y0150684D01*
X0012203Y0150842D01*
X0012201Y0151000D01*
X0041201Y0159000D02*
X0041203Y0159158D01*
X0041209Y0159316D01*
X0041219Y0159474D01*
X0041233Y0159632D01*
X0041251Y0159789D01*
X0041272Y0159946D01*
X0041298Y0160102D01*
X0041328Y0160258D01*
X0041361Y0160413D01*
X0041399Y0160566D01*
X0041440Y0160719D01*
X0041485Y0160871D01*
X0041534Y0161022D01*
X0041587Y0161171D01*
X0041643Y0161319D01*
X0041703Y0161465D01*
X0041767Y0161610D01*
X0041835Y0161753D01*
X0041906Y0161895D01*
X0041980Y0162035D01*
X0042058Y0162172D01*
X0042140Y0162308D01*
X0042224Y0162442D01*
X0042313Y0162573D01*
X0042404Y0162702D01*
X0042499Y0162829D01*
X0042596Y0162954D01*
X0042697Y0163076D01*
X0042801Y0163195D01*
X0042908Y0163312D01*
X0043018Y0163426D01*
X0043131Y0163537D01*
X0043246Y0163646D01*
X0043364Y0163751D01*
X0043485Y0163853D01*
X0043608Y0163953D01*
X0043734Y0164049D01*
X0043862Y0164142D01*
X0043992Y0164232D01*
X0044125Y0164318D01*
X0044260Y0164402D01*
X0044396Y0164481D01*
X0044535Y0164558D01*
X0044676Y0164630D01*
X0044818Y0164700D01*
X0044962Y0164765D01*
X0045108Y0164827D01*
X0045255Y0164885D01*
X0045404Y0164940D01*
X0045554Y0164991D01*
X0045705Y0165038D01*
X0045857Y0165081D01*
X0046010Y0165120D01*
X0046165Y0165156D01*
X0046320Y0165187D01*
X0046476Y0165215D01*
X0046632Y0165239D01*
X0046789Y0165259D01*
X0046947Y0165275D01*
X0047104Y0165287D01*
X0047263Y0165295D01*
X0047421Y0165299D01*
X0047579Y0165299D01*
X0047737Y0165295D01*
X0047896Y0165287D01*
X0048053Y0165275D01*
X0048211Y0165259D01*
X0048368Y0165239D01*
X0048524Y0165215D01*
X0048680Y0165187D01*
X0048835Y0165156D01*
X0048990Y0165120D01*
X0049143Y0165081D01*
X0049295Y0165038D01*
X0049446Y0164991D01*
X0049596Y0164940D01*
X0049745Y0164885D01*
X0049892Y0164827D01*
X0050038Y0164765D01*
X0050182Y0164700D01*
X0050324Y0164630D01*
X0050465Y0164558D01*
X0050604Y0164481D01*
X0050740Y0164402D01*
X0050875Y0164318D01*
X0051008Y0164232D01*
X0051138Y0164142D01*
X0051266Y0164049D01*
X0051392Y0163953D01*
X0051515Y0163853D01*
X0051636Y0163751D01*
X0051754Y0163646D01*
X0051869Y0163537D01*
X0051982Y0163426D01*
X0052092Y0163312D01*
X0052199Y0163195D01*
X0052303Y0163076D01*
X0052404Y0162954D01*
X0052501Y0162829D01*
X0052596Y0162702D01*
X0052687Y0162573D01*
X0052776Y0162442D01*
X0052860Y0162308D01*
X0052942Y0162172D01*
X0053020Y0162035D01*
X0053094Y0161895D01*
X0053165Y0161753D01*
X0053233Y0161610D01*
X0053297Y0161465D01*
X0053357Y0161319D01*
X0053413Y0161171D01*
X0053466Y0161022D01*
X0053515Y0160871D01*
X0053560Y0160719D01*
X0053601Y0160566D01*
X0053639Y0160413D01*
X0053672Y0160258D01*
X0053702Y0160102D01*
X0053728Y0159946D01*
X0053749Y0159789D01*
X0053767Y0159632D01*
X0053781Y0159474D01*
X0053791Y0159316D01*
X0053797Y0159158D01*
X0053799Y0159000D01*
X0053797Y0158842D01*
X0053791Y0158684D01*
X0053781Y0158526D01*
X0053767Y0158368D01*
X0053749Y0158211D01*
X0053728Y0158054D01*
X0053702Y0157898D01*
X0053672Y0157742D01*
X0053639Y0157587D01*
X0053601Y0157434D01*
X0053560Y0157281D01*
X0053515Y0157129D01*
X0053466Y0156978D01*
X0053413Y0156829D01*
X0053357Y0156681D01*
X0053297Y0156535D01*
X0053233Y0156390D01*
X0053165Y0156247D01*
X0053094Y0156105D01*
X0053020Y0155965D01*
X0052942Y0155828D01*
X0052860Y0155692D01*
X0052776Y0155558D01*
X0052687Y0155427D01*
X0052596Y0155298D01*
X0052501Y0155171D01*
X0052404Y0155046D01*
X0052303Y0154924D01*
X0052199Y0154805D01*
X0052092Y0154688D01*
X0051982Y0154574D01*
X0051869Y0154463D01*
X0051754Y0154354D01*
X0051636Y0154249D01*
X0051515Y0154147D01*
X0051392Y0154047D01*
X0051266Y0153951D01*
X0051138Y0153858D01*
X0051008Y0153768D01*
X0050875Y0153682D01*
X0050740Y0153598D01*
X0050604Y0153519D01*
X0050465Y0153442D01*
X0050324Y0153370D01*
X0050182Y0153300D01*
X0050038Y0153235D01*
X0049892Y0153173D01*
X0049745Y0153115D01*
X0049596Y0153060D01*
X0049446Y0153009D01*
X0049295Y0152962D01*
X0049143Y0152919D01*
X0048990Y0152880D01*
X0048835Y0152844D01*
X0048680Y0152813D01*
X0048524Y0152785D01*
X0048368Y0152761D01*
X0048211Y0152741D01*
X0048053Y0152725D01*
X0047896Y0152713D01*
X0047737Y0152705D01*
X0047579Y0152701D01*
X0047421Y0152701D01*
X0047263Y0152705D01*
X0047104Y0152713D01*
X0046947Y0152725D01*
X0046789Y0152741D01*
X0046632Y0152761D01*
X0046476Y0152785D01*
X0046320Y0152813D01*
X0046165Y0152844D01*
X0046010Y0152880D01*
X0045857Y0152919D01*
X0045705Y0152962D01*
X0045554Y0153009D01*
X0045404Y0153060D01*
X0045255Y0153115D01*
X0045108Y0153173D01*
X0044962Y0153235D01*
X0044818Y0153300D01*
X0044676Y0153370D01*
X0044535Y0153442D01*
X0044396Y0153519D01*
X0044260Y0153598D01*
X0044125Y0153682D01*
X0043992Y0153768D01*
X0043862Y0153858D01*
X0043734Y0153951D01*
X0043608Y0154047D01*
X0043485Y0154147D01*
X0043364Y0154249D01*
X0043246Y0154354D01*
X0043131Y0154463D01*
X0043018Y0154574D01*
X0042908Y0154688D01*
X0042801Y0154805D01*
X0042697Y0154924D01*
X0042596Y0155046D01*
X0042499Y0155171D01*
X0042404Y0155298D01*
X0042313Y0155427D01*
X0042224Y0155558D01*
X0042140Y0155692D01*
X0042058Y0155828D01*
X0041980Y0155965D01*
X0041906Y0156105D01*
X0041835Y0156247D01*
X0041767Y0156390D01*
X0041703Y0156535D01*
X0041643Y0156681D01*
X0041587Y0156829D01*
X0041534Y0156978D01*
X0041485Y0157129D01*
X0041440Y0157281D01*
X0041399Y0157434D01*
X0041361Y0157587D01*
X0041328Y0157742D01*
X0041298Y0157898D01*
X0041272Y0158054D01*
X0041251Y0158211D01*
X0041233Y0158368D01*
X0041219Y0158526D01*
X0041209Y0158684D01*
X0041203Y0158842D01*
X0041201Y0159000D01*
X0086201Y0159000D02*
X0086203Y0159158D01*
X0086209Y0159316D01*
X0086219Y0159474D01*
X0086233Y0159632D01*
X0086251Y0159789D01*
X0086272Y0159946D01*
X0086298Y0160102D01*
X0086328Y0160258D01*
X0086361Y0160413D01*
X0086399Y0160566D01*
X0086440Y0160719D01*
X0086485Y0160871D01*
X0086534Y0161022D01*
X0086587Y0161171D01*
X0086643Y0161319D01*
X0086703Y0161465D01*
X0086767Y0161610D01*
X0086835Y0161753D01*
X0086906Y0161895D01*
X0086980Y0162035D01*
X0087058Y0162172D01*
X0087140Y0162308D01*
X0087224Y0162442D01*
X0087313Y0162573D01*
X0087404Y0162702D01*
X0087499Y0162829D01*
X0087596Y0162954D01*
X0087697Y0163076D01*
X0087801Y0163195D01*
X0087908Y0163312D01*
X0088018Y0163426D01*
X0088131Y0163537D01*
X0088246Y0163646D01*
X0088364Y0163751D01*
X0088485Y0163853D01*
X0088608Y0163953D01*
X0088734Y0164049D01*
X0088862Y0164142D01*
X0088992Y0164232D01*
X0089125Y0164318D01*
X0089260Y0164402D01*
X0089396Y0164481D01*
X0089535Y0164558D01*
X0089676Y0164630D01*
X0089818Y0164700D01*
X0089962Y0164765D01*
X0090108Y0164827D01*
X0090255Y0164885D01*
X0090404Y0164940D01*
X0090554Y0164991D01*
X0090705Y0165038D01*
X0090857Y0165081D01*
X0091010Y0165120D01*
X0091165Y0165156D01*
X0091320Y0165187D01*
X0091476Y0165215D01*
X0091632Y0165239D01*
X0091789Y0165259D01*
X0091947Y0165275D01*
X0092104Y0165287D01*
X0092263Y0165295D01*
X0092421Y0165299D01*
X0092579Y0165299D01*
X0092737Y0165295D01*
X0092896Y0165287D01*
X0093053Y0165275D01*
X0093211Y0165259D01*
X0093368Y0165239D01*
X0093524Y0165215D01*
X0093680Y0165187D01*
X0093835Y0165156D01*
X0093990Y0165120D01*
X0094143Y0165081D01*
X0094295Y0165038D01*
X0094446Y0164991D01*
X0094596Y0164940D01*
X0094745Y0164885D01*
X0094892Y0164827D01*
X0095038Y0164765D01*
X0095182Y0164700D01*
X0095324Y0164630D01*
X0095465Y0164558D01*
X0095604Y0164481D01*
X0095740Y0164402D01*
X0095875Y0164318D01*
X0096008Y0164232D01*
X0096138Y0164142D01*
X0096266Y0164049D01*
X0096392Y0163953D01*
X0096515Y0163853D01*
X0096636Y0163751D01*
X0096754Y0163646D01*
X0096869Y0163537D01*
X0096982Y0163426D01*
X0097092Y0163312D01*
X0097199Y0163195D01*
X0097303Y0163076D01*
X0097404Y0162954D01*
X0097501Y0162829D01*
X0097596Y0162702D01*
X0097687Y0162573D01*
X0097776Y0162442D01*
X0097860Y0162308D01*
X0097942Y0162172D01*
X0098020Y0162035D01*
X0098094Y0161895D01*
X0098165Y0161753D01*
X0098233Y0161610D01*
X0098297Y0161465D01*
X0098357Y0161319D01*
X0098413Y0161171D01*
X0098466Y0161022D01*
X0098515Y0160871D01*
X0098560Y0160719D01*
X0098601Y0160566D01*
X0098639Y0160413D01*
X0098672Y0160258D01*
X0098702Y0160102D01*
X0098728Y0159946D01*
X0098749Y0159789D01*
X0098767Y0159632D01*
X0098781Y0159474D01*
X0098791Y0159316D01*
X0098797Y0159158D01*
X0098799Y0159000D01*
X0098797Y0158842D01*
X0098791Y0158684D01*
X0098781Y0158526D01*
X0098767Y0158368D01*
X0098749Y0158211D01*
X0098728Y0158054D01*
X0098702Y0157898D01*
X0098672Y0157742D01*
X0098639Y0157587D01*
X0098601Y0157434D01*
X0098560Y0157281D01*
X0098515Y0157129D01*
X0098466Y0156978D01*
X0098413Y0156829D01*
X0098357Y0156681D01*
X0098297Y0156535D01*
X0098233Y0156390D01*
X0098165Y0156247D01*
X0098094Y0156105D01*
X0098020Y0155965D01*
X0097942Y0155828D01*
X0097860Y0155692D01*
X0097776Y0155558D01*
X0097687Y0155427D01*
X0097596Y0155298D01*
X0097501Y0155171D01*
X0097404Y0155046D01*
X0097303Y0154924D01*
X0097199Y0154805D01*
X0097092Y0154688D01*
X0096982Y0154574D01*
X0096869Y0154463D01*
X0096754Y0154354D01*
X0096636Y0154249D01*
X0096515Y0154147D01*
X0096392Y0154047D01*
X0096266Y0153951D01*
X0096138Y0153858D01*
X0096008Y0153768D01*
X0095875Y0153682D01*
X0095740Y0153598D01*
X0095604Y0153519D01*
X0095465Y0153442D01*
X0095324Y0153370D01*
X0095182Y0153300D01*
X0095038Y0153235D01*
X0094892Y0153173D01*
X0094745Y0153115D01*
X0094596Y0153060D01*
X0094446Y0153009D01*
X0094295Y0152962D01*
X0094143Y0152919D01*
X0093990Y0152880D01*
X0093835Y0152844D01*
X0093680Y0152813D01*
X0093524Y0152785D01*
X0093368Y0152761D01*
X0093211Y0152741D01*
X0093053Y0152725D01*
X0092896Y0152713D01*
X0092737Y0152705D01*
X0092579Y0152701D01*
X0092421Y0152701D01*
X0092263Y0152705D01*
X0092104Y0152713D01*
X0091947Y0152725D01*
X0091789Y0152741D01*
X0091632Y0152761D01*
X0091476Y0152785D01*
X0091320Y0152813D01*
X0091165Y0152844D01*
X0091010Y0152880D01*
X0090857Y0152919D01*
X0090705Y0152962D01*
X0090554Y0153009D01*
X0090404Y0153060D01*
X0090255Y0153115D01*
X0090108Y0153173D01*
X0089962Y0153235D01*
X0089818Y0153300D01*
X0089676Y0153370D01*
X0089535Y0153442D01*
X0089396Y0153519D01*
X0089260Y0153598D01*
X0089125Y0153682D01*
X0088992Y0153768D01*
X0088862Y0153858D01*
X0088734Y0153951D01*
X0088608Y0154047D01*
X0088485Y0154147D01*
X0088364Y0154249D01*
X0088246Y0154354D01*
X0088131Y0154463D01*
X0088018Y0154574D01*
X0087908Y0154688D01*
X0087801Y0154805D01*
X0087697Y0154924D01*
X0087596Y0155046D01*
X0087499Y0155171D01*
X0087404Y0155298D01*
X0087313Y0155427D01*
X0087224Y0155558D01*
X0087140Y0155692D01*
X0087058Y0155828D01*
X0086980Y0155965D01*
X0086906Y0156105D01*
X0086835Y0156247D01*
X0086767Y0156390D01*
X0086703Y0156535D01*
X0086643Y0156681D01*
X0086587Y0156829D01*
X0086534Y0156978D01*
X0086485Y0157129D01*
X0086440Y0157281D01*
X0086399Y0157434D01*
X0086361Y0157587D01*
X0086328Y0157742D01*
X0086298Y0157898D01*
X0086272Y0158054D01*
X0086251Y0158211D01*
X0086233Y0158368D01*
X0086219Y0158526D01*
X0086209Y0158684D01*
X0086203Y0158842D01*
X0086201Y0159000D01*
X0117201Y0151000D02*
X0117203Y0151158D01*
X0117209Y0151316D01*
X0117219Y0151474D01*
X0117233Y0151632D01*
X0117251Y0151789D01*
X0117272Y0151946D01*
X0117298Y0152102D01*
X0117328Y0152258D01*
X0117361Y0152413D01*
X0117399Y0152566D01*
X0117440Y0152719D01*
X0117485Y0152871D01*
X0117534Y0153022D01*
X0117587Y0153171D01*
X0117643Y0153319D01*
X0117703Y0153465D01*
X0117767Y0153610D01*
X0117835Y0153753D01*
X0117906Y0153895D01*
X0117980Y0154035D01*
X0118058Y0154172D01*
X0118140Y0154308D01*
X0118224Y0154442D01*
X0118313Y0154573D01*
X0118404Y0154702D01*
X0118499Y0154829D01*
X0118596Y0154954D01*
X0118697Y0155076D01*
X0118801Y0155195D01*
X0118908Y0155312D01*
X0119018Y0155426D01*
X0119131Y0155537D01*
X0119246Y0155646D01*
X0119364Y0155751D01*
X0119485Y0155853D01*
X0119608Y0155953D01*
X0119734Y0156049D01*
X0119862Y0156142D01*
X0119992Y0156232D01*
X0120125Y0156318D01*
X0120260Y0156402D01*
X0120396Y0156481D01*
X0120535Y0156558D01*
X0120676Y0156630D01*
X0120818Y0156700D01*
X0120962Y0156765D01*
X0121108Y0156827D01*
X0121255Y0156885D01*
X0121404Y0156940D01*
X0121554Y0156991D01*
X0121705Y0157038D01*
X0121857Y0157081D01*
X0122010Y0157120D01*
X0122165Y0157156D01*
X0122320Y0157187D01*
X0122476Y0157215D01*
X0122632Y0157239D01*
X0122789Y0157259D01*
X0122947Y0157275D01*
X0123104Y0157287D01*
X0123263Y0157295D01*
X0123421Y0157299D01*
X0123579Y0157299D01*
X0123737Y0157295D01*
X0123896Y0157287D01*
X0124053Y0157275D01*
X0124211Y0157259D01*
X0124368Y0157239D01*
X0124524Y0157215D01*
X0124680Y0157187D01*
X0124835Y0157156D01*
X0124990Y0157120D01*
X0125143Y0157081D01*
X0125295Y0157038D01*
X0125446Y0156991D01*
X0125596Y0156940D01*
X0125745Y0156885D01*
X0125892Y0156827D01*
X0126038Y0156765D01*
X0126182Y0156700D01*
X0126324Y0156630D01*
X0126465Y0156558D01*
X0126604Y0156481D01*
X0126740Y0156402D01*
X0126875Y0156318D01*
X0127008Y0156232D01*
X0127138Y0156142D01*
X0127266Y0156049D01*
X0127392Y0155953D01*
X0127515Y0155853D01*
X0127636Y0155751D01*
X0127754Y0155646D01*
X0127869Y0155537D01*
X0127982Y0155426D01*
X0128092Y0155312D01*
X0128199Y0155195D01*
X0128303Y0155076D01*
X0128404Y0154954D01*
X0128501Y0154829D01*
X0128596Y0154702D01*
X0128687Y0154573D01*
X0128776Y0154442D01*
X0128860Y0154308D01*
X0128942Y0154172D01*
X0129020Y0154035D01*
X0129094Y0153895D01*
X0129165Y0153753D01*
X0129233Y0153610D01*
X0129297Y0153465D01*
X0129357Y0153319D01*
X0129413Y0153171D01*
X0129466Y0153022D01*
X0129515Y0152871D01*
X0129560Y0152719D01*
X0129601Y0152566D01*
X0129639Y0152413D01*
X0129672Y0152258D01*
X0129702Y0152102D01*
X0129728Y0151946D01*
X0129749Y0151789D01*
X0129767Y0151632D01*
X0129781Y0151474D01*
X0129791Y0151316D01*
X0129797Y0151158D01*
X0129799Y0151000D01*
X0129797Y0150842D01*
X0129791Y0150684D01*
X0129781Y0150526D01*
X0129767Y0150368D01*
X0129749Y0150211D01*
X0129728Y0150054D01*
X0129702Y0149898D01*
X0129672Y0149742D01*
X0129639Y0149587D01*
X0129601Y0149434D01*
X0129560Y0149281D01*
X0129515Y0149129D01*
X0129466Y0148978D01*
X0129413Y0148829D01*
X0129357Y0148681D01*
X0129297Y0148535D01*
X0129233Y0148390D01*
X0129165Y0148247D01*
X0129094Y0148105D01*
X0129020Y0147965D01*
X0128942Y0147828D01*
X0128860Y0147692D01*
X0128776Y0147558D01*
X0128687Y0147427D01*
X0128596Y0147298D01*
X0128501Y0147171D01*
X0128404Y0147046D01*
X0128303Y0146924D01*
X0128199Y0146805D01*
X0128092Y0146688D01*
X0127982Y0146574D01*
X0127869Y0146463D01*
X0127754Y0146354D01*
X0127636Y0146249D01*
X0127515Y0146147D01*
X0127392Y0146047D01*
X0127266Y0145951D01*
X0127138Y0145858D01*
X0127008Y0145768D01*
X0126875Y0145682D01*
X0126740Y0145598D01*
X0126604Y0145519D01*
X0126465Y0145442D01*
X0126324Y0145370D01*
X0126182Y0145300D01*
X0126038Y0145235D01*
X0125892Y0145173D01*
X0125745Y0145115D01*
X0125596Y0145060D01*
X0125446Y0145009D01*
X0125295Y0144962D01*
X0125143Y0144919D01*
X0124990Y0144880D01*
X0124835Y0144844D01*
X0124680Y0144813D01*
X0124524Y0144785D01*
X0124368Y0144761D01*
X0124211Y0144741D01*
X0124053Y0144725D01*
X0123896Y0144713D01*
X0123737Y0144705D01*
X0123579Y0144701D01*
X0123421Y0144701D01*
X0123263Y0144705D01*
X0123104Y0144713D01*
X0122947Y0144725D01*
X0122789Y0144741D01*
X0122632Y0144761D01*
X0122476Y0144785D01*
X0122320Y0144813D01*
X0122165Y0144844D01*
X0122010Y0144880D01*
X0121857Y0144919D01*
X0121705Y0144962D01*
X0121554Y0145009D01*
X0121404Y0145060D01*
X0121255Y0145115D01*
X0121108Y0145173D01*
X0120962Y0145235D01*
X0120818Y0145300D01*
X0120676Y0145370D01*
X0120535Y0145442D01*
X0120396Y0145519D01*
X0120260Y0145598D01*
X0120125Y0145682D01*
X0119992Y0145768D01*
X0119862Y0145858D01*
X0119734Y0145951D01*
X0119608Y0146047D01*
X0119485Y0146147D01*
X0119364Y0146249D01*
X0119246Y0146354D01*
X0119131Y0146463D01*
X0119018Y0146574D01*
X0118908Y0146688D01*
X0118801Y0146805D01*
X0118697Y0146924D01*
X0118596Y0147046D01*
X0118499Y0147171D01*
X0118404Y0147298D01*
X0118313Y0147427D01*
X0118224Y0147558D01*
X0118140Y0147692D01*
X0118058Y0147828D01*
X0117980Y0147965D01*
X0117906Y0148105D01*
X0117835Y0148247D01*
X0117767Y0148390D01*
X0117703Y0148535D01*
X0117643Y0148681D01*
X0117587Y0148829D01*
X0117534Y0148978D01*
X0117485Y0149129D01*
X0117440Y0149281D01*
X0117399Y0149434D01*
X0117361Y0149587D01*
X0117328Y0149742D01*
X0117298Y0149898D01*
X0117272Y0150054D01*
X0117251Y0150211D01*
X0117233Y0150368D01*
X0117219Y0150526D01*
X0117209Y0150684D01*
X0117203Y0150842D01*
X0117201Y0151000D01*
X0117201Y0018500D02*
X0117203Y0018658D01*
X0117209Y0018816D01*
X0117219Y0018974D01*
X0117233Y0019132D01*
X0117251Y0019289D01*
X0117272Y0019446D01*
X0117298Y0019602D01*
X0117328Y0019758D01*
X0117361Y0019913D01*
X0117399Y0020066D01*
X0117440Y0020219D01*
X0117485Y0020371D01*
X0117534Y0020522D01*
X0117587Y0020671D01*
X0117643Y0020819D01*
X0117703Y0020965D01*
X0117767Y0021110D01*
X0117835Y0021253D01*
X0117906Y0021395D01*
X0117980Y0021535D01*
X0118058Y0021672D01*
X0118140Y0021808D01*
X0118224Y0021942D01*
X0118313Y0022073D01*
X0118404Y0022202D01*
X0118499Y0022329D01*
X0118596Y0022454D01*
X0118697Y0022576D01*
X0118801Y0022695D01*
X0118908Y0022812D01*
X0119018Y0022926D01*
X0119131Y0023037D01*
X0119246Y0023146D01*
X0119364Y0023251D01*
X0119485Y0023353D01*
X0119608Y0023453D01*
X0119734Y0023549D01*
X0119862Y0023642D01*
X0119992Y0023732D01*
X0120125Y0023818D01*
X0120260Y0023902D01*
X0120396Y0023981D01*
X0120535Y0024058D01*
X0120676Y0024130D01*
X0120818Y0024200D01*
X0120962Y0024265D01*
X0121108Y0024327D01*
X0121255Y0024385D01*
X0121404Y0024440D01*
X0121554Y0024491D01*
X0121705Y0024538D01*
X0121857Y0024581D01*
X0122010Y0024620D01*
X0122165Y0024656D01*
X0122320Y0024687D01*
X0122476Y0024715D01*
X0122632Y0024739D01*
X0122789Y0024759D01*
X0122947Y0024775D01*
X0123104Y0024787D01*
X0123263Y0024795D01*
X0123421Y0024799D01*
X0123579Y0024799D01*
X0123737Y0024795D01*
X0123896Y0024787D01*
X0124053Y0024775D01*
X0124211Y0024759D01*
X0124368Y0024739D01*
X0124524Y0024715D01*
X0124680Y0024687D01*
X0124835Y0024656D01*
X0124990Y0024620D01*
X0125143Y0024581D01*
X0125295Y0024538D01*
X0125446Y0024491D01*
X0125596Y0024440D01*
X0125745Y0024385D01*
X0125892Y0024327D01*
X0126038Y0024265D01*
X0126182Y0024200D01*
X0126324Y0024130D01*
X0126465Y0024058D01*
X0126604Y0023981D01*
X0126740Y0023902D01*
X0126875Y0023818D01*
X0127008Y0023732D01*
X0127138Y0023642D01*
X0127266Y0023549D01*
X0127392Y0023453D01*
X0127515Y0023353D01*
X0127636Y0023251D01*
X0127754Y0023146D01*
X0127869Y0023037D01*
X0127982Y0022926D01*
X0128092Y0022812D01*
X0128199Y0022695D01*
X0128303Y0022576D01*
X0128404Y0022454D01*
X0128501Y0022329D01*
X0128596Y0022202D01*
X0128687Y0022073D01*
X0128776Y0021942D01*
X0128860Y0021808D01*
X0128942Y0021672D01*
X0129020Y0021535D01*
X0129094Y0021395D01*
X0129165Y0021253D01*
X0129233Y0021110D01*
X0129297Y0020965D01*
X0129357Y0020819D01*
X0129413Y0020671D01*
X0129466Y0020522D01*
X0129515Y0020371D01*
X0129560Y0020219D01*
X0129601Y0020066D01*
X0129639Y0019913D01*
X0129672Y0019758D01*
X0129702Y0019602D01*
X0129728Y0019446D01*
X0129749Y0019289D01*
X0129767Y0019132D01*
X0129781Y0018974D01*
X0129791Y0018816D01*
X0129797Y0018658D01*
X0129799Y0018500D01*
X0129797Y0018342D01*
X0129791Y0018184D01*
X0129781Y0018026D01*
X0129767Y0017868D01*
X0129749Y0017711D01*
X0129728Y0017554D01*
X0129702Y0017398D01*
X0129672Y0017242D01*
X0129639Y0017087D01*
X0129601Y0016934D01*
X0129560Y0016781D01*
X0129515Y0016629D01*
X0129466Y0016478D01*
X0129413Y0016329D01*
X0129357Y0016181D01*
X0129297Y0016035D01*
X0129233Y0015890D01*
X0129165Y0015747D01*
X0129094Y0015605D01*
X0129020Y0015465D01*
X0128942Y0015328D01*
X0128860Y0015192D01*
X0128776Y0015058D01*
X0128687Y0014927D01*
X0128596Y0014798D01*
X0128501Y0014671D01*
X0128404Y0014546D01*
X0128303Y0014424D01*
X0128199Y0014305D01*
X0128092Y0014188D01*
X0127982Y0014074D01*
X0127869Y0013963D01*
X0127754Y0013854D01*
X0127636Y0013749D01*
X0127515Y0013647D01*
X0127392Y0013547D01*
X0127266Y0013451D01*
X0127138Y0013358D01*
X0127008Y0013268D01*
X0126875Y0013182D01*
X0126740Y0013098D01*
X0126604Y0013019D01*
X0126465Y0012942D01*
X0126324Y0012870D01*
X0126182Y0012800D01*
X0126038Y0012735D01*
X0125892Y0012673D01*
X0125745Y0012615D01*
X0125596Y0012560D01*
X0125446Y0012509D01*
X0125295Y0012462D01*
X0125143Y0012419D01*
X0124990Y0012380D01*
X0124835Y0012344D01*
X0124680Y0012313D01*
X0124524Y0012285D01*
X0124368Y0012261D01*
X0124211Y0012241D01*
X0124053Y0012225D01*
X0123896Y0012213D01*
X0123737Y0012205D01*
X0123579Y0012201D01*
X0123421Y0012201D01*
X0123263Y0012205D01*
X0123104Y0012213D01*
X0122947Y0012225D01*
X0122789Y0012241D01*
X0122632Y0012261D01*
X0122476Y0012285D01*
X0122320Y0012313D01*
X0122165Y0012344D01*
X0122010Y0012380D01*
X0121857Y0012419D01*
X0121705Y0012462D01*
X0121554Y0012509D01*
X0121404Y0012560D01*
X0121255Y0012615D01*
X0121108Y0012673D01*
X0120962Y0012735D01*
X0120818Y0012800D01*
X0120676Y0012870D01*
X0120535Y0012942D01*
X0120396Y0013019D01*
X0120260Y0013098D01*
X0120125Y0013182D01*
X0119992Y0013268D01*
X0119862Y0013358D01*
X0119734Y0013451D01*
X0119608Y0013547D01*
X0119485Y0013647D01*
X0119364Y0013749D01*
X0119246Y0013854D01*
X0119131Y0013963D01*
X0119018Y0014074D01*
X0118908Y0014188D01*
X0118801Y0014305D01*
X0118697Y0014424D01*
X0118596Y0014546D01*
X0118499Y0014671D01*
X0118404Y0014798D01*
X0118313Y0014927D01*
X0118224Y0015058D01*
X0118140Y0015192D01*
X0118058Y0015328D01*
X0117980Y0015465D01*
X0117906Y0015605D01*
X0117835Y0015747D01*
X0117767Y0015890D01*
X0117703Y0016035D01*
X0117643Y0016181D01*
X0117587Y0016329D01*
X0117534Y0016478D01*
X0117485Y0016629D01*
X0117440Y0016781D01*
X0117399Y0016934D01*
X0117361Y0017087D01*
X0117328Y0017242D01*
X0117298Y0017398D01*
X0117272Y0017554D01*
X0117251Y0017711D01*
X0117233Y0017868D01*
X0117219Y0018026D01*
X0117209Y0018184D01*
X0117203Y0018342D01*
X0117201Y0018500D01*
D11*
X0095409Y0012796D02*
X0095409Y0029307D01*
X0095409Y0042693D02*
X0095409Y0059204D01*
X0095407Y0059315D01*
X0095401Y0059425D01*
X0095392Y0059536D01*
X0095378Y0059646D01*
X0095361Y0059755D01*
X0095340Y0059864D01*
X0095315Y0059972D01*
X0095286Y0060079D01*
X0095254Y0060185D01*
X0095218Y0060290D01*
X0095178Y0060393D01*
X0095135Y0060495D01*
X0095088Y0060595D01*
X0095037Y0060694D01*
X0094984Y0060791D01*
X0094927Y0060886D01*
X0094866Y0060979D01*
X0094803Y0061070D01*
X0094736Y0061158D01*
X0094666Y0061244D01*
X0094594Y0061328D01*
X0094518Y0061409D01*
X0094440Y0061487D01*
X0094359Y0061563D01*
X0094275Y0061635D01*
X0094189Y0061705D01*
X0094101Y0061772D01*
X0094010Y0061835D01*
X0093917Y0061896D01*
X0093822Y0061953D01*
X0093725Y0062006D01*
X0093626Y0062057D01*
X0093526Y0062104D01*
X0093424Y0062147D01*
X0093321Y0062187D01*
X0093216Y0062223D01*
X0093110Y0062255D01*
X0093003Y0062284D01*
X0092895Y0062309D01*
X0092786Y0062330D01*
X0092677Y0062347D01*
X0092567Y0062361D01*
X0092456Y0062370D01*
X0092346Y0062376D01*
X0092235Y0062378D01*
X0086354Y0062378D01*
X0059189Y0036000D02*
X0059193Y0036290D01*
X0059203Y0036580D01*
X0059221Y0036869D01*
X0059246Y0037158D01*
X0059278Y0037446D01*
X0059317Y0037733D01*
X0059363Y0038019D01*
X0059416Y0038304D01*
X0059476Y0038588D01*
X0059543Y0038870D01*
X0059617Y0039150D01*
X0059698Y0039429D01*
X0059785Y0039705D01*
X0059879Y0039979D01*
X0059980Y0040251D01*
X0060088Y0040520D01*
X0060202Y0040786D01*
X0060323Y0041050D01*
X0060450Y0041310D01*
X0060584Y0041568D01*
X0060723Y0041822D01*
X0060869Y0042072D01*
X0061021Y0042319D01*
X0061180Y0042562D01*
X0061344Y0042801D01*
X0061513Y0043036D01*
X0061689Y0043267D01*
X0061870Y0043493D01*
X0062057Y0043715D01*
X0062249Y0043932D01*
X0062446Y0044144D01*
X0062648Y0044352D01*
X0062856Y0044554D01*
X0063068Y0044751D01*
X0063285Y0044943D01*
X0063507Y0045130D01*
X0063733Y0045311D01*
X0063964Y0045487D01*
X0064199Y0045656D01*
X0064438Y0045820D01*
X0064681Y0045979D01*
X0064928Y0046131D01*
X0065178Y0046277D01*
X0065432Y0046416D01*
X0065690Y0046550D01*
X0065950Y0046677D01*
X0066214Y0046798D01*
X0066480Y0046912D01*
X0066749Y0047020D01*
X0067021Y0047121D01*
X0067295Y0047215D01*
X0067571Y0047302D01*
X0067850Y0047383D01*
X0068130Y0047457D01*
X0068412Y0047524D01*
X0068696Y0047584D01*
X0068981Y0047637D01*
X0069267Y0047683D01*
X0069554Y0047722D01*
X0069842Y0047754D01*
X0070131Y0047779D01*
X0070420Y0047797D01*
X0070710Y0047807D01*
X0071000Y0047811D01*
X0071290Y0047807D01*
X0071580Y0047797D01*
X0071869Y0047779D01*
X0072158Y0047754D01*
X0072446Y0047722D01*
X0072733Y0047683D01*
X0073019Y0047637D01*
X0073304Y0047584D01*
X0073588Y0047524D01*
X0073870Y0047457D01*
X0074150Y0047383D01*
X0074429Y0047302D01*
X0074705Y0047215D01*
X0074979Y0047121D01*
X0075251Y0047020D01*
X0075520Y0046912D01*
X0075786Y0046798D01*
X0076050Y0046677D01*
X0076310Y0046550D01*
X0076568Y0046416D01*
X0076822Y0046277D01*
X0077072Y0046131D01*
X0077319Y0045979D01*
X0077562Y0045820D01*
X0077801Y0045656D01*
X0078036Y0045487D01*
X0078267Y0045311D01*
X0078493Y0045130D01*
X0078715Y0044943D01*
X0078932Y0044751D01*
X0079144Y0044554D01*
X0079352Y0044352D01*
X0079554Y0044144D01*
X0079751Y0043932D01*
X0079943Y0043715D01*
X0080130Y0043493D01*
X0080311Y0043267D01*
X0080487Y0043036D01*
X0080656Y0042801D01*
X0080820Y0042562D01*
X0080979Y0042319D01*
X0081131Y0042072D01*
X0081277Y0041822D01*
X0081416Y0041568D01*
X0081550Y0041310D01*
X0081677Y0041050D01*
X0081798Y0040786D01*
X0081912Y0040520D01*
X0082020Y0040251D01*
X0082121Y0039979D01*
X0082215Y0039705D01*
X0082302Y0039429D01*
X0082383Y0039150D01*
X0082457Y0038870D01*
X0082524Y0038588D01*
X0082584Y0038304D01*
X0082637Y0038019D01*
X0082683Y0037733D01*
X0082722Y0037446D01*
X0082754Y0037158D01*
X0082779Y0036869D01*
X0082797Y0036580D01*
X0082807Y0036290D01*
X0082811Y0036000D01*
X0082807Y0035710D01*
X0082797Y0035420D01*
X0082779Y0035131D01*
X0082754Y0034842D01*
X0082722Y0034554D01*
X0082683Y0034267D01*
X0082637Y0033981D01*
X0082584Y0033696D01*
X0082524Y0033412D01*
X0082457Y0033130D01*
X0082383Y0032850D01*
X0082302Y0032571D01*
X0082215Y0032295D01*
X0082121Y0032021D01*
X0082020Y0031749D01*
X0081912Y0031480D01*
X0081798Y0031214D01*
X0081677Y0030950D01*
X0081550Y0030690D01*
X0081416Y0030432D01*
X0081277Y0030178D01*
X0081131Y0029928D01*
X0080979Y0029681D01*
X0080820Y0029438D01*
X0080656Y0029199D01*
X0080487Y0028964D01*
X0080311Y0028733D01*
X0080130Y0028507D01*
X0079943Y0028285D01*
X0079751Y0028068D01*
X0079554Y0027856D01*
X0079352Y0027648D01*
X0079144Y0027446D01*
X0078932Y0027249D01*
X0078715Y0027057D01*
X0078493Y0026870D01*
X0078267Y0026689D01*
X0078036Y0026513D01*
X0077801Y0026344D01*
X0077562Y0026180D01*
X0077319Y0026021D01*
X0077072Y0025869D01*
X0076822Y0025723D01*
X0076568Y0025584D01*
X0076310Y0025450D01*
X0076050Y0025323D01*
X0075786Y0025202D01*
X0075520Y0025088D01*
X0075251Y0024980D01*
X0074979Y0024879D01*
X0074705Y0024785D01*
X0074429Y0024698D01*
X0074150Y0024617D01*
X0073870Y0024543D01*
X0073588Y0024476D01*
X0073304Y0024416D01*
X0073019Y0024363D01*
X0072733Y0024317D01*
X0072446Y0024278D01*
X0072158Y0024246D01*
X0071869Y0024221D01*
X0071580Y0024203D01*
X0071290Y0024193D01*
X0071000Y0024189D01*
X0070710Y0024193D01*
X0070420Y0024203D01*
X0070131Y0024221D01*
X0069842Y0024246D01*
X0069554Y0024278D01*
X0069267Y0024317D01*
X0068981Y0024363D01*
X0068696Y0024416D01*
X0068412Y0024476D01*
X0068130Y0024543D01*
X0067850Y0024617D01*
X0067571Y0024698D01*
X0067295Y0024785D01*
X0067021Y0024879D01*
X0066749Y0024980D01*
X0066480Y0025088D01*
X0066214Y0025202D01*
X0065950Y0025323D01*
X0065690Y0025450D01*
X0065432Y0025584D01*
X0065178Y0025723D01*
X0064928Y0025869D01*
X0064681Y0026021D01*
X0064438Y0026180D01*
X0064199Y0026344D01*
X0063964Y0026513D01*
X0063733Y0026689D01*
X0063507Y0026870D01*
X0063285Y0027057D01*
X0063068Y0027249D01*
X0062856Y0027446D01*
X0062648Y0027648D01*
X0062446Y0027856D01*
X0062249Y0028068D01*
X0062057Y0028285D01*
X0061870Y0028507D01*
X0061689Y0028733D01*
X0061513Y0028964D01*
X0061344Y0029199D01*
X0061180Y0029438D01*
X0061021Y0029681D01*
X0060869Y0029928D01*
X0060723Y0030178D01*
X0060584Y0030432D01*
X0060450Y0030690D01*
X0060323Y0030950D01*
X0060202Y0031214D01*
X0060088Y0031480D01*
X0059980Y0031749D01*
X0059879Y0032021D01*
X0059785Y0032295D01*
X0059698Y0032571D01*
X0059617Y0032850D01*
X0059543Y0033130D01*
X0059476Y0033412D01*
X0059416Y0033696D01*
X0059363Y0033981D01*
X0059317Y0034267D01*
X0059278Y0034554D01*
X0059246Y0034842D01*
X0059221Y0035131D01*
X0059203Y0035420D01*
X0059193Y0035710D01*
X0059189Y0036000D01*
X0046591Y0029307D02*
X0046591Y0012796D01*
X0046593Y0012685D01*
X0046599Y0012575D01*
X0046608Y0012464D01*
X0046622Y0012354D01*
X0046639Y0012245D01*
X0046660Y0012136D01*
X0046685Y0012028D01*
X0046714Y0011921D01*
X0046746Y0011815D01*
X0046782Y0011710D01*
X0046822Y0011607D01*
X0046865Y0011505D01*
X0046912Y0011405D01*
X0046963Y0011306D01*
X0047016Y0011209D01*
X0047073Y0011114D01*
X0047134Y0011021D01*
X0047197Y0010930D01*
X0047264Y0010842D01*
X0047334Y0010756D01*
X0047406Y0010672D01*
X0047482Y0010591D01*
X0047560Y0010513D01*
X0047641Y0010437D01*
X0047725Y0010365D01*
X0047811Y0010295D01*
X0047899Y0010228D01*
X0047990Y0010165D01*
X0048083Y0010104D01*
X0048178Y0010047D01*
X0048275Y0009994D01*
X0048374Y0009943D01*
X0048474Y0009896D01*
X0048576Y0009853D01*
X0048679Y0009813D01*
X0048784Y0009777D01*
X0048890Y0009745D01*
X0048997Y0009716D01*
X0049105Y0009691D01*
X0049214Y0009670D01*
X0049323Y0009653D01*
X0049433Y0009639D01*
X0049544Y0009630D01*
X0049654Y0009624D01*
X0049765Y0009622D01*
X0057614Y0009622D01*
X0046591Y0042693D02*
X0046591Y0059204D01*
X0046593Y0059315D01*
X0046599Y0059425D01*
X0046608Y0059536D01*
X0046622Y0059646D01*
X0046639Y0059755D01*
X0046660Y0059864D01*
X0046685Y0059972D01*
X0046714Y0060079D01*
X0046746Y0060185D01*
X0046782Y0060290D01*
X0046822Y0060393D01*
X0046865Y0060495D01*
X0046912Y0060595D01*
X0046963Y0060694D01*
X0047016Y0060791D01*
X0047073Y0060886D01*
X0047134Y0060979D01*
X0047197Y0061070D01*
X0047264Y0061158D01*
X0047334Y0061244D01*
X0047406Y0061328D01*
X0047482Y0061409D01*
X0047560Y0061487D01*
X0047641Y0061563D01*
X0047725Y0061635D01*
X0047811Y0061705D01*
X0047899Y0061772D01*
X0047990Y0061835D01*
X0048083Y0061896D01*
X0048178Y0061953D01*
X0048275Y0062006D01*
X0048374Y0062057D01*
X0048474Y0062104D01*
X0048576Y0062147D01*
X0048679Y0062187D01*
X0048784Y0062223D01*
X0048890Y0062255D01*
X0048997Y0062284D01*
X0049105Y0062309D01*
X0049214Y0062330D01*
X0049323Y0062347D01*
X0049433Y0062361D01*
X0049544Y0062370D01*
X0049654Y0062376D01*
X0049765Y0062378D01*
X0055646Y0062378D01*
X0095409Y0012796D02*
X0095407Y0012685D01*
X0095401Y0012575D01*
X0095392Y0012464D01*
X0095378Y0012354D01*
X0095361Y0012245D01*
X0095340Y0012136D01*
X0095315Y0012028D01*
X0095286Y0011921D01*
X0095254Y0011815D01*
X0095218Y0011710D01*
X0095178Y0011607D01*
X0095135Y0011505D01*
X0095088Y0011405D01*
X0095037Y0011306D01*
X0094984Y0011209D01*
X0094927Y0011114D01*
X0094866Y0011021D01*
X0094803Y0010930D01*
X0094736Y0010842D01*
X0094666Y0010756D01*
X0094594Y0010672D01*
X0094518Y0010591D01*
X0094440Y0010513D01*
X0094359Y0010437D01*
X0094275Y0010365D01*
X0094189Y0010295D01*
X0094101Y0010228D01*
X0094010Y0010165D01*
X0093917Y0010104D01*
X0093822Y0010047D01*
X0093725Y0009994D01*
X0093626Y0009943D01*
X0093526Y0009896D01*
X0093424Y0009853D01*
X0093321Y0009813D01*
X0093216Y0009777D01*
X0093110Y0009745D01*
X0093003Y0009716D01*
X0092895Y0009691D01*
X0092786Y0009670D01*
X0092677Y0009653D01*
X0092567Y0009639D01*
X0092456Y0009630D01*
X0092346Y0009624D01*
X0092235Y0009622D01*
X0084386Y0009622D01*
D12*
X0107752Y0002752D02*
X0139248Y0002752D01*
X0139248Y0035035D01*
X0107752Y0035035D01*
X0107752Y0002752D01*
X0086748Y0070252D02*
X0086748Y0102535D01*
X0055252Y0102535D01*
X0055252Y0070252D01*
X0086748Y0070252D01*
X0107752Y0135252D02*
X0139248Y0135252D01*
X0139248Y0167535D01*
X0107752Y0167535D01*
X0107752Y0135252D01*
X0034248Y0135252D02*
X0034248Y0167535D01*
X0002752Y0167535D01*
X0002752Y0135252D01*
X0034248Y0135252D01*
X0034248Y0035035D02*
X0002752Y0035035D01*
X0002752Y0002752D01*
X0034248Y0002752D01*
X0034248Y0035035D01*
M02*
