G75*
%MOIN*%
%OFA0B0*%
%FSLAX25Y25*%
%IPPOS*%
%LPD*%
%AMOC8*
5,1,8,0,0,1.08239X$1,22.5*
%
%ADD10C,0.00800*%
%ADD11C,0.05937*%
%ADD12R,0.03543X0.02756*%
%ADD13R,0.02756X0.03543*%
%ADD14R,0.03150X0.03150*%
%ADD15R,0.01400X0.04000*%
%ADD16R,0.04000X0.01400*%
%ADD17R,0.14600X0.14600*%
%ADD18R,0.03500X0.10500*%
%ADD19R,0.04724X0.02165*%
%ADD20C,0.00000*%
%ADD21R,0.07400X0.07400*%
%ADD22C,0.07400*%
%ADD23R,0.01700X0.03200*%
%ADD24R,0.03200X0.01700*%
%ADD25C,0.06000*%
%ADD26OC8,0.06000*%
%ADD27R,0.12598X0.04724*%
%ADD28C,0.02700*%
%ADD29C,0.02000*%
%ADD30C,0.03750*%
%ADD31C,0.03000*%
%ADD32C,0.05250*%
%ADD33C,0.03300*%
%ADD34C,0.03600*%
%ADD35C,0.01600*%
D10*
X0055400Y0026400D02*
X0300400Y0026400D01*
X0263900Y0058447D02*
X0258900Y0058447D01*
X0258853Y0058400D01*
X0253900Y0058400D01*
X0258900Y0064353D02*
X0258900Y0070841D01*
X0254400Y0066400D02*
X0235400Y0047400D01*
X0235400Y0038900D01*
X0240400Y0033900D01*
X0230400Y0033900D02*
X0225400Y0038900D01*
X0225400Y0046400D01*
X0232400Y0053400D01*
X0232400Y0075700D01*
X0232400Y0078300D02*
X0226800Y0078300D01*
X0226400Y0077900D01*
X0226500Y0072400D02*
X0226500Y0059000D01*
X0215400Y0047900D01*
X0215400Y0038900D01*
X0220400Y0033900D01*
X0210400Y0033900D02*
X0205400Y0038900D01*
X0205400Y0064100D01*
X0213700Y0072400D01*
X0218800Y0072400D02*
X0218800Y0066800D01*
X0217900Y0065900D01*
X0223900Y0067900D02*
X0223900Y0072300D01*
X0224000Y0072400D01*
X0229100Y0072400D02*
X0229100Y0058100D01*
X0220400Y0049400D01*
X0220400Y0043900D01*
X0229900Y0044400D02*
X0230400Y0043900D01*
X0229900Y0044400D02*
X0229900Y0046900D01*
X0252400Y0069400D01*
X0252400Y0080400D01*
X0249400Y0083400D01*
X0232400Y0083400D01*
X0232400Y0080800D02*
X0237941Y0080800D01*
X0239341Y0079400D01*
X0244459Y0079400D02*
X0248400Y0079400D01*
X0254400Y0080900D02*
X0249300Y0086000D01*
X0232400Y0086000D01*
X0232400Y0088500D02*
X0238441Y0088500D01*
X0239341Y0089400D01*
X0239741Y0088500D01*
X0244459Y0089400D02*
X0248400Y0089400D01*
X0258900Y0085400D02*
X0242400Y0101900D01*
X0238900Y0101900D01*
X0234400Y0100400D02*
X0234400Y0115400D01*
X0237900Y0114900D02*
X0237900Y0122900D01*
X0234197Y0123697D02*
X0234197Y0127150D01*
X0234447Y0127400D01*
X0234447Y0133900D01*
X0240353Y0133900D02*
X0247591Y0133900D01*
X0252709Y0133900D02*
X0269400Y0133900D01*
X0271500Y0131800D01*
X0271500Y0119600D01*
X0271500Y0117000D02*
X0271400Y0116900D01*
X0267900Y0116900D01*
X0265341Y0119459D01*
X0263900Y0119459D01*
X0264341Y0119400D01*
X0254900Y0119400D01*
X0254959Y0119459D01*
X0258900Y0119459D01*
X0258900Y0114341D02*
X0263900Y0114341D01*
X0264559Y0114500D01*
X0271500Y0114500D01*
X0271500Y0117000D02*
X0277800Y0117000D01*
X0277400Y0117400D01*
X0277800Y0117000D02*
X0282900Y0111900D01*
X0285500Y0114500D01*
X0294300Y0114500D01*
X0294300Y0111900D02*
X0300150Y0111900D01*
X0308400Y0120150D01*
X0316900Y0120150D01*
X0321400Y0124900D01*
X0321400Y0127400D01*
X0316400Y0134650D02*
X0291400Y0134650D01*
X0285400Y0128650D01*
X0285400Y0123400D01*
X0285500Y0123300D01*
X0283400Y0123800D02*
X0283400Y0129900D01*
X0290400Y0136900D01*
X0303400Y0136900D01*
X0306400Y0139900D01*
X0306400Y0147650D01*
X0307900Y0149150D01*
X0313900Y0149150D01*
X0321400Y0156400D01*
X0314150Y0163650D02*
X0321400Y0170900D01*
X0314150Y0163650D02*
X0308650Y0163650D01*
X0304400Y0159400D01*
X0304400Y0141400D01*
X0301900Y0138900D01*
X0288900Y0138900D01*
X0280300Y0130300D01*
X0280300Y0123300D01*
X0277800Y0123300D02*
X0277800Y0130300D01*
X0288400Y0140900D01*
X0297900Y0140900D01*
X0302400Y0145400D01*
X0302400Y0159900D01*
X0306400Y0163900D01*
X0306400Y0175400D01*
X0308650Y0178150D01*
X0316650Y0178150D01*
X0321400Y0182400D01*
X0321400Y0185400D01*
X0316400Y0192650D02*
X0307400Y0192650D01*
X0304400Y0189400D01*
X0304400Y0165400D01*
X0300400Y0161400D01*
X0300400Y0146900D01*
X0296400Y0142900D01*
X0287900Y0142900D01*
X0275200Y0130200D01*
X0275200Y0123300D01*
X0267900Y0122400D02*
X0267900Y0124900D01*
X0264400Y0128400D01*
X0252959Y0128400D01*
X0252709Y0128150D01*
X0247591Y0128150D02*
X0246591Y0127150D01*
X0240103Y0127150D01*
X0234197Y0123697D02*
X0226400Y0115900D01*
X0226400Y0109959D01*
X0221400Y0109959D01*
X0221400Y0104841D02*
X0221400Y0094400D01*
X0218900Y0094500D02*
X0218800Y0094400D01*
X0218900Y0094500D02*
X0218900Y0100900D01*
X0211400Y0108400D01*
X0211400Y0124900D01*
X0201400Y0124900D02*
X0201400Y0134900D01*
X0201400Y0144900D01*
X0201400Y0154900D01*
X0211400Y0154900D02*
X0190400Y0175900D01*
X0148900Y0175900D01*
X0140900Y0167900D01*
X0129900Y0167900D01*
X0134900Y0164400D02*
X0106400Y0164400D01*
X0105900Y0163900D01*
X0090400Y0178900D02*
X0090400Y0108900D01*
X0055400Y0108900D01*
X0055400Y0026400D01*
X0121514Y0055026D02*
X0148286Y0055026D01*
X0134774Y0055026D01*
X0134400Y0055400D01*
X0134400Y0074400D01*
X0140900Y0080900D01*
X0147900Y0078400D02*
X0148286Y0078014D01*
X0148286Y0070774D01*
X0157900Y0071900D02*
X0157900Y0079841D01*
X0157959Y0079900D01*
X0156400Y0087900D02*
X0156400Y0094900D01*
X0156400Y0106900D01*
X0156400Y0114400D01*
X0152800Y0118000D01*
X0152800Y0124900D01*
X0155300Y0124900D02*
X0155300Y0120500D01*
X0160900Y0114900D01*
X0159400Y0119900D02*
X0164900Y0119900D01*
X0170400Y0119900D01*
X0176400Y0125900D01*
X0180900Y0125900D01*
X0186900Y0131900D01*
X0186900Y0153900D01*
X0182400Y0158400D01*
X0182400Y0159400D01*
X0186900Y0159400D02*
X0188900Y0157400D01*
X0188900Y0126900D01*
X0169400Y0107400D01*
X0169400Y0106400D01*
X0184900Y0090900D01*
X0184900Y0087400D01*
X0178900Y0087400D01*
X0169400Y0077900D01*
X0169400Y0060900D01*
X0174900Y0063900D02*
X0174900Y0070400D01*
X0186900Y0082400D01*
X0188400Y0083900D01*
X0188400Y0096400D01*
X0176900Y0107900D01*
X0187400Y0113400D02*
X0187400Y0121400D01*
X0174400Y0128900D02*
X0174341Y0128959D01*
X0174341Y0133400D01*
X0169000Y0133400D01*
X0168900Y0133300D01*
X0163400Y0130400D02*
X0160900Y0130400D01*
X0160500Y0130000D01*
X0160500Y0124900D01*
X0157900Y0124900D02*
X0157900Y0121400D01*
X0159400Y0119900D01*
X0151400Y0113900D02*
X0151400Y0106900D01*
X0151400Y0094900D01*
X0151400Y0091400D01*
X0146400Y0094900D02*
X0146400Y0106900D01*
X0146400Y0114400D01*
X0143400Y0117400D01*
X0136459Y0117400D01*
X0136459Y0122400D01*
X0131400Y0117341D02*
X0131341Y0117400D01*
X0131400Y0117341D02*
X0131400Y0109400D01*
X0133900Y0106900D01*
X0141400Y0106900D01*
X0141400Y0094900D01*
X0124400Y0096900D02*
X0124400Y0084900D01*
X0114400Y0074900D01*
X0104459Y0074900D01*
X0099341Y0074900D02*
X0094353Y0074900D01*
X0094353Y0080400D02*
X0099341Y0080400D01*
X0104459Y0080400D02*
X0104459Y0083841D01*
X0103900Y0084400D01*
X0102400Y0084400D01*
X0099900Y0086900D01*
X0099900Y0091920D01*
X0099660Y0092160D01*
X0088447Y0080400D02*
X0088447Y0074900D01*
X0120900Y0070160D02*
X0120900Y0064900D01*
X0120900Y0070160D02*
X0121514Y0070774D01*
X0124400Y0096900D02*
X0123900Y0097400D01*
X0150200Y0115100D02*
X0151400Y0113900D01*
X0150200Y0115100D02*
X0150200Y0124900D01*
X0146900Y0128200D02*
X0110200Y0128200D01*
X0105900Y0123900D01*
X0109000Y0130800D02*
X0105900Y0133900D01*
X0109000Y0130800D02*
X0146900Y0130800D01*
X0146900Y0133300D02*
X0134000Y0133300D01*
X0133400Y0133900D01*
X0137900Y0136841D02*
X0138841Y0135900D01*
X0146900Y0135900D01*
X0146900Y0138500D02*
X0152800Y0138500D01*
X0152400Y0138900D01*
X0152400Y0141400D01*
X0152800Y0138500D02*
X0152900Y0138400D01*
X0157900Y0135900D02*
X0152900Y0130900D01*
X0146900Y0141000D02*
X0143300Y0141000D01*
X0141900Y0142400D01*
X0141900Y0157400D01*
X0134900Y0164400D01*
X0145900Y0169900D02*
X0149900Y0173900D01*
X0188400Y0173900D01*
X0196900Y0165400D01*
X0196900Y0050400D01*
X0190400Y0043900D01*
X0185400Y0047400D02*
X0185400Y0038900D01*
X0190400Y0033900D01*
X0185400Y0047400D02*
X0194900Y0056900D01*
X0194900Y0163900D01*
X0186900Y0171900D01*
X0150900Y0171900D01*
X0148400Y0169400D01*
X0148400Y0150400D01*
X0150200Y0148600D01*
X0150200Y0146900D01*
X0152800Y0146900D02*
X0152800Y0154441D01*
X0151900Y0155341D01*
X0151900Y0160459D02*
X0151900Y0164400D01*
X0155300Y0166800D02*
X0158400Y0169900D01*
X0184900Y0169900D01*
X0192900Y0161900D01*
X0192900Y0066400D01*
X0170400Y0043900D01*
X0165400Y0047900D02*
X0165400Y0038900D01*
X0170400Y0033900D01*
X0165400Y0047900D02*
X0190900Y0073400D01*
X0190900Y0160900D01*
X0183900Y0167900D01*
X0159400Y0167900D01*
X0157900Y0166400D01*
X0157900Y0146900D01*
X0155300Y0146900D02*
X0155300Y0166800D01*
X0161400Y0164400D02*
X0161400Y0160959D01*
X0165600Y0162600D02*
X0166900Y0163900D01*
X0165600Y0162600D02*
X0165600Y0146900D01*
X0163000Y0146900D02*
X0163000Y0141800D01*
X0163400Y0141400D01*
X0168900Y0143600D02*
X0168900Y0160900D01*
X0171400Y0163400D01*
X0161400Y0155841D02*
X0160500Y0154941D01*
X0160500Y0146900D01*
X0168900Y0138500D02*
X0169000Y0138400D01*
X0174341Y0138400D01*
X0179459Y0138400D02*
X0179459Y0142841D01*
X0179400Y0142900D01*
X0179459Y0138400D02*
X0179459Y0133400D01*
X0211400Y0134900D02*
X0220900Y0134900D01*
X0228900Y0126900D01*
X0218900Y0137400D02*
X0211400Y0144900D01*
X0218900Y0137400D02*
X0258900Y0137400D01*
X0272400Y0150900D01*
X0272400Y0163900D01*
X0267400Y0166900D02*
X0267400Y0148900D01*
X0257900Y0139400D01*
X0233900Y0139400D01*
X0211900Y0161400D01*
X0211900Y0215400D01*
X0220400Y0223900D01*
X0225400Y0228900D02*
X0220400Y0233900D01*
X0225400Y0228900D02*
X0225400Y0214900D01*
X0213900Y0203400D01*
X0213900Y0161900D01*
X0234400Y0141400D01*
X0255900Y0141400D01*
X0263300Y0148800D01*
X0263300Y0164700D01*
X0263300Y0167300D02*
X0267000Y0167300D01*
X0267400Y0166900D01*
X0263300Y0169800D02*
X0274500Y0169800D01*
X0285400Y0158900D01*
X0288900Y0162400D02*
X0278900Y0172400D01*
X0263300Y0172400D01*
X0263300Y0175000D02*
X0272000Y0175000D01*
X0273400Y0176400D01*
X0266400Y0177900D02*
X0266400Y0184400D01*
X0275900Y0193900D01*
X0300900Y0193900D01*
X0305900Y0198900D01*
X0305900Y0209400D01*
X0315900Y0219400D01*
X0315900Y0228400D01*
X0310400Y0233900D01*
X0305400Y0228900D02*
X0305400Y0220900D01*
X0301900Y0217400D01*
X0301900Y0201900D01*
X0297900Y0197900D01*
X0273400Y0197900D01*
X0259600Y0184100D01*
X0259600Y0183800D01*
X0257000Y0183800D02*
X0257000Y0186500D01*
X0270400Y0199900D01*
X0296400Y0199900D01*
X0299900Y0203400D01*
X0299900Y0223400D01*
X0300400Y0223900D01*
X0295400Y0228900D02*
X0295400Y0206900D01*
X0290400Y0201900D01*
X0269400Y0201900D01*
X0254500Y0187000D01*
X0254500Y0183800D01*
X0251900Y0183800D02*
X0251900Y0187900D01*
X0267900Y0203900D01*
X0286400Y0203900D01*
X0290400Y0207900D01*
X0290400Y0223900D01*
X0285400Y0227400D02*
X0285400Y0210400D01*
X0280900Y0205900D01*
X0261400Y0205900D01*
X0246900Y0191400D01*
X0246900Y0183900D01*
X0246800Y0183800D01*
X0249300Y0183800D02*
X0249300Y0177800D01*
X0248900Y0177400D01*
X0246900Y0177400D01*
X0246400Y0177900D01*
X0240500Y0177500D02*
X0240400Y0177400D01*
X0238400Y0177400D01*
X0236900Y0178900D01*
X0236900Y0196400D01*
X0252400Y0211900D01*
X0267400Y0211900D01*
X0270400Y0214900D01*
X0270400Y0223900D01*
X0265400Y0228900D02*
X0265400Y0216900D01*
X0262400Y0213900D01*
X0250900Y0213900D01*
X0234900Y0197900D01*
X0234900Y0176400D01*
X0236400Y0174900D01*
X0240400Y0174900D01*
X0240500Y0175000D01*
X0240500Y0172400D02*
X0233900Y0172400D01*
X0231400Y0174900D01*
X0231400Y0170400D02*
X0232000Y0169800D01*
X0240500Y0169800D01*
X0240400Y0167400D02*
X0229900Y0167400D01*
X0227900Y0169400D01*
X0227900Y0193900D01*
X0249900Y0215900D01*
X0257400Y0215900D01*
X0260400Y0218900D01*
X0260400Y0223900D01*
X0255400Y0219900D02*
X0253400Y0217900D01*
X0248400Y0217900D01*
X0225900Y0195400D01*
X0225900Y0167900D01*
X0229100Y0164700D01*
X0240500Y0164700D01*
X0240500Y0167300D02*
X0240400Y0167400D01*
X0246400Y0166900D02*
X0246800Y0166500D01*
X0246800Y0161000D01*
X0246400Y0161400D01*
X0244200Y0161000D02*
X0229300Y0161000D01*
X0223900Y0166400D01*
X0223900Y0196400D01*
X0250400Y0222900D01*
X0250400Y0223900D01*
X0245400Y0221400D02*
X0245400Y0228900D01*
X0240400Y0233900D01*
X0235400Y0228900D02*
X0230400Y0233900D01*
X0235400Y0228900D02*
X0235400Y0217900D01*
X0217900Y0200400D01*
X0217900Y0163400D01*
X0235900Y0145400D01*
X0251900Y0145400D01*
X0257000Y0150500D01*
X0257000Y0161000D01*
X0254500Y0161000D02*
X0254500Y0151500D01*
X0250400Y0147400D01*
X0236900Y0147400D01*
X0219900Y0164400D01*
X0219900Y0164900D01*
X0219900Y0166400D01*
X0219900Y0198900D01*
X0240400Y0219400D01*
X0240400Y0223900D01*
X0245400Y0221400D02*
X0221900Y0197900D01*
X0221900Y0165400D01*
X0237900Y0149400D01*
X0249400Y0149400D01*
X0251900Y0151900D01*
X0251900Y0161000D01*
X0249300Y0161000D02*
X0249300Y0153800D01*
X0247900Y0152400D01*
X0247400Y0152900D01*
X0244459Y0152900D01*
X0247900Y0152400D02*
X0247959Y0152459D01*
X0245900Y0156400D02*
X0239400Y0156400D01*
X0237900Y0157900D01*
X0239341Y0156459D01*
X0239341Y0152900D01*
X0245900Y0156400D02*
X0246400Y0156900D01*
X0246400Y0166900D01*
X0251900Y0172400D01*
X0240500Y0180100D02*
X0240400Y0180200D01*
X0240400Y0195900D01*
X0254400Y0209900D01*
X0273400Y0209900D01*
X0275400Y0211900D01*
X0275400Y0228900D01*
X0270400Y0233900D01*
X0265400Y0228900D02*
X0260400Y0233900D01*
X0255400Y0228900D02*
X0250400Y0233900D01*
X0255400Y0228900D02*
X0255400Y0219900D01*
X0257900Y0207900D02*
X0243900Y0193900D01*
X0243900Y0184100D01*
X0244200Y0183800D01*
X0263300Y0184800D02*
X0263300Y0180100D01*
X0263300Y0177500D02*
X0266000Y0177500D01*
X0266400Y0177900D01*
X0263300Y0184800D02*
X0274400Y0195900D01*
X0299900Y0195900D01*
X0303900Y0199900D01*
X0303900Y0211900D01*
X0310400Y0218400D01*
X0310400Y0223900D01*
X0305400Y0228900D02*
X0300400Y0233900D01*
X0295400Y0228900D02*
X0290400Y0233900D01*
X0285400Y0227400D02*
X0280400Y0232400D01*
X0280400Y0233900D01*
X0280400Y0223900D02*
X0280400Y0210900D01*
X0277400Y0207900D01*
X0257900Y0207900D01*
X0230900Y0216900D02*
X0230900Y0223400D01*
X0230400Y0223900D01*
X0230900Y0216900D02*
X0215900Y0201900D01*
X0215900Y0162400D01*
X0234900Y0143400D01*
X0253900Y0143400D01*
X0259600Y0149100D01*
X0259600Y0161000D01*
X0300400Y0241400D02*
X0301608Y0241385D01*
X0302816Y0241342D01*
X0304022Y0241269D01*
X0305226Y0241167D01*
X0306427Y0241035D01*
X0307624Y0240875D01*
X0308818Y0240686D01*
X0310006Y0240469D01*
X0311189Y0240222D01*
X0312366Y0239947D01*
X0313535Y0239644D01*
X0314697Y0239312D01*
X0315851Y0238953D01*
X0316995Y0238566D01*
X0318130Y0238151D01*
X0319255Y0237709D01*
X0320368Y0237240D01*
X0321470Y0236744D01*
X0322560Y0236221D01*
X0323636Y0235673D01*
X0324699Y0235098D01*
X0325748Y0234498D01*
X0326782Y0233873D01*
X0327801Y0233224D01*
X0328803Y0232549D01*
X0329789Y0231851D01*
X0330758Y0231129D01*
X0331709Y0230384D01*
X0332642Y0229616D01*
X0333556Y0228826D01*
X0334451Y0228013D01*
X0335326Y0227180D01*
X0336180Y0226326D01*
X0337013Y0225451D01*
X0337826Y0224556D01*
X0338616Y0223642D01*
X0339384Y0222709D01*
X0340129Y0221758D01*
X0340851Y0220789D01*
X0341549Y0219803D01*
X0342224Y0218801D01*
X0342873Y0217782D01*
X0343498Y0216748D01*
X0344098Y0215699D01*
X0344673Y0214636D01*
X0345221Y0213560D01*
X0345744Y0212470D01*
X0346240Y0211368D01*
X0346709Y0210255D01*
X0347151Y0209130D01*
X0347566Y0207995D01*
X0347953Y0206851D01*
X0348312Y0205697D01*
X0348644Y0204535D01*
X0348947Y0203366D01*
X0349222Y0202189D01*
X0349469Y0201006D01*
X0349686Y0199818D01*
X0349875Y0198624D01*
X0350035Y0197427D01*
X0350167Y0196226D01*
X0350269Y0195022D01*
X0350342Y0193816D01*
X0350385Y0192608D01*
X0350400Y0191400D01*
X0350400Y0076400D01*
X0321400Y0080900D02*
X0316900Y0076650D01*
X0308400Y0076650D01*
X0290900Y0093900D01*
X0290900Y0100200D01*
X0290600Y0100500D01*
X0288000Y0100500D02*
X0288000Y0092800D01*
X0297900Y0082900D01*
X0297900Y0072400D01*
X0308900Y0061400D01*
X0319400Y0061400D01*
X0321400Y0063400D01*
X0321400Y0069400D01*
X0321400Y0080900D02*
X0321400Y0083900D01*
X0316900Y0091150D02*
X0296400Y0091150D01*
X0293900Y0093400D01*
X0293900Y0103800D01*
X0294300Y0104200D01*
X0294600Y0103900D01*
X0294300Y0106800D02*
X0294400Y0106900D01*
X0298900Y0106900D01*
X0300400Y0105650D01*
X0316400Y0105650D01*
X0321400Y0110400D01*
X0321400Y0112900D01*
X0321400Y0098400D02*
X0321400Y0095400D01*
X0316900Y0091150D01*
X0350400Y0076400D02*
X0350385Y0075192D01*
X0350342Y0073984D01*
X0350269Y0072778D01*
X0350167Y0071574D01*
X0350035Y0070373D01*
X0349875Y0069176D01*
X0349686Y0067982D01*
X0349469Y0066794D01*
X0349222Y0065611D01*
X0348947Y0064434D01*
X0348644Y0063265D01*
X0348312Y0062103D01*
X0347953Y0060949D01*
X0347566Y0059805D01*
X0347151Y0058670D01*
X0346709Y0057545D01*
X0346240Y0056432D01*
X0345744Y0055330D01*
X0345221Y0054240D01*
X0344673Y0053164D01*
X0344098Y0052101D01*
X0343498Y0051052D01*
X0342873Y0050018D01*
X0342224Y0048999D01*
X0341549Y0047997D01*
X0340851Y0047011D01*
X0340129Y0046042D01*
X0339384Y0045091D01*
X0338616Y0044158D01*
X0337826Y0043244D01*
X0337013Y0042349D01*
X0336180Y0041474D01*
X0335326Y0040620D01*
X0334451Y0039787D01*
X0333556Y0038974D01*
X0332642Y0038184D01*
X0331709Y0037416D01*
X0330758Y0036671D01*
X0329789Y0035949D01*
X0328803Y0035251D01*
X0327801Y0034576D01*
X0326782Y0033927D01*
X0325748Y0033302D01*
X0324699Y0032702D01*
X0323636Y0032127D01*
X0322560Y0031579D01*
X0321470Y0031056D01*
X0320368Y0030560D01*
X0319255Y0030091D01*
X0318130Y0029649D01*
X0316995Y0029234D01*
X0315851Y0028847D01*
X0314697Y0028488D01*
X0313535Y0028156D01*
X0312366Y0027853D01*
X0311189Y0027578D01*
X0310006Y0027331D01*
X0308818Y0027114D01*
X0307624Y0026925D01*
X0306427Y0026765D01*
X0305226Y0026633D01*
X0304022Y0026531D01*
X0302816Y0026458D01*
X0301608Y0026415D01*
X0300400Y0026400D01*
X0263900Y0064353D02*
X0263900Y0070841D01*
X0263900Y0075959D02*
X0263900Y0085400D01*
X0242900Y0106400D01*
X0238900Y0106400D01*
X0238400Y0105900D01*
X0234400Y0100400D02*
X0229100Y0095100D01*
X0229100Y0094400D01*
X0226500Y0094400D02*
X0226500Y0098500D01*
X0230400Y0102400D01*
X0230400Y0113400D01*
X0237900Y0114900D02*
X0267900Y0084900D01*
X0267900Y0083400D01*
X0275900Y0088400D02*
X0276400Y0088900D01*
X0276400Y0095900D01*
X0276900Y0096400D01*
X0278400Y0096400D01*
X0280300Y0098300D01*
X0280300Y0100500D01*
X0282900Y0100500D02*
X0282900Y0093900D01*
X0281400Y0092400D01*
X0285500Y0088000D02*
X0280900Y0083400D01*
X0285500Y0088000D02*
X0285500Y0100500D01*
X0287900Y0100400D02*
X0288000Y0100500D01*
X0271500Y0111900D02*
X0267900Y0111900D01*
X0267900Y0111400D01*
X0282900Y0123300D02*
X0283400Y0123800D01*
X0288000Y0123300D02*
X0288000Y0126500D01*
X0291400Y0129900D01*
X0297400Y0127400D02*
X0293300Y0123300D01*
X0290600Y0123300D01*
X0316400Y0134650D02*
X0321400Y0139400D01*
X0321400Y0141900D01*
X0316400Y0192650D02*
X0321400Y0197400D01*
X0321400Y0199900D01*
X0300400Y0241400D02*
X0055400Y0241400D01*
X0055400Y0178900D01*
X0090400Y0178900D01*
X0085459Y0189900D02*
X0156900Y0189900D01*
X0166900Y0179900D01*
X0171400Y0179900D02*
X0155900Y0195400D01*
X0085459Y0195400D01*
X0080341Y0195400D02*
X0075353Y0195400D01*
X0069447Y0195400D02*
X0069447Y0200447D01*
X0069400Y0202900D01*
X0069447Y0195400D02*
X0069447Y0189900D01*
X0075353Y0189900D02*
X0080341Y0189900D01*
X0140400Y0218400D02*
X0140400Y0223900D01*
X0140400Y0218400D02*
X0142400Y0216400D01*
X0201900Y0216400D01*
X0204900Y0213400D01*
X0204900Y0166400D01*
X0208900Y0166900D02*
X0208900Y0213400D01*
X0203900Y0218400D01*
X0146900Y0218400D01*
X0145400Y0219900D01*
X0145400Y0228900D01*
X0140400Y0233900D01*
X0145900Y0169900D02*
X0145900Y0149400D01*
X0146900Y0148400D01*
X0146900Y0143600D01*
X0137900Y0141959D02*
X0133959Y0141959D01*
X0133900Y0141900D01*
X0203900Y0095400D02*
X0206100Y0095400D01*
X0210400Y0091100D01*
X0210200Y0090900D01*
X0210400Y0088500D02*
X0210300Y0088400D01*
X0207400Y0088400D01*
X0204400Y0091400D01*
X0203400Y0091400D01*
X0203400Y0087400D02*
X0204800Y0086000D01*
X0210400Y0086000D01*
X0210400Y0083400D02*
X0204900Y0083400D01*
X0203900Y0082400D01*
X0210400Y0080800D02*
X0216300Y0080800D01*
X0216400Y0080900D01*
X0216400Y0077900D01*
X0221400Y0083400D02*
X0226400Y0088400D01*
X0223900Y0088400D01*
X0224000Y0088500D01*
X0224000Y0094400D01*
X0216300Y0094400D02*
X0216300Y0098000D01*
X0215400Y0098900D01*
X0213700Y0094400D02*
X0209200Y0098900D01*
X0208900Y0098900D01*
X0221400Y0104841D02*
X0226400Y0104841D01*
X0258900Y0085400D02*
X0258900Y0075959D01*
X0254400Y0080900D02*
X0254400Y0066400D01*
D11*
X0108869Y0113900D02*
X0102931Y0113900D01*
X0102931Y0123900D02*
X0108869Y0123900D01*
X0108869Y0133900D02*
X0102931Y0133900D01*
X0102931Y0143900D02*
X0108869Y0143900D01*
X0108869Y0153900D02*
X0102931Y0153900D01*
X0102931Y0163900D02*
X0108869Y0163900D01*
X0108869Y0173900D02*
X0102931Y0173900D01*
D12*
X0137900Y0141959D03*
X0137900Y0136841D03*
X0151900Y0155341D03*
X0151900Y0160459D03*
X0161400Y0160959D03*
X0161400Y0155841D03*
X0221400Y0109959D03*
X0226400Y0109959D03*
X0226400Y0104841D03*
X0221400Y0104841D03*
X0258900Y0114341D03*
X0263900Y0114341D03*
X0263900Y0119459D03*
X0258900Y0119459D03*
X0258900Y0075959D03*
X0263900Y0075959D03*
X0263900Y0070841D03*
X0258900Y0070841D03*
X0117900Y0094341D03*
X0112900Y0094341D03*
X0112900Y0099459D03*
X0117900Y0099459D03*
X0086900Y0099459D03*
X0086900Y0094341D03*
D13*
X0098841Y0105400D03*
X0103959Y0105400D03*
X0131341Y0117400D03*
X0136459Y0117400D03*
X0136459Y0122400D03*
X0131341Y0122400D03*
X0174341Y0133400D03*
X0179459Y0133400D03*
X0179459Y0138400D03*
X0174341Y0138400D03*
X0239341Y0152900D03*
X0244459Y0152900D03*
X0247591Y0133900D03*
X0252709Y0133900D03*
X0252709Y0128150D03*
X0247591Y0128150D03*
X0244459Y0089400D03*
X0239341Y0089400D03*
X0239341Y0079400D03*
X0244459Y0079400D03*
X0157959Y0079900D03*
X0152841Y0079900D03*
X0104459Y0080400D03*
X0099341Y0080400D03*
X0099341Y0074900D03*
X0104459Y0074900D03*
X0085459Y0189900D03*
X0080341Y0189900D03*
X0080341Y0195400D03*
X0085459Y0195400D03*
D14*
X0075353Y0195400D03*
X0069447Y0195400D03*
X0069447Y0189900D03*
X0075353Y0189900D03*
X0088447Y0080400D03*
X0088447Y0074900D03*
X0094353Y0074900D03*
X0094353Y0080400D03*
X0234197Y0127150D03*
X0240103Y0127150D03*
X0240353Y0133900D03*
X0234447Y0133900D03*
X0258900Y0064353D03*
X0263900Y0064353D03*
X0263900Y0058447D03*
X0258900Y0058447D03*
D15*
X0229100Y0072400D03*
X0226500Y0072400D03*
X0224000Y0072400D03*
X0221400Y0072400D03*
X0218800Y0072400D03*
X0216300Y0072400D03*
X0213700Y0072400D03*
X0213700Y0094400D03*
X0216300Y0094400D03*
X0218800Y0094400D03*
X0221400Y0094400D03*
X0224000Y0094400D03*
X0226500Y0094400D03*
X0229100Y0094400D03*
X0165600Y0124900D03*
X0163000Y0124900D03*
X0160500Y0124900D03*
X0157900Y0124900D03*
X0155300Y0124900D03*
X0152800Y0124900D03*
X0150200Y0124900D03*
X0150200Y0146900D03*
X0152800Y0146900D03*
X0155300Y0146900D03*
X0157900Y0146900D03*
X0160500Y0146900D03*
X0163000Y0146900D03*
X0165600Y0146900D03*
D16*
X0168900Y0143600D03*
X0168900Y0141000D03*
X0168900Y0138500D03*
X0168900Y0135900D03*
X0168900Y0133300D03*
X0168900Y0130800D03*
X0168900Y0128200D03*
X0146900Y0128200D03*
X0146900Y0130800D03*
X0146900Y0133300D03*
X0146900Y0135900D03*
X0146900Y0138500D03*
X0146900Y0141000D03*
X0146900Y0143600D03*
X0210400Y0091100D03*
X0210400Y0088500D03*
X0210400Y0086000D03*
X0210400Y0083400D03*
X0210400Y0080800D03*
X0210400Y0078300D03*
X0210400Y0075700D03*
X0232400Y0075700D03*
X0232400Y0078300D03*
X0232400Y0080800D03*
X0232400Y0083400D03*
X0232400Y0086000D03*
X0232400Y0088500D03*
X0232400Y0091100D03*
D17*
X0221400Y0083400D03*
X0282900Y0111900D03*
X0251900Y0172400D03*
X0157900Y0135900D03*
D18*
X0156400Y0106900D03*
X0151400Y0106900D03*
X0146400Y0106900D03*
X0141400Y0106900D03*
X0141400Y0094900D03*
X0146400Y0094900D03*
X0151400Y0094900D03*
X0156400Y0094900D03*
X0161400Y0094900D03*
X0161400Y0106900D03*
D19*
X0105518Y0099640D03*
X0105518Y0092160D03*
X0095282Y0092160D03*
X0095282Y0095900D03*
X0095282Y0099640D03*
D20*
X0061650Y0038900D02*
X0061652Y0039058D01*
X0061658Y0039215D01*
X0061668Y0039373D01*
X0061682Y0039530D01*
X0061700Y0039686D01*
X0061721Y0039843D01*
X0061747Y0039998D01*
X0061777Y0040153D01*
X0061810Y0040307D01*
X0061848Y0040460D01*
X0061889Y0040613D01*
X0061934Y0040764D01*
X0061983Y0040914D01*
X0062036Y0041062D01*
X0062092Y0041210D01*
X0062153Y0041355D01*
X0062216Y0041500D01*
X0062284Y0041642D01*
X0062355Y0041783D01*
X0062429Y0041922D01*
X0062507Y0042059D01*
X0062589Y0042194D01*
X0062673Y0042327D01*
X0062762Y0042458D01*
X0062853Y0042586D01*
X0062948Y0042713D01*
X0063045Y0042836D01*
X0063146Y0042958D01*
X0063250Y0043076D01*
X0063357Y0043192D01*
X0063467Y0043305D01*
X0063579Y0043416D01*
X0063695Y0043523D01*
X0063813Y0043628D01*
X0063933Y0043730D01*
X0064056Y0043828D01*
X0064182Y0043924D01*
X0064310Y0044016D01*
X0064440Y0044105D01*
X0064572Y0044191D01*
X0064707Y0044273D01*
X0064844Y0044352D01*
X0064982Y0044427D01*
X0065122Y0044499D01*
X0065265Y0044567D01*
X0065408Y0044632D01*
X0065554Y0044693D01*
X0065701Y0044750D01*
X0065849Y0044804D01*
X0065999Y0044854D01*
X0066149Y0044900D01*
X0066301Y0044942D01*
X0066454Y0044981D01*
X0066608Y0045015D01*
X0066763Y0045046D01*
X0066918Y0045072D01*
X0067074Y0045095D01*
X0067231Y0045114D01*
X0067388Y0045129D01*
X0067545Y0045140D01*
X0067703Y0045147D01*
X0067861Y0045150D01*
X0068018Y0045149D01*
X0068176Y0045144D01*
X0068333Y0045135D01*
X0068491Y0045122D01*
X0068647Y0045105D01*
X0068804Y0045084D01*
X0068959Y0045060D01*
X0069114Y0045031D01*
X0069269Y0044998D01*
X0069422Y0044962D01*
X0069575Y0044921D01*
X0069726Y0044877D01*
X0069876Y0044829D01*
X0070025Y0044778D01*
X0070173Y0044722D01*
X0070319Y0044663D01*
X0070464Y0044600D01*
X0070607Y0044533D01*
X0070748Y0044463D01*
X0070887Y0044390D01*
X0071025Y0044313D01*
X0071161Y0044232D01*
X0071294Y0044148D01*
X0071425Y0044061D01*
X0071554Y0043970D01*
X0071681Y0043876D01*
X0071806Y0043779D01*
X0071927Y0043679D01*
X0072047Y0043576D01*
X0072163Y0043470D01*
X0072277Y0043361D01*
X0072389Y0043249D01*
X0072497Y0043135D01*
X0072602Y0043017D01*
X0072705Y0042897D01*
X0072804Y0042775D01*
X0072900Y0042650D01*
X0072993Y0042522D01*
X0073083Y0042393D01*
X0073169Y0042261D01*
X0073253Y0042127D01*
X0073332Y0041991D01*
X0073409Y0041853D01*
X0073481Y0041713D01*
X0073550Y0041571D01*
X0073616Y0041428D01*
X0073678Y0041283D01*
X0073736Y0041136D01*
X0073791Y0040988D01*
X0073842Y0040839D01*
X0073889Y0040688D01*
X0073932Y0040537D01*
X0073971Y0040384D01*
X0074007Y0040230D01*
X0074038Y0040076D01*
X0074066Y0039921D01*
X0074090Y0039765D01*
X0074110Y0039608D01*
X0074126Y0039451D01*
X0074138Y0039294D01*
X0074146Y0039137D01*
X0074150Y0038979D01*
X0074150Y0038821D01*
X0074146Y0038663D01*
X0074138Y0038506D01*
X0074126Y0038349D01*
X0074110Y0038192D01*
X0074090Y0038035D01*
X0074066Y0037879D01*
X0074038Y0037724D01*
X0074007Y0037570D01*
X0073971Y0037416D01*
X0073932Y0037263D01*
X0073889Y0037112D01*
X0073842Y0036961D01*
X0073791Y0036812D01*
X0073736Y0036664D01*
X0073678Y0036517D01*
X0073616Y0036372D01*
X0073550Y0036229D01*
X0073481Y0036087D01*
X0073409Y0035947D01*
X0073332Y0035809D01*
X0073253Y0035673D01*
X0073169Y0035539D01*
X0073083Y0035407D01*
X0072993Y0035278D01*
X0072900Y0035150D01*
X0072804Y0035025D01*
X0072705Y0034903D01*
X0072602Y0034783D01*
X0072497Y0034665D01*
X0072389Y0034551D01*
X0072277Y0034439D01*
X0072163Y0034330D01*
X0072047Y0034224D01*
X0071927Y0034121D01*
X0071806Y0034021D01*
X0071681Y0033924D01*
X0071554Y0033830D01*
X0071425Y0033739D01*
X0071294Y0033652D01*
X0071161Y0033568D01*
X0071025Y0033487D01*
X0070887Y0033410D01*
X0070748Y0033337D01*
X0070607Y0033267D01*
X0070464Y0033200D01*
X0070319Y0033137D01*
X0070173Y0033078D01*
X0070025Y0033022D01*
X0069876Y0032971D01*
X0069726Y0032923D01*
X0069575Y0032879D01*
X0069422Y0032838D01*
X0069269Y0032802D01*
X0069114Y0032769D01*
X0068959Y0032740D01*
X0068804Y0032716D01*
X0068647Y0032695D01*
X0068491Y0032678D01*
X0068333Y0032665D01*
X0068176Y0032656D01*
X0068018Y0032651D01*
X0067861Y0032650D01*
X0067703Y0032653D01*
X0067545Y0032660D01*
X0067388Y0032671D01*
X0067231Y0032686D01*
X0067074Y0032705D01*
X0066918Y0032728D01*
X0066763Y0032754D01*
X0066608Y0032785D01*
X0066454Y0032819D01*
X0066301Y0032858D01*
X0066149Y0032900D01*
X0065999Y0032946D01*
X0065849Y0032996D01*
X0065701Y0033050D01*
X0065554Y0033107D01*
X0065408Y0033168D01*
X0065265Y0033233D01*
X0065122Y0033301D01*
X0064982Y0033373D01*
X0064844Y0033448D01*
X0064707Y0033527D01*
X0064572Y0033609D01*
X0064440Y0033695D01*
X0064310Y0033784D01*
X0064182Y0033876D01*
X0064056Y0033972D01*
X0063933Y0034070D01*
X0063813Y0034172D01*
X0063695Y0034277D01*
X0063579Y0034384D01*
X0063467Y0034495D01*
X0063357Y0034608D01*
X0063250Y0034724D01*
X0063146Y0034842D01*
X0063045Y0034964D01*
X0062948Y0035087D01*
X0062853Y0035214D01*
X0062762Y0035342D01*
X0062673Y0035473D01*
X0062589Y0035606D01*
X0062507Y0035741D01*
X0062429Y0035878D01*
X0062355Y0036017D01*
X0062284Y0036158D01*
X0062216Y0036300D01*
X0062153Y0036445D01*
X0062092Y0036590D01*
X0062036Y0036738D01*
X0061983Y0036886D01*
X0061934Y0037036D01*
X0061889Y0037187D01*
X0061848Y0037340D01*
X0061810Y0037493D01*
X0061777Y0037647D01*
X0061747Y0037802D01*
X0061721Y0037957D01*
X0061700Y0038114D01*
X0061682Y0038270D01*
X0061668Y0038427D01*
X0061658Y0038585D01*
X0061652Y0038742D01*
X0061650Y0038900D01*
X0061650Y0228900D02*
X0061652Y0229058D01*
X0061658Y0229215D01*
X0061668Y0229373D01*
X0061682Y0229530D01*
X0061700Y0229686D01*
X0061721Y0229843D01*
X0061747Y0229998D01*
X0061777Y0230153D01*
X0061810Y0230307D01*
X0061848Y0230460D01*
X0061889Y0230613D01*
X0061934Y0230764D01*
X0061983Y0230914D01*
X0062036Y0231062D01*
X0062092Y0231210D01*
X0062153Y0231355D01*
X0062216Y0231500D01*
X0062284Y0231642D01*
X0062355Y0231783D01*
X0062429Y0231922D01*
X0062507Y0232059D01*
X0062589Y0232194D01*
X0062673Y0232327D01*
X0062762Y0232458D01*
X0062853Y0232586D01*
X0062948Y0232713D01*
X0063045Y0232836D01*
X0063146Y0232958D01*
X0063250Y0233076D01*
X0063357Y0233192D01*
X0063467Y0233305D01*
X0063579Y0233416D01*
X0063695Y0233523D01*
X0063813Y0233628D01*
X0063933Y0233730D01*
X0064056Y0233828D01*
X0064182Y0233924D01*
X0064310Y0234016D01*
X0064440Y0234105D01*
X0064572Y0234191D01*
X0064707Y0234273D01*
X0064844Y0234352D01*
X0064982Y0234427D01*
X0065122Y0234499D01*
X0065265Y0234567D01*
X0065408Y0234632D01*
X0065554Y0234693D01*
X0065701Y0234750D01*
X0065849Y0234804D01*
X0065999Y0234854D01*
X0066149Y0234900D01*
X0066301Y0234942D01*
X0066454Y0234981D01*
X0066608Y0235015D01*
X0066763Y0235046D01*
X0066918Y0235072D01*
X0067074Y0235095D01*
X0067231Y0235114D01*
X0067388Y0235129D01*
X0067545Y0235140D01*
X0067703Y0235147D01*
X0067861Y0235150D01*
X0068018Y0235149D01*
X0068176Y0235144D01*
X0068333Y0235135D01*
X0068491Y0235122D01*
X0068647Y0235105D01*
X0068804Y0235084D01*
X0068959Y0235060D01*
X0069114Y0235031D01*
X0069269Y0234998D01*
X0069422Y0234962D01*
X0069575Y0234921D01*
X0069726Y0234877D01*
X0069876Y0234829D01*
X0070025Y0234778D01*
X0070173Y0234722D01*
X0070319Y0234663D01*
X0070464Y0234600D01*
X0070607Y0234533D01*
X0070748Y0234463D01*
X0070887Y0234390D01*
X0071025Y0234313D01*
X0071161Y0234232D01*
X0071294Y0234148D01*
X0071425Y0234061D01*
X0071554Y0233970D01*
X0071681Y0233876D01*
X0071806Y0233779D01*
X0071927Y0233679D01*
X0072047Y0233576D01*
X0072163Y0233470D01*
X0072277Y0233361D01*
X0072389Y0233249D01*
X0072497Y0233135D01*
X0072602Y0233017D01*
X0072705Y0232897D01*
X0072804Y0232775D01*
X0072900Y0232650D01*
X0072993Y0232522D01*
X0073083Y0232393D01*
X0073169Y0232261D01*
X0073253Y0232127D01*
X0073332Y0231991D01*
X0073409Y0231853D01*
X0073481Y0231713D01*
X0073550Y0231571D01*
X0073616Y0231428D01*
X0073678Y0231283D01*
X0073736Y0231136D01*
X0073791Y0230988D01*
X0073842Y0230839D01*
X0073889Y0230688D01*
X0073932Y0230537D01*
X0073971Y0230384D01*
X0074007Y0230230D01*
X0074038Y0230076D01*
X0074066Y0229921D01*
X0074090Y0229765D01*
X0074110Y0229608D01*
X0074126Y0229451D01*
X0074138Y0229294D01*
X0074146Y0229137D01*
X0074150Y0228979D01*
X0074150Y0228821D01*
X0074146Y0228663D01*
X0074138Y0228506D01*
X0074126Y0228349D01*
X0074110Y0228192D01*
X0074090Y0228035D01*
X0074066Y0227879D01*
X0074038Y0227724D01*
X0074007Y0227570D01*
X0073971Y0227416D01*
X0073932Y0227263D01*
X0073889Y0227112D01*
X0073842Y0226961D01*
X0073791Y0226812D01*
X0073736Y0226664D01*
X0073678Y0226517D01*
X0073616Y0226372D01*
X0073550Y0226229D01*
X0073481Y0226087D01*
X0073409Y0225947D01*
X0073332Y0225809D01*
X0073253Y0225673D01*
X0073169Y0225539D01*
X0073083Y0225407D01*
X0072993Y0225278D01*
X0072900Y0225150D01*
X0072804Y0225025D01*
X0072705Y0224903D01*
X0072602Y0224783D01*
X0072497Y0224665D01*
X0072389Y0224551D01*
X0072277Y0224439D01*
X0072163Y0224330D01*
X0072047Y0224224D01*
X0071927Y0224121D01*
X0071806Y0224021D01*
X0071681Y0223924D01*
X0071554Y0223830D01*
X0071425Y0223739D01*
X0071294Y0223652D01*
X0071161Y0223568D01*
X0071025Y0223487D01*
X0070887Y0223410D01*
X0070748Y0223337D01*
X0070607Y0223267D01*
X0070464Y0223200D01*
X0070319Y0223137D01*
X0070173Y0223078D01*
X0070025Y0223022D01*
X0069876Y0222971D01*
X0069726Y0222923D01*
X0069575Y0222879D01*
X0069422Y0222838D01*
X0069269Y0222802D01*
X0069114Y0222769D01*
X0068959Y0222740D01*
X0068804Y0222716D01*
X0068647Y0222695D01*
X0068491Y0222678D01*
X0068333Y0222665D01*
X0068176Y0222656D01*
X0068018Y0222651D01*
X0067861Y0222650D01*
X0067703Y0222653D01*
X0067545Y0222660D01*
X0067388Y0222671D01*
X0067231Y0222686D01*
X0067074Y0222705D01*
X0066918Y0222728D01*
X0066763Y0222754D01*
X0066608Y0222785D01*
X0066454Y0222819D01*
X0066301Y0222858D01*
X0066149Y0222900D01*
X0065999Y0222946D01*
X0065849Y0222996D01*
X0065701Y0223050D01*
X0065554Y0223107D01*
X0065408Y0223168D01*
X0065265Y0223233D01*
X0065122Y0223301D01*
X0064982Y0223373D01*
X0064844Y0223448D01*
X0064707Y0223527D01*
X0064572Y0223609D01*
X0064440Y0223695D01*
X0064310Y0223784D01*
X0064182Y0223876D01*
X0064056Y0223972D01*
X0063933Y0224070D01*
X0063813Y0224172D01*
X0063695Y0224277D01*
X0063579Y0224384D01*
X0063467Y0224495D01*
X0063357Y0224608D01*
X0063250Y0224724D01*
X0063146Y0224842D01*
X0063045Y0224964D01*
X0062948Y0225087D01*
X0062853Y0225214D01*
X0062762Y0225342D01*
X0062673Y0225473D01*
X0062589Y0225606D01*
X0062507Y0225741D01*
X0062429Y0225878D01*
X0062355Y0226017D01*
X0062284Y0226158D01*
X0062216Y0226300D01*
X0062153Y0226445D01*
X0062092Y0226590D01*
X0062036Y0226738D01*
X0061983Y0226886D01*
X0061934Y0227036D01*
X0061889Y0227187D01*
X0061848Y0227340D01*
X0061810Y0227493D01*
X0061777Y0227647D01*
X0061747Y0227802D01*
X0061721Y0227957D01*
X0061700Y0228114D01*
X0061682Y0228270D01*
X0061668Y0228427D01*
X0061658Y0228585D01*
X0061652Y0228742D01*
X0061650Y0228900D01*
X0321650Y0216400D02*
X0321652Y0216558D01*
X0321658Y0216715D01*
X0321668Y0216873D01*
X0321682Y0217030D01*
X0321700Y0217186D01*
X0321721Y0217343D01*
X0321747Y0217498D01*
X0321777Y0217653D01*
X0321810Y0217807D01*
X0321848Y0217960D01*
X0321889Y0218113D01*
X0321934Y0218264D01*
X0321983Y0218414D01*
X0322036Y0218562D01*
X0322092Y0218710D01*
X0322153Y0218855D01*
X0322216Y0219000D01*
X0322284Y0219142D01*
X0322355Y0219283D01*
X0322429Y0219422D01*
X0322507Y0219559D01*
X0322589Y0219694D01*
X0322673Y0219827D01*
X0322762Y0219958D01*
X0322853Y0220086D01*
X0322948Y0220213D01*
X0323045Y0220336D01*
X0323146Y0220458D01*
X0323250Y0220576D01*
X0323357Y0220692D01*
X0323467Y0220805D01*
X0323579Y0220916D01*
X0323695Y0221023D01*
X0323813Y0221128D01*
X0323933Y0221230D01*
X0324056Y0221328D01*
X0324182Y0221424D01*
X0324310Y0221516D01*
X0324440Y0221605D01*
X0324572Y0221691D01*
X0324707Y0221773D01*
X0324844Y0221852D01*
X0324982Y0221927D01*
X0325122Y0221999D01*
X0325265Y0222067D01*
X0325408Y0222132D01*
X0325554Y0222193D01*
X0325701Y0222250D01*
X0325849Y0222304D01*
X0325999Y0222354D01*
X0326149Y0222400D01*
X0326301Y0222442D01*
X0326454Y0222481D01*
X0326608Y0222515D01*
X0326763Y0222546D01*
X0326918Y0222572D01*
X0327074Y0222595D01*
X0327231Y0222614D01*
X0327388Y0222629D01*
X0327545Y0222640D01*
X0327703Y0222647D01*
X0327861Y0222650D01*
X0328018Y0222649D01*
X0328176Y0222644D01*
X0328333Y0222635D01*
X0328491Y0222622D01*
X0328647Y0222605D01*
X0328804Y0222584D01*
X0328959Y0222560D01*
X0329114Y0222531D01*
X0329269Y0222498D01*
X0329422Y0222462D01*
X0329575Y0222421D01*
X0329726Y0222377D01*
X0329876Y0222329D01*
X0330025Y0222278D01*
X0330173Y0222222D01*
X0330319Y0222163D01*
X0330464Y0222100D01*
X0330607Y0222033D01*
X0330748Y0221963D01*
X0330887Y0221890D01*
X0331025Y0221813D01*
X0331161Y0221732D01*
X0331294Y0221648D01*
X0331425Y0221561D01*
X0331554Y0221470D01*
X0331681Y0221376D01*
X0331806Y0221279D01*
X0331927Y0221179D01*
X0332047Y0221076D01*
X0332163Y0220970D01*
X0332277Y0220861D01*
X0332389Y0220749D01*
X0332497Y0220635D01*
X0332602Y0220517D01*
X0332705Y0220397D01*
X0332804Y0220275D01*
X0332900Y0220150D01*
X0332993Y0220022D01*
X0333083Y0219893D01*
X0333169Y0219761D01*
X0333253Y0219627D01*
X0333332Y0219491D01*
X0333409Y0219353D01*
X0333481Y0219213D01*
X0333550Y0219071D01*
X0333616Y0218928D01*
X0333678Y0218783D01*
X0333736Y0218636D01*
X0333791Y0218488D01*
X0333842Y0218339D01*
X0333889Y0218188D01*
X0333932Y0218037D01*
X0333971Y0217884D01*
X0334007Y0217730D01*
X0334038Y0217576D01*
X0334066Y0217421D01*
X0334090Y0217265D01*
X0334110Y0217108D01*
X0334126Y0216951D01*
X0334138Y0216794D01*
X0334146Y0216637D01*
X0334150Y0216479D01*
X0334150Y0216321D01*
X0334146Y0216163D01*
X0334138Y0216006D01*
X0334126Y0215849D01*
X0334110Y0215692D01*
X0334090Y0215535D01*
X0334066Y0215379D01*
X0334038Y0215224D01*
X0334007Y0215070D01*
X0333971Y0214916D01*
X0333932Y0214763D01*
X0333889Y0214612D01*
X0333842Y0214461D01*
X0333791Y0214312D01*
X0333736Y0214164D01*
X0333678Y0214017D01*
X0333616Y0213872D01*
X0333550Y0213729D01*
X0333481Y0213587D01*
X0333409Y0213447D01*
X0333332Y0213309D01*
X0333253Y0213173D01*
X0333169Y0213039D01*
X0333083Y0212907D01*
X0332993Y0212778D01*
X0332900Y0212650D01*
X0332804Y0212525D01*
X0332705Y0212403D01*
X0332602Y0212283D01*
X0332497Y0212165D01*
X0332389Y0212051D01*
X0332277Y0211939D01*
X0332163Y0211830D01*
X0332047Y0211724D01*
X0331927Y0211621D01*
X0331806Y0211521D01*
X0331681Y0211424D01*
X0331554Y0211330D01*
X0331425Y0211239D01*
X0331294Y0211152D01*
X0331161Y0211068D01*
X0331025Y0210987D01*
X0330887Y0210910D01*
X0330748Y0210837D01*
X0330607Y0210767D01*
X0330464Y0210700D01*
X0330319Y0210637D01*
X0330173Y0210578D01*
X0330025Y0210522D01*
X0329876Y0210471D01*
X0329726Y0210423D01*
X0329575Y0210379D01*
X0329422Y0210338D01*
X0329269Y0210302D01*
X0329114Y0210269D01*
X0328959Y0210240D01*
X0328804Y0210216D01*
X0328647Y0210195D01*
X0328491Y0210178D01*
X0328333Y0210165D01*
X0328176Y0210156D01*
X0328018Y0210151D01*
X0327861Y0210150D01*
X0327703Y0210153D01*
X0327545Y0210160D01*
X0327388Y0210171D01*
X0327231Y0210186D01*
X0327074Y0210205D01*
X0326918Y0210228D01*
X0326763Y0210254D01*
X0326608Y0210285D01*
X0326454Y0210319D01*
X0326301Y0210358D01*
X0326149Y0210400D01*
X0325999Y0210446D01*
X0325849Y0210496D01*
X0325701Y0210550D01*
X0325554Y0210607D01*
X0325408Y0210668D01*
X0325265Y0210733D01*
X0325122Y0210801D01*
X0324982Y0210873D01*
X0324844Y0210948D01*
X0324707Y0211027D01*
X0324572Y0211109D01*
X0324440Y0211195D01*
X0324310Y0211284D01*
X0324182Y0211376D01*
X0324056Y0211472D01*
X0323933Y0211570D01*
X0323813Y0211672D01*
X0323695Y0211777D01*
X0323579Y0211884D01*
X0323467Y0211995D01*
X0323357Y0212108D01*
X0323250Y0212224D01*
X0323146Y0212342D01*
X0323045Y0212464D01*
X0322948Y0212587D01*
X0322853Y0212714D01*
X0322762Y0212842D01*
X0322673Y0212973D01*
X0322589Y0213106D01*
X0322507Y0213241D01*
X0322429Y0213378D01*
X0322355Y0213517D01*
X0322284Y0213658D01*
X0322216Y0213800D01*
X0322153Y0213945D01*
X0322092Y0214090D01*
X0322036Y0214238D01*
X0321983Y0214386D01*
X0321934Y0214536D01*
X0321889Y0214687D01*
X0321848Y0214840D01*
X0321810Y0214993D01*
X0321777Y0215147D01*
X0321747Y0215302D01*
X0321721Y0215457D01*
X0321700Y0215614D01*
X0321682Y0215770D01*
X0321668Y0215927D01*
X0321658Y0216085D01*
X0321652Y0216242D01*
X0321650Y0216400D01*
X0321650Y0051400D02*
X0321652Y0051558D01*
X0321658Y0051715D01*
X0321668Y0051873D01*
X0321682Y0052030D01*
X0321700Y0052186D01*
X0321721Y0052343D01*
X0321747Y0052498D01*
X0321777Y0052653D01*
X0321810Y0052807D01*
X0321848Y0052960D01*
X0321889Y0053113D01*
X0321934Y0053264D01*
X0321983Y0053414D01*
X0322036Y0053562D01*
X0322092Y0053710D01*
X0322153Y0053855D01*
X0322216Y0054000D01*
X0322284Y0054142D01*
X0322355Y0054283D01*
X0322429Y0054422D01*
X0322507Y0054559D01*
X0322589Y0054694D01*
X0322673Y0054827D01*
X0322762Y0054958D01*
X0322853Y0055086D01*
X0322948Y0055213D01*
X0323045Y0055336D01*
X0323146Y0055458D01*
X0323250Y0055576D01*
X0323357Y0055692D01*
X0323467Y0055805D01*
X0323579Y0055916D01*
X0323695Y0056023D01*
X0323813Y0056128D01*
X0323933Y0056230D01*
X0324056Y0056328D01*
X0324182Y0056424D01*
X0324310Y0056516D01*
X0324440Y0056605D01*
X0324572Y0056691D01*
X0324707Y0056773D01*
X0324844Y0056852D01*
X0324982Y0056927D01*
X0325122Y0056999D01*
X0325265Y0057067D01*
X0325408Y0057132D01*
X0325554Y0057193D01*
X0325701Y0057250D01*
X0325849Y0057304D01*
X0325999Y0057354D01*
X0326149Y0057400D01*
X0326301Y0057442D01*
X0326454Y0057481D01*
X0326608Y0057515D01*
X0326763Y0057546D01*
X0326918Y0057572D01*
X0327074Y0057595D01*
X0327231Y0057614D01*
X0327388Y0057629D01*
X0327545Y0057640D01*
X0327703Y0057647D01*
X0327861Y0057650D01*
X0328018Y0057649D01*
X0328176Y0057644D01*
X0328333Y0057635D01*
X0328491Y0057622D01*
X0328647Y0057605D01*
X0328804Y0057584D01*
X0328959Y0057560D01*
X0329114Y0057531D01*
X0329269Y0057498D01*
X0329422Y0057462D01*
X0329575Y0057421D01*
X0329726Y0057377D01*
X0329876Y0057329D01*
X0330025Y0057278D01*
X0330173Y0057222D01*
X0330319Y0057163D01*
X0330464Y0057100D01*
X0330607Y0057033D01*
X0330748Y0056963D01*
X0330887Y0056890D01*
X0331025Y0056813D01*
X0331161Y0056732D01*
X0331294Y0056648D01*
X0331425Y0056561D01*
X0331554Y0056470D01*
X0331681Y0056376D01*
X0331806Y0056279D01*
X0331927Y0056179D01*
X0332047Y0056076D01*
X0332163Y0055970D01*
X0332277Y0055861D01*
X0332389Y0055749D01*
X0332497Y0055635D01*
X0332602Y0055517D01*
X0332705Y0055397D01*
X0332804Y0055275D01*
X0332900Y0055150D01*
X0332993Y0055022D01*
X0333083Y0054893D01*
X0333169Y0054761D01*
X0333253Y0054627D01*
X0333332Y0054491D01*
X0333409Y0054353D01*
X0333481Y0054213D01*
X0333550Y0054071D01*
X0333616Y0053928D01*
X0333678Y0053783D01*
X0333736Y0053636D01*
X0333791Y0053488D01*
X0333842Y0053339D01*
X0333889Y0053188D01*
X0333932Y0053037D01*
X0333971Y0052884D01*
X0334007Y0052730D01*
X0334038Y0052576D01*
X0334066Y0052421D01*
X0334090Y0052265D01*
X0334110Y0052108D01*
X0334126Y0051951D01*
X0334138Y0051794D01*
X0334146Y0051637D01*
X0334150Y0051479D01*
X0334150Y0051321D01*
X0334146Y0051163D01*
X0334138Y0051006D01*
X0334126Y0050849D01*
X0334110Y0050692D01*
X0334090Y0050535D01*
X0334066Y0050379D01*
X0334038Y0050224D01*
X0334007Y0050070D01*
X0333971Y0049916D01*
X0333932Y0049763D01*
X0333889Y0049612D01*
X0333842Y0049461D01*
X0333791Y0049312D01*
X0333736Y0049164D01*
X0333678Y0049017D01*
X0333616Y0048872D01*
X0333550Y0048729D01*
X0333481Y0048587D01*
X0333409Y0048447D01*
X0333332Y0048309D01*
X0333253Y0048173D01*
X0333169Y0048039D01*
X0333083Y0047907D01*
X0332993Y0047778D01*
X0332900Y0047650D01*
X0332804Y0047525D01*
X0332705Y0047403D01*
X0332602Y0047283D01*
X0332497Y0047165D01*
X0332389Y0047051D01*
X0332277Y0046939D01*
X0332163Y0046830D01*
X0332047Y0046724D01*
X0331927Y0046621D01*
X0331806Y0046521D01*
X0331681Y0046424D01*
X0331554Y0046330D01*
X0331425Y0046239D01*
X0331294Y0046152D01*
X0331161Y0046068D01*
X0331025Y0045987D01*
X0330887Y0045910D01*
X0330748Y0045837D01*
X0330607Y0045767D01*
X0330464Y0045700D01*
X0330319Y0045637D01*
X0330173Y0045578D01*
X0330025Y0045522D01*
X0329876Y0045471D01*
X0329726Y0045423D01*
X0329575Y0045379D01*
X0329422Y0045338D01*
X0329269Y0045302D01*
X0329114Y0045269D01*
X0328959Y0045240D01*
X0328804Y0045216D01*
X0328647Y0045195D01*
X0328491Y0045178D01*
X0328333Y0045165D01*
X0328176Y0045156D01*
X0328018Y0045151D01*
X0327861Y0045150D01*
X0327703Y0045153D01*
X0327545Y0045160D01*
X0327388Y0045171D01*
X0327231Y0045186D01*
X0327074Y0045205D01*
X0326918Y0045228D01*
X0326763Y0045254D01*
X0326608Y0045285D01*
X0326454Y0045319D01*
X0326301Y0045358D01*
X0326149Y0045400D01*
X0325999Y0045446D01*
X0325849Y0045496D01*
X0325701Y0045550D01*
X0325554Y0045607D01*
X0325408Y0045668D01*
X0325265Y0045733D01*
X0325122Y0045801D01*
X0324982Y0045873D01*
X0324844Y0045948D01*
X0324707Y0046027D01*
X0324572Y0046109D01*
X0324440Y0046195D01*
X0324310Y0046284D01*
X0324182Y0046376D01*
X0324056Y0046472D01*
X0323933Y0046570D01*
X0323813Y0046672D01*
X0323695Y0046777D01*
X0323579Y0046884D01*
X0323467Y0046995D01*
X0323357Y0047108D01*
X0323250Y0047224D01*
X0323146Y0047342D01*
X0323045Y0047464D01*
X0322948Y0047587D01*
X0322853Y0047714D01*
X0322762Y0047842D01*
X0322673Y0047973D01*
X0322589Y0048106D01*
X0322507Y0048241D01*
X0322429Y0048378D01*
X0322355Y0048517D01*
X0322284Y0048658D01*
X0322216Y0048800D01*
X0322153Y0048945D01*
X0322092Y0049090D01*
X0322036Y0049238D01*
X0321983Y0049386D01*
X0321934Y0049536D01*
X0321889Y0049687D01*
X0321848Y0049840D01*
X0321810Y0049993D01*
X0321777Y0050147D01*
X0321747Y0050302D01*
X0321721Y0050457D01*
X0321700Y0050614D01*
X0321682Y0050770D01*
X0321668Y0050927D01*
X0321658Y0051085D01*
X0321652Y0051242D01*
X0321650Y0051400D01*
D21*
X0090400Y0033900D03*
X0090400Y0223900D03*
D22*
X0100400Y0223900D03*
X0110400Y0223900D03*
X0120400Y0223900D03*
X0130400Y0223900D03*
X0140400Y0223900D03*
X0150400Y0223900D03*
X0160400Y0223900D03*
X0170400Y0223900D03*
X0180400Y0223900D03*
X0190400Y0223900D03*
X0200400Y0223900D03*
X0210400Y0223900D03*
X0220400Y0223900D03*
X0230400Y0223900D03*
X0240400Y0223900D03*
X0250400Y0223900D03*
X0260400Y0223900D03*
X0270400Y0223900D03*
X0280400Y0223900D03*
X0290400Y0223900D03*
X0300400Y0223900D03*
X0310400Y0223900D03*
X0310400Y0233900D03*
X0300400Y0233900D03*
X0290400Y0233900D03*
X0280400Y0233900D03*
X0270400Y0233900D03*
X0260400Y0233900D03*
X0250400Y0233900D03*
X0240400Y0233900D03*
X0230400Y0233900D03*
X0220400Y0233900D03*
X0210400Y0233900D03*
X0200400Y0233900D03*
X0190400Y0233900D03*
X0180400Y0233900D03*
X0170400Y0233900D03*
X0160400Y0233900D03*
X0150400Y0233900D03*
X0140400Y0233900D03*
X0130400Y0233900D03*
X0120400Y0233900D03*
X0110400Y0233900D03*
X0100400Y0233900D03*
X0090400Y0233900D03*
X0090400Y0043900D03*
X0100400Y0043900D03*
X0110400Y0043900D03*
X0120400Y0043900D03*
X0130400Y0043900D03*
X0140400Y0043900D03*
X0150400Y0043900D03*
X0160400Y0043900D03*
X0170400Y0043900D03*
X0180400Y0043900D03*
X0190400Y0043900D03*
X0200400Y0043900D03*
X0210400Y0043900D03*
X0220400Y0043900D03*
X0230400Y0043900D03*
X0240400Y0043900D03*
X0250400Y0043900D03*
X0260400Y0043900D03*
X0270400Y0043900D03*
X0280400Y0043900D03*
X0290400Y0043900D03*
X0300400Y0043900D03*
X0310400Y0043900D03*
X0310400Y0033900D03*
X0300400Y0033900D03*
X0290400Y0033900D03*
X0280400Y0033900D03*
X0270400Y0033900D03*
X0260400Y0033900D03*
X0250400Y0033900D03*
X0240400Y0033900D03*
X0230400Y0033900D03*
X0220400Y0033900D03*
X0210400Y0033900D03*
X0200400Y0033900D03*
X0190400Y0033900D03*
X0180400Y0033900D03*
X0170400Y0033900D03*
X0160400Y0033900D03*
X0150400Y0033900D03*
X0140400Y0033900D03*
X0130400Y0033900D03*
X0120400Y0033900D03*
X0110400Y0033900D03*
X0100400Y0033900D03*
D23*
X0275200Y0100500D03*
X0277800Y0100500D03*
X0280300Y0100500D03*
X0282900Y0100500D03*
X0285500Y0100500D03*
X0288000Y0100500D03*
X0290600Y0100500D03*
X0290600Y0123300D03*
X0288000Y0123300D03*
X0285500Y0123300D03*
X0282900Y0123300D03*
X0280300Y0123300D03*
X0277800Y0123300D03*
X0275200Y0123300D03*
X0259600Y0161000D03*
X0257000Y0161000D03*
X0254500Y0161000D03*
X0251900Y0161000D03*
X0249300Y0161000D03*
X0246800Y0161000D03*
X0244200Y0161000D03*
X0244200Y0183800D03*
X0246800Y0183800D03*
X0249300Y0183800D03*
X0251900Y0183800D03*
X0254500Y0183800D03*
X0257000Y0183800D03*
X0259600Y0183800D03*
D24*
X0263300Y0180100D03*
X0263300Y0177500D03*
X0263300Y0175000D03*
X0263300Y0172400D03*
X0263300Y0169800D03*
X0263300Y0167300D03*
X0263300Y0164700D03*
X0240500Y0164700D03*
X0240500Y0167300D03*
X0240500Y0169800D03*
X0240500Y0172400D03*
X0240500Y0175000D03*
X0240500Y0177500D03*
X0240500Y0180100D03*
X0271500Y0119600D03*
X0271500Y0117000D03*
X0271500Y0114500D03*
X0271500Y0111900D03*
X0271500Y0109300D03*
X0271500Y0106800D03*
X0271500Y0104200D03*
X0294300Y0104200D03*
X0294300Y0106800D03*
X0294300Y0109300D03*
X0294300Y0111900D03*
X0294300Y0114500D03*
X0294300Y0117000D03*
X0294300Y0119600D03*
D25*
X0311400Y0115900D02*
X0311400Y0109900D01*
X0321400Y0109900D02*
X0321400Y0115900D01*
X0331400Y0115900D02*
X0331400Y0109900D01*
X0341400Y0109900D02*
X0341400Y0115900D01*
X0341400Y0124400D02*
X0341400Y0130400D01*
X0341400Y0138900D02*
X0341400Y0144900D01*
X0331400Y0144900D02*
X0331400Y0138900D01*
X0321400Y0138900D02*
X0321400Y0144900D01*
X0311400Y0144900D02*
X0311400Y0138900D01*
X0311400Y0130400D02*
X0311400Y0124400D01*
X0321400Y0124400D02*
X0321400Y0130400D01*
X0331400Y0130400D02*
X0331400Y0124400D01*
X0331400Y0101400D02*
X0331400Y0095400D01*
X0321400Y0095400D02*
X0321400Y0101400D01*
X0311400Y0101400D02*
X0311400Y0095400D01*
X0311400Y0086900D02*
X0311400Y0080900D01*
X0311400Y0072400D02*
X0311400Y0066400D01*
X0321400Y0066400D02*
X0321400Y0072400D01*
X0331400Y0072400D02*
X0331400Y0066400D01*
X0341400Y0066400D02*
X0341400Y0072400D01*
X0341400Y0080900D02*
X0341400Y0086900D01*
X0341400Y0095400D02*
X0341400Y0101400D01*
X0331400Y0086900D02*
X0331400Y0080900D01*
X0321400Y0080900D02*
X0321400Y0086900D01*
X0321400Y0153400D02*
X0321400Y0159400D01*
X0331400Y0159400D02*
X0331400Y0153400D01*
X0341400Y0153400D02*
X0341400Y0159400D01*
X0341400Y0167900D02*
X0341400Y0173900D01*
X0341400Y0182400D02*
X0341400Y0188400D01*
X0331400Y0188400D02*
X0331400Y0182400D01*
X0321400Y0182400D02*
X0321400Y0188400D01*
X0311400Y0188400D02*
X0311400Y0182400D01*
X0311400Y0173900D02*
X0311400Y0167900D01*
X0311400Y0159400D02*
X0311400Y0153400D01*
X0321400Y0167900D02*
X0321400Y0173900D01*
X0331400Y0173900D02*
X0331400Y0167900D01*
X0331400Y0196900D02*
X0331400Y0202900D01*
X0321400Y0202900D02*
X0321400Y0196900D01*
X0311400Y0196900D02*
X0311400Y0202900D01*
X0341400Y0202900D02*
X0341400Y0196900D01*
X0078400Y0086900D02*
X0072400Y0086900D01*
X0072400Y0076900D02*
X0078400Y0076900D01*
D26*
X0201400Y0124900D03*
X0211400Y0124900D03*
X0211400Y0134900D03*
X0201400Y0134900D03*
X0201400Y0144900D03*
X0211400Y0144900D03*
X0211400Y0154900D03*
X0201400Y0154900D03*
D27*
X0148286Y0070774D03*
X0148286Y0055026D03*
X0121514Y0055026D03*
X0121514Y0070774D03*
D28*
X0120900Y0064900D03*
X0140900Y0080900D03*
X0151400Y0091400D03*
X0156400Y0087900D03*
X0146400Y0094900D03*
X0141400Y0106900D03*
X0160900Y0114900D03*
X0164900Y0119900D03*
X0174400Y0128900D03*
X0163400Y0130400D03*
X0152900Y0130900D03*
X0152400Y0141400D03*
X0163400Y0141400D03*
X0179400Y0142900D03*
X0182400Y0159400D03*
X0186900Y0159400D03*
X0171400Y0163400D03*
X0166900Y0163900D03*
X0161400Y0164400D03*
X0151900Y0164400D03*
X0166900Y0179900D03*
X0171400Y0179900D03*
X0204900Y0166400D03*
X0208900Y0166900D03*
X0231400Y0170400D03*
X0231400Y0174900D03*
X0246400Y0177900D03*
X0257400Y0178400D03*
X0257400Y0166400D03*
X0246400Y0166900D03*
X0237900Y0157900D03*
X0247900Y0152400D03*
X0272400Y0163900D03*
X0285400Y0158900D03*
X0288900Y0162400D03*
X0273400Y0176400D03*
X0291400Y0129900D03*
X0297400Y0127400D03*
X0288400Y0117400D03*
X0288400Y0106400D03*
X0277400Y0106400D03*
X0267900Y0111400D03*
X0277400Y0117400D03*
X0267900Y0122400D03*
X0254900Y0119400D03*
X0237900Y0122900D03*
X0234400Y0115400D03*
X0230400Y0113400D03*
X0226400Y0115900D03*
X0215400Y0109900D03*
X0215400Y0098900D03*
X0208900Y0098900D03*
X0203900Y0095400D03*
X0203400Y0091400D03*
X0203400Y0087400D03*
X0203900Y0082400D03*
X0215900Y0088400D03*
X0226400Y0088400D03*
X0226400Y0077900D03*
X0216400Y0077900D03*
X0223900Y0067900D03*
X0217900Y0065900D03*
X0248400Y0079400D03*
X0248400Y0089400D03*
X0238900Y0101900D03*
X0238400Y0105900D03*
X0228900Y0126900D03*
X0187400Y0121400D03*
X0187400Y0113400D03*
X0176900Y0107900D03*
X0169400Y0106400D03*
X0184900Y0087400D03*
X0186900Y0082400D03*
X0174900Y0063900D03*
X0169400Y0060900D03*
X0157900Y0071900D03*
X0133400Y0133900D03*
X0133900Y0141900D03*
X0129900Y0167900D03*
X0069400Y0202900D03*
X0267900Y0083400D03*
X0275900Y0088400D03*
X0281400Y0092400D03*
X0276400Y0095900D03*
X0280900Y0083400D03*
X0253900Y0058400D03*
D29*
X0200900Y0072900D02*
X0199400Y0074400D01*
X0199400Y0114900D01*
X0202400Y0117900D01*
X0177241Y0120741D02*
X0176650Y0120150D01*
X0161400Y0104900D01*
X0161400Y0094900D01*
X0161400Y0085900D01*
X0161400Y0080900D01*
X0160400Y0079900D01*
X0157959Y0079900D01*
X0152841Y0079900D02*
X0149400Y0079900D01*
X0147900Y0078400D01*
X0136900Y0084400D02*
X0159900Y0084400D01*
X0161400Y0085900D01*
X0136900Y0084400D02*
X0123900Y0097400D01*
X0121900Y0099400D01*
X0121841Y0099459D01*
X0117900Y0099459D01*
X0112900Y0099459D01*
X0112719Y0099640D01*
X0105518Y0099640D01*
X0100400Y0097900D02*
X0098660Y0099640D01*
X0095282Y0099640D01*
X0092900Y0099640D01*
X0087081Y0099640D02*
X0086900Y0099459D01*
X0088459Y0095900D02*
X0086900Y0094341D01*
X0088459Y0095900D02*
X0095282Y0095900D01*
X0095282Y0092160D02*
X0099660Y0092160D01*
X0100400Y0092900D01*
X0100400Y0097900D01*
X0112900Y0094341D02*
X0112900Y0089900D01*
X0112900Y0094341D02*
X0117900Y0094341D01*
X0121900Y0099400D02*
X0127400Y0104900D01*
X0127400Y0120900D01*
X0127400Y0121400D01*
X0128400Y0122400D01*
X0131341Y0122400D01*
X0135959Y0136841D02*
X0134900Y0137900D01*
X0127900Y0137900D01*
X0127400Y0137400D01*
X0135959Y0136841D02*
X0137900Y0136841D01*
X0161400Y0106900D02*
X0161400Y0104900D01*
X0331400Y0102900D02*
X0331400Y0098400D01*
X0331400Y0112900D01*
X0331400Y0127400D01*
X0331400Y0141900D01*
X0331400Y0156400D01*
X0331400Y0170900D01*
X0331400Y0185400D01*
X0331400Y0199900D01*
X0332400Y0172900D02*
X0331400Y0171900D01*
X0331400Y0170900D01*
X0332400Y0171900D01*
X0332400Y0172900D01*
X0331900Y0103400D02*
X0331400Y0102900D01*
X0331900Y0103400D02*
X0331900Y0098900D01*
X0331400Y0098400D01*
X0331400Y0083900D01*
X0331400Y0069400D01*
D30*
X0147900Y0078400D03*
X0112900Y0089900D03*
D31*
X0095282Y0099640D02*
X0087081Y0099640D01*
X0086900Y0099459D02*
X0076959Y0099459D01*
X0075400Y0097900D01*
X0075400Y0086900D01*
X0075900Y0077400D02*
X0075400Y0076900D01*
X0075900Y0077400D02*
X0084900Y0077400D01*
X0086900Y0079400D01*
X0086900Y0080400D01*
X0088447Y0080400D01*
X0086900Y0080400D02*
X0086900Y0094341D01*
X0094400Y0100522D02*
X0095282Y0099640D01*
X0094400Y0100522D02*
X0094400Y0105400D01*
X0098841Y0105400D01*
X0094400Y0105400D02*
X0094400Y0139900D01*
X0098400Y0143900D01*
X0105900Y0143900D01*
X0094400Y0139900D02*
X0094400Y0169400D01*
X0098900Y0173900D01*
X0105900Y0173900D01*
X0105900Y0113900D02*
X0103959Y0111959D01*
X0103959Y0105400D01*
X0263900Y0114341D02*
X0263900Y0093900D01*
X0288400Y0069400D01*
X0294400Y0069400D01*
D32*
X0294400Y0069400D03*
D33*
X0127400Y0120900D03*
X0127400Y0137400D03*
D34*
X0176650Y0120150D03*
X0202400Y0117900D03*
X0200900Y0072900D03*
D35*
X0220459Y0104841D02*
X0215400Y0109900D01*
X0220459Y0104841D02*
X0221400Y0104841D01*
M02*
