%
M48
M72
T01C0.0150
T02C0.0210
T03C0.0240
T04C0.0250
T05C0.0350
T06C0.0394
T07C0.0400
T08C0.1250
%
T01
X12090Y6490
X14090Y8090
X15140Y9140
X15640Y8790
X14640Y9490
X14140Y10690
X16090Y11490
X16490Y11990
X17440Y12890
X16340Y13040
X15290Y13090
X15240Y14140
X16340Y14140
X17940Y14290
X18240Y15940
X18690Y15940
X17140Y16340
X16690Y16390
X16140Y16440
X15190Y16440
X16690Y17990
X17140Y17990
X20490Y16640
X20890Y16690
X23140Y17040
X23140Y17490
X24640Y17790
X25740Y17840
X25740Y16640
X24640Y16690
X23790Y15790
X24790Y15240
X27240Y16390
X28540Y15890
X28890Y16240
X27340Y17640
X29140Y12990
X29740Y12740
X28840Y11740
X28840Y10640
X27740Y10640
X26790Y11140
X27740Y11740
X26790Y12240
X25490Y11940
X23790Y12290
X23440Y11540
X23040Y11340
X22640Y11590
X21540Y10990
X21540Y9890
X20890Y9890
X20390Y9540
X20340Y9140
X20340Y8740
X20390Y8240
X21590Y8840
X22640Y8840
X22640Y7790
X21640Y7790
X22390Y6790
X21790Y6590
X24840Y7940
X24840Y8940
X23890Y10190
X23840Y10590
X22890Y12690
X18740Y12140
X18740Y11340
X17690Y10790
X16940Y10640
X18490Y8740
X18690Y8240
X17490Y6390
X16940Y6090
X15790Y7190
X13340Y13390
X13390Y14190
X12990Y16790
X6940Y20290
X26790Y8340
X27590Y8840
X28140Y9240
X27640Y9590
X28090Y8340
X25390Y5840
T02
X12740Y12090
X12740Y13740
T03
X17665Y12015
X20240Y11790
X20090Y7290
T04
X14790Y7840
X11290Y8990
T05
X29440Y6940
T06
X10590Y11390
X10590Y12390
X10590Y13390
X10590Y14390
X10590Y15390
X10590Y16390
X10590Y17390
T07
X11040Y22390
X10040Y22390
X9040Y22390
X9040Y23390
X10040Y23390
X11040Y23390
X12040Y23390
X13040Y23390
X14040Y23390
X15040Y23390
X16040Y23390
X17040Y23390
X18040Y23390
X19040Y23390
X20040Y23390
X21040Y23390
X22040Y23390
X23040Y23390
X24040Y23390
X25040Y23390
X26040Y23390
X27040Y23390
X28040Y23390
X29040Y23390
X30040Y23390
X31040Y23390
X31040Y22390
X30040Y22390
X29040Y22390
X28040Y22390
X27040Y22390
X26040Y22390
X25040Y22390
X24040Y22390
X23040Y22390
X22040Y22390
X21040Y22390
X20040Y22390
X19040Y22390
X18040Y22390
X17040Y22390
X16040Y22390
X15040Y22390
X14040Y22390
X13040Y22390
X12040Y22390
X20140Y15490
X21140Y15490
X21140Y14490
X20140Y14490
X20140Y13490
X21140Y13490
X21140Y12490
X20140Y12490
X20040Y4390
X19040Y4390
X18040Y4390
X17040Y4390
X16040Y4390
X15040Y4390
X14040Y4390
X13040Y4390
X12040Y4390
X11040Y4390
X10040Y4390
X9040Y4390
X9040Y3390
X10040Y3390
X11040Y3390
X12040Y3390
X13040Y3390
X14040Y3390
X15040Y3390
X16040Y3390
X17040Y3390
X18040Y3390
X19040Y3390
X20040Y3390
X21040Y3390
X22040Y3390
X23040Y3390
X24040Y3390
X25040Y3390
X26040Y3390
X27040Y3390
X28040Y3390
X29040Y3390
X30040Y3390
X31040Y3390
X31040Y4390
X30040Y4390
X29040Y4390
X28040Y4390
X27040Y4390
X26040Y4390
X25040Y4390
X24040Y4390
X23040Y4390
X22040Y4390
X21040Y4390
X31140Y6940
X32140Y6940
X33140Y6940
X34140Y6940
X34140Y8390
X33140Y8390
X32140Y8390
X31140Y8390
X31140Y9840
X32140Y9840
X33140Y9840
X34140Y9840
X34140Y11290
X33140Y11290
X32140Y11290
X31140Y11290
X31140Y12740
X32140Y12740
X33140Y12740
X34140Y12740
X34140Y14190
X33140Y14190
X32140Y14190
X31140Y14190
X31140Y15640
X32140Y15640
X33140Y15640
X34140Y15640
X34140Y17090
X33140Y17090
X32140Y17090
X31140Y17090
X31140Y18540
X32140Y18540
X33140Y18540
X34140Y18540
X34140Y19990
X33140Y19990
X32140Y19990
X31140Y19990
X7540Y8690
X7540Y7690
T08
X6790Y3890
X32790Y5140
X32790Y21640
X6790Y22890
M30
