G75*
%MOIN*%
%OFA0B0*%
%FSLAX25Y25*%
%IPPOS*%
%LPD*%
%AMOC8*
5,1,8,0,0,1.08239X$1,22.5*
%
%ADD10C,0.00000*%
%ADD11R,0.06699X0.07498*%
%ADD12C,0.06400*%
%ADD13R,0.05518X0.06306*%
%ADD14R,0.06306X0.05518*%
%ADD15C,0.23400*%
%ADD16C,0.07900*%
%ADD17R,0.07900X0.07900*%
%ADD18R,0.06300X0.08300*%
%ADD19R,0.15400X0.08300*%
D10*
X0034331Y0035000D02*
X0034331Y0231850D01*
X0231181Y0231850D01*
X0231181Y0035000D01*
X0034331Y0035000D01*
D11*
X0139000Y0211484D03*
X0150197Y0211484D03*
D12*
X0127331Y0211000D02*
X0127331Y0217000D01*
X0117331Y0217000D02*
X0117331Y0211000D01*
X0107331Y0211000D02*
X0107331Y0217000D01*
X0097331Y0217000D02*
X0097331Y0211000D01*
X0087331Y0211000D02*
X0087331Y0217000D01*
X0077331Y0217000D02*
X0077331Y0211000D01*
X0058000Y0107728D02*
X0052000Y0107728D01*
X0052000Y0097728D02*
X0058000Y0097728D01*
X0058000Y0087728D02*
X0052000Y0087728D01*
X0052000Y0077728D02*
X0058000Y0077728D01*
X0060331Y0058000D02*
X0060331Y0052000D01*
X0050331Y0052000D02*
X0050331Y0058000D01*
X0070331Y0058000D02*
X0070331Y0052000D01*
X0080331Y0052000D02*
X0080331Y0058000D01*
X0090331Y0058000D02*
X0090331Y0052000D01*
X0100331Y0052000D02*
X0100331Y0058000D01*
X0112831Y0058000D02*
X0112831Y0052000D01*
X0122831Y0052000D02*
X0122831Y0058000D01*
X0132831Y0058000D02*
X0132831Y0052000D01*
X0142831Y0052000D02*
X0142831Y0058000D01*
X0152831Y0058000D02*
X0152831Y0052000D01*
X0162831Y0052000D02*
X0162831Y0058000D01*
X0207331Y0113500D02*
X0213331Y0113500D01*
X0213331Y0123500D02*
X0207331Y0123500D01*
X0207331Y0133500D02*
X0213331Y0133500D01*
X0213331Y0143500D02*
X0207331Y0143500D01*
X0207331Y0153500D02*
X0213331Y0153500D01*
X0213331Y0163500D02*
X0207331Y0163500D01*
X0207331Y0176000D02*
X0213331Y0176000D01*
X0213331Y0186000D02*
X0207331Y0186000D01*
X0207331Y0196000D02*
X0213331Y0196000D01*
X0213331Y0206000D02*
X0207331Y0206000D01*
X0207331Y0216000D02*
X0213331Y0216000D01*
X0213331Y0226000D02*
X0207331Y0226000D01*
D13*
X0128071Y0226000D03*
X0120591Y0226000D03*
X0095071Y0226500D03*
X0087591Y0226500D03*
X0079071Y0226500D03*
X0071591Y0226500D03*
X0074071Y0193000D03*
X0066591Y0193000D03*
X0066591Y0185000D03*
X0074071Y0185000D03*
X0074071Y0177000D03*
X0066591Y0177000D03*
X0066591Y0169000D03*
X0074071Y0169000D03*
X0071091Y0149000D03*
X0078571Y0149000D03*
X0046571Y0155500D03*
X0039091Y0155500D03*
X0114091Y0181000D03*
X0121571Y0181000D03*
X0216591Y0101000D03*
X0224071Y0101000D03*
G36*
X0195546Y0073207D02*
X0199448Y0069305D01*
X0194990Y0064847D01*
X0191088Y0068749D01*
X0195546Y0073207D01*
G37*
G36*
X0190257Y0078496D02*
X0194159Y0074594D01*
X0189701Y0070136D01*
X0185799Y0074038D01*
X0190257Y0078496D01*
G37*
X0048571Y0067000D03*
X0041091Y0067000D03*
D14*
X0223831Y0200260D03*
X0223831Y0207740D03*
D15*
X0211496Y0054685D03*
X0054016Y0212165D03*
D16*
X0070831Y0140500D03*
X0080831Y0140500D03*
X0090831Y0140500D03*
X0059831Y0131000D03*
X0049831Y0131000D03*
D17*
X0049831Y0121000D03*
X0059831Y0141000D03*
D18*
X0057231Y0168600D03*
X0048231Y0168600D03*
X0039231Y0168600D03*
D19*
X0048331Y0193400D03*
M02*
