%
M48
M72
T01C0.0130
T02C0.0400
T03C0.0500
T04C0.1260
%
T01
X3983Y6050
X6783Y6550
X6833Y7050
X6833Y7600
X6883Y8150
X7433Y8150
X8233Y8200
X8883Y8100
X8883Y7750
X8883Y7050
X8833Y6450
X8133Y6800
X7633Y7300
X7683Y9100
X8133Y9550
X8733Y9300
X9333Y9100
X9733Y9500
X10833Y9350
X11033Y9750
X11283Y11300
X12033Y11650
X11283Y12000
X10483Y12150
X10483Y11300
X12733Y11300
X13483Y11200
X13483Y12150
X12733Y12000
X14033Y13250
X14533Y12900
X15383Y13100
X14583Y13800
X15533Y15100
X14933Y15750
X14983Y16300
X14283Y16250
X13783Y16650
X13333Y16950
X12833Y16000
X12533Y15750
X12883Y15500
X12483Y15250
X11883Y14950
X11233Y14700
X10483Y15750
X10733Y16000
X10983Y16250
X11283Y16650
X11333Y17650
X10683Y18350
X11383Y19050
X11083Y20250
X11483Y20350
X12733Y19350
X13183Y19750
X13733Y19850
X13683Y19200
X15183Y19350
X15883Y19350
X15533Y18700
X15233Y17950
X15883Y17950
X15883Y17150
X15033Y17150
X15933Y16300
X17683Y16350
X18083Y15950
X17883Y17500
X17483Y17650
X17433Y19650
X17733Y19950
X17483Y21150
X17433Y21550
X18233Y21500
X18533Y21050
X18783Y21650
X19083Y21900
X19483Y22100
X19933Y22250
X18233Y22900
X16633Y22900
X15183Y22900
X15783Y21550
X15933Y20000
X15133Y20000
X14433Y20600
X13333Y21800
X13783Y22200
X12783Y22600
X11033Y22700
X10183Y22700
X9233Y20650
X8933Y20400
X8183Y19900
X9783Y19000
X8283Y17500
X8033Y16100
X8033Y15500
X7233Y15550
X7233Y16100
X6333Y15100
X5633Y15050
X5583Y15550
X6083Y15900
X5783Y16850
X4333Y18000
X6633Y18500
X9933Y15250
X9683Y15000
X9383Y14800
X10183Y15500
X12483Y16250
X13283Y15050
X16383Y14150
X18683Y12500
X19183Y12450
X19183Y11800
X18683Y11800
X18533Y11150
X19033Y11150
X18733Y10600
X19333Y10600
X18033Y10650
X17933Y11250
X17083Y10550
X18783Y13500
X19233Y13500
X13333Y9450
X13033Y9750
X4283Y14100
T02
X5033Y5500
X6033Y5500
X7033Y5500
X8033Y5500
X9033Y5500
X10033Y5500
X11283Y5500
X12283Y5500
X13283Y5500
X14283Y5500
X15283Y5500
X16283Y5500
X21033Y11350
X21033Y12350
X21033Y13350
X21033Y14350
X21033Y15350
X21033Y16350
X21033Y17600
X21033Y18600
X21033Y19600
X21033Y20600
X21033Y21600
X21033Y22600
X12733Y21400
X11733Y21400
X10733Y21400
X9733Y21400
X8733Y21400
X7733Y21400
X5500Y10773
X5500Y9773
X5500Y8773
X5500Y7773
T03
X4983Y12100
X4983Y13100
X5983Y13100
X5983Y14100
X7083Y14050
X8083Y14050
X9083Y14050
T04
X5402Y21217
X21150Y5469
M30
