G75*
%MOIN*%
%OFA0B0*%
%FSLAX25Y25*%
%IPPOS*%
%LPD*%
%AMOC8*
5,1,8,0,0,1.08239X$1,22.5*
%
%ADD10C,0.00000*%
%ADD11R,0.07000X0.07000*%
%ADD12C,0.07000*%
%ADD13C,0.07800*%
%ADD14C,0.12900*%
%ADD15R,0.03943X0.03156*%
%ADD16R,0.07498X0.06699*%
%ADD17C,0.06400*%
%ADD18R,0.03900X0.10900*%
%ADD19R,0.03156X0.03943*%
%ADD20R,0.05912X0.06700*%
%ADD21R,0.03550X0.03550*%
%ADD22C,0.23400*%
%ADD23R,0.05518X0.06306*%
%ADD24R,0.04337X0.05912*%
%ADD25R,0.08668X0.08668*%
%ADD26C,0.12998*%
%ADD27R,0.06306X0.05518*%
%ADD28R,0.04800X0.07500*%
D10*
X0034894Y0034921D02*
X0034894Y0428622D01*
X0664815Y0428622D01*
X0664815Y0034921D01*
X0374894Y0034921D01*
X0374894Y0144921D01*
X0304894Y0144921D01*
X0304894Y0034921D01*
X0034894Y0034921D01*
X0188831Y0046339D02*
X0188833Y0046497D01*
X0188839Y0046655D01*
X0188849Y0046813D01*
X0188863Y0046971D01*
X0188881Y0047128D01*
X0188902Y0047285D01*
X0188928Y0047441D01*
X0188958Y0047597D01*
X0188991Y0047752D01*
X0189029Y0047905D01*
X0189070Y0048058D01*
X0189115Y0048210D01*
X0189164Y0048361D01*
X0189217Y0048510D01*
X0189273Y0048658D01*
X0189333Y0048804D01*
X0189397Y0048949D01*
X0189465Y0049092D01*
X0189536Y0049234D01*
X0189610Y0049374D01*
X0189688Y0049511D01*
X0189770Y0049647D01*
X0189854Y0049781D01*
X0189943Y0049912D01*
X0190034Y0050041D01*
X0190129Y0050168D01*
X0190226Y0050293D01*
X0190327Y0050415D01*
X0190431Y0050534D01*
X0190538Y0050651D01*
X0190648Y0050765D01*
X0190761Y0050876D01*
X0190876Y0050985D01*
X0190994Y0051090D01*
X0191115Y0051192D01*
X0191238Y0051292D01*
X0191364Y0051388D01*
X0191492Y0051481D01*
X0191622Y0051571D01*
X0191755Y0051657D01*
X0191890Y0051741D01*
X0192026Y0051820D01*
X0192165Y0051897D01*
X0192306Y0051969D01*
X0192448Y0052039D01*
X0192592Y0052104D01*
X0192738Y0052166D01*
X0192885Y0052224D01*
X0193034Y0052279D01*
X0193184Y0052330D01*
X0193335Y0052377D01*
X0193487Y0052420D01*
X0193640Y0052459D01*
X0193795Y0052495D01*
X0193950Y0052526D01*
X0194106Y0052554D01*
X0194262Y0052578D01*
X0194419Y0052598D01*
X0194577Y0052614D01*
X0194734Y0052626D01*
X0194893Y0052634D01*
X0195051Y0052638D01*
X0195209Y0052638D01*
X0195367Y0052634D01*
X0195526Y0052626D01*
X0195683Y0052614D01*
X0195841Y0052598D01*
X0195998Y0052578D01*
X0196154Y0052554D01*
X0196310Y0052526D01*
X0196465Y0052495D01*
X0196620Y0052459D01*
X0196773Y0052420D01*
X0196925Y0052377D01*
X0197076Y0052330D01*
X0197226Y0052279D01*
X0197375Y0052224D01*
X0197522Y0052166D01*
X0197668Y0052104D01*
X0197812Y0052039D01*
X0197954Y0051969D01*
X0198095Y0051897D01*
X0198234Y0051820D01*
X0198370Y0051741D01*
X0198505Y0051657D01*
X0198638Y0051571D01*
X0198768Y0051481D01*
X0198896Y0051388D01*
X0199022Y0051292D01*
X0199145Y0051192D01*
X0199266Y0051090D01*
X0199384Y0050985D01*
X0199499Y0050876D01*
X0199612Y0050765D01*
X0199722Y0050651D01*
X0199829Y0050534D01*
X0199933Y0050415D01*
X0200034Y0050293D01*
X0200131Y0050168D01*
X0200226Y0050041D01*
X0200317Y0049912D01*
X0200406Y0049781D01*
X0200490Y0049647D01*
X0200572Y0049511D01*
X0200650Y0049374D01*
X0200724Y0049234D01*
X0200795Y0049092D01*
X0200863Y0048949D01*
X0200927Y0048804D01*
X0200987Y0048658D01*
X0201043Y0048510D01*
X0201096Y0048361D01*
X0201145Y0048210D01*
X0201190Y0048058D01*
X0201231Y0047905D01*
X0201269Y0047752D01*
X0201302Y0047597D01*
X0201332Y0047441D01*
X0201358Y0047285D01*
X0201379Y0047128D01*
X0201397Y0046971D01*
X0201411Y0046813D01*
X0201421Y0046655D01*
X0201427Y0046497D01*
X0201429Y0046339D01*
X0201427Y0046181D01*
X0201421Y0046023D01*
X0201411Y0045865D01*
X0201397Y0045707D01*
X0201379Y0045550D01*
X0201358Y0045393D01*
X0201332Y0045237D01*
X0201302Y0045081D01*
X0201269Y0044926D01*
X0201231Y0044773D01*
X0201190Y0044620D01*
X0201145Y0044468D01*
X0201096Y0044317D01*
X0201043Y0044168D01*
X0200987Y0044020D01*
X0200927Y0043874D01*
X0200863Y0043729D01*
X0200795Y0043586D01*
X0200724Y0043444D01*
X0200650Y0043304D01*
X0200572Y0043167D01*
X0200490Y0043031D01*
X0200406Y0042897D01*
X0200317Y0042766D01*
X0200226Y0042637D01*
X0200131Y0042510D01*
X0200034Y0042385D01*
X0199933Y0042263D01*
X0199829Y0042144D01*
X0199722Y0042027D01*
X0199612Y0041913D01*
X0199499Y0041802D01*
X0199384Y0041693D01*
X0199266Y0041588D01*
X0199145Y0041486D01*
X0199022Y0041386D01*
X0198896Y0041290D01*
X0198768Y0041197D01*
X0198638Y0041107D01*
X0198505Y0041021D01*
X0198370Y0040937D01*
X0198234Y0040858D01*
X0198095Y0040781D01*
X0197954Y0040709D01*
X0197812Y0040639D01*
X0197668Y0040574D01*
X0197522Y0040512D01*
X0197375Y0040454D01*
X0197226Y0040399D01*
X0197076Y0040348D01*
X0196925Y0040301D01*
X0196773Y0040258D01*
X0196620Y0040219D01*
X0196465Y0040183D01*
X0196310Y0040152D01*
X0196154Y0040124D01*
X0195998Y0040100D01*
X0195841Y0040080D01*
X0195683Y0040064D01*
X0195526Y0040052D01*
X0195367Y0040044D01*
X0195209Y0040040D01*
X0195051Y0040040D01*
X0194893Y0040044D01*
X0194734Y0040052D01*
X0194577Y0040064D01*
X0194419Y0040080D01*
X0194262Y0040100D01*
X0194106Y0040124D01*
X0193950Y0040152D01*
X0193795Y0040183D01*
X0193640Y0040219D01*
X0193487Y0040258D01*
X0193335Y0040301D01*
X0193184Y0040348D01*
X0193034Y0040399D01*
X0192885Y0040454D01*
X0192738Y0040512D01*
X0192592Y0040574D01*
X0192448Y0040639D01*
X0192306Y0040709D01*
X0192165Y0040781D01*
X0192026Y0040858D01*
X0191890Y0040937D01*
X0191755Y0041021D01*
X0191622Y0041107D01*
X0191492Y0041197D01*
X0191364Y0041290D01*
X0191238Y0041386D01*
X0191115Y0041486D01*
X0190994Y0041588D01*
X0190876Y0041693D01*
X0190761Y0041802D01*
X0190648Y0041913D01*
X0190538Y0042027D01*
X0190431Y0042144D01*
X0190327Y0042263D01*
X0190226Y0042385D01*
X0190129Y0042510D01*
X0190034Y0042637D01*
X0189943Y0042766D01*
X0189854Y0042897D01*
X0189770Y0043031D01*
X0189688Y0043167D01*
X0189610Y0043304D01*
X0189536Y0043444D01*
X0189465Y0043586D01*
X0189397Y0043729D01*
X0189333Y0043874D01*
X0189273Y0044020D01*
X0189217Y0044168D01*
X0189164Y0044317D01*
X0189115Y0044468D01*
X0189070Y0044620D01*
X0189029Y0044773D01*
X0188991Y0044926D01*
X0188958Y0045081D01*
X0188928Y0045237D01*
X0188902Y0045393D01*
X0188881Y0045550D01*
X0188863Y0045707D01*
X0188849Y0045865D01*
X0188839Y0046023D01*
X0188833Y0046181D01*
X0188831Y0046339D01*
X0224264Y0046339D02*
X0224266Y0046497D01*
X0224272Y0046655D01*
X0224282Y0046813D01*
X0224296Y0046971D01*
X0224314Y0047128D01*
X0224335Y0047285D01*
X0224361Y0047441D01*
X0224391Y0047597D01*
X0224424Y0047752D01*
X0224462Y0047905D01*
X0224503Y0048058D01*
X0224548Y0048210D01*
X0224597Y0048361D01*
X0224650Y0048510D01*
X0224706Y0048658D01*
X0224766Y0048804D01*
X0224830Y0048949D01*
X0224898Y0049092D01*
X0224969Y0049234D01*
X0225043Y0049374D01*
X0225121Y0049511D01*
X0225203Y0049647D01*
X0225287Y0049781D01*
X0225376Y0049912D01*
X0225467Y0050041D01*
X0225562Y0050168D01*
X0225659Y0050293D01*
X0225760Y0050415D01*
X0225864Y0050534D01*
X0225971Y0050651D01*
X0226081Y0050765D01*
X0226194Y0050876D01*
X0226309Y0050985D01*
X0226427Y0051090D01*
X0226548Y0051192D01*
X0226671Y0051292D01*
X0226797Y0051388D01*
X0226925Y0051481D01*
X0227055Y0051571D01*
X0227188Y0051657D01*
X0227323Y0051741D01*
X0227459Y0051820D01*
X0227598Y0051897D01*
X0227739Y0051969D01*
X0227881Y0052039D01*
X0228025Y0052104D01*
X0228171Y0052166D01*
X0228318Y0052224D01*
X0228467Y0052279D01*
X0228617Y0052330D01*
X0228768Y0052377D01*
X0228920Y0052420D01*
X0229073Y0052459D01*
X0229228Y0052495D01*
X0229383Y0052526D01*
X0229539Y0052554D01*
X0229695Y0052578D01*
X0229852Y0052598D01*
X0230010Y0052614D01*
X0230167Y0052626D01*
X0230326Y0052634D01*
X0230484Y0052638D01*
X0230642Y0052638D01*
X0230800Y0052634D01*
X0230959Y0052626D01*
X0231116Y0052614D01*
X0231274Y0052598D01*
X0231431Y0052578D01*
X0231587Y0052554D01*
X0231743Y0052526D01*
X0231898Y0052495D01*
X0232053Y0052459D01*
X0232206Y0052420D01*
X0232358Y0052377D01*
X0232509Y0052330D01*
X0232659Y0052279D01*
X0232808Y0052224D01*
X0232955Y0052166D01*
X0233101Y0052104D01*
X0233245Y0052039D01*
X0233387Y0051969D01*
X0233528Y0051897D01*
X0233667Y0051820D01*
X0233803Y0051741D01*
X0233938Y0051657D01*
X0234071Y0051571D01*
X0234201Y0051481D01*
X0234329Y0051388D01*
X0234455Y0051292D01*
X0234578Y0051192D01*
X0234699Y0051090D01*
X0234817Y0050985D01*
X0234932Y0050876D01*
X0235045Y0050765D01*
X0235155Y0050651D01*
X0235262Y0050534D01*
X0235366Y0050415D01*
X0235467Y0050293D01*
X0235564Y0050168D01*
X0235659Y0050041D01*
X0235750Y0049912D01*
X0235839Y0049781D01*
X0235923Y0049647D01*
X0236005Y0049511D01*
X0236083Y0049374D01*
X0236157Y0049234D01*
X0236228Y0049092D01*
X0236296Y0048949D01*
X0236360Y0048804D01*
X0236420Y0048658D01*
X0236476Y0048510D01*
X0236529Y0048361D01*
X0236578Y0048210D01*
X0236623Y0048058D01*
X0236664Y0047905D01*
X0236702Y0047752D01*
X0236735Y0047597D01*
X0236765Y0047441D01*
X0236791Y0047285D01*
X0236812Y0047128D01*
X0236830Y0046971D01*
X0236844Y0046813D01*
X0236854Y0046655D01*
X0236860Y0046497D01*
X0236862Y0046339D01*
X0236860Y0046181D01*
X0236854Y0046023D01*
X0236844Y0045865D01*
X0236830Y0045707D01*
X0236812Y0045550D01*
X0236791Y0045393D01*
X0236765Y0045237D01*
X0236735Y0045081D01*
X0236702Y0044926D01*
X0236664Y0044773D01*
X0236623Y0044620D01*
X0236578Y0044468D01*
X0236529Y0044317D01*
X0236476Y0044168D01*
X0236420Y0044020D01*
X0236360Y0043874D01*
X0236296Y0043729D01*
X0236228Y0043586D01*
X0236157Y0043444D01*
X0236083Y0043304D01*
X0236005Y0043167D01*
X0235923Y0043031D01*
X0235839Y0042897D01*
X0235750Y0042766D01*
X0235659Y0042637D01*
X0235564Y0042510D01*
X0235467Y0042385D01*
X0235366Y0042263D01*
X0235262Y0042144D01*
X0235155Y0042027D01*
X0235045Y0041913D01*
X0234932Y0041802D01*
X0234817Y0041693D01*
X0234699Y0041588D01*
X0234578Y0041486D01*
X0234455Y0041386D01*
X0234329Y0041290D01*
X0234201Y0041197D01*
X0234071Y0041107D01*
X0233938Y0041021D01*
X0233803Y0040937D01*
X0233667Y0040858D01*
X0233528Y0040781D01*
X0233387Y0040709D01*
X0233245Y0040639D01*
X0233101Y0040574D01*
X0232955Y0040512D01*
X0232808Y0040454D01*
X0232659Y0040399D01*
X0232509Y0040348D01*
X0232358Y0040301D01*
X0232206Y0040258D01*
X0232053Y0040219D01*
X0231898Y0040183D01*
X0231743Y0040152D01*
X0231587Y0040124D01*
X0231431Y0040100D01*
X0231274Y0040080D01*
X0231116Y0040064D01*
X0230959Y0040052D01*
X0230800Y0040044D01*
X0230642Y0040040D01*
X0230484Y0040040D01*
X0230326Y0040044D01*
X0230167Y0040052D01*
X0230010Y0040064D01*
X0229852Y0040080D01*
X0229695Y0040100D01*
X0229539Y0040124D01*
X0229383Y0040152D01*
X0229228Y0040183D01*
X0229073Y0040219D01*
X0228920Y0040258D01*
X0228768Y0040301D01*
X0228617Y0040348D01*
X0228467Y0040399D01*
X0228318Y0040454D01*
X0228171Y0040512D01*
X0228025Y0040574D01*
X0227881Y0040639D01*
X0227739Y0040709D01*
X0227598Y0040781D01*
X0227459Y0040858D01*
X0227323Y0040937D01*
X0227188Y0041021D01*
X0227055Y0041107D01*
X0226925Y0041197D01*
X0226797Y0041290D01*
X0226671Y0041386D01*
X0226548Y0041486D01*
X0226427Y0041588D01*
X0226309Y0041693D01*
X0226194Y0041802D01*
X0226081Y0041913D01*
X0225971Y0042027D01*
X0225864Y0042144D01*
X0225760Y0042263D01*
X0225659Y0042385D01*
X0225562Y0042510D01*
X0225467Y0042637D01*
X0225376Y0042766D01*
X0225287Y0042897D01*
X0225203Y0043031D01*
X0225121Y0043167D01*
X0225043Y0043304D01*
X0224969Y0043444D01*
X0224898Y0043586D01*
X0224830Y0043729D01*
X0224766Y0043874D01*
X0224706Y0044020D01*
X0224650Y0044168D01*
X0224597Y0044317D01*
X0224548Y0044468D01*
X0224503Y0044620D01*
X0224462Y0044773D01*
X0224424Y0044926D01*
X0224391Y0045081D01*
X0224361Y0045237D01*
X0224335Y0045393D01*
X0224314Y0045550D01*
X0224296Y0045707D01*
X0224282Y0045865D01*
X0224272Y0046023D01*
X0224266Y0046181D01*
X0224264Y0046339D01*
X0249254Y0119921D02*
X0249256Y0120079D01*
X0249262Y0120236D01*
X0249272Y0120394D01*
X0249286Y0120551D01*
X0249304Y0120707D01*
X0249325Y0120864D01*
X0249351Y0121019D01*
X0249381Y0121174D01*
X0249414Y0121328D01*
X0249452Y0121481D01*
X0249493Y0121634D01*
X0249538Y0121785D01*
X0249587Y0121935D01*
X0249640Y0122083D01*
X0249696Y0122231D01*
X0249757Y0122376D01*
X0249820Y0122521D01*
X0249888Y0122663D01*
X0249959Y0122804D01*
X0250033Y0122943D01*
X0250111Y0123080D01*
X0250193Y0123215D01*
X0250277Y0123348D01*
X0250366Y0123479D01*
X0250457Y0123607D01*
X0250552Y0123734D01*
X0250649Y0123857D01*
X0250750Y0123979D01*
X0250854Y0124097D01*
X0250961Y0124213D01*
X0251071Y0124326D01*
X0251183Y0124437D01*
X0251299Y0124544D01*
X0251417Y0124649D01*
X0251537Y0124751D01*
X0251660Y0124849D01*
X0251786Y0124945D01*
X0251914Y0125037D01*
X0252044Y0125126D01*
X0252176Y0125212D01*
X0252311Y0125294D01*
X0252448Y0125373D01*
X0252586Y0125448D01*
X0252726Y0125520D01*
X0252869Y0125588D01*
X0253012Y0125653D01*
X0253158Y0125714D01*
X0253305Y0125771D01*
X0253453Y0125825D01*
X0253603Y0125875D01*
X0253753Y0125921D01*
X0253905Y0125963D01*
X0254058Y0126002D01*
X0254212Y0126036D01*
X0254367Y0126067D01*
X0254522Y0126093D01*
X0254678Y0126116D01*
X0254835Y0126135D01*
X0254992Y0126150D01*
X0255149Y0126161D01*
X0255307Y0126168D01*
X0255465Y0126171D01*
X0255622Y0126170D01*
X0255780Y0126165D01*
X0255937Y0126156D01*
X0256095Y0126143D01*
X0256251Y0126126D01*
X0256408Y0126105D01*
X0256563Y0126081D01*
X0256718Y0126052D01*
X0256873Y0126019D01*
X0257026Y0125983D01*
X0257179Y0125942D01*
X0257330Y0125898D01*
X0257480Y0125850D01*
X0257629Y0125799D01*
X0257777Y0125743D01*
X0257923Y0125684D01*
X0258068Y0125621D01*
X0258211Y0125554D01*
X0258352Y0125484D01*
X0258491Y0125411D01*
X0258629Y0125334D01*
X0258765Y0125253D01*
X0258898Y0125169D01*
X0259029Y0125082D01*
X0259158Y0124991D01*
X0259285Y0124897D01*
X0259410Y0124800D01*
X0259531Y0124700D01*
X0259651Y0124597D01*
X0259767Y0124491D01*
X0259881Y0124382D01*
X0259993Y0124270D01*
X0260101Y0124156D01*
X0260206Y0124038D01*
X0260309Y0123918D01*
X0260408Y0123796D01*
X0260504Y0123671D01*
X0260597Y0123543D01*
X0260687Y0123414D01*
X0260773Y0123282D01*
X0260857Y0123148D01*
X0260936Y0123012D01*
X0261013Y0122874D01*
X0261085Y0122734D01*
X0261154Y0122592D01*
X0261220Y0122449D01*
X0261282Y0122304D01*
X0261340Y0122157D01*
X0261395Y0122009D01*
X0261446Y0121860D01*
X0261493Y0121709D01*
X0261536Y0121558D01*
X0261575Y0121405D01*
X0261611Y0121251D01*
X0261642Y0121097D01*
X0261670Y0120942D01*
X0261694Y0120786D01*
X0261714Y0120629D01*
X0261730Y0120472D01*
X0261742Y0120315D01*
X0261750Y0120158D01*
X0261754Y0120000D01*
X0261754Y0119842D01*
X0261750Y0119684D01*
X0261742Y0119527D01*
X0261730Y0119370D01*
X0261714Y0119213D01*
X0261694Y0119056D01*
X0261670Y0118900D01*
X0261642Y0118745D01*
X0261611Y0118591D01*
X0261575Y0118437D01*
X0261536Y0118284D01*
X0261493Y0118133D01*
X0261446Y0117982D01*
X0261395Y0117833D01*
X0261340Y0117685D01*
X0261282Y0117538D01*
X0261220Y0117393D01*
X0261154Y0117250D01*
X0261085Y0117108D01*
X0261013Y0116968D01*
X0260936Y0116830D01*
X0260857Y0116694D01*
X0260773Y0116560D01*
X0260687Y0116428D01*
X0260597Y0116299D01*
X0260504Y0116171D01*
X0260408Y0116046D01*
X0260309Y0115924D01*
X0260206Y0115804D01*
X0260101Y0115686D01*
X0259993Y0115572D01*
X0259881Y0115460D01*
X0259767Y0115351D01*
X0259651Y0115245D01*
X0259531Y0115142D01*
X0259410Y0115042D01*
X0259285Y0114945D01*
X0259158Y0114851D01*
X0259029Y0114760D01*
X0258898Y0114673D01*
X0258765Y0114589D01*
X0258629Y0114508D01*
X0258491Y0114431D01*
X0258352Y0114358D01*
X0258211Y0114288D01*
X0258068Y0114221D01*
X0257923Y0114158D01*
X0257777Y0114099D01*
X0257629Y0114043D01*
X0257480Y0113992D01*
X0257330Y0113944D01*
X0257179Y0113900D01*
X0257026Y0113859D01*
X0256873Y0113823D01*
X0256718Y0113790D01*
X0256563Y0113761D01*
X0256408Y0113737D01*
X0256251Y0113716D01*
X0256095Y0113699D01*
X0255937Y0113686D01*
X0255780Y0113677D01*
X0255622Y0113672D01*
X0255465Y0113671D01*
X0255307Y0113674D01*
X0255149Y0113681D01*
X0254992Y0113692D01*
X0254835Y0113707D01*
X0254678Y0113726D01*
X0254522Y0113749D01*
X0254367Y0113775D01*
X0254212Y0113806D01*
X0254058Y0113840D01*
X0253905Y0113879D01*
X0253753Y0113921D01*
X0253603Y0113967D01*
X0253453Y0114017D01*
X0253305Y0114071D01*
X0253158Y0114128D01*
X0253012Y0114189D01*
X0252869Y0114254D01*
X0252726Y0114322D01*
X0252586Y0114394D01*
X0252448Y0114469D01*
X0252311Y0114548D01*
X0252176Y0114630D01*
X0252044Y0114716D01*
X0251914Y0114805D01*
X0251786Y0114897D01*
X0251660Y0114993D01*
X0251537Y0115091D01*
X0251417Y0115193D01*
X0251299Y0115298D01*
X0251183Y0115405D01*
X0251071Y0115516D01*
X0250961Y0115629D01*
X0250854Y0115745D01*
X0250750Y0115863D01*
X0250649Y0115985D01*
X0250552Y0116108D01*
X0250457Y0116235D01*
X0250366Y0116363D01*
X0250277Y0116494D01*
X0250193Y0116627D01*
X0250111Y0116762D01*
X0250033Y0116899D01*
X0249959Y0117038D01*
X0249888Y0117179D01*
X0249820Y0117321D01*
X0249757Y0117466D01*
X0249696Y0117611D01*
X0249640Y0117759D01*
X0249587Y0117907D01*
X0249538Y0118057D01*
X0249493Y0118208D01*
X0249452Y0118361D01*
X0249414Y0118514D01*
X0249381Y0118668D01*
X0249351Y0118823D01*
X0249325Y0118978D01*
X0249304Y0119135D01*
X0249286Y0119291D01*
X0249272Y0119448D01*
X0249262Y0119606D01*
X0249256Y0119763D01*
X0249254Y0119921D01*
X0439254Y0119921D02*
X0439256Y0120079D01*
X0439262Y0120236D01*
X0439272Y0120394D01*
X0439286Y0120551D01*
X0439304Y0120707D01*
X0439325Y0120864D01*
X0439351Y0121019D01*
X0439381Y0121174D01*
X0439414Y0121328D01*
X0439452Y0121481D01*
X0439493Y0121634D01*
X0439538Y0121785D01*
X0439587Y0121935D01*
X0439640Y0122083D01*
X0439696Y0122231D01*
X0439757Y0122376D01*
X0439820Y0122521D01*
X0439888Y0122663D01*
X0439959Y0122804D01*
X0440033Y0122943D01*
X0440111Y0123080D01*
X0440193Y0123215D01*
X0440277Y0123348D01*
X0440366Y0123479D01*
X0440457Y0123607D01*
X0440552Y0123734D01*
X0440649Y0123857D01*
X0440750Y0123979D01*
X0440854Y0124097D01*
X0440961Y0124213D01*
X0441071Y0124326D01*
X0441183Y0124437D01*
X0441299Y0124544D01*
X0441417Y0124649D01*
X0441537Y0124751D01*
X0441660Y0124849D01*
X0441786Y0124945D01*
X0441914Y0125037D01*
X0442044Y0125126D01*
X0442176Y0125212D01*
X0442311Y0125294D01*
X0442448Y0125373D01*
X0442586Y0125448D01*
X0442726Y0125520D01*
X0442869Y0125588D01*
X0443012Y0125653D01*
X0443158Y0125714D01*
X0443305Y0125771D01*
X0443453Y0125825D01*
X0443603Y0125875D01*
X0443753Y0125921D01*
X0443905Y0125963D01*
X0444058Y0126002D01*
X0444212Y0126036D01*
X0444367Y0126067D01*
X0444522Y0126093D01*
X0444678Y0126116D01*
X0444835Y0126135D01*
X0444992Y0126150D01*
X0445149Y0126161D01*
X0445307Y0126168D01*
X0445465Y0126171D01*
X0445622Y0126170D01*
X0445780Y0126165D01*
X0445937Y0126156D01*
X0446095Y0126143D01*
X0446251Y0126126D01*
X0446408Y0126105D01*
X0446563Y0126081D01*
X0446718Y0126052D01*
X0446873Y0126019D01*
X0447026Y0125983D01*
X0447179Y0125942D01*
X0447330Y0125898D01*
X0447480Y0125850D01*
X0447629Y0125799D01*
X0447777Y0125743D01*
X0447923Y0125684D01*
X0448068Y0125621D01*
X0448211Y0125554D01*
X0448352Y0125484D01*
X0448491Y0125411D01*
X0448629Y0125334D01*
X0448765Y0125253D01*
X0448898Y0125169D01*
X0449029Y0125082D01*
X0449158Y0124991D01*
X0449285Y0124897D01*
X0449410Y0124800D01*
X0449531Y0124700D01*
X0449651Y0124597D01*
X0449767Y0124491D01*
X0449881Y0124382D01*
X0449993Y0124270D01*
X0450101Y0124156D01*
X0450206Y0124038D01*
X0450309Y0123918D01*
X0450408Y0123796D01*
X0450504Y0123671D01*
X0450597Y0123543D01*
X0450687Y0123414D01*
X0450773Y0123282D01*
X0450857Y0123148D01*
X0450936Y0123012D01*
X0451013Y0122874D01*
X0451085Y0122734D01*
X0451154Y0122592D01*
X0451220Y0122449D01*
X0451282Y0122304D01*
X0451340Y0122157D01*
X0451395Y0122009D01*
X0451446Y0121860D01*
X0451493Y0121709D01*
X0451536Y0121558D01*
X0451575Y0121405D01*
X0451611Y0121251D01*
X0451642Y0121097D01*
X0451670Y0120942D01*
X0451694Y0120786D01*
X0451714Y0120629D01*
X0451730Y0120472D01*
X0451742Y0120315D01*
X0451750Y0120158D01*
X0451754Y0120000D01*
X0451754Y0119842D01*
X0451750Y0119684D01*
X0451742Y0119527D01*
X0451730Y0119370D01*
X0451714Y0119213D01*
X0451694Y0119056D01*
X0451670Y0118900D01*
X0451642Y0118745D01*
X0451611Y0118591D01*
X0451575Y0118437D01*
X0451536Y0118284D01*
X0451493Y0118133D01*
X0451446Y0117982D01*
X0451395Y0117833D01*
X0451340Y0117685D01*
X0451282Y0117538D01*
X0451220Y0117393D01*
X0451154Y0117250D01*
X0451085Y0117108D01*
X0451013Y0116968D01*
X0450936Y0116830D01*
X0450857Y0116694D01*
X0450773Y0116560D01*
X0450687Y0116428D01*
X0450597Y0116299D01*
X0450504Y0116171D01*
X0450408Y0116046D01*
X0450309Y0115924D01*
X0450206Y0115804D01*
X0450101Y0115686D01*
X0449993Y0115572D01*
X0449881Y0115460D01*
X0449767Y0115351D01*
X0449651Y0115245D01*
X0449531Y0115142D01*
X0449410Y0115042D01*
X0449285Y0114945D01*
X0449158Y0114851D01*
X0449029Y0114760D01*
X0448898Y0114673D01*
X0448765Y0114589D01*
X0448629Y0114508D01*
X0448491Y0114431D01*
X0448352Y0114358D01*
X0448211Y0114288D01*
X0448068Y0114221D01*
X0447923Y0114158D01*
X0447777Y0114099D01*
X0447629Y0114043D01*
X0447480Y0113992D01*
X0447330Y0113944D01*
X0447179Y0113900D01*
X0447026Y0113859D01*
X0446873Y0113823D01*
X0446718Y0113790D01*
X0446563Y0113761D01*
X0446408Y0113737D01*
X0446251Y0113716D01*
X0446095Y0113699D01*
X0445937Y0113686D01*
X0445780Y0113677D01*
X0445622Y0113672D01*
X0445465Y0113671D01*
X0445307Y0113674D01*
X0445149Y0113681D01*
X0444992Y0113692D01*
X0444835Y0113707D01*
X0444678Y0113726D01*
X0444522Y0113749D01*
X0444367Y0113775D01*
X0444212Y0113806D01*
X0444058Y0113840D01*
X0443905Y0113879D01*
X0443753Y0113921D01*
X0443603Y0113967D01*
X0443453Y0114017D01*
X0443305Y0114071D01*
X0443158Y0114128D01*
X0443012Y0114189D01*
X0442869Y0114254D01*
X0442726Y0114322D01*
X0442586Y0114394D01*
X0442448Y0114469D01*
X0442311Y0114548D01*
X0442176Y0114630D01*
X0442044Y0114716D01*
X0441914Y0114805D01*
X0441786Y0114897D01*
X0441660Y0114993D01*
X0441537Y0115091D01*
X0441417Y0115193D01*
X0441299Y0115298D01*
X0441183Y0115405D01*
X0441071Y0115516D01*
X0440961Y0115629D01*
X0440854Y0115745D01*
X0440750Y0115863D01*
X0440649Y0115985D01*
X0440552Y0116108D01*
X0440457Y0116235D01*
X0440366Y0116363D01*
X0440277Y0116494D01*
X0440193Y0116627D01*
X0440111Y0116762D01*
X0440033Y0116899D01*
X0439959Y0117038D01*
X0439888Y0117179D01*
X0439820Y0117321D01*
X0439757Y0117466D01*
X0439696Y0117611D01*
X0439640Y0117759D01*
X0439587Y0117907D01*
X0439538Y0118057D01*
X0439493Y0118208D01*
X0439452Y0118361D01*
X0439414Y0118514D01*
X0439381Y0118668D01*
X0439351Y0118823D01*
X0439325Y0118978D01*
X0439304Y0119135D01*
X0439286Y0119291D01*
X0439272Y0119448D01*
X0439262Y0119606D01*
X0439256Y0119763D01*
X0439254Y0119921D01*
X0572847Y0046890D02*
X0572849Y0047048D01*
X0572855Y0047206D01*
X0572865Y0047364D01*
X0572879Y0047522D01*
X0572897Y0047679D01*
X0572918Y0047836D01*
X0572944Y0047992D01*
X0572974Y0048148D01*
X0573007Y0048303D01*
X0573045Y0048456D01*
X0573086Y0048609D01*
X0573131Y0048761D01*
X0573180Y0048912D01*
X0573233Y0049061D01*
X0573289Y0049209D01*
X0573349Y0049355D01*
X0573413Y0049500D01*
X0573481Y0049643D01*
X0573552Y0049785D01*
X0573626Y0049925D01*
X0573704Y0050062D01*
X0573786Y0050198D01*
X0573870Y0050332D01*
X0573959Y0050463D01*
X0574050Y0050592D01*
X0574145Y0050719D01*
X0574242Y0050844D01*
X0574343Y0050966D01*
X0574447Y0051085D01*
X0574554Y0051202D01*
X0574664Y0051316D01*
X0574777Y0051427D01*
X0574892Y0051536D01*
X0575010Y0051641D01*
X0575131Y0051743D01*
X0575254Y0051843D01*
X0575380Y0051939D01*
X0575508Y0052032D01*
X0575638Y0052122D01*
X0575771Y0052208D01*
X0575906Y0052292D01*
X0576042Y0052371D01*
X0576181Y0052448D01*
X0576322Y0052520D01*
X0576464Y0052590D01*
X0576608Y0052655D01*
X0576754Y0052717D01*
X0576901Y0052775D01*
X0577050Y0052830D01*
X0577200Y0052881D01*
X0577351Y0052928D01*
X0577503Y0052971D01*
X0577656Y0053010D01*
X0577811Y0053046D01*
X0577966Y0053077D01*
X0578122Y0053105D01*
X0578278Y0053129D01*
X0578435Y0053149D01*
X0578593Y0053165D01*
X0578750Y0053177D01*
X0578909Y0053185D01*
X0579067Y0053189D01*
X0579225Y0053189D01*
X0579383Y0053185D01*
X0579542Y0053177D01*
X0579699Y0053165D01*
X0579857Y0053149D01*
X0580014Y0053129D01*
X0580170Y0053105D01*
X0580326Y0053077D01*
X0580481Y0053046D01*
X0580636Y0053010D01*
X0580789Y0052971D01*
X0580941Y0052928D01*
X0581092Y0052881D01*
X0581242Y0052830D01*
X0581391Y0052775D01*
X0581538Y0052717D01*
X0581684Y0052655D01*
X0581828Y0052590D01*
X0581970Y0052520D01*
X0582111Y0052448D01*
X0582250Y0052371D01*
X0582386Y0052292D01*
X0582521Y0052208D01*
X0582654Y0052122D01*
X0582784Y0052032D01*
X0582912Y0051939D01*
X0583038Y0051843D01*
X0583161Y0051743D01*
X0583282Y0051641D01*
X0583400Y0051536D01*
X0583515Y0051427D01*
X0583628Y0051316D01*
X0583738Y0051202D01*
X0583845Y0051085D01*
X0583949Y0050966D01*
X0584050Y0050844D01*
X0584147Y0050719D01*
X0584242Y0050592D01*
X0584333Y0050463D01*
X0584422Y0050332D01*
X0584506Y0050198D01*
X0584588Y0050062D01*
X0584666Y0049925D01*
X0584740Y0049785D01*
X0584811Y0049643D01*
X0584879Y0049500D01*
X0584943Y0049355D01*
X0585003Y0049209D01*
X0585059Y0049061D01*
X0585112Y0048912D01*
X0585161Y0048761D01*
X0585206Y0048609D01*
X0585247Y0048456D01*
X0585285Y0048303D01*
X0585318Y0048148D01*
X0585348Y0047992D01*
X0585374Y0047836D01*
X0585395Y0047679D01*
X0585413Y0047522D01*
X0585427Y0047364D01*
X0585437Y0047206D01*
X0585443Y0047048D01*
X0585445Y0046890D01*
X0585443Y0046732D01*
X0585437Y0046574D01*
X0585427Y0046416D01*
X0585413Y0046258D01*
X0585395Y0046101D01*
X0585374Y0045944D01*
X0585348Y0045788D01*
X0585318Y0045632D01*
X0585285Y0045477D01*
X0585247Y0045324D01*
X0585206Y0045171D01*
X0585161Y0045019D01*
X0585112Y0044868D01*
X0585059Y0044719D01*
X0585003Y0044571D01*
X0584943Y0044425D01*
X0584879Y0044280D01*
X0584811Y0044137D01*
X0584740Y0043995D01*
X0584666Y0043855D01*
X0584588Y0043718D01*
X0584506Y0043582D01*
X0584422Y0043448D01*
X0584333Y0043317D01*
X0584242Y0043188D01*
X0584147Y0043061D01*
X0584050Y0042936D01*
X0583949Y0042814D01*
X0583845Y0042695D01*
X0583738Y0042578D01*
X0583628Y0042464D01*
X0583515Y0042353D01*
X0583400Y0042244D01*
X0583282Y0042139D01*
X0583161Y0042037D01*
X0583038Y0041937D01*
X0582912Y0041841D01*
X0582784Y0041748D01*
X0582654Y0041658D01*
X0582521Y0041572D01*
X0582386Y0041488D01*
X0582250Y0041409D01*
X0582111Y0041332D01*
X0581970Y0041260D01*
X0581828Y0041190D01*
X0581684Y0041125D01*
X0581538Y0041063D01*
X0581391Y0041005D01*
X0581242Y0040950D01*
X0581092Y0040899D01*
X0580941Y0040852D01*
X0580789Y0040809D01*
X0580636Y0040770D01*
X0580481Y0040734D01*
X0580326Y0040703D01*
X0580170Y0040675D01*
X0580014Y0040651D01*
X0579857Y0040631D01*
X0579699Y0040615D01*
X0579542Y0040603D01*
X0579383Y0040595D01*
X0579225Y0040591D01*
X0579067Y0040591D01*
X0578909Y0040595D01*
X0578750Y0040603D01*
X0578593Y0040615D01*
X0578435Y0040631D01*
X0578278Y0040651D01*
X0578122Y0040675D01*
X0577966Y0040703D01*
X0577811Y0040734D01*
X0577656Y0040770D01*
X0577503Y0040809D01*
X0577351Y0040852D01*
X0577200Y0040899D01*
X0577050Y0040950D01*
X0576901Y0041005D01*
X0576754Y0041063D01*
X0576608Y0041125D01*
X0576464Y0041190D01*
X0576322Y0041260D01*
X0576181Y0041332D01*
X0576042Y0041409D01*
X0575906Y0041488D01*
X0575771Y0041572D01*
X0575638Y0041658D01*
X0575508Y0041748D01*
X0575380Y0041841D01*
X0575254Y0041937D01*
X0575131Y0042037D01*
X0575010Y0042139D01*
X0574892Y0042244D01*
X0574777Y0042353D01*
X0574664Y0042464D01*
X0574554Y0042578D01*
X0574447Y0042695D01*
X0574343Y0042814D01*
X0574242Y0042936D01*
X0574145Y0043061D01*
X0574050Y0043188D01*
X0573959Y0043317D01*
X0573870Y0043448D01*
X0573786Y0043582D01*
X0573704Y0043718D01*
X0573626Y0043855D01*
X0573552Y0043995D01*
X0573481Y0044137D01*
X0573413Y0044280D01*
X0573349Y0044425D01*
X0573289Y0044571D01*
X0573233Y0044719D01*
X0573180Y0044868D01*
X0573131Y0045019D01*
X0573086Y0045171D01*
X0573045Y0045324D01*
X0573007Y0045477D01*
X0572974Y0045632D01*
X0572944Y0045788D01*
X0572918Y0045944D01*
X0572897Y0046101D01*
X0572879Y0046258D01*
X0572865Y0046416D01*
X0572855Y0046574D01*
X0572849Y0046732D01*
X0572847Y0046890D01*
X0608280Y0046890D02*
X0608282Y0047048D01*
X0608288Y0047206D01*
X0608298Y0047364D01*
X0608312Y0047522D01*
X0608330Y0047679D01*
X0608351Y0047836D01*
X0608377Y0047992D01*
X0608407Y0048148D01*
X0608440Y0048303D01*
X0608478Y0048456D01*
X0608519Y0048609D01*
X0608564Y0048761D01*
X0608613Y0048912D01*
X0608666Y0049061D01*
X0608722Y0049209D01*
X0608782Y0049355D01*
X0608846Y0049500D01*
X0608914Y0049643D01*
X0608985Y0049785D01*
X0609059Y0049925D01*
X0609137Y0050062D01*
X0609219Y0050198D01*
X0609303Y0050332D01*
X0609392Y0050463D01*
X0609483Y0050592D01*
X0609578Y0050719D01*
X0609675Y0050844D01*
X0609776Y0050966D01*
X0609880Y0051085D01*
X0609987Y0051202D01*
X0610097Y0051316D01*
X0610210Y0051427D01*
X0610325Y0051536D01*
X0610443Y0051641D01*
X0610564Y0051743D01*
X0610687Y0051843D01*
X0610813Y0051939D01*
X0610941Y0052032D01*
X0611071Y0052122D01*
X0611204Y0052208D01*
X0611339Y0052292D01*
X0611475Y0052371D01*
X0611614Y0052448D01*
X0611755Y0052520D01*
X0611897Y0052590D01*
X0612041Y0052655D01*
X0612187Y0052717D01*
X0612334Y0052775D01*
X0612483Y0052830D01*
X0612633Y0052881D01*
X0612784Y0052928D01*
X0612936Y0052971D01*
X0613089Y0053010D01*
X0613244Y0053046D01*
X0613399Y0053077D01*
X0613555Y0053105D01*
X0613711Y0053129D01*
X0613868Y0053149D01*
X0614026Y0053165D01*
X0614183Y0053177D01*
X0614342Y0053185D01*
X0614500Y0053189D01*
X0614658Y0053189D01*
X0614816Y0053185D01*
X0614975Y0053177D01*
X0615132Y0053165D01*
X0615290Y0053149D01*
X0615447Y0053129D01*
X0615603Y0053105D01*
X0615759Y0053077D01*
X0615914Y0053046D01*
X0616069Y0053010D01*
X0616222Y0052971D01*
X0616374Y0052928D01*
X0616525Y0052881D01*
X0616675Y0052830D01*
X0616824Y0052775D01*
X0616971Y0052717D01*
X0617117Y0052655D01*
X0617261Y0052590D01*
X0617403Y0052520D01*
X0617544Y0052448D01*
X0617683Y0052371D01*
X0617819Y0052292D01*
X0617954Y0052208D01*
X0618087Y0052122D01*
X0618217Y0052032D01*
X0618345Y0051939D01*
X0618471Y0051843D01*
X0618594Y0051743D01*
X0618715Y0051641D01*
X0618833Y0051536D01*
X0618948Y0051427D01*
X0619061Y0051316D01*
X0619171Y0051202D01*
X0619278Y0051085D01*
X0619382Y0050966D01*
X0619483Y0050844D01*
X0619580Y0050719D01*
X0619675Y0050592D01*
X0619766Y0050463D01*
X0619855Y0050332D01*
X0619939Y0050198D01*
X0620021Y0050062D01*
X0620099Y0049925D01*
X0620173Y0049785D01*
X0620244Y0049643D01*
X0620312Y0049500D01*
X0620376Y0049355D01*
X0620436Y0049209D01*
X0620492Y0049061D01*
X0620545Y0048912D01*
X0620594Y0048761D01*
X0620639Y0048609D01*
X0620680Y0048456D01*
X0620718Y0048303D01*
X0620751Y0048148D01*
X0620781Y0047992D01*
X0620807Y0047836D01*
X0620828Y0047679D01*
X0620846Y0047522D01*
X0620860Y0047364D01*
X0620870Y0047206D01*
X0620876Y0047048D01*
X0620878Y0046890D01*
X0620876Y0046732D01*
X0620870Y0046574D01*
X0620860Y0046416D01*
X0620846Y0046258D01*
X0620828Y0046101D01*
X0620807Y0045944D01*
X0620781Y0045788D01*
X0620751Y0045632D01*
X0620718Y0045477D01*
X0620680Y0045324D01*
X0620639Y0045171D01*
X0620594Y0045019D01*
X0620545Y0044868D01*
X0620492Y0044719D01*
X0620436Y0044571D01*
X0620376Y0044425D01*
X0620312Y0044280D01*
X0620244Y0044137D01*
X0620173Y0043995D01*
X0620099Y0043855D01*
X0620021Y0043718D01*
X0619939Y0043582D01*
X0619855Y0043448D01*
X0619766Y0043317D01*
X0619675Y0043188D01*
X0619580Y0043061D01*
X0619483Y0042936D01*
X0619382Y0042814D01*
X0619278Y0042695D01*
X0619171Y0042578D01*
X0619061Y0042464D01*
X0618948Y0042353D01*
X0618833Y0042244D01*
X0618715Y0042139D01*
X0618594Y0042037D01*
X0618471Y0041937D01*
X0618345Y0041841D01*
X0618217Y0041748D01*
X0618087Y0041658D01*
X0617954Y0041572D01*
X0617819Y0041488D01*
X0617683Y0041409D01*
X0617544Y0041332D01*
X0617403Y0041260D01*
X0617261Y0041190D01*
X0617117Y0041125D01*
X0616971Y0041063D01*
X0616824Y0041005D01*
X0616675Y0040950D01*
X0616525Y0040899D01*
X0616374Y0040852D01*
X0616222Y0040809D01*
X0616069Y0040770D01*
X0615914Y0040734D01*
X0615759Y0040703D01*
X0615603Y0040675D01*
X0615447Y0040651D01*
X0615290Y0040631D01*
X0615132Y0040615D01*
X0614975Y0040603D01*
X0614816Y0040595D01*
X0614658Y0040591D01*
X0614500Y0040591D01*
X0614342Y0040595D01*
X0614183Y0040603D01*
X0614026Y0040615D01*
X0613868Y0040631D01*
X0613711Y0040651D01*
X0613555Y0040675D01*
X0613399Y0040703D01*
X0613244Y0040734D01*
X0613089Y0040770D01*
X0612936Y0040809D01*
X0612784Y0040852D01*
X0612633Y0040899D01*
X0612483Y0040950D01*
X0612334Y0041005D01*
X0612187Y0041063D01*
X0612041Y0041125D01*
X0611897Y0041190D01*
X0611755Y0041260D01*
X0611614Y0041332D01*
X0611475Y0041409D01*
X0611339Y0041488D01*
X0611204Y0041572D01*
X0611071Y0041658D01*
X0610941Y0041748D01*
X0610813Y0041841D01*
X0610687Y0041937D01*
X0610564Y0042037D01*
X0610443Y0042139D01*
X0610325Y0042244D01*
X0610210Y0042353D01*
X0610097Y0042464D01*
X0609987Y0042578D01*
X0609880Y0042695D01*
X0609776Y0042814D01*
X0609675Y0042936D01*
X0609578Y0043061D01*
X0609483Y0043188D01*
X0609392Y0043317D01*
X0609303Y0043448D01*
X0609219Y0043582D01*
X0609137Y0043718D01*
X0609059Y0043855D01*
X0608985Y0043995D01*
X0608914Y0044137D01*
X0608846Y0044280D01*
X0608782Y0044425D01*
X0608722Y0044571D01*
X0608666Y0044719D01*
X0608613Y0044868D01*
X0608564Y0045019D01*
X0608519Y0045171D01*
X0608478Y0045324D01*
X0608440Y0045477D01*
X0608407Y0045632D01*
X0608377Y0045788D01*
X0608351Y0045944D01*
X0608330Y0046101D01*
X0608312Y0046258D01*
X0608298Y0046416D01*
X0608288Y0046574D01*
X0608282Y0046732D01*
X0608280Y0046890D01*
X0426754Y0379921D02*
X0426756Y0380079D01*
X0426762Y0380236D01*
X0426772Y0380394D01*
X0426786Y0380551D01*
X0426804Y0380707D01*
X0426825Y0380864D01*
X0426851Y0381019D01*
X0426881Y0381174D01*
X0426914Y0381328D01*
X0426952Y0381481D01*
X0426993Y0381634D01*
X0427038Y0381785D01*
X0427087Y0381935D01*
X0427140Y0382083D01*
X0427196Y0382231D01*
X0427257Y0382376D01*
X0427320Y0382521D01*
X0427388Y0382663D01*
X0427459Y0382804D01*
X0427533Y0382943D01*
X0427611Y0383080D01*
X0427693Y0383215D01*
X0427777Y0383348D01*
X0427866Y0383479D01*
X0427957Y0383607D01*
X0428052Y0383734D01*
X0428149Y0383857D01*
X0428250Y0383979D01*
X0428354Y0384097D01*
X0428461Y0384213D01*
X0428571Y0384326D01*
X0428683Y0384437D01*
X0428799Y0384544D01*
X0428917Y0384649D01*
X0429037Y0384751D01*
X0429160Y0384849D01*
X0429286Y0384945D01*
X0429414Y0385037D01*
X0429544Y0385126D01*
X0429676Y0385212D01*
X0429811Y0385294D01*
X0429948Y0385373D01*
X0430086Y0385448D01*
X0430226Y0385520D01*
X0430369Y0385588D01*
X0430512Y0385653D01*
X0430658Y0385714D01*
X0430805Y0385771D01*
X0430953Y0385825D01*
X0431103Y0385875D01*
X0431253Y0385921D01*
X0431405Y0385963D01*
X0431558Y0386002D01*
X0431712Y0386036D01*
X0431867Y0386067D01*
X0432022Y0386093D01*
X0432178Y0386116D01*
X0432335Y0386135D01*
X0432492Y0386150D01*
X0432649Y0386161D01*
X0432807Y0386168D01*
X0432965Y0386171D01*
X0433122Y0386170D01*
X0433280Y0386165D01*
X0433437Y0386156D01*
X0433595Y0386143D01*
X0433751Y0386126D01*
X0433908Y0386105D01*
X0434063Y0386081D01*
X0434218Y0386052D01*
X0434373Y0386019D01*
X0434526Y0385983D01*
X0434679Y0385942D01*
X0434830Y0385898D01*
X0434980Y0385850D01*
X0435129Y0385799D01*
X0435277Y0385743D01*
X0435423Y0385684D01*
X0435568Y0385621D01*
X0435711Y0385554D01*
X0435852Y0385484D01*
X0435991Y0385411D01*
X0436129Y0385334D01*
X0436265Y0385253D01*
X0436398Y0385169D01*
X0436529Y0385082D01*
X0436658Y0384991D01*
X0436785Y0384897D01*
X0436910Y0384800D01*
X0437031Y0384700D01*
X0437151Y0384597D01*
X0437267Y0384491D01*
X0437381Y0384382D01*
X0437493Y0384270D01*
X0437601Y0384156D01*
X0437706Y0384038D01*
X0437809Y0383918D01*
X0437908Y0383796D01*
X0438004Y0383671D01*
X0438097Y0383543D01*
X0438187Y0383414D01*
X0438273Y0383282D01*
X0438357Y0383148D01*
X0438436Y0383012D01*
X0438513Y0382874D01*
X0438585Y0382734D01*
X0438654Y0382592D01*
X0438720Y0382449D01*
X0438782Y0382304D01*
X0438840Y0382157D01*
X0438895Y0382009D01*
X0438946Y0381860D01*
X0438993Y0381709D01*
X0439036Y0381558D01*
X0439075Y0381405D01*
X0439111Y0381251D01*
X0439142Y0381097D01*
X0439170Y0380942D01*
X0439194Y0380786D01*
X0439214Y0380629D01*
X0439230Y0380472D01*
X0439242Y0380315D01*
X0439250Y0380158D01*
X0439254Y0380000D01*
X0439254Y0379842D01*
X0439250Y0379684D01*
X0439242Y0379527D01*
X0439230Y0379370D01*
X0439214Y0379213D01*
X0439194Y0379056D01*
X0439170Y0378900D01*
X0439142Y0378745D01*
X0439111Y0378591D01*
X0439075Y0378437D01*
X0439036Y0378284D01*
X0438993Y0378133D01*
X0438946Y0377982D01*
X0438895Y0377833D01*
X0438840Y0377685D01*
X0438782Y0377538D01*
X0438720Y0377393D01*
X0438654Y0377250D01*
X0438585Y0377108D01*
X0438513Y0376968D01*
X0438436Y0376830D01*
X0438357Y0376694D01*
X0438273Y0376560D01*
X0438187Y0376428D01*
X0438097Y0376299D01*
X0438004Y0376171D01*
X0437908Y0376046D01*
X0437809Y0375924D01*
X0437706Y0375804D01*
X0437601Y0375686D01*
X0437493Y0375572D01*
X0437381Y0375460D01*
X0437267Y0375351D01*
X0437151Y0375245D01*
X0437031Y0375142D01*
X0436910Y0375042D01*
X0436785Y0374945D01*
X0436658Y0374851D01*
X0436529Y0374760D01*
X0436398Y0374673D01*
X0436265Y0374589D01*
X0436129Y0374508D01*
X0435991Y0374431D01*
X0435852Y0374358D01*
X0435711Y0374288D01*
X0435568Y0374221D01*
X0435423Y0374158D01*
X0435277Y0374099D01*
X0435129Y0374043D01*
X0434980Y0373992D01*
X0434830Y0373944D01*
X0434679Y0373900D01*
X0434526Y0373859D01*
X0434373Y0373823D01*
X0434218Y0373790D01*
X0434063Y0373761D01*
X0433908Y0373737D01*
X0433751Y0373716D01*
X0433595Y0373699D01*
X0433437Y0373686D01*
X0433280Y0373677D01*
X0433122Y0373672D01*
X0432965Y0373671D01*
X0432807Y0373674D01*
X0432649Y0373681D01*
X0432492Y0373692D01*
X0432335Y0373707D01*
X0432178Y0373726D01*
X0432022Y0373749D01*
X0431867Y0373775D01*
X0431712Y0373806D01*
X0431558Y0373840D01*
X0431405Y0373879D01*
X0431253Y0373921D01*
X0431103Y0373967D01*
X0430953Y0374017D01*
X0430805Y0374071D01*
X0430658Y0374128D01*
X0430512Y0374189D01*
X0430369Y0374254D01*
X0430226Y0374322D01*
X0430086Y0374394D01*
X0429948Y0374469D01*
X0429811Y0374548D01*
X0429676Y0374630D01*
X0429544Y0374716D01*
X0429414Y0374805D01*
X0429286Y0374897D01*
X0429160Y0374993D01*
X0429037Y0375091D01*
X0428917Y0375193D01*
X0428799Y0375298D01*
X0428683Y0375405D01*
X0428571Y0375516D01*
X0428461Y0375629D01*
X0428354Y0375745D01*
X0428250Y0375863D01*
X0428149Y0375985D01*
X0428052Y0376108D01*
X0427957Y0376235D01*
X0427866Y0376363D01*
X0427777Y0376494D01*
X0427693Y0376627D01*
X0427611Y0376762D01*
X0427533Y0376899D01*
X0427459Y0377038D01*
X0427388Y0377179D01*
X0427320Y0377321D01*
X0427257Y0377466D01*
X0427196Y0377611D01*
X0427140Y0377759D01*
X0427087Y0377907D01*
X0427038Y0378057D01*
X0426993Y0378208D01*
X0426952Y0378361D01*
X0426914Y0378514D01*
X0426881Y0378668D01*
X0426851Y0378823D01*
X0426825Y0378978D01*
X0426804Y0379135D01*
X0426786Y0379291D01*
X0426772Y0379448D01*
X0426762Y0379606D01*
X0426756Y0379763D01*
X0426754Y0379921D01*
X0261754Y0379921D02*
X0261756Y0380079D01*
X0261762Y0380236D01*
X0261772Y0380394D01*
X0261786Y0380551D01*
X0261804Y0380707D01*
X0261825Y0380864D01*
X0261851Y0381019D01*
X0261881Y0381174D01*
X0261914Y0381328D01*
X0261952Y0381481D01*
X0261993Y0381634D01*
X0262038Y0381785D01*
X0262087Y0381935D01*
X0262140Y0382083D01*
X0262196Y0382231D01*
X0262257Y0382376D01*
X0262320Y0382521D01*
X0262388Y0382663D01*
X0262459Y0382804D01*
X0262533Y0382943D01*
X0262611Y0383080D01*
X0262693Y0383215D01*
X0262777Y0383348D01*
X0262866Y0383479D01*
X0262957Y0383607D01*
X0263052Y0383734D01*
X0263149Y0383857D01*
X0263250Y0383979D01*
X0263354Y0384097D01*
X0263461Y0384213D01*
X0263571Y0384326D01*
X0263683Y0384437D01*
X0263799Y0384544D01*
X0263917Y0384649D01*
X0264037Y0384751D01*
X0264160Y0384849D01*
X0264286Y0384945D01*
X0264414Y0385037D01*
X0264544Y0385126D01*
X0264676Y0385212D01*
X0264811Y0385294D01*
X0264948Y0385373D01*
X0265086Y0385448D01*
X0265226Y0385520D01*
X0265369Y0385588D01*
X0265512Y0385653D01*
X0265658Y0385714D01*
X0265805Y0385771D01*
X0265953Y0385825D01*
X0266103Y0385875D01*
X0266253Y0385921D01*
X0266405Y0385963D01*
X0266558Y0386002D01*
X0266712Y0386036D01*
X0266867Y0386067D01*
X0267022Y0386093D01*
X0267178Y0386116D01*
X0267335Y0386135D01*
X0267492Y0386150D01*
X0267649Y0386161D01*
X0267807Y0386168D01*
X0267965Y0386171D01*
X0268122Y0386170D01*
X0268280Y0386165D01*
X0268437Y0386156D01*
X0268595Y0386143D01*
X0268751Y0386126D01*
X0268908Y0386105D01*
X0269063Y0386081D01*
X0269218Y0386052D01*
X0269373Y0386019D01*
X0269526Y0385983D01*
X0269679Y0385942D01*
X0269830Y0385898D01*
X0269980Y0385850D01*
X0270129Y0385799D01*
X0270277Y0385743D01*
X0270423Y0385684D01*
X0270568Y0385621D01*
X0270711Y0385554D01*
X0270852Y0385484D01*
X0270991Y0385411D01*
X0271129Y0385334D01*
X0271265Y0385253D01*
X0271398Y0385169D01*
X0271529Y0385082D01*
X0271658Y0384991D01*
X0271785Y0384897D01*
X0271910Y0384800D01*
X0272031Y0384700D01*
X0272151Y0384597D01*
X0272267Y0384491D01*
X0272381Y0384382D01*
X0272493Y0384270D01*
X0272601Y0384156D01*
X0272706Y0384038D01*
X0272809Y0383918D01*
X0272908Y0383796D01*
X0273004Y0383671D01*
X0273097Y0383543D01*
X0273187Y0383414D01*
X0273273Y0383282D01*
X0273357Y0383148D01*
X0273436Y0383012D01*
X0273513Y0382874D01*
X0273585Y0382734D01*
X0273654Y0382592D01*
X0273720Y0382449D01*
X0273782Y0382304D01*
X0273840Y0382157D01*
X0273895Y0382009D01*
X0273946Y0381860D01*
X0273993Y0381709D01*
X0274036Y0381558D01*
X0274075Y0381405D01*
X0274111Y0381251D01*
X0274142Y0381097D01*
X0274170Y0380942D01*
X0274194Y0380786D01*
X0274214Y0380629D01*
X0274230Y0380472D01*
X0274242Y0380315D01*
X0274250Y0380158D01*
X0274254Y0380000D01*
X0274254Y0379842D01*
X0274250Y0379684D01*
X0274242Y0379527D01*
X0274230Y0379370D01*
X0274214Y0379213D01*
X0274194Y0379056D01*
X0274170Y0378900D01*
X0274142Y0378745D01*
X0274111Y0378591D01*
X0274075Y0378437D01*
X0274036Y0378284D01*
X0273993Y0378133D01*
X0273946Y0377982D01*
X0273895Y0377833D01*
X0273840Y0377685D01*
X0273782Y0377538D01*
X0273720Y0377393D01*
X0273654Y0377250D01*
X0273585Y0377108D01*
X0273513Y0376968D01*
X0273436Y0376830D01*
X0273357Y0376694D01*
X0273273Y0376560D01*
X0273187Y0376428D01*
X0273097Y0376299D01*
X0273004Y0376171D01*
X0272908Y0376046D01*
X0272809Y0375924D01*
X0272706Y0375804D01*
X0272601Y0375686D01*
X0272493Y0375572D01*
X0272381Y0375460D01*
X0272267Y0375351D01*
X0272151Y0375245D01*
X0272031Y0375142D01*
X0271910Y0375042D01*
X0271785Y0374945D01*
X0271658Y0374851D01*
X0271529Y0374760D01*
X0271398Y0374673D01*
X0271265Y0374589D01*
X0271129Y0374508D01*
X0270991Y0374431D01*
X0270852Y0374358D01*
X0270711Y0374288D01*
X0270568Y0374221D01*
X0270423Y0374158D01*
X0270277Y0374099D01*
X0270129Y0374043D01*
X0269980Y0373992D01*
X0269830Y0373944D01*
X0269679Y0373900D01*
X0269526Y0373859D01*
X0269373Y0373823D01*
X0269218Y0373790D01*
X0269063Y0373761D01*
X0268908Y0373737D01*
X0268751Y0373716D01*
X0268595Y0373699D01*
X0268437Y0373686D01*
X0268280Y0373677D01*
X0268122Y0373672D01*
X0267965Y0373671D01*
X0267807Y0373674D01*
X0267649Y0373681D01*
X0267492Y0373692D01*
X0267335Y0373707D01*
X0267178Y0373726D01*
X0267022Y0373749D01*
X0266867Y0373775D01*
X0266712Y0373806D01*
X0266558Y0373840D01*
X0266405Y0373879D01*
X0266253Y0373921D01*
X0266103Y0373967D01*
X0265953Y0374017D01*
X0265805Y0374071D01*
X0265658Y0374128D01*
X0265512Y0374189D01*
X0265369Y0374254D01*
X0265226Y0374322D01*
X0265086Y0374394D01*
X0264948Y0374469D01*
X0264811Y0374548D01*
X0264676Y0374630D01*
X0264544Y0374716D01*
X0264414Y0374805D01*
X0264286Y0374897D01*
X0264160Y0374993D01*
X0264037Y0375091D01*
X0263917Y0375193D01*
X0263799Y0375298D01*
X0263683Y0375405D01*
X0263571Y0375516D01*
X0263461Y0375629D01*
X0263354Y0375745D01*
X0263250Y0375863D01*
X0263149Y0375985D01*
X0263052Y0376108D01*
X0262957Y0376235D01*
X0262866Y0376363D01*
X0262777Y0376494D01*
X0262693Y0376627D01*
X0262611Y0376762D01*
X0262533Y0376899D01*
X0262459Y0377038D01*
X0262388Y0377179D01*
X0262320Y0377321D01*
X0262257Y0377466D01*
X0262196Y0377611D01*
X0262140Y0377759D01*
X0262087Y0377907D01*
X0262038Y0378057D01*
X0261993Y0378208D01*
X0261952Y0378361D01*
X0261914Y0378514D01*
X0261881Y0378668D01*
X0261851Y0378823D01*
X0261825Y0378978D01*
X0261804Y0379135D01*
X0261786Y0379291D01*
X0261772Y0379448D01*
X0261762Y0379606D01*
X0261756Y0379763D01*
X0261754Y0379921D01*
D11*
X0260504Y0142421D03*
X0450504Y0142421D03*
D12*
X0440504Y0142421D03*
X0440504Y0152421D03*
X0450504Y0152421D03*
X0450504Y0162421D03*
X0440504Y0162421D03*
X0440504Y0172421D03*
X0450504Y0172421D03*
X0450504Y0182421D03*
X0440504Y0182421D03*
X0440504Y0192421D03*
X0450504Y0192421D03*
X0450504Y0202421D03*
X0440504Y0202421D03*
X0440504Y0212421D03*
X0450504Y0212421D03*
X0450504Y0222421D03*
X0440504Y0222421D03*
X0440504Y0232421D03*
X0450504Y0232421D03*
X0450504Y0242421D03*
X0440504Y0242421D03*
X0440504Y0252421D03*
X0450504Y0252421D03*
X0450504Y0262421D03*
X0440504Y0262421D03*
X0440504Y0272421D03*
X0450504Y0272421D03*
X0450504Y0282421D03*
X0440504Y0282421D03*
X0440504Y0292421D03*
X0450504Y0292421D03*
X0450504Y0302421D03*
X0440504Y0302421D03*
X0440504Y0312421D03*
X0450504Y0312421D03*
X0450504Y0322421D03*
X0440504Y0322421D03*
X0440504Y0332421D03*
X0450504Y0332421D03*
X0450504Y0342421D03*
X0440504Y0342421D03*
X0440504Y0352421D03*
X0450504Y0352421D03*
X0450504Y0362421D03*
X0440504Y0362421D03*
X0260504Y0362421D03*
X0250504Y0362421D03*
X0250504Y0352421D03*
X0260504Y0352421D03*
X0260504Y0342421D03*
X0250504Y0342421D03*
X0250504Y0332421D03*
X0250504Y0322421D03*
X0260504Y0322421D03*
X0260504Y0312421D03*
X0250504Y0312421D03*
X0250504Y0302421D03*
X0260504Y0302421D03*
X0260504Y0292421D03*
X0250504Y0292421D03*
X0250504Y0282421D03*
X0260504Y0282421D03*
X0260504Y0272421D03*
X0250504Y0272421D03*
X0250504Y0262421D03*
X0260504Y0262421D03*
X0260504Y0252421D03*
X0250504Y0252421D03*
X0250504Y0242421D03*
X0260504Y0242421D03*
X0260504Y0232421D03*
X0250504Y0232421D03*
X0250504Y0222421D03*
X0260504Y0222421D03*
X0260504Y0212421D03*
X0250504Y0212421D03*
X0250504Y0202421D03*
X0260504Y0202421D03*
X0260504Y0192421D03*
X0250504Y0192421D03*
X0250504Y0182421D03*
X0260504Y0182421D03*
X0260504Y0172421D03*
X0250504Y0172421D03*
X0250504Y0162421D03*
X0260504Y0162421D03*
X0260504Y0152421D03*
X0250504Y0152421D03*
X0250504Y0142421D03*
D13*
X0260504Y0332421D03*
D14*
X0268004Y0379921D03*
X0433004Y0379921D03*
X0445504Y0119921D03*
X0255504Y0119921D03*
D15*
X0420004Y0181806D03*
X0425037Y0181909D03*
X0425037Y0187028D03*
X0420004Y0186924D03*
X0426390Y0223858D03*
X0426390Y0228976D03*
X0426272Y0236063D03*
X0426272Y0241181D03*
X0253894Y0401862D03*
X0253894Y0406980D03*
X0150906Y0382681D03*
X0150906Y0377563D03*
X0138429Y0377425D03*
X0138429Y0382543D03*
X0128823Y0382992D03*
X0128823Y0377874D03*
X0121394Y0377862D03*
X0121394Y0382980D03*
D16*
X0273791Y0363709D03*
X0273791Y0352512D03*
X0273882Y0345031D03*
X0273882Y0333835D03*
D17*
X0240394Y0405921D02*
X0240394Y0411921D01*
X0230394Y0411921D02*
X0230394Y0405921D01*
X0220394Y0405921D02*
X0220394Y0411921D01*
X0210394Y0411921D02*
X0210394Y0405921D01*
X0196744Y0405937D02*
X0196744Y0411937D01*
X0186744Y0411937D02*
X0186744Y0405937D01*
X0176744Y0405937D02*
X0176744Y0411937D01*
X0166744Y0411937D02*
X0166744Y0405937D01*
X0153043Y0405543D02*
X0153043Y0411543D01*
X0143043Y0411543D02*
X0143043Y0405543D01*
X0133043Y0405543D02*
X0133043Y0411543D01*
X0123043Y0411543D02*
X0123043Y0405543D01*
X0109736Y0405543D02*
X0109736Y0411543D01*
X0099736Y0411543D02*
X0099736Y0405543D01*
X0089736Y0405543D02*
X0089736Y0411543D01*
X0079736Y0411543D02*
X0079736Y0405543D01*
X0058366Y0367638D02*
X0052366Y0367638D01*
X0052366Y0357638D02*
X0058366Y0357638D01*
X0058366Y0347638D02*
X0052366Y0347638D01*
X0052366Y0337638D02*
X0058366Y0337638D01*
X0058201Y0319461D02*
X0052201Y0319461D01*
X0052201Y0309461D02*
X0058201Y0309461D01*
X0058201Y0299461D02*
X0052201Y0299461D01*
X0052201Y0289461D02*
X0058201Y0289461D01*
X0058201Y0239961D02*
X0052201Y0239961D01*
X0052201Y0229961D02*
X0058201Y0229961D01*
X0058201Y0219961D02*
X0052201Y0219961D01*
X0052201Y0209961D02*
X0058201Y0209961D01*
X0058000Y0165197D02*
X0052000Y0165197D01*
X0052000Y0155197D02*
X0058000Y0155197D01*
X0058000Y0142697D02*
X0052000Y0142697D01*
X0052000Y0132697D02*
X0058000Y0132697D01*
X0058000Y0107697D02*
X0052000Y0107697D01*
X0052000Y0097697D02*
X0058000Y0097697D01*
X0058000Y0086197D02*
X0052000Y0086197D01*
X0052000Y0076197D02*
X0058000Y0076197D01*
X0084343Y0058000D02*
X0084343Y0052000D01*
X0094343Y0052000D02*
X0094343Y0058000D01*
X0104343Y0058000D02*
X0104343Y0052000D01*
X0117807Y0052000D02*
X0117807Y0058000D01*
X0127807Y0058000D02*
X0127807Y0052000D01*
X0137807Y0052000D02*
X0137807Y0058000D01*
X0151665Y0058000D02*
X0151665Y0052000D01*
X0161665Y0052000D02*
X0161665Y0058000D01*
X0171665Y0058000D02*
X0171665Y0052000D01*
X0329815Y0158929D02*
X0329815Y0164929D01*
X0339815Y0164929D02*
X0339815Y0158929D01*
X0349815Y0158929D02*
X0349815Y0164929D01*
X0632075Y0332626D02*
X0638075Y0332626D01*
X0638075Y0342626D02*
X0632075Y0342626D01*
X0632075Y0352626D02*
X0638075Y0352626D01*
X0637126Y0364843D02*
X0631126Y0364843D01*
X0631126Y0374843D02*
X0637126Y0374843D01*
X0637126Y0384843D02*
X0631126Y0384843D01*
X0615878Y0389378D02*
X0615878Y0395378D01*
X0605878Y0395378D02*
X0605878Y0389378D01*
X0595878Y0389378D02*
X0595878Y0395378D01*
X0583791Y0395181D02*
X0583791Y0389181D01*
X0573791Y0389181D02*
X0573791Y0395181D01*
X0563791Y0395181D02*
X0563791Y0389181D01*
X0551902Y0389260D02*
X0551902Y0395260D01*
X0541902Y0395260D02*
X0541902Y0389260D01*
X0531902Y0389260D02*
X0531902Y0395260D01*
X0519894Y0395102D02*
X0519894Y0389102D01*
X0509894Y0389102D02*
X0509894Y0395102D01*
X0499894Y0395102D02*
X0499894Y0389102D01*
X0451429Y0408929D02*
X0451429Y0414929D01*
X0441429Y0414929D02*
X0441429Y0408929D01*
X0429815Y0408693D02*
X0429815Y0414693D01*
X0419815Y0414693D02*
X0419815Y0408693D01*
X0408240Y0408614D02*
X0408240Y0414614D01*
X0398240Y0414614D02*
X0398240Y0408614D01*
X0386114Y0409008D02*
X0386114Y0415008D01*
X0376114Y0415008D02*
X0376114Y0409008D01*
X0345169Y0409047D02*
X0345169Y0415047D01*
X0335169Y0415047D02*
X0335169Y0409047D01*
X0323004Y0408969D02*
X0323004Y0414969D01*
X0313004Y0414969D02*
X0313004Y0408969D01*
X0300720Y0408969D02*
X0300720Y0414969D01*
X0290720Y0414969D02*
X0290720Y0408969D01*
X0277886Y0409126D02*
X0277886Y0415126D01*
X0267886Y0415126D02*
X0267886Y0409126D01*
D18*
X0410642Y0154976D03*
X0415642Y0154976D03*
X0420642Y0154976D03*
X0425642Y0154976D03*
X0430642Y0154976D03*
X0430642Y0142976D03*
X0425642Y0142976D03*
X0420642Y0142976D03*
X0415642Y0142976D03*
X0410642Y0142976D03*
D19*
X0418153Y0133353D03*
X0423271Y0133353D03*
X0373476Y0160787D03*
X0368358Y0160787D03*
X0363069Y0173682D03*
X0363051Y0178461D03*
X0363091Y0183157D03*
X0363269Y0187909D03*
X0363315Y0192602D03*
X0358197Y0192602D03*
X0358151Y0187909D03*
X0357972Y0183157D03*
X0357933Y0178461D03*
X0357951Y0173682D03*
X0312610Y0159921D03*
X0307492Y0159921D03*
X0293453Y0183421D03*
X0288335Y0183421D03*
X0288335Y0189421D03*
X0293453Y0189421D03*
X0293453Y0195421D03*
X0288335Y0195421D03*
X0288335Y0201421D03*
X0293453Y0201421D03*
X0293453Y0207421D03*
X0288335Y0207421D03*
X0393945Y0078508D03*
X0399063Y0078508D03*
X0419516Y0078571D03*
X0424634Y0078571D03*
X0498335Y0304921D03*
X0503453Y0304921D03*
X0558335Y0306421D03*
X0563453Y0306421D03*
X0622335Y0304921D03*
X0627453Y0304921D03*
D20*
X0401189Y0126236D03*
X0413512Y0126039D03*
X0431228Y0126039D03*
X0431228Y0092969D03*
X0413512Y0092969D03*
X0401189Y0093165D03*
X0383472Y0093165D03*
X0383472Y0126236D03*
D21*
X0374288Y0173835D03*
X0374296Y0178713D03*
X0374454Y0183390D03*
X0374572Y0187634D03*
X0374690Y0192232D03*
X0368784Y0192232D03*
X0368666Y0187634D03*
X0368548Y0183390D03*
X0368391Y0178713D03*
X0368383Y0173835D03*
X0305846Y0183421D03*
X0299941Y0183421D03*
X0299941Y0189421D03*
X0305846Y0189421D03*
X0305846Y0195421D03*
X0299941Y0195421D03*
X0299941Y0201421D03*
X0305846Y0201421D03*
X0305846Y0207421D03*
X0299941Y0207421D03*
X0484941Y0304921D03*
X0490846Y0304921D03*
X0542941Y0306421D03*
X0548846Y0306421D03*
X0603941Y0304921D03*
X0609846Y0304921D03*
X0253894Y0411969D03*
X0253894Y0417874D03*
D22*
X0054579Y0408937D03*
X0054579Y0054606D03*
X0645130Y0054606D03*
X0645130Y0408937D03*
D23*
X0609884Y0149921D03*
X0602404Y0149921D03*
X0602404Y0138671D03*
X0609884Y0138671D03*
X0609884Y0127421D03*
X0602404Y0127421D03*
X0549884Y0127421D03*
X0542404Y0127421D03*
X0542404Y0138671D03*
X0549884Y0138671D03*
X0549884Y0149921D03*
X0542404Y0149921D03*
X0489884Y0149921D03*
X0482404Y0149921D03*
X0482404Y0138671D03*
X0489884Y0138671D03*
X0489884Y0127421D03*
X0482404Y0127421D03*
X0233134Y0388921D03*
X0225654Y0388921D03*
D24*
X0482404Y0184252D03*
X0489884Y0184252D03*
X0486144Y0175591D03*
X0542404Y0184252D03*
X0549884Y0184252D03*
X0546144Y0175591D03*
X0602404Y0184252D03*
X0609884Y0184252D03*
X0606144Y0175591D03*
D25*
X0596862Y0085079D03*
X0596862Y0063425D03*
X0212846Y0062874D03*
X0212846Y0084528D03*
D26*
X0195130Y0046339D03*
X0230563Y0046339D03*
X0579146Y0046890D03*
X0614579Y0046890D03*
D27*
X0074764Y0049398D03*
X0074764Y0056878D03*
D28*
X0206307Y0205886D03*
X0206307Y0217136D03*
X0206307Y0228386D03*
X0218107Y0228386D03*
X0218107Y0217136D03*
X0218107Y0205886D03*
M02*
