%
M48
M72
T01C0.0150
T02C0.0220
T03C0.0236
T04C0.0394
T05C0.0400
T06C0.0551
T07C0.1181
T08C0.1250
T09C0.1260
%
T01
X6600Y7820
X6650Y8620
X6600Y9670
X6600Y10470
X10000Y9870
X10750Y9870
X12505Y9280
X12466Y8886
X13607Y8886
X13568Y9280
X14159Y8807
X14159Y8335
X13017Y10028
X12820Y10894
X12820Y11248
X13529Y12508
X13450Y13335
X14474Y13335
X11600Y12770
X10432Y11892
X10800Y14120
X10000Y14120
X10000Y15620
X10750Y15620
X9907Y16524
X10261Y17626
X10270Y19496
X11570Y19846
X12544Y20343
X13450Y20697
X13489Y21602
X13489Y22035
X13489Y22429
X13607Y23020
X13686Y23531
X11757Y23492
X11757Y23098
X10520Y22696
X10070Y22296
X9620Y22646
X9170Y22246
X8670Y22696
X7570Y23146
X6420Y23596
X7620Y23946
X9270Y25946
X9277Y26760
X10570Y25946
X11770Y27296
X10770Y27996
X10720Y28496
X12269Y29240
X12426Y29634
X12426Y30028
X12426Y30382
X12426Y30736
X12348Y31209
X12230Y31563
X11796Y31602
X10570Y30696
X10020Y30196
X9620Y30746
X9220Y30196
X8570Y30196
X8870Y30746
X7620Y31246
X7670Y32046
X6370Y31546
X7670Y29696
X6370Y29396
X5340Y28138
X5615Y27665
X5340Y27114
X7741Y28256
X8270Y28346
X12505Y28492
X19428Y27468
X19428Y26956
X19428Y26444
X19428Y25932
X19428Y25420
X19428Y24909
X19428Y24397
X19428Y23885
X19428Y23373
X20098Y23885
X19428Y22861
X19428Y22350
X19428Y21838
X19428Y21326
X19428Y20814
X19428Y20302
X19428Y19791
X18056Y17980
X18214Y16996
X18489Y16602
X18529Y16130
X20222Y14949
X23962Y14201
X23607Y11878
X23489Y8886
X23489Y6445
X11500Y7120
X10750Y8370
X10000Y8370
X6700Y13370
X6600Y14320
X6550Y15420
X6650Y16420
X5419Y19280
X5694Y19831
X5419Y20303
X6470Y21396
X7670Y21746
X8420Y20146
X7859Y20028
X10720Y20696
X12544Y21720
X13489Y16917
X13568Y16445
X13411Y15776
X19940Y27428
X19822Y33531
X19822Y33924
X19822Y34318
X19783Y35420
X19783Y35814
X19783Y36169
X21245Y38256
X21442Y38610
X21600Y37980
X24039Y39642
X17663Y37980
X17348Y38256
X17151Y38610
X15104Y37350
X14237Y37272
X13844Y37272
X13135Y37193
X13017Y36681
X12544Y37272
X14434Y36760
X14946Y36248
X13371Y38374
X12589Y39692
X10576Y38610
X10497Y38138
X9356Y38059
X8804Y38374
X8293Y38059
X8883Y34594
X9320Y33846
X10170Y33846
X11220Y33846
X31789Y23992
X46978Y23800
X46978Y23288
X46978Y22776
X46978Y22264
X46978Y21752
X46978Y21241
X46978Y24311
X46978Y24823
X46978Y25335
X46978Y25847
X52378Y26026
X52378Y26538
X52378Y27050
X52378Y27561
X52378Y28073
X52378Y28585
X52378Y29097
X51089Y30692
X56989Y30692
X58228Y28997
X58228Y28485
X58228Y27973
X58228Y27461
X58228Y26950
X58228Y26438
X58228Y25926
X58228Y25414
X58228Y24902
X58228Y24391
X58378Y23197
X58378Y22685
X58378Y22173
X58378Y21661
X58378Y21150
X58378Y20638
X58378Y20126
X58378Y19614
X58378Y19102
X58378Y18591
X58428Y17247
X58428Y16735
X58428Y16223
X58428Y15711
X58428Y15200
X58428Y14688
X58428Y14176
X58428Y13664
X58428Y13152
X58428Y12641
X52528Y12591
X52528Y13102
X52528Y13614
X52528Y14126
X52528Y14638
X52528Y15150
X52528Y15661
X52528Y16173
X52528Y16685
X52528Y17197
X52328Y18341
X52328Y18852
X52328Y19364
X52328Y19876
X52328Y20388
X52328Y20900
X52328Y21411
X52328Y21923
X52328Y22435
X52328Y22947
X52378Y24491
X52378Y25002
X52378Y25514
X63389Y30542
X46928Y17347
X46928Y16835
X46928Y16323
X46928Y15811
X46928Y15300
X46928Y14788
X46928Y14276
X46928Y13764
X46928Y13252
X46928Y12741
T02
X7426Y4280
X14552Y18846
X12348Y23138
X14119Y24476
X10470Y24496
X6920Y24946
X11206Y32232
X7230Y32980
X12426Y35618
X24741Y38394
T03
X32859Y35268
X33635Y34677
X34328Y35287
X36139Y36882
X39899Y38398
X40458Y37661
X41025Y36508
X41737Y35917
X42529Y35181
X43257Y33650
X46989Y28367
X40770Y23428
X40230Y22669
X41367Y22626
X38922Y22563
X37989Y22571
X38084Y23957
X36120Y24378
X35305Y23484
X33300Y23957
X33403Y21626
X34537Y20122
X35304Y20122
X35978Y20126
X37603Y20726
X39103Y19576
X41883Y20252
X36403Y16575
X34478Y18177
X34474Y18854
X34493Y19480
X31303Y19826
X31303Y20726
X31253Y21576
X31303Y18876
X31303Y18026
X39803Y16276
X39903Y14226
X39182Y11614
X39230Y10913
X42096Y11669
X42233Y10917
X42253Y10122
X47769Y9535
X47820Y8854
X47989Y16242
X53989Y16242
X59989Y16242
X34454Y30268
X33785Y29677
X33155Y30268
X33293Y27945
X27387Y28177
T04
X21721Y24214
X49114Y16367
X55114Y16367
X61114Y16367
T05
X45050Y16242
X44050Y16242
X44050Y15242
X44050Y14242
X45050Y14242
X45050Y15242
X45050Y17242
X44050Y17242
X44050Y18242
X44050Y19242
X44050Y20242
X44050Y21242
X44050Y22242
X44050Y23242
X44050Y24242
X45050Y24242
X45050Y23242
X45050Y22242
X45050Y21242
X45050Y20242
X45050Y19242
X45050Y18242
X45050Y25242
X44050Y25242
X44050Y26242
X44050Y27242
X44050Y28242
X44050Y29242
X44050Y30242
X44050Y31242
X45050Y31242
X45050Y30242
X45050Y29242
X45050Y28242
X45050Y27242
X45050Y26242
X45050Y32242
X44050Y32242
X44050Y33242
X44050Y34242
X44050Y35242
X44050Y36242
X45050Y36242
X45050Y35242
X45050Y34242
X45050Y33242
X49989Y39210
X50989Y39210
X51989Y39210
X53190Y39226
X54190Y39226
X55190Y39226
X56379Y39218
X57379Y39218
X58379Y39218
X59588Y39238
X60588Y39238
X61588Y39238
X63413Y38484
X63413Y37484
X63413Y36484
X63507Y35263
X63507Y34263
X63507Y33263
X45143Y41193
X44143Y41193
X42981Y41169
X41981Y41169
X40824Y41161
X39824Y41161
X38611Y41201
X37611Y41201
X34517Y41205
X33517Y41205
X32300Y41197
X31300Y41197
X30072Y41197
X29072Y41197
X27789Y41213
X26789Y41213
X24039Y40892
X23039Y40892
X22039Y40892
X21039Y40892
X19674Y40894
X18674Y40894
X17674Y40894
X16674Y40894
X15304Y40854
X14304Y40854
X13304Y40854
X12304Y40854
X10974Y40854
X9974Y40854
X8974Y40854
X7974Y40854
X5537Y36764
X5537Y35764
X5537Y34764
X5537Y33764
X5520Y31946
X5520Y30946
X5520Y29946
X5520Y28946
X5520Y23996
X5520Y22996
X5520Y21996
X5520Y20996
X5500Y16520
X5500Y15520
X5500Y14270
X5500Y13270
X5500Y10770
X5500Y9770
X5500Y8620
X5500Y7620
X8434Y5500
X9434Y5500
X10434Y5500
X11781Y5500
X12781Y5500
X13781Y5500
X15167Y5500
X16167Y5500
X17167Y5500
X25050Y14242
X26050Y14242
X26050Y15242
X25050Y15242
X25050Y16242
X26050Y16242
X26050Y17242
X25050Y17242
X25050Y18242
X26050Y18242
X26050Y19242
X25050Y19242
X25050Y20242
X26050Y20242
X26050Y21242
X25050Y21242
X25050Y22242
X26050Y22242
X26050Y23242
X25050Y23242
X25050Y24242
X26050Y24242
X26050Y25242
X25050Y25242
X25050Y26242
X26050Y26242
X26050Y27242
X25050Y27242
X25050Y28242
X26050Y28242
X26050Y29242
X25050Y29242
X25050Y30242
X26050Y30242
X26050Y31242
X25050Y31242
X25050Y32242
X26050Y32242
X26050Y33242
X25050Y33242
X25050Y34242
X26050Y34242
X26050Y35242
X25050Y35242
X25050Y36242
X26050Y36242
X32981Y16193
X33981Y16193
X34981Y16193
T06
X21285Y8453
X21285Y6287
X59686Y6343
X59686Y8508
T07
X64513Y5461
X64513Y40894
X5458Y40894
X5458Y5461
T08
X25550Y11992
X44550Y11992
X43300Y37992
X26800Y37992
T09
X57915Y4689
X61458Y4689
X23056Y4634
X19513Y4634
M30
