G75*
%MOIN*%
%OFA0B0*%
%FSLAX25Y25*%
%IPPOS*%
%LPD*%
%AMOC8*
5,1,8,0,0,1.08239X$1,22.5*
%
%ADD10C,0.00000*%
%ADD11C,0.03157*%
%ADD12C,0.00600*%
%ADD13C,0.00300*%
%ADD14C,0.01000*%
%ADD15C,0.00700*%
%ADD16C,0.00800*%
%ADD17R,0.04724X0.00787*%
%ADD18R,0.00787X0.04724*%
%ADD19C,0.00500*%
%ADD20C,0.00200*%
%ADD21R,0.00591X0.01181*%
%ADD22R,0.01181X0.01181*%
%ADD23C,0.05000*%
D10*
X0034894Y0034921D02*
X0034894Y0428622D01*
X0243555Y0428622D01*
X0243555Y0034921D01*
X0034894Y0034921D01*
X0188831Y0046339D02*
X0188833Y0046497D01*
X0188839Y0046655D01*
X0188849Y0046813D01*
X0188863Y0046971D01*
X0188881Y0047128D01*
X0188902Y0047285D01*
X0188928Y0047441D01*
X0188958Y0047597D01*
X0188991Y0047752D01*
X0189029Y0047905D01*
X0189070Y0048058D01*
X0189115Y0048210D01*
X0189164Y0048361D01*
X0189217Y0048510D01*
X0189273Y0048658D01*
X0189333Y0048804D01*
X0189397Y0048949D01*
X0189465Y0049092D01*
X0189536Y0049234D01*
X0189610Y0049374D01*
X0189688Y0049511D01*
X0189770Y0049647D01*
X0189854Y0049781D01*
X0189943Y0049912D01*
X0190034Y0050041D01*
X0190129Y0050168D01*
X0190226Y0050293D01*
X0190327Y0050415D01*
X0190431Y0050534D01*
X0190538Y0050651D01*
X0190648Y0050765D01*
X0190761Y0050876D01*
X0190876Y0050985D01*
X0190994Y0051090D01*
X0191115Y0051192D01*
X0191238Y0051292D01*
X0191364Y0051388D01*
X0191492Y0051481D01*
X0191622Y0051571D01*
X0191755Y0051657D01*
X0191890Y0051741D01*
X0192026Y0051820D01*
X0192165Y0051897D01*
X0192306Y0051969D01*
X0192448Y0052039D01*
X0192592Y0052104D01*
X0192738Y0052166D01*
X0192885Y0052224D01*
X0193034Y0052279D01*
X0193184Y0052330D01*
X0193335Y0052377D01*
X0193487Y0052420D01*
X0193640Y0052459D01*
X0193795Y0052495D01*
X0193950Y0052526D01*
X0194106Y0052554D01*
X0194262Y0052578D01*
X0194419Y0052598D01*
X0194577Y0052614D01*
X0194734Y0052626D01*
X0194893Y0052634D01*
X0195051Y0052638D01*
X0195209Y0052638D01*
X0195367Y0052634D01*
X0195526Y0052626D01*
X0195683Y0052614D01*
X0195841Y0052598D01*
X0195998Y0052578D01*
X0196154Y0052554D01*
X0196310Y0052526D01*
X0196465Y0052495D01*
X0196620Y0052459D01*
X0196773Y0052420D01*
X0196925Y0052377D01*
X0197076Y0052330D01*
X0197226Y0052279D01*
X0197375Y0052224D01*
X0197522Y0052166D01*
X0197668Y0052104D01*
X0197812Y0052039D01*
X0197954Y0051969D01*
X0198095Y0051897D01*
X0198234Y0051820D01*
X0198370Y0051741D01*
X0198505Y0051657D01*
X0198638Y0051571D01*
X0198768Y0051481D01*
X0198896Y0051388D01*
X0199022Y0051292D01*
X0199145Y0051192D01*
X0199266Y0051090D01*
X0199384Y0050985D01*
X0199499Y0050876D01*
X0199612Y0050765D01*
X0199722Y0050651D01*
X0199829Y0050534D01*
X0199933Y0050415D01*
X0200034Y0050293D01*
X0200131Y0050168D01*
X0200226Y0050041D01*
X0200317Y0049912D01*
X0200406Y0049781D01*
X0200490Y0049647D01*
X0200572Y0049511D01*
X0200650Y0049374D01*
X0200724Y0049234D01*
X0200795Y0049092D01*
X0200863Y0048949D01*
X0200927Y0048804D01*
X0200987Y0048658D01*
X0201043Y0048510D01*
X0201096Y0048361D01*
X0201145Y0048210D01*
X0201190Y0048058D01*
X0201231Y0047905D01*
X0201269Y0047752D01*
X0201302Y0047597D01*
X0201332Y0047441D01*
X0201358Y0047285D01*
X0201379Y0047128D01*
X0201397Y0046971D01*
X0201411Y0046813D01*
X0201421Y0046655D01*
X0201427Y0046497D01*
X0201429Y0046339D01*
X0201427Y0046181D01*
X0201421Y0046023D01*
X0201411Y0045865D01*
X0201397Y0045707D01*
X0201379Y0045550D01*
X0201358Y0045393D01*
X0201332Y0045237D01*
X0201302Y0045081D01*
X0201269Y0044926D01*
X0201231Y0044773D01*
X0201190Y0044620D01*
X0201145Y0044468D01*
X0201096Y0044317D01*
X0201043Y0044168D01*
X0200987Y0044020D01*
X0200927Y0043874D01*
X0200863Y0043729D01*
X0200795Y0043586D01*
X0200724Y0043444D01*
X0200650Y0043304D01*
X0200572Y0043167D01*
X0200490Y0043031D01*
X0200406Y0042897D01*
X0200317Y0042766D01*
X0200226Y0042637D01*
X0200131Y0042510D01*
X0200034Y0042385D01*
X0199933Y0042263D01*
X0199829Y0042144D01*
X0199722Y0042027D01*
X0199612Y0041913D01*
X0199499Y0041802D01*
X0199384Y0041693D01*
X0199266Y0041588D01*
X0199145Y0041486D01*
X0199022Y0041386D01*
X0198896Y0041290D01*
X0198768Y0041197D01*
X0198638Y0041107D01*
X0198505Y0041021D01*
X0198370Y0040937D01*
X0198234Y0040858D01*
X0198095Y0040781D01*
X0197954Y0040709D01*
X0197812Y0040639D01*
X0197668Y0040574D01*
X0197522Y0040512D01*
X0197375Y0040454D01*
X0197226Y0040399D01*
X0197076Y0040348D01*
X0196925Y0040301D01*
X0196773Y0040258D01*
X0196620Y0040219D01*
X0196465Y0040183D01*
X0196310Y0040152D01*
X0196154Y0040124D01*
X0195998Y0040100D01*
X0195841Y0040080D01*
X0195683Y0040064D01*
X0195526Y0040052D01*
X0195367Y0040044D01*
X0195209Y0040040D01*
X0195051Y0040040D01*
X0194893Y0040044D01*
X0194734Y0040052D01*
X0194577Y0040064D01*
X0194419Y0040080D01*
X0194262Y0040100D01*
X0194106Y0040124D01*
X0193950Y0040152D01*
X0193795Y0040183D01*
X0193640Y0040219D01*
X0193487Y0040258D01*
X0193335Y0040301D01*
X0193184Y0040348D01*
X0193034Y0040399D01*
X0192885Y0040454D01*
X0192738Y0040512D01*
X0192592Y0040574D01*
X0192448Y0040639D01*
X0192306Y0040709D01*
X0192165Y0040781D01*
X0192026Y0040858D01*
X0191890Y0040937D01*
X0191755Y0041021D01*
X0191622Y0041107D01*
X0191492Y0041197D01*
X0191364Y0041290D01*
X0191238Y0041386D01*
X0191115Y0041486D01*
X0190994Y0041588D01*
X0190876Y0041693D01*
X0190761Y0041802D01*
X0190648Y0041913D01*
X0190538Y0042027D01*
X0190431Y0042144D01*
X0190327Y0042263D01*
X0190226Y0042385D01*
X0190129Y0042510D01*
X0190034Y0042637D01*
X0189943Y0042766D01*
X0189854Y0042897D01*
X0189770Y0043031D01*
X0189688Y0043167D01*
X0189610Y0043304D01*
X0189536Y0043444D01*
X0189465Y0043586D01*
X0189397Y0043729D01*
X0189333Y0043874D01*
X0189273Y0044020D01*
X0189217Y0044168D01*
X0189164Y0044317D01*
X0189115Y0044468D01*
X0189070Y0044620D01*
X0189029Y0044773D01*
X0188991Y0044926D01*
X0188958Y0045081D01*
X0188928Y0045237D01*
X0188902Y0045393D01*
X0188881Y0045550D01*
X0188863Y0045707D01*
X0188849Y0045865D01*
X0188839Y0046023D01*
X0188833Y0046181D01*
X0188831Y0046339D01*
X0224264Y0046339D02*
X0224266Y0046497D01*
X0224272Y0046655D01*
X0224282Y0046813D01*
X0224296Y0046971D01*
X0224314Y0047128D01*
X0224335Y0047285D01*
X0224361Y0047441D01*
X0224391Y0047597D01*
X0224424Y0047752D01*
X0224462Y0047905D01*
X0224503Y0048058D01*
X0224548Y0048210D01*
X0224597Y0048361D01*
X0224650Y0048510D01*
X0224706Y0048658D01*
X0224766Y0048804D01*
X0224830Y0048949D01*
X0224898Y0049092D01*
X0224969Y0049234D01*
X0225043Y0049374D01*
X0225121Y0049511D01*
X0225203Y0049647D01*
X0225287Y0049781D01*
X0225376Y0049912D01*
X0225467Y0050041D01*
X0225562Y0050168D01*
X0225659Y0050293D01*
X0225760Y0050415D01*
X0225864Y0050534D01*
X0225971Y0050651D01*
X0226081Y0050765D01*
X0226194Y0050876D01*
X0226309Y0050985D01*
X0226427Y0051090D01*
X0226548Y0051192D01*
X0226671Y0051292D01*
X0226797Y0051388D01*
X0226925Y0051481D01*
X0227055Y0051571D01*
X0227188Y0051657D01*
X0227323Y0051741D01*
X0227459Y0051820D01*
X0227598Y0051897D01*
X0227739Y0051969D01*
X0227881Y0052039D01*
X0228025Y0052104D01*
X0228171Y0052166D01*
X0228318Y0052224D01*
X0228467Y0052279D01*
X0228617Y0052330D01*
X0228768Y0052377D01*
X0228920Y0052420D01*
X0229073Y0052459D01*
X0229228Y0052495D01*
X0229383Y0052526D01*
X0229539Y0052554D01*
X0229695Y0052578D01*
X0229852Y0052598D01*
X0230010Y0052614D01*
X0230167Y0052626D01*
X0230326Y0052634D01*
X0230484Y0052638D01*
X0230642Y0052638D01*
X0230800Y0052634D01*
X0230959Y0052626D01*
X0231116Y0052614D01*
X0231274Y0052598D01*
X0231431Y0052578D01*
X0231587Y0052554D01*
X0231743Y0052526D01*
X0231898Y0052495D01*
X0232053Y0052459D01*
X0232206Y0052420D01*
X0232358Y0052377D01*
X0232509Y0052330D01*
X0232659Y0052279D01*
X0232808Y0052224D01*
X0232955Y0052166D01*
X0233101Y0052104D01*
X0233245Y0052039D01*
X0233387Y0051969D01*
X0233528Y0051897D01*
X0233667Y0051820D01*
X0233803Y0051741D01*
X0233938Y0051657D01*
X0234071Y0051571D01*
X0234201Y0051481D01*
X0234329Y0051388D01*
X0234455Y0051292D01*
X0234578Y0051192D01*
X0234699Y0051090D01*
X0234817Y0050985D01*
X0234932Y0050876D01*
X0235045Y0050765D01*
X0235155Y0050651D01*
X0235262Y0050534D01*
X0235366Y0050415D01*
X0235467Y0050293D01*
X0235564Y0050168D01*
X0235659Y0050041D01*
X0235750Y0049912D01*
X0235839Y0049781D01*
X0235923Y0049647D01*
X0236005Y0049511D01*
X0236083Y0049374D01*
X0236157Y0049234D01*
X0236228Y0049092D01*
X0236296Y0048949D01*
X0236360Y0048804D01*
X0236420Y0048658D01*
X0236476Y0048510D01*
X0236529Y0048361D01*
X0236578Y0048210D01*
X0236623Y0048058D01*
X0236664Y0047905D01*
X0236702Y0047752D01*
X0236735Y0047597D01*
X0236765Y0047441D01*
X0236791Y0047285D01*
X0236812Y0047128D01*
X0236830Y0046971D01*
X0236844Y0046813D01*
X0236854Y0046655D01*
X0236860Y0046497D01*
X0236862Y0046339D01*
X0236860Y0046181D01*
X0236854Y0046023D01*
X0236844Y0045865D01*
X0236830Y0045707D01*
X0236812Y0045550D01*
X0236791Y0045393D01*
X0236765Y0045237D01*
X0236735Y0045081D01*
X0236702Y0044926D01*
X0236664Y0044773D01*
X0236623Y0044620D01*
X0236578Y0044468D01*
X0236529Y0044317D01*
X0236476Y0044168D01*
X0236420Y0044020D01*
X0236360Y0043874D01*
X0236296Y0043729D01*
X0236228Y0043586D01*
X0236157Y0043444D01*
X0236083Y0043304D01*
X0236005Y0043167D01*
X0235923Y0043031D01*
X0235839Y0042897D01*
X0235750Y0042766D01*
X0235659Y0042637D01*
X0235564Y0042510D01*
X0235467Y0042385D01*
X0235366Y0042263D01*
X0235262Y0042144D01*
X0235155Y0042027D01*
X0235045Y0041913D01*
X0234932Y0041802D01*
X0234817Y0041693D01*
X0234699Y0041588D01*
X0234578Y0041486D01*
X0234455Y0041386D01*
X0234329Y0041290D01*
X0234201Y0041197D01*
X0234071Y0041107D01*
X0233938Y0041021D01*
X0233803Y0040937D01*
X0233667Y0040858D01*
X0233528Y0040781D01*
X0233387Y0040709D01*
X0233245Y0040639D01*
X0233101Y0040574D01*
X0232955Y0040512D01*
X0232808Y0040454D01*
X0232659Y0040399D01*
X0232509Y0040348D01*
X0232358Y0040301D01*
X0232206Y0040258D01*
X0232053Y0040219D01*
X0231898Y0040183D01*
X0231743Y0040152D01*
X0231587Y0040124D01*
X0231431Y0040100D01*
X0231274Y0040080D01*
X0231116Y0040064D01*
X0230959Y0040052D01*
X0230800Y0040044D01*
X0230642Y0040040D01*
X0230484Y0040040D01*
X0230326Y0040044D01*
X0230167Y0040052D01*
X0230010Y0040064D01*
X0229852Y0040080D01*
X0229695Y0040100D01*
X0229539Y0040124D01*
X0229383Y0040152D01*
X0229228Y0040183D01*
X0229073Y0040219D01*
X0228920Y0040258D01*
X0228768Y0040301D01*
X0228617Y0040348D01*
X0228467Y0040399D01*
X0228318Y0040454D01*
X0228171Y0040512D01*
X0228025Y0040574D01*
X0227881Y0040639D01*
X0227739Y0040709D01*
X0227598Y0040781D01*
X0227459Y0040858D01*
X0227323Y0040937D01*
X0227188Y0041021D01*
X0227055Y0041107D01*
X0226925Y0041197D01*
X0226797Y0041290D01*
X0226671Y0041386D01*
X0226548Y0041486D01*
X0226427Y0041588D01*
X0226309Y0041693D01*
X0226194Y0041802D01*
X0226081Y0041913D01*
X0225971Y0042027D01*
X0225864Y0042144D01*
X0225760Y0042263D01*
X0225659Y0042385D01*
X0225562Y0042510D01*
X0225467Y0042637D01*
X0225376Y0042766D01*
X0225287Y0042897D01*
X0225203Y0043031D01*
X0225121Y0043167D01*
X0225043Y0043304D01*
X0224969Y0043444D01*
X0224898Y0043586D01*
X0224830Y0043729D01*
X0224766Y0043874D01*
X0224706Y0044020D01*
X0224650Y0044168D01*
X0224597Y0044317D01*
X0224548Y0044468D01*
X0224503Y0044620D01*
X0224462Y0044773D01*
X0224424Y0044926D01*
X0224391Y0045081D01*
X0224361Y0045237D01*
X0224335Y0045393D01*
X0224314Y0045550D01*
X0224296Y0045707D01*
X0224282Y0045865D01*
X0224272Y0046023D01*
X0224266Y0046181D01*
X0224264Y0046339D01*
X0225757Y0222186D02*
X0225689Y0222191D01*
X0225621Y0222200D01*
X0225553Y0222212D01*
X0225487Y0222229D01*
X0225421Y0222249D01*
X0225357Y0222273D01*
X0225294Y0222300D01*
X0225233Y0222331D01*
X0225173Y0222366D01*
X0225116Y0222404D01*
X0225061Y0222445D01*
X0225009Y0222489D01*
X0224959Y0222536D01*
X0224912Y0222586D01*
X0224867Y0222638D01*
X0224826Y0222693D01*
X0224788Y0222750D01*
X0224754Y0222809D01*
X0224722Y0222870D01*
X0224695Y0222933D01*
X0224671Y0222997D01*
X0224650Y0223063D01*
X0224634Y0223129D01*
X0224621Y0223197D01*
X0224612Y0223265D01*
X0224607Y0223333D01*
X0224606Y0223402D01*
X0224609Y0223470D01*
X0224616Y0223539D01*
X0224626Y0223606D01*
X0224641Y0223673D01*
X0224659Y0223739D01*
X0224681Y0223804D01*
X0224707Y0223868D01*
X0224736Y0223930D01*
X0224769Y0223990D01*
X0224805Y0224048D01*
X0224845Y0224105D01*
X0224887Y0224158D01*
X0224933Y0224210D01*
X0224981Y0224258D01*
X0225032Y0224304D01*
X0225086Y0224347D01*
X0225142Y0224386D01*
X0225200Y0224423D01*
X0225260Y0224455D01*
X0225322Y0224485D01*
X0225386Y0224511D01*
X0225451Y0224533D01*
X0225517Y0224551D01*
X0225584Y0224566D01*
X0225652Y0224577D01*
X0225720Y0224584D01*
X0225788Y0224587D01*
X0225857Y0224586D01*
X0225788Y0224587D01*
X0225720Y0224584D01*
X0225652Y0224577D01*
X0225584Y0224566D01*
X0225517Y0224551D01*
X0225451Y0224533D01*
X0225386Y0224511D01*
X0225322Y0224485D01*
X0225260Y0224455D01*
X0225200Y0224423D01*
X0225142Y0224386D01*
X0225086Y0224347D01*
X0225032Y0224304D01*
X0224981Y0224258D01*
X0224933Y0224210D01*
X0224887Y0224158D01*
X0224845Y0224105D01*
X0224805Y0224048D01*
X0224769Y0223990D01*
X0224736Y0223930D01*
X0224707Y0223868D01*
X0224681Y0223804D01*
X0224659Y0223739D01*
X0224641Y0223673D01*
X0224626Y0223606D01*
X0224616Y0223539D01*
X0224609Y0223470D01*
X0224606Y0223402D01*
X0224607Y0223333D01*
X0224612Y0223265D01*
X0224621Y0223197D01*
X0224634Y0223129D01*
X0224650Y0223063D01*
X0224671Y0222997D01*
X0224695Y0222933D01*
X0224722Y0222870D01*
X0224754Y0222809D01*
X0224788Y0222750D01*
X0224826Y0222693D01*
X0224867Y0222638D01*
X0224912Y0222586D01*
X0224959Y0222536D01*
X0225009Y0222489D01*
X0225061Y0222445D01*
X0225116Y0222404D01*
X0225173Y0222366D01*
X0225233Y0222331D01*
X0225294Y0222300D01*
X0225357Y0222273D01*
X0225421Y0222249D01*
X0225487Y0222229D01*
X0225553Y0222212D01*
X0225621Y0222200D01*
X0225689Y0222191D01*
X0225757Y0222186D01*
D11*
X0098708Y0133242D03*
X0098708Y0075742D03*
D12*
X0095406Y0072340D02*
X0112594Y0072340D01*
X0112594Y0110054D01*
X0095406Y0110054D01*
X0095406Y0072340D01*
X0095406Y0129840D02*
X0112594Y0129840D01*
X0112594Y0167554D01*
X0095406Y0167554D01*
X0095406Y0129840D01*
X0100101Y0204761D02*
X0100101Y0208861D01*
X0102601Y0240061D02*
X0102601Y0243961D01*
X0114801Y0233361D02*
X0115501Y0233361D01*
X0115501Y0215561D01*
X0114801Y0215561D01*
X0100101Y0284761D02*
X0100101Y0288861D01*
X0102601Y0320061D02*
X0102601Y0323961D01*
X0114801Y0313361D02*
X0115501Y0313361D01*
X0115501Y0295561D01*
X0114801Y0295561D01*
X0077601Y0295561D02*
X0076901Y0295561D01*
X0076901Y0303261D01*
X0076901Y0305661D01*
X0076901Y0313361D01*
X0077601Y0313361D01*
X0076901Y0305661D02*
X0076970Y0305659D01*
X0077038Y0305653D01*
X0077106Y0305643D01*
X0077173Y0305630D01*
X0077239Y0305612D01*
X0077304Y0305591D01*
X0077368Y0305566D01*
X0077430Y0305538D01*
X0077491Y0305506D01*
X0077550Y0305471D01*
X0077606Y0305432D01*
X0077661Y0305390D01*
X0077712Y0305345D01*
X0077762Y0305297D01*
X0077808Y0305247D01*
X0077851Y0305194D01*
X0077892Y0305138D01*
X0077929Y0305081D01*
X0077962Y0305021D01*
X0077993Y0304959D01*
X0078019Y0304896D01*
X0078042Y0304832D01*
X0078062Y0304766D01*
X0078077Y0304699D01*
X0078089Y0304632D01*
X0078097Y0304564D01*
X0078101Y0304495D01*
X0078101Y0304427D01*
X0078097Y0304358D01*
X0078089Y0304290D01*
X0078077Y0304223D01*
X0078062Y0304156D01*
X0078042Y0304090D01*
X0078019Y0304026D01*
X0077993Y0303963D01*
X0077962Y0303901D01*
X0077929Y0303841D01*
X0077892Y0303784D01*
X0077851Y0303728D01*
X0077808Y0303675D01*
X0077762Y0303625D01*
X0077712Y0303577D01*
X0077661Y0303532D01*
X0077606Y0303490D01*
X0077550Y0303451D01*
X0077491Y0303416D01*
X0077430Y0303384D01*
X0077368Y0303356D01*
X0077304Y0303331D01*
X0077239Y0303310D01*
X0077173Y0303292D01*
X0077106Y0303279D01*
X0077038Y0303269D01*
X0076970Y0303263D01*
X0076901Y0303261D01*
X0076901Y0233361D02*
X0077601Y0233361D01*
X0076901Y0233361D02*
X0076901Y0225661D01*
X0076901Y0223261D01*
X0076901Y0215561D01*
X0077601Y0215561D01*
X0076901Y0223261D02*
X0076970Y0223263D01*
X0077038Y0223269D01*
X0077106Y0223279D01*
X0077173Y0223292D01*
X0077239Y0223310D01*
X0077304Y0223331D01*
X0077368Y0223356D01*
X0077430Y0223384D01*
X0077491Y0223416D01*
X0077550Y0223451D01*
X0077606Y0223490D01*
X0077661Y0223532D01*
X0077712Y0223577D01*
X0077762Y0223625D01*
X0077808Y0223675D01*
X0077851Y0223728D01*
X0077892Y0223784D01*
X0077929Y0223841D01*
X0077962Y0223901D01*
X0077993Y0223963D01*
X0078019Y0224026D01*
X0078042Y0224090D01*
X0078062Y0224156D01*
X0078077Y0224223D01*
X0078089Y0224290D01*
X0078097Y0224358D01*
X0078101Y0224427D01*
X0078101Y0224495D01*
X0078097Y0224564D01*
X0078089Y0224632D01*
X0078077Y0224699D01*
X0078062Y0224766D01*
X0078042Y0224832D01*
X0078019Y0224896D01*
X0077993Y0224959D01*
X0077962Y0225021D01*
X0077929Y0225081D01*
X0077892Y0225138D01*
X0077851Y0225194D01*
X0077808Y0225247D01*
X0077762Y0225297D01*
X0077712Y0225345D01*
X0077661Y0225390D01*
X0077606Y0225432D01*
X0077550Y0225471D01*
X0077491Y0225506D01*
X0077430Y0225538D01*
X0077368Y0225566D01*
X0077304Y0225591D01*
X0077239Y0225612D01*
X0077173Y0225630D01*
X0077106Y0225643D01*
X0077038Y0225653D01*
X0076970Y0225659D01*
X0076901Y0225661D01*
X0195357Y0327786D02*
X0195357Y0368986D01*
X0236557Y0368986D01*
X0236557Y0327786D01*
X0195357Y0327786D01*
X0195357Y0345486D01*
X0195357Y0351286D02*
X0195357Y0368986D01*
X0236557Y0368986D01*
X0236557Y0351286D01*
X0236557Y0345486D02*
X0236557Y0338086D01*
X0226257Y0327786D01*
X0236557Y0338086D01*
X0236557Y0327786D01*
X0195357Y0327786D01*
X0200157Y0271386D02*
X0221757Y0271386D01*
X0221757Y0255386D01*
X0200157Y0255386D01*
X0200157Y0271386D01*
X0221757Y0271386D01*
X0221757Y0255386D02*
X0200157Y0255386D01*
X0200357Y0250986D02*
X0200401Y0250984D01*
X0200444Y0250978D01*
X0200486Y0250969D01*
X0200528Y0250956D01*
X0200568Y0250939D01*
X0200607Y0250919D01*
X0200644Y0250896D01*
X0200678Y0250869D01*
X0200711Y0250840D01*
X0200740Y0250807D01*
X0200767Y0250773D01*
X0200790Y0250736D01*
X0200810Y0250697D01*
X0200827Y0250657D01*
X0200840Y0250615D01*
X0200849Y0250573D01*
X0200855Y0250530D01*
X0200857Y0250486D01*
X0200855Y0250442D01*
X0200849Y0250399D01*
X0200840Y0250357D01*
X0200827Y0250315D01*
X0200810Y0250275D01*
X0200790Y0250236D01*
X0200767Y0250199D01*
X0200740Y0250165D01*
X0200711Y0250132D01*
X0200678Y0250103D01*
X0200644Y0250076D01*
X0200607Y0250053D01*
X0200568Y0250033D01*
X0200528Y0250016D01*
X0200486Y0250003D01*
X0200444Y0249994D01*
X0200401Y0249988D01*
X0200357Y0249986D01*
X0200313Y0249988D01*
X0200270Y0249994D01*
X0200228Y0250003D01*
X0200186Y0250016D01*
X0200146Y0250033D01*
X0200107Y0250053D01*
X0200070Y0250076D01*
X0200036Y0250103D01*
X0200003Y0250132D01*
X0199974Y0250165D01*
X0199947Y0250199D01*
X0199924Y0250236D01*
X0199904Y0250275D01*
X0199887Y0250315D01*
X0199874Y0250357D01*
X0199865Y0250399D01*
X0199859Y0250442D01*
X0199857Y0250486D01*
X0199859Y0250530D01*
X0199865Y0250573D01*
X0199874Y0250615D01*
X0199887Y0250657D01*
X0199904Y0250697D01*
X0199924Y0250736D01*
X0199947Y0250773D01*
X0199974Y0250807D01*
X0200003Y0250840D01*
X0200036Y0250869D01*
X0200070Y0250896D01*
X0200107Y0250919D01*
X0200146Y0250939D01*
X0200186Y0250956D01*
X0200228Y0250969D01*
X0200270Y0250978D01*
X0200313Y0250984D01*
X0200357Y0250986D01*
X0200401Y0250984D01*
X0200444Y0250978D01*
X0200486Y0250969D01*
X0200528Y0250956D01*
X0200568Y0250939D01*
X0200607Y0250919D01*
X0200644Y0250896D01*
X0200678Y0250869D01*
X0200711Y0250840D01*
X0200740Y0250807D01*
X0200767Y0250773D01*
X0200790Y0250736D01*
X0200810Y0250697D01*
X0200827Y0250657D01*
X0200840Y0250615D01*
X0200849Y0250573D01*
X0200855Y0250530D01*
X0200857Y0250486D01*
X0200855Y0250442D01*
X0200849Y0250399D01*
X0200840Y0250357D01*
X0200827Y0250315D01*
X0200810Y0250275D01*
X0200790Y0250236D01*
X0200767Y0250199D01*
X0200740Y0250165D01*
X0200711Y0250132D01*
X0200678Y0250103D01*
X0200644Y0250076D01*
X0200607Y0250053D01*
X0200568Y0250033D01*
X0200528Y0250016D01*
X0200486Y0250003D01*
X0200444Y0249994D01*
X0200401Y0249988D01*
X0200357Y0249986D01*
X0200313Y0249988D01*
X0200270Y0249994D01*
X0200228Y0250003D01*
X0200186Y0250016D01*
X0200146Y0250033D01*
X0200107Y0250053D01*
X0200070Y0250076D01*
X0200036Y0250103D01*
X0200003Y0250132D01*
X0199974Y0250165D01*
X0199947Y0250199D01*
X0199924Y0250236D01*
X0199904Y0250275D01*
X0199887Y0250315D01*
X0199874Y0250357D01*
X0199865Y0250399D01*
X0199859Y0250442D01*
X0199857Y0250486D01*
X0199859Y0250530D01*
X0199865Y0250573D01*
X0199874Y0250615D01*
X0199887Y0250657D01*
X0199904Y0250697D01*
X0199924Y0250736D01*
X0199947Y0250773D01*
X0199974Y0250807D01*
X0200003Y0250840D01*
X0200036Y0250869D01*
X0200070Y0250896D01*
X0200107Y0250919D01*
X0200146Y0250939D01*
X0200186Y0250956D01*
X0200228Y0250969D01*
X0200270Y0250978D01*
X0200313Y0250984D01*
X0200357Y0250986D01*
X0207657Y0235586D02*
X0207657Y0231186D01*
X0209257Y0231186D01*
X0209257Y0235586D01*
X0207657Y0235586D01*
X0206157Y0231186D02*
X0206157Y0215586D01*
X0225757Y0215586D01*
X0225757Y0222186D01*
X0225757Y0231186D01*
X0225757Y0222186D01*
X0225757Y0215586D01*
X0224257Y0215586D02*
X0224257Y0211186D01*
X0222657Y0211186D01*
X0222657Y0215586D01*
X0224257Y0215586D01*
X0228157Y0218986D02*
X0233757Y0218986D01*
X0233757Y0221986D01*
X0233757Y0227786D01*
X0228157Y0227786D01*
X0228157Y0224786D01*
X0228157Y0221986D01*
X0228157Y0218986D01*
X0228157Y0221986D02*
X0233757Y0221986D01*
X0233757Y0224786D02*
X0233857Y0227786D01*
X0233757Y0227786D01*
X0233757Y0224786D02*
X0228157Y0224786D01*
X0225757Y0231186D02*
X0206157Y0231186D01*
X0206157Y0215586D01*
X0207657Y0215586D02*
X0207657Y0211186D01*
X0209257Y0211186D01*
X0209257Y0215586D01*
X0207657Y0215586D01*
X0212657Y0215586D02*
X0212657Y0211186D01*
X0214257Y0211186D01*
X0214257Y0215586D01*
X0212657Y0215586D01*
X0217657Y0215586D02*
X0217657Y0211186D01*
X0219257Y0211186D01*
X0219257Y0215586D01*
X0217657Y0215586D01*
X0217657Y0231186D02*
X0217657Y0235586D01*
X0219257Y0235586D01*
X0219257Y0231186D01*
X0217657Y0231186D01*
X0214257Y0231186D02*
X0214257Y0235586D01*
X0212657Y0235586D01*
X0212657Y0231186D01*
X0214257Y0231186D01*
X0222657Y0231186D02*
X0222657Y0235586D01*
X0224257Y0235586D01*
X0224257Y0231186D01*
X0222657Y0231186D01*
X0242957Y0346886D02*
X0242957Y0349886D01*
X0242957Y0346886D01*
X0241557Y0348386D02*
X0244557Y0348386D01*
X0241557Y0348386D01*
X0236557Y0358686D02*
X0226257Y0368986D01*
X0236557Y0358686D01*
D13*
X0218101Y0373335D02*
X0218101Y0374786D01*
X0217617Y0375270D01*
X0216649Y0375270D01*
X0216166Y0374786D01*
X0216166Y0373335D01*
X0215198Y0373335D02*
X0218101Y0373335D01*
X0218101Y0376281D02*
X0218101Y0377732D01*
X0217617Y0378216D01*
X0216649Y0378216D01*
X0216166Y0377732D01*
X0216166Y0376281D01*
X0216166Y0377249D02*
X0215198Y0378216D01*
X0215682Y0379228D02*
X0215198Y0379711D01*
X0215198Y0380679D01*
X0215682Y0381163D01*
X0217617Y0381163D01*
X0218101Y0380679D01*
X0218101Y0379711D01*
X0217617Y0379228D01*
X0215682Y0379228D01*
X0215682Y0382174D02*
X0215198Y0382658D01*
X0215198Y0383625D01*
X0215682Y0384109D01*
X0216649Y0384109D01*
X0216649Y0383142D01*
X0217617Y0384109D02*
X0218101Y0383625D01*
X0218101Y0382658D01*
X0217617Y0382174D01*
X0215682Y0382174D01*
X0216166Y0385121D02*
X0216166Y0386572D01*
X0216649Y0387056D01*
X0217617Y0387056D01*
X0218101Y0386572D01*
X0218101Y0385121D01*
X0215198Y0385121D01*
X0216166Y0386088D02*
X0215198Y0387056D01*
X0215198Y0388067D02*
X0217133Y0388067D01*
X0218101Y0389035D01*
X0217133Y0390002D01*
X0215198Y0390002D01*
X0215198Y0391014D02*
X0218101Y0391014D01*
X0217133Y0391981D01*
X0218101Y0392949D01*
X0215198Y0392949D01*
X0215198Y0393960D02*
X0218101Y0393960D01*
X0217133Y0394928D01*
X0218101Y0395895D01*
X0215198Y0395895D01*
X0215198Y0396907D02*
X0215198Y0397874D01*
X0215198Y0397391D02*
X0218101Y0397391D01*
X0218101Y0397874D02*
X0218101Y0396907D01*
X0218101Y0398871D02*
X0215198Y0400806D01*
X0218101Y0400806D01*
X0217617Y0401818D02*
X0215682Y0401818D01*
X0215198Y0402301D01*
X0215198Y0403269D01*
X0215682Y0403753D01*
X0216649Y0403753D01*
X0216649Y0402785D01*
X0217617Y0401818D02*
X0218101Y0402301D01*
X0218101Y0403269D01*
X0217617Y0403753D01*
X0218101Y0398871D02*
X0215198Y0398871D01*
X0216649Y0390002D02*
X0216649Y0388067D01*
X0215198Y0376281D02*
X0218101Y0376281D01*
X0209344Y0397049D02*
X0208377Y0398016D01*
X0209344Y0398984D01*
X0206442Y0398984D01*
X0206925Y0399995D02*
X0206442Y0400479D01*
X0206442Y0401446D01*
X0206925Y0401930D01*
X0208860Y0401930D01*
X0209344Y0401446D01*
X0209344Y0400479D01*
X0208860Y0399995D01*
X0206925Y0399995D01*
X0206442Y0397049D02*
X0209344Y0397049D01*
X0209344Y0402942D02*
X0209344Y0404877D01*
X0209344Y0403909D02*
X0206442Y0403909D01*
X0206442Y0405888D02*
X0206442Y0406856D01*
X0206442Y0406372D02*
X0209344Y0406372D01*
X0209344Y0405888D02*
X0209344Y0406856D01*
X0209344Y0407853D02*
X0206442Y0409787D01*
X0209344Y0409787D01*
X0208377Y0410799D02*
X0209344Y0411767D01*
X0206442Y0411767D01*
X0206442Y0412734D02*
X0206442Y0410799D01*
X0206442Y0407853D02*
X0209344Y0407853D01*
X0208860Y0413746D02*
X0209344Y0414229D01*
X0209344Y0415197D01*
X0208860Y0415681D01*
X0206925Y0413746D01*
X0206442Y0414229D01*
X0206442Y0415197D01*
X0206925Y0415681D01*
X0208860Y0415681D01*
X0208860Y0416692D02*
X0209344Y0417176D01*
X0209344Y0418143D01*
X0208860Y0418627D01*
X0208377Y0418627D01*
X0207893Y0418143D01*
X0207409Y0418627D01*
X0206925Y0418627D01*
X0206442Y0418143D01*
X0206442Y0417176D01*
X0206925Y0416692D01*
X0207893Y0417660D02*
X0207893Y0418143D01*
X0206925Y0413746D02*
X0208860Y0413746D01*
X0230979Y0413634D02*
X0230979Y0415569D01*
X0230979Y0416581D02*
X0230979Y0418516D01*
X0230979Y0419527D02*
X0230979Y0420979D01*
X0231462Y0421462D01*
X0233397Y0421462D01*
X0233881Y0420979D01*
X0233881Y0419527D01*
X0230979Y0419527D01*
X0232430Y0417548D02*
X0232430Y0416581D01*
X0233881Y0416581D02*
X0233881Y0418516D01*
X0233881Y0416581D02*
X0230979Y0416581D01*
X0230979Y0413634D02*
X0233881Y0413634D01*
X0233860Y0410395D02*
X0232893Y0409428D01*
X0232893Y0408416D02*
X0232409Y0407933D01*
X0231925Y0408416D01*
X0231442Y0408416D01*
X0230958Y0407933D01*
X0230958Y0406965D01*
X0231442Y0406481D01*
X0230958Y0405470D02*
X0230958Y0403535D01*
X0230958Y0404502D02*
X0233860Y0404502D01*
X0232893Y0403535D01*
X0233377Y0402523D02*
X0232409Y0402523D01*
X0231925Y0402040D01*
X0231925Y0400588D01*
X0230958Y0400588D02*
X0233860Y0400588D01*
X0233860Y0402040D01*
X0233377Y0402523D01*
X0231925Y0401556D02*
X0230958Y0402523D01*
X0233377Y0406481D02*
X0233860Y0406965D01*
X0233860Y0407933D01*
X0233377Y0408416D01*
X0232893Y0408416D01*
X0232409Y0407933D02*
X0232409Y0407449D01*
X0230958Y0409428D02*
X0230958Y0411363D01*
X0230958Y0410395D02*
X0233860Y0410395D01*
X0232914Y0422474D02*
X0233881Y0423441D01*
X0230979Y0423441D01*
X0230979Y0422474D02*
X0230979Y0424409D01*
X0231462Y0425420D02*
X0230979Y0425904D01*
X0230979Y0426872D01*
X0231462Y0427355D01*
X0233397Y0427355D01*
X0231462Y0425420D01*
X0233397Y0425420D01*
X0233881Y0425904D01*
X0233881Y0426872D01*
X0233397Y0427355D01*
X0233397Y0428367D02*
X0233881Y0428851D01*
X0233881Y0429818D01*
X0233397Y0430302D01*
X0231462Y0428367D01*
X0230979Y0428851D01*
X0230979Y0429818D01*
X0231462Y0430302D01*
X0233397Y0430302D01*
X0233397Y0428367D02*
X0231462Y0428367D01*
X0181413Y0378309D02*
X0181413Y0376374D01*
X0180929Y0375890D01*
X0179962Y0375890D01*
X0179478Y0376374D01*
X0178466Y0375890D02*
X0176531Y0375890D01*
X0177499Y0375890D02*
X0177499Y0378793D01*
X0178466Y0377825D01*
X0179478Y0378309D02*
X0179962Y0378793D01*
X0180929Y0378793D01*
X0181413Y0378309D01*
X0175520Y0378309D02*
X0175036Y0378793D01*
X0174069Y0378793D01*
X0173585Y0378309D01*
X0173585Y0377825D01*
X0174069Y0377341D01*
X0173585Y0376858D01*
X0173585Y0376374D01*
X0174069Y0375890D01*
X0175036Y0375890D01*
X0175520Y0376374D01*
X0174552Y0377341D02*
X0174069Y0377341D01*
X0172573Y0377341D02*
X0171606Y0377825D01*
X0171122Y0377825D01*
X0170638Y0377341D01*
X0170638Y0376374D01*
X0171122Y0375890D01*
X0172090Y0375890D01*
X0172573Y0376374D01*
X0172573Y0377341D02*
X0172573Y0378793D01*
X0170638Y0378793D01*
X0170511Y0389206D02*
X0169544Y0389206D01*
X0169060Y0389690D01*
X0169060Y0390173D01*
X0169544Y0390657D01*
X0170028Y0390657D01*
X0169544Y0390657D02*
X0169060Y0391141D01*
X0169060Y0391625D01*
X0169544Y0392108D01*
X0170511Y0392108D01*
X0170995Y0391625D01*
X0170995Y0389690D02*
X0170511Y0389206D01*
X0172007Y0389206D02*
X0173942Y0389206D01*
X0172974Y0389206D02*
X0172974Y0392108D01*
X0173942Y0391141D01*
X0174953Y0391625D02*
X0175437Y0392108D01*
X0176404Y0392108D01*
X0176888Y0391625D01*
X0176888Y0389690D01*
X0176404Y0389206D01*
X0175437Y0389206D01*
X0174953Y0389690D01*
X0168048Y0389690D02*
X0168048Y0390173D01*
X0167565Y0390657D01*
X0166597Y0390657D01*
X0166114Y0390173D01*
X0166114Y0389690D01*
X0166597Y0389206D01*
X0167565Y0389206D01*
X0168048Y0389690D01*
X0167565Y0390657D02*
X0168048Y0391141D01*
X0168048Y0391625D01*
X0167565Y0392108D01*
X0166597Y0392108D01*
X0166114Y0391625D01*
X0166114Y0391141D01*
X0166597Y0390657D01*
X0158287Y0397087D02*
X0158287Y0399990D01*
X0157320Y0399022D01*
X0156352Y0399990D01*
X0156352Y0397087D01*
X0155341Y0397571D02*
X0154857Y0397087D01*
X0153890Y0397087D01*
X0153406Y0397571D01*
X0153406Y0399506D01*
X0153890Y0399990D01*
X0154857Y0399990D01*
X0155341Y0399506D01*
X0155341Y0397571D01*
X0152394Y0399990D02*
X0150459Y0399990D01*
X0151427Y0399990D02*
X0151427Y0397087D01*
X0149448Y0397087D02*
X0148480Y0397087D01*
X0148964Y0397087D02*
X0148964Y0399990D01*
X0149448Y0399990D02*
X0148480Y0399990D01*
X0147484Y0399990D02*
X0145549Y0397087D01*
X0145549Y0399990D01*
X0144537Y0399022D02*
X0143570Y0399990D01*
X0143570Y0397087D01*
X0144537Y0397087D02*
X0142602Y0397087D01*
X0141590Y0397571D02*
X0139655Y0399506D01*
X0139655Y0397571D01*
X0140139Y0397087D01*
X0141107Y0397087D01*
X0141590Y0397571D01*
X0141590Y0399506D01*
X0141107Y0399990D01*
X0140139Y0399990D01*
X0139655Y0399506D01*
X0138644Y0399022D02*
X0137676Y0399990D01*
X0137676Y0397087D01*
X0136709Y0397087D02*
X0138644Y0397087D01*
X0147484Y0397087D02*
X0147484Y0399990D01*
X0134675Y0342238D02*
X0133708Y0342238D01*
X0134191Y0342238D02*
X0134191Y0339336D01*
X0133708Y0339336D02*
X0134675Y0339336D01*
X0132711Y0339820D02*
X0132227Y0339336D01*
X0131260Y0339336D01*
X0130776Y0339820D01*
X0129764Y0339336D02*
X0127829Y0339336D01*
X0128797Y0339336D02*
X0128797Y0342238D01*
X0129764Y0341271D01*
X0130776Y0341755D02*
X0131260Y0342238D01*
X0132227Y0342238D01*
X0132711Y0341755D01*
X0132711Y0339820D01*
X0126818Y0339820D02*
X0124883Y0341755D01*
X0124883Y0339820D01*
X0125367Y0339336D01*
X0126334Y0339336D01*
X0126818Y0339820D01*
X0126818Y0341755D01*
X0126334Y0342238D01*
X0125367Y0342238D01*
X0124883Y0341755D01*
X0123871Y0341755D02*
X0123388Y0342238D01*
X0122420Y0342238D01*
X0121936Y0341755D01*
X0121936Y0341271D01*
X0123871Y0339336D01*
X0121936Y0339336D01*
X0121786Y0339401D02*
X0121302Y0339885D01*
X0120335Y0339885D01*
X0119851Y0339401D01*
X0119851Y0338434D01*
X0120335Y0337950D01*
X0121302Y0337950D02*
X0121786Y0338918D01*
X0121786Y0339401D01*
X0122753Y0339885D02*
X0122753Y0337950D01*
X0121302Y0337950D01*
X0121786Y0336939D02*
X0119851Y0335004D01*
X0119851Y0336939D01*
X0121786Y0336939D02*
X0122270Y0336939D01*
X0122753Y0336455D01*
X0122753Y0335487D01*
X0122270Y0335004D01*
X0122753Y0333025D02*
X0119851Y0333025D01*
X0119851Y0333992D02*
X0119851Y0332057D01*
X0119851Y0331046D02*
X0120818Y0330078D01*
X0120818Y0330562D02*
X0120818Y0329111D01*
X0119851Y0329111D02*
X0122753Y0329111D01*
X0122753Y0330562D01*
X0122270Y0331046D01*
X0121302Y0331046D01*
X0120818Y0330562D01*
X0121786Y0332057D02*
X0122753Y0333025D01*
X0130525Y0330564D02*
X0130525Y0329597D01*
X0131009Y0329113D01*
X0131492Y0329113D01*
X0131976Y0329597D01*
X0131976Y0330564D01*
X0131492Y0331048D01*
X0131009Y0331048D01*
X0130525Y0330564D01*
X0131976Y0330564D02*
X0132460Y0331048D01*
X0132944Y0331048D01*
X0133427Y0330564D01*
X0133427Y0329597D01*
X0132944Y0329113D01*
X0132460Y0329113D01*
X0131976Y0329597D01*
X0132460Y0328101D02*
X0132944Y0328101D01*
X0133427Y0327618D01*
X0133427Y0326650D01*
X0132944Y0326166D01*
X0132460Y0328101D02*
X0130525Y0326166D01*
X0130525Y0328101D01*
X0130525Y0325155D02*
X0130525Y0323220D01*
X0130525Y0324187D02*
X0133427Y0324187D01*
X0132460Y0323220D01*
X0132944Y0322208D02*
X0133427Y0321725D01*
X0133427Y0320757D01*
X0132944Y0320273D01*
X0131009Y0320273D01*
X0130525Y0320757D01*
X0130525Y0321725D01*
X0131009Y0322208D01*
X0122278Y0283813D02*
X0122762Y0283329D01*
X0122762Y0281394D01*
X0122278Y0280911D01*
X0121311Y0280911D01*
X0120827Y0281394D01*
X0119816Y0280911D02*
X0117881Y0280911D01*
X0118848Y0280911D02*
X0118848Y0283813D01*
X0119816Y0282846D01*
X0120827Y0283329D02*
X0121311Y0283813D01*
X0122278Y0283813D01*
X0116869Y0283329D02*
X0116385Y0283813D01*
X0115418Y0283813D01*
X0114934Y0283329D01*
X0114934Y0282846D01*
X0116869Y0280911D01*
X0114934Y0280911D01*
X0113923Y0281394D02*
X0113439Y0280911D01*
X0112471Y0280911D01*
X0111988Y0281394D01*
X0111988Y0281878D01*
X0112471Y0282362D01*
X0113923Y0282362D01*
X0113923Y0281394D01*
X0113923Y0282362D02*
X0112955Y0283329D01*
X0111988Y0283813D01*
X0110899Y0277246D02*
X0110899Y0274344D01*
X0109932Y0274344D02*
X0111867Y0274344D01*
X0112878Y0274827D02*
X0113362Y0274344D01*
X0114330Y0274344D01*
X0114813Y0274827D01*
X0114813Y0276762D01*
X0114330Y0277246D01*
X0113362Y0277246D01*
X0112878Y0276762D01*
X0111867Y0276279D02*
X0110899Y0277246D01*
X0108920Y0276762D02*
X0108436Y0277246D01*
X0107469Y0277246D01*
X0106985Y0276762D01*
X0106985Y0276279D01*
X0108920Y0274344D01*
X0106985Y0274344D01*
X0105974Y0274827D02*
X0105490Y0274344D01*
X0104522Y0274344D01*
X0104039Y0274827D01*
X0104039Y0275311D01*
X0104522Y0275795D01*
X0105006Y0275795D01*
X0104522Y0275795D02*
X0104039Y0276279D01*
X0104039Y0276762D01*
X0104522Y0277246D01*
X0105490Y0277246D01*
X0105974Y0276762D01*
X0109898Y0267972D02*
X0109414Y0267488D01*
X0109414Y0266521D01*
X0109898Y0266037D01*
X0110381Y0266037D01*
X0110865Y0266521D01*
X0110865Y0267488D01*
X0110381Y0267972D01*
X0109898Y0267972D01*
X0110865Y0267488D02*
X0111349Y0267972D01*
X0111833Y0267972D01*
X0112316Y0267488D01*
X0112316Y0266521D01*
X0111833Y0266037D01*
X0111349Y0266037D01*
X0110865Y0266521D01*
X0109414Y0265025D02*
X0109414Y0263090D01*
X0109975Y0262493D02*
X0109975Y0264428D01*
X0109491Y0264912D01*
X0108523Y0264912D01*
X0108040Y0264428D01*
X0107028Y0263944D02*
X0106061Y0264912D01*
X0106061Y0262009D01*
X0107028Y0262009D02*
X0105093Y0262009D01*
X0104082Y0262009D02*
X0102147Y0262009D01*
X0103114Y0262009D02*
X0103114Y0264912D01*
X0104082Y0263944D01*
X0101135Y0263944D02*
X0100651Y0263460D01*
X0099200Y0263460D01*
X0099200Y0262493D02*
X0099200Y0264428D01*
X0099684Y0264912D01*
X0100651Y0264912D01*
X0101135Y0264428D01*
X0101135Y0263944D01*
X0101135Y0262493D02*
X0100651Y0262009D01*
X0099684Y0262009D01*
X0099200Y0262493D01*
X0098360Y0262842D02*
X0097876Y0263326D01*
X0095941Y0261391D01*
X0095457Y0261875D01*
X0095457Y0262842D01*
X0095941Y0263326D01*
X0097876Y0263326D01*
X0098360Y0262842D02*
X0098360Y0261875D01*
X0097876Y0261391D01*
X0095941Y0261391D01*
X0095457Y0260380D02*
X0095457Y0258445D01*
X0097392Y0260380D01*
X0097876Y0260380D01*
X0098360Y0259896D01*
X0098360Y0258928D01*
X0097876Y0258445D01*
X0098360Y0256466D02*
X0095457Y0256466D01*
X0095457Y0257433D02*
X0095457Y0255498D01*
X0095941Y0254487D02*
X0095457Y0254003D01*
X0095457Y0253035D01*
X0095941Y0252552D01*
X0097876Y0252552D01*
X0098360Y0253035D01*
X0098360Y0254003D01*
X0097876Y0254487D01*
X0097392Y0255498D02*
X0098360Y0256466D01*
X0101588Y0251023D02*
X0099653Y0249088D01*
X0099170Y0249088D01*
X0099170Y0248076D02*
X0099170Y0246141D01*
X0099170Y0247109D02*
X0102072Y0247109D01*
X0101105Y0246141D01*
X0099170Y0245130D02*
X0099170Y0243195D01*
X0099170Y0244162D02*
X0102072Y0244162D01*
X0101105Y0243195D01*
X0101588Y0242183D02*
X0100621Y0242183D01*
X0100137Y0241700D01*
X0100137Y0240248D01*
X0099170Y0240248D02*
X0102072Y0240248D01*
X0102072Y0241700D01*
X0101588Y0242183D01*
X0100137Y0241216D02*
X0099170Y0242183D01*
X0098262Y0244411D02*
X0098262Y0247313D01*
X0096811Y0247313D01*
X0096327Y0246829D01*
X0096327Y0245862D01*
X0096811Y0245378D01*
X0098262Y0245378D01*
X0097295Y0245378D02*
X0096327Y0244411D01*
X0095316Y0244411D02*
X0093381Y0244411D01*
X0094348Y0244411D02*
X0094348Y0247313D01*
X0095316Y0246346D01*
X0092369Y0246346D02*
X0091402Y0247313D01*
X0091402Y0244411D01*
X0092369Y0244411D02*
X0090434Y0244411D01*
X0089423Y0244894D02*
X0088939Y0244411D01*
X0087971Y0244411D01*
X0087488Y0244894D01*
X0087488Y0245378D01*
X0087971Y0245862D01*
X0089423Y0245862D01*
X0089423Y0244894D01*
X0089423Y0245862D02*
X0088455Y0246829D01*
X0087488Y0247313D01*
X0084753Y0249611D02*
X0084753Y0251062D01*
X0084270Y0251546D01*
X0083302Y0251546D01*
X0082818Y0251062D01*
X0082818Y0249611D01*
X0082818Y0250578D02*
X0081851Y0251546D01*
X0081851Y0252557D02*
X0081851Y0254492D01*
X0081851Y0253525D02*
X0084753Y0253525D01*
X0083786Y0252557D01*
X0083786Y0255504D02*
X0084753Y0256471D01*
X0081851Y0256471D01*
X0081851Y0255504D02*
X0081851Y0257439D01*
X0082335Y0258450D02*
X0082818Y0258450D01*
X0083302Y0258934D01*
X0083302Y0259901D01*
X0082818Y0260385D01*
X0082335Y0260385D01*
X0081851Y0259901D01*
X0081851Y0258934D01*
X0082335Y0258450D01*
X0083302Y0258934D02*
X0083786Y0258450D01*
X0084270Y0258450D01*
X0084753Y0258934D01*
X0084753Y0259901D01*
X0084270Y0260385D01*
X0083786Y0260385D01*
X0083302Y0259901D01*
X0083690Y0270091D02*
X0080788Y0270091D01*
X0081755Y0270091D02*
X0081755Y0271542D01*
X0082239Y0272026D01*
X0083207Y0272026D01*
X0083690Y0271542D01*
X0083690Y0270091D01*
X0084011Y0270855D02*
X0084011Y0273757D01*
X0084979Y0272790D01*
X0085990Y0272790D02*
X0085990Y0273273D01*
X0086474Y0273757D01*
X0087442Y0273757D01*
X0087925Y0273273D01*
X0085990Y0272790D02*
X0087925Y0270855D01*
X0085990Y0270855D01*
X0084979Y0270855D02*
X0083044Y0270855D01*
X0081755Y0271058D02*
X0080788Y0272026D01*
X0080788Y0273037D02*
X0080788Y0274972D01*
X0080788Y0274005D02*
X0083690Y0274005D01*
X0082723Y0273037D01*
X0083207Y0275984D02*
X0083690Y0276468D01*
X0083690Y0277435D01*
X0083207Y0277919D01*
X0082723Y0277919D01*
X0080788Y0275984D01*
X0080788Y0277919D01*
X0080788Y0278930D02*
X0082723Y0280865D01*
X0083207Y0280865D01*
X0083690Y0280382D01*
X0083690Y0279414D01*
X0083207Y0278930D01*
X0080788Y0278930D02*
X0080788Y0280865D01*
X0074647Y0271630D02*
X0071744Y0271630D01*
X0071744Y0270663D02*
X0071744Y0272598D01*
X0073679Y0270663D02*
X0074647Y0271630D01*
X0074163Y0269651D02*
X0074647Y0269167D01*
X0074647Y0268200D01*
X0074163Y0267716D01*
X0074163Y0269651D02*
X0073679Y0269651D01*
X0071744Y0267716D01*
X0071744Y0269651D01*
X0071744Y0266705D02*
X0071744Y0264770D01*
X0071744Y0265737D02*
X0074647Y0265737D01*
X0073679Y0264770D01*
X0074163Y0263758D02*
X0074647Y0263274D01*
X0074647Y0262307D01*
X0074163Y0261823D01*
X0072228Y0261823D01*
X0071744Y0262307D01*
X0071744Y0263274D01*
X0072228Y0263758D01*
X0071395Y0262354D02*
X0069461Y0262354D01*
X0068977Y0261870D01*
X0068977Y0260902D01*
X0069461Y0260419D01*
X0070428Y0260902D02*
X0070428Y0262354D01*
X0071395Y0262354D02*
X0071879Y0261870D01*
X0071879Y0260902D01*
X0071395Y0260419D01*
X0070912Y0260419D01*
X0070428Y0260902D01*
X0068977Y0259407D02*
X0068977Y0257472D01*
X0068977Y0258440D02*
X0071879Y0258440D01*
X0070912Y0257472D01*
X0068977Y0256461D02*
X0068977Y0254526D01*
X0068977Y0255493D02*
X0071879Y0255493D01*
X0070912Y0254526D01*
X0071395Y0253514D02*
X0070428Y0253514D01*
X0069944Y0253030D01*
X0069944Y0251579D01*
X0068977Y0251579D02*
X0071879Y0251579D01*
X0071879Y0253030D01*
X0071395Y0253514D01*
X0069944Y0252547D02*
X0068977Y0253514D01*
X0068637Y0241513D02*
X0068637Y0238611D01*
X0069604Y0238611D02*
X0067669Y0238611D01*
X0066658Y0238611D02*
X0064723Y0238611D01*
X0065690Y0238611D02*
X0065690Y0241513D01*
X0066658Y0240546D01*
X0068637Y0241513D02*
X0069604Y0240546D01*
X0070616Y0241029D02*
X0070616Y0240062D01*
X0071100Y0239578D01*
X0072551Y0239578D01*
X0072551Y0238611D02*
X0072551Y0241513D01*
X0071100Y0241513D01*
X0070616Y0241029D01*
X0071583Y0239578D02*
X0070616Y0238611D01*
X0074631Y0239111D02*
X0077767Y0235975D01*
X0077767Y0237543D02*
X0074631Y0237543D01*
X0074631Y0235975D02*
X0077767Y0239111D01*
X0076199Y0239111D02*
X0076199Y0235975D01*
X0075429Y0227674D02*
X0073011Y0227674D01*
X0073011Y0225739D02*
X0075429Y0225739D01*
X0075913Y0226223D01*
X0075913Y0227191D01*
X0075429Y0227674D01*
X0075913Y0224728D02*
X0075913Y0222793D01*
X0075913Y0223760D02*
X0073011Y0223760D01*
X0073978Y0224728D01*
X0073494Y0221781D02*
X0073011Y0221298D01*
X0073011Y0220330D01*
X0073494Y0219846D01*
X0075429Y0221781D01*
X0075913Y0221298D01*
X0075913Y0220330D01*
X0075429Y0219846D01*
X0073494Y0219846D01*
X0073494Y0218835D02*
X0073011Y0218351D01*
X0073011Y0217384D01*
X0073494Y0216900D01*
X0075429Y0218835D01*
X0075913Y0218351D01*
X0075913Y0217384D01*
X0075429Y0216900D01*
X0073494Y0216900D01*
X0074051Y0216094D02*
X0073567Y0215611D01*
X0072600Y0215611D01*
X0072116Y0216094D01*
X0071104Y0215611D02*
X0069169Y0215611D01*
X0070137Y0215611D02*
X0070137Y0218513D01*
X0071104Y0217546D01*
X0072116Y0218029D02*
X0072600Y0218513D01*
X0073567Y0218513D01*
X0074051Y0218029D01*
X0074051Y0216094D01*
X0073494Y0218835D02*
X0075429Y0218835D01*
X0075429Y0221781D02*
X0073494Y0221781D01*
X0068158Y0217546D02*
X0067190Y0218513D01*
X0067190Y0215611D01*
X0066223Y0215611D02*
X0068158Y0215611D01*
X0065211Y0216094D02*
X0064727Y0215611D01*
X0063760Y0215611D01*
X0063276Y0216094D01*
X0063276Y0217062D01*
X0063760Y0217546D01*
X0064244Y0217546D01*
X0065211Y0217062D01*
X0065211Y0218513D01*
X0063276Y0218513D01*
X0063227Y0238611D02*
X0063711Y0239094D01*
X0063227Y0238611D02*
X0062260Y0238611D01*
X0061776Y0239094D01*
X0061776Y0240062D01*
X0062260Y0240546D01*
X0062744Y0240546D01*
X0063711Y0240062D01*
X0063711Y0241513D01*
X0061776Y0241513D01*
X0043035Y0231430D02*
X0043035Y0229495D01*
X0041100Y0231430D01*
X0040616Y0231430D01*
X0040132Y0230946D01*
X0040132Y0229978D01*
X0040616Y0229495D01*
X0040616Y0228483D02*
X0041583Y0228483D01*
X0042067Y0227999D01*
X0042067Y0226548D01*
X0043035Y0226548D02*
X0040132Y0226548D01*
X0040132Y0227999D01*
X0040616Y0228483D01*
X0040132Y0225537D02*
X0040132Y0223602D01*
X0043035Y0223602D01*
X0043035Y0225537D01*
X0041583Y0224569D02*
X0041583Y0223602D01*
X0040132Y0222590D02*
X0040132Y0220655D01*
X0040132Y0221623D02*
X0043035Y0221623D01*
X0042551Y0219644D02*
X0043035Y0219160D01*
X0043035Y0218192D01*
X0042551Y0217709D01*
X0041583Y0218192D02*
X0041583Y0219160D01*
X0042067Y0219644D01*
X0042551Y0219644D01*
X0041583Y0218192D02*
X0041100Y0217709D01*
X0040616Y0217709D01*
X0040132Y0218192D01*
X0040132Y0219160D01*
X0040616Y0219644D01*
X0040715Y0200020D02*
X0038780Y0198085D01*
X0038296Y0198569D01*
X0038296Y0199537D01*
X0038780Y0200020D01*
X0040715Y0200020D01*
X0041199Y0199537D01*
X0041199Y0198569D01*
X0040715Y0198085D01*
X0038780Y0198085D01*
X0038296Y0197074D02*
X0038296Y0195139D01*
X0038296Y0196106D02*
X0041199Y0196106D01*
X0040231Y0195139D01*
X0038296Y0194127D02*
X0038296Y0192192D01*
X0038296Y0193160D02*
X0041199Y0193160D01*
X0040231Y0192192D01*
X0040715Y0191181D02*
X0041199Y0190697D01*
X0041199Y0189730D01*
X0040715Y0189246D01*
X0038780Y0189246D01*
X0038296Y0189730D01*
X0038296Y0190697D01*
X0038780Y0191181D01*
X0038061Y0173966D02*
X0038061Y0171064D01*
X0039028Y0171064D02*
X0037093Y0171064D01*
X0039028Y0172999D02*
X0038061Y0173966D01*
X0040040Y0173483D02*
X0041975Y0171548D01*
X0041491Y0171064D01*
X0040524Y0171064D01*
X0040040Y0171548D01*
X0040040Y0173483D01*
X0040524Y0173966D01*
X0041491Y0173966D01*
X0041975Y0173483D01*
X0041975Y0171548D01*
X0042986Y0171064D02*
X0044921Y0171064D01*
X0043954Y0171064D02*
X0043954Y0173966D01*
X0044921Y0172999D01*
X0045933Y0173483D02*
X0045933Y0172515D01*
X0046417Y0172031D01*
X0047868Y0172031D01*
X0047868Y0171064D02*
X0047868Y0173966D01*
X0046417Y0173966D01*
X0045933Y0173483D01*
X0046900Y0172031D02*
X0045933Y0171064D01*
X0048880Y0171548D02*
X0048880Y0173483D01*
X0049363Y0173966D01*
X0050331Y0173966D01*
X0050814Y0173483D01*
X0050814Y0171548D01*
X0050331Y0171064D01*
X0049363Y0171064D01*
X0048880Y0171548D01*
X0051826Y0173966D02*
X0053761Y0173966D01*
X0052794Y0173966D02*
X0052794Y0171064D01*
X0054773Y0171548D02*
X0054773Y0173483D01*
X0055256Y0173966D01*
X0056224Y0173966D01*
X0056708Y0173483D01*
X0056708Y0171548D01*
X0056224Y0171064D01*
X0055256Y0171064D01*
X0054773Y0171548D01*
X0057719Y0171064D02*
X0057719Y0173966D01*
X0058687Y0172999D01*
X0059654Y0173966D01*
X0059654Y0171064D01*
X0065575Y0168766D02*
X0065575Y0168282D01*
X0066059Y0167798D01*
X0067027Y0167798D01*
X0067510Y0168282D01*
X0067510Y0168766D01*
X0067027Y0169249D01*
X0066059Y0169249D01*
X0065575Y0168766D01*
X0066059Y0167798D02*
X0065575Y0167314D01*
X0065575Y0166831D01*
X0066059Y0166347D01*
X0067027Y0166347D01*
X0067510Y0166831D01*
X0067510Y0167314D01*
X0067027Y0167798D01*
X0068522Y0166831D02*
X0069006Y0166347D01*
X0069973Y0166347D01*
X0070457Y0166831D01*
X0068522Y0168766D01*
X0068522Y0166831D01*
X0068522Y0168766D02*
X0069006Y0169249D01*
X0069973Y0169249D01*
X0070457Y0168766D01*
X0070457Y0166831D01*
X0071469Y0166347D02*
X0073403Y0166347D01*
X0072436Y0166347D02*
X0072436Y0169249D01*
X0073403Y0168282D01*
X0074415Y0168766D02*
X0074899Y0169249D01*
X0075866Y0169249D01*
X0076350Y0168766D01*
X0076350Y0166831D01*
X0075866Y0166347D01*
X0074899Y0166347D01*
X0074415Y0166831D01*
X0074899Y0159749D02*
X0074415Y0159266D01*
X0074415Y0158298D01*
X0074899Y0157814D01*
X0076350Y0157814D01*
X0076350Y0156847D02*
X0076350Y0159749D01*
X0074899Y0159749D01*
X0073403Y0158782D02*
X0072436Y0159749D01*
X0072436Y0156847D01*
X0073403Y0156847D02*
X0071469Y0156847D01*
X0070457Y0157331D02*
X0068522Y0159266D01*
X0068522Y0157331D01*
X0069006Y0156847D01*
X0069973Y0156847D01*
X0070457Y0157331D01*
X0070457Y0159266D01*
X0069973Y0159749D01*
X0069006Y0159749D01*
X0068522Y0159266D01*
X0067510Y0159266D02*
X0067510Y0158782D01*
X0067027Y0158298D01*
X0065575Y0158298D01*
X0065575Y0157331D02*
X0065575Y0159266D01*
X0066059Y0159749D01*
X0067027Y0159749D01*
X0067510Y0159266D01*
X0067510Y0157331D02*
X0067027Y0156847D01*
X0066059Y0156847D01*
X0065575Y0157331D01*
X0066166Y0148749D02*
X0065682Y0148266D01*
X0065682Y0147782D01*
X0066166Y0147298D01*
X0067133Y0147298D01*
X0067617Y0147782D01*
X0067617Y0148266D01*
X0067133Y0148749D01*
X0066166Y0148749D01*
X0066166Y0147298D02*
X0065682Y0146814D01*
X0065682Y0146331D01*
X0066166Y0145847D01*
X0067133Y0145847D01*
X0067617Y0146331D01*
X0067617Y0146814D01*
X0067133Y0147298D01*
X0068628Y0146331D02*
X0069112Y0145847D01*
X0070080Y0145847D01*
X0070563Y0146331D01*
X0068628Y0148266D01*
X0068628Y0146331D01*
X0068628Y0148266D02*
X0069112Y0148749D01*
X0070080Y0148749D01*
X0070563Y0148266D01*
X0070563Y0146331D01*
X0071575Y0145847D02*
X0073510Y0145847D01*
X0072542Y0145847D02*
X0072542Y0148749D01*
X0073510Y0147782D01*
X0074521Y0148266D02*
X0075005Y0148749D01*
X0076456Y0148749D01*
X0076456Y0145847D01*
X0076456Y0146814D02*
X0075005Y0146814D01*
X0074521Y0147298D01*
X0074521Y0148266D01*
X0075489Y0146814D02*
X0074521Y0145847D01*
X0075399Y0139249D02*
X0076366Y0139249D01*
X0076850Y0138766D01*
X0076850Y0136831D01*
X0076366Y0136347D01*
X0075399Y0136347D01*
X0074915Y0136831D01*
X0073903Y0136347D02*
X0071969Y0136347D01*
X0072936Y0136347D02*
X0072936Y0139249D01*
X0073903Y0138282D01*
X0074915Y0138766D02*
X0075399Y0139249D01*
X0074044Y0134537D02*
X0075011Y0134053D01*
X0075979Y0133085D01*
X0074528Y0133085D01*
X0074044Y0132602D01*
X0074044Y0132118D01*
X0074528Y0131634D01*
X0075495Y0131634D01*
X0075979Y0132118D01*
X0075979Y0133085D01*
X0076990Y0132118D02*
X0077474Y0131634D01*
X0078442Y0131634D01*
X0078925Y0132118D01*
X0076990Y0134053D01*
X0076990Y0132118D01*
X0076990Y0134053D02*
X0077474Y0134537D01*
X0078442Y0134537D01*
X0078925Y0134053D01*
X0078925Y0132118D01*
X0079937Y0131634D02*
X0081872Y0131634D01*
X0080905Y0131634D02*
X0080905Y0134537D01*
X0081872Y0133569D01*
X0082884Y0134053D02*
X0083367Y0134537D01*
X0084335Y0134537D01*
X0084819Y0134053D01*
X0084819Y0132118D01*
X0084335Y0131634D01*
X0083367Y0131634D01*
X0082884Y0132118D01*
X0082456Y0119588D02*
X0081005Y0119588D01*
X0080521Y0119104D01*
X0080521Y0118137D01*
X0081005Y0117653D01*
X0082456Y0117653D01*
X0081489Y0117653D02*
X0080521Y0116685D01*
X0079510Y0116685D02*
X0077575Y0116685D01*
X0078542Y0116685D02*
X0078542Y0119588D01*
X0079510Y0118620D01*
X0076563Y0119104D02*
X0076080Y0119588D01*
X0075112Y0119588D01*
X0074628Y0119104D01*
X0076563Y0117169D01*
X0076080Y0116685D01*
X0075112Y0116685D01*
X0074628Y0117169D01*
X0074628Y0119104D01*
X0073617Y0118137D02*
X0072166Y0118137D01*
X0071682Y0117653D01*
X0071682Y0117169D01*
X0072166Y0116685D01*
X0073133Y0116685D01*
X0073617Y0117169D01*
X0073617Y0118137D01*
X0072649Y0119104D01*
X0071682Y0119588D01*
X0071936Y0110249D02*
X0071936Y0107347D01*
X0072903Y0107347D02*
X0070969Y0107347D01*
X0069957Y0107831D02*
X0068022Y0109766D01*
X0068022Y0107831D01*
X0068506Y0107347D01*
X0069473Y0107347D01*
X0069957Y0107831D01*
X0069957Y0109766D01*
X0069473Y0110249D01*
X0068506Y0110249D01*
X0068022Y0109766D01*
X0067010Y0109766D02*
X0066527Y0110249D01*
X0065559Y0110249D01*
X0065075Y0109766D01*
X0065075Y0109282D01*
X0065559Y0108798D01*
X0065075Y0108314D01*
X0065075Y0107831D01*
X0065559Y0107347D01*
X0066527Y0107347D01*
X0067010Y0107831D01*
X0066043Y0108798D02*
X0065559Y0108798D01*
X0062430Y0114765D02*
X0062430Y0117667D01*
X0061462Y0116700D01*
X0060495Y0117667D01*
X0060495Y0114765D01*
X0059483Y0115248D02*
X0058999Y0114765D01*
X0058032Y0114765D01*
X0057548Y0115248D01*
X0057548Y0117183D01*
X0058032Y0117667D01*
X0058999Y0117667D01*
X0059483Y0117183D01*
X0059483Y0115248D01*
X0059007Y0123426D02*
X0060942Y0123426D01*
X0059975Y0123426D02*
X0059975Y0126328D01*
X0059007Y0125361D01*
X0057995Y0125845D02*
X0057995Y0124877D01*
X0057512Y0124393D01*
X0056061Y0124393D01*
X0057028Y0124393D02*
X0057995Y0123426D01*
X0056061Y0123426D02*
X0056061Y0126328D01*
X0057512Y0126328D01*
X0057995Y0125845D01*
X0055049Y0125845D02*
X0055049Y0123910D01*
X0054565Y0123426D01*
X0053598Y0123426D01*
X0053114Y0123910D01*
X0053114Y0125845D01*
X0053598Y0126328D01*
X0054565Y0126328D01*
X0055049Y0125845D01*
X0052102Y0126328D02*
X0050167Y0126328D01*
X0051135Y0126328D02*
X0051135Y0123426D01*
X0049156Y0123910D02*
X0049156Y0125845D01*
X0048672Y0126328D01*
X0047705Y0126328D01*
X0047221Y0125845D01*
X0047221Y0123910D01*
X0047705Y0123426D01*
X0048672Y0123426D01*
X0049156Y0123910D01*
X0046209Y0123426D02*
X0046209Y0126328D01*
X0045242Y0125361D01*
X0044274Y0126328D01*
X0044274Y0123426D01*
X0044267Y0117667D02*
X0043299Y0117667D01*
X0042816Y0117183D01*
X0044751Y0115248D01*
X0044267Y0114765D01*
X0043299Y0114765D01*
X0042816Y0115248D01*
X0042816Y0117183D01*
X0041804Y0117183D02*
X0041320Y0117667D01*
X0040353Y0117667D01*
X0039869Y0117183D01*
X0041804Y0115248D01*
X0041320Y0114765D01*
X0040353Y0114765D01*
X0039869Y0115248D01*
X0039869Y0117183D01*
X0041804Y0117183D02*
X0041804Y0115248D01*
X0044267Y0117667D02*
X0044751Y0117183D01*
X0044751Y0115248D01*
X0045762Y0114765D02*
X0047697Y0114765D01*
X0046730Y0114765D02*
X0046730Y0117667D01*
X0047697Y0116700D01*
X0048709Y0117183D02*
X0048709Y0116216D01*
X0049192Y0115732D01*
X0050644Y0115732D01*
X0050644Y0114765D02*
X0050644Y0117667D01*
X0049192Y0117667D01*
X0048709Y0117183D01*
X0049676Y0115732D02*
X0048709Y0114765D01*
X0051655Y0115248D02*
X0051655Y0117183D01*
X0052139Y0117667D01*
X0053106Y0117667D01*
X0053590Y0117183D01*
X0053590Y0115248D01*
X0053106Y0114765D01*
X0052139Y0114765D01*
X0051655Y0115248D01*
X0054602Y0117667D02*
X0056537Y0117667D01*
X0055569Y0117667D02*
X0055569Y0114765D01*
X0065166Y0101749D02*
X0064682Y0101266D01*
X0064682Y0100782D01*
X0065166Y0100298D01*
X0064682Y0099814D01*
X0064682Y0099331D01*
X0065166Y0098847D01*
X0066133Y0098847D01*
X0066617Y0099331D01*
X0067628Y0099331D02*
X0068112Y0098847D01*
X0069080Y0098847D01*
X0069563Y0099331D01*
X0067628Y0101266D01*
X0067628Y0099331D01*
X0067628Y0101266D02*
X0068112Y0101749D01*
X0069080Y0101749D01*
X0069563Y0101266D01*
X0069563Y0099331D01*
X0070575Y0098847D02*
X0072510Y0098847D01*
X0071542Y0098847D02*
X0071542Y0101749D01*
X0072510Y0100782D01*
X0073521Y0101266D02*
X0073521Y0100298D01*
X0074005Y0099814D01*
X0075456Y0099814D01*
X0075456Y0098847D02*
X0075456Y0101749D01*
X0074005Y0101749D01*
X0073521Y0101266D01*
X0074489Y0099814D02*
X0073521Y0098847D01*
X0074005Y0091749D02*
X0073521Y0091266D01*
X0073521Y0090298D01*
X0074005Y0089814D01*
X0075456Y0089814D01*
X0075456Y0088847D02*
X0075456Y0091749D01*
X0074005Y0091749D01*
X0072510Y0090782D02*
X0071542Y0091749D01*
X0071542Y0088847D01*
X0070575Y0088847D02*
X0072510Y0088847D01*
X0073521Y0088847D02*
X0074489Y0089814D01*
X0074399Y0083749D02*
X0075366Y0083749D01*
X0075850Y0083266D01*
X0075850Y0081331D01*
X0075366Y0080847D01*
X0074399Y0080847D01*
X0073915Y0081331D01*
X0072903Y0080847D02*
X0070969Y0080847D01*
X0071936Y0080847D02*
X0071936Y0083749D01*
X0072903Y0082782D01*
X0073915Y0083266D02*
X0074399Y0083749D01*
X0074006Y0075749D02*
X0073522Y0075266D01*
X0075457Y0073331D01*
X0074973Y0072847D01*
X0074006Y0072847D01*
X0073522Y0073331D01*
X0073522Y0075266D01*
X0074006Y0075749D02*
X0074973Y0075749D01*
X0075457Y0075266D01*
X0075457Y0073331D01*
X0076469Y0072847D02*
X0078403Y0072847D01*
X0077436Y0072847D02*
X0077436Y0075749D01*
X0078403Y0074782D01*
X0079415Y0075266D02*
X0079899Y0075749D01*
X0080866Y0075749D01*
X0081350Y0075266D01*
X0081350Y0073331D01*
X0080866Y0072847D01*
X0079899Y0072847D01*
X0079415Y0073331D01*
X0079899Y0071249D02*
X0079415Y0070766D01*
X0079415Y0069798D01*
X0079899Y0069314D01*
X0081350Y0069314D01*
X0081350Y0068347D02*
X0081350Y0071249D01*
X0079899Y0071249D01*
X0078403Y0070282D02*
X0077436Y0071249D01*
X0077436Y0068347D01*
X0078403Y0068347D02*
X0076469Y0068347D01*
X0075457Y0068831D02*
X0073522Y0070766D01*
X0073522Y0068831D01*
X0074006Y0068347D01*
X0074973Y0068347D01*
X0075457Y0068831D01*
X0075457Y0070766D01*
X0074973Y0071249D01*
X0074006Y0071249D01*
X0073522Y0070766D01*
X0072510Y0070766D02*
X0072027Y0071249D01*
X0071059Y0071249D01*
X0070575Y0070766D01*
X0072510Y0068831D01*
X0072027Y0068347D01*
X0071059Y0068347D01*
X0070575Y0068831D01*
X0070575Y0070766D01*
X0072510Y0070766D02*
X0072510Y0068831D01*
X0072510Y0072847D02*
X0070575Y0072847D01*
X0071543Y0072847D02*
X0071543Y0075749D01*
X0072510Y0074782D01*
X0069473Y0080847D02*
X0069957Y0081331D01*
X0068022Y0083266D01*
X0068022Y0081331D01*
X0068506Y0080847D01*
X0069473Y0080847D01*
X0069957Y0081331D02*
X0069957Y0083266D01*
X0069473Y0083749D01*
X0068506Y0083749D01*
X0068022Y0083266D01*
X0067010Y0083266D02*
X0066527Y0083749D01*
X0065559Y0083749D01*
X0065075Y0083266D01*
X0065075Y0082782D01*
X0067010Y0080847D01*
X0065075Y0080847D01*
X0064682Y0088847D02*
X0066617Y0088847D01*
X0064682Y0090782D01*
X0064682Y0091266D01*
X0065166Y0091749D01*
X0066133Y0091749D01*
X0066617Y0091266D01*
X0067628Y0091266D02*
X0069563Y0089331D01*
X0069080Y0088847D01*
X0068112Y0088847D01*
X0067628Y0089331D01*
X0067628Y0091266D01*
X0068112Y0091749D01*
X0069080Y0091749D01*
X0069563Y0091266D01*
X0069563Y0089331D01*
X0065649Y0100298D02*
X0065166Y0100298D01*
X0065166Y0101749D02*
X0066133Y0101749D01*
X0066617Y0101266D01*
X0072903Y0109282D02*
X0071936Y0110249D01*
X0073915Y0109766D02*
X0074399Y0110249D01*
X0075366Y0110249D01*
X0075850Y0109766D01*
X0075850Y0107831D01*
X0075366Y0107347D01*
X0074399Y0107347D01*
X0073915Y0107831D01*
X0076563Y0117169D02*
X0076563Y0119104D01*
X0082456Y0119588D02*
X0082456Y0116685D01*
X0095180Y0116274D02*
X0097115Y0116274D01*
X0097115Y0114822D01*
X0096148Y0115306D01*
X0095664Y0115306D01*
X0095180Y0114822D01*
X0095180Y0113855D01*
X0095664Y0113371D01*
X0096632Y0113371D01*
X0097115Y0113855D01*
X0098127Y0113855D02*
X0098611Y0113371D01*
X0099578Y0113371D01*
X0100062Y0113855D01*
X0098127Y0115790D01*
X0098127Y0113855D01*
X0100062Y0113855D02*
X0100062Y0115790D01*
X0099578Y0116274D01*
X0098611Y0116274D01*
X0098127Y0115790D01*
X0098025Y0121009D02*
X0098509Y0121493D01*
X0098025Y0121009D02*
X0097058Y0121009D01*
X0096574Y0121493D01*
X0096574Y0122460D01*
X0097058Y0122944D01*
X0097542Y0122944D01*
X0098509Y0122460D01*
X0098509Y0123912D01*
X0096574Y0123912D01*
X0099521Y0123428D02*
X0101456Y0121493D01*
X0100972Y0121009D01*
X0100004Y0121009D01*
X0099521Y0121493D01*
X0099521Y0123428D01*
X0100004Y0123912D01*
X0100972Y0123912D01*
X0101456Y0123428D01*
X0101456Y0121493D01*
X0102467Y0121009D02*
X0104402Y0121009D01*
X0103435Y0121009D02*
X0103435Y0123912D01*
X0104402Y0122944D01*
X0105414Y0123428D02*
X0105897Y0123912D01*
X0106865Y0123912D01*
X0107349Y0123428D01*
X0107349Y0121493D01*
X0106865Y0121009D01*
X0105897Y0121009D01*
X0105414Y0121493D01*
X0105503Y0125684D02*
X0105503Y0128586D01*
X0106471Y0127619D01*
X0107482Y0128103D02*
X0109417Y0126168D01*
X0108933Y0125684D01*
X0107966Y0125684D01*
X0107482Y0126168D01*
X0107482Y0128103D01*
X0107966Y0128586D01*
X0108933Y0128586D01*
X0109417Y0128103D01*
X0109417Y0126168D01*
X0110429Y0125684D02*
X0112364Y0125684D01*
X0111396Y0125684D02*
X0111396Y0128586D01*
X0112364Y0127619D01*
X0113375Y0128103D02*
X0113859Y0128586D01*
X0114826Y0128586D01*
X0115310Y0128103D01*
X0115310Y0126168D01*
X0114826Y0125684D01*
X0113859Y0125684D01*
X0113375Y0126168D01*
X0114354Y0124332D02*
X0115806Y0122881D01*
X0113871Y0122881D01*
X0114354Y0121430D02*
X0114354Y0124332D01*
X0116307Y0125684D02*
X0117274Y0125684D01*
X0116791Y0125684D02*
X0116791Y0128586D01*
X0117274Y0128586D02*
X0116307Y0128586D01*
X0117301Y0124332D02*
X0116817Y0123848D01*
X0118752Y0121913D01*
X0118269Y0121430D01*
X0117301Y0121430D01*
X0116817Y0121913D01*
X0116817Y0123848D01*
X0117301Y0124332D02*
X0118269Y0124332D01*
X0118752Y0123848D01*
X0118752Y0121913D01*
X0119764Y0121430D02*
X0121699Y0121430D01*
X0120731Y0121430D02*
X0120731Y0124332D01*
X0121699Y0123365D01*
X0122710Y0123848D02*
X0123194Y0124332D01*
X0124162Y0124332D01*
X0124645Y0123848D01*
X0124645Y0121913D01*
X0124162Y0121430D01*
X0123194Y0121430D01*
X0122710Y0121913D01*
X0122665Y0119423D02*
X0121697Y0119423D01*
X0121214Y0118940D01*
X0123149Y0117005D01*
X0122665Y0116521D01*
X0121697Y0116521D01*
X0121214Y0117005D01*
X0121214Y0118940D01*
X0120202Y0119423D02*
X0118267Y0119423D01*
X0118267Y0118940D01*
X0120202Y0117005D01*
X0120202Y0116521D01*
X0120937Y0114557D02*
X0120454Y0114073D01*
X0122389Y0112138D01*
X0121905Y0111655D01*
X0120937Y0111655D01*
X0120454Y0112138D01*
X0120454Y0114073D01*
X0120937Y0114557D02*
X0121905Y0114557D01*
X0122389Y0114073D01*
X0122389Y0112138D01*
X0123400Y0111655D02*
X0125335Y0111655D01*
X0124368Y0111655D02*
X0124368Y0114557D01*
X0125335Y0113590D01*
X0126347Y0114073D02*
X0126831Y0114557D01*
X0128282Y0114557D01*
X0128282Y0111655D01*
X0128282Y0112622D02*
X0126831Y0112622D01*
X0126347Y0113106D01*
X0126347Y0114073D01*
X0127314Y0112622D02*
X0126347Y0111655D01*
X0126095Y0116521D02*
X0124160Y0116521D01*
X0125128Y0116521D02*
X0125128Y0119423D01*
X0126095Y0118456D01*
X0127107Y0118940D02*
X0127107Y0117972D01*
X0127590Y0117488D01*
X0129042Y0117488D01*
X0129042Y0116521D02*
X0129042Y0119423D01*
X0127590Y0119423D01*
X0127107Y0118940D01*
X0128074Y0117488D02*
X0127107Y0116521D01*
X0123149Y0117005D02*
X0123149Y0118940D01*
X0122665Y0119423D01*
X0117991Y0114557D02*
X0119442Y0113106D01*
X0117507Y0113106D01*
X0117991Y0111655D02*
X0117991Y0114557D01*
X0105955Y0114339D02*
X0104504Y0114339D01*
X0104020Y0114822D01*
X0104020Y0115790D01*
X0104504Y0116274D01*
X0105955Y0116274D01*
X0105955Y0113371D01*
X0104987Y0114339D02*
X0104020Y0113371D01*
X0103008Y0113371D02*
X0101073Y0113371D01*
X0102041Y0113371D02*
X0102041Y0116274D01*
X0103008Y0115306D01*
X0104536Y0125684D02*
X0106471Y0125684D01*
X0103136Y0171147D02*
X0103136Y0174049D01*
X0101685Y0174049D01*
X0101201Y0173566D01*
X0101201Y0172598D01*
X0101685Y0172114D01*
X0103136Y0172114D01*
X0102169Y0172114D02*
X0101201Y0171147D01*
X0100190Y0171147D02*
X0098255Y0171147D01*
X0099222Y0171147D02*
X0099222Y0174049D01*
X0100190Y0173082D01*
X0097243Y0173082D02*
X0096276Y0174049D01*
X0096276Y0171147D01*
X0097243Y0171147D02*
X0095308Y0171147D01*
X0094297Y0171147D02*
X0092362Y0171147D01*
X0093329Y0171147D02*
X0093329Y0174049D01*
X0094297Y0173082D01*
X0089373Y0185336D02*
X0087438Y0185336D01*
X0086954Y0185820D01*
X0086954Y0186788D01*
X0087438Y0187271D01*
X0086954Y0188283D02*
X0086954Y0190218D01*
X0086954Y0189250D02*
X0089856Y0189250D01*
X0088889Y0188283D01*
X0089373Y0187271D02*
X0089856Y0186788D01*
X0089856Y0185820D01*
X0089373Y0185336D01*
X0088889Y0191229D02*
X0089856Y0192197D01*
X0086954Y0192197D01*
X0086954Y0193164D02*
X0086954Y0191229D01*
X0088405Y0194176D02*
X0088405Y0196111D01*
X0086954Y0195627D02*
X0089856Y0195627D01*
X0088405Y0194176D01*
X0094807Y0193874D02*
X0094807Y0195809D01*
X0094807Y0194841D02*
X0097710Y0194841D01*
X0096742Y0193874D01*
X0097323Y0192352D02*
X0098290Y0192352D01*
X0098774Y0191868D01*
X0097710Y0191895D02*
X0094807Y0191895D01*
X0094807Y0192862D02*
X0094807Y0190927D01*
X0095291Y0189916D02*
X0094807Y0189432D01*
X0094807Y0188464D01*
X0095291Y0187981D01*
X0097226Y0187981D01*
X0097710Y0188464D01*
X0097710Y0189432D01*
X0097226Y0189916D01*
X0096839Y0189449D02*
X0098774Y0189449D01*
X0096839Y0191384D01*
X0096839Y0191868D01*
X0097323Y0192352D01*
X0097710Y0191895D02*
X0096742Y0190927D01*
X0099786Y0189449D02*
X0101721Y0189449D01*
X0100753Y0189449D02*
X0100753Y0192352D01*
X0101721Y0191384D01*
X0102732Y0189449D02*
X0104667Y0189449D01*
X0103700Y0189449D02*
X0103700Y0192352D01*
X0104667Y0191384D01*
X0105679Y0191868D02*
X0106163Y0192352D01*
X0107130Y0192352D01*
X0107614Y0191868D01*
X0107614Y0189933D01*
X0107130Y0189449D01*
X0106163Y0189449D01*
X0105679Y0189933D01*
X0107135Y0191825D02*
X0106651Y0192308D01*
X0106651Y0193276D01*
X0107135Y0193760D01*
X0106651Y0194771D02*
X0106651Y0196706D01*
X0106651Y0195739D02*
X0109553Y0195739D01*
X0108586Y0194771D01*
X0109070Y0193760D02*
X0109553Y0193276D01*
X0109553Y0192308D01*
X0109070Y0191825D01*
X0107135Y0191825D01*
X0106874Y0186930D02*
X0107842Y0186930D01*
X0108325Y0186447D01*
X0108325Y0185963D01*
X0107842Y0185479D01*
X0106390Y0185479D01*
X0106390Y0184512D02*
X0106390Y0186447D01*
X0106874Y0186930D01*
X0106390Y0184512D02*
X0106874Y0184028D01*
X0107842Y0184028D01*
X0108325Y0184512D01*
X0109337Y0184512D02*
X0109821Y0184028D01*
X0110788Y0184028D01*
X0111272Y0184512D01*
X0109337Y0186447D01*
X0109337Y0184512D01*
X0109337Y0186447D02*
X0109821Y0186930D01*
X0110788Y0186930D01*
X0111272Y0186447D01*
X0111272Y0184512D01*
X0112283Y0184028D02*
X0114218Y0184028D01*
X0113251Y0184028D02*
X0113251Y0186930D01*
X0114218Y0185963D01*
X0115230Y0186447D02*
X0115714Y0186930D01*
X0116681Y0186930D01*
X0117165Y0186447D01*
X0117165Y0184512D01*
X0116681Y0184028D01*
X0115714Y0184028D01*
X0115230Y0184512D01*
X0119975Y0177199D02*
X0120943Y0177199D01*
X0121426Y0176715D01*
X0119975Y0177199D02*
X0119491Y0176715D01*
X0119491Y0176231D01*
X0121426Y0174296D01*
X0119491Y0174296D01*
X0119172Y0172825D02*
X0118688Y0172341D01*
X0120623Y0170406D01*
X0120140Y0169922D01*
X0119172Y0169922D01*
X0118688Y0170406D01*
X0118688Y0172341D01*
X0119172Y0172825D02*
X0120140Y0172825D01*
X0120623Y0172341D01*
X0120623Y0170406D01*
X0121635Y0169922D02*
X0123570Y0169922D01*
X0122602Y0169922D02*
X0122602Y0172825D01*
X0123570Y0171857D01*
X0124581Y0169922D02*
X0126516Y0169922D01*
X0125549Y0169922D02*
X0125549Y0172825D01*
X0126516Y0171857D01*
X0127528Y0172341D02*
X0127528Y0171374D01*
X0128012Y0170890D01*
X0129463Y0170890D01*
X0129463Y0169922D02*
X0129463Y0172825D01*
X0128012Y0172825D01*
X0127528Y0172341D01*
X0128495Y0170890D02*
X0127528Y0169922D01*
X0127319Y0174296D02*
X0125384Y0174296D01*
X0126352Y0174296D02*
X0126352Y0177199D01*
X0127319Y0176231D01*
X0128331Y0175748D02*
X0128815Y0175264D01*
X0130266Y0175264D01*
X0129299Y0175264D02*
X0128331Y0174296D01*
X0128331Y0175748D02*
X0128331Y0176715D01*
X0128815Y0177199D01*
X0130266Y0177199D01*
X0130266Y0174296D01*
X0124373Y0174296D02*
X0122438Y0174296D01*
X0123405Y0174296D02*
X0123405Y0177199D01*
X0124373Y0176231D01*
X0108586Y0197718D02*
X0109553Y0198685D01*
X0106651Y0198685D01*
X0106651Y0197718D02*
X0106651Y0199653D01*
X0106651Y0200664D02*
X0106651Y0202599D01*
X0106651Y0201632D02*
X0109553Y0201632D01*
X0108586Y0200664D01*
X0097710Y0198271D02*
X0097226Y0198755D01*
X0096742Y0198755D01*
X0096259Y0198271D01*
X0095775Y0198755D01*
X0095291Y0198755D01*
X0094807Y0198271D01*
X0094807Y0197304D01*
X0095291Y0196820D01*
X0096259Y0197788D02*
X0096259Y0198271D01*
X0097710Y0198271D02*
X0097710Y0197304D01*
X0097226Y0196820D01*
X0075383Y0157814D02*
X0074415Y0156847D01*
X0070473Y0139249D02*
X0069506Y0139249D01*
X0069022Y0138766D01*
X0070957Y0136831D01*
X0070473Y0136347D01*
X0069506Y0136347D01*
X0069022Y0136831D01*
X0069022Y0138766D01*
X0068010Y0139249D02*
X0066075Y0139249D01*
X0066075Y0138766D01*
X0068010Y0136831D01*
X0068010Y0136347D01*
X0070957Y0136831D02*
X0070957Y0138766D01*
X0070473Y0139249D01*
X0042846Y0084399D02*
X0042846Y0082464D01*
X0040911Y0084399D01*
X0040427Y0084399D01*
X0039943Y0083915D01*
X0039943Y0082947D01*
X0040427Y0082464D01*
X0040427Y0081452D02*
X0041394Y0081452D01*
X0041878Y0080968D01*
X0041878Y0079517D01*
X0042846Y0079517D02*
X0039943Y0079517D01*
X0039943Y0080968D01*
X0040427Y0081452D01*
X0041878Y0080485D02*
X0042846Y0081452D01*
X0042362Y0078506D02*
X0040427Y0078506D01*
X0039943Y0078022D01*
X0039943Y0077054D01*
X0040427Y0076571D01*
X0042362Y0076571D01*
X0042846Y0077054D01*
X0042846Y0078022D01*
X0042362Y0078506D01*
X0039943Y0075559D02*
X0039943Y0073624D01*
X0039943Y0074592D02*
X0042846Y0074592D01*
X0042362Y0072613D02*
X0040427Y0072613D01*
X0039943Y0072129D01*
X0039943Y0071161D01*
X0040427Y0070678D01*
X0042362Y0070678D01*
X0042846Y0071161D01*
X0042846Y0072129D01*
X0042362Y0072613D01*
X0042846Y0069666D02*
X0039943Y0069666D01*
X0040911Y0068699D01*
X0039943Y0067731D01*
X0042846Y0067731D01*
X0079415Y0068347D02*
X0080383Y0069314D01*
X0081414Y0065738D02*
X0080930Y0065254D01*
X0080930Y0064770D01*
X0082865Y0062835D01*
X0080930Y0062835D01*
X0081414Y0065738D02*
X0082381Y0065738D01*
X0082865Y0065254D01*
X0083876Y0065254D02*
X0085811Y0063319D01*
X0085328Y0062835D01*
X0084360Y0062835D01*
X0083876Y0063319D01*
X0083876Y0065254D01*
X0084360Y0065738D01*
X0085328Y0065738D01*
X0085811Y0065254D01*
X0085811Y0063319D01*
X0086823Y0062835D02*
X0088758Y0062835D01*
X0087790Y0062835D02*
X0087790Y0065738D01*
X0088758Y0064770D01*
X0087789Y0066981D02*
X0085854Y0066981D01*
X0085370Y0067464D01*
X0085370Y0068432D01*
X0085854Y0068916D01*
X0085370Y0069927D02*
X0085370Y0071862D01*
X0085370Y0070895D02*
X0088273Y0070895D01*
X0087305Y0069927D01*
X0087789Y0068916D02*
X0088273Y0068432D01*
X0088273Y0067464D01*
X0087789Y0066981D01*
X0089769Y0062352D02*
X0091704Y0062352D01*
X0092716Y0063319D02*
X0093200Y0062835D01*
X0094167Y0062835D01*
X0094651Y0063319D01*
X0094651Y0065254D01*
X0094167Y0065738D01*
X0093200Y0065738D01*
X0092716Y0065254D01*
X0092716Y0063319D01*
X0095662Y0063803D02*
X0095662Y0065738D01*
X0095662Y0063803D02*
X0096630Y0062835D01*
X0097597Y0063803D01*
X0097597Y0065738D01*
X0098609Y0065254D02*
X0098609Y0064287D01*
X0099093Y0063803D01*
X0100544Y0063803D01*
X0099576Y0063803D02*
X0098609Y0062835D01*
X0100544Y0062835D02*
X0100544Y0065738D01*
X0099093Y0065738D01*
X0098609Y0065254D01*
X0101556Y0065738D02*
X0103490Y0065738D01*
X0103490Y0062835D01*
X0101556Y0062835D01*
X0102523Y0064287D02*
X0103490Y0064287D01*
X0104502Y0063803D02*
X0104502Y0063319D01*
X0104986Y0062835D01*
X0105953Y0062835D01*
X0106437Y0063319D01*
X0105953Y0064287D02*
X0104986Y0064287D01*
X0104502Y0063803D01*
X0104502Y0065254D02*
X0104986Y0065738D01*
X0105953Y0065738D01*
X0106437Y0065254D01*
X0106437Y0064770D01*
X0105953Y0064287D01*
X0106785Y0068184D02*
X0107752Y0068184D01*
X0108236Y0068668D01*
X0106301Y0070603D01*
X0106301Y0068668D01*
X0106785Y0068184D01*
X0108236Y0068668D02*
X0108236Y0070603D01*
X0107752Y0071086D01*
X0106785Y0071086D01*
X0106301Y0070603D01*
X0105289Y0070603D02*
X0104806Y0071086D01*
X0103838Y0071086D01*
X0103354Y0070603D01*
X0105289Y0068668D01*
X0104806Y0068184D01*
X0103838Y0068184D01*
X0103354Y0068668D01*
X0103354Y0070603D01*
X0105289Y0070603D02*
X0105289Y0068668D01*
X0109247Y0068184D02*
X0111182Y0068184D01*
X0110215Y0068184D02*
X0110215Y0071086D01*
X0111182Y0070119D01*
X0112194Y0070603D02*
X0112678Y0071086D01*
X0113645Y0071086D01*
X0114129Y0070603D01*
X0114129Y0068668D01*
X0113645Y0068184D01*
X0112678Y0068184D01*
X0112194Y0068668D01*
X0115126Y0068184D02*
X0116093Y0068184D01*
X0115610Y0068184D02*
X0115610Y0071086D01*
X0116093Y0071086D02*
X0115126Y0071086D01*
X0119360Y0065671D02*
X0119360Y0062769D01*
X0118393Y0062769D02*
X0120328Y0062769D01*
X0121339Y0063252D02*
X0121823Y0062769D01*
X0122790Y0062769D01*
X0123274Y0063252D01*
X0121339Y0065187D01*
X0121339Y0063252D01*
X0120328Y0064703D02*
X0119360Y0065671D01*
X0121339Y0065187D02*
X0121823Y0065671D01*
X0122790Y0065671D01*
X0123274Y0065187D01*
X0123274Y0063252D01*
X0124286Y0062769D02*
X0126221Y0062769D01*
X0125253Y0062769D02*
X0125253Y0065671D01*
X0126221Y0064703D01*
X0127232Y0062285D02*
X0129167Y0062285D01*
X0130179Y0063252D02*
X0130179Y0065187D01*
X0130662Y0065671D01*
X0131630Y0065671D01*
X0132114Y0065187D01*
X0132114Y0063252D01*
X0131630Y0062769D01*
X0130662Y0062769D01*
X0130179Y0063252D01*
X0133125Y0063736D02*
X0134093Y0062769D01*
X0135060Y0063736D01*
X0135060Y0065671D01*
X0136072Y0065187D02*
X0136072Y0064220D01*
X0136555Y0063736D01*
X0138007Y0063736D01*
X0138007Y0062769D02*
X0138007Y0065671D01*
X0136555Y0065671D01*
X0136072Y0065187D01*
X0137039Y0063736D02*
X0136072Y0062769D01*
X0139018Y0062769D02*
X0140953Y0062769D01*
X0140953Y0065671D01*
X0139018Y0065671D01*
X0139986Y0064220D02*
X0140953Y0064220D01*
X0141965Y0063736D02*
X0141965Y0063252D01*
X0142449Y0062769D01*
X0143416Y0062769D01*
X0143900Y0063252D01*
X0143416Y0064220D02*
X0142449Y0064220D01*
X0141965Y0063736D01*
X0141965Y0065187D02*
X0142449Y0065671D01*
X0143416Y0065671D01*
X0143900Y0065187D01*
X0143900Y0064703D01*
X0143416Y0064220D01*
X0151857Y0064040D02*
X0152341Y0063556D01*
X0153308Y0063556D01*
X0153792Y0064040D01*
X0151857Y0065975D01*
X0151857Y0064040D01*
X0151857Y0065975D02*
X0152341Y0066458D01*
X0153308Y0066458D01*
X0153792Y0065975D01*
X0153792Y0064040D01*
X0154804Y0064040D02*
X0155287Y0063556D01*
X0156255Y0063556D01*
X0156739Y0064040D01*
X0154804Y0065975D01*
X0154804Y0064040D01*
X0154804Y0065975D02*
X0155287Y0066458D01*
X0156255Y0066458D01*
X0156739Y0065975D01*
X0156739Y0064040D01*
X0157750Y0063556D02*
X0159685Y0063556D01*
X0158718Y0063556D02*
X0158718Y0066458D01*
X0159685Y0065491D01*
X0160697Y0063072D02*
X0162632Y0063072D01*
X0163643Y0064040D02*
X0163643Y0065975D01*
X0164127Y0066458D01*
X0165095Y0066458D01*
X0165578Y0065975D01*
X0165578Y0064040D01*
X0165095Y0063556D01*
X0164127Y0063556D01*
X0163643Y0064040D01*
X0166590Y0064523D02*
X0166590Y0066458D01*
X0166590Y0064523D02*
X0167557Y0063556D01*
X0168525Y0064523D01*
X0168525Y0066458D01*
X0169536Y0065975D02*
X0169536Y0065007D01*
X0170020Y0064523D01*
X0171471Y0064523D01*
X0171471Y0063556D02*
X0171471Y0066458D01*
X0170020Y0066458D01*
X0169536Y0065975D01*
X0170504Y0064523D02*
X0169536Y0063556D01*
X0172483Y0063556D02*
X0174418Y0063556D01*
X0174418Y0066458D01*
X0172483Y0066458D01*
X0173450Y0065007D02*
X0174418Y0065007D01*
X0175429Y0064523D02*
X0175429Y0064040D01*
X0175913Y0063556D01*
X0176881Y0063556D01*
X0177364Y0064040D01*
X0176881Y0065007D02*
X0177364Y0065491D01*
X0177364Y0065975D01*
X0176881Y0066458D01*
X0175913Y0066458D01*
X0175429Y0065975D01*
X0175913Y0065007D02*
X0175429Y0064523D01*
X0175913Y0065007D02*
X0176881Y0065007D01*
X0201325Y0091370D02*
X0200357Y0092338D01*
X0200357Y0093305D01*
X0201325Y0094273D01*
X0202336Y0093789D02*
X0202820Y0094273D01*
X0203788Y0094273D01*
X0204271Y0093789D01*
X0205268Y0094273D02*
X0206236Y0093305D01*
X0206236Y0092338D01*
X0205268Y0091370D01*
X0204271Y0091370D02*
X0202336Y0093305D01*
X0202336Y0093789D01*
X0202336Y0091370D02*
X0204271Y0091370D01*
X0207247Y0091370D02*
X0207247Y0094273D01*
X0209182Y0094273D02*
X0207247Y0091370D01*
X0209182Y0091370D02*
X0209182Y0094273D01*
X0210179Y0094273D02*
X0211147Y0094273D01*
X0210663Y0094273D02*
X0210663Y0091370D01*
X0211147Y0091370D02*
X0210179Y0091370D01*
X0212158Y0090887D02*
X0214093Y0090887D01*
X0215105Y0091370D02*
X0216072Y0092338D01*
X0215588Y0092338D02*
X0217040Y0092338D01*
X0217040Y0091370D02*
X0217040Y0094273D01*
X0215588Y0094273D01*
X0215105Y0093789D01*
X0215105Y0092822D01*
X0215588Y0092338D01*
X0218051Y0091370D02*
X0218051Y0094273D01*
X0219986Y0094273D02*
X0219986Y0091370D01*
X0219019Y0092338D01*
X0218051Y0091370D01*
X0220998Y0092822D02*
X0221481Y0092338D01*
X0222933Y0092338D01*
X0222933Y0091370D02*
X0222933Y0094273D01*
X0221481Y0094273D01*
X0220998Y0093789D01*
X0220998Y0092822D01*
X0227769Y0087347D02*
X0230671Y0087347D01*
X0230671Y0085412D02*
X0227769Y0085412D01*
X0228253Y0084401D02*
X0230188Y0084401D01*
X0230671Y0083917D01*
X0230671Y0082949D01*
X0230188Y0082466D01*
X0228253Y0082466D01*
X0227769Y0082949D01*
X0227769Y0083917D01*
X0228253Y0084401D01*
X0230671Y0085412D02*
X0227769Y0087347D01*
X0227285Y0081454D02*
X0227285Y0079519D01*
X0227769Y0078508D02*
X0228736Y0077540D01*
X0228736Y0078024D02*
X0228736Y0076573D01*
X0227769Y0076573D02*
X0230671Y0076573D01*
X0230671Y0078024D01*
X0230188Y0078508D01*
X0229220Y0078508D01*
X0228736Y0078024D01*
X0227769Y0075561D02*
X0227769Y0073626D01*
X0230671Y0073626D01*
X0230671Y0075561D01*
X0229220Y0074594D02*
X0229220Y0073626D01*
X0227769Y0072615D02*
X0230671Y0072615D01*
X0230671Y0070680D02*
X0227769Y0070680D01*
X0228736Y0071647D01*
X0227769Y0072615D01*
X0228253Y0069668D02*
X0230188Y0069668D01*
X0230671Y0069184D01*
X0230671Y0068217D01*
X0230188Y0067733D01*
X0228253Y0067733D01*
X0227769Y0068217D01*
X0227769Y0069184D01*
X0228253Y0069668D01*
X0229220Y0066721D02*
X0228736Y0066238D01*
X0228736Y0064787D01*
X0227769Y0064787D02*
X0230671Y0064787D01*
X0230671Y0066238D01*
X0230188Y0066721D01*
X0229220Y0066721D01*
X0238331Y0079028D02*
X0241234Y0079028D01*
X0241234Y0080479D01*
X0240750Y0080963D01*
X0239782Y0080963D01*
X0239299Y0080479D01*
X0239299Y0079028D01*
X0239299Y0079995D02*
X0238331Y0080963D01*
X0238331Y0081974D02*
X0238331Y0083909D01*
X0238331Y0082942D02*
X0241234Y0082942D01*
X0240266Y0081974D01*
X0240750Y0084921D02*
X0241234Y0085405D01*
X0241234Y0086372D01*
X0240750Y0086856D01*
X0238815Y0084921D01*
X0238331Y0085405D01*
X0238331Y0086372D01*
X0238815Y0086856D01*
X0240750Y0086856D01*
X0240266Y0087868D02*
X0241234Y0088835D01*
X0238331Y0088835D01*
X0238331Y0087868D02*
X0238331Y0089802D01*
X0238815Y0084921D02*
X0240750Y0084921D01*
X0237593Y0197836D02*
X0237593Y0200738D01*
X0236142Y0200738D01*
X0235658Y0200255D01*
X0235658Y0199287D01*
X0236142Y0198803D01*
X0237593Y0198803D01*
X0236625Y0198803D02*
X0235658Y0197836D01*
X0234646Y0197836D02*
X0232711Y0197836D01*
X0233679Y0197836D02*
X0233679Y0200738D01*
X0234646Y0199771D01*
X0231700Y0199771D02*
X0230732Y0200738D01*
X0230732Y0197836D01*
X0229765Y0197836D02*
X0231700Y0197836D01*
X0228753Y0198320D02*
X0228269Y0197836D01*
X0227302Y0197836D01*
X0226818Y0198320D01*
X0226818Y0198803D01*
X0227302Y0199287D01*
X0227786Y0199287D01*
X0227302Y0199287D02*
X0226818Y0199771D01*
X0226818Y0200255D01*
X0227302Y0200738D01*
X0228269Y0200738D01*
X0228753Y0200255D01*
X0228827Y0210536D02*
X0225691Y0213672D01*
X0228827Y0210536D01*
X0228827Y0212104D02*
X0225691Y0212104D01*
X0228827Y0212104D01*
X0228827Y0213672D02*
X0225691Y0210536D01*
X0228827Y0213672D01*
X0227259Y0213672D02*
X0227259Y0210536D01*
X0227259Y0213672D01*
X0215093Y0200738D02*
X0215093Y0197836D01*
X0215093Y0198803D02*
X0213642Y0198803D01*
X0213158Y0199287D01*
X0213158Y0200255D01*
X0213642Y0200738D01*
X0215093Y0200738D01*
X0214125Y0198803D02*
X0213158Y0197836D01*
X0212146Y0197836D02*
X0210211Y0197836D01*
X0211179Y0197836D02*
X0211179Y0200738D01*
X0212146Y0199771D01*
X0209200Y0199771D02*
X0208232Y0200738D01*
X0208232Y0197836D01*
X0207265Y0197836D02*
X0209200Y0197836D01*
X0206253Y0199287D02*
X0204802Y0200738D01*
X0204802Y0197836D01*
X0204318Y0199287D02*
X0206253Y0199287D01*
X0241031Y0275071D02*
X0241031Y0277006D01*
X0241031Y0278018D02*
X0241031Y0279953D01*
X0241031Y0278985D02*
X0243933Y0278985D01*
X0242966Y0278018D01*
X0243449Y0280964D02*
X0243933Y0281448D01*
X0243933Y0282416D01*
X0243449Y0282899D01*
X0241514Y0280964D01*
X0241031Y0281448D01*
X0241031Y0282416D01*
X0241514Y0282899D01*
X0243449Y0282899D01*
X0243449Y0283911D02*
X0243933Y0284395D01*
X0243933Y0285362D01*
X0243449Y0285846D01*
X0241514Y0283911D01*
X0241031Y0284395D01*
X0241031Y0285362D01*
X0241514Y0285846D01*
X0243449Y0285846D01*
X0243449Y0283911D02*
X0241514Y0283911D01*
X0241514Y0280964D02*
X0243449Y0280964D01*
X0243933Y0275071D02*
X0241031Y0275071D01*
X0133125Y0065671D02*
X0133125Y0063736D01*
X0088273Y0073357D02*
X0088273Y0074325D01*
X0087789Y0074809D01*
X0085854Y0072874D01*
X0085370Y0073357D01*
X0085370Y0074325D01*
X0085854Y0074809D01*
X0087789Y0074809D01*
X0087789Y0075820D02*
X0088273Y0076304D01*
X0088273Y0077271D01*
X0087789Y0077755D01*
X0085854Y0075820D01*
X0085370Y0076304D01*
X0085370Y0077271D01*
X0085854Y0077755D01*
X0087789Y0077755D01*
X0087789Y0075820D02*
X0085854Y0075820D01*
X0085854Y0072874D02*
X0087789Y0072874D01*
X0088273Y0073357D01*
X0102072Y0249088D02*
X0102072Y0251023D01*
X0101588Y0251023D01*
X0108523Y0262009D02*
X0108040Y0262493D01*
X0108523Y0262009D02*
X0109491Y0262009D01*
X0109975Y0262493D01*
X0109414Y0262079D02*
X0109414Y0260144D01*
X0109414Y0261111D02*
X0112316Y0261111D01*
X0111349Y0260144D01*
X0111833Y0259132D02*
X0112316Y0258648D01*
X0112316Y0257681D01*
X0111833Y0257197D01*
X0109898Y0257197D01*
X0109414Y0257681D01*
X0109414Y0258648D01*
X0109898Y0259132D01*
X0111349Y0263090D02*
X0112316Y0264058D01*
X0109414Y0264058D01*
X0115914Y0263484D02*
X0117849Y0265419D01*
X0118333Y0265419D01*
X0118816Y0264935D01*
X0118816Y0263968D01*
X0118333Y0263484D01*
X0118816Y0261505D02*
X0115914Y0261505D01*
X0115914Y0262472D02*
X0115914Y0260537D01*
X0115914Y0259526D02*
X0116881Y0258558D01*
X0116881Y0259042D02*
X0116881Y0257591D01*
X0115914Y0257591D02*
X0118816Y0257591D01*
X0118816Y0259042D01*
X0118333Y0259526D01*
X0117365Y0259526D01*
X0116881Y0259042D01*
X0117849Y0260537D02*
X0118816Y0261505D01*
X0115914Y0263484D02*
X0115914Y0265419D01*
X0116398Y0266430D02*
X0118333Y0268365D01*
X0116398Y0268365D01*
X0115914Y0267882D01*
X0115914Y0266914D01*
X0116398Y0266430D01*
X0118333Y0266430D01*
X0118816Y0266914D01*
X0118816Y0267882D01*
X0118333Y0268365D01*
X0099653Y0275240D02*
X0099169Y0274756D01*
X0098202Y0274756D01*
X0097718Y0275240D01*
X0096707Y0274756D02*
X0094772Y0274756D01*
X0095739Y0274756D02*
X0095739Y0277659D01*
X0096707Y0276691D01*
X0097718Y0277175D02*
X0098202Y0277659D01*
X0099169Y0277659D01*
X0099653Y0277175D01*
X0099653Y0275240D01*
X0093760Y0274756D02*
X0091825Y0276691D01*
X0091825Y0277175D01*
X0092309Y0277659D01*
X0093276Y0277659D01*
X0093760Y0277175D01*
X0093376Y0279504D02*
X0093860Y0279988D01*
X0093860Y0280956D01*
X0093376Y0281439D01*
X0092892Y0282451D02*
X0093860Y0283418D01*
X0090957Y0283418D01*
X0090957Y0282451D02*
X0090957Y0284386D01*
X0090957Y0285397D02*
X0092892Y0287332D01*
X0093376Y0287332D01*
X0093860Y0286849D01*
X0093860Y0285881D01*
X0093376Y0285397D01*
X0090957Y0285397D02*
X0090957Y0287332D01*
X0092408Y0288344D02*
X0092408Y0290279D01*
X0090957Y0289795D02*
X0093860Y0289795D01*
X0092408Y0288344D01*
X0091441Y0281439D02*
X0090957Y0280956D01*
X0090957Y0279988D01*
X0091441Y0279504D01*
X0093376Y0279504D01*
X0090814Y0277659D02*
X0090814Y0276208D01*
X0089846Y0276691D01*
X0089362Y0276691D01*
X0088879Y0276208D01*
X0088879Y0275240D01*
X0089362Y0274756D01*
X0090330Y0274756D01*
X0090814Y0275240D01*
X0091825Y0274756D02*
X0093760Y0274756D01*
X0093819Y0273757D02*
X0092367Y0273757D01*
X0091884Y0273273D01*
X0091884Y0272306D01*
X0092367Y0271822D01*
X0093819Y0271822D01*
X0093819Y0270855D02*
X0093819Y0273757D01*
X0092851Y0271822D02*
X0091884Y0270855D01*
X0090872Y0270855D02*
X0088937Y0270855D01*
X0089905Y0270855D02*
X0089905Y0273757D01*
X0090872Y0272790D01*
X0090814Y0277659D02*
X0088879Y0277659D01*
X0084753Y0249611D02*
X0081851Y0249611D01*
X0075519Y0295719D02*
X0075519Y0297654D01*
X0075519Y0296686D02*
X0072617Y0296686D01*
X0073584Y0297654D01*
X0073838Y0298529D02*
X0073838Y0296594D01*
X0073354Y0296111D01*
X0072387Y0296111D01*
X0071903Y0296594D01*
X0070892Y0296111D02*
X0068957Y0296111D01*
X0069924Y0296111D02*
X0069924Y0299013D01*
X0070892Y0298046D01*
X0071903Y0298529D02*
X0072387Y0299013D01*
X0073354Y0299013D01*
X0073838Y0298529D01*
X0073101Y0298665D02*
X0075036Y0300600D01*
X0075519Y0300117D01*
X0075519Y0299149D01*
X0075036Y0298665D01*
X0073101Y0298665D01*
X0072617Y0299149D01*
X0072617Y0300117D01*
X0073101Y0300600D01*
X0075036Y0300600D01*
X0075519Y0301612D02*
X0075519Y0303547D01*
X0075519Y0302579D02*
X0072617Y0302579D01*
X0073584Y0303547D01*
X0072617Y0304558D02*
X0075036Y0304558D01*
X0075519Y0305042D01*
X0075519Y0306010D01*
X0075036Y0306493D01*
X0072617Y0306493D01*
X0067461Y0299013D02*
X0067945Y0298529D01*
X0067461Y0299013D02*
X0066494Y0299013D01*
X0066010Y0298529D01*
X0066010Y0298046D01*
X0067945Y0296111D01*
X0066010Y0296111D01*
X0064999Y0296111D02*
X0064999Y0296594D01*
X0063064Y0298529D01*
X0063064Y0299013D01*
X0064999Y0299013D01*
X0065723Y0318717D02*
X0067658Y0318717D01*
X0065723Y0320652D01*
X0065723Y0321136D01*
X0066207Y0321619D01*
X0067174Y0321619D01*
X0067658Y0321136D01*
X0069637Y0321619D02*
X0069637Y0318717D01*
X0070604Y0318717D02*
X0068669Y0318717D01*
X0070604Y0320652D02*
X0069637Y0321619D01*
X0071616Y0321136D02*
X0071616Y0320168D01*
X0072100Y0319684D01*
X0073551Y0319684D01*
X0073551Y0318717D02*
X0073551Y0321619D01*
X0072100Y0321619D01*
X0071616Y0321136D01*
X0072583Y0319684D02*
X0071616Y0318717D01*
X0074631Y0319111D02*
X0077767Y0315975D01*
X0077767Y0317543D02*
X0074631Y0317543D01*
X0074631Y0315975D02*
X0077767Y0319111D01*
X0076199Y0319111D02*
X0076199Y0315975D01*
X0076083Y0323567D02*
X0075599Y0324051D01*
X0075599Y0324535D01*
X0076083Y0325019D01*
X0077534Y0325019D01*
X0077534Y0324051D01*
X0077050Y0323567D01*
X0076083Y0323567D01*
X0077534Y0325019D02*
X0076567Y0325986D01*
X0075599Y0326470D01*
X0078546Y0325986D02*
X0078546Y0325502D01*
X0080481Y0323567D01*
X0078546Y0323567D01*
X0078546Y0325986D02*
X0079029Y0326470D01*
X0079997Y0326470D01*
X0080481Y0325986D01*
X0082460Y0326470D02*
X0082460Y0323567D01*
X0083427Y0323567D02*
X0081492Y0323567D01*
X0083427Y0325502D02*
X0082460Y0326470D01*
X0084439Y0325986D02*
X0084439Y0325019D01*
X0084922Y0324535D01*
X0086374Y0324535D01*
X0086374Y0323567D02*
X0086374Y0326470D01*
X0084922Y0326470D01*
X0084439Y0325986D01*
X0085406Y0324535D02*
X0084439Y0323567D01*
X0089546Y0324911D02*
X0089546Y0327813D01*
X0090997Y0326362D01*
X0089062Y0326362D01*
X0092009Y0326846D02*
X0092009Y0327329D01*
X0092493Y0327813D01*
X0093460Y0327813D01*
X0093944Y0327329D01*
X0095383Y0327655D02*
X0095866Y0328139D01*
X0096834Y0328139D01*
X0097318Y0327655D01*
X0097318Y0327172D01*
X0096834Y0326688D01*
X0095383Y0326688D01*
X0095383Y0327655D02*
X0095383Y0325720D01*
X0095866Y0325237D01*
X0096834Y0325237D01*
X0097318Y0325720D01*
X0097902Y0326362D02*
X0098386Y0325878D01*
X0099837Y0325878D01*
X0100264Y0325237D02*
X0098329Y0325237D01*
X0097902Y0324911D02*
X0098869Y0325878D01*
X0097902Y0326362D02*
X0097902Y0327329D01*
X0098386Y0327813D01*
X0099837Y0327813D01*
X0099837Y0324911D01*
X0100264Y0325237D02*
X0098329Y0327172D01*
X0098329Y0327655D01*
X0098813Y0328139D01*
X0099780Y0328139D01*
X0100264Y0327655D01*
X0102243Y0328139D02*
X0102243Y0325237D01*
X0101276Y0325237D02*
X0103211Y0325237D01*
X0104222Y0325720D02*
X0104706Y0325237D01*
X0105673Y0325237D01*
X0106157Y0325720D01*
X0106157Y0327655D01*
X0105673Y0328139D01*
X0104706Y0328139D01*
X0104222Y0327655D01*
X0103211Y0327172D02*
X0102243Y0328139D01*
X0107370Y0327793D02*
X0107370Y0326826D01*
X0107854Y0326342D01*
X0107370Y0325331D02*
X0107370Y0323396D01*
X0107370Y0324363D02*
X0110273Y0324363D01*
X0109305Y0323396D01*
X0109789Y0322384D02*
X0110273Y0321900D01*
X0110273Y0320933D01*
X0109789Y0320449D01*
X0107854Y0320449D01*
X0107370Y0320933D01*
X0107370Y0321900D01*
X0107854Y0322384D01*
X0109789Y0326342D02*
X0110273Y0326826D01*
X0110273Y0327793D01*
X0109789Y0328277D01*
X0109305Y0328277D01*
X0108822Y0327793D01*
X0108338Y0328277D01*
X0107854Y0328277D01*
X0107370Y0327793D01*
X0108822Y0327793D02*
X0108822Y0327310D01*
X0109789Y0329289D02*
X0110273Y0329773D01*
X0110273Y0330740D01*
X0109789Y0331224D01*
X0107854Y0329289D01*
X0107370Y0329773D01*
X0107370Y0330740D01*
X0107854Y0331224D01*
X0109789Y0331224D01*
X0109789Y0329289D02*
X0107854Y0329289D01*
X0106978Y0339973D02*
X0107946Y0340940D01*
X0107462Y0340940D02*
X0108913Y0340940D01*
X0108913Y0339973D02*
X0108913Y0342875D01*
X0107462Y0342875D01*
X0106978Y0342392D01*
X0106978Y0341424D01*
X0107462Y0340940D01*
X0105966Y0339973D02*
X0104031Y0339973D01*
X0104999Y0339973D02*
X0104999Y0342875D01*
X0105966Y0341908D01*
X0103020Y0342392D02*
X0102536Y0342875D01*
X0101569Y0342875D01*
X0101085Y0342392D01*
X0101085Y0341908D01*
X0103020Y0339973D01*
X0101085Y0339973D01*
X0100073Y0340457D02*
X0100073Y0340940D01*
X0099590Y0341424D01*
X0098622Y0341424D01*
X0098138Y0340940D01*
X0098138Y0340457D01*
X0098622Y0339973D01*
X0099590Y0339973D01*
X0100073Y0340457D01*
X0099590Y0341424D02*
X0100073Y0341908D01*
X0100073Y0342392D01*
X0099590Y0342875D01*
X0098622Y0342875D01*
X0098138Y0342392D01*
X0098138Y0341908D01*
X0098622Y0341424D01*
X0098281Y0342280D02*
X0095378Y0342280D01*
X0095378Y0343247D02*
X0095378Y0341312D01*
X0095862Y0340301D02*
X0095378Y0339817D01*
X0095378Y0338850D01*
X0095862Y0338366D01*
X0095378Y0337354D02*
X0095378Y0335419D01*
X0095378Y0336387D02*
X0098281Y0336387D01*
X0097313Y0335419D01*
X0097797Y0334408D02*
X0098281Y0333924D01*
X0098281Y0332957D01*
X0097797Y0332473D01*
X0095862Y0332473D01*
X0095378Y0332957D01*
X0095378Y0333924D01*
X0095862Y0334408D01*
X0097797Y0338366D02*
X0098281Y0338850D01*
X0098281Y0339817D01*
X0097797Y0340301D01*
X0097313Y0340301D01*
X0096830Y0339817D01*
X0096346Y0340301D01*
X0095862Y0340301D01*
X0096830Y0339817D02*
X0096830Y0339333D01*
X0097313Y0341312D02*
X0098281Y0342280D01*
X0095923Y0327813D02*
X0095923Y0324911D01*
X0096890Y0324911D02*
X0094955Y0324911D01*
X0093944Y0324911D02*
X0092009Y0326846D01*
X0092009Y0324911D02*
X0093944Y0324911D01*
X0095923Y0327813D02*
X0096890Y0326846D01*
X0084316Y0348591D02*
X0084316Y0350042D01*
X0083833Y0350526D01*
X0082865Y0350526D01*
X0082381Y0350042D01*
X0082381Y0348591D01*
X0081414Y0348591D02*
X0084316Y0348591D01*
X0082381Y0349558D02*
X0081414Y0350526D01*
X0081414Y0351537D02*
X0081414Y0353472D01*
X0081414Y0352505D02*
X0084316Y0352505D01*
X0083349Y0351537D01*
X0083833Y0354484D02*
X0084316Y0354968D01*
X0084316Y0355935D01*
X0083833Y0356419D01*
X0083349Y0356419D01*
X0081414Y0354484D01*
X0081414Y0356419D01*
X0081898Y0357430D02*
X0081414Y0357914D01*
X0081414Y0358882D01*
X0081898Y0359365D01*
X0083833Y0359365D01*
X0084316Y0358882D01*
X0084316Y0357914D01*
X0083833Y0357430D01*
X0083349Y0357430D01*
X0082865Y0357914D01*
X0082865Y0359365D01*
X0079316Y0358882D02*
X0078833Y0359365D01*
X0076898Y0357430D01*
X0076414Y0357914D01*
X0076414Y0358882D01*
X0076898Y0359365D01*
X0078833Y0359365D01*
X0079316Y0358882D02*
X0079316Y0357914D01*
X0078833Y0357430D01*
X0076898Y0357430D01*
X0076898Y0356419D02*
X0076414Y0355935D01*
X0076414Y0354968D01*
X0076898Y0354484D01*
X0076414Y0353472D02*
X0076414Y0351537D01*
X0076414Y0352505D02*
X0079316Y0352505D01*
X0078349Y0351537D01*
X0078833Y0350526D02*
X0077865Y0350526D01*
X0077381Y0350042D01*
X0077381Y0348591D01*
X0076414Y0348591D02*
X0079316Y0348591D01*
X0079316Y0350042D01*
X0078833Y0350526D01*
X0077381Y0349558D02*
X0076414Y0350526D01*
X0074316Y0350042D02*
X0074316Y0349075D01*
X0073833Y0348591D01*
X0071898Y0348591D01*
X0071414Y0349075D01*
X0071414Y0350042D01*
X0071898Y0350526D01*
X0071414Y0351537D02*
X0071414Y0353472D01*
X0071414Y0352505D02*
X0074316Y0352505D01*
X0073349Y0351537D01*
X0073833Y0350526D02*
X0074316Y0350042D01*
X0073833Y0354484D02*
X0074316Y0354968D01*
X0074316Y0355935D01*
X0073833Y0356419D01*
X0073349Y0356419D01*
X0072865Y0355935D01*
X0072381Y0356419D01*
X0071898Y0356419D01*
X0071414Y0355935D01*
X0071414Y0354968D01*
X0071898Y0354484D01*
X0072865Y0355451D02*
X0072865Y0355935D01*
X0073833Y0357430D02*
X0074316Y0357914D01*
X0074316Y0358882D01*
X0073833Y0359365D01*
X0073349Y0359365D01*
X0071414Y0357430D01*
X0071414Y0359365D01*
X0076898Y0356419D02*
X0077381Y0356419D01*
X0077865Y0355935D01*
X0077865Y0355451D01*
X0077865Y0355935D02*
X0078349Y0356419D01*
X0078833Y0356419D01*
X0079316Y0355935D01*
X0079316Y0354968D01*
X0078833Y0354484D01*
X0075350Y0335249D02*
X0073899Y0335249D01*
X0073415Y0334766D01*
X0073415Y0333798D01*
X0073899Y0333314D01*
X0075350Y0333314D01*
X0075350Y0332347D02*
X0075350Y0335249D01*
X0074383Y0333314D02*
X0073415Y0332347D01*
X0072403Y0332347D02*
X0070469Y0332347D01*
X0071436Y0332347D02*
X0071436Y0335249D01*
X0072403Y0334282D01*
X0069457Y0334766D02*
X0068973Y0335249D01*
X0068006Y0335249D01*
X0067522Y0334766D01*
X0067522Y0334282D01*
X0069457Y0332347D01*
X0067522Y0332347D01*
X0066510Y0332347D02*
X0066510Y0332831D01*
X0064575Y0334766D01*
X0064575Y0335249D01*
X0066510Y0335249D01*
X0064227Y0321619D02*
X0063260Y0321619D01*
X0062776Y0321136D01*
X0062776Y0320652D01*
X0063260Y0320168D01*
X0062776Y0319684D01*
X0062776Y0319201D01*
X0063260Y0318717D01*
X0064227Y0318717D01*
X0064711Y0319201D01*
X0063744Y0320168D02*
X0063260Y0320168D01*
X0064227Y0321619D02*
X0064711Y0321136D01*
X0042247Y0310536D02*
X0042247Y0308601D01*
X0042247Y0309569D02*
X0039345Y0309569D01*
X0040312Y0308601D01*
X0039829Y0307589D02*
X0040796Y0307589D01*
X0041280Y0307106D01*
X0041280Y0305655D01*
X0042247Y0305655D02*
X0039345Y0305655D01*
X0039345Y0307106D01*
X0039829Y0307589D01*
X0039345Y0304643D02*
X0039345Y0302708D01*
X0042247Y0302708D01*
X0042247Y0304643D01*
X0040796Y0303675D02*
X0040796Y0302708D01*
X0039345Y0301696D02*
X0039345Y0299761D01*
X0039345Y0300729D02*
X0042247Y0300729D01*
X0041764Y0298750D02*
X0042247Y0298266D01*
X0042247Y0297299D01*
X0041764Y0296815D01*
X0040796Y0297299D02*
X0040312Y0296815D01*
X0039829Y0296815D01*
X0039345Y0297299D01*
X0039345Y0298266D01*
X0039829Y0298750D01*
X0040796Y0298266D02*
X0041280Y0298750D01*
X0041764Y0298750D01*
X0040796Y0298266D02*
X0040796Y0297299D01*
X0040648Y0374973D02*
X0041616Y0374973D01*
X0042099Y0375457D01*
X0040164Y0377392D01*
X0040164Y0375457D01*
X0040648Y0374973D01*
X0042099Y0375457D02*
X0042099Y0377392D01*
X0041616Y0377876D01*
X0040648Y0377876D01*
X0040164Y0377392D01*
X0043111Y0377392D02*
X0043111Y0375457D01*
X0043595Y0374973D01*
X0044562Y0374973D01*
X0045046Y0375457D01*
X0043111Y0377392D01*
X0043595Y0377876D01*
X0044562Y0377876D01*
X0045046Y0377392D01*
X0045046Y0375457D01*
X0046057Y0374973D02*
X0047992Y0374973D01*
X0047025Y0374973D02*
X0047025Y0377876D01*
X0047992Y0376908D01*
X0049004Y0377876D02*
X0049004Y0374973D01*
X0050939Y0377876D01*
X0050939Y0374973D01*
X0051936Y0374973D02*
X0052903Y0374973D01*
X0052419Y0374973D02*
X0052419Y0377876D01*
X0051936Y0377876D02*
X0052903Y0377876D01*
X0053915Y0377876D02*
X0055850Y0377876D01*
X0054882Y0377876D02*
X0054882Y0374973D01*
X0056861Y0375457D02*
X0056861Y0377392D01*
X0057345Y0377876D01*
X0058312Y0377876D01*
X0058796Y0377392D01*
X0058796Y0375457D01*
X0058312Y0374973D01*
X0057345Y0374973D01*
X0056861Y0375457D01*
X0059808Y0374973D02*
X0059808Y0377876D01*
X0060775Y0376908D01*
X0061743Y0377876D01*
X0061743Y0374973D01*
X0080473Y0396622D02*
X0079989Y0397106D01*
X0079989Y0397590D01*
X0080473Y0398074D01*
X0081924Y0398074D01*
X0081924Y0397106D01*
X0081440Y0396622D01*
X0080473Y0396622D01*
X0081924Y0398074D02*
X0080956Y0399041D01*
X0079989Y0399525D01*
X0082935Y0399041D02*
X0082935Y0398557D01*
X0083419Y0398074D01*
X0082935Y0397590D01*
X0082935Y0397106D01*
X0083419Y0396622D01*
X0084387Y0396622D01*
X0084870Y0397106D01*
X0085882Y0396622D02*
X0087817Y0396622D01*
X0086849Y0396622D02*
X0086849Y0399525D01*
X0087817Y0398557D01*
X0088828Y0399041D02*
X0089312Y0399525D01*
X0090280Y0399525D01*
X0090763Y0399041D01*
X0090763Y0397106D01*
X0090280Y0396622D01*
X0089312Y0396622D01*
X0088828Y0397106D01*
X0093402Y0397087D02*
X0095337Y0397087D01*
X0093402Y0399022D01*
X0093402Y0399506D01*
X0093886Y0399990D01*
X0094853Y0399990D01*
X0095337Y0399506D01*
X0096348Y0399506D02*
X0098283Y0397571D01*
X0097800Y0397087D01*
X0096832Y0397087D01*
X0096348Y0397571D01*
X0096348Y0399506D01*
X0096832Y0399990D01*
X0097800Y0399990D01*
X0098283Y0399506D01*
X0098283Y0397571D01*
X0099295Y0397087D02*
X0101230Y0397087D01*
X0100262Y0397087D02*
X0100262Y0399990D01*
X0101230Y0399022D01*
X0102241Y0399990D02*
X0102241Y0397087D01*
X0104176Y0399990D01*
X0104176Y0397087D01*
X0105173Y0397087D02*
X0106141Y0397087D01*
X0105657Y0397087D02*
X0105657Y0399990D01*
X0106141Y0399990D02*
X0105173Y0399990D01*
X0107152Y0399990D02*
X0109087Y0399990D01*
X0108120Y0399990D02*
X0108120Y0397087D01*
X0110099Y0397571D02*
X0110099Y0399506D01*
X0110583Y0399990D01*
X0111550Y0399990D01*
X0112034Y0399506D01*
X0112034Y0397571D01*
X0111550Y0397087D01*
X0110583Y0397087D01*
X0110099Y0397571D01*
X0113045Y0397087D02*
X0113045Y0399990D01*
X0114013Y0399022D01*
X0114980Y0399990D01*
X0114980Y0397087D01*
X0103385Y0393533D02*
X0103385Y0391598D01*
X0102902Y0391115D01*
X0101934Y0391115D01*
X0101450Y0391598D01*
X0100439Y0391115D02*
X0098504Y0391115D01*
X0099471Y0391115D02*
X0099471Y0394017D01*
X0100439Y0393050D01*
X0101450Y0393533D02*
X0101934Y0394017D01*
X0102902Y0394017D01*
X0103385Y0393533D01*
X0097492Y0393533D02*
X0097009Y0394017D01*
X0096041Y0394017D01*
X0095557Y0393533D01*
X0095557Y0393050D01*
X0096041Y0392566D01*
X0095557Y0392082D01*
X0095557Y0391598D01*
X0096041Y0391115D01*
X0097009Y0391115D01*
X0097492Y0391598D01*
X0096525Y0392566D02*
X0096041Y0392566D01*
X0094546Y0391598D02*
X0094546Y0391115D01*
X0094546Y0391598D02*
X0092611Y0393533D01*
X0092611Y0394017D01*
X0094546Y0394017D01*
X0094933Y0376816D02*
X0096384Y0375365D01*
X0094449Y0375365D01*
X0094933Y0373914D02*
X0094933Y0376816D01*
X0097396Y0376333D02*
X0097396Y0375849D01*
X0097880Y0375365D01*
X0097396Y0374881D01*
X0097396Y0374398D01*
X0097880Y0373914D01*
X0098847Y0373914D01*
X0099331Y0374398D01*
X0100343Y0373914D02*
X0102277Y0373914D01*
X0101310Y0373914D02*
X0101310Y0376816D01*
X0102277Y0375849D01*
X0103289Y0376333D02*
X0103773Y0376816D01*
X0104740Y0376816D01*
X0105224Y0376333D01*
X0105224Y0374398D01*
X0104740Y0373914D01*
X0103773Y0373914D01*
X0103289Y0374398D01*
X0099331Y0376333D02*
X0098847Y0376816D01*
X0097880Y0376816D01*
X0097396Y0376333D01*
X0097880Y0375365D02*
X0098363Y0375365D01*
X0083903Y0398074D02*
X0083419Y0398074D01*
X0082935Y0399041D02*
X0083419Y0399525D01*
X0084387Y0399525D01*
X0084870Y0399041D01*
X0087178Y0557021D02*
X0086694Y0557505D01*
X0086694Y0558473D01*
X0087178Y0558956D01*
X0086694Y0559968D02*
X0086694Y0561903D01*
X0086694Y0560935D02*
X0089597Y0560935D01*
X0088629Y0559968D01*
X0089113Y0558956D02*
X0089597Y0558473D01*
X0089597Y0557505D01*
X0089113Y0557021D01*
X0087178Y0557021D01*
X0086694Y0562914D02*
X0088629Y0564849D01*
X0089113Y0564849D01*
X0089597Y0564366D01*
X0089597Y0563398D01*
X0089113Y0562914D01*
X0086694Y0562914D02*
X0086694Y0564849D01*
X0086694Y0565861D02*
X0088629Y0567796D01*
X0089113Y0567796D01*
X0089597Y0567312D01*
X0089597Y0566345D01*
X0089113Y0565861D01*
X0086694Y0565861D02*
X0086694Y0567796D01*
D14*
X0080736Y0462043D02*
X0108736Y0462043D01*
X0109736Y0460043D01*
X0109736Y0428543D01*
X0111236Y0428543D01*
X0111236Y0453043D01*
X0109936Y0454443D01*
X0121543Y0453043D02*
X0121543Y0428543D01*
X0123043Y0428543D01*
X0123043Y0460043D01*
X0124043Y0462043D01*
X0152043Y0462043D01*
X0153043Y0460043D01*
X0153043Y0428543D01*
X0154543Y0428543D01*
X0154543Y0453043D01*
X0153243Y0454443D01*
X0161744Y0428937D02*
X0165244Y0428937D01*
X0165244Y0453437D01*
X0166544Y0454837D01*
X0166744Y0460437D02*
X0167744Y0462437D01*
X0195744Y0462437D01*
X0196744Y0460437D01*
X0196744Y0428937D01*
X0198244Y0428937D01*
X0198244Y0453437D01*
X0196944Y0454837D01*
X0196744Y0428937D02*
X0166744Y0428937D01*
X0166744Y0460437D01*
X0166744Y0428937D02*
X0165244Y0428937D01*
X0161744Y0428937D02*
X0161744Y0416437D01*
X0164244Y0416437D01*
X0164244Y0418937D01*
X0169244Y0418937D01*
X0169244Y0416437D01*
X0174244Y0416437D01*
X0174244Y0418937D01*
X0179244Y0418937D01*
X0179244Y0416437D01*
X0184244Y0416437D01*
X0184244Y0418937D01*
X0189244Y0418937D01*
X0189244Y0416437D01*
X0194244Y0416437D01*
X0194244Y0418937D01*
X0199244Y0418937D01*
X0199244Y0416437D01*
X0201744Y0416437D01*
X0201744Y0428937D01*
X0198244Y0428937D01*
X0158043Y0428543D02*
X0158043Y0416043D01*
X0155543Y0416043D01*
X0155543Y0418543D01*
X0150543Y0418543D01*
X0150543Y0416043D01*
X0145543Y0416043D01*
X0145543Y0418543D01*
X0140543Y0418543D01*
X0140543Y0416043D01*
X0135543Y0416043D01*
X0135543Y0418543D01*
X0130543Y0418543D01*
X0130543Y0416043D01*
X0125543Y0416043D01*
X0125543Y0418543D01*
X0120543Y0418543D01*
X0120543Y0416043D01*
X0118043Y0416043D01*
X0118043Y0428543D01*
X0121543Y0428543D01*
X0123043Y0428543D02*
X0153043Y0428543D01*
X0154543Y0428543D02*
X0158043Y0428543D01*
X0122843Y0454443D02*
X0121543Y0453043D01*
X0114736Y0428543D02*
X0111236Y0428543D01*
X0109736Y0428543D02*
X0079736Y0428543D01*
X0079736Y0460043D01*
X0080736Y0462043D01*
X0079536Y0454443D02*
X0078236Y0453043D01*
X0078236Y0428543D01*
X0079736Y0428543D01*
X0078236Y0428543D02*
X0074736Y0428543D01*
X0074736Y0416043D01*
X0077236Y0416043D01*
X0077236Y0418543D01*
X0082236Y0418543D01*
X0082236Y0416043D01*
X0087236Y0416043D01*
X0087236Y0418543D01*
X0092236Y0418543D01*
X0092236Y0416043D01*
X0097236Y0416043D01*
X0097236Y0418543D01*
X0102236Y0418543D01*
X0102236Y0416043D01*
X0107236Y0416043D01*
X0107236Y0418543D01*
X0112236Y0418543D01*
X0112236Y0416043D01*
X0114736Y0416043D01*
X0114736Y0428543D01*
X0119214Y0352638D02*
X0119216Y0352705D01*
X0119222Y0352771D01*
X0119232Y0352837D01*
X0119246Y0352902D01*
X0119263Y0352966D01*
X0119285Y0353029D01*
X0119310Y0353091D01*
X0119339Y0353151D01*
X0119372Y0353209D01*
X0119407Y0353265D01*
X0119447Y0353319D01*
X0119489Y0353370D01*
X0119534Y0353419D01*
X0119582Y0353465D01*
X0119633Y0353508D01*
X0119686Y0353548D01*
X0119742Y0353585D01*
X0119800Y0353618D01*
X0119859Y0353648D01*
X0119920Y0353674D01*
X0119983Y0353697D01*
X0120047Y0353715D01*
X0120112Y0353730D01*
X0120178Y0353741D01*
X0120244Y0353748D01*
X0120310Y0353751D01*
X0120377Y0353750D01*
X0120443Y0353745D01*
X0120509Y0353736D01*
X0120575Y0353723D01*
X0120639Y0353706D01*
X0120702Y0353686D01*
X0120764Y0353661D01*
X0120825Y0353633D01*
X0120884Y0353602D01*
X0120940Y0353567D01*
X0120995Y0353529D01*
X0121047Y0353487D01*
X0121096Y0353442D01*
X0121143Y0353395D01*
X0121187Y0353345D01*
X0121227Y0353292D01*
X0121265Y0353237D01*
X0121299Y0353180D01*
X0121330Y0353121D01*
X0121357Y0353060D01*
X0121380Y0352998D01*
X0121400Y0352934D01*
X0121416Y0352869D01*
X0121428Y0352804D01*
X0121436Y0352738D01*
X0121440Y0352671D01*
X0121440Y0352605D01*
X0121436Y0352538D01*
X0121428Y0352472D01*
X0121416Y0352407D01*
X0121400Y0352342D01*
X0121380Y0352278D01*
X0121357Y0352216D01*
X0121330Y0352155D01*
X0121299Y0352096D01*
X0121265Y0352039D01*
X0121227Y0351984D01*
X0121187Y0351931D01*
X0121143Y0351881D01*
X0121096Y0351834D01*
X0121047Y0351789D01*
X0120995Y0351747D01*
X0120940Y0351709D01*
X0120883Y0351674D01*
X0120825Y0351643D01*
X0120764Y0351615D01*
X0120702Y0351590D01*
X0120639Y0351570D01*
X0120575Y0351553D01*
X0120509Y0351540D01*
X0120443Y0351531D01*
X0120377Y0351526D01*
X0120310Y0351525D01*
X0120244Y0351528D01*
X0120178Y0351535D01*
X0120112Y0351546D01*
X0120047Y0351561D01*
X0119983Y0351579D01*
X0119920Y0351602D01*
X0119859Y0351628D01*
X0119800Y0351658D01*
X0119742Y0351691D01*
X0119686Y0351728D01*
X0119633Y0351768D01*
X0119582Y0351811D01*
X0119534Y0351857D01*
X0119489Y0351906D01*
X0119447Y0351957D01*
X0119407Y0352011D01*
X0119372Y0352067D01*
X0119339Y0352125D01*
X0119310Y0352185D01*
X0119285Y0352247D01*
X0119263Y0352310D01*
X0119246Y0352374D01*
X0119232Y0352439D01*
X0119222Y0352505D01*
X0119216Y0352571D01*
X0119214Y0352638D01*
X0047866Y0355138D02*
X0047866Y0350138D01*
X0045366Y0350138D01*
X0045366Y0345138D01*
X0047866Y0345138D01*
X0047866Y0340138D01*
X0045366Y0340138D01*
X0045366Y0335138D01*
X0047866Y0335138D01*
X0047866Y0332638D01*
X0035366Y0332638D01*
X0035366Y0336138D01*
X0010866Y0336138D01*
X0009466Y0337438D01*
X0003866Y0337638D02*
X0001866Y0338638D01*
X0001866Y0366638D01*
X0003866Y0367638D01*
X0035366Y0367638D01*
X0035366Y0369138D01*
X0010866Y0369138D01*
X0009466Y0367838D01*
X0003866Y0337638D02*
X0035366Y0337638D01*
X0035366Y0367638D01*
X0035366Y0369138D02*
X0035366Y0372638D01*
X0047866Y0372638D01*
X0047866Y0370138D01*
X0045366Y0370138D01*
X0045366Y0365138D01*
X0047866Y0365138D01*
X0047866Y0360138D01*
X0045366Y0360138D01*
X0045366Y0355138D01*
X0047866Y0355138D01*
X0035366Y0337638D02*
X0035366Y0336138D01*
X0035000Y0170197D02*
X0035000Y0166697D01*
X0010500Y0166697D01*
X0009100Y0165397D01*
X0009100Y0154997D02*
X0010500Y0153697D01*
X0035000Y0153697D01*
X0035000Y0155197D01*
X0003500Y0155197D01*
X0001500Y0156197D01*
X0001500Y0164197D01*
X0003500Y0165197D01*
X0035000Y0165197D01*
X0035000Y0166697D01*
X0035000Y0165197D02*
X0035000Y0155197D01*
X0035000Y0153697D02*
X0035000Y0150197D01*
X0047500Y0150197D01*
X0047500Y0152697D01*
X0045000Y0152697D01*
X0045000Y0157697D01*
X0047500Y0157697D01*
X0047500Y0162697D01*
X0045000Y0162697D01*
X0045000Y0167697D01*
X0047500Y0167697D01*
X0047500Y0170197D01*
X0035000Y0170197D01*
X0035000Y0112697D02*
X0035000Y0109197D01*
X0010500Y0109197D01*
X0009100Y0107897D01*
X0009100Y0097497D02*
X0010500Y0096197D01*
X0035000Y0096197D01*
X0035000Y0097697D01*
X0003500Y0097697D01*
X0001500Y0098697D01*
X0001500Y0106697D01*
X0003500Y0107697D01*
X0035000Y0107697D01*
X0035000Y0109197D01*
X0035000Y0107697D02*
X0035000Y0097697D01*
X0035000Y0096197D02*
X0035000Y0092697D01*
X0047500Y0092697D01*
X0047500Y0095197D01*
X0045000Y0095197D01*
X0045000Y0100197D01*
X0047500Y0100197D01*
X0047500Y0105197D01*
X0045000Y0105197D01*
X0045000Y0110197D01*
X0047500Y0110197D01*
X0047500Y0112697D01*
X0035000Y0112697D01*
X0079343Y0047500D02*
X0079343Y0035000D01*
X0084343Y0035000D01*
X0084343Y0003500D01*
X0085343Y0001500D01*
X0099543Y0001500D01*
X0099143Y0001500D02*
X0103343Y0001500D01*
X0104343Y0003500D01*
X0104343Y0035000D01*
X0105843Y0035000D02*
X0105843Y0010500D01*
X0104543Y0009100D01*
X0116307Y0010500D02*
X0116307Y0035000D01*
X0117807Y0035000D02*
X0117807Y0003500D01*
X0118807Y0001500D01*
X0133007Y0001500D01*
X0132607Y0001500D02*
X0136807Y0001500D01*
X0137807Y0003500D01*
X0137807Y0035000D01*
X0139307Y0035000D02*
X0139307Y0010500D01*
X0138007Y0009100D01*
X0150165Y0010500D02*
X0150165Y0035000D01*
X0151665Y0035000D02*
X0151665Y0003500D01*
X0152665Y0001500D01*
X0166865Y0001500D01*
X0166465Y0001500D02*
X0170665Y0001500D01*
X0171665Y0003500D01*
X0171665Y0035000D01*
X0173165Y0035000D02*
X0173165Y0010500D01*
X0171865Y0009100D01*
X0173165Y0035000D02*
X0176665Y0035000D01*
X0176665Y0047500D01*
X0174165Y0047500D01*
X0174165Y0045000D01*
X0169165Y0045000D01*
X0169165Y0047500D01*
X0164165Y0047500D01*
X0164165Y0045000D01*
X0159165Y0045000D01*
X0159165Y0047500D01*
X0154165Y0047500D01*
X0154165Y0045000D01*
X0149165Y0045000D01*
X0149165Y0047500D01*
X0146665Y0047500D01*
X0146665Y0035000D01*
X0151665Y0035000D01*
X0142807Y0035000D02*
X0139307Y0035000D01*
X0140307Y0045000D02*
X0140307Y0047500D01*
X0142807Y0047500D01*
X0142807Y0035000D01*
X0140307Y0045000D02*
X0135307Y0045000D01*
X0135307Y0047500D01*
X0130307Y0047500D01*
X0130307Y0045000D01*
X0125307Y0045000D01*
X0125307Y0047500D01*
X0120307Y0047500D01*
X0120307Y0045000D01*
X0115307Y0045000D01*
X0115307Y0047500D01*
X0112807Y0047500D01*
X0112807Y0035000D01*
X0117807Y0035000D01*
X0109343Y0035000D02*
X0105843Y0035000D01*
X0106843Y0045000D02*
X0101843Y0045000D01*
X0101843Y0047500D01*
X0096843Y0047500D01*
X0096843Y0045000D01*
X0091843Y0045000D01*
X0091843Y0047500D01*
X0086843Y0047500D01*
X0086843Y0045000D01*
X0081843Y0045000D01*
X0081843Y0047500D01*
X0079343Y0047500D01*
X0082843Y0035000D02*
X0082843Y0010500D01*
X0084143Y0009100D01*
X0106843Y0045000D02*
X0106843Y0047500D01*
X0109343Y0047500D01*
X0109343Y0035000D01*
X0116307Y0010500D02*
X0117607Y0009100D01*
X0150165Y0010500D02*
X0151465Y0009100D01*
X0182531Y0034528D02*
X0182531Y0059331D01*
X0243161Y0059331D01*
X0243161Y0034528D01*
X0223476Y0034528D01*
X0223476Y0008543D01*
X0202217Y0008543D01*
X0202217Y0034528D01*
X0182531Y0034528D01*
X0202217Y0058543D02*
X0202217Y0067205D01*
D15*
X0173025Y0040004D02*
X0172308Y0040721D01*
X0171590Y0040721D01*
X0170873Y0040004D01*
X0170156Y0040721D01*
X0169439Y0040721D01*
X0168721Y0040004D01*
X0168721Y0038569D01*
X0169439Y0037852D01*
X0170873Y0039287D02*
X0170873Y0040004D01*
X0173025Y0040004D02*
X0173025Y0038569D01*
X0172308Y0037852D01*
X0153225Y0038787D02*
X0148921Y0038787D01*
X0148921Y0040221D02*
X0148921Y0037352D01*
X0151790Y0037352D02*
X0153225Y0038787D01*
X0139167Y0038569D02*
X0139167Y0040004D01*
X0138449Y0040721D01*
X0137732Y0040721D01*
X0137015Y0040004D01*
X0136298Y0040721D01*
X0135580Y0040721D01*
X0134863Y0040004D01*
X0134863Y0038569D01*
X0135580Y0037852D01*
X0137015Y0039287D02*
X0137015Y0040004D01*
X0138449Y0037852D02*
X0139167Y0038569D01*
X0119367Y0038787D02*
X0115063Y0038787D01*
X0115063Y0040221D02*
X0115063Y0037352D01*
X0117932Y0037352D02*
X0119367Y0038787D01*
X0105702Y0038569D02*
X0105702Y0040004D01*
X0104985Y0040721D01*
X0104268Y0040721D01*
X0103550Y0040004D01*
X0102833Y0040721D01*
X0102116Y0040721D01*
X0101398Y0040004D01*
X0101398Y0038569D01*
X0102116Y0037852D01*
X0103550Y0039287D02*
X0103550Y0040004D01*
X0104985Y0037852D02*
X0105702Y0038569D01*
X0085902Y0038787D02*
X0081598Y0038787D01*
X0081598Y0040221D02*
X0081598Y0037352D01*
X0084468Y0037352D02*
X0085902Y0038787D01*
X0041756Y0096341D02*
X0038887Y0099210D01*
X0038887Y0099927D01*
X0039604Y0100645D01*
X0041039Y0100645D01*
X0041756Y0099927D01*
X0041756Y0096341D02*
X0038887Y0096341D01*
X0038387Y0106141D02*
X0041256Y0106141D01*
X0039821Y0106141D02*
X0039821Y0110445D01*
X0041256Y0109010D01*
X0041756Y0153841D02*
X0038887Y0153841D01*
X0041756Y0153841D02*
X0038887Y0156710D01*
X0038887Y0157427D01*
X0039604Y0158145D01*
X0041039Y0158145D01*
X0041756Y0157427D01*
X0041256Y0163641D02*
X0038387Y0163641D01*
X0039821Y0163641D02*
X0039821Y0167945D01*
X0041256Y0166510D01*
X0039970Y0336282D02*
X0039970Y0340586D01*
X0042122Y0338434D01*
X0039253Y0338434D01*
X0038753Y0366082D02*
X0041622Y0366082D01*
X0040188Y0366082D02*
X0040188Y0370386D01*
X0041622Y0368951D01*
X0078380Y0423939D02*
X0082684Y0423939D01*
X0080532Y0421787D01*
X0080532Y0424657D01*
X0108180Y0425157D02*
X0108180Y0422287D01*
X0108180Y0423722D02*
X0112484Y0423722D01*
X0111049Y0422287D01*
X0121687Y0423939D02*
X0125991Y0423939D01*
X0123839Y0421787D01*
X0123839Y0424657D01*
X0151487Y0425157D02*
X0151487Y0422287D01*
X0151487Y0423722D02*
X0155791Y0423722D01*
X0154357Y0422287D01*
X0165388Y0424333D02*
X0169692Y0424333D01*
X0167540Y0422181D01*
X0167540Y0425050D01*
X0195188Y0425550D02*
X0195188Y0422681D01*
X0195188Y0424116D02*
X0199492Y0424116D01*
X0198057Y0422681D01*
D16*
X0154972Y0385709D02*
X0154972Y0351063D01*
X0153398Y0349488D01*
X0118752Y0349488D01*
X0117177Y0351063D01*
X0117177Y0385709D01*
X0118752Y0387283D01*
X0153398Y0387283D01*
X0154972Y0385709D01*
X0090559Y0386512D02*
X0090559Y0395173D01*
X0068118Y0395173D01*
X0064575Y0391630D01*
X0064575Y0386512D01*
X0064575Y0377850D02*
X0064575Y0372732D01*
X0068118Y0369189D01*
X0090559Y0369189D01*
X0090559Y0377850D01*
X0089181Y0385921D02*
X0089087Y0386202D01*
X0088985Y0386481D01*
X0088877Y0386757D01*
X0088762Y0387030D01*
X0088641Y0387301D01*
X0088513Y0387568D01*
X0088378Y0387833D01*
X0088237Y0388094D01*
X0088090Y0388351D01*
X0087937Y0388605D01*
X0087777Y0388855D01*
X0087612Y0389101D01*
X0087440Y0389343D01*
X0087263Y0389580D01*
X0087080Y0389814D01*
X0086891Y0390042D01*
X0086696Y0390267D01*
X0086497Y0390486D01*
X0086292Y0390700D01*
X0086082Y0390909D01*
X0085867Y0391113D01*
X0085646Y0391312D01*
X0085422Y0391506D01*
X0085192Y0391693D01*
X0084958Y0391876D01*
X0084720Y0392052D01*
X0084477Y0392223D01*
X0084231Y0392387D01*
X0083980Y0392546D01*
X0083726Y0392698D01*
X0083467Y0392844D01*
X0083206Y0392984D01*
X0082941Y0393118D01*
X0082673Y0393245D01*
X0082402Y0393365D01*
X0082128Y0393479D01*
X0081852Y0393586D01*
X0081572Y0393686D01*
X0081291Y0393779D01*
X0081007Y0393866D01*
X0080722Y0393945D01*
X0080434Y0394018D01*
X0080145Y0394084D01*
X0079854Y0394142D01*
X0079562Y0394193D01*
X0079269Y0394238D01*
X0078975Y0394275D01*
X0078680Y0394305D01*
X0078384Y0394328D01*
X0078088Y0394343D01*
X0077791Y0394351D01*
X0077495Y0394353D01*
X0077198Y0394346D01*
X0076902Y0394333D01*
X0076606Y0394313D01*
X0076311Y0394285D01*
X0076017Y0394250D01*
X0075723Y0394208D01*
X0075431Y0394158D01*
X0075139Y0394102D01*
X0074850Y0394039D01*
X0074562Y0393968D01*
X0074275Y0393891D01*
X0073991Y0393806D01*
X0073709Y0393715D01*
X0073429Y0393617D01*
X0073152Y0393512D01*
X0072877Y0393400D01*
X0072605Y0393282D01*
X0072336Y0393157D01*
X0072070Y0393025D01*
X0071808Y0392888D01*
X0071549Y0392743D01*
X0071293Y0392593D01*
X0071041Y0392436D01*
X0070793Y0392273D01*
X0070550Y0392105D01*
X0070310Y0391930D01*
X0070075Y0391749D01*
X0069844Y0391563D01*
X0069617Y0391372D01*
X0069396Y0391175D01*
X0069179Y0390972D01*
X0068968Y0390764D01*
X0068761Y0390552D01*
X0068560Y0390334D01*
X0068364Y0390111D01*
X0068173Y0389884D01*
X0067988Y0389652D01*
X0067809Y0389416D01*
X0067636Y0389175D01*
X0067469Y0388930D01*
X0067307Y0388681D01*
X0067152Y0388429D01*
X0067003Y0388172D01*
X0066860Y0387913D01*
X0066723Y0387649D01*
X0066593Y0387383D01*
X0066470Y0387113D01*
X0066353Y0386841D01*
X0066243Y0386565D01*
X0066140Y0386287D01*
X0066043Y0386007D01*
X0065953Y0385724D01*
X0065953Y0378441D02*
X0066047Y0378160D01*
X0066149Y0377881D01*
X0066257Y0377605D01*
X0066372Y0377332D01*
X0066493Y0377061D01*
X0066621Y0376794D01*
X0066756Y0376529D01*
X0066897Y0376268D01*
X0067044Y0376011D01*
X0067197Y0375757D01*
X0067357Y0375507D01*
X0067522Y0375261D01*
X0067694Y0375019D01*
X0067871Y0374782D01*
X0068054Y0374548D01*
X0068243Y0374320D01*
X0068438Y0374095D01*
X0068637Y0373876D01*
X0068842Y0373662D01*
X0069052Y0373453D01*
X0069267Y0373249D01*
X0069488Y0373050D01*
X0069712Y0372856D01*
X0069942Y0372669D01*
X0070176Y0372486D01*
X0070414Y0372310D01*
X0070657Y0372139D01*
X0070903Y0371975D01*
X0071154Y0371816D01*
X0071408Y0371664D01*
X0071667Y0371518D01*
X0071928Y0371378D01*
X0072193Y0371244D01*
X0072461Y0371117D01*
X0072732Y0370997D01*
X0073006Y0370883D01*
X0073282Y0370776D01*
X0073562Y0370676D01*
X0073843Y0370583D01*
X0074127Y0370496D01*
X0074412Y0370417D01*
X0074700Y0370344D01*
X0074989Y0370278D01*
X0075280Y0370220D01*
X0075572Y0370169D01*
X0075865Y0370124D01*
X0076159Y0370087D01*
X0076454Y0370057D01*
X0076750Y0370034D01*
X0077046Y0370019D01*
X0077343Y0370011D01*
X0077639Y0370009D01*
X0077936Y0370016D01*
X0078232Y0370029D01*
X0078528Y0370049D01*
X0078823Y0370077D01*
X0079117Y0370112D01*
X0079411Y0370154D01*
X0079703Y0370204D01*
X0079995Y0370260D01*
X0080284Y0370323D01*
X0080572Y0370394D01*
X0080859Y0370471D01*
X0081143Y0370556D01*
X0081425Y0370647D01*
X0081705Y0370745D01*
X0081982Y0370850D01*
X0082257Y0370962D01*
X0082529Y0371080D01*
X0082798Y0371205D01*
X0083064Y0371337D01*
X0083326Y0371474D01*
X0083585Y0371619D01*
X0083841Y0371769D01*
X0084093Y0371926D01*
X0084341Y0372089D01*
X0084584Y0372257D01*
X0084824Y0372432D01*
X0085059Y0372613D01*
X0085290Y0372799D01*
X0085517Y0372990D01*
X0085738Y0373187D01*
X0085955Y0373390D01*
X0086166Y0373598D01*
X0086373Y0373810D01*
X0086574Y0374028D01*
X0086770Y0374251D01*
X0086961Y0374478D01*
X0087146Y0374710D01*
X0087325Y0374946D01*
X0087498Y0375187D01*
X0087665Y0375432D01*
X0087827Y0375681D01*
X0087982Y0375933D01*
X0088131Y0376190D01*
X0088274Y0376449D01*
X0088411Y0376713D01*
X0088541Y0376979D01*
X0088664Y0377249D01*
X0088781Y0377521D01*
X0088891Y0377797D01*
X0088994Y0378075D01*
X0089091Y0378355D01*
X0089181Y0378638D01*
X0067815Y0278539D02*
X0059154Y0278539D01*
X0051083Y0277161D02*
X0050802Y0277067D01*
X0050523Y0276965D01*
X0050247Y0276857D01*
X0049974Y0276742D01*
X0049703Y0276621D01*
X0049436Y0276493D01*
X0049171Y0276358D01*
X0048910Y0276217D01*
X0048653Y0276070D01*
X0048399Y0275917D01*
X0048149Y0275757D01*
X0047903Y0275592D01*
X0047661Y0275420D01*
X0047424Y0275243D01*
X0047190Y0275060D01*
X0046962Y0274871D01*
X0046737Y0274676D01*
X0046518Y0274477D01*
X0046304Y0274272D01*
X0046095Y0274062D01*
X0045891Y0273847D01*
X0045692Y0273626D01*
X0045498Y0273402D01*
X0045311Y0273172D01*
X0045128Y0272938D01*
X0044952Y0272700D01*
X0044781Y0272457D01*
X0044617Y0272211D01*
X0044458Y0271960D01*
X0044306Y0271706D01*
X0044160Y0271447D01*
X0044020Y0271186D01*
X0043886Y0270921D01*
X0043759Y0270653D01*
X0043639Y0270382D01*
X0043525Y0270108D01*
X0043418Y0269832D01*
X0043318Y0269552D01*
X0043225Y0269271D01*
X0043138Y0268987D01*
X0043059Y0268702D01*
X0042986Y0268414D01*
X0042920Y0268125D01*
X0042862Y0267834D01*
X0042811Y0267542D01*
X0042766Y0267249D01*
X0042729Y0266955D01*
X0042699Y0266660D01*
X0042676Y0266364D01*
X0042661Y0266068D01*
X0042653Y0265771D01*
X0042651Y0265475D01*
X0042658Y0265178D01*
X0042671Y0264882D01*
X0042691Y0264586D01*
X0042719Y0264291D01*
X0042754Y0263997D01*
X0042796Y0263703D01*
X0042846Y0263411D01*
X0042902Y0263119D01*
X0042965Y0262830D01*
X0043036Y0262542D01*
X0043113Y0262255D01*
X0043198Y0261971D01*
X0043289Y0261689D01*
X0043387Y0261409D01*
X0043492Y0261132D01*
X0043604Y0260857D01*
X0043722Y0260585D01*
X0043847Y0260316D01*
X0043979Y0260050D01*
X0044116Y0259788D01*
X0044261Y0259529D01*
X0044411Y0259273D01*
X0044568Y0259021D01*
X0044731Y0258773D01*
X0044899Y0258530D01*
X0045074Y0258290D01*
X0045255Y0258055D01*
X0045441Y0257824D01*
X0045632Y0257597D01*
X0045829Y0257376D01*
X0046032Y0257159D01*
X0046240Y0256948D01*
X0046452Y0256741D01*
X0046670Y0256540D01*
X0046893Y0256344D01*
X0047120Y0256153D01*
X0047352Y0255968D01*
X0047588Y0255789D01*
X0047829Y0255616D01*
X0048074Y0255449D01*
X0048323Y0255287D01*
X0048575Y0255132D01*
X0048832Y0254983D01*
X0049091Y0254840D01*
X0049355Y0254703D01*
X0049621Y0254573D01*
X0049891Y0254450D01*
X0050163Y0254333D01*
X0050439Y0254223D01*
X0050717Y0254120D01*
X0050997Y0254023D01*
X0051280Y0253933D01*
X0050492Y0252555D02*
X0045374Y0252555D01*
X0041831Y0256098D01*
X0041831Y0278539D01*
X0050492Y0278539D01*
X0058366Y0277161D02*
X0058649Y0277071D01*
X0058929Y0276974D01*
X0059207Y0276871D01*
X0059483Y0276761D01*
X0059755Y0276644D01*
X0060025Y0276521D01*
X0060291Y0276391D01*
X0060555Y0276254D01*
X0060814Y0276111D01*
X0061071Y0275962D01*
X0061323Y0275807D01*
X0061572Y0275645D01*
X0061817Y0275478D01*
X0062058Y0275305D01*
X0062294Y0275126D01*
X0062526Y0274941D01*
X0062753Y0274750D01*
X0062976Y0274554D01*
X0063194Y0274353D01*
X0063406Y0274146D01*
X0063614Y0273935D01*
X0063817Y0273718D01*
X0064014Y0273497D01*
X0064205Y0273270D01*
X0064391Y0273039D01*
X0064572Y0272804D01*
X0064747Y0272564D01*
X0064915Y0272321D01*
X0065078Y0272073D01*
X0065235Y0271821D01*
X0065385Y0271565D01*
X0065530Y0271306D01*
X0065667Y0271044D01*
X0065799Y0270778D01*
X0065924Y0270509D01*
X0066042Y0270237D01*
X0066154Y0269962D01*
X0066259Y0269685D01*
X0066357Y0269405D01*
X0066448Y0269123D01*
X0066533Y0268839D01*
X0066610Y0268552D01*
X0066681Y0268264D01*
X0066744Y0267975D01*
X0066800Y0267683D01*
X0066850Y0267391D01*
X0066892Y0267097D01*
X0066927Y0266803D01*
X0066955Y0266508D01*
X0066975Y0266212D01*
X0066988Y0265916D01*
X0066995Y0265619D01*
X0066993Y0265323D01*
X0066985Y0265026D01*
X0066970Y0264730D01*
X0066947Y0264434D01*
X0066917Y0264139D01*
X0066880Y0263845D01*
X0066835Y0263552D01*
X0066784Y0263260D01*
X0066726Y0262969D01*
X0066660Y0262680D01*
X0066587Y0262392D01*
X0066508Y0262107D01*
X0066421Y0261823D01*
X0066328Y0261542D01*
X0066228Y0261262D01*
X0066121Y0260986D01*
X0066007Y0260712D01*
X0065887Y0260441D01*
X0065760Y0260173D01*
X0065626Y0259908D01*
X0065486Y0259647D01*
X0065340Y0259388D01*
X0065188Y0259134D01*
X0065029Y0258883D01*
X0064865Y0258637D01*
X0064694Y0258394D01*
X0064518Y0258156D01*
X0064335Y0257922D01*
X0064148Y0257692D01*
X0063954Y0257468D01*
X0063755Y0257247D01*
X0063551Y0257032D01*
X0063342Y0256822D01*
X0063128Y0256617D01*
X0062909Y0256418D01*
X0062684Y0256223D01*
X0062456Y0256034D01*
X0062222Y0255851D01*
X0061985Y0255674D01*
X0061743Y0255502D01*
X0061497Y0255337D01*
X0061247Y0255177D01*
X0060993Y0255024D01*
X0060736Y0254877D01*
X0060475Y0254736D01*
X0060210Y0254601D01*
X0059943Y0254473D01*
X0059672Y0254352D01*
X0059399Y0254237D01*
X0059123Y0254129D01*
X0058844Y0254027D01*
X0058563Y0253933D01*
X0059154Y0252555D02*
X0064272Y0252555D01*
X0067815Y0256098D01*
X0067815Y0278539D01*
X0068630Y0200528D02*
X0059969Y0200528D01*
X0068630Y0200528D02*
X0068630Y0178087D01*
X0065087Y0174543D01*
X0059969Y0174543D01*
X0059378Y0175922D02*
X0059659Y0176016D01*
X0059938Y0176118D01*
X0060214Y0176226D01*
X0060487Y0176341D01*
X0060758Y0176462D01*
X0061025Y0176590D01*
X0061290Y0176725D01*
X0061551Y0176866D01*
X0061808Y0177013D01*
X0062062Y0177166D01*
X0062312Y0177326D01*
X0062558Y0177491D01*
X0062800Y0177663D01*
X0063037Y0177840D01*
X0063271Y0178023D01*
X0063499Y0178212D01*
X0063724Y0178407D01*
X0063943Y0178606D01*
X0064157Y0178811D01*
X0064366Y0179021D01*
X0064570Y0179236D01*
X0064769Y0179457D01*
X0064963Y0179681D01*
X0065150Y0179911D01*
X0065333Y0180145D01*
X0065509Y0180383D01*
X0065680Y0180626D01*
X0065844Y0180872D01*
X0066003Y0181123D01*
X0066155Y0181377D01*
X0066301Y0181636D01*
X0066441Y0181897D01*
X0066575Y0182162D01*
X0066702Y0182430D01*
X0066822Y0182701D01*
X0066936Y0182975D01*
X0067043Y0183251D01*
X0067143Y0183531D01*
X0067236Y0183812D01*
X0067323Y0184096D01*
X0067402Y0184381D01*
X0067475Y0184669D01*
X0067541Y0184958D01*
X0067599Y0185249D01*
X0067650Y0185541D01*
X0067695Y0185834D01*
X0067732Y0186128D01*
X0067762Y0186423D01*
X0067785Y0186719D01*
X0067800Y0187015D01*
X0067808Y0187312D01*
X0067810Y0187608D01*
X0067803Y0187905D01*
X0067790Y0188201D01*
X0067770Y0188497D01*
X0067742Y0188792D01*
X0067707Y0189086D01*
X0067665Y0189380D01*
X0067615Y0189672D01*
X0067559Y0189964D01*
X0067496Y0190253D01*
X0067425Y0190541D01*
X0067348Y0190828D01*
X0067263Y0191112D01*
X0067172Y0191394D01*
X0067074Y0191674D01*
X0066969Y0191951D01*
X0066857Y0192226D01*
X0066739Y0192498D01*
X0066614Y0192767D01*
X0066482Y0193033D01*
X0066345Y0193295D01*
X0066200Y0193554D01*
X0066050Y0193810D01*
X0065893Y0194062D01*
X0065730Y0194310D01*
X0065562Y0194553D01*
X0065387Y0194793D01*
X0065206Y0195028D01*
X0065020Y0195259D01*
X0064829Y0195486D01*
X0064632Y0195707D01*
X0064429Y0195924D01*
X0064221Y0196135D01*
X0064009Y0196342D01*
X0063791Y0196543D01*
X0063568Y0196739D01*
X0063341Y0196930D01*
X0063109Y0197115D01*
X0062873Y0197294D01*
X0062632Y0197467D01*
X0062387Y0197634D01*
X0062138Y0197796D01*
X0061886Y0197951D01*
X0061629Y0198100D01*
X0061370Y0198243D01*
X0061106Y0198380D01*
X0060840Y0198510D01*
X0060570Y0198633D01*
X0060298Y0198750D01*
X0060022Y0198860D01*
X0059744Y0198963D01*
X0059464Y0199060D01*
X0059181Y0199150D01*
X0051898Y0199149D02*
X0051617Y0199055D01*
X0051338Y0198953D01*
X0051062Y0198845D01*
X0050789Y0198730D01*
X0050518Y0198609D01*
X0050251Y0198481D01*
X0049986Y0198346D01*
X0049725Y0198205D01*
X0049468Y0198058D01*
X0049214Y0197905D01*
X0048964Y0197745D01*
X0048718Y0197580D01*
X0048476Y0197408D01*
X0048239Y0197231D01*
X0048005Y0197048D01*
X0047777Y0196859D01*
X0047552Y0196664D01*
X0047333Y0196465D01*
X0047119Y0196260D01*
X0046910Y0196050D01*
X0046706Y0195835D01*
X0046507Y0195614D01*
X0046313Y0195390D01*
X0046126Y0195160D01*
X0045943Y0194926D01*
X0045767Y0194688D01*
X0045596Y0194445D01*
X0045432Y0194199D01*
X0045273Y0193948D01*
X0045121Y0193694D01*
X0044975Y0193435D01*
X0044835Y0193174D01*
X0044701Y0192909D01*
X0044574Y0192641D01*
X0044454Y0192370D01*
X0044340Y0192096D01*
X0044233Y0191820D01*
X0044133Y0191540D01*
X0044040Y0191259D01*
X0043953Y0190975D01*
X0043874Y0190690D01*
X0043801Y0190402D01*
X0043735Y0190113D01*
X0043677Y0189822D01*
X0043626Y0189530D01*
X0043581Y0189237D01*
X0043544Y0188943D01*
X0043514Y0188648D01*
X0043491Y0188352D01*
X0043476Y0188056D01*
X0043468Y0187759D01*
X0043466Y0187463D01*
X0043473Y0187166D01*
X0043486Y0186870D01*
X0043506Y0186574D01*
X0043534Y0186279D01*
X0043569Y0185985D01*
X0043611Y0185691D01*
X0043661Y0185399D01*
X0043717Y0185107D01*
X0043780Y0184818D01*
X0043851Y0184530D01*
X0043928Y0184243D01*
X0044013Y0183959D01*
X0044104Y0183677D01*
X0044202Y0183397D01*
X0044307Y0183120D01*
X0044419Y0182845D01*
X0044537Y0182573D01*
X0044662Y0182304D01*
X0044794Y0182038D01*
X0044931Y0181776D01*
X0045076Y0181517D01*
X0045226Y0181261D01*
X0045383Y0181009D01*
X0045546Y0180761D01*
X0045714Y0180518D01*
X0045889Y0180278D01*
X0046070Y0180043D01*
X0046256Y0179812D01*
X0046447Y0179585D01*
X0046644Y0179364D01*
X0046847Y0179147D01*
X0047055Y0178936D01*
X0047267Y0178729D01*
X0047485Y0178528D01*
X0047708Y0178332D01*
X0047935Y0178141D01*
X0048167Y0177956D01*
X0048403Y0177777D01*
X0048644Y0177604D01*
X0048889Y0177437D01*
X0049138Y0177275D01*
X0049390Y0177120D01*
X0049647Y0176971D01*
X0049906Y0176828D01*
X0050170Y0176691D01*
X0050436Y0176561D01*
X0050706Y0176438D01*
X0050978Y0176321D01*
X0051254Y0176211D01*
X0051532Y0176108D01*
X0051812Y0176011D01*
X0052095Y0175921D01*
X0051307Y0174543D02*
X0046189Y0174543D01*
X0042646Y0178087D01*
X0042646Y0200528D01*
X0051307Y0200528D01*
D17*
X0114815Y0353622D03*
X0114815Y0355591D03*
X0114815Y0357559D03*
X0114815Y0359528D03*
X0114815Y0361496D03*
X0114815Y0363465D03*
X0114815Y0365433D03*
X0114815Y0367402D03*
X0114815Y0369370D03*
X0114815Y0371339D03*
X0114815Y0373307D03*
X0114815Y0375276D03*
X0114815Y0377244D03*
X0114815Y0379213D03*
X0114815Y0381181D03*
X0114815Y0383150D03*
X0157335Y0383150D03*
X0157335Y0381181D03*
X0157335Y0379213D03*
X0157335Y0377244D03*
X0157335Y0375276D03*
X0157335Y0373307D03*
X0157335Y0371339D03*
X0157335Y0369370D03*
X0157335Y0367402D03*
X0157335Y0365433D03*
X0157335Y0363465D03*
X0157335Y0361496D03*
X0157335Y0359528D03*
X0157335Y0357559D03*
X0157335Y0355591D03*
X0157335Y0353622D03*
D18*
X0150839Y0347126D03*
X0148870Y0347126D03*
X0146902Y0347126D03*
X0144933Y0347126D03*
X0142965Y0347126D03*
X0140996Y0347126D03*
X0139028Y0347126D03*
X0137059Y0347126D03*
X0135091Y0347126D03*
X0133122Y0347126D03*
X0131154Y0347126D03*
X0129185Y0347126D03*
X0127217Y0347126D03*
X0125248Y0347126D03*
X0123280Y0347126D03*
X0121311Y0347126D03*
X0121311Y0389646D03*
X0123280Y0389646D03*
X0125248Y0389646D03*
X0127217Y0389646D03*
X0129185Y0389646D03*
X0131154Y0389646D03*
X0133122Y0389646D03*
X0135091Y0389646D03*
X0137059Y0389646D03*
X0139028Y0389646D03*
X0140996Y0389646D03*
X0142965Y0389646D03*
X0144933Y0389646D03*
X0146902Y0389646D03*
X0148870Y0389646D03*
X0150839Y0389646D03*
D19*
X0184823Y0392602D02*
X0188823Y0396102D01*
X0188823Y0396602D02*
X0184823Y0400102D01*
X0184823Y0392602D01*
X0193823Y0399102D02*
X0193823Y0373102D01*
X0209823Y0373102D01*
X0209823Y0399102D01*
X0193823Y0399102D01*
X0198772Y0319843D02*
X0198772Y0276929D01*
X0238142Y0276929D02*
X0238142Y0319843D01*
X0234933Y0134961D02*
X0204933Y0134961D01*
X0207728Y0132165D02*
X0207728Y0107756D01*
X0232138Y0107756D01*
X0232138Y0132165D01*
X0207728Y0132165D01*
X0214027Y0119961D02*
X0214029Y0120114D01*
X0214035Y0120268D01*
X0214045Y0120421D01*
X0214059Y0120573D01*
X0214077Y0120726D01*
X0214099Y0120877D01*
X0214124Y0121028D01*
X0214154Y0121179D01*
X0214188Y0121329D01*
X0214225Y0121477D01*
X0214266Y0121625D01*
X0214311Y0121771D01*
X0214360Y0121917D01*
X0214413Y0122061D01*
X0214469Y0122203D01*
X0214529Y0122344D01*
X0214593Y0122484D01*
X0214660Y0122622D01*
X0214731Y0122758D01*
X0214806Y0122892D01*
X0214883Y0123024D01*
X0214965Y0123154D01*
X0215049Y0123282D01*
X0215137Y0123408D01*
X0215228Y0123531D01*
X0215322Y0123652D01*
X0215420Y0123770D01*
X0215520Y0123886D01*
X0215624Y0123999D01*
X0215730Y0124110D01*
X0215839Y0124218D01*
X0215951Y0124323D01*
X0216065Y0124424D01*
X0216183Y0124523D01*
X0216302Y0124619D01*
X0216424Y0124712D01*
X0216549Y0124801D01*
X0216676Y0124888D01*
X0216805Y0124970D01*
X0216936Y0125050D01*
X0217069Y0125126D01*
X0217204Y0125199D01*
X0217341Y0125268D01*
X0217480Y0125333D01*
X0217620Y0125395D01*
X0217762Y0125453D01*
X0217905Y0125508D01*
X0218050Y0125559D01*
X0218196Y0125606D01*
X0218343Y0125649D01*
X0218491Y0125688D01*
X0218640Y0125724D01*
X0218790Y0125755D01*
X0218941Y0125783D01*
X0219092Y0125807D01*
X0219245Y0125827D01*
X0219397Y0125843D01*
X0219550Y0125855D01*
X0219703Y0125863D01*
X0219856Y0125867D01*
X0220010Y0125867D01*
X0220163Y0125863D01*
X0220316Y0125855D01*
X0220469Y0125843D01*
X0220621Y0125827D01*
X0220774Y0125807D01*
X0220925Y0125783D01*
X0221076Y0125755D01*
X0221226Y0125724D01*
X0221375Y0125688D01*
X0221523Y0125649D01*
X0221670Y0125606D01*
X0221816Y0125559D01*
X0221961Y0125508D01*
X0222104Y0125453D01*
X0222246Y0125395D01*
X0222386Y0125333D01*
X0222525Y0125268D01*
X0222662Y0125199D01*
X0222797Y0125126D01*
X0222930Y0125050D01*
X0223061Y0124970D01*
X0223190Y0124888D01*
X0223317Y0124801D01*
X0223442Y0124712D01*
X0223564Y0124619D01*
X0223683Y0124523D01*
X0223801Y0124424D01*
X0223915Y0124323D01*
X0224027Y0124218D01*
X0224136Y0124110D01*
X0224242Y0123999D01*
X0224346Y0123886D01*
X0224446Y0123770D01*
X0224544Y0123652D01*
X0224638Y0123531D01*
X0224729Y0123408D01*
X0224817Y0123282D01*
X0224901Y0123154D01*
X0224983Y0123024D01*
X0225060Y0122892D01*
X0225135Y0122758D01*
X0225206Y0122622D01*
X0225273Y0122484D01*
X0225337Y0122344D01*
X0225397Y0122203D01*
X0225453Y0122061D01*
X0225506Y0121917D01*
X0225555Y0121771D01*
X0225600Y0121625D01*
X0225641Y0121477D01*
X0225678Y0121329D01*
X0225712Y0121179D01*
X0225742Y0121028D01*
X0225767Y0120877D01*
X0225789Y0120726D01*
X0225807Y0120573D01*
X0225821Y0120421D01*
X0225831Y0120268D01*
X0225837Y0120114D01*
X0225839Y0119961D01*
X0225837Y0119808D01*
X0225831Y0119654D01*
X0225821Y0119501D01*
X0225807Y0119349D01*
X0225789Y0119196D01*
X0225767Y0119045D01*
X0225742Y0118894D01*
X0225712Y0118743D01*
X0225678Y0118593D01*
X0225641Y0118445D01*
X0225600Y0118297D01*
X0225555Y0118151D01*
X0225506Y0118005D01*
X0225453Y0117861D01*
X0225397Y0117719D01*
X0225337Y0117578D01*
X0225273Y0117438D01*
X0225206Y0117300D01*
X0225135Y0117164D01*
X0225060Y0117030D01*
X0224983Y0116898D01*
X0224901Y0116768D01*
X0224817Y0116640D01*
X0224729Y0116514D01*
X0224638Y0116391D01*
X0224544Y0116270D01*
X0224446Y0116152D01*
X0224346Y0116036D01*
X0224242Y0115923D01*
X0224136Y0115812D01*
X0224027Y0115704D01*
X0223915Y0115599D01*
X0223801Y0115498D01*
X0223683Y0115399D01*
X0223564Y0115303D01*
X0223442Y0115210D01*
X0223317Y0115121D01*
X0223190Y0115034D01*
X0223061Y0114952D01*
X0222930Y0114872D01*
X0222797Y0114796D01*
X0222662Y0114723D01*
X0222525Y0114654D01*
X0222386Y0114589D01*
X0222246Y0114527D01*
X0222104Y0114469D01*
X0221961Y0114414D01*
X0221816Y0114363D01*
X0221670Y0114316D01*
X0221523Y0114273D01*
X0221375Y0114234D01*
X0221226Y0114198D01*
X0221076Y0114167D01*
X0220925Y0114139D01*
X0220774Y0114115D01*
X0220621Y0114095D01*
X0220469Y0114079D01*
X0220316Y0114067D01*
X0220163Y0114059D01*
X0220010Y0114055D01*
X0219856Y0114055D01*
X0219703Y0114059D01*
X0219550Y0114067D01*
X0219397Y0114079D01*
X0219245Y0114095D01*
X0219092Y0114115D01*
X0218941Y0114139D01*
X0218790Y0114167D01*
X0218640Y0114198D01*
X0218491Y0114234D01*
X0218343Y0114273D01*
X0218196Y0114316D01*
X0218050Y0114363D01*
X0217905Y0114414D01*
X0217762Y0114469D01*
X0217620Y0114527D01*
X0217480Y0114589D01*
X0217341Y0114654D01*
X0217204Y0114723D01*
X0217069Y0114796D01*
X0216936Y0114872D01*
X0216805Y0114952D01*
X0216676Y0115034D01*
X0216549Y0115121D01*
X0216424Y0115210D01*
X0216302Y0115303D01*
X0216183Y0115399D01*
X0216065Y0115498D01*
X0215951Y0115599D01*
X0215839Y0115704D01*
X0215730Y0115812D01*
X0215624Y0115923D01*
X0215520Y0116036D01*
X0215420Y0116152D01*
X0215322Y0116270D01*
X0215228Y0116391D01*
X0215137Y0116514D01*
X0215049Y0116640D01*
X0214965Y0116768D01*
X0214883Y0116898D01*
X0214806Y0117030D01*
X0214731Y0117164D01*
X0214660Y0117300D01*
X0214593Y0117438D01*
X0214529Y0117578D01*
X0214469Y0117719D01*
X0214413Y0117861D01*
X0214360Y0118005D01*
X0214311Y0118151D01*
X0214266Y0118297D01*
X0214225Y0118445D01*
X0214188Y0118593D01*
X0214154Y0118743D01*
X0214124Y0118894D01*
X0214099Y0119045D01*
X0214077Y0119196D01*
X0214059Y0119349D01*
X0214045Y0119501D01*
X0214035Y0119654D01*
X0214029Y0119808D01*
X0214027Y0119961D01*
X0204933Y0104961D02*
X0234933Y0104961D01*
X0173165Y0035000D02*
X0151665Y0035000D01*
X0139307Y0035000D02*
X0117807Y0035000D01*
X0105843Y0035000D02*
X0084343Y0035000D01*
D20*
X0195257Y0256533D02*
X0194757Y0257034D01*
X0194757Y0259035D01*
X0195257Y0259536D01*
X0196258Y0259536D01*
X0196758Y0259035D01*
X0197703Y0259536D02*
X0199705Y0259536D01*
X0200650Y0259536D02*
X0202651Y0259536D01*
X0203596Y0259536D02*
X0203596Y0259035D01*
X0205598Y0257034D01*
X0205598Y0256533D01*
X0203596Y0256533D01*
X0201651Y0256533D02*
X0201651Y0259536D01*
X0200650Y0257534D02*
X0201651Y0256533D01*
X0198704Y0256533D02*
X0198704Y0259536D01*
X0197703Y0257534D02*
X0198704Y0256533D01*
X0196758Y0257034D02*
X0196258Y0256533D01*
X0195257Y0256533D01*
X0204757Y0277783D02*
X0206258Y0277783D01*
X0206758Y0278284D01*
X0206758Y0280285D01*
X0206258Y0280786D01*
X0204757Y0280786D01*
X0204757Y0277783D01*
X0207703Y0278784D02*
X0208704Y0277783D01*
X0208704Y0280786D01*
X0207703Y0280786D02*
X0209705Y0280786D01*
X0210650Y0280285D02*
X0212651Y0278284D01*
X0212651Y0280285D01*
X0212151Y0280786D01*
X0211150Y0280786D01*
X0210650Y0280285D01*
X0210650Y0278284D01*
X0211150Y0277783D01*
X0212151Y0277783D01*
X0212651Y0278284D01*
X0213596Y0278284D02*
X0214097Y0277783D01*
X0215098Y0277783D01*
X0215598Y0278284D01*
X0213596Y0280285D01*
X0214097Y0280786D01*
X0215098Y0280786D01*
X0215598Y0280285D01*
X0215598Y0278284D01*
X0213596Y0278284D02*
X0213596Y0280285D01*
X0226147Y0323348D02*
X0227147Y0323348D01*
X0227648Y0323848D01*
X0228593Y0323848D02*
X0229093Y0323348D01*
X0230094Y0323348D01*
X0230594Y0323848D01*
X0231539Y0323348D02*
X0233541Y0323348D01*
X0232540Y0323348D02*
X0232540Y0326351D01*
X0233541Y0325350D01*
X0234486Y0325850D02*
X0234986Y0326351D01*
X0235987Y0326351D01*
X0236487Y0325850D01*
X0236487Y0323848D01*
X0235987Y0323348D01*
X0234986Y0323348D01*
X0234486Y0323848D01*
X0230594Y0325850D02*
X0230094Y0326351D01*
X0229093Y0326351D01*
X0228593Y0325850D01*
X0228593Y0325350D01*
X0229093Y0324849D01*
X0228593Y0324349D01*
X0228593Y0323848D01*
X0229093Y0324849D02*
X0229594Y0324849D01*
X0227648Y0325850D02*
X0227147Y0326351D01*
X0226147Y0326351D01*
X0225646Y0325850D01*
X0225646Y0325350D01*
X0226147Y0324849D01*
X0225646Y0324349D01*
X0225646Y0323848D01*
X0226147Y0323348D01*
X0226147Y0324849D02*
X0226647Y0324849D01*
X0226559Y0223027D02*
X0226059Y0222026D01*
X0225058Y0221025D01*
X0225058Y0222527D01*
X0224558Y0223027D01*
X0224057Y0223027D01*
X0223557Y0222527D01*
X0223557Y0221526D01*
X0224057Y0221025D01*
X0225058Y0221025D01*
X0223557Y0220081D02*
X0223557Y0218079D01*
X0223557Y0217134D02*
X0223557Y0215132D01*
X0223557Y0216133D02*
X0226559Y0216133D01*
X0225558Y0215132D01*
X0226059Y0214188D02*
X0226559Y0213687D01*
X0226559Y0212686D01*
X0226059Y0212186D01*
X0224057Y0212186D01*
X0223557Y0212686D01*
X0223557Y0213687D01*
X0224057Y0214188D01*
X0225558Y0218079D02*
X0226559Y0219080D01*
X0223557Y0219080D01*
X0202060Y0216133D02*
X0198056Y0216133D01*
X0198557Y0215633D02*
X0198557Y0216634D01*
X0199057Y0217134D01*
X0199558Y0217134D01*
X0200058Y0216634D01*
X0200058Y0215633D01*
X0200558Y0215132D01*
X0201059Y0215132D01*
X0201559Y0215633D01*
X0201559Y0216634D01*
X0201059Y0217134D01*
X0200558Y0218079D02*
X0201559Y0219080D01*
X0198557Y0219080D01*
X0198557Y0218079D02*
X0198557Y0220081D01*
X0199057Y0221025D02*
X0201059Y0223027D01*
X0199057Y0223027D01*
X0198557Y0222527D01*
X0198557Y0221526D01*
X0199057Y0221025D01*
X0201059Y0221025D01*
X0201559Y0221526D01*
X0201559Y0222527D01*
X0201059Y0223027D01*
X0200558Y0223972D02*
X0201559Y0224973D01*
X0198557Y0224973D01*
X0198557Y0223972D02*
X0198557Y0225974D01*
X0198557Y0215633D02*
X0199057Y0215132D01*
X0199057Y0214188D02*
X0201559Y0214188D01*
X0201559Y0212186D02*
X0199057Y0212186D01*
X0198557Y0212686D01*
X0198557Y0213687D01*
X0199057Y0214188D01*
D21*
X0233417Y0071339D03*
X0236370Y0071339D03*
X0235907Y0418150D03*
X0238860Y0418150D03*
D22*
X0237384Y0418150D03*
X0234894Y0071339D03*
D23*
X0212846Y0066417D02*
X0212846Y0080984D01*
M02*
