G75*
%MOIN*%
%OFA0B0*%
%FSLAX25Y25*%
%IPPOS*%
%LPD*%
%AMOC8*
5,1,8,0,0,1.08239X$1,22.5*
%
%ADD10C,0.00000*%
%ADD11C,0.00400*%
%ADD12C,0.01000*%
%ADD13C,0.00700*%
%ADD14C,0.00300*%
%ADD15C,0.00200*%
%ADD16C,0.00600*%
%ADD17C,0.00800*%
D10*
X0034894Y0034921D02*
X0034894Y0428622D01*
X0243555Y0428622D01*
X0243555Y0034921D01*
X0034894Y0034921D01*
X0188831Y0046339D02*
X0188833Y0046497D01*
X0188839Y0046655D01*
X0188849Y0046813D01*
X0188863Y0046971D01*
X0188881Y0047128D01*
X0188902Y0047285D01*
X0188928Y0047441D01*
X0188958Y0047597D01*
X0188991Y0047752D01*
X0189029Y0047905D01*
X0189070Y0048058D01*
X0189115Y0048210D01*
X0189164Y0048361D01*
X0189217Y0048510D01*
X0189273Y0048658D01*
X0189333Y0048804D01*
X0189397Y0048949D01*
X0189465Y0049092D01*
X0189536Y0049234D01*
X0189610Y0049374D01*
X0189688Y0049511D01*
X0189770Y0049647D01*
X0189854Y0049781D01*
X0189943Y0049912D01*
X0190034Y0050041D01*
X0190129Y0050168D01*
X0190226Y0050293D01*
X0190327Y0050415D01*
X0190431Y0050534D01*
X0190538Y0050651D01*
X0190648Y0050765D01*
X0190761Y0050876D01*
X0190876Y0050985D01*
X0190994Y0051090D01*
X0191115Y0051192D01*
X0191238Y0051292D01*
X0191364Y0051388D01*
X0191492Y0051481D01*
X0191622Y0051571D01*
X0191755Y0051657D01*
X0191890Y0051741D01*
X0192026Y0051820D01*
X0192165Y0051897D01*
X0192306Y0051969D01*
X0192448Y0052039D01*
X0192592Y0052104D01*
X0192738Y0052166D01*
X0192885Y0052224D01*
X0193034Y0052279D01*
X0193184Y0052330D01*
X0193335Y0052377D01*
X0193487Y0052420D01*
X0193640Y0052459D01*
X0193795Y0052495D01*
X0193950Y0052526D01*
X0194106Y0052554D01*
X0194262Y0052578D01*
X0194419Y0052598D01*
X0194577Y0052614D01*
X0194734Y0052626D01*
X0194893Y0052634D01*
X0195051Y0052638D01*
X0195209Y0052638D01*
X0195367Y0052634D01*
X0195526Y0052626D01*
X0195683Y0052614D01*
X0195841Y0052598D01*
X0195998Y0052578D01*
X0196154Y0052554D01*
X0196310Y0052526D01*
X0196465Y0052495D01*
X0196620Y0052459D01*
X0196773Y0052420D01*
X0196925Y0052377D01*
X0197076Y0052330D01*
X0197226Y0052279D01*
X0197375Y0052224D01*
X0197522Y0052166D01*
X0197668Y0052104D01*
X0197812Y0052039D01*
X0197954Y0051969D01*
X0198095Y0051897D01*
X0198234Y0051820D01*
X0198370Y0051741D01*
X0198505Y0051657D01*
X0198638Y0051571D01*
X0198768Y0051481D01*
X0198896Y0051388D01*
X0199022Y0051292D01*
X0199145Y0051192D01*
X0199266Y0051090D01*
X0199384Y0050985D01*
X0199499Y0050876D01*
X0199612Y0050765D01*
X0199722Y0050651D01*
X0199829Y0050534D01*
X0199933Y0050415D01*
X0200034Y0050293D01*
X0200131Y0050168D01*
X0200226Y0050041D01*
X0200317Y0049912D01*
X0200406Y0049781D01*
X0200490Y0049647D01*
X0200572Y0049511D01*
X0200650Y0049374D01*
X0200724Y0049234D01*
X0200795Y0049092D01*
X0200863Y0048949D01*
X0200927Y0048804D01*
X0200987Y0048658D01*
X0201043Y0048510D01*
X0201096Y0048361D01*
X0201145Y0048210D01*
X0201190Y0048058D01*
X0201231Y0047905D01*
X0201269Y0047752D01*
X0201302Y0047597D01*
X0201332Y0047441D01*
X0201358Y0047285D01*
X0201379Y0047128D01*
X0201397Y0046971D01*
X0201411Y0046813D01*
X0201421Y0046655D01*
X0201427Y0046497D01*
X0201429Y0046339D01*
X0201427Y0046181D01*
X0201421Y0046023D01*
X0201411Y0045865D01*
X0201397Y0045707D01*
X0201379Y0045550D01*
X0201358Y0045393D01*
X0201332Y0045237D01*
X0201302Y0045081D01*
X0201269Y0044926D01*
X0201231Y0044773D01*
X0201190Y0044620D01*
X0201145Y0044468D01*
X0201096Y0044317D01*
X0201043Y0044168D01*
X0200987Y0044020D01*
X0200927Y0043874D01*
X0200863Y0043729D01*
X0200795Y0043586D01*
X0200724Y0043444D01*
X0200650Y0043304D01*
X0200572Y0043167D01*
X0200490Y0043031D01*
X0200406Y0042897D01*
X0200317Y0042766D01*
X0200226Y0042637D01*
X0200131Y0042510D01*
X0200034Y0042385D01*
X0199933Y0042263D01*
X0199829Y0042144D01*
X0199722Y0042027D01*
X0199612Y0041913D01*
X0199499Y0041802D01*
X0199384Y0041693D01*
X0199266Y0041588D01*
X0199145Y0041486D01*
X0199022Y0041386D01*
X0198896Y0041290D01*
X0198768Y0041197D01*
X0198638Y0041107D01*
X0198505Y0041021D01*
X0198370Y0040937D01*
X0198234Y0040858D01*
X0198095Y0040781D01*
X0197954Y0040709D01*
X0197812Y0040639D01*
X0197668Y0040574D01*
X0197522Y0040512D01*
X0197375Y0040454D01*
X0197226Y0040399D01*
X0197076Y0040348D01*
X0196925Y0040301D01*
X0196773Y0040258D01*
X0196620Y0040219D01*
X0196465Y0040183D01*
X0196310Y0040152D01*
X0196154Y0040124D01*
X0195998Y0040100D01*
X0195841Y0040080D01*
X0195683Y0040064D01*
X0195526Y0040052D01*
X0195367Y0040044D01*
X0195209Y0040040D01*
X0195051Y0040040D01*
X0194893Y0040044D01*
X0194734Y0040052D01*
X0194577Y0040064D01*
X0194419Y0040080D01*
X0194262Y0040100D01*
X0194106Y0040124D01*
X0193950Y0040152D01*
X0193795Y0040183D01*
X0193640Y0040219D01*
X0193487Y0040258D01*
X0193335Y0040301D01*
X0193184Y0040348D01*
X0193034Y0040399D01*
X0192885Y0040454D01*
X0192738Y0040512D01*
X0192592Y0040574D01*
X0192448Y0040639D01*
X0192306Y0040709D01*
X0192165Y0040781D01*
X0192026Y0040858D01*
X0191890Y0040937D01*
X0191755Y0041021D01*
X0191622Y0041107D01*
X0191492Y0041197D01*
X0191364Y0041290D01*
X0191238Y0041386D01*
X0191115Y0041486D01*
X0190994Y0041588D01*
X0190876Y0041693D01*
X0190761Y0041802D01*
X0190648Y0041913D01*
X0190538Y0042027D01*
X0190431Y0042144D01*
X0190327Y0042263D01*
X0190226Y0042385D01*
X0190129Y0042510D01*
X0190034Y0042637D01*
X0189943Y0042766D01*
X0189854Y0042897D01*
X0189770Y0043031D01*
X0189688Y0043167D01*
X0189610Y0043304D01*
X0189536Y0043444D01*
X0189465Y0043586D01*
X0189397Y0043729D01*
X0189333Y0043874D01*
X0189273Y0044020D01*
X0189217Y0044168D01*
X0189164Y0044317D01*
X0189115Y0044468D01*
X0189070Y0044620D01*
X0189029Y0044773D01*
X0188991Y0044926D01*
X0188958Y0045081D01*
X0188928Y0045237D01*
X0188902Y0045393D01*
X0188881Y0045550D01*
X0188863Y0045707D01*
X0188849Y0045865D01*
X0188839Y0046023D01*
X0188833Y0046181D01*
X0188831Y0046339D01*
X0224264Y0046339D02*
X0224266Y0046497D01*
X0224272Y0046655D01*
X0224282Y0046813D01*
X0224296Y0046971D01*
X0224314Y0047128D01*
X0224335Y0047285D01*
X0224361Y0047441D01*
X0224391Y0047597D01*
X0224424Y0047752D01*
X0224462Y0047905D01*
X0224503Y0048058D01*
X0224548Y0048210D01*
X0224597Y0048361D01*
X0224650Y0048510D01*
X0224706Y0048658D01*
X0224766Y0048804D01*
X0224830Y0048949D01*
X0224898Y0049092D01*
X0224969Y0049234D01*
X0225043Y0049374D01*
X0225121Y0049511D01*
X0225203Y0049647D01*
X0225287Y0049781D01*
X0225376Y0049912D01*
X0225467Y0050041D01*
X0225562Y0050168D01*
X0225659Y0050293D01*
X0225760Y0050415D01*
X0225864Y0050534D01*
X0225971Y0050651D01*
X0226081Y0050765D01*
X0226194Y0050876D01*
X0226309Y0050985D01*
X0226427Y0051090D01*
X0226548Y0051192D01*
X0226671Y0051292D01*
X0226797Y0051388D01*
X0226925Y0051481D01*
X0227055Y0051571D01*
X0227188Y0051657D01*
X0227323Y0051741D01*
X0227459Y0051820D01*
X0227598Y0051897D01*
X0227739Y0051969D01*
X0227881Y0052039D01*
X0228025Y0052104D01*
X0228171Y0052166D01*
X0228318Y0052224D01*
X0228467Y0052279D01*
X0228617Y0052330D01*
X0228768Y0052377D01*
X0228920Y0052420D01*
X0229073Y0052459D01*
X0229228Y0052495D01*
X0229383Y0052526D01*
X0229539Y0052554D01*
X0229695Y0052578D01*
X0229852Y0052598D01*
X0230010Y0052614D01*
X0230167Y0052626D01*
X0230326Y0052634D01*
X0230484Y0052638D01*
X0230642Y0052638D01*
X0230800Y0052634D01*
X0230959Y0052626D01*
X0231116Y0052614D01*
X0231274Y0052598D01*
X0231431Y0052578D01*
X0231587Y0052554D01*
X0231743Y0052526D01*
X0231898Y0052495D01*
X0232053Y0052459D01*
X0232206Y0052420D01*
X0232358Y0052377D01*
X0232509Y0052330D01*
X0232659Y0052279D01*
X0232808Y0052224D01*
X0232955Y0052166D01*
X0233101Y0052104D01*
X0233245Y0052039D01*
X0233387Y0051969D01*
X0233528Y0051897D01*
X0233667Y0051820D01*
X0233803Y0051741D01*
X0233938Y0051657D01*
X0234071Y0051571D01*
X0234201Y0051481D01*
X0234329Y0051388D01*
X0234455Y0051292D01*
X0234578Y0051192D01*
X0234699Y0051090D01*
X0234817Y0050985D01*
X0234932Y0050876D01*
X0235045Y0050765D01*
X0235155Y0050651D01*
X0235262Y0050534D01*
X0235366Y0050415D01*
X0235467Y0050293D01*
X0235564Y0050168D01*
X0235659Y0050041D01*
X0235750Y0049912D01*
X0235839Y0049781D01*
X0235923Y0049647D01*
X0236005Y0049511D01*
X0236083Y0049374D01*
X0236157Y0049234D01*
X0236228Y0049092D01*
X0236296Y0048949D01*
X0236360Y0048804D01*
X0236420Y0048658D01*
X0236476Y0048510D01*
X0236529Y0048361D01*
X0236578Y0048210D01*
X0236623Y0048058D01*
X0236664Y0047905D01*
X0236702Y0047752D01*
X0236735Y0047597D01*
X0236765Y0047441D01*
X0236791Y0047285D01*
X0236812Y0047128D01*
X0236830Y0046971D01*
X0236844Y0046813D01*
X0236854Y0046655D01*
X0236860Y0046497D01*
X0236862Y0046339D01*
X0236860Y0046181D01*
X0236854Y0046023D01*
X0236844Y0045865D01*
X0236830Y0045707D01*
X0236812Y0045550D01*
X0236791Y0045393D01*
X0236765Y0045237D01*
X0236735Y0045081D01*
X0236702Y0044926D01*
X0236664Y0044773D01*
X0236623Y0044620D01*
X0236578Y0044468D01*
X0236529Y0044317D01*
X0236476Y0044168D01*
X0236420Y0044020D01*
X0236360Y0043874D01*
X0236296Y0043729D01*
X0236228Y0043586D01*
X0236157Y0043444D01*
X0236083Y0043304D01*
X0236005Y0043167D01*
X0235923Y0043031D01*
X0235839Y0042897D01*
X0235750Y0042766D01*
X0235659Y0042637D01*
X0235564Y0042510D01*
X0235467Y0042385D01*
X0235366Y0042263D01*
X0235262Y0042144D01*
X0235155Y0042027D01*
X0235045Y0041913D01*
X0234932Y0041802D01*
X0234817Y0041693D01*
X0234699Y0041588D01*
X0234578Y0041486D01*
X0234455Y0041386D01*
X0234329Y0041290D01*
X0234201Y0041197D01*
X0234071Y0041107D01*
X0233938Y0041021D01*
X0233803Y0040937D01*
X0233667Y0040858D01*
X0233528Y0040781D01*
X0233387Y0040709D01*
X0233245Y0040639D01*
X0233101Y0040574D01*
X0232955Y0040512D01*
X0232808Y0040454D01*
X0232659Y0040399D01*
X0232509Y0040348D01*
X0232358Y0040301D01*
X0232206Y0040258D01*
X0232053Y0040219D01*
X0231898Y0040183D01*
X0231743Y0040152D01*
X0231587Y0040124D01*
X0231431Y0040100D01*
X0231274Y0040080D01*
X0231116Y0040064D01*
X0230959Y0040052D01*
X0230800Y0040044D01*
X0230642Y0040040D01*
X0230484Y0040040D01*
X0230326Y0040044D01*
X0230167Y0040052D01*
X0230010Y0040064D01*
X0229852Y0040080D01*
X0229695Y0040100D01*
X0229539Y0040124D01*
X0229383Y0040152D01*
X0229228Y0040183D01*
X0229073Y0040219D01*
X0228920Y0040258D01*
X0228768Y0040301D01*
X0228617Y0040348D01*
X0228467Y0040399D01*
X0228318Y0040454D01*
X0228171Y0040512D01*
X0228025Y0040574D01*
X0227881Y0040639D01*
X0227739Y0040709D01*
X0227598Y0040781D01*
X0227459Y0040858D01*
X0227323Y0040937D01*
X0227188Y0041021D01*
X0227055Y0041107D01*
X0226925Y0041197D01*
X0226797Y0041290D01*
X0226671Y0041386D01*
X0226548Y0041486D01*
X0226427Y0041588D01*
X0226309Y0041693D01*
X0226194Y0041802D01*
X0226081Y0041913D01*
X0225971Y0042027D01*
X0225864Y0042144D01*
X0225760Y0042263D01*
X0225659Y0042385D01*
X0225562Y0042510D01*
X0225467Y0042637D01*
X0225376Y0042766D01*
X0225287Y0042897D01*
X0225203Y0043031D01*
X0225121Y0043167D01*
X0225043Y0043304D01*
X0224969Y0043444D01*
X0224898Y0043586D01*
X0224830Y0043729D01*
X0224766Y0043874D01*
X0224706Y0044020D01*
X0224650Y0044168D01*
X0224597Y0044317D01*
X0224548Y0044468D01*
X0224503Y0044620D01*
X0224462Y0044773D01*
X0224424Y0044926D01*
X0224391Y0045081D01*
X0224361Y0045237D01*
X0224335Y0045393D01*
X0224314Y0045550D01*
X0224296Y0045707D01*
X0224282Y0045865D01*
X0224272Y0046023D01*
X0224266Y0046181D01*
X0224264Y0046339D01*
D11*
X0235107Y0149294D02*
X0235875Y0150062D01*
X0235875Y0150829D01*
X0235107Y0151596D01*
X0231271Y0151596D01*
X0231271Y0150829D02*
X0231271Y0152364D01*
X0232806Y0154666D02*
X0233573Y0153898D01*
X0235107Y0153898D01*
X0235875Y0154666D01*
X0235875Y0156200D01*
X0235107Y0156968D01*
X0233573Y0156968D01*
X0232806Y0156200D01*
X0232806Y0154666D01*
X0233573Y0158502D02*
X0232806Y0159270D01*
X0232806Y0161572D01*
X0233573Y0163106D02*
X0232806Y0163874D01*
X0232806Y0165408D01*
X0233573Y0166176D01*
X0235875Y0166176D01*
X0235107Y0167710D02*
X0235875Y0168477D01*
X0235875Y0170779D01*
X0232806Y0170779D01*
X0232806Y0173081D02*
X0232806Y0174616D01*
X0233573Y0175383D01*
X0235875Y0175383D01*
X0235875Y0173081D01*
X0235107Y0172314D01*
X0234340Y0173081D01*
X0234340Y0175383D01*
X0235107Y0181522D02*
X0235875Y0182289D01*
X0235875Y0183824D01*
X0235107Y0184591D01*
X0234340Y0184591D01*
X0233573Y0183824D01*
X0233573Y0182289D01*
X0232806Y0181522D01*
X0232038Y0181522D01*
X0231271Y0182289D01*
X0231271Y0183824D01*
X0232038Y0184591D01*
X0232806Y0186126D02*
X0232806Y0187661D01*
X0232038Y0186893D02*
X0235107Y0186893D01*
X0235875Y0187661D01*
X0235107Y0189195D02*
X0233573Y0189195D01*
X0232806Y0189962D01*
X0232806Y0191497D01*
X0233573Y0192264D01*
X0234340Y0192264D01*
X0234340Y0189195D01*
X0235107Y0189195D02*
X0235875Y0189962D01*
X0235875Y0191497D01*
X0235875Y0195334D02*
X0232806Y0196868D01*
X0233573Y0198403D02*
X0232806Y0199170D01*
X0232806Y0200705D01*
X0233573Y0201472D01*
X0234340Y0201472D01*
X0234340Y0198403D01*
X0235107Y0198403D02*
X0233573Y0198403D01*
X0235107Y0198403D02*
X0235875Y0199170D01*
X0235875Y0200705D01*
X0235875Y0203007D02*
X0232806Y0203007D01*
X0232806Y0205309D01*
X0233573Y0206076D01*
X0235875Y0206076D01*
X0235875Y0207611D02*
X0235875Y0209913D01*
X0235107Y0210680D01*
X0234340Y0209913D01*
X0234340Y0208378D01*
X0233573Y0207611D01*
X0232806Y0208378D01*
X0232806Y0210680D01*
X0235875Y0195334D02*
X0232806Y0193799D01*
X0232806Y0167710D02*
X0235107Y0167710D01*
X0235875Y0163106D02*
X0231271Y0163106D01*
X0234340Y0159270D02*
X0233573Y0158502D01*
X0234340Y0159270D02*
X0234340Y0160804D01*
X0235107Y0161572D01*
X0235875Y0160804D01*
X0235875Y0158502D01*
D12*
X0010500Y0074697D02*
X0009100Y0075997D01*
X0010500Y0074697D02*
X0035000Y0074697D01*
X0035000Y0071197D01*
X0047500Y0071197D01*
X0047500Y0073697D01*
X0045000Y0073697D01*
X0045000Y0078697D01*
X0047500Y0078697D01*
X0047500Y0083697D01*
X0045000Y0083697D01*
X0045000Y0088697D01*
X0047500Y0088697D01*
X0047500Y0091197D01*
X0035000Y0091197D01*
X0035000Y0087697D01*
X0010500Y0087697D01*
X0009100Y0086397D01*
X0003500Y0086197D02*
X0001500Y0085197D01*
X0001500Y0077197D01*
X0003500Y0076197D01*
X0035000Y0076197D01*
X0035000Y0074697D01*
X0035000Y0076197D02*
X0035000Y0086197D01*
X0003500Y0086197D01*
X0010500Y0131197D02*
X0009100Y0132497D01*
X0010500Y0131197D02*
X0035000Y0131197D01*
X0035000Y0127697D01*
X0047500Y0127697D01*
X0047500Y0130197D01*
X0045000Y0130197D01*
X0045000Y0135197D01*
X0047500Y0135197D01*
X0047500Y0140197D01*
X0045000Y0140197D01*
X0045000Y0145197D01*
X0047500Y0145197D01*
X0047500Y0147697D01*
X0035000Y0147697D01*
X0035000Y0144197D01*
X0010500Y0144197D01*
X0009100Y0142897D01*
X0003500Y0142697D02*
X0001500Y0141697D01*
X0001500Y0133697D01*
X0003500Y0132697D01*
X0035000Y0132697D01*
X0035000Y0131197D01*
X0035000Y0132697D02*
X0035000Y0142697D01*
X0003500Y0142697D01*
X0010701Y0208461D02*
X0009301Y0209761D01*
X0010701Y0208461D02*
X0035201Y0208461D01*
X0035201Y0204961D01*
X0047701Y0204961D01*
X0047701Y0207461D01*
X0045201Y0207461D01*
X0045201Y0212461D01*
X0047701Y0212461D01*
X0047701Y0217461D01*
X0045201Y0217461D01*
X0045201Y0222461D01*
X0047701Y0222461D01*
X0047701Y0227461D01*
X0045201Y0227461D01*
X0045201Y0232461D01*
X0047701Y0232461D01*
X0047701Y0237461D01*
X0045201Y0237461D01*
X0045201Y0242461D01*
X0047701Y0242461D01*
X0047701Y0244961D01*
X0035201Y0244961D01*
X0035201Y0241461D01*
X0010701Y0241461D01*
X0009301Y0240161D01*
X0003701Y0239961D02*
X0001701Y0238961D01*
X0001701Y0210961D01*
X0003701Y0209961D01*
X0035201Y0209961D01*
X0035201Y0208461D01*
X0035201Y0209961D02*
X0035201Y0239961D01*
X0003701Y0239961D01*
X0010701Y0287961D02*
X0009301Y0289261D01*
X0010701Y0287961D02*
X0035201Y0287961D01*
X0035201Y0284461D01*
X0047701Y0284461D01*
X0047701Y0286961D01*
X0045201Y0286961D01*
X0045201Y0291961D01*
X0047701Y0291961D01*
X0047701Y0296961D01*
X0045201Y0296961D01*
X0045201Y0301961D01*
X0047701Y0301961D01*
X0047701Y0306961D01*
X0045201Y0306961D01*
X0045201Y0311961D01*
X0047701Y0311961D01*
X0047701Y0316961D01*
X0045201Y0316961D01*
X0045201Y0321961D01*
X0047701Y0321961D01*
X0047701Y0324461D01*
X0035201Y0324461D01*
X0035201Y0320961D01*
X0010701Y0320961D01*
X0009301Y0319661D01*
X0003701Y0319461D02*
X0001701Y0318461D01*
X0001701Y0290461D01*
X0003701Y0289461D01*
X0035201Y0289461D01*
X0035201Y0287961D01*
X0035201Y0289461D02*
X0035201Y0319461D01*
X0003701Y0319461D01*
X0035201Y0319461D02*
X0035201Y0320961D01*
X0035201Y0241461D02*
X0035201Y0239961D01*
X0035000Y0144197D02*
X0035000Y0142697D01*
X0035000Y0087697D02*
X0035000Y0086197D01*
D13*
X0037852Y0086839D02*
X0038569Y0087556D01*
X0040004Y0087556D01*
X0040721Y0086839D01*
X0040721Y0086122D01*
X0037852Y0083253D01*
X0040721Y0083253D01*
X0038787Y0077756D02*
X0038787Y0073453D01*
X0040221Y0073453D02*
X0037352Y0073453D01*
X0037352Y0076322D02*
X0038787Y0077756D01*
X0038787Y0129953D02*
X0038787Y0134256D01*
X0037352Y0132822D01*
X0037352Y0129953D02*
X0040221Y0129953D01*
X0040721Y0139753D02*
X0037852Y0139753D01*
X0040721Y0142622D01*
X0040721Y0143339D01*
X0040004Y0144056D01*
X0038569Y0144056D01*
X0037852Y0143339D01*
X0037553Y0207217D02*
X0040422Y0207217D01*
X0038987Y0207217D02*
X0038987Y0211520D01*
X0037553Y0210086D01*
X0040205Y0237017D02*
X0040205Y0241320D01*
X0038053Y0239168D01*
X0040922Y0239168D01*
X0040422Y0286717D02*
X0037553Y0286717D01*
X0038987Y0286717D02*
X0038987Y0291020D01*
X0037553Y0289586D01*
X0040205Y0316517D02*
X0040205Y0320820D01*
X0038053Y0318668D01*
X0040922Y0318668D01*
D14*
X0123095Y0362464D02*
X0123579Y0361981D01*
X0124546Y0361981D01*
X0125030Y0362464D01*
X0126041Y0362464D02*
X0126525Y0361981D01*
X0127493Y0361981D01*
X0127976Y0362464D01*
X0127976Y0363432D01*
X0127493Y0363916D01*
X0127009Y0363916D01*
X0126041Y0363432D01*
X0126041Y0364883D01*
X0127976Y0364883D01*
X0125030Y0364399D02*
X0124546Y0364883D01*
X0123579Y0364883D01*
X0123095Y0364399D01*
X0123095Y0362464D01*
X0140901Y0309765D02*
X0140418Y0309281D01*
X0140418Y0307346D01*
X0140901Y0306863D01*
X0141869Y0306863D01*
X0142353Y0307346D01*
X0143364Y0307346D02*
X0143848Y0306863D01*
X0144815Y0306863D01*
X0145299Y0307346D01*
X0145299Y0307830D01*
X0144815Y0308314D01*
X0143364Y0308314D01*
X0143364Y0307346D01*
X0143364Y0308314D02*
X0144332Y0309281D01*
X0145299Y0309765D01*
X0142353Y0309281D02*
X0141869Y0309765D01*
X0140901Y0309765D01*
X0158497Y0363962D02*
X0160432Y0363962D01*
X0160916Y0364445D01*
X0160916Y0365413D01*
X0160432Y0365897D01*
X0160916Y0366908D02*
X0158981Y0368843D01*
X0158497Y0368843D01*
X0158014Y0368359D01*
X0158014Y0367392D01*
X0158497Y0366908D01*
X0158497Y0365897D02*
X0158014Y0365413D01*
X0158014Y0364445D01*
X0158497Y0363962D01*
X0160916Y0366908D02*
X0160916Y0368843D01*
X0166281Y0368753D02*
X0166765Y0369237D01*
X0167249Y0369237D01*
X0167733Y0368753D01*
X0168216Y0369237D01*
X0168700Y0369237D01*
X0169184Y0368753D01*
X0169184Y0367786D01*
X0168700Y0367302D01*
X0168700Y0366290D02*
X0169184Y0365807D01*
X0169184Y0364839D01*
X0168700Y0364355D01*
X0166765Y0364355D01*
X0166281Y0364839D01*
X0166281Y0365807D01*
X0166765Y0366290D01*
X0166765Y0367302D02*
X0166281Y0367786D01*
X0166281Y0368753D01*
X0167733Y0368753D02*
X0167733Y0368269D01*
X0181143Y0364675D02*
X0182110Y0364675D01*
X0181627Y0364675D02*
X0181627Y0361773D01*
X0182110Y0361773D02*
X0181143Y0361773D01*
X0183107Y0362257D02*
X0183591Y0361773D01*
X0184559Y0361773D01*
X0185042Y0362257D01*
X0186054Y0361773D02*
X0187989Y0361773D01*
X0187021Y0361773D02*
X0187021Y0364675D01*
X0186054Y0363708D01*
X0185042Y0364192D02*
X0184559Y0364675D01*
X0183591Y0364675D01*
X0183107Y0364192D01*
X0183107Y0362257D01*
X0196596Y0366808D02*
X0197080Y0366324D01*
X0199015Y0366324D01*
X0199499Y0366808D01*
X0199499Y0367775D01*
X0199015Y0368259D01*
X0198048Y0369270D02*
X0198048Y0371205D01*
X0199499Y0370722D02*
X0196596Y0370722D01*
X0198048Y0369270D01*
X0197080Y0368259D02*
X0196596Y0367775D01*
X0196596Y0366808D01*
X0210837Y0373910D02*
X0210837Y0375361D01*
X0211321Y0375845D01*
X0212289Y0375845D01*
X0212772Y0375361D01*
X0212772Y0373910D01*
X0212772Y0374877D02*
X0213740Y0375845D01*
X0213740Y0376856D02*
X0211805Y0378791D01*
X0211321Y0378791D01*
X0210837Y0378308D01*
X0210837Y0377340D01*
X0211321Y0376856D01*
X0213740Y0376856D02*
X0213740Y0378791D01*
X0213740Y0373910D02*
X0210837Y0373910D01*
X0210444Y0389658D02*
X0210444Y0391109D01*
X0210927Y0391593D01*
X0211895Y0391593D01*
X0212379Y0391109D01*
X0212379Y0389658D01*
X0213346Y0389658D02*
X0210444Y0389658D01*
X0212379Y0390625D02*
X0213346Y0391593D01*
X0213346Y0392604D02*
X0213346Y0394539D01*
X0213346Y0393572D02*
X0210444Y0393572D01*
X0211411Y0392604D01*
X0223882Y0385266D02*
X0223882Y0383331D01*
X0224366Y0382847D01*
X0225334Y0382847D01*
X0225817Y0383331D01*
X0226829Y0382847D02*
X0228764Y0382847D01*
X0227796Y0382847D02*
X0227796Y0385749D01*
X0226829Y0384782D01*
X0225817Y0385266D02*
X0225334Y0385749D01*
X0224366Y0385749D01*
X0223882Y0385266D01*
X0233421Y0367171D02*
X0232937Y0366687D01*
X0232937Y0366203D01*
X0233421Y0365719D01*
X0234389Y0365719D01*
X0234872Y0365236D01*
X0234872Y0364752D01*
X0234389Y0364268D01*
X0233421Y0364268D01*
X0232937Y0364752D01*
X0233421Y0367171D02*
X0234389Y0367171D01*
X0234872Y0366687D01*
X0235884Y0367171D02*
X0237335Y0367171D01*
X0237819Y0366687D01*
X0237819Y0364752D01*
X0237335Y0364268D01*
X0235884Y0364268D01*
X0235884Y0367171D01*
X0238830Y0366203D02*
X0238830Y0364268D01*
X0238830Y0365719D02*
X0240765Y0365719D01*
X0240765Y0366203D02*
X0240765Y0364268D01*
X0240765Y0366203D02*
X0239798Y0367171D01*
X0238830Y0366203D01*
X0238516Y0383166D02*
X0239000Y0383649D01*
X0238516Y0383166D02*
X0237549Y0383166D01*
X0237065Y0383649D01*
X0237065Y0385584D01*
X0237549Y0386068D01*
X0238516Y0386068D01*
X0239000Y0385584D01*
X0240012Y0386068D02*
X0240012Y0383166D01*
X0241947Y0383166D01*
X0236053Y0383649D02*
X0235570Y0383166D01*
X0234602Y0383166D01*
X0234119Y0383649D01*
X0234602Y0384617D02*
X0235570Y0384617D01*
X0236053Y0384133D01*
X0236053Y0383649D01*
X0234602Y0384617D02*
X0234119Y0385101D01*
X0234119Y0385584D01*
X0234602Y0386068D01*
X0235570Y0386068D01*
X0236053Y0385584D01*
X0145299Y0250710D02*
X0145299Y0250226D01*
X0143364Y0248291D01*
X0143364Y0247807D01*
X0142353Y0248291D02*
X0141869Y0247807D01*
X0140901Y0247807D01*
X0140418Y0248291D01*
X0140418Y0250226D01*
X0140901Y0250710D01*
X0141869Y0250710D01*
X0142353Y0250226D01*
X0143364Y0250710D02*
X0145299Y0250710D01*
X0069114Y0055616D02*
X0069114Y0053681D01*
X0069114Y0054648D02*
X0066211Y0054648D01*
X0067179Y0053681D01*
X0069114Y0052669D02*
X0069114Y0050734D01*
X0069114Y0051702D02*
X0066211Y0051702D01*
X0067179Y0050734D01*
X0066695Y0049723D02*
X0066211Y0049239D01*
X0066211Y0048272D01*
X0066695Y0047788D01*
X0068630Y0047788D01*
X0069114Y0048272D01*
X0069114Y0049239D01*
X0068630Y0049723D01*
D15*
X0221358Y0202322D02*
X0221859Y0201822D01*
X0223860Y0201822D01*
X0224361Y0202322D01*
X0224361Y0203323D01*
X0223860Y0203823D01*
X0224361Y0204768D02*
X0224361Y0206770D01*
X0224361Y0205769D02*
X0221358Y0205769D01*
X0222359Y0204768D01*
X0221859Y0203823D02*
X0221358Y0203323D01*
X0221358Y0202322D01*
X0221859Y0207715D02*
X0221358Y0208215D01*
X0221358Y0209216D01*
X0221859Y0209716D01*
X0223860Y0207715D01*
X0224361Y0208215D01*
X0224361Y0209216D01*
X0223860Y0209716D01*
X0221859Y0209716D01*
X0221859Y0207715D02*
X0223860Y0207715D01*
X0223240Y0213239D02*
X0221238Y0213239D01*
X0220738Y0213739D01*
X0220738Y0214740D01*
X0221238Y0215241D01*
X0221238Y0216185D02*
X0221739Y0216185D01*
X0222239Y0216686D01*
X0222239Y0218187D01*
X0223240Y0218187D02*
X0221238Y0218187D01*
X0220738Y0217687D01*
X0220738Y0216686D01*
X0221238Y0216185D01*
X0223240Y0216185D02*
X0223741Y0216686D01*
X0223741Y0217687D01*
X0223240Y0218187D01*
X0223240Y0215241D02*
X0223741Y0214740D01*
X0223741Y0213739D01*
X0223240Y0213239D01*
X0223407Y0224656D02*
X0221406Y0224656D01*
X0220905Y0225157D01*
X0220905Y0226158D01*
X0221406Y0226658D01*
X0221406Y0227603D02*
X0221906Y0227603D01*
X0222407Y0228103D01*
X0222407Y0229104D01*
X0222907Y0229605D01*
X0223407Y0229605D01*
X0223908Y0229104D01*
X0223908Y0228103D01*
X0223407Y0227603D01*
X0222907Y0227603D01*
X0222407Y0228103D01*
X0222407Y0229104D02*
X0221906Y0229605D01*
X0221406Y0229605D01*
X0220905Y0229104D01*
X0220905Y0228103D01*
X0221406Y0227603D01*
X0223407Y0226658D02*
X0223908Y0226158D01*
X0223908Y0225157D01*
X0223407Y0224656D01*
D16*
X0190098Y0370906D02*
X0187902Y0370906D01*
X0190098Y0370906D02*
X0190098Y0374102D01*
X0181098Y0370906D02*
X0178902Y0370906D01*
X0178902Y0374102D01*
X0041079Y0408937D02*
X0041083Y0409268D01*
X0041095Y0409599D01*
X0041116Y0409930D01*
X0041144Y0410260D01*
X0041181Y0410590D01*
X0041225Y0410918D01*
X0041278Y0411245D01*
X0041338Y0411571D01*
X0041407Y0411895D01*
X0041484Y0412217D01*
X0041568Y0412538D01*
X0041660Y0412856D01*
X0041760Y0413172D01*
X0041868Y0413485D01*
X0041984Y0413796D01*
X0042107Y0414103D01*
X0042237Y0414408D01*
X0042375Y0414709D01*
X0042520Y0415007D01*
X0042673Y0415301D01*
X0042833Y0415591D01*
X0043000Y0415877D01*
X0043173Y0416159D01*
X0043354Y0416437D01*
X0043542Y0416710D01*
X0043736Y0416979D01*
X0043936Y0417243D01*
X0044143Y0417501D01*
X0044357Y0417755D01*
X0044576Y0418003D01*
X0044802Y0418246D01*
X0045033Y0418483D01*
X0045270Y0418714D01*
X0045513Y0418940D01*
X0045761Y0419159D01*
X0046015Y0419373D01*
X0046273Y0419580D01*
X0046537Y0419780D01*
X0046806Y0419974D01*
X0047079Y0420162D01*
X0047357Y0420343D01*
X0047639Y0420516D01*
X0047925Y0420683D01*
X0048215Y0420843D01*
X0048509Y0420996D01*
X0048807Y0421141D01*
X0049108Y0421279D01*
X0049413Y0421409D01*
X0049720Y0421532D01*
X0050031Y0421648D01*
X0050344Y0421756D01*
X0050660Y0421856D01*
X0050978Y0421948D01*
X0051299Y0422032D01*
X0051621Y0422109D01*
X0051945Y0422178D01*
X0052271Y0422238D01*
X0052598Y0422291D01*
X0052926Y0422335D01*
X0053256Y0422372D01*
X0053586Y0422400D01*
X0053917Y0422421D01*
X0054248Y0422433D01*
X0054579Y0422437D01*
X0054910Y0422433D01*
X0055241Y0422421D01*
X0055572Y0422400D01*
X0055902Y0422372D01*
X0056232Y0422335D01*
X0056560Y0422291D01*
X0056887Y0422238D01*
X0057213Y0422178D01*
X0057537Y0422109D01*
X0057859Y0422032D01*
X0058180Y0421948D01*
X0058498Y0421856D01*
X0058814Y0421756D01*
X0059127Y0421648D01*
X0059438Y0421532D01*
X0059745Y0421409D01*
X0060050Y0421279D01*
X0060351Y0421141D01*
X0060649Y0420996D01*
X0060943Y0420843D01*
X0061233Y0420683D01*
X0061519Y0420516D01*
X0061801Y0420343D01*
X0062079Y0420162D01*
X0062352Y0419974D01*
X0062621Y0419780D01*
X0062885Y0419580D01*
X0063143Y0419373D01*
X0063397Y0419159D01*
X0063645Y0418940D01*
X0063888Y0418714D01*
X0064125Y0418483D01*
X0064356Y0418246D01*
X0064582Y0418003D01*
X0064801Y0417755D01*
X0065015Y0417501D01*
X0065222Y0417243D01*
X0065422Y0416979D01*
X0065616Y0416710D01*
X0065804Y0416437D01*
X0065985Y0416159D01*
X0066158Y0415877D01*
X0066325Y0415591D01*
X0066485Y0415301D01*
X0066638Y0415007D01*
X0066783Y0414709D01*
X0066921Y0414408D01*
X0067051Y0414103D01*
X0067174Y0413796D01*
X0067290Y0413485D01*
X0067398Y0413172D01*
X0067498Y0412856D01*
X0067590Y0412538D01*
X0067674Y0412217D01*
X0067751Y0411895D01*
X0067820Y0411571D01*
X0067880Y0411245D01*
X0067933Y0410918D01*
X0067977Y0410590D01*
X0068014Y0410260D01*
X0068042Y0409930D01*
X0068063Y0409599D01*
X0068075Y0409268D01*
X0068079Y0408937D01*
X0068075Y0408606D01*
X0068063Y0408275D01*
X0068042Y0407944D01*
X0068014Y0407614D01*
X0067977Y0407284D01*
X0067933Y0406956D01*
X0067880Y0406629D01*
X0067820Y0406303D01*
X0067751Y0405979D01*
X0067674Y0405657D01*
X0067590Y0405336D01*
X0067498Y0405018D01*
X0067398Y0404702D01*
X0067290Y0404389D01*
X0067174Y0404078D01*
X0067051Y0403771D01*
X0066921Y0403466D01*
X0066783Y0403165D01*
X0066638Y0402867D01*
X0066485Y0402573D01*
X0066325Y0402283D01*
X0066158Y0401997D01*
X0065985Y0401715D01*
X0065804Y0401437D01*
X0065616Y0401164D01*
X0065422Y0400895D01*
X0065222Y0400631D01*
X0065015Y0400373D01*
X0064801Y0400119D01*
X0064582Y0399871D01*
X0064356Y0399628D01*
X0064125Y0399391D01*
X0063888Y0399160D01*
X0063645Y0398934D01*
X0063397Y0398715D01*
X0063143Y0398501D01*
X0062885Y0398294D01*
X0062621Y0398094D01*
X0062352Y0397900D01*
X0062079Y0397712D01*
X0061801Y0397531D01*
X0061519Y0397358D01*
X0061233Y0397191D01*
X0060943Y0397031D01*
X0060649Y0396878D01*
X0060351Y0396733D01*
X0060050Y0396595D01*
X0059745Y0396465D01*
X0059438Y0396342D01*
X0059127Y0396226D01*
X0058814Y0396118D01*
X0058498Y0396018D01*
X0058180Y0395926D01*
X0057859Y0395842D01*
X0057537Y0395765D01*
X0057213Y0395696D01*
X0056887Y0395636D01*
X0056560Y0395583D01*
X0056232Y0395539D01*
X0055902Y0395502D01*
X0055572Y0395474D01*
X0055241Y0395453D01*
X0054910Y0395441D01*
X0054579Y0395437D01*
X0054248Y0395441D01*
X0053917Y0395453D01*
X0053586Y0395474D01*
X0053256Y0395502D01*
X0052926Y0395539D01*
X0052598Y0395583D01*
X0052271Y0395636D01*
X0051945Y0395696D01*
X0051621Y0395765D01*
X0051299Y0395842D01*
X0050978Y0395926D01*
X0050660Y0396018D01*
X0050344Y0396118D01*
X0050031Y0396226D01*
X0049720Y0396342D01*
X0049413Y0396465D01*
X0049108Y0396595D01*
X0048807Y0396733D01*
X0048509Y0396878D01*
X0048215Y0397031D01*
X0047925Y0397191D01*
X0047639Y0397358D01*
X0047357Y0397531D01*
X0047079Y0397712D01*
X0046806Y0397900D01*
X0046537Y0398094D01*
X0046273Y0398294D01*
X0046015Y0398501D01*
X0045761Y0398715D01*
X0045513Y0398934D01*
X0045270Y0399160D01*
X0045033Y0399391D01*
X0044802Y0399628D01*
X0044576Y0399871D01*
X0044357Y0400119D01*
X0044143Y0400373D01*
X0043936Y0400631D01*
X0043736Y0400895D01*
X0043542Y0401164D01*
X0043354Y0401437D01*
X0043173Y0401715D01*
X0043000Y0401997D01*
X0042833Y0402283D01*
X0042673Y0402573D01*
X0042520Y0402867D01*
X0042375Y0403165D01*
X0042237Y0403466D01*
X0042107Y0403771D01*
X0041984Y0404078D01*
X0041868Y0404389D01*
X0041760Y0404702D01*
X0041660Y0405018D01*
X0041568Y0405336D01*
X0041484Y0405657D01*
X0041407Y0405979D01*
X0041338Y0406303D01*
X0041278Y0406629D01*
X0041225Y0406956D01*
X0041181Y0407284D01*
X0041144Y0407614D01*
X0041116Y0407944D01*
X0041095Y0408275D01*
X0041083Y0408606D01*
X0041079Y0408937D01*
X0041079Y0054606D02*
X0041083Y0054937D01*
X0041095Y0055268D01*
X0041116Y0055599D01*
X0041144Y0055929D01*
X0041181Y0056259D01*
X0041225Y0056587D01*
X0041278Y0056914D01*
X0041338Y0057240D01*
X0041407Y0057564D01*
X0041484Y0057886D01*
X0041568Y0058207D01*
X0041660Y0058525D01*
X0041760Y0058841D01*
X0041868Y0059154D01*
X0041984Y0059465D01*
X0042107Y0059772D01*
X0042237Y0060077D01*
X0042375Y0060378D01*
X0042520Y0060676D01*
X0042673Y0060970D01*
X0042833Y0061260D01*
X0043000Y0061546D01*
X0043173Y0061828D01*
X0043354Y0062106D01*
X0043542Y0062379D01*
X0043736Y0062648D01*
X0043936Y0062912D01*
X0044143Y0063170D01*
X0044357Y0063424D01*
X0044576Y0063672D01*
X0044802Y0063915D01*
X0045033Y0064152D01*
X0045270Y0064383D01*
X0045513Y0064609D01*
X0045761Y0064828D01*
X0046015Y0065042D01*
X0046273Y0065249D01*
X0046537Y0065449D01*
X0046806Y0065643D01*
X0047079Y0065831D01*
X0047357Y0066012D01*
X0047639Y0066185D01*
X0047925Y0066352D01*
X0048215Y0066512D01*
X0048509Y0066665D01*
X0048807Y0066810D01*
X0049108Y0066948D01*
X0049413Y0067078D01*
X0049720Y0067201D01*
X0050031Y0067317D01*
X0050344Y0067425D01*
X0050660Y0067525D01*
X0050978Y0067617D01*
X0051299Y0067701D01*
X0051621Y0067778D01*
X0051945Y0067847D01*
X0052271Y0067907D01*
X0052598Y0067960D01*
X0052926Y0068004D01*
X0053256Y0068041D01*
X0053586Y0068069D01*
X0053917Y0068090D01*
X0054248Y0068102D01*
X0054579Y0068106D01*
X0054910Y0068102D01*
X0055241Y0068090D01*
X0055572Y0068069D01*
X0055902Y0068041D01*
X0056232Y0068004D01*
X0056560Y0067960D01*
X0056887Y0067907D01*
X0057213Y0067847D01*
X0057537Y0067778D01*
X0057859Y0067701D01*
X0058180Y0067617D01*
X0058498Y0067525D01*
X0058814Y0067425D01*
X0059127Y0067317D01*
X0059438Y0067201D01*
X0059745Y0067078D01*
X0060050Y0066948D01*
X0060351Y0066810D01*
X0060649Y0066665D01*
X0060943Y0066512D01*
X0061233Y0066352D01*
X0061519Y0066185D01*
X0061801Y0066012D01*
X0062079Y0065831D01*
X0062352Y0065643D01*
X0062621Y0065449D01*
X0062885Y0065249D01*
X0063143Y0065042D01*
X0063397Y0064828D01*
X0063645Y0064609D01*
X0063888Y0064383D01*
X0064125Y0064152D01*
X0064356Y0063915D01*
X0064582Y0063672D01*
X0064801Y0063424D01*
X0065015Y0063170D01*
X0065222Y0062912D01*
X0065422Y0062648D01*
X0065616Y0062379D01*
X0065804Y0062106D01*
X0065985Y0061828D01*
X0066158Y0061546D01*
X0066325Y0061260D01*
X0066485Y0060970D01*
X0066638Y0060676D01*
X0066783Y0060378D01*
X0066921Y0060077D01*
X0067051Y0059772D01*
X0067174Y0059465D01*
X0067290Y0059154D01*
X0067398Y0058841D01*
X0067498Y0058525D01*
X0067590Y0058207D01*
X0067674Y0057886D01*
X0067751Y0057564D01*
X0067820Y0057240D01*
X0067880Y0056914D01*
X0067933Y0056587D01*
X0067977Y0056259D01*
X0068014Y0055929D01*
X0068042Y0055599D01*
X0068063Y0055268D01*
X0068075Y0054937D01*
X0068079Y0054606D01*
X0068075Y0054275D01*
X0068063Y0053944D01*
X0068042Y0053613D01*
X0068014Y0053283D01*
X0067977Y0052953D01*
X0067933Y0052625D01*
X0067880Y0052298D01*
X0067820Y0051972D01*
X0067751Y0051648D01*
X0067674Y0051326D01*
X0067590Y0051005D01*
X0067498Y0050687D01*
X0067398Y0050371D01*
X0067290Y0050058D01*
X0067174Y0049747D01*
X0067051Y0049440D01*
X0066921Y0049135D01*
X0066783Y0048834D01*
X0066638Y0048536D01*
X0066485Y0048242D01*
X0066325Y0047952D01*
X0066158Y0047666D01*
X0065985Y0047384D01*
X0065804Y0047106D01*
X0065616Y0046833D01*
X0065422Y0046564D01*
X0065222Y0046300D01*
X0065015Y0046042D01*
X0064801Y0045788D01*
X0064582Y0045540D01*
X0064356Y0045297D01*
X0064125Y0045060D01*
X0063888Y0044829D01*
X0063645Y0044603D01*
X0063397Y0044384D01*
X0063143Y0044170D01*
X0062885Y0043963D01*
X0062621Y0043763D01*
X0062352Y0043569D01*
X0062079Y0043381D01*
X0061801Y0043200D01*
X0061519Y0043027D01*
X0061233Y0042860D01*
X0060943Y0042700D01*
X0060649Y0042547D01*
X0060351Y0042402D01*
X0060050Y0042264D01*
X0059745Y0042134D01*
X0059438Y0042011D01*
X0059127Y0041895D01*
X0058814Y0041787D01*
X0058498Y0041687D01*
X0058180Y0041595D01*
X0057859Y0041511D01*
X0057537Y0041434D01*
X0057213Y0041365D01*
X0056887Y0041305D01*
X0056560Y0041252D01*
X0056232Y0041208D01*
X0055902Y0041171D01*
X0055572Y0041143D01*
X0055241Y0041122D01*
X0054910Y0041110D01*
X0054579Y0041106D01*
X0054248Y0041110D01*
X0053917Y0041122D01*
X0053586Y0041143D01*
X0053256Y0041171D01*
X0052926Y0041208D01*
X0052598Y0041252D01*
X0052271Y0041305D01*
X0051945Y0041365D01*
X0051621Y0041434D01*
X0051299Y0041511D01*
X0050978Y0041595D01*
X0050660Y0041687D01*
X0050344Y0041787D01*
X0050031Y0041895D01*
X0049720Y0042011D01*
X0049413Y0042134D01*
X0049108Y0042264D01*
X0048807Y0042402D01*
X0048509Y0042547D01*
X0048215Y0042700D01*
X0047925Y0042860D01*
X0047639Y0043027D01*
X0047357Y0043200D01*
X0047079Y0043381D01*
X0046806Y0043569D01*
X0046537Y0043763D01*
X0046273Y0043963D01*
X0046015Y0044170D01*
X0045761Y0044384D01*
X0045513Y0044603D01*
X0045270Y0044829D01*
X0045033Y0045060D01*
X0044802Y0045297D01*
X0044576Y0045540D01*
X0044357Y0045788D01*
X0044143Y0046042D01*
X0043936Y0046300D01*
X0043736Y0046564D01*
X0043542Y0046833D01*
X0043354Y0047106D01*
X0043173Y0047384D01*
X0043000Y0047666D01*
X0042833Y0047952D01*
X0042673Y0048242D01*
X0042520Y0048536D01*
X0042375Y0048834D01*
X0042237Y0049135D01*
X0042107Y0049440D01*
X0041984Y0049747D01*
X0041868Y0050058D01*
X0041760Y0050371D01*
X0041660Y0050687D01*
X0041568Y0051005D01*
X0041484Y0051326D01*
X0041407Y0051648D01*
X0041338Y0051972D01*
X0041278Y0052298D01*
X0041225Y0052625D01*
X0041181Y0052953D01*
X0041144Y0053283D01*
X0041116Y0053613D01*
X0041095Y0053944D01*
X0041083Y0054275D01*
X0041079Y0054606D01*
D17*
X0048280Y0054606D02*
X0048282Y0054764D01*
X0048288Y0054922D01*
X0048298Y0055080D01*
X0048312Y0055238D01*
X0048330Y0055395D01*
X0048351Y0055552D01*
X0048377Y0055708D01*
X0048407Y0055864D01*
X0048440Y0056019D01*
X0048478Y0056172D01*
X0048519Y0056325D01*
X0048564Y0056477D01*
X0048613Y0056628D01*
X0048666Y0056777D01*
X0048722Y0056925D01*
X0048782Y0057071D01*
X0048846Y0057216D01*
X0048914Y0057359D01*
X0048985Y0057501D01*
X0049059Y0057641D01*
X0049137Y0057778D01*
X0049219Y0057914D01*
X0049303Y0058048D01*
X0049392Y0058179D01*
X0049483Y0058308D01*
X0049578Y0058435D01*
X0049675Y0058560D01*
X0049776Y0058682D01*
X0049880Y0058801D01*
X0049987Y0058918D01*
X0050097Y0059032D01*
X0050210Y0059143D01*
X0050325Y0059252D01*
X0050443Y0059357D01*
X0050564Y0059459D01*
X0050687Y0059559D01*
X0050813Y0059655D01*
X0050941Y0059748D01*
X0051071Y0059838D01*
X0051204Y0059924D01*
X0051339Y0060008D01*
X0051475Y0060087D01*
X0051614Y0060164D01*
X0051755Y0060236D01*
X0051897Y0060306D01*
X0052041Y0060371D01*
X0052187Y0060433D01*
X0052334Y0060491D01*
X0052483Y0060546D01*
X0052633Y0060597D01*
X0052784Y0060644D01*
X0052936Y0060687D01*
X0053089Y0060726D01*
X0053244Y0060762D01*
X0053399Y0060793D01*
X0053555Y0060821D01*
X0053711Y0060845D01*
X0053868Y0060865D01*
X0054026Y0060881D01*
X0054183Y0060893D01*
X0054342Y0060901D01*
X0054500Y0060905D01*
X0054658Y0060905D01*
X0054816Y0060901D01*
X0054975Y0060893D01*
X0055132Y0060881D01*
X0055290Y0060865D01*
X0055447Y0060845D01*
X0055603Y0060821D01*
X0055759Y0060793D01*
X0055914Y0060762D01*
X0056069Y0060726D01*
X0056222Y0060687D01*
X0056374Y0060644D01*
X0056525Y0060597D01*
X0056675Y0060546D01*
X0056824Y0060491D01*
X0056971Y0060433D01*
X0057117Y0060371D01*
X0057261Y0060306D01*
X0057403Y0060236D01*
X0057544Y0060164D01*
X0057683Y0060087D01*
X0057819Y0060008D01*
X0057954Y0059924D01*
X0058087Y0059838D01*
X0058217Y0059748D01*
X0058345Y0059655D01*
X0058471Y0059559D01*
X0058594Y0059459D01*
X0058715Y0059357D01*
X0058833Y0059252D01*
X0058948Y0059143D01*
X0059061Y0059032D01*
X0059171Y0058918D01*
X0059278Y0058801D01*
X0059382Y0058682D01*
X0059483Y0058560D01*
X0059580Y0058435D01*
X0059675Y0058308D01*
X0059766Y0058179D01*
X0059855Y0058048D01*
X0059939Y0057914D01*
X0060021Y0057778D01*
X0060099Y0057641D01*
X0060173Y0057501D01*
X0060244Y0057359D01*
X0060312Y0057216D01*
X0060376Y0057071D01*
X0060436Y0056925D01*
X0060492Y0056777D01*
X0060545Y0056628D01*
X0060594Y0056477D01*
X0060639Y0056325D01*
X0060680Y0056172D01*
X0060718Y0056019D01*
X0060751Y0055864D01*
X0060781Y0055708D01*
X0060807Y0055552D01*
X0060828Y0055395D01*
X0060846Y0055238D01*
X0060860Y0055080D01*
X0060870Y0054922D01*
X0060876Y0054764D01*
X0060878Y0054606D01*
X0060876Y0054448D01*
X0060870Y0054290D01*
X0060860Y0054132D01*
X0060846Y0053974D01*
X0060828Y0053817D01*
X0060807Y0053660D01*
X0060781Y0053504D01*
X0060751Y0053348D01*
X0060718Y0053193D01*
X0060680Y0053040D01*
X0060639Y0052887D01*
X0060594Y0052735D01*
X0060545Y0052584D01*
X0060492Y0052435D01*
X0060436Y0052287D01*
X0060376Y0052141D01*
X0060312Y0051996D01*
X0060244Y0051853D01*
X0060173Y0051711D01*
X0060099Y0051571D01*
X0060021Y0051434D01*
X0059939Y0051298D01*
X0059855Y0051164D01*
X0059766Y0051033D01*
X0059675Y0050904D01*
X0059580Y0050777D01*
X0059483Y0050652D01*
X0059382Y0050530D01*
X0059278Y0050411D01*
X0059171Y0050294D01*
X0059061Y0050180D01*
X0058948Y0050069D01*
X0058833Y0049960D01*
X0058715Y0049855D01*
X0058594Y0049753D01*
X0058471Y0049653D01*
X0058345Y0049557D01*
X0058217Y0049464D01*
X0058087Y0049374D01*
X0057954Y0049288D01*
X0057819Y0049204D01*
X0057683Y0049125D01*
X0057544Y0049048D01*
X0057403Y0048976D01*
X0057261Y0048906D01*
X0057117Y0048841D01*
X0056971Y0048779D01*
X0056824Y0048721D01*
X0056675Y0048666D01*
X0056525Y0048615D01*
X0056374Y0048568D01*
X0056222Y0048525D01*
X0056069Y0048486D01*
X0055914Y0048450D01*
X0055759Y0048419D01*
X0055603Y0048391D01*
X0055447Y0048367D01*
X0055290Y0048347D01*
X0055132Y0048331D01*
X0054975Y0048319D01*
X0054816Y0048311D01*
X0054658Y0048307D01*
X0054500Y0048307D01*
X0054342Y0048311D01*
X0054183Y0048319D01*
X0054026Y0048331D01*
X0053868Y0048347D01*
X0053711Y0048367D01*
X0053555Y0048391D01*
X0053399Y0048419D01*
X0053244Y0048450D01*
X0053089Y0048486D01*
X0052936Y0048525D01*
X0052784Y0048568D01*
X0052633Y0048615D01*
X0052483Y0048666D01*
X0052334Y0048721D01*
X0052187Y0048779D01*
X0052041Y0048841D01*
X0051897Y0048906D01*
X0051755Y0048976D01*
X0051614Y0049048D01*
X0051475Y0049125D01*
X0051339Y0049204D01*
X0051204Y0049288D01*
X0051071Y0049374D01*
X0050941Y0049464D01*
X0050813Y0049557D01*
X0050687Y0049653D01*
X0050564Y0049753D01*
X0050443Y0049855D01*
X0050325Y0049960D01*
X0050210Y0050069D01*
X0050097Y0050180D01*
X0049987Y0050294D01*
X0049880Y0050411D01*
X0049776Y0050530D01*
X0049675Y0050652D01*
X0049578Y0050777D01*
X0049483Y0050904D01*
X0049392Y0051033D01*
X0049303Y0051164D01*
X0049219Y0051298D01*
X0049137Y0051434D01*
X0049059Y0051571D01*
X0048985Y0051711D01*
X0048914Y0051853D01*
X0048846Y0051996D01*
X0048782Y0052141D01*
X0048722Y0052287D01*
X0048666Y0052435D01*
X0048613Y0052584D01*
X0048564Y0052735D01*
X0048519Y0052887D01*
X0048478Y0053040D01*
X0048440Y0053193D01*
X0048407Y0053348D01*
X0048377Y0053504D01*
X0048351Y0053660D01*
X0048330Y0053817D01*
X0048312Y0053974D01*
X0048298Y0054132D01*
X0048288Y0054290D01*
X0048282Y0054448D01*
X0048280Y0054606D01*
X0048280Y0408937D02*
X0048282Y0409095D01*
X0048288Y0409253D01*
X0048298Y0409411D01*
X0048312Y0409569D01*
X0048330Y0409726D01*
X0048351Y0409883D01*
X0048377Y0410039D01*
X0048407Y0410195D01*
X0048440Y0410350D01*
X0048478Y0410503D01*
X0048519Y0410656D01*
X0048564Y0410808D01*
X0048613Y0410959D01*
X0048666Y0411108D01*
X0048722Y0411256D01*
X0048782Y0411402D01*
X0048846Y0411547D01*
X0048914Y0411690D01*
X0048985Y0411832D01*
X0049059Y0411972D01*
X0049137Y0412109D01*
X0049219Y0412245D01*
X0049303Y0412379D01*
X0049392Y0412510D01*
X0049483Y0412639D01*
X0049578Y0412766D01*
X0049675Y0412891D01*
X0049776Y0413013D01*
X0049880Y0413132D01*
X0049987Y0413249D01*
X0050097Y0413363D01*
X0050210Y0413474D01*
X0050325Y0413583D01*
X0050443Y0413688D01*
X0050564Y0413790D01*
X0050687Y0413890D01*
X0050813Y0413986D01*
X0050941Y0414079D01*
X0051071Y0414169D01*
X0051204Y0414255D01*
X0051339Y0414339D01*
X0051475Y0414418D01*
X0051614Y0414495D01*
X0051755Y0414567D01*
X0051897Y0414637D01*
X0052041Y0414702D01*
X0052187Y0414764D01*
X0052334Y0414822D01*
X0052483Y0414877D01*
X0052633Y0414928D01*
X0052784Y0414975D01*
X0052936Y0415018D01*
X0053089Y0415057D01*
X0053244Y0415093D01*
X0053399Y0415124D01*
X0053555Y0415152D01*
X0053711Y0415176D01*
X0053868Y0415196D01*
X0054026Y0415212D01*
X0054183Y0415224D01*
X0054342Y0415232D01*
X0054500Y0415236D01*
X0054658Y0415236D01*
X0054816Y0415232D01*
X0054975Y0415224D01*
X0055132Y0415212D01*
X0055290Y0415196D01*
X0055447Y0415176D01*
X0055603Y0415152D01*
X0055759Y0415124D01*
X0055914Y0415093D01*
X0056069Y0415057D01*
X0056222Y0415018D01*
X0056374Y0414975D01*
X0056525Y0414928D01*
X0056675Y0414877D01*
X0056824Y0414822D01*
X0056971Y0414764D01*
X0057117Y0414702D01*
X0057261Y0414637D01*
X0057403Y0414567D01*
X0057544Y0414495D01*
X0057683Y0414418D01*
X0057819Y0414339D01*
X0057954Y0414255D01*
X0058087Y0414169D01*
X0058217Y0414079D01*
X0058345Y0413986D01*
X0058471Y0413890D01*
X0058594Y0413790D01*
X0058715Y0413688D01*
X0058833Y0413583D01*
X0058948Y0413474D01*
X0059061Y0413363D01*
X0059171Y0413249D01*
X0059278Y0413132D01*
X0059382Y0413013D01*
X0059483Y0412891D01*
X0059580Y0412766D01*
X0059675Y0412639D01*
X0059766Y0412510D01*
X0059855Y0412379D01*
X0059939Y0412245D01*
X0060021Y0412109D01*
X0060099Y0411972D01*
X0060173Y0411832D01*
X0060244Y0411690D01*
X0060312Y0411547D01*
X0060376Y0411402D01*
X0060436Y0411256D01*
X0060492Y0411108D01*
X0060545Y0410959D01*
X0060594Y0410808D01*
X0060639Y0410656D01*
X0060680Y0410503D01*
X0060718Y0410350D01*
X0060751Y0410195D01*
X0060781Y0410039D01*
X0060807Y0409883D01*
X0060828Y0409726D01*
X0060846Y0409569D01*
X0060860Y0409411D01*
X0060870Y0409253D01*
X0060876Y0409095D01*
X0060878Y0408937D01*
X0060876Y0408779D01*
X0060870Y0408621D01*
X0060860Y0408463D01*
X0060846Y0408305D01*
X0060828Y0408148D01*
X0060807Y0407991D01*
X0060781Y0407835D01*
X0060751Y0407679D01*
X0060718Y0407524D01*
X0060680Y0407371D01*
X0060639Y0407218D01*
X0060594Y0407066D01*
X0060545Y0406915D01*
X0060492Y0406766D01*
X0060436Y0406618D01*
X0060376Y0406472D01*
X0060312Y0406327D01*
X0060244Y0406184D01*
X0060173Y0406042D01*
X0060099Y0405902D01*
X0060021Y0405765D01*
X0059939Y0405629D01*
X0059855Y0405495D01*
X0059766Y0405364D01*
X0059675Y0405235D01*
X0059580Y0405108D01*
X0059483Y0404983D01*
X0059382Y0404861D01*
X0059278Y0404742D01*
X0059171Y0404625D01*
X0059061Y0404511D01*
X0058948Y0404400D01*
X0058833Y0404291D01*
X0058715Y0404186D01*
X0058594Y0404084D01*
X0058471Y0403984D01*
X0058345Y0403888D01*
X0058217Y0403795D01*
X0058087Y0403705D01*
X0057954Y0403619D01*
X0057819Y0403535D01*
X0057683Y0403456D01*
X0057544Y0403379D01*
X0057403Y0403307D01*
X0057261Y0403237D01*
X0057117Y0403172D01*
X0056971Y0403110D01*
X0056824Y0403052D01*
X0056675Y0402997D01*
X0056525Y0402946D01*
X0056374Y0402899D01*
X0056222Y0402856D01*
X0056069Y0402817D01*
X0055914Y0402781D01*
X0055759Y0402750D01*
X0055603Y0402722D01*
X0055447Y0402698D01*
X0055290Y0402678D01*
X0055132Y0402662D01*
X0054975Y0402650D01*
X0054816Y0402642D01*
X0054658Y0402638D01*
X0054500Y0402638D01*
X0054342Y0402642D01*
X0054183Y0402650D01*
X0054026Y0402662D01*
X0053868Y0402678D01*
X0053711Y0402698D01*
X0053555Y0402722D01*
X0053399Y0402750D01*
X0053244Y0402781D01*
X0053089Y0402817D01*
X0052936Y0402856D01*
X0052784Y0402899D01*
X0052633Y0402946D01*
X0052483Y0402997D01*
X0052334Y0403052D01*
X0052187Y0403110D01*
X0052041Y0403172D01*
X0051897Y0403237D01*
X0051755Y0403307D01*
X0051614Y0403379D01*
X0051475Y0403456D01*
X0051339Y0403535D01*
X0051204Y0403619D01*
X0051071Y0403705D01*
X0050941Y0403795D01*
X0050813Y0403888D01*
X0050687Y0403984D01*
X0050564Y0404084D01*
X0050443Y0404186D01*
X0050325Y0404291D01*
X0050210Y0404400D01*
X0050097Y0404511D01*
X0049987Y0404625D01*
X0049880Y0404742D01*
X0049776Y0404861D01*
X0049675Y0404983D01*
X0049578Y0405108D01*
X0049483Y0405235D01*
X0049392Y0405364D01*
X0049303Y0405495D01*
X0049219Y0405629D01*
X0049137Y0405765D01*
X0049059Y0405902D01*
X0048985Y0406042D01*
X0048914Y0406184D01*
X0048846Y0406327D01*
X0048782Y0406472D01*
X0048722Y0406618D01*
X0048666Y0406766D01*
X0048613Y0406915D01*
X0048564Y0407066D01*
X0048519Y0407218D01*
X0048478Y0407371D01*
X0048440Y0407524D01*
X0048407Y0407679D01*
X0048377Y0407835D01*
X0048351Y0407991D01*
X0048330Y0408148D01*
X0048312Y0408305D01*
X0048298Y0408463D01*
X0048288Y0408621D01*
X0048282Y0408779D01*
X0048280Y0408937D01*
M02*
