%
M48
M72
T01C0.0150
T02C0.0220
T03C0.0394
T04C0.0400
T05C0.0551
T06C0.1181
T07C0.1260
%
T01
X6600Y7820
X6650Y8620
X6600Y9670
X6600Y10470
X6700Y13370
X6600Y14320
X6550Y15420
X6650Y16420
X5419Y19280
X5694Y19831
X5419Y20303
X6470Y21396
X7570Y23146
X7620Y23946
X6954Y24909
X6420Y23596
X7670Y21746
X7859Y20028
X8420Y20146
X9170Y22246
X9620Y22646
X10070Y22296
X10520Y22696
X11048Y24358
X11757Y23492
X11757Y23098
X12348Y23098
X12544Y21720
X12544Y20343
X11570Y19846
X10720Y20696
X10270Y19496
X10261Y17626
X9907Y16524
X10000Y15620
X10750Y15620
X10800Y14120
X10000Y14120
X10432Y11892
X10750Y9870
X10000Y9870
X10000Y8370
X10750Y8370
X11500Y7120
X12466Y8886
X12505Y9280
X13017Y10028
X12820Y10894
X12820Y11248
X13529Y12508
X13450Y13335
X14474Y13335
X13411Y15776
X13568Y16445
X13489Y16917
X13450Y20697
X13489Y21602
X13489Y22035
X13489Y22429
X13607Y23020
X13686Y23531
X13962Y23886
X12505Y28492
X12269Y29240
X12426Y29634
X12426Y30028
X12426Y30382
X12426Y30736
X12348Y31209
X12190Y31524
X11796Y31602
X11206Y32311
X11220Y33846
X10170Y33846
X10261Y35146
X10261Y35579
X9670Y37114
X9119Y38059
X8765Y38335
X8293Y38059
X8883Y34594
X9320Y33846
X7670Y32046
X7620Y31246
X7670Y29696
X7741Y28256
X8270Y28346
X8570Y30196
X8870Y30746
X9220Y30196
X9620Y30746
X10020Y30196
X10570Y30696
X10720Y28496
X10770Y27996
X10570Y25946
X9270Y25946
X9277Y26760
X8670Y22696
X11770Y27296
X13607Y32232
X14001Y35421
X15182Y36760
X16206Y39083
X17151Y37783
X17741Y36917
X17584Y39516
X19198Y39594
X19592Y39122
X19277Y38610
X19783Y36169
X19783Y35814
X19783Y35420
X19822Y34318
X19822Y33924
X19822Y33531
X20773Y38098
X20773Y39594
X23726Y42547
X19428Y27468
X19428Y26956
X19428Y26444
X19428Y25932
X19428Y25420
X19428Y24909
X19428Y24397
X19428Y23885
X19428Y23373
X19428Y22861
X19428Y22350
X19428Y21838
X19428Y21326
X19428Y20814
X19428Y20302
X19428Y19791
X20098Y23885
X19940Y27428
X13568Y39594
X12584Y39673
X11324Y38689
X10615Y39240
X10497Y38650
X10300Y38177
X10733Y37665
X11915Y36406
X12781Y36917
X7230Y32902
X6370Y31546
X6370Y29396
X5615Y27665
X5340Y28138
X5340Y27114
X11600Y12770
X13568Y9280
X13607Y8886
X14159Y8807
X14159Y8335
X23489Y8886
X23489Y6445
X23607Y11878
T02
X23883Y13886
X21167Y36445
X15064Y37783
X12190Y37783
X7426Y4280
T03
X21721Y24214
T04
X19674Y40894
X18674Y40894
X17674Y40894
X16674Y40894
X15304Y40854
X14304Y40854
X13304Y40854
X12304Y40854
X10974Y40854
X9974Y40854
X8974Y40854
X7974Y40854
X5537Y36764
X5537Y35764
X5537Y34764
X5537Y33764
X5520Y31946
X5520Y30946
X5520Y29946
X5520Y28946
X5520Y23996
X5520Y22996
X5520Y21996
X5520Y20996
X5500Y16520
X5500Y15520
X5500Y14270
X5500Y13270
X5500Y10770
X5500Y9770
X5500Y8620
X5500Y7620
X8434Y5500
X9434Y5500
X10434Y5500
X11781Y5500
X12781Y5500
X13781Y5500
X15167Y5500
X16167Y5500
X17167Y5500
T05
X21285Y6287
X21285Y8453
T06
X5458Y5461
X5458Y40894
T07
X19513Y4634
X23056Y4634
M30
