G75*
%MOIN*%
%OFA0B0*%
%FSLAX24Y24*%
%IPPOS*%
%LPD*%
%AMOC8*
5,1,8,0,0,1.08239X$1,22.5*
%
%ADD10C,0.0120*%
%ADD11C,0.0080*%
%ADD12C,0.0000*%
D10*
X003450Y008700D02*
X003452Y008713D01*
X003457Y008725D01*
X003465Y008735D01*
X003475Y008743D01*
X003487Y008748D01*
X003500Y008750D01*
D11*
X003450Y008750D02*
X003450Y002469D01*
X003452Y002383D01*
X003457Y002297D01*
X003467Y002212D01*
X003480Y002127D01*
X003497Y002043D01*
X003517Y001959D01*
X003541Y001877D01*
X003569Y001796D01*
X003600Y001715D01*
X003634Y001637D01*
X003672Y001560D01*
X003714Y001485D01*
X003758Y001411D01*
X003806Y001340D01*
X003857Y001270D01*
X003911Y001203D01*
X003967Y001139D01*
X004027Y001077D01*
X004089Y001017D01*
X004153Y000961D01*
X004220Y000907D01*
X004290Y000856D01*
X004361Y000808D01*
X004434Y000764D01*
X004510Y000722D01*
X004587Y000684D01*
X004665Y000650D01*
X004746Y000619D01*
X004827Y000591D01*
X004909Y000567D01*
X004993Y000547D01*
X005077Y000530D01*
X005162Y000517D01*
X005247Y000507D01*
X005333Y000502D01*
X005419Y000500D01*
X032700Y000500D01*
X032836Y000502D01*
X032971Y000508D01*
X033106Y000517D01*
X033241Y000531D01*
X033376Y000548D01*
X033510Y000570D01*
X033643Y000595D01*
X033776Y000623D01*
X033908Y000656D01*
X034038Y000692D01*
X034168Y000732D01*
X034296Y000776D01*
X034423Y000824D01*
X034549Y000875D01*
X034673Y000929D01*
X034796Y000987D01*
X034917Y001049D01*
X035036Y001114D01*
X035153Y001182D01*
X035268Y001254D01*
X035381Y001329D01*
X035492Y001407D01*
X035601Y001488D01*
X035707Y001573D01*
X035811Y001660D01*
X035912Y001750D01*
X036010Y001844D01*
X036106Y001940D01*
X036200Y002038D01*
X036290Y002139D01*
X036377Y002243D01*
X036462Y002349D01*
X036543Y002458D01*
X036621Y002569D01*
X036696Y002682D01*
X036768Y002797D01*
X036836Y002914D01*
X036901Y003033D01*
X036963Y003154D01*
X037021Y003277D01*
X037075Y003401D01*
X037126Y003527D01*
X037174Y003654D01*
X037218Y003782D01*
X037258Y003912D01*
X037294Y004042D01*
X037327Y004174D01*
X037355Y004307D01*
X037380Y004440D01*
X037402Y004574D01*
X037419Y004709D01*
X037433Y004844D01*
X037442Y004979D01*
X037448Y005114D01*
X037450Y005250D01*
X037450Y017350D01*
X037448Y017485D01*
X037442Y017620D01*
X037432Y017755D01*
X037419Y017890D01*
X037401Y018024D01*
X037379Y018157D01*
X037354Y018290D01*
X037325Y018422D01*
X037292Y018554D01*
X037255Y018684D01*
X037214Y018813D01*
X037170Y018940D01*
X037121Y019067D01*
X037070Y019192D01*
X037014Y019315D01*
X036955Y019437D01*
X036893Y019557D01*
X036827Y019675D01*
X036758Y019791D01*
X036685Y019905D01*
X036609Y020017D01*
X036530Y020127D01*
X036448Y020234D01*
X036362Y020339D01*
X036274Y020441D01*
X036182Y020541D01*
X036088Y020638D01*
X035991Y020732D01*
X035891Y020824D01*
X035789Y020912D01*
X035684Y020998D01*
X035577Y021080D01*
X035467Y021159D01*
X035355Y021235D01*
X035241Y021308D01*
X035125Y021377D01*
X035007Y021443D01*
X034887Y021505D01*
X034765Y021564D01*
X034642Y021620D01*
X034517Y021671D01*
X034390Y021720D01*
X034263Y021764D01*
X034134Y021805D01*
X034004Y021842D01*
X033872Y021875D01*
X033740Y021904D01*
X033607Y021929D01*
X033474Y021951D01*
X033340Y021969D01*
X033205Y021982D01*
X033070Y021992D01*
X032935Y021998D01*
X032800Y022000D01*
X005700Y022000D01*
X005700Y015750D01*
X011450Y015750D01*
X011450Y008750D01*
X003500Y008750D01*
D12*
X008575Y001750D02*
X008577Y001800D01*
X008583Y001849D01*
X008593Y001898D01*
X008606Y001945D01*
X008624Y001992D01*
X008645Y002037D01*
X008669Y002080D01*
X008697Y002121D01*
X008728Y002160D01*
X008762Y002196D01*
X008799Y002230D01*
X008839Y002260D01*
X008880Y002287D01*
X008924Y002311D01*
X008969Y002331D01*
X009016Y002347D01*
X009064Y002360D01*
X009113Y002369D01*
X009163Y002374D01*
X009212Y002375D01*
X009262Y002372D01*
X009311Y002365D01*
X009360Y002354D01*
X009407Y002340D01*
X009453Y002321D01*
X009498Y002299D01*
X009541Y002274D01*
X009581Y002245D01*
X009619Y002213D01*
X009655Y002179D01*
X009688Y002141D01*
X009717Y002101D01*
X009743Y002059D01*
X009766Y002015D01*
X009785Y001969D01*
X009801Y001922D01*
X009813Y001873D01*
X009821Y001824D01*
X009825Y001775D01*
X009825Y001725D01*
X009821Y001676D01*
X009813Y001627D01*
X009801Y001578D01*
X009785Y001531D01*
X009766Y001485D01*
X009743Y001441D01*
X009717Y001399D01*
X009688Y001359D01*
X009655Y001321D01*
X009619Y001287D01*
X009581Y001255D01*
X009541Y001226D01*
X009498Y001201D01*
X009453Y001179D01*
X009407Y001160D01*
X009360Y001146D01*
X009311Y001135D01*
X009262Y001128D01*
X009212Y001125D01*
X009163Y001126D01*
X009113Y001131D01*
X009064Y001140D01*
X009016Y001153D01*
X008969Y001169D01*
X008924Y001189D01*
X008880Y001213D01*
X008839Y001240D01*
X008799Y001270D01*
X008762Y001304D01*
X008728Y001340D01*
X008697Y001379D01*
X008669Y001420D01*
X008645Y001463D01*
X008624Y001508D01*
X008606Y001555D01*
X008593Y001602D01*
X008583Y001651D01*
X008577Y001700D01*
X008575Y001750D01*
X034575Y003000D02*
X034577Y003050D01*
X034583Y003099D01*
X034593Y003148D01*
X034606Y003195D01*
X034624Y003242D01*
X034645Y003287D01*
X034669Y003330D01*
X034697Y003371D01*
X034728Y003410D01*
X034762Y003446D01*
X034799Y003480D01*
X034839Y003510D01*
X034880Y003537D01*
X034924Y003561D01*
X034969Y003581D01*
X035016Y003597D01*
X035064Y003610D01*
X035113Y003619D01*
X035163Y003624D01*
X035212Y003625D01*
X035262Y003622D01*
X035311Y003615D01*
X035360Y003604D01*
X035407Y003590D01*
X035453Y003571D01*
X035498Y003549D01*
X035541Y003524D01*
X035581Y003495D01*
X035619Y003463D01*
X035655Y003429D01*
X035688Y003391D01*
X035717Y003351D01*
X035743Y003309D01*
X035766Y003265D01*
X035785Y003219D01*
X035801Y003172D01*
X035813Y003123D01*
X035821Y003074D01*
X035825Y003025D01*
X035825Y002975D01*
X035821Y002926D01*
X035813Y002877D01*
X035801Y002828D01*
X035785Y002781D01*
X035766Y002735D01*
X035743Y002691D01*
X035717Y002649D01*
X035688Y002609D01*
X035655Y002571D01*
X035619Y002537D01*
X035581Y002505D01*
X035541Y002476D01*
X035498Y002451D01*
X035453Y002429D01*
X035407Y002410D01*
X035360Y002396D01*
X035311Y002385D01*
X035262Y002378D01*
X035212Y002375D01*
X035163Y002376D01*
X035113Y002381D01*
X035064Y002390D01*
X035016Y002403D01*
X034969Y002419D01*
X034924Y002439D01*
X034880Y002463D01*
X034839Y002490D01*
X034799Y002520D01*
X034762Y002554D01*
X034728Y002590D01*
X034697Y002629D01*
X034669Y002670D01*
X034645Y002713D01*
X034624Y002758D01*
X034606Y002805D01*
X034593Y002852D01*
X034583Y002901D01*
X034577Y002950D01*
X034575Y003000D01*
X034575Y019500D02*
X034577Y019550D01*
X034583Y019599D01*
X034593Y019648D01*
X034606Y019695D01*
X034624Y019742D01*
X034645Y019787D01*
X034669Y019830D01*
X034697Y019871D01*
X034728Y019910D01*
X034762Y019946D01*
X034799Y019980D01*
X034839Y020010D01*
X034880Y020037D01*
X034924Y020061D01*
X034969Y020081D01*
X035016Y020097D01*
X035064Y020110D01*
X035113Y020119D01*
X035163Y020124D01*
X035212Y020125D01*
X035262Y020122D01*
X035311Y020115D01*
X035360Y020104D01*
X035407Y020090D01*
X035453Y020071D01*
X035498Y020049D01*
X035541Y020024D01*
X035581Y019995D01*
X035619Y019963D01*
X035655Y019929D01*
X035688Y019891D01*
X035717Y019851D01*
X035743Y019809D01*
X035766Y019765D01*
X035785Y019719D01*
X035801Y019672D01*
X035813Y019623D01*
X035821Y019574D01*
X035825Y019525D01*
X035825Y019475D01*
X035821Y019426D01*
X035813Y019377D01*
X035801Y019328D01*
X035785Y019281D01*
X035766Y019235D01*
X035743Y019191D01*
X035717Y019149D01*
X035688Y019109D01*
X035655Y019071D01*
X035619Y019037D01*
X035581Y019005D01*
X035541Y018976D01*
X035498Y018951D01*
X035453Y018929D01*
X035407Y018910D01*
X035360Y018896D01*
X035311Y018885D01*
X035262Y018878D01*
X035212Y018875D01*
X035163Y018876D01*
X035113Y018881D01*
X035064Y018890D01*
X035016Y018903D01*
X034969Y018919D01*
X034924Y018939D01*
X034880Y018963D01*
X034839Y018990D01*
X034799Y019020D01*
X034762Y019054D01*
X034728Y019090D01*
X034697Y019129D01*
X034669Y019170D01*
X034645Y019213D01*
X034624Y019258D01*
X034606Y019305D01*
X034593Y019352D01*
X034583Y019401D01*
X034577Y019450D01*
X034575Y019500D01*
X008575Y020750D02*
X008577Y020800D01*
X008583Y020849D01*
X008593Y020898D01*
X008606Y020945D01*
X008624Y020992D01*
X008645Y021037D01*
X008669Y021080D01*
X008697Y021121D01*
X008728Y021160D01*
X008762Y021196D01*
X008799Y021230D01*
X008839Y021260D01*
X008880Y021287D01*
X008924Y021311D01*
X008969Y021331D01*
X009016Y021347D01*
X009064Y021360D01*
X009113Y021369D01*
X009163Y021374D01*
X009212Y021375D01*
X009262Y021372D01*
X009311Y021365D01*
X009360Y021354D01*
X009407Y021340D01*
X009453Y021321D01*
X009498Y021299D01*
X009541Y021274D01*
X009581Y021245D01*
X009619Y021213D01*
X009655Y021179D01*
X009688Y021141D01*
X009717Y021101D01*
X009743Y021059D01*
X009766Y021015D01*
X009785Y020969D01*
X009801Y020922D01*
X009813Y020873D01*
X009821Y020824D01*
X009825Y020775D01*
X009825Y020725D01*
X009821Y020676D01*
X009813Y020627D01*
X009801Y020578D01*
X009785Y020531D01*
X009766Y020485D01*
X009743Y020441D01*
X009717Y020399D01*
X009688Y020359D01*
X009655Y020321D01*
X009619Y020287D01*
X009581Y020255D01*
X009541Y020226D01*
X009498Y020201D01*
X009453Y020179D01*
X009407Y020160D01*
X009360Y020146D01*
X009311Y020135D01*
X009262Y020128D01*
X009212Y020125D01*
X009163Y020126D01*
X009113Y020131D01*
X009064Y020140D01*
X009016Y020153D01*
X008969Y020169D01*
X008924Y020189D01*
X008880Y020213D01*
X008839Y020240D01*
X008799Y020270D01*
X008762Y020304D01*
X008728Y020340D01*
X008697Y020379D01*
X008669Y020420D01*
X008645Y020463D01*
X008624Y020508D01*
X008606Y020555D01*
X008593Y020602D01*
X008583Y020651D01*
X008577Y020700D01*
X008575Y020750D01*
M02*
