G75*
%MOIN*%
%OFA0B0*%
%FSLAX25Y25*%
%IPPOS*%
%LPD*%
%AMOC8*
5,1,8,0,0,1.08239X$1,22.5*
%
%ADD10C,0.01000*%
%ADD11C,0.00600*%
%ADD12C,0.00300*%
%ADD13C,0.00400*%
%ADD14C,0.00800*%
%ADD15R,0.02657X0.09646*%
%ADD16C,0.00500*%
%ADD17C,0.00100*%
%ADD18C,0.00700*%
%ADD19C,0.00200*%
%ADD20C,0.00000*%
%ADD21R,0.00984X0.00886*%
%ADD22R,0.00886X0.00984*%
D10*
X0050100Y0013667D02*
X0050100Y0033667D01*
X0067600Y0033667D01*
X0067600Y0013667D01*
X0050100Y0013667D01*
X0060700Y0008667D02*
X0323700Y0008667D01*
X0377900Y0057167D02*
X0378200Y0175967D01*
X0378138Y0177202D01*
X0378046Y0178436D01*
X0377924Y0179667D01*
X0377773Y0180895D01*
X0377592Y0182118D01*
X0377381Y0183337D01*
X0377141Y0184551D01*
X0376872Y0185758D01*
X0376574Y0186958D01*
X0376247Y0188151D01*
X0375891Y0189336D01*
X0375507Y0190512D01*
X0375094Y0191678D01*
X0374653Y0192833D01*
X0374184Y0193978D01*
X0373688Y0195111D01*
X0373165Y0196232D01*
X0372615Y0197340D01*
X0372038Y0198434D01*
X0371435Y0199514D01*
X0370806Y0200579D01*
X0370151Y0201629D01*
X0369471Y0202662D01*
X0368767Y0203679D01*
X0368038Y0204678D01*
X0367285Y0205660D01*
X0366509Y0206623D01*
X0365709Y0207567D01*
X0364887Y0208491D01*
X0364043Y0209395D01*
X0363177Y0210279D01*
X0362291Y0211141D01*
X0361383Y0211982D01*
X0360456Y0212800D01*
X0359509Y0213596D01*
X0358543Y0214369D01*
X0357559Y0215118D01*
X0356557Y0215843D01*
X0355538Y0216544D01*
X0354502Y0217220D01*
X0353450Y0217871D01*
X0352382Y0218496D01*
X0351300Y0219095D01*
X0350204Y0219668D01*
X0349094Y0220214D01*
X0347971Y0220733D01*
X0346836Y0221225D01*
X0345690Y0221690D01*
X0344532Y0222126D01*
X0343365Y0222534D01*
X0342188Y0222914D01*
X0341002Y0223266D01*
X0339808Y0223589D01*
X0338606Y0223883D01*
X0337398Y0224147D01*
X0336183Y0224383D01*
X0334964Y0224589D01*
X0333739Y0224765D01*
X0332511Y0224912D01*
X0331280Y0225029D01*
X0330046Y0225116D01*
X0328810Y0225174D01*
X0327574Y0225201D01*
X0326337Y0225199D01*
X0325100Y0225167D01*
X0057100Y0225167D01*
X0057100Y0162667D01*
X0114600Y0162667D01*
X0114600Y0092167D01*
X0035100Y0092167D01*
X0035100Y0035167D01*
X0035097Y0034537D01*
X0035109Y0033908D01*
X0035136Y0033279D01*
X0035178Y0032651D01*
X0035236Y0032024D01*
X0035308Y0031398D01*
X0035396Y0030775D01*
X0035499Y0030154D01*
X0035616Y0029535D01*
X0035749Y0028920D01*
X0035897Y0028308D01*
X0036059Y0027699D01*
X0036236Y0027095D01*
X0036427Y0026495D01*
X0036633Y0025900D01*
X0036853Y0025310D01*
X0037088Y0024726D01*
X0037336Y0024148D01*
X0037599Y0023575D01*
X0037875Y0023009D01*
X0038164Y0022450D01*
X0038467Y0021899D01*
X0038784Y0021354D01*
X0039113Y0020818D01*
X0039456Y0020289D01*
X0039811Y0019769D01*
X0040178Y0019258D01*
X0040558Y0018756D01*
X0040949Y0018263D01*
X0041353Y0017779D01*
X0041768Y0017306D01*
X0042194Y0016843D01*
X0042632Y0016390D01*
X0043080Y0015948D01*
X0043539Y0015517D01*
X0044008Y0015097D01*
X0044487Y0014688D01*
X0044976Y0014291D01*
X0045474Y0013907D01*
X0045982Y0013534D01*
X0046498Y0013173D01*
X0047023Y0012826D01*
X0047556Y0012491D01*
X0048097Y0012169D01*
X0048645Y0011860D01*
X0049201Y0011564D01*
X0049764Y0011282D01*
X0050334Y0011014D01*
X0050910Y0010760D01*
X0051492Y0010519D01*
X0052079Y0010293D01*
X0052672Y0010081D01*
X0053270Y0009883D01*
X0053872Y0009700D01*
X0054479Y0009532D01*
X0055089Y0009378D01*
X0055703Y0009239D01*
X0056321Y0009114D01*
X0056941Y0009005D01*
X0057563Y0008911D01*
X0058188Y0008832D01*
X0058814Y0008768D01*
X0059442Y0008719D01*
X0060071Y0008685D01*
X0060700Y0008667D01*
X0067600Y0013667D02*
X0075100Y0013667D01*
X0075100Y0033667D01*
X0067600Y0033667D01*
X0047500Y0070467D02*
X0035000Y0070467D01*
X0035000Y0075467D01*
X0003500Y0075467D01*
X0001500Y0076467D01*
X0001500Y0080667D01*
X0001500Y0080267D01*
X0001500Y0080667D02*
X0001500Y0084467D01*
X0003500Y0085467D01*
X0035000Y0085467D01*
X0035000Y0086967D02*
X0010500Y0086967D01*
X0009100Y0085667D01*
X0009100Y0075267D02*
X0010500Y0073967D01*
X0035000Y0073967D01*
X0035000Y0075467D02*
X0035000Y0086967D01*
X0035000Y0090467D01*
X0047500Y0090467D01*
X0047500Y0087967D01*
X0045000Y0087967D01*
X0045000Y0082967D01*
X0047500Y0082967D01*
X0047500Y0077967D01*
X0045000Y0077967D01*
X0045000Y0072967D01*
X0047500Y0072967D01*
X0047500Y0070467D01*
X0057600Y0189667D02*
X0057600Y0194667D01*
X0026100Y0194667D01*
X0024100Y0195667D01*
X0024100Y0199867D01*
X0024100Y0199467D01*
X0024100Y0199867D02*
X0024100Y0203667D01*
X0026100Y0204667D01*
X0057600Y0204667D01*
X0057600Y0206167D02*
X0033100Y0206167D01*
X0031700Y0204867D01*
X0031700Y0194467D02*
X0033100Y0193167D01*
X0057600Y0193167D01*
X0057600Y0194667D02*
X0057600Y0206167D01*
X0057600Y0209667D01*
X0070100Y0209667D01*
X0070100Y0207167D01*
X0067600Y0207167D01*
X0067600Y0202167D01*
X0070100Y0202167D01*
X0070100Y0197167D01*
X0067600Y0197167D01*
X0067600Y0192167D01*
X0070100Y0192167D01*
X0070100Y0189667D01*
X0057600Y0189667D01*
X0323700Y0008667D02*
X0324942Y0008613D01*
X0326184Y0008589D01*
X0327427Y0008595D01*
X0328669Y0008632D01*
X0329910Y0008698D01*
X0331149Y0008794D01*
X0332386Y0008920D01*
X0333619Y0009076D01*
X0334848Y0009262D01*
X0336072Y0009477D01*
X0337290Y0009722D01*
X0338502Y0009996D01*
X0339708Y0010300D01*
X0340905Y0010632D01*
X0342094Y0010993D01*
X0343274Y0011383D01*
X0344445Y0011802D01*
X0345604Y0012248D01*
X0346753Y0012722D01*
X0347890Y0013224D01*
X0349014Y0013754D01*
X0350126Y0014310D01*
X0351223Y0014893D01*
X0352306Y0015502D01*
X0353375Y0016138D01*
X0354427Y0016799D01*
X0355463Y0017485D01*
X0356483Y0018196D01*
X0357484Y0018932D01*
X0358468Y0019691D01*
X0359433Y0020474D01*
X0360379Y0021280D01*
X0361305Y0022109D01*
X0362211Y0022960D01*
X0363096Y0023832D01*
X0363960Y0024726D01*
X0364802Y0025640D01*
X0365621Y0026575D01*
X0366418Y0027529D01*
X0367191Y0028501D01*
X0367941Y0029493D01*
X0368666Y0030502D01*
X0369367Y0031528D01*
X0370043Y0032571D01*
X0370694Y0033630D01*
X0371318Y0034704D01*
X0371917Y0035793D01*
X0372489Y0036897D01*
X0373034Y0038014D01*
X0373552Y0039143D01*
X0374043Y0040285D01*
X0374506Y0041438D01*
X0374941Y0042603D01*
X0375348Y0043777D01*
X0375726Y0044961D01*
X0376075Y0046154D01*
X0376396Y0047354D01*
X0376687Y0048563D01*
X0376949Y0049777D01*
X0377182Y0050998D01*
X0377385Y0052224D01*
X0377559Y0053455D01*
X0377702Y0054689D01*
X0377816Y0055927D01*
X0377900Y0057167D01*
D11*
X0344300Y0029668D02*
X0343733Y0030235D01*
X0343166Y0030235D01*
X0342599Y0029668D01*
X0342599Y0027967D01*
X0343733Y0027967D01*
X0344300Y0028534D01*
X0344300Y0029668D01*
X0342599Y0027967D02*
X0341464Y0029101D01*
X0340897Y0030235D01*
X0342599Y0026552D02*
X0342599Y0024284D01*
X0340897Y0025985D01*
X0344300Y0025985D01*
X0343733Y0020235D02*
X0344300Y0019668D01*
X0344300Y0018534D01*
X0343733Y0017967D01*
X0342599Y0017967D02*
X0342031Y0019101D01*
X0342031Y0019668D01*
X0342599Y0020235D01*
X0343733Y0020235D01*
X0342599Y0017967D02*
X0340897Y0017967D01*
X0340897Y0020235D01*
X0342599Y0016552D02*
X0342599Y0014284D01*
X0340897Y0015985D01*
X0344300Y0015985D01*
X0284500Y0035892D02*
X0284500Y0039692D01*
X0282500Y0039692D01*
X0279700Y0039692D01*
X0277088Y0039692D01*
X0274700Y0039692D01*
X0272700Y0039692D01*
X0272700Y0035892D01*
X0274700Y0035892D01*
X0277088Y0035892D01*
X0277088Y0039692D01*
X0274700Y0039692D02*
X0274700Y0035892D01*
X0277088Y0035892D02*
X0279700Y0035892D01*
X0282500Y0035892D01*
X0284500Y0035892D01*
X0282500Y0035892D02*
X0282500Y0039692D01*
X0279700Y0039692D02*
X0279700Y0035892D01*
X0256850Y0050042D02*
X0256850Y0065042D01*
X0254350Y0067542D01*
X0249350Y0067542D01*
X0246850Y0065042D01*
X0244350Y0067542D01*
X0239350Y0067542D01*
X0236850Y0065042D01*
X0234350Y0067542D01*
X0229350Y0067542D01*
X0226850Y0065042D01*
X0224350Y0067542D01*
X0219350Y0067542D01*
X0216850Y0065042D01*
X0214350Y0067542D01*
X0209350Y0067542D01*
X0206850Y0065042D01*
X0204350Y0067542D01*
X0199350Y0067542D01*
X0196850Y0065042D01*
X0194350Y0067542D01*
X0189350Y0067542D01*
X0186850Y0065042D01*
X0184350Y0067542D01*
X0179350Y0067542D01*
X0176850Y0065042D01*
X0174350Y0067542D01*
X0169350Y0067542D01*
X0166850Y0065042D01*
X0164350Y0067542D01*
X0159350Y0067542D01*
X0156850Y0065042D01*
X0156850Y0050042D01*
X0159350Y0047542D01*
X0164350Y0047542D01*
X0166850Y0050042D01*
X0169350Y0047542D01*
X0174350Y0047542D01*
X0176850Y0050042D01*
X0179350Y0047542D01*
X0184350Y0047542D01*
X0186850Y0050042D01*
X0189350Y0047542D01*
X0194350Y0047542D01*
X0196850Y0050042D01*
X0199350Y0047542D01*
X0204350Y0047542D01*
X0206850Y0050042D01*
X0209350Y0047542D01*
X0214350Y0047542D01*
X0216850Y0050042D01*
X0219350Y0047542D01*
X0224350Y0047542D01*
X0226850Y0050042D01*
X0229350Y0047542D01*
X0234350Y0047542D01*
X0236850Y0050042D01*
X0239350Y0047542D01*
X0244350Y0047542D01*
X0246850Y0050042D01*
X0249350Y0047542D01*
X0254350Y0047542D01*
X0256850Y0050042D01*
X0220500Y0043442D02*
X0220500Y0039642D01*
X0218500Y0039642D01*
X0216112Y0039642D01*
X0216112Y0043442D01*
X0218500Y0043442D01*
X0220500Y0043442D01*
X0218500Y0043442D02*
X0218500Y0039642D01*
X0216112Y0039642D02*
X0213500Y0039642D01*
X0210700Y0039642D01*
X0208700Y0039642D01*
X0208700Y0043442D01*
X0210700Y0043442D01*
X0213500Y0043442D01*
X0216112Y0043442D01*
X0213500Y0043442D02*
X0213500Y0039642D01*
X0210700Y0039642D02*
X0210700Y0043442D01*
X0205500Y0043442D02*
X0205500Y0039642D01*
X0203500Y0039642D01*
X0201112Y0039642D01*
X0201112Y0043442D01*
X0203500Y0043442D01*
X0205500Y0043442D01*
X0203500Y0043442D02*
X0203500Y0039642D01*
X0201112Y0039642D02*
X0198500Y0039642D01*
X0195700Y0039642D01*
X0193700Y0039642D01*
X0193700Y0043442D01*
X0195700Y0043442D01*
X0198500Y0043442D01*
X0201112Y0043442D01*
X0198500Y0043442D02*
X0198500Y0039642D01*
X0195700Y0039642D02*
X0195700Y0043442D01*
X0168300Y0042392D02*
X0168300Y0035292D01*
X0168300Y0035192D01*
X0157900Y0035192D01*
X0154900Y0035192D01*
X0154900Y0042392D01*
X0157900Y0042392D01*
X0165300Y0042392D01*
X0168300Y0042392D01*
X0165300Y0042392D02*
X0165300Y0035192D01*
X0168300Y0035292D01*
X0164000Y0035192D02*
X0159200Y0035192D01*
X0157900Y0035192D02*
X0157900Y0042392D01*
X0159200Y0042392D02*
X0164000Y0042392D01*
X0150350Y0040917D02*
X0150350Y0036217D01*
X0150350Y0068617D01*
X0115350Y0068617D01*
X0115350Y0036217D01*
X0150350Y0036217D01*
X0115350Y0036217D01*
X0115350Y0040917D01*
X0112725Y0035867D02*
X0112725Y0057467D01*
X0096725Y0057467D01*
X0096725Y0035867D01*
X0112725Y0035867D01*
X0112725Y0057467D01*
X0110650Y0052417D02*
X0110648Y0052451D01*
X0110642Y0052484D01*
X0110633Y0052516D01*
X0110620Y0052547D01*
X0110604Y0052577D01*
X0110585Y0052604D01*
X0110562Y0052629D01*
X0110537Y0052652D01*
X0110510Y0052671D01*
X0110480Y0052687D01*
X0110449Y0052700D01*
X0110417Y0052709D01*
X0110384Y0052715D01*
X0110350Y0052717D01*
X0110316Y0052715D01*
X0110283Y0052709D01*
X0110251Y0052700D01*
X0110220Y0052687D01*
X0110190Y0052671D01*
X0110163Y0052652D01*
X0110138Y0052629D01*
X0110115Y0052604D01*
X0110096Y0052577D01*
X0110080Y0052547D01*
X0110067Y0052516D01*
X0110058Y0052484D01*
X0110052Y0052451D01*
X0110050Y0052417D01*
X0110052Y0052383D01*
X0110058Y0052350D01*
X0110067Y0052318D01*
X0110080Y0052287D01*
X0110096Y0052257D01*
X0110115Y0052230D01*
X0110138Y0052205D01*
X0110163Y0052182D01*
X0110190Y0052163D01*
X0110220Y0052147D01*
X0110251Y0052134D01*
X0110283Y0052125D01*
X0110316Y0052119D01*
X0110350Y0052117D01*
X0110384Y0052119D01*
X0110417Y0052125D01*
X0110449Y0052134D01*
X0110480Y0052147D01*
X0110510Y0052163D01*
X0110537Y0052182D01*
X0110562Y0052205D01*
X0110585Y0052230D01*
X0110604Y0052257D01*
X0110620Y0052287D01*
X0110633Y0052318D01*
X0110642Y0052350D01*
X0110648Y0052383D01*
X0110650Y0052417D01*
X0110648Y0052451D01*
X0110642Y0052484D01*
X0110633Y0052516D01*
X0110620Y0052547D01*
X0110604Y0052577D01*
X0110585Y0052604D01*
X0110562Y0052629D01*
X0110537Y0052652D01*
X0110510Y0052671D01*
X0110480Y0052687D01*
X0110449Y0052700D01*
X0110417Y0052709D01*
X0110384Y0052715D01*
X0110350Y0052717D01*
X0110316Y0052715D01*
X0110283Y0052709D01*
X0110251Y0052700D01*
X0110220Y0052687D01*
X0110190Y0052671D01*
X0110163Y0052652D01*
X0110138Y0052629D01*
X0110115Y0052604D01*
X0110096Y0052577D01*
X0110080Y0052547D01*
X0110067Y0052516D01*
X0110058Y0052484D01*
X0110052Y0052451D01*
X0110050Y0052417D01*
X0110052Y0052383D01*
X0110058Y0052350D01*
X0110067Y0052318D01*
X0110080Y0052287D01*
X0110096Y0052257D01*
X0110115Y0052230D01*
X0110138Y0052205D01*
X0110163Y0052182D01*
X0110190Y0052163D01*
X0110220Y0052147D01*
X0110251Y0052134D01*
X0110283Y0052125D01*
X0110316Y0052119D01*
X0110350Y0052117D01*
X0110384Y0052119D01*
X0110417Y0052125D01*
X0110449Y0052134D01*
X0110480Y0052147D01*
X0110510Y0052163D01*
X0110537Y0052182D01*
X0110562Y0052205D01*
X0110585Y0052230D01*
X0110604Y0052257D01*
X0110620Y0052287D01*
X0110633Y0052318D01*
X0110642Y0052350D01*
X0110648Y0052383D01*
X0110650Y0052417D01*
X0096725Y0057467D02*
X0096725Y0035867D01*
X0094093Y0034485D02*
X0094093Y0041685D01*
X0091093Y0041685D01*
X0080693Y0041685D01*
X0080693Y0041585D01*
X0080693Y0034485D01*
X0083693Y0034485D01*
X0091093Y0034485D01*
X0094093Y0034485D01*
X0092325Y0036067D02*
X0092323Y0036111D01*
X0092317Y0036154D01*
X0092308Y0036196D01*
X0092295Y0036238D01*
X0092278Y0036278D01*
X0092258Y0036317D01*
X0092235Y0036354D01*
X0092208Y0036388D01*
X0092179Y0036421D01*
X0092146Y0036450D01*
X0092112Y0036477D01*
X0092075Y0036500D01*
X0092036Y0036520D01*
X0091996Y0036537D01*
X0091954Y0036550D01*
X0091912Y0036559D01*
X0091869Y0036565D01*
X0091825Y0036567D01*
X0091781Y0036565D01*
X0091738Y0036559D01*
X0091696Y0036550D01*
X0091654Y0036537D01*
X0091614Y0036520D01*
X0091575Y0036500D01*
X0091538Y0036477D01*
X0091504Y0036450D01*
X0091471Y0036421D01*
X0091442Y0036388D01*
X0091415Y0036354D01*
X0091392Y0036317D01*
X0091372Y0036278D01*
X0091355Y0036238D01*
X0091342Y0036196D01*
X0091333Y0036154D01*
X0091327Y0036111D01*
X0091325Y0036067D01*
X0091327Y0036023D01*
X0091333Y0035980D01*
X0091342Y0035938D01*
X0091355Y0035896D01*
X0091372Y0035856D01*
X0091392Y0035817D01*
X0091415Y0035780D01*
X0091442Y0035746D01*
X0091471Y0035713D01*
X0091504Y0035684D01*
X0091538Y0035657D01*
X0091575Y0035634D01*
X0091614Y0035614D01*
X0091654Y0035597D01*
X0091696Y0035584D01*
X0091738Y0035575D01*
X0091781Y0035569D01*
X0091825Y0035567D01*
X0091869Y0035569D01*
X0091912Y0035575D01*
X0091954Y0035584D01*
X0091996Y0035597D01*
X0092036Y0035614D01*
X0092075Y0035634D01*
X0092112Y0035657D01*
X0092146Y0035684D01*
X0092179Y0035713D01*
X0092208Y0035746D01*
X0092235Y0035780D01*
X0092258Y0035817D01*
X0092278Y0035856D01*
X0092295Y0035896D01*
X0092308Y0035938D01*
X0092317Y0035980D01*
X0092323Y0036023D01*
X0092325Y0036067D01*
X0092323Y0036111D01*
X0092317Y0036154D01*
X0092308Y0036196D01*
X0092295Y0036238D01*
X0092278Y0036278D01*
X0092258Y0036317D01*
X0092235Y0036354D01*
X0092208Y0036388D01*
X0092179Y0036421D01*
X0092146Y0036450D01*
X0092112Y0036477D01*
X0092075Y0036500D01*
X0092036Y0036520D01*
X0091996Y0036537D01*
X0091954Y0036550D01*
X0091912Y0036559D01*
X0091869Y0036565D01*
X0091825Y0036567D01*
X0091781Y0036565D01*
X0091738Y0036559D01*
X0091696Y0036550D01*
X0091654Y0036537D01*
X0091614Y0036520D01*
X0091575Y0036500D01*
X0091538Y0036477D01*
X0091504Y0036450D01*
X0091471Y0036421D01*
X0091442Y0036388D01*
X0091415Y0036354D01*
X0091392Y0036317D01*
X0091372Y0036278D01*
X0091355Y0036238D01*
X0091342Y0036196D01*
X0091333Y0036154D01*
X0091327Y0036111D01*
X0091325Y0036067D01*
X0091327Y0036023D01*
X0091333Y0035980D01*
X0091342Y0035938D01*
X0091355Y0035896D01*
X0091372Y0035856D01*
X0091392Y0035817D01*
X0091415Y0035780D01*
X0091442Y0035746D01*
X0091471Y0035713D01*
X0091504Y0035684D01*
X0091538Y0035657D01*
X0091575Y0035634D01*
X0091614Y0035614D01*
X0091654Y0035597D01*
X0091696Y0035584D01*
X0091738Y0035575D01*
X0091781Y0035569D01*
X0091825Y0035567D01*
X0091869Y0035569D01*
X0091912Y0035575D01*
X0091954Y0035584D01*
X0091996Y0035597D01*
X0092036Y0035614D01*
X0092075Y0035634D01*
X0092112Y0035657D01*
X0092146Y0035684D01*
X0092179Y0035713D01*
X0092208Y0035746D01*
X0092235Y0035780D01*
X0092258Y0035817D01*
X0092278Y0035856D01*
X0092295Y0035896D01*
X0092308Y0035938D01*
X0092317Y0035980D01*
X0092323Y0036023D01*
X0092325Y0036067D01*
X0091093Y0034485D02*
X0091093Y0041685D01*
X0089793Y0041685D02*
X0084993Y0041685D01*
X0083693Y0041685D02*
X0080693Y0041585D01*
X0083693Y0041685D02*
X0083693Y0034485D01*
X0084993Y0034485D02*
X0089793Y0034485D01*
X0075550Y0037117D02*
X0075550Y0038717D01*
X0071150Y0038717D01*
X0071150Y0037117D01*
X0075550Y0037117D01*
X0071150Y0035617D02*
X0055550Y0035617D01*
X0055550Y0055217D01*
X0062150Y0055217D01*
X0071150Y0055217D01*
X0062150Y0055217D01*
X0055550Y0055217D01*
X0055550Y0053717D02*
X0051150Y0053717D01*
X0051150Y0052117D01*
X0055550Y0052117D01*
X0055550Y0053717D01*
X0058200Y0057367D02*
X0058200Y0062967D01*
X0061200Y0062967D01*
X0067000Y0062967D01*
X0067000Y0057367D01*
X0064000Y0057367D01*
X0061200Y0057367D01*
X0058200Y0057367D01*
X0061200Y0057367D02*
X0061200Y0062967D01*
X0064000Y0062967D02*
X0067000Y0063067D01*
X0067000Y0062967D01*
X0064000Y0062967D02*
X0064000Y0057367D01*
X0071150Y0055217D02*
X0071150Y0035617D01*
X0055550Y0035617D01*
X0055550Y0037117D02*
X0051150Y0037117D01*
X0051150Y0038717D01*
X0055550Y0038717D01*
X0055550Y0037117D01*
X0055550Y0042117D02*
X0051150Y0042117D01*
X0051150Y0043717D01*
X0055550Y0043717D01*
X0055550Y0042117D01*
X0055550Y0047117D02*
X0051150Y0047117D01*
X0051150Y0048717D01*
X0055550Y0048717D01*
X0055550Y0047117D01*
X0071150Y0047117D02*
X0075550Y0047117D01*
X0075550Y0048717D01*
X0071150Y0048717D01*
X0071150Y0047117D01*
X0071150Y0043717D02*
X0075550Y0043717D01*
X0075550Y0042117D01*
X0071150Y0042117D01*
X0071150Y0043717D01*
X0071150Y0052117D02*
X0075550Y0052117D01*
X0075550Y0053717D01*
X0071150Y0053717D01*
X0071150Y0052117D01*
X0092000Y0074592D02*
X0092100Y0074592D01*
X0099200Y0074592D01*
X0099200Y0077592D01*
X0099200Y0084992D01*
X0099200Y0087992D01*
X0092000Y0087992D01*
X0092000Y0084992D01*
X0092000Y0074592D01*
X0092100Y0074592D02*
X0092000Y0077592D01*
X0099200Y0077592D01*
X0099200Y0078892D02*
X0099200Y0083692D01*
X0099200Y0084992D02*
X0092000Y0084992D01*
X0092000Y0083692D02*
X0092000Y0078892D01*
X0102500Y0078892D02*
X0102500Y0083692D01*
X0102500Y0084992D02*
X0102500Y0074592D01*
X0102600Y0074592D01*
X0109700Y0074592D01*
X0109700Y0077592D01*
X0109700Y0084992D01*
X0109700Y0087992D01*
X0102500Y0087992D01*
X0102500Y0084992D01*
X0109700Y0084992D01*
X0109700Y0083692D02*
X0109700Y0078892D01*
X0109700Y0077592D02*
X0102500Y0077592D01*
X0102600Y0074592D01*
X0112375Y0074592D02*
X0112475Y0074592D01*
X0119575Y0074592D01*
X0119575Y0077592D01*
X0119575Y0084992D01*
X0119575Y0087992D01*
X0112375Y0087992D01*
X0112375Y0084992D01*
X0112375Y0074592D01*
X0112475Y0074592D02*
X0112375Y0077592D01*
X0119575Y0077592D01*
X0119575Y0078892D02*
X0119575Y0083692D01*
X0119575Y0084992D02*
X0112375Y0084992D01*
X0112375Y0083692D02*
X0112375Y0078892D01*
X0115350Y0068617D02*
X0115350Y0063917D01*
X0115350Y0068617D02*
X0150350Y0068617D01*
X0150350Y0063917D01*
X0181000Y0081767D02*
X0181100Y0081767D01*
X0188200Y0081767D01*
X0188200Y0084767D01*
X0188200Y0092167D01*
X0188200Y0095167D01*
X0181000Y0095167D01*
X0181000Y0092167D01*
X0181000Y0081767D01*
X0181100Y0081767D02*
X0181000Y0084767D01*
X0188200Y0084767D01*
X0188200Y0086067D02*
X0188200Y0090867D01*
X0188200Y0092167D02*
X0181000Y0092167D01*
X0181000Y0090867D02*
X0181000Y0086067D01*
X0193935Y0090871D02*
X0211555Y0073252D01*
X0224265Y0085962D01*
X0206645Y0103582D01*
X0193935Y0090871D01*
X0193600Y0099867D02*
X0190600Y0099867D01*
X0183200Y0099867D01*
X0180200Y0099867D01*
X0180200Y0106967D01*
X0180200Y0107067D01*
X0190600Y0107067D01*
X0193600Y0107067D01*
X0193600Y0099867D01*
X0190600Y0099867D02*
X0190600Y0107067D01*
X0189300Y0107067D02*
X0184500Y0107067D01*
X0183200Y0107067D02*
X0180200Y0106967D01*
X0183200Y0107067D02*
X0183200Y0099867D01*
X0184500Y0099867D02*
X0189300Y0099867D01*
X0217285Y0117167D02*
X0218275Y0116177D01*
X0217285Y0117167D02*
X0218275Y0118157D01*
X0220537Y0124096D02*
X0217709Y0126925D01*
X0206645Y0131502D02*
X0193935Y0144212D01*
X0211555Y0161832D01*
X0224265Y0149121D01*
X0206645Y0131502D01*
X0204359Y0136938D02*
X0204361Y0137022D01*
X0204367Y0137107D01*
X0204377Y0137190D01*
X0204391Y0137274D01*
X0204408Y0137356D01*
X0204430Y0137438D01*
X0204455Y0137518D01*
X0204484Y0137597D01*
X0204517Y0137675D01*
X0204553Y0137751D01*
X0204593Y0137826D01*
X0204637Y0137898D01*
X0204683Y0137969D01*
X0204733Y0138037D01*
X0204786Y0138102D01*
X0204842Y0138165D01*
X0204901Y0138226D01*
X0204963Y0138283D01*
X0205027Y0138338D01*
X0205094Y0138389D01*
X0205163Y0138438D01*
X0205235Y0138483D01*
X0205308Y0138524D01*
X0205383Y0138562D01*
X0205460Y0138597D01*
X0205539Y0138628D01*
X0205619Y0138655D01*
X0205700Y0138678D01*
X0205782Y0138698D01*
X0205865Y0138714D01*
X0205948Y0138726D01*
X0206033Y0138734D01*
X0206117Y0138738D01*
X0206201Y0138738D01*
X0206285Y0138734D01*
X0206370Y0138726D01*
X0206453Y0138714D01*
X0206536Y0138698D01*
X0206618Y0138678D01*
X0206699Y0138655D01*
X0206779Y0138628D01*
X0206858Y0138597D01*
X0206935Y0138562D01*
X0207010Y0138524D01*
X0207083Y0138483D01*
X0207155Y0138438D01*
X0207224Y0138389D01*
X0207291Y0138338D01*
X0207355Y0138283D01*
X0207417Y0138226D01*
X0207476Y0138165D01*
X0207532Y0138102D01*
X0207585Y0138037D01*
X0207635Y0137969D01*
X0207681Y0137898D01*
X0207725Y0137826D01*
X0207765Y0137751D01*
X0207801Y0137675D01*
X0207834Y0137597D01*
X0207863Y0137518D01*
X0207888Y0137438D01*
X0207910Y0137356D01*
X0207927Y0137274D01*
X0207941Y0137190D01*
X0207951Y0137107D01*
X0207957Y0137022D01*
X0207959Y0136938D01*
X0207957Y0136854D01*
X0207951Y0136769D01*
X0207941Y0136686D01*
X0207927Y0136602D01*
X0207910Y0136520D01*
X0207888Y0136438D01*
X0207863Y0136358D01*
X0207834Y0136279D01*
X0207801Y0136201D01*
X0207765Y0136125D01*
X0207725Y0136050D01*
X0207681Y0135978D01*
X0207635Y0135907D01*
X0207585Y0135839D01*
X0207532Y0135774D01*
X0207476Y0135711D01*
X0207417Y0135650D01*
X0207355Y0135593D01*
X0207291Y0135538D01*
X0207224Y0135487D01*
X0207155Y0135438D01*
X0207083Y0135393D01*
X0207010Y0135352D01*
X0206935Y0135314D01*
X0206858Y0135279D01*
X0206779Y0135248D01*
X0206699Y0135221D01*
X0206618Y0135198D01*
X0206536Y0135178D01*
X0206453Y0135162D01*
X0206370Y0135150D01*
X0206285Y0135142D01*
X0206201Y0135138D01*
X0206117Y0135138D01*
X0206033Y0135142D01*
X0205948Y0135150D01*
X0205865Y0135162D01*
X0205782Y0135178D01*
X0205700Y0135198D01*
X0205619Y0135221D01*
X0205539Y0135248D01*
X0205460Y0135279D01*
X0205383Y0135314D01*
X0205308Y0135352D01*
X0205235Y0135393D01*
X0205163Y0135438D01*
X0205094Y0135487D01*
X0205027Y0135538D01*
X0204963Y0135593D01*
X0204901Y0135650D01*
X0204842Y0135711D01*
X0204786Y0135774D01*
X0204733Y0135839D01*
X0204683Y0135907D01*
X0204637Y0135978D01*
X0204593Y0136050D01*
X0204553Y0136125D01*
X0204517Y0136201D01*
X0204484Y0136279D01*
X0204455Y0136358D01*
X0204430Y0136438D01*
X0204408Y0136520D01*
X0204391Y0136602D01*
X0204377Y0136686D01*
X0204367Y0136769D01*
X0204361Y0136854D01*
X0204359Y0136938D01*
X0187812Y0151010D02*
X0182721Y0145919D01*
X0180600Y0148040D01*
X0175367Y0153273D01*
X0173246Y0155394D01*
X0178266Y0160415D01*
X0178337Y0160485D01*
X0185691Y0153131D01*
X0187812Y0151010D01*
X0185691Y0153131D02*
X0180600Y0148040D01*
X0179680Y0148960D02*
X0176286Y0152354D01*
X0175367Y0153273D02*
X0180458Y0158364D01*
X0178266Y0160415D01*
X0181377Y0157445D02*
X0184772Y0154051D01*
X0168800Y0154567D02*
X0168800Y0154667D01*
X0168800Y0161767D01*
X0165800Y0161767D01*
X0158400Y0161767D01*
X0155400Y0161767D01*
X0155400Y0154567D01*
X0158400Y0154567D01*
X0168800Y0154567D01*
X0168800Y0154667D02*
X0165800Y0154567D01*
X0165800Y0161767D01*
X0164500Y0161767D02*
X0159700Y0161767D01*
X0158400Y0161767D02*
X0158400Y0154567D01*
X0159700Y0154567D02*
X0164500Y0154567D01*
X0147400Y0144167D02*
X0121800Y0144167D01*
X0121800Y0138367D01*
X0121800Y0135967D01*
X0121800Y0130167D01*
X0147400Y0130167D01*
X0147400Y0144167D01*
X0142300Y0118642D02*
X0142300Y0111442D01*
X0139300Y0111442D01*
X0131900Y0111442D01*
X0128900Y0111442D01*
X0128900Y0118542D01*
X0128900Y0118642D01*
X0139300Y0118642D01*
X0142300Y0118642D01*
X0139300Y0118642D02*
X0139300Y0111442D01*
X0138000Y0111442D02*
X0133200Y0111442D01*
X0131900Y0111442D02*
X0131900Y0118642D01*
X0128900Y0118542D01*
X0133200Y0118642D02*
X0138000Y0118642D01*
X0164225Y0167792D02*
X0169225Y0167792D01*
X0171725Y0170292D01*
X0174225Y0167792D01*
X0179225Y0167792D01*
X0181725Y0170292D01*
X0184225Y0167792D01*
X0189225Y0167792D01*
X0191725Y0170292D01*
X0194225Y0167792D01*
X0199225Y0167792D01*
X0201725Y0170292D01*
X0204225Y0167792D01*
X0209225Y0167792D01*
X0211725Y0170292D01*
X0214225Y0167792D01*
X0219225Y0167792D01*
X0221725Y0170292D01*
X0224225Y0167792D01*
X0229225Y0167792D01*
X0231725Y0170292D01*
X0234225Y0167792D01*
X0239225Y0167792D01*
X0241725Y0170292D01*
X0244225Y0167792D01*
X0249225Y0167792D01*
X0251725Y0170292D01*
X0254225Y0167792D01*
X0259225Y0167792D01*
X0261725Y0170292D01*
X0261725Y0185292D01*
X0259225Y0187792D01*
X0254225Y0187792D01*
X0251725Y0185292D01*
X0249225Y0187792D01*
X0244225Y0187792D01*
X0241725Y0185292D01*
X0239225Y0187792D01*
X0234225Y0187792D01*
X0231725Y0185292D01*
X0229225Y0187792D01*
X0224225Y0187792D01*
X0221725Y0185292D01*
X0219225Y0187792D01*
X0214225Y0187792D01*
X0211725Y0185292D01*
X0209225Y0187792D01*
X0204225Y0187792D01*
X0201725Y0185292D01*
X0199225Y0187792D01*
X0194225Y0187792D01*
X0191725Y0185292D01*
X0189225Y0187792D01*
X0184225Y0187792D01*
X0181725Y0185292D01*
X0179225Y0187792D01*
X0174225Y0187792D01*
X0171725Y0185292D01*
X0169225Y0187792D01*
X0164225Y0187792D01*
X0161725Y0185292D01*
X0161725Y0170292D01*
X0164225Y0167792D01*
X0151575Y0171967D02*
X0144375Y0171967D01*
X0144375Y0174967D01*
X0144375Y0182367D01*
X0144375Y0185367D01*
X0151475Y0185367D01*
X0151575Y0185367D01*
X0151575Y0174967D01*
X0151575Y0171967D01*
X0151575Y0174967D02*
X0144375Y0174967D01*
X0144375Y0176267D02*
X0144375Y0181067D01*
X0144375Y0182367D02*
X0151575Y0182367D01*
X0151475Y0185367D01*
X0151575Y0181067D02*
X0151575Y0176267D01*
X0128800Y0183942D02*
X0128800Y0191142D01*
X0125800Y0191142D01*
X0115400Y0191142D01*
X0115400Y0191042D01*
X0115400Y0183942D01*
X0118400Y0183942D01*
X0125800Y0183942D01*
X0128800Y0183942D01*
X0125800Y0183942D02*
X0125800Y0191142D01*
X0124500Y0191142D02*
X0119700Y0191142D01*
X0118400Y0191142D02*
X0115400Y0191042D01*
X0118400Y0191142D02*
X0118400Y0183942D01*
X0119700Y0183942D02*
X0124500Y0183942D01*
X0109300Y0216125D02*
X0107031Y0218394D01*
X0106464Y0218394D01*
X0105897Y0217827D01*
X0105897Y0216692D01*
X0106464Y0216125D01*
X0109300Y0216125D02*
X0109300Y0218394D01*
X0236235Y0136117D02*
X0237225Y0137107D01*
X0238215Y0136117D01*
X0252498Y0125369D02*
X0255256Y0128127D01*
X0256175Y0118157D02*
X0257165Y0117167D01*
X0256175Y0116177D01*
X0248256Y0104722D02*
X0251014Y0101964D01*
X0238215Y0098216D02*
X0237225Y0097226D01*
X0236235Y0098216D01*
X0227679Y0103237D02*
X0224851Y0100408D01*
X0217029Y0085476D02*
X0217031Y0085560D01*
X0217037Y0085645D01*
X0217047Y0085728D01*
X0217061Y0085812D01*
X0217078Y0085894D01*
X0217100Y0085976D01*
X0217125Y0086056D01*
X0217154Y0086135D01*
X0217187Y0086213D01*
X0217223Y0086289D01*
X0217263Y0086364D01*
X0217307Y0086436D01*
X0217353Y0086507D01*
X0217403Y0086575D01*
X0217456Y0086640D01*
X0217512Y0086703D01*
X0217571Y0086764D01*
X0217633Y0086821D01*
X0217697Y0086876D01*
X0217764Y0086927D01*
X0217833Y0086976D01*
X0217905Y0087021D01*
X0217978Y0087062D01*
X0218053Y0087100D01*
X0218130Y0087135D01*
X0218209Y0087166D01*
X0218289Y0087193D01*
X0218370Y0087216D01*
X0218452Y0087236D01*
X0218535Y0087252D01*
X0218618Y0087264D01*
X0218703Y0087272D01*
X0218787Y0087276D01*
X0218871Y0087276D01*
X0218955Y0087272D01*
X0219040Y0087264D01*
X0219123Y0087252D01*
X0219206Y0087236D01*
X0219288Y0087216D01*
X0219369Y0087193D01*
X0219449Y0087166D01*
X0219528Y0087135D01*
X0219605Y0087100D01*
X0219680Y0087062D01*
X0219753Y0087021D01*
X0219825Y0086976D01*
X0219894Y0086927D01*
X0219961Y0086876D01*
X0220025Y0086821D01*
X0220087Y0086764D01*
X0220146Y0086703D01*
X0220202Y0086640D01*
X0220255Y0086575D01*
X0220305Y0086507D01*
X0220351Y0086436D01*
X0220395Y0086364D01*
X0220435Y0086289D01*
X0220471Y0086213D01*
X0220504Y0086135D01*
X0220533Y0086056D01*
X0220558Y0085976D01*
X0220580Y0085894D01*
X0220597Y0085812D01*
X0220611Y0085728D01*
X0220621Y0085645D01*
X0220627Y0085560D01*
X0220629Y0085476D01*
X0220627Y0085392D01*
X0220621Y0085307D01*
X0220611Y0085224D01*
X0220597Y0085140D01*
X0220580Y0085058D01*
X0220558Y0084976D01*
X0220533Y0084896D01*
X0220504Y0084817D01*
X0220471Y0084739D01*
X0220435Y0084663D01*
X0220395Y0084588D01*
X0220351Y0084516D01*
X0220305Y0084445D01*
X0220255Y0084377D01*
X0220202Y0084312D01*
X0220146Y0084249D01*
X0220087Y0084188D01*
X0220025Y0084131D01*
X0219961Y0084076D01*
X0219894Y0084025D01*
X0219825Y0083976D01*
X0219753Y0083931D01*
X0219680Y0083890D01*
X0219605Y0083852D01*
X0219528Y0083817D01*
X0219449Y0083786D01*
X0219369Y0083759D01*
X0219288Y0083736D01*
X0219206Y0083716D01*
X0219123Y0083700D01*
X0219040Y0083688D01*
X0218955Y0083680D01*
X0218871Y0083676D01*
X0218787Y0083676D01*
X0218703Y0083680D01*
X0218618Y0083688D01*
X0218535Y0083700D01*
X0218452Y0083716D01*
X0218370Y0083736D01*
X0218289Y0083759D01*
X0218209Y0083786D01*
X0218130Y0083817D01*
X0218053Y0083852D01*
X0217978Y0083890D01*
X0217905Y0083931D01*
X0217833Y0083976D01*
X0217764Y0084025D01*
X0217697Y0084076D01*
X0217633Y0084131D01*
X0217571Y0084188D01*
X0217512Y0084249D01*
X0217456Y0084312D01*
X0217403Y0084377D01*
X0217353Y0084445D01*
X0217307Y0084516D01*
X0217263Y0084588D01*
X0217223Y0084663D01*
X0217187Y0084739D01*
X0217154Y0084817D01*
X0217125Y0084896D01*
X0217100Y0084976D01*
X0217078Y0085058D01*
X0217061Y0085140D01*
X0217047Y0085224D01*
X0217037Y0085307D01*
X0217031Y0085392D01*
X0217029Y0085476D01*
X0296500Y0100967D02*
X0296600Y0100967D01*
X0303700Y0100967D01*
X0303700Y0103967D01*
X0303700Y0111367D01*
X0303700Y0114367D01*
X0296500Y0114367D01*
X0296500Y0111367D01*
X0296500Y0100967D01*
X0296600Y0100967D02*
X0296500Y0103967D01*
X0303700Y0103967D01*
X0303700Y0105267D02*
X0303700Y0110067D01*
X0303700Y0111367D02*
X0296500Y0111367D01*
X0296500Y0110067D02*
X0296500Y0105267D01*
X0301613Y0094626D02*
X0319587Y0094626D01*
X0319587Y0069708D01*
X0301613Y0069708D01*
X0301613Y0094626D01*
X0304000Y0091126D02*
X0304002Y0091210D01*
X0304008Y0091295D01*
X0304018Y0091378D01*
X0304032Y0091462D01*
X0304049Y0091544D01*
X0304071Y0091626D01*
X0304096Y0091706D01*
X0304125Y0091785D01*
X0304158Y0091863D01*
X0304194Y0091939D01*
X0304234Y0092014D01*
X0304278Y0092086D01*
X0304324Y0092157D01*
X0304374Y0092225D01*
X0304427Y0092290D01*
X0304483Y0092353D01*
X0304542Y0092414D01*
X0304604Y0092471D01*
X0304668Y0092526D01*
X0304735Y0092577D01*
X0304804Y0092626D01*
X0304876Y0092671D01*
X0304949Y0092712D01*
X0305024Y0092750D01*
X0305101Y0092785D01*
X0305180Y0092816D01*
X0305260Y0092843D01*
X0305341Y0092866D01*
X0305423Y0092886D01*
X0305506Y0092902D01*
X0305589Y0092914D01*
X0305674Y0092922D01*
X0305758Y0092926D01*
X0305842Y0092926D01*
X0305926Y0092922D01*
X0306011Y0092914D01*
X0306094Y0092902D01*
X0306177Y0092886D01*
X0306259Y0092866D01*
X0306340Y0092843D01*
X0306420Y0092816D01*
X0306499Y0092785D01*
X0306576Y0092750D01*
X0306651Y0092712D01*
X0306724Y0092671D01*
X0306796Y0092626D01*
X0306865Y0092577D01*
X0306932Y0092526D01*
X0306996Y0092471D01*
X0307058Y0092414D01*
X0307117Y0092353D01*
X0307173Y0092290D01*
X0307226Y0092225D01*
X0307276Y0092157D01*
X0307322Y0092086D01*
X0307366Y0092014D01*
X0307406Y0091939D01*
X0307442Y0091863D01*
X0307475Y0091785D01*
X0307504Y0091706D01*
X0307529Y0091626D01*
X0307551Y0091544D01*
X0307568Y0091462D01*
X0307582Y0091378D01*
X0307592Y0091295D01*
X0307598Y0091210D01*
X0307600Y0091126D01*
X0307598Y0091042D01*
X0307592Y0090957D01*
X0307582Y0090874D01*
X0307568Y0090790D01*
X0307551Y0090708D01*
X0307529Y0090626D01*
X0307504Y0090546D01*
X0307475Y0090467D01*
X0307442Y0090389D01*
X0307406Y0090313D01*
X0307366Y0090238D01*
X0307322Y0090166D01*
X0307276Y0090095D01*
X0307226Y0090027D01*
X0307173Y0089962D01*
X0307117Y0089899D01*
X0307058Y0089838D01*
X0306996Y0089781D01*
X0306932Y0089726D01*
X0306865Y0089675D01*
X0306796Y0089626D01*
X0306724Y0089581D01*
X0306651Y0089540D01*
X0306576Y0089502D01*
X0306499Y0089467D01*
X0306420Y0089436D01*
X0306340Y0089409D01*
X0306259Y0089386D01*
X0306177Y0089366D01*
X0306094Y0089350D01*
X0306011Y0089338D01*
X0305926Y0089330D01*
X0305842Y0089326D01*
X0305758Y0089326D01*
X0305674Y0089330D01*
X0305589Y0089338D01*
X0305506Y0089350D01*
X0305423Y0089366D01*
X0305341Y0089386D01*
X0305260Y0089409D01*
X0305180Y0089436D01*
X0305101Y0089467D01*
X0305024Y0089502D01*
X0304949Y0089540D01*
X0304876Y0089581D01*
X0304804Y0089626D01*
X0304735Y0089675D01*
X0304668Y0089726D01*
X0304604Y0089781D01*
X0304542Y0089838D01*
X0304483Y0089899D01*
X0304427Y0089962D01*
X0304374Y0090027D01*
X0304324Y0090095D01*
X0304278Y0090166D01*
X0304234Y0090238D01*
X0304194Y0090313D01*
X0304158Y0090389D01*
X0304125Y0090467D01*
X0304096Y0090546D01*
X0304071Y0090626D01*
X0304049Y0090708D01*
X0304032Y0090790D01*
X0304018Y0090874D01*
X0304008Y0090957D01*
X0304002Y0091042D01*
X0304000Y0091126D01*
X0321000Y0100967D02*
X0321100Y0100967D01*
X0328200Y0100967D01*
X0328200Y0103967D01*
X0328200Y0111367D01*
X0328200Y0114367D01*
X0321000Y0114367D01*
X0321000Y0111367D01*
X0321000Y0100967D01*
X0321100Y0100967D02*
X0321000Y0103967D01*
X0328200Y0103967D01*
X0328200Y0105267D02*
X0328200Y0110067D01*
X0328200Y0111367D02*
X0321000Y0111367D01*
X0321000Y0110067D02*
X0321000Y0105267D01*
X0319587Y0129708D02*
X0301613Y0129708D01*
X0301613Y0154626D01*
X0319587Y0154626D01*
X0319587Y0129708D01*
X0304000Y0151126D02*
X0304002Y0151210D01*
X0304008Y0151295D01*
X0304018Y0151378D01*
X0304032Y0151462D01*
X0304049Y0151544D01*
X0304071Y0151626D01*
X0304096Y0151706D01*
X0304125Y0151785D01*
X0304158Y0151863D01*
X0304194Y0151939D01*
X0304234Y0152014D01*
X0304278Y0152086D01*
X0304324Y0152157D01*
X0304374Y0152225D01*
X0304427Y0152290D01*
X0304483Y0152353D01*
X0304542Y0152414D01*
X0304604Y0152471D01*
X0304668Y0152526D01*
X0304735Y0152577D01*
X0304804Y0152626D01*
X0304876Y0152671D01*
X0304949Y0152712D01*
X0305024Y0152750D01*
X0305101Y0152785D01*
X0305180Y0152816D01*
X0305260Y0152843D01*
X0305341Y0152866D01*
X0305423Y0152886D01*
X0305506Y0152902D01*
X0305589Y0152914D01*
X0305674Y0152922D01*
X0305758Y0152926D01*
X0305842Y0152926D01*
X0305926Y0152922D01*
X0306011Y0152914D01*
X0306094Y0152902D01*
X0306177Y0152886D01*
X0306259Y0152866D01*
X0306340Y0152843D01*
X0306420Y0152816D01*
X0306499Y0152785D01*
X0306576Y0152750D01*
X0306651Y0152712D01*
X0306724Y0152671D01*
X0306796Y0152626D01*
X0306865Y0152577D01*
X0306932Y0152526D01*
X0306996Y0152471D01*
X0307058Y0152414D01*
X0307117Y0152353D01*
X0307173Y0152290D01*
X0307226Y0152225D01*
X0307276Y0152157D01*
X0307322Y0152086D01*
X0307366Y0152014D01*
X0307406Y0151939D01*
X0307442Y0151863D01*
X0307475Y0151785D01*
X0307504Y0151706D01*
X0307529Y0151626D01*
X0307551Y0151544D01*
X0307568Y0151462D01*
X0307582Y0151378D01*
X0307592Y0151295D01*
X0307598Y0151210D01*
X0307600Y0151126D01*
X0307598Y0151042D01*
X0307592Y0150957D01*
X0307582Y0150874D01*
X0307568Y0150790D01*
X0307551Y0150708D01*
X0307529Y0150626D01*
X0307504Y0150546D01*
X0307475Y0150467D01*
X0307442Y0150389D01*
X0307406Y0150313D01*
X0307366Y0150238D01*
X0307322Y0150166D01*
X0307276Y0150095D01*
X0307226Y0150027D01*
X0307173Y0149962D01*
X0307117Y0149899D01*
X0307058Y0149838D01*
X0306996Y0149781D01*
X0306932Y0149726D01*
X0306865Y0149675D01*
X0306796Y0149626D01*
X0306724Y0149581D01*
X0306651Y0149540D01*
X0306576Y0149502D01*
X0306499Y0149467D01*
X0306420Y0149436D01*
X0306340Y0149409D01*
X0306259Y0149386D01*
X0306177Y0149366D01*
X0306094Y0149350D01*
X0306011Y0149338D01*
X0305926Y0149330D01*
X0305842Y0149326D01*
X0305758Y0149326D01*
X0305674Y0149330D01*
X0305589Y0149338D01*
X0305506Y0149350D01*
X0305423Y0149366D01*
X0305341Y0149386D01*
X0305260Y0149409D01*
X0305180Y0149436D01*
X0305101Y0149467D01*
X0305024Y0149502D01*
X0304949Y0149540D01*
X0304876Y0149581D01*
X0304804Y0149626D01*
X0304735Y0149675D01*
X0304668Y0149726D01*
X0304604Y0149781D01*
X0304542Y0149838D01*
X0304483Y0149899D01*
X0304427Y0149962D01*
X0304374Y0150027D01*
X0304324Y0150095D01*
X0304278Y0150166D01*
X0304234Y0150238D01*
X0304194Y0150313D01*
X0304158Y0150389D01*
X0304125Y0150467D01*
X0304096Y0150546D01*
X0304071Y0150626D01*
X0304049Y0150708D01*
X0304032Y0150790D01*
X0304018Y0150874D01*
X0304008Y0150957D01*
X0304002Y0151042D01*
X0304000Y0151126D01*
X0306700Y0163467D02*
X0299600Y0163467D01*
X0299500Y0163467D01*
X0299500Y0173867D01*
X0299500Y0176867D01*
X0306700Y0176867D01*
X0306700Y0173867D01*
X0306700Y0166467D01*
X0306700Y0163467D01*
X0306700Y0166467D02*
X0299500Y0166467D01*
X0299600Y0163467D01*
X0299500Y0167767D02*
X0299500Y0172567D01*
X0299500Y0173867D02*
X0306700Y0173867D01*
X0306700Y0172567D02*
X0306700Y0167767D01*
X0321000Y0167267D02*
X0321000Y0172067D01*
X0321000Y0173367D02*
X0321000Y0162967D01*
X0321100Y0162967D01*
X0328200Y0162967D01*
X0328200Y0165967D01*
X0328200Y0173367D01*
X0328200Y0176367D01*
X0321000Y0176367D01*
X0321000Y0173367D01*
X0328200Y0173367D01*
X0328200Y0172067D02*
X0328200Y0167267D01*
X0328200Y0165967D02*
X0321000Y0165967D01*
X0321100Y0162967D01*
X0322900Y0182942D02*
X0325900Y0182942D01*
X0333300Y0182942D01*
X0336300Y0182942D01*
X0336300Y0190142D01*
X0333300Y0190142D01*
X0322900Y0190142D01*
X0322900Y0190042D01*
X0322900Y0182942D01*
X0325900Y0182942D02*
X0325900Y0190142D01*
X0322900Y0190042D01*
X0327200Y0190142D02*
X0332000Y0190142D01*
X0333300Y0190142D02*
X0333300Y0182942D01*
X0332000Y0182942D02*
X0327200Y0182942D01*
X0294800Y0182942D02*
X0294800Y0190142D01*
X0291800Y0190142D01*
X0281400Y0190142D01*
X0281400Y0190042D01*
X0281400Y0182942D01*
X0284400Y0182942D01*
X0291800Y0182942D01*
X0294800Y0182942D01*
X0291800Y0182942D02*
X0291800Y0190142D01*
X0290500Y0190142D02*
X0285700Y0190142D01*
X0284400Y0190142D02*
X0281400Y0190042D01*
X0284400Y0190142D02*
X0284400Y0182942D01*
X0285700Y0182942D02*
X0290500Y0182942D01*
X0340897Y0205985D02*
X0342599Y0204284D01*
X0342599Y0206552D01*
X0342599Y0207967D02*
X0342031Y0209101D01*
X0342031Y0209668D01*
X0342599Y0210235D01*
X0343733Y0210235D01*
X0344300Y0209668D01*
X0344300Y0208534D01*
X0343733Y0207967D01*
X0342599Y0207967D02*
X0340897Y0207967D01*
X0340897Y0210235D01*
X0340897Y0205985D02*
X0344300Y0205985D01*
X0342599Y0214284D02*
X0340897Y0215985D01*
X0344300Y0215985D01*
X0342599Y0216552D02*
X0342599Y0214284D01*
X0342599Y0217967D02*
X0341464Y0219101D01*
X0340897Y0220235D01*
X0342599Y0219668D02*
X0342599Y0217967D01*
X0343733Y0217967D01*
X0344300Y0218534D01*
X0344300Y0219668D01*
X0343733Y0220235D01*
X0343166Y0220235D01*
X0342599Y0219668D01*
X0109300Y0028394D02*
X0109300Y0026125D01*
X0107031Y0028394D01*
X0106464Y0028394D01*
X0105897Y0027827D01*
X0105897Y0026692D01*
X0106464Y0026125D01*
X0109300Y0018394D02*
X0109300Y0016125D01*
X0109300Y0017259D02*
X0105897Y0017259D01*
X0107031Y0016125D01*
D12*
X0064544Y0028067D02*
X0061408Y0028067D01*
X0064544Y0031203D01*
X0064544Y0031987D01*
X0063760Y0032771D01*
X0062192Y0032771D01*
X0061408Y0031987D01*
X0059940Y0031987D02*
X0059156Y0032771D01*
X0057588Y0032771D01*
X0056804Y0031987D01*
X0056804Y0031203D01*
X0057588Y0030419D01*
X0059156Y0030419D01*
X0059940Y0029635D01*
X0059940Y0028851D01*
X0059156Y0028067D01*
X0057588Y0028067D01*
X0056804Y0028851D01*
X0055336Y0028851D02*
X0054552Y0028067D01*
X0052984Y0028067D01*
X0052200Y0028851D01*
X0052200Y0032771D01*
X0055336Y0032771D02*
X0055336Y0028851D01*
X0058372Y0027283D02*
X0058372Y0033555D01*
X0081257Y0052983D02*
X0082041Y0052199D01*
X0083609Y0052199D01*
X0084393Y0052983D01*
X0085861Y0052199D02*
X0088997Y0055335D01*
X0088997Y0056119D01*
X0088213Y0056903D01*
X0086645Y0056903D01*
X0085861Y0056119D01*
X0084393Y0056119D02*
X0083609Y0056903D01*
X0082041Y0056903D01*
X0081257Y0056119D01*
X0081257Y0052983D01*
X0085861Y0052199D02*
X0088997Y0052199D01*
X0090465Y0052199D02*
X0093601Y0052199D01*
X0092033Y0052199D02*
X0092033Y0056903D01*
X0090465Y0055335D01*
X0099350Y0058592D02*
X0099350Y0063296D01*
X0101702Y0063296D01*
X0102486Y0062512D01*
X0102486Y0059376D01*
X0101702Y0058592D01*
X0099350Y0058592D01*
X0103954Y0058592D02*
X0107090Y0061728D01*
X0107090Y0062512D01*
X0106306Y0063296D01*
X0104738Y0063296D01*
X0103954Y0062512D01*
X0103977Y0066317D02*
X0102409Y0066317D01*
X0101625Y0067101D01*
X0101625Y0070237D01*
X0102409Y0071021D01*
X0103977Y0071021D01*
X0104761Y0070237D01*
X0106229Y0069453D02*
X0107797Y0071021D01*
X0107797Y0066317D01*
X0106229Y0066317D02*
X0109365Y0066317D01*
X0110833Y0067101D02*
X0111617Y0066317D01*
X0113185Y0066317D01*
X0113969Y0067101D01*
X0113969Y0070237D01*
X0113185Y0071021D01*
X0111617Y0071021D01*
X0110833Y0070237D01*
X0110833Y0069453D01*
X0111617Y0068669D01*
X0113969Y0068669D01*
X0104761Y0067101D02*
X0103977Y0066317D01*
X0099169Y0066701D02*
X0099169Y0069837D01*
X0096033Y0066701D01*
X0096817Y0065917D01*
X0098385Y0065917D01*
X0099169Y0066701D01*
X0096033Y0066701D02*
X0096033Y0069837D01*
X0096817Y0070621D01*
X0098385Y0070621D01*
X0099169Y0069837D01*
X0094565Y0069837D02*
X0094565Y0069053D01*
X0091429Y0065917D01*
X0094565Y0065917D01*
X0089961Y0066701D02*
X0089177Y0065917D01*
X0087609Y0065917D01*
X0086825Y0066701D01*
X0086825Y0069837D01*
X0087609Y0070621D01*
X0089177Y0070621D01*
X0089961Y0069837D01*
X0091429Y0069837D02*
X0092213Y0070621D01*
X0093781Y0070621D01*
X0094565Y0069837D01*
X0103954Y0058592D02*
X0107090Y0058592D01*
X0130496Y0059162D02*
X0130496Y0060730D01*
X0131280Y0061514D01*
X0134416Y0058378D01*
X0135200Y0059162D01*
X0135200Y0060730D01*
X0134416Y0061514D01*
X0131280Y0061514D01*
X0130496Y0059162D02*
X0131280Y0058378D01*
X0134416Y0058378D01*
X0135200Y0056911D02*
X0135200Y0053775D01*
X0135200Y0055343D02*
X0130496Y0055343D01*
X0132064Y0053775D01*
X0131280Y0052307D02*
X0130496Y0051523D01*
X0130496Y0049955D01*
X0131280Y0049171D01*
X0132064Y0049171D01*
X0132848Y0049955D01*
X0132848Y0051523D01*
X0133632Y0052307D01*
X0134416Y0052307D01*
X0135200Y0051523D01*
X0135200Y0049955D01*
X0134416Y0049171D01*
X0134416Y0047703D02*
X0130496Y0047703D01*
X0129712Y0050739D02*
X0135984Y0050739D01*
X0134416Y0047703D02*
X0135200Y0046919D01*
X0135200Y0045351D01*
X0134416Y0044567D01*
X0130496Y0044567D01*
X0172621Y0041189D02*
X0177325Y0041189D01*
X0177325Y0039621D02*
X0177325Y0042757D01*
X0174189Y0039621D02*
X0172621Y0041189D01*
X0173405Y0038153D02*
X0172621Y0037369D01*
X0172621Y0035801D01*
X0173405Y0035017D01*
X0176541Y0035017D01*
X0177325Y0035801D01*
X0177325Y0037369D01*
X0176541Y0038153D01*
X0133385Y0083292D02*
X0131817Y0083292D01*
X0131033Y0084076D01*
X0134169Y0087212D01*
X0134169Y0084076D01*
X0133385Y0083292D01*
X0131033Y0084076D02*
X0131033Y0087212D01*
X0131817Y0087996D01*
X0133385Y0087996D01*
X0134169Y0087212D01*
X0129565Y0083292D02*
X0126429Y0083292D01*
X0127997Y0083292D02*
X0127997Y0087996D01*
X0126429Y0086428D01*
X0124961Y0087212D02*
X0124177Y0087996D01*
X0122609Y0087996D01*
X0121825Y0087212D01*
X0121825Y0084076D01*
X0122609Y0083292D01*
X0124177Y0083292D01*
X0124961Y0084076D01*
X0145134Y0112842D02*
X0146702Y0112842D01*
X0147486Y0113626D01*
X0148954Y0112842D02*
X0152090Y0115978D01*
X0152090Y0116762D01*
X0151306Y0117546D01*
X0149738Y0117546D01*
X0148954Y0116762D01*
X0147486Y0116762D02*
X0146702Y0117546D01*
X0145134Y0117546D01*
X0144350Y0116762D01*
X0144350Y0113626D01*
X0145134Y0112842D01*
X0148954Y0112842D02*
X0152090Y0112842D01*
X0180806Y0113033D02*
X0180806Y0112249D01*
X0181590Y0111465D01*
X0183942Y0111465D01*
X0183942Y0113033D01*
X0183158Y0113817D01*
X0181590Y0113817D01*
X0180806Y0113033D01*
X0182374Y0109897D02*
X0183942Y0111465D01*
X0185410Y0110681D02*
X0185410Y0109897D01*
X0186194Y0109113D01*
X0187762Y0109113D01*
X0188546Y0109897D01*
X0190014Y0109897D02*
X0190798Y0109113D01*
X0192366Y0109113D01*
X0193150Y0109897D01*
X0193150Y0113033D01*
X0192366Y0113817D01*
X0190798Y0113817D01*
X0190014Y0113033D01*
X0188546Y0113817D02*
X0185410Y0110681D01*
X0182374Y0109897D02*
X0180806Y0109113D01*
X0185410Y0113817D02*
X0188546Y0113817D01*
X0183034Y0101917D02*
X0182250Y0101917D01*
X0182250Y0101133D01*
X0183034Y0101133D01*
X0183034Y0101917D01*
X0183034Y0099617D02*
X0182250Y0098833D01*
X0182250Y0097265D01*
X0183034Y0096481D01*
X0182250Y0096479D02*
X0182250Y0099615D01*
X0183034Y0099617D02*
X0186170Y0099617D01*
X0186954Y0098833D01*
X0186954Y0097265D01*
X0186170Y0096481D01*
X0186170Y0095013D02*
X0186954Y0094229D01*
X0186954Y0092661D01*
X0186170Y0091877D01*
X0185386Y0091877D01*
X0182250Y0095013D01*
X0182250Y0091877D01*
X0182250Y0091875D02*
X0185386Y0091875D01*
X0184602Y0090407D02*
X0184602Y0088839D01*
X0186170Y0087273D02*
X0183034Y0090409D01*
X0182250Y0090409D01*
X0182250Y0090407D02*
X0186954Y0090407D01*
X0186954Y0087271D01*
X0186954Y0087273D02*
X0186170Y0087273D01*
X0186954Y0087273D02*
X0186954Y0090409D01*
X0185386Y0095011D02*
X0183034Y0095011D01*
X0182250Y0094227D01*
X0182250Y0091875D01*
X0182250Y0098047D02*
X0186954Y0098047D01*
X0185386Y0099615D01*
X0232595Y0138391D02*
X0234812Y0140609D01*
X0233704Y0141717D02*
X0233704Y0137282D01*
X0234812Y0138391D02*
X0232595Y0140609D01*
X0231486Y0139500D02*
X0235921Y0139500D01*
X0190825Y0155697D02*
X0190825Y0156806D01*
X0189717Y0157915D01*
X0188608Y0157915D01*
X0188054Y0157360D01*
X0188054Y0156251D01*
X0189717Y0154588D01*
X0188608Y0153480D02*
X0190825Y0155697D01*
X0188608Y0153480D02*
X0187499Y0153480D01*
X0186390Y0154588D01*
X0186390Y0155697D01*
X0184798Y0156181D02*
X0182581Y0158398D01*
X0187016Y0158398D01*
X0187570Y0158953D01*
X0187570Y0160061D01*
X0186461Y0161170D01*
X0185352Y0161170D01*
X0184314Y0162208D02*
X0184314Y0163317D01*
X0183206Y0164426D01*
X0182097Y0164426D01*
X0179879Y0162208D01*
X0179879Y0161099D01*
X0180988Y0159991D01*
X0182097Y0159991D01*
X0168294Y0163801D02*
X0167510Y0163017D01*
X0165942Y0163017D01*
X0165158Y0163801D01*
X0165158Y0164585D01*
X0165942Y0165369D01*
X0167510Y0165369D01*
X0168294Y0164585D01*
X0168294Y0163801D01*
X0167510Y0165369D02*
X0168294Y0166153D01*
X0168294Y0166937D01*
X0167510Y0167721D01*
X0165942Y0167721D01*
X0165158Y0166937D01*
X0165158Y0166153D01*
X0165942Y0165369D01*
X0163690Y0166153D02*
X0163690Y0166937D01*
X0162906Y0167721D01*
X0161338Y0167721D01*
X0160554Y0166937D01*
X0159086Y0166937D02*
X0158302Y0167721D01*
X0156734Y0167721D01*
X0155950Y0166937D01*
X0155950Y0163801D01*
X0156734Y0163017D01*
X0158302Y0163017D01*
X0159086Y0163801D01*
X0160554Y0163017D02*
X0163690Y0166153D01*
X0163690Y0163017D02*
X0160554Y0163017D01*
X0152190Y0166626D02*
X0152190Y0169762D01*
X0151406Y0170546D01*
X0149838Y0170546D01*
X0149054Y0169762D01*
X0149054Y0168978D01*
X0149838Y0168194D01*
X0152190Y0168194D01*
X0152190Y0166626D02*
X0151406Y0165842D01*
X0149838Y0165842D01*
X0149054Y0166626D01*
X0147586Y0166626D02*
X0146802Y0165842D01*
X0145234Y0165842D01*
X0144450Y0166626D01*
X0144450Y0169762D01*
X0145234Y0170546D01*
X0146802Y0170546D01*
X0147586Y0169762D01*
X0125406Y0192442D02*
X0123838Y0192442D01*
X0123054Y0193226D01*
X0121586Y0193226D02*
X0120802Y0192442D01*
X0119234Y0192442D01*
X0118450Y0193226D01*
X0118450Y0196362D01*
X0119234Y0197146D01*
X0120802Y0197146D01*
X0121586Y0196362D01*
X0123054Y0196362D02*
X0123838Y0197146D01*
X0125406Y0197146D01*
X0126190Y0196362D01*
X0126190Y0195578D01*
X0125406Y0194794D01*
X0126190Y0194010D01*
X0126190Y0193226D01*
X0125406Y0192442D01*
X0125406Y0194794D02*
X0124622Y0194794D01*
X0124466Y0124653D02*
X0121330Y0121517D01*
X0121330Y0123085D02*
X0124466Y0123085D01*
X0124466Y0121517D02*
X0121330Y0124653D01*
X0122898Y0124653D02*
X0122898Y0121517D01*
X0054926Y0063321D02*
X0054926Y0058617D01*
X0053636Y0058287D02*
X0050500Y0055151D01*
X0053636Y0058287D01*
X0053358Y0058617D02*
X0056494Y0058617D01*
X0053636Y0056719D02*
X0050500Y0056719D01*
X0053636Y0056719D01*
X0053636Y0055151D02*
X0050500Y0058287D01*
X0053636Y0055151D01*
X0052068Y0055151D02*
X0052068Y0058287D01*
X0052068Y0055151D01*
X0051890Y0058617D02*
X0048754Y0058617D01*
X0050322Y0058617D02*
X0050322Y0063321D01*
X0048754Y0061753D01*
X0047286Y0062537D02*
X0046502Y0063321D01*
X0044934Y0063321D01*
X0044150Y0062537D01*
X0044150Y0059401D01*
X0044934Y0058617D01*
X0046502Y0058617D01*
X0047286Y0059401D01*
X0053358Y0061753D02*
X0054926Y0063321D01*
X0282350Y0177026D02*
X0283134Y0176242D01*
X0284702Y0176242D01*
X0285486Y0177026D01*
X0286954Y0176242D02*
X0290090Y0176242D01*
X0288522Y0176242D02*
X0288522Y0180946D01*
X0286954Y0179378D01*
X0285486Y0180162D02*
X0284702Y0180946D01*
X0283134Y0180946D01*
X0282350Y0180162D01*
X0282350Y0177026D01*
X0291558Y0177026D02*
X0292342Y0176242D01*
X0293910Y0176242D01*
X0294694Y0177026D01*
X0294694Y0177810D01*
X0293910Y0178594D01*
X0293126Y0178594D01*
X0293910Y0178594D02*
X0294694Y0179378D01*
X0294694Y0180162D01*
X0293910Y0180946D01*
X0292342Y0180946D01*
X0291558Y0180162D01*
X0294034Y0174017D02*
X0293250Y0173233D01*
X0293250Y0171665D01*
X0294034Y0170881D01*
X0293250Y0169413D02*
X0296386Y0166277D01*
X0297170Y0166277D01*
X0297954Y0167061D01*
X0297954Y0168629D01*
X0297170Y0169413D01*
X0297170Y0170881D02*
X0297954Y0171665D01*
X0297954Y0173233D01*
X0297170Y0174017D01*
X0294034Y0174017D01*
X0293250Y0169413D02*
X0293250Y0166277D01*
X0293250Y0164809D02*
X0296386Y0161673D01*
X0297170Y0161673D01*
X0297954Y0162457D01*
X0297954Y0164025D01*
X0297170Y0164809D01*
X0293250Y0164809D02*
X0293250Y0161673D01*
X0314050Y0164857D02*
X0314050Y0166425D01*
X0314834Y0167209D01*
X0314050Y0168677D02*
X0314050Y0171813D01*
X0317186Y0168677D01*
X0317970Y0168677D01*
X0318754Y0169461D01*
X0318754Y0171029D01*
X0317970Y0171813D01*
X0317970Y0173281D02*
X0318754Y0174065D01*
X0318754Y0175633D01*
X0317970Y0176417D01*
X0314834Y0176417D01*
X0314050Y0175633D01*
X0314050Y0174065D01*
X0314834Y0173281D01*
X0317970Y0167209D02*
X0318754Y0166425D01*
X0318754Y0164857D01*
X0317970Y0164073D01*
X0317186Y0164073D01*
X0316402Y0164857D01*
X0315618Y0164073D01*
X0314834Y0164073D01*
X0314050Y0164857D01*
X0316402Y0164857D02*
X0316402Y0165641D01*
X0321834Y0192342D02*
X0321050Y0193126D01*
X0321050Y0196262D01*
X0321834Y0197046D01*
X0323402Y0197046D01*
X0324186Y0196262D01*
X0325654Y0195478D02*
X0327222Y0197046D01*
X0327222Y0192342D01*
X0325654Y0192342D02*
X0328790Y0192342D01*
X0330258Y0193126D02*
X0330258Y0193910D01*
X0331042Y0194694D01*
X0332610Y0194694D01*
X0333394Y0193910D01*
X0333394Y0193126D01*
X0332610Y0192342D01*
X0331042Y0192342D01*
X0330258Y0193126D01*
X0331042Y0194694D02*
X0330258Y0195478D01*
X0330258Y0196262D01*
X0331042Y0197046D01*
X0332610Y0197046D01*
X0333394Y0196262D01*
X0333394Y0195478D01*
X0332610Y0194694D01*
X0324186Y0193126D02*
X0323402Y0192342D01*
X0321834Y0192342D01*
X0316470Y0113917D02*
X0313334Y0113917D01*
X0312550Y0113133D01*
X0312550Y0111565D01*
X0313334Y0110781D01*
X0312550Y0109313D02*
X0315686Y0106177D01*
X0316470Y0106177D01*
X0317254Y0106961D01*
X0317254Y0108529D01*
X0316470Y0109313D01*
X0316470Y0110781D02*
X0317254Y0111565D01*
X0317254Y0113133D01*
X0316470Y0113917D01*
X0312550Y0109313D02*
X0312550Y0106177D01*
X0314902Y0104709D02*
X0314902Y0101573D01*
X0317254Y0102357D02*
X0314902Y0104709D01*
X0312550Y0102357D02*
X0317254Y0102357D01*
X0294654Y0101073D02*
X0294654Y0104209D01*
X0292302Y0104209D01*
X0293086Y0102641D01*
X0293086Y0101857D01*
X0292302Y0101073D01*
X0290734Y0101073D01*
X0289950Y0101857D01*
X0289950Y0103425D01*
X0290734Y0104209D01*
X0289950Y0105677D02*
X0289950Y0108813D01*
X0293086Y0105677D01*
X0293870Y0105677D01*
X0294654Y0106461D01*
X0294654Y0108029D01*
X0293870Y0108813D01*
X0293870Y0110281D02*
X0294654Y0111065D01*
X0294654Y0112633D01*
X0293870Y0113417D01*
X0290734Y0113417D01*
X0289950Y0112633D01*
X0289950Y0111065D01*
X0290734Y0110281D01*
D13*
X0307200Y0099629D02*
X0307200Y0096626D01*
X0307801Y0096026D01*
X0309002Y0096026D01*
X0309602Y0096626D01*
X0309602Y0099629D01*
X0310883Y0099028D02*
X0311484Y0099629D01*
X0312685Y0099629D01*
X0313285Y0099028D01*
X0312685Y0097827D02*
X0311484Y0097827D01*
X0310883Y0098428D01*
X0310883Y0099028D01*
X0312084Y0100229D02*
X0312084Y0095425D01*
X0311484Y0096026D02*
X0312685Y0096026D01*
X0313285Y0096626D01*
X0313285Y0097227D01*
X0312685Y0097827D01*
X0311484Y0096026D02*
X0310883Y0096626D01*
X0314566Y0096626D02*
X0316968Y0099028D01*
X0316968Y0099629D01*
X0314566Y0099629D01*
X0314566Y0096626D02*
X0314566Y0096026D01*
X0273477Y0086528D02*
X0270408Y0083459D01*
X0271175Y0082692D01*
X0272710Y0082692D01*
X0273477Y0083459D01*
X0273477Y0086528D01*
X0272710Y0087296D01*
X0271175Y0087296D01*
X0270408Y0086528D01*
X0270408Y0083459D01*
X0268873Y0082692D02*
X0265804Y0082692D01*
X0267339Y0082692D02*
X0267339Y0087296D01*
X0265804Y0085761D01*
X0264269Y0086528D02*
X0264269Y0084994D01*
X0263502Y0084226D01*
X0261200Y0084226D01*
X0261200Y0082692D02*
X0261200Y0087296D01*
X0263502Y0087296D01*
X0264269Y0086528D01*
X0262735Y0084226D02*
X0264269Y0082692D01*
X0263202Y0072496D02*
X0260900Y0072496D01*
X0260900Y0067892D01*
X0260900Y0069426D02*
X0263202Y0069426D01*
X0263969Y0070194D01*
X0263969Y0071728D01*
X0263202Y0072496D01*
X0265504Y0070961D02*
X0267039Y0072496D01*
X0267039Y0067892D01*
X0268573Y0067892D02*
X0265504Y0067892D01*
X0263969Y0067892D02*
X0262435Y0069426D01*
X0270108Y0067892D02*
X0273177Y0067892D01*
X0271642Y0067892D02*
X0271642Y0072496D01*
X0270108Y0070961D01*
X0226267Y0080468D02*
X0225417Y0079619D01*
X0224568Y0079619D01*
X0223719Y0080468D01*
X0224993Y0081742D01*
X0225842Y0081742D01*
X0226267Y0081318D01*
X0226267Y0080468D01*
X0223719Y0080468D02*
X0223719Y0082167D01*
X0224144Y0083441D01*
X0221964Y0080412D02*
X0221115Y0080412D01*
X0220265Y0079562D01*
X0220265Y0078713D01*
X0220690Y0078289D01*
X0221539Y0078289D01*
X0222388Y0079138D01*
X0223238Y0079138D01*
X0223662Y0078713D01*
X0223662Y0077864D01*
X0222813Y0077015D01*
X0221964Y0077015D01*
X0221058Y0076109D02*
X0218935Y0078232D01*
X0217236Y0076533D02*
X0219359Y0074410D01*
X0220209Y0074410D01*
X0221058Y0075260D01*
X0221058Y0076109D01*
X0223662Y0077015D02*
X0220265Y0080412D01*
X0156875Y0093797D02*
X0156875Y0095332D01*
X0156108Y0096099D01*
X0156108Y0097634D02*
X0156875Y0098401D01*
X0156875Y0099936D01*
X0156108Y0100703D01*
X0155340Y0100703D01*
X0154573Y0099936D01*
X0154573Y0099168D01*
X0154573Y0099936D02*
X0153806Y0100703D01*
X0153038Y0100703D01*
X0152271Y0099936D01*
X0152271Y0098401D01*
X0153038Y0097634D01*
X0153038Y0096099D02*
X0152271Y0095332D01*
X0152271Y0093797D01*
X0153038Y0093030D01*
X0156108Y0093030D01*
X0156875Y0093797D01*
X0151900Y0093748D02*
X0151900Y0090678D01*
X0147296Y0090678D01*
X0147296Y0093748D01*
X0149598Y0092213D02*
X0149598Y0090678D01*
X0150365Y0089144D02*
X0151133Y0089144D01*
X0151900Y0088376D01*
X0151900Y0086842D01*
X0151133Y0086075D01*
X0151133Y0084540D02*
X0147296Y0084540D01*
X0148063Y0086075D02*
X0148831Y0086075D01*
X0149598Y0086842D01*
X0149598Y0088376D01*
X0150365Y0089144D01*
X0148063Y0089144D02*
X0147296Y0088376D01*
X0147296Y0086842D01*
X0148063Y0086075D01*
X0151133Y0084540D02*
X0151900Y0083773D01*
X0151900Y0082238D01*
X0151133Y0081471D01*
X0147296Y0081471D01*
X0147296Y0079936D02*
X0147296Y0076867D01*
X0151900Y0076867D01*
X0149598Y0076867D02*
X0149598Y0078401D01*
X0123765Y0090767D02*
X0120696Y0090767D01*
X0119161Y0090767D02*
X0117627Y0092301D01*
X0118394Y0092301D02*
X0116092Y0092301D01*
X0116092Y0090767D02*
X0116092Y0095371D01*
X0118394Y0095371D01*
X0119161Y0094603D01*
X0119161Y0093069D01*
X0118394Y0092301D01*
X0120696Y0093836D02*
X0122231Y0095371D01*
X0122231Y0090767D01*
X0122533Y0101288D02*
X0122533Y0103590D01*
X0123300Y0104357D01*
X0124068Y0104357D01*
X0124835Y0103590D01*
X0124835Y0101288D01*
X0124835Y0103590D02*
X0125602Y0104357D01*
X0126370Y0104357D01*
X0127137Y0103590D01*
X0127137Y0101288D01*
X0122533Y0101288D01*
X0124068Y0105892D02*
X0122533Y0107426D01*
X0124068Y0108961D01*
X0127137Y0108961D01*
X0124835Y0108961D02*
X0124835Y0105892D01*
X0124068Y0105892D02*
X0127137Y0105892D01*
X0127137Y0112030D02*
X0122533Y0112030D01*
X0122533Y0110496D02*
X0122533Y0113565D01*
X0122533Y0115100D02*
X0122533Y0118169D01*
X0122533Y0116634D02*
X0127137Y0116634D01*
X0119978Y0114954D02*
X0119978Y0113379D01*
X0117222Y0113379D02*
X0117222Y0114954D01*
X0116497Y0132567D02*
X0119499Y0132567D01*
X0120100Y0133167D01*
X0120100Y0134368D01*
X0119499Y0134969D01*
X0116497Y0134969D01*
X0116497Y0136250D02*
X0118298Y0136250D01*
X0117698Y0137451D01*
X0117698Y0138051D01*
X0118298Y0138652D01*
X0119499Y0138652D01*
X0120100Y0138051D01*
X0120100Y0136850D01*
X0119499Y0136250D01*
X0116497Y0136250D02*
X0116497Y0138652D01*
X0127700Y0148971D02*
X0128467Y0148204D01*
X0130002Y0148204D01*
X0130769Y0148971D01*
X0132304Y0148204D02*
X0135373Y0148204D01*
X0133839Y0148204D02*
X0133839Y0152808D01*
X0132304Y0151273D01*
X0130769Y0152040D02*
X0130002Y0152808D01*
X0128467Y0152808D01*
X0127700Y0152040D01*
X0127700Y0148971D01*
X0136908Y0148971D02*
X0136908Y0148204D01*
X0136908Y0148971D02*
X0139977Y0152040D01*
X0139977Y0152808D01*
X0136908Y0152808D01*
X0144700Y0137271D02*
X0147002Y0137271D01*
X0147769Y0136503D01*
X0147769Y0134969D01*
X0147002Y0134201D01*
X0144700Y0134201D01*
X0144700Y0132667D02*
X0144700Y0137271D01*
X0146235Y0134201D02*
X0147769Y0132667D01*
X0149304Y0133434D02*
X0149304Y0134201D01*
X0150071Y0134969D01*
X0151606Y0134969D01*
X0152373Y0134201D01*
X0152373Y0133434D01*
X0151606Y0132667D01*
X0150071Y0132667D01*
X0149304Y0133434D01*
X0150071Y0134969D02*
X0149304Y0135736D01*
X0149304Y0136503D01*
X0150071Y0137271D01*
X0151606Y0137271D01*
X0152373Y0136503D01*
X0152373Y0135736D01*
X0151606Y0134969D01*
X0162167Y0145792D02*
X0163702Y0145792D01*
X0164469Y0146559D01*
X0166004Y0145792D02*
X0169073Y0145792D01*
X0167539Y0145792D02*
X0167539Y0150396D01*
X0166004Y0148861D01*
X0164469Y0149628D02*
X0163702Y0150396D01*
X0162167Y0150396D01*
X0161400Y0149628D01*
X0161400Y0146559D01*
X0162167Y0145792D01*
X0170608Y0146559D02*
X0171375Y0145792D01*
X0172910Y0145792D01*
X0173677Y0146559D01*
X0173677Y0147326D01*
X0172910Y0148094D01*
X0170608Y0148094D01*
X0170608Y0146559D01*
X0170608Y0148094D02*
X0172142Y0149628D01*
X0173677Y0150396D01*
X0184267Y0142771D02*
X0186569Y0142771D01*
X0187336Y0142003D01*
X0187336Y0140469D01*
X0186569Y0139701D01*
X0184267Y0139701D01*
X0184267Y0138167D02*
X0184267Y0142771D01*
X0185802Y0139701D02*
X0187336Y0138167D01*
X0188871Y0138934D02*
X0189638Y0138167D01*
X0191173Y0138167D01*
X0191940Y0138934D01*
X0191940Y0142003D01*
X0191173Y0142771D01*
X0189638Y0142771D01*
X0188871Y0142003D01*
X0188871Y0141236D01*
X0189638Y0140469D01*
X0191940Y0140469D01*
X0195094Y0136407D02*
X0197217Y0138530D01*
X0198915Y0136832D02*
X0196792Y0134709D01*
X0195943Y0134709D01*
X0195094Y0135558D01*
X0195094Y0136407D01*
X0197698Y0133803D02*
X0197698Y0132954D01*
X0198547Y0132104D01*
X0199396Y0132104D01*
X0199821Y0132529D01*
X0199821Y0133378D01*
X0198972Y0134227D01*
X0198972Y0135077D01*
X0199396Y0135501D01*
X0200246Y0135501D01*
X0201095Y0134652D01*
X0201095Y0133803D01*
X0202001Y0132897D02*
X0201576Y0132472D01*
X0201576Y0131623D01*
X0202425Y0130774D01*
X0202425Y0129925D01*
X0202001Y0129500D01*
X0201152Y0129500D01*
X0200302Y0130349D01*
X0200302Y0131198D01*
X0200727Y0131623D01*
X0201576Y0131623D01*
X0202425Y0130774D02*
X0203275Y0130774D01*
X0203699Y0131198D01*
X0203699Y0132048D01*
X0202850Y0132897D01*
X0202001Y0132897D01*
X0201095Y0135501D02*
X0197698Y0132104D01*
X0156108Y0102238D02*
X0153038Y0105307D01*
X0152271Y0105307D01*
X0152271Y0102238D01*
X0156108Y0102238D02*
X0156875Y0102238D01*
X0076915Y0083642D02*
X0073846Y0083642D01*
X0075381Y0083642D02*
X0075381Y0088246D01*
X0073846Y0086711D01*
X0072311Y0087478D02*
X0071544Y0088246D01*
X0069242Y0088246D01*
X0069242Y0083642D01*
X0071544Y0083642D01*
X0072311Y0084409D01*
X0072311Y0087478D01*
X0072105Y0070464D02*
X0072105Y0066861D01*
X0071505Y0066861D02*
X0072706Y0066861D01*
X0073960Y0066861D02*
X0073960Y0070464D01*
X0076362Y0066861D01*
X0076362Y0070464D01*
X0072706Y0070464D02*
X0071505Y0070464D01*
X0070224Y0066260D02*
X0067822Y0066260D01*
X0066541Y0066861D02*
X0065340Y0068062D01*
X0065940Y0068062D02*
X0064138Y0068062D01*
X0064138Y0066861D02*
X0064138Y0070464D01*
X0065940Y0070464D01*
X0066541Y0069863D01*
X0066541Y0068662D01*
X0065940Y0068062D01*
X0062857Y0066861D02*
X0060455Y0066861D01*
X0060455Y0070464D01*
X0062857Y0070464D01*
X0061656Y0068662D02*
X0060455Y0068662D01*
X0059174Y0066861D02*
X0059174Y0070464D01*
X0056772Y0070464D02*
X0056772Y0066861D01*
X0057973Y0068062D01*
X0059174Y0066861D01*
X0055491Y0067461D02*
X0055491Y0069863D01*
X0054891Y0070464D01*
X0053690Y0070464D01*
X0053089Y0069863D01*
X0053089Y0067461D01*
X0053690Y0066861D01*
X0054891Y0066861D01*
X0055491Y0067461D01*
X0051808Y0068662D02*
X0051207Y0068062D01*
X0049406Y0068062D01*
X0049406Y0066861D02*
X0049406Y0070464D01*
X0051207Y0070464D01*
X0051808Y0069863D01*
X0051808Y0068662D01*
X0036775Y0064915D02*
X0036775Y0061846D01*
X0033706Y0064915D01*
X0032938Y0064915D01*
X0032171Y0064148D01*
X0032171Y0062613D01*
X0032938Y0061846D01*
X0032938Y0060311D02*
X0034473Y0060311D01*
X0035240Y0059544D01*
X0035240Y0057242D01*
X0035240Y0058776D02*
X0036775Y0060311D01*
X0036775Y0057242D02*
X0032171Y0057242D01*
X0032171Y0059544D01*
X0032938Y0060311D01*
X0032913Y0049165D02*
X0033681Y0049165D01*
X0034448Y0048398D01*
X0035215Y0049165D01*
X0035983Y0049165D01*
X0036750Y0048398D01*
X0036750Y0046863D01*
X0035983Y0046096D01*
X0036750Y0044561D02*
X0035215Y0043026D01*
X0035215Y0043794D02*
X0035215Y0041492D01*
X0036750Y0041492D02*
X0032146Y0041492D01*
X0032146Y0043794D01*
X0032913Y0044561D01*
X0034448Y0044561D01*
X0035215Y0043794D01*
X0032913Y0046096D02*
X0032146Y0046863D01*
X0032146Y0048398D01*
X0032913Y0049165D01*
X0034448Y0048398D02*
X0034448Y0047630D01*
X0077797Y0031385D02*
X0078998Y0030184D01*
X0077797Y0031385D02*
X0081400Y0031385D01*
X0081400Y0030184D02*
X0081400Y0032586D01*
X0081400Y0028902D02*
X0077797Y0026500D01*
X0077797Y0028902D02*
X0081400Y0026500D01*
X0102026Y0163583D02*
X0102026Y0165885D01*
X0102793Y0166652D01*
X0104328Y0166652D01*
X0105095Y0165885D01*
X0105095Y0163583D01*
X0106630Y0163583D02*
X0102026Y0163583D01*
X0105095Y0165118D02*
X0106630Y0166652D01*
X0106630Y0168187D02*
X0102026Y0168187D01*
X0102026Y0171256D01*
X0102793Y0172791D02*
X0103560Y0172791D01*
X0104328Y0173558D01*
X0104328Y0175093D01*
X0105095Y0175860D01*
X0105862Y0175860D01*
X0106630Y0175093D01*
X0106630Y0173558D01*
X0105862Y0172791D01*
X0106630Y0171256D02*
X0106630Y0168187D01*
X0104328Y0168187D02*
X0104328Y0169722D01*
X0102793Y0172791D02*
X0102026Y0173558D01*
X0102026Y0175093D01*
X0102793Y0175860D01*
X0102026Y0177395D02*
X0106630Y0177395D01*
X0106630Y0180464D01*
X0104328Y0178929D02*
X0104328Y0177395D01*
X0102026Y0177395D02*
X0102026Y0180464D01*
X0102026Y0181999D02*
X0102026Y0185068D01*
X0102026Y0183533D02*
X0106630Y0183533D01*
X0104824Y0197260D02*
X0102422Y0197260D01*
X0101141Y0197861D02*
X0099940Y0199062D01*
X0100540Y0199062D02*
X0098738Y0199062D01*
X0098738Y0197861D02*
X0098738Y0201464D01*
X0100540Y0201464D01*
X0101141Y0200863D01*
X0101141Y0199662D01*
X0100540Y0199062D01*
X0097457Y0197861D02*
X0095055Y0197861D01*
X0095055Y0201464D01*
X0097457Y0201464D01*
X0096256Y0199662D02*
X0095055Y0199662D01*
X0093774Y0197861D02*
X0092573Y0199062D01*
X0091372Y0197861D01*
X0091372Y0201464D01*
X0090091Y0200863D02*
X0089491Y0201464D01*
X0088290Y0201464D01*
X0087689Y0200863D01*
X0087689Y0198461D01*
X0088290Y0197861D01*
X0089491Y0197861D01*
X0090091Y0198461D01*
X0090091Y0200863D01*
X0086408Y0200863D02*
X0085807Y0201464D01*
X0084006Y0201464D01*
X0084006Y0197861D01*
X0084006Y0199062D02*
X0085807Y0199062D01*
X0086408Y0199662D01*
X0086408Y0200863D01*
X0093774Y0201464D02*
X0093774Y0197861D01*
X0106105Y0197861D02*
X0107306Y0197861D01*
X0106705Y0197861D02*
X0106705Y0201464D01*
X0106105Y0201464D02*
X0107306Y0201464D01*
X0108560Y0201464D02*
X0110962Y0197861D01*
X0110962Y0201464D01*
X0112243Y0200263D02*
X0113444Y0201464D01*
X0113444Y0197861D01*
X0112243Y0197861D02*
X0114645Y0197861D01*
X0108560Y0197861D02*
X0108560Y0201464D01*
X0085736Y0220538D02*
X0084202Y0219004D01*
X0082667Y0220538D01*
X0082667Y0223608D01*
X0081132Y0223608D02*
X0078063Y0223608D01*
X0078063Y0221306D01*
X0079598Y0222073D01*
X0080365Y0222073D01*
X0081132Y0221306D01*
X0081132Y0219771D01*
X0080365Y0219004D01*
X0078830Y0219004D01*
X0078063Y0219771D01*
X0077736Y0217508D02*
X0077736Y0214438D01*
X0076202Y0212904D01*
X0074667Y0214438D01*
X0074667Y0217508D01*
X0073132Y0216740D02*
X0073132Y0215973D01*
X0072365Y0215206D01*
X0073132Y0214438D01*
X0073132Y0213671D01*
X0072365Y0212904D01*
X0070830Y0212904D01*
X0070063Y0213671D01*
X0071598Y0215206D02*
X0072365Y0215206D01*
X0073132Y0216740D02*
X0072365Y0217508D01*
X0070830Y0217508D01*
X0070063Y0216740D01*
X0064187Y0217145D02*
X0062613Y0217145D01*
X0062613Y0219789D02*
X0064187Y0219789D01*
X0064187Y0222545D02*
X0062613Y0222545D01*
X0062613Y0214389D02*
X0064187Y0214389D01*
X0085736Y0220538D02*
X0085736Y0223608D01*
X0124517Y0179846D02*
X0123750Y0179078D01*
X0123750Y0176009D01*
X0124517Y0175242D01*
X0126052Y0175242D01*
X0126819Y0176009D01*
X0128354Y0176009D02*
X0129121Y0175242D01*
X0130656Y0175242D01*
X0131423Y0176009D01*
X0131423Y0176776D01*
X0130656Y0177544D01*
X0129889Y0177544D01*
X0130656Y0177544D02*
X0131423Y0178311D01*
X0131423Y0179078D01*
X0130656Y0179846D01*
X0129121Y0179846D01*
X0128354Y0179078D01*
X0126819Y0179078D02*
X0126052Y0179846D01*
X0124517Y0179846D01*
X0132958Y0177544D02*
X0136027Y0177544D01*
X0135260Y0175242D02*
X0135260Y0179846D01*
X0132958Y0177544D01*
X0302600Y0159929D02*
X0302600Y0156926D01*
X0303201Y0156326D01*
X0304402Y0156326D01*
X0305002Y0156926D01*
X0305002Y0159929D01*
X0306283Y0159328D02*
X0306884Y0159929D01*
X0308085Y0159929D01*
X0308685Y0159328D01*
X0309966Y0159328D02*
X0309966Y0158728D01*
X0310567Y0158127D01*
X0312368Y0158127D01*
X0312368Y0156926D02*
X0312368Y0159328D01*
X0311768Y0159929D01*
X0310567Y0159929D01*
X0309966Y0159328D01*
X0308685Y0157527D02*
X0308685Y0156926D01*
X0308085Y0156326D01*
X0306884Y0156326D01*
X0306283Y0156926D01*
X0306884Y0158127D02*
X0306283Y0158728D01*
X0306283Y0159328D01*
X0306884Y0158127D02*
X0308085Y0158127D01*
X0308685Y0157527D01*
X0309966Y0156926D02*
X0310567Y0156326D01*
X0311768Y0156326D01*
X0312368Y0156926D01*
X0307484Y0155725D02*
X0307484Y0160529D01*
D14*
X0344600Y0158667D02*
X0344600Y0153667D01*
X0347100Y0151167D01*
X0352100Y0151167D01*
X0354600Y0153667D01*
X0357100Y0151167D01*
X0362100Y0151167D01*
X0364600Y0153667D01*
X0367100Y0151167D01*
X0372100Y0151167D01*
X0374600Y0153667D01*
X0374600Y0158667D01*
X0372100Y0161167D01*
X0367100Y0161167D01*
X0364600Y0158667D01*
X0362100Y0161167D01*
X0357100Y0161167D01*
X0354600Y0158667D01*
X0352100Y0161167D01*
X0347100Y0161167D01*
X0344600Y0158667D01*
X0347100Y0162667D02*
X0352100Y0162667D01*
X0354600Y0165167D01*
X0357100Y0162667D01*
X0362100Y0162667D01*
X0364600Y0165167D01*
X0367100Y0162667D01*
X0372100Y0162667D01*
X0374600Y0165167D01*
X0374600Y0170167D01*
X0372100Y0172667D01*
X0367100Y0172667D01*
X0364600Y0170167D01*
X0362100Y0172667D01*
X0357100Y0172667D01*
X0354600Y0170167D01*
X0352100Y0172667D01*
X0347100Y0172667D01*
X0344600Y0170167D01*
X0344600Y0165167D01*
X0347100Y0162667D01*
X0346600Y0174167D02*
X0351600Y0174167D01*
X0354100Y0176667D01*
X0356600Y0174167D01*
X0361600Y0174167D01*
X0364100Y0176667D01*
X0366600Y0174167D01*
X0371600Y0174167D01*
X0374100Y0176667D01*
X0374100Y0181667D01*
X0371600Y0184167D01*
X0366600Y0184167D01*
X0364100Y0181667D01*
X0361600Y0184167D01*
X0356600Y0184167D01*
X0354100Y0181667D01*
X0351600Y0184167D01*
X0346600Y0184167D01*
X0344100Y0181667D01*
X0344100Y0176667D01*
X0346600Y0174167D01*
X0347100Y0149667D02*
X0344600Y0147167D01*
X0344600Y0142167D01*
X0347100Y0139667D01*
X0352100Y0139667D01*
X0354600Y0142167D01*
X0357100Y0139667D01*
X0362100Y0139667D01*
X0364600Y0142167D01*
X0367100Y0139667D01*
X0372100Y0139667D01*
X0374600Y0142167D01*
X0374600Y0147167D01*
X0372100Y0149667D01*
X0367100Y0149667D01*
X0364600Y0147167D01*
X0362100Y0149667D01*
X0357100Y0149667D01*
X0354600Y0147167D01*
X0352100Y0149667D01*
X0347100Y0149667D01*
X0347100Y0138167D02*
X0344600Y0135667D01*
X0344600Y0130667D01*
X0347100Y0128167D01*
X0352100Y0128167D01*
X0354600Y0130667D01*
X0357100Y0128167D01*
X0362100Y0128167D01*
X0364600Y0130667D01*
X0367100Y0128167D01*
X0372100Y0128167D01*
X0374600Y0130667D01*
X0374600Y0135667D01*
X0372100Y0138167D01*
X0367100Y0138167D01*
X0364600Y0135667D01*
X0362100Y0138167D01*
X0357100Y0138167D01*
X0354600Y0135667D01*
X0352100Y0138167D01*
X0347100Y0138167D01*
X0347100Y0126667D02*
X0344600Y0124167D01*
X0344600Y0119167D01*
X0347100Y0116667D01*
X0352100Y0116667D01*
X0354600Y0119167D01*
X0357100Y0116667D01*
X0362100Y0116667D01*
X0364600Y0119167D01*
X0367100Y0116667D01*
X0372100Y0116667D01*
X0374600Y0119167D01*
X0374600Y0124167D01*
X0372100Y0126667D01*
X0367100Y0126667D01*
X0364600Y0124167D01*
X0362100Y0126667D01*
X0357100Y0126667D01*
X0354600Y0124167D01*
X0352100Y0126667D01*
X0347100Y0126667D01*
X0347100Y0115167D02*
X0344600Y0112667D01*
X0344600Y0107667D01*
X0347100Y0105167D01*
X0352100Y0105167D01*
X0354600Y0107667D01*
X0357100Y0105167D01*
X0362100Y0105167D01*
X0364600Y0107667D01*
X0367100Y0105167D01*
X0372100Y0105167D01*
X0374600Y0107667D01*
X0374600Y0112667D01*
X0372100Y0115167D01*
X0367100Y0115167D01*
X0364600Y0112667D01*
X0362100Y0115167D01*
X0357100Y0115167D01*
X0354600Y0112667D01*
X0352100Y0115167D01*
X0347100Y0115167D01*
X0347100Y0103667D02*
X0344600Y0101167D01*
X0344600Y0096167D01*
X0347100Y0093667D01*
X0352100Y0093667D01*
X0354600Y0096167D01*
X0357100Y0093667D01*
X0362100Y0093667D01*
X0364600Y0096167D01*
X0367100Y0093667D01*
X0372100Y0093667D01*
X0374600Y0096167D01*
X0374600Y0101167D01*
X0372100Y0103667D01*
X0367100Y0103667D01*
X0364600Y0101167D01*
X0362100Y0103667D01*
X0357100Y0103667D01*
X0354600Y0101167D01*
X0352100Y0103667D01*
X0347100Y0103667D01*
X0347100Y0092167D02*
X0344600Y0089667D01*
X0344600Y0084667D01*
X0347100Y0082167D01*
X0352100Y0082167D01*
X0354600Y0084667D01*
X0357100Y0082167D01*
X0362100Y0082167D01*
X0364600Y0084667D01*
X0367100Y0082167D01*
X0372100Y0082167D01*
X0374600Y0084667D01*
X0374600Y0089667D01*
X0372100Y0092167D01*
X0367100Y0092167D01*
X0364600Y0089667D01*
X0362100Y0092167D01*
X0357100Y0092167D01*
X0354600Y0089667D01*
X0352100Y0092167D01*
X0347100Y0092167D01*
X0347100Y0080667D02*
X0344600Y0078167D01*
X0344600Y0073167D01*
X0347100Y0070667D01*
X0352100Y0070667D01*
X0354600Y0073167D01*
X0357100Y0070667D01*
X0362100Y0070667D01*
X0364600Y0073167D01*
X0367100Y0070667D01*
X0372100Y0070667D01*
X0374600Y0073167D01*
X0374600Y0078167D01*
X0372100Y0080667D01*
X0367100Y0080667D01*
X0364600Y0078167D01*
X0362100Y0080667D01*
X0357100Y0080667D01*
X0354600Y0078167D01*
X0352100Y0080667D01*
X0347100Y0080667D01*
X0347100Y0069167D02*
X0344600Y0066667D01*
X0344600Y0061667D01*
X0347100Y0059167D01*
X0352100Y0059167D01*
X0354600Y0061667D01*
X0357100Y0059167D01*
X0362100Y0059167D01*
X0364600Y0061667D01*
X0367100Y0059167D01*
X0372100Y0059167D01*
X0374600Y0061667D01*
X0374600Y0066667D01*
X0372100Y0069167D01*
X0367100Y0069167D01*
X0364600Y0066667D01*
X0362100Y0069167D01*
X0357100Y0069167D01*
X0354600Y0066667D01*
X0352100Y0069167D01*
X0347100Y0069167D01*
X0347100Y0057667D02*
X0344600Y0055167D01*
X0344600Y0050167D01*
X0347100Y0047667D01*
X0352100Y0047667D01*
X0354600Y0050167D01*
X0357100Y0047667D01*
X0362100Y0047667D01*
X0364600Y0050167D01*
X0367100Y0047667D01*
X0372100Y0047667D01*
X0374600Y0050167D01*
X0374600Y0055167D01*
X0372100Y0057667D01*
X0367100Y0057667D01*
X0364600Y0055167D01*
X0362100Y0057667D01*
X0357100Y0057667D01*
X0354600Y0055167D01*
X0352100Y0057667D01*
X0347100Y0057667D01*
X0327214Y0065400D02*
X0327214Y0047683D01*
X0303986Y0047683D01*
X0303986Y0065400D01*
X0311663Y0065400D01*
X0311663Y0063431D01*
X0319537Y0063431D01*
X0319537Y0065400D01*
X0327214Y0065400D01*
X0299588Y0066650D02*
X0299588Y0048933D01*
X0284037Y0048933D01*
X0284037Y0050902D01*
X0276163Y0050902D01*
X0276163Y0048933D01*
X0260612Y0048933D01*
X0260612Y0066650D01*
X0299588Y0066650D01*
X0271362Y0132632D02*
X0269616Y0132632D01*
X0267870Y0134378D01*
X0267870Y0136124D01*
X0266023Y0137971D02*
X0266895Y0138844D01*
X0266895Y0140590D01*
X0265150Y0142335D01*
X0265150Y0144081D01*
X0266023Y0144954D01*
X0267768Y0144954D01*
X0269514Y0143208D01*
X0269514Y0141463D01*
X0271362Y0139615D02*
X0273107Y0139615D01*
X0274853Y0137869D01*
X0274853Y0136124D01*
X0273980Y0135251D01*
X0272234Y0135251D01*
X0272234Y0133505D01*
X0271362Y0132632D01*
X0272234Y0135251D02*
X0271362Y0136124D01*
X0266023Y0137971D02*
X0264277Y0137971D01*
X0262531Y0139717D01*
X0262531Y0141463D01*
X0260684Y0143310D02*
X0265048Y0147674D01*
X0261557Y0151166D02*
X0257192Y0146802D01*
X0257192Y0145056D01*
X0258938Y0143310D01*
X0260684Y0143310D01*
X0262531Y0137971D02*
X0269514Y0144954D01*
X0150818Y0110227D02*
X0150818Y0098416D01*
X0150818Y0110227D02*
X0131132Y0110227D01*
X0131132Y0098416D01*
X0131132Y0082668D02*
X0131132Y0074794D01*
X0135069Y0070857D01*
X0146881Y0070857D01*
X0150818Y0074794D01*
X0150818Y0082668D01*
X0080925Y0081660D02*
X0072815Y0081660D01*
X0072815Y0071424D02*
X0080925Y0071424D01*
X0100697Y0025869D02*
X0099996Y0025168D01*
X0099996Y0023767D01*
X0100697Y0023067D01*
X0101398Y0023067D01*
X0102098Y0023767D01*
X0102098Y0025869D01*
X0103499Y0025869D02*
X0100697Y0025869D01*
X0103499Y0025869D02*
X0104200Y0025168D01*
X0104200Y0023767D01*
X0103499Y0023067D01*
X0102098Y0021265D02*
X0102799Y0020565D01*
X0102799Y0018463D01*
X0104200Y0018463D02*
X0099996Y0018463D01*
X0099996Y0020565D01*
X0100697Y0021265D01*
X0102098Y0021265D01*
X0118757Y0154442D02*
X0118757Y0163891D01*
X0124663Y0163891D01*
X0132537Y0163891D02*
X0136868Y0163891D01*
X0138443Y0162316D01*
X0138443Y0156017D01*
X0136868Y0154442D01*
X0132537Y0154442D01*
X0124663Y0154442D02*
X0118757Y0154442D01*
X0109200Y0205765D02*
X0109200Y0208567D01*
X0109200Y0207166D02*
X0104996Y0207166D01*
X0106398Y0205765D01*
X0104200Y0208463D02*
X0099996Y0208463D01*
X0099996Y0210565D01*
X0100697Y0211265D01*
X0102098Y0211265D01*
X0102799Y0210565D01*
X0102799Y0208463D01*
X0102799Y0213067D02*
X0102098Y0213767D01*
X0102098Y0215168D01*
X0102799Y0215869D01*
X0103499Y0215869D01*
X0104200Y0215168D01*
X0104200Y0213767D01*
X0103499Y0213067D01*
X0102799Y0213067D01*
X0102098Y0213767D02*
X0101398Y0213067D01*
X0100697Y0213067D01*
X0099996Y0213767D01*
X0099996Y0215168D01*
X0100697Y0215869D01*
X0101398Y0215869D01*
X0102098Y0215168D01*
D15*
X0079714Y0076542D03*
D16*
X0157892Y0045045D02*
X0158643Y0045795D01*
X0160144Y0045795D01*
X0160895Y0045045D01*
X0160895Y0044294D01*
X0157892Y0041292D01*
X0160895Y0041292D01*
X0162496Y0042042D02*
X0165499Y0045045D01*
X0165499Y0042042D01*
X0164748Y0041292D01*
X0163247Y0041292D01*
X0162496Y0042042D01*
X0162496Y0045045D01*
X0163247Y0045795D01*
X0164748Y0045795D01*
X0165499Y0045045D01*
X0247892Y0042042D02*
X0248643Y0041292D01*
X0249393Y0041292D01*
X0250144Y0042042D01*
X0250144Y0045795D01*
X0249393Y0045795D02*
X0250895Y0045795D01*
X0252496Y0044294D02*
X0253997Y0045795D01*
X0253997Y0041292D01*
X0252496Y0041292D02*
X0255499Y0041292D01*
X0252499Y0069292D02*
X0249496Y0069292D01*
X0250997Y0069292D02*
X0250997Y0073795D01*
X0249496Y0072294D01*
X0330769Y0054122D02*
X0330769Y0045461D01*
X0331163Y0045461D01*
X0339037Y0045461D02*
X0339431Y0045461D01*
X0339431Y0054122D01*
X0339037Y0054122D01*
X0331163Y0054122D02*
X0330769Y0054122D01*
X0334801Y0062017D02*
X0336302Y0062017D01*
X0337053Y0062767D01*
X0337053Y0065770D01*
X0336302Y0066520D01*
X0334801Y0066520D01*
X0334050Y0065770D01*
X0334050Y0062767D01*
X0334801Y0062017D01*
X0338654Y0062767D02*
X0339405Y0062017D01*
X0340906Y0062017D01*
X0341656Y0062767D01*
X0341656Y0063518D01*
X0340906Y0064269D01*
X0340155Y0064269D01*
X0340906Y0064269D02*
X0341656Y0065019D01*
X0341656Y0065770D01*
X0340906Y0066520D01*
X0339405Y0066520D01*
X0338654Y0065770D01*
X0339254Y0073617D02*
X0342256Y0076619D01*
X0342256Y0077370D01*
X0341506Y0078120D01*
X0340005Y0078120D01*
X0339254Y0077370D01*
X0337653Y0077370D02*
X0336902Y0078120D01*
X0335401Y0078120D01*
X0334650Y0077370D01*
X0334650Y0074367D01*
X0335401Y0073617D01*
X0336902Y0073617D01*
X0337653Y0074367D01*
X0337653Y0077370D01*
X0339254Y0073617D02*
X0342256Y0073617D01*
X0342856Y0085117D02*
X0339854Y0085117D01*
X0341355Y0085117D02*
X0341355Y0089620D01*
X0339854Y0088119D01*
X0338253Y0088870D02*
X0337502Y0089620D01*
X0336001Y0089620D01*
X0335250Y0088870D01*
X0335250Y0085867D01*
X0336001Y0085117D01*
X0337502Y0085117D01*
X0338253Y0085867D01*
X0338253Y0088870D01*
X0338322Y0096517D02*
X0338322Y0101020D01*
X0339923Y0100270D02*
X0340674Y0101020D01*
X0342175Y0101020D01*
X0342926Y0100270D01*
X0342926Y0099519D01*
X0342175Y0098769D01*
X0340674Y0098769D01*
X0339923Y0099519D01*
X0339923Y0100270D01*
X0340674Y0098769D02*
X0339923Y0098018D01*
X0339923Y0097267D01*
X0340674Y0096517D01*
X0342175Y0096517D01*
X0342926Y0097267D01*
X0342926Y0098018D01*
X0342175Y0098769D01*
X0338322Y0096517D02*
X0335319Y0101020D01*
X0335319Y0096517D01*
X0333751Y0096517D02*
X0332250Y0096517D01*
X0333001Y0096517D02*
X0333001Y0101020D01*
X0333751Y0101020D02*
X0332250Y0101020D01*
X0332850Y0107717D02*
X0334351Y0107717D01*
X0333601Y0107717D02*
X0333601Y0112220D01*
X0334351Y0112220D02*
X0332850Y0112220D01*
X0335919Y0112220D02*
X0338922Y0107717D01*
X0338922Y0112220D01*
X0340523Y0112220D02*
X0343526Y0112220D01*
X0343526Y0111470D01*
X0340523Y0108467D01*
X0340523Y0107717D01*
X0335919Y0107717D02*
X0335919Y0112220D01*
X0335219Y0119017D02*
X0335219Y0123520D01*
X0338222Y0119017D01*
X0338222Y0123520D01*
X0339823Y0121269D02*
X0342075Y0121269D01*
X0342826Y0120518D01*
X0342826Y0119767D01*
X0342075Y0119017D01*
X0340574Y0119017D01*
X0339823Y0119767D01*
X0339823Y0121269D01*
X0341324Y0122770D01*
X0342826Y0123520D01*
X0333651Y0123520D02*
X0332150Y0123520D01*
X0332901Y0123520D02*
X0332901Y0119017D01*
X0333651Y0119017D02*
X0332150Y0119017D01*
X0332650Y0131417D02*
X0334151Y0131417D01*
X0333401Y0131417D02*
X0333401Y0135920D01*
X0334151Y0135920D02*
X0332650Y0135920D01*
X0335719Y0135920D02*
X0338722Y0131417D01*
X0338722Y0135920D01*
X0340323Y0135920D02*
X0340323Y0133669D01*
X0341824Y0134419D01*
X0342575Y0134419D01*
X0343326Y0133669D01*
X0343326Y0132167D01*
X0342575Y0131417D01*
X0341074Y0131417D01*
X0340323Y0132167D01*
X0340323Y0135920D02*
X0343326Y0135920D01*
X0335719Y0135920D02*
X0335719Y0131417D01*
X0335419Y0142817D02*
X0335419Y0147320D01*
X0338422Y0142817D01*
X0338422Y0147320D01*
X0340023Y0145069D02*
X0343026Y0145069D01*
X0342275Y0147320D02*
X0342275Y0142817D01*
X0340023Y0145069D02*
X0342275Y0147320D01*
X0342975Y0153717D02*
X0341474Y0153717D01*
X0340723Y0154467D01*
X0339122Y0153717D02*
X0339122Y0158220D01*
X0340723Y0157470D02*
X0341474Y0158220D01*
X0342975Y0158220D01*
X0343726Y0157470D01*
X0343726Y0156719D01*
X0342975Y0155969D01*
X0343726Y0155218D01*
X0343726Y0154467D01*
X0342975Y0153717D01*
X0342975Y0155969D02*
X0342224Y0155969D01*
X0339122Y0153717D02*
X0336119Y0158220D01*
X0336119Y0153717D01*
X0334551Y0153717D02*
X0333050Y0153717D01*
X0333801Y0153717D02*
X0333801Y0158220D01*
X0334551Y0158220D02*
X0333050Y0158220D01*
X0332850Y0164917D02*
X0334351Y0164917D01*
X0333601Y0164917D02*
X0333601Y0169420D01*
X0334351Y0169420D02*
X0332850Y0169420D01*
X0335919Y0169420D02*
X0338922Y0164917D01*
X0338922Y0169420D01*
X0340523Y0168670D02*
X0341274Y0169420D01*
X0342775Y0169420D01*
X0343526Y0168670D01*
X0343526Y0167919D01*
X0340523Y0164917D01*
X0343526Y0164917D01*
X0335919Y0164917D02*
X0335919Y0169420D01*
X0336119Y0177017D02*
X0336119Y0181520D01*
X0339122Y0177017D01*
X0339122Y0181520D01*
X0340723Y0180019D02*
X0342224Y0181520D01*
X0342224Y0177017D01*
X0340723Y0177017D02*
X0343726Y0177017D01*
X0334551Y0177017D02*
X0333050Y0177017D01*
X0333801Y0177017D02*
X0333801Y0181520D01*
X0334551Y0181520D02*
X0333050Y0181520D01*
X0333101Y0147320D02*
X0333101Y0142817D01*
X0333851Y0142817D02*
X0332350Y0142817D01*
X0332350Y0147320D02*
X0333851Y0147320D01*
X0259581Y0190292D02*
X0258831Y0189542D01*
X0257330Y0189542D01*
X0256579Y0190292D01*
X0259581Y0193295D01*
X0259581Y0190292D01*
X0256579Y0190292D02*
X0256579Y0193295D01*
X0257330Y0194045D01*
X0258831Y0194045D01*
X0259581Y0193295D01*
X0254978Y0193295D02*
X0254227Y0194045D01*
X0252726Y0194045D01*
X0251975Y0193295D01*
X0254978Y0193295D02*
X0254978Y0192544D01*
X0251975Y0189542D01*
X0254978Y0189542D01*
X0169581Y0189542D02*
X0166579Y0189542D01*
X0169581Y0192544D01*
X0169581Y0193295D01*
X0168831Y0194045D01*
X0167330Y0194045D01*
X0166579Y0193295D01*
X0164978Y0194045D02*
X0163476Y0194045D01*
X0164227Y0194045D02*
X0164227Y0190292D01*
X0163476Y0189542D01*
X0162726Y0189542D01*
X0161975Y0190292D01*
X0166476Y0166045D02*
X0166476Y0161542D01*
X0164975Y0161542D02*
X0167978Y0161542D01*
X0164975Y0164544D02*
X0166476Y0166045D01*
X0130100Y0163167D02*
X0130100Y0155167D01*
X0092217Y0164106D02*
X0092217Y0187728D01*
X0066233Y0187728D01*
X0066233Y0164106D01*
X0092217Y0164106D01*
X0075288Y0175917D02*
X0075290Y0176042D01*
X0075296Y0176167D01*
X0075306Y0176291D01*
X0075320Y0176415D01*
X0075337Y0176539D01*
X0075359Y0176662D01*
X0075385Y0176784D01*
X0075414Y0176906D01*
X0075447Y0177026D01*
X0075485Y0177145D01*
X0075525Y0177264D01*
X0075570Y0177380D01*
X0075618Y0177495D01*
X0075670Y0177609D01*
X0075726Y0177721D01*
X0075785Y0177831D01*
X0075847Y0177939D01*
X0075913Y0178046D01*
X0075982Y0178150D01*
X0076055Y0178251D01*
X0076130Y0178351D01*
X0076209Y0178448D01*
X0076291Y0178542D01*
X0076376Y0178634D01*
X0076463Y0178723D01*
X0076554Y0178809D01*
X0076647Y0178892D01*
X0076743Y0178973D01*
X0076841Y0179050D01*
X0076941Y0179124D01*
X0077044Y0179195D01*
X0077149Y0179262D01*
X0077257Y0179327D01*
X0077366Y0179387D01*
X0077477Y0179445D01*
X0077590Y0179498D01*
X0077704Y0179548D01*
X0077820Y0179595D01*
X0077937Y0179637D01*
X0078056Y0179676D01*
X0078176Y0179712D01*
X0078297Y0179743D01*
X0078419Y0179771D01*
X0078541Y0179794D01*
X0078665Y0179814D01*
X0078789Y0179830D01*
X0078913Y0179842D01*
X0079038Y0179850D01*
X0079163Y0179854D01*
X0079287Y0179854D01*
X0079412Y0179850D01*
X0079537Y0179842D01*
X0079661Y0179830D01*
X0079785Y0179814D01*
X0079909Y0179794D01*
X0080031Y0179771D01*
X0080153Y0179743D01*
X0080274Y0179712D01*
X0080394Y0179676D01*
X0080513Y0179637D01*
X0080630Y0179595D01*
X0080746Y0179548D01*
X0080860Y0179498D01*
X0080973Y0179445D01*
X0081084Y0179387D01*
X0081194Y0179327D01*
X0081301Y0179262D01*
X0081406Y0179195D01*
X0081509Y0179124D01*
X0081609Y0179050D01*
X0081707Y0178973D01*
X0081803Y0178892D01*
X0081896Y0178809D01*
X0081987Y0178723D01*
X0082074Y0178634D01*
X0082159Y0178542D01*
X0082241Y0178448D01*
X0082320Y0178351D01*
X0082395Y0178251D01*
X0082468Y0178150D01*
X0082537Y0178046D01*
X0082603Y0177939D01*
X0082665Y0177831D01*
X0082724Y0177721D01*
X0082780Y0177609D01*
X0082832Y0177495D01*
X0082880Y0177380D01*
X0082925Y0177264D01*
X0082965Y0177145D01*
X0083003Y0177026D01*
X0083036Y0176906D01*
X0083065Y0176784D01*
X0083091Y0176662D01*
X0083113Y0176539D01*
X0083130Y0176415D01*
X0083144Y0176291D01*
X0083154Y0176167D01*
X0083160Y0176042D01*
X0083162Y0175917D01*
X0083160Y0175792D01*
X0083154Y0175667D01*
X0083144Y0175543D01*
X0083130Y0175419D01*
X0083113Y0175295D01*
X0083091Y0175172D01*
X0083065Y0175050D01*
X0083036Y0174928D01*
X0083003Y0174808D01*
X0082965Y0174689D01*
X0082925Y0174570D01*
X0082880Y0174454D01*
X0082832Y0174339D01*
X0082780Y0174225D01*
X0082724Y0174113D01*
X0082665Y0174003D01*
X0082603Y0173895D01*
X0082537Y0173788D01*
X0082468Y0173684D01*
X0082395Y0173583D01*
X0082320Y0173483D01*
X0082241Y0173386D01*
X0082159Y0173292D01*
X0082074Y0173200D01*
X0081987Y0173111D01*
X0081896Y0173025D01*
X0081803Y0172942D01*
X0081707Y0172861D01*
X0081609Y0172784D01*
X0081509Y0172710D01*
X0081406Y0172639D01*
X0081301Y0172572D01*
X0081193Y0172507D01*
X0081084Y0172447D01*
X0080973Y0172389D01*
X0080860Y0172336D01*
X0080746Y0172286D01*
X0080630Y0172239D01*
X0080513Y0172197D01*
X0080394Y0172158D01*
X0080274Y0172122D01*
X0080153Y0172091D01*
X0080031Y0172063D01*
X0079909Y0172040D01*
X0079785Y0172020D01*
X0079661Y0172004D01*
X0079537Y0171992D01*
X0079412Y0171984D01*
X0079287Y0171980D01*
X0079163Y0171980D01*
X0079038Y0171984D01*
X0078913Y0171992D01*
X0078789Y0172004D01*
X0078665Y0172020D01*
X0078541Y0172040D01*
X0078419Y0172063D01*
X0078297Y0172091D01*
X0078176Y0172122D01*
X0078056Y0172158D01*
X0077937Y0172197D01*
X0077820Y0172239D01*
X0077704Y0172286D01*
X0077590Y0172336D01*
X0077477Y0172389D01*
X0077366Y0172447D01*
X0077256Y0172507D01*
X0077149Y0172572D01*
X0077044Y0172639D01*
X0076941Y0172710D01*
X0076841Y0172784D01*
X0076743Y0172861D01*
X0076647Y0172942D01*
X0076554Y0173025D01*
X0076463Y0173111D01*
X0076376Y0173200D01*
X0076291Y0173292D01*
X0076209Y0173386D01*
X0076130Y0173483D01*
X0076055Y0173583D01*
X0075982Y0173684D01*
X0075913Y0173788D01*
X0075847Y0173895D01*
X0075785Y0174003D01*
X0075726Y0174113D01*
X0075670Y0174225D01*
X0075618Y0174339D01*
X0075570Y0174454D01*
X0075525Y0174570D01*
X0075485Y0174689D01*
X0075447Y0174808D01*
X0075414Y0174928D01*
X0075385Y0175050D01*
X0075359Y0175172D01*
X0075337Y0175295D01*
X0075320Y0175419D01*
X0075306Y0175543D01*
X0075296Y0175667D01*
X0075290Y0175792D01*
X0075288Y0175917D01*
X0073306Y0175917D02*
X0073308Y0176071D01*
X0073314Y0176224D01*
X0073324Y0176378D01*
X0073338Y0176531D01*
X0073356Y0176683D01*
X0073378Y0176835D01*
X0073403Y0176987D01*
X0073433Y0177138D01*
X0073467Y0177288D01*
X0073504Y0177437D01*
X0073546Y0177585D01*
X0073591Y0177731D01*
X0073640Y0177877D01*
X0073693Y0178021D01*
X0073749Y0178164D01*
X0073809Y0178306D01*
X0073873Y0178446D01*
X0073941Y0178584D01*
X0074012Y0178720D01*
X0074086Y0178854D01*
X0074164Y0178987D01*
X0074246Y0179117D01*
X0074330Y0179245D01*
X0074418Y0179371D01*
X0074510Y0179495D01*
X0074604Y0179616D01*
X0074702Y0179735D01*
X0074802Y0179851D01*
X0074906Y0179964D01*
X0075013Y0180075D01*
X0075122Y0180183D01*
X0075234Y0180288D01*
X0075349Y0180390D01*
X0075466Y0180489D01*
X0075586Y0180585D01*
X0075709Y0180678D01*
X0075833Y0180768D01*
X0075961Y0180854D01*
X0076090Y0180938D01*
X0076221Y0181017D01*
X0076355Y0181093D01*
X0076490Y0181166D01*
X0076627Y0181235D01*
X0076766Y0181301D01*
X0076907Y0181363D01*
X0077049Y0181421D01*
X0077193Y0181476D01*
X0077338Y0181527D01*
X0077484Y0181574D01*
X0077631Y0181617D01*
X0077780Y0181657D01*
X0077929Y0181692D01*
X0078080Y0181724D01*
X0078231Y0181752D01*
X0078383Y0181776D01*
X0078535Y0181796D01*
X0078688Y0181812D01*
X0078841Y0181824D01*
X0078995Y0181832D01*
X0079148Y0181836D01*
X0079302Y0181836D01*
X0079455Y0181832D01*
X0079609Y0181824D01*
X0079762Y0181812D01*
X0079915Y0181796D01*
X0080067Y0181776D01*
X0080219Y0181752D01*
X0080370Y0181724D01*
X0080521Y0181692D01*
X0080670Y0181657D01*
X0080819Y0181617D01*
X0080966Y0181574D01*
X0081112Y0181527D01*
X0081257Y0181476D01*
X0081401Y0181421D01*
X0081543Y0181363D01*
X0081684Y0181301D01*
X0081823Y0181235D01*
X0081960Y0181166D01*
X0082095Y0181093D01*
X0082229Y0181017D01*
X0082360Y0180938D01*
X0082489Y0180854D01*
X0082617Y0180768D01*
X0082741Y0180678D01*
X0082864Y0180585D01*
X0082984Y0180489D01*
X0083101Y0180390D01*
X0083216Y0180288D01*
X0083328Y0180183D01*
X0083437Y0180075D01*
X0083544Y0179964D01*
X0083648Y0179851D01*
X0083748Y0179735D01*
X0083846Y0179616D01*
X0083940Y0179495D01*
X0084032Y0179371D01*
X0084120Y0179245D01*
X0084204Y0179117D01*
X0084286Y0178987D01*
X0084364Y0178854D01*
X0084438Y0178720D01*
X0084509Y0178584D01*
X0084577Y0178446D01*
X0084641Y0178306D01*
X0084701Y0178164D01*
X0084757Y0178021D01*
X0084810Y0177877D01*
X0084859Y0177731D01*
X0084904Y0177585D01*
X0084946Y0177437D01*
X0084983Y0177288D01*
X0085017Y0177138D01*
X0085047Y0176987D01*
X0085072Y0176835D01*
X0085094Y0176683D01*
X0085112Y0176531D01*
X0085126Y0176378D01*
X0085136Y0176224D01*
X0085142Y0176071D01*
X0085144Y0175917D01*
X0085142Y0175763D01*
X0085136Y0175610D01*
X0085126Y0175456D01*
X0085112Y0175303D01*
X0085094Y0175151D01*
X0085072Y0174999D01*
X0085047Y0174847D01*
X0085017Y0174696D01*
X0084983Y0174546D01*
X0084946Y0174397D01*
X0084904Y0174249D01*
X0084859Y0174103D01*
X0084810Y0173957D01*
X0084757Y0173813D01*
X0084701Y0173670D01*
X0084641Y0173528D01*
X0084577Y0173388D01*
X0084509Y0173250D01*
X0084438Y0173114D01*
X0084364Y0172980D01*
X0084286Y0172847D01*
X0084204Y0172717D01*
X0084120Y0172589D01*
X0084032Y0172463D01*
X0083940Y0172339D01*
X0083846Y0172218D01*
X0083748Y0172099D01*
X0083648Y0171983D01*
X0083544Y0171870D01*
X0083437Y0171759D01*
X0083328Y0171651D01*
X0083216Y0171546D01*
X0083101Y0171444D01*
X0082984Y0171345D01*
X0082864Y0171249D01*
X0082741Y0171156D01*
X0082617Y0171066D01*
X0082489Y0170980D01*
X0082360Y0170896D01*
X0082229Y0170817D01*
X0082095Y0170741D01*
X0081960Y0170668D01*
X0081823Y0170599D01*
X0081684Y0170533D01*
X0081543Y0170471D01*
X0081401Y0170413D01*
X0081257Y0170358D01*
X0081112Y0170307D01*
X0080966Y0170260D01*
X0080819Y0170217D01*
X0080670Y0170177D01*
X0080521Y0170142D01*
X0080370Y0170110D01*
X0080219Y0170082D01*
X0080067Y0170058D01*
X0079915Y0170038D01*
X0079762Y0170022D01*
X0079609Y0170010D01*
X0079455Y0170002D01*
X0079302Y0169998D01*
X0079148Y0169998D01*
X0078995Y0170002D01*
X0078841Y0170010D01*
X0078688Y0170022D01*
X0078535Y0170038D01*
X0078383Y0170058D01*
X0078231Y0170082D01*
X0078080Y0170110D01*
X0077929Y0170142D01*
X0077780Y0170177D01*
X0077631Y0170217D01*
X0077484Y0170260D01*
X0077338Y0170307D01*
X0077193Y0170358D01*
X0077049Y0170413D01*
X0076907Y0170471D01*
X0076766Y0170533D01*
X0076627Y0170599D01*
X0076490Y0170668D01*
X0076355Y0170741D01*
X0076221Y0170817D01*
X0076090Y0170896D01*
X0075961Y0170980D01*
X0075833Y0171066D01*
X0075709Y0171156D01*
X0075586Y0171249D01*
X0075466Y0171345D01*
X0075349Y0171444D01*
X0075234Y0171546D01*
X0075122Y0171651D01*
X0075013Y0171759D01*
X0074906Y0171870D01*
X0074802Y0171983D01*
X0074702Y0172099D01*
X0074604Y0172218D01*
X0074510Y0172339D01*
X0074418Y0172463D01*
X0074330Y0172589D01*
X0074246Y0172717D01*
X0074164Y0172847D01*
X0074086Y0172980D01*
X0074012Y0173114D01*
X0073941Y0173250D01*
X0073873Y0173388D01*
X0073809Y0173528D01*
X0073749Y0173670D01*
X0073693Y0173813D01*
X0073640Y0173957D01*
X0073591Y0174103D01*
X0073546Y0174249D01*
X0073504Y0174397D01*
X0073467Y0174546D01*
X0073433Y0174696D01*
X0073403Y0174847D01*
X0073378Y0174999D01*
X0073356Y0175151D01*
X0073338Y0175303D01*
X0073324Y0175456D01*
X0073314Y0175610D01*
X0073308Y0175763D01*
X0073306Y0175917D01*
X0357150Y0045370D02*
X0357150Y0042367D01*
X0357901Y0041617D01*
X0359402Y0041617D01*
X0360153Y0042367D01*
X0360153Y0045370D01*
X0359402Y0046120D01*
X0357901Y0046120D01*
X0357150Y0045370D01*
X0361754Y0043869D02*
X0364756Y0043869D01*
X0364006Y0046120D02*
X0361754Y0043869D01*
X0364006Y0041617D02*
X0364006Y0046120D01*
D17*
X0340751Y0054842D02*
X0340150Y0054842D01*
X0340450Y0054842D02*
X0340450Y0055742D01*
X0340150Y0055442D01*
X0322989Y0044432D02*
X0322989Y0043931D01*
X0322738Y0043681D01*
X0321988Y0043681D01*
X0322488Y0043681D02*
X0322989Y0043181D01*
X0321988Y0043181D02*
X0321988Y0044682D01*
X0322738Y0044682D01*
X0322989Y0044432D01*
X0321515Y0044432D02*
X0321515Y0043431D01*
X0321265Y0043181D01*
X0320765Y0043181D01*
X0320514Y0043431D01*
X0320514Y0044432D01*
X0320765Y0044682D01*
X0321265Y0044682D01*
X0321515Y0044432D01*
X0320042Y0044682D02*
X0319041Y0044682D01*
X0319542Y0044682D02*
X0319542Y0043181D01*
X0318569Y0043431D02*
X0318569Y0044432D01*
X0318319Y0044682D01*
X0317818Y0044682D01*
X0317568Y0044432D01*
X0317568Y0043431D01*
X0317818Y0043181D01*
X0318319Y0043181D01*
X0318569Y0043431D01*
X0317096Y0043181D02*
X0317096Y0044682D01*
X0316595Y0044181D01*
X0316095Y0044682D01*
X0316095Y0043181D01*
X0315622Y0042930D02*
X0314621Y0042930D01*
X0314149Y0043181D02*
X0313649Y0043681D01*
X0313899Y0043681D02*
X0313148Y0043681D01*
X0313148Y0043181D02*
X0313148Y0044682D01*
X0313899Y0044682D01*
X0314149Y0044432D01*
X0314149Y0043931D01*
X0313899Y0043681D01*
X0312676Y0043931D02*
X0311675Y0043931D01*
X0311675Y0044181D02*
X0312175Y0044682D01*
X0312676Y0044181D01*
X0312676Y0043181D01*
X0311675Y0043181D02*
X0311675Y0044181D01*
X0311203Y0044432D02*
X0310952Y0044682D01*
X0310202Y0044682D01*
X0310202Y0043181D01*
X0310952Y0043181D01*
X0311203Y0043431D01*
X0311203Y0044432D01*
X0309720Y0044682D02*
X0309220Y0044682D01*
X0309470Y0044682D02*
X0309470Y0043181D01*
X0309220Y0043181D02*
X0309720Y0043181D01*
X0308747Y0043181D02*
X0307746Y0043181D01*
X0307746Y0044682D01*
X0282477Y0035193D02*
X0282477Y0034092D01*
X0282110Y0034092D02*
X0282844Y0034092D01*
X0282110Y0034826D02*
X0282477Y0035193D01*
X0281739Y0034092D02*
X0281005Y0034092D01*
X0281005Y0035193D01*
X0280634Y0035009D02*
X0280450Y0035193D01*
X0280083Y0035193D01*
X0279900Y0035009D01*
X0279900Y0034826D01*
X0280083Y0034642D01*
X0280450Y0034642D01*
X0280634Y0034459D01*
X0280634Y0034275D01*
X0280450Y0034092D01*
X0280083Y0034092D01*
X0279900Y0034275D01*
X0277844Y0034275D02*
X0277660Y0034092D01*
X0277293Y0034092D01*
X0277110Y0034275D01*
X0277844Y0035009D01*
X0277844Y0034275D01*
X0277844Y0035009D02*
X0277660Y0035193D01*
X0277293Y0035193D01*
X0277110Y0035009D01*
X0277110Y0034275D01*
X0276739Y0034092D02*
X0276005Y0034092D01*
X0276005Y0035193D01*
X0275634Y0035009D02*
X0275450Y0035193D01*
X0275083Y0035193D01*
X0274900Y0035009D01*
X0274900Y0034826D01*
X0275083Y0034642D01*
X0275450Y0034642D01*
X0275634Y0034459D01*
X0275634Y0034275D01*
X0275450Y0034092D01*
X0275083Y0034092D01*
X0274900Y0034275D01*
X0275214Y0069402D02*
X0276215Y0069402D01*
X0276687Y0069653D02*
X0277688Y0069653D01*
X0278161Y0069653D02*
X0278161Y0070654D01*
X0278661Y0071154D01*
X0279162Y0070654D01*
X0279162Y0069653D01*
X0279634Y0069903D02*
X0279884Y0069653D01*
X0280385Y0069653D01*
X0280635Y0069903D01*
X0280635Y0070153D01*
X0280385Y0070403D01*
X0279884Y0070403D01*
X0279634Y0070654D01*
X0279634Y0070904D01*
X0279884Y0071154D01*
X0280385Y0071154D01*
X0280635Y0070904D01*
X0281107Y0071154D02*
X0281107Y0069653D01*
X0282108Y0069653D01*
X0282580Y0069653D02*
X0282580Y0071154D01*
X0283331Y0071154D01*
X0283581Y0070904D01*
X0283581Y0070403D01*
X0283331Y0070153D01*
X0282580Y0070153D01*
X0283081Y0070153D02*
X0283581Y0069653D01*
X0282108Y0071154D02*
X0281107Y0071154D01*
X0281107Y0070403D02*
X0281608Y0070403D01*
X0279162Y0070403D02*
X0278161Y0070403D01*
X0276687Y0069653D02*
X0276687Y0071154D01*
X0274742Y0070904D02*
X0274742Y0070403D01*
X0274492Y0070153D01*
X0273741Y0070153D01*
X0273741Y0069653D02*
X0273741Y0071154D01*
X0274492Y0071154D01*
X0274742Y0070904D01*
X0274241Y0070153D02*
X0274742Y0069653D01*
X0273269Y0069653D02*
X0273269Y0070654D01*
X0272768Y0071154D01*
X0272268Y0070654D01*
X0272268Y0069653D01*
X0271795Y0069903D02*
X0271795Y0070904D01*
X0271545Y0071154D01*
X0270794Y0071154D01*
X0270794Y0069653D01*
X0271545Y0069653D01*
X0271795Y0069903D01*
X0272268Y0070403D02*
X0273269Y0070403D01*
X0270313Y0069653D02*
X0269812Y0069653D01*
X0270062Y0069653D02*
X0270062Y0071154D01*
X0269812Y0071154D02*
X0270313Y0071154D01*
X0269340Y0069653D02*
X0268339Y0069653D01*
X0268339Y0071154D01*
X0218029Y0045059D02*
X0217846Y0045243D01*
X0217479Y0045243D01*
X0217295Y0045059D01*
X0217295Y0044325D01*
X0217479Y0044142D01*
X0217846Y0044142D01*
X0218029Y0044325D01*
X0216924Y0044142D02*
X0216190Y0044142D01*
X0216924Y0044876D01*
X0216924Y0045059D01*
X0216741Y0045243D01*
X0216374Y0045243D01*
X0216190Y0045059D01*
X0215820Y0045243D02*
X0215453Y0045243D01*
X0215637Y0045243D02*
X0215637Y0044142D01*
X0215820Y0044142D02*
X0215453Y0044142D01*
X0213030Y0044142D02*
X0212663Y0044142D01*
X0212847Y0044142D02*
X0212847Y0045243D01*
X0213030Y0045243D02*
X0212663Y0045243D01*
X0212292Y0045059D02*
X0212292Y0044692D01*
X0212109Y0044509D01*
X0211558Y0044509D01*
X0211558Y0044142D02*
X0211558Y0045243D01*
X0212109Y0045243D01*
X0212292Y0045059D01*
X0211187Y0045059D02*
X0211004Y0045243D01*
X0210637Y0045243D01*
X0210453Y0045059D01*
X0210453Y0044876D01*
X0210637Y0044692D01*
X0211004Y0044692D01*
X0211187Y0044509D01*
X0211187Y0044325D01*
X0211004Y0044142D01*
X0210637Y0044142D01*
X0210453Y0044325D01*
X0203029Y0044325D02*
X0202846Y0044142D01*
X0202479Y0044142D01*
X0202295Y0044325D01*
X0202295Y0045059D01*
X0202479Y0045243D01*
X0202846Y0045243D01*
X0203029Y0045059D01*
X0201924Y0045059D02*
X0201741Y0045243D01*
X0201374Y0045243D01*
X0201190Y0045059D01*
X0200820Y0045243D02*
X0200453Y0045243D01*
X0200637Y0045243D02*
X0200637Y0044142D01*
X0200820Y0044142D02*
X0200453Y0044142D01*
X0201190Y0044142D02*
X0201924Y0044876D01*
X0201924Y0045059D01*
X0201924Y0044142D02*
X0201190Y0044142D01*
X0198030Y0044142D02*
X0197663Y0044142D01*
X0197847Y0044142D02*
X0197847Y0045243D01*
X0198030Y0045243D02*
X0197663Y0045243D01*
X0197292Y0045059D02*
X0197292Y0044692D01*
X0197109Y0044509D01*
X0196558Y0044509D01*
X0196558Y0044142D02*
X0196558Y0045243D01*
X0197109Y0045243D01*
X0197292Y0045059D01*
X0196187Y0045059D02*
X0196004Y0045243D01*
X0195637Y0045243D01*
X0195453Y0045059D01*
X0195453Y0044876D01*
X0195637Y0044692D01*
X0196004Y0044692D01*
X0196187Y0044509D01*
X0196187Y0044325D01*
X0196004Y0044142D01*
X0195637Y0044142D01*
X0195453Y0044325D01*
D18*
X0040221Y0072723D02*
X0037352Y0072723D01*
X0038787Y0072723D02*
X0038787Y0077026D01*
X0037352Y0075592D01*
X0037852Y0082523D02*
X0040721Y0085392D01*
X0040721Y0086109D01*
X0040004Y0086826D01*
X0038569Y0086826D01*
X0037852Y0086109D01*
X0037852Y0082523D02*
X0040721Y0082523D01*
X0059952Y0191923D02*
X0062821Y0191923D01*
X0061387Y0191923D02*
X0061387Y0196226D01*
X0059952Y0194792D01*
X0060452Y0201723D02*
X0063321Y0204592D01*
X0063321Y0205309D01*
X0062604Y0206026D01*
X0061169Y0206026D01*
X0060452Y0205309D01*
X0060452Y0201723D02*
X0063321Y0201723D01*
D19*
X0175050Y0131094D02*
X0175050Y0128892D01*
X0175050Y0129626D02*
X0176151Y0129626D01*
X0176518Y0129993D01*
X0176518Y0130727D01*
X0176151Y0131094D01*
X0175050Y0131094D01*
X0175784Y0129626D02*
X0176518Y0128892D01*
X0177260Y0128892D02*
X0177260Y0129259D01*
X0178728Y0130727D01*
X0178728Y0131094D01*
X0177260Y0131094D01*
X0195208Y0144212D02*
X0206645Y0132775D01*
X0222992Y0149121D01*
X0211555Y0160559D01*
X0195208Y0144212D01*
X0206645Y0102309D02*
X0195208Y0090871D01*
X0211555Y0074525D01*
X0222992Y0085962D01*
X0206645Y0102309D01*
X0302513Y0093726D02*
X0302513Y0070608D01*
X0318687Y0070608D01*
X0318687Y0093726D01*
X0302513Y0093726D01*
X0302513Y0130608D02*
X0318687Y0130608D01*
X0318687Y0153726D01*
X0302513Y0153726D01*
X0302513Y0130608D01*
D20*
X0345850Y0200167D02*
X0345852Y0200325D01*
X0345858Y0200482D01*
X0345868Y0200640D01*
X0345882Y0200797D01*
X0345900Y0200953D01*
X0345921Y0201110D01*
X0345947Y0201265D01*
X0345977Y0201420D01*
X0346010Y0201574D01*
X0346048Y0201727D01*
X0346089Y0201880D01*
X0346134Y0202031D01*
X0346183Y0202181D01*
X0346236Y0202329D01*
X0346292Y0202477D01*
X0346353Y0202622D01*
X0346416Y0202767D01*
X0346484Y0202909D01*
X0346555Y0203050D01*
X0346629Y0203189D01*
X0346707Y0203326D01*
X0346789Y0203461D01*
X0346873Y0203594D01*
X0346962Y0203725D01*
X0347053Y0203853D01*
X0347148Y0203980D01*
X0347245Y0204103D01*
X0347346Y0204225D01*
X0347450Y0204343D01*
X0347557Y0204459D01*
X0347667Y0204572D01*
X0347779Y0204683D01*
X0347895Y0204790D01*
X0348013Y0204895D01*
X0348133Y0204997D01*
X0348256Y0205095D01*
X0348382Y0205191D01*
X0348510Y0205283D01*
X0348640Y0205372D01*
X0348772Y0205458D01*
X0348907Y0205540D01*
X0349044Y0205619D01*
X0349182Y0205694D01*
X0349322Y0205766D01*
X0349465Y0205834D01*
X0349608Y0205899D01*
X0349754Y0205960D01*
X0349901Y0206017D01*
X0350049Y0206071D01*
X0350199Y0206121D01*
X0350349Y0206167D01*
X0350501Y0206209D01*
X0350654Y0206248D01*
X0350808Y0206282D01*
X0350963Y0206313D01*
X0351118Y0206339D01*
X0351274Y0206362D01*
X0351431Y0206381D01*
X0351588Y0206396D01*
X0351745Y0206407D01*
X0351903Y0206414D01*
X0352061Y0206417D01*
X0352218Y0206416D01*
X0352376Y0206411D01*
X0352533Y0206402D01*
X0352691Y0206389D01*
X0352847Y0206372D01*
X0353004Y0206351D01*
X0353159Y0206327D01*
X0353314Y0206298D01*
X0353469Y0206265D01*
X0353622Y0206229D01*
X0353775Y0206188D01*
X0353926Y0206144D01*
X0354076Y0206096D01*
X0354225Y0206045D01*
X0354373Y0205989D01*
X0354519Y0205930D01*
X0354664Y0205867D01*
X0354807Y0205800D01*
X0354948Y0205730D01*
X0355087Y0205657D01*
X0355225Y0205580D01*
X0355361Y0205499D01*
X0355494Y0205415D01*
X0355625Y0205328D01*
X0355754Y0205237D01*
X0355881Y0205143D01*
X0356006Y0205046D01*
X0356127Y0204946D01*
X0356247Y0204843D01*
X0356363Y0204737D01*
X0356477Y0204628D01*
X0356589Y0204516D01*
X0356697Y0204402D01*
X0356802Y0204284D01*
X0356905Y0204164D01*
X0357004Y0204042D01*
X0357100Y0203917D01*
X0357193Y0203789D01*
X0357283Y0203660D01*
X0357369Y0203528D01*
X0357453Y0203394D01*
X0357532Y0203258D01*
X0357609Y0203120D01*
X0357681Y0202980D01*
X0357750Y0202838D01*
X0357816Y0202695D01*
X0357878Y0202550D01*
X0357936Y0202403D01*
X0357991Y0202255D01*
X0358042Y0202106D01*
X0358089Y0201955D01*
X0358132Y0201804D01*
X0358171Y0201651D01*
X0358207Y0201497D01*
X0358238Y0201343D01*
X0358266Y0201188D01*
X0358290Y0201032D01*
X0358310Y0200875D01*
X0358326Y0200718D01*
X0358338Y0200561D01*
X0358346Y0200404D01*
X0358350Y0200246D01*
X0358350Y0200088D01*
X0358346Y0199930D01*
X0358338Y0199773D01*
X0358326Y0199616D01*
X0358310Y0199459D01*
X0358290Y0199302D01*
X0358266Y0199146D01*
X0358238Y0198991D01*
X0358207Y0198837D01*
X0358171Y0198683D01*
X0358132Y0198530D01*
X0358089Y0198379D01*
X0358042Y0198228D01*
X0357991Y0198079D01*
X0357936Y0197931D01*
X0357878Y0197784D01*
X0357816Y0197639D01*
X0357750Y0197496D01*
X0357681Y0197354D01*
X0357609Y0197214D01*
X0357532Y0197076D01*
X0357453Y0196940D01*
X0357369Y0196806D01*
X0357283Y0196674D01*
X0357193Y0196545D01*
X0357100Y0196417D01*
X0357004Y0196292D01*
X0356905Y0196170D01*
X0356802Y0196050D01*
X0356697Y0195932D01*
X0356589Y0195818D01*
X0356477Y0195706D01*
X0356363Y0195597D01*
X0356247Y0195491D01*
X0356127Y0195388D01*
X0356006Y0195288D01*
X0355881Y0195191D01*
X0355754Y0195097D01*
X0355625Y0195006D01*
X0355494Y0194919D01*
X0355361Y0194835D01*
X0355225Y0194754D01*
X0355087Y0194677D01*
X0354948Y0194604D01*
X0354807Y0194534D01*
X0354664Y0194467D01*
X0354519Y0194404D01*
X0354373Y0194345D01*
X0354225Y0194289D01*
X0354076Y0194238D01*
X0353926Y0194190D01*
X0353775Y0194146D01*
X0353622Y0194105D01*
X0353469Y0194069D01*
X0353314Y0194036D01*
X0353159Y0194007D01*
X0353004Y0193983D01*
X0352847Y0193962D01*
X0352691Y0193945D01*
X0352533Y0193932D01*
X0352376Y0193923D01*
X0352218Y0193918D01*
X0352061Y0193917D01*
X0351903Y0193920D01*
X0351745Y0193927D01*
X0351588Y0193938D01*
X0351431Y0193953D01*
X0351274Y0193972D01*
X0351118Y0193995D01*
X0350963Y0194021D01*
X0350808Y0194052D01*
X0350654Y0194086D01*
X0350501Y0194125D01*
X0350349Y0194167D01*
X0350199Y0194213D01*
X0350049Y0194263D01*
X0349901Y0194317D01*
X0349754Y0194374D01*
X0349608Y0194435D01*
X0349465Y0194500D01*
X0349322Y0194568D01*
X0349182Y0194640D01*
X0349044Y0194715D01*
X0348907Y0194794D01*
X0348772Y0194876D01*
X0348640Y0194962D01*
X0348510Y0195051D01*
X0348382Y0195143D01*
X0348256Y0195239D01*
X0348133Y0195337D01*
X0348013Y0195439D01*
X0347895Y0195544D01*
X0347779Y0195651D01*
X0347667Y0195762D01*
X0347557Y0195875D01*
X0347450Y0195991D01*
X0347346Y0196109D01*
X0347245Y0196231D01*
X0347148Y0196354D01*
X0347053Y0196481D01*
X0346962Y0196609D01*
X0346873Y0196740D01*
X0346789Y0196873D01*
X0346707Y0197008D01*
X0346629Y0197145D01*
X0346555Y0197284D01*
X0346484Y0197425D01*
X0346416Y0197567D01*
X0346353Y0197712D01*
X0346292Y0197857D01*
X0346236Y0198005D01*
X0346183Y0198153D01*
X0346134Y0198303D01*
X0346089Y0198454D01*
X0346048Y0198607D01*
X0346010Y0198760D01*
X0345977Y0198914D01*
X0345947Y0199069D01*
X0345921Y0199224D01*
X0345900Y0199381D01*
X0345882Y0199537D01*
X0345868Y0199694D01*
X0345858Y0199852D01*
X0345852Y0200009D01*
X0345850Y0200167D01*
X0121800Y0138367D02*
X0121869Y0138365D01*
X0121937Y0138359D01*
X0122005Y0138349D01*
X0122072Y0138336D01*
X0122138Y0138318D01*
X0122203Y0138297D01*
X0122267Y0138272D01*
X0122329Y0138244D01*
X0122390Y0138212D01*
X0122449Y0138177D01*
X0122505Y0138138D01*
X0122560Y0138096D01*
X0122611Y0138051D01*
X0122661Y0138003D01*
X0122707Y0137953D01*
X0122750Y0137900D01*
X0122791Y0137844D01*
X0122828Y0137787D01*
X0122861Y0137727D01*
X0122892Y0137665D01*
X0122918Y0137602D01*
X0122941Y0137538D01*
X0122961Y0137472D01*
X0122976Y0137405D01*
X0122988Y0137338D01*
X0122996Y0137270D01*
X0123000Y0137201D01*
X0123000Y0137133D01*
X0122996Y0137064D01*
X0122988Y0136996D01*
X0122976Y0136929D01*
X0122961Y0136862D01*
X0122941Y0136796D01*
X0122918Y0136732D01*
X0122892Y0136669D01*
X0122861Y0136607D01*
X0122828Y0136547D01*
X0122791Y0136490D01*
X0122750Y0136434D01*
X0122707Y0136381D01*
X0122661Y0136331D01*
X0122611Y0136283D01*
X0122560Y0136238D01*
X0122505Y0136196D01*
X0122449Y0136157D01*
X0122390Y0136122D01*
X0122329Y0136090D01*
X0122267Y0136062D01*
X0122203Y0136037D01*
X0122138Y0136016D01*
X0122072Y0135998D01*
X0122005Y0135985D01*
X0121937Y0135975D01*
X0121869Y0135969D01*
X0121800Y0135967D01*
X0085850Y0212667D02*
X0085852Y0212825D01*
X0085858Y0212982D01*
X0085868Y0213140D01*
X0085882Y0213297D01*
X0085900Y0213453D01*
X0085921Y0213610D01*
X0085947Y0213765D01*
X0085977Y0213920D01*
X0086010Y0214074D01*
X0086048Y0214227D01*
X0086089Y0214380D01*
X0086134Y0214531D01*
X0086183Y0214681D01*
X0086236Y0214829D01*
X0086292Y0214977D01*
X0086353Y0215122D01*
X0086416Y0215267D01*
X0086484Y0215409D01*
X0086555Y0215550D01*
X0086629Y0215689D01*
X0086707Y0215826D01*
X0086789Y0215961D01*
X0086873Y0216094D01*
X0086962Y0216225D01*
X0087053Y0216353D01*
X0087148Y0216480D01*
X0087245Y0216603D01*
X0087346Y0216725D01*
X0087450Y0216843D01*
X0087557Y0216959D01*
X0087667Y0217072D01*
X0087779Y0217183D01*
X0087895Y0217290D01*
X0088013Y0217395D01*
X0088133Y0217497D01*
X0088256Y0217595D01*
X0088382Y0217691D01*
X0088510Y0217783D01*
X0088640Y0217872D01*
X0088772Y0217958D01*
X0088907Y0218040D01*
X0089044Y0218119D01*
X0089182Y0218194D01*
X0089322Y0218266D01*
X0089465Y0218334D01*
X0089608Y0218399D01*
X0089754Y0218460D01*
X0089901Y0218517D01*
X0090049Y0218571D01*
X0090199Y0218621D01*
X0090349Y0218667D01*
X0090501Y0218709D01*
X0090654Y0218748D01*
X0090808Y0218782D01*
X0090963Y0218813D01*
X0091118Y0218839D01*
X0091274Y0218862D01*
X0091431Y0218881D01*
X0091588Y0218896D01*
X0091745Y0218907D01*
X0091903Y0218914D01*
X0092061Y0218917D01*
X0092218Y0218916D01*
X0092376Y0218911D01*
X0092533Y0218902D01*
X0092691Y0218889D01*
X0092847Y0218872D01*
X0093004Y0218851D01*
X0093159Y0218827D01*
X0093314Y0218798D01*
X0093469Y0218765D01*
X0093622Y0218729D01*
X0093775Y0218688D01*
X0093926Y0218644D01*
X0094076Y0218596D01*
X0094225Y0218545D01*
X0094373Y0218489D01*
X0094519Y0218430D01*
X0094664Y0218367D01*
X0094807Y0218300D01*
X0094948Y0218230D01*
X0095087Y0218157D01*
X0095225Y0218080D01*
X0095361Y0217999D01*
X0095494Y0217915D01*
X0095625Y0217828D01*
X0095754Y0217737D01*
X0095881Y0217643D01*
X0096006Y0217546D01*
X0096127Y0217446D01*
X0096247Y0217343D01*
X0096363Y0217237D01*
X0096477Y0217128D01*
X0096589Y0217016D01*
X0096697Y0216902D01*
X0096802Y0216784D01*
X0096905Y0216664D01*
X0097004Y0216542D01*
X0097100Y0216417D01*
X0097193Y0216289D01*
X0097283Y0216160D01*
X0097369Y0216028D01*
X0097453Y0215894D01*
X0097532Y0215758D01*
X0097609Y0215620D01*
X0097681Y0215480D01*
X0097750Y0215338D01*
X0097816Y0215195D01*
X0097878Y0215050D01*
X0097936Y0214903D01*
X0097991Y0214755D01*
X0098042Y0214606D01*
X0098089Y0214455D01*
X0098132Y0214304D01*
X0098171Y0214151D01*
X0098207Y0213997D01*
X0098238Y0213843D01*
X0098266Y0213688D01*
X0098290Y0213532D01*
X0098310Y0213375D01*
X0098326Y0213218D01*
X0098338Y0213061D01*
X0098346Y0212904D01*
X0098350Y0212746D01*
X0098350Y0212588D01*
X0098346Y0212430D01*
X0098338Y0212273D01*
X0098326Y0212116D01*
X0098310Y0211959D01*
X0098290Y0211802D01*
X0098266Y0211646D01*
X0098238Y0211491D01*
X0098207Y0211337D01*
X0098171Y0211183D01*
X0098132Y0211030D01*
X0098089Y0210879D01*
X0098042Y0210728D01*
X0097991Y0210579D01*
X0097936Y0210431D01*
X0097878Y0210284D01*
X0097816Y0210139D01*
X0097750Y0209996D01*
X0097681Y0209854D01*
X0097609Y0209714D01*
X0097532Y0209576D01*
X0097453Y0209440D01*
X0097369Y0209306D01*
X0097283Y0209174D01*
X0097193Y0209045D01*
X0097100Y0208917D01*
X0097004Y0208792D01*
X0096905Y0208670D01*
X0096802Y0208550D01*
X0096697Y0208432D01*
X0096589Y0208318D01*
X0096477Y0208206D01*
X0096363Y0208097D01*
X0096247Y0207991D01*
X0096127Y0207888D01*
X0096006Y0207788D01*
X0095881Y0207691D01*
X0095754Y0207597D01*
X0095625Y0207506D01*
X0095494Y0207419D01*
X0095361Y0207335D01*
X0095225Y0207254D01*
X0095087Y0207177D01*
X0094948Y0207104D01*
X0094807Y0207034D01*
X0094664Y0206967D01*
X0094519Y0206904D01*
X0094373Y0206845D01*
X0094225Y0206789D01*
X0094076Y0206738D01*
X0093926Y0206690D01*
X0093775Y0206646D01*
X0093622Y0206605D01*
X0093469Y0206569D01*
X0093314Y0206536D01*
X0093159Y0206507D01*
X0093004Y0206483D01*
X0092847Y0206462D01*
X0092691Y0206445D01*
X0092533Y0206432D01*
X0092376Y0206423D01*
X0092218Y0206418D01*
X0092061Y0206417D01*
X0091903Y0206420D01*
X0091745Y0206427D01*
X0091588Y0206438D01*
X0091431Y0206453D01*
X0091274Y0206472D01*
X0091118Y0206495D01*
X0090963Y0206521D01*
X0090808Y0206552D01*
X0090654Y0206586D01*
X0090501Y0206625D01*
X0090349Y0206667D01*
X0090199Y0206713D01*
X0090049Y0206763D01*
X0089901Y0206817D01*
X0089754Y0206874D01*
X0089608Y0206935D01*
X0089465Y0207000D01*
X0089322Y0207068D01*
X0089182Y0207140D01*
X0089044Y0207215D01*
X0088907Y0207294D01*
X0088772Y0207376D01*
X0088640Y0207462D01*
X0088510Y0207551D01*
X0088382Y0207643D01*
X0088256Y0207739D01*
X0088133Y0207837D01*
X0088013Y0207939D01*
X0087895Y0208044D01*
X0087779Y0208151D01*
X0087667Y0208262D01*
X0087557Y0208375D01*
X0087450Y0208491D01*
X0087346Y0208609D01*
X0087245Y0208731D01*
X0087148Y0208854D01*
X0087053Y0208981D01*
X0086962Y0209109D01*
X0086873Y0209240D01*
X0086789Y0209373D01*
X0086707Y0209508D01*
X0086629Y0209645D01*
X0086555Y0209784D01*
X0086484Y0209925D01*
X0086416Y0210067D01*
X0086353Y0210212D01*
X0086292Y0210357D01*
X0086236Y0210505D01*
X0086183Y0210653D01*
X0086134Y0210803D01*
X0086089Y0210954D01*
X0086048Y0211107D01*
X0086010Y0211260D01*
X0085977Y0211414D01*
X0085947Y0211569D01*
X0085921Y0211724D01*
X0085900Y0211881D01*
X0085882Y0212037D01*
X0085868Y0212194D01*
X0085858Y0212352D01*
X0085852Y0212509D01*
X0085850Y0212667D01*
X0064550Y0055317D02*
X0064551Y0055248D01*
X0064548Y0055180D01*
X0064541Y0055112D01*
X0064530Y0055044D01*
X0064515Y0054977D01*
X0064497Y0054911D01*
X0064475Y0054846D01*
X0064449Y0054782D01*
X0064419Y0054720D01*
X0064387Y0054660D01*
X0064350Y0054602D01*
X0064311Y0054546D01*
X0064268Y0054492D01*
X0064222Y0054441D01*
X0064174Y0054393D01*
X0064122Y0054347D01*
X0064069Y0054305D01*
X0064012Y0054265D01*
X0063954Y0054229D01*
X0063894Y0054196D01*
X0063832Y0054167D01*
X0063768Y0054141D01*
X0063703Y0054119D01*
X0063637Y0054101D01*
X0063570Y0054086D01*
X0063503Y0054076D01*
X0063434Y0054069D01*
X0063366Y0054066D01*
X0063297Y0054067D01*
X0063229Y0054072D01*
X0063161Y0054081D01*
X0063093Y0054094D01*
X0063027Y0054110D01*
X0062961Y0054131D01*
X0062897Y0054155D01*
X0062834Y0054182D01*
X0062773Y0054214D01*
X0062714Y0054248D01*
X0062657Y0054286D01*
X0062602Y0054327D01*
X0062550Y0054372D01*
X0062500Y0054419D01*
X0062453Y0054469D01*
X0062409Y0054521D01*
X0062368Y0054576D01*
X0062330Y0054633D01*
X0062295Y0054693D01*
X0062264Y0054754D01*
X0062237Y0054817D01*
X0062213Y0054881D01*
X0062193Y0054947D01*
X0062176Y0055013D01*
X0062164Y0055081D01*
X0062155Y0055149D01*
X0062150Y0055217D01*
X0062155Y0055149D01*
X0062164Y0055081D01*
X0062176Y0055013D01*
X0062193Y0054947D01*
X0062213Y0054881D01*
X0062237Y0054817D01*
X0062264Y0054754D01*
X0062295Y0054693D01*
X0062330Y0054633D01*
X0062368Y0054576D01*
X0062409Y0054521D01*
X0062453Y0054469D01*
X0062500Y0054419D01*
X0062550Y0054372D01*
X0062602Y0054327D01*
X0062657Y0054286D01*
X0062714Y0054248D01*
X0062773Y0054214D01*
X0062834Y0054182D01*
X0062897Y0054155D01*
X0062961Y0054131D01*
X0063027Y0054110D01*
X0063093Y0054094D01*
X0063161Y0054081D01*
X0063229Y0054072D01*
X0063297Y0054067D01*
X0063366Y0054066D01*
X0063434Y0054069D01*
X0063503Y0054076D01*
X0063570Y0054086D01*
X0063637Y0054101D01*
X0063703Y0054119D01*
X0063768Y0054141D01*
X0063832Y0054167D01*
X0063894Y0054196D01*
X0063954Y0054229D01*
X0064012Y0054265D01*
X0064069Y0054305D01*
X0064122Y0054347D01*
X0064174Y0054393D01*
X0064222Y0054441D01*
X0064268Y0054492D01*
X0064311Y0054546D01*
X0064350Y0054602D01*
X0064387Y0054660D01*
X0064419Y0054720D01*
X0064449Y0054782D01*
X0064475Y0054846D01*
X0064497Y0054911D01*
X0064515Y0054977D01*
X0064530Y0055044D01*
X0064541Y0055112D01*
X0064548Y0055180D01*
X0064551Y0055248D01*
X0064550Y0055317D01*
X0085850Y0022667D02*
X0085852Y0022825D01*
X0085858Y0022982D01*
X0085868Y0023140D01*
X0085882Y0023297D01*
X0085900Y0023453D01*
X0085921Y0023610D01*
X0085947Y0023765D01*
X0085977Y0023920D01*
X0086010Y0024074D01*
X0086048Y0024227D01*
X0086089Y0024380D01*
X0086134Y0024531D01*
X0086183Y0024681D01*
X0086236Y0024829D01*
X0086292Y0024977D01*
X0086353Y0025122D01*
X0086416Y0025267D01*
X0086484Y0025409D01*
X0086555Y0025550D01*
X0086629Y0025689D01*
X0086707Y0025826D01*
X0086789Y0025961D01*
X0086873Y0026094D01*
X0086962Y0026225D01*
X0087053Y0026353D01*
X0087148Y0026480D01*
X0087245Y0026603D01*
X0087346Y0026725D01*
X0087450Y0026843D01*
X0087557Y0026959D01*
X0087667Y0027072D01*
X0087779Y0027183D01*
X0087895Y0027290D01*
X0088013Y0027395D01*
X0088133Y0027497D01*
X0088256Y0027595D01*
X0088382Y0027691D01*
X0088510Y0027783D01*
X0088640Y0027872D01*
X0088772Y0027958D01*
X0088907Y0028040D01*
X0089044Y0028119D01*
X0089182Y0028194D01*
X0089322Y0028266D01*
X0089465Y0028334D01*
X0089608Y0028399D01*
X0089754Y0028460D01*
X0089901Y0028517D01*
X0090049Y0028571D01*
X0090199Y0028621D01*
X0090349Y0028667D01*
X0090501Y0028709D01*
X0090654Y0028748D01*
X0090808Y0028782D01*
X0090963Y0028813D01*
X0091118Y0028839D01*
X0091274Y0028862D01*
X0091431Y0028881D01*
X0091588Y0028896D01*
X0091745Y0028907D01*
X0091903Y0028914D01*
X0092061Y0028917D01*
X0092218Y0028916D01*
X0092376Y0028911D01*
X0092533Y0028902D01*
X0092691Y0028889D01*
X0092847Y0028872D01*
X0093004Y0028851D01*
X0093159Y0028827D01*
X0093314Y0028798D01*
X0093469Y0028765D01*
X0093622Y0028729D01*
X0093775Y0028688D01*
X0093926Y0028644D01*
X0094076Y0028596D01*
X0094225Y0028545D01*
X0094373Y0028489D01*
X0094519Y0028430D01*
X0094664Y0028367D01*
X0094807Y0028300D01*
X0094948Y0028230D01*
X0095087Y0028157D01*
X0095225Y0028080D01*
X0095361Y0027999D01*
X0095494Y0027915D01*
X0095625Y0027828D01*
X0095754Y0027737D01*
X0095881Y0027643D01*
X0096006Y0027546D01*
X0096127Y0027446D01*
X0096247Y0027343D01*
X0096363Y0027237D01*
X0096477Y0027128D01*
X0096589Y0027016D01*
X0096697Y0026902D01*
X0096802Y0026784D01*
X0096905Y0026664D01*
X0097004Y0026542D01*
X0097100Y0026417D01*
X0097193Y0026289D01*
X0097283Y0026160D01*
X0097369Y0026028D01*
X0097453Y0025894D01*
X0097532Y0025758D01*
X0097609Y0025620D01*
X0097681Y0025480D01*
X0097750Y0025338D01*
X0097816Y0025195D01*
X0097878Y0025050D01*
X0097936Y0024903D01*
X0097991Y0024755D01*
X0098042Y0024606D01*
X0098089Y0024455D01*
X0098132Y0024304D01*
X0098171Y0024151D01*
X0098207Y0023997D01*
X0098238Y0023843D01*
X0098266Y0023688D01*
X0098290Y0023532D01*
X0098310Y0023375D01*
X0098326Y0023218D01*
X0098338Y0023061D01*
X0098346Y0022904D01*
X0098350Y0022746D01*
X0098350Y0022588D01*
X0098346Y0022430D01*
X0098338Y0022273D01*
X0098326Y0022116D01*
X0098310Y0021959D01*
X0098290Y0021802D01*
X0098266Y0021646D01*
X0098238Y0021491D01*
X0098207Y0021337D01*
X0098171Y0021183D01*
X0098132Y0021030D01*
X0098089Y0020879D01*
X0098042Y0020728D01*
X0097991Y0020579D01*
X0097936Y0020431D01*
X0097878Y0020284D01*
X0097816Y0020139D01*
X0097750Y0019996D01*
X0097681Y0019854D01*
X0097609Y0019714D01*
X0097532Y0019576D01*
X0097453Y0019440D01*
X0097369Y0019306D01*
X0097283Y0019174D01*
X0097193Y0019045D01*
X0097100Y0018917D01*
X0097004Y0018792D01*
X0096905Y0018670D01*
X0096802Y0018550D01*
X0096697Y0018432D01*
X0096589Y0018318D01*
X0096477Y0018206D01*
X0096363Y0018097D01*
X0096247Y0017991D01*
X0096127Y0017888D01*
X0096006Y0017788D01*
X0095881Y0017691D01*
X0095754Y0017597D01*
X0095625Y0017506D01*
X0095494Y0017419D01*
X0095361Y0017335D01*
X0095225Y0017254D01*
X0095087Y0017177D01*
X0094948Y0017104D01*
X0094807Y0017034D01*
X0094664Y0016967D01*
X0094519Y0016904D01*
X0094373Y0016845D01*
X0094225Y0016789D01*
X0094076Y0016738D01*
X0093926Y0016690D01*
X0093775Y0016646D01*
X0093622Y0016605D01*
X0093469Y0016569D01*
X0093314Y0016536D01*
X0093159Y0016507D01*
X0093004Y0016483D01*
X0092847Y0016462D01*
X0092691Y0016445D01*
X0092533Y0016432D01*
X0092376Y0016423D01*
X0092218Y0016418D01*
X0092061Y0016417D01*
X0091903Y0016420D01*
X0091745Y0016427D01*
X0091588Y0016438D01*
X0091431Y0016453D01*
X0091274Y0016472D01*
X0091118Y0016495D01*
X0090963Y0016521D01*
X0090808Y0016552D01*
X0090654Y0016586D01*
X0090501Y0016625D01*
X0090349Y0016667D01*
X0090199Y0016713D01*
X0090049Y0016763D01*
X0089901Y0016817D01*
X0089754Y0016874D01*
X0089608Y0016935D01*
X0089465Y0017000D01*
X0089322Y0017068D01*
X0089182Y0017140D01*
X0089044Y0017215D01*
X0088907Y0017294D01*
X0088772Y0017376D01*
X0088640Y0017462D01*
X0088510Y0017551D01*
X0088382Y0017643D01*
X0088256Y0017739D01*
X0088133Y0017837D01*
X0088013Y0017939D01*
X0087895Y0018044D01*
X0087779Y0018151D01*
X0087667Y0018262D01*
X0087557Y0018375D01*
X0087450Y0018491D01*
X0087346Y0018609D01*
X0087245Y0018731D01*
X0087148Y0018854D01*
X0087053Y0018981D01*
X0086962Y0019109D01*
X0086873Y0019240D01*
X0086789Y0019373D01*
X0086707Y0019508D01*
X0086629Y0019645D01*
X0086555Y0019784D01*
X0086484Y0019925D01*
X0086416Y0020067D01*
X0086353Y0020212D01*
X0086292Y0020357D01*
X0086236Y0020505D01*
X0086183Y0020653D01*
X0086134Y0020803D01*
X0086089Y0020954D01*
X0086048Y0021107D01*
X0086010Y0021260D01*
X0085977Y0021414D01*
X0085947Y0021569D01*
X0085921Y0021724D01*
X0085900Y0021881D01*
X0085882Y0022037D01*
X0085868Y0022194D01*
X0085858Y0022352D01*
X0085852Y0022509D01*
X0085850Y0022667D01*
X0345850Y0035167D02*
X0345852Y0035325D01*
X0345858Y0035482D01*
X0345868Y0035640D01*
X0345882Y0035797D01*
X0345900Y0035953D01*
X0345921Y0036110D01*
X0345947Y0036265D01*
X0345977Y0036420D01*
X0346010Y0036574D01*
X0346048Y0036727D01*
X0346089Y0036880D01*
X0346134Y0037031D01*
X0346183Y0037181D01*
X0346236Y0037329D01*
X0346292Y0037477D01*
X0346353Y0037622D01*
X0346416Y0037767D01*
X0346484Y0037909D01*
X0346555Y0038050D01*
X0346629Y0038189D01*
X0346707Y0038326D01*
X0346789Y0038461D01*
X0346873Y0038594D01*
X0346962Y0038725D01*
X0347053Y0038853D01*
X0347148Y0038980D01*
X0347245Y0039103D01*
X0347346Y0039225D01*
X0347450Y0039343D01*
X0347557Y0039459D01*
X0347667Y0039572D01*
X0347779Y0039683D01*
X0347895Y0039790D01*
X0348013Y0039895D01*
X0348133Y0039997D01*
X0348256Y0040095D01*
X0348382Y0040191D01*
X0348510Y0040283D01*
X0348640Y0040372D01*
X0348772Y0040458D01*
X0348907Y0040540D01*
X0349044Y0040619D01*
X0349182Y0040694D01*
X0349322Y0040766D01*
X0349465Y0040834D01*
X0349608Y0040899D01*
X0349754Y0040960D01*
X0349901Y0041017D01*
X0350049Y0041071D01*
X0350199Y0041121D01*
X0350349Y0041167D01*
X0350501Y0041209D01*
X0350654Y0041248D01*
X0350808Y0041282D01*
X0350963Y0041313D01*
X0351118Y0041339D01*
X0351274Y0041362D01*
X0351431Y0041381D01*
X0351588Y0041396D01*
X0351745Y0041407D01*
X0351903Y0041414D01*
X0352061Y0041417D01*
X0352218Y0041416D01*
X0352376Y0041411D01*
X0352533Y0041402D01*
X0352691Y0041389D01*
X0352847Y0041372D01*
X0353004Y0041351D01*
X0353159Y0041327D01*
X0353314Y0041298D01*
X0353469Y0041265D01*
X0353622Y0041229D01*
X0353775Y0041188D01*
X0353926Y0041144D01*
X0354076Y0041096D01*
X0354225Y0041045D01*
X0354373Y0040989D01*
X0354519Y0040930D01*
X0354664Y0040867D01*
X0354807Y0040800D01*
X0354948Y0040730D01*
X0355087Y0040657D01*
X0355225Y0040580D01*
X0355361Y0040499D01*
X0355494Y0040415D01*
X0355625Y0040328D01*
X0355754Y0040237D01*
X0355881Y0040143D01*
X0356006Y0040046D01*
X0356127Y0039946D01*
X0356247Y0039843D01*
X0356363Y0039737D01*
X0356477Y0039628D01*
X0356589Y0039516D01*
X0356697Y0039402D01*
X0356802Y0039284D01*
X0356905Y0039164D01*
X0357004Y0039042D01*
X0357100Y0038917D01*
X0357193Y0038789D01*
X0357283Y0038660D01*
X0357369Y0038528D01*
X0357453Y0038394D01*
X0357532Y0038258D01*
X0357609Y0038120D01*
X0357681Y0037980D01*
X0357750Y0037838D01*
X0357816Y0037695D01*
X0357878Y0037550D01*
X0357936Y0037403D01*
X0357991Y0037255D01*
X0358042Y0037106D01*
X0358089Y0036955D01*
X0358132Y0036804D01*
X0358171Y0036651D01*
X0358207Y0036497D01*
X0358238Y0036343D01*
X0358266Y0036188D01*
X0358290Y0036032D01*
X0358310Y0035875D01*
X0358326Y0035718D01*
X0358338Y0035561D01*
X0358346Y0035404D01*
X0358350Y0035246D01*
X0358350Y0035088D01*
X0358346Y0034930D01*
X0358338Y0034773D01*
X0358326Y0034616D01*
X0358310Y0034459D01*
X0358290Y0034302D01*
X0358266Y0034146D01*
X0358238Y0033991D01*
X0358207Y0033837D01*
X0358171Y0033683D01*
X0358132Y0033530D01*
X0358089Y0033379D01*
X0358042Y0033228D01*
X0357991Y0033079D01*
X0357936Y0032931D01*
X0357878Y0032784D01*
X0357816Y0032639D01*
X0357750Y0032496D01*
X0357681Y0032354D01*
X0357609Y0032214D01*
X0357532Y0032076D01*
X0357453Y0031940D01*
X0357369Y0031806D01*
X0357283Y0031674D01*
X0357193Y0031545D01*
X0357100Y0031417D01*
X0357004Y0031292D01*
X0356905Y0031170D01*
X0356802Y0031050D01*
X0356697Y0030932D01*
X0356589Y0030818D01*
X0356477Y0030706D01*
X0356363Y0030597D01*
X0356247Y0030491D01*
X0356127Y0030388D01*
X0356006Y0030288D01*
X0355881Y0030191D01*
X0355754Y0030097D01*
X0355625Y0030006D01*
X0355494Y0029919D01*
X0355361Y0029835D01*
X0355225Y0029754D01*
X0355087Y0029677D01*
X0354948Y0029604D01*
X0354807Y0029534D01*
X0354664Y0029467D01*
X0354519Y0029404D01*
X0354373Y0029345D01*
X0354225Y0029289D01*
X0354076Y0029238D01*
X0353926Y0029190D01*
X0353775Y0029146D01*
X0353622Y0029105D01*
X0353469Y0029069D01*
X0353314Y0029036D01*
X0353159Y0029007D01*
X0353004Y0028983D01*
X0352847Y0028962D01*
X0352691Y0028945D01*
X0352533Y0028932D01*
X0352376Y0028923D01*
X0352218Y0028918D01*
X0352061Y0028917D01*
X0351903Y0028920D01*
X0351745Y0028927D01*
X0351588Y0028938D01*
X0351431Y0028953D01*
X0351274Y0028972D01*
X0351118Y0028995D01*
X0350963Y0029021D01*
X0350808Y0029052D01*
X0350654Y0029086D01*
X0350501Y0029125D01*
X0350349Y0029167D01*
X0350199Y0029213D01*
X0350049Y0029263D01*
X0349901Y0029317D01*
X0349754Y0029374D01*
X0349608Y0029435D01*
X0349465Y0029500D01*
X0349322Y0029568D01*
X0349182Y0029640D01*
X0349044Y0029715D01*
X0348907Y0029794D01*
X0348772Y0029876D01*
X0348640Y0029962D01*
X0348510Y0030051D01*
X0348382Y0030143D01*
X0348256Y0030239D01*
X0348133Y0030337D01*
X0348013Y0030439D01*
X0347895Y0030544D01*
X0347779Y0030651D01*
X0347667Y0030762D01*
X0347557Y0030875D01*
X0347450Y0030991D01*
X0347346Y0031109D01*
X0347245Y0031231D01*
X0347148Y0031354D01*
X0347053Y0031481D01*
X0346962Y0031609D01*
X0346873Y0031740D01*
X0346789Y0031873D01*
X0346707Y0032008D01*
X0346629Y0032145D01*
X0346555Y0032284D01*
X0346484Y0032425D01*
X0346416Y0032567D01*
X0346353Y0032712D01*
X0346292Y0032857D01*
X0346236Y0033005D01*
X0346183Y0033153D01*
X0346134Y0033303D01*
X0346089Y0033454D01*
X0346048Y0033607D01*
X0346010Y0033760D01*
X0345977Y0033914D01*
X0345947Y0034069D01*
X0345921Y0034224D01*
X0345900Y0034381D01*
X0345882Y0034537D01*
X0345868Y0034694D01*
X0345858Y0034852D01*
X0345852Y0035009D01*
X0345850Y0035167D01*
D21*
X0062908Y0216899D03*
X0062908Y0222299D03*
D22*
X0119732Y0114659D03*
M02*
