G75*
%MOIN*%
%OFA0B0*%
%FSLAX24Y24*%
%IPPOS*%
%LPD*%
%AMOC8*
5,1,8,0,0,1.08239X$1,22.5*
%
%ADD10R,0.0512X0.0591*%
%ADD11R,0.0394X0.0433*%
%ADD12R,0.0433X0.0394*%
%ADD13R,0.0440X0.0710*%
%ADD14R,0.0710X0.0440*%
%ADD15R,0.0591X0.0512*%
%ADD16R,0.0240X0.0220*%
%ADD17R,0.0220X0.0240*%
%ADD18R,0.0690X0.0280*%
%ADD19R,0.0120X0.0200*%
%ADD20R,0.0200X0.0120*%
%ADD21R,0.0670X0.0670*%
%ADD22C,0.0060*%
%ADD23R,0.0260X0.0380*%
%ADD24R,0.0440X0.0570*%
%ADD25R,0.0580X0.0140*%
%ADD26R,0.0120X0.0320*%
%ADD27R,0.2200X0.2200*%
%ADD28R,0.0276X0.0354*%
%ADD29R,0.0630X0.0710*%
%ADD30R,0.1260X0.0472*%
%ADD31R,0.0709X0.0630*%
%ADD32R,0.0787X0.0315*%
%ADD33R,0.0106X0.0276*%
%ADD34R,0.1004X0.1063*%
%ADD35R,0.0709X0.0945*%
%ADD36R,0.0315X0.0315*%
D10*
X025646Y015285D03*
X026394Y015285D03*
X022724Y015700D03*
X021976Y015700D03*
D11*
X013995Y009910D03*
X013325Y009910D03*
X020945Y008870D03*
X021615Y008870D03*
X022285Y008780D03*
X022955Y008780D03*
X022270Y008105D03*
X022270Y007435D03*
X033815Y017650D03*
X034485Y017650D03*
X034485Y018450D03*
X033815Y018450D03*
D12*
X017570Y008185D03*
X017570Y007515D03*
D13*
X014126Y007304D03*
X012946Y007304D03*
X013240Y003510D03*
X012060Y003510D03*
X028500Y009330D03*
X029680Y009330D03*
X031563Y007736D03*
X032743Y007736D03*
X007711Y021451D03*
X006531Y021451D03*
D14*
X008691Y018281D03*
X009756Y018273D03*
X010871Y018283D03*
X010871Y017103D03*
X009756Y017093D03*
X008691Y017101D03*
X013050Y017610D03*
X013050Y018790D03*
X013050Y014640D03*
X013050Y013460D03*
X013050Y012440D03*
X013050Y011260D03*
X006100Y007778D03*
X005225Y007778D03*
X004350Y007778D03*
X004350Y006598D03*
X005225Y006598D03*
X006100Y006598D03*
X009131Y006465D03*
X010006Y006465D03*
X010881Y006465D03*
X010881Y005285D03*
X010006Y005285D03*
X009131Y005285D03*
X013773Y004731D03*
X013773Y005911D03*
X026970Y007160D03*
X028030Y007170D03*
X028030Y008350D03*
X026970Y008340D03*
X026450Y018160D03*
X025450Y018210D03*
X025450Y019390D03*
X026450Y019340D03*
D15*
X014010Y009094D03*
X014010Y008346D03*
D16*
X008301Y006384D03*
X008301Y006054D03*
X007788Y018243D03*
X007788Y018573D03*
D17*
X007921Y007875D03*
X007591Y007875D03*
D18*
X007806Y005250D03*
X006956Y005250D03*
X006601Y017180D03*
X007451Y017180D03*
D19*
X007213Y018244D03*
X007016Y018244D03*
X006819Y018244D03*
X006622Y018244D03*
X006622Y019228D03*
X006819Y019228D03*
X007016Y019228D03*
X007213Y019228D03*
X007158Y007367D03*
X007355Y007367D03*
X007552Y007367D03*
X006961Y007367D03*
X006961Y006383D03*
X007158Y006383D03*
X007355Y006383D03*
X007552Y006383D03*
D20*
X007748Y006580D03*
X007748Y006777D03*
X007748Y006973D03*
X007748Y007170D03*
X006764Y007170D03*
X006764Y006973D03*
X006764Y006777D03*
X006764Y006580D03*
X006425Y018441D03*
X006425Y018638D03*
X006425Y018835D03*
X006425Y019032D03*
X007410Y019032D03*
X007410Y018835D03*
X007410Y018638D03*
X007410Y018441D03*
D21*
X006918Y018736D03*
X007256Y006875D03*
D22*
X006926Y007205D02*
X006926Y006545D01*
X007586Y006545D01*
X007586Y007205D01*
X006926Y007205D01*
X007248Y018406D02*
X006588Y018406D01*
X006588Y019066D01*
X007248Y019066D01*
X007248Y018406D01*
D23*
X007408Y020381D03*
X006858Y020381D03*
X025875Y004650D03*
X026425Y004650D03*
X026925Y004650D03*
X027375Y004650D03*
X027925Y004650D03*
X028425Y004650D03*
X029425Y004700D03*
X029925Y004700D03*
X030475Y004700D03*
D24*
X008144Y019778D03*
X007434Y019778D03*
D25*
X014520Y014080D03*
X014520Y013820D03*
X014520Y013570D03*
X014520Y013310D03*
X014520Y013050D03*
X014520Y012800D03*
X014520Y012540D03*
X014520Y012290D03*
X014520Y012030D03*
X014520Y011770D03*
X014520Y011520D03*
X014520Y011260D03*
X016820Y011260D03*
X016820Y011520D03*
X016820Y011770D03*
X016820Y012030D03*
X016820Y012290D03*
X016820Y012540D03*
X016820Y012800D03*
X016820Y013050D03*
X016820Y013310D03*
X016820Y013570D03*
X016820Y013820D03*
X016820Y014080D03*
X028700Y013960D03*
X028700Y013700D03*
X028700Y013450D03*
X028700Y013190D03*
X028700Y012930D03*
X028700Y012680D03*
X028700Y012420D03*
X028700Y012170D03*
X028700Y011910D03*
X028700Y011650D03*
X028700Y011400D03*
X028700Y011140D03*
X031000Y011140D03*
X031000Y011400D03*
X031000Y011650D03*
X031000Y011910D03*
X031000Y012170D03*
X031000Y012420D03*
X031000Y012680D03*
X031000Y012930D03*
X031000Y013190D03*
X031000Y013450D03*
X031000Y013700D03*
X031000Y013960D03*
D26*
G36*
X023611Y012992D02*
X023696Y012907D01*
X023471Y012682D01*
X023386Y012767D01*
X023611Y012992D01*
G37*
G36*
X023476Y013126D02*
X023561Y013041D01*
X023336Y012816D01*
X023251Y012901D01*
X023476Y013126D01*
G37*
G36*
X023335Y013268D02*
X023420Y013183D01*
X023195Y012958D01*
X023110Y013043D01*
X023335Y013268D01*
G37*
G36*
X023193Y013409D02*
X023278Y013324D01*
X023053Y013099D01*
X022968Y013184D01*
X023193Y013409D01*
G37*
G36*
X023059Y013543D02*
X023144Y013458D01*
X022919Y013233D01*
X022834Y013318D01*
X023059Y013543D01*
G37*
G36*
X022918Y013685D02*
X023003Y013600D01*
X022778Y013375D01*
X022693Y013460D01*
X022918Y013685D01*
G37*
G36*
X022776Y013826D02*
X022861Y013741D01*
X022636Y013516D01*
X022551Y013601D01*
X022776Y013826D01*
G37*
G36*
X022635Y013968D02*
X022720Y013883D01*
X022495Y013658D01*
X022410Y013743D01*
X022635Y013968D01*
G37*
G36*
X022500Y014102D02*
X022585Y014017D01*
X022360Y013792D01*
X022275Y013877D01*
X022500Y014102D01*
G37*
G36*
X022359Y014243D02*
X022444Y014158D01*
X022219Y013933D01*
X022134Y014018D01*
X022359Y014243D01*
G37*
G36*
X022218Y014385D02*
X022303Y014300D01*
X022078Y014075D01*
X021993Y014160D01*
X022218Y014385D01*
G37*
G36*
X022083Y014519D02*
X022168Y014434D01*
X021943Y014209D01*
X021858Y014294D01*
X022083Y014519D01*
G37*
G36*
X021448Y014434D02*
X021533Y014519D01*
X021758Y014294D01*
X021673Y014209D01*
X021448Y014434D01*
G37*
G36*
X021314Y014300D02*
X021399Y014385D01*
X021624Y014160D01*
X021539Y014075D01*
X021314Y014300D01*
G37*
G36*
X021172Y014158D02*
X021257Y014243D01*
X021482Y014018D01*
X021397Y013933D01*
X021172Y014158D01*
G37*
G36*
X021031Y014017D02*
X021116Y014102D01*
X021341Y013877D01*
X021256Y013792D01*
X021031Y014017D01*
G37*
G36*
X020897Y013883D02*
X020982Y013968D01*
X021207Y013743D01*
X021122Y013658D01*
X020897Y013883D01*
G37*
G36*
X020755Y013741D02*
X020840Y013826D01*
X021065Y013601D01*
X020980Y013516D01*
X020755Y013741D01*
G37*
G36*
X020614Y013600D02*
X020699Y013685D01*
X020924Y013460D01*
X020839Y013375D01*
X020614Y013600D01*
G37*
G36*
X020472Y013458D02*
X020557Y013543D01*
X020782Y013318D01*
X020697Y013233D01*
X020472Y013458D01*
G37*
G36*
X020338Y013324D02*
X020423Y013409D01*
X020648Y013184D01*
X020563Y013099D01*
X020338Y013324D01*
G37*
G36*
X020197Y013183D02*
X020282Y013268D01*
X020507Y013043D01*
X020422Y012958D01*
X020197Y013183D01*
G37*
G36*
X020055Y013041D02*
X020140Y013126D01*
X020365Y012901D01*
X020280Y012816D01*
X020055Y013041D01*
G37*
G36*
X019921Y012907D02*
X020006Y012992D01*
X020231Y012767D01*
X020146Y012682D01*
X019921Y012907D01*
G37*
G36*
X020146Y012582D02*
X020231Y012497D01*
X020006Y012272D01*
X019921Y012357D01*
X020146Y012582D01*
G37*
G36*
X020280Y012447D02*
X020365Y012362D01*
X020140Y012137D01*
X020055Y012222D01*
X020280Y012447D01*
G37*
G36*
X020422Y012306D02*
X020507Y012221D01*
X020282Y011996D01*
X020197Y012081D01*
X020422Y012306D01*
G37*
G36*
X020563Y012165D02*
X020648Y012080D01*
X020423Y011855D01*
X020338Y011940D01*
X020563Y012165D01*
G37*
G36*
X020697Y012030D02*
X020782Y011945D01*
X020557Y011720D01*
X020472Y011805D01*
X020697Y012030D01*
G37*
G36*
X020839Y011889D02*
X020924Y011804D01*
X020699Y011579D01*
X020614Y011664D01*
X020839Y011889D01*
G37*
G36*
X020980Y011747D02*
X021065Y011662D01*
X020840Y011437D01*
X020755Y011522D01*
X020980Y011747D01*
G37*
G36*
X021122Y011606D02*
X021207Y011521D01*
X020982Y011296D01*
X020897Y011381D01*
X021122Y011606D01*
G37*
G36*
X021256Y011472D02*
X021341Y011387D01*
X021116Y011162D01*
X021031Y011247D01*
X021256Y011472D01*
G37*
G36*
X021397Y011330D02*
X021482Y011245D01*
X021257Y011020D01*
X021172Y011105D01*
X021397Y011330D01*
G37*
G36*
X021539Y011189D02*
X021624Y011104D01*
X021399Y010879D01*
X021314Y010964D01*
X021539Y011189D01*
G37*
G36*
X021673Y011054D02*
X021758Y010969D01*
X021533Y010744D01*
X021448Y010829D01*
X021673Y011054D01*
G37*
G36*
X021858Y010969D02*
X021943Y011054D01*
X022168Y010829D01*
X022083Y010744D01*
X021858Y010969D01*
G37*
G36*
X021993Y011104D02*
X022078Y011189D01*
X022303Y010964D01*
X022218Y010879D01*
X021993Y011104D01*
G37*
G36*
X022134Y011245D02*
X022219Y011330D01*
X022444Y011105D01*
X022359Y011020D01*
X022134Y011245D01*
G37*
G36*
X022275Y011387D02*
X022360Y011472D01*
X022585Y011247D01*
X022500Y011162D01*
X022275Y011387D01*
G37*
G36*
X022410Y011521D02*
X022495Y011606D01*
X022720Y011381D01*
X022635Y011296D01*
X022410Y011521D01*
G37*
G36*
X022551Y011662D02*
X022636Y011747D01*
X022861Y011522D01*
X022776Y011437D01*
X022551Y011662D01*
G37*
G36*
X022693Y011804D02*
X022778Y011889D01*
X023003Y011664D01*
X022918Y011579D01*
X022693Y011804D01*
G37*
G36*
X022834Y011945D02*
X022919Y012030D01*
X023144Y011805D01*
X023059Y011720D01*
X022834Y011945D01*
G37*
G36*
X022968Y012080D02*
X023053Y012165D01*
X023278Y011940D01*
X023193Y011855D01*
X022968Y012080D01*
G37*
G36*
X023110Y012221D02*
X023195Y012306D01*
X023420Y012081D01*
X023335Y011996D01*
X023110Y012221D01*
G37*
G36*
X023251Y012362D02*
X023336Y012447D01*
X023561Y012222D01*
X023476Y012137D01*
X023251Y012362D01*
G37*
G36*
X023386Y012497D02*
X023471Y012582D01*
X023696Y012357D01*
X023611Y012272D01*
X023386Y012497D01*
G37*
D27*
G36*
X021808Y011077D02*
X020253Y012632D01*
X021808Y014187D01*
X023363Y012632D01*
X021808Y011077D01*
G37*
D28*
X026244Y005350D03*
X026756Y005350D03*
X027444Y005350D03*
X027956Y005350D03*
D29*
X011260Y003500D03*
X010140Y003500D03*
D30*
X030011Y017113D03*
X030011Y018687D03*
X032689Y018687D03*
X032689Y017113D03*
D31*
X028500Y017251D03*
X028500Y016149D03*
D32*
X033150Y004650D03*
D33*
X033052Y005024D03*
X033248Y005024D03*
X033445Y005024D03*
X032855Y005024D03*
X032855Y004276D03*
X033052Y004276D03*
X033248Y004276D03*
X033445Y004276D03*
D34*
X007748Y002250D03*
X005252Y002250D03*
D35*
X006803Y003900D03*
X008397Y003900D03*
D36*
X004150Y002655D03*
X004150Y003245D03*
X035855Y017750D03*
X036445Y017750D03*
X036545Y018450D03*
X035955Y018450D03*
M02*
