G75*
%MOIN*%
%OFA0B0*%
%FSLAX25Y25*%
%IPPOS*%
%LPD*%
%AMOC8*
5,1,8,0,0,1.08239X$1,22.5*
%
%ADD10C,0.01000*%
%ADD11C,0.00400*%
%ADD12C,0.00000*%
%ADD13C,0.00800*%
%ADD14C,0.00600*%
%ADD15C,0.00500*%
D10*
X0035100Y0035167D02*
X0035100Y0092167D01*
X0114600Y0092167D01*
X0114600Y0162667D01*
X0057100Y0162667D01*
X0057100Y0225167D01*
X0325100Y0225167D01*
X0378200Y0175967D02*
X0377900Y0057167D01*
X0377816Y0055927D01*
X0377702Y0054689D01*
X0377559Y0053455D01*
X0377385Y0052224D01*
X0377182Y0050998D01*
X0376949Y0049777D01*
X0376687Y0048563D01*
X0376396Y0047354D01*
X0376075Y0046154D01*
X0375726Y0044961D01*
X0375348Y0043777D01*
X0374941Y0042603D01*
X0374506Y0041438D01*
X0374043Y0040285D01*
X0373552Y0039143D01*
X0373034Y0038014D01*
X0372489Y0036897D01*
X0371917Y0035793D01*
X0371318Y0034704D01*
X0370694Y0033630D01*
X0370043Y0032571D01*
X0369367Y0031528D01*
X0368666Y0030502D01*
X0367941Y0029493D01*
X0367191Y0028501D01*
X0366418Y0027529D01*
X0365621Y0026575D01*
X0364802Y0025640D01*
X0363960Y0024726D01*
X0363096Y0023832D01*
X0362211Y0022960D01*
X0361305Y0022109D01*
X0360379Y0021280D01*
X0359433Y0020474D01*
X0358468Y0019691D01*
X0357484Y0018932D01*
X0356483Y0018196D01*
X0355463Y0017485D01*
X0354427Y0016799D01*
X0353375Y0016138D01*
X0352306Y0015502D01*
X0351223Y0014893D01*
X0350126Y0014310D01*
X0349014Y0013754D01*
X0347890Y0013224D01*
X0346753Y0012722D01*
X0345604Y0012248D01*
X0344445Y0011802D01*
X0343274Y0011383D01*
X0342094Y0010993D01*
X0340905Y0010632D01*
X0339708Y0010300D01*
X0338502Y0009996D01*
X0337290Y0009722D01*
X0336072Y0009477D01*
X0334848Y0009262D01*
X0333619Y0009076D01*
X0332386Y0008920D01*
X0331149Y0008794D01*
X0329910Y0008698D01*
X0328669Y0008632D01*
X0327427Y0008595D01*
X0326184Y0008589D01*
X0324942Y0008613D01*
X0323700Y0008667D01*
X0060700Y0008667D01*
X0060071Y0008685D01*
X0059442Y0008719D01*
X0058814Y0008768D01*
X0058188Y0008832D01*
X0057563Y0008911D01*
X0056941Y0009005D01*
X0056321Y0009114D01*
X0055703Y0009239D01*
X0055089Y0009378D01*
X0054479Y0009532D01*
X0053872Y0009700D01*
X0053270Y0009883D01*
X0052672Y0010081D01*
X0052079Y0010293D01*
X0051492Y0010519D01*
X0050910Y0010760D01*
X0050334Y0011014D01*
X0049764Y0011282D01*
X0049201Y0011564D01*
X0048645Y0011860D01*
X0048097Y0012169D01*
X0047556Y0012491D01*
X0047023Y0012826D01*
X0046498Y0013173D01*
X0045982Y0013534D01*
X0045474Y0013907D01*
X0044976Y0014291D01*
X0044487Y0014688D01*
X0044008Y0015097D01*
X0043539Y0015517D01*
X0043080Y0015948D01*
X0042632Y0016390D01*
X0042194Y0016843D01*
X0041768Y0017306D01*
X0041353Y0017779D01*
X0040949Y0018263D01*
X0040558Y0018756D01*
X0040178Y0019258D01*
X0039811Y0019769D01*
X0039456Y0020289D01*
X0039113Y0020818D01*
X0038784Y0021354D01*
X0038467Y0021899D01*
X0038164Y0022450D01*
X0037875Y0023009D01*
X0037599Y0023575D01*
X0037336Y0024148D01*
X0037088Y0024726D01*
X0036853Y0025310D01*
X0036633Y0025900D01*
X0036427Y0026495D01*
X0036236Y0027095D01*
X0036059Y0027699D01*
X0035897Y0028308D01*
X0035749Y0028920D01*
X0035616Y0029535D01*
X0035499Y0030154D01*
X0035396Y0030775D01*
X0035308Y0031398D01*
X0035236Y0032024D01*
X0035178Y0032651D01*
X0035136Y0033279D01*
X0035109Y0033908D01*
X0035097Y0034537D01*
X0035100Y0035167D01*
X0325100Y0225167D02*
X0326337Y0225199D01*
X0327574Y0225201D01*
X0328810Y0225174D01*
X0330046Y0225116D01*
X0331280Y0225029D01*
X0332511Y0224912D01*
X0333739Y0224765D01*
X0334964Y0224589D01*
X0336183Y0224383D01*
X0337398Y0224147D01*
X0338606Y0223883D01*
X0339808Y0223589D01*
X0341002Y0223266D01*
X0342188Y0222914D01*
X0343365Y0222534D01*
X0344532Y0222126D01*
X0345690Y0221690D01*
X0346836Y0221225D01*
X0347971Y0220733D01*
X0349094Y0220214D01*
X0350204Y0219668D01*
X0351300Y0219095D01*
X0352382Y0218496D01*
X0353450Y0217871D01*
X0354502Y0217220D01*
X0355538Y0216544D01*
X0356557Y0215843D01*
X0357559Y0215118D01*
X0358543Y0214369D01*
X0359509Y0213596D01*
X0360456Y0212800D01*
X0361383Y0211982D01*
X0362291Y0211141D01*
X0363177Y0210279D01*
X0364043Y0209395D01*
X0364887Y0208491D01*
X0365709Y0207567D01*
X0366509Y0206623D01*
X0367285Y0205660D01*
X0368038Y0204678D01*
X0368767Y0203679D01*
X0369471Y0202662D01*
X0370151Y0201629D01*
X0370806Y0200579D01*
X0371435Y0199514D01*
X0372038Y0198434D01*
X0372615Y0197340D01*
X0373165Y0196232D01*
X0373688Y0195111D01*
X0374184Y0193978D01*
X0374653Y0192833D01*
X0375094Y0191678D01*
X0375507Y0190512D01*
X0375891Y0189336D01*
X0376247Y0188151D01*
X0376574Y0186958D01*
X0376872Y0185758D01*
X0377141Y0184551D01*
X0377381Y0183337D01*
X0377592Y0182118D01*
X0377773Y0180895D01*
X0377924Y0179667D01*
X0378046Y0178436D01*
X0378138Y0177202D01*
X0378200Y0175967D01*
D11*
X0271879Y0150950D02*
X0271879Y0149865D01*
X0269709Y0147695D01*
X0268624Y0147695D01*
X0267539Y0148780D01*
X0267539Y0149865D01*
X0265911Y0150408D02*
X0263741Y0152578D01*
X0263460Y0151182D02*
X0264546Y0151182D01*
X0265631Y0150097D01*
X0265631Y0149011D01*
X0263460Y0146841D01*
X0262375Y0146841D01*
X0261290Y0147926D01*
X0261290Y0149011D01*
X0261378Y0147952D02*
X0258123Y0144696D01*
X0259208Y0143611D02*
X0257037Y0145782D01*
X0257580Y0148495D02*
X0255410Y0150665D01*
X0257492Y0151724D02*
X0259662Y0149554D01*
X0258577Y0150639D02*
X0261833Y0153895D01*
X0261833Y0151724D01*
X0262113Y0154206D02*
X0263198Y0154206D01*
X0262113Y0154206D02*
X0261028Y0155291D01*
X0261028Y0156376D01*
X0262113Y0157461D01*
X0263198Y0157461D01*
X0263741Y0156918D01*
X0264283Y0155291D01*
X0265911Y0156918D01*
X0263741Y0159089D01*
X0259120Y0156607D02*
X0259120Y0155522D01*
X0259120Y0156607D02*
X0258035Y0157693D01*
X0256950Y0157693D01*
X0256407Y0157150D01*
X0256407Y0152809D01*
X0254237Y0154980D01*
X0257580Y0151750D02*
X0257580Y0148495D01*
X0254325Y0148495D02*
X0257580Y0151750D01*
X0261378Y0147952D02*
X0261378Y0145782D01*
X0263006Y0145239D02*
X0264091Y0145239D01*
X0265176Y0144154D01*
X0265176Y0143069D01*
X0263006Y0140898D01*
X0261921Y0140898D01*
X0260836Y0141984D01*
X0260836Y0143069D01*
X0264826Y0151493D02*
X0268081Y0154748D01*
X0268081Y0152578D01*
X0269709Y0152035D02*
X0270794Y0152035D01*
X0271879Y0150950D01*
X0196905Y0141522D02*
X0196905Y0137685D01*
X0196137Y0136918D01*
X0194603Y0136918D01*
X0193835Y0137685D01*
X0193835Y0141522D01*
X0192301Y0140754D02*
X0191533Y0141522D01*
X0189999Y0141522D01*
X0189232Y0140754D01*
X0189999Y0139220D02*
X0191533Y0139220D01*
X0192301Y0139987D01*
X0192301Y0140754D01*
X0190766Y0142289D02*
X0190766Y0136151D01*
X0189999Y0136918D02*
X0189232Y0137685D01*
X0189232Y0138452D01*
X0189999Y0139220D01*
X0189999Y0136918D02*
X0191533Y0136918D01*
X0192301Y0137685D01*
X0187697Y0136918D02*
X0184628Y0136918D01*
X0186162Y0136918D02*
X0186162Y0141522D01*
X0187697Y0139987D01*
X0183093Y0140754D02*
X0182326Y0141522D01*
X0180791Y0141522D01*
X0180024Y0140754D01*
X0180024Y0139987D01*
X0183093Y0136918D01*
X0180024Y0136918D01*
X0154986Y0130505D02*
X0150382Y0130505D01*
X0154986Y0127436D01*
X0150382Y0127436D01*
X0151149Y0125901D02*
X0150382Y0125134D01*
X0150382Y0123599D01*
X0151149Y0122832D01*
X0154218Y0122832D01*
X0154986Y0123599D01*
X0154986Y0125134D01*
X0154218Y0125901D01*
X0151149Y0125901D01*
X0151149Y0121297D02*
X0150382Y0120530D01*
X0150382Y0118995D01*
X0151149Y0118228D01*
X0154218Y0118228D01*
X0154986Y0118995D01*
X0154986Y0120530D01*
X0154218Y0121297D01*
X0149615Y0116693D02*
X0149615Y0113624D01*
X0151149Y0112089D02*
X0150382Y0111322D01*
X0150382Y0109787D01*
X0151149Y0109020D01*
X0154218Y0109020D01*
X0154986Y0109787D01*
X0154986Y0111322D01*
X0154218Y0112089D01*
X0152684Y0112089D02*
X0152684Y0110555D01*
X0152684Y0112089D02*
X0151149Y0112089D01*
X0151149Y0107486D02*
X0150382Y0106718D01*
X0150382Y0105184D01*
X0151149Y0104416D01*
X0154986Y0104416D01*
X0154218Y0102882D02*
X0153451Y0102882D01*
X0152684Y0102114D01*
X0152684Y0099812D01*
X0154986Y0099812D02*
X0154986Y0102114D01*
X0154218Y0102882D01*
X0152684Y0102114D02*
X0151917Y0102882D01*
X0151149Y0102882D01*
X0150382Y0102114D01*
X0150382Y0099812D01*
X0154986Y0099812D01*
X0154986Y0098278D02*
X0154986Y0095208D01*
X0150382Y0095208D01*
X0150382Y0098278D01*
X0152684Y0096743D02*
X0152684Y0095208D01*
X0154218Y0093674D02*
X0154986Y0092906D01*
X0154986Y0090604D01*
X0150382Y0090604D01*
X0150382Y0092906D01*
X0151149Y0093674D01*
X0154218Y0093674D01*
X0154986Y0107486D02*
X0151149Y0107486D01*
X0083408Y0167267D02*
X0083408Y0171871D01*
X0081106Y0171871D01*
X0080339Y0171103D01*
X0080339Y0169569D01*
X0081106Y0168801D01*
X0083408Y0168801D01*
X0081873Y0168801D02*
X0080339Y0167267D01*
X0078804Y0169569D02*
X0075735Y0169569D01*
X0076502Y0171871D02*
X0078804Y0169569D01*
X0076502Y0167267D02*
X0076502Y0171871D01*
X0086102Y0182267D02*
X0087637Y0182267D01*
X0088404Y0183034D01*
X0088404Y0183801D01*
X0087637Y0184569D01*
X0086102Y0184569D01*
X0085335Y0183801D01*
X0085335Y0183034D01*
X0086102Y0182267D01*
X0086102Y0184569D02*
X0085335Y0185336D01*
X0085335Y0186103D01*
X0086102Y0186871D01*
X0087637Y0186871D01*
X0088404Y0186103D01*
X0088404Y0185336D01*
X0087637Y0184569D01*
X0089939Y0185336D02*
X0089939Y0186103D01*
X0090706Y0186871D01*
X0092241Y0186871D01*
X0093008Y0186103D01*
X0094543Y0186103D02*
X0094543Y0184569D01*
X0095310Y0183801D01*
X0097612Y0183801D01*
X0097612Y0182267D02*
X0097612Y0186871D01*
X0095310Y0186871D01*
X0094543Y0186103D01*
X0096077Y0183801D02*
X0094543Y0182267D01*
X0093008Y0182267D02*
X0089939Y0185336D01*
X0089939Y0182267D02*
X0093008Y0182267D01*
D12*
X0085850Y0212667D02*
X0085852Y0212825D01*
X0085858Y0212982D01*
X0085868Y0213140D01*
X0085882Y0213297D01*
X0085900Y0213453D01*
X0085921Y0213610D01*
X0085947Y0213765D01*
X0085977Y0213920D01*
X0086010Y0214074D01*
X0086048Y0214227D01*
X0086089Y0214380D01*
X0086134Y0214531D01*
X0086183Y0214681D01*
X0086236Y0214829D01*
X0086292Y0214977D01*
X0086353Y0215122D01*
X0086416Y0215267D01*
X0086484Y0215409D01*
X0086555Y0215550D01*
X0086629Y0215689D01*
X0086707Y0215826D01*
X0086789Y0215961D01*
X0086873Y0216094D01*
X0086962Y0216225D01*
X0087053Y0216353D01*
X0087148Y0216480D01*
X0087245Y0216603D01*
X0087346Y0216725D01*
X0087450Y0216843D01*
X0087557Y0216959D01*
X0087667Y0217072D01*
X0087779Y0217183D01*
X0087895Y0217290D01*
X0088013Y0217395D01*
X0088133Y0217497D01*
X0088256Y0217595D01*
X0088382Y0217691D01*
X0088510Y0217783D01*
X0088640Y0217872D01*
X0088772Y0217958D01*
X0088907Y0218040D01*
X0089044Y0218119D01*
X0089182Y0218194D01*
X0089322Y0218266D01*
X0089465Y0218334D01*
X0089608Y0218399D01*
X0089754Y0218460D01*
X0089901Y0218517D01*
X0090049Y0218571D01*
X0090199Y0218621D01*
X0090349Y0218667D01*
X0090501Y0218709D01*
X0090654Y0218748D01*
X0090808Y0218782D01*
X0090963Y0218813D01*
X0091118Y0218839D01*
X0091274Y0218862D01*
X0091431Y0218881D01*
X0091588Y0218896D01*
X0091745Y0218907D01*
X0091903Y0218914D01*
X0092061Y0218917D01*
X0092218Y0218916D01*
X0092376Y0218911D01*
X0092533Y0218902D01*
X0092691Y0218889D01*
X0092847Y0218872D01*
X0093004Y0218851D01*
X0093159Y0218827D01*
X0093314Y0218798D01*
X0093469Y0218765D01*
X0093622Y0218729D01*
X0093775Y0218688D01*
X0093926Y0218644D01*
X0094076Y0218596D01*
X0094225Y0218545D01*
X0094373Y0218489D01*
X0094519Y0218430D01*
X0094664Y0218367D01*
X0094807Y0218300D01*
X0094948Y0218230D01*
X0095087Y0218157D01*
X0095225Y0218080D01*
X0095361Y0217999D01*
X0095494Y0217915D01*
X0095625Y0217828D01*
X0095754Y0217737D01*
X0095881Y0217643D01*
X0096006Y0217546D01*
X0096127Y0217446D01*
X0096247Y0217343D01*
X0096363Y0217237D01*
X0096477Y0217128D01*
X0096589Y0217016D01*
X0096697Y0216902D01*
X0096802Y0216784D01*
X0096905Y0216664D01*
X0097004Y0216542D01*
X0097100Y0216417D01*
X0097193Y0216289D01*
X0097283Y0216160D01*
X0097369Y0216028D01*
X0097453Y0215894D01*
X0097532Y0215758D01*
X0097609Y0215620D01*
X0097681Y0215480D01*
X0097750Y0215338D01*
X0097816Y0215195D01*
X0097878Y0215050D01*
X0097936Y0214903D01*
X0097991Y0214755D01*
X0098042Y0214606D01*
X0098089Y0214455D01*
X0098132Y0214304D01*
X0098171Y0214151D01*
X0098207Y0213997D01*
X0098238Y0213843D01*
X0098266Y0213688D01*
X0098290Y0213532D01*
X0098310Y0213375D01*
X0098326Y0213218D01*
X0098338Y0213061D01*
X0098346Y0212904D01*
X0098350Y0212746D01*
X0098350Y0212588D01*
X0098346Y0212430D01*
X0098338Y0212273D01*
X0098326Y0212116D01*
X0098310Y0211959D01*
X0098290Y0211802D01*
X0098266Y0211646D01*
X0098238Y0211491D01*
X0098207Y0211337D01*
X0098171Y0211183D01*
X0098132Y0211030D01*
X0098089Y0210879D01*
X0098042Y0210728D01*
X0097991Y0210579D01*
X0097936Y0210431D01*
X0097878Y0210284D01*
X0097816Y0210139D01*
X0097750Y0209996D01*
X0097681Y0209854D01*
X0097609Y0209714D01*
X0097532Y0209576D01*
X0097453Y0209440D01*
X0097369Y0209306D01*
X0097283Y0209174D01*
X0097193Y0209045D01*
X0097100Y0208917D01*
X0097004Y0208792D01*
X0096905Y0208670D01*
X0096802Y0208550D01*
X0096697Y0208432D01*
X0096589Y0208318D01*
X0096477Y0208206D01*
X0096363Y0208097D01*
X0096247Y0207991D01*
X0096127Y0207888D01*
X0096006Y0207788D01*
X0095881Y0207691D01*
X0095754Y0207597D01*
X0095625Y0207506D01*
X0095494Y0207419D01*
X0095361Y0207335D01*
X0095225Y0207254D01*
X0095087Y0207177D01*
X0094948Y0207104D01*
X0094807Y0207034D01*
X0094664Y0206967D01*
X0094519Y0206904D01*
X0094373Y0206845D01*
X0094225Y0206789D01*
X0094076Y0206738D01*
X0093926Y0206690D01*
X0093775Y0206646D01*
X0093622Y0206605D01*
X0093469Y0206569D01*
X0093314Y0206536D01*
X0093159Y0206507D01*
X0093004Y0206483D01*
X0092847Y0206462D01*
X0092691Y0206445D01*
X0092533Y0206432D01*
X0092376Y0206423D01*
X0092218Y0206418D01*
X0092061Y0206417D01*
X0091903Y0206420D01*
X0091745Y0206427D01*
X0091588Y0206438D01*
X0091431Y0206453D01*
X0091274Y0206472D01*
X0091118Y0206495D01*
X0090963Y0206521D01*
X0090808Y0206552D01*
X0090654Y0206586D01*
X0090501Y0206625D01*
X0090349Y0206667D01*
X0090199Y0206713D01*
X0090049Y0206763D01*
X0089901Y0206817D01*
X0089754Y0206874D01*
X0089608Y0206935D01*
X0089465Y0207000D01*
X0089322Y0207068D01*
X0089182Y0207140D01*
X0089044Y0207215D01*
X0088907Y0207294D01*
X0088772Y0207376D01*
X0088640Y0207462D01*
X0088510Y0207551D01*
X0088382Y0207643D01*
X0088256Y0207739D01*
X0088133Y0207837D01*
X0088013Y0207939D01*
X0087895Y0208044D01*
X0087779Y0208151D01*
X0087667Y0208262D01*
X0087557Y0208375D01*
X0087450Y0208491D01*
X0087346Y0208609D01*
X0087245Y0208731D01*
X0087148Y0208854D01*
X0087053Y0208981D01*
X0086962Y0209109D01*
X0086873Y0209240D01*
X0086789Y0209373D01*
X0086707Y0209508D01*
X0086629Y0209645D01*
X0086555Y0209784D01*
X0086484Y0209925D01*
X0086416Y0210067D01*
X0086353Y0210212D01*
X0086292Y0210357D01*
X0086236Y0210505D01*
X0086183Y0210653D01*
X0086134Y0210803D01*
X0086089Y0210954D01*
X0086048Y0211107D01*
X0086010Y0211260D01*
X0085977Y0211414D01*
X0085947Y0211569D01*
X0085921Y0211724D01*
X0085900Y0211881D01*
X0085882Y0212037D01*
X0085868Y0212194D01*
X0085858Y0212352D01*
X0085852Y0212509D01*
X0085850Y0212667D01*
X0345850Y0200167D02*
X0345852Y0200325D01*
X0345858Y0200482D01*
X0345868Y0200640D01*
X0345882Y0200797D01*
X0345900Y0200953D01*
X0345921Y0201110D01*
X0345947Y0201265D01*
X0345977Y0201420D01*
X0346010Y0201574D01*
X0346048Y0201727D01*
X0346089Y0201880D01*
X0346134Y0202031D01*
X0346183Y0202181D01*
X0346236Y0202329D01*
X0346292Y0202477D01*
X0346353Y0202622D01*
X0346416Y0202767D01*
X0346484Y0202909D01*
X0346555Y0203050D01*
X0346629Y0203189D01*
X0346707Y0203326D01*
X0346789Y0203461D01*
X0346873Y0203594D01*
X0346962Y0203725D01*
X0347053Y0203853D01*
X0347148Y0203980D01*
X0347245Y0204103D01*
X0347346Y0204225D01*
X0347450Y0204343D01*
X0347557Y0204459D01*
X0347667Y0204572D01*
X0347779Y0204683D01*
X0347895Y0204790D01*
X0348013Y0204895D01*
X0348133Y0204997D01*
X0348256Y0205095D01*
X0348382Y0205191D01*
X0348510Y0205283D01*
X0348640Y0205372D01*
X0348772Y0205458D01*
X0348907Y0205540D01*
X0349044Y0205619D01*
X0349182Y0205694D01*
X0349322Y0205766D01*
X0349465Y0205834D01*
X0349608Y0205899D01*
X0349754Y0205960D01*
X0349901Y0206017D01*
X0350049Y0206071D01*
X0350199Y0206121D01*
X0350349Y0206167D01*
X0350501Y0206209D01*
X0350654Y0206248D01*
X0350808Y0206282D01*
X0350963Y0206313D01*
X0351118Y0206339D01*
X0351274Y0206362D01*
X0351431Y0206381D01*
X0351588Y0206396D01*
X0351745Y0206407D01*
X0351903Y0206414D01*
X0352061Y0206417D01*
X0352218Y0206416D01*
X0352376Y0206411D01*
X0352533Y0206402D01*
X0352691Y0206389D01*
X0352847Y0206372D01*
X0353004Y0206351D01*
X0353159Y0206327D01*
X0353314Y0206298D01*
X0353469Y0206265D01*
X0353622Y0206229D01*
X0353775Y0206188D01*
X0353926Y0206144D01*
X0354076Y0206096D01*
X0354225Y0206045D01*
X0354373Y0205989D01*
X0354519Y0205930D01*
X0354664Y0205867D01*
X0354807Y0205800D01*
X0354948Y0205730D01*
X0355087Y0205657D01*
X0355225Y0205580D01*
X0355361Y0205499D01*
X0355494Y0205415D01*
X0355625Y0205328D01*
X0355754Y0205237D01*
X0355881Y0205143D01*
X0356006Y0205046D01*
X0356127Y0204946D01*
X0356247Y0204843D01*
X0356363Y0204737D01*
X0356477Y0204628D01*
X0356589Y0204516D01*
X0356697Y0204402D01*
X0356802Y0204284D01*
X0356905Y0204164D01*
X0357004Y0204042D01*
X0357100Y0203917D01*
X0357193Y0203789D01*
X0357283Y0203660D01*
X0357369Y0203528D01*
X0357453Y0203394D01*
X0357532Y0203258D01*
X0357609Y0203120D01*
X0357681Y0202980D01*
X0357750Y0202838D01*
X0357816Y0202695D01*
X0357878Y0202550D01*
X0357936Y0202403D01*
X0357991Y0202255D01*
X0358042Y0202106D01*
X0358089Y0201955D01*
X0358132Y0201804D01*
X0358171Y0201651D01*
X0358207Y0201497D01*
X0358238Y0201343D01*
X0358266Y0201188D01*
X0358290Y0201032D01*
X0358310Y0200875D01*
X0358326Y0200718D01*
X0358338Y0200561D01*
X0358346Y0200404D01*
X0358350Y0200246D01*
X0358350Y0200088D01*
X0358346Y0199930D01*
X0358338Y0199773D01*
X0358326Y0199616D01*
X0358310Y0199459D01*
X0358290Y0199302D01*
X0358266Y0199146D01*
X0358238Y0198991D01*
X0358207Y0198837D01*
X0358171Y0198683D01*
X0358132Y0198530D01*
X0358089Y0198379D01*
X0358042Y0198228D01*
X0357991Y0198079D01*
X0357936Y0197931D01*
X0357878Y0197784D01*
X0357816Y0197639D01*
X0357750Y0197496D01*
X0357681Y0197354D01*
X0357609Y0197214D01*
X0357532Y0197076D01*
X0357453Y0196940D01*
X0357369Y0196806D01*
X0357283Y0196674D01*
X0357193Y0196545D01*
X0357100Y0196417D01*
X0357004Y0196292D01*
X0356905Y0196170D01*
X0356802Y0196050D01*
X0356697Y0195932D01*
X0356589Y0195818D01*
X0356477Y0195706D01*
X0356363Y0195597D01*
X0356247Y0195491D01*
X0356127Y0195388D01*
X0356006Y0195288D01*
X0355881Y0195191D01*
X0355754Y0195097D01*
X0355625Y0195006D01*
X0355494Y0194919D01*
X0355361Y0194835D01*
X0355225Y0194754D01*
X0355087Y0194677D01*
X0354948Y0194604D01*
X0354807Y0194534D01*
X0354664Y0194467D01*
X0354519Y0194404D01*
X0354373Y0194345D01*
X0354225Y0194289D01*
X0354076Y0194238D01*
X0353926Y0194190D01*
X0353775Y0194146D01*
X0353622Y0194105D01*
X0353469Y0194069D01*
X0353314Y0194036D01*
X0353159Y0194007D01*
X0353004Y0193983D01*
X0352847Y0193962D01*
X0352691Y0193945D01*
X0352533Y0193932D01*
X0352376Y0193923D01*
X0352218Y0193918D01*
X0352061Y0193917D01*
X0351903Y0193920D01*
X0351745Y0193927D01*
X0351588Y0193938D01*
X0351431Y0193953D01*
X0351274Y0193972D01*
X0351118Y0193995D01*
X0350963Y0194021D01*
X0350808Y0194052D01*
X0350654Y0194086D01*
X0350501Y0194125D01*
X0350349Y0194167D01*
X0350199Y0194213D01*
X0350049Y0194263D01*
X0349901Y0194317D01*
X0349754Y0194374D01*
X0349608Y0194435D01*
X0349465Y0194500D01*
X0349322Y0194568D01*
X0349182Y0194640D01*
X0349044Y0194715D01*
X0348907Y0194794D01*
X0348772Y0194876D01*
X0348640Y0194962D01*
X0348510Y0195051D01*
X0348382Y0195143D01*
X0348256Y0195239D01*
X0348133Y0195337D01*
X0348013Y0195439D01*
X0347895Y0195544D01*
X0347779Y0195651D01*
X0347667Y0195762D01*
X0347557Y0195875D01*
X0347450Y0195991D01*
X0347346Y0196109D01*
X0347245Y0196231D01*
X0347148Y0196354D01*
X0347053Y0196481D01*
X0346962Y0196609D01*
X0346873Y0196740D01*
X0346789Y0196873D01*
X0346707Y0197008D01*
X0346629Y0197145D01*
X0346555Y0197284D01*
X0346484Y0197425D01*
X0346416Y0197567D01*
X0346353Y0197712D01*
X0346292Y0197857D01*
X0346236Y0198005D01*
X0346183Y0198153D01*
X0346134Y0198303D01*
X0346089Y0198454D01*
X0346048Y0198607D01*
X0346010Y0198760D01*
X0345977Y0198914D01*
X0345947Y0199069D01*
X0345921Y0199224D01*
X0345900Y0199381D01*
X0345882Y0199537D01*
X0345868Y0199694D01*
X0345858Y0199852D01*
X0345852Y0200009D01*
X0345850Y0200167D01*
X0345850Y0035167D02*
X0345852Y0035325D01*
X0345858Y0035482D01*
X0345868Y0035640D01*
X0345882Y0035797D01*
X0345900Y0035953D01*
X0345921Y0036110D01*
X0345947Y0036265D01*
X0345977Y0036420D01*
X0346010Y0036574D01*
X0346048Y0036727D01*
X0346089Y0036880D01*
X0346134Y0037031D01*
X0346183Y0037181D01*
X0346236Y0037329D01*
X0346292Y0037477D01*
X0346353Y0037622D01*
X0346416Y0037767D01*
X0346484Y0037909D01*
X0346555Y0038050D01*
X0346629Y0038189D01*
X0346707Y0038326D01*
X0346789Y0038461D01*
X0346873Y0038594D01*
X0346962Y0038725D01*
X0347053Y0038853D01*
X0347148Y0038980D01*
X0347245Y0039103D01*
X0347346Y0039225D01*
X0347450Y0039343D01*
X0347557Y0039459D01*
X0347667Y0039572D01*
X0347779Y0039683D01*
X0347895Y0039790D01*
X0348013Y0039895D01*
X0348133Y0039997D01*
X0348256Y0040095D01*
X0348382Y0040191D01*
X0348510Y0040283D01*
X0348640Y0040372D01*
X0348772Y0040458D01*
X0348907Y0040540D01*
X0349044Y0040619D01*
X0349182Y0040694D01*
X0349322Y0040766D01*
X0349465Y0040834D01*
X0349608Y0040899D01*
X0349754Y0040960D01*
X0349901Y0041017D01*
X0350049Y0041071D01*
X0350199Y0041121D01*
X0350349Y0041167D01*
X0350501Y0041209D01*
X0350654Y0041248D01*
X0350808Y0041282D01*
X0350963Y0041313D01*
X0351118Y0041339D01*
X0351274Y0041362D01*
X0351431Y0041381D01*
X0351588Y0041396D01*
X0351745Y0041407D01*
X0351903Y0041414D01*
X0352061Y0041417D01*
X0352218Y0041416D01*
X0352376Y0041411D01*
X0352533Y0041402D01*
X0352691Y0041389D01*
X0352847Y0041372D01*
X0353004Y0041351D01*
X0353159Y0041327D01*
X0353314Y0041298D01*
X0353469Y0041265D01*
X0353622Y0041229D01*
X0353775Y0041188D01*
X0353926Y0041144D01*
X0354076Y0041096D01*
X0354225Y0041045D01*
X0354373Y0040989D01*
X0354519Y0040930D01*
X0354664Y0040867D01*
X0354807Y0040800D01*
X0354948Y0040730D01*
X0355087Y0040657D01*
X0355225Y0040580D01*
X0355361Y0040499D01*
X0355494Y0040415D01*
X0355625Y0040328D01*
X0355754Y0040237D01*
X0355881Y0040143D01*
X0356006Y0040046D01*
X0356127Y0039946D01*
X0356247Y0039843D01*
X0356363Y0039737D01*
X0356477Y0039628D01*
X0356589Y0039516D01*
X0356697Y0039402D01*
X0356802Y0039284D01*
X0356905Y0039164D01*
X0357004Y0039042D01*
X0357100Y0038917D01*
X0357193Y0038789D01*
X0357283Y0038660D01*
X0357369Y0038528D01*
X0357453Y0038394D01*
X0357532Y0038258D01*
X0357609Y0038120D01*
X0357681Y0037980D01*
X0357750Y0037838D01*
X0357816Y0037695D01*
X0357878Y0037550D01*
X0357936Y0037403D01*
X0357991Y0037255D01*
X0358042Y0037106D01*
X0358089Y0036955D01*
X0358132Y0036804D01*
X0358171Y0036651D01*
X0358207Y0036497D01*
X0358238Y0036343D01*
X0358266Y0036188D01*
X0358290Y0036032D01*
X0358310Y0035875D01*
X0358326Y0035718D01*
X0358338Y0035561D01*
X0358346Y0035404D01*
X0358350Y0035246D01*
X0358350Y0035088D01*
X0358346Y0034930D01*
X0358338Y0034773D01*
X0358326Y0034616D01*
X0358310Y0034459D01*
X0358290Y0034302D01*
X0358266Y0034146D01*
X0358238Y0033991D01*
X0358207Y0033837D01*
X0358171Y0033683D01*
X0358132Y0033530D01*
X0358089Y0033379D01*
X0358042Y0033228D01*
X0357991Y0033079D01*
X0357936Y0032931D01*
X0357878Y0032784D01*
X0357816Y0032639D01*
X0357750Y0032496D01*
X0357681Y0032354D01*
X0357609Y0032214D01*
X0357532Y0032076D01*
X0357453Y0031940D01*
X0357369Y0031806D01*
X0357283Y0031674D01*
X0357193Y0031545D01*
X0357100Y0031417D01*
X0357004Y0031292D01*
X0356905Y0031170D01*
X0356802Y0031050D01*
X0356697Y0030932D01*
X0356589Y0030818D01*
X0356477Y0030706D01*
X0356363Y0030597D01*
X0356247Y0030491D01*
X0356127Y0030388D01*
X0356006Y0030288D01*
X0355881Y0030191D01*
X0355754Y0030097D01*
X0355625Y0030006D01*
X0355494Y0029919D01*
X0355361Y0029835D01*
X0355225Y0029754D01*
X0355087Y0029677D01*
X0354948Y0029604D01*
X0354807Y0029534D01*
X0354664Y0029467D01*
X0354519Y0029404D01*
X0354373Y0029345D01*
X0354225Y0029289D01*
X0354076Y0029238D01*
X0353926Y0029190D01*
X0353775Y0029146D01*
X0353622Y0029105D01*
X0353469Y0029069D01*
X0353314Y0029036D01*
X0353159Y0029007D01*
X0353004Y0028983D01*
X0352847Y0028962D01*
X0352691Y0028945D01*
X0352533Y0028932D01*
X0352376Y0028923D01*
X0352218Y0028918D01*
X0352061Y0028917D01*
X0351903Y0028920D01*
X0351745Y0028927D01*
X0351588Y0028938D01*
X0351431Y0028953D01*
X0351274Y0028972D01*
X0351118Y0028995D01*
X0350963Y0029021D01*
X0350808Y0029052D01*
X0350654Y0029086D01*
X0350501Y0029125D01*
X0350349Y0029167D01*
X0350199Y0029213D01*
X0350049Y0029263D01*
X0349901Y0029317D01*
X0349754Y0029374D01*
X0349608Y0029435D01*
X0349465Y0029500D01*
X0349322Y0029568D01*
X0349182Y0029640D01*
X0349044Y0029715D01*
X0348907Y0029794D01*
X0348772Y0029876D01*
X0348640Y0029962D01*
X0348510Y0030051D01*
X0348382Y0030143D01*
X0348256Y0030239D01*
X0348133Y0030337D01*
X0348013Y0030439D01*
X0347895Y0030544D01*
X0347779Y0030651D01*
X0347667Y0030762D01*
X0347557Y0030875D01*
X0347450Y0030991D01*
X0347346Y0031109D01*
X0347245Y0031231D01*
X0347148Y0031354D01*
X0347053Y0031481D01*
X0346962Y0031609D01*
X0346873Y0031740D01*
X0346789Y0031873D01*
X0346707Y0032008D01*
X0346629Y0032145D01*
X0346555Y0032284D01*
X0346484Y0032425D01*
X0346416Y0032567D01*
X0346353Y0032712D01*
X0346292Y0032857D01*
X0346236Y0033005D01*
X0346183Y0033153D01*
X0346134Y0033303D01*
X0346089Y0033454D01*
X0346048Y0033607D01*
X0346010Y0033760D01*
X0345977Y0033914D01*
X0345947Y0034069D01*
X0345921Y0034224D01*
X0345900Y0034381D01*
X0345882Y0034537D01*
X0345868Y0034694D01*
X0345858Y0034852D01*
X0345852Y0035009D01*
X0345850Y0035167D01*
X0085850Y0022667D02*
X0085852Y0022825D01*
X0085858Y0022982D01*
X0085868Y0023140D01*
X0085882Y0023297D01*
X0085900Y0023453D01*
X0085921Y0023610D01*
X0085947Y0023765D01*
X0085977Y0023920D01*
X0086010Y0024074D01*
X0086048Y0024227D01*
X0086089Y0024380D01*
X0086134Y0024531D01*
X0086183Y0024681D01*
X0086236Y0024829D01*
X0086292Y0024977D01*
X0086353Y0025122D01*
X0086416Y0025267D01*
X0086484Y0025409D01*
X0086555Y0025550D01*
X0086629Y0025689D01*
X0086707Y0025826D01*
X0086789Y0025961D01*
X0086873Y0026094D01*
X0086962Y0026225D01*
X0087053Y0026353D01*
X0087148Y0026480D01*
X0087245Y0026603D01*
X0087346Y0026725D01*
X0087450Y0026843D01*
X0087557Y0026959D01*
X0087667Y0027072D01*
X0087779Y0027183D01*
X0087895Y0027290D01*
X0088013Y0027395D01*
X0088133Y0027497D01*
X0088256Y0027595D01*
X0088382Y0027691D01*
X0088510Y0027783D01*
X0088640Y0027872D01*
X0088772Y0027958D01*
X0088907Y0028040D01*
X0089044Y0028119D01*
X0089182Y0028194D01*
X0089322Y0028266D01*
X0089465Y0028334D01*
X0089608Y0028399D01*
X0089754Y0028460D01*
X0089901Y0028517D01*
X0090049Y0028571D01*
X0090199Y0028621D01*
X0090349Y0028667D01*
X0090501Y0028709D01*
X0090654Y0028748D01*
X0090808Y0028782D01*
X0090963Y0028813D01*
X0091118Y0028839D01*
X0091274Y0028862D01*
X0091431Y0028881D01*
X0091588Y0028896D01*
X0091745Y0028907D01*
X0091903Y0028914D01*
X0092061Y0028917D01*
X0092218Y0028916D01*
X0092376Y0028911D01*
X0092533Y0028902D01*
X0092691Y0028889D01*
X0092847Y0028872D01*
X0093004Y0028851D01*
X0093159Y0028827D01*
X0093314Y0028798D01*
X0093469Y0028765D01*
X0093622Y0028729D01*
X0093775Y0028688D01*
X0093926Y0028644D01*
X0094076Y0028596D01*
X0094225Y0028545D01*
X0094373Y0028489D01*
X0094519Y0028430D01*
X0094664Y0028367D01*
X0094807Y0028300D01*
X0094948Y0028230D01*
X0095087Y0028157D01*
X0095225Y0028080D01*
X0095361Y0027999D01*
X0095494Y0027915D01*
X0095625Y0027828D01*
X0095754Y0027737D01*
X0095881Y0027643D01*
X0096006Y0027546D01*
X0096127Y0027446D01*
X0096247Y0027343D01*
X0096363Y0027237D01*
X0096477Y0027128D01*
X0096589Y0027016D01*
X0096697Y0026902D01*
X0096802Y0026784D01*
X0096905Y0026664D01*
X0097004Y0026542D01*
X0097100Y0026417D01*
X0097193Y0026289D01*
X0097283Y0026160D01*
X0097369Y0026028D01*
X0097453Y0025894D01*
X0097532Y0025758D01*
X0097609Y0025620D01*
X0097681Y0025480D01*
X0097750Y0025338D01*
X0097816Y0025195D01*
X0097878Y0025050D01*
X0097936Y0024903D01*
X0097991Y0024755D01*
X0098042Y0024606D01*
X0098089Y0024455D01*
X0098132Y0024304D01*
X0098171Y0024151D01*
X0098207Y0023997D01*
X0098238Y0023843D01*
X0098266Y0023688D01*
X0098290Y0023532D01*
X0098310Y0023375D01*
X0098326Y0023218D01*
X0098338Y0023061D01*
X0098346Y0022904D01*
X0098350Y0022746D01*
X0098350Y0022588D01*
X0098346Y0022430D01*
X0098338Y0022273D01*
X0098326Y0022116D01*
X0098310Y0021959D01*
X0098290Y0021802D01*
X0098266Y0021646D01*
X0098238Y0021491D01*
X0098207Y0021337D01*
X0098171Y0021183D01*
X0098132Y0021030D01*
X0098089Y0020879D01*
X0098042Y0020728D01*
X0097991Y0020579D01*
X0097936Y0020431D01*
X0097878Y0020284D01*
X0097816Y0020139D01*
X0097750Y0019996D01*
X0097681Y0019854D01*
X0097609Y0019714D01*
X0097532Y0019576D01*
X0097453Y0019440D01*
X0097369Y0019306D01*
X0097283Y0019174D01*
X0097193Y0019045D01*
X0097100Y0018917D01*
X0097004Y0018792D01*
X0096905Y0018670D01*
X0096802Y0018550D01*
X0096697Y0018432D01*
X0096589Y0018318D01*
X0096477Y0018206D01*
X0096363Y0018097D01*
X0096247Y0017991D01*
X0096127Y0017888D01*
X0096006Y0017788D01*
X0095881Y0017691D01*
X0095754Y0017597D01*
X0095625Y0017506D01*
X0095494Y0017419D01*
X0095361Y0017335D01*
X0095225Y0017254D01*
X0095087Y0017177D01*
X0094948Y0017104D01*
X0094807Y0017034D01*
X0094664Y0016967D01*
X0094519Y0016904D01*
X0094373Y0016845D01*
X0094225Y0016789D01*
X0094076Y0016738D01*
X0093926Y0016690D01*
X0093775Y0016646D01*
X0093622Y0016605D01*
X0093469Y0016569D01*
X0093314Y0016536D01*
X0093159Y0016507D01*
X0093004Y0016483D01*
X0092847Y0016462D01*
X0092691Y0016445D01*
X0092533Y0016432D01*
X0092376Y0016423D01*
X0092218Y0016418D01*
X0092061Y0016417D01*
X0091903Y0016420D01*
X0091745Y0016427D01*
X0091588Y0016438D01*
X0091431Y0016453D01*
X0091274Y0016472D01*
X0091118Y0016495D01*
X0090963Y0016521D01*
X0090808Y0016552D01*
X0090654Y0016586D01*
X0090501Y0016625D01*
X0090349Y0016667D01*
X0090199Y0016713D01*
X0090049Y0016763D01*
X0089901Y0016817D01*
X0089754Y0016874D01*
X0089608Y0016935D01*
X0089465Y0017000D01*
X0089322Y0017068D01*
X0089182Y0017140D01*
X0089044Y0017215D01*
X0088907Y0017294D01*
X0088772Y0017376D01*
X0088640Y0017462D01*
X0088510Y0017551D01*
X0088382Y0017643D01*
X0088256Y0017739D01*
X0088133Y0017837D01*
X0088013Y0017939D01*
X0087895Y0018044D01*
X0087779Y0018151D01*
X0087667Y0018262D01*
X0087557Y0018375D01*
X0087450Y0018491D01*
X0087346Y0018609D01*
X0087245Y0018731D01*
X0087148Y0018854D01*
X0087053Y0018981D01*
X0086962Y0019109D01*
X0086873Y0019240D01*
X0086789Y0019373D01*
X0086707Y0019508D01*
X0086629Y0019645D01*
X0086555Y0019784D01*
X0086484Y0019925D01*
X0086416Y0020067D01*
X0086353Y0020212D01*
X0086292Y0020357D01*
X0086236Y0020505D01*
X0086183Y0020653D01*
X0086134Y0020803D01*
X0086089Y0020954D01*
X0086048Y0021107D01*
X0086010Y0021260D01*
X0085977Y0021414D01*
X0085947Y0021569D01*
X0085921Y0021724D01*
X0085900Y0021881D01*
X0085882Y0022037D01*
X0085868Y0022194D01*
X0085858Y0022352D01*
X0085852Y0022509D01*
X0085850Y0022667D01*
D13*
X0099996Y0021566D02*
X0099996Y0020165D01*
X0100697Y0019464D01*
X0103499Y0019464D01*
X0104200Y0020165D01*
X0104200Y0021566D01*
X0103499Y0022267D01*
X0102098Y0021566D02*
X0102098Y0019464D01*
X0102098Y0021566D02*
X0101398Y0022267D01*
X0100697Y0022267D01*
X0099996Y0021566D01*
X0100697Y0024068D02*
X0102098Y0024068D01*
X0102799Y0024769D01*
X0102799Y0026871D01*
X0104200Y0026871D02*
X0099996Y0026871D01*
X0099996Y0024769D01*
X0100697Y0024068D01*
X0109200Y0206766D02*
X0109200Y0209569D01*
X0109200Y0208167D02*
X0104996Y0208167D01*
X0106398Y0209569D01*
X0104200Y0210165D02*
X0104200Y0211566D01*
X0103499Y0212267D01*
X0102799Y0212267D01*
X0102098Y0211566D01*
X0102098Y0210165D01*
X0102799Y0209464D01*
X0103499Y0209464D01*
X0104200Y0210165D01*
X0102098Y0210165D02*
X0101398Y0209464D01*
X0100697Y0209464D01*
X0099996Y0210165D01*
X0099996Y0211566D01*
X0100697Y0212267D01*
X0101398Y0212267D01*
X0102098Y0211566D01*
X0102098Y0214068D02*
X0102799Y0214769D01*
X0102799Y0216871D01*
X0104200Y0216871D02*
X0099996Y0216871D01*
X0099996Y0214769D01*
X0100697Y0214068D01*
X0102098Y0214068D01*
D14*
X0105897Y0217507D02*
X0105897Y0218641D01*
X0106464Y0219208D01*
X0105897Y0217507D02*
X0106464Y0216940D01*
X0107031Y0216940D01*
X0109300Y0219208D01*
X0109300Y0216940D01*
X0340897Y0215098D02*
X0341464Y0216232D01*
X0342599Y0217367D01*
X0342599Y0215665D01*
X0343166Y0215098D01*
X0343733Y0215098D01*
X0344300Y0215665D01*
X0344300Y0216800D01*
X0343733Y0217367D01*
X0342599Y0217367D01*
X0342599Y0218781D02*
X0342599Y0221050D01*
X0340897Y0219348D01*
X0344300Y0219348D01*
X0342599Y0211050D02*
X0340897Y0209348D01*
X0344300Y0209348D01*
X0342599Y0208781D02*
X0342599Y0211050D01*
X0342599Y0207367D02*
X0340897Y0207367D01*
X0340897Y0205098D01*
X0342031Y0205665D02*
X0342599Y0205098D01*
X0343733Y0205098D01*
X0344300Y0205665D01*
X0344300Y0206800D01*
X0343733Y0207367D01*
X0342599Y0207367D02*
X0342031Y0206232D01*
X0342031Y0205665D01*
X0342599Y0031050D02*
X0342599Y0028781D01*
X0342599Y0027367D02*
X0341464Y0026232D01*
X0340897Y0025098D01*
X0342599Y0025665D02*
X0342599Y0027367D01*
X0343733Y0027367D01*
X0344300Y0026800D01*
X0344300Y0025665D01*
X0343733Y0025098D01*
X0343166Y0025098D01*
X0342599Y0025665D01*
X0342599Y0021050D02*
X0342599Y0018781D01*
X0342599Y0017367D02*
X0340897Y0017367D01*
X0340897Y0015098D01*
X0342031Y0015665D02*
X0342599Y0015098D01*
X0343733Y0015098D01*
X0344300Y0015665D01*
X0344300Y0016800D01*
X0343733Y0017367D01*
X0342599Y0017367D02*
X0342031Y0016232D01*
X0342031Y0015665D01*
X0340897Y0019348D02*
X0342599Y0021050D01*
X0344300Y0019348D02*
X0340897Y0019348D01*
X0340897Y0029348D02*
X0342599Y0031050D01*
X0344300Y0029348D02*
X0340897Y0029348D01*
X0109300Y0029208D02*
X0109300Y0026940D01*
X0109300Y0029208D02*
X0107031Y0026940D01*
X0106464Y0026940D01*
X0105897Y0027507D01*
X0105897Y0028641D01*
X0106464Y0029208D01*
X0107031Y0019208D02*
X0105897Y0018074D01*
X0109300Y0018074D01*
X0109300Y0019208D02*
X0109300Y0016940D01*
D15*
X0165883Y0095996D02*
X0188717Y0095996D01*
X0188717Y0096783D01*
X0165883Y0096783D02*
X0165883Y0095996D01*
X0162733Y0128673D02*
X0162733Y0131035D01*
X0161946Y0130641D02*
X0163520Y0129067D01*
X0163914Y0129854D02*
X0161552Y0129854D01*
X0161946Y0129067D02*
X0163520Y0130641D01*
X0166276Y0131429D02*
X0166276Y0132216D01*
X0188717Y0132216D01*
X0188717Y0131429D01*
M02*
