G75*
%MOIN*%
%OFA0B0*%
%FSLAX25Y25*%
%IPPOS*%
%LPD*%
%AMOC8*
5,1,8,0,0,1.08239X$1,22.5*
%
%ADD10R,0.05918X0.06706*%
%ADD11C,0.08200*%
%ADD12OC8,0.07200*%
%ADD13C,0.07099*%
%ADD14C,0.07200*%
%ADD15C,0.13300*%
%ADD16R,0.07400X0.07400*%
%ADD17C,0.07400*%
%ADD18C,0.07137*%
%ADD19R,0.04737X0.05131*%
%ADD20R,0.09461X0.03792*%
%ADD21C,0.05556*%
%ADD22C,0.07887*%
%ADD23C,0.06737*%
%ADD24C,0.08477*%
D10*
G36*
X0250135Y0145199D02*
X0245950Y0149384D01*
X0250691Y0154125D01*
X0254876Y0149940D01*
X0250135Y0145199D01*
G37*
G36*
X0255425Y0139910D02*
X0251240Y0144095D01*
X0255981Y0148836D01*
X0260166Y0144651D01*
X0255425Y0139910D01*
G37*
G36*
X0267726Y0142481D02*
X0271911Y0138296D01*
X0267170Y0133555D01*
X0262985Y0137740D01*
X0267726Y0142481D01*
G37*
G36*
X0274229Y0148977D02*
X0278414Y0144792D01*
X0273673Y0140051D01*
X0269488Y0144236D01*
X0274229Y0148977D01*
G37*
G36*
X0279518Y0143688D02*
X0283703Y0139503D01*
X0278962Y0134762D01*
X0274777Y0138947D01*
X0279518Y0143688D01*
G37*
G36*
X0273015Y0137191D02*
X0277200Y0133006D01*
X0272459Y0128265D01*
X0268274Y0132450D01*
X0273015Y0137191D01*
G37*
D11*
X0349100Y0179667D03*
X0359100Y0178667D03*
X0369100Y0179667D03*
X0369600Y0168167D03*
X0359600Y0167167D03*
X0349600Y0168167D03*
X0349600Y0156667D03*
X0359600Y0155667D03*
X0369600Y0156667D03*
X0369600Y0145167D03*
X0359600Y0144167D03*
X0349600Y0145167D03*
X0349600Y0133667D03*
X0359600Y0132667D03*
X0369600Y0133667D03*
X0369600Y0122167D03*
X0359600Y0121167D03*
X0349600Y0122167D03*
X0349600Y0110667D03*
X0359600Y0109667D03*
X0369600Y0110667D03*
X0369600Y0099167D03*
X0359600Y0098167D03*
X0349600Y0099167D03*
X0349600Y0087667D03*
X0359600Y0086667D03*
X0369600Y0087667D03*
X0369600Y0076167D03*
X0359600Y0075167D03*
X0349600Y0076167D03*
X0349600Y0064667D03*
X0359600Y0063667D03*
X0369600Y0064667D03*
X0369600Y0053167D03*
X0359600Y0052167D03*
X0349600Y0053167D03*
X0304600Y0207667D03*
D12*
X0256725Y0182792D03*
X0246725Y0182792D03*
X0236725Y0182792D03*
X0226725Y0182792D03*
X0216725Y0182792D03*
X0206725Y0182792D03*
X0196725Y0182792D03*
X0186725Y0182792D03*
X0176725Y0182792D03*
X0166725Y0182792D03*
X0166725Y0172792D03*
X0176725Y0172792D03*
X0186725Y0172792D03*
X0196725Y0172792D03*
X0206725Y0172792D03*
X0216725Y0172792D03*
X0226725Y0172792D03*
X0236725Y0172792D03*
X0246725Y0172792D03*
X0256725Y0172792D03*
X0251850Y0062542D03*
X0241850Y0062542D03*
X0231850Y0062542D03*
X0221850Y0062542D03*
X0211850Y0062542D03*
X0201850Y0062542D03*
X0191850Y0062542D03*
X0181850Y0062542D03*
X0171850Y0062542D03*
X0161850Y0062542D03*
X0161850Y0052542D03*
X0171850Y0052542D03*
X0181850Y0052542D03*
X0191850Y0052542D03*
X0201850Y0052542D03*
X0211850Y0052542D03*
X0221850Y0052542D03*
X0231850Y0052542D03*
X0241850Y0052542D03*
X0251850Y0052542D03*
D13*
X0268289Y0055626D03*
X0276163Y0055626D03*
X0284037Y0055626D03*
X0291911Y0055626D03*
X0311663Y0058707D03*
X0319537Y0058707D03*
D14*
X0080800Y0194667D02*
X0074400Y0194667D01*
X0074400Y0204667D02*
X0080800Y0204667D01*
X0058200Y0085467D02*
X0051800Y0085467D01*
X0051800Y0075467D02*
X0058200Y0075467D01*
D15*
X0092100Y0022667D03*
X0352100Y0035167D03*
X0352100Y0200167D03*
X0092100Y0212667D03*
D16*
X0114600Y0207667D03*
X0114600Y0017667D03*
D17*
X0124600Y0017667D03*
X0134600Y0017667D03*
X0144600Y0017667D03*
X0154600Y0017667D03*
X0164600Y0017667D03*
X0174600Y0017667D03*
X0184600Y0017667D03*
X0194600Y0017667D03*
X0204600Y0017667D03*
X0214600Y0017667D03*
X0224600Y0017667D03*
X0234600Y0017667D03*
X0244600Y0017667D03*
X0254600Y0017667D03*
X0264600Y0017667D03*
X0274600Y0017667D03*
X0284600Y0017667D03*
X0294600Y0017667D03*
X0304600Y0017667D03*
X0314600Y0017667D03*
X0324600Y0017667D03*
X0334600Y0017667D03*
X0334600Y0027667D03*
X0324600Y0027667D03*
X0314600Y0027667D03*
X0304600Y0027667D03*
X0294600Y0027667D03*
X0284600Y0027667D03*
X0274600Y0027667D03*
X0264600Y0027667D03*
X0254600Y0027667D03*
X0244600Y0027667D03*
X0234600Y0027667D03*
X0224600Y0027667D03*
X0214600Y0027667D03*
X0204600Y0027667D03*
X0194600Y0027667D03*
X0184600Y0027667D03*
X0174600Y0027667D03*
X0164600Y0027667D03*
X0154600Y0027667D03*
X0144600Y0027667D03*
X0134600Y0027667D03*
X0124600Y0027667D03*
X0114600Y0027667D03*
X0124600Y0207667D03*
X0134600Y0207667D03*
X0144600Y0207667D03*
X0154600Y0207667D03*
X0164600Y0207667D03*
X0174600Y0207667D03*
X0184600Y0207667D03*
X0194600Y0207667D03*
X0204600Y0207667D03*
X0214600Y0207667D03*
X0224600Y0207667D03*
X0234600Y0207667D03*
X0244600Y0207667D03*
X0254600Y0207667D03*
X0264600Y0207667D03*
X0274600Y0207667D03*
X0284600Y0207667D03*
X0294600Y0207667D03*
X0294600Y0217667D03*
X0304600Y0217667D03*
X0314600Y0217667D03*
X0324600Y0217667D03*
X0334600Y0217667D03*
X0334600Y0207667D03*
X0324600Y0207667D03*
X0314600Y0207667D03*
X0284600Y0217667D03*
X0274600Y0217667D03*
X0264600Y0217667D03*
X0254600Y0217667D03*
X0244600Y0217667D03*
X0234600Y0217667D03*
X0224600Y0217667D03*
X0214600Y0217667D03*
X0204600Y0217667D03*
X0194600Y0217667D03*
X0184600Y0217667D03*
X0174600Y0217667D03*
X0164600Y0217667D03*
X0154600Y0217667D03*
X0144600Y0217667D03*
X0134600Y0217667D03*
X0124600Y0217667D03*
X0114600Y0217667D03*
D18*
X0065769Y0018667D02*
X0059431Y0018667D01*
X0059431Y0028667D02*
X0065769Y0028667D01*
D19*
X0073754Y0176667D03*
X0080446Y0176667D03*
X0080446Y0184667D03*
X0073754Y0184667D03*
D20*
X0170017Y0129067D03*
X0170017Y0124067D03*
X0170017Y0119067D03*
X0170017Y0114067D03*
X0170017Y0109067D03*
X0170017Y0104067D03*
X0170017Y0099067D03*
X0184583Y0099067D03*
X0184583Y0104067D03*
X0184583Y0109067D03*
X0184583Y0114067D03*
X0184583Y0119067D03*
X0184583Y0124067D03*
X0184583Y0129067D03*
D21*
X0192900Y0095667D03*
X0191700Y0081967D03*
D22*
X0143600Y0134667D03*
X0143600Y0157167D03*
X0158600Y0184467D03*
X0158600Y0196667D03*
D23*
X0284100Y0158167D03*
D24*
X0124225Y0075417D03*
X0084725Y0047042D03*
M02*
