%
M48
M72
T01C0.01500
T02C0.02362
T03C0.02756
T04C0.03937
T05C0.04000
T06C0.04724
T07C0.05118
T08C0.12500
%
T01
X92850Y45667
X106150Y81467
X115950Y81467
X86750Y86167
X78750Y86167
X67950Y86367
X154600Y142667
X154600Y150167
X150600Y157167
X125100Y151667
X121600Y176667
X109600Y187167
X88100Y176167
X63100Y209667
X74600Y221167
X141100Y178667
X188600Y145667
X197300Y134667
X193700Y129067
X193500Y124067
X193400Y119067
X193700Y114067
X206100Y122767
X205100Y129167
X214600Y128167
X230700Y142167
X235200Y142067
X239700Y141167
X249850Y140667
X258600Y137667
X261600Y121667
X269600Y119167
X273400Y115667
X268700Y111667
X274200Y110267
X278000Y107667
X270700Y102767
X267700Y89267
X259100Y79667
X258600Y75167
X245500Y83167
X246700Y88967
X251400Y88567
X238100Y89167
X233900Y86867
X236100Y82667
X237200Y77267
X212600Y77167
X184600Y76667
X176300Y90767
X162600Y109067
X174600Y141167
X211600Y157367
X237600Y158567
X239900Y163367
X249400Y161267
X253100Y164867
X236100Y147167
X259100Y115667
X299850Y121167
X322600Y126167
X305100Y78667
X288600Y78667
X327600Y70167
X327000Y53567
X321100Y50167
X321100Y42667
X334200Y39567
X290100Y41667
X279500Y47067
X275400Y43967
X257700Y43967
X252700Y44767
X241100Y44167
X209500Y35767
X200100Y46667
X319350Y181167
X302350Y183667
X273850Y187167
T02
X172100Y78667
X292600Y72167
X310100Y72167
T03
X311663Y58707
X319537Y58707
X291911Y55626
X284037Y55626
X276163Y55626
X268289Y55626
X191700Y81967
X192900Y95667
T04
X62600Y18667
X62600Y28667
X284100Y158167
T05
X256725Y172792
X246725Y172792
X236725Y172792
X226725Y172792
X216725Y172792
X206725Y172792
X196725Y172792
X186725Y172792
X176725Y172792
X166725Y172792
X166725Y182792
X176725Y182792
X186725Y182792
X196725Y182792
X206725Y182792
X216725Y182792
X226725Y182792
X236725Y182792
X246725Y182792
X256725Y182792
X254600Y207667
X264600Y207667
X274600Y207667
X284600Y207667
X294600Y207667
X304600Y207667
X314600Y207667
X324600Y207667
X334600Y207667
X334600Y217667
X324600Y217667
X314600Y217667
X304600Y217667
X294600Y217667
X284600Y217667
X274600Y217667
X264600Y217667
X254600Y217667
X244600Y217667
X234600Y217667
X224600Y217667
X214600Y217667
X204600Y217667
X194600Y217667
X184600Y217667
X174600Y217667
X164600Y217667
X154600Y217667
X144600Y217667
X134600Y217667
X124600Y217667
X114600Y217667
X114600Y207667
X124600Y207667
X134600Y207667
X144600Y207667
X154600Y207667
X164600Y207667
X174600Y207667
X184600Y207667
X194600Y207667
X204600Y207667
X214600Y207667
X224600Y207667
X234600Y207667
X244600Y207667
X349100Y179667
X359100Y178667
X369100Y179667
X369600Y168167
X359600Y167167
X349600Y168167
X349600Y156667
X359600Y155667
X369600Y156667
X369600Y145167
X359600Y144167
X349600Y145167
X349600Y133667
X359600Y132667
X369600Y133667
X369600Y122167
X359600Y121167
X349600Y122167
X349600Y110667
X359600Y109667
X369600Y110667
X369600Y99167
X359600Y98167
X349600Y99167
X349600Y87667
X359600Y86667
X369600Y87667
X369600Y76167
X359600Y75167
X349600Y76167
X349600Y64667
X359600Y63667
X369600Y64667
X369600Y53167
X359600Y52167
X349600Y53167
X334600Y27667
X324600Y27667
X314600Y27667
X304600Y27667
X294600Y27667
X284600Y27667
X274600Y27667
X264600Y27667
X254600Y27667
X244600Y27667
X234600Y27667
X224600Y27667
X214600Y27667
X204600Y27667
X194600Y27667
X184600Y27667
X174600Y27667
X164600Y27667
X154600Y27667
X144600Y27667
X134600Y27667
X124600Y27667
X114600Y27667
X114600Y17667
X124600Y17667
X134600Y17667
X144600Y17667
X154600Y17667
X164600Y17667
X174600Y17667
X184600Y17667
X194600Y17667
X204600Y17667
X214600Y17667
X224600Y17667
X234600Y17667
X244600Y17667
X254600Y17667
X264600Y17667
X274600Y17667
X284600Y17667
X294600Y17667
X304600Y17667
X314600Y17667
X324600Y17667
X334600Y17667
X251850Y52542
X241850Y52542
X231850Y52542
X221850Y52542
X211850Y52542
X201850Y52542
X191850Y52542
X181850Y52542
X171850Y52542
X161850Y52542
X161850Y62542
X171850Y62542
X181850Y62542
X191850Y62542
X201850Y62542
X211850Y62542
X221850Y62542
X231850Y62542
X241850Y62542
X251850Y62542
X55000Y75467
X55000Y85467
X77600Y194667
X77600Y204667
T06
X143600Y157167
X143600Y134667
X158600Y184467
X158600Y196667
T07
X124225Y75417
X84725Y47042
T08
X92100Y22667
X352100Y35167
X352100Y200167
X92100Y212667
M30
