%
M48
M72
T01C0.0130
T02C0.0150
T03C0.0200
T04C0.0236
T05C0.0250
T06C0.0276
T07C0.0315
T08C0.0354
T09C0.0400
T10C0.1250
%
T01
X4100Y1900
X17950Y9900
X20500Y10300
X21400Y10200
X21850Y10150
X22950Y9600
X23350Y9730
X23850Y8900
X25950Y8500
X26500Y9200
X27100Y9250
X26900Y10700
X26900Y11250
X26950Y11800
X26950Y12350
X26950Y12900
X26950Y13450
X26950Y14000
X26950Y14550
X27600Y14550
X25100Y12900
X24650Y13250
X25300Y12500
X24500Y12200
X24200Y11600
X25250Y11800
X25150Y11100
X23750Y14700
X23100Y14900
X22650Y15100
X22350Y14700
X21200Y15500
X20700Y15400
X19800Y15600
X19300Y14100
X18800Y13700
X18900Y12900
X18450Y12700
X18100Y13000
X19250Y12600
X19450Y11950
X24250Y15250
X30800Y14800
X32150Y14350
X32200Y13850
X32200Y13350
X32200Y12850
X32200Y12400
X32250Y11850
X32250Y11350
X32250Y10850
X27270Y6240
X26950Y5850
X26200Y5950
X28200Y5900
X28850Y5900
X25900Y4150
X27150Y3850
X28800Y3700
X29800Y3700
X30950Y3700
X33200Y3750
X33850Y4250
X33950Y3350
X32350Y5350
X32550Y6150
X33050Y6150
X8150Y18800
X6025Y19000
T02
X6163Y7188
X8319Y6969
X9150Y4750
X10000Y4750
X10850Y4750
T03
X13150Y8150
X17100Y10450
X29650Y10100
T04
X27100Y15350
X24850Y15350
X25700Y17250
X10480Y7140
X9590Y7090
X8580Y7740
X6980Y8304
X5620Y8344
X6125Y19845
X6130Y20710
T05
X18430Y8070
X18930Y8070
X19430Y8070
X19930Y8070
X20430Y8070
X20930Y8070
X21430Y8070
X21430Y7570
X20930Y7570
X20430Y7570
X19930Y7570
X19430Y7570
X18930Y7570
X18430Y7570
T06
X12250Y4750
X9400Y3550
X6550Y2250
X27855Y9085
X30755Y7755
X34019Y6583
X34806Y6583
X35594Y6583
X36381Y6583
X35644Y4533
X34856Y4533
X28700Y15000
X17550Y15450
X16400Y16150
X13850Y15500
X12950Y15500
X12950Y16800
X13850Y16800
X10800Y16250
X10850Y18950
X9450Y19400
X10400Y21590
T07
X25050Y14700
X32200Y4650
T08
X5100Y3250
T09
X5500Y4200
X5500Y5200
X11450Y2250
X12450Y2250
X13450Y2250
X14450Y2250
X15450Y2250
X16450Y2250
X17450Y2250
X18450Y2250
X19450Y2250
X20450Y2250
X21450Y2250
X22450Y2250
X23450Y2250
X24450Y2250
X25450Y2250
X26450Y2250
X27450Y2250
X28450Y2250
X29450Y2250
X30450Y2250
X31450Y2250
X32450Y2250
X33450Y2250
X33450Y1250
X32450Y1250
X31450Y1250
X30450Y1250
X29450Y1250
X28450Y1250
X27450Y1250
X26450Y1250
X25450Y1250
X24450Y1250
X23450Y1250
X22450Y1250
X21450Y1250
X20450Y1250
X19450Y1250
X18450Y1250
X17450Y1250
X16450Y1250
X15450Y1250
X14450Y1250
X13450Y1250
X12450Y1250
X11450Y1250
X15350Y4700
X16350Y4700
X17350Y4700
X18350Y4700
X19350Y4700
X20350Y4700
X21350Y4700
X22350Y4700
X23350Y4700
X24350Y4700
X24350Y5700
X23350Y5700
X22350Y5700
X21350Y5700
X20350Y5700
X19350Y5700
X18350Y5700
X17350Y5700
X16350Y5700
X15350Y5700
X34650Y8850
X35650Y8750
X36650Y8850
X35650Y9850
X36650Y9950
X35650Y10950
X36650Y11050
X36650Y12200
X35650Y12100
X34650Y12200
X34650Y11050
X34650Y9950
X34650Y13350
X35650Y13250
X36650Y13350
X36650Y14500
X35650Y14400
X34650Y14500
X34650Y15650
X35650Y15550
X36650Y15650
X36650Y16800
X35650Y16700
X34650Y16800
X33450Y20250
X32450Y20250
X31450Y20250
X30450Y20250
X29450Y20250
X28450Y20250
X27450Y20250
X26450Y20250
X25450Y20250
X24450Y20250
X23450Y20250
X22450Y20250
X21450Y20250
X20450Y20250
X19450Y20250
X18450Y20250
X17450Y20250
X16450Y20250
X15450Y20250
X14450Y20250
X13450Y20250
X12450Y20250
X11450Y20250
X11450Y21250
X12450Y21250
X13450Y21250
X14450Y21250
X15450Y21250
X16450Y21250
X17450Y21250
X18450Y21250
X19450Y21250
X20450Y21250
X21450Y21250
X22450Y21250
X23450Y21250
X24450Y21250
X25450Y21250
X26450Y21250
X27450Y21250
X28450Y21250
X29450Y21250
X30450Y21250
X31450Y21250
X32450Y21250
X33450Y21250
X24350Y18800
X23350Y18800
X22350Y18800
X21350Y18800
X20350Y18800
X19350Y18800
X18350Y18800
X17350Y18800
X16350Y18800
X15350Y18800
X15350Y17800
X16350Y17800
X17350Y17800
X18350Y17800
X19350Y17800
X20350Y17800
X21350Y17800
X22350Y17800
X23350Y17800
X24350Y17800
T10
X35200Y19500
X9200Y20750
X35200Y3000
X9200Y1750
M30
