G04 #@! TF.FileFunction,Legend,Bot*
%FSLAX46Y46*%
G04 Gerber Fmt 4.6, Leading zero omitted, Abs format (unit mm)*
G04 Created by KiCad (PCBNEW 4.0.2+dfsg1-stable) date Mon 14 Nov 2016 02:15:01 PM EST*
%MOMM*%
G01*
G04 APERTURE LIST*
%ADD10C,0.100000*%
%ADD11C,0.375000*%
%ADD12C,0.010000*%
%ADD13C,0.150000*%
%ADD14C,0.300000*%
G04 APERTURE END LIST*
D10*
D11*
X150142857Y-141261905D02*
X150142857Y-136261905D01*
X149000000Y-136261905D01*
X148714286Y-136500000D01*
X148571429Y-136738095D01*
X148428572Y-137214286D01*
X148428572Y-137928571D01*
X148571429Y-138404762D01*
X148714286Y-138642857D01*
X149000000Y-138880952D01*
X150142857Y-138880952D01*
X147142857Y-141261905D02*
X147142857Y-137928571D01*
X147142857Y-138880952D02*
X147000000Y-138404762D01*
X146857143Y-138166667D01*
X146571429Y-137928571D01*
X146285714Y-137928571D01*
X144857143Y-141261905D02*
X145142857Y-141023810D01*
X145285714Y-140785714D01*
X145428571Y-140309524D01*
X145428571Y-138880952D01*
X145285714Y-138404762D01*
X145142857Y-138166667D01*
X144857143Y-137928571D01*
X144428571Y-137928571D01*
X144142857Y-138166667D01*
X144000000Y-138404762D01*
X143857143Y-138880952D01*
X143857143Y-140309524D01*
X144000000Y-140785714D01*
X144142857Y-141023810D01*
X144428571Y-141261905D01*
X144857143Y-141261905D01*
X142571428Y-141261905D02*
X142571428Y-136261905D01*
X142571428Y-138166667D02*
X142285714Y-137928571D01*
X141714285Y-137928571D01*
X141428571Y-138166667D01*
X141285714Y-138404762D01*
X141142857Y-138880952D01*
X141142857Y-140309524D01*
X141285714Y-140785714D01*
X141428571Y-141023810D01*
X141714285Y-141261905D01*
X142285714Y-141261905D01*
X142571428Y-141023810D01*
X138714285Y-141023810D02*
X138999999Y-141261905D01*
X139571428Y-141261905D01*
X139857142Y-141023810D01*
X139999999Y-140547619D01*
X139999999Y-138642857D01*
X139857142Y-138166667D01*
X139571428Y-137928571D01*
X138999999Y-137928571D01*
X138714285Y-138166667D01*
X138571428Y-138642857D01*
X138571428Y-139119048D01*
X139999999Y-139595238D01*
X134999999Y-141261905D02*
X134999999Y-136261905D01*
X133857142Y-136261905D01*
X133571428Y-136500000D01*
X133428571Y-136738095D01*
X133285714Y-137214286D01*
X133285714Y-137928571D01*
X133428571Y-138404762D01*
X133571428Y-138642857D01*
X133857142Y-138880952D01*
X134999999Y-138880952D01*
X130714285Y-141261905D02*
X130714285Y-138642857D01*
X130857142Y-138166667D01*
X131142856Y-137928571D01*
X131714285Y-137928571D01*
X131999999Y-138166667D01*
X130714285Y-141023810D02*
X130999999Y-141261905D01*
X131714285Y-141261905D01*
X131999999Y-141023810D01*
X132142856Y-140547619D01*
X132142856Y-140071429D01*
X131999999Y-139595238D01*
X131714285Y-139357143D01*
X130999999Y-139357143D01*
X130714285Y-139119048D01*
X127999999Y-141261905D02*
X127999999Y-136261905D01*
X127999999Y-141023810D02*
X128285713Y-141261905D01*
X128857142Y-141261905D01*
X129142856Y-141023810D01*
X129285713Y-140785714D01*
X129428570Y-140309524D01*
X129428570Y-138880952D01*
X129285713Y-138404762D01*
X129142856Y-138166667D01*
X128857142Y-137928571D01*
X128285713Y-137928571D01*
X127999999Y-138166667D01*
X126714284Y-141023810D02*
X126428570Y-141261905D01*
X125857142Y-141261905D01*
X125571427Y-141023810D01*
X125428570Y-140547619D01*
X125428570Y-140309524D01*
X125571427Y-139833333D01*
X125857142Y-139595238D01*
X126285713Y-139595238D01*
X126571427Y-139357143D01*
X126714284Y-138880952D01*
X126714284Y-138642857D01*
X126571427Y-138166667D01*
X126285713Y-137928571D01*
X125857142Y-137928571D01*
X125571427Y-138166667D01*
X120857142Y-138642857D02*
X120428571Y-138880952D01*
X120285714Y-139119048D01*
X120142857Y-139595238D01*
X120142857Y-140309524D01*
X120285714Y-140785714D01*
X120428571Y-141023810D01*
X120714285Y-141261905D01*
X121857142Y-141261905D01*
X121857142Y-136261905D01*
X120857142Y-136261905D01*
X120571428Y-136500000D01*
X120428571Y-136738095D01*
X120285714Y-137214286D01*
X120285714Y-137690476D01*
X120428571Y-138166667D01*
X120571428Y-138404762D01*
X120857142Y-138642857D01*
X121857142Y-138642857D01*
X118428571Y-141261905D02*
X118714285Y-141023810D01*
X118857142Y-140785714D01*
X118999999Y-140309524D01*
X118999999Y-138880952D01*
X118857142Y-138404762D01*
X118714285Y-138166667D01*
X118428571Y-137928571D01*
X117999999Y-137928571D01*
X117714285Y-138166667D01*
X117571428Y-138404762D01*
X117428571Y-138880952D01*
X117428571Y-140309524D01*
X117571428Y-140785714D01*
X117714285Y-141023810D01*
X117999999Y-141261905D01*
X118428571Y-141261905D01*
X114857142Y-141261905D02*
X114857142Y-138642857D01*
X114999999Y-138166667D01*
X115285713Y-137928571D01*
X115857142Y-137928571D01*
X116142856Y-138166667D01*
X114857142Y-141023810D02*
X115142856Y-141261905D01*
X115857142Y-141261905D01*
X116142856Y-141023810D01*
X116285713Y-140547619D01*
X116285713Y-140071429D01*
X116142856Y-139595238D01*
X115857142Y-139357143D01*
X115142856Y-139357143D01*
X114857142Y-139119048D01*
X113428570Y-141261905D02*
X113428570Y-137928571D01*
X113428570Y-138880952D02*
X113285713Y-138404762D01*
X113142856Y-138166667D01*
X112857142Y-137928571D01*
X112571427Y-137928571D01*
X110285713Y-141261905D02*
X110285713Y-136261905D01*
X110285713Y-141023810D02*
X110571427Y-141261905D01*
X111142856Y-141261905D01*
X111428570Y-141023810D01*
X111571427Y-140785714D01*
X111714284Y-140309524D01*
X111714284Y-138880952D01*
X111571427Y-138404762D01*
X111428570Y-138166667D01*
X111142856Y-137928571D01*
X110571427Y-137928571D01*
X110285713Y-138166667D01*
X104857142Y-141261905D02*
X105857142Y-138880952D01*
X106571427Y-141261905D02*
X106571427Y-136261905D01*
X105428570Y-136261905D01*
X105142856Y-136500000D01*
X104999999Y-136738095D01*
X104857142Y-137214286D01*
X104857142Y-137928571D01*
X104999999Y-138404762D01*
X105142856Y-138642857D01*
X105428570Y-138880952D01*
X106571427Y-138880952D01*
X102428570Y-141023810D02*
X102714284Y-141261905D01*
X103285713Y-141261905D01*
X103571427Y-141023810D01*
X103714284Y-140547619D01*
X103714284Y-138642857D01*
X103571427Y-138166667D01*
X103285713Y-137928571D01*
X102714284Y-137928571D01*
X102428570Y-138166667D01*
X102285713Y-138642857D01*
X102285713Y-139119048D01*
X103714284Y-139595238D01*
X101285713Y-137928571D02*
X100571427Y-141261905D01*
X99857141Y-137928571D01*
X94857142Y-141261905D02*
X96571427Y-141261905D01*
X95714285Y-141261905D02*
X95714285Y-136261905D01*
X95999999Y-136976190D01*
X96285713Y-137452381D01*
X96571427Y-137690476D01*
X93571427Y-140785714D02*
X93428570Y-141023810D01*
X93571427Y-141261905D01*
X93714284Y-141023810D01*
X93571427Y-140785714D01*
X93571427Y-141261905D01*
X91571428Y-136261905D02*
X91285713Y-136261905D01*
X90999999Y-136500000D01*
X90857142Y-136738095D01*
X90714285Y-137214286D01*
X90571428Y-138166667D01*
X90571428Y-139357143D01*
X90714285Y-140309524D01*
X90857142Y-140785714D01*
X90999999Y-141023810D01*
X91285713Y-141261905D01*
X91571428Y-141261905D01*
X91857142Y-141023810D01*
X91999999Y-140785714D01*
X92142856Y-140309524D01*
X92285713Y-139357143D01*
X92285713Y-138166667D01*
X92142856Y-137214286D01*
X91999999Y-136738095D01*
X91857142Y-136500000D01*
X91571428Y-136261905D01*
X88714285Y-136261905D02*
X88428570Y-136261905D01*
X88142856Y-136500000D01*
X87999999Y-136738095D01*
X87857142Y-137214286D01*
X87714285Y-138166667D01*
X87714285Y-139357143D01*
X87857142Y-140309524D01*
X87999999Y-140785714D01*
X88142856Y-141023810D01*
X88428570Y-141261905D01*
X88714285Y-141261905D01*
X88999999Y-141023810D01*
X89142856Y-140785714D01*
X89285713Y-140309524D01*
X89428570Y-139357143D01*
X89428570Y-138166667D01*
X89285713Y-137214286D01*
X89142856Y-136738095D01*
X88999999Y-136500000D01*
X88714285Y-136261905D01*
D12*
G36*
X102897334Y-97011333D02*
X137018000Y-97011333D01*
X137018000Y-96672667D01*
X136680534Y-96672667D01*
X103236000Y-96672667D01*
X103236000Y-95148667D01*
X127464875Y-95148667D01*
X126984977Y-94619500D01*
X126492133Y-93964457D01*
X126401853Y-93794000D01*
X124064000Y-93794000D01*
X123382463Y-93794000D01*
X122899429Y-93771761D01*
X122554886Y-93706728D01*
X122452562Y-93665567D01*
X122183386Y-93446113D01*
X122017735Y-93112916D01*
X121952409Y-92670697D01*
X121431099Y-92670697D01*
X121368451Y-93068796D01*
X121297590Y-93262778D01*
X121072625Y-93554318D01*
X120746601Y-93750979D01*
X120365097Y-93842569D01*
X119973691Y-93818894D01*
X119914311Y-93794000D01*
X118560667Y-93794000D01*
X118058799Y-93794000D01*
X118034566Y-92968500D01*
X118010334Y-92143000D01*
X117726587Y-92973296D01*
X117596561Y-93345712D01*
X117501354Y-93584828D01*
X117423633Y-93718446D01*
X117346064Y-93774368D01*
X117251315Y-93780395D01*
X117225117Y-93777629D01*
X117116683Y-93748153D01*
X117027711Y-93668835D01*
X116939485Y-93508835D01*
X116833286Y-93237316D01*
X116746863Y-92989667D01*
X116486334Y-92227667D01*
X116461990Y-93010833D01*
X116437646Y-93794000D01*
X115936000Y-93794000D01*
X115497853Y-93794000D01*
X115215654Y-93794000D01*
X115014601Y-93771962D01*
X114917121Y-93674088D01*
X114877667Y-93540000D01*
X114837038Y-93397576D01*
X114765231Y-93321735D01*
X114616983Y-93291528D01*
X114347029Y-93286004D01*
X114328889Y-93286000D01*
X114049802Y-93291596D01*
X113891768Y-93322426D01*
X113806558Y-93399556D01*
X113747354Y-93540000D01*
X113650538Y-93723695D01*
X113493815Y-93789362D01*
X113393349Y-93794000D01*
X113219405Y-93775237D01*
X113154832Y-93729616D01*
X113156112Y-93725113D01*
X113193869Y-93624796D01*
X113278588Y-93395578D01*
X113399166Y-93067622D01*
X113544499Y-92671093D01*
X113607667Y-92498422D01*
X113773240Y-92048320D01*
X113895160Y-91733207D01*
X113987799Y-91528989D01*
X114065524Y-91411574D01*
X114142706Y-91356868D01*
X114233714Y-91340777D01*
X114298765Y-91339643D01*
X114437483Y-91348921D01*
X114536735Y-91399997D01*
X114623451Y-91525900D01*
X114724563Y-91759660D01*
X114798460Y-91952500D01*
X114955704Y-92367949D01*
X115131276Y-92830756D01*
X115264121Y-93180167D01*
X115497853Y-93794000D01*
X115936000Y-93794000D01*
X115936000Y-91338667D01*
X112718667Y-91338667D01*
X112718667Y-93794000D01*
X112210667Y-93794000D01*
X112210667Y-91338667D01*
X111533334Y-91338667D01*
X111533334Y-93794000D01*
X111031688Y-93794000D01*
X110983000Y-92227886D01*
X110510690Y-92989776D01*
X110291311Y-93335396D01*
X110130684Y-93560550D01*
X110003746Y-93691909D01*
X109885437Y-93756144D01*
X109769857Y-93778198D01*
X109501334Y-93804729D01*
X109501334Y-91338667D01*
X110002979Y-91338667D01*
X110027323Y-92117918D01*
X110051667Y-92897170D01*
X110517334Y-92119334D01*
X110728182Y-91773135D01*
X110879763Y-91548090D01*
X110996724Y-91418272D01*
X111103714Y-91357756D01*
X111225379Y-91340616D01*
X111258167Y-91340082D01*
X111533334Y-91338667D01*
X112210667Y-91338667D01*
X112718667Y-91338667D01*
X115936000Y-91338667D01*
X116674632Y-91338667D01*
X116916273Y-92143000D01*
X117022820Y-92482465D01*
X117115822Y-92751105D01*
X117182773Y-92914262D01*
X117206461Y-92947333D01*
X117251626Y-92872317D01*
X117333832Y-92670438D01*
X117439577Y-92376445D01*
X117510709Y-92164167D01*
X117766409Y-91381000D01*
X118163538Y-91355194D01*
X118560667Y-91329389D01*
X118560667Y-93794000D01*
X119914311Y-93794000D01*
X119617961Y-93669761D01*
X119583997Y-93646015D01*
X119286094Y-93329474D01*
X119119760Y-92930721D01*
X119091677Y-92481897D01*
X119208522Y-92015142D01*
X119233207Y-91958115D01*
X119454460Y-91627895D01*
X119768716Y-91425877D01*
X120193262Y-91342236D01*
X120323045Y-91338667D01*
X120749112Y-91405860D01*
X121080583Y-91611981D01*
X121314025Y-91934604D01*
X121413273Y-92267050D01*
X121431099Y-92670697D01*
X121952409Y-92670697D01*
X121949765Y-92652804D01*
X121947334Y-92526961D01*
X121957231Y-92223597D01*
X122002942Y-92019621D01*
X122108494Y-91845498D01*
X122232159Y-91702715D01*
X122372844Y-91555939D01*
X122497514Y-91462728D01*
X122650653Y-91408466D01*
X122876744Y-91378533D01*
X123220272Y-91358313D01*
X123290492Y-91354936D01*
X124064000Y-91317954D01*
X124064000Y-93794000D01*
X126401853Y-93794000D01*
X126088735Y-93202811D01*
X125792892Y-92381474D01*
X125622710Y-91547360D01*
X125588000Y-91000000D01*
X125670857Y-90101086D01*
X125912886Y-89214952D01*
X126304283Y-88365293D01*
X126582234Y-87952000D01*
X124064000Y-87952000D01*
X124064000Y-90407333D01*
X123810000Y-90407333D01*
X123664793Y-90399514D01*
X123589213Y-90348269D01*
X123560527Y-90211920D01*
X123556001Y-89948788D01*
X123556000Y-89941667D01*
X123556000Y-89476000D01*
X123083821Y-89476000D01*
X122788842Y-89463099D01*
X122592759Y-89408464D01*
X122426073Y-89288196D01*
X122364154Y-89228513D01*
X122164254Y-88939858D01*
X122127982Y-88627207D01*
X122240536Y-88296722D01*
X122334104Y-88144118D01*
X122449543Y-88044390D01*
X122622417Y-87986498D01*
X122888290Y-87959407D01*
X123282728Y-87952077D01*
X123351259Y-87952000D01*
X121712066Y-87952000D01*
X121680745Y-88867094D01*
X121644782Y-89419560D01*
X121570440Y-89825368D01*
X121443060Y-90105525D01*
X121247982Y-90281035D01*
X120970548Y-90372907D01*
X120609629Y-90401966D01*
X120316208Y-90375630D01*
X120050450Y-90303683D01*
X120004975Y-90282906D01*
X119827087Y-90148567D01*
X119702644Y-89942744D01*
X119624378Y-89640041D01*
X119585025Y-89215067D01*
X119576667Y-88786032D01*
X119576667Y-87952000D01*
X118899334Y-87952000D01*
X118899334Y-90407333D01*
X118327834Y-90406861D01*
X117975928Y-90393091D01*
X117642315Y-90357820D01*
X117438969Y-90318252D01*
X117131243Y-90161764D01*
X116952815Y-89920441D01*
X116912868Y-89628805D01*
X117020584Y-89321375D01*
X117133885Y-89171208D01*
X117239544Y-89033778D01*
X117226955Y-88943766D01*
X117166488Y-88885674D01*
X117075904Y-88730262D01*
X117036709Y-88503981D01*
X117036667Y-88496767D01*
X117069699Y-88268773D01*
X117183641Y-88111163D01*
X117400764Y-88013100D01*
X117743340Y-87963748D01*
X118156173Y-87952000D01*
X116359334Y-87952000D01*
X116359334Y-90407333D01*
X114666000Y-90407333D01*
X114666000Y-89899333D01*
X115851334Y-89899333D01*
X115851334Y-87952000D01*
X114158000Y-87952000D01*
X114158000Y-90407333D01*
X113650000Y-90407333D01*
X113650000Y-89264375D01*
X113103734Y-89264375D01*
X113003767Y-89642226D01*
X112815635Y-89987384D01*
X112564681Y-90246010D01*
X112422334Y-90326559D01*
X112102658Y-90394119D01*
X111730551Y-90383157D01*
X111401293Y-90297954D01*
X111361229Y-90278900D01*
X111134111Y-90096236D01*
X110950923Y-89836906D01*
X110859195Y-89572067D01*
X110856000Y-89522538D01*
X110925553Y-89419826D01*
X111110000Y-89391333D01*
X111311653Y-89429197D01*
X111364000Y-89518333D01*
X111436639Y-89703794D01*
X111613756Y-89872833D01*
X111834154Y-89974027D01*
X111918182Y-89984000D01*
X112126392Y-89925409D01*
X112333894Y-89783665D01*
X112341516Y-89776182D01*
X112504718Y-89504970D01*
X112564379Y-89164305D01*
X112520497Y-88818724D01*
X112373072Y-88532761D01*
X112341516Y-88498485D01*
X112103169Y-88328225D01*
X111866313Y-88315178D01*
X111601767Y-88459483D01*
X111548774Y-88502333D01*
X111366105Y-88616030D01*
X111155730Y-88694416D01*
X110970861Y-88724805D01*
X110864710Y-88694516D01*
X110856000Y-88667462D01*
X110919780Y-88473539D01*
X111078091Y-88251509D01*
X111281396Y-88062243D01*
X111409238Y-87987663D01*
X111863572Y-87873984D01*
X112276746Y-87918139D01*
X112630623Y-88110200D01*
X112907064Y-88440239D01*
X113087930Y-88898331D01*
X113090194Y-88907672D01*
X113103734Y-89264375D01*
X113650000Y-89264375D01*
X113650000Y-87952000D01*
X114158000Y-87952000D01*
X115851334Y-87952000D01*
X116359334Y-87952000D01*
X118156173Y-87952000D01*
X118899334Y-87952000D01*
X119576667Y-87952000D01*
X120084667Y-87952000D01*
X120084667Y-88779828D01*
X120100031Y-89275104D01*
X120151348Y-89623231D01*
X120246459Y-89844039D01*
X120393205Y-89957362D01*
X120560701Y-89984000D01*
X120781466Y-89971085D01*
X120932520Y-89914577D01*
X121026900Y-89787827D01*
X121077645Y-89564189D01*
X121097790Y-89217016D01*
X121100667Y-88880354D01*
X121100667Y-87952000D01*
X121712066Y-87952000D01*
X123351259Y-87952000D01*
X124064000Y-87952000D01*
X126582234Y-87952000D01*
X126835238Y-87575804D01*
X127161109Y-87199173D01*
X127806925Y-86512667D01*
X115517594Y-86512667D01*
X103228264Y-86512666D01*
X103253299Y-85941166D01*
X103278334Y-85369667D01*
X136637000Y-85369667D01*
X136680534Y-96672667D01*
X137018000Y-96672667D01*
X137018000Y-84988667D01*
X102897334Y-84988667D01*
X102897334Y-97011333D01*
X102897334Y-97011333D01*
G37*
X102897334Y-97011333D02*
X137018000Y-97011333D01*
X137018000Y-96672667D01*
X136680534Y-96672667D01*
X103236000Y-96672667D01*
X103236000Y-95148667D01*
X127464875Y-95148667D01*
X126984977Y-94619500D01*
X126492133Y-93964457D01*
X126401853Y-93794000D01*
X124064000Y-93794000D01*
X123382463Y-93794000D01*
X122899429Y-93771761D01*
X122554886Y-93706728D01*
X122452562Y-93665567D01*
X122183386Y-93446113D01*
X122017735Y-93112916D01*
X121952409Y-92670697D01*
X121431099Y-92670697D01*
X121368451Y-93068796D01*
X121297590Y-93262778D01*
X121072625Y-93554318D01*
X120746601Y-93750979D01*
X120365097Y-93842569D01*
X119973691Y-93818894D01*
X119914311Y-93794000D01*
X118560667Y-93794000D01*
X118058799Y-93794000D01*
X118034566Y-92968500D01*
X118010334Y-92143000D01*
X117726587Y-92973296D01*
X117596561Y-93345712D01*
X117501354Y-93584828D01*
X117423633Y-93718446D01*
X117346064Y-93774368D01*
X117251315Y-93780395D01*
X117225117Y-93777629D01*
X117116683Y-93748153D01*
X117027711Y-93668835D01*
X116939485Y-93508835D01*
X116833286Y-93237316D01*
X116746863Y-92989667D01*
X116486334Y-92227667D01*
X116461990Y-93010833D01*
X116437646Y-93794000D01*
X115936000Y-93794000D01*
X115497853Y-93794000D01*
X115215654Y-93794000D01*
X115014601Y-93771962D01*
X114917121Y-93674088D01*
X114877667Y-93540000D01*
X114837038Y-93397576D01*
X114765231Y-93321735D01*
X114616983Y-93291528D01*
X114347029Y-93286004D01*
X114328889Y-93286000D01*
X114049802Y-93291596D01*
X113891768Y-93322426D01*
X113806558Y-93399556D01*
X113747354Y-93540000D01*
X113650538Y-93723695D01*
X113493815Y-93789362D01*
X113393349Y-93794000D01*
X113219405Y-93775237D01*
X113154832Y-93729616D01*
X113156112Y-93725113D01*
X113193869Y-93624796D01*
X113278588Y-93395578D01*
X113399166Y-93067622D01*
X113544499Y-92671093D01*
X113607667Y-92498422D01*
X113773240Y-92048320D01*
X113895160Y-91733207D01*
X113987799Y-91528989D01*
X114065524Y-91411574D01*
X114142706Y-91356868D01*
X114233714Y-91340777D01*
X114298765Y-91339643D01*
X114437483Y-91348921D01*
X114536735Y-91399997D01*
X114623451Y-91525900D01*
X114724563Y-91759660D01*
X114798460Y-91952500D01*
X114955704Y-92367949D01*
X115131276Y-92830756D01*
X115264121Y-93180167D01*
X115497853Y-93794000D01*
X115936000Y-93794000D01*
X115936000Y-91338667D01*
X112718667Y-91338667D01*
X112718667Y-93794000D01*
X112210667Y-93794000D01*
X112210667Y-91338667D01*
X111533334Y-91338667D01*
X111533334Y-93794000D01*
X111031688Y-93794000D01*
X110983000Y-92227886D01*
X110510690Y-92989776D01*
X110291311Y-93335396D01*
X110130684Y-93560550D01*
X110003746Y-93691909D01*
X109885437Y-93756144D01*
X109769857Y-93778198D01*
X109501334Y-93804729D01*
X109501334Y-91338667D01*
X110002979Y-91338667D01*
X110027323Y-92117918D01*
X110051667Y-92897170D01*
X110517334Y-92119334D01*
X110728182Y-91773135D01*
X110879763Y-91548090D01*
X110996724Y-91418272D01*
X111103714Y-91357756D01*
X111225379Y-91340616D01*
X111258167Y-91340082D01*
X111533334Y-91338667D01*
X112210667Y-91338667D01*
X112718667Y-91338667D01*
X115936000Y-91338667D01*
X116674632Y-91338667D01*
X116916273Y-92143000D01*
X117022820Y-92482465D01*
X117115822Y-92751105D01*
X117182773Y-92914262D01*
X117206461Y-92947333D01*
X117251626Y-92872317D01*
X117333832Y-92670438D01*
X117439577Y-92376445D01*
X117510709Y-92164167D01*
X117766409Y-91381000D01*
X118163538Y-91355194D01*
X118560667Y-91329389D01*
X118560667Y-93794000D01*
X119914311Y-93794000D01*
X119617961Y-93669761D01*
X119583997Y-93646015D01*
X119286094Y-93329474D01*
X119119760Y-92930721D01*
X119091677Y-92481897D01*
X119208522Y-92015142D01*
X119233207Y-91958115D01*
X119454460Y-91627895D01*
X119768716Y-91425877D01*
X120193262Y-91342236D01*
X120323045Y-91338667D01*
X120749112Y-91405860D01*
X121080583Y-91611981D01*
X121314025Y-91934604D01*
X121413273Y-92267050D01*
X121431099Y-92670697D01*
X121952409Y-92670697D01*
X121949765Y-92652804D01*
X121947334Y-92526961D01*
X121957231Y-92223597D01*
X122002942Y-92019621D01*
X122108494Y-91845498D01*
X122232159Y-91702715D01*
X122372844Y-91555939D01*
X122497514Y-91462728D01*
X122650653Y-91408466D01*
X122876744Y-91378533D01*
X123220272Y-91358313D01*
X123290492Y-91354936D01*
X124064000Y-91317954D01*
X124064000Y-93794000D01*
X126401853Y-93794000D01*
X126088735Y-93202811D01*
X125792892Y-92381474D01*
X125622710Y-91547360D01*
X125588000Y-91000000D01*
X125670857Y-90101086D01*
X125912886Y-89214952D01*
X126304283Y-88365293D01*
X126582234Y-87952000D01*
X124064000Y-87952000D01*
X124064000Y-90407333D01*
X123810000Y-90407333D01*
X123664793Y-90399514D01*
X123589213Y-90348269D01*
X123560527Y-90211920D01*
X123556001Y-89948788D01*
X123556000Y-89941667D01*
X123556000Y-89476000D01*
X123083821Y-89476000D01*
X122788842Y-89463099D01*
X122592759Y-89408464D01*
X122426073Y-89288196D01*
X122364154Y-89228513D01*
X122164254Y-88939858D01*
X122127982Y-88627207D01*
X122240536Y-88296722D01*
X122334104Y-88144118D01*
X122449543Y-88044390D01*
X122622417Y-87986498D01*
X122888290Y-87959407D01*
X123282728Y-87952077D01*
X123351259Y-87952000D01*
X121712066Y-87952000D01*
X121680745Y-88867094D01*
X121644782Y-89419560D01*
X121570440Y-89825368D01*
X121443060Y-90105525D01*
X121247982Y-90281035D01*
X120970548Y-90372907D01*
X120609629Y-90401966D01*
X120316208Y-90375630D01*
X120050450Y-90303683D01*
X120004975Y-90282906D01*
X119827087Y-90148567D01*
X119702644Y-89942744D01*
X119624378Y-89640041D01*
X119585025Y-89215067D01*
X119576667Y-88786032D01*
X119576667Y-87952000D01*
X118899334Y-87952000D01*
X118899334Y-90407333D01*
X118327834Y-90406861D01*
X117975928Y-90393091D01*
X117642315Y-90357820D01*
X117438969Y-90318252D01*
X117131243Y-90161764D01*
X116952815Y-89920441D01*
X116912868Y-89628805D01*
X117020584Y-89321375D01*
X117133885Y-89171208D01*
X117239544Y-89033778D01*
X117226955Y-88943766D01*
X117166488Y-88885674D01*
X117075904Y-88730262D01*
X117036709Y-88503981D01*
X117036667Y-88496767D01*
X117069699Y-88268773D01*
X117183641Y-88111163D01*
X117400764Y-88013100D01*
X117743340Y-87963748D01*
X118156173Y-87952000D01*
X116359334Y-87952000D01*
X116359334Y-90407333D01*
X114666000Y-90407333D01*
X114666000Y-89899333D01*
X115851334Y-89899333D01*
X115851334Y-87952000D01*
X114158000Y-87952000D01*
X114158000Y-90407333D01*
X113650000Y-90407333D01*
X113650000Y-89264375D01*
X113103734Y-89264375D01*
X113003767Y-89642226D01*
X112815635Y-89987384D01*
X112564681Y-90246010D01*
X112422334Y-90326559D01*
X112102658Y-90394119D01*
X111730551Y-90383157D01*
X111401293Y-90297954D01*
X111361229Y-90278900D01*
X111134111Y-90096236D01*
X110950923Y-89836906D01*
X110859195Y-89572067D01*
X110856000Y-89522538D01*
X110925553Y-89419826D01*
X111110000Y-89391333D01*
X111311653Y-89429197D01*
X111364000Y-89518333D01*
X111436639Y-89703794D01*
X111613756Y-89872833D01*
X111834154Y-89974027D01*
X111918182Y-89984000D01*
X112126392Y-89925409D01*
X112333894Y-89783665D01*
X112341516Y-89776182D01*
X112504718Y-89504970D01*
X112564379Y-89164305D01*
X112520497Y-88818724D01*
X112373072Y-88532761D01*
X112341516Y-88498485D01*
X112103169Y-88328225D01*
X111866313Y-88315178D01*
X111601767Y-88459483D01*
X111548774Y-88502333D01*
X111366105Y-88616030D01*
X111155730Y-88694416D01*
X110970861Y-88724805D01*
X110864710Y-88694516D01*
X110856000Y-88667462D01*
X110919780Y-88473539D01*
X111078091Y-88251509D01*
X111281396Y-88062243D01*
X111409238Y-87987663D01*
X111863572Y-87873984D01*
X112276746Y-87918139D01*
X112630623Y-88110200D01*
X112907064Y-88440239D01*
X113087930Y-88898331D01*
X113090194Y-88907672D01*
X113103734Y-89264375D01*
X113650000Y-89264375D01*
X113650000Y-87952000D01*
X114158000Y-87952000D01*
X115851334Y-87952000D01*
X116359334Y-87952000D01*
X118156173Y-87952000D01*
X118899334Y-87952000D01*
X119576667Y-87952000D01*
X120084667Y-87952000D01*
X120084667Y-88779828D01*
X120100031Y-89275104D01*
X120151348Y-89623231D01*
X120246459Y-89844039D01*
X120393205Y-89957362D01*
X120560701Y-89984000D01*
X120781466Y-89971085D01*
X120932520Y-89914577D01*
X121026900Y-89787827D01*
X121077645Y-89564189D01*
X121097790Y-89217016D01*
X121100667Y-88880354D01*
X121100667Y-87952000D01*
X121712066Y-87952000D01*
X123351259Y-87952000D01*
X124064000Y-87952000D01*
X126582234Y-87952000D01*
X126835238Y-87575804D01*
X127161109Y-87199173D01*
X127806925Y-86512667D01*
X115517594Y-86512667D01*
X103228264Y-86512666D01*
X103253299Y-85941166D01*
X103278334Y-85369667D01*
X136637000Y-85369667D01*
X136680534Y-96672667D01*
X137018000Y-96672667D01*
X137018000Y-84988667D01*
X102897334Y-84988667D01*
X102897334Y-97011333D01*
G36*
X130450018Y-86504492D02*
X129631130Y-86728139D01*
X128886051Y-87102615D01*
X128208786Y-87630341D01*
X128090371Y-87745037D01*
X127534322Y-88404645D01*
X127133473Y-89121036D01*
X126882868Y-89906462D01*
X126777546Y-90773178D01*
X126773334Y-91000000D01*
X126836680Y-91861207D01*
X127033609Y-92636643D01*
X127374458Y-93356657D01*
X127771375Y-93930520D01*
X128127912Y-94302813D01*
X128593643Y-94676630D01*
X129113255Y-95013348D01*
X129631438Y-95274347D01*
X129779000Y-95332346D01*
X130226753Y-95448849D01*
X130775718Y-95523225D01*
X131364416Y-95552999D01*
X131931367Y-95535699D01*
X132415093Y-95468854D01*
X132521157Y-95442632D01*
X133292624Y-95142297D01*
X134001403Y-94698907D01*
X134626317Y-94133577D01*
X135146191Y-93467417D01*
X135539846Y-92721541D01*
X135697592Y-92275799D01*
X135781661Y-91846781D01*
X135823762Y-91316832D01*
X135823762Y-90817076D01*
X134969009Y-90817076D01*
X134932530Y-91612960D01*
X134742836Y-92338166D01*
X134396998Y-93000046D01*
X133892086Y-93605952D01*
X133835482Y-93661115D01*
X133220743Y-94140193D01*
X132539303Y-94474633D01*
X131814024Y-94659553D01*
X131067763Y-94690067D01*
X130323381Y-94561292D01*
X130047883Y-94470373D01*
X129557486Y-94232745D01*
X129059251Y-93899922D01*
X128609264Y-93514816D01*
X128263612Y-93120342D01*
X128240797Y-93087692D01*
X127918530Y-92478660D01*
X127710609Y-91786066D01*
X127625916Y-91058829D01*
X127673334Y-90345870D01*
X127709738Y-90163041D01*
X127936908Y-89513437D01*
X128298076Y-88892611D01*
X128763153Y-88338757D01*
X129302054Y-87890068D01*
X129667484Y-87677825D01*
X130407651Y-87405683D01*
X131153121Y-87294722D01*
X131885605Y-87338443D01*
X132586813Y-87530346D01*
X133238455Y-87863931D01*
X133822241Y-88332697D01*
X134319881Y-88930145D01*
X134614336Y-89435861D01*
X134781669Y-89796077D01*
X134883214Y-90091062D01*
X134938696Y-90397640D01*
X134967843Y-90792634D01*
X134969009Y-90817076D01*
X135823762Y-90817076D01*
X135823763Y-90749106D01*
X135781530Y-90206759D01*
X135702881Y-89775293D01*
X135503075Y-89189418D01*
X135210434Y-88646125D01*
X134799493Y-88102462D01*
X134542395Y-87817801D01*
X133897562Y-87237731D01*
X133206789Y-86817998D01*
X132456613Y-86552748D01*
X131633573Y-86436128D01*
X131348712Y-86429251D01*
X130450018Y-86504492D01*
X130450018Y-86504492D01*
G37*
X130450018Y-86504492D02*
X129631130Y-86728139D01*
X128886051Y-87102615D01*
X128208786Y-87630341D01*
X128090371Y-87745037D01*
X127534322Y-88404645D01*
X127133473Y-89121036D01*
X126882868Y-89906462D01*
X126777546Y-90773178D01*
X126773334Y-91000000D01*
X126836680Y-91861207D01*
X127033609Y-92636643D01*
X127374458Y-93356657D01*
X127771375Y-93930520D01*
X128127912Y-94302813D01*
X128593643Y-94676630D01*
X129113255Y-95013348D01*
X129631438Y-95274347D01*
X129779000Y-95332346D01*
X130226753Y-95448849D01*
X130775718Y-95523225D01*
X131364416Y-95552999D01*
X131931367Y-95535699D01*
X132415093Y-95468854D01*
X132521157Y-95442632D01*
X133292624Y-95142297D01*
X134001403Y-94698907D01*
X134626317Y-94133577D01*
X135146191Y-93467417D01*
X135539846Y-92721541D01*
X135697592Y-92275799D01*
X135781661Y-91846781D01*
X135823762Y-91316832D01*
X135823762Y-90817076D01*
X134969009Y-90817076D01*
X134932530Y-91612960D01*
X134742836Y-92338166D01*
X134396998Y-93000046D01*
X133892086Y-93605952D01*
X133835482Y-93661115D01*
X133220743Y-94140193D01*
X132539303Y-94474633D01*
X131814024Y-94659553D01*
X131067763Y-94690067D01*
X130323381Y-94561292D01*
X130047883Y-94470373D01*
X129557486Y-94232745D01*
X129059251Y-93899922D01*
X128609264Y-93514816D01*
X128263612Y-93120342D01*
X128240797Y-93087692D01*
X127918530Y-92478660D01*
X127710609Y-91786066D01*
X127625916Y-91058829D01*
X127673334Y-90345870D01*
X127709738Y-90163041D01*
X127936908Y-89513437D01*
X128298076Y-88892611D01*
X128763153Y-88338757D01*
X129302054Y-87890068D01*
X129667484Y-87677825D01*
X130407651Y-87405683D01*
X131153121Y-87294722D01*
X131885605Y-87338443D01*
X132586813Y-87530346D01*
X133238455Y-87863931D01*
X133822241Y-88332697D01*
X134319881Y-88930145D01*
X134614336Y-89435861D01*
X134781669Y-89796077D01*
X134883214Y-90091062D01*
X134938696Y-90397640D01*
X134967843Y-90792634D01*
X134969009Y-90817076D01*
X135823762Y-90817076D01*
X135823763Y-90749106D01*
X135781530Y-90206759D01*
X135702881Y-89775293D01*
X135503075Y-89189418D01*
X135210434Y-88646125D01*
X134799493Y-88102462D01*
X134542395Y-87817801D01*
X133897562Y-87237731D01*
X133206789Y-86817998D01*
X132456613Y-86552748D01*
X131633573Y-86436128D01*
X131348712Y-86429251D01*
X130450018Y-86504492D01*
G36*
X119958103Y-91848273D02*
X119765954Y-92035190D01*
X119642551Y-92297000D01*
X119610246Y-92610409D01*
X119691389Y-92952123D01*
X119720113Y-93015547D01*
X119842404Y-93221788D01*
X119986991Y-93318123D01*
X120223229Y-93353899D01*
X120472103Y-93351626D01*
X120634543Y-93278573D01*
X120752395Y-93151981D01*
X120901595Y-92846789D01*
X120936377Y-92498674D01*
X120858255Y-92169681D01*
X120723516Y-91969818D01*
X120459235Y-91792293D01*
X120196647Y-91759542D01*
X119958103Y-91848273D01*
X119958103Y-91848273D01*
G37*
X119958103Y-91848273D02*
X119765954Y-92035190D01*
X119642551Y-92297000D01*
X119610246Y-92610409D01*
X119691389Y-92952123D01*
X119720113Y-93015547D01*
X119842404Y-93221788D01*
X119986991Y-93318123D01*
X120223229Y-93353899D01*
X120472103Y-93351626D01*
X120634543Y-93278573D01*
X120752395Y-93151981D01*
X120901595Y-92846789D01*
X120936377Y-92498674D01*
X120858255Y-92169681D01*
X120723516Y-91969818D01*
X120459235Y-91792293D01*
X120196647Y-91759542D01*
X119958103Y-91848273D01*
G36*
X122818309Y-91895812D02*
X122589133Y-92051922D01*
X122474531Y-92328009D01*
X122455334Y-92570182D01*
X122517795Y-92948296D01*
X122700698Y-93210367D01*
X122997319Y-93349296D01*
X123213485Y-93370667D01*
X123556000Y-93370667D01*
X123556000Y-91846667D01*
X123175000Y-91846667D01*
X122818309Y-91895812D01*
X122818309Y-91895812D01*
G37*
X122818309Y-91895812D02*
X122589133Y-92051922D01*
X122474531Y-92328009D01*
X122455334Y-92570182D01*
X122517795Y-92948296D01*
X122700698Y-93210367D01*
X122997319Y-93349296D01*
X123213485Y-93370667D01*
X123556000Y-93370667D01*
X123556000Y-91846667D01*
X123175000Y-91846667D01*
X122818309Y-91895812D01*
G36*
X114254353Y-92118130D02*
X114181563Y-92318258D01*
X114133071Y-92460500D01*
X113998945Y-92862667D01*
X114299318Y-92862667D01*
X114496418Y-92851522D01*
X114565745Y-92795066D01*
X114548512Y-92658769D01*
X114547503Y-92654734D01*
X114475963Y-92409097D01*
X114396569Y-92191851D01*
X114328530Y-92050848D01*
X114294896Y-92025424D01*
X114254353Y-92118130D01*
X114254353Y-92118130D01*
G37*
X114254353Y-92118130D02*
X114181563Y-92318258D01*
X114133071Y-92460500D01*
X113998945Y-92862667D01*
X114299318Y-92862667D01*
X114496418Y-92851522D01*
X114565745Y-92795066D01*
X114548512Y-92658769D01*
X114547503Y-92654734D01*
X114475963Y-92409097D01*
X114396569Y-92191851D01*
X114328530Y-92050848D01*
X114294896Y-92025424D01*
X114254353Y-92118130D01*
G36*
X123162507Y-88391861D02*
X122839001Y-88450135D01*
X122676106Y-88565833D01*
X122624233Y-88760883D01*
X122725930Y-88913308D01*
X122968105Y-89010451D01*
X123162507Y-89036139D01*
X123556000Y-89061944D01*
X123556000Y-88366055D01*
X123162507Y-88391861D01*
X123162507Y-88391861D01*
G37*
X123162507Y-88391861D02*
X122839001Y-88450135D01*
X122676106Y-88565833D01*
X122624233Y-88760883D01*
X122725930Y-88913308D01*
X122968105Y-89010451D01*
X123162507Y-89036139D01*
X123556000Y-89061944D01*
X123556000Y-88366055D01*
X123162507Y-88391861D01*
G36*
X117946834Y-89323409D02*
X117684266Y-89346926D01*
X117546057Y-89393077D01*
X117487235Y-89483934D01*
X117473126Y-89555923D01*
X117512725Y-89777005D01*
X117695309Y-89922340D01*
X118008189Y-89982809D01*
X118068849Y-89984000D01*
X118274353Y-89975373D01*
X118366342Y-89917120D01*
X118390461Y-89760677D01*
X118391334Y-89640909D01*
X118391334Y-89297817D01*
X117946834Y-89323409D01*
X117946834Y-89323409D01*
G37*
X117946834Y-89323409D02*
X117684266Y-89346926D01*
X117546057Y-89393077D01*
X117487235Y-89483934D01*
X117473126Y-89555923D01*
X117512725Y-89777005D01*
X117695309Y-89922340D01*
X118008189Y-89982809D01*
X118068849Y-89984000D01*
X118274353Y-89975373D01*
X118366342Y-89917120D01*
X118390461Y-89760677D01*
X118391334Y-89640909D01*
X118391334Y-89297817D01*
X117946834Y-89323409D01*
G36*
X117989167Y-88391861D02*
X117745273Y-88416321D01*
X117626626Y-88465834D01*
X117589144Y-88566428D01*
X117587000Y-88629333D01*
X117603740Y-88758773D01*
X117683349Y-88826327D01*
X117869909Y-88858025D01*
X117989167Y-88866805D01*
X118231389Y-88877042D01*
X118349374Y-88849189D01*
X118387817Y-88756857D01*
X118391334Y-88629333D01*
X118383229Y-88471283D01*
X118329118Y-88397516D01*
X118184309Y-88381642D01*
X117989167Y-88391861D01*
X117989167Y-88391861D01*
G37*
X117989167Y-88391861D02*
X117745273Y-88416321D01*
X117626626Y-88465834D01*
X117589144Y-88566428D01*
X117587000Y-88629333D01*
X117603740Y-88758773D01*
X117683349Y-88826327D01*
X117869909Y-88858025D01*
X117989167Y-88866805D01*
X118231389Y-88877042D01*
X118349374Y-88849189D01*
X118387817Y-88756857D01*
X118391334Y-88629333D01*
X118383229Y-88471283D01*
X118329118Y-88397516D01*
X118184309Y-88381642D01*
X117989167Y-88391861D01*
G36*
X130758401Y-88449131D02*
X130299510Y-88668650D01*
X129929416Y-89031078D01*
X129651862Y-89533601D01*
X129608725Y-89648004D01*
X129481488Y-90165475D01*
X129423750Y-90760441D01*
X129433347Y-91380233D01*
X129508112Y-91972177D01*
X129645881Y-92483604D01*
X129733568Y-92684663D01*
X129983908Y-93054327D01*
X130302728Y-93358149D01*
X130610012Y-93534613D01*
X130926426Y-93606385D01*
X131310931Y-93626762D01*
X131698038Y-93598650D01*
X132022254Y-93524957D01*
X132149667Y-93466280D01*
X132515125Y-93178241D01*
X132803074Y-92800757D01*
X132969447Y-92480612D01*
X133014295Y-92371362D01*
X131684000Y-92371362D01*
X131613231Y-92518619D01*
X131434198Y-92594880D01*
X131196812Y-92589597D01*
X130993933Y-92517185D01*
X130800705Y-92321506D01*
X130652779Y-91969729D01*
X130553071Y-91469698D01*
X130531060Y-91271501D01*
X130504090Y-90871267D01*
X130515619Y-90622761D01*
X130571598Y-90526416D01*
X130677978Y-90582662D01*
X130840712Y-90791932D01*
X131065751Y-91154657D01*
X131159861Y-91317115D01*
X131361069Y-91679317D01*
X131526526Y-91997486D01*
X131639659Y-92238287D01*
X131683895Y-92368383D01*
X131684000Y-92371362D01*
X133014295Y-92371362D01*
X133052862Y-92277417D01*
X133108489Y-92073861D01*
X133141710Y-91828654D01*
X133157911Y-91500503D01*
X133161818Y-91113228D01*
X132105530Y-91113228D01*
X132098065Y-91336196D01*
X132070312Y-91459518D01*
X132033667Y-91461433D01*
X131966302Y-91357666D01*
X131839702Y-91137472D01*
X131672858Y-90834609D01*
X131509948Y-90530522D01*
X131287442Y-90086431D01*
X131159320Y-89765972D01*
X131123369Y-89553701D01*
X131177371Y-89434177D01*
X131319113Y-89391955D01*
X131346525Y-89391333D01*
X131579860Y-89470870D01*
X131790042Y-89688974D01*
X131952589Y-90014883D01*
X132012685Y-90228337D01*
X132062190Y-90521109D01*
X132093355Y-90828802D01*
X132105530Y-91113228D01*
X133161818Y-91113228D01*
X133162475Y-91048117D01*
X133162499Y-91000000D01*
X133158726Y-90534558D01*
X133143812Y-90197027D01*
X133112360Y-89946081D01*
X133058974Y-89740396D01*
X132978260Y-89538644D01*
X132969044Y-89518333D01*
X132682431Y-89017310D01*
X132341554Y-88668885D01*
X131927429Y-88460039D01*
X131421070Y-88377753D01*
X131302347Y-88375333D01*
X130758401Y-88449131D01*
X130758401Y-88449131D01*
G37*
X130758401Y-88449131D02*
X130299510Y-88668650D01*
X129929416Y-89031078D01*
X129651862Y-89533601D01*
X129608725Y-89648004D01*
X129481488Y-90165475D01*
X129423750Y-90760441D01*
X129433347Y-91380233D01*
X129508112Y-91972177D01*
X129645881Y-92483604D01*
X129733568Y-92684663D01*
X129983908Y-93054327D01*
X130302728Y-93358149D01*
X130610012Y-93534613D01*
X130926426Y-93606385D01*
X131310931Y-93626762D01*
X131698038Y-93598650D01*
X132022254Y-93524957D01*
X132149667Y-93466280D01*
X132515125Y-93178241D01*
X132803074Y-92800757D01*
X132969447Y-92480612D01*
X133014295Y-92371362D01*
X131684000Y-92371362D01*
X131613231Y-92518619D01*
X131434198Y-92594880D01*
X131196812Y-92589597D01*
X130993933Y-92517185D01*
X130800705Y-92321506D01*
X130652779Y-91969729D01*
X130553071Y-91469698D01*
X130531060Y-91271501D01*
X130504090Y-90871267D01*
X130515619Y-90622761D01*
X130571598Y-90526416D01*
X130677978Y-90582662D01*
X130840712Y-90791932D01*
X131065751Y-91154657D01*
X131159861Y-91317115D01*
X131361069Y-91679317D01*
X131526526Y-91997486D01*
X131639659Y-92238287D01*
X131683895Y-92368383D01*
X131684000Y-92371362D01*
X133014295Y-92371362D01*
X133052862Y-92277417D01*
X133108489Y-92073861D01*
X133141710Y-91828654D01*
X133157911Y-91500503D01*
X133161818Y-91113228D01*
X132105530Y-91113228D01*
X132098065Y-91336196D01*
X132070312Y-91459518D01*
X132033667Y-91461433D01*
X131966302Y-91357666D01*
X131839702Y-91137472D01*
X131672858Y-90834609D01*
X131509948Y-90530522D01*
X131287442Y-90086431D01*
X131159320Y-89765972D01*
X131123369Y-89553701D01*
X131177371Y-89434177D01*
X131319113Y-89391955D01*
X131346525Y-89391333D01*
X131579860Y-89470870D01*
X131790042Y-89688974D01*
X131952589Y-90014883D01*
X132012685Y-90228337D01*
X132062190Y-90521109D01*
X132093355Y-90828802D01*
X132105530Y-91113228D01*
X133161818Y-91113228D01*
X133162475Y-91048117D01*
X133162499Y-91000000D01*
X133158726Y-90534558D01*
X133143812Y-90197027D01*
X133112360Y-89946081D01*
X133058974Y-89740396D01*
X132978260Y-89538644D01*
X132969044Y-89518333D01*
X132682431Y-89017310D01*
X132341554Y-88668885D01*
X131927429Y-88460039D01*
X131421070Y-88377753D01*
X131302347Y-88375333D01*
X130758401Y-88449131D01*
D13*
X154750000Y-64750000D02*
X151750000Y-64750000D01*
X151750000Y-67250000D02*
X154750000Y-67250000D01*
X151620000Y-56002540D02*
X152636000Y-56002540D01*
X146794000Y-56002540D02*
X145524000Y-56002540D01*
X147048000Y-57272540D02*
X147048000Y-54732540D01*
X147302000Y-57272540D02*
X147302000Y-54732540D01*
X147556000Y-57272540D02*
X147556000Y-54732540D01*
X146794000Y-57272540D02*
X146794000Y-54732540D01*
X147810000Y-57272540D02*
X146540000Y-54732540D01*
X146540000Y-57272540D02*
X147810000Y-54732540D01*
X147810000Y-57272540D02*
X147810000Y-54732540D01*
X147175000Y-57272540D02*
X147175000Y-54732540D01*
X146540000Y-54732540D02*
X146540000Y-57272540D01*
X146540000Y-57272540D02*
X151620000Y-57272540D01*
X151620000Y-57272540D02*
X151620000Y-54732540D01*
X151620000Y-54732540D02*
X146540000Y-54732540D01*
X146540000Y-61000000D02*
X145524000Y-61000000D01*
X151366000Y-61000000D02*
X152636000Y-61000000D01*
X151112000Y-59730000D02*
X151112000Y-62270000D01*
X150858000Y-59730000D02*
X150858000Y-62270000D01*
X150604000Y-59730000D02*
X150604000Y-62270000D01*
X151366000Y-59730000D02*
X151366000Y-62270000D01*
X150350000Y-59730000D02*
X151620000Y-62270000D01*
X151620000Y-59730000D02*
X150350000Y-62270000D01*
X150350000Y-59730000D02*
X150350000Y-62270000D01*
X150985000Y-59730000D02*
X150985000Y-62270000D01*
X151620000Y-62270000D02*
X151620000Y-59730000D01*
X151620000Y-59730000D02*
X146540000Y-59730000D01*
X146540000Y-59730000D02*
X146540000Y-62270000D01*
X146540000Y-62270000D02*
X151620000Y-62270000D01*
X139270000Y-55110000D02*
X139270000Y-72890000D01*
X134190000Y-70350000D02*
X134190000Y-55110000D01*
X139270000Y-55110000D02*
X134190000Y-55110000D01*
X139270000Y-72890000D02*
X136730000Y-72890000D01*
X135460000Y-73170000D02*
X133910000Y-73170000D01*
X136730000Y-72890000D02*
X136730000Y-70350000D01*
X136730000Y-70350000D02*
X134190000Y-70350000D01*
X133910000Y-73170000D02*
X133910000Y-71620000D01*
X151620000Y-70730000D02*
X146540000Y-70730000D01*
X146540000Y-70730000D02*
X146540000Y-73270000D01*
X146540000Y-73270000D02*
X151620000Y-73270000D01*
X151620000Y-73270000D02*
X151620000Y-70730000D01*
X151620000Y-72000000D02*
X152890000Y-72000000D01*
X146540000Y-72000000D02*
X145270000Y-72000000D01*
X95500000Y-55500000D02*
X89000000Y-55500000D01*
X95500000Y-62000000D02*
X89000000Y-62000000D01*
X104500000Y-55500000D02*
X111000000Y-55500000D01*
X104500000Y-62000000D02*
X111000000Y-62000000D01*
X89000000Y-62000000D02*
X89000000Y-55500000D01*
X111000000Y-62000000D02*
X111000000Y-55500000D01*
X95500000Y-51000000D02*
X104500000Y-51000000D01*
X95500000Y-55500000D02*
X95500000Y-51000000D01*
X104500000Y-55500000D02*
X104500000Y-51000000D01*
X95500000Y-67000000D02*
X95500000Y-62000000D01*
X104500000Y-67000000D02*
X104500000Y-62000000D01*
X95500000Y-67000000D02*
X104500000Y-67000000D01*
D14*
X198886857Y-87689429D02*
X199612571Y-87689429D01*
X199612571Y-86165429D01*
X198088571Y-86165429D02*
X197798285Y-86165429D01*
X197653143Y-86238000D01*
X197508000Y-86383143D01*
X197435428Y-86673429D01*
X197435428Y-87181429D01*
X197508000Y-87471714D01*
X197653143Y-87616857D01*
X197798285Y-87689429D01*
X198088571Y-87689429D01*
X198233714Y-87616857D01*
X198378857Y-87471714D01*
X198451428Y-87181429D01*
X198451428Y-86673429D01*
X198378857Y-86383143D01*
X198233714Y-86238000D01*
X198088571Y-86165429D01*
X195984000Y-86238000D02*
X196129143Y-86165429D01*
X196346857Y-86165429D01*
X196564572Y-86238000D01*
X196709714Y-86383143D01*
X196782286Y-86528286D01*
X196854857Y-86818571D01*
X196854857Y-87036286D01*
X196782286Y-87326571D01*
X196709714Y-87471714D01*
X196564572Y-87616857D01*
X196346857Y-87689429D01*
X196201714Y-87689429D01*
X195984000Y-87616857D01*
X195911429Y-87544286D01*
X195911429Y-87036286D01*
X196201714Y-87036286D01*
X194968000Y-86165429D02*
X194677714Y-86165429D01*
X194532572Y-86238000D01*
X194387429Y-86383143D01*
X194314857Y-86673429D01*
X194314857Y-87181429D01*
X194387429Y-87471714D01*
X194532572Y-87616857D01*
X194677714Y-87689429D01*
X194968000Y-87689429D01*
X195113143Y-87616857D01*
X195258286Y-87471714D01*
X195330857Y-87181429D01*
X195330857Y-86673429D01*
X195258286Y-86383143D01*
X195113143Y-86238000D01*
X194968000Y-86165429D01*
D13*
X153416666Y-63857143D02*
X153464285Y-63904762D01*
X153607142Y-63952381D01*
X153702380Y-63952381D01*
X153845238Y-63904762D01*
X153940476Y-63809524D01*
X153988095Y-63714286D01*
X154035714Y-63523810D01*
X154035714Y-63380952D01*
X153988095Y-63190476D01*
X153940476Y-63095238D01*
X153845238Y-63000000D01*
X153702380Y-62952381D01*
X153607142Y-62952381D01*
X153464285Y-63000000D01*
X153416666Y-63047619D01*
X152464285Y-63952381D02*
X153035714Y-63952381D01*
X152750000Y-63952381D02*
X152750000Y-62952381D01*
X152845238Y-63095238D01*
X152940476Y-63190476D01*
X153035714Y-63238095D01*
X150125435Y-53914921D02*
X150125435Y-52914921D01*
X149887340Y-52914921D01*
X149744482Y-52962540D01*
X149649244Y-53057778D01*
X149601625Y-53153016D01*
X149554006Y-53343492D01*
X149554006Y-53486350D01*
X149601625Y-53676826D01*
X149649244Y-53772064D01*
X149744482Y-53867302D01*
X149887340Y-53914921D01*
X150125435Y-53914921D01*
X148601625Y-53914921D02*
X149173054Y-53914921D01*
X148887340Y-53914921D02*
X148887340Y-52914921D01*
X148982578Y-53057778D01*
X149077816Y-53153016D01*
X149173054Y-53200635D01*
X149510755Y-63992381D02*
X149510755Y-62992381D01*
X149272660Y-62992381D01*
X149129802Y-63040000D01*
X149034564Y-63135238D01*
X148986945Y-63230476D01*
X148939326Y-63420952D01*
X148939326Y-63563810D01*
X148986945Y-63754286D01*
X149034564Y-63849524D01*
X149129802Y-63944762D01*
X149272660Y-63992381D01*
X149510755Y-63992381D01*
X148558374Y-63087619D02*
X148510755Y-63040000D01*
X148415517Y-62992381D01*
X148177421Y-62992381D01*
X148082183Y-63040000D01*
X148034564Y-63087619D01*
X147986945Y-63182857D01*
X147986945Y-63278095D01*
X148034564Y-63420952D01*
X148605993Y-63992381D01*
X147986945Y-63992381D01*
X142293333Y-60992381D02*
X142293333Y-61706667D01*
X142340953Y-61849524D01*
X142436191Y-61944762D01*
X142579048Y-61992381D01*
X142674286Y-61992381D01*
X141817143Y-61992381D02*
X141817143Y-60992381D01*
X141436190Y-60992381D01*
X141340952Y-61040000D01*
X141293333Y-61087619D01*
X141245714Y-61182857D01*
X141245714Y-61325714D01*
X141293333Y-61420952D01*
X141340952Y-61468571D01*
X141436190Y-61516190D01*
X141817143Y-61516190D01*
X140293333Y-61992381D02*
X140864762Y-61992381D01*
X140579048Y-61992381D02*
X140579048Y-60992381D01*
X140674286Y-61135238D01*
X140769524Y-61230476D01*
X140864762Y-61278095D01*
X148997746Y-68952261D02*
X149331080Y-68476070D01*
X149569175Y-68952261D02*
X149569175Y-67952261D01*
X149188222Y-67952261D01*
X149092984Y-67999880D01*
X149045365Y-68047499D01*
X148997746Y-68142737D01*
X148997746Y-68285594D01*
X149045365Y-68380832D01*
X149092984Y-68428451D01*
X149188222Y-68476070D01*
X149569175Y-68476070D01*
X148045365Y-68952261D02*
X148616794Y-68952261D01*
X148331080Y-68952261D02*
X148331080Y-67952261D01*
X148426318Y-68095118D01*
X148521556Y-68190356D01*
X148616794Y-68237975D01*
X107166666Y-52952381D02*
X107642857Y-52952381D01*
X107642857Y-51952381D01*
X106309523Y-52952381D02*
X106880952Y-52952381D01*
X106595238Y-52952381D02*
X106595238Y-51952381D01*
X106690476Y-52095238D01*
X106785714Y-52190476D01*
X106880952Y-52238095D01*
M02*
