G75*
%MOIN*%
%OFA0B0*%
%FSLAX25Y25*%
%IPPOS*%
%LPD*%
%AMOC8*
5,1,8,0,0,1.08239X$1,22.5*
%
%ADD10C,0.00039*%
%ADD11R,0.09061X0.07487*%
%ADD12R,0.04534X0.04534*%
%ADD13R,0.08300X0.06300*%
%ADD14R,0.08300X0.15400*%
%ADD15R,0.06306X0.05518*%
%ADD16R,0.05518X0.06306*%
%ADD17R,0.02369X0.06306*%
%ADD18R,0.06306X0.02369*%
%ADD19R,0.03550X0.03550*%
%ADD20C,0.06400*%
%ADD21R,0.06699X0.07498*%
%ADD22R,0.07498X0.06699*%
%ADD23R,0.06700X0.05912*%
%ADD24R,0.01181X0.02362*%
%ADD25R,0.02362X0.01181*%
%ADD26R,0.01969X0.01969*%
%ADD27C,0.07900*%
%ADD28C,0.23400*%
%ADD29R,0.02762X0.09061*%
D10*
X0300276Y0192366D02*
X0300329Y0196714D01*
X0300489Y0201059D01*
X0300756Y0205399D01*
X0301129Y0209731D01*
X0301608Y0214053D01*
X0302194Y0218362D01*
X0302884Y0222654D01*
X0303680Y0226929D01*
X0304581Y0231183D01*
X0305585Y0235414D01*
X0306694Y0239618D01*
X0307905Y0243794D01*
X0309218Y0247939D01*
X0310632Y0252051D01*
X0312147Y0256127D01*
X0313762Y0260164D01*
X0315475Y0264161D01*
X0317286Y0268114D01*
X0319193Y0272021D01*
X0321195Y0275881D01*
X0323292Y0279690D01*
X0325482Y0283447D01*
X0327763Y0287149D01*
X0330134Y0290794D01*
X0332594Y0294379D01*
X0335141Y0297903D01*
X0337774Y0301364D01*
X0340491Y0304758D01*
X0343290Y0308085D01*
X0346170Y0311343D01*
X0349130Y0314528D01*
X0352166Y0317641D01*
X0355279Y0320677D01*
X0358464Y0323637D01*
X0361722Y0326517D01*
X0365049Y0329316D01*
X0368443Y0332033D01*
X0371904Y0334666D01*
X0375428Y0337213D01*
X0379013Y0339673D01*
X0382658Y0342044D01*
X0386360Y0344325D01*
X0390117Y0346515D01*
X0393926Y0348612D01*
X0397786Y0350614D01*
X0401693Y0352521D01*
X0405646Y0354332D01*
X0409643Y0356045D01*
X0413680Y0357660D01*
X0417756Y0359175D01*
X0421868Y0360589D01*
X0426013Y0361902D01*
X0430189Y0363113D01*
X0434393Y0364222D01*
X0438624Y0365226D01*
X0442878Y0366127D01*
X0447153Y0366923D01*
X0451445Y0367613D01*
X0455754Y0368199D01*
X0460076Y0368678D01*
X0464408Y0369051D01*
X0468748Y0369318D01*
X0473093Y0369478D01*
X0477441Y0369531D01*
X0481789Y0369478D01*
X0486134Y0369318D01*
X0490474Y0369051D01*
X0494806Y0368678D01*
X0499128Y0368199D01*
X0503437Y0367613D01*
X0507729Y0366923D01*
X0512004Y0366127D01*
X0516258Y0365226D01*
X0520489Y0364222D01*
X0524693Y0363113D01*
X0528869Y0361902D01*
X0533014Y0360589D01*
X0537126Y0359175D01*
X0541202Y0357660D01*
X0545239Y0356045D01*
X0549236Y0354332D01*
X0553189Y0352521D01*
X0557096Y0350614D01*
X0560956Y0348612D01*
X0564765Y0346515D01*
X0568522Y0344325D01*
X0572224Y0342044D01*
X0575869Y0339673D01*
X0579454Y0337213D01*
X0582978Y0334666D01*
X0586439Y0332033D01*
X0589833Y0329316D01*
X0593160Y0326517D01*
X0596418Y0323637D01*
X0599603Y0320677D01*
X0602716Y0317641D01*
X0605752Y0314528D01*
X0608712Y0311343D01*
X0611592Y0308085D01*
X0614391Y0304758D01*
X0617108Y0301364D01*
X0619741Y0297903D01*
X0622288Y0294379D01*
X0624748Y0290794D01*
X0627119Y0287149D01*
X0629400Y0283447D01*
X0631590Y0279690D01*
X0633687Y0275881D01*
X0635689Y0272021D01*
X0637596Y0268114D01*
X0639407Y0264161D01*
X0641120Y0260164D01*
X0642735Y0256127D01*
X0644250Y0252051D01*
X0645664Y0247939D01*
X0646977Y0243794D01*
X0648188Y0239618D01*
X0649297Y0235414D01*
X0650301Y0231183D01*
X0651202Y0226929D01*
X0651998Y0222654D01*
X0652688Y0218362D01*
X0653274Y0214053D01*
X0653753Y0209731D01*
X0654126Y0205399D01*
X0654393Y0201059D01*
X0654553Y0196714D01*
X0654606Y0192366D01*
X0654553Y0188018D01*
X0654393Y0183673D01*
X0654126Y0179333D01*
X0653753Y0175001D01*
X0653274Y0170679D01*
X0652688Y0166370D01*
X0651998Y0162078D01*
X0651202Y0157803D01*
X0650301Y0153549D01*
X0649297Y0149318D01*
X0648188Y0145114D01*
X0646977Y0140938D01*
X0645664Y0136793D01*
X0644250Y0132681D01*
X0642735Y0128605D01*
X0641120Y0124568D01*
X0639407Y0120571D01*
X0637596Y0116618D01*
X0635689Y0112711D01*
X0633687Y0108851D01*
X0631590Y0105042D01*
X0629400Y0101285D01*
X0627119Y0097583D01*
X0624748Y0093938D01*
X0622288Y0090353D01*
X0619741Y0086829D01*
X0617108Y0083368D01*
X0614391Y0079974D01*
X0611592Y0076647D01*
X0608712Y0073389D01*
X0605752Y0070204D01*
X0602716Y0067091D01*
X0599603Y0064055D01*
X0596418Y0061095D01*
X0593160Y0058215D01*
X0589833Y0055416D01*
X0586439Y0052699D01*
X0582978Y0050066D01*
X0579454Y0047519D01*
X0575869Y0045059D01*
X0572224Y0042688D01*
X0568522Y0040407D01*
X0564765Y0038217D01*
X0560956Y0036120D01*
X0557096Y0034118D01*
X0553189Y0032211D01*
X0549236Y0030400D01*
X0545239Y0028687D01*
X0541202Y0027072D01*
X0537126Y0025557D01*
X0533014Y0024143D01*
X0528869Y0022830D01*
X0524693Y0021619D01*
X0520489Y0020510D01*
X0516258Y0019506D01*
X0512004Y0018605D01*
X0507729Y0017809D01*
X0503437Y0017119D01*
X0499128Y0016533D01*
X0494806Y0016054D01*
X0490474Y0015681D01*
X0486134Y0015414D01*
X0481789Y0015254D01*
X0477441Y0015201D01*
X0473093Y0015254D01*
X0468748Y0015414D01*
X0464408Y0015681D01*
X0460076Y0016054D01*
X0455754Y0016533D01*
X0451445Y0017119D01*
X0447153Y0017809D01*
X0442878Y0018605D01*
X0438624Y0019506D01*
X0434393Y0020510D01*
X0430189Y0021619D01*
X0426013Y0022830D01*
X0421868Y0024143D01*
X0417756Y0025557D01*
X0413680Y0027072D01*
X0409643Y0028687D01*
X0405646Y0030400D01*
X0401693Y0032211D01*
X0397786Y0034118D01*
X0393926Y0036120D01*
X0390117Y0038217D01*
X0386360Y0040407D01*
X0382658Y0042688D01*
X0379013Y0045059D01*
X0375428Y0047519D01*
X0371904Y0050066D01*
X0368443Y0052699D01*
X0365049Y0055416D01*
X0361722Y0058215D01*
X0358464Y0061095D01*
X0355279Y0064055D01*
X0352166Y0067091D01*
X0349130Y0070204D01*
X0346170Y0073389D01*
X0343290Y0076647D01*
X0340491Y0079974D01*
X0337774Y0083368D01*
X0335141Y0086829D01*
X0332594Y0090353D01*
X0330134Y0093938D01*
X0327763Y0097583D01*
X0325482Y0101285D01*
X0323292Y0105042D01*
X0321195Y0108851D01*
X0319193Y0112711D01*
X0317286Y0116618D01*
X0315475Y0120571D01*
X0313762Y0124568D01*
X0312147Y0128605D01*
X0310632Y0132681D01*
X0309218Y0136793D01*
X0307905Y0140938D01*
X0306694Y0145114D01*
X0305585Y0149318D01*
X0304581Y0153549D01*
X0303680Y0157803D01*
X0302884Y0162078D01*
X0302194Y0166370D01*
X0301608Y0170679D01*
X0301129Y0175001D01*
X0300756Y0179333D01*
X0300489Y0183673D01*
X0300329Y0188018D01*
X0300276Y0192366D01*
D11*
X0349000Y0223461D03*
X0349000Y0243539D03*
X0455000Y0325461D03*
X0455000Y0345539D03*
X0590000Y0246539D03*
X0590000Y0226461D03*
X0586000Y0091539D03*
X0586000Y0071461D03*
X0372000Y0072461D03*
X0372000Y0092539D03*
D12*
X0389252Y0071106D03*
X0477441Y0192366D03*
X0565630Y0071106D03*
X0619961Y0238823D03*
X0477441Y0342366D03*
X0334921Y0238823D03*
D13*
X0432400Y0287600D03*
X0432400Y0296600D03*
X0432400Y0305600D03*
X0554600Y0284400D03*
X0554600Y0275400D03*
X0554600Y0266400D03*
D14*
X0579400Y0275500D03*
X0407600Y0296500D03*
D15*
X0452000Y0302760D03*
X0452000Y0310240D03*
X0526000Y0311760D03*
X0526000Y0319240D03*
X0538000Y0285240D03*
X0538000Y0277760D03*
X0538000Y0268240D03*
X0538000Y0260760D03*
X0606000Y0226240D03*
X0606000Y0218760D03*
X0593000Y0167240D03*
X0593000Y0159760D03*
X0566000Y0089240D03*
X0566000Y0081760D03*
X0496000Y0066240D03*
X0496000Y0058760D03*
X0452000Y0060240D03*
X0452000Y0052760D03*
X0440000Y0052760D03*
X0440000Y0060240D03*
X0426000Y0059240D03*
X0426000Y0051760D03*
X0414000Y0051760D03*
X0414000Y0059240D03*
X0390000Y0083760D03*
X0390000Y0091240D03*
X0347000Y0162760D03*
X0347000Y0170240D03*
X0476000Y0148240D03*
X0476000Y0140760D03*
D16*
X0436740Y0179500D03*
X0429260Y0179500D03*
X0429260Y0194500D03*
X0436740Y0194500D03*
X0393740Y0242500D03*
X0386260Y0242500D03*
X0354740Y0258500D03*
X0347260Y0258500D03*
X0347260Y0268500D03*
X0354740Y0268500D03*
X0354740Y0279500D03*
X0347260Y0279500D03*
X0349260Y0212500D03*
X0356740Y0212500D03*
X0437260Y0244500D03*
X0444740Y0244500D03*
X0444740Y0254500D03*
X0437260Y0254500D03*
X0437260Y0265500D03*
X0444740Y0265500D03*
X0444740Y0277500D03*
X0437260Y0277500D03*
X0443260Y0288500D03*
X0450740Y0288500D03*
X0477260Y0325500D03*
X0484740Y0325500D03*
X0514260Y0241500D03*
X0521740Y0241500D03*
X0556260Y0187500D03*
X0563740Y0187500D03*
X0572260Y0187500D03*
X0579740Y0187500D03*
X0578740Y0138500D03*
X0571260Y0138500D03*
D17*
X0490748Y0124335D03*
X0487598Y0124335D03*
X0484449Y0124335D03*
X0481299Y0124335D03*
X0478150Y0124335D03*
X0475000Y0124335D03*
X0471850Y0124335D03*
X0468701Y0124335D03*
X0465551Y0124335D03*
X0462402Y0124335D03*
X0459252Y0124335D03*
X0459252Y0078665D03*
X0462402Y0078665D03*
X0465551Y0078665D03*
X0468701Y0078665D03*
X0471850Y0078665D03*
X0475000Y0078665D03*
X0478150Y0078665D03*
X0481299Y0078665D03*
X0484449Y0078665D03*
X0487598Y0078665D03*
X0490748Y0078665D03*
D18*
X0497835Y0085752D03*
X0497835Y0088902D03*
X0497835Y0092051D03*
X0497835Y0095201D03*
X0497835Y0098350D03*
X0497835Y0101500D03*
X0497835Y0104650D03*
X0497835Y0107799D03*
X0497835Y0110949D03*
X0497835Y0114098D03*
X0497835Y0117248D03*
X0452165Y0117248D03*
X0452165Y0114098D03*
X0452165Y0110949D03*
X0452165Y0107799D03*
X0452165Y0104650D03*
X0452165Y0101500D03*
X0452165Y0098350D03*
X0452165Y0095201D03*
X0452165Y0092051D03*
X0452165Y0088902D03*
X0452165Y0085752D03*
D19*
X0452000Y0041453D03*
X0452000Y0035547D03*
X0440000Y0035547D03*
X0440000Y0041453D03*
X0426000Y0041453D03*
X0426000Y0035547D03*
X0414000Y0036547D03*
X0414000Y0042453D03*
X0448047Y0179500D03*
X0453953Y0179500D03*
X0452953Y0194500D03*
X0447047Y0194500D03*
X0336953Y0258500D03*
X0331047Y0258500D03*
X0331047Y0268500D03*
X0336953Y0268500D03*
X0336953Y0279500D03*
X0331047Y0279500D03*
X0526000Y0328547D03*
X0526000Y0334453D03*
D20*
X0325000Y0162500D02*
X0319000Y0162500D01*
X0319000Y0172500D02*
X0325000Y0172500D01*
X0325000Y0182500D02*
X0319000Y0182500D01*
X0319000Y0192500D02*
X0325000Y0192500D01*
X0325000Y0202500D02*
X0319000Y0202500D01*
X0319000Y0212500D02*
X0325000Y0212500D01*
X0499000Y0290500D02*
X0505000Y0290500D01*
X0505000Y0300500D02*
X0499000Y0300500D01*
X0499000Y0310500D02*
X0505000Y0310500D01*
X0505000Y0320500D02*
X0499000Y0320500D01*
X0606000Y0167500D02*
X0612000Y0167500D01*
X0612000Y0157500D02*
X0606000Y0157500D01*
D21*
X0349598Y0149500D03*
X0338402Y0149500D03*
D22*
X0338000Y0160902D03*
X0338000Y0172098D03*
D23*
X0356465Y0179358D03*
X0356465Y0161642D03*
X0389535Y0161642D03*
X0389535Y0179358D03*
D24*
X0441094Y0210445D03*
X0443063Y0210445D03*
X0445031Y0210445D03*
X0447000Y0210445D03*
X0448969Y0210445D03*
X0450937Y0210445D03*
X0452906Y0210445D03*
X0451921Y0215563D03*
X0449953Y0215563D03*
X0447984Y0215563D03*
X0446016Y0215563D03*
X0444047Y0215563D03*
X0442079Y0215563D03*
X0442079Y0219500D03*
X0444047Y0219500D03*
X0446016Y0219500D03*
X0447984Y0219500D03*
X0449953Y0219500D03*
X0451921Y0219500D03*
X0451921Y0223437D03*
X0449953Y0223437D03*
X0447984Y0223437D03*
X0446016Y0223437D03*
X0444047Y0223437D03*
X0442079Y0223437D03*
X0443063Y0228555D03*
X0445031Y0228555D03*
X0447000Y0228555D03*
X0448969Y0228555D03*
X0450937Y0228555D03*
X0452906Y0228555D03*
X0441094Y0228555D03*
D25*
X0437945Y0225406D03*
X0437945Y0223437D03*
X0437945Y0221469D03*
X0437945Y0219500D03*
X0437945Y0217531D03*
X0437945Y0215563D03*
X0437945Y0213594D03*
X0456055Y0213594D03*
X0456055Y0215563D03*
X0456055Y0217531D03*
X0456055Y0219500D03*
X0456055Y0221469D03*
X0456055Y0223437D03*
X0456055Y0225406D03*
D26*
X0455278Y0227778D03*
D27*
X0372000Y0232500D03*
X0372000Y0242500D03*
X0372000Y0252500D03*
D28*
X0406102Y0215555D03*
X0477441Y0267366D03*
X0548780Y0215555D03*
X0521535Y0131697D03*
X0433346Y0131697D03*
X0345000Y0121933D03*
X0477441Y0042366D03*
X0609882Y0121933D03*
X0565591Y0313705D03*
X0389291Y0313705D03*
D29*
X0561500Y0173736D03*
X0566500Y0173736D03*
X0571500Y0173736D03*
X0576500Y0173736D03*
X0576500Y0153264D03*
X0571500Y0153264D03*
X0566500Y0153264D03*
X0561500Y0153264D03*
M02*
