G75*
%MOIN*%
%OFA0B0*%
%FSLAX25Y25*%
%IPPOS*%
%LPD*%
%AMOC8*
5,1,8,0,0,1.08239X$1,22.5*
%
%ADD10C,0.00500*%
%ADD11C,0.00000*%
%ADD12C,0.00800*%
%ADD13C,0.00600*%
%ADD14C,0.00300*%
%ADD15C,0.00400*%
%ADD16C,0.00200*%
%ADD17C,0.00984*%
%ADD18R,0.00787X0.00787*%
%ADD19C,0.01000*%
%ADD20C,0.00700*%
%ADD21C,0.05000*%
D10*
X0026831Y0007667D02*
X0026831Y0092667D01*
X0106831Y0092667D01*
X0106831Y0161667D01*
X0048831Y0161667D01*
X0048831Y0226167D01*
X0378831Y0226167D01*
X0378831Y0007667D01*
X0026831Y0007667D01*
X0221374Y0046982D02*
X0264287Y0046982D01*
X0264287Y0086352D02*
X0221374Y0086352D01*
X0221374Y0103982D02*
X0264287Y0103982D01*
X0264287Y0143352D02*
X0221374Y0143352D01*
X0222374Y0160982D02*
X0265287Y0160982D01*
X0265287Y0200352D02*
X0222374Y0200352D01*
X0120831Y0194667D02*
X0120831Y0178667D01*
X0094831Y0178667D01*
X0094831Y0194667D01*
X0120831Y0194667D01*
X0101331Y0203667D02*
X0097831Y0199667D01*
X0097331Y0199667D02*
X0093831Y0203667D01*
X0101331Y0203667D01*
X0064252Y0180072D02*
X0064252Y0168261D01*
X0063661Y0168261D01*
X0055000Y0168261D02*
X0054409Y0168261D01*
X0054409Y0180072D01*
X0055000Y0180072D01*
X0063661Y0180072D02*
X0064252Y0180072D01*
D11*
X0078081Y0212667D02*
X0078083Y0212825D01*
X0078089Y0212982D01*
X0078099Y0213140D01*
X0078113Y0213297D01*
X0078131Y0213453D01*
X0078152Y0213610D01*
X0078178Y0213765D01*
X0078208Y0213920D01*
X0078241Y0214074D01*
X0078279Y0214227D01*
X0078320Y0214380D01*
X0078365Y0214531D01*
X0078414Y0214681D01*
X0078467Y0214829D01*
X0078523Y0214977D01*
X0078584Y0215122D01*
X0078647Y0215267D01*
X0078715Y0215409D01*
X0078786Y0215550D01*
X0078860Y0215689D01*
X0078938Y0215826D01*
X0079020Y0215961D01*
X0079104Y0216094D01*
X0079193Y0216225D01*
X0079284Y0216353D01*
X0079379Y0216480D01*
X0079476Y0216603D01*
X0079577Y0216725D01*
X0079681Y0216843D01*
X0079788Y0216959D01*
X0079898Y0217072D01*
X0080010Y0217183D01*
X0080126Y0217290D01*
X0080244Y0217395D01*
X0080364Y0217497D01*
X0080487Y0217595D01*
X0080613Y0217691D01*
X0080741Y0217783D01*
X0080871Y0217872D01*
X0081003Y0217958D01*
X0081138Y0218040D01*
X0081275Y0218119D01*
X0081413Y0218194D01*
X0081553Y0218266D01*
X0081696Y0218334D01*
X0081839Y0218399D01*
X0081985Y0218460D01*
X0082132Y0218517D01*
X0082280Y0218571D01*
X0082430Y0218621D01*
X0082580Y0218667D01*
X0082732Y0218709D01*
X0082885Y0218748D01*
X0083039Y0218782D01*
X0083194Y0218813D01*
X0083349Y0218839D01*
X0083505Y0218862D01*
X0083662Y0218881D01*
X0083819Y0218896D01*
X0083976Y0218907D01*
X0084134Y0218914D01*
X0084292Y0218917D01*
X0084449Y0218916D01*
X0084607Y0218911D01*
X0084764Y0218902D01*
X0084922Y0218889D01*
X0085078Y0218872D01*
X0085235Y0218851D01*
X0085390Y0218827D01*
X0085545Y0218798D01*
X0085700Y0218765D01*
X0085853Y0218729D01*
X0086006Y0218688D01*
X0086157Y0218644D01*
X0086307Y0218596D01*
X0086456Y0218545D01*
X0086604Y0218489D01*
X0086750Y0218430D01*
X0086895Y0218367D01*
X0087038Y0218300D01*
X0087179Y0218230D01*
X0087318Y0218157D01*
X0087456Y0218080D01*
X0087592Y0217999D01*
X0087725Y0217915D01*
X0087856Y0217828D01*
X0087985Y0217737D01*
X0088112Y0217643D01*
X0088237Y0217546D01*
X0088358Y0217446D01*
X0088478Y0217343D01*
X0088594Y0217237D01*
X0088708Y0217128D01*
X0088820Y0217016D01*
X0088928Y0216902D01*
X0089033Y0216784D01*
X0089136Y0216664D01*
X0089235Y0216542D01*
X0089331Y0216417D01*
X0089424Y0216289D01*
X0089514Y0216160D01*
X0089600Y0216028D01*
X0089684Y0215894D01*
X0089763Y0215758D01*
X0089840Y0215620D01*
X0089912Y0215480D01*
X0089981Y0215338D01*
X0090047Y0215195D01*
X0090109Y0215050D01*
X0090167Y0214903D01*
X0090222Y0214755D01*
X0090273Y0214606D01*
X0090320Y0214455D01*
X0090363Y0214304D01*
X0090402Y0214151D01*
X0090438Y0213997D01*
X0090469Y0213843D01*
X0090497Y0213688D01*
X0090521Y0213532D01*
X0090541Y0213375D01*
X0090557Y0213218D01*
X0090569Y0213061D01*
X0090577Y0212904D01*
X0090581Y0212746D01*
X0090581Y0212588D01*
X0090577Y0212430D01*
X0090569Y0212273D01*
X0090557Y0212116D01*
X0090541Y0211959D01*
X0090521Y0211802D01*
X0090497Y0211646D01*
X0090469Y0211491D01*
X0090438Y0211337D01*
X0090402Y0211183D01*
X0090363Y0211030D01*
X0090320Y0210879D01*
X0090273Y0210728D01*
X0090222Y0210579D01*
X0090167Y0210431D01*
X0090109Y0210284D01*
X0090047Y0210139D01*
X0089981Y0209996D01*
X0089912Y0209854D01*
X0089840Y0209714D01*
X0089763Y0209576D01*
X0089684Y0209440D01*
X0089600Y0209306D01*
X0089514Y0209174D01*
X0089424Y0209045D01*
X0089331Y0208917D01*
X0089235Y0208792D01*
X0089136Y0208670D01*
X0089033Y0208550D01*
X0088928Y0208432D01*
X0088820Y0208318D01*
X0088708Y0208206D01*
X0088594Y0208097D01*
X0088478Y0207991D01*
X0088358Y0207888D01*
X0088237Y0207788D01*
X0088112Y0207691D01*
X0087985Y0207597D01*
X0087856Y0207506D01*
X0087725Y0207419D01*
X0087592Y0207335D01*
X0087456Y0207254D01*
X0087318Y0207177D01*
X0087179Y0207104D01*
X0087038Y0207034D01*
X0086895Y0206967D01*
X0086750Y0206904D01*
X0086604Y0206845D01*
X0086456Y0206789D01*
X0086307Y0206738D01*
X0086157Y0206690D01*
X0086006Y0206646D01*
X0085853Y0206605D01*
X0085700Y0206569D01*
X0085545Y0206536D01*
X0085390Y0206507D01*
X0085235Y0206483D01*
X0085078Y0206462D01*
X0084922Y0206445D01*
X0084764Y0206432D01*
X0084607Y0206423D01*
X0084449Y0206418D01*
X0084292Y0206417D01*
X0084134Y0206420D01*
X0083976Y0206427D01*
X0083819Y0206438D01*
X0083662Y0206453D01*
X0083505Y0206472D01*
X0083349Y0206495D01*
X0083194Y0206521D01*
X0083039Y0206552D01*
X0082885Y0206586D01*
X0082732Y0206625D01*
X0082580Y0206667D01*
X0082430Y0206713D01*
X0082280Y0206763D01*
X0082132Y0206817D01*
X0081985Y0206874D01*
X0081839Y0206935D01*
X0081696Y0207000D01*
X0081553Y0207068D01*
X0081413Y0207140D01*
X0081275Y0207215D01*
X0081138Y0207294D01*
X0081003Y0207376D01*
X0080871Y0207462D01*
X0080741Y0207551D01*
X0080613Y0207643D01*
X0080487Y0207739D01*
X0080364Y0207837D01*
X0080244Y0207939D01*
X0080126Y0208044D01*
X0080010Y0208151D01*
X0079898Y0208262D01*
X0079788Y0208375D01*
X0079681Y0208491D01*
X0079577Y0208609D01*
X0079476Y0208731D01*
X0079379Y0208854D01*
X0079284Y0208981D01*
X0079193Y0209109D01*
X0079104Y0209240D01*
X0079020Y0209373D01*
X0078938Y0209508D01*
X0078860Y0209645D01*
X0078786Y0209784D01*
X0078715Y0209925D01*
X0078647Y0210067D01*
X0078584Y0210212D01*
X0078523Y0210357D01*
X0078467Y0210505D01*
X0078414Y0210653D01*
X0078365Y0210803D01*
X0078320Y0210954D01*
X0078279Y0211107D01*
X0078241Y0211260D01*
X0078208Y0211414D01*
X0078178Y0211569D01*
X0078152Y0211724D01*
X0078131Y0211881D01*
X0078113Y0212037D01*
X0078099Y0212194D01*
X0078089Y0212352D01*
X0078083Y0212509D01*
X0078081Y0212667D01*
X0167631Y0187967D02*
X0167636Y0187899D01*
X0167645Y0187831D01*
X0167657Y0187763D01*
X0167674Y0187697D01*
X0167694Y0187631D01*
X0167718Y0187567D01*
X0167745Y0187504D01*
X0167776Y0187443D01*
X0167811Y0187383D01*
X0167849Y0187326D01*
X0167890Y0187271D01*
X0167934Y0187219D01*
X0167981Y0187169D01*
X0168031Y0187122D01*
X0168083Y0187077D01*
X0168138Y0187036D01*
X0168195Y0186998D01*
X0168254Y0186964D01*
X0168315Y0186932D01*
X0168378Y0186905D01*
X0168442Y0186881D01*
X0168508Y0186860D01*
X0168574Y0186844D01*
X0168642Y0186831D01*
X0168710Y0186822D01*
X0168778Y0186817D01*
X0168847Y0186816D01*
X0168915Y0186819D01*
X0168984Y0186826D01*
X0169051Y0186836D01*
X0169118Y0186851D01*
X0169184Y0186869D01*
X0169249Y0186891D01*
X0169313Y0186917D01*
X0169375Y0186946D01*
X0169435Y0186979D01*
X0169493Y0187015D01*
X0169550Y0187055D01*
X0169603Y0187097D01*
X0169655Y0187143D01*
X0169703Y0187191D01*
X0169749Y0187242D01*
X0169792Y0187296D01*
X0169831Y0187352D01*
X0169868Y0187410D01*
X0169900Y0187470D01*
X0169930Y0187532D01*
X0169956Y0187596D01*
X0169978Y0187661D01*
X0169996Y0187727D01*
X0170011Y0187794D01*
X0170022Y0187862D01*
X0170029Y0187930D01*
X0170032Y0187998D01*
X0170031Y0188067D01*
X0170032Y0187998D01*
X0170029Y0187930D01*
X0170022Y0187862D01*
X0170011Y0187794D01*
X0169996Y0187727D01*
X0169978Y0187661D01*
X0169956Y0187596D01*
X0169930Y0187532D01*
X0169900Y0187470D01*
X0169868Y0187410D01*
X0169831Y0187352D01*
X0169792Y0187296D01*
X0169749Y0187242D01*
X0169703Y0187191D01*
X0169655Y0187143D01*
X0169603Y0187097D01*
X0169550Y0187055D01*
X0169493Y0187015D01*
X0169435Y0186979D01*
X0169375Y0186946D01*
X0169313Y0186917D01*
X0169249Y0186891D01*
X0169184Y0186869D01*
X0169118Y0186851D01*
X0169051Y0186836D01*
X0168984Y0186826D01*
X0168915Y0186819D01*
X0168847Y0186816D01*
X0168778Y0186817D01*
X0168710Y0186822D01*
X0168642Y0186831D01*
X0168574Y0186844D01*
X0168508Y0186860D01*
X0168442Y0186881D01*
X0168378Y0186905D01*
X0168315Y0186932D01*
X0168254Y0186964D01*
X0168195Y0186998D01*
X0168138Y0187036D01*
X0168083Y0187077D01*
X0168031Y0187122D01*
X0167981Y0187169D01*
X0167934Y0187219D01*
X0167890Y0187271D01*
X0167849Y0187326D01*
X0167811Y0187383D01*
X0167776Y0187443D01*
X0167745Y0187504D01*
X0167718Y0187567D01*
X0167694Y0187631D01*
X0167674Y0187697D01*
X0167657Y0187763D01*
X0167645Y0187831D01*
X0167636Y0187899D01*
X0167631Y0187967D01*
X0169031Y0131067D02*
X0169032Y0130998D01*
X0169029Y0130930D01*
X0169022Y0130862D01*
X0169011Y0130794D01*
X0168996Y0130727D01*
X0168978Y0130661D01*
X0168956Y0130596D01*
X0168930Y0130532D01*
X0168900Y0130470D01*
X0168868Y0130410D01*
X0168831Y0130352D01*
X0168792Y0130296D01*
X0168749Y0130242D01*
X0168703Y0130191D01*
X0168655Y0130143D01*
X0168603Y0130097D01*
X0168550Y0130055D01*
X0168493Y0130015D01*
X0168435Y0129979D01*
X0168375Y0129946D01*
X0168313Y0129917D01*
X0168249Y0129891D01*
X0168184Y0129869D01*
X0168118Y0129851D01*
X0168051Y0129836D01*
X0167984Y0129826D01*
X0167915Y0129819D01*
X0167847Y0129816D01*
X0167778Y0129817D01*
X0167710Y0129822D01*
X0167642Y0129831D01*
X0167574Y0129844D01*
X0167508Y0129860D01*
X0167442Y0129881D01*
X0167378Y0129905D01*
X0167315Y0129932D01*
X0167254Y0129964D01*
X0167195Y0129998D01*
X0167138Y0130036D01*
X0167083Y0130077D01*
X0167031Y0130122D01*
X0166981Y0130169D01*
X0166934Y0130219D01*
X0166890Y0130271D01*
X0166849Y0130326D01*
X0166811Y0130383D01*
X0166776Y0130443D01*
X0166745Y0130504D01*
X0166718Y0130567D01*
X0166694Y0130631D01*
X0166674Y0130697D01*
X0166657Y0130763D01*
X0166645Y0130831D01*
X0166636Y0130899D01*
X0166631Y0130967D01*
X0166636Y0130899D01*
X0166645Y0130831D01*
X0166657Y0130763D01*
X0166674Y0130697D01*
X0166694Y0130631D01*
X0166718Y0130567D01*
X0166745Y0130504D01*
X0166776Y0130443D01*
X0166811Y0130383D01*
X0166849Y0130326D01*
X0166890Y0130271D01*
X0166934Y0130219D01*
X0166981Y0130169D01*
X0167031Y0130122D01*
X0167083Y0130077D01*
X0167138Y0130036D01*
X0167195Y0129998D01*
X0167254Y0129964D01*
X0167315Y0129932D01*
X0167378Y0129905D01*
X0167442Y0129881D01*
X0167508Y0129860D01*
X0167574Y0129844D01*
X0167642Y0129831D01*
X0167710Y0129822D01*
X0167778Y0129817D01*
X0167847Y0129816D01*
X0167915Y0129819D01*
X0167984Y0129826D01*
X0168051Y0129836D01*
X0168118Y0129851D01*
X0168184Y0129869D01*
X0168249Y0129891D01*
X0168313Y0129917D01*
X0168375Y0129946D01*
X0168435Y0129979D01*
X0168493Y0130015D01*
X0168550Y0130055D01*
X0168603Y0130097D01*
X0168655Y0130143D01*
X0168703Y0130191D01*
X0168749Y0130242D01*
X0168792Y0130296D01*
X0168831Y0130352D01*
X0168868Y0130410D01*
X0168900Y0130470D01*
X0168930Y0130532D01*
X0168956Y0130596D01*
X0168978Y0130661D01*
X0168996Y0130727D01*
X0169011Y0130794D01*
X0169022Y0130862D01*
X0169029Y0130930D01*
X0169032Y0130998D01*
X0169031Y0131067D01*
X0169031Y0074067D02*
X0169032Y0073998D01*
X0169029Y0073930D01*
X0169022Y0073862D01*
X0169011Y0073794D01*
X0168996Y0073727D01*
X0168978Y0073661D01*
X0168956Y0073596D01*
X0168930Y0073532D01*
X0168900Y0073470D01*
X0168868Y0073410D01*
X0168831Y0073352D01*
X0168792Y0073296D01*
X0168749Y0073242D01*
X0168703Y0073191D01*
X0168655Y0073143D01*
X0168603Y0073097D01*
X0168550Y0073055D01*
X0168493Y0073015D01*
X0168435Y0072979D01*
X0168375Y0072946D01*
X0168313Y0072917D01*
X0168249Y0072891D01*
X0168184Y0072869D01*
X0168118Y0072851D01*
X0168051Y0072836D01*
X0167984Y0072826D01*
X0167915Y0072819D01*
X0167847Y0072816D01*
X0167778Y0072817D01*
X0167710Y0072822D01*
X0167642Y0072831D01*
X0167574Y0072844D01*
X0167508Y0072860D01*
X0167442Y0072881D01*
X0167378Y0072905D01*
X0167315Y0072932D01*
X0167254Y0072964D01*
X0167195Y0072998D01*
X0167138Y0073036D01*
X0167083Y0073077D01*
X0167031Y0073122D01*
X0166981Y0073169D01*
X0166934Y0073219D01*
X0166890Y0073271D01*
X0166849Y0073326D01*
X0166811Y0073383D01*
X0166776Y0073443D01*
X0166745Y0073504D01*
X0166718Y0073567D01*
X0166694Y0073631D01*
X0166674Y0073697D01*
X0166657Y0073763D01*
X0166645Y0073831D01*
X0166636Y0073899D01*
X0166631Y0073967D01*
X0166636Y0073899D01*
X0166645Y0073831D01*
X0166657Y0073763D01*
X0166674Y0073697D01*
X0166694Y0073631D01*
X0166718Y0073567D01*
X0166745Y0073504D01*
X0166776Y0073443D01*
X0166811Y0073383D01*
X0166849Y0073326D01*
X0166890Y0073271D01*
X0166934Y0073219D01*
X0166981Y0073169D01*
X0167031Y0073122D01*
X0167083Y0073077D01*
X0167138Y0073036D01*
X0167195Y0072998D01*
X0167254Y0072964D01*
X0167315Y0072932D01*
X0167378Y0072905D01*
X0167442Y0072881D01*
X0167508Y0072860D01*
X0167574Y0072844D01*
X0167642Y0072831D01*
X0167710Y0072822D01*
X0167778Y0072817D01*
X0167847Y0072816D01*
X0167915Y0072819D01*
X0167984Y0072826D01*
X0168051Y0072836D01*
X0168118Y0072851D01*
X0168184Y0072869D01*
X0168249Y0072891D01*
X0168313Y0072917D01*
X0168375Y0072946D01*
X0168435Y0072979D01*
X0168493Y0073015D01*
X0168550Y0073055D01*
X0168603Y0073097D01*
X0168655Y0073143D01*
X0168703Y0073191D01*
X0168749Y0073242D01*
X0168792Y0073296D01*
X0168831Y0073352D01*
X0168868Y0073410D01*
X0168900Y0073470D01*
X0168930Y0073532D01*
X0168956Y0073596D01*
X0168978Y0073661D01*
X0168996Y0073727D01*
X0169011Y0073794D01*
X0169022Y0073862D01*
X0169029Y0073930D01*
X0169032Y0073998D01*
X0169031Y0074067D01*
X0078081Y0022667D02*
X0078083Y0022825D01*
X0078089Y0022982D01*
X0078099Y0023140D01*
X0078113Y0023297D01*
X0078131Y0023453D01*
X0078152Y0023610D01*
X0078178Y0023765D01*
X0078208Y0023920D01*
X0078241Y0024074D01*
X0078279Y0024227D01*
X0078320Y0024380D01*
X0078365Y0024531D01*
X0078414Y0024681D01*
X0078467Y0024829D01*
X0078523Y0024977D01*
X0078584Y0025122D01*
X0078647Y0025267D01*
X0078715Y0025409D01*
X0078786Y0025550D01*
X0078860Y0025689D01*
X0078938Y0025826D01*
X0079020Y0025961D01*
X0079104Y0026094D01*
X0079193Y0026225D01*
X0079284Y0026353D01*
X0079379Y0026480D01*
X0079476Y0026603D01*
X0079577Y0026725D01*
X0079681Y0026843D01*
X0079788Y0026959D01*
X0079898Y0027072D01*
X0080010Y0027183D01*
X0080126Y0027290D01*
X0080244Y0027395D01*
X0080364Y0027497D01*
X0080487Y0027595D01*
X0080613Y0027691D01*
X0080741Y0027783D01*
X0080871Y0027872D01*
X0081003Y0027958D01*
X0081138Y0028040D01*
X0081275Y0028119D01*
X0081413Y0028194D01*
X0081553Y0028266D01*
X0081696Y0028334D01*
X0081839Y0028399D01*
X0081985Y0028460D01*
X0082132Y0028517D01*
X0082280Y0028571D01*
X0082430Y0028621D01*
X0082580Y0028667D01*
X0082732Y0028709D01*
X0082885Y0028748D01*
X0083039Y0028782D01*
X0083194Y0028813D01*
X0083349Y0028839D01*
X0083505Y0028862D01*
X0083662Y0028881D01*
X0083819Y0028896D01*
X0083976Y0028907D01*
X0084134Y0028914D01*
X0084292Y0028917D01*
X0084449Y0028916D01*
X0084607Y0028911D01*
X0084764Y0028902D01*
X0084922Y0028889D01*
X0085078Y0028872D01*
X0085235Y0028851D01*
X0085390Y0028827D01*
X0085545Y0028798D01*
X0085700Y0028765D01*
X0085853Y0028729D01*
X0086006Y0028688D01*
X0086157Y0028644D01*
X0086307Y0028596D01*
X0086456Y0028545D01*
X0086604Y0028489D01*
X0086750Y0028430D01*
X0086895Y0028367D01*
X0087038Y0028300D01*
X0087179Y0028230D01*
X0087318Y0028157D01*
X0087456Y0028080D01*
X0087592Y0027999D01*
X0087725Y0027915D01*
X0087856Y0027828D01*
X0087985Y0027737D01*
X0088112Y0027643D01*
X0088237Y0027546D01*
X0088358Y0027446D01*
X0088478Y0027343D01*
X0088594Y0027237D01*
X0088708Y0027128D01*
X0088820Y0027016D01*
X0088928Y0026902D01*
X0089033Y0026784D01*
X0089136Y0026664D01*
X0089235Y0026542D01*
X0089331Y0026417D01*
X0089424Y0026289D01*
X0089514Y0026160D01*
X0089600Y0026028D01*
X0089684Y0025894D01*
X0089763Y0025758D01*
X0089840Y0025620D01*
X0089912Y0025480D01*
X0089981Y0025338D01*
X0090047Y0025195D01*
X0090109Y0025050D01*
X0090167Y0024903D01*
X0090222Y0024755D01*
X0090273Y0024606D01*
X0090320Y0024455D01*
X0090363Y0024304D01*
X0090402Y0024151D01*
X0090438Y0023997D01*
X0090469Y0023843D01*
X0090497Y0023688D01*
X0090521Y0023532D01*
X0090541Y0023375D01*
X0090557Y0023218D01*
X0090569Y0023061D01*
X0090577Y0022904D01*
X0090581Y0022746D01*
X0090581Y0022588D01*
X0090577Y0022430D01*
X0090569Y0022273D01*
X0090557Y0022116D01*
X0090541Y0021959D01*
X0090521Y0021802D01*
X0090497Y0021646D01*
X0090469Y0021491D01*
X0090438Y0021337D01*
X0090402Y0021183D01*
X0090363Y0021030D01*
X0090320Y0020879D01*
X0090273Y0020728D01*
X0090222Y0020579D01*
X0090167Y0020431D01*
X0090109Y0020284D01*
X0090047Y0020139D01*
X0089981Y0019996D01*
X0089912Y0019854D01*
X0089840Y0019714D01*
X0089763Y0019576D01*
X0089684Y0019440D01*
X0089600Y0019306D01*
X0089514Y0019174D01*
X0089424Y0019045D01*
X0089331Y0018917D01*
X0089235Y0018792D01*
X0089136Y0018670D01*
X0089033Y0018550D01*
X0088928Y0018432D01*
X0088820Y0018318D01*
X0088708Y0018206D01*
X0088594Y0018097D01*
X0088478Y0017991D01*
X0088358Y0017888D01*
X0088237Y0017788D01*
X0088112Y0017691D01*
X0087985Y0017597D01*
X0087856Y0017506D01*
X0087725Y0017419D01*
X0087592Y0017335D01*
X0087456Y0017254D01*
X0087318Y0017177D01*
X0087179Y0017104D01*
X0087038Y0017034D01*
X0086895Y0016967D01*
X0086750Y0016904D01*
X0086604Y0016845D01*
X0086456Y0016789D01*
X0086307Y0016738D01*
X0086157Y0016690D01*
X0086006Y0016646D01*
X0085853Y0016605D01*
X0085700Y0016569D01*
X0085545Y0016536D01*
X0085390Y0016507D01*
X0085235Y0016483D01*
X0085078Y0016462D01*
X0084922Y0016445D01*
X0084764Y0016432D01*
X0084607Y0016423D01*
X0084449Y0016418D01*
X0084292Y0016417D01*
X0084134Y0016420D01*
X0083976Y0016427D01*
X0083819Y0016438D01*
X0083662Y0016453D01*
X0083505Y0016472D01*
X0083349Y0016495D01*
X0083194Y0016521D01*
X0083039Y0016552D01*
X0082885Y0016586D01*
X0082732Y0016625D01*
X0082580Y0016667D01*
X0082430Y0016713D01*
X0082280Y0016763D01*
X0082132Y0016817D01*
X0081985Y0016874D01*
X0081839Y0016935D01*
X0081696Y0017000D01*
X0081553Y0017068D01*
X0081413Y0017140D01*
X0081275Y0017215D01*
X0081138Y0017294D01*
X0081003Y0017376D01*
X0080871Y0017462D01*
X0080741Y0017551D01*
X0080613Y0017643D01*
X0080487Y0017739D01*
X0080364Y0017837D01*
X0080244Y0017939D01*
X0080126Y0018044D01*
X0080010Y0018151D01*
X0079898Y0018262D01*
X0079788Y0018375D01*
X0079681Y0018491D01*
X0079577Y0018609D01*
X0079476Y0018731D01*
X0079379Y0018854D01*
X0079284Y0018981D01*
X0079193Y0019109D01*
X0079104Y0019240D01*
X0079020Y0019373D01*
X0078938Y0019508D01*
X0078860Y0019645D01*
X0078786Y0019784D01*
X0078715Y0019925D01*
X0078647Y0020067D01*
X0078584Y0020212D01*
X0078523Y0020357D01*
X0078467Y0020505D01*
X0078414Y0020653D01*
X0078365Y0020803D01*
X0078320Y0020954D01*
X0078279Y0021107D01*
X0078241Y0021260D01*
X0078208Y0021414D01*
X0078178Y0021569D01*
X0078152Y0021724D01*
X0078131Y0021881D01*
X0078113Y0022037D01*
X0078099Y0022194D01*
X0078089Y0022352D01*
X0078083Y0022509D01*
X0078081Y0022667D01*
X0032996Y0044450D02*
X0032998Y0044608D01*
X0033004Y0044766D01*
X0033014Y0044924D01*
X0033028Y0045082D01*
X0033046Y0045239D01*
X0033067Y0045396D01*
X0033093Y0045552D01*
X0033123Y0045708D01*
X0033156Y0045863D01*
X0033194Y0046016D01*
X0033235Y0046169D01*
X0033280Y0046321D01*
X0033329Y0046472D01*
X0033382Y0046621D01*
X0033438Y0046769D01*
X0033498Y0046915D01*
X0033562Y0047060D01*
X0033630Y0047203D01*
X0033701Y0047345D01*
X0033775Y0047485D01*
X0033853Y0047622D01*
X0033935Y0047758D01*
X0034019Y0047892D01*
X0034108Y0048023D01*
X0034199Y0048152D01*
X0034294Y0048279D01*
X0034391Y0048404D01*
X0034492Y0048526D01*
X0034596Y0048645D01*
X0034703Y0048762D01*
X0034813Y0048876D01*
X0034926Y0048987D01*
X0035041Y0049096D01*
X0035159Y0049201D01*
X0035280Y0049303D01*
X0035403Y0049403D01*
X0035529Y0049499D01*
X0035657Y0049592D01*
X0035787Y0049682D01*
X0035920Y0049768D01*
X0036055Y0049852D01*
X0036191Y0049931D01*
X0036330Y0050008D01*
X0036471Y0050080D01*
X0036613Y0050150D01*
X0036757Y0050215D01*
X0036903Y0050277D01*
X0037050Y0050335D01*
X0037199Y0050390D01*
X0037349Y0050441D01*
X0037500Y0050488D01*
X0037652Y0050531D01*
X0037805Y0050570D01*
X0037960Y0050606D01*
X0038115Y0050637D01*
X0038271Y0050665D01*
X0038427Y0050689D01*
X0038584Y0050709D01*
X0038742Y0050725D01*
X0038899Y0050737D01*
X0039058Y0050745D01*
X0039216Y0050749D01*
X0039374Y0050749D01*
X0039532Y0050745D01*
X0039691Y0050737D01*
X0039848Y0050725D01*
X0040006Y0050709D01*
X0040163Y0050689D01*
X0040319Y0050665D01*
X0040475Y0050637D01*
X0040630Y0050606D01*
X0040785Y0050570D01*
X0040938Y0050531D01*
X0041090Y0050488D01*
X0041241Y0050441D01*
X0041391Y0050390D01*
X0041540Y0050335D01*
X0041687Y0050277D01*
X0041833Y0050215D01*
X0041977Y0050150D01*
X0042119Y0050080D01*
X0042260Y0050008D01*
X0042399Y0049931D01*
X0042535Y0049852D01*
X0042670Y0049768D01*
X0042803Y0049682D01*
X0042933Y0049592D01*
X0043061Y0049499D01*
X0043187Y0049403D01*
X0043310Y0049303D01*
X0043431Y0049201D01*
X0043549Y0049096D01*
X0043664Y0048987D01*
X0043777Y0048876D01*
X0043887Y0048762D01*
X0043994Y0048645D01*
X0044098Y0048526D01*
X0044199Y0048404D01*
X0044296Y0048279D01*
X0044391Y0048152D01*
X0044482Y0048023D01*
X0044571Y0047892D01*
X0044655Y0047758D01*
X0044737Y0047622D01*
X0044815Y0047485D01*
X0044889Y0047345D01*
X0044960Y0047203D01*
X0045028Y0047060D01*
X0045092Y0046915D01*
X0045152Y0046769D01*
X0045208Y0046621D01*
X0045261Y0046472D01*
X0045310Y0046321D01*
X0045355Y0046169D01*
X0045396Y0046016D01*
X0045434Y0045863D01*
X0045467Y0045708D01*
X0045497Y0045552D01*
X0045523Y0045396D01*
X0045544Y0045239D01*
X0045562Y0045082D01*
X0045576Y0044924D01*
X0045586Y0044766D01*
X0045592Y0044608D01*
X0045594Y0044450D01*
X0045592Y0044292D01*
X0045586Y0044134D01*
X0045576Y0043976D01*
X0045562Y0043818D01*
X0045544Y0043661D01*
X0045523Y0043504D01*
X0045497Y0043348D01*
X0045467Y0043192D01*
X0045434Y0043037D01*
X0045396Y0042884D01*
X0045355Y0042731D01*
X0045310Y0042579D01*
X0045261Y0042428D01*
X0045208Y0042279D01*
X0045152Y0042131D01*
X0045092Y0041985D01*
X0045028Y0041840D01*
X0044960Y0041697D01*
X0044889Y0041555D01*
X0044815Y0041415D01*
X0044737Y0041278D01*
X0044655Y0041142D01*
X0044571Y0041008D01*
X0044482Y0040877D01*
X0044391Y0040748D01*
X0044296Y0040621D01*
X0044199Y0040496D01*
X0044098Y0040374D01*
X0043994Y0040255D01*
X0043887Y0040138D01*
X0043777Y0040024D01*
X0043664Y0039913D01*
X0043549Y0039804D01*
X0043431Y0039699D01*
X0043310Y0039597D01*
X0043187Y0039497D01*
X0043061Y0039401D01*
X0042933Y0039308D01*
X0042803Y0039218D01*
X0042670Y0039132D01*
X0042535Y0039048D01*
X0042399Y0038969D01*
X0042260Y0038892D01*
X0042119Y0038820D01*
X0041977Y0038750D01*
X0041833Y0038685D01*
X0041687Y0038623D01*
X0041540Y0038565D01*
X0041391Y0038510D01*
X0041241Y0038459D01*
X0041090Y0038412D01*
X0040938Y0038369D01*
X0040785Y0038330D01*
X0040630Y0038294D01*
X0040475Y0038263D01*
X0040319Y0038235D01*
X0040163Y0038211D01*
X0040006Y0038191D01*
X0039848Y0038175D01*
X0039691Y0038163D01*
X0039532Y0038155D01*
X0039374Y0038151D01*
X0039216Y0038151D01*
X0039058Y0038155D01*
X0038899Y0038163D01*
X0038742Y0038175D01*
X0038584Y0038191D01*
X0038427Y0038211D01*
X0038271Y0038235D01*
X0038115Y0038263D01*
X0037960Y0038294D01*
X0037805Y0038330D01*
X0037652Y0038369D01*
X0037500Y0038412D01*
X0037349Y0038459D01*
X0037199Y0038510D01*
X0037050Y0038565D01*
X0036903Y0038623D01*
X0036757Y0038685D01*
X0036613Y0038750D01*
X0036471Y0038820D01*
X0036330Y0038892D01*
X0036191Y0038969D01*
X0036055Y0039048D01*
X0035920Y0039132D01*
X0035787Y0039218D01*
X0035657Y0039308D01*
X0035529Y0039401D01*
X0035403Y0039497D01*
X0035280Y0039597D01*
X0035159Y0039699D01*
X0035041Y0039804D01*
X0034926Y0039913D01*
X0034813Y0040024D01*
X0034703Y0040138D01*
X0034596Y0040255D01*
X0034492Y0040374D01*
X0034391Y0040496D01*
X0034294Y0040621D01*
X0034199Y0040748D01*
X0034108Y0040877D01*
X0034019Y0041008D01*
X0033935Y0041142D01*
X0033853Y0041278D01*
X0033775Y0041415D01*
X0033701Y0041555D01*
X0033630Y0041697D01*
X0033562Y0041840D01*
X0033498Y0041985D01*
X0033438Y0042131D01*
X0033382Y0042279D01*
X0033329Y0042428D01*
X0033280Y0042579D01*
X0033235Y0042731D01*
X0033194Y0042884D01*
X0033156Y0043037D01*
X0033123Y0043192D01*
X0033093Y0043348D01*
X0033067Y0043504D01*
X0033046Y0043661D01*
X0033028Y0043818D01*
X0033014Y0043976D01*
X0033004Y0044134D01*
X0032998Y0044292D01*
X0032996Y0044450D01*
X0032996Y0079883D02*
X0032998Y0080041D01*
X0033004Y0080199D01*
X0033014Y0080357D01*
X0033028Y0080515D01*
X0033046Y0080672D01*
X0033067Y0080829D01*
X0033093Y0080985D01*
X0033123Y0081141D01*
X0033156Y0081296D01*
X0033194Y0081449D01*
X0033235Y0081602D01*
X0033280Y0081754D01*
X0033329Y0081905D01*
X0033382Y0082054D01*
X0033438Y0082202D01*
X0033498Y0082348D01*
X0033562Y0082493D01*
X0033630Y0082636D01*
X0033701Y0082778D01*
X0033775Y0082918D01*
X0033853Y0083055D01*
X0033935Y0083191D01*
X0034019Y0083325D01*
X0034108Y0083456D01*
X0034199Y0083585D01*
X0034294Y0083712D01*
X0034391Y0083837D01*
X0034492Y0083959D01*
X0034596Y0084078D01*
X0034703Y0084195D01*
X0034813Y0084309D01*
X0034926Y0084420D01*
X0035041Y0084529D01*
X0035159Y0084634D01*
X0035280Y0084736D01*
X0035403Y0084836D01*
X0035529Y0084932D01*
X0035657Y0085025D01*
X0035787Y0085115D01*
X0035920Y0085201D01*
X0036055Y0085285D01*
X0036191Y0085364D01*
X0036330Y0085441D01*
X0036471Y0085513D01*
X0036613Y0085583D01*
X0036757Y0085648D01*
X0036903Y0085710D01*
X0037050Y0085768D01*
X0037199Y0085823D01*
X0037349Y0085874D01*
X0037500Y0085921D01*
X0037652Y0085964D01*
X0037805Y0086003D01*
X0037960Y0086039D01*
X0038115Y0086070D01*
X0038271Y0086098D01*
X0038427Y0086122D01*
X0038584Y0086142D01*
X0038742Y0086158D01*
X0038899Y0086170D01*
X0039058Y0086178D01*
X0039216Y0086182D01*
X0039374Y0086182D01*
X0039532Y0086178D01*
X0039691Y0086170D01*
X0039848Y0086158D01*
X0040006Y0086142D01*
X0040163Y0086122D01*
X0040319Y0086098D01*
X0040475Y0086070D01*
X0040630Y0086039D01*
X0040785Y0086003D01*
X0040938Y0085964D01*
X0041090Y0085921D01*
X0041241Y0085874D01*
X0041391Y0085823D01*
X0041540Y0085768D01*
X0041687Y0085710D01*
X0041833Y0085648D01*
X0041977Y0085583D01*
X0042119Y0085513D01*
X0042260Y0085441D01*
X0042399Y0085364D01*
X0042535Y0085285D01*
X0042670Y0085201D01*
X0042803Y0085115D01*
X0042933Y0085025D01*
X0043061Y0084932D01*
X0043187Y0084836D01*
X0043310Y0084736D01*
X0043431Y0084634D01*
X0043549Y0084529D01*
X0043664Y0084420D01*
X0043777Y0084309D01*
X0043887Y0084195D01*
X0043994Y0084078D01*
X0044098Y0083959D01*
X0044199Y0083837D01*
X0044296Y0083712D01*
X0044391Y0083585D01*
X0044482Y0083456D01*
X0044571Y0083325D01*
X0044655Y0083191D01*
X0044737Y0083055D01*
X0044815Y0082918D01*
X0044889Y0082778D01*
X0044960Y0082636D01*
X0045028Y0082493D01*
X0045092Y0082348D01*
X0045152Y0082202D01*
X0045208Y0082054D01*
X0045261Y0081905D01*
X0045310Y0081754D01*
X0045355Y0081602D01*
X0045396Y0081449D01*
X0045434Y0081296D01*
X0045467Y0081141D01*
X0045497Y0080985D01*
X0045523Y0080829D01*
X0045544Y0080672D01*
X0045562Y0080515D01*
X0045576Y0080357D01*
X0045586Y0080199D01*
X0045592Y0080041D01*
X0045594Y0079883D01*
X0045592Y0079725D01*
X0045586Y0079567D01*
X0045576Y0079409D01*
X0045562Y0079251D01*
X0045544Y0079094D01*
X0045523Y0078937D01*
X0045497Y0078781D01*
X0045467Y0078625D01*
X0045434Y0078470D01*
X0045396Y0078317D01*
X0045355Y0078164D01*
X0045310Y0078012D01*
X0045261Y0077861D01*
X0045208Y0077712D01*
X0045152Y0077564D01*
X0045092Y0077418D01*
X0045028Y0077273D01*
X0044960Y0077130D01*
X0044889Y0076988D01*
X0044815Y0076848D01*
X0044737Y0076711D01*
X0044655Y0076575D01*
X0044571Y0076441D01*
X0044482Y0076310D01*
X0044391Y0076181D01*
X0044296Y0076054D01*
X0044199Y0075929D01*
X0044098Y0075807D01*
X0043994Y0075688D01*
X0043887Y0075571D01*
X0043777Y0075457D01*
X0043664Y0075346D01*
X0043549Y0075237D01*
X0043431Y0075132D01*
X0043310Y0075030D01*
X0043187Y0074930D01*
X0043061Y0074834D01*
X0042933Y0074741D01*
X0042803Y0074651D01*
X0042670Y0074565D01*
X0042535Y0074481D01*
X0042399Y0074402D01*
X0042260Y0074325D01*
X0042119Y0074253D01*
X0041977Y0074183D01*
X0041833Y0074118D01*
X0041687Y0074056D01*
X0041540Y0073998D01*
X0041391Y0073943D01*
X0041241Y0073892D01*
X0041090Y0073845D01*
X0040938Y0073802D01*
X0040785Y0073763D01*
X0040630Y0073727D01*
X0040475Y0073696D01*
X0040319Y0073668D01*
X0040163Y0073644D01*
X0040006Y0073624D01*
X0039848Y0073608D01*
X0039691Y0073596D01*
X0039532Y0073588D01*
X0039374Y0073584D01*
X0039216Y0073584D01*
X0039058Y0073588D01*
X0038899Y0073596D01*
X0038742Y0073608D01*
X0038584Y0073624D01*
X0038427Y0073644D01*
X0038271Y0073668D01*
X0038115Y0073696D01*
X0037960Y0073727D01*
X0037805Y0073763D01*
X0037652Y0073802D01*
X0037500Y0073845D01*
X0037349Y0073892D01*
X0037199Y0073943D01*
X0037050Y0073998D01*
X0036903Y0074056D01*
X0036757Y0074118D01*
X0036613Y0074183D01*
X0036471Y0074253D01*
X0036330Y0074325D01*
X0036191Y0074402D01*
X0036055Y0074481D01*
X0035920Y0074565D01*
X0035787Y0074651D01*
X0035657Y0074741D01*
X0035529Y0074834D01*
X0035403Y0074930D01*
X0035280Y0075030D01*
X0035159Y0075132D01*
X0035041Y0075237D01*
X0034926Y0075346D01*
X0034813Y0075457D01*
X0034703Y0075571D01*
X0034596Y0075688D01*
X0034492Y0075807D01*
X0034391Y0075929D01*
X0034294Y0076054D01*
X0034199Y0076181D01*
X0034108Y0076310D01*
X0034019Y0076441D01*
X0033935Y0076575D01*
X0033853Y0076711D01*
X0033775Y0076848D01*
X0033701Y0076988D01*
X0033630Y0077130D01*
X0033562Y0077273D01*
X0033498Y0077418D01*
X0033438Y0077564D01*
X0033382Y0077712D01*
X0033329Y0077861D01*
X0033280Y0078012D01*
X0033235Y0078164D01*
X0033194Y0078317D01*
X0033156Y0078470D01*
X0033123Y0078625D01*
X0033093Y0078781D01*
X0033067Y0078937D01*
X0033046Y0079094D01*
X0033028Y0079251D01*
X0033014Y0079409D01*
X0033004Y0079567D01*
X0032998Y0079725D01*
X0032996Y0079883D01*
X0338081Y0035167D02*
X0338083Y0035325D01*
X0338089Y0035482D01*
X0338099Y0035640D01*
X0338113Y0035797D01*
X0338131Y0035953D01*
X0338152Y0036110D01*
X0338178Y0036265D01*
X0338208Y0036420D01*
X0338241Y0036574D01*
X0338279Y0036727D01*
X0338320Y0036880D01*
X0338365Y0037031D01*
X0338414Y0037181D01*
X0338467Y0037329D01*
X0338523Y0037477D01*
X0338584Y0037622D01*
X0338647Y0037767D01*
X0338715Y0037909D01*
X0338786Y0038050D01*
X0338860Y0038189D01*
X0338938Y0038326D01*
X0339020Y0038461D01*
X0339104Y0038594D01*
X0339193Y0038725D01*
X0339284Y0038853D01*
X0339379Y0038980D01*
X0339476Y0039103D01*
X0339577Y0039225D01*
X0339681Y0039343D01*
X0339788Y0039459D01*
X0339898Y0039572D01*
X0340010Y0039683D01*
X0340126Y0039790D01*
X0340244Y0039895D01*
X0340364Y0039997D01*
X0340487Y0040095D01*
X0340613Y0040191D01*
X0340741Y0040283D01*
X0340871Y0040372D01*
X0341003Y0040458D01*
X0341138Y0040540D01*
X0341275Y0040619D01*
X0341413Y0040694D01*
X0341553Y0040766D01*
X0341696Y0040834D01*
X0341839Y0040899D01*
X0341985Y0040960D01*
X0342132Y0041017D01*
X0342280Y0041071D01*
X0342430Y0041121D01*
X0342580Y0041167D01*
X0342732Y0041209D01*
X0342885Y0041248D01*
X0343039Y0041282D01*
X0343194Y0041313D01*
X0343349Y0041339D01*
X0343505Y0041362D01*
X0343662Y0041381D01*
X0343819Y0041396D01*
X0343976Y0041407D01*
X0344134Y0041414D01*
X0344292Y0041417D01*
X0344449Y0041416D01*
X0344607Y0041411D01*
X0344764Y0041402D01*
X0344922Y0041389D01*
X0345078Y0041372D01*
X0345235Y0041351D01*
X0345390Y0041327D01*
X0345545Y0041298D01*
X0345700Y0041265D01*
X0345853Y0041229D01*
X0346006Y0041188D01*
X0346157Y0041144D01*
X0346307Y0041096D01*
X0346456Y0041045D01*
X0346604Y0040989D01*
X0346750Y0040930D01*
X0346895Y0040867D01*
X0347038Y0040800D01*
X0347179Y0040730D01*
X0347318Y0040657D01*
X0347456Y0040580D01*
X0347592Y0040499D01*
X0347725Y0040415D01*
X0347856Y0040328D01*
X0347985Y0040237D01*
X0348112Y0040143D01*
X0348237Y0040046D01*
X0348358Y0039946D01*
X0348478Y0039843D01*
X0348594Y0039737D01*
X0348708Y0039628D01*
X0348820Y0039516D01*
X0348928Y0039402D01*
X0349033Y0039284D01*
X0349136Y0039164D01*
X0349235Y0039042D01*
X0349331Y0038917D01*
X0349424Y0038789D01*
X0349514Y0038660D01*
X0349600Y0038528D01*
X0349684Y0038394D01*
X0349763Y0038258D01*
X0349840Y0038120D01*
X0349912Y0037980D01*
X0349981Y0037838D01*
X0350047Y0037695D01*
X0350109Y0037550D01*
X0350167Y0037403D01*
X0350222Y0037255D01*
X0350273Y0037106D01*
X0350320Y0036955D01*
X0350363Y0036804D01*
X0350402Y0036651D01*
X0350438Y0036497D01*
X0350469Y0036343D01*
X0350497Y0036188D01*
X0350521Y0036032D01*
X0350541Y0035875D01*
X0350557Y0035718D01*
X0350569Y0035561D01*
X0350577Y0035404D01*
X0350581Y0035246D01*
X0350581Y0035088D01*
X0350577Y0034930D01*
X0350569Y0034773D01*
X0350557Y0034616D01*
X0350541Y0034459D01*
X0350521Y0034302D01*
X0350497Y0034146D01*
X0350469Y0033991D01*
X0350438Y0033837D01*
X0350402Y0033683D01*
X0350363Y0033530D01*
X0350320Y0033379D01*
X0350273Y0033228D01*
X0350222Y0033079D01*
X0350167Y0032931D01*
X0350109Y0032784D01*
X0350047Y0032639D01*
X0349981Y0032496D01*
X0349912Y0032354D01*
X0349840Y0032214D01*
X0349763Y0032076D01*
X0349684Y0031940D01*
X0349600Y0031806D01*
X0349514Y0031674D01*
X0349424Y0031545D01*
X0349331Y0031417D01*
X0349235Y0031292D01*
X0349136Y0031170D01*
X0349033Y0031050D01*
X0348928Y0030932D01*
X0348820Y0030818D01*
X0348708Y0030706D01*
X0348594Y0030597D01*
X0348478Y0030491D01*
X0348358Y0030388D01*
X0348237Y0030288D01*
X0348112Y0030191D01*
X0347985Y0030097D01*
X0347856Y0030006D01*
X0347725Y0029919D01*
X0347592Y0029835D01*
X0347456Y0029754D01*
X0347318Y0029677D01*
X0347179Y0029604D01*
X0347038Y0029534D01*
X0346895Y0029467D01*
X0346750Y0029404D01*
X0346604Y0029345D01*
X0346456Y0029289D01*
X0346307Y0029238D01*
X0346157Y0029190D01*
X0346006Y0029146D01*
X0345853Y0029105D01*
X0345700Y0029069D01*
X0345545Y0029036D01*
X0345390Y0029007D01*
X0345235Y0028983D01*
X0345078Y0028962D01*
X0344922Y0028945D01*
X0344764Y0028932D01*
X0344607Y0028923D01*
X0344449Y0028918D01*
X0344292Y0028917D01*
X0344134Y0028920D01*
X0343976Y0028927D01*
X0343819Y0028938D01*
X0343662Y0028953D01*
X0343505Y0028972D01*
X0343349Y0028995D01*
X0343194Y0029021D01*
X0343039Y0029052D01*
X0342885Y0029086D01*
X0342732Y0029125D01*
X0342580Y0029167D01*
X0342430Y0029213D01*
X0342280Y0029263D01*
X0342132Y0029317D01*
X0341985Y0029374D01*
X0341839Y0029435D01*
X0341696Y0029500D01*
X0341553Y0029568D01*
X0341413Y0029640D01*
X0341275Y0029715D01*
X0341138Y0029794D01*
X0341003Y0029876D01*
X0340871Y0029962D01*
X0340741Y0030051D01*
X0340613Y0030143D01*
X0340487Y0030239D01*
X0340364Y0030337D01*
X0340244Y0030439D01*
X0340126Y0030544D01*
X0340010Y0030651D01*
X0339898Y0030762D01*
X0339788Y0030875D01*
X0339681Y0030991D01*
X0339577Y0031109D01*
X0339476Y0031231D01*
X0339379Y0031354D01*
X0339284Y0031481D01*
X0339193Y0031609D01*
X0339104Y0031740D01*
X0339020Y0031873D01*
X0338938Y0032008D01*
X0338860Y0032145D01*
X0338786Y0032284D01*
X0338715Y0032425D01*
X0338647Y0032567D01*
X0338584Y0032712D01*
X0338523Y0032857D01*
X0338467Y0033005D01*
X0338414Y0033153D01*
X0338365Y0033303D01*
X0338320Y0033454D01*
X0338279Y0033607D01*
X0338241Y0033760D01*
X0338208Y0033914D01*
X0338178Y0034069D01*
X0338152Y0034224D01*
X0338131Y0034381D01*
X0338113Y0034537D01*
X0338099Y0034694D01*
X0338089Y0034852D01*
X0338083Y0035009D01*
X0338081Y0035167D01*
X0338081Y0200167D02*
X0338083Y0200325D01*
X0338089Y0200482D01*
X0338099Y0200640D01*
X0338113Y0200797D01*
X0338131Y0200953D01*
X0338152Y0201110D01*
X0338178Y0201265D01*
X0338208Y0201420D01*
X0338241Y0201574D01*
X0338279Y0201727D01*
X0338320Y0201880D01*
X0338365Y0202031D01*
X0338414Y0202181D01*
X0338467Y0202329D01*
X0338523Y0202477D01*
X0338584Y0202622D01*
X0338647Y0202767D01*
X0338715Y0202909D01*
X0338786Y0203050D01*
X0338860Y0203189D01*
X0338938Y0203326D01*
X0339020Y0203461D01*
X0339104Y0203594D01*
X0339193Y0203725D01*
X0339284Y0203853D01*
X0339379Y0203980D01*
X0339476Y0204103D01*
X0339577Y0204225D01*
X0339681Y0204343D01*
X0339788Y0204459D01*
X0339898Y0204572D01*
X0340010Y0204683D01*
X0340126Y0204790D01*
X0340244Y0204895D01*
X0340364Y0204997D01*
X0340487Y0205095D01*
X0340613Y0205191D01*
X0340741Y0205283D01*
X0340871Y0205372D01*
X0341003Y0205458D01*
X0341138Y0205540D01*
X0341275Y0205619D01*
X0341413Y0205694D01*
X0341553Y0205766D01*
X0341696Y0205834D01*
X0341839Y0205899D01*
X0341985Y0205960D01*
X0342132Y0206017D01*
X0342280Y0206071D01*
X0342430Y0206121D01*
X0342580Y0206167D01*
X0342732Y0206209D01*
X0342885Y0206248D01*
X0343039Y0206282D01*
X0343194Y0206313D01*
X0343349Y0206339D01*
X0343505Y0206362D01*
X0343662Y0206381D01*
X0343819Y0206396D01*
X0343976Y0206407D01*
X0344134Y0206414D01*
X0344292Y0206417D01*
X0344449Y0206416D01*
X0344607Y0206411D01*
X0344764Y0206402D01*
X0344922Y0206389D01*
X0345078Y0206372D01*
X0345235Y0206351D01*
X0345390Y0206327D01*
X0345545Y0206298D01*
X0345700Y0206265D01*
X0345853Y0206229D01*
X0346006Y0206188D01*
X0346157Y0206144D01*
X0346307Y0206096D01*
X0346456Y0206045D01*
X0346604Y0205989D01*
X0346750Y0205930D01*
X0346895Y0205867D01*
X0347038Y0205800D01*
X0347179Y0205730D01*
X0347318Y0205657D01*
X0347456Y0205580D01*
X0347592Y0205499D01*
X0347725Y0205415D01*
X0347856Y0205328D01*
X0347985Y0205237D01*
X0348112Y0205143D01*
X0348237Y0205046D01*
X0348358Y0204946D01*
X0348478Y0204843D01*
X0348594Y0204737D01*
X0348708Y0204628D01*
X0348820Y0204516D01*
X0348928Y0204402D01*
X0349033Y0204284D01*
X0349136Y0204164D01*
X0349235Y0204042D01*
X0349331Y0203917D01*
X0349424Y0203789D01*
X0349514Y0203660D01*
X0349600Y0203528D01*
X0349684Y0203394D01*
X0349763Y0203258D01*
X0349840Y0203120D01*
X0349912Y0202980D01*
X0349981Y0202838D01*
X0350047Y0202695D01*
X0350109Y0202550D01*
X0350167Y0202403D01*
X0350222Y0202255D01*
X0350273Y0202106D01*
X0350320Y0201955D01*
X0350363Y0201804D01*
X0350402Y0201651D01*
X0350438Y0201497D01*
X0350469Y0201343D01*
X0350497Y0201188D01*
X0350521Y0201032D01*
X0350541Y0200875D01*
X0350557Y0200718D01*
X0350569Y0200561D01*
X0350577Y0200404D01*
X0350581Y0200246D01*
X0350581Y0200088D01*
X0350577Y0199930D01*
X0350569Y0199773D01*
X0350557Y0199616D01*
X0350541Y0199459D01*
X0350521Y0199302D01*
X0350497Y0199146D01*
X0350469Y0198991D01*
X0350438Y0198837D01*
X0350402Y0198683D01*
X0350363Y0198530D01*
X0350320Y0198379D01*
X0350273Y0198228D01*
X0350222Y0198079D01*
X0350167Y0197931D01*
X0350109Y0197784D01*
X0350047Y0197639D01*
X0349981Y0197496D01*
X0349912Y0197354D01*
X0349840Y0197214D01*
X0349763Y0197076D01*
X0349684Y0196940D01*
X0349600Y0196806D01*
X0349514Y0196674D01*
X0349424Y0196545D01*
X0349331Y0196417D01*
X0349235Y0196292D01*
X0349136Y0196170D01*
X0349033Y0196050D01*
X0348928Y0195932D01*
X0348820Y0195818D01*
X0348708Y0195706D01*
X0348594Y0195597D01*
X0348478Y0195491D01*
X0348358Y0195388D01*
X0348237Y0195288D01*
X0348112Y0195191D01*
X0347985Y0195097D01*
X0347856Y0195006D01*
X0347725Y0194919D01*
X0347592Y0194835D01*
X0347456Y0194754D01*
X0347318Y0194677D01*
X0347179Y0194604D01*
X0347038Y0194534D01*
X0346895Y0194467D01*
X0346750Y0194404D01*
X0346604Y0194345D01*
X0346456Y0194289D01*
X0346307Y0194238D01*
X0346157Y0194190D01*
X0346006Y0194146D01*
X0345853Y0194105D01*
X0345700Y0194069D01*
X0345545Y0194036D01*
X0345390Y0194007D01*
X0345235Y0193983D01*
X0345078Y0193962D01*
X0344922Y0193945D01*
X0344764Y0193932D01*
X0344607Y0193923D01*
X0344449Y0193918D01*
X0344292Y0193917D01*
X0344134Y0193920D01*
X0343976Y0193927D01*
X0343819Y0193938D01*
X0343662Y0193953D01*
X0343505Y0193972D01*
X0343349Y0193995D01*
X0343194Y0194021D01*
X0343039Y0194052D01*
X0342885Y0194086D01*
X0342732Y0194125D01*
X0342580Y0194167D01*
X0342430Y0194213D01*
X0342280Y0194263D01*
X0342132Y0194317D01*
X0341985Y0194374D01*
X0341839Y0194435D01*
X0341696Y0194500D01*
X0341553Y0194568D01*
X0341413Y0194640D01*
X0341275Y0194715D01*
X0341138Y0194794D01*
X0341003Y0194876D01*
X0340871Y0194962D01*
X0340741Y0195051D01*
X0340613Y0195143D01*
X0340487Y0195239D01*
X0340364Y0195337D01*
X0340244Y0195439D01*
X0340126Y0195544D01*
X0340010Y0195651D01*
X0339898Y0195762D01*
X0339788Y0195875D01*
X0339681Y0195991D01*
X0339577Y0196109D01*
X0339476Y0196231D01*
X0339379Y0196354D01*
X0339284Y0196481D01*
X0339193Y0196609D01*
X0339104Y0196740D01*
X0339020Y0196873D01*
X0338938Y0197008D01*
X0338860Y0197145D01*
X0338786Y0197284D01*
X0338715Y0197425D01*
X0338647Y0197567D01*
X0338584Y0197712D01*
X0338523Y0197857D01*
X0338467Y0198005D01*
X0338414Y0198153D01*
X0338365Y0198303D01*
X0338320Y0198454D01*
X0338279Y0198607D01*
X0338241Y0198760D01*
X0338208Y0198914D01*
X0338178Y0199069D01*
X0338152Y0199224D01*
X0338131Y0199381D01*
X0338113Y0199537D01*
X0338099Y0199694D01*
X0338089Y0199852D01*
X0338083Y0200009D01*
X0338081Y0200167D01*
D12*
X0101431Y0205765D02*
X0101431Y0208567D01*
X0101431Y0207166D02*
X0097227Y0207166D01*
X0098628Y0205765D01*
X0096431Y0208463D02*
X0092227Y0208463D01*
X0092227Y0210565D01*
X0092928Y0211265D01*
X0094329Y0211265D01*
X0095030Y0210565D01*
X0095030Y0208463D01*
X0095030Y0213067D02*
X0094329Y0213767D01*
X0094329Y0215168D01*
X0095030Y0215869D01*
X0095730Y0215869D01*
X0096431Y0215168D01*
X0096431Y0213767D01*
X0095730Y0213067D01*
X0095030Y0213067D01*
X0094329Y0213767D02*
X0093628Y0213067D01*
X0092928Y0213067D01*
X0092227Y0213767D01*
X0092227Y0215168D01*
X0092928Y0215869D01*
X0093628Y0215869D01*
X0094329Y0215168D01*
X0094329Y0025869D02*
X0094329Y0023767D01*
X0093628Y0023067D01*
X0092928Y0023067D01*
X0092227Y0023767D01*
X0092227Y0025168D01*
X0092928Y0025869D01*
X0095730Y0025869D01*
X0096431Y0025168D01*
X0096431Y0023767D01*
X0095730Y0023067D01*
X0094329Y0021265D02*
X0095030Y0020565D01*
X0095030Y0018463D01*
X0096431Y0018463D02*
X0092227Y0018463D01*
X0092227Y0020565D01*
X0092928Y0021265D01*
X0094329Y0021265D01*
D13*
X0098128Y0017259D02*
X0101531Y0017259D01*
X0101531Y0016125D02*
X0101531Y0018394D01*
X0099262Y0016125D02*
X0098128Y0017259D01*
X0098695Y0026125D02*
X0098128Y0026692D01*
X0098128Y0027827D01*
X0098695Y0028394D01*
X0099262Y0028394D01*
X0101531Y0026125D01*
X0101531Y0028394D01*
X0096931Y0034967D02*
X0089731Y0034967D01*
X0089731Y0037967D01*
X0089731Y0045367D01*
X0089731Y0048367D01*
X0096831Y0048367D01*
X0096931Y0048367D01*
X0096931Y0037967D01*
X0096931Y0034967D01*
X0096931Y0037967D02*
X0089731Y0037967D01*
X0089731Y0039267D02*
X0089731Y0044067D01*
X0089731Y0045367D02*
X0096931Y0045367D01*
X0096831Y0048367D01*
X0096931Y0044067D02*
X0096931Y0039267D01*
X0155631Y0055867D02*
X0160031Y0055867D01*
X0160031Y0057467D01*
X0155631Y0057467D01*
X0155631Y0055867D01*
X0160031Y0054367D02*
X0175631Y0054367D01*
X0175631Y0073967D01*
X0166631Y0073967D01*
X0160031Y0073967D01*
X0160031Y0054367D01*
X0175631Y0054367D01*
X0175631Y0055867D02*
X0180031Y0055867D01*
X0180031Y0057467D01*
X0175631Y0057467D01*
X0175631Y0055867D01*
X0175631Y0060867D02*
X0180031Y0060867D01*
X0180031Y0062467D01*
X0175631Y0062467D01*
X0175631Y0060867D01*
X0175631Y0065867D02*
X0180031Y0065867D01*
X0180031Y0067467D01*
X0175631Y0067467D01*
X0175631Y0065867D01*
X0175631Y0070867D02*
X0180031Y0070867D01*
X0180031Y0072467D01*
X0175631Y0072467D01*
X0175631Y0070867D01*
X0175631Y0073967D02*
X0166631Y0073967D01*
X0160031Y0073967D01*
X0160031Y0072467D02*
X0155631Y0072467D01*
X0155631Y0070867D01*
X0160031Y0070867D01*
X0160031Y0072467D01*
X0160031Y0067467D02*
X0155631Y0067467D01*
X0155631Y0065867D01*
X0160031Y0065867D01*
X0160031Y0067467D01*
X0160031Y0062467D02*
X0155631Y0062467D01*
X0155631Y0060867D01*
X0160031Y0060867D01*
X0160031Y0062467D01*
X0163431Y0076367D02*
X0163431Y0081967D01*
X0166431Y0081967D01*
X0172231Y0081967D01*
X0172231Y0076367D01*
X0169231Y0076367D01*
X0166431Y0076367D01*
X0163431Y0076367D01*
X0166431Y0076367D02*
X0166431Y0081967D01*
X0169231Y0081967D02*
X0172231Y0082067D01*
X0172231Y0081967D01*
X0169231Y0081967D02*
X0169231Y0076367D01*
X0187981Y0060867D02*
X0187981Y0057867D01*
X0187981Y0050467D01*
X0187981Y0047467D01*
X0195181Y0047467D01*
X0195181Y0050467D01*
X0195181Y0060867D01*
X0195081Y0060867D01*
X0187981Y0060867D01*
X0187981Y0057867D02*
X0195181Y0057867D01*
X0195081Y0060867D01*
X0195181Y0056567D02*
X0195181Y0051767D01*
X0195181Y0050467D02*
X0187981Y0050467D01*
X0187981Y0051767D02*
X0187981Y0056567D01*
X0194431Y0048567D02*
X0194433Y0048611D01*
X0194439Y0048654D01*
X0194448Y0048696D01*
X0194461Y0048738D01*
X0194478Y0048778D01*
X0194498Y0048817D01*
X0194521Y0048854D01*
X0194548Y0048888D01*
X0194577Y0048921D01*
X0194610Y0048950D01*
X0194644Y0048977D01*
X0194681Y0049000D01*
X0194720Y0049020D01*
X0194760Y0049037D01*
X0194802Y0049050D01*
X0194844Y0049059D01*
X0194887Y0049065D01*
X0194931Y0049067D01*
X0194975Y0049065D01*
X0195018Y0049059D01*
X0195060Y0049050D01*
X0195102Y0049037D01*
X0195142Y0049020D01*
X0195181Y0049000D01*
X0195218Y0048977D01*
X0195252Y0048950D01*
X0195285Y0048921D01*
X0195314Y0048888D01*
X0195341Y0048854D01*
X0195364Y0048817D01*
X0195384Y0048778D01*
X0195401Y0048738D01*
X0195414Y0048696D01*
X0195423Y0048654D01*
X0195429Y0048611D01*
X0195431Y0048567D01*
X0195429Y0048523D01*
X0195423Y0048480D01*
X0195414Y0048438D01*
X0195401Y0048396D01*
X0195384Y0048356D01*
X0195364Y0048317D01*
X0195341Y0048280D01*
X0195314Y0048246D01*
X0195285Y0048213D01*
X0195252Y0048184D01*
X0195218Y0048157D01*
X0195181Y0048134D01*
X0195142Y0048114D01*
X0195102Y0048097D01*
X0195060Y0048084D01*
X0195018Y0048075D01*
X0194975Y0048069D01*
X0194931Y0048067D01*
X0194887Y0048069D01*
X0194844Y0048075D01*
X0194802Y0048084D01*
X0194760Y0048097D01*
X0194720Y0048114D01*
X0194681Y0048134D01*
X0194644Y0048157D01*
X0194610Y0048184D01*
X0194577Y0048213D01*
X0194548Y0048246D01*
X0194521Y0048280D01*
X0194498Y0048317D01*
X0194478Y0048356D01*
X0194461Y0048396D01*
X0194448Y0048438D01*
X0194439Y0048480D01*
X0194433Y0048523D01*
X0194431Y0048567D01*
X0194433Y0048611D01*
X0194439Y0048654D01*
X0194448Y0048696D01*
X0194461Y0048738D01*
X0194478Y0048778D01*
X0194498Y0048817D01*
X0194521Y0048854D01*
X0194548Y0048888D01*
X0194577Y0048921D01*
X0194610Y0048950D01*
X0194644Y0048977D01*
X0194681Y0049000D01*
X0194720Y0049020D01*
X0194760Y0049037D01*
X0194802Y0049050D01*
X0194844Y0049059D01*
X0194887Y0049065D01*
X0194931Y0049067D01*
X0194975Y0049065D01*
X0195018Y0049059D01*
X0195060Y0049050D01*
X0195102Y0049037D01*
X0195142Y0049020D01*
X0195181Y0049000D01*
X0195218Y0048977D01*
X0195252Y0048950D01*
X0195285Y0048921D01*
X0195314Y0048888D01*
X0195341Y0048854D01*
X0195364Y0048817D01*
X0195384Y0048778D01*
X0195401Y0048738D01*
X0195414Y0048696D01*
X0195423Y0048654D01*
X0195429Y0048611D01*
X0195431Y0048567D01*
X0195429Y0048523D01*
X0195423Y0048480D01*
X0195414Y0048438D01*
X0195401Y0048396D01*
X0195384Y0048356D01*
X0195364Y0048317D01*
X0195341Y0048280D01*
X0195314Y0048246D01*
X0195285Y0048213D01*
X0195252Y0048184D01*
X0195218Y0048157D01*
X0195181Y0048134D01*
X0195142Y0048114D01*
X0195102Y0048097D01*
X0195060Y0048084D01*
X0195018Y0048075D01*
X0194975Y0048069D01*
X0194931Y0048067D01*
X0194887Y0048069D01*
X0194844Y0048075D01*
X0194802Y0048084D01*
X0194760Y0048097D01*
X0194720Y0048114D01*
X0194681Y0048134D01*
X0194644Y0048157D01*
X0194610Y0048184D01*
X0194577Y0048213D01*
X0194548Y0048246D01*
X0194521Y0048280D01*
X0194498Y0048317D01*
X0194478Y0048356D01*
X0194461Y0048396D01*
X0194448Y0048438D01*
X0194439Y0048480D01*
X0194433Y0048523D01*
X0194431Y0048567D01*
X0199831Y0048367D02*
X0199831Y0069967D01*
X0215831Y0069967D01*
X0215831Y0048367D01*
X0199831Y0048367D01*
X0199831Y0069967D01*
X0215831Y0069967D02*
X0215831Y0048367D01*
X0272231Y0043567D02*
X0313431Y0043567D01*
X0313431Y0084767D01*
X0272231Y0084767D01*
X0272231Y0043567D01*
X0289931Y0043567D01*
X0295731Y0043567D02*
X0313431Y0043567D01*
X0313431Y0084767D01*
X0295731Y0084767D01*
X0292831Y0089767D02*
X0292831Y0092767D01*
X0292831Y0089767D01*
X0294331Y0091167D02*
X0291331Y0091167D01*
X0294331Y0091167D01*
X0289931Y0084767D02*
X0282531Y0084767D01*
X0272231Y0074467D01*
X0282531Y0084767D01*
X0272231Y0084767D01*
X0272231Y0043567D01*
X0303131Y0084767D02*
X0313431Y0074467D01*
X0303131Y0084767D01*
X0295731Y0100567D02*
X0313431Y0100567D01*
X0313431Y0141767D01*
X0272231Y0141767D01*
X0272231Y0100567D01*
X0313431Y0100567D01*
X0313431Y0141767D01*
X0295731Y0141767D01*
X0292831Y0146767D02*
X0292831Y0149767D01*
X0292831Y0146767D01*
X0294331Y0148167D02*
X0291331Y0148167D01*
X0294331Y0148167D01*
X0289931Y0141767D02*
X0282531Y0141767D01*
X0272231Y0131467D01*
X0282531Y0141767D01*
X0272231Y0141767D01*
X0272231Y0100567D01*
X0289931Y0100567D01*
X0313431Y0131467D02*
X0303131Y0141767D01*
X0313431Y0131467D01*
X0314431Y0157567D02*
X0273231Y0157567D01*
X0273231Y0198767D01*
X0314431Y0198767D01*
X0314431Y0157567D01*
X0314431Y0198767D01*
X0296731Y0198767D01*
X0290931Y0198767D02*
X0283531Y0198767D01*
X0273231Y0188467D01*
X0283531Y0198767D01*
X0273231Y0198767D01*
X0273231Y0157567D01*
X0290931Y0157567D01*
X0296731Y0157567D02*
X0314431Y0157567D01*
X0314431Y0188467D02*
X0304131Y0198767D01*
X0314431Y0188467D01*
X0333128Y0205985D02*
X0334829Y0204284D01*
X0334829Y0206552D01*
X0334829Y0207967D02*
X0334262Y0209101D01*
X0334262Y0209668D01*
X0334829Y0210235D01*
X0335964Y0210235D01*
X0336531Y0209668D01*
X0336531Y0208534D01*
X0335964Y0207967D01*
X0334829Y0207967D02*
X0333128Y0207967D01*
X0333128Y0210235D01*
X0333128Y0205985D02*
X0336531Y0205985D01*
X0334829Y0214284D02*
X0334829Y0216552D01*
X0334829Y0217967D02*
X0334829Y0219668D01*
X0335396Y0220235D01*
X0335964Y0220235D01*
X0336531Y0219668D01*
X0336531Y0218534D01*
X0335964Y0217967D01*
X0334829Y0217967D01*
X0333695Y0219101D01*
X0333128Y0220235D01*
X0333128Y0215985D02*
X0334829Y0214284D01*
X0333128Y0215985D02*
X0336531Y0215985D01*
X0295331Y0205167D02*
X0292331Y0205167D01*
X0295331Y0205167D01*
X0293831Y0203767D02*
X0293831Y0206767D01*
X0293831Y0203767D01*
X0216831Y0183967D02*
X0216831Y0162367D01*
X0200831Y0162367D01*
X0200831Y0183967D01*
X0216831Y0183967D01*
X0216831Y0162367D01*
X0200831Y0162367D02*
X0200831Y0183967D01*
X0196181Y0174867D02*
X0196081Y0174867D01*
X0188981Y0174867D01*
X0188981Y0171867D01*
X0188981Y0164467D01*
X0188981Y0161467D01*
X0196181Y0161467D01*
X0196181Y0164467D01*
X0196181Y0174867D01*
X0196081Y0174867D02*
X0196181Y0171867D01*
X0188981Y0171867D01*
X0188981Y0170567D02*
X0188981Y0165767D01*
X0188981Y0164467D02*
X0196181Y0164467D01*
X0196181Y0165767D02*
X0196181Y0170567D01*
X0196431Y0162567D02*
X0196429Y0162611D01*
X0196423Y0162654D01*
X0196414Y0162696D01*
X0196401Y0162738D01*
X0196384Y0162778D01*
X0196364Y0162817D01*
X0196341Y0162854D01*
X0196314Y0162888D01*
X0196285Y0162921D01*
X0196252Y0162950D01*
X0196218Y0162977D01*
X0196181Y0163000D01*
X0196142Y0163020D01*
X0196102Y0163037D01*
X0196060Y0163050D01*
X0196018Y0163059D01*
X0195975Y0163065D01*
X0195931Y0163067D01*
X0195887Y0163065D01*
X0195844Y0163059D01*
X0195802Y0163050D01*
X0195760Y0163037D01*
X0195720Y0163020D01*
X0195681Y0163000D01*
X0195644Y0162977D01*
X0195610Y0162950D01*
X0195577Y0162921D01*
X0195548Y0162888D01*
X0195521Y0162854D01*
X0195498Y0162817D01*
X0195478Y0162778D01*
X0195461Y0162738D01*
X0195448Y0162696D01*
X0195439Y0162654D01*
X0195433Y0162611D01*
X0195431Y0162567D01*
X0195433Y0162523D01*
X0195439Y0162480D01*
X0195448Y0162438D01*
X0195461Y0162396D01*
X0195478Y0162356D01*
X0195498Y0162317D01*
X0195521Y0162280D01*
X0195548Y0162246D01*
X0195577Y0162213D01*
X0195610Y0162184D01*
X0195644Y0162157D01*
X0195681Y0162134D01*
X0195720Y0162114D01*
X0195760Y0162097D01*
X0195802Y0162084D01*
X0195844Y0162075D01*
X0195887Y0162069D01*
X0195931Y0162067D01*
X0195975Y0162069D01*
X0196018Y0162075D01*
X0196060Y0162084D01*
X0196102Y0162097D01*
X0196142Y0162114D01*
X0196181Y0162134D01*
X0196218Y0162157D01*
X0196252Y0162184D01*
X0196285Y0162213D01*
X0196314Y0162246D01*
X0196341Y0162280D01*
X0196364Y0162317D01*
X0196384Y0162356D01*
X0196401Y0162396D01*
X0196414Y0162438D01*
X0196423Y0162480D01*
X0196429Y0162523D01*
X0196431Y0162567D01*
X0196429Y0162611D01*
X0196423Y0162654D01*
X0196414Y0162696D01*
X0196401Y0162738D01*
X0196384Y0162778D01*
X0196364Y0162817D01*
X0196341Y0162854D01*
X0196314Y0162888D01*
X0196285Y0162921D01*
X0196252Y0162950D01*
X0196218Y0162977D01*
X0196181Y0163000D01*
X0196142Y0163020D01*
X0196102Y0163037D01*
X0196060Y0163050D01*
X0196018Y0163059D01*
X0195975Y0163065D01*
X0195931Y0163067D01*
X0195887Y0163065D01*
X0195844Y0163059D01*
X0195802Y0163050D01*
X0195760Y0163037D01*
X0195720Y0163020D01*
X0195681Y0163000D01*
X0195644Y0162977D01*
X0195610Y0162950D01*
X0195577Y0162921D01*
X0195548Y0162888D01*
X0195521Y0162854D01*
X0195498Y0162817D01*
X0195478Y0162778D01*
X0195461Y0162738D01*
X0195448Y0162696D01*
X0195439Y0162654D01*
X0195433Y0162611D01*
X0195431Y0162567D01*
X0195433Y0162523D01*
X0195439Y0162480D01*
X0195448Y0162438D01*
X0195461Y0162396D01*
X0195478Y0162356D01*
X0195498Y0162317D01*
X0195521Y0162280D01*
X0195548Y0162246D01*
X0195577Y0162213D01*
X0195610Y0162184D01*
X0195644Y0162157D01*
X0195681Y0162134D01*
X0195720Y0162114D01*
X0195760Y0162097D01*
X0195802Y0162084D01*
X0195844Y0162075D01*
X0195887Y0162069D01*
X0195931Y0162067D01*
X0195975Y0162069D01*
X0196018Y0162075D01*
X0196060Y0162084D01*
X0196102Y0162097D01*
X0196142Y0162114D01*
X0196181Y0162134D01*
X0196218Y0162157D01*
X0196252Y0162184D01*
X0196285Y0162213D01*
X0196314Y0162246D01*
X0196341Y0162280D01*
X0196364Y0162317D01*
X0196384Y0162356D01*
X0196401Y0162396D01*
X0196414Y0162438D01*
X0196423Y0162480D01*
X0196429Y0162523D01*
X0196431Y0162567D01*
X0181031Y0169867D02*
X0181031Y0171467D01*
X0176631Y0171467D01*
X0176631Y0169867D01*
X0181031Y0169867D01*
X0176631Y0168367D02*
X0161031Y0168367D01*
X0161031Y0187967D01*
X0167631Y0187967D01*
X0176631Y0187967D01*
X0167631Y0187967D01*
X0161031Y0187967D01*
X0161031Y0186467D02*
X0156631Y0186467D01*
X0156631Y0184867D01*
X0161031Y0184867D01*
X0161031Y0186467D01*
X0164431Y0190367D02*
X0164431Y0195967D01*
X0167431Y0195967D01*
X0173231Y0195967D01*
X0173231Y0190367D01*
X0170231Y0190367D01*
X0167431Y0190367D01*
X0164431Y0190367D01*
X0167431Y0190367D02*
X0167431Y0195967D01*
X0170231Y0195967D02*
X0173231Y0196067D01*
X0173231Y0195967D01*
X0170231Y0195967D02*
X0170231Y0190367D01*
X0176631Y0187967D02*
X0176631Y0168367D01*
X0161031Y0168367D01*
X0161031Y0169867D02*
X0156631Y0169867D01*
X0156631Y0171467D01*
X0161031Y0171467D01*
X0161031Y0169867D01*
X0161031Y0174867D02*
X0156631Y0174867D01*
X0156631Y0176467D01*
X0161031Y0176467D01*
X0161031Y0174867D01*
X0161031Y0179867D02*
X0156631Y0179867D01*
X0156631Y0181467D01*
X0161031Y0181467D01*
X0161031Y0179867D01*
X0176631Y0179867D02*
X0181031Y0179867D01*
X0181031Y0181467D01*
X0176631Y0181467D01*
X0176631Y0179867D01*
X0176631Y0176467D02*
X0181031Y0176467D01*
X0181031Y0174867D01*
X0176631Y0174867D01*
X0176631Y0176467D01*
X0176631Y0184867D02*
X0181031Y0184867D01*
X0181031Y0186467D01*
X0176631Y0186467D01*
X0176631Y0184867D01*
X0101531Y0216125D02*
X0099262Y0218394D01*
X0098695Y0218394D01*
X0098128Y0217827D01*
X0098128Y0216692D01*
X0098695Y0216125D01*
X0101531Y0216125D02*
X0101531Y0218394D01*
X0163431Y0138967D02*
X0163431Y0133367D01*
X0166431Y0133367D01*
X0169231Y0133367D01*
X0172231Y0133367D01*
X0172231Y0138967D01*
X0166431Y0138967D01*
X0163431Y0138967D01*
X0166431Y0138967D02*
X0166431Y0133367D01*
X0166631Y0130967D02*
X0160031Y0130967D01*
X0160031Y0111367D01*
X0175631Y0111367D01*
X0175631Y0130967D01*
X0166631Y0130967D01*
X0160031Y0130967D01*
X0160031Y0129467D02*
X0155631Y0129467D01*
X0155631Y0127867D01*
X0160031Y0127867D01*
X0160031Y0129467D01*
X0166631Y0130967D02*
X0175631Y0130967D01*
X0175631Y0129467D02*
X0180031Y0129467D01*
X0180031Y0127867D01*
X0175631Y0127867D01*
X0175631Y0129467D01*
X0169231Y0133367D02*
X0169231Y0138967D01*
X0172231Y0139067D01*
X0172231Y0138967D01*
X0175631Y0124467D02*
X0180031Y0124467D01*
X0180031Y0122867D01*
X0175631Y0122867D01*
X0175631Y0124467D01*
X0175631Y0119467D02*
X0180031Y0119467D01*
X0180031Y0117867D01*
X0175631Y0117867D01*
X0175631Y0119467D01*
X0175631Y0114467D02*
X0180031Y0114467D01*
X0180031Y0112867D01*
X0175631Y0112867D01*
X0175631Y0114467D01*
X0175631Y0111367D02*
X0160031Y0111367D01*
X0160031Y0112867D02*
X0155631Y0112867D01*
X0155631Y0114467D01*
X0160031Y0114467D01*
X0160031Y0112867D01*
X0160031Y0117867D02*
X0155631Y0117867D01*
X0155631Y0119467D01*
X0160031Y0119467D01*
X0160031Y0117867D01*
X0160031Y0122867D02*
X0155631Y0122867D01*
X0155631Y0124467D01*
X0160031Y0124467D01*
X0160031Y0122867D01*
X0187981Y0117867D02*
X0187981Y0114867D01*
X0187981Y0107467D01*
X0187981Y0104467D01*
X0195181Y0104467D01*
X0195181Y0107467D01*
X0195181Y0117867D01*
X0195081Y0117867D01*
X0187981Y0117867D01*
X0187981Y0114867D02*
X0195181Y0114867D01*
X0195081Y0117867D01*
X0195181Y0113567D02*
X0195181Y0108767D01*
X0195181Y0107467D02*
X0187981Y0107467D01*
X0187981Y0108767D02*
X0187981Y0113567D01*
X0194431Y0105567D02*
X0194433Y0105611D01*
X0194439Y0105654D01*
X0194448Y0105696D01*
X0194461Y0105738D01*
X0194478Y0105778D01*
X0194498Y0105817D01*
X0194521Y0105854D01*
X0194548Y0105888D01*
X0194577Y0105921D01*
X0194610Y0105950D01*
X0194644Y0105977D01*
X0194681Y0106000D01*
X0194720Y0106020D01*
X0194760Y0106037D01*
X0194802Y0106050D01*
X0194844Y0106059D01*
X0194887Y0106065D01*
X0194931Y0106067D01*
X0194975Y0106065D01*
X0195018Y0106059D01*
X0195060Y0106050D01*
X0195102Y0106037D01*
X0195142Y0106020D01*
X0195181Y0106000D01*
X0195218Y0105977D01*
X0195252Y0105950D01*
X0195285Y0105921D01*
X0195314Y0105888D01*
X0195341Y0105854D01*
X0195364Y0105817D01*
X0195384Y0105778D01*
X0195401Y0105738D01*
X0195414Y0105696D01*
X0195423Y0105654D01*
X0195429Y0105611D01*
X0195431Y0105567D01*
X0195429Y0105523D01*
X0195423Y0105480D01*
X0195414Y0105438D01*
X0195401Y0105396D01*
X0195384Y0105356D01*
X0195364Y0105317D01*
X0195341Y0105280D01*
X0195314Y0105246D01*
X0195285Y0105213D01*
X0195252Y0105184D01*
X0195218Y0105157D01*
X0195181Y0105134D01*
X0195142Y0105114D01*
X0195102Y0105097D01*
X0195060Y0105084D01*
X0195018Y0105075D01*
X0194975Y0105069D01*
X0194931Y0105067D01*
X0194887Y0105069D01*
X0194844Y0105075D01*
X0194802Y0105084D01*
X0194760Y0105097D01*
X0194720Y0105114D01*
X0194681Y0105134D01*
X0194644Y0105157D01*
X0194610Y0105184D01*
X0194577Y0105213D01*
X0194548Y0105246D01*
X0194521Y0105280D01*
X0194498Y0105317D01*
X0194478Y0105356D01*
X0194461Y0105396D01*
X0194448Y0105438D01*
X0194439Y0105480D01*
X0194433Y0105523D01*
X0194431Y0105567D01*
X0194433Y0105611D01*
X0194439Y0105654D01*
X0194448Y0105696D01*
X0194461Y0105738D01*
X0194478Y0105778D01*
X0194498Y0105817D01*
X0194521Y0105854D01*
X0194548Y0105888D01*
X0194577Y0105921D01*
X0194610Y0105950D01*
X0194644Y0105977D01*
X0194681Y0106000D01*
X0194720Y0106020D01*
X0194760Y0106037D01*
X0194802Y0106050D01*
X0194844Y0106059D01*
X0194887Y0106065D01*
X0194931Y0106067D01*
X0194975Y0106065D01*
X0195018Y0106059D01*
X0195060Y0106050D01*
X0195102Y0106037D01*
X0195142Y0106020D01*
X0195181Y0106000D01*
X0195218Y0105977D01*
X0195252Y0105950D01*
X0195285Y0105921D01*
X0195314Y0105888D01*
X0195341Y0105854D01*
X0195364Y0105817D01*
X0195384Y0105778D01*
X0195401Y0105738D01*
X0195414Y0105696D01*
X0195423Y0105654D01*
X0195429Y0105611D01*
X0195431Y0105567D01*
X0195429Y0105523D01*
X0195423Y0105480D01*
X0195414Y0105438D01*
X0195401Y0105396D01*
X0195384Y0105356D01*
X0195364Y0105317D01*
X0195341Y0105280D01*
X0195314Y0105246D01*
X0195285Y0105213D01*
X0195252Y0105184D01*
X0195218Y0105157D01*
X0195181Y0105134D01*
X0195142Y0105114D01*
X0195102Y0105097D01*
X0195060Y0105084D01*
X0195018Y0105075D01*
X0194975Y0105069D01*
X0194931Y0105067D01*
X0194887Y0105069D01*
X0194844Y0105075D01*
X0194802Y0105084D01*
X0194760Y0105097D01*
X0194720Y0105114D01*
X0194681Y0105134D01*
X0194644Y0105157D01*
X0194610Y0105184D01*
X0194577Y0105213D01*
X0194548Y0105246D01*
X0194521Y0105280D01*
X0194498Y0105317D01*
X0194478Y0105356D01*
X0194461Y0105396D01*
X0194448Y0105438D01*
X0194439Y0105480D01*
X0194433Y0105523D01*
X0194431Y0105567D01*
X0199831Y0105367D02*
X0199831Y0126967D01*
X0215831Y0126967D01*
X0215831Y0105367D01*
X0199831Y0105367D01*
X0199831Y0126967D01*
X0215831Y0126967D02*
X0215831Y0105367D01*
X0333128Y0030235D02*
X0333695Y0029101D01*
X0334829Y0027967D01*
X0334829Y0029668D01*
X0335396Y0030235D01*
X0335964Y0030235D01*
X0336531Y0029668D01*
X0336531Y0028534D01*
X0335964Y0027967D01*
X0334829Y0027967D01*
X0334829Y0026552D02*
X0334829Y0024284D01*
X0333128Y0025985D01*
X0336531Y0025985D01*
X0335964Y0020235D02*
X0334829Y0020235D01*
X0334262Y0019668D01*
X0334262Y0019101D01*
X0334829Y0017967D01*
X0333128Y0017967D01*
X0333128Y0020235D01*
X0335964Y0020235D02*
X0336531Y0019668D01*
X0336531Y0018534D01*
X0335964Y0017967D01*
X0334829Y0016552D02*
X0334829Y0014284D01*
X0333128Y0015985D01*
X0336531Y0015985D01*
D14*
X0323744Y0050161D02*
X0320841Y0050161D01*
X0323744Y0050161D02*
X0323744Y0052096D01*
X0323744Y0053108D02*
X0323744Y0055043D01*
X0323744Y0056054D02*
X0323744Y0057505D01*
X0323260Y0057989D01*
X0321325Y0057989D01*
X0320841Y0057505D01*
X0320841Y0056054D01*
X0323744Y0056054D01*
X0322292Y0054075D02*
X0322292Y0053108D01*
X0320841Y0053108D02*
X0323744Y0053108D01*
X0320841Y0053108D02*
X0320841Y0055043D01*
X0322292Y0059001D02*
X0322292Y0060936D01*
X0320841Y0060452D02*
X0322292Y0059001D01*
X0323744Y0060452D02*
X0320841Y0060452D01*
X0332778Y0076817D02*
X0332778Y0078268D01*
X0333262Y0078752D01*
X0334229Y0078752D01*
X0334713Y0078268D01*
X0334713Y0076817D01*
X0334713Y0077784D02*
X0335681Y0078752D01*
X0334229Y0079763D02*
X0334229Y0081698D01*
X0332778Y0081214D02*
X0334229Y0079763D01*
X0335681Y0081214D02*
X0332778Y0081214D01*
X0332778Y0076817D02*
X0335681Y0076817D01*
X0323744Y0106661D02*
X0320841Y0106661D01*
X0323744Y0106661D02*
X0323744Y0108596D01*
X0323744Y0109608D02*
X0323744Y0111543D01*
X0323744Y0112554D02*
X0323744Y0114005D01*
X0323260Y0114489D01*
X0321325Y0114489D01*
X0320841Y0114005D01*
X0320841Y0112554D01*
X0323744Y0112554D01*
X0322292Y0110575D02*
X0322292Y0109608D01*
X0320841Y0109608D02*
X0323744Y0109608D01*
X0320841Y0109608D02*
X0320841Y0111543D01*
X0321325Y0115501D02*
X0320841Y0115984D01*
X0320841Y0116952D01*
X0321325Y0117436D01*
X0321809Y0117436D01*
X0323744Y0115501D01*
X0323744Y0117436D01*
X0332278Y0132317D02*
X0332278Y0133768D01*
X0332762Y0134252D01*
X0333729Y0134252D01*
X0334213Y0133768D01*
X0334213Y0132317D01*
X0334213Y0133284D02*
X0335181Y0134252D01*
X0335181Y0135263D02*
X0335181Y0137198D01*
X0335181Y0136231D02*
X0332278Y0136231D01*
X0333246Y0135263D01*
X0332762Y0138210D02*
X0332278Y0138693D01*
X0332278Y0139661D01*
X0332762Y0140145D01*
X0334697Y0138210D01*
X0335181Y0138693D01*
X0335181Y0139661D01*
X0334697Y0140145D01*
X0332762Y0140145D01*
X0332762Y0138210D02*
X0334697Y0138210D01*
X0335181Y0132317D02*
X0332278Y0132317D01*
X0324744Y0163661D02*
X0321841Y0163661D01*
X0324744Y0163661D02*
X0324744Y0165596D01*
X0324744Y0166608D02*
X0324744Y0168543D01*
X0324744Y0169554D02*
X0321841Y0169554D01*
X0321841Y0171005D01*
X0322325Y0171489D01*
X0324260Y0171489D01*
X0324744Y0171005D01*
X0324744Y0169554D01*
X0323292Y0167575D02*
X0323292Y0166608D01*
X0321841Y0166608D02*
X0324744Y0166608D01*
X0321841Y0166608D02*
X0321841Y0168543D01*
X0322809Y0172501D02*
X0321841Y0173468D01*
X0324744Y0173468D01*
X0324744Y0172501D02*
X0324744Y0174436D01*
X0333778Y0191317D02*
X0333778Y0192768D01*
X0334262Y0193252D01*
X0335229Y0193252D01*
X0335713Y0192768D01*
X0335713Y0191317D01*
X0335713Y0192284D02*
X0336681Y0193252D01*
X0336681Y0194263D02*
X0336197Y0194263D01*
X0334262Y0196198D01*
X0333778Y0196198D01*
X0333778Y0194263D01*
X0333778Y0191317D02*
X0336681Y0191317D01*
X0245398Y0156159D02*
X0244914Y0156643D01*
X0243946Y0156643D01*
X0243463Y0156159D01*
X0245398Y0156159D02*
X0245398Y0155676D01*
X0243463Y0153741D01*
X0245398Y0153741D01*
X0242451Y0153741D02*
X0240516Y0153741D01*
X0240516Y0156643D01*
X0241016Y0148143D02*
X0241016Y0145241D01*
X0242951Y0145241D01*
X0243963Y0145724D02*
X0244446Y0145241D01*
X0245414Y0145241D01*
X0245898Y0145724D01*
X0245898Y0146208D01*
X0245414Y0146692D01*
X0244930Y0146692D01*
X0245414Y0146692D02*
X0245898Y0147176D01*
X0245898Y0147659D01*
X0245414Y0148143D01*
X0244446Y0148143D01*
X0243963Y0147659D01*
X0158117Y0134037D02*
X0154981Y0130901D01*
X0158117Y0134037D01*
X0156549Y0134037D02*
X0156549Y0130901D01*
X0156549Y0134037D01*
X0154981Y0134037D02*
X0158117Y0130901D01*
X0154981Y0134037D01*
X0154981Y0132469D02*
X0158117Y0132469D01*
X0154981Y0132469D01*
X0143181Y0133252D02*
X0142213Y0132284D01*
X0142213Y0132768D02*
X0142213Y0131317D01*
X0143181Y0131317D02*
X0140278Y0131317D01*
X0140278Y0132768D01*
X0140762Y0133252D01*
X0141729Y0133252D01*
X0142213Y0132768D01*
X0142213Y0134263D02*
X0141729Y0134747D01*
X0141729Y0135714D01*
X0142213Y0136198D01*
X0142697Y0136198D01*
X0143181Y0135714D01*
X0143181Y0134747D01*
X0142697Y0134263D01*
X0142213Y0134263D01*
X0141729Y0134747D02*
X0141246Y0134263D01*
X0140762Y0134263D01*
X0140278Y0134747D01*
X0140278Y0135714D01*
X0140762Y0136198D01*
X0141246Y0136198D01*
X0141729Y0135714D01*
X0142197Y0113698D02*
X0140262Y0113698D01*
X0139778Y0113214D01*
X0139778Y0112247D01*
X0140262Y0111763D01*
X0140746Y0111763D01*
X0141229Y0112247D01*
X0141229Y0113698D01*
X0142197Y0113698D02*
X0142681Y0113214D01*
X0142681Y0112247D01*
X0142197Y0111763D01*
X0142681Y0110752D02*
X0141713Y0109784D01*
X0141713Y0110268D02*
X0141713Y0108817D01*
X0142681Y0108817D02*
X0139778Y0108817D01*
X0139778Y0110268D01*
X0140262Y0110752D01*
X0141229Y0110752D01*
X0141713Y0110268D01*
X0141246Y0079698D02*
X0140762Y0079698D01*
X0140278Y0079214D01*
X0140278Y0078247D01*
X0140762Y0077763D01*
X0140762Y0076752D02*
X0141729Y0076752D01*
X0142213Y0076268D01*
X0142213Y0074817D01*
X0142213Y0075784D02*
X0143181Y0076752D01*
X0143181Y0077763D02*
X0141246Y0079698D01*
X0143181Y0079698D02*
X0143181Y0077763D01*
X0140762Y0076752D02*
X0140278Y0076268D01*
X0140278Y0074817D01*
X0143181Y0074817D01*
X0154981Y0075469D02*
X0158117Y0075469D01*
X0154981Y0075469D01*
X0154981Y0077037D02*
X0158117Y0073901D01*
X0154981Y0077037D01*
X0156549Y0077037D02*
X0156549Y0073901D01*
X0156549Y0077037D01*
X0158117Y0077037D02*
X0154981Y0073901D01*
X0158117Y0077037D01*
X0142697Y0056198D02*
X0143181Y0055714D01*
X0143181Y0054747D01*
X0142697Y0054263D01*
X0143181Y0053252D02*
X0142213Y0052284D01*
X0142213Y0052768D02*
X0142213Y0051317D01*
X0143181Y0051317D02*
X0140278Y0051317D01*
X0140278Y0052768D01*
X0140762Y0053252D01*
X0141729Y0053252D01*
X0142213Y0052768D01*
X0140762Y0054263D02*
X0140278Y0054747D01*
X0140278Y0055714D01*
X0140762Y0056198D01*
X0141246Y0056198D01*
X0141729Y0055714D01*
X0142213Y0056198D01*
X0142697Y0056198D01*
X0141729Y0055714D02*
X0141729Y0055231D01*
X0088181Y0045757D02*
X0088181Y0042621D01*
X0088181Y0044189D02*
X0083477Y0044189D01*
X0085045Y0042621D01*
X0084261Y0041153D02*
X0083477Y0040369D01*
X0083477Y0038801D01*
X0084261Y0038017D01*
X0087397Y0038017D01*
X0088181Y0038801D01*
X0088181Y0040369D01*
X0087397Y0041153D01*
X0240016Y0089741D02*
X0241951Y0089741D01*
X0242963Y0089741D02*
X0244898Y0089741D01*
X0243930Y0089741D02*
X0243930Y0092643D01*
X0242963Y0091676D01*
X0240016Y0092643D02*
X0240016Y0089741D01*
X0133809Y0158300D02*
X0133325Y0157817D01*
X0132357Y0157817D01*
X0131874Y0158300D01*
X0133809Y0160235D01*
X0133809Y0158300D01*
X0131874Y0158300D02*
X0131874Y0160235D01*
X0132357Y0160719D01*
X0133325Y0160719D01*
X0133809Y0160235D01*
X0130862Y0160235D02*
X0130862Y0159752D01*
X0128927Y0157817D01*
X0130862Y0157817D01*
X0130862Y0160235D02*
X0130378Y0160719D01*
X0129411Y0160719D01*
X0128927Y0160235D01*
X0127916Y0160235D02*
X0127432Y0160719D01*
X0126464Y0160719D01*
X0125981Y0160235D01*
X0125981Y0158300D01*
X0126464Y0157817D01*
X0127432Y0157817D01*
X0127916Y0158300D01*
X0141278Y0166317D02*
X0141278Y0167768D01*
X0141762Y0168252D01*
X0142729Y0168252D01*
X0143213Y0167768D01*
X0143213Y0166317D01*
X0143213Y0167284D02*
X0144181Y0168252D01*
X0143697Y0169263D02*
X0144181Y0169747D01*
X0144181Y0170714D01*
X0143697Y0171198D01*
X0143213Y0171198D01*
X0142729Y0170714D01*
X0142729Y0169263D01*
X0143697Y0169263D01*
X0142729Y0169263D02*
X0141762Y0170231D01*
X0141278Y0171198D01*
X0141278Y0166317D02*
X0144181Y0166317D01*
X0135881Y0179477D02*
X0132978Y0179477D01*
X0132978Y0180928D01*
X0133462Y0181412D01*
X0134429Y0181412D01*
X0134913Y0180928D01*
X0134913Y0179477D01*
X0134913Y0180445D02*
X0135881Y0181412D01*
X0135881Y0182424D02*
X0135881Y0184359D01*
X0135881Y0183391D02*
X0132978Y0183391D01*
X0133946Y0182424D01*
X0133946Y0185370D02*
X0132978Y0186338D01*
X0135881Y0186338D01*
X0135881Y0187305D02*
X0135881Y0185370D01*
X0135866Y0191754D02*
X0134898Y0191754D01*
X0134415Y0192237D01*
X0133403Y0192237D02*
X0133403Y0194172D01*
X0132919Y0194656D01*
X0131468Y0194656D01*
X0131468Y0191754D01*
X0132919Y0191754D01*
X0133403Y0192237D01*
X0134415Y0194172D02*
X0134898Y0194656D01*
X0135866Y0194656D01*
X0136350Y0194172D01*
X0136350Y0193689D01*
X0135866Y0193205D01*
X0136350Y0192721D01*
X0136350Y0192237D01*
X0135866Y0191754D01*
X0135866Y0193205D02*
X0135382Y0193205D01*
X0130457Y0194656D02*
X0128522Y0194656D01*
X0128522Y0191754D01*
X0130457Y0191754D01*
X0129489Y0193205D02*
X0128522Y0193205D01*
X0127510Y0191754D02*
X0125575Y0191754D01*
X0125575Y0194656D01*
X0153778Y0194768D02*
X0154262Y0195252D01*
X0155229Y0195252D01*
X0155713Y0194768D01*
X0155713Y0193317D01*
X0155713Y0194284D02*
X0156681Y0195252D01*
X0156197Y0196263D02*
X0156681Y0196747D01*
X0156681Y0197714D01*
X0156197Y0198198D01*
X0155229Y0198198D01*
X0154746Y0197714D01*
X0154746Y0197231D01*
X0155229Y0196263D01*
X0153778Y0196263D01*
X0153778Y0198198D01*
X0153778Y0194768D02*
X0153778Y0193317D01*
X0156681Y0193317D01*
X0155981Y0191037D02*
X0159117Y0187901D01*
X0155981Y0191037D01*
X0157549Y0191037D02*
X0157549Y0187901D01*
X0157549Y0191037D01*
X0159117Y0191037D02*
X0155981Y0187901D01*
X0159117Y0191037D01*
X0159117Y0189469D02*
X0155981Y0189469D01*
X0159117Y0189469D01*
X0107309Y0175235D02*
X0106825Y0175719D01*
X0105857Y0175719D01*
X0105374Y0175235D01*
X0107309Y0175235D02*
X0107309Y0174752D01*
X0105374Y0172817D01*
X0107309Y0172817D01*
X0104362Y0172817D02*
X0102427Y0172817D01*
X0103395Y0172817D02*
X0103395Y0175719D01*
X0102427Y0174752D01*
X0101416Y0175235D02*
X0101416Y0174268D01*
X0100932Y0173784D01*
X0099481Y0173784D01*
X0100448Y0173784D02*
X0101416Y0172817D01*
X0099481Y0172817D02*
X0099481Y0175719D01*
X0100932Y0175719D01*
X0101416Y0175235D01*
X0093469Y0174068D02*
X0091534Y0174068D01*
X0092985Y0175519D01*
X0092985Y0172617D01*
X0090523Y0172617D02*
X0088588Y0172617D01*
X0089555Y0172617D02*
X0089555Y0175519D01*
X0088588Y0174552D01*
X0087576Y0175035D02*
X0087576Y0174068D01*
X0087092Y0173584D01*
X0085641Y0173584D01*
X0085641Y0172617D02*
X0085641Y0175519D01*
X0087092Y0175519D01*
X0087576Y0175035D01*
X0086609Y0173584D02*
X0087576Y0172617D01*
X0075485Y0222117D02*
X0074518Y0222117D01*
X0074034Y0222600D01*
X0074034Y0223568D02*
X0075002Y0224052D01*
X0075485Y0224052D01*
X0075969Y0223568D01*
X0075969Y0222600D01*
X0075485Y0222117D01*
X0074034Y0223568D02*
X0074034Y0225019D01*
X0075969Y0225019D01*
X0072055Y0225019D02*
X0072055Y0222117D01*
X0071088Y0222117D02*
X0073023Y0222117D01*
X0071088Y0224052D02*
X0072055Y0225019D01*
X0070076Y0224535D02*
X0070076Y0223568D01*
X0069592Y0223084D01*
X0068141Y0223084D01*
X0068141Y0222117D02*
X0068141Y0225019D01*
X0069592Y0225019D01*
X0070076Y0224535D01*
X0069109Y0223084D02*
X0070076Y0222117D01*
X0063850Y0224737D02*
X0063366Y0224254D01*
X0062398Y0224254D01*
X0061915Y0224737D01*
X0061915Y0225705D02*
X0062882Y0226189D01*
X0063366Y0226189D01*
X0063850Y0225705D01*
X0063850Y0224737D01*
X0061915Y0225705D02*
X0061915Y0227156D01*
X0063850Y0227156D01*
X0060903Y0226672D02*
X0060903Y0224737D01*
X0060419Y0224254D01*
X0058968Y0224254D01*
X0058968Y0227156D01*
X0060419Y0227156D01*
X0060903Y0226672D01*
X0057957Y0227156D02*
X0056022Y0227156D01*
X0056022Y0224254D01*
X0057957Y0224254D01*
X0056989Y0225705D02*
X0056022Y0225705D01*
X0055010Y0224254D02*
X0053075Y0224254D01*
X0053075Y0227156D01*
D15*
X0096565Y0173471D02*
X0098100Y0173471D01*
X0097333Y0173471D02*
X0097333Y0169634D01*
X0096565Y0168867D01*
X0095798Y0168867D01*
X0095031Y0169634D01*
X0099635Y0168867D02*
X0102704Y0168867D01*
X0104239Y0168867D02*
X0107308Y0168867D01*
X0105773Y0168867D02*
X0105773Y0173471D01*
X0104239Y0171936D01*
X0101169Y0173471D02*
X0101169Y0168867D01*
X0099635Y0171936D02*
X0101169Y0173471D01*
X0084667Y0071462D02*
X0085434Y0070695D01*
X0085434Y0069160D01*
X0084667Y0068393D01*
X0083132Y0068393D02*
X0082365Y0069927D01*
X0082365Y0070695D01*
X0083132Y0071462D01*
X0084667Y0071462D01*
X0083132Y0068393D02*
X0080830Y0068393D01*
X0080830Y0071462D01*
X0085434Y0066858D02*
X0085434Y0063789D01*
X0080830Y0063789D01*
X0081597Y0062254D02*
X0083132Y0062254D01*
X0083899Y0061487D01*
X0083899Y0059185D01*
X0085434Y0059185D02*
X0080830Y0059185D01*
X0080830Y0061487D01*
X0081597Y0062254D01*
X0109561Y0057584D02*
X0110329Y0058352D01*
X0112631Y0058352D01*
X0112631Y0056817D02*
X0110329Y0056817D01*
X0109561Y0057584D01*
X0110329Y0056817D02*
X0109561Y0056050D01*
X0109561Y0055282D01*
X0112631Y0055282D01*
X0112631Y0053748D02*
X0110329Y0053748D01*
X0109561Y0052980D01*
X0109561Y0051446D01*
X0110329Y0050678D01*
X0110329Y0049144D02*
X0109561Y0048376D01*
X0109561Y0046842D01*
X0110329Y0046075D01*
X0111863Y0046075D01*
X0112631Y0046842D01*
X0112631Y0048376D01*
X0111863Y0049144D01*
X0110329Y0049144D01*
X0108027Y0050678D02*
X0112631Y0050678D01*
X0112631Y0046040D02*
X0112631Y0042971D01*
X0112631Y0044505D02*
X0108027Y0044505D01*
X0109561Y0042971D01*
X0108794Y0041436D02*
X0110329Y0041436D01*
X0111096Y0040669D01*
X0111096Y0038367D01*
X0111096Y0039901D02*
X0112631Y0041436D01*
X0111863Y0039936D02*
X0112631Y0039169D01*
X0112631Y0037634D01*
X0111863Y0036867D01*
X0108794Y0039936D01*
X0111863Y0039936D01*
X0112631Y0038367D02*
X0108027Y0038367D01*
X0108027Y0040669D01*
X0108794Y0041436D01*
X0108794Y0039936D02*
X0108027Y0039169D01*
X0108027Y0037634D01*
X0108794Y0036867D01*
X0111863Y0036867D01*
X0347922Y0028480D02*
X0347922Y0026078D01*
X0349723Y0026078D01*
X0349123Y0027279D01*
X0349123Y0027879D01*
X0349723Y0028480D01*
X0350924Y0028480D01*
X0351525Y0027879D01*
X0351525Y0026678D01*
X0350924Y0026078D01*
X0350924Y0024196D02*
X0347922Y0024196D01*
X0347922Y0023595D02*
X0347922Y0024797D01*
X0350924Y0024196D02*
X0351525Y0023595D01*
X0351525Y0022995D01*
X0350924Y0022394D01*
X0350924Y0044394D02*
X0351525Y0044995D01*
X0351525Y0045595D01*
X0350924Y0046196D01*
X0347922Y0046196D01*
X0347922Y0045595D02*
X0347922Y0046797D01*
X0349723Y0048078D02*
X0349723Y0050480D01*
X0347922Y0049879D02*
X0351525Y0049879D01*
X0349723Y0048078D02*
X0347922Y0049879D01*
X0350924Y0066394D02*
X0351525Y0066995D01*
X0351525Y0067595D01*
X0350924Y0068196D01*
X0347922Y0068196D01*
X0347922Y0067595D02*
X0347922Y0068797D01*
X0348522Y0070078D02*
X0347922Y0070678D01*
X0347922Y0071879D01*
X0348522Y0072480D01*
X0349123Y0072480D01*
X0349723Y0071879D01*
X0350324Y0072480D01*
X0350924Y0072480D01*
X0351525Y0071879D01*
X0351525Y0070678D01*
X0350924Y0070078D01*
X0349723Y0071279D02*
X0349723Y0071879D01*
X0350924Y0088394D02*
X0351525Y0088995D01*
X0351525Y0089595D01*
X0350924Y0090196D01*
X0347922Y0090196D01*
X0347922Y0089595D02*
X0347922Y0090797D01*
X0348522Y0092078D02*
X0347922Y0092678D01*
X0347922Y0093879D01*
X0348522Y0094480D01*
X0349123Y0094480D01*
X0351525Y0092078D01*
X0351525Y0094480D01*
X0350924Y0130394D02*
X0351525Y0130995D01*
X0351525Y0131595D01*
X0350924Y0132196D01*
X0347922Y0132196D01*
X0347922Y0131595D02*
X0347922Y0132797D01*
X0349123Y0134078D02*
X0347922Y0135279D01*
X0351525Y0135279D01*
X0351525Y0134078D02*
X0351525Y0136480D01*
X0350924Y0152394D02*
X0351525Y0152995D01*
X0351525Y0153595D01*
X0350924Y0154196D01*
X0347922Y0154196D01*
X0347922Y0153595D02*
X0347922Y0154797D01*
X0349723Y0156078D02*
X0349723Y0157879D01*
X0350324Y0158480D01*
X0350924Y0158480D01*
X0351525Y0157879D01*
X0351525Y0156678D01*
X0350924Y0156078D01*
X0349723Y0156078D01*
X0348522Y0157279D01*
X0347922Y0158480D01*
X0350924Y0174394D02*
X0351525Y0174995D01*
X0351525Y0175595D01*
X0350924Y0176196D01*
X0347922Y0176196D01*
X0347922Y0175595D02*
X0347922Y0176797D01*
X0347922Y0178078D02*
X0347922Y0180480D01*
X0348522Y0180480D01*
X0350924Y0178078D01*
X0351525Y0178078D01*
X0350924Y0196394D02*
X0351525Y0196995D01*
X0351525Y0197595D01*
X0350924Y0198196D01*
X0347922Y0198196D01*
X0347922Y0197595D02*
X0347922Y0198797D01*
X0348522Y0200078D02*
X0347922Y0200678D01*
X0347922Y0201879D01*
X0348522Y0202480D01*
X0349123Y0202480D01*
X0349723Y0201879D01*
X0349723Y0200678D01*
X0349123Y0200078D01*
X0348522Y0200078D01*
X0349723Y0200678D02*
X0350324Y0200078D01*
X0350924Y0200078D01*
X0351525Y0200678D01*
X0351525Y0201879D01*
X0350924Y0202480D01*
X0350324Y0202480D01*
X0349723Y0201879D01*
X0350924Y0214894D02*
X0351525Y0215495D01*
X0351525Y0216095D01*
X0350924Y0216696D01*
X0347922Y0216696D01*
X0347922Y0216095D02*
X0347922Y0217297D01*
X0348522Y0218578D02*
X0347922Y0219178D01*
X0347922Y0220379D01*
X0348522Y0220980D01*
X0350924Y0220980D01*
X0351525Y0220379D01*
X0351525Y0219178D01*
X0350924Y0218578D01*
X0349723Y0219178D02*
X0349123Y0218578D01*
X0348522Y0218578D01*
X0349723Y0219178D02*
X0349723Y0220980D01*
D16*
X0295025Y0153769D02*
X0294024Y0153769D01*
X0293524Y0153269D01*
X0293524Y0151267D01*
X0295525Y0153269D01*
X0295525Y0151267D01*
X0295025Y0150767D01*
X0294024Y0150767D01*
X0293524Y0151267D01*
X0292579Y0150767D02*
X0290577Y0150767D01*
X0291578Y0150767D02*
X0291578Y0153769D01*
X0290577Y0152768D01*
X0289632Y0153269D02*
X0289132Y0153769D01*
X0288131Y0153769D01*
X0287631Y0153269D01*
X0287631Y0151267D01*
X0288131Y0150767D01*
X0289132Y0150767D01*
X0289632Y0151267D01*
X0295025Y0153769D02*
X0295525Y0153269D01*
X0212579Y0154267D02*
X0210577Y0154267D01*
X0211578Y0154267D02*
X0211578Y0157269D01*
X0210577Y0156268D01*
X0209632Y0156769D02*
X0209132Y0157269D01*
X0207631Y0157269D01*
X0207631Y0154267D01*
X0209132Y0154267D01*
X0209632Y0154767D01*
X0209632Y0156769D01*
X0199981Y0165467D02*
X0199981Y0166468D01*
X0199480Y0166968D01*
X0199981Y0167913D02*
X0199981Y0169915D01*
X0199981Y0168914D02*
X0196978Y0168914D01*
X0197979Y0167913D01*
X0197479Y0166968D02*
X0196978Y0166468D01*
X0196978Y0165467D01*
X0197479Y0164967D01*
X0199480Y0164967D01*
X0199981Y0165467D01*
X0199480Y0170860D02*
X0199981Y0171360D01*
X0199981Y0172361D01*
X0199480Y0172861D01*
X0198980Y0172861D01*
X0198479Y0172361D01*
X0198479Y0171861D01*
X0198479Y0172361D02*
X0197979Y0172861D01*
X0197479Y0172861D01*
X0196978Y0172361D01*
X0196978Y0171360D01*
X0197479Y0170860D01*
X0172525Y0166769D02*
X0172525Y0166268D01*
X0172025Y0165768D01*
X0172525Y0165268D01*
X0172525Y0164767D01*
X0172025Y0164267D01*
X0171024Y0164267D01*
X0170524Y0164767D01*
X0169579Y0164767D02*
X0169079Y0164267D01*
X0168078Y0164267D01*
X0167577Y0164767D01*
X0166632Y0164767D02*
X0166632Y0167269D01*
X0167577Y0166769D02*
X0168078Y0167269D01*
X0169079Y0167269D01*
X0169579Y0166769D01*
X0170524Y0166769D02*
X0171024Y0167269D01*
X0172025Y0167269D01*
X0172525Y0166769D01*
X0172025Y0165768D02*
X0171525Y0165768D01*
X0169579Y0165268D02*
X0169079Y0165768D01*
X0168078Y0165768D01*
X0167577Y0166268D01*
X0167577Y0166769D01*
X0168578Y0167770D02*
X0168578Y0163766D01*
X0169579Y0164767D02*
X0169579Y0165268D01*
X0166632Y0164767D02*
X0166132Y0164267D01*
X0165131Y0164267D01*
X0164631Y0164767D01*
X0164631Y0167269D01*
X0164131Y0143269D02*
X0163631Y0142769D01*
X0163631Y0140767D01*
X0164131Y0140267D01*
X0165132Y0140267D01*
X0165632Y0140767D01*
X0166577Y0140267D02*
X0168579Y0140267D01*
X0167578Y0140267D02*
X0167578Y0143269D01*
X0166577Y0142268D01*
X0165632Y0142769D02*
X0165132Y0143269D01*
X0164131Y0143269D01*
X0169524Y0143269D02*
X0169524Y0141768D01*
X0170525Y0142268D01*
X0171025Y0142268D01*
X0171525Y0141768D01*
X0171525Y0140767D01*
X0171025Y0140267D01*
X0170024Y0140267D01*
X0169524Y0140767D01*
X0169524Y0143269D02*
X0171525Y0143269D01*
X0168078Y0110270D02*
X0168078Y0106266D01*
X0167578Y0106767D02*
X0168579Y0106767D01*
X0169079Y0107267D01*
X0169079Y0107768D01*
X0168579Y0108268D01*
X0167578Y0108268D01*
X0167077Y0108768D01*
X0167077Y0109269D01*
X0167578Y0109769D01*
X0168579Y0109769D01*
X0169079Y0109269D01*
X0170024Y0108268D02*
X0172025Y0108268D01*
X0171525Y0109769D02*
X0170024Y0108268D01*
X0171525Y0106767D02*
X0171525Y0109769D01*
X0167578Y0106767D02*
X0167077Y0107267D01*
X0166132Y0107267D02*
X0166132Y0109769D01*
X0164131Y0109769D02*
X0164131Y0107267D01*
X0164631Y0106767D01*
X0165632Y0106767D01*
X0166132Y0107267D01*
X0187631Y0101019D02*
X0187631Y0099017D01*
X0188131Y0098517D01*
X0189132Y0098517D01*
X0189632Y0099017D01*
X0190577Y0098517D02*
X0192579Y0098517D01*
X0191578Y0098517D02*
X0191578Y0101519D01*
X0190577Y0100518D01*
X0189632Y0101019D02*
X0189132Y0101519D01*
X0188131Y0101519D01*
X0187631Y0101019D01*
X0193524Y0101019D02*
X0194024Y0101519D01*
X0195025Y0101519D01*
X0195525Y0101019D01*
X0195525Y0099017D01*
X0195025Y0098517D01*
X0194024Y0098517D01*
X0193524Y0099017D01*
X0194024Y0100018D02*
X0195525Y0100018D01*
X0194024Y0100018D02*
X0193524Y0100518D01*
X0193524Y0101019D01*
X0206131Y0100269D02*
X0206131Y0097267D01*
X0207632Y0097267D01*
X0208132Y0097767D01*
X0208132Y0099769D01*
X0207632Y0100269D01*
X0206131Y0100269D01*
X0209077Y0099769D02*
X0209578Y0100269D01*
X0210579Y0100269D01*
X0211079Y0099769D01*
X0211079Y0099268D01*
X0210579Y0098768D01*
X0211079Y0098268D01*
X0211079Y0097767D01*
X0210579Y0097267D01*
X0209578Y0097267D01*
X0209077Y0097767D01*
X0210078Y0098768D02*
X0210579Y0098768D01*
X0170579Y0085769D02*
X0170579Y0082767D01*
X0171079Y0084268D02*
X0169077Y0084268D01*
X0170579Y0085769D01*
X0168132Y0085269D02*
X0167632Y0085769D01*
X0166631Y0085769D01*
X0166131Y0085269D01*
X0166131Y0083267D01*
X0166631Y0082767D01*
X0167632Y0082767D01*
X0168132Y0083267D01*
X0167578Y0053270D02*
X0167578Y0049266D01*
X0167078Y0049767D02*
X0168079Y0049767D01*
X0168579Y0050267D01*
X0168579Y0050768D01*
X0168079Y0051268D01*
X0167078Y0051268D01*
X0166577Y0051768D01*
X0166577Y0052269D01*
X0167078Y0052769D01*
X0168079Y0052769D01*
X0168579Y0052269D01*
X0169524Y0052269D02*
X0170024Y0052769D01*
X0171025Y0052769D01*
X0171525Y0052269D01*
X0171525Y0051768D01*
X0169524Y0049767D01*
X0171525Y0049767D01*
X0167078Y0049767D02*
X0166577Y0050267D01*
X0165632Y0050267D02*
X0165632Y0052769D01*
X0163631Y0052769D02*
X0163631Y0050267D01*
X0164131Y0049767D01*
X0165132Y0049767D01*
X0165632Y0050267D01*
X0189131Y0044019D02*
X0189131Y0042017D01*
X0189631Y0041517D01*
X0190632Y0041517D01*
X0191132Y0042017D01*
X0192077Y0042017D02*
X0192077Y0042518D01*
X0192578Y0043018D01*
X0193579Y0043018D01*
X0194079Y0042518D01*
X0194079Y0042017D01*
X0193579Y0041517D01*
X0192578Y0041517D01*
X0192077Y0042017D01*
X0192578Y0043018D02*
X0192077Y0043518D01*
X0192077Y0044019D01*
X0192578Y0044519D01*
X0193579Y0044519D01*
X0194079Y0044019D01*
X0194079Y0043518D01*
X0193579Y0043018D01*
X0191132Y0044019D02*
X0190632Y0044519D01*
X0189631Y0044519D01*
X0189131Y0044019D01*
X0205131Y0042769D02*
X0205131Y0039767D01*
X0206632Y0039767D01*
X0207132Y0040267D01*
X0207132Y0042269D01*
X0206632Y0042769D01*
X0205131Y0042769D01*
X0208077Y0042269D02*
X0208578Y0042769D01*
X0209579Y0042769D01*
X0210079Y0042269D01*
X0210079Y0041768D01*
X0208077Y0039767D01*
X0210079Y0039767D01*
X0291131Y0038269D02*
X0291131Y0036267D01*
X0291631Y0035767D01*
X0292632Y0035767D01*
X0293132Y0036267D01*
X0294077Y0036267D02*
X0294578Y0035767D01*
X0295579Y0035767D01*
X0296079Y0036267D01*
X0296079Y0037268D01*
X0295579Y0037768D01*
X0295078Y0037768D01*
X0294077Y0037268D01*
X0294077Y0038769D01*
X0296079Y0038769D01*
X0293132Y0038269D02*
X0292632Y0038769D01*
X0291631Y0038769D01*
X0291131Y0038269D01*
X0290632Y0094267D02*
X0289631Y0094267D01*
X0289131Y0094767D01*
X0289131Y0096769D01*
X0289631Y0097269D01*
X0290632Y0097269D01*
X0291132Y0096769D01*
X0292077Y0096268D02*
X0293078Y0097269D01*
X0293078Y0094267D01*
X0292077Y0094267D02*
X0294079Y0094267D01*
X0295024Y0094767D02*
X0295524Y0094267D01*
X0296525Y0094267D01*
X0297025Y0094767D01*
X0297025Y0095268D01*
X0296525Y0095768D01*
X0295024Y0095768D01*
X0295024Y0094767D01*
X0295024Y0095768D02*
X0296025Y0096769D01*
X0297025Y0097269D01*
X0291132Y0094767D02*
X0290632Y0094267D01*
X0171079Y0197267D02*
X0171079Y0199269D01*
X0170579Y0199769D01*
X0169578Y0199769D01*
X0169077Y0199269D01*
X0169077Y0198768D01*
X0169578Y0198268D01*
X0171079Y0198268D01*
X0171079Y0197267D02*
X0170579Y0196767D01*
X0169578Y0196767D01*
X0169077Y0197267D01*
X0168132Y0197267D02*
X0167632Y0196767D01*
X0166631Y0196767D01*
X0166131Y0197267D01*
X0166131Y0199269D01*
X0166631Y0199769D01*
X0167632Y0199769D01*
X0168132Y0199269D01*
X0053231Y0179574D02*
X0052497Y0178840D01*
X0052497Y0179207D02*
X0052497Y0178106D01*
X0053231Y0178106D02*
X0051029Y0178106D01*
X0051029Y0179207D01*
X0051396Y0179574D01*
X0052130Y0179574D01*
X0052497Y0179207D01*
X0053231Y0177364D02*
X0053231Y0175896D01*
X0051029Y0175896D01*
X0051029Y0177364D01*
X0052130Y0176630D02*
X0052130Y0175896D01*
X0053231Y0175154D02*
X0051029Y0175154D01*
X0051029Y0173686D02*
X0053231Y0173686D01*
X0052497Y0174420D01*
X0053231Y0175154D01*
X0052864Y0172944D02*
X0051396Y0172944D01*
X0051029Y0172577D01*
X0051029Y0171844D01*
X0051396Y0171477D01*
X0052864Y0171477D01*
X0053231Y0171844D01*
X0053231Y0172577D01*
X0052864Y0172944D01*
X0052130Y0170735D02*
X0052497Y0170368D01*
X0052497Y0169267D01*
X0053231Y0169267D02*
X0051029Y0169267D01*
X0051029Y0170368D01*
X0051396Y0170735D01*
X0052130Y0170735D01*
D17*
X0059898Y0215521D03*
X0130476Y0200234D03*
X0326764Y0166562D03*
X0325764Y0109562D03*
X0325764Y0052562D03*
D18*
X0327831Y0055417D03*
X0327831Y0112417D03*
X0328831Y0169417D03*
X0133331Y0198167D03*
X0057831Y0212667D03*
D19*
X0052287Y0092482D02*
X0027484Y0092482D01*
X0027484Y0072797D01*
X0001500Y0072797D01*
X0001500Y0051537D01*
X0027484Y0051537D01*
X0027484Y0031852D01*
X0052287Y0031852D01*
X0052287Y0092482D01*
X0051500Y0051537D02*
X0060161Y0051537D01*
X0366831Y0051167D02*
X0366831Y0048667D01*
X0369331Y0048667D01*
X0369331Y0043667D01*
X0366831Y0043667D01*
X0366831Y0038667D01*
X0369331Y0038667D01*
X0369331Y0033667D01*
X0366831Y0033667D01*
X0366831Y0031167D01*
X0379331Y0031167D01*
X0379331Y0034667D01*
X0403831Y0034667D01*
X0405231Y0035967D01*
X0410831Y0036167D02*
X0412831Y0037167D01*
X0412831Y0040967D01*
X0412831Y0041367D01*
X0412831Y0040967D02*
X0412831Y0045167D01*
X0410831Y0046167D01*
X0379331Y0046167D01*
X0379331Y0051167D01*
X0366831Y0051167D01*
X0366831Y0053167D02*
X0379331Y0053167D01*
X0379331Y0056667D01*
X0403831Y0056667D01*
X0405231Y0057967D01*
X0410831Y0058167D02*
X0412831Y0059167D01*
X0412831Y0062967D01*
X0412831Y0063367D01*
X0412831Y0062967D02*
X0412831Y0067167D01*
X0410831Y0068167D01*
X0379331Y0068167D01*
X0379331Y0073167D01*
X0366831Y0073167D01*
X0366831Y0070667D01*
X0369331Y0070667D01*
X0369331Y0065667D01*
X0366831Y0065667D01*
X0366831Y0060667D01*
X0369331Y0060667D01*
X0369331Y0055667D01*
X0366831Y0055667D01*
X0366831Y0053167D01*
X0379331Y0056667D02*
X0379331Y0068167D01*
X0379331Y0069667D02*
X0403831Y0069667D01*
X0405231Y0068367D01*
X0403831Y0078667D02*
X0405231Y0079967D01*
X0403831Y0078667D02*
X0379331Y0078667D01*
X0379331Y0090167D01*
X0410831Y0090167D01*
X0412831Y0089167D01*
X0412831Y0084967D01*
X0412831Y0085367D01*
X0412831Y0084967D02*
X0412831Y0081167D01*
X0410831Y0080167D01*
X0379331Y0080167D01*
X0379331Y0078667D02*
X0379331Y0075167D01*
X0366831Y0075167D01*
X0366831Y0077667D01*
X0369331Y0077667D01*
X0369331Y0082667D01*
X0366831Y0082667D01*
X0366831Y0087667D01*
X0369331Y0087667D01*
X0369331Y0092667D01*
X0366831Y0092667D01*
X0366831Y0095167D01*
X0379331Y0095167D01*
X0379331Y0090167D01*
X0379331Y0091667D02*
X0403831Y0091667D01*
X0405231Y0090367D01*
X0403831Y0100667D02*
X0405231Y0101967D01*
X0403831Y0100667D02*
X0379331Y0100667D01*
X0379331Y0132167D01*
X0410831Y0132167D01*
X0412831Y0131167D01*
X0412831Y0116967D01*
X0412831Y0117367D02*
X0412831Y0103167D01*
X0410831Y0102167D01*
X0379331Y0102167D01*
X0379331Y0100667D02*
X0379331Y0097167D01*
X0366831Y0097167D01*
X0366831Y0099667D01*
X0369331Y0099667D01*
X0369331Y0104667D01*
X0366831Y0104667D01*
X0366831Y0109667D01*
X0369331Y0109667D01*
X0369331Y0114667D01*
X0366831Y0114667D01*
X0366831Y0119667D01*
X0369331Y0119667D01*
X0369331Y0124667D01*
X0366831Y0124667D01*
X0366831Y0129667D01*
X0369331Y0129667D01*
X0369331Y0134667D01*
X0366831Y0134667D01*
X0366831Y0137167D01*
X0379331Y0137167D01*
X0379331Y0132167D01*
X0379331Y0133667D02*
X0403831Y0133667D01*
X0405231Y0132367D01*
X0403831Y0142667D02*
X0405231Y0143967D01*
X0403831Y0142667D02*
X0379331Y0142667D01*
X0379331Y0154167D01*
X0410831Y0154167D01*
X0412831Y0153167D01*
X0412831Y0148967D01*
X0412831Y0149367D01*
X0412831Y0148967D02*
X0412831Y0145167D01*
X0410831Y0144167D01*
X0379331Y0144167D01*
X0379331Y0142667D02*
X0379331Y0139167D01*
X0366831Y0139167D01*
X0366831Y0141667D01*
X0369331Y0141667D01*
X0369331Y0146667D01*
X0366831Y0146667D01*
X0366831Y0151667D01*
X0369331Y0151667D01*
X0369331Y0156667D01*
X0366831Y0156667D01*
X0366831Y0159167D01*
X0379331Y0159167D01*
X0379331Y0154167D01*
X0379331Y0155667D02*
X0403831Y0155667D01*
X0405231Y0154367D01*
X0403831Y0164667D02*
X0405231Y0165967D01*
X0403831Y0164667D02*
X0379331Y0164667D01*
X0379331Y0176167D01*
X0410831Y0176167D01*
X0412831Y0175167D01*
X0412831Y0170967D01*
X0412831Y0171367D01*
X0412831Y0170967D02*
X0412831Y0167167D01*
X0410831Y0166167D01*
X0379331Y0166167D01*
X0379331Y0164667D02*
X0379331Y0161167D01*
X0366831Y0161167D01*
X0366831Y0163667D01*
X0369331Y0163667D01*
X0369331Y0168667D01*
X0366831Y0168667D01*
X0366831Y0173667D01*
X0369331Y0173667D01*
X0369331Y0178667D01*
X0366831Y0178667D01*
X0366831Y0181167D01*
X0379331Y0181167D01*
X0379331Y0176167D01*
X0379331Y0177667D02*
X0403831Y0177667D01*
X0405231Y0176367D01*
X0403831Y0186667D02*
X0405231Y0187967D01*
X0403831Y0186667D02*
X0379331Y0186667D01*
X0379331Y0198167D01*
X0410831Y0198167D01*
X0412831Y0197167D01*
X0412831Y0192967D01*
X0412831Y0193367D01*
X0412831Y0192967D02*
X0412831Y0189167D01*
X0410831Y0188167D01*
X0379331Y0188167D01*
X0379331Y0186667D02*
X0379331Y0183167D01*
X0366831Y0183167D01*
X0366831Y0185667D01*
X0369331Y0185667D01*
X0369331Y0190667D01*
X0366831Y0190667D01*
X0366831Y0195667D01*
X0369331Y0195667D01*
X0369331Y0200667D01*
X0366831Y0200667D01*
X0366831Y0203167D01*
X0379331Y0203167D01*
X0379331Y0198167D01*
X0379331Y0199667D02*
X0403831Y0199667D01*
X0405231Y0198367D01*
X0403831Y0208667D02*
X0405231Y0209967D01*
X0403831Y0208667D02*
X0379331Y0208667D01*
X0379331Y0220167D01*
X0410831Y0220167D01*
X0412831Y0219167D01*
X0412831Y0214967D01*
X0412831Y0215367D01*
X0412831Y0214967D02*
X0412831Y0211167D01*
X0410831Y0210167D01*
X0379331Y0210167D01*
X0379331Y0208667D02*
X0379331Y0205167D01*
X0366831Y0205167D01*
X0366831Y0207667D01*
X0369331Y0207667D01*
X0369331Y0212667D01*
X0366831Y0212667D01*
X0366831Y0217667D01*
X0369331Y0217667D01*
X0369331Y0222667D01*
X0366831Y0222667D01*
X0366831Y0225167D01*
X0379331Y0225167D01*
X0379331Y0220167D01*
X0379331Y0221667D02*
X0403831Y0221667D01*
X0405231Y0220367D01*
X0410831Y0058167D02*
X0379331Y0058167D01*
X0379331Y0047667D02*
X0403831Y0047667D01*
X0405231Y0046367D01*
X0410831Y0036167D02*
X0379331Y0036167D01*
X0379331Y0034667D02*
X0379331Y0046167D01*
X0379331Y0029167D02*
X0366831Y0029167D01*
X0366831Y0026667D01*
X0369331Y0026667D01*
X0369331Y0021667D01*
X0366831Y0021667D01*
X0366831Y0016667D01*
X0369331Y0016667D01*
X0369331Y0011667D01*
X0366831Y0011667D01*
X0366831Y0009167D01*
X0379331Y0009167D01*
X0379331Y0012667D01*
X0403831Y0012667D01*
X0405231Y0013967D01*
X0410831Y0014167D02*
X0412831Y0015167D01*
X0412831Y0018967D01*
X0412831Y0019367D01*
X0412831Y0018967D02*
X0412831Y0023167D01*
X0410831Y0024167D01*
X0379331Y0024167D01*
X0379331Y0029167D01*
X0379331Y0025667D02*
X0403831Y0025667D01*
X0405231Y0024367D01*
X0410831Y0014167D02*
X0379331Y0014167D01*
X0379331Y0012667D02*
X0379331Y0024167D01*
D20*
X0375944Y0022611D02*
X0373075Y0022611D01*
X0374509Y0022611D02*
X0374509Y0026914D01*
X0373075Y0025480D01*
X0373292Y0017114D02*
X0372575Y0016397D01*
X0373292Y0017114D02*
X0374727Y0017114D01*
X0375444Y0016397D01*
X0375444Y0015680D01*
X0372575Y0012811D01*
X0375444Y0012811D01*
X0375444Y0034811D02*
X0372575Y0034811D01*
X0375444Y0037680D01*
X0375444Y0038397D01*
X0374727Y0039114D01*
X0373292Y0039114D01*
X0372575Y0038397D01*
X0373075Y0044611D02*
X0375944Y0044611D01*
X0374509Y0044611D02*
X0374509Y0048914D01*
X0373075Y0047480D01*
X0372575Y0056811D02*
X0375444Y0059680D01*
X0375444Y0060397D01*
X0374727Y0061114D01*
X0373292Y0061114D01*
X0372575Y0060397D01*
X0372575Y0056811D02*
X0375444Y0056811D01*
X0375944Y0066611D02*
X0373075Y0066611D01*
X0374509Y0066611D02*
X0374509Y0070914D01*
X0373075Y0069480D01*
X0372575Y0078811D02*
X0375444Y0081680D01*
X0375444Y0082397D01*
X0374727Y0083114D01*
X0373292Y0083114D01*
X0372575Y0082397D01*
X0372575Y0078811D02*
X0375444Y0078811D01*
X0375944Y0088611D02*
X0373075Y0088611D01*
X0374509Y0088611D02*
X0374509Y0092914D01*
X0373075Y0091480D01*
X0374727Y0100811D02*
X0374727Y0105114D01*
X0372575Y0102963D01*
X0375444Y0102963D01*
X0375944Y0130611D02*
X0373075Y0130611D01*
X0374509Y0130611D02*
X0374509Y0134914D01*
X0373075Y0133480D01*
X0372575Y0142811D02*
X0375444Y0145680D01*
X0375444Y0146397D01*
X0374727Y0147114D01*
X0373292Y0147114D01*
X0372575Y0146397D01*
X0372575Y0142811D02*
X0375444Y0142811D01*
X0375944Y0152611D02*
X0373075Y0152611D01*
X0374509Y0152611D02*
X0374509Y0156914D01*
X0373075Y0155480D01*
X0372575Y0164811D02*
X0375444Y0167680D01*
X0375444Y0168397D01*
X0374727Y0169114D01*
X0373292Y0169114D01*
X0372575Y0168397D01*
X0372575Y0164811D02*
X0375444Y0164811D01*
X0375944Y0174611D02*
X0373075Y0174611D01*
X0374509Y0174611D02*
X0374509Y0178914D01*
X0373075Y0177480D01*
X0372575Y0186811D02*
X0375444Y0189680D01*
X0375444Y0190397D01*
X0374727Y0191114D01*
X0373292Y0191114D01*
X0372575Y0190397D01*
X0372575Y0186811D02*
X0375444Y0186811D01*
X0375944Y0196611D02*
X0373075Y0196611D01*
X0374509Y0196611D02*
X0374509Y0200914D01*
X0373075Y0199480D01*
X0372575Y0208811D02*
X0375444Y0211680D01*
X0375444Y0212397D01*
X0374727Y0213114D01*
X0373292Y0213114D01*
X0372575Y0212397D01*
X0372575Y0208811D02*
X0375444Y0208811D01*
X0375944Y0218611D02*
X0373075Y0218611D01*
X0374509Y0218611D02*
X0374509Y0222914D01*
X0373075Y0221480D01*
D21*
X0073941Y0062167D02*
X0059374Y0062167D01*
M02*
