%
M48
M72
T01C0.0150
T02C0.0210
T03C0.0236
T04C0.0300
T05C0.0394
T06C0.0400
T07C0.0551
T08C0.1250
T09C0.1260
%
T01
X5483Y8867
X11433Y11167
X11433Y14217
X11333Y15467
X12433Y15467
X11283Y18117
X10783Y18117
X10283Y18067
X9333Y18467
X8583Y18967
X8183Y18667
X7183Y18967
X7183Y18167
X8583Y19417
X9333Y19617
X9433Y20217
X13433Y19117
T02
X11983Y17117
T03
X15883Y15817
X18383Y15817
X18633Y16817
X20483Y15467
X22383Y15817
X23483Y15817
X28258Y15817
X30758Y15817
X30658Y10117
X28158Y10117
X22283Y10117
X18533Y11117
X18283Y10117
X15783Y10117
X18533Y5417
X18283Y4417
X15783Y4417
X22283Y4417
X28158Y4417
X30658Y4417
T04
X33733Y2267
X31883Y7117
X31883Y7767
X31883Y8417
X31933Y12117
X31933Y12767
X31933Y13417
X32033Y18267
X32033Y18917
X32033Y19567
T05
X18758Y17942
X18658Y12242
X18658Y6542
T06
X18683Y2767
X19683Y2767
X20683Y2767
X21683Y2767
X22683Y2767
X23683Y2767
X24683Y2767
X25683Y2767
X26683Y2767
X27683Y2767
X28683Y2767
X29683Y2767
X30683Y2767
X31683Y2767
X32683Y2767
X32683Y1767
X31683Y1767
X30683Y1767
X29683Y1767
X28683Y1767
X27683Y1767
X26683Y1767
X25683Y1767
X24683Y1767
X23683Y1767
X22683Y1767
X21683Y1767
X20683Y1767
X19683Y1767
X18683Y1767
X17683Y1767
X16683Y1767
X15683Y1767
X14683Y1767
X13683Y1767
X12683Y1767
X11683Y1767
X10683Y1767
X10683Y2767
X11683Y2767
X12683Y2767
X13683Y2767
X14683Y2767
X15683Y2767
X16683Y2767
X17683Y2767
X35933Y2417
X35933Y1417
X35933Y3617
X35933Y4617
X35933Y5817
X35933Y6817
X35933Y8017
X35933Y9017
X35933Y10217
X35933Y11217
X35933Y12217
X35933Y13217
X35933Y14417
X35933Y15417
X35933Y16617
X35933Y17617
X35933Y18817
X35933Y19817
X35933Y21017
X35933Y22017
X32683Y21767
X31683Y21767
X30683Y21767
X29683Y21767
X28683Y21767
X27683Y21767
X26683Y21767
X25683Y21767
X24683Y21767
X23683Y21767
X22683Y21767
X21683Y21767
X20683Y21767
X19683Y21767
X18683Y21767
X17683Y21767
X16683Y21767
X15683Y21767
X14683Y21767
X13683Y21767
X12683Y21767
X11683Y21767
X10683Y21767
X10683Y20767
X11683Y20767
X12683Y20767
X13683Y20767
X14683Y20767
X15683Y20767
X16683Y20767
X17683Y20767
X18683Y20767
X19683Y20767
X20683Y20767
X21683Y20767
X22683Y20767
X23683Y20767
X24683Y20767
X25683Y20767
X26683Y20767
X27683Y20767
X28683Y20767
X29683Y20767
X30683Y20767
X31683Y20767
X32683Y20767
T07
X7748Y6217
X5583Y6217
T08
X8433Y2267
X34433Y3517
X34433Y20017
X8433Y21267
T09
X3930Y4445
X3930Y7988
M30
