G75*
%MOIN*%
%OFA0B0*%
%FSLAX25Y25*%
%IPPOS*%
%LPD*%
%AMOC8*
5,1,8,0,0,1.08239X$1,22.5*
%
%ADD10C,0.00500*%
%ADD11C,0.00000*%
%ADD12R,0.06600X0.06600*%
%ADD13C,0.06600*%
%ADD14C,0.07400*%
%ADD15R,0.07100X0.04400*%
%ADD16R,0.05512X0.03937*%
%ADD17C,0.06000*%
%ADD18R,0.08268X0.08268*%
%ADD19R,0.04331X0.03937*%
%ADD20R,0.03937X0.04331*%
%ADD21R,0.02165X0.04724*%
%ADD22R,0.02600X0.03800*%
%ADD23R,0.01400X0.05800*%
%ADD24C,0.01600*%
%ADD25C,0.03562*%
%ADD26C,0.01000*%
%ADD27C,0.02700*%
%ADD28C,0.00800*%
%ADD29C,0.04000*%
%ADD30C,0.04500*%
%ADD31C,0.02000*%
%ADD32C,0.03000*%
%ADD33C,0.05906*%
%ADD34R,0.03562X0.03562*%
%ADD35C,0.03300*%
D10*
X0026831Y0007667D02*
X0026831Y0092667D01*
X0106831Y0092667D01*
X0106831Y0161667D01*
X0048831Y0161667D01*
X0048831Y0226167D01*
X0378831Y0226167D01*
X0378831Y0007667D01*
X0026831Y0007667D01*
D11*
X0078081Y0022667D02*
X0078083Y0022825D01*
X0078089Y0022982D01*
X0078099Y0023140D01*
X0078113Y0023297D01*
X0078131Y0023453D01*
X0078152Y0023610D01*
X0078178Y0023765D01*
X0078208Y0023920D01*
X0078241Y0024074D01*
X0078279Y0024227D01*
X0078320Y0024380D01*
X0078365Y0024531D01*
X0078414Y0024681D01*
X0078467Y0024829D01*
X0078523Y0024977D01*
X0078584Y0025122D01*
X0078647Y0025267D01*
X0078715Y0025409D01*
X0078786Y0025550D01*
X0078860Y0025689D01*
X0078938Y0025826D01*
X0079020Y0025961D01*
X0079104Y0026094D01*
X0079193Y0026225D01*
X0079284Y0026353D01*
X0079379Y0026480D01*
X0079476Y0026603D01*
X0079577Y0026725D01*
X0079681Y0026843D01*
X0079788Y0026959D01*
X0079898Y0027072D01*
X0080010Y0027183D01*
X0080126Y0027290D01*
X0080244Y0027395D01*
X0080364Y0027497D01*
X0080487Y0027595D01*
X0080613Y0027691D01*
X0080741Y0027783D01*
X0080871Y0027872D01*
X0081003Y0027958D01*
X0081138Y0028040D01*
X0081275Y0028119D01*
X0081413Y0028194D01*
X0081553Y0028266D01*
X0081696Y0028334D01*
X0081839Y0028399D01*
X0081985Y0028460D01*
X0082132Y0028517D01*
X0082280Y0028571D01*
X0082430Y0028621D01*
X0082580Y0028667D01*
X0082732Y0028709D01*
X0082885Y0028748D01*
X0083039Y0028782D01*
X0083194Y0028813D01*
X0083349Y0028839D01*
X0083505Y0028862D01*
X0083662Y0028881D01*
X0083819Y0028896D01*
X0083976Y0028907D01*
X0084134Y0028914D01*
X0084292Y0028917D01*
X0084449Y0028916D01*
X0084607Y0028911D01*
X0084764Y0028902D01*
X0084922Y0028889D01*
X0085078Y0028872D01*
X0085235Y0028851D01*
X0085390Y0028827D01*
X0085545Y0028798D01*
X0085700Y0028765D01*
X0085853Y0028729D01*
X0086006Y0028688D01*
X0086157Y0028644D01*
X0086307Y0028596D01*
X0086456Y0028545D01*
X0086604Y0028489D01*
X0086750Y0028430D01*
X0086895Y0028367D01*
X0087038Y0028300D01*
X0087179Y0028230D01*
X0087318Y0028157D01*
X0087456Y0028080D01*
X0087592Y0027999D01*
X0087725Y0027915D01*
X0087856Y0027828D01*
X0087985Y0027737D01*
X0088112Y0027643D01*
X0088237Y0027546D01*
X0088358Y0027446D01*
X0088478Y0027343D01*
X0088594Y0027237D01*
X0088708Y0027128D01*
X0088820Y0027016D01*
X0088928Y0026902D01*
X0089033Y0026784D01*
X0089136Y0026664D01*
X0089235Y0026542D01*
X0089331Y0026417D01*
X0089424Y0026289D01*
X0089514Y0026160D01*
X0089600Y0026028D01*
X0089684Y0025894D01*
X0089763Y0025758D01*
X0089840Y0025620D01*
X0089912Y0025480D01*
X0089981Y0025338D01*
X0090047Y0025195D01*
X0090109Y0025050D01*
X0090167Y0024903D01*
X0090222Y0024755D01*
X0090273Y0024606D01*
X0090320Y0024455D01*
X0090363Y0024304D01*
X0090402Y0024151D01*
X0090438Y0023997D01*
X0090469Y0023843D01*
X0090497Y0023688D01*
X0090521Y0023532D01*
X0090541Y0023375D01*
X0090557Y0023218D01*
X0090569Y0023061D01*
X0090577Y0022904D01*
X0090581Y0022746D01*
X0090581Y0022588D01*
X0090577Y0022430D01*
X0090569Y0022273D01*
X0090557Y0022116D01*
X0090541Y0021959D01*
X0090521Y0021802D01*
X0090497Y0021646D01*
X0090469Y0021491D01*
X0090438Y0021337D01*
X0090402Y0021183D01*
X0090363Y0021030D01*
X0090320Y0020879D01*
X0090273Y0020728D01*
X0090222Y0020579D01*
X0090167Y0020431D01*
X0090109Y0020284D01*
X0090047Y0020139D01*
X0089981Y0019996D01*
X0089912Y0019854D01*
X0089840Y0019714D01*
X0089763Y0019576D01*
X0089684Y0019440D01*
X0089600Y0019306D01*
X0089514Y0019174D01*
X0089424Y0019045D01*
X0089331Y0018917D01*
X0089235Y0018792D01*
X0089136Y0018670D01*
X0089033Y0018550D01*
X0088928Y0018432D01*
X0088820Y0018318D01*
X0088708Y0018206D01*
X0088594Y0018097D01*
X0088478Y0017991D01*
X0088358Y0017888D01*
X0088237Y0017788D01*
X0088112Y0017691D01*
X0087985Y0017597D01*
X0087856Y0017506D01*
X0087725Y0017419D01*
X0087592Y0017335D01*
X0087456Y0017254D01*
X0087318Y0017177D01*
X0087179Y0017104D01*
X0087038Y0017034D01*
X0086895Y0016967D01*
X0086750Y0016904D01*
X0086604Y0016845D01*
X0086456Y0016789D01*
X0086307Y0016738D01*
X0086157Y0016690D01*
X0086006Y0016646D01*
X0085853Y0016605D01*
X0085700Y0016569D01*
X0085545Y0016536D01*
X0085390Y0016507D01*
X0085235Y0016483D01*
X0085078Y0016462D01*
X0084922Y0016445D01*
X0084764Y0016432D01*
X0084607Y0016423D01*
X0084449Y0016418D01*
X0084292Y0016417D01*
X0084134Y0016420D01*
X0083976Y0016427D01*
X0083819Y0016438D01*
X0083662Y0016453D01*
X0083505Y0016472D01*
X0083349Y0016495D01*
X0083194Y0016521D01*
X0083039Y0016552D01*
X0082885Y0016586D01*
X0082732Y0016625D01*
X0082580Y0016667D01*
X0082430Y0016713D01*
X0082280Y0016763D01*
X0082132Y0016817D01*
X0081985Y0016874D01*
X0081839Y0016935D01*
X0081696Y0017000D01*
X0081553Y0017068D01*
X0081413Y0017140D01*
X0081275Y0017215D01*
X0081138Y0017294D01*
X0081003Y0017376D01*
X0080871Y0017462D01*
X0080741Y0017551D01*
X0080613Y0017643D01*
X0080487Y0017739D01*
X0080364Y0017837D01*
X0080244Y0017939D01*
X0080126Y0018044D01*
X0080010Y0018151D01*
X0079898Y0018262D01*
X0079788Y0018375D01*
X0079681Y0018491D01*
X0079577Y0018609D01*
X0079476Y0018731D01*
X0079379Y0018854D01*
X0079284Y0018981D01*
X0079193Y0019109D01*
X0079104Y0019240D01*
X0079020Y0019373D01*
X0078938Y0019508D01*
X0078860Y0019645D01*
X0078786Y0019784D01*
X0078715Y0019925D01*
X0078647Y0020067D01*
X0078584Y0020212D01*
X0078523Y0020357D01*
X0078467Y0020505D01*
X0078414Y0020653D01*
X0078365Y0020803D01*
X0078320Y0020954D01*
X0078279Y0021107D01*
X0078241Y0021260D01*
X0078208Y0021414D01*
X0078178Y0021569D01*
X0078152Y0021724D01*
X0078131Y0021881D01*
X0078113Y0022037D01*
X0078099Y0022194D01*
X0078089Y0022352D01*
X0078083Y0022509D01*
X0078081Y0022667D01*
X0032996Y0044450D02*
X0032998Y0044608D01*
X0033004Y0044766D01*
X0033014Y0044924D01*
X0033028Y0045082D01*
X0033046Y0045239D01*
X0033067Y0045396D01*
X0033093Y0045552D01*
X0033123Y0045708D01*
X0033156Y0045863D01*
X0033194Y0046016D01*
X0033235Y0046169D01*
X0033280Y0046321D01*
X0033329Y0046472D01*
X0033382Y0046621D01*
X0033438Y0046769D01*
X0033498Y0046915D01*
X0033562Y0047060D01*
X0033630Y0047203D01*
X0033701Y0047345D01*
X0033775Y0047485D01*
X0033853Y0047622D01*
X0033935Y0047758D01*
X0034019Y0047892D01*
X0034108Y0048023D01*
X0034199Y0048152D01*
X0034294Y0048279D01*
X0034391Y0048404D01*
X0034492Y0048526D01*
X0034596Y0048645D01*
X0034703Y0048762D01*
X0034813Y0048876D01*
X0034926Y0048987D01*
X0035041Y0049096D01*
X0035159Y0049201D01*
X0035280Y0049303D01*
X0035403Y0049403D01*
X0035529Y0049499D01*
X0035657Y0049592D01*
X0035787Y0049682D01*
X0035920Y0049768D01*
X0036055Y0049852D01*
X0036191Y0049931D01*
X0036330Y0050008D01*
X0036471Y0050080D01*
X0036613Y0050150D01*
X0036757Y0050215D01*
X0036903Y0050277D01*
X0037050Y0050335D01*
X0037199Y0050390D01*
X0037349Y0050441D01*
X0037500Y0050488D01*
X0037652Y0050531D01*
X0037805Y0050570D01*
X0037960Y0050606D01*
X0038115Y0050637D01*
X0038271Y0050665D01*
X0038427Y0050689D01*
X0038584Y0050709D01*
X0038742Y0050725D01*
X0038899Y0050737D01*
X0039058Y0050745D01*
X0039216Y0050749D01*
X0039374Y0050749D01*
X0039532Y0050745D01*
X0039691Y0050737D01*
X0039848Y0050725D01*
X0040006Y0050709D01*
X0040163Y0050689D01*
X0040319Y0050665D01*
X0040475Y0050637D01*
X0040630Y0050606D01*
X0040785Y0050570D01*
X0040938Y0050531D01*
X0041090Y0050488D01*
X0041241Y0050441D01*
X0041391Y0050390D01*
X0041540Y0050335D01*
X0041687Y0050277D01*
X0041833Y0050215D01*
X0041977Y0050150D01*
X0042119Y0050080D01*
X0042260Y0050008D01*
X0042399Y0049931D01*
X0042535Y0049852D01*
X0042670Y0049768D01*
X0042803Y0049682D01*
X0042933Y0049592D01*
X0043061Y0049499D01*
X0043187Y0049403D01*
X0043310Y0049303D01*
X0043431Y0049201D01*
X0043549Y0049096D01*
X0043664Y0048987D01*
X0043777Y0048876D01*
X0043887Y0048762D01*
X0043994Y0048645D01*
X0044098Y0048526D01*
X0044199Y0048404D01*
X0044296Y0048279D01*
X0044391Y0048152D01*
X0044482Y0048023D01*
X0044571Y0047892D01*
X0044655Y0047758D01*
X0044737Y0047622D01*
X0044815Y0047485D01*
X0044889Y0047345D01*
X0044960Y0047203D01*
X0045028Y0047060D01*
X0045092Y0046915D01*
X0045152Y0046769D01*
X0045208Y0046621D01*
X0045261Y0046472D01*
X0045310Y0046321D01*
X0045355Y0046169D01*
X0045396Y0046016D01*
X0045434Y0045863D01*
X0045467Y0045708D01*
X0045497Y0045552D01*
X0045523Y0045396D01*
X0045544Y0045239D01*
X0045562Y0045082D01*
X0045576Y0044924D01*
X0045586Y0044766D01*
X0045592Y0044608D01*
X0045594Y0044450D01*
X0045592Y0044292D01*
X0045586Y0044134D01*
X0045576Y0043976D01*
X0045562Y0043818D01*
X0045544Y0043661D01*
X0045523Y0043504D01*
X0045497Y0043348D01*
X0045467Y0043192D01*
X0045434Y0043037D01*
X0045396Y0042884D01*
X0045355Y0042731D01*
X0045310Y0042579D01*
X0045261Y0042428D01*
X0045208Y0042279D01*
X0045152Y0042131D01*
X0045092Y0041985D01*
X0045028Y0041840D01*
X0044960Y0041697D01*
X0044889Y0041555D01*
X0044815Y0041415D01*
X0044737Y0041278D01*
X0044655Y0041142D01*
X0044571Y0041008D01*
X0044482Y0040877D01*
X0044391Y0040748D01*
X0044296Y0040621D01*
X0044199Y0040496D01*
X0044098Y0040374D01*
X0043994Y0040255D01*
X0043887Y0040138D01*
X0043777Y0040024D01*
X0043664Y0039913D01*
X0043549Y0039804D01*
X0043431Y0039699D01*
X0043310Y0039597D01*
X0043187Y0039497D01*
X0043061Y0039401D01*
X0042933Y0039308D01*
X0042803Y0039218D01*
X0042670Y0039132D01*
X0042535Y0039048D01*
X0042399Y0038969D01*
X0042260Y0038892D01*
X0042119Y0038820D01*
X0041977Y0038750D01*
X0041833Y0038685D01*
X0041687Y0038623D01*
X0041540Y0038565D01*
X0041391Y0038510D01*
X0041241Y0038459D01*
X0041090Y0038412D01*
X0040938Y0038369D01*
X0040785Y0038330D01*
X0040630Y0038294D01*
X0040475Y0038263D01*
X0040319Y0038235D01*
X0040163Y0038211D01*
X0040006Y0038191D01*
X0039848Y0038175D01*
X0039691Y0038163D01*
X0039532Y0038155D01*
X0039374Y0038151D01*
X0039216Y0038151D01*
X0039058Y0038155D01*
X0038899Y0038163D01*
X0038742Y0038175D01*
X0038584Y0038191D01*
X0038427Y0038211D01*
X0038271Y0038235D01*
X0038115Y0038263D01*
X0037960Y0038294D01*
X0037805Y0038330D01*
X0037652Y0038369D01*
X0037500Y0038412D01*
X0037349Y0038459D01*
X0037199Y0038510D01*
X0037050Y0038565D01*
X0036903Y0038623D01*
X0036757Y0038685D01*
X0036613Y0038750D01*
X0036471Y0038820D01*
X0036330Y0038892D01*
X0036191Y0038969D01*
X0036055Y0039048D01*
X0035920Y0039132D01*
X0035787Y0039218D01*
X0035657Y0039308D01*
X0035529Y0039401D01*
X0035403Y0039497D01*
X0035280Y0039597D01*
X0035159Y0039699D01*
X0035041Y0039804D01*
X0034926Y0039913D01*
X0034813Y0040024D01*
X0034703Y0040138D01*
X0034596Y0040255D01*
X0034492Y0040374D01*
X0034391Y0040496D01*
X0034294Y0040621D01*
X0034199Y0040748D01*
X0034108Y0040877D01*
X0034019Y0041008D01*
X0033935Y0041142D01*
X0033853Y0041278D01*
X0033775Y0041415D01*
X0033701Y0041555D01*
X0033630Y0041697D01*
X0033562Y0041840D01*
X0033498Y0041985D01*
X0033438Y0042131D01*
X0033382Y0042279D01*
X0033329Y0042428D01*
X0033280Y0042579D01*
X0033235Y0042731D01*
X0033194Y0042884D01*
X0033156Y0043037D01*
X0033123Y0043192D01*
X0033093Y0043348D01*
X0033067Y0043504D01*
X0033046Y0043661D01*
X0033028Y0043818D01*
X0033014Y0043976D01*
X0033004Y0044134D01*
X0032998Y0044292D01*
X0032996Y0044450D01*
X0032996Y0079883D02*
X0032998Y0080041D01*
X0033004Y0080199D01*
X0033014Y0080357D01*
X0033028Y0080515D01*
X0033046Y0080672D01*
X0033067Y0080829D01*
X0033093Y0080985D01*
X0033123Y0081141D01*
X0033156Y0081296D01*
X0033194Y0081449D01*
X0033235Y0081602D01*
X0033280Y0081754D01*
X0033329Y0081905D01*
X0033382Y0082054D01*
X0033438Y0082202D01*
X0033498Y0082348D01*
X0033562Y0082493D01*
X0033630Y0082636D01*
X0033701Y0082778D01*
X0033775Y0082918D01*
X0033853Y0083055D01*
X0033935Y0083191D01*
X0034019Y0083325D01*
X0034108Y0083456D01*
X0034199Y0083585D01*
X0034294Y0083712D01*
X0034391Y0083837D01*
X0034492Y0083959D01*
X0034596Y0084078D01*
X0034703Y0084195D01*
X0034813Y0084309D01*
X0034926Y0084420D01*
X0035041Y0084529D01*
X0035159Y0084634D01*
X0035280Y0084736D01*
X0035403Y0084836D01*
X0035529Y0084932D01*
X0035657Y0085025D01*
X0035787Y0085115D01*
X0035920Y0085201D01*
X0036055Y0085285D01*
X0036191Y0085364D01*
X0036330Y0085441D01*
X0036471Y0085513D01*
X0036613Y0085583D01*
X0036757Y0085648D01*
X0036903Y0085710D01*
X0037050Y0085768D01*
X0037199Y0085823D01*
X0037349Y0085874D01*
X0037500Y0085921D01*
X0037652Y0085964D01*
X0037805Y0086003D01*
X0037960Y0086039D01*
X0038115Y0086070D01*
X0038271Y0086098D01*
X0038427Y0086122D01*
X0038584Y0086142D01*
X0038742Y0086158D01*
X0038899Y0086170D01*
X0039058Y0086178D01*
X0039216Y0086182D01*
X0039374Y0086182D01*
X0039532Y0086178D01*
X0039691Y0086170D01*
X0039848Y0086158D01*
X0040006Y0086142D01*
X0040163Y0086122D01*
X0040319Y0086098D01*
X0040475Y0086070D01*
X0040630Y0086039D01*
X0040785Y0086003D01*
X0040938Y0085964D01*
X0041090Y0085921D01*
X0041241Y0085874D01*
X0041391Y0085823D01*
X0041540Y0085768D01*
X0041687Y0085710D01*
X0041833Y0085648D01*
X0041977Y0085583D01*
X0042119Y0085513D01*
X0042260Y0085441D01*
X0042399Y0085364D01*
X0042535Y0085285D01*
X0042670Y0085201D01*
X0042803Y0085115D01*
X0042933Y0085025D01*
X0043061Y0084932D01*
X0043187Y0084836D01*
X0043310Y0084736D01*
X0043431Y0084634D01*
X0043549Y0084529D01*
X0043664Y0084420D01*
X0043777Y0084309D01*
X0043887Y0084195D01*
X0043994Y0084078D01*
X0044098Y0083959D01*
X0044199Y0083837D01*
X0044296Y0083712D01*
X0044391Y0083585D01*
X0044482Y0083456D01*
X0044571Y0083325D01*
X0044655Y0083191D01*
X0044737Y0083055D01*
X0044815Y0082918D01*
X0044889Y0082778D01*
X0044960Y0082636D01*
X0045028Y0082493D01*
X0045092Y0082348D01*
X0045152Y0082202D01*
X0045208Y0082054D01*
X0045261Y0081905D01*
X0045310Y0081754D01*
X0045355Y0081602D01*
X0045396Y0081449D01*
X0045434Y0081296D01*
X0045467Y0081141D01*
X0045497Y0080985D01*
X0045523Y0080829D01*
X0045544Y0080672D01*
X0045562Y0080515D01*
X0045576Y0080357D01*
X0045586Y0080199D01*
X0045592Y0080041D01*
X0045594Y0079883D01*
X0045592Y0079725D01*
X0045586Y0079567D01*
X0045576Y0079409D01*
X0045562Y0079251D01*
X0045544Y0079094D01*
X0045523Y0078937D01*
X0045497Y0078781D01*
X0045467Y0078625D01*
X0045434Y0078470D01*
X0045396Y0078317D01*
X0045355Y0078164D01*
X0045310Y0078012D01*
X0045261Y0077861D01*
X0045208Y0077712D01*
X0045152Y0077564D01*
X0045092Y0077418D01*
X0045028Y0077273D01*
X0044960Y0077130D01*
X0044889Y0076988D01*
X0044815Y0076848D01*
X0044737Y0076711D01*
X0044655Y0076575D01*
X0044571Y0076441D01*
X0044482Y0076310D01*
X0044391Y0076181D01*
X0044296Y0076054D01*
X0044199Y0075929D01*
X0044098Y0075807D01*
X0043994Y0075688D01*
X0043887Y0075571D01*
X0043777Y0075457D01*
X0043664Y0075346D01*
X0043549Y0075237D01*
X0043431Y0075132D01*
X0043310Y0075030D01*
X0043187Y0074930D01*
X0043061Y0074834D01*
X0042933Y0074741D01*
X0042803Y0074651D01*
X0042670Y0074565D01*
X0042535Y0074481D01*
X0042399Y0074402D01*
X0042260Y0074325D01*
X0042119Y0074253D01*
X0041977Y0074183D01*
X0041833Y0074118D01*
X0041687Y0074056D01*
X0041540Y0073998D01*
X0041391Y0073943D01*
X0041241Y0073892D01*
X0041090Y0073845D01*
X0040938Y0073802D01*
X0040785Y0073763D01*
X0040630Y0073727D01*
X0040475Y0073696D01*
X0040319Y0073668D01*
X0040163Y0073644D01*
X0040006Y0073624D01*
X0039848Y0073608D01*
X0039691Y0073596D01*
X0039532Y0073588D01*
X0039374Y0073584D01*
X0039216Y0073584D01*
X0039058Y0073588D01*
X0038899Y0073596D01*
X0038742Y0073608D01*
X0038584Y0073624D01*
X0038427Y0073644D01*
X0038271Y0073668D01*
X0038115Y0073696D01*
X0037960Y0073727D01*
X0037805Y0073763D01*
X0037652Y0073802D01*
X0037500Y0073845D01*
X0037349Y0073892D01*
X0037199Y0073943D01*
X0037050Y0073998D01*
X0036903Y0074056D01*
X0036757Y0074118D01*
X0036613Y0074183D01*
X0036471Y0074253D01*
X0036330Y0074325D01*
X0036191Y0074402D01*
X0036055Y0074481D01*
X0035920Y0074565D01*
X0035787Y0074651D01*
X0035657Y0074741D01*
X0035529Y0074834D01*
X0035403Y0074930D01*
X0035280Y0075030D01*
X0035159Y0075132D01*
X0035041Y0075237D01*
X0034926Y0075346D01*
X0034813Y0075457D01*
X0034703Y0075571D01*
X0034596Y0075688D01*
X0034492Y0075807D01*
X0034391Y0075929D01*
X0034294Y0076054D01*
X0034199Y0076181D01*
X0034108Y0076310D01*
X0034019Y0076441D01*
X0033935Y0076575D01*
X0033853Y0076711D01*
X0033775Y0076848D01*
X0033701Y0076988D01*
X0033630Y0077130D01*
X0033562Y0077273D01*
X0033498Y0077418D01*
X0033438Y0077564D01*
X0033382Y0077712D01*
X0033329Y0077861D01*
X0033280Y0078012D01*
X0033235Y0078164D01*
X0033194Y0078317D01*
X0033156Y0078470D01*
X0033123Y0078625D01*
X0033093Y0078781D01*
X0033067Y0078937D01*
X0033046Y0079094D01*
X0033028Y0079251D01*
X0033014Y0079409D01*
X0033004Y0079567D01*
X0032998Y0079725D01*
X0032996Y0079883D01*
X0078081Y0212667D02*
X0078083Y0212825D01*
X0078089Y0212982D01*
X0078099Y0213140D01*
X0078113Y0213297D01*
X0078131Y0213453D01*
X0078152Y0213610D01*
X0078178Y0213765D01*
X0078208Y0213920D01*
X0078241Y0214074D01*
X0078279Y0214227D01*
X0078320Y0214380D01*
X0078365Y0214531D01*
X0078414Y0214681D01*
X0078467Y0214829D01*
X0078523Y0214977D01*
X0078584Y0215122D01*
X0078647Y0215267D01*
X0078715Y0215409D01*
X0078786Y0215550D01*
X0078860Y0215689D01*
X0078938Y0215826D01*
X0079020Y0215961D01*
X0079104Y0216094D01*
X0079193Y0216225D01*
X0079284Y0216353D01*
X0079379Y0216480D01*
X0079476Y0216603D01*
X0079577Y0216725D01*
X0079681Y0216843D01*
X0079788Y0216959D01*
X0079898Y0217072D01*
X0080010Y0217183D01*
X0080126Y0217290D01*
X0080244Y0217395D01*
X0080364Y0217497D01*
X0080487Y0217595D01*
X0080613Y0217691D01*
X0080741Y0217783D01*
X0080871Y0217872D01*
X0081003Y0217958D01*
X0081138Y0218040D01*
X0081275Y0218119D01*
X0081413Y0218194D01*
X0081553Y0218266D01*
X0081696Y0218334D01*
X0081839Y0218399D01*
X0081985Y0218460D01*
X0082132Y0218517D01*
X0082280Y0218571D01*
X0082430Y0218621D01*
X0082580Y0218667D01*
X0082732Y0218709D01*
X0082885Y0218748D01*
X0083039Y0218782D01*
X0083194Y0218813D01*
X0083349Y0218839D01*
X0083505Y0218862D01*
X0083662Y0218881D01*
X0083819Y0218896D01*
X0083976Y0218907D01*
X0084134Y0218914D01*
X0084292Y0218917D01*
X0084449Y0218916D01*
X0084607Y0218911D01*
X0084764Y0218902D01*
X0084922Y0218889D01*
X0085078Y0218872D01*
X0085235Y0218851D01*
X0085390Y0218827D01*
X0085545Y0218798D01*
X0085700Y0218765D01*
X0085853Y0218729D01*
X0086006Y0218688D01*
X0086157Y0218644D01*
X0086307Y0218596D01*
X0086456Y0218545D01*
X0086604Y0218489D01*
X0086750Y0218430D01*
X0086895Y0218367D01*
X0087038Y0218300D01*
X0087179Y0218230D01*
X0087318Y0218157D01*
X0087456Y0218080D01*
X0087592Y0217999D01*
X0087725Y0217915D01*
X0087856Y0217828D01*
X0087985Y0217737D01*
X0088112Y0217643D01*
X0088237Y0217546D01*
X0088358Y0217446D01*
X0088478Y0217343D01*
X0088594Y0217237D01*
X0088708Y0217128D01*
X0088820Y0217016D01*
X0088928Y0216902D01*
X0089033Y0216784D01*
X0089136Y0216664D01*
X0089235Y0216542D01*
X0089331Y0216417D01*
X0089424Y0216289D01*
X0089514Y0216160D01*
X0089600Y0216028D01*
X0089684Y0215894D01*
X0089763Y0215758D01*
X0089840Y0215620D01*
X0089912Y0215480D01*
X0089981Y0215338D01*
X0090047Y0215195D01*
X0090109Y0215050D01*
X0090167Y0214903D01*
X0090222Y0214755D01*
X0090273Y0214606D01*
X0090320Y0214455D01*
X0090363Y0214304D01*
X0090402Y0214151D01*
X0090438Y0213997D01*
X0090469Y0213843D01*
X0090497Y0213688D01*
X0090521Y0213532D01*
X0090541Y0213375D01*
X0090557Y0213218D01*
X0090569Y0213061D01*
X0090577Y0212904D01*
X0090581Y0212746D01*
X0090581Y0212588D01*
X0090577Y0212430D01*
X0090569Y0212273D01*
X0090557Y0212116D01*
X0090541Y0211959D01*
X0090521Y0211802D01*
X0090497Y0211646D01*
X0090469Y0211491D01*
X0090438Y0211337D01*
X0090402Y0211183D01*
X0090363Y0211030D01*
X0090320Y0210879D01*
X0090273Y0210728D01*
X0090222Y0210579D01*
X0090167Y0210431D01*
X0090109Y0210284D01*
X0090047Y0210139D01*
X0089981Y0209996D01*
X0089912Y0209854D01*
X0089840Y0209714D01*
X0089763Y0209576D01*
X0089684Y0209440D01*
X0089600Y0209306D01*
X0089514Y0209174D01*
X0089424Y0209045D01*
X0089331Y0208917D01*
X0089235Y0208792D01*
X0089136Y0208670D01*
X0089033Y0208550D01*
X0088928Y0208432D01*
X0088820Y0208318D01*
X0088708Y0208206D01*
X0088594Y0208097D01*
X0088478Y0207991D01*
X0088358Y0207888D01*
X0088237Y0207788D01*
X0088112Y0207691D01*
X0087985Y0207597D01*
X0087856Y0207506D01*
X0087725Y0207419D01*
X0087592Y0207335D01*
X0087456Y0207254D01*
X0087318Y0207177D01*
X0087179Y0207104D01*
X0087038Y0207034D01*
X0086895Y0206967D01*
X0086750Y0206904D01*
X0086604Y0206845D01*
X0086456Y0206789D01*
X0086307Y0206738D01*
X0086157Y0206690D01*
X0086006Y0206646D01*
X0085853Y0206605D01*
X0085700Y0206569D01*
X0085545Y0206536D01*
X0085390Y0206507D01*
X0085235Y0206483D01*
X0085078Y0206462D01*
X0084922Y0206445D01*
X0084764Y0206432D01*
X0084607Y0206423D01*
X0084449Y0206418D01*
X0084292Y0206417D01*
X0084134Y0206420D01*
X0083976Y0206427D01*
X0083819Y0206438D01*
X0083662Y0206453D01*
X0083505Y0206472D01*
X0083349Y0206495D01*
X0083194Y0206521D01*
X0083039Y0206552D01*
X0082885Y0206586D01*
X0082732Y0206625D01*
X0082580Y0206667D01*
X0082430Y0206713D01*
X0082280Y0206763D01*
X0082132Y0206817D01*
X0081985Y0206874D01*
X0081839Y0206935D01*
X0081696Y0207000D01*
X0081553Y0207068D01*
X0081413Y0207140D01*
X0081275Y0207215D01*
X0081138Y0207294D01*
X0081003Y0207376D01*
X0080871Y0207462D01*
X0080741Y0207551D01*
X0080613Y0207643D01*
X0080487Y0207739D01*
X0080364Y0207837D01*
X0080244Y0207939D01*
X0080126Y0208044D01*
X0080010Y0208151D01*
X0079898Y0208262D01*
X0079788Y0208375D01*
X0079681Y0208491D01*
X0079577Y0208609D01*
X0079476Y0208731D01*
X0079379Y0208854D01*
X0079284Y0208981D01*
X0079193Y0209109D01*
X0079104Y0209240D01*
X0079020Y0209373D01*
X0078938Y0209508D01*
X0078860Y0209645D01*
X0078786Y0209784D01*
X0078715Y0209925D01*
X0078647Y0210067D01*
X0078584Y0210212D01*
X0078523Y0210357D01*
X0078467Y0210505D01*
X0078414Y0210653D01*
X0078365Y0210803D01*
X0078320Y0210954D01*
X0078279Y0211107D01*
X0078241Y0211260D01*
X0078208Y0211414D01*
X0078178Y0211569D01*
X0078152Y0211724D01*
X0078131Y0211881D01*
X0078113Y0212037D01*
X0078099Y0212194D01*
X0078089Y0212352D01*
X0078083Y0212509D01*
X0078081Y0212667D01*
X0338081Y0200167D02*
X0338083Y0200325D01*
X0338089Y0200482D01*
X0338099Y0200640D01*
X0338113Y0200797D01*
X0338131Y0200953D01*
X0338152Y0201110D01*
X0338178Y0201265D01*
X0338208Y0201420D01*
X0338241Y0201574D01*
X0338279Y0201727D01*
X0338320Y0201880D01*
X0338365Y0202031D01*
X0338414Y0202181D01*
X0338467Y0202329D01*
X0338523Y0202477D01*
X0338584Y0202622D01*
X0338647Y0202767D01*
X0338715Y0202909D01*
X0338786Y0203050D01*
X0338860Y0203189D01*
X0338938Y0203326D01*
X0339020Y0203461D01*
X0339104Y0203594D01*
X0339193Y0203725D01*
X0339284Y0203853D01*
X0339379Y0203980D01*
X0339476Y0204103D01*
X0339577Y0204225D01*
X0339681Y0204343D01*
X0339788Y0204459D01*
X0339898Y0204572D01*
X0340010Y0204683D01*
X0340126Y0204790D01*
X0340244Y0204895D01*
X0340364Y0204997D01*
X0340487Y0205095D01*
X0340613Y0205191D01*
X0340741Y0205283D01*
X0340871Y0205372D01*
X0341003Y0205458D01*
X0341138Y0205540D01*
X0341275Y0205619D01*
X0341413Y0205694D01*
X0341553Y0205766D01*
X0341696Y0205834D01*
X0341839Y0205899D01*
X0341985Y0205960D01*
X0342132Y0206017D01*
X0342280Y0206071D01*
X0342430Y0206121D01*
X0342580Y0206167D01*
X0342732Y0206209D01*
X0342885Y0206248D01*
X0343039Y0206282D01*
X0343194Y0206313D01*
X0343349Y0206339D01*
X0343505Y0206362D01*
X0343662Y0206381D01*
X0343819Y0206396D01*
X0343976Y0206407D01*
X0344134Y0206414D01*
X0344292Y0206417D01*
X0344449Y0206416D01*
X0344607Y0206411D01*
X0344764Y0206402D01*
X0344922Y0206389D01*
X0345078Y0206372D01*
X0345235Y0206351D01*
X0345390Y0206327D01*
X0345545Y0206298D01*
X0345700Y0206265D01*
X0345853Y0206229D01*
X0346006Y0206188D01*
X0346157Y0206144D01*
X0346307Y0206096D01*
X0346456Y0206045D01*
X0346604Y0205989D01*
X0346750Y0205930D01*
X0346895Y0205867D01*
X0347038Y0205800D01*
X0347179Y0205730D01*
X0347318Y0205657D01*
X0347456Y0205580D01*
X0347592Y0205499D01*
X0347725Y0205415D01*
X0347856Y0205328D01*
X0347985Y0205237D01*
X0348112Y0205143D01*
X0348237Y0205046D01*
X0348358Y0204946D01*
X0348478Y0204843D01*
X0348594Y0204737D01*
X0348708Y0204628D01*
X0348820Y0204516D01*
X0348928Y0204402D01*
X0349033Y0204284D01*
X0349136Y0204164D01*
X0349235Y0204042D01*
X0349331Y0203917D01*
X0349424Y0203789D01*
X0349514Y0203660D01*
X0349600Y0203528D01*
X0349684Y0203394D01*
X0349763Y0203258D01*
X0349840Y0203120D01*
X0349912Y0202980D01*
X0349981Y0202838D01*
X0350047Y0202695D01*
X0350109Y0202550D01*
X0350167Y0202403D01*
X0350222Y0202255D01*
X0350273Y0202106D01*
X0350320Y0201955D01*
X0350363Y0201804D01*
X0350402Y0201651D01*
X0350438Y0201497D01*
X0350469Y0201343D01*
X0350497Y0201188D01*
X0350521Y0201032D01*
X0350541Y0200875D01*
X0350557Y0200718D01*
X0350569Y0200561D01*
X0350577Y0200404D01*
X0350581Y0200246D01*
X0350581Y0200088D01*
X0350577Y0199930D01*
X0350569Y0199773D01*
X0350557Y0199616D01*
X0350541Y0199459D01*
X0350521Y0199302D01*
X0350497Y0199146D01*
X0350469Y0198991D01*
X0350438Y0198837D01*
X0350402Y0198683D01*
X0350363Y0198530D01*
X0350320Y0198379D01*
X0350273Y0198228D01*
X0350222Y0198079D01*
X0350167Y0197931D01*
X0350109Y0197784D01*
X0350047Y0197639D01*
X0349981Y0197496D01*
X0349912Y0197354D01*
X0349840Y0197214D01*
X0349763Y0197076D01*
X0349684Y0196940D01*
X0349600Y0196806D01*
X0349514Y0196674D01*
X0349424Y0196545D01*
X0349331Y0196417D01*
X0349235Y0196292D01*
X0349136Y0196170D01*
X0349033Y0196050D01*
X0348928Y0195932D01*
X0348820Y0195818D01*
X0348708Y0195706D01*
X0348594Y0195597D01*
X0348478Y0195491D01*
X0348358Y0195388D01*
X0348237Y0195288D01*
X0348112Y0195191D01*
X0347985Y0195097D01*
X0347856Y0195006D01*
X0347725Y0194919D01*
X0347592Y0194835D01*
X0347456Y0194754D01*
X0347318Y0194677D01*
X0347179Y0194604D01*
X0347038Y0194534D01*
X0346895Y0194467D01*
X0346750Y0194404D01*
X0346604Y0194345D01*
X0346456Y0194289D01*
X0346307Y0194238D01*
X0346157Y0194190D01*
X0346006Y0194146D01*
X0345853Y0194105D01*
X0345700Y0194069D01*
X0345545Y0194036D01*
X0345390Y0194007D01*
X0345235Y0193983D01*
X0345078Y0193962D01*
X0344922Y0193945D01*
X0344764Y0193932D01*
X0344607Y0193923D01*
X0344449Y0193918D01*
X0344292Y0193917D01*
X0344134Y0193920D01*
X0343976Y0193927D01*
X0343819Y0193938D01*
X0343662Y0193953D01*
X0343505Y0193972D01*
X0343349Y0193995D01*
X0343194Y0194021D01*
X0343039Y0194052D01*
X0342885Y0194086D01*
X0342732Y0194125D01*
X0342580Y0194167D01*
X0342430Y0194213D01*
X0342280Y0194263D01*
X0342132Y0194317D01*
X0341985Y0194374D01*
X0341839Y0194435D01*
X0341696Y0194500D01*
X0341553Y0194568D01*
X0341413Y0194640D01*
X0341275Y0194715D01*
X0341138Y0194794D01*
X0341003Y0194876D01*
X0340871Y0194962D01*
X0340741Y0195051D01*
X0340613Y0195143D01*
X0340487Y0195239D01*
X0340364Y0195337D01*
X0340244Y0195439D01*
X0340126Y0195544D01*
X0340010Y0195651D01*
X0339898Y0195762D01*
X0339788Y0195875D01*
X0339681Y0195991D01*
X0339577Y0196109D01*
X0339476Y0196231D01*
X0339379Y0196354D01*
X0339284Y0196481D01*
X0339193Y0196609D01*
X0339104Y0196740D01*
X0339020Y0196873D01*
X0338938Y0197008D01*
X0338860Y0197145D01*
X0338786Y0197284D01*
X0338715Y0197425D01*
X0338647Y0197567D01*
X0338584Y0197712D01*
X0338523Y0197857D01*
X0338467Y0198005D01*
X0338414Y0198153D01*
X0338365Y0198303D01*
X0338320Y0198454D01*
X0338279Y0198607D01*
X0338241Y0198760D01*
X0338208Y0198914D01*
X0338178Y0199069D01*
X0338152Y0199224D01*
X0338131Y0199381D01*
X0338113Y0199537D01*
X0338099Y0199694D01*
X0338089Y0199852D01*
X0338083Y0200009D01*
X0338081Y0200167D01*
X0338081Y0035167D02*
X0338083Y0035325D01*
X0338089Y0035482D01*
X0338099Y0035640D01*
X0338113Y0035797D01*
X0338131Y0035953D01*
X0338152Y0036110D01*
X0338178Y0036265D01*
X0338208Y0036420D01*
X0338241Y0036574D01*
X0338279Y0036727D01*
X0338320Y0036880D01*
X0338365Y0037031D01*
X0338414Y0037181D01*
X0338467Y0037329D01*
X0338523Y0037477D01*
X0338584Y0037622D01*
X0338647Y0037767D01*
X0338715Y0037909D01*
X0338786Y0038050D01*
X0338860Y0038189D01*
X0338938Y0038326D01*
X0339020Y0038461D01*
X0339104Y0038594D01*
X0339193Y0038725D01*
X0339284Y0038853D01*
X0339379Y0038980D01*
X0339476Y0039103D01*
X0339577Y0039225D01*
X0339681Y0039343D01*
X0339788Y0039459D01*
X0339898Y0039572D01*
X0340010Y0039683D01*
X0340126Y0039790D01*
X0340244Y0039895D01*
X0340364Y0039997D01*
X0340487Y0040095D01*
X0340613Y0040191D01*
X0340741Y0040283D01*
X0340871Y0040372D01*
X0341003Y0040458D01*
X0341138Y0040540D01*
X0341275Y0040619D01*
X0341413Y0040694D01*
X0341553Y0040766D01*
X0341696Y0040834D01*
X0341839Y0040899D01*
X0341985Y0040960D01*
X0342132Y0041017D01*
X0342280Y0041071D01*
X0342430Y0041121D01*
X0342580Y0041167D01*
X0342732Y0041209D01*
X0342885Y0041248D01*
X0343039Y0041282D01*
X0343194Y0041313D01*
X0343349Y0041339D01*
X0343505Y0041362D01*
X0343662Y0041381D01*
X0343819Y0041396D01*
X0343976Y0041407D01*
X0344134Y0041414D01*
X0344292Y0041417D01*
X0344449Y0041416D01*
X0344607Y0041411D01*
X0344764Y0041402D01*
X0344922Y0041389D01*
X0345078Y0041372D01*
X0345235Y0041351D01*
X0345390Y0041327D01*
X0345545Y0041298D01*
X0345700Y0041265D01*
X0345853Y0041229D01*
X0346006Y0041188D01*
X0346157Y0041144D01*
X0346307Y0041096D01*
X0346456Y0041045D01*
X0346604Y0040989D01*
X0346750Y0040930D01*
X0346895Y0040867D01*
X0347038Y0040800D01*
X0347179Y0040730D01*
X0347318Y0040657D01*
X0347456Y0040580D01*
X0347592Y0040499D01*
X0347725Y0040415D01*
X0347856Y0040328D01*
X0347985Y0040237D01*
X0348112Y0040143D01*
X0348237Y0040046D01*
X0348358Y0039946D01*
X0348478Y0039843D01*
X0348594Y0039737D01*
X0348708Y0039628D01*
X0348820Y0039516D01*
X0348928Y0039402D01*
X0349033Y0039284D01*
X0349136Y0039164D01*
X0349235Y0039042D01*
X0349331Y0038917D01*
X0349424Y0038789D01*
X0349514Y0038660D01*
X0349600Y0038528D01*
X0349684Y0038394D01*
X0349763Y0038258D01*
X0349840Y0038120D01*
X0349912Y0037980D01*
X0349981Y0037838D01*
X0350047Y0037695D01*
X0350109Y0037550D01*
X0350167Y0037403D01*
X0350222Y0037255D01*
X0350273Y0037106D01*
X0350320Y0036955D01*
X0350363Y0036804D01*
X0350402Y0036651D01*
X0350438Y0036497D01*
X0350469Y0036343D01*
X0350497Y0036188D01*
X0350521Y0036032D01*
X0350541Y0035875D01*
X0350557Y0035718D01*
X0350569Y0035561D01*
X0350577Y0035404D01*
X0350581Y0035246D01*
X0350581Y0035088D01*
X0350577Y0034930D01*
X0350569Y0034773D01*
X0350557Y0034616D01*
X0350541Y0034459D01*
X0350521Y0034302D01*
X0350497Y0034146D01*
X0350469Y0033991D01*
X0350438Y0033837D01*
X0350402Y0033683D01*
X0350363Y0033530D01*
X0350320Y0033379D01*
X0350273Y0033228D01*
X0350222Y0033079D01*
X0350167Y0032931D01*
X0350109Y0032784D01*
X0350047Y0032639D01*
X0349981Y0032496D01*
X0349912Y0032354D01*
X0349840Y0032214D01*
X0349763Y0032076D01*
X0349684Y0031940D01*
X0349600Y0031806D01*
X0349514Y0031674D01*
X0349424Y0031545D01*
X0349331Y0031417D01*
X0349235Y0031292D01*
X0349136Y0031170D01*
X0349033Y0031050D01*
X0348928Y0030932D01*
X0348820Y0030818D01*
X0348708Y0030706D01*
X0348594Y0030597D01*
X0348478Y0030491D01*
X0348358Y0030388D01*
X0348237Y0030288D01*
X0348112Y0030191D01*
X0347985Y0030097D01*
X0347856Y0030006D01*
X0347725Y0029919D01*
X0347592Y0029835D01*
X0347456Y0029754D01*
X0347318Y0029677D01*
X0347179Y0029604D01*
X0347038Y0029534D01*
X0346895Y0029467D01*
X0346750Y0029404D01*
X0346604Y0029345D01*
X0346456Y0029289D01*
X0346307Y0029238D01*
X0346157Y0029190D01*
X0346006Y0029146D01*
X0345853Y0029105D01*
X0345700Y0029069D01*
X0345545Y0029036D01*
X0345390Y0029007D01*
X0345235Y0028983D01*
X0345078Y0028962D01*
X0344922Y0028945D01*
X0344764Y0028932D01*
X0344607Y0028923D01*
X0344449Y0028918D01*
X0344292Y0028917D01*
X0344134Y0028920D01*
X0343976Y0028927D01*
X0343819Y0028938D01*
X0343662Y0028953D01*
X0343505Y0028972D01*
X0343349Y0028995D01*
X0343194Y0029021D01*
X0343039Y0029052D01*
X0342885Y0029086D01*
X0342732Y0029125D01*
X0342580Y0029167D01*
X0342430Y0029213D01*
X0342280Y0029263D01*
X0342132Y0029317D01*
X0341985Y0029374D01*
X0341839Y0029435D01*
X0341696Y0029500D01*
X0341553Y0029568D01*
X0341413Y0029640D01*
X0341275Y0029715D01*
X0341138Y0029794D01*
X0341003Y0029876D01*
X0340871Y0029962D01*
X0340741Y0030051D01*
X0340613Y0030143D01*
X0340487Y0030239D01*
X0340364Y0030337D01*
X0340244Y0030439D01*
X0340126Y0030544D01*
X0340010Y0030651D01*
X0339898Y0030762D01*
X0339788Y0030875D01*
X0339681Y0030991D01*
X0339577Y0031109D01*
X0339476Y0031231D01*
X0339379Y0031354D01*
X0339284Y0031481D01*
X0339193Y0031609D01*
X0339104Y0031740D01*
X0339020Y0031873D01*
X0338938Y0032008D01*
X0338860Y0032145D01*
X0338786Y0032284D01*
X0338715Y0032425D01*
X0338647Y0032567D01*
X0338584Y0032712D01*
X0338523Y0032857D01*
X0338467Y0033005D01*
X0338414Y0033153D01*
X0338365Y0033303D01*
X0338320Y0033454D01*
X0338279Y0033607D01*
X0338241Y0033760D01*
X0338208Y0033914D01*
X0338178Y0034069D01*
X0338152Y0034224D01*
X0338131Y0034381D01*
X0338113Y0034537D01*
X0338099Y0034694D01*
X0338089Y0034852D01*
X0338083Y0035009D01*
X0338081Y0035167D01*
D12*
X0106831Y0017667D03*
X0106831Y0207667D03*
D13*
X0116831Y0207667D03*
X0126831Y0207667D03*
X0136831Y0207667D03*
X0146831Y0207667D03*
X0156831Y0207667D03*
X0166831Y0207667D03*
X0176831Y0207667D03*
X0186831Y0207667D03*
X0196831Y0207667D03*
X0206831Y0207667D03*
X0216831Y0207667D03*
X0226831Y0207667D03*
X0236831Y0207667D03*
X0246831Y0207667D03*
X0256831Y0207667D03*
X0266831Y0207667D03*
X0276831Y0207667D03*
X0286831Y0207667D03*
X0286831Y0217667D03*
X0296831Y0217667D03*
X0306831Y0217667D03*
X0316831Y0217667D03*
X0326831Y0217667D03*
X0326831Y0207667D03*
X0316831Y0207667D03*
X0306831Y0207667D03*
X0276831Y0217667D03*
X0266831Y0217667D03*
X0256831Y0217667D03*
X0246831Y0217667D03*
X0236831Y0217667D03*
X0226831Y0217667D03*
X0216831Y0217667D03*
X0206831Y0217667D03*
X0196831Y0217667D03*
X0186831Y0217667D03*
X0176831Y0217667D03*
X0166831Y0217667D03*
X0156831Y0217667D03*
X0146831Y0217667D03*
X0136831Y0217667D03*
X0126831Y0217667D03*
X0116831Y0217667D03*
X0106831Y0217667D03*
X0106831Y0027667D03*
X0116831Y0027667D03*
X0126831Y0027667D03*
X0136831Y0027667D03*
X0146831Y0027667D03*
X0156831Y0027667D03*
X0166831Y0027667D03*
X0176831Y0027667D03*
X0186831Y0027667D03*
X0196831Y0027667D03*
X0206831Y0027667D03*
X0216831Y0027667D03*
X0226831Y0027667D03*
X0236831Y0027667D03*
X0246831Y0027667D03*
X0256831Y0027667D03*
X0266831Y0027667D03*
X0276831Y0027667D03*
X0286831Y0027667D03*
X0296831Y0027667D03*
X0306831Y0027667D03*
X0316831Y0027667D03*
X0326831Y0027667D03*
X0326831Y0017667D03*
X0316831Y0017667D03*
X0306831Y0017667D03*
X0296831Y0017667D03*
X0286831Y0017667D03*
X0276831Y0017667D03*
X0266831Y0017667D03*
X0256831Y0017667D03*
X0246831Y0017667D03*
X0236831Y0017667D03*
X0226831Y0017667D03*
X0216831Y0017667D03*
X0206831Y0017667D03*
X0196831Y0017667D03*
X0186831Y0017667D03*
X0176831Y0017667D03*
X0166831Y0017667D03*
X0156831Y0017667D03*
X0146831Y0017667D03*
X0136831Y0017667D03*
X0126831Y0017667D03*
X0116831Y0017667D03*
D14*
X0296831Y0207667D03*
D15*
X0173831Y0180317D03*
X0162581Y0180317D03*
X0151331Y0180317D03*
X0151331Y0168517D03*
X0162581Y0168517D03*
X0173831Y0168517D03*
X0172831Y0123317D03*
X0161581Y0123317D03*
X0150331Y0123317D03*
X0150331Y0111517D03*
X0161581Y0111517D03*
X0172831Y0111517D03*
X0172831Y0066317D03*
X0161581Y0066317D03*
X0150331Y0066317D03*
X0150331Y0054517D03*
X0161581Y0054517D03*
X0172831Y0054517D03*
D16*
X0198500Y0060417D03*
X0207161Y0064157D03*
X0207161Y0056677D03*
X0207161Y0113677D03*
X0198500Y0117417D03*
X0207161Y0121157D03*
X0208161Y0170677D03*
X0199500Y0174417D03*
X0208161Y0178157D03*
D17*
X0356331Y0176167D02*
X0362331Y0176167D01*
X0362331Y0166167D02*
X0356331Y0166167D01*
X0356331Y0154167D02*
X0362331Y0154167D01*
X0362331Y0144167D02*
X0356331Y0144167D01*
X0356331Y0132167D02*
X0362331Y0132167D01*
X0362331Y0122167D02*
X0356331Y0122167D01*
X0356331Y0112167D02*
X0362331Y0112167D01*
X0362331Y0102167D02*
X0356331Y0102167D01*
X0356331Y0090167D02*
X0362331Y0090167D01*
X0362331Y0080167D02*
X0356331Y0080167D01*
X0356331Y0068167D02*
X0362331Y0068167D01*
X0362331Y0058167D02*
X0356331Y0058167D01*
X0356331Y0046167D02*
X0362331Y0046167D01*
X0362331Y0036167D02*
X0356331Y0036167D01*
X0356331Y0024167D02*
X0362331Y0024167D01*
X0362331Y0014167D02*
X0356331Y0014167D01*
X0356331Y0188167D02*
X0362331Y0188167D01*
X0362331Y0198167D02*
X0356331Y0198167D01*
X0356331Y0210167D02*
X0362331Y0210167D01*
X0362331Y0220167D02*
X0356331Y0220167D01*
D18*
X0077484Y0062167D03*
X0055831Y0062167D03*
D19*
X0111484Y0106667D03*
X0118177Y0106667D03*
X0118177Y0134167D03*
X0111484Y0134167D03*
X0111484Y0149167D03*
X0118177Y0149167D03*
X0111331Y0160320D03*
X0111331Y0167013D03*
D20*
X0105677Y0167167D03*
X0098984Y0167167D03*
D21*
X0110591Y0127785D03*
X0118071Y0127785D03*
X0118071Y0117549D03*
X0114331Y0117549D03*
X0110591Y0117549D03*
D22*
X0128581Y0199167D03*
X0134081Y0199167D03*
X0139081Y0199167D03*
D23*
X0116031Y0196267D03*
X0113431Y0196267D03*
X0110931Y0196267D03*
X0108331Y0196267D03*
X0105731Y0196267D03*
X0103231Y0196267D03*
X0100631Y0196267D03*
X0100631Y0174067D03*
X0103231Y0174067D03*
X0105731Y0174067D03*
X0108331Y0174067D03*
X0110931Y0174067D03*
X0113431Y0174067D03*
X0116031Y0174067D03*
D24*
X0100631Y0174067D02*
X0100531Y0174167D01*
X0094331Y0174167D01*
X0081831Y0186667D01*
X0081831Y0197167D01*
X0092331Y0207667D01*
X0106831Y0207667D01*
X0140081Y0189417D02*
X0191331Y0189417D01*
X0191331Y0176917D01*
X0178726Y0176917D01*
X0178821Y0177011D01*
X0179058Y0177422D01*
X0179181Y0177880D01*
X0179181Y0180017D01*
X0174131Y0180017D01*
X0174131Y0180617D01*
X0173531Y0180617D01*
X0173531Y0184317D01*
X0170044Y0184317D01*
X0169586Y0184194D01*
X0169175Y0183957D01*
X0168840Y0183622D01*
X0168603Y0183211D01*
X0168481Y0182754D01*
X0168481Y0180617D01*
X0173531Y0180617D01*
X0173531Y0180017D01*
X0168481Y0180017D01*
X0168481Y0177880D01*
X0168603Y0177422D01*
X0168840Y0177011D01*
X0168935Y0176917D01*
X0167476Y0176917D01*
X0167571Y0177011D01*
X0167808Y0177422D01*
X0167931Y0177880D01*
X0167931Y0180017D01*
X0162881Y0180017D01*
X0162881Y0180617D01*
X0162281Y0180617D01*
X0162281Y0184317D01*
X0158794Y0184317D01*
X0158336Y0184194D01*
X0157925Y0183957D01*
X0157590Y0183622D01*
X0157353Y0183211D01*
X0157231Y0182754D01*
X0157231Y0180617D01*
X0162281Y0180617D01*
X0162281Y0180017D01*
X0157231Y0180017D01*
X0157231Y0177880D01*
X0157353Y0177422D01*
X0157590Y0177011D01*
X0157685Y0176917D01*
X0156226Y0176917D01*
X0156321Y0177011D01*
X0156558Y0177422D01*
X0156681Y0177880D01*
X0156681Y0180017D01*
X0151631Y0180017D01*
X0151631Y0180617D01*
X0151031Y0180617D01*
X0151031Y0184317D01*
X0147544Y0184317D01*
X0147086Y0184194D01*
X0146675Y0183957D01*
X0146340Y0183622D01*
X0146103Y0183211D01*
X0145981Y0182754D01*
X0145981Y0180617D01*
X0151031Y0180617D01*
X0151031Y0180017D01*
X0145981Y0180017D01*
X0145981Y0177880D01*
X0146103Y0177422D01*
X0146340Y0177011D01*
X0146435Y0176917D01*
X0140081Y0176917D01*
X0140081Y0189417D01*
X0140081Y0189200D02*
X0191331Y0189200D01*
X0191331Y0187601D02*
X0140081Y0187601D01*
X0140081Y0186003D02*
X0191331Y0186003D01*
X0191331Y0184404D02*
X0140081Y0184404D01*
X0140081Y0182806D02*
X0145995Y0182806D01*
X0145981Y0181207D02*
X0140081Y0181207D01*
X0140081Y0179609D02*
X0145981Y0179609D01*
X0145981Y0178010D02*
X0140081Y0178010D01*
X0140081Y0171917D02*
X0146435Y0171917D01*
X0146340Y0171822D01*
X0146103Y0171411D01*
X0145981Y0170954D01*
X0145981Y0168817D01*
X0151031Y0168817D01*
X0151031Y0168217D01*
X0151631Y0168217D01*
X0151631Y0168817D01*
X0156681Y0168817D01*
X0156681Y0170954D01*
X0156558Y0171411D01*
X0156321Y0171822D01*
X0156226Y0171917D01*
X0157685Y0171917D01*
X0157590Y0171822D01*
X0157353Y0171411D01*
X0157231Y0170954D01*
X0157231Y0168817D01*
X0162281Y0168817D01*
X0162281Y0168217D01*
X0162881Y0168217D01*
X0162881Y0168817D01*
X0167931Y0168817D01*
X0167931Y0170954D01*
X0167808Y0171411D01*
X0167571Y0171822D01*
X0167476Y0171917D01*
X0168935Y0171917D01*
X0168840Y0171822D01*
X0168603Y0171411D01*
X0168481Y0170954D01*
X0168481Y0168817D01*
X0173531Y0168817D01*
X0173531Y0168217D01*
X0174131Y0168217D01*
X0174131Y0168817D01*
X0179181Y0168817D01*
X0179181Y0170954D01*
X0179058Y0171411D01*
X0178821Y0171822D01*
X0178726Y0171917D01*
X0187252Y0171917D01*
X0186783Y0171448D01*
X0183928Y0171448D01*
X0183050Y0170569D01*
X0183050Y0165764D01*
X0183928Y0164886D01*
X0188733Y0164886D01*
X0189612Y0165764D01*
X0189612Y0168619D01*
X0192909Y0171917D01*
X0195244Y0171917D01*
X0195244Y0171827D01*
X0196123Y0170948D01*
X0202877Y0170948D01*
X0203606Y0171676D01*
X0203605Y0170861D01*
X0207977Y0170861D01*
X0207977Y0170492D01*
X0208346Y0170492D01*
X0208346Y0170861D01*
X0212717Y0170861D01*
X0212717Y0171917D01*
X0214431Y0171917D01*
X0214431Y0148167D01*
X0140081Y0148167D01*
X0140081Y0171917D01*
X0140081Y0171616D02*
X0146222Y0171616D01*
X0145981Y0170018D02*
X0140081Y0170018D01*
X0140081Y0168419D02*
X0151031Y0168419D01*
X0151031Y0168217D02*
X0145981Y0168217D01*
X0145981Y0166080D01*
X0146103Y0165622D01*
X0146340Y0165211D01*
X0146675Y0164876D01*
X0147086Y0164639D01*
X0147544Y0164517D01*
X0151031Y0164517D01*
X0151031Y0168217D01*
X0151631Y0168217D02*
X0151631Y0164517D01*
X0155118Y0164517D01*
X0155575Y0164639D01*
X0155986Y0164876D01*
X0156321Y0165211D01*
X0156558Y0165622D01*
X0156681Y0166080D01*
X0156681Y0168217D01*
X0151631Y0168217D01*
X0151631Y0168419D02*
X0162281Y0168419D01*
X0162281Y0168217D02*
X0157231Y0168217D01*
X0157231Y0166080D01*
X0157353Y0165622D01*
X0157590Y0165211D01*
X0157925Y0164876D01*
X0158336Y0164639D01*
X0158794Y0164517D01*
X0162281Y0164517D01*
X0162281Y0168217D01*
X0162881Y0168217D02*
X0162881Y0164517D01*
X0166368Y0164517D01*
X0166825Y0164639D01*
X0167236Y0164876D01*
X0167571Y0165211D01*
X0167808Y0165622D01*
X0167931Y0166080D01*
X0167931Y0168217D01*
X0162881Y0168217D01*
X0162881Y0168419D02*
X0173531Y0168419D01*
X0173531Y0168217D02*
X0168481Y0168217D01*
X0168481Y0166080D01*
X0168603Y0165622D01*
X0168840Y0165211D01*
X0169175Y0164876D01*
X0169586Y0164639D01*
X0170044Y0164517D01*
X0173531Y0164517D01*
X0173531Y0168217D01*
X0174131Y0168217D02*
X0174131Y0164517D01*
X0177618Y0164517D01*
X0178075Y0164639D01*
X0178486Y0164876D01*
X0178821Y0165211D01*
X0179058Y0165622D01*
X0179181Y0166080D01*
X0179181Y0168217D01*
X0174131Y0168217D01*
X0174131Y0168419D02*
X0183050Y0168419D01*
X0183050Y0166821D02*
X0179181Y0166821D01*
X0178827Y0165222D02*
X0183592Y0165222D01*
X0189070Y0165222D02*
X0214431Y0165222D01*
X0214431Y0163624D02*
X0140081Y0163624D01*
X0140081Y0165222D02*
X0146334Y0165222D01*
X0145981Y0166821D02*
X0140081Y0166821D01*
X0140081Y0162025D02*
X0214431Y0162025D01*
X0214431Y0160427D02*
X0140081Y0160427D01*
X0140081Y0158828D02*
X0214431Y0158828D01*
X0214431Y0157230D02*
X0140081Y0157230D01*
X0140081Y0155631D02*
X0214431Y0155631D01*
X0214431Y0154033D02*
X0140081Y0154033D01*
X0140081Y0152434D02*
X0214431Y0152434D01*
X0214431Y0150836D02*
X0140081Y0150836D01*
X0140081Y0149237D02*
X0214431Y0149237D01*
X0218231Y0149237D02*
X0343831Y0149237D01*
X0343831Y0148167D02*
X0218231Y0148167D01*
X0218231Y0171917D01*
X0343831Y0171917D01*
X0343831Y0148167D01*
X0343831Y0150836D02*
X0218231Y0150836D01*
X0218231Y0152434D02*
X0343831Y0152434D01*
X0343831Y0154033D02*
X0218231Y0154033D01*
X0218231Y0155631D02*
X0343831Y0155631D01*
X0343831Y0157230D02*
X0218231Y0157230D01*
X0218231Y0158828D02*
X0343831Y0158828D01*
X0343831Y0160427D02*
X0218231Y0160427D01*
X0218231Y0162025D02*
X0343831Y0162025D01*
X0343831Y0163624D02*
X0218231Y0163624D01*
X0218231Y0165222D02*
X0343831Y0165222D01*
X0343831Y0166821D02*
X0218231Y0166821D01*
X0218231Y0168419D02*
X0343831Y0168419D01*
X0343831Y0170018D02*
X0218231Y0170018D01*
X0218231Y0171616D02*
X0343831Y0171616D01*
X0342831Y0114917D02*
X0218231Y0114917D01*
X0218231Y0091167D01*
X0342831Y0091167D01*
X0342831Y0114917D01*
X0342831Y0114070D02*
X0218231Y0114070D01*
X0218231Y0112471D02*
X0342831Y0112471D01*
X0342831Y0110873D02*
X0218231Y0110873D01*
X0218231Y0109274D02*
X0342831Y0109274D01*
X0342831Y0107676D02*
X0218231Y0107676D01*
X0218231Y0106077D02*
X0342831Y0106077D01*
X0342831Y0104479D02*
X0218231Y0104479D01*
X0218231Y0102880D02*
X0342831Y0102880D01*
X0342831Y0101282D02*
X0218231Y0101282D01*
X0218231Y0099683D02*
X0342831Y0099683D01*
X0342831Y0098085D02*
X0218231Y0098085D01*
X0218231Y0096486D02*
X0342831Y0096486D01*
X0342831Y0094888D02*
X0218231Y0094888D01*
X0218231Y0093289D02*
X0342831Y0093289D01*
X0342831Y0091691D02*
X0218231Y0091691D01*
X0214431Y0091691D02*
X0139081Y0091691D01*
X0139081Y0091167D02*
X0139081Y0114917D01*
X0145435Y0114917D01*
X0145340Y0114822D01*
X0145103Y0114411D01*
X0144981Y0113954D01*
X0144981Y0111817D01*
X0150031Y0111817D01*
X0150031Y0111217D01*
X0150631Y0111217D01*
X0150631Y0111817D01*
X0155681Y0111817D01*
X0155681Y0113954D01*
X0155558Y0114411D01*
X0155321Y0114822D01*
X0155226Y0114917D01*
X0156685Y0114917D01*
X0156590Y0114822D01*
X0156353Y0114411D01*
X0156231Y0113954D01*
X0156231Y0111817D01*
X0161281Y0111817D01*
X0161281Y0111217D01*
X0161881Y0111217D01*
X0161881Y0111817D01*
X0166931Y0111817D01*
X0166931Y0113954D01*
X0166808Y0114411D01*
X0166571Y0114822D01*
X0166476Y0114917D01*
X0167935Y0114917D01*
X0167840Y0114822D01*
X0167603Y0114411D01*
X0167481Y0113954D01*
X0167481Y0111817D01*
X0172531Y0111817D01*
X0172531Y0111217D01*
X0173131Y0111217D01*
X0173131Y0111817D01*
X0178181Y0111817D01*
X0178181Y0113954D01*
X0178058Y0114411D01*
X0177821Y0114822D01*
X0177726Y0114917D01*
X0186252Y0114917D01*
X0185783Y0114448D01*
X0182928Y0114448D01*
X0182050Y0113569D01*
X0182050Y0108764D01*
X0182928Y0107886D01*
X0187733Y0107886D01*
X0188612Y0108764D01*
X0188612Y0111619D01*
X0191909Y0114917D01*
X0194244Y0114917D01*
X0194244Y0114827D01*
X0195123Y0113948D01*
X0201877Y0113948D01*
X0202606Y0114676D01*
X0202605Y0113861D01*
X0206977Y0113861D01*
X0206977Y0113492D01*
X0207346Y0113492D01*
X0207346Y0113861D01*
X0211717Y0113861D01*
X0211717Y0114917D01*
X0214431Y0114917D01*
X0214431Y0091167D01*
X0139081Y0091167D01*
X0139081Y0093289D02*
X0214431Y0093289D01*
X0214431Y0094888D02*
X0139081Y0094888D01*
X0139081Y0096486D02*
X0214431Y0096486D01*
X0214431Y0098085D02*
X0139081Y0098085D01*
X0139081Y0099683D02*
X0214431Y0099683D01*
X0214431Y0101282D02*
X0139081Y0101282D01*
X0139081Y0102880D02*
X0214431Y0102880D01*
X0214431Y0104479D02*
X0139081Y0104479D01*
X0139081Y0106077D02*
X0214431Y0106077D01*
X0214431Y0107676D02*
X0177139Y0107676D01*
X0177075Y0107639D02*
X0177486Y0107876D01*
X0177821Y0108211D01*
X0178058Y0108622D01*
X0178181Y0109080D01*
X0178181Y0111217D01*
X0173131Y0111217D01*
X0173131Y0107517D01*
X0176618Y0107517D01*
X0177075Y0107639D01*
X0178181Y0109274D02*
X0182050Y0109274D01*
X0182050Y0110873D02*
X0178181Y0110873D01*
X0178181Y0112471D02*
X0182050Y0112471D01*
X0182550Y0114070D02*
X0178150Y0114070D01*
X0173131Y0110873D02*
X0172531Y0110873D01*
X0172531Y0111217D02*
X0172531Y0107517D01*
X0169044Y0107517D01*
X0168586Y0107639D01*
X0168175Y0107876D01*
X0167840Y0108211D01*
X0167603Y0108622D01*
X0167481Y0109080D01*
X0167481Y0111217D01*
X0172531Y0111217D01*
X0172531Y0109274D02*
X0173131Y0109274D01*
X0173131Y0107676D02*
X0172531Y0107676D01*
X0168523Y0107676D02*
X0165889Y0107676D01*
X0165825Y0107639D02*
X0166236Y0107876D01*
X0166571Y0108211D01*
X0166808Y0108622D01*
X0166931Y0109080D01*
X0166931Y0111217D01*
X0161881Y0111217D01*
X0161881Y0107517D01*
X0165368Y0107517D01*
X0165825Y0107639D01*
X0166931Y0109274D02*
X0167481Y0109274D01*
X0167481Y0110873D02*
X0166931Y0110873D01*
X0166931Y0112471D02*
X0167481Y0112471D01*
X0167512Y0114070D02*
X0166900Y0114070D01*
X0161881Y0110873D02*
X0161281Y0110873D01*
X0161281Y0111217D02*
X0161281Y0107517D01*
X0157794Y0107517D01*
X0157336Y0107639D01*
X0156925Y0107876D01*
X0156590Y0108211D01*
X0156353Y0108622D01*
X0156231Y0109080D01*
X0156231Y0111217D01*
X0161281Y0111217D01*
X0161281Y0109274D02*
X0161881Y0109274D01*
X0161881Y0107676D02*
X0161281Y0107676D01*
X0157273Y0107676D02*
X0154639Y0107676D01*
X0154575Y0107639D02*
X0154986Y0107876D01*
X0155321Y0108211D01*
X0155558Y0108622D01*
X0155681Y0109080D01*
X0155681Y0111217D01*
X0150631Y0111217D01*
X0150631Y0107517D01*
X0154118Y0107517D01*
X0154575Y0107639D01*
X0155681Y0109274D02*
X0156231Y0109274D01*
X0156231Y0110873D02*
X0155681Y0110873D01*
X0155681Y0112471D02*
X0156231Y0112471D01*
X0156262Y0114070D02*
X0155650Y0114070D01*
X0150631Y0110873D02*
X0150031Y0110873D01*
X0150031Y0111217D02*
X0150031Y0107517D01*
X0146544Y0107517D01*
X0146086Y0107639D01*
X0145675Y0107876D01*
X0145340Y0108211D01*
X0145103Y0108622D01*
X0144981Y0109080D01*
X0144981Y0111217D01*
X0150031Y0111217D01*
X0150031Y0109274D02*
X0150631Y0109274D01*
X0150631Y0107676D02*
X0150031Y0107676D01*
X0146023Y0107676D02*
X0139081Y0107676D01*
X0139081Y0109274D02*
X0144981Y0109274D01*
X0144981Y0110873D02*
X0139081Y0110873D01*
X0139081Y0112471D02*
X0144981Y0112471D01*
X0145012Y0114070D02*
X0139081Y0114070D01*
X0139081Y0119917D02*
X0139081Y0132417D01*
X0190331Y0132417D01*
X0190331Y0119917D01*
X0177726Y0119917D01*
X0177821Y0120011D01*
X0178058Y0120422D01*
X0178181Y0120880D01*
X0178181Y0123017D01*
X0173131Y0123017D01*
X0173131Y0123617D01*
X0172531Y0123617D01*
X0172531Y0127317D01*
X0169044Y0127317D01*
X0168586Y0127194D01*
X0168175Y0126957D01*
X0167840Y0126622D01*
X0167603Y0126211D01*
X0167481Y0125754D01*
X0167481Y0123617D01*
X0172531Y0123617D01*
X0172531Y0123017D01*
X0167481Y0123017D01*
X0167481Y0120880D01*
X0167603Y0120422D01*
X0167840Y0120011D01*
X0167935Y0119917D01*
X0166476Y0119917D01*
X0166571Y0120011D01*
X0166808Y0120422D01*
X0166931Y0120880D01*
X0166931Y0123017D01*
X0161881Y0123017D01*
X0161881Y0123617D01*
X0161281Y0123617D01*
X0161281Y0127317D01*
X0157794Y0127317D01*
X0157336Y0127194D01*
X0156925Y0126957D01*
X0156590Y0126622D01*
X0156353Y0126211D01*
X0156231Y0125754D01*
X0156231Y0123617D01*
X0161281Y0123617D01*
X0161281Y0123017D01*
X0156231Y0123017D01*
X0156231Y0120880D01*
X0156353Y0120422D01*
X0156590Y0120011D01*
X0156685Y0119917D01*
X0155226Y0119917D01*
X0155321Y0120011D01*
X0155558Y0120422D01*
X0155681Y0120880D01*
X0155681Y0123017D01*
X0150631Y0123017D01*
X0150631Y0123617D01*
X0150031Y0123617D01*
X0150031Y0127317D01*
X0146544Y0127317D01*
X0146086Y0127194D01*
X0145675Y0126957D01*
X0145340Y0126622D01*
X0145103Y0126211D01*
X0144981Y0125754D01*
X0144981Y0123617D01*
X0150031Y0123617D01*
X0150031Y0123017D01*
X0144981Y0123017D01*
X0144981Y0120880D01*
X0145103Y0120422D01*
X0145340Y0120011D01*
X0145435Y0119917D01*
X0139081Y0119917D01*
X0139081Y0120464D02*
X0145092Y0120464D01*
X0144981Y0122062D02*
X0139081Y0122062D01*
X0139081Y0123661D02*
X0144981Y0123661D01*
X0144981Y0125259D02*
X0139081Y0125259D01*
X0139081Y0126858D02*
X0145576Y0126858D01*
X0150031Y0126858D02*
X0150631Y0126858D01*
X0150631Y0127317D02*
X0150631Y0123617D01*
X0155681Y0123617D01*
X0155681Y0125754D01*
X0155558Y0126211D01*
X0155321Y0126622D01*
X0154986Y0126957D01*
X0154575Y0127194D01*
X0154118Y0127317D01*
X0150631Y0127317D01*
X0150631Y0125259D02*
X0150031Y0125259D01*
X0150031Y0123661D02*
X0150631Y0123661D01*
X0155681Y0123661D02*
X0156231Y0123661D01*
X0156231Y0125259D02*
X0155681Y0125259D01*
X0155085Y0126858D02*
X0156826Y0126858D01*
X0161281Y0126858D02*
X0161881Y0126858D01*
X0161881Y0127317D02*
X0161881Y0123617D01*
X0166931Y0123617D01*
X0166931Y0125754D01*
X0166808Y0126211D01*
X0166571Y0126622D01*
X0166236Y0126957D01*
X0165825Y0127194D01*
X0165368Y0127317D01*
X0161881Y0127317D01*
X0161881Y0125259D02*
X0161281Y0125259D01*
X0161281Y0123661D02*
X0161881Y0123661D01*
X0166931Y0123661D02*
X0167481Y0123661D01*
X0167481Y0125259D02*
X0166931Y0125259D01*
X0166335Y0126858D02*
X0168076Y0126858D01*
X0172531Y0126858D02*
X0173131Y0126858D01*
X0173131Y0127317D02*
X0173131Y0123617D01*
X0178181Y0123617D01*
X0178181Y0125754D01*
X0178058Y0126211D01*
X0177821Y0126622D01*
X0177486Y0126957D01*
X0177075Y0127194D01*
X0176618Y0127317D01*
X0173131Y0127317D01*
X0173131Y0125259D02*
X0172531Y0125259D01*
X0172531Y0123661D02*
X0173131Y0123661D01*
X0177585Y0126858D02*
X0190331Y0126858D01*
X0190331Y0128456D02*
X0139081Y0128456D01*
X0139081Y0130055D02*
X0190331Y0130055D01*
X0190331Y0131654D02*
X0139081Y0131654D01*
X0155681Y0122062D02*
X0156231Y0122062D01*
X0156342Y0120464D02*
X0155569Y0120464D01*
X0166819Y0120464D02*
X0167592Y0120464D01*
X0167481Y0122062D02*
X0166931Y0122062D01*
X0178069Y0120464D02*
X0190331Y0120464D01*
X0190331Y0122062D02*
X0178181Y0122062D01*
X0178181Y0123661D02*
X0190331Y0123661D01*
X0190331Y0125259D02*
X0178181Y0125259D01*
X0191062Y0114070D02*
X0195001Y0114070D01*
X0189464Y0112471D02*
X0202606Y0112471D01*
X0202606Y0111471D02*
X0202728Y0111013D01*
X0202965Y0110603D01*
X0203300Y0110268D01*
X0203711Y0110031D01*
X0204169Y0109908D01*
X0206977Y0109908D01*
X0206977Y0113492D01*
X0202606Y0113492D01*
X0202606Y0111471D01*
X0202809Y0110873D02*
X0188612Y0110873D01*
X0188612Y0109274D02*
X0214431Y0109274D01*
X0214431Y0110873D02*
X0211514Y0110873D01*
X0211595Y0111013D02*
X0211717Y0111471D01*
X0211717Y0113492D01*
X0207346Y0113492D01*
X0207346Y0109908D01*
X0210154Y0109908D01*
X0210612Y0110031D01*
X0211023Y0110268D01*
X0211358Y0110603D01*
X0211595Y0111013D01*
X0211717Y0112471D02*
X0214431Y0112471D01*
X0214431Y0114070D02*
X0211717Y0114070D01*
X0207346Y0112471D02*
X0206977Y0112471D01*
X0206977Y0110873D02*
X0207346Y0110873D01*
X0202606Y0114070D02*
X0201999Y0114070D01*
X0190331Y0075417D02*
X0139081Y0075417D01*
X0139081Y0062917D01*
X0145435Y0062917D01*
X0145340Y0063011D01*
X0145103Y0063422D01*
X0144981Y0063880D01*
X0144981Y0066017D01*
X0150031Y0066017D01*
X0150031Y0066617D01*
X0150031Y0070317D01*
X0146544Y0070317D01*
X0146086Y0070194D01*
X0145675Y0069957D01*
X0145340Y0069622D01*
X0145103Y0069211D01*
X0144981Y0068754D01*
X0144981Y0066617D01*
X0150031Y0066617D01*
X0150631Y0066617D01*
X0150631Y0070317D01*
X0154118Y0070317D01*
X0154575Y0070194D01*
X0154986Y0069957D01*
X0155321Y0069622D01*
X0155558Y0069211D01*
X0155681Y0068754D01*
X0155681Y0066617D01*
X0150631Y0066617D01*
X0150631Y0066017D01*
X0155681Y0066017D01*
X0155681Y0063880D01*
X0155558Y0063422D01*
X0155321Y0063011D01*
X0155226Y0062917D01*
X0156685Y0062917D01*
X0156590Y0063011D01*
X0156353Y0063422D01*
X0156231Y0063880D01*
X0156231Y0066017D01*
X0161281Y0066017D01*
X0161281Y0066617D01*
X0161281Y0070317D01*
X0157794Y0070317D01*
X0157336Y0070194D01*
X0156925Y0069957D01*
X0156590Y0069622D01*
X0156353Y0069211D01*
X0156231Y0068754D01*
X0156231Y0066617D01*
X0161281Y0066617D01*
X0161881Y0066617D01*
X0161881Y0070317D01*
X0165368Y0070317D01*
X0165825Y0070194D01*
X0166236Y0069957D01*
X0166571Y0069622D01*
X0166808Y0069211D01*
X0166931Y0068754D01*
X0166931Y0066617D01*
X0161881Y0066617D01*
X0161881Y0066017D01*
X0166931Y0066017D01*
X0166931Y0063880D01*
X0166808Y0063422D01*
X0166571Y0063011D01*
X0166476Y0062917D01*
X0167935Y0062917D01*
X0167840Y0063011D01*
X0167603Y0063422D01*
X0167481Y0063880D01*
X0167481Y0066017D01*
X0172531Y0066017D01*
X0172531Y0066617D01*
X0172531Y0070317D01*
X0169044Y0070317D01*
X0168586Y0070194D01*
X0168175Y0069957D01*
X0167840Y0069622D01*
X0167603Y0069211D01*
X0167481Y0068754D01*
X0167481Y0066617D01*
X0172531Y0066617D01*
X0173131Y0066617D01*
X0173131Y0070317D01*
X0176618Y0070317D01*
X0177075Y0070194D01*
X0177486Y0069957D01*
X0177821Y0069622D01*
X0178058Y0069211D01*
X0178181Y0068754D01*
X0178181Y0066617D01*
X0173131Y0066617D01*
X0173131Y0066017D01*
X0178181Y0066017D01*
X0178181Y0063880D01*
X0178058Y0063422D01*
X0177821Y0063011D01*
X0177726Y0062917D01*
X0190331Y0062917D01*
X0190331Y0075417D01*
X0190331Y0074107D02*
X0139081Y0074107D01*
X0139081Y0072509D02*
X0190331Y0072509D01*
X0190331Y0070910D02*
X0139081Y0070910D01*
X0139081Y0069312D02*
X0145161Y0069312D01*
X0144981Y0067713D02*
X0139081Y0067713D01*
X0139081Y0066115D02*
X0150031Y0066115D01*
X0150631Y0066115D02*
X0161281Y0066115D01*
X0161881Y0066115D02*
X0172531Y0066115D01*
X0173131Y0066115D02*
X0190331Y0066115D01*
X0190331Y0067713D02*
X0178181Y0067713D01*
X0178000Y0069312D02*
X0190331Y0069312D01*
X0190331Y0064516D02*
X0178181Y0064516D01*
X0177727Y0062918D02*
X0190331Y0062918D01*
X0191909Y0057917D02*
X0194244Y0057917D01*
X0194244Y0057827D01*
X0195123Y0056948D01*
X0201877Y0056948D01*
X0202606Y0057676D01*
X0202605Y0056861D01*
X0206977Y0056861D01*
X0206977Y0056492D01*
X0207346Y0056492D01*
X0207346Y0056861D01*
X0211717Y0056861D01*
X0211717Y0057917D01*
X0342831Y0057917D01*
X0342831Y0044217D01*
X0342531Y0044217D01*
X0339204Y0042839D01*
X0336658Y0040293D01*
X0335281Y0036967D01*
X0335281Y0034167D01*
X0142018Y0034167D01*
X0141618Y0034567D01*
X0139081Y0034567D01*
X0139081Y0057917D01*
X0145435Y0057917D01*
X0145340Y0057822D01*
X0145103Y0057411D01*
X0144981Y0056954D01*
X0144981Y0054817D01*
X0150031Y0054817D01*
X0150031Y0054217D01*
X0150631Y0054217D01*
X0150631Y0054817D01*
X0155681Y0054817D01*
X0155681Y0056954D01*
X0155558Y0057411D01*
X0155321Y0057822D01*
X0155226Y0057917D01*
X0156685Y0057917D01*
X0156590Y0057822D01*
X0156353Y0057411D01*
X0156231Y0056954D01*
X0156231Y0054817D01*
X0161281Y0054817D01*
X0161281Y0054217D01*
X0161881Y0054217D01*
X0161881Y0054817D01*
X0166931Y0054817D01*
X0166931Y0056954D01*
X0166808Y0057411D01*
X0166571Y0057822D01*
X0166476Y0057917D01*
X0167935Y0057917D01*
X0167840Y0057822D01*
X0167603Y0057411D01*
X0167481Y0056954D01*
X0167481Y0054817D01*
X0172531Y0054817D01*
X0172531Y0054217D01*
X0173131Y0054217D01*
X0173131Y0054817D01*
X0178181Y0054817D01*
X0178181Y0056954D01*
X0178058Y0057411D01*
X0177821Y0057822D01*
X0177726Y0057917D01*
X0186252Y0057917D01*
X0185783Y0057448D01*
X0182928Y0057448D01*
X0182050Y0056569D01*
X0182050Y0051764D01*
X0182928Y0050886D01*
X0187733Y0050886D01*
X0188612Y0051764D01*
X0188612Y0054619D01*
X0191909Y0057917D01*
X0190516Y0056523D02*
X0206977Y0056523D01*
X0206977Y0056492D02*
X0202606Y0056492D01*
X0202606Y0054471D01*
X0202728Y0054013D01*
X0202965Y0053603D01*
X0203300Y0053268D01*
X0203711Y0053031D01*
X0204169Y0052908D01*
X0206977Y0052908D01*
X0206977Y0056492D01*
X0207346Y0056492D02*
X0207346Y0052908D01*
X0210154Y0052908D01*
X0210612Y0053031D01*
X0211023Y0053268D01*
X0211358Y0053603D01*
X0211595Y0054013D01*
X0211717Y0054471D01*
X0211717Y0056492D01*
X0207346Y0056492D01*
X0207346Y0056523D02*
X0342831Y0056523D01*
X0342831Y0054925D02*
X0211717Y0054925D01*
X0211081Y0053326D02*
X0342831Y0053326D01*
X0342831Y0051728D02*
X0188576Y0051728D01*
X0188612Y0053326D02*
X0203241Y0053326D01*
X0202606Y0054925D02*
X0188917Y0054925D01*
X0182050Y0054925D02*
X0178181Y0054925D01*
X0178181Y0054217D02*
X0173131Y0054217D01*
X0173131Y0050517D01*
X0176618Y0050517D01*
X0177075Y0050639D01*
X0177486Y0050876D01*
X0177821Y0051211D01*
X0178058Y0051622D01*
X0178181Y0052080D01*
X0178181Y0054217D01*
X0178181Y0053326D02*
X0182050Y0053326D01*
X0182086Y0051728D02*
X0178086Y0051728D01*
X0173131Y0051728D02*
X0172531Y0051728D01*
X0172531Y0050517D02*
X0172531Y0054217D01*
X0167481Y0054217D01*
X0167481Y0052080D01*
X0167603Y0051622D01*
X0167840Y0051211D01*
X0168175Y0050876D01*
X0168586Y0050639D01*
X0169044Y0050517D01*
X0172531Y0050517D01*
X0172531Y0053326D02*
X0173131Y0053326D01*
X0167481Y0053326D02*
X0166931Y0053326D01*
X0166931Y0054217D02*
X0166931Y0052080D01*
X0166808Y0051622D01*
X0166571Y0051211D01*
X0166236Y0050876D01*
X0165825Y0050639D01*
X0165368Y0050517D01*
X0161881Y0050517D01*
X0161881Y0054217D01*
X0166931Y0054217D01*
X0166931Y0054925D02*
X0167481Y0054925D01*
X0167481Y0056523D02*
X0166931Y0056523D01*
X0161881Y0053326D02*
X0161281Y0053326D01*
X0161281Y0054217D02*
X0161281Y0050517D01*
X0157794Y0050517D01*
X0157336Y0050639D01*
X0156925Y0050876D01*
X0156590Y0051211D01*
X0156353Y0051622D01*
X0156231Y0052080D01*
X0156231Y0054217D01*
X0161281Y0054217D01*
X0156231Y0054925D02*
X0155681Y0054925D01*
X0155681Y0054217D02*
X0150631Y0054217D01*
X0150631Y0050517D01*
X0154118Y0050517D01*
X0154575Y0050639D01*
X0154986Y0050876D01*
X0155321Y0051211D01*
X0155558Y0051622D01*
X0155681Y0052080D01*
X0155681Y0054217D01*
X0155681Y0053326D02*
X0156231Y0053326D01*
X0156325Y0051728D02*
X0155586Y0051728D01*
X0150631Y0051728D02*
X0150031Y0051728D01*
X0150031Y0050517D02*
X0150031Y0054217D01*
X0144981Y0054217D01*
X0144981Y0052080D01*
X0145103Y0051622D01*
X0145340Y0051211D01*
X0145675Y0050876D01*
X0146086Y0050639D01*
X0146544Y0050517D01*
X0150031Y0050517D01*
X0150031Y0053326D02*
X0150631Y0053326D01*
X0145075Y0051728D02*
X0139081Y0051728D01*
X0139081Y0053326D02*
X0144981Y0053326D01*
X0144981Y0054925D02*
X0139081Y0054925D01*
X0139081Y0056523D02*
X0144981Y0056523D01*
X0145434Y0062918D02*
X0139081Y0062918D01*
X0139081Y0064516D02*
X0144981Y0064516D01*
X0150031Y0067713D02*
X0150631Y0067713D01*
X0150631Y0069312D02*
X0150031Y0069312D01*
X0155500Y0069312D02*
X0156411Y0069312D01*
X0156231Y0067713D02*
X0155681Y0067713D01*
X0155681Y0064516D02*
X0156231Y0064516D01*
X0156684Y0062918D02*
X0155227Y0062918D01*
X0155681Y0056523D02*
X0156231Y0056523D01*
X0161281Y0051728D02*
X0161881Y0051728D01*
X0166836Y0051728D02*
X0167575Y0051728D01*
X0178181Y0056523D02*
X0182050Y0056523D01*
X0167934Y0062918D02*
X0166477Y0062918D01*
X0166931Y0064516D02*
X0167481Y0064516D01*
X0167481Y0067713D02*
X0166931Y0067713D01*
X0166750Y0069312D02*
X0167661Y0069312D01*
X0172531Y0069312D02*
X0173131Y0069312D01*
X0173131Y0067713D02*
X0172531Y0067713D01*
X0161881Y0067713D02*
X0161281Y0067713D01*
X0161281Y0069312D02*
X0161881Y0069312D01*
X0139081Y0050129D02*
X0342831Y0050129D01*
X0342831Y0048531D02*
X0139081Y0048531D01*
X0139081Y0046932D02*
X0342831Y0046932D01*
X0342831Y0045334D02*
X0139081Y0045334D01*
X0139081Y0043735D02*
X0341369Y0043735D01*
X0338502Y0042137D02*
X0139081Y0042137D01*
X0139081Y0040538D02*
X0336904Y0040538D01*
X0336098Y0038940D02*
X0139081Y0038940D01*
X0139081Y0037341D02*
X0335436Y0037341D01*
X0335281Y0035743D02*
X0139081Y0035743D01*
X0206977Y0053326D02*
X0207346Y0053326D01*
X0207346Y0054925D02*
X0206977Y0054925D01*
X0207977Y0166908D02*
X0205169Y0166908D01*
X0204711Y0167031D01*
X0204300Y0167268D01*
X0203965Y0167603D01*
X0203728Y0168013D01*
X0203606Y0168471D01*
X0203606Y0170492D01*
X0207977Y0170492D01*
X0207977Y0166908D01*
X0208346Y0166908D02*
X0211154Y0166908D01*
X0211612Y0167031D01*
X0212023Y0167268D01*
X0212358Y0167603D01*
X0212595Y0168013D01*
X0212717Y0168471D01*
X0212717Y0170492D01*
X0208346Y0170492D01*
X0208346Y0166908D01*
X0208346Y0168419D02*
X0207977Y0168419D01*
X0207977Y0170018D02*
X0208346Y0170018D01*
X0212717Y0170018D02*
X0214431Y0170018D01*
X0214431Y0171616D02*
X0212717Y0171616D01*
X0212703Y0168419D02*
X0214431Y0168419D01*
X0214431Y0166821D02*
X0189612Y0166821D01*
X0189612Y0168419D02*
X0203619Y0168419D01*
X0203606Y0170018D02*
X0191010Y0170018D01*
X0192609Y0171616D02*
X0195455Y0171616D01*
X0203545Y0171616D02*
X0203606Y0171616D01*
X0191331Y0178010D02*
X0179181Y0178010D01*
X0179181Y0179609D02*
X0191331Y0179609D01*
X0191331Y0181207D02*
X0179181Y0181207D01*
X0179181Y0180617D02*
X0179181Y0182754D01*
X0179058Y0183211D01*
X0178821Y0183622D01*
X0178486Y0183957D01*
X0178075Y0184194D01*
X0177618Y0184317D01*
X0174131Y0184317D01*
X0174131Y0180617D01*
X0179181Y0180617D01*
X0179167Y0182806D02*
X0191331Y0182806D01*
X0174131Y0182806D02*
X0173531Y0182806D01*
X0173531Y0181207D02*
X0174131Y0181207D01*
X0168481Y0181207D02*
X0167931Y0181207D01*
X0167931Y0180617D02*
X0167931Y0182754D01*
X0167808Y0183211D01*
X0167571Y0183622D01*
X0167236Y0183957D01*
X0166825Y0184194D01*
X0166368Y0184317D01*
X0162881Y0184317D01*
X0162881Y0180617D01*
X0167931Y0180617D01*
X0167931Y0179609D02*
X0168481Y0179609D01*
X0168481Y0178010D02*
X0167931Y0178010D01*
X0162881Y0181207D02*
X0162281Y0181207D01*
X0162281Y0182806D02*
X0162881Y0182806D01*
X0167917Y0182806D02*
X0168495Y0182806D01*
X0157245Y0182806D02*
X0156667Y0182806D01*
X0156681Y0182754D02*
X0156558Y0183211D01*
X0156321Y0183622D01*
X0155986Y0183957D01*
X0155575Y0184194D01*
X0155118Y0184317D01*
X0151631Y0184317D01*
X0151631Y0180617D01*
X0156681Y0180617D01*
X0156681Y0182754D01*
X0156681Y0181207D02*
X0157231Y0181207D01*
X0157231Y0179609D02*
X0156681Y0179609D01*
X0156681Y0178010D02*
X0157231Y0178010D01*
X0151631Y0181207D02*
X0151031Y0181207D01*
X0151031Y0182806D02*
X0151631Y0182806D01*
X0156440Y0171616D02*
X0157472Y0171616D01*
X0157231Y0170018D02*
X0156681Y0170018D01*
X0156681Y0166821D02*
X0157231Y0166821D01*
X0157584Y0165222D02*
X0156327Y0165222D01*
X0151631Y0165222D02*
X0151031Y0165222D01*
X0151031Y0166821D02*
X0151631Y0166821D01*
X0162281Y0166821D02*
X0162881Y0166821D01*
X0162881Y0165222D02*
X0162281Y0165222D01*
X0167577Y0165222D02*
X0168834Y0165222D01*
X0168481Y0166821D02*
X0167931Y0166821D01*
X0173531Y0166821D02*
X0174131Y0166821D01*
X0174131Y0165222D02*
X0173531Y0165222D01*
X0168481Y0170018D02*
X0167931Y0170018D01*
X0167690Y0171616D02*
X0168722Y0171616D01*
X0178940Y0171616D02*
X0186952Y0171616D01*
X0183050Y0170018D02*
X0179181Y0170018D01*
D25*
X0183831Y0158167D03*
X0204831Y0154667D03*
X0223831Y0158167D03*
X0234831Y0158167D03*
X0282581Y0158167D03*
X0307581Y0158167D03*
X0306581Y0101167D03*
X0281581Y0101167D03*
X0222831Y0101167D03*
X0182831Y0101167D03*
X0157831Y0101167D03*
X0157831Y0044167D03*
X0182831Y0044167D03*
X0222831Y0044167D03*
X0281581Y0044167D03*
X0306581Y0044167D03*
X0158831Y0158167D03*
D26*
X0136331Y0157946D02*
X0122831Y0157946D01*
X0122831Y0156948D02*
X0136331Y0156948D01*
X0136331Y0155949D02*
X0122831Y0155949D01*
X0122831Y0154951D02*
X0136331Y0154951D01*
X0136331Y0153952D02*
X0122831Y0153952D01*
X0122831Y0152954D02*
X0136331Y0152954D01*
X0136331Y0151955D02*
X0122831Y0151955D01*
X0122831Y0150957D02*
X0136331Y0150957D01*
X0136331Y0149958D02*
X0122831Y0149958D01*
X0122831Y0148960D02*
X0136331Y0148960D01*
X0136331Y0147961D02*
X0122831Y0147961D01*
X0122831Y0146963D02*
X0136331Y0146963D01*
X0136331Y0145964D02*
X0122831Y0145964D01*
X0122831Y0144966D02*
X0136331Y0144966D01*
X0136331Y0143967D02*
X0122831Y0143967D01*
X0122831Y0142969D02*
X0136331Y0142969D01*
X0136331Y0141970D02*
X0122831Y0141970D01*
X0122831Y0140972D02*
X0136331Y0140972D01*
X0136331Y0139973D02*
X0122831Y0139973D01*
X0122831Y0138975D02*
X0136331Y0138975D01*
X0136331Y0138667D02*
X0139831Y0135167D01*
X0139831Y0120667D01*
X0136331Y0117167D01*
X0136331Y0081167D01*
X0139331Y0078167D01*
X0139331Y0062667D01*
X0130331Y0053667D01*
X0069331Y0053667D01*
X0069331Y0068667D01*
X0083831Y0083167D01*
X0108331Y0083167D01*
X0122831Y0097667D01*
X0122831Y0189567D01*
X0132324Y0189567D01*
X0132886Y0189005D01*
X0133823Y0188617D01*
X0134838Y0188617D01*
X0135775Y0189005D01*
X0136437Y0189667D01*
X0140331Y0189667D01*
X0140331Y0177167D01*
X0136331Y0173167D01*
X0136331Y0138667D01*
X0137021Y0137976D02*
X0122831Y0137976D01*
X0122831Y0136978D02*
X0138020Y0136978D01*
X0139018Y0135979D02*
X0122831Y0135979D01*
X0122831Y0134981D02*
X0139831Y0134981D01*
X0139831Y0133982D02*
X0122831Y0133982D01*
X0122831Y0132984D02*
X0139831Y0132984D01*
X0139831Y0131985D02*
X0122831Y0131985D01*
X0122831Y0130987D02*
X0139831Y0130987D01*
X0139831Y0129988D02*
X0122831Y0129988D01*
X0122831Y0128990D02*
X0139831Y0128990D01*
X0139831Y0127991D02*
X0122831Y0127991D01*
X0122831Y0126992D02*
X0139831Y0126992D01*
X0139831Y0125994D02*
X0122831Y0125994D01*
X0122831Y0124995D02*
X0139831Y0124995D01*
X0139831Y0123997D02*
X0122831Y0123997D01*
X0122831Y0122998D02*
X0139831Y0122998D01*
X0139831Y0122000D02*
X0122831Y0122000D01*
X0122831Y0121001D02*
X0139831Y0121001D01*
X0139167Y0120003D02*
X0122831Y0120003D01*
X0122831Y0119004D02*
X0138168Y0119004D01*
X0137170Y0118006D02*
X0122831Y0118006D01*
X0122831Y0117007D02*
X0136331Y0117007D01*
X0136331Y0116009D02*
X0122831Y0116009D01*
X0122831Y0115010D02*
X0136331Y0115010D01*
X0136331Y0114012D02*
X0122831Y0114012D01*
X0122831Y0113013D02*
X0136331Y0113013D01*
X0136331Y0112015D02*
X0122831Y0112015D01*
X0122831Y0111016D02*
X0136331Y0111016D01*
X0136331Y0110018D02*
X0122831Y0110018D01*
X0122831Y0109019D02*
X0136331Y0109019D01*
X0136331Y0108021D02*
X0122831Y0108021D01*
X0122831Y0107022D02*
X0136331Y0107022D01*
X0136331Y0106024D02*
X0122831Y0106024D01*
X0122831Y0105025D02*
X0136331Y0105025D01*
X0136331Y0104027D02*
X0122831Y0104027D01*
X0122831Y0103028D02*
X0136331Y0103028D01*
X0136331Y0102030D02*
X0122831Y0102030D01*
X0122831Y0101031D02*
X0136331Y0101031D01*
X0136331Y0100033D02*
X0122831Y0100033D01*
X0122831Y0099034D02*
X0136331Y0099034D01*
X0136331Y0098036D02*
X0122831Y0098036D01*
X0122201Y0097037D02*
X0136331Y0097037D01*
X0136331Y0096039D02*
X0121203Y0096039D01*
X0120204Y0095040D02*
X0136331Y0095040D01*
X0136331Y0094042D02*
X0119206Y0094042D01*
X0118207Y0093043D02*
X0136331Y0093043D01*
X0136331Y0092045D02*
X0117209Y0092045D01*
X0116210Y0091046D02*
X0136331Y0091046D01*
X0136331Y0090048D02*
X0115212Y0090048D01*
X0114213Y0089049D02*
X0136331Y0089049D01*
X0136331Y0088051D02*
X0113215Y0088051D01*
X0112216Y0087052D02*
X0136331Y0087052D01*
X0136331Y0086054D02*
X0111218Y0086054D01*
X0110219Y0085055D02*
X0136331Y0085055D01*
X0136331Y0084056D02*
X0109221Y0084056D01*
X0083722Y0083058D02*
X0136331Y0083058D01*
X0136331Y0082059D02*
X0082724Y0082059D01*
X0081725Y0081061D02*
X0136436Y0081061D01*
X0137435Y0080062D02*
X0080727Y0080062D01*
X0079728Y0079064D02*
X0138433Y0079064D01*
X0139331Y0078065D02*
X0078729Y0078065D01*
X0077731Y0077067D02*
X0139331Y0077067D01*
X0139331Y0076068D02*
X0076732Y0076068D01*
X0075734Y0075070D02*
X0139331Y0075070D01*
X0139331Y0074071D02*
X0074735Y0074071D01*
X0073737Y0073073D02*
X0139331Y0073073D01*
X0139331Y0072074D02*
X0072738Y0072074D01*
X0071740Y0071076D02*
X0139331Y0071076D01*
X0139331Y0070077D02*
X0070741Y0070077D01*
X0069743Y0069079D02*
X0139331Y0069079D01*
X0139331Y0068080D02*
X0069331Y0068080D01*
X0069331Y0067082D02*
X0072069Y0067082D01*
X0072150Y0067222D02*
X0071953Y0066879D01*
X0071850Y0066498D01*
X0071850Y0062667D01*
X0076984Y0062667D01*
X0076984Y0067801D01*
X0073153Y0067801D01*
X0072771Y0067698D01*
X0072429Y0067501D01*
X0072150Y0067222D01*
X0071850Y0066083D02*
X0069331Y0066083D01*
X0069331Y0065085D02*
X0071850Y0065085D01*
X0071850Y0064086D02*
X0069331Y0064086D01*
X0069331Y0063088D02*
X0071850Y0063088D01*
X0071850Y0061667D02*
X0071850Y0057835D01*
X0071953Y0057454D01*
X0072150Y0057112D01*
X0072429Y0056833D01*
X0072771Y0056635D01*
X0073153Y0056533D01*
X0076984Y0056533D01*
X0076984Y0061667D01*
X0071850Y0061667D01*
X0071850Y0061091D02*
X0069331Y0061091D01*
X0069331Y0062089D02*
X0076984Y0062089D01*
X0076984Y0061667D02*
X0076984Y0062667D01*
X0077984Y0062667D01*
X0077984Y0067801D01*
X0081816Y0067801D01*
X0082197Y0067698D01*
X0082539Y0067501D01*
X0082818Y0067222D01*
X0083016Y0066879D01*
X0083118Y0066498D01*
X0083118Y0062667D01*
X0077984Y0062667D01*
X0077984Y0061667D01*
X0083118Y0061667D01*
X0083118Y0057835D01*
X0083016Y0057454D01*
X0082818Y0057112D01*
X0082539Y0056833D01*
X0082197Y0056635D01*
X0081816Y0056533D01*
X0077984Y0056533D01*
X0077984Y0061667D01*
X0076984Y0061667D01*
X0076984Y0061091D02*
X0077984Y0061091D01*
X0077984Y0062089D02*
X0138753Y0062089D01*
X0139331Y0063088D02*
X0083118Y0063088D01*
X0083118Y0064086D02*
X0139331Y0064086D01*
X0139331Y0065085D02*
X0083118Y0065085D01*
X0083118Y0066083D02*
X0139331Y0066083D01*
X0139331Y0067082D02*
X0082899Y0067082D01*
X0077984Y0067082D02*
X0076984Y0067082D01*
X0076984Y0066083D02*
X0077984Y0066083D01*
X0077984Y0065085D02*
X0076984Y0065085D01*
X0076984Y0064086D02*
X0077984Y0064086D01*
X0077984Y0063088D02*
X0076984Y0063088D01*
X0076984Y0060092D02*
X0077984Y0060092D01*
X0077984Y0059094D02*
X0076984Y0059094D01*
X0076984Y0058095D02*
X0077984Y0058095D01*
X0077984Y0057097D02*
X0076984Y0057097D01*
X0072165Y0057097D02*
X0069331Y0057097D01*
X0069331Y0058095D02*
X0071850Y0058095D01*
X0071850Y0059094D02*
X0069331Y0059094D01*
X0069331Y0060092D02*
X0071850Y0060092D01*
X0069331Y0056098D02*
X0132762Y0056098D01*
X0131764Y0055100D02*
X0069331Y0055100D01*
X0069331Y0054101D02*
X0130765Y0054101D01*
X0133761Y0057097D02*
X0082803Y0057097D01*
X0083118Y0058095D02*
X0134759Y0058095D01*
X0135758Y0059094D02*
X0083118Y0059094D01*
X0083118Y0060092D02*
X0136756Y0060092D01*
X0137755Y0061091D02*
X0083118Y0061091D01*
X0111484Y0106667D02*
X0111484Y0108820D01*
X0114331Y0111667D01*
X0114331Y0117549D01*
X0111484Y0134167D02*
X0111484Y0139320D01*
X0114331Y0142167D01*
X0111484Y0145013D01*
X0111484Y0149167D01*
X0122831Y0158945D02*
X0136331Y0158945D01*
X0136331Y0159943D02*
X0122831Y0159943D01*
X0122831Y0160942D02*
X0136331Y0160942D01*
X0136331Y0161940D02*
X0122831Y0161940D01*
X0122831Y0162939D02*
X0136331Y0162939D01*
X0136331Y0163937D02*
X0122831Y0163937D01*
X0122831Y0164936D02*
X0136331Y0164936D01*
X0136331Y0165934D02*
X0122831Y0165934D01*
X0122831Y0166933D02*
X0136331Y0166933D01*
X0136331Y0167931D02*
X0122831Y0167931D01*
X0122831Y0168930D02*
X0136331Y0168930D01*
X0136331Y0169928D02*
X0122831Y0169928D01*
X0122831Y0170927D02*
X0136331Y0170927D01*
X0136331Y0171925D02*
X0122831Y0171925D01*
X0122831Y0172924D02*
X0136331Y0172924D01*
X0137087Y0173923D02*
X0122831Y0173923D01*
X0122831Y0174921D02*
X0138085Y0174921D01*
X0139084Y0175920D02*
X0122831Y0175920D01*
X0122831Y0176918D02*
X0140082Y0176918D01*
X0140331Y0177917D02*
X0122831Y0177917D01*
X0122831Y0178915D02*
X0140331Y0178915D01*
X0140331Y0179914D02*
X0122831Y0179914D01*
X0122831Y0180912D02*
X0140331Y0180912D01*
X0140331Y0181911D02*
X0122831Y0181911D01*
X0122831Y0182909D02*
X0140331Y0182909D01*
X0140331Y0183908D02*
X0122831Y0183908D01*
X0122831Y0184906D02*
X0140331Y0184906D01*
X0140331Y0185905D02*
X0122831Y0185905D01*
X0122831Y0186903D02*
X0140331Y0186903D01*
X0140331Y0187902D02*
X0122831Y0187902D01*
X0122831Y0188900D02*
X0133139Y0188900D01*
X0135522Y0188900D02*
X0140331Y0188900D01*
X0139081Y0199167D02*
X0139081Y0205417D01*
X0136831Y0207667D01*
X0131831Y0204667D02*
X0131831Y0212667D01*
X0136831Y0217667D01*
X0131831Y0204667D02*
X0128581Y0201417D01*
X0128581Y0199167D01*
X0108774Y0167083D02*
X0105677Y0167167D01*
X0105772Y0167261D01*
X0108774Y0167083D02*
X0111331Y0167013D01*
X0186331Y0168167D02*
X0192581Y0174417D01*
X0199500Y0174417D01*
X0279331Y0138167D02*
X0370831Y0138167D01*
X0370831Y0099167D01*
X0365270Y0099167D01*
X0365891Y0099788D01*
X0366531Y0101331D01*
X0366531Y0103002D01*
X0365891Y0104546D01*
X0364710Y0105727D01*
X0363166Y0106367D01*
X0355495Y0106367D01*
X0353952Y0105727D01*
X0352770Y0104546D01*
X0352131Y0103002D01*
X0352131Y0101331D01*
X0352770Y0099788D01*
X0353391Y0099167D01*
X0345331Y0099167D01*
X0345331Y0118167D01*
X0279331Y0118167D01*
X0279331Y0138167D01*
X0279331Y0137976D02*
X0370831Y0137976D01*
X0370831Y0136978D02*
X0279331Y0136978D01*
X0279331Y0135979D02*
X0354560Y0135979D01*
X0353952Y0135727D02*
X0352770Y0134546D01*
X0352131Y0133002D01*
X0352131Y0131331D01*
X0352770Y0129788D01*
X0353952Y0128606D01*
X0355495Y0127967D01*
X0363166Y0127967D01*
X0364710Y0128606D01*
X0365891Y0129788D01*
X0366531Y0131331D01*
X0366531Y0133002D01*
X0365891Y0134546D01*
X0364710Y0135727D01*
X0363166Y0136367D01*
X0355495Y0136367D01*
X0353952Y0135727D01*
X0353205Y0134981D02*
X0279331Y0134981D01*
X0279331Y0133982D02*
X0352537Y0133982D01*
X0352131Y0132984D02*
X0279331Y0132984D01*
X0279331Y0131985D02*
X0352131Y0131985D01*
X0352273Y0130987D02*
X0279331Y0130987D01*
X0279331Y0129988D02*
X0352687Y0129988D01*
X0353568Y0128990D02*
X0279331Y0128990D01*
X0279331Y0127991D02*
X0355437Y0127991D01*
X0355977Y0126667D02*
X0355277Y0126556D01*
X0354603Y0126337D01*
X0353972Y0126015D01*
X0353399Y0125599D01*
X0352898Y0125098D01*
X0352482Y0124525D01*
X0352160Y0123894D01*
X0351942Y0123220D01*
X0351854Y0122667D01*
X0358831Y0122667D01*
X0358831Y0126667D01*
X0355977Y0126667D01*
X0353943Y0125994D02*
X0279331Y0125994D01*
X0279331Y0126992D02*
X0370831Y0126992D01*
X0370831Y0125994D02*
X0364719Y0125994D01*
X0364689Y0126015D02*
X0364058Y0126337D01*
X0363384Y0126556D01*
X0362685Y0126667D01*
X0359831Y0126667D01*
X0359831Y0122667D01*
X0358831Y0122667D01*
X0358831Y0121667D01*
X0359831Y0121667D01*
X0359831Y0122667D01*
X0366808Y0122667D01*
X0366720Y0123220D01*
X0366501Y0123894D01*
X0366179Y0124525D01*
X0365763Y0125098D01*
X0365262Y0125599D01*
X0364689Y0126015D01*
X0365838Y0124995D02*
X0370831Y0124995D01*
X0370831Y0123997D02*
X0366449Y0123997D01*
X0366755Y0122998D02*
X0370831Y0122998D01*
X0370831Y0122000D02*
X0359831Y0122000D01*
X0359831Y0121667D02*
X0366808Y0121667D01*
X0366720Y0121113D01*
X0366501Y0120439D01*
X0366179Y0119808D01*
X0365763Y0119235D01*
X0365262Y0118734D01*
X0364689Y0118318D01*
X0364058Y0117996D01*
X0363384Y0117777D01*
X0362685Y0117667D01*
X0359831Y0117667D01*
X0359831Y0121667D01*
X0359831Y0121001D02*
X0358831Y0121001D01*
X0358831Y0121667D02*
X0358831Y0117667D01*
X0355977Y0117667D01*
X0355277Y0117777D01*
X0354603Y0117996D01*
X0353972Y0118318D01*
X0353399Y0118734D01*
X0352898Y0119235D01*
X0352482Y0119808D01*
X0352160Y0120439D01*
X0351942Y0121113D01*
X0351854Y0121667D01*
X0358831Y0121667D01*
X0358831Y0122000D02*
X0279331Y0122000D01*
X0279331Y0122998D02*
X0351906Y0122998D01*
X0352213Y0123997D02*
X0279331Y0123997D01*
X0279331Y0124995D02*
X0352824Y0124995D01*
X0358831Y0124995D02*
X0359831Y0124995D01*
X0359831Y0123997D02*
X0358831Y0123997D01*
X0358831Y0122998D02*
X0359831Y0122998D01*
X0359831Y0125994D02*
X0358831Y0125994D01*
X0363225Y0127991D02*
X0370831Y0127991D01*
X0370831Y0128990D02*
X0365093Y0128990D01*
X0365974Y0129988D02*
X0370831Y0129988D01*
X0370831Y0130987D02*
X0366388Y0130987D01*
X0366531Y0131985D02*
X0370831Y0131985D01*
X0370831Y0132984D02*
X0366531Y0132984D01*
X0366125Y0133982D02*
X0370831Y0133982D01*
X0370831Y0134981D02*
X0365456Y0134981D01*
X0364102Y0135979D02*
X0370831Y0135979D01*
X0370331Y0141667D02*
X0365770Y0141667D01*
X0365891Y0141788D01*
X0366531Y0143331D01*
X0366531Y0145002D01*
X0365891Y0146546D01*
X0364710Y0147727D01*
X0363166Y0148367D01*
X0355495Y0148367D01*
X0353952Y0147727D01*
X0352770Y0146546D01*
X0352131Y0145002D01*
X0352131Y0143331D01*
X0352770Y0141788D01*
X0352891Y0141667D01*
X0346331Y0141667D01*
X0346331Y0174667D01*
X0281831Y0174667D01*
X0281831Y0200667D01*
X0332831Y0200667D01*
X0332831Y0223167D01*
X0352967Y0223167D01*
X0352898Y0223098D01*
X0352482Y0222525D01*
X0352160Y0221894D01*
X0351942Y0221220D01*
X0351854Y0220667D01*
X0358831Y0220667D01*
X0358831Y0219667D01*
X0359831Y0219667D01*
X0359831Y0220667D01*
X0366808Y0220667D01*
X0366720Y0221220D01*
X0366501Y0221894D01*
X0366179Y0222525D01*
X0365763Y0223098D01*
X0365695Y0223167D01*
X0370331Y0223167D01*
X0370331Y0141667D01*
X0370331Y0141970D02*
X0365967Y0141970D01*
X0366381Y0142969D02*
X0370331Y0142969D01*
X0370331Y0143967D02*
X0366531Y0143967D01*
X0366531Y0144966D02*
X0370331Y0144966D01*
X0370331Y0145964D02*
X0366132Y0145964D01*
X0365474Y0146963D02*
X0370331Y0146963D01*
X0370331Y0147961D02*
X0364145Y0147961D01*
X0363384Y0149777D02*
X0364058Y0149996D01*
X0364689Y0150318D01*
X0365262Y0150734D01*
X0365763Y0151235D01*
X0366179Y0151808D01*
X0366501Y0152439D01*
X0366720Y0153113D01*
X0366808Y0153667D01*
X0359831Y0153667D01*
X0359831Y0154667D01*
X0358831Y0154667D01*
X0358831Y0158667D01*
X0355977Y0158667D01*
X0355277Y0158556D01*
X0354603Y0158337D01*
X0353972Y0158015D01*
X0353399Y0157599D01*
X0352898Y0157098D01*
X0352482Y0156525D01*
X0352160Y0155894D01*
X0351942Y0155220D01*
X0351854Y0154667D01*
X0358831Y0154667D01*
X0358831Y0153667D01*
X0359831Y0153667D01*
X0359831Y0149667D01*
X0362685Y0149667D01*
X0363384Y0149777D01*
X0363941Y0149958D02*
X0370331Y0149958D01*
X0370331Y0148960D02*
X0346331Y0148960D01*
X0346331Y0149958D02*
X0354721Y0149958D01*
X0354603Y0149996D02*
X0355277Y0149777D01*
X0355977Y0149667D01*
X0358831Y0149667D01*
X0358831Y0153667D01*
X0351854Y0153667D01*
X0351942Y0153113D01*
X0352160Y0152439D01*
X0352482Y0151808D01*
X0352898Y0151235D01*
X0353399Y0150734D01*
X0353972Y0150318D01*
X0354603Y0149996D01*
X0353177Y0150957D02*
X0346331Y0150957D01*
X0346331Y0151955D02*
X0352407Y0151955D01*
X0351993Y0152954D02*
X0346331Y0152954D01*
X0346331Y0153952D02*
X0358831Y0153952D01*
X0358831Y0152954D02*
X0359831Y0152954D01*
X0359831Y0153952D02*
X0370331Y0153952D01*
X0370331Y0152954D02*
X0366668Y0152954D01*
X0366254Y0151955D02*
X0370331Y0151955D01*
X0370331Y0150957D02*
X0365485Y0150957D01*
X0366808Y0154667D02*
X0366720Y0155220D01*
X0366501Y0155894D01*
X0366179Y0156525D01*
X0365763Y0157098D01*
X0365262Y0157599D01*
X0364689Y0158015D01*
X0364058Y0158337D01*
X0363384Y0158556D01*
X0362685Y0158667D01*
X0359831Y0158667D01*
X0359831Y0154667D01*
X0366808Y0154667D01*
X0366763Y0154951D02*
X0370331Y0154951D01*
X0370331Y0155949D02*
X0366473Y0155949D01*
X0365872Y0156948D02*
X0370331Y0156948D01*
X0370331Y0157946D02*
X0364784Y0157946D01*
X0363166Y0161967D02*
X0364710Y0162606D01*
X0365891Y0163788D01*
X0366531Y0165331D01*
X0366531Y0167002D01*
X0365891Y0168546D01*
X0364710Y0169727D01*
X0363166Y0170367D01*
X0355495Y0170367D01*
X0353952Y0169727D01*
X0352770Y0168546D01*
X0352131Y0167002D01*
X0352131Y0165331D01*
X0352770Y0163788D01*
X0353952Y0162606D01*
X0355495Y0161967D01*
X0363166Y0161967D01*
X0365043Y0162939D02*
X0370331Y0162939D01*
X0370331Y0163937D02*
X0365953Y0163937D01*
X0366367Y0164936D02*
X0370331Y0164936D01*
X0370331Y0165934D02*
X0366531Y0165934D01*
X0366531Y0166933D02*
X0370331Y0166933D01*
X0370331Y0167931D02*
X0366146Y0167931D01*
X0365507Y0168930D02*
X0370331Y0168930D01*
X0370331Y0169928D02*
X0364224Y0169928D01*
X0363384Y0171777D02*
X0364058Y0171996D01*
X0364689Y0172318D01*
X0365262Y0172734D01*
X0365763Y0173235D01*
X0366179Y0173808D01*
X0366501Y0174439D01*
X0366720Y0175113D01*
X0366808Y0175667D01*
X0359831Y0175667D01*
X0359831Y0176667D01*
X0358831Y0176667D01*
X0358831Y0180667D01*
X0355977Y0180667D01*
X0355277Y0180556D01*
X0354603Y0180337D01*
X0353972Y0180015D01*
X0353399Y0179599D01*
X0352898Y0179098D01*
X0352482Y0178525D01*
X0352160Y0177894D01*
X0351942Y0177220D01*
X0351854Y0176667D01*
X0358831Y0176667D01*
X0358831Y0175667D01*
X0359831Y0175667D01*
X0359831Y0171667D01*
X0362685Y0171667D01*
X0363384Y0171777D01*
X0363840Y0171925D02*
X0370331Y0171925D01*
X0370331Y0170927D02*
X0346331Y0170927D01*
X0346331Y0171925D02*
X0354821Y0171925D01*
X0354603Y0171996D02*
X0355277Y0171777D01*
X0355977Y0171667D01*
X0358831Y0171667D01*
X0358831Y0175667D01*
X0351854Y0175667D01*
X0351942Y0175113D01*
X0352160Y0174439D01*
X0352482Y0173808D01*
X0352898Y0173235D01*
X0353399Y0172734D01*
X0353972Y0172318D01*
X0354603Y0171996D01*
X0353209Y0172924D02*
X0346331Y0172924D01*
X0346331Y0173923D02*
X0352424Y0173923D01*
X0352004Y0174921D02*
X0281831Y0174921D01*
X0281831Y0175920D02*
X0358831Y0175920D01*
X0358831Y0176918D02*
X0359831Y0176918D01*
X0359831Y0176667D02*
X0359831Y0180667D01*
X0362685Y0180667D01*
X0363384Y0180556D01*
X0364058Y0180337D01*
X0364689Y0180015D01*
X0365262Y0179599D01*
X0365763Y0179098D01*
X0366179Y0178525D01*
X0366501Y0177894D01*
X0366720Y0177220D01*
X0366808Y0176667D01*
X0359831Y0176667D01*
X0359831Y0175920D02*
X0370331Y0175920D01*
X0370331Y0176918D02*
X0366768Y0176918D01*
X0366490Y0177917D02*
X0370331Y0177917D01*
X0370331Y0178915D02*
X0365896Y0178915D01*
X0364829Y0179914D02*
X0370331Y0179914D01*
X0370331Y0180912D02*
X0281831Y0180912D01*
X0281831Y0179914D02*
X0353832Y0179914D01*
X0352765Y0178915D02*
X0281831Y0178915D01*
X0281831Y0177917D02*
X0352172Y0177917D01*
X0351894Y0176918D02*
X0281831Y0176918D01*
X0281831Y0181911D02*
X0370331Y0181911D01*
X0370331Y0182909D02*
X0281831Y0182909D01*
X0281831Y0183908D02*
X0370331Y0183908D01*
X0370331Y0184906D02*
X0365010Y0184906D01*
X0364710Y0184606D02*
X0365891Y0185788D01*
X0366531Y0187331D01*
X0366531Y0189002D01*
X0365891Y0190546D01*
X0364710Y0191727D01*
X0363166Y0192367D01*
X0355495Y0192367D01*
X0353952Y0191727D01*
X0352770Y0190546D01*
X0352131Y0189002D01*
X0352131Y0187331D01*
X0352770Y0185788D01*
X0353952Y0184606D01*
X0355495Y0183967D01*
X0363166Y0183967D01*
X0364710Y0184606D01*
X0365940Y0185905D02*
X0370331Y0185905D01*
X0370331Y0186903D02*
X0366353Y0186903D01*
X0366531Y0187902D02*
X0370331Y0187902D01*
X0370331Y0188900D02*
X0366531Y0188900D01*
X0366159Y0189899D02*
X0370331Y0189899D01*
X0370331Y0190897D02*
X0365540Y0190897D01*
X0364303Y0191896D02*
X0370331Y0191896D01*
X0370331Y0192894D02*
X0349433Y0192894D01*
X0349287Y0192749D02*
X0351749Y0195210D01*
X0352214Y0196334D01*
X0352482Y0195808D01*
X0352898Y0195235D01*
X0353399Y0194734D01*
X0353972Y0194318D01*
X0354603Y0193996D01*
X0355277Y0193777D01*
X0355977Y0193667D01*
X0358831Y0193667D01*
X0358831Y0197667D01*
X0359831Y0197667D01*
X0359831Y0198667D01*
X0358831Y0198667D01*
X0358831Y0202667D01*
X0355977Y0202667D01*
X0355277Y0202556D01*
X0354603Y0202337D01*
X0353972Y0202015D01*
X0353399Y0201599D01*
X0353081Y0201281D01*
X0353081Y0201907D01*
X0351749Y0205123D01*
X0349287Y0207585D01*
X0346071Y0208917D01*
X0342590Y0208917D01*
X0339374Y0207585D01*
X0336913Y0205123D01*
X0335581Y0201907D01*
X0335581Y0198426D01*
X0336913Y0195210D01*
X0339374Y0192749D01*
X0342590Y0191417D01*
X0346071Y0191417D01*
X0349287Y0192749D01*
X0350431Y0193893D02*
X0354922Y0193893D01*
X0353242Y0194891D02*
X0351430Y0194891D01*
X0352030Y0195890D02*
X0352440Y0195890D01*
X0358831Y0195890D02*
X0359831Y0195890D01*
X0359831Y0196888D02*
X0358831Y0196888D01*
X0359831Y0197667D02*
X0359831Y0193667D01*
X0362685Y0193667D01*
X0363384Y0193777D01*
X0364058Y0193996D01*
X0364689Y0194318D01*
X0365262Y0194734D01*
X0365763Y0195235D01*
X0366179Y0195808D01*
X0366501Y0196439D01*
X0366720Y0197113D01*
X0366808Y0197667D01*
X0359831Y0197667D01*
X0359831Y0197887D02*
X0370331Y0197887D01*
X0370331Y0198885D02*
X0366773Y0198885D01*
X0366808Y0198667D02*
X0366720Y0199220D01*
X0366501Y0199894D01*
X0366179Y0200525D01*
X0365763Y0201098D01*
X0365262Y0201599D01*
X0364689Y0202015D01*
X0364058Y0202337D01*
X0363384Y0202556D01*
X0362685Y0202667D01*
X0359831Y0202667D01*
X0359831Y0198667D01*
X0366808Y0198667D01*
X0366504Y0199884D02*
X0370331Y0199884D01*
X0370331Y0200882D02*
X0365920Y0200882D01*
X0364874Y0201881D02*
X0370331Y0201881D01*
X0370331Y0202879D02*
X0352678Y0202879D01*
X0353081Y0201881D02*
X0353787Y0201881D01*
X0352264Y0203878D02*
X0370331Y0203878D01*
X0370331Y0204876D02*
X0351851Y0204876D01*
X0350997Y0205875D02*
X0370331Y0205875D01*
X0370331Y0206873D02*
X0364977Y0206873D01*
X0364710Y0206606D02*
X0365891Y0207788D01*
X0366531Y0209331D01*
X0366531Y0211002D01*
X0365891Y0212546D01*
X0364710Y0213727D01*
X0363166Y0214367D01*
X0355495Y0214367D01*
X0353952Y0213727D01*
X0352770Y0212546D01*
X0352131Y0211002D01*
X0352131Y0209331D01*
X0352770Y0207788D01*
X0353952Y0206606D01*
X0355495Y0205967D01*
X0363166Y0205967D01*
X0364710Y0206606D01*
X0365926Y0207872D02*
X0370331Y0207872D01*
X0370331Y0208870D02*
X0366340Y0208870D01*
X0366531Y0209869D02*
X0370331Y0209869D01*
X0370331Y0210867D02*
X0366531Y0210867D01*
X0366173Y0211866D02*
X0370331Y0211866D01*
X0370331Y0212864D02*
X0365573Y0212864D01*
X0364382Y0213863D02*
X0370331Y0213863D01*
X0370331Y0214861D02*
X0332831Y0214861D01*
X0332831Y0213863D02*
X0354279Y0213863D01*
X0353089Y0212864D02*
X0332831Y0212864D01*
X0332831Y0211866D02*
X0352489Y0211866D01*
X0352131Y0210867D02*
X0332831Y0210867D01*
X0332831Y0209869D02*
X0352131Y0209869D01*
X0352322Y0208870D02*
X0346183Y0208870D01*
X0348593Y0207872D02*
X0352735Y0207872D01*
X0353684Y0206873D02*
X0349998Y0206873D01*
X0342479Y0208870D02*
X0332831Y0208870D01*
X0332831Y0207872D02*
X0340068Y0207872D01*
X0338663Y0206873D02*
X0332831Y0206873D01*
X0332831Y0205875D02*
X0337665Y0205875D01*
X0336811Y0204876D02*
X0332831Y0204876D01*
X0332831Y0203878D02*
X0336397Y0203878D01*
X0335983Y0202879D02*
X0332831Y0202879D01*
X0332831Y0201881D02*
X0335581Y0201881D01*
X0335581Y0200882D02*
X0332831Y0200882D01*
X0335581Y0199884D02*
X0281831Y0199884D01*
X0281831Y0198885D02*
X0335581Y0198885D01*
X0335804Y0197887D02*
X0281831Y0197887D01*
X0281831Y0196888D02*
X0336218Y0196888D01*
X0336631Y0195890D02*
X0281831Y0195890D01*
X0281831Y0194891D02*
X0337232Y0194891D01*
X0338230Y0193893D02*
X0281831Y0193893D01*
X0281831Y0192894D02*
X0339229Y0192894D01*
X0341434Y0191896D02*
X0281831Y0191896D01*
X0281831Y0190897D02*
X0353122Y0190897D01*
X0352502Y0189899D02*
X0281831Y0189899D01*
X0281831Y0188900D02*
X0352131Y0188900D01*
X0352131Y0187902D02*
X0281831Y0187902D01*
X0281831Y0186903D02*
X0352308Y0186903D01*
X0352722Y0185905D02*
X0281831Y0185905D01*
X0281831Y0184906D02*
X0353652Y0184906D01*
X0358831Y0179914D02*
X0359831Y0179914D01*
X0359831Y0178915D02*
X0358831Y0178915D01*
X0358831Y0177917D02*
X0359831Y0177917D01*
X0359831Y0174921D02*
X0358831Y0174921D01*
X0358831Y0173923D02*
X0359831Y0173923D01*
X0359831Y0172924D02*
X0358831Y0172924D01*
X0358831Y0171925D02*
X0359831Y0171925D01*
X0354437Y0169928D02*
X0346331Y0169928D01*
X0346331Y0168930D02*
X0353154Y0168930D01*
X0352516Y0167931D02*
X0346331Y0167931D01*
X0346331Y0166933D02*
X0352131Y0166933D01*
X0352131Y0165934D02*
X0346331Y0165934D01*
X0346331Y0164936D02*
X0352294Y0164936D01*
X0352708Y0163937D02*
X0346331Y0163937D01*
X0346331Y0162939D02*
X0353619Y0162939D01*
X0353877Y0157946D02*
X0346331Y0157946D01*
X0346331Y0156948D02*
X0352789Y0156948D01*
X0352189Y0155949D02*
X0346331Y0155949D01*
X0346331Y0154951D02*
X0351899Y0154951D01*
X0346331Y0158945D02*
X0370331Y0158945D01*
X0370331Y0159943D02*
X0346331Y0159943D01*
X0346331Y0160942D02*
X0370331Y0160942D01*
X0370331Y0161940D02*
X0346331Y0161940D01*
X0358831Y0157946D02*
X0359831Y0157946D01*
X0359831Y0156948D02*
X0358831Y0156948D01*
X0358831Y0155949D02*
X0359831Y0155949D01*
X0359831Y0154951D02*
X0358831Y0154951D01*
X0358831Y0151955D02*
X0359831Y0151955D01*
X0359831Y0150957D02*
X0358831Y0150957D01*
X0358831Y0149958D02*
X0359831Y0149958D01*
X0354516Y0147961D02*
X0346331Y0147961D01*
X0346331Y0146963D02*
X0353187Y0146963D01*
X0352529Y0145964D02*
X0346331Y0145964D01*
X0346331Y0144966D02*
X0352131Y0144966D01*
X0352131Y0143967D02*
X0346331Y0143967D01*
X0346331Y0142969D02*
X0352281Y0142969D01*
X0352694Y0141970D02*
X0346331Y0141970D01*
X0351978Y0121001D02*
X0279331Y0121001D01*
X0279331Y0120003D02*
X0352383Y0120003D01*
X0353129Y0119004D02*
X0279331Y0119004D01*
X0294331Y0088667D02*
X0343331Y0088667D01*
X0348831Y0094167D01*
X0354269Y0094167D01*
X0353972Y0094015D01*
X0353399Y0093599D01*
X0352898Y0093098D01*
X0352482Y0092525D01*
X0352160Y0091894D01*
X0351942Y0091220D01*
X0351854Y0090667D01*
X0358831Y0090667D01*
X0358831Y0089667D01*
X0359831Y0089667D01*
X0359831Y0090667D01*
X0366808Y0090667D01*
X0366720Y0091220D01*
X0366501Y0091894D01*
X0366179Y0092525D01*
X0365763Y0093098D01*
X0365262Y0093599D01*
X0364689Y0094015D01*
X0364392Y0094167D01*
X0369331Y0094167D01*
X0369331Y0010667D01*
X0364770Y0010667D01*
X0365891Y0011788D01*
X0366531Y0013331D01*
X0366531Y0015002D01*
X0365891Y0016546D01*
X0364710Y0017727D01*
X0363166Y0018367D01*
X0355495Y0018367D01*
X0353952Y0017727D01*
X0352770Y0016546D01*
X0352131Y0015002D01*
X0352131Y0013331D01*
X0352770Y0011788D01*
X0353891Y0010667D01*
X0345331Y0010667D01*
X0345331Y0026417D01*
X0346071Y0026417D01*
X0349287Y0027749D01*
X0351749Y0030210D01*
X0353081Y0033426D01*
X0353081Y0033477D01*
X0353952Y0032606D01*
X0355495Y0031967D01*
X0363166Y0031967D01*
X0364710Y0032606D01*
X0365891Y0033788D01*
X0366531Y0035331D01*
X0366531Y0037002D01*
X0365891Y0038546D01*
X0364710Y0039727D01*
X0363166Y0040367D01*
X0355495Y0040367D01*
X0353952Y0039727D01*
X0352770Y0038546D01*
X0352586Y0038101D01*
X0351749Y0040123D01*
X0349287Y0042585D01*
X0346071Y0043917D01*
X0345331Y0043917D01*
X0345331Y0060667D01*
X0294331Y0060667D01*
X0294331Y0088667D01*
X0294331Y0088051D02*
X0352358Y0088051D01*
X0352482Y0087808D02*
X0352898Y0087235D01*
X0353399Y0086734D01*
X0353972Y0086318D01*
X0354603Y0085996D01*
X0355277Y0085777D01*
X0355977Y0085667D01*
X0358831Y0085667D01*
X0358831Y0089667D01*
X0351854Y0089667D01*
X0351942Y0089113D01*
X0352160Y0088439D01*
X0352482Y0087808D01*
X0353081Y0087052D02*
X0294331Y0087052D01*
X0294331Y0086054D02*
X0354491Y0086054D01*
X0355495Y0084367D02*
X0353952Y0083727D01*
X0352770Y0082546D01*
X0352131Y0081002D01*
X0352131Y0079331D01*
X0352770Y0077788D01*
X0353952Y0076606D01*
X0355495Y0075967D01*
X0363166Y0075967D01*
X0364710Y0076606D01*
X0365891Y0077788D01*
X0366531Y0079331D01*
X0366531Y0081002D01*
X0365891Y0082546D01*
X0364710Y0083727D01*
X0363166Y0084367D01*
X0355495Y0084367D01*
X0354747Y0084056D02*
X0294331Y0084056D01*
X0294331Y0083058D02*
X0353282Y0083058D01*
X0352569Y0082059D02*
X0294331Y0082059D01*
X0294331Y0081061D02*
X0352155Y0081061D01*
X0352131Y0080062D02*
X0294331Y0080062D01*
X0294331Y0079064D02*
X0352241Y0079064D01*
X0352655Y0078065D02*
X0294331Y0078065D01*
X0294331Y0077067D02*
X0353491Y0077067D01*
X0355250Y0076068D02*
X0294331Y0076068D01*
X0294331Y0075070D02*
X0369331Y0075070D01*
X0369331Y0076068D02*
X0363412Y0076068D01*
X0365171Y0077067D02*
X0369331Y0077067D01*
X0369331Y0078065D02*
X0366006Y0078065D01*
X0366420Y0079064D02*
X0369331Y0079064D01*
X0369331Y0080062D02*
X0366531Y0080062D01*
X0366506Y0081061D02*
X0369331Y0081061D01*
X0369331Y0082059D02*
X0366093Y0082059D01*
X0365379Y0083058D02*
X0369331Y0083058D01*
X0369331Y0084056D02*
X0363915Y0084056D01*
X0363384Y0085777D02*
X0364058Y0085996D01*
X0364689Y0086318D01*
X0365262Y0086734D01*
X0365763Y0087235D01*
X0366179Y0087808D01*
X0366501Y0088439D01*
X0366720Y0089113D01*
X0366808Y0089667D01*
X0359831Y0089667D01*
X0359831Y0085667D01*
X0362685Y0085667D01*
X0363384Y0085777D01*
X0364170Y0086054D02*
X0369331Y0086054D01*
X0369331Y0087052D02*
X0365580Y0087052D01*
X0366303Y0088051D02*
X0369331Y0088051D01*
X0369331Y0089049D02*
X0366699Y0089049D01*
X0366748Y0091046D02*
X0369331Y0091046D01*
X0369331Y0090048D02*
X0359831Y0090048D01*
X0359831Y0089049D02*
X0358831Y0089049D01*
X0358831Y0088051D02*
X0359831Y0088051D01*
X0359831Y0087052D02*
X0358831Y0087052D01*
X0358831Y0086054D02*
X0359831Y0086054D01*
X0358831Y0090048D02*
X0344712Y0090048D01*
X0345710Y0091046D02*
X0351914Y0091046D01*
X0352237Y0092045D02*
X0346709Y0092045D01*
X0347707Y0093043D02*
X0352858Y0093043D01*
X0354024Y0094042D02*
X0348706Y0094042D01*
X0351962Y0089049D02*
X0343713Y0089049D01*
X0345331Y0100033D02*
X0352669Y0100033D01*
X0352255Y0101031D02*
X0345331Y0101031D01*
X0345331Y0102030D02*
X0352131Y0102030D01*
X0352142Y0103028D02*
X0345331Y0103028D01*
X0345331Y0104027D02*
X0352555Y0104027D01*
X0353250Y0105025D02*
X0345331Y0105025D01*
X0345331Y0106024D02*
X0354667Y0106024D01*
X0355277Y0107777D02*
X0355977Y0107667D01*
X0358831Y0107667D01*
X0358831Y0111667D01*
X0359831Y0111667D01*
X0359831Y0112667D01*
X0358831Y0112667D01*
X0358831Y0116667D01*
X0355977Y0116667D01*
X0355277Y0116556D01*
X0354603Y0116337D01*
X0353972Y0116015D01*
X0353399Y0115599D01*
X0352898Y0115098D01*
X0352482Y0114525D01*
X0352160Y0113894D01*
X0351942Y0113220D01*
X0351854Y0112667D01*
X0358831Y0112667D01*
X0358831Y0111667D01*
X0351854Y0111667D01*
X0351942Y0111113D01*
X0352160Y0110439D01*
X0352482Y0109808D01*
X0352898Y0109235D01*
X0353399Y0108734D01*
X0353972Y0108318D01*
X0354603Y0107996D01*
X0355277Y0107777D01*
X0354555Y0108021D02*
X0345331Y0108021D01*
X0345331Y0109019D02*
X0353114Y0109019D01*
X0352375Y0110018D02*
X0345331Y0110018D01*
X0345331Y0111016D02*
X0351973Y0111016D01*
X0351909Y0113013D02*
X0345331Y0113013D01*
X0345331Y0112015D02*
X0358831Y0112015D01*
X0358831Y0113013D02*
X0359831Y0113013D01*
X0359831Y0112667D02*
X0359831Y0116667D01*
X0362685Y0116667D01*
X0363384Y0116556D01*
X0364058Y0116337D01*
X0364689Y0116015D01*
X0365262Y0115599D01*
X0365763Y0115098D01*
X0366179Y0114525D01*
X0366501Y0113894D01*
X0366720Y0113220D01*
X0366808Y0112667D01*
X0359831Y0112667D01*
X0359831Y0112015D02*
X0370831Y0112015D01*
X0370831Y0113013D02*
X0366753Y0113013D01*
X0366441Y0114012D02*
X0370831Y0114012D01*
X0370831Y0115010D02*
X0365827Y0115010D01*
X0364698Y0116009D02*
X0370831Y0116009D01*
X0370831Y0117007D02*
X0345331Y0117007D01*
X0345331Y0116009D02*
X0353963Y0116009D01*
X0352834Y0115010D02*
X0345331Y0115010D01*
X0345331Y0114012D02*
X0352220Y0114012D01*
X0358831Y0114012D02*
X0359831Y0114012D01*
X0359831Y0115010D02*
X0358831Y0115010D01*
X0358831Y0116009D02*
X0359831Y0116009D01*
X0359831Y0118006D02*
X0358831Y0118006D01*
X0358831Y0119004D02*
X0359831Y0119004D01*
X0359831Y0120003D02*
X0358831Y0120003D01*
X0354585Y0118006D02*
X0345331Y0118006D01*
X0358831Y0111016D02*
X0359831Y0111016D01*
X0359831Y0111667D02*
X0359831Y0107667D01*
X0362685Y0107667D01*
X0363384Y0107777D01*
X0364058Y0107996D01*
X0364689Y0108318D01*
X0365262Y0108734D01*
X0365763Y0109235D01*
X0366179Y0109808D01*
X0366501Y0110439D01*
X0366720Y0111113D01*
X0366808Y0111667D01*
X0359831Y0111667D01*
X0359831Y0110018D02*
X0358831Y0110018D01*
X0358831Y0109019D02*
X0359831Y0109019D01*
X0359831Y0108021D02*
X0358831Y0108021D01*
X0364106Y0108021D02*
X0370831Y0108021D01*
X0370831Y0109019D02*
X0365547Y0109019D01*
X0366286Y0110018D02*
X0370831Y0110018D01*
X0370831Y0111016D02*
X0366689Y0111016D01*
X0363994Y0106024D02*
X0370831Y0106024D01*
X0370831Y0107022D02*
X0345331Y0107022D01*
X0365412Y0105025D02*
X0370831Y0105025D01*
X0370831Y0104027D02*
X0366106Y0104027D01*
X0366520Y0103028D02*
X0370831Y0103028D01*
X0370831Y0102030D02*
X0366531Y0102030D01*
X0366406Y0101031D02*
X0370831Y0101031D01*
X0370831Y0100033D02*
X0365993Y0100033D01*
X0364638Y0094042D02*
X0369331Y0094042D01*
X0369331Y0093043D02*
X0365803Y0093043D01*
X0366424Y0092045D02*
X0369331Y0092045D01*
X0369331Y0085055D02*
X0294331Y0085055D01*
X0294331Y0074071D02*
X0369331Y0074071D01*
X0369331Y0073073D02*
X0294331Y0073073D01*
X0294331Y0072074D02*
X0354088Y0072074D01*
X0353972Y0072015D02*
X0353399Y0071599D01*
X0352898Y0071098D01*
X0352482Y0070525D01*
X0352160Y0069894D01*
X0351942Y0069220D01*
X0351854Y0068667D01*
X0358831Y0068667D01*
X0358831Y0072667D01*
X0355977Y0072667D01*
X0355277Y0072556D01*
X0354603Y0072337D01*
X0353972Y0072015D01*
X0352882Y0071076D02*
X0294331Y0071076D01*
X0294331Y0070077D02*
X0352254Y0070077D01*
X0351919Y0069079D02*
X0294331Y0069079D01*
X0294331Y0068080D02*
X0358831Y0068080D01*
X0358831Y0067667D02*
X0351854Y0067667D01*
X0351942Y0067113D01*
X0352160Y0066439D01*
X0352482Y0065808D01*
X0352898Y0065235D01*
X0353399Y0064734D01*
X0353972Y0064318D01*
X0354603Y0063996D01*
X0355277Y0063777D01*
X0355977Y0063667D01*
X0358831Y0063667D01*
X0358831Y0067667D01*
X0359831Y0067667D01*
X0359831Y0068667D01*
X0358831Y0068667D01*
X0358831Y0067667D01*
X0358831Y0067082D02*
X0359831Y0067082D01*
X0359831Y0067667D02*
X0359831Y0063667D01*
X0362685Y0063667D01*
X0363384Y0063777D01*
X0364058Y0063996D01*
X0364689Y0064318D01*
X0365262Y0064734D01*
X0365763Y0065235D01*
X0366179Y0065808D01*
X0366501Y0066439D01*
X0366720Y0067113D01*
X0366808Y0067667D01*
X0359831Y0067667D01*
X0359831Y0068080D02*
X0369331Y0068080D01*
X0369331Y0067082D02*
X0366710Y0067082D01*
X0366320Y0066083D02*
X0369331Y0066083D01*
X0369331Y0065085D02*
X0365613Y0065085D01*
X0364235Y0064086D02*
X0369331Y0064086D01*
X0369331Y0063088D02*
X0294331Y0063088D01*
X0294331Y0064086D02*
X0354427Y0064086D01*
X0353049Y0065085D02*
X0294331Y0065085D01*
X0294331Y0066083D02*
X0352342Y0066083D01*
X0351952Y0067082D02*
X0294331Y0067082D01*
X0294331Y0062089D02*
X0354826Y0062089D01*
X0355495Y0062367D02*
X0353952Y0061727D01*
X0352770Y0060546D01*
X0352131Y0059002D01*
X0352131Y0057331D01*
X0352770Y0055788D01*
X0353952Y0054606D01*
X0355495Y0053967D01*
X0363166Y0053967D01*
X0364710Y0054606D01*
X0365891Y0055788D01*
X0366531Y0057331D01*
X0366531Y0059002D01*
X0365891Y0060546D01*
X0364710Y0061727D01*
X0363166Y0062367D01*
X0355495Y0062367D01*
X0353315Y0061091D02*
X0294331Y0061091D01*
X0345331Y0060092D02*
X0352582Y0060092D01*
X0352169Y0059094D02*
X0345331Y0059094D01*
X0345331Y0058095D02*
X0352131Y0058095D01*
X0352228Y0057097D02*
X0345331Y0057097D01*
X0345331Y0056098D02*
X0352641Y0056098D01*
X0353458Y0055100D02*
X0345331Y0055100D01*
X0345331Y0054101D02*
X0355171Y0054101D01*
X0355977Y0050667D02*
X0355277Y0050556D01*
X0354603Y0050337D01*
X0353972Y0050015D01*
X0353399Y0049599D01*
X0352898Y0049098D01*
X0352482Y0048525D01*
X0352160Y0047894D01*
X0351942Y0047220D01*
X0351854Y0046667D01*
X0358831Y0046667D01*
X0358831Y0050667D01*
X0355977Y0050667D01*
X0354152Y0050107D02*
X0345331Y0050107D01*
X0345331Y0049109D02*
X0352909Y0049109D01*
X0352270Y0048110D02*
X0345331Y0048110D01*
X0345331Y0047112D02*
X0351924Y0047112D01*
X0351854Y0045667D02*
X0351942Y0045113D01*
X0352160Y0044439D01*
X0352482Y0043808D01*
X0352898Y0043235D01*
X0353399Y0042734D01*
X0353972Y0042318D01*
X0354603Y0041996D01*
X0355277Y0041777D01*
X0355977Y0041667D01*
X0358831Y0041667D01*
X0358831Y0045667D01*
X0359831Y0045667D01*
X0359831Y0046667D01*
X0358831Y0046667D01*
X0358831Y0045667D01*
X0351854Y0045667D01*
X0351941Y0045115D02*
X0345331Y0045115D01*
X0345331Y0046113D02*
X0358831Y0046113D01*
X0358831Y0045115D02*
X0359831Y0045115D01*
X0359831Y0045667D02*
X0359831Y0041667D01*
X0362685Y0041667D01*
X0363384Y0041777D01*
X0364058Y0041996D01*
X0364689Y0042318D01*
X0365262Y0042734D01*
X0365763Y0043235D01*
X0366179Y0043808D01*
X0366501Y0044439D01*
X0366720Y0045113D01*
X0366808Y0045667D01*
X0359831Y0045667D01*
X0359831Y0046113D02*
X0369331Y0046113D01*
X0369331Y0045115D02*
X0366720Y0045115D01*
X0366336Y0044116D02*
X0369331Y0044116D01*
X0369331Y0043118D02*
X0365646Y0043118D01*
X0364299Y0042119D02*
X0369331Y0042119D01*
X0369331Y0041121D02*
X0350751Y0041121D01*
X0349753Y0042119D02*
X0354363Y0042119D01*
X0353016Y0043118D02*
X0348000Y0043118D01*
X0345331Y0044116D02*
X0352325Y0044116D01*
X0351749Y0040122D02*
X0354905Y0040122D01*
X0353348Y0039123D02*
X0352163Y0039123D01*
X0352576Y0038125D02*
X0352596Y0038125D01*
X0358831Y0042119D02*
X0359831Y0042119D01*
X0359831Y0043118D02*
X0358831Y0043118D01*
X0358831Y0044116D02*
X0359831Y0044116D01*
X0359831Y0046667D02*
X0366808Y0046667D01*
X0366720Y0047220D01*
X0366501Y0047894D01*
X0366179Y0048525D01*
X0365763Y0049098D01*
X0365262Y0049599D01*
X0364689Y0050015D01*
X0364058Y0050337D01*
X0363384Y0050556D01*
X0362685Y0050667D01*
X0359831Y0050667D01*
X0359831Y0046667D01*
X0359831Y0047112D02*
X0358831Y0047112D01*
X0358831Y0048110D02*
X0359831Y0048110D01*
X0359831Y0049109D02*
X0358831Y0049109D01*
X0358831Y0050107D02*
X0359831Y0050107D01*
X0364509Y0050107D02*
X0369331Y0050107D01*
X0369331Y0049109D02*
X0365753Y0049109D01*
X0366391Y0048110D02*
X0369331Y0048110D01*
X0369331Y0047112D02*
X0366737Y0047112D01*
X0369331Y0051106D02*
X0345331Y0051106D01*
X0345331Y0052104D02*
X0369331Y0052104D01*
X0369331Y0053103D02*
X0345331Y0053103D01*
X0363491Y0054101D02*
X0369331Y0054101D01*
X0369331Y0055100D02*
X0365203Y0055100D01*
X0366020Y0056098D02*
X0369331Y0056098D01*
X0369331Y0057097D02*
X0366434Y0057097D01*
X0366531Y0058095D02*
X0369331Y0058095D01*
X0369331Y0059094D02*
X0366493Y0059094D01*
X0366079Y0060092D02*
X0369331Y0060092D01*
X0369331Y0061091D02*
X0365346Y0061091D01*
X0363836Y0062089D02*
X0369331Y0062089D01*
X0369331Y0069079D02*
X0366742Y0069079D01*
X0366720Y0069220D02*
X0366501Y0069894D01*
X0366179Y0070525D01*
X0365763Y0071098D01*
X0365262Y0071599D01*
X0364689Y0072015D01*
X0364058Y0072337D01*
X0363384Y0072556D01*
X0362685Y0072667D01*
X0359831Y0072667D01*
X0359831Y0068667D01*
X0366808Y0068667D01*
X0366720Y0069220D01*
X0366408Y0070077D02*
X0369331Y0070077D01*
X0369331Y0071076D02*
X0365779Y0071076D01*
X0364573Y0072074D02*
X0369331Y0072074D01*
X0359831Y0072074D02*
X0358831Y0072074D01*
X0358831Y0071076D02*
X0359831Y0071076D01*
X0359831Y0070077D02*
X0358831Y0070077D01*
X0358831Y0069079D02*
X0359831Y0069079D01*
X0359831Y0066083D02*
X0358831Y0066083D01*
X0358831Y0065085D02*
X0359831Y0065085D01*
X0359831Y0064086D02*
X0358831Y0064086D01*
X0363757Y0040122D02*
X0369331Y0040122D01*
X0369331Y0039123D02*
X0365314Y0039123D01*
X0366066Y0038125D02*
X0369331Y0038125D01*
X0369331Y0037126D02*
X0366479Y0037126D01*
X0366531Y0036128D02*
X0369331Y0036128D01*
X0369331Y0035129D02*
X0366447Y0035129D01*
X0366034Y0034131D02*
X0369331Y0034131D01*
X0369331Y0033132D02*
X0365236Y0033132D01*
X0363570Y0032134D02*
X0369331Y0032134D01*
X0369331Y0031135D02*
X0352132Y0031135D01*
X0352545Y0032134D02*
X0355091Y0032134D01*
X0353425Y0033132D02*
X0352959Y0033132D01*
X0351675Y0030137D02*
X0369331Y0030137D01*
X0369331Y0029138D02*
X0350677Y0029138D01*
X0349678Y0028140D02*
X0354216Y0028140D01*
X0353972Y0028015D02*
X0353399Y0027599D01*
X0352898Y0027098D01*
X0352482Y0026525D01*
X0352160Y0025894D01*
X0351942Y0025220D01*
X0351854Y0024667D01*
X0358831Y0024667D01*
X0358831Y0028667D01*
X0355977Y0028667D01*
X0355277Y0028556D01*
X0354603Y0028337D01*
X0353972Y0028015D01*
X0352941Y0027141D02*
X0347821Y0027141D01*
X0345331Y0026143D02*
X0352287Y0026143D01*
X0351929Y0025144D02*
X0345331Y0025144D01*
X0345331Y0024146D02*
X0358831Y0024146D01*
X0358831Y0023667D02*
X0351854Y0023667D01*
X0351942Y0023113D01*
X0352160Y0022439D01*
X0352482Y0021808D01*
X0352898Y0021235D01*
X0353399Y0020734D01*
X0353972Y0020318D01*
X0354603Y0019996D01*
X0355277Y0019777D01*
X0355977Y0019667D01*
X0358831Y0019667D01*
X0358831Y0023667D01*
X0359831Y0023667D01*
X0359831Y0024667D01*
X0358831Y0024667D01*
X0358831Y0023667D01*
X0358831Y0023147D02*
X0359831Y0023147D01*
X0359831Y0023667D02*
X0359831Y0019667D01*
X0362685Y0019667D01*
X0363384Y0019777D01*
X0364058Y0019996D01*
X0364689Y0020318D01*
X0365262Y0020734D01*
X0365763Y0021235D01*
X0366179Y0021808D01*
X0366501Y0022439D01*
X0366720Y0023113D01*
X0366808Y0023667D01*
X0359831Y0023667D01*
X0359831Y0024146D02*
X0369331Y0024146D01*
X0369331Y0025144D02*
X0366732Y0025144D01*
X0366720Y0025220D02*
X0366501Y0025894D01*
X0366179Y0026525D01*
X0365763Y0027098D01*
X0365262Y0027599D01*
X0364689Y0028015D01*
X0364058Y0028337D01*
X0363384Y0028556D01*
X0362685Y0028667D01*
X0359831Y0028667D01*
X0359831Y0024667D01*
X0366808Y0024667D01*
X0366720Y0025220D01*
X0366374Y0026143D02*
X0369331Y0026143D01*
X0369331Y0027141D02*
X0365720Y0027141D01*
X0364445Y0028140D02*
X0369331Y0028140D01*
X0369331Y0023147D02*
X0366725Y0023147D01*
X0366353Y0022149D02*
X0369331Y0022149D01*
X0369331Y0021150D02*
X0365678Y0021150D01*
X0364363Y0020152D02*
X0369331Y0020152D01*
X0369331Y0019153D02*
X0345331Y0019153D01*
X0345331Y0018155D02*
X0354984Y0018155D01*
X0353381Y0017156D02*
X0345331Y0017156D01*
X0345331Y0016158D02*
X0352609Y0016158D01*
X0352196Y0015159D02*
X0345331Y0015159D01*
X0345331Y0014161D02*
X0352131Y0014161D01*
X0352201Y0013162D02*
X0345331Y0013162D01*
X0345331Y0012164D02*
X0352614Y0012164D01*
X0353392Y0011165D02*
X0345331Y0011165D01*
X0345331Y0020152D02*
X0354298Y0020152D01*
X0352983Y0021150D02*
X0345331Y0021150D01*
X0345331Y0022149D02*
X0352308Y0022149D01*
X0351936Y0023147D02*
X0345331Y0023147D01*
X0358831Y0022149D02*
X0359831Y0022149D01*
X0359831Y0021150D02*
X0358831Y0021150D01*
X0358831Y0020152D02*
X0359831Y0020152D01*
X0363678Y0018155D02*
X0369331Y0018155D01*
X0369331Y0017156D02*
X0365281Y0017156D01*
X0366052Y0016158D02*
X0369331Y0016158D01*
X0369331Y0015159D02*
X0366466Y0015159D01*
X0366531Y0014161D02*
X0369331Y0014161D01*
X0369331Y0013162D02*
X0366461Y0013162D01*
X0366047Y0012164D02*
X0369331Y0012164D01*
X0369331Y0011165D02*
X0365269Y0011165D01*
X0359831Y0025144D02*
X0358831Y0025144D01*
X0358831Y0026143D02*
X0359831Y0026143D01*
X0359831Y0027141D02*
X0358831Y0027141D01*
X0358831Y0028140D02*
X0359831Y0028140D01*
X0364077Y0118006D02*
X0370831Y0118006D01*
X0370831Y0119004D02*
X0365532Y0119004D01*
X0366279Y0120003D02*
X0370831Y0120003D01*
X0370831Y0121001D02*
X0366684Y0121001D01*
X0365452Y0172924D02*
X0370331Y0172924D01*
X0370331Y0173923D02*
X0366238Y0173923D01*
X0366658Y0174921D02*
X0370331Y0174921D01*
X0354358Y0191896D02*
X0347228Y0191896D01*
X0358831Y0193893D02*
X0359831Y0193893D01*
X0359831Y0194891D02*
X0358831Y0194891D01*
X0363739Y0193893D02*
X0370331Y0193893D01*
X0370331Y0194891D02*
X0365419Y0194891D01*
X0366221Y0195890D02*
X0370331Y0195890D01*
X0370331Y0196888D02*
X0366647Y0196888D01*
X0359831Y0198885D02*
X0358831Y0198885D01*
X0358831Y0199884D02*
X0359831Y0199884D01*
X0359831Y0200882D02*
X0358831Y0200882D01*
X0358831Y0201881D02*
X0359831Y0201881D01*
X0359831Y0215667D02*
X0362685Y0215667D01*
X0363384Y0215777D01*
X0364058Y0215996D01*
X0364689Y0216318D01*
X0365262Y0216734D01*
X0365763Y0217235D01*
X0366179Y0217808D01*
X0366501Y0218439D01*
X0366720Y0219113D01*
X0366808Y0219667D01*
X0359831Y0219667D01*
X0359831Y0215667D01*
X0359831Y0215860D02*
X0358831Y0215860D01*
X0358831Y0215667D02*
X0358831Y0219667D01*
X0351854Y0219667D01*
X0351942Y0219113D01*
X0352160Y0218439D01*
X0352482Y0217808D01*
X0352898Y0217235D01*
X0353399Y0216734D01*
X0353972Y0216318D01*
X0354603Y0215996D01*
X0355277Y0215777D01*
X0355977Y0215667D01*
X0358831Y0215667D01*
X0358831Y0216859D02*
X0359831Y0216859D01*
X0359831Y0217857D02*
X0358831Y0217857D01*
X0358831Y0218856D02*
X0359831Y0218856D01*
X0359831Y0219854D02*
X0370331Y0219854D01*
X0370331Y0218856D02*
X0366636Y0218856D01*
X0366204Y0217857D02*
X0370331Y0217857D01*
X0370331Y0216859D02*
X0365387Y0216859D01*
X0363638Y0215860D02*
X0370331Y0215860D01*
X0370331Y0220853D02*
X0366778Y0220853D01*
X0366515Y0221851D02*
X0370331Y0221851D01*
X0370331Y0222850D02*
X0365944Y0222850D01*
X0358831Y0219854D02*
X0332831Y0219854D01*
X0332831Y0218856D02*
X0352025Y0218856D01*
X0352457Y0217857D02*
X0332831Y0217857D01*
X0332831Y0216859D02*
X0353275Y0216859D01*
X0355023Y0215860D02*
X0332831Y0215860D01*
X0332831Y0220853D02*
X0351883Y0220853D01*
X0352146Y0221851D02*
X0332831Y0221851D01*
X0332831Y0222850D02*
X0352718Y0222850D01*
X0198500Y0117417D02*
X0191581Y0117417D01*
X0185331Y0111167D01*
X0191581Y0060417D02*
X0185331Y0054167D01*
X0191581Y0060417D02*
X0198500Y0060417D01*
D27*
X0114331Y0111667D03*
X0114331Y0142167D03*
X0113331Y0154667D03*
X0124331Y0154667D03*
X0112831Y0181167D03*
X0107831Y0181167D03*
X0102831Y0180667D03*
X0093331Y0184667D03*
X0085831Y0189667D03*
X0081831Y0186667D03*
X0071831Y0189667D03*
X0071831Y0181667D03*
X0085831Y0194167D03*
X0093331Y0196167D03*
X0094331Y0202167D03*
X0134331Y0191167D03*
X0054831Y0088667D03*
D28*
X0062831Y0080667D01*
X0062831Y0037667D01*
X0067831Y0032667D01*
X0140831Y0032667D01*
X0141831Y0031667D01*
X0141831Y0021667D01*
X0145831Y0017667D01*
X0146831Y0017667D01*
X0207161Y0064157D02*
X0213821Y0064157D01*
X0216331Y0066667D01*
X0216331Y0119167D01*
X0216331Y0176167D01*
X0214341Y0178157D01*
X0208161Y0178157D01*
X0208161Y0195836D01*
X0201831Y0202167D01*
X0201831Y0221667D01*
X0200831Y0222667D01*
X0123831Y0222667D01*
X0121831Y0220667D01*
X0121831Y0204667D01*
X0119331Y0202167D01*
X0113831Y0202167D01*
X0113331Y0201667D01*
X0113331Y0196367D01*
X0113431Y0196267D01*
X0110931Y0196267D02*
X0110831Y0196367D01*
X0110831Y0200667D01*
X0109331Y0202167D01*
X0094331Y0202167D01*
X0093431Y0196267D02*
X0093331Y0196167D01*
X0093431Y0196267D02*
X0100631Y0196267D01*
X0103231Y0196267D02*
X0103231Y0192567D01*
X0102331Y0191667D01*
X0088331Y0191667D01*
X0085831Y0194167D01*
X0085831Y0189667D02*
X0104331Y0189667D01*
X0105731Y0191067D01*
X0105731Y0196267D01*
X0108331Y0196267D02*
X0108331Y0185667D01*
X0094331Y0185667D01*
X0093331Y0184667D01*
X0100331Y0182667D02*
X0100331Y0179167D01*
X0101331Y0178167D01*
X0102831Y0178167D01*
X0103331Y0177667D01*
X0103331Y0174167D01*
X0103231Y0174067D01*
X0105731Y0174067D02*
X0105731Y0177767D01*
X0102831Y0180667D01*
X0100331Y0182667D02*
X0101331Y0183667D01*
X0104831Y0183667D01*
X0107331Y0181167D01*
X0107831Y0181167D01*
X0112831Y0181167D02*
X0112831Y0183167D01*
X0110331Y0185667D01*
X0108331Y0185667D01*
X0120331Y0189667D02*
X0121831Y0191167D01*
X0134331Y0191167D01*
X0133331Y0195667D02*
X0133831Y0196167D01*
X0133831Y0198917D01*
X0134081Y0199167D01*
X0133331Y0195667D02*
X0122331Y0195667D01*
X0121731Y0196267D01*
X0116031Y0196267D01*
X0120331Y0189667D02*
X0120331Y0171667D01*
X0119831Y0171167D01*
X0108774Y0167083D02*
X0108331Y0167526D01*
X0108331Y0174067D01*
X0100631Y0174067D02*
X0098984Y0172420D01*
X0098984Y0167167D01*
X0111331Y0160320D02*
X0111331Y0155167D01*
X0111831Y0154667D01*
X0113331Y0154667D01*
X0071831Y0181667D02*
X0071831Y0189667D01*
X0111331Y0121667D02*
X0117331Y0121667D01*
X0117831Y0121167D01*
X0117831Y0117789D01*
X0118071Y0117549D01*
X0118177Y0117442D01*
X0124213Y0117549D02*
X0124331Y0117667D01*
X0111331Y0121667D02*
X0110591Y0120927D01*
X0110591Y0117549D01*
X0207161Y0121157D02*
X0207171Y0121167D01*
X0214331Y0121167D01*
X0216331Y0119167D01*
D29*
X0315331Y0039167D02*
X0315831Y0039167D01*
X0317331Y0037667D01*
X0317331Y0028167D01*
X0316831Y0027667D01*
X0326831Y0027667D01*
X0326831Y0038667D01*
X0326331Y0039167D01*
X0315831Y0039167D01*
X0316831Y0027667D02*
X0316831Y0017667D01*
X0326831Y0017667D01*
X0326831Y0027667D01*
D30*
X0337331Y0022667D03*
X0318831Y0071167D03*
X0318831Y0077667D03*
X0318831Y0084167D03*
X0319331Y0121167D03*
X0319331Y0127667D03*
X0319331Y0134167D03*
X0320331Y0182667D03*
X0320331Y0189167D03*
X0320331Y0195667D03*
D31*
X0125831Y0106667D02*
X0118177Y0106667D01*
X0118071Y0106773D01*
X0118071Y0117549D01*
X0118071Y0127785D02*
X0118177Y0127891D01*
X0118177Y0134167D01*
X0118177Y0149167D01*
X0119831Y0150820D01*
X0119831Y0171167D01*
X0358831Y0024667D02*
X0359331Y0024167D01*
X0357831Y0022667D01*
D32*
X0337331Y0022667D01*
D33*
X0186581Y0065417D03*
X0186581Y0122417D03*
X0187581Y0179417D03*
D34*
X0186331Y0168167D03*
X0185331Y0111167D03*
X0185331Y0054167D03*
D35*
X0119831Y0171167D03*
M02*
