G75*
%MOIN*%
%OFA0B0*%
%FSLAX25Y25*%
%IPPOS*%
%LPD*%
%AMOC8*
5,1,8,0,0,1.08239X$1,22.5*
%
%ADD10C,0.00500*%
%ADD11C,0.00000*%
%ADD12C,0.00800*%
%ADD13C,0.00600*%
%ADD14C,0.00200*%
%ADD15C,0.00300*%
%ADD16C,0.00100*%
%ADD17R,0.00600X0.00100*%
%ADD18R,0.00400X0.00100*%
%ADD19R,0.00500X0.00100*%
%ADD20R,0.00200X0.00100*%
%ADD21R,0.02200X0.00100*%
%ADD22R,0.02100X0.00100*%
%ADD23R,0.00300X0.00100*%
%ADD24R,0.00100X0.00100*%
%ADD25R,0.02400X0.00100*%
%ADD26R,0.02800X0.00100*%
%ADD27R,0.03200X0.00100*%
%ADD28R,0.03500X0.00100*%
%ADD29R,0.03700X0.00100*%
%ADD30R,0.04000X0.00100*%
%ADD31R,0.03800X0.00100*%
%ADD32R,0.03600X0.00100*%
%ADD33R,0.00700X0.00100*%
%ADD34R,0.00800X0.00100*%
%ADD35R,0.03400X0.00100*%
%ADD36R,0.00900X0.00100*%
%ADD37R,0.01000X0.00100*%
%ADD38R,0.01100X0.00100*%
%ADD39R,0.03000X0.00100*%
%ADD40R,0.02600X0.00100*%
%ADD41R,0.01300X0.00100*%
%ADD42R,0.01400X0.00100*%
%ADD43R,0.01600X0.00100*%
%ADD44R,0.01800X0.00100*%
%ADD45R,0.02000X0.00100*%
%ADD46R,0.02300X0.00100*%
%ADD47R,0.01200X0.00100*%
%ADD48R,0.02900X0.00100*%
%ADD49R,0.03100X0.00100*%
%ADD50R,0.03300X0.00100*%
%ADD51R,0.01700X0.00100*%
%ADD52R,0.01900X0.00100*%
%ADD53R,0.04200X0.00100*%
%ADD54R,0.04300X0.00100*%
%ADD55R,0.04500X0.00100*%
%ADD56R,0.04600X0.00100*%
%ADD57R,0.04800X0.00100*%
%ADD58R,0.02500X0.00100*%
%ADD59R,0.04900X0.00100*%
%ADD60R,0.02700X0.00100*%
%ADD61R,0.05000X0.00100*%
%ADD62R,0.05200X0.00100*%
%ADD63R,0.05600X0.00100*%
%ADD64R,0.05500X0.00100*%
%ADD65R,0.05700X0.00100*%
%ADD66R,0.05800X0.00100*%
%ADD67R,0.03900X0.00100*%
%ADD68R,0.05900X0.00100*%
%ADD69R,0.04100X0.00100*%
%ADD70R,0.25300X0.00100*%
%ADD71R,0.06000X0.00100*%
%ADD72R,0.25200X0.00100*%
%ADD73R,0.04400X0.00100*%
%ADD74R,0.25100X0.00100*%
%ADD75R,0.25000X0.00100*%
%ADD76R,0.04700X0.00100*%
%ADD77R,0.24900X0.00100*%
%ADD78R,0.05100X0.00100*%
%ADD79R,0.05400X0.00100*%
%ADD80R,0.05300X0.00100*%
%ADD81R,0.29600X0.00100*%
%ADD82R,0.29000X0.00100*%
%ADD83R,0.28800X0.00100*%
%ADD84R,0.01500X0.00100*%
%ADD85R,0.28600X0.00100*%
%ADD86R,0.28500X0.00100*%
%ADD87R,0.28400X0.00100*%
%ADD88R,0.28300X0.00100*%
%ADD89R,0.06100X0.00100*%
%ADD90R,0.06300X0.00100*%
%ADD91R,0.06400X0.00100*%
%ADD92R,0.06600X0.00100*%
%ADD93R,0.06800X0.00100*%
%ADD94R,0.07000X0.00100*%
%ADD95R,0.07200X0.00100*%
%ADD96R,0.07300X0.00100*%
%ADD97R,0.07400X0.00100*%
%ADD98R,0.24800X0.00100*%
%ADD99R,0.07600X0.00100*%
%ADD100R,0.07800X0.00100*%
%ADD101R,0.07900X0.00100*%
%ADD102R,0.08100X0.00100*%
%ADD103R,0.08200X0.00100*%
%ADD104R,0.08300X0.00100*%
%ADD105R,0.08500X0.00100*%
%ADD106R,0.08700X0.00100*%
%ADD107R,0.08800X0.00100*%
%ADD108R,0.09000X0.00100*%
%ADD109R,0.09100X0.00100*%
%ADD110R,0.09200X0.00100*%
%ADD111R,0.09400X0.00100*%
%ADD112R,0.09600X0.00100*%
%ADD113R,0.09800X0.00100*%
%ADD114R,0.09900X0.00100*%
%ADD115R,0.10100X0.00100*%
%ADD116R,0.10300X0.00100*%
%ADD117R,0.10400X0.00100*%
%ADD118R,0.10500X0.00100*%
%ADD119R,0.10700X0.00100*%
%ADD120R,0.11000X0.00100*%
%ADD121R,0.11100X0.00100*%
%ADD122R,0.11300X0.00100*%
%ADD123R,0.11400X0.00100*%
%ADD124R,0.11700X0.00100*%
%ADD125R,0.11900X0.00100*%
%ADD126R,0.12200X0.00100*%
%ADD127R,0.12600X0.00100*%
%ADD128R,0.12700X0.00100*%
%ADD129R,0.12900X0.00100*%
%ADD130R,0.13000X0.00100*%
%ADD131R,0.13200X0.00100*%
%ADD132R,0.13300X0.00100*%
%ADD133R,0.13500X0.00100*%
%ADD134R,0.13700X0.00100*%
%ADD135R,0.13900X0.00100*%
%ADD136R,0.14100X0.00100*%
%ADD137R,0.14200X0.00100*%
%ADD138R,0.14300X0.00100*%
%ADD139R,0.06200X0.00100*%
%ADD140R,0.12400X0.00100*%
%ADD141R,0.08400X0.00100*%
%ADD142R,0.08000X0.00100*%
%ADD143R,0.07700X0.00100*%
%ADD144R,0.07500X0.00100*%
%ADD145R,0.07100X0.00100*%
%ADD146R,0.06500X0.00100*%
%ADD147R,0.26700X0.00100*%
%ADD148R,0.26800X0.00100*%
%ADD149R,0.26900X0.00100*%
%ADD150R,0.15100X0.00100*%
%ADD151R,0.14600X0.00100*%
%ADD152R,0.14700X0.00100*%
%ADD153R,0.14900X0.00100*%
%ADD154R,0.14800X0.00100*%
D10*
X0026831Y0007667D02*
X0026831Y0092667D01*
X0106831Y0092667D01*
X0106831Y0161667D01*
X0048831Y0161667D01*
X0048831Y0226167D01*
X0378831Y0226167D01*
X0378831Y0007667D01*
X0026831Y0007667D01*
D11*
X0078081Y0022667D02*
X0078083Y0022825D01*
X0078089Y0022982D01*
X0078099Y0023140D01*
X0078113Y0023297D01*
X0078131Y0023453D01*
X0078152Y0023610D01*
X0078178Y0023765D01*
X0078208Y0023920D01*
X0078241Y0024074D01*
X0078279Y0024227D01*
X0078320Y0024380D01*
X0078365Y0024531D01*
X0078414Y0024681D01*
X0078467Y0024829D01*
X0078523Y0024977D01*
X0078584Y0025122D01*
X0078647Y0025267D01*
X0078715Y0025409D01*
X0078786Y0025550D01*
X0078860Y0025689D01*
X0078938Y0025826D01*
X0079020Y0025961D01*
X0079104Y0026094D01*
X0079193Y0026225D01*
X0079284Y0026353D01*
X0079379Y0026480D01*
X0079476Y0026603D01*
X0079577Y0026725D01*
X0079681Y0026843D01*
X0079788Y0026959D01*
X0079898Y0027072D01*
X0080010Y0027183D01*
X0080126Y0027290D01*
X0080244Y0027395D01*
X0080364Y0027497D01*
X0080487Y0027595D01*
X0080613Y0027691D01*
X0080741Y0027783D01*
X0080871Y0027872D01*
X0081003Y0027958D01*
X0081138Y0028040D01*
X0081275Y0028119D01*
X0081413Y0028194D01*
X0081553Y0028266D01*
X0081696Y0028334D01*
X0081839Y0028399D01*
X0081985Y0028460D01*
X0082132Y0028517D01*
X0082280Y0028571D01*
X0082430Y0028621D01*
X0082580Y0028667D01*
X0082732Y0028709D01*
X0082885Y0028748D01*
X0083039Y0028782D01*
X0083194Y0028813D01*
X0083349Y0028839D01*
X0083505Y0028862D01*
X0083662Y0028881D01*
X0083819Y0028896D01*
X0083976Y0028907D01*
X0084134Y0028914D01*
X0084292Y0028917D01*
X0084449Y0028916D01*
X0084607Y0028911D01*
X0084764Y0028902D01*
X0084922Y0028889D01*
X0085078Y0028872D01*
X0085235Y0028851D01*
X0085390Y0028827D01*
X0085545Y0028798D01*
X0085700Y0028765D01*
X0085853Y0028729D01*
X0086006Y0028688D01*
X0086157Y0028644D01*
X0086307Y0028596D01*
X0086456Y0028545D01*
X0086604Y0028489D01*
X0086750Y0028430D01*
X0086895Y0028367D01*
X0087038Y0028300D01*
X0087179Y0028230D01*
X0087318Y0028157D01*
X0087456Y0028080D01*
X0087592Y0027999D01*
X0087725Y0027915D01*
X0087856Y0027828D01*
X0087985Y0027737D01*
X0088112Y0027643D01*
X0088237Y0027546D01*
X0088358Y0027446D01*
X0088478Y0027343D01*
X0088594Y0027237D01*
X0088708Y0027128D01*
X0088820Y0027016D01*
X0088928Y0026902D01*
X0089033Y0026784D01*
X0089136Y0026664D01*
X0089235Y0026542D01*
X0089331Y0026417D01*
X0089424Y0026289D01*
X0089514Y0026160D01*
X0089600Y0026028D01*
X0089684Y0025894D01*
X0089763Y0025758D01*
X0089840Y0025620D01*
X0089912Y0025480D01*
X0089981Y0025338D01*
X0090047Y0025195D01*
X0090109Y0025050D01*
X0090167Y0024903D01*
X0090222Y0024755D01*
X0090273Y0024606D01*
X0090320Y0024455D01*
X0090363Y0024304D01*
X0090402Y0024151D01*
X0090438Y0023997D01*
X0090469Y0023843D01*
X0090497Y0023688D01*
X0090521Y0023532D01*
X0090541Y0023375D01*
X0090557Y0023218D01*
X0090569Y0023061D01*
X0090577Y0022904D01*
X0090581Y0022746D01*
X0090581Y0022588D01*
X0090577Y0022430D01*
X0090569Y0022273D01*
X0090557Y0022116D01*
X0090541Y0021959D01*
X0090521Y0021802D01*
X0090497Y0021646D01*
X0090469Y0021491D01*
X0090438Y0021337D01*
X0090402Y0021183D01*
X0090363Y0021030D01*
X0090320Y0020879D01*
X0090273Y0020728D01*
X0090222Y0020579D01*
X0090167Y0020431D01*
X0090109Y0020284D01*
X0090047Y0020139D01*
X0089981Y0019996D01*
X0089912Y0019854D01*
X0089840Y0019714D01*
X0089763Y0019576D01*
X0089684Y0019440D01*
X0089600Y0019306D01*
X0089514Y0019174D01*
X0089424Y0019045D01*
X0089331Y0018917D01*
X0089235Y0018792D01*
X0089136Y0018670D01*
X0089033Y0018550D01*
X0088928Y0018432D01*
X0088820Y0018318D01*
X0088708Y0018206D01*
X0088594Y0018097D01*
X0088478Y0017991D01*
X0088358Y0017888D01*
X0088237Y0017788D01*
X0088112Y0017691D01*
X0087985Y0017597D01*
X0087856Y0017506D01*
X0087725Y0017419D01*
X0087592Y0017335D01*
X0087456Y0017254D01*
X0087318Y0017177D01*
X0087179Y0017104D01*
X0087038Y0017034D01*
X0086895Y0016967D01*
X0086750Y0016904D01*
X0086604Y0016845D01*
X0086456Y0016789D01*
X0086307Y0016738D01*
X0086157Y0016690D01*
X0086006Y0016646D01*
X0085853Y0016605D01*
X0085700Y0016569D01*
X0085545Y0016536D01*
X0085390Y0016507D01*
X0085235Y0016483D01*
X0085078Y0016462D01*
X0084922Y0016445D01*
X0084764Y0016432D01*
X0084607Y0016423D01*
X0084449Y0016418D01*
X0084292Y0016417D01*
X0084134Y0016420D01*
X0083976Y0016427D01*
X0083819Y0016438D01*
X0083662Y0016453D01*
X0083505Y0016472D01*
X0083349Y0016495D01*
X0083194Y0016521D01*
X0083039Y0016552D01*
X0082885Y0016586D01*
X0082732Y0016625D01*
X0082580Y0016667D01*
X0082430Y0016713D01*
X0082280Y0016763D01*
X0082132Y0016817D01*
X0081985Y0016874D01*
X0081839Y0016935D01*
X0081696Y0017000D01*
X0081553Y0017068D01*
X0081413Y0017140D01*
X0081275Y0017215D01*
X0081138Y0017294D01*
X0081003Y0017376D01*
X0080871Y0017462D01*
X0080741Y0017551D01*
X0080613Y0017643D01*
X0080487Y0017739D01*
X0080364Y0017837D01*
X0080244Y0017939D01*
X0080126Y0018044D01*
X0080010Y0018151D01*
X0079898Y0018262D01*
X0079788Y0018375D01*
X0079681Y0018491D01*
X0079577Y0018609D01*
X0079476Y0018731D01*
X0079379Y0018854D01*
X0079284Y0018981D01*
X0079193Y0019109D01*
X0079104Y0019240D01*
X0079020Y0019373D01*
X0078938Y0019508D01*
X0078860Y0019645D01*
X0078786Y0019784D01*
X0078715Y0019925D01*
X0078647Y0020067D01*
X0078584Y0020212D01*
X0078523Y0020357D01*
X0078467Y0020505D01*
X0078414Y0020653D01*
X0078365Y0020803D01*
X0078320Y0020954D01*
X0078279Y0021107D01*
X0078241Y0021260D01*
X0078208Y0021414D01*
X0078178Y0021569D01*
X0078152Y0021724D01*
X0078131Y0021881D01*
X0078113Y0022037D01*
X0078099Y0022194D01*
X0078089Y0022352D01*
X0078083Y0022509D01*
X0078081Y0022667D01*
X0032996Y0044450D02*
X0032998Y0044608D01*
X0033004Y0044766D01*
X0033014Y0044924D01*
X0033028Y0045082D01*
X0033046Y0045239D01*
X0033067Y0045396D01*
X0033093Y0045552D01*
X0033123Y0045708D01*
X0033156Y0045863D01*
X0033194Y0046016D01*
X0033235Y0046169D01*
X0033280Y0046321D01*
X0033329Y0046472D01*
X0033382Y0046621D01*
X0033438Y0046769D01*
X0033498Y0046915D01*
X0033562Y0047060D01*
X0033630Y0047203D01*
X0033701Y0047345D01*
X0033775Y0047485D01*
X0033853Y0047622D01*
X0033935Y0047758D01*
X0034019Y0047892D01*
X0034108Y0048023D01*
X0034199Y0048152D01*
X0034294Y0048279D01*
X0034391Y0048404D01*
X0034492Y0048526D01*
X0034596Y0048645D01*
X0034703Y0048762D01*
X0034813Y0048876D01*
X0034926Y0048987D01*
X0035041Y0049096D01*
X0035159Y0049201D01*
X0035280Y0049303D01*
X0035403Y0049403D01*
X0035529Y0049499D01*
X0035657Y0049592D01*
X0035787Y0049682D01*
X0035920Y0049768D01*
X0036055Y0049852D01*
X0036191Y0049931D01*
X0036330Y0050008D01*
X0036471Y0050080D01*
X0036613Y0050150D01*
X0036757Y0050215D01*
X0036903Y0050277D01*
X0037050Y0050335D01*
X0037199Y0050390D01*
X0037349Y0050441D01*
X0037500Y0050488D01*
X0037652Y0050531D01*
X0037805Y0050570D01*
X0037960Y0050606D01*
X0038115Y0050637D01*
X0038271Y0050665D01*
X0038427Y0050689D01*
X0038584Y0050709D01*
X0038742Y0050725D01*
X0038899Y0050737D01*
X0039058Y0050745D01*
X0039216Y0050749D01*
X0039374Y0050749D01*
X0039532Y0050745D01*
X0039691Y0050737D01*
X0039848Y0050725D01*
X0040006Y0050709D01*
X0040163Y0050689D01*
X0040319Y0050665D01*
X0040475Y0050637D01*
X0040630Y0050606D01*
X0040785Y0050570D01*
X0040938Y0050531D01*
X0041090Y0050488D01*
X0041241Y0050441D01*
X0041391Y0050390D01*
X0041540Y0050335D01*
X0041687Y0050277D01*
X0041833Y0050215D01*
X0041977Y0050150D01*
X0042119Y0050080D01*
X0042260Y0050008D01*
X0042399Y0049931D01*
X0042535Y0049852D01*
X0042670Y0049768D01*
X0042803Y0049682D01*
X0042933Y0049592D01*
X0043061Y0049499D01*
X0043187Y0049403D01*
X0043310Y0049303D01*
X0043431Y0049201D01*
X0043549Y0049096D01*
X0043664Y0048987D01*
X0043777Y0048876D01*
X0043887Y0048762D01*
X0043994Y0048645D01*
X0044098Y0048526D01*
X0044199Y0048404D01*
X0044296Y0048279D01*
X0044391Y0048152D01*
X0044482Y0048023D01*
X0044571Y0047892D01*
X0044655Y0047758D01*
X0044737Y0047622D01*
X0044815Y0047485D01*
X0044889Y0047345D01*
X0044960Y0047203D01*
X0045028Y0047060D01*
X0045092Y0046915D01*
X0045152Y0046769D01*
X0045208Y0046621D01*
X0045261Y0046472D01*
X0045310Y0046321D01*
X0045355Y0046169D01*
X0045396Y0046016D01*
X0045434Y0045863D01*
X0045467Y0045708D01*
X0045497Y0045552D01*
X0045523Y0045396D01*
X0045544Y0045239D01*
X0045562Y0045082D01*
X0045576Y0044924D01*
X0045586Y0044766D01*
X0045592Y0044608D01*
X0045594Y0044450D01*
X0045592Y0044292D01*
X0045586Y0044134D01*
X0045576Y0043976D01*
X0045562Y0043818D01*
X0045544Y0043661D01*
X0045523Y0043504D01*
X0045497Y0043348D01*
X0045467Y0043192D01*
X0045434Y0043037D01*
X0045396Y0042884D01*
X0045355Y0042731D01*
X0045310Y0042579D01*
X0045261Y0042428D01*
X0045208Y0042279D01*
X0045152Y0042131D01*
X0045092Y0041985D01*
X0045028Y0041840D01*
X0044960Y0041697D01*
X0044889Y0041555D01*
X0044815Y0041415D01*
X0044737Y0041278D01*
X0044655Y0041142D01*
X0044571Y0041008D01*
X0044482Y0040877D01*
X0044391Y0040748D01*
X0044296Y0040621D01*
X0044199Y0040496D01*
X0044098Y0040374D01*
X0043994Y0040255D01*
X0043887Y0040138D01*
X0043777Y0040024D01*
X0043664Y0039913D01*
X0043549Y0039804D01*
X0043431Y0039699D01*
X0043310Y0039597D01*
X0043187Y0039497D01*
X0043061Y0039401D01*
X0042933Y0039308D01*
X0042803Y0039218D01*
X0042670Y0039132D01*
X0042535Y0039048D01*
X0042399Y0038969D01*
X0042260Y0038892D01*
X0042119Y0038820D01*
X0041977Y0038750D01*
X0041833Y0038685D01*
X0041687Y0038623D01*
X0041540Y0038565D01*
X0041391Y0038510D01*
X0041241Y0038459D01*
X0041090Y0038412D01*
X0040938Y0038369D01*
X0040785Y0038330D01*
X0040630Y0038294D01*
X0040475Y0038263D01*
X0040319Y0038235D01*
X0040163Y0038211D01*
X0040006Y0038191D01*
X0039848Y0038175D01*
X0039691Y0038163D01*
X0039532Y0038155D01*
X0039374Y0038151D01*
X0039216Y0038151D01*
X0039058Y0038155D01*
X0038899Y0038163D01*
X0038742Y0038175D01*
X0038584Y0038191D01*
X0038427Y0038211D01*
X0038271Y0038235D01*
X0038115Y0038263D01*
X0037960Y0038294D01*
X0037805Y0038330D01*
X0037652Y0038369D01*
X0037500Y0038412D01*
X0037349Y0038459D01*
X0037199Y0038510D01*
X0037050Y0038565D01*
X0036903Y0038623D01*
X0036757Y0038685D01*
X0036613Y0038750D01*
X0036471Y0038820D01*
X0036330Y0038892D01*
X0036191Y0038969D01*
X0036055Y0039048D01*
X0035920Y0039132D01*
X0035787Y0039218D01*
X0035657Y0039308D01*
X0035529Y0039401D01*
X0035403Y0039497D01*
X0035280Y0039597D01*
X0035159Y0039699D01*
X0035041Y0039804D01*
X0034926Y0039913D01*
X0034813Y0040024D01*
X0034703Y0040138D01*
X0034596Y0040255D01*
X0034492Y0040374D01*
X0034391Y0040496D01*
X0034294Y0040621D01*
X0034199Y0040748D01*
X0034108Y0040877D01*
X0034019Y0041008D01*
X0033935Y0041142D01*
X0033853Y0041278D01*
X0033775Y0041415D01*
X0033701Y0041555D01*
X0033630Y0041697D01*
X0033562Y0041840D01*
X0033498Y0041985D01*
X0033438Y0042131D01*
X0033382Y0042279D01*
X0033329Y0042428D01*
X0033280Y0042579D01*
X0033235Y0042731D01*
X0033194Y0042884D01*
X0033156Y0043037D01*
X0033123Y0043192D01*
X0033093Y0043348D01*
X0033067Y0043504D01*
X0033046Y0043661D01*
X0033028Y0043818D01*
X0033014Y0043976D01*
X0033004Y0044134D01*
X0032998Y0044292D01*
X0032996Y0044450D01*
X0032996Y0079883D02*
X0032998Y0080041D01*
X0033004Y0080199D01*
X0033014Y0080357D01*
X0033028Y0080515D01*
X0033046Y0080672D01*
X0033067Y0080829D01*
X0033093Y0080985D01*
X0033123Y0081141D01*
X0033156Y0081296D01*
X0033194Y0081449D01*
X0033235Y0081602D01*
X0033280Y0081754D01*
X0033329Y0081905D01*
X0033382Y0082054D01*
X0033438Y0082202D01*
X0033498Y0082348D01*
X0033562Y0082493D01*
X0033630Y0082636D01*
X0033701Y0082778D01*
X0033775Y0082918D01*
X0033853Y0083055D01*
X0033935Y0083191D01*
X0034019Y0083325D01*
X0034108Y0083456D01*
X0034199Y0083585D01*
X0034294Y0083712D01*
X0034391Y0083837D01*
X0034492Y0083959D01*
X0034596Y0084078D01*
X0034703Y0084195D01*
X0034813Y0084309D01*
X0034926Y0084420D01*
X0035041Y0084529D01*
X0035159Y0084634D01*
X0035280Y0084736D01*
X0035403Y0084836D01*
X0035529Y0084932D01*
X0035657Y0085025D01*
X0035787Y0085115D01*
X0035920Y0085201D01*
X0036055Y0085285D01*
X0036191Y0085364D01*
X0036330Y0085441D01*
X0036471Y0085513D01*
X0036613Y0085583D01*
X0036757Y0085648D01*
X0036903Y0085710D01*
X0037050Y0085768D01*
X0037199Y0085823D01*
X0037349Y0085874D01*
X0037500Y0085921D01*
X0037652Y0085964D01*
X0037805Y0086003D01*
X0037960Y0086039D01*
X0038115Y0086070D01*
X0038271Y0086098D01*
X0038427Y0086122D01*
X0038584Y0086142D01*
X0038742Y0086158D01*
X0038899Y0086170D01*
X0039058Y0086178D01*
X0039216Y0086182D01*
X0039374Y0086182D01*
X0039532Y0086178D01*
X0039691Y0086170D01*
X0039848Y0086158D01*
X0040006Y0086142D01*
X0040163Y0086122D01*
X0040319Y0086098D01*
X0040475Y0086070D01*
X0040630Y0086039D01*
X0040785Y0086003D01*
X0040938Y0085964D01*
X0041090Y0085921D01*
X0041241Y0085874D01*
X0041391Y0085823D01*
X0041540Y0085768D01*
X0041687Y0085710D01*
X0041833Y0085648D01*
X0041977Y0085583D01*
X0042119Y0085513D01*
X0042260Y0085441D01*
X0042399Y0085364D01*
X0042535Y0085285D01*
X0042670Y0085201D01*
X0042803Y0085115D01*
X0042933Y0085025D01*
X0043061Y0084932D01*
X0043187Y0084836D01*
X0043310Y0084736D01*
X0043431Y0084634D01*
X0043549Y0084529D01*
X0043664Y0084420D01*
X0043777Y0084309D01*
X0043887Y0084195D01*
X0043994Y0084078D01*
X0044098Y0083959D01*
X0044199Y0083837D01*
X0044296Y0083712D01*
X0044391Y0083585D01*
X0044482Y0083456D01*
X0044571Y0083325D01*
X0044655Y0083191D01*
X0044737Y0083055D01*
X0044815Y0082918D01*
X0044889Y0082778D01*
X0044960Y0082636D01*
X0045028Y0082493D01*
X0045092Y0082348D01*
X0045152Y0082202D01*
X0045208Y0082054D01*
X0045261Y0081905D01*
X0045310Y0081754D01*
X0045355Y0081602D01*
X0045396Y0081449D01*
X0045434Y0081296D01*
X0045467Y0081141D01*
X0045497Y0080985D01*
X0045523Y0080829D01*
X0045544Y0080672D01*
X0045562Y0080515D01*
X0045576Y0080357D01*
X0045586Y0080199D01*
X0045592Y0080041D01*
X0045594Y0079883D01*
X0045592Y0079725D01*
X0045586Y0079567D01*
X0045576Y0079409D01*
X0045562Y0079251D01*
X0045544Y0079094D01*
X0045523Y0078937D01*
X0045497Y0078781D01*
X0045467Y0078625D01*
X0045434Y0078470D01*
X0045396Y0078317D01*
X0045355Y0078164D01*
X0045310Y0078012D01*
X0045261Y0077861D01*
X0045208Y0077712D01*
X0045152Y0077564D01*
X0045092Y0077418D01*
X0045028Y0077273D01*
X0044960Y0077130D01*
X0044889Y0076988D01*
X0044815Y0076848D01*
X0044737Y0076711D01*
X0044655Y0076575D01*
X0044571Y0076441D01*
X0044482Y0076310D01*
X0044391Y0076181D01*
X0044296Y0076054D01*
X0044199Y0075929D01*
X0044098Y0075807D01*
X0043994Y0075688D01*
X0043887Y0075571D01*
X0043777Y0075457D01*
X0043664Y0075346D01*
X0043549Y0075237D01*
X0043431Y0075132D01*
X0043310Y0075030D01*
X0043187Y0074930D01*
X0043061Y0074834D01*
X0042933Y0074741D01*
X0042803Y0074651D01*
X0042670Y0074565D01*
X0042535Y0074481D01*
X0042399Y0074402D01*
X0042260Y0074325D01*
X0042119Y0074253D01*
X0041977Y0074183D01*
X0041833Y0074118D01*
X0041687Y0074056D01*
X0041540Y0073998D01*
X0041391Y0073943D01*
X0041241Y0073892D01*
X0041090Y0073845D01*
X0040938Y0073802D01*
X0040785Y0073763D01*
X0040630Y0073727D01*
X0040475Y0073696D01*
X0040319Y0073668D01*
X0040163Y0073644D01*
X0040006Y0073624D01*
X0039848Y0073608D01*
X0039691Y0073596D01*
X0039532Y0073588D01*
X0039374Y0073584D01*
X0039216Y0073584D01*
X0039058Y0073588D01*
X0038899Y0073596D01*
X0038742Y0073608D01*
X0038584Y0073624D01*
X0038427Y0073644D01*
X0038271Y0073668D01*
X0038115Y0073696D01*
X0037960Y0073727D01*
X0037805Y0073763D01*
X0037652Y0073802D01*
X0037500Y0073845D01*
X0037349Y0073892D01*
X0037199Y0073943D01*
X0037050Y0073998D01*
X0036903Y0074056D01*
X0036757Y0074118D01*
X0036613Y0074183D01*
X0036471Y0074253D01*
X0036330Y0074325D01*
X0036191Y0074402D01*
X0036055Y0074481D01*
X0035920Y0074565D01*
X0035787Y0074651D01*
X0035657Y0074741D01*
X0035529Y0074834D01*
X0035403Y0074930D01*
X0035280Y0075030D01*
X0035159Y0075132D01*
X0035041Y0075237D01*
X0034926Y0075346D01*
X0034813Y0075457D01*
X0034703Y0075571D01*
X0034596Y0075688D01*
X0034492Y0075807D01*
X0034391Y0075929D01*
X0034294Y0076054D01*
X0034199Y0076181D01*
X0034108Y0076310D01*
X0034019Y0076441D01*
X0033935Y0076575D01*
X0033853Y0076711D01*
X0033775Y0076848D01*
X0033701Y0076988D01*
X0033630Y0077130D01*
X0033562Y0077273D01*
X0033498Y0077418D01*
X0033438Y0077564D01*
X0033382Y0077712D01*
X0033329Y0077861D01*
X0033280Y0078012D01*
X0033235Y0078164D01*
X0033194Y0078317D01*
X0033156Y0078470D01*
X0033123Y0078625D01*
X0033093Y0078781D01*
X0033067Y0078937D01*
X0033046Y0079094D01*
X0033028Y0079251D01*
X0033014Y0079409D01*
X0033004Y0079567D01*
X0032998Y0079725D01*
X0032996Y0079883D01*
X0098331Y0183967D02*
X0098400Y0183969D01*
X0098468Y0183975D01*
X0098536Y0183985D01*
X0098603Y0183998D01*
X0098669Y0184016D01*
X0098734Y0184037D01*
X0098798Y0184062D01*
X0098860Y0184090D01*
X0098921Y0184122D01*
X0098980Y0184157D01*
X0099036Y0184196D01*
X0099091Y0184238D01*
X0099142Y0184283D01*
X0099192Y0184331D01*
X0099238Y0184381D01*
X0099281Y0184434D01*
X0099322Y0184490D01*
X0099359Y0184547D01*
X0099392Y0184607D01*
X0099423Y0184669D01*
X0099449Y0184732D01*
X0099472Y0184796D01*
X0099492Y0184862D01*
X0099507Y0184929D01*
X0099519Y0184996D01*
X0099527Y0185064D01*
X0099531Y0185133D01*
X0099531Y0185201D01*
X0099527Y0185270D01*
X0099519Y0185338D01*
X0099507Y0185405D01*
X0099492Y0185472D01*
X0099472Y0185538D01*
X0099449Y0185602D01*
X0099423Y0185665D01*
X0099392Y0185727D01*
X0099359Y0185787D01*
X0099322Y0185844D01*
X0099281Y0185900D01*
X0099238Y0185953D01*
X0099192Y0186003D01*
X0099142Y0186051D01*
X0099091Y0186096D01*
X0099036Y0186138D01*
X0098980Y0186177D01*
X0098921Y0186212D01*
X0098860Y0186244D01*
X0098798Y0186272D01*
X0098734Y0186297D01*
X0098669Y0186318D01*
X0098603Y0186336D01*
X0098536Y0186349D01*
X0098468Y0186359D01*
X0098400Y0186365D01*
X0098331Y0186367D01*
X0078081Y0212667D02*
X0078083Y0212825D01*
X0078089Y0212982D01*
X0078099Y0213140D01*
X0078113Y0213297D01*
X0078131Y0213453D01*
X0078152Y0213610D01*
X0078178Y0213765D01*
X0078208Y0213920D01*
X0078241Y0214074D01*
X0078279Y0214227D01*
X0078320Y0214380D01*
X0078365Y0214531D01*
X0078414Y0214681D01*
X0078467Y0214829D01*
X0078523Y0214977D01*
X0078584Y0215122D01*
X0078647Y0215267D01*
X0078715Y0215409D01*
X0078786Y0215550D01*
X0078860Y0215689D01*
X0078938Y0215826D01*
X0079020Y0215961D01*
X0079104Y0216094D01*
X0079193Y0216225D01*
X0079284Y0216353D01*
X0079379Y0216480D01*
X0079476Y0216603D01*
X0079577Y0216725D01*
X0079681Y0216843D01*
X0079788Y0216959D01*
X0079898Y0217072D01*
X0080010Y0217183D01*
X0080126Y0217290D01*
X0080244Y0217395D01*
X0080364Y0217497D01*
X0080487Y0217595D01*
X0080613Y0217691D01*
X0080741Y0217783D01*
X0080871Y0217872D01*
X0081003Y0217958D01*
X0081138Y0218040D01*
X0081275Y0218119D01*
X0081413Y0218194D01*
X0081553Y0218266D01*
X0081696Y0218334D01*
X0081839Y0218399D01*
X0081985Y0218460D01*
X0082132Y0218517D01*
X0082280Y0218571D01*
X0082430Y0218621D01*
X0082580Y0218667D01*
X0082732Y0218709D01*
X0082885Y0218748D01*
X0083039Y0218782D01*
X0083194Y0218813D01*
X0083349Y0218839D01*
X0083505Y0218862D01*
X0083662Y0218881D01*
X0083819Y0218896D01*
X0083976Y0218907D01*
X0084134Y0218914D01*
X0084292Y0218917D01*
X0084449Y0218916D01*
X0084607Y0218911D01*
X0084764Y0218902D01*
X0084922Y0218889D01*
X0085078Y0218872D01*
X0085235Y0218851D01*
X0085390Y0218827D01*
X0085545Y0218798D01*
X0085700Y0218765D01*
X0085853Y0218729D01*
X0086006Y0218688D01*
X0086157Y0218644D01*
X0086307Y0218596D01*
X0086456Y0218545D01*
X0086604Y0218489D01*
X0086750Y0218430D01*
X0086895Y0218367D01*
X0087038Y0218300D01*
X0087179Y0218230D01*
X0087318Y0218157D01*
X0087456Y0218080D01*
X0087592Y0217999D01*
X0087725Y0217915D01*
X0087856Y0217828D01*
X0087985Y0217737D01*
X0088112Y0217643D01*
X0088237Y0217546D01*
X0088358Y0217446D01*
X0088478Y0217343D01*
X0088594Y0217237D01*
X0088708Y0217128D01*
X0088820Y0217016D01*
X0088928Y0216902D01*
X0089033Y0216784D01*
X0089136Y0216664D01*
X0089235Y0216542D01*
X0089331Y0216417D01*
X0089424Y0216289D01*
X0089514Y0216160D01*
X0089600Y0216028D01*
X0089684Y0215894D01*
X0089763Y0215758D01*
X0089840Y0215620D01*
X0089912Y0215480D01*
X0089981Y0215338D01*
X0090047Y0215195D01*
X0090109Y0215050D01*
X0090167Y0214903D01*
X0090222Y0214755D01*
X0090273Y0214606D01*
X0090320Y0214455D01*
X0090363Y0214304D01*
X0090402Y0214151D01*
X0090438Y0213997D01*
X0090469Y0213843D01*
X0090497Y0213688D01*
X0090521Y0213532D01*
X0090541Y0213375D01*
X0090557Y0213218D01*
X0090569Y0213061D01*
X0090577Y0212904D01*
X0090581Y0212746D01*
X0090581Y0212588D01*
X0090577Y0212430D01*
X0090569Y0212273D01*
X0090557Y0212116D01*
X0090541Y0211959D01*
X0090521Y0211802D01*
X0090497Y0211646D01*
X0090469Y0211491D01*
X0090438Y0211337D01*
X0090402Y0211183D01*
X0090363Y0211030D01*
X0090320Y0210879D01*
X0090273Y0210728D01*
X0090222Y0210579D01*
X0090167Y0210431D01*
X0090109Y0210284D01*
X0090047Y0210139D01*
X0089981Y0209996D01*
X0089912Y0209854D01*
X0089840Y0209714D01*
X0089763Y0209576D01*
X0089684Y0209440D01*
X0089600Y0209306D01*
X0089514Y0209174D01*
X0089424Y0209045D01*
X0089331Y0208917D01*
X0089235Y0208792D01*
X0089136Y0208670D01*
X0089033Y0208550D01*
X0088928Y0208432D01*
X0088820Y0208318D01*
X0088708Y0208206D01*
X0088594Y0208097D01*
X0088478Y0207991D01*
X0088358Y0207888D01*
X0088237Y0207788D01*
X0088112Y0207691D01*
X0087985Y0207597D01*
X0087856Y0207506D01*
X0087725Y0207419D01*
X0087592Y0207335D01*
X0087456Y0207254D01*
X0087318Y0207177D01*
X0087179Y0207104D01*
X0087038Y0207034D01*
X0086895Y0206967D01*
X0086750Y0206904D01*
X0086604Y0206845D01*
X0086456Y0206789D01*
X0086307Y0206738D01*
X0086157Y0206690D01*
X0086006Y0206646D01*
X0085853Y0206605D01*
X0085700Y0206569D01*
X0085545Y0206536D01*
X0085390Y0206507D01*
X0085235Y0206483D01*
X0085078Y0206462D01*
X0084922Y0206445D01*
X0084764Y0206432D01*
X0084607Y0206423D01*
X0084449Y0206418D01*
X0084292Y0206417D01*
X0084134Y0206420D01*
X0083976Y0206427D01*
X0083819Y0206438D01*
X0083662Y0206453D01*
X0083505Y0206472D01*
X0083349Y0206495D01*
X0083194Y0206521D01*
X0083039Y0206552D01*
X0082885Y0206586D01*
X0082732Y0206625D01*
X0082580Y0206667D01*
X0082430Y0206713D01*
X0082280Y0206763D01*
X0082132Y0206817D01*
X0081985Y0206874D01*
X0081839Y0206935D01*
X0081696Y0207000D01*
X0081553Y0207068D01*
X0081413Y0207140D01*
X0081275Y0207215D01*
X0081138Y0207294D01*
X0081003Y0207376D01*
X0080871Y0207462D01*
X0080741Y0207551D01*
X0080613Y0207643D01*
X0080487Y0207739D01*
X0080364Y0207837D01*
X0080244Y0207939D01*
X0080126Y0208044D01*
X0080010Y0208151D01*
X0079898Y0208262D01*
X0079788Y0208375D01*
X0079681Y0208491D01*
X0079577Y0208609D01*
X0079476Y0208731D01*
X0079379Y0208854D01*
X0079284Y0208981D01*
X0079193Y0209109D01*
X0079104Y0209240D01*
X0079020Y0209373D01*
X0078938Y0209508D01*
X0078860Y0209645D01*
X0078786Y0209784D01*
X0078715Y0209925D01*
X0078647Y0210067D01*
X0078584Y0210212D01*
X0078523Y0210357D01*
X0078467Y0210505D01*
X0078414Y0210653D01*
X0078365Y0210803D01*
X0078320Y0210954D01*
X0078279Y0211107D01*
X0078241Y0211260D01*
X0078208Y0211414D01*
X0078178Y0211569D01*
X0078152Y0211724D01*
X0078131Y0211881D01*
X0078113Y0212037D01*
X0078099Y0212194D01*
X0078089Y0212352D01*
X0078083Y0212509D01*
X0078081Y0212667D01*
X0338081Y0200167D02*
X0338083Y0200325D01*
X0338089Y0200482D01*
X0338099Y0200640D01*
X0338113Y0200797D01*
X0338131Y0200953D01*
X0338152Y0201110D01*
X0338178Y0201265D01*
X0338208Y0201420D01*
X0338241Y0201574D01*
X0338279Y0201727D01*
X0338320Y0201880D01*
X0338365Y0202031D01*
X0338414Y0202181D01*
X0338467Y0202329D01*
X0338523Y0202477D01*
X0338584Y0202622D01*
X0338647Y0202767D01*
X0338715Y0202909D01*
X0338786Y0203050D01*
X0338860Y0203189D01*
X0338938Y0203326D01*
X0339020Y0203461D01*
X0339104Y0203594D01*
X0339193Y0203725D01*
X0339284Y0203853D01*
X0339379Y0203980D01*
X0339476Y0204103D01*
X0339577Y0204225D01*
X0339681Y0204343D01*
X0339788Y0204459D01*
X0339898Y0204572D01*
X0340010Y0204683D01*
X0340126Y0204790D01*
X0340244Y0204895D01*
X0340364Y0204997D01*
X0340487Y0205095D01*
X0340613Y0205191D01*
X0340741Y0205283D01*
X0340871Y0205372D01*
X0341003Y0205458D01*
X0341138Y0205540D01*
X0341275Y0205619D01*
X0341413Y0205694D01*
X0341553Y0205766D01*
X0341696Y0205834D01*
X0341839Y0205899D01*
X0341985Y0205960D01*
X0342132Y0206017D01*
X0342280Y0206071D01*
X0342430Y0206121D01*
X0342580Y0206167D01*
X0342732Y0206209D01*
X0342885Y0206248D01*
X0343039Y0206282D01*
X0343194Y0206313D01*
X0343349Y0206339D01*
X0343505Y0206362D01*
X0343662Y0206381D01*
X0343819Y0206396D01*
X0343976Y0206407D01*
X0344134Y0206414D01*
X0344292Y0206417D01*
X0344449Y0206416D01*
X0344607Y0206411D01*
X0344764Y0206402D01*
X0344922Y0206389D01*
X0345078Y0206372D01*
X0345235Y0206351D01*
X0345390Y0206327D01*
X0345545Y0206298D01*
X0345700Y0206265D01*
X0345853Y0206229D01*
X0346006Y0206188D01*
X0346157Y0206144D01*
X0346307Y0206096D01*
X0346456Y0206045D01*
X0346604Y0205989D01*
X0346750Y0205930D01*
X0346895Y0205867D01*
X0347038Y0205800D01*
X0347179Y0205730D01*
X0347318Y0205657D01*
X0347456Y0205580D01*
X0347592Y0205499D01*
X0347725Y0205415D01*
X0347856Y0205328D01*
X0347985Y0205237D01*
X0348112Y0205143D01*
X0348237Y0205046D01*
X0348358Y0204946D01*
X0348478Y0204843D01*
X0348594Y0204737D01*
X0348708Y0204628D01*
X0348820Y0204516D01*
X0348928Y0204402D01*
X0349033Y0204284D01*
X0349136Y0204164D01*
X0349235Y0204042D01*
X0349331Y0203917D01*
X0349424Y0203789D01*
X0349514Y0203660D01*
X0349600Y0203528D01*
X0349684Y0203394D01*
X0349763Y0203258D01*
X0349840Y0203120D01*
X0349912Y0202980D01*
X0349981Y0202838D01*
X0350047Y0202695D01*
X0350109Y0202550D01*
X0350167Y0202403D01*
X0350222Y0202255D01*
X0350273Y0202106D01*
X0350320Y0201955D01*
X0350363Y0201804D01*
X0350402Y0201651D01*
X0350438Y0201497D01*
X0350469Y0201343D01*
X0350497Y0201188D01*
X0350521Y0201032D01*
X0350541Y0200875D01*
X0350557Y0200718D01*
X0350569Y0200561D01*
X0350577Y0200404D01*
X0350581Y0200246D01*
X0350581Y0200088D01*
X0350577Y0199930D01*
X0350569Y0199773D01*
X0350557Y0199616D01*
X0350541Y0199459D01*
X0350521Y0199302D01*
X0350497Y0199146D01*
X0350469Y0198991D01*
X0350438Y0198837D01*
X0350402Y0198683D01*
X0350363Y0198530D01*
X0350320Y0198379D01*
X0350273Y0198228D01*
X0350222Y0198079D01*
X0350167Y0197931D01*
X0350109Y0197784D01*
X0350047Y0197639D01*
X0349981Y0197496D01*
X0349912Y0197354D01*
X0349840Y0197214D01*
X0349763Y0197076D01*
X0349684Y0196940D01*
X0349600Y0196806D01*
X0349514Y0196674D01*
X0349424Y0196545D01*
X0349331Y0196417D01*
X0349235Y0196292D01*
X0349136Y0196170D01*
X0349033Y0196050D01*
X0348928Y0195932D01*
X0348820Y0195818D01*
X0348708Y0195706D01*
X0348594Y0195597D01*
X0348478Y0195491D01*
X0348358Y0195388D01*
X0348237Y0195288D01*
X0348112Y0195191D01*
X0347985Y0195097D01*
X0347856Y0195006D01*
X0347725Y0194919D01*
X0347592Y0194835D01*
X0347456Y0194754D01*
X0347318Y0194677D01*
X0347179Y0194604D01*
X0347038Y0194534D01*
X0346895Y0194467D01*
X0346750Y0194404D01*
X0346604Y0194345D01*
X0346456Y0194289D01*
X0346307Y0194238D01*
X0346157Y0194190D01*
X0346006Y0194146D01*
X0345853Y0194105D01*
X0345700Y0194069D01*
X0345545Y0194036D01*
X0345390Y0194007D01*
X0345235Y0193983D01*
X0345078Y0193962D01*
X0344922Y0193945D01*
X0344764Y0193932D01*
X0344607Y0193923D01*
X0344449Y0193918D01*
X0344292Y0193917D01*
X0344134Y0193920D01*
X0343976Y0193927D01*
X0343819Y0193938D01*
X0343662Y0193953D01*
X0343505Y0193972D01*
X0343349Y0193995D01*
X0343194Y0194021D01*
X0343039Y0194052D01*
X0342885Y0194086D01*
X0342732Y0194125D01*
X0342580Y0194167D01*
X0342430Y0194213D01*
X0342280Y0194263D01*
X0342132Y0194317D01*
X0341985Y0194374D01*
X0341839Y0194435D01*
X0341696Y0194500D01*
X0341553Y0194568D01*
X0341413Y0194640D01*
X0341275Y0194715D01*
X0341138Y0194794D01*
X0341003Y0194876D01*
X0340871Y0194962D01*
X0340741Y0195051D01*
X0340613Y0195143D01*
X0340487Y0195239D01*
X0340364Y0195337D01*
X0340244Y0195439D01*
X0340126Y0195544D01*
X0340010Y0195651D01*
X0339898Y0195762D01*
X0339788Y0195875D01*
X0339681Y0195991D01*
X0339577Y0196109D01*
X0339476Y0196231D01*
X0339379Y0196354D01*
X0339284Y0196481D01*
X0339193Y0196609D01*
X0339104Y0196740D01*
X0339020Y0196873D01*
X0338938Y0197008D01*
X0338860Y0197145D01*
X0338786Y0197284D01*
X0338715Y0197425D01*
X0338647Y0197567D01*
X0338584Y0197712D01*
X0338523Y0197857D01*
X0338467Y0198005D01*
X0338414Y0198153D01*
X0338365Y0198303D01*
X0338320Y0198454D01*
X0338279Y0198607D01*
X0338241Y0198760D01*
X0338208Y0198914D01*
X0338178Y0199069D01*
X0338152Y0199224D01*
X0338131Y0199381D01*
X0338113Y0199537D01*
X0338099Y0199694D01*
X0338089Y0199852D01*
X0338083Y0200009D01*
X0338081Y0200167D01*
X0338081Y0035167D02*
X0338083Y0035325D01*
X0338089Y0035482D01*
X0338099Y0035640D01*
X0338113Y0035797D01*
X0338131Y0035953D01*
X0338152Y0036110D01*
X0338178Y0036265D01*
X0338208Y0036420D01*
X0338241Y0036574D01*
X0338279Y0036727D01*
X0338320Y0036880D01*
X0338365Y0037031D01*
X0338414Y0037181D01*
X0338467Y0037329D01*
X0338523Y0037477D01*
X0338584Y0037622D01*
X0338647Y0037767D01*
X0338715Y0037909D01*
X0338786Y0038050D01*
X0338860Y0038189D01*
X0338938Y0038326D01*
X0339020Y0038461D01*
X0339104Y0038594D01*
X0339193Y0038725D01*
X0339284Y0038853D01*
X0339379Y0038980D01*
X0339476Y0039103D01*
X0339577Y0039225D01*
X0339681Y0039343D01*
X0339788Y0039459D01*
X0339898Y0039572D01*
X0340010Y0039683D01*
X0340126Y0039790D01*
X0340244Y0039895D01*
X0340364Y0039997D01*
X0340487Y0040095D01*
X0340613Y0040191D01*
X0340741Y0040283D01*
X0340871Y0040372D01*
X0341003Y0040458D01*
X0341138Y0040540D01*
X0341275Y0040619D01*
X0341413Y0040694D01*
X0341553Y0040766D01*
X0341696Y0040834D01*
X0341839Y0040899D01*
X0341985Y0040960D01*
X0342132Y0041017D01*
X0342280Y0041071D01*
X0342430Y0041121D01*
X0342580Y0041167D01*
X0342732Y0041209D01*
X0342885Y0041248D01*
X0343039Y0041282D01*
X0343194Y0041313D01*
X0343349Y0041339D01*
X0343505Y0041362D01*
X0343662Y0041381D01*
X0343819Y0041396D01*
X0343976Y0041407D01*
X0344134Y0041414D01*
X0344292Y0041417D01*
X0344449Y0041416D01*
X0344607Y0041411D01*
X0344764Y0041402D01*
X0344922Y0041389D01*
X0345078Y0041372D01*
X0345235Y0041351D01*
X0345390Y0041327D01*
X0345545Y0041298D01*
X0345700Y0041265D01*
X0345853Y0041229D01*
X0346006Y0041188D01*
X0346157Y0041144D01*
X0346307Y0041096D01*
X0346456Y0041045D01*
X0346604Y0040989D01*
X0346750Y0040930D01*
X0346895Y0040867D01*
X0347038Y0040800D01*
X0347179Y0040730D01*
X0347318Y0040657D01*
X0347456Y0040580D01*
X0347592Y0040499D01*
X0347725Y0040415D01*
X0347856Y0040328D01*
X0347985Y0040237D01*
X0348112Y0040143D01*
X0348237Y0040046D01*
X0348358Y0039946D01*
X0348478Y0039843D01*
X0348594Y0039737D01*
X0348708Y0039628D01*
X0348820Y0039516D01*
X0348928Y0039402D01*
X0349033Y0039284D01*
X0349136Y0039164D01*
X0349235Y0039042D01*
X0349331Y0038917D01*
X0349424Y0038789D01*
X0349514Y0038660D01*
X0349600Y0038528D01*
X0349684Y0038394D01*
X0349763Y0038258D01*
X0349840Y0038120D01*
X0349912Y0037980D01*
X0349981Y0037838D01*
X0350047Y0037695D01*
X0350109Y0037550D01*
X0350167Y0037403D01*
X0350222Y0037255D01*
X0350273Y0037106D01*
X0350320Y0036955D01*
X0350363Y0036804D01*
X0350402Y0036651D01*
X0350438Y0036497D01*
X0350469Y0036343D01*
X0350497Y0036188D01*
X0350521Y0036032D01*
X0350541Y0035875D01*
X0350557Y0035718D01*
X0350569Y0035561D01*
X0350577Y0035404D01*
X0350581Y0035246D01*
X0350581Y0035088D01*
X0350577Y0034930D01*
X0350569Y0034773D01*
X0350557Y0034616D01*
X0350541Y0034459D01*
X0350521Y0034302D01*
X0350497Y0034146D01*
X0350469Y0033991D01*
X0350438Y0033837D01*
X0350402Y0033683D01*
X0350363Y0033530D01*
X0350320Y0033379D01*
X0350273Y0033228D01*
X0350222Y0033079D01*
X0350167Y0032931D01*
X0350109Y0032784D01*
X0350047Y0032639D01*
X0349981Y0032496D01*
X0349912Y0032354D01*
X0349840Y0032214D01*
X0349763Y0032076D01*
X0349684Y0031940D01*
X0349600Y0031806D01*
X0349514Y0031674D01*
X0349424Y0031545D01*
X0349331Y0031417D01*
X0349235Y0031292D01*
X0349136Y0031170D01*
X0349033Y0031050D01*
X0348928Y0030932D01*
X0348820Y0030818D01*
X0348708Y0030706D01*
X0348594Y0030597D01*
X0348478Y0030491D01*
X0348358Y0030388D01*
X0348237Y0030288D01*
X0348112Y0030191D01*
X0347985Y0030097D01*
X0347856Y0030006D01*
X0347725Y0029919D01*
X0347592Y0029835D01*
X0347456Y0029754D01*
X0347318Y0029677D01*
X0347179Y0029604D01*
X0347038Y0029534D01*
X0346895Y0029467D01*
X0346750Y0029404D01*
X0346604Y0029345D01*
X0346456Y0029289D01*
X0346307Y0029238D01*
X0346157Y0029190D01*
X0346006Y0029146D01*
X0345853Y0029105D01*
X0345700Y0029069D01*
X0345545Y0029036D01*
X0345390Y0029007D01*
X0345235Y0028983D01*
X0345078Y0028962D01*
X0344922Y0028945D01*
X0344764Y0028932D01*
X0344607Y0028923D01*
X0344449Y0028918D01*
X0344292Y0028917D01*
X0344134Y0028920D01*
X0343976Y0028927D01*
X0343819Y0028938D01*
X0343662Y0028953D01*
X0343505Y0028972D01*
X0343349Y0028995D01*
X0343194Y0029021D01*
X0343039Y0029052D01*
X0342885Y0029086D01*
X0342732Y0029125D01*
X0342580Y0029167D01*
X0342430Y0029213D01*
X0342280Y0029263D01*
X0342132Y0029317D01*
X0341985Y0029374D01*
X0341839Y0029435D01*
X0341696Y0029500D01*
X0341553Y0029568D01*
X0341413Y0029640D01*
X0341275Y0029715D01*
X0341138Y0029794D01*
X0341003Y0029876D01*
X0340871Y0029962D01*
X0340741Y0030051D01*
X0340613Y0030143D01*
X0340487Y0030239D01*
X0340364Y0030337D01*
X0340244Y0030439D01*
X0340126Y0030544D01*
X0340010Y0030651D01*
X0339898Y0030762D01*
X0339788Y0030875D01*
X0339681Y0030991D01*
X0339577Y0031109D01*
X0339476Y0031231D01*
X0339379Y0031354D01*
X0339284Y0031481D01*
X0339193Y0031609D01*
X0339104Y0031740D01*
X0339020Y0031873D01*
X0338938Y0032008D01*
X0338860Y0032145D01*
X0338786Y0032284D01*
X0338715Y0032425D01*
X0338647Y0032567D01*
X0338584Y0032712D01*
X0338523Y0032857D01*
X0338467Y0033005D01*
X0338414Y0033153D01*
X0338365Y0033303D01*
X0338320Y0033454D01*
X0338279Y0033607D01*
X0338241Y0033760D01*
X0338208Y0033914D01*
X0338178Y0034069D01*
X0338152Y0034224D01*
X0338131Y0034381D01*
X0338113Y0034537D01*
X0338099Y0034694D01*
X0338089Y0034852D01*
X0338083Y0035009D01*
X0338081Y0035167D01*
D12*
X0127731Y0111176D02*
X0120324Y0111176D01*
X0120324Y0113645D02*
X0120324Y0108707D01*
X0121559Y0116257D02*
X0120324Y0117492D01*
X0120324Y0119961D01*
X0121559Y0121195D01*
X0122793Y0121195D01*
X0124028Y0119961D01*
X0124028Y0117492D01*
X0125262Y0116257D01*
X0126496Y0116257D01*
X0127731Y0117492D01*
X0127731Y0119961D01*
X0126496Y0121195D01*
X0120324Y0123808D02*
X0127731Y0128745D01*
X0127731Y0131310D02*
X0127731Y0133779D01*
X0127731Y0132545D02*
X0120324Y0132545D01*
X0120324Y0133779D02*
X0120324Y0131310D01*
X0124028Y0136392D02*
X0124028Y0141329D01*
X0125262Y0143942D02*
X0124028Y0145177D01*
X0124028Y0148880D01*
X0126496Y0148880D01*
X0127731Y0147646D01*
X0127731Y0145177D01*
X0126496Y0143942D01*
X0125262Y0143942D01*
X0121559Y0146411D02*
X0124028Y0148880D01*
X0121559Y0146411D02*
X0120324Y0143942D01*
X0120324Y0151493D02*
X0121559Y0151493D01*
X0126496Y0156430D01*
X0127731Y0156430D01*
X0126496Y0159043D02*
X0125262Y0159043D01*
X0124028Y0160278D01*
X0124028Y0163981D01*
X0126496Y0163981D01*
X0127731Y0162746D01*
X0127731Y0160278D01*
X0126496Y0159043D01*
X0121559Y0161512D02*
X0124028Y0163981D01*
X0121559Y0161512D02*
X0120324Y0159043D01*
X0120324Y0156430D02*
X0120324Y0151493D01*
X0120324Y0166594D02*
X0120324Y0171531D01*
X0127731Y0171531D01*
X0126496Y0174144D02*
X0125262Y0174144D01*
X0124028Y0175379D01*
X0124028Y0179082D01*
X0126496Y0179082D01*
X0127731Y0177847D01*
X0127731Y0175379D01*
X0126496Y0174144D01*
X0124028Y0171531D02*
X0124028Y0169062D01*
X0120324Y0174144D02*
X0121559Y0176613D01*
X0124028Y0179082D01*
X0127731Y0181695D02*
X0127731Y0186632D01*
X0127731Y0184163D02*
X0120324Y0184163D01*
X0122793Y0186632D01*
X0121559Y0189245D02*
X0120324Y0190479D01*
X0120324Y0192948D01*
X0121559Y0194183D01*
X0126496Y0194183D01*
X0127731Y0192948D01*
X0127731Y0190479D01*
X0126496Y0189245D01*
X0127731Y0196747D02*
X0127731Y0199216D01*
X0127731Y0197982D02*
X0120324Y0197982D01*
X0120324Y0199216D02*
X0120324Y0196747D01*
X0121559Y0201829D02*
X0124028Y0201829D01*
X0125262Y0203063D01*
X0125262Y0206767D01*
X0127731Y0206767D02*
X0120324Y0206767D01*
X0120324Y0203063D01*
X0121559Y0201829D01*
X0101431Y0206766D02*
X0101431Y0209569D01*
X0101431Y0208167D02*
X0097227Y0208167D01*
X0098628Y0209569D01*
X0096431Y0210165D02*
X0096431Y0211566D01*
X0095730Y0212267D01*
X0095030Y0212267D01*
X0094329Y0211566D01*
X0094329Y0210165D01*
X0095030Y0209464D01*
X0095730Y0209464D01*
X0096431Y0210165D01*
X0094329Y0210165D02*
X0093628Y0209464D01*
X0092928Y0209464D01*
X0092227Y0210165D01*
X0092227Y0211566D01*
X0092928Y0212267D01*
X0093628Y0212267D01*
X0094329Y0211566D01*
X0094329Y0214068D02*
X0095030Y0214769D01*
X0095030Y0216871D01*
X0096431Y0216871D02*
X0092227Y0216871D01*
X0092227Y0214769D01*
X0092928Y0214068D01*
X0094329Y0214068D01*
X0094696Y0202767D02*
X0088524Y0202767D01*
X0094696Y0202767D02*
X0095931Y0201532D01*
X0095931Y0199063D01*
X0094696Y0197829D01*
X0088524Y0197829D01*
X0089759Y0195216D02*
X0088524Y0193982D01*
X0088524Y0191513D01*
X0089759Y0190279D01*
X0092228Y0191513D02*
X0092228Y0193982D01*
X0090993Y0195216D01*
X0089759Y0195216D01*
X0087290Y0192747D02*
X0097165Y0192747D01*
X0095931Y0191513D02*
X0094696Y0190279D01*
X0093462Y0190279D01*
X0092228Y0191513D01*
X0095931Y0191513D02*
X0095931Y0193982D01*
X0094696Y0195216D01*
X0094696Y0187666D02*
X0095931Y0186431D01*
X0095931Y0183963D01*
X0094696Y0182728D01*
X0093462Y0182728D01*
X0092228Y0183963D01*
X0092228Y0187666D01*
X0094696Y0187666D01*
X0092228Y0187666D02*
X0089759Y0185197D01*
X0088524Y0182728D01*
X0092227Y0026871D02*
X0092227Y0024769D01*
X0092928Y0024068D01*
X0094329Y0024068D01*
X0095030Y0024769D01*
X0095030Y0026871D01*
X0096431Y0026871D02*
X0092227Y0026871D01*
X0092928Y0022267D02*
X0093628Y0022267D01*
X0094329Y0021566D01*
X0094329Y0019464D01*
X0095730Y0019464D02*
X0092928Y0019464D01*
X0092227Y0020165D01*
X0092227Y0021566D01*
X0092928Y0022267D01*
X0095730Y0022267D02*
X0096431Y0021566D01*
X0096431Y0020165D01*
X0095730Y0019464D01*
D13*
X0098128Y0018074D02*
X0099262Y0019208D01*
X0098128Y0018074D02*
X0101531Y0018074D01*
X0101531Y0019208D02*
X0101531Y0016940D01*
X0101531Y0026940D02*
X0101531Y0029208D01*
X0099262Y0026940D01*
X0098695Y0026940D01*
X0098128Y0027507D01*
X0098128Y0028641D01*
X0098695Y0029208D01*
X0146731Y0053717D02*
X0146731Y0056717D01*
X0146731Y0067117D01*
X0146831Y0067117D01*
X0153931Y0067117D01*
X0153931Y0064117D01*
X0153931Y0056717D01*
X0153931Y0053717D01*
X0146731Y0053717D01*
X0146731Y0056717D02*
X0153931Y0056717D01*
X0153931Y0058017D02*
X0153931Y0062817D01*
X0153931Y0064117D02*
X0146731Y0064117D01*
X0146831Y0067117D01*
X0146731Y0062817D02*
X0146731Y0058017D01*
X0157981Y0058017D02*
X0157981Y0062817D01*
X0157981Y0064117D02*
X0158081Y0067117D01*
X0157981Y0067117D01*
X0157981Y0056717D01*
X0157981Y0053717D01*
X0165181Y0053717D01*
X0165181Y0056717D01*
X0165181Y0064117D01*
X0165181Y0067117D01*
X0158081Y0067117D01*
X0157981Y0064117D02*
X0165181Y0064117D01*
X0165181Y0062817D02*
X0165181Y0058017D01*
X0165181Y0056717D02*
X0157981Y0056717D01*
X0169231Y0056717D02*
X0169231Y0053717D01*
X0176431Y0053717D01*
X0176431Y0056717D01*
X0176431Y0064117D01*
X0176431Y0067117D01*
X0169331Y0067117D01*
X0169231Y0067117D01*
X0169231Y0056717D01*
X0176431Y0056717D01*
X0176431Y0058017D02*
X0176431Y0062817D01*
X0176431Y0064117D02*
X0169231Y0064117D01*
X0169331Y0067117D01*
X0169231Y0062817D02*
X0169231Y0058017D01*
X0169231Y0110717D02*
X0176431Y0110717D01*
X0176431Y0113717D01*
X0176431Y0121117D01*
X0176431Y0124117D01*
X0169331Y0124117D01*
X0169231Y0124117D01*
X0169231Y0113717D01*
X0169231Y0110717D01*
X0169231Y0113717D02*
X0176431Y0113717D01*
X0176431Y0115017D02*
X0176431Y0119817D01*
X0176431Y0121117D02*
X0169231Y0121117D01*
X0169331Y0124117D01*
X0165181Y0124117D02*
X0165181Y0121117D01*
X0165181Y0113717D01*
X0165181Y0110717D01*
X0157981Y0110717D01*
X0157981Y0113717D01*
X0157981Y0124117D01*
X0158081Y0124117D01*
X0165181Y0124117D01*
X0165181Y0121117D02*
X0157981Y0121117D01*
X0158081Y0124117D01*
X0153931Y0124117D02*
X0153931Y0121117D01*
X0153931Y0113717D01*
X0153931Y0110717D01*
X0146731Y0110717D01*
X0146731Y0113717D01*
X0146731Y0124117D01*
X0146831Y0124117D01*
X0153931Y0124117D01*
X0153931Y0121117D02*
X0146731Y0121117D01*
X0146831Y0124117D01*
X0146731Y0119817D02*
X0146731Y0115017D01*
X0146731Y0113717D02*
X0153931Y0113717D01*
X0153931Y0115017D02*
X0153931Y0119817D01*
X0157981Y0119817D02*
X0157981Y0115017D01*
X0157981Y0113717D02*
X0165181Y0113717D01*
X0165181Y0115017D02*
X0165181Y0119817D01*
X0169231Y0119817D02*
X0169231Y0115017D01*
X0119929Y0119576D02*
X0119559Y0119576D01*
X0119929Y0119576D02*
X0119929Y0125757D01*
X0119559Y0125757D01*
X0116386Y0125757D02*
X0112276Y0125757D01*
X0109102Y0125757D02*
X0108732Y0125757D01*
X0108732Y0119576D01*
X0109102Y0119576D01*
X0112276Y0119576D02*
X0112646Y0119576D01*
X0116016Y0119576D02*
X0116386Y0119576D01*
X0111631Y0169167D02*
X0111631Y0170167D01*
X0110131Y0170167D01*
X0110131Y0169167D02*
X0111631Y0169167D01*
X0118331Y0176267D02*
X0118331Y0194067D01*
X0127931Y0197267D02*
X0127931Y0201067D01*
X0129931Y0201067D01*
X0132731Y0201067D01*
X0135343Y0201067D01*
X0137731Y0201067D01*
X0139731Y0201067D01*
X0139731Y0197267D01*
X0137731Y0197267D01*
X0135343Y0197267D01*
X0135343Y0201067D01*
X0137731Y0201067D02*
X0137731Y0197267D01*
X0135343Y0197267D02*
X0132731Y0197267D01*
X0129931Y0197267D01*
X0127931Y0197267D01*
X0129931Y0197267D02*
X0129931Y0201067D01*
X0132731Y0201067D02*
X0132731Y0197267D01*
X0147731Y0181117D02*
X0147831Y0181117D01*
X0154931Y0181117D01*
X0154931Y0178117D01*
X0154931Y0170717D01*
X0154931Y0167717D01*
X0147731Y0167717D01*
X0147731Y0170717D01*
X0147731Y0181117D01*
X0147831Y0181117D02*
X0147731Y0178117D01*
X0154931Y0178117D01*
X0154931Y0176817D02*
X0154931Y0172017D01*
X0154931Y0170717D02*
X0147731Y0170717D01*
X0147731Y0172017D02*
X0147731Y0176817D01*
X0158981Y0176817D02*
X0158981Y0172017D01*
X0158981Y0170717D02*
X0158981Y0181117D01*
X0159081Y0181117D01*
X0166181Y0181117D01*
X0166181Y0178117D01*
X0166181Y0170717D01*
X0166181Y0167717D01*
X0158981Y0167717D01*
X0158981Y0170717D01*
X0166181Y0170717D01*
X0166181Y0172017D02*
X0166181Y0176817D01*
X0166181Y0178117D02*
X0158981Y0178117D01*
X0159081Y0181117D01*
X0170231Y0181117D02*
X0170331Y0181117D01*
X0177431Y0181117D01*
X0177431Y0178117D01*
X0177431Y0170717D01*
X0177431Y0167717D01*
X0170231Y0167717D01*
X0170231Y0170717D01*
X0170231Y0181117D01*
X0170331Y0181117D02*
X0170231Y0178117D01*
X0177431Y0178117D01*
X0177431Y0176817D02*
X0177431Y0172017D01*
X0177431Y0170717D02*
X0170231Y0170717D01*
X0170231Y0172017D02*
X0170231Y0176817D01*
X0101531Y0216940D02*
X0101531Y0219208D01*
X0099262Y0216940D01*
X0098695Y0216940D01*
X0098128Y0217507D01*
X0098128Y0218641D01*
X0098695Y0219208D01*
X0098331Y0194067D02*
X0098331Y0186367D01*
X0098331Y0183967D01*
X0098331Y0176267D01*
X0333128Y0205098D02*
X0333128Y0207367D01*
X0334829Y0207367D01*
X0334262Y0206232D01*
X0334262Y0205665D01*
X0334829Y0205098D01*
X0335964Y0205098D01*
X0336531Y0205665D01*
X0336531Y0206800D01*
X0335964Y0207367D01*
X0334829Y0208781D02*
X0334829Y0211050D01*
X0333128Y0209348D01*
X0336531Y0209348D01*
X0335964Y0215098D02*
X0335396Y0215098D01*
X0334829Y0215665D01*
X0334829Y0217367D01*
X0335964Y0217367D01*
X0336531Y0216800D01*
X0336531Y0215665D01*
X0335964Y0215098D01*
X0333695Y0216232D02*
X0334829Y0217367D01*
X0334829Y0218781D02*
X0334829Y0221050D01*
X0333128Y0219348D01*
X0336531Y0219348D01*
X0333695Y0216232D02*
X0333128Y0215098D01*
X0334829Y0031050D02*
X0334829Y0028781D01*
X0334829Y0027367D02*
X0334829Y0025665D01*
X0335396Y0025098D01*
X0335964Y0025098D01*
X0336531Y0025665D01*
X0336531Y0026800D01*
X0335964Y0027367D01*
X0334829Y0027367D01*
X0333695Y0026232D01*
X0333128Y0025098D01*
X0333128Y0029348D02*
X0334829Y0031050D01*
X0336531Y0029348D02*
X0333128Y0029348D01*
X0334829Y0021050D02*
X0334829Y0018781D01*
X0334829Y0017367D02*
X0334262Y0016232D01*
X0334262Y0015665D01*
X0334829Y0015098D01*
X0335964Y0015098D01*
X0336531Y0015665D01*
X0336531Y0016800D01*
X0335964Y0017367D01*
X0334829Y0017367D02*
X0333128Y0017367D01*
X0333128Y0015098D01*
X0333128Y0019348D02*
X0334829Y0021050D01*
X0336531Y0019348D02*
X0333128Y0019348D01*
D14*
X0174781Y0047767D02*
X0174280Y0047267D01*
X0173279Y0047267D01*
X0172779Y0047767D01*
X0171834Y0047267D02*
X0169832Y0049268D01*
X0169832Y0049769D01*
X0170333Y0050269D01*
X0171334Y0050269D01*
X0171834Y0049769D01*
X0172779Y0049769D02*
X0173279Y0050269D01*
X0174280Y0050269D01*
X0174781Y0049769D01*
X0174781Y0047767D01*
X0171834Y0047267D02*
X0169832Y0047267D01*
X0163281Y0048017D02*
X0163281Y0050019D01*
X0162780Y0050519D01*
X0161779Y0050519D01*
X0161279Y0050019D01*
X0160334Y0049018D02*
X0159333Y0050019D01*
X0158332Y0050519D01*
X0158833Y0049018D02*
X0160334Y0049018D01*
X0160334Y0048017D01*
X0159834Y0047517D01*
X0158833Y0047517D01*
X0158332Y0048017D01*
X0158332Y0048518D01*
X0158833Y0049018D01*
X0161279Y0048017D02*
X0161779Y0047517D01*
X0162780Y0047517D01*
X0163281Y0048017D01*
X0152281Y0047767D02*
X0151780Y0047267D01*
X0150779Y0047267D01*
X0150279Y0047767D01*
X0149334Y0047767D02*
X0149334Y0047267D01*
X0149334Y0047767D02*
X0147332Y0049769D01*
X0147332Y0050269D01*
X0149334Y0050269D01*
X0150279Y0049769D02*
X0150779Y0050269D01*
X0151780Y0050269D01*
X0152281Y0049769D01*
X0152281Y0047767D01*
X0152779Y0104267D02*
X0152279Y0104767D01*
X0152779Y0104267D02*
X0153780Y0104267D01*
X0154281Y0104767D01*
X0154281Y0106769D01*
X0153780Y0107269D01*
X0152779Y0107269D01*
X0152279Y0106769D01*
X0151334Y0106268D02*
X0150333Y0107269D01*
X0150333Y0104267D01*
X0151334Y0104267D02*
X0149332Y0104267D01*
X0148388Y0104767D02*
X0148388Y0105268D01*
X0147887Y0105768D01*
X0146886Y0105768D01*
X0146386Y0105268D01*
X0146386Y0104767D01*
X0146886Y0104267D01*
X0147887Y0104267D01*
X0148388Y0104767D01*
X0147887Y0105768D02*
X0148388Y0106268D01*
X0148388Y0106769D01*
X0147887Y0107269D01*
X0146886Y0107269D01*
X0146386Y0106769D01*
X0146386Y0106268D01*
X0146886Y0105768D01*
X0157386Y0107019D02*
X0159388Y0105017D01*
X0159388Y0104517D01*
X0160332Y0104517D02*
X0162334Y0104517D01*
X0161333Y0104517D02*
X0161333Y0107519D01*
X0162334Y0106518D01*
X0163279Y0107019D02*
X0163779Y0107519D01*
X0164780Y0107519D01*
X0165281Y0107019D01*
X0165281Y0105017D01*
X0164780Y0104517D01*
X0163779Y0104517D01*
X0163279Y0105017D01*
X0159388Y0107519D02*
X0157386Y0107519D01*
X0157386Y0107019D01*
X0168886Y0106268D02*
X0170888Y0106268D01*
X0169386Y0107769D01*
X0169386Y0104767D01*
X0171832Y0104767D02*
X0173834Y0104767D01*
X0172833Y0104767D02*
X0172833Y0107769D01*
X0173834Y0106768D01*
X0174779Y0107269D02*
X0175279Y0107769D01*
X0176280Y0107769D01*
X0176781Y0107269D01*
X0176781Y0105267D01*
X0176280Y0104767D01*
X0175279Y0104767D01*
X0174779Y0105267D01*
X0174779Y0161767D02*
X0174279Y0162267D01*
X0174779Y0161767D02*
X0175780Y0161767D01*
X0176281Y0162267D01*
X0176281Y0164269D01*
X0175780Y0164769D01*
X0174779Y0164769D01*
X0174279Y0164269D01*
X0173334Y0164269D02*
X0172834Y0164769D01*
X0171833Y0164769D01*
X0171332Y0164269D01*
X0171332Y0163768D01*
X0171833Y0163268D01*
X0171332Y0162768D01*
X0171332Y0162267D01*
X0171833Y0161767D01*
X0172834Y0161767D01*
X0173334Y0162267D01*
X0172333Y0163268D02*
X0171833Y0163268D01*
X0165781Y0163017D02*
X0165781Y0165019D01*
X0165280Y0165519D01*
X0164279Y0165519D01*
X0163779Y0165019D01*
X0162834Y0164518D02*
X0161833Y0165519D01*
X0161833Y0162517D01*
X0162834Y0162517D02*
X0160832Y0162517D01*
X0159888Y0162517D02*
X0157886Y0162517D01*
X0158887Y0162517D02*
X0158887Y0165519D01*
X0159888Y0164518D01*
X0163779Y0163017D02*
X0164279Y0162517D01*
X0165280Y0162517D01*
X0165781Y0163017D01*
X0154781Y0162767D02*
X0154280Y0162267D01*
X0153279Y0162267D01*
X0152779Y0162767D01*
X0151834Y0162267D02*
X0149832Y0162267D01*
X0148888Y0162267D02*
X0146886Y0164268D01*
X0146886Y0164769D01*
X0147386Y0165269D01*
X0148387Y0165269D01*
X0148888Y0164769D01*
X0150833Y0165269D02*
X0151834Y0164268D01*
X0152779Y0164769D02*
X0153279Y0165269D01*
X0154280Y0165269D01*
X0154781Y0164769D01*
X0154781Y0162767D01*
X0150833Y0162267D02*
X0150833Y0165269D01*
X0148888Y0162267D02*
X0146886Y0162267D01*
D15*
X0120181Y0154235D02*
X0120181Y0152300D01*
X0119697Y0151817D01*
X0118729Y0151817D01*
X0118246Y0152300D01*
X0117234Y0151817D02*
X0115299Y0153752D01*
X0115299Y0154235D01*
X0115783Y0154719D01*
X0116750Y0154719D01*
X0117234Y0154235D01*
X0118246Y0154235D02*
X0118729Y0154719D01*
X0119697Y0154719D01*
X0120181Y0154235D01*
X0117234Y0151817D02*
X0115299Y0151817D01*
X0114288Y0151817D02*
X0112353Y0153752D01*
X0112353Y0154235D01*
X0112836Y0154719D01*
X0113804Y0154719D01*
X0114288Y0154235D01*
X0114288Y0151817D02*
X0112353Y0151817D01*
X0114481Y0160317D02*
X0117383Y0160317D01*
X0117383Y0161768D01*
X0116899Y0162252D01*
X0115932Y0162252D01*
X0115448Y0161768D01*
X0115448Y0160317D01*
X0115448Y0161284D02*
X0114481Y0162252D01*
X0114481Y0163263D02*
X0114481Y0165198D01*
X0114481Y0164231D02*
X0117383Y0164231D01*
X0116416Y0163263D01*
X0117383Y0166210D02*
X0117383Y0168145D01*
X0116899Y0168145D01*
X0114964Y0166210D01*
X0114481Y0166210D01*
X0094681Y0165817D02*
X0094681Y0168719D01*
X0093229Y0168719D01*
X0092746Y0168235D01*
X0092746Y0167268D01*
X0093229Y0166784D01*
X0094681Y0166784D01*
X0093713Y0166784D02*
X0092746Y0165817D01*
X0091734Y0165817D02*
X0089799Y0165817D01*
X0090767Y0165817D02*
X0090767Y0168719D01*
X0091734Y0167752D01*
X0088788Y0167268D02*
X0088788Y0166300D01*
X0088304Y0165817D01*
X0087336Y0165817D01*
X0086853Y0166300D01*
X0086853Y0166784D01*
X0087336Y0167268D01*
X0088788Y0167268D01*
X0087820Y0168235D01*
X0086853Y0168719D01*
X0095661Y0196281D02*
X0098797Y0199417D01*
X0097229Y0199417D02*
X0097229Y0196281D01*
X0098797Y0196281D02*
X0095661Y0199417D01*
X0095661Y0197849D02*
X0098797Y0197849D01*
X0111320Y0139719D02*
X0111320Y0136817D01*
X0110353Y0136817D02*
X0112288Y0136817D01*
X0113299Y0136817D02*
X0115234Y0136817D01*
X0113299Y0138752D01*
X0113299Y0139235D01*
X0113783Y0139719D01*
X0114750Y0139719D01*
X0115234Y0139235D01*
X0116246Y0139235D02*
X0116729Y0139719D01*
X0117697Y0139719D01*
X0118181Y0139235D01*
X0118181Y0137300D01*
X0117697Y0136817D01*
X0116729Y0136817D01*
X0116246Y0137300D01*
X0112288Y0138752D02*
X0111320Y0139719D01*
X0121281Y0124805D02*
X0121281Y0122870D01*
X0123216Y0124805D01*
X0123699Y0124805D01*
X0124183Y0124321D01*
X0124183Y0123354D01*
X0123699Y0122870D01*
X0123699Y0121859D02*
X0124183Y0121375D01*
X0124183Y0120407D01*
X0123699Y0119924D01*
X0121764Y0119924D01*
X0121281Y0120407D01*
X0121281Y0121375D01*
X0121764Y0121859D01*
X0121281Y0118927D02*
X0121281Y0117959D01*
X0121281Y0118443D02*
X0124183Y0118443D01*
X0124183Y0117959D02*
X0124183Y0118927D01*
X0118197Y0103719D02*
X0118681Y0103235D01*
X0118681Y0101300D01*
X0118197Y0100817D01*
X0117229Y0100817D01*
X0116746Y0101300D01*
X0115734Y0100817D02*
X0113799Y0102752D01*
X0113799Y0103235D01*
X0114283Y0103719D01*
X0115250Y0103719D01*
X0115734Y0103235D01*
X0116746Y0103235D02*
X0117229Y0103719D01*
X0118197Y0103719D01*
X0112788Y0103235D02*
X0112304Y0103719D01*
X0111336Y0103719D01*
X0110853Y0103235D01*
X0110853Y0102752D01*
X0111336Y0102268D01*
X0110853Y0101784D01*
X0110853Y0101300D01*
X0111336Y0100817D01*
X0112304Y0100817D01*
X0112788Y0101300D01*
X0113799Y0100817D02*
X0115734Y0100817D01*
X0111820Y0102268D02*
X0111336Y0102268D01*
X0192281Y0119657D02*
X0192764Y0119174D01*
X0194699Y0119174D01*
X0195183Y0119657D01*
X0195183Y0120625D01*
X0194699Y0121109D01*
X0192764Y0121109D01*
X0192281Y0120625D01*
X0192281Y0119657D01*
X0193248Y0120141D02*
X0192281Y0121109D01*
X0192764Y0122120D02*
X0192281Y0122604D01*
X0192281Y0123571D01*
X0192764Y0124055D01*
X0193248Y0124055D01*
X0193732Y0123571D01*
X0193732Y0123088D01*
X0193732Y0123571D02*
X0194216Y0124055D01*
X0194699Y0124055D01*
X0195183Y0123571D01*
X0195183Y0122604D01*
X0194699Y0122120D01*
X0213264Y0171674D02*
X0212781Y0172157D01*
X0212781Y0173125D01*
X0213264Y0173609D01*
X0215199Y0173609D01*
X0215683Y0173125D01*
X0215683Y0172157D01*
X0215199Y0171674D01*
X0213264Y0171674D01*
X0213748Y0172641D02*
X0212781Y0173609D01*
X0212781Y0174620D02*
X0212781Y0176555D01*
X0212781Y0175588D02*
X0215683Y0175588D01*
X0214716Y0174620D01*
X0214281Y0060055D02*
X0214281Y0058120D01*
X0216216Y0060055D01*
X0216699Y0060055D01*
X0217183Y0059571D01*
X0217183Y0058604D01*
X0216699Y0058120D01*
X0216699Y0057109D02*
X0214764Y0057109D01*
X0214281Y0056625D01*
X0214281Y0055657D01*
X0214764Y0055174D01*
X0216699Y0055174D01*
X0217183Y0055657D01*
X0217183Y0056625D01*
X0216699Y0057109D01*
X0215248Y0056141D02*
X0214281Y0057109D01*
D16*
X0137347Y0195467D02*
X0137531Y0195650D01*
X0137347Y0195467D02*
X0136980Y0195467D01*
X0136797Y0195650D01*
X0136797Y0195834D01*
X0136980Y0196017D01*
X0137347Y0196017D01*
X0137531Y0196201D01*
X0137531Y0196384D01*
X0137347Y0196568D01*
X0136980Y0196568D01*
X0136797Y0196384D01*
X0136426Y0196568D02*
X0136426Y0195467D01*
X0135692Y0195467D01*
X0135321Y0195650D02*
X0134587Y0196384D01*
X0134587Y0195650D01*
X0134770Y0195467D01*
X0135137Y0195467D01*
X0135321Y0195650D01*
X0135321Y0196384D01*
X0135137Y0196568D01*
X0134770Y0196568D01*
X0134587Y0196384D01*
X0132531Y0196384D02*
X0132531Y0196201D01*
X0132347Y0196017D01*
X0131980Y0196017D01*
X0131797Y0195834D01*
X0131797Y0195650D01*
X0131980Y0195467D01*
X0132347Y0195467D01*
X0132531Y0195650D01*
X0132531Y0196384D02*
X0132347Y0196568D01*
X0131980Y0196568D01*
X0131797Y0196384D01*
X0131426Y0196568D02*
X0131426Y0195467D01*
X0130692Y0195467D01*
X0130321Y0195467D02*
X0129587Y0195467D01*
X0129954Y0195467D02*
X0129954Y0196568D01*
X0130321Y0196201D01*
D17*
X0248481Y0087167D03*
X0246381Y0086267D03*
X0248481Y0082567D03*
X0248281Y0082367D03*
X0248181Y0082267D03*
X0247481Y0081467D03*
X0247581Y0078667D03*
X0248081Y0078067D03*
X0248481Y0077567D03*
X0248581Y0077467D03*
X0248981Y0076967D03*
X0249081Y0076867D03*
X0249481Y0076367D03*
X0249581Y0076267D03*
X0250481Y0075167D03*
X0250581Y0075067D03*
X0251481Y0073967D03*
X0251881Y0073467D03*
X0251981Y0073367D03*
X0252381Y0072867D03*
X0252881Y0072267D03*
X0252981Y0072167D03*
X0253881Y0071067D03*
X0254281Y0070567D03*
X0254781Y0069967D03*
X0254881Y0069867D03*
X0255281Y0069367D03*
X0255381Y0069267D03*
X0256181Y0068267D03*
X0256281Y0068167D03*
X0256381Y0068067D03*
X0256681Y0067667D03*
X0257181Y0067067D03*
X0257281Y0066967D03*
X0257681Y0066467D03*
X0258181Y0065867D03*
X0258681Y0065267D03*
X0259081Y0064867D03*
X0259081Y0064767D03*
X0258981Y0064667D03*
X0259381Y0065167D03*
X0259481Y0065267D03*
X0259581Y0065367D03*
X0259981Y0065867D03*
X0260481Y0066467D03*
X0260581Y0066567D03*
X0260581Y0066667D03*
X0260981Y0067067D03*
X0261381Y0067567D03*
X0261881Y0068167D03*
X0261981Y0068267D03*
X0262081Y0068467D03*
X0262481Y0068867D03*
X0262881Y0069367D03*
X0262981Y0069467D03*
X0263281Y0069867D03*
X0263381Y0069967D03*
X0263581Y0070267D03*
X0263981Y0070667D03*
X0264281Y0071067D03*
X0264381Y0071167D03*
X0264781Y0071667D03*
X0265281Y0072267D03*
X0265381Y0072367D03*
X0265781Y0072867D03*
X0265981Y0073167D03*
X0266381Y0073567D03*
X0266681Y0073967D03*
X0266781Y0074067D03*
X0266481Y0075067D03*
X0265981Y0075667D03*
X0265581Y0076167D03*
X0265481Y0076267D03*
X0265081Y0076767D03*
X0266481Y0077567D03*
X0266881Y0077067D03*
X0266981Y0076967D03*
X0267081Y0076867D03*
X0267381Y0076467D03*
X0268081Y0075667D03*
X0267681Y0075167D03*
X0268681Y0076367D03*
X0268781Y0076467D03*
X0269081Y0076867D03*
X0269181Y0076967D03*
X0270381Y0075667D03*
X0269581Y0074367D03*
X0269081Y0073767D03*
X0268681Y0073267D03*
X0268581Y0073167D03*
X0268081Y0072567D03*
X0267681Y0072067D03*
X0267581Y0071967D03*
X0267181Y0071467D03*
X0265181Y0074067D03*
X0264681Y0074667D03*
X0264281Y0075167D03*
X0264181Y0075267D03*
X0263681Y0075867D03*
X0263281Y0076367D03*
X0262781Y0076967D03*
X0262381Y0077667D03*
X0265981Y0078167D03*
X0265881Y0081667D03*
X0265981Y0081767D03*
X0266381Y0082267D03*
X0266481Y0082367D03*
X0269681Y0081667D03*
X0269981Y0082067D03*
X0270081Y0082167D03*
X0261381Y0082067D03*
X0260781Y0081367D03*
X0256881Y0081667D03*
X0257581Y0077867D03*
X0258581Y0076367D03*
X0258681Y0076267D03*
X0259581Y0075167D03*
X0259681Y0075067D03*
X0260081Y0074567D03*
X0260681Y0073867D03*
X0260981Y0073467D03*
X0261481Y0072867D03*
X0261581Y0072767D03*
X0261981Y0072267D03*
X0262081Y0072167D03*
X0262381Y0071767D03*
X0260581Y0070267D03*
X0260081Y0070867D03*
X0259581Y0071467D03*
X0259081Y0072067D03*
X0258681Y0072567D03*
X0258581Y0072667D03*
X0258081Y0073267D03*
X0257681Y0073767D03*
X0257181Y0074367D03*
X0256681Y0074967D03*
X0256381Y0075367D03*
X0255781Y0076067D03*
X0255281Y0076667D03*
X0254281Y0077867D03*
X0253881Y0078367D03*
X0253181Y0079467D03*
X0252081Y0081467D03*
X0252481Y0081967D03*
X0252581Y0082067D03*
X0252981Y0082567D03*
X0255381Y0087067D03*
X0250881Y0087167D03*
X0261781Y0087067D03*
X0250081Y0079567D03*
X0250881Y0078367D03*
X0251881Y0077167D03*
X0251981Y0077067D03*
X0252381Y0076567D03*
X0252781Y0076067D03*
X0252881Y0075967D03*
X0253781Y0074867D03*
X0253881Y0074767D03*
X0254281Y0074267D03*
X0254781Y0073667D03*
X0255281Y0073067D03*
X0255681Y0072567D03*
X0255781Y0072467D03*
X0256181Y0071967D03*
X0256281Y0071867D03*
X0257181Y0070767D03*
X0257281Y0070667D03*
X0257681Y0070167D03*
X0258081Y0069667D03*
X0258181Y0069567D03*
X0258681Y0068967D03*
X0259081Y0068467D03*
X0259581Y0067867D03*
X0259681Y0067767D03*
X0260081Y0067267D03*
X0261581Y0065567D03*
X0262081Y0066167D03*
X0263181Y0065067D03*
X0263081Y0064967D03*
X0263481Y0065467D03*
X0263581Y0065567D03*
X0263981Y0066067D03*
X0264081Y0066167D03*
X0264481Y0066667D03*
X0263481Y0067867D03*
X0263981Y0068467D03*
X0261581Y0069067D03*
X0261481Y0069167D03*
X0261081Y0064967D03*
X0260681Y0064467D03*
X0260581Y0064367D03*
X0261581Y0063167D03*
X0262081Y0063767D03*
X0262181Y0063867D03*
X0263481Y0063067D03*
X0263581Y0063167D03*
X0263981Y0063667D03*
X0264081Y0063767D03*
X0264481Y0064267D03*
X0264581Y0064367D03*
X0264981Y0064867D03*
X0263081Y0062567D03*
X0262681Y0062067D03*
X0262581Y0061967D03*
X0262181Y0061467D03*
X0262081Y0061367D03*
X0261681Y0060867D03*
X0261581Y0060767D03*
X0261281Y0060367D03*
X0261181Y0060267D03*
X0260681Y0059667D03*
X0260281Y0059167D03*
X0260181Y0059067D03*
X0259781Y0058567D03*
X0259681Y0058467D03*
X0259281Y0057967D03*
X0259181Y0057867D03*
X0258781Y0057367D03*
X0258681Y0057267D03*
X0258281Y0056767D03*
X0257881Y0056267D03*
X0257781Y0056167D03*
X0257281Y0055567D03*
X0256881Y0055067D03*
X0256781Y0054967D03*
X0256381Y0054467D03*
X0256281Y0054367D03*
X0255881Y0053867D03*
X0255781Y0053767D03*
X0255481Y0053367D03*
X0255381Y0053267D03*
X0255281Y0053167D03*
X0254881Y0052667D03*
X0254481Y0052167D03*
X0254381Y0052067D03*
X0254281Y0051967D03*
X0253981Y0051567D03*
X0253881Y0051467D03*
X0252881Y0052667D03*
X0252981Y0052767D03*
X0253381Y0053267D03*
X0253881Y0053867D03*
X0254381Y0054467D03*
X0254481Y0054567D03*
X0254781Y0054967D03*
X0254881Y0055067D03*
X0255281Y0055567D03*
X0255381Y0055667D03*
X0255781Y0056167D03*
X0256281Y0056767D03*
X0256381Y0056867D03*
X0256781Y0057367D03*
X0257281Y0057967D03*
X0257681Y0058467D03*
X0257781Y0058567D03*
X0257881Y0058667D03*
X0258181Y0059067D03*
X0258281Y0059167D03*
X0258681Y0059667D03*
X0258781Y0059767D03*
X0259181Y0060267D03*
X0259681Y0060867D03*
X0259781Y0060967D03*
X0260181Y0061467D03*
X0260581Y0061967D03*
X0260681Y0062067D03*
X0261081Y0062567D03*
X0259181Y0062667D03*
X0258681Y0062067D03*
X0258181Y0061467D03*
X0257781Y0060967D03*
X0257681Y0060867D03*
X0257281Y0060367D03*
X0256181Y0061267D03*
X0256081Y0061167D03*
X0255681Y0060667D03*
X0255581Y0060567D03*
X0255181Y0060067D03*
X0255081Y0059967D03*
X0254681Y0059467D03*
X0254181Y0058867D03*
X0253781Y0058367D03*
X0253681Y0058267D03*
X0253181Y0057667D03*
X0252881Y0057267D03*
X0252781Y0057167D03*
X0252281Y0056567D03*
X0251781Y0055967D03*
X0251281Y0055367D03*
X0250881Y0054867D03*
X0250781Y0054767D03*
X0250381Y0054267D03*
X0250281Y0054167D03*
X0249481Y0053167D03*
X0249381Y0053067D03*
X0249281Y0052967D03*
X0249181Y0052867D03*
X0250881Y0052667D03*
X0250981Y0052767D03*
X0251381Y0053267D03*
X0251881Y0053867D03*
X0251981Y0053967D03*
X0252381Y0054467D03*
X0252881Y0055067D03*
X0253381Y0055667D03*
X0253881Y0056267D03*
X0254281Y0056767D03*
X0254381Y0056867D03*
X0254781Y0057367D03*
X0255281Y0057967D03*
X0255781Y0058567D03*
X0256181Y0059067D03*
X0256281Y0059167D03*
X0256581Y0061767D03*
X0257081Y0062367D03*
X0257181Y0062467D03*
X0257581Y0062967D03*
X0258081Y0063567D03*
X0258481Y0064067D03*
X0258581Y0064167D03*
X0250581Y0065267D03*
X0250081Y0069167D03*
X0241081Y0077967D03*
X0240981Y0077867D03*
X0241481Y0078467D03*
X0241581Y0078567D03*
X0241681Y0078667D03*
X0242381Y0080067D03*
X0226081Y0077967D03*
X0226081Y0077067D03*
X0222681Y0078867D03*
X0222381Y0078467D03*
X0222281Y0078367D03*
X0221981Y0077967D03*
X0221881Y0077867D03*
X0221781Y0077767D03*
X0223281Y0080167D03*
X0234981Y0069667D03*
X0234681Y0069267D03*
X0234581Y0069167D03*
X0234481Y0069067D03*
X0233681Y0062467D03*
X0232881Y0060967D03*
X0232581Y0060567D03*
X0232481Y0060467D03*
X0232381Y0060367D03*
X0232181Y0060067D03*
X0231881Y0052967D03*
X0228481Y0052967D03*
X0236781Y0047667D03*
X0244781Y0047667D03*
X0245181Y0050467D03*
X0247881Y0051167D03*
X0247881Y0047667D03*
X0251681Y0049167D03*
X0251681Y0050067D03*
X0251881Y0051467D03*
X0252381Y0052067D03*
X0253781Y0049667D03*
X0263481Y0052267D03*
X0266281Y0050567D03*
X0269081Y0049167D03*
X0264781Y0047667D03*
X0266181Y0055467D03*
X0269981Y0058267D03*
X0269081Y0058967D03*
X0266181Y0060767D03*
X0269081Y0063467D03*
X0270681Y0064867D03*
X0270681Y0065767D03*
X0270881Y0070567D03*
X0270881Y0071467D03*
X0245081Y0054967D03*
X0219481Y0052967D03*
X0207781Y0054867D03*
X0207781Y0055767D03*
D18*
X0207481Y0055467D03*
X0207481Y0055167D03*
X0207781Y0054767D03*
X0208881Y0057667D03*
X0208881Y0058067D03*
X0209381Y0058067D03*
X0207181Y0059267D03*
X0206981Y0060067D03*
X0207481Y0060067D03*
X0210681Y0052967D03*
X0210681Y0052867D03*
X0210681Y0052767D03*
X0210681Y0052667D03*
X0210681Y0052567D03*
X0210681Y0052467D03*
X0210681Y0052367D03*
X0210681Y0052267D03*
X0210681Y0052167D03*
X0210681Y0052067D03*
X0210681Y0051967D03*
X0210681Y0051867D03*
X0210681Y0051767D03*
X0210681Y0051667D03*
X0210681Y0051567D03*
X0210681Y0051467D03*
X0211181Y0050667D03*
X0211181Y0050567D03*
X0211181Y0050367D03*
X0211181Y0050267D03*
X0211181Y0047867D03*
X0214281Y0047867D03*
X0214281Y0047967D03*
X0214281Y0048067D03*
X0214281Y0048167D03*
X0214281Y0048267D03*
X0214281Y0048367D03*
X0214281Y0048467D03*
X0214281Y0048567D03*
X0214281Y0048667D03*
X0214281Y0048767D03*
X0214281Y0048867D03*
X0214281Y0048967D03*
X0214281Y0049067D03*
X0214281Y0049167D03*
X0214281Y0049267D03*
X0214281Y0049367D03*
X0214281Y0049467D03*
X0214281Y0049567D03*
X0214281Y0049667D03*
X0214281Y0049767D03*
X0214281Y0049867D03*
X0214281Y0049967D03*
X0214281Y0050067D03*
X0214281Y0050167D03*
X0214281Y0050267D03*
X0214281Y0050367D03*
X0214281Y0050467D03*
X0214281Y0050567D03*
X0214281Y0050667D03*
X0214281Y0050767D03*
X0213381Y0051367D03*
X0216481Y0051367D03*
X0216481Y0051467D03*
X0216481Y0051567D03*
X0216481Y0051667D03*
X0216481Y0051767D03*
X0216481Y0051867D03*
X0216481Y0051967D03*
X0216481Y0052067D03*
X0216481Y0052167D03*
X0216481Y0052267D03*
X0216481Y0052367D03*
X0216481Y0052467D03*
X0216481Y0052567D03*
X0216481Y0052667D03*
X0216481Y0052767D03*
X0216481Y0052867D03*
X0216481Y0051267D03*
X0217281Y0050767D03*
X0217281Y0050667D03*
X0217281Y0050567D03*
X0217281Y0050467D03*
X0217281Y0050367D03*
X0217281Y0050267D03*
X0217281Y0050167D03*
X0217281Y0050067D03*
X0217281Y0049967D03*
X0217281Y0049867D03*
X0217281Y0049767D03*
X0217281Y0049667D03*
X0217281Y0049567D03*
X0217281Y0049467D03*
X0217281Y0049367D03*
X0217281Y0049267D03*
X0217281Y0049167D03*
X0217281Y0049067D03*
X0217281Y0048967D03*
X0217281Y0048867D03*
X0217281Y0048767D03*
X0217281Y0048667D03*
X0217281Y0048567D03*
X0217281Y0048467D03*
X0217281Y0048367D03*
X0217281Y0048267D03*
X0217281Y0048167D03*
X0217281Y0048067D03*
X0217281Y0047967D03*
X0217281Y0047867D03*
X0215581Y0047767D03*
X0214281Y0047767D03*
X0219481Y0051267D03*
X0219481Y0051367D03*
X0219481Y0051467D03*
X0219481Y0051567D03*
X0219481Y0051667D03*
X0219481Y0051767D03*
X0219481Y0051867D03*
X0219481Y0051967D03*
X0219481Y0052067D03*
X0219481Y0052167D03*
X0219481Y0052267D03*
X0219481Y0052367D03*
X0219481Y0052467D03*
X0219481Y0052567D03*
X0219481Y0052667D03*
X0219481Y0052767D03*
X0219481Y0052867D03*
X0220281Y0050767D03*
X0220281Y0050667D03*
X0220281Y0050567D03*
X0220281Y0050467D03*
X0220281Y0050367D03*
X0220281Y0050267D03*
X0220281Y0050167D03*
X0220281Y0050067D03*
X0220281Y0049967D03*
X0220281Y0049867D03*
X0220281Y0049767D03*
X0220281Y0049667D03*
X0220281Y0049567D03*
X0220281Y0049467D03*
X0220281Y0049367D03*
X0220281Y0049267D03*
X0220281Y0049167D03*
X0220281Y0049067D03*
X0220281Y0048967D03*
X0220281Y0048867D03*
X0220281Y0048767D03*
X0220281Y0048667D03*
X0220281Y0048567D03*
X0220281Y0048467D03*
X0220281Y0048367D03*
X0220281Y0048267D03*
X0220281Y0048167D03*
X0220281Y0048067D03*
X0220281Y0047967D03*
X0220281Y0047867D03*
X0223281Y0047867D03*
X0223281Y0047967D03*
X0223281Y0048067D03*
X0223281Y0048167D03*
X0223281Y0048267D03*
X0223281Y0048367D03*
X0223281Y0048467D03*
X0223281Y0048567D03*
X0223281Y0048667D03*
X0223281Y0048767D03*
X0223281Y0048867D03*
X0223281Y0048967D03*
X0223281Y0049067D03*
X0223281Y0049167D03*
X0223281Y0049267D03*
X0223281Y0049367D03*
X0223281Y0049467D03*
X0223281Y0049567D03*
X0223281Y0049667D03*
X0223281Y0049767D03*
X0223281Y0049867D03*
X0223281Y0049967D03*
X0223281Y0050067D03*
X0223281Y0050167D03*
X0223281Y0050267D03*
X0223281Y0050367D03*
X0223281Y0050467D03*
X0223281Y0050567D03*
X0223281Y0050667D03*
X0223281Y0050767D03*
X0222481Y0051267D03*
X0222481Y0051367D03*
X0225381Y0051367D03*
X0225381Y0051467D03*
X0225381Y0051567D03*
X0225381Y0051667D03*
X0225381Y0051767D03*
X0225381Y0051867D03*
X0225381Y0051967D03*
X0225381Y0052067D03*
X0225381Y0052167D03*
X0225381Y0052267D03*
X0225381Y0052367D03*
X0225381Y0052467D03*
X0225381Y0052567D03*
X0225381Y0052667D03*
X0225381Y0052767D03*
X0225381Y0052867D03*
X0225381Y0051267D03*
X0228381Y0051267D03*
X0228381Y0051367D03*
X0228381Y0051467D03*
X0228381Y0051567D03*
X0228381Y0051667D03*
X0228381Y0051767D03*
X0228381Y0051867D03*
X0228381Y0051967D03*
X0228381Y0052067D03*
X0228381Y0052167D03*
X0228381Y0052267D03*
X0228381Y0052367D03*
X0228381Y0052467D03*
X0228381Y0052567D03*
X0228381Y0052667D03*
X0228381Y0052767D03*
X0228381Y0052867D03*
X0229181Y0050767D03*
X0229181Y0050667D03*
X0229181Y0050567D03*
X0229181Y0050467D03*
X0229181Y0050367D03*
X0229181Y0050267D03*
X0229181Y0050167D03*
X0229181Y0050067D03*
X0229181Y0049967D03*
X0229181Y0049867D03*
X0229181Y0049767D03*
X0229181Y0049667D03*
X0229181Y0049567D03*
X0229181Y0049467D03*
X0229181Y0049367D03*
X0229181Y0049267D03*
X0229181Y0049167D03*
X0229181Y0049067D03*
X0229181Y0048967D03*
X0229181Y0048867D03*
X0229181Y0048767D03*
X0229181Y0048667D03*
X0229181Y0048567D03*
X0229181Y0048467D03*
X0229181Y0048367D03*
X0229181Y0048267D03*
X0229181Y0048167D03*
X0229181Y0048067D03*
X0229181Y0047967D03*
X0229181Y0047867D03*
X0231781Y0051267D03*
X0231781Y0051367D03*
X0231781Y0051467D03*
X0231781Y0051567D03*
X0231781Y0051667D03*
X0231781Y0051767D03*
X0231781Y0051867D03*
X0231781Y0051967D03*
X0231781Y0052067D03*
X0231781Y0052167D03*
X0231781Y0052267D03*
X0231781Y0052467D03*
X0231781Y0052567D03*
X0231781Y0052667D03*
X0231781Y0052767D03*
X0231781Y0052867D03*
X0234381Y0049867D03*
X0234281Y0049667D03*
X0234281Y0049267D03*
X0234381Y0049067D03*
X0235181Y0049867D03*
X0236781Y0049867D03*
X0236781Y0049967D03*
X0236781Y0050067D03*
X0236781Y0050167D03*
X0236781Y0050267D03*
X0236781Y0050367D03*
X0236781Y0050467D03*
X0236781Y0050567D03*
X0236781Y0050667D03*
X0236781Y0050767D03*
X0236781Y0050867D03*
X0236781Y0050967D03*
X0236781Y0051067D03*
X0236781Y0051167D03*
X0236781Y0051267D03*
X0236781Y0051367D03*
X0236781Y0051467D03*
X0236581Y0051767D03*
X0236481Y0051867D03*
X0236081Y0052367D03*
X0235981Y0052467D03*
X0237581Y0054067D03*
X0237181Y0054567D03*
X0237081Y0054667D03*
X0237981Y0053567D03*
X0238081Y0053467D03*
X0238481Y0052967D03*
X0238581Y0052867D03*
X0238981Y0052367D03*
X0239081Y0052267D03*
X0239181Y0052067D03*
X0239181Y0051967D03*
X0239181Y0051867D03*
X0239181Y0051767D03*
X0239181Y0051667D03*
X0239181Y0051567D03*
X0239181Y0051467D03*
X0239181Y0051367D03*
X0239181Y0051267D03*
X0239181Y0051167D03*
X0239181Y0051067D03*
X0239181Y0050967D03*
X0239181Y0050867D03*
X0239181Y0050767D03*
X0239181Y0050667D03*
X0239181Y0050567D03*
X0239181Y0050467D03*
X0239181Y0050367D03*
X0239181Y0050267D03*
X0239181Y0050167D03*
X0239181Y0050067D03*
X0239181Y0049967D03*
X0239181Y0049867D03*
X0239181Y0049767D03*
X0239181Y0049667D03*
X0239181Y0049567D03*
X0239181Y0049467D03*
X0239181Y0049367D03*
X0239181Y0049267D03*
X0239181Y0049167D03*
X0239181Y0049067D03*
X0239181Y0048967D03*
X0239181Y0048867D03*
X0239181Y0048767D03*
X0239181Y0048667D03*
X0239181Y0048567D03*
X0239181Y0048467D03*
X0239181Y0048367D03*
X0239181Y0048267D03*
X0239181Y0048167D03*
X0239181Y0048067D03*
X0239181Y0047967D03*
X0239181Y0047867D03*
X0236781Y0047867D03*
X0236781Y0047967D03*
X0236781Y0048067D03*
X0236781Y0048167D03*
X0236781Y0048267D03*
X0236781Y0048367D03*
X0236781Y0048467D03*
X0236781Y0048567D03*
X0236781Y0048667D03*
X0236781Y0048767D03*
X0236781Y0048867D03*
X0236781Y0048967D03*
X0236781Y0049067D03*
X0236781Y0049167D03*
X0236781Y0049267D03*
X0236781Y0049367D03*
X0236781Y0049467D03*
X0236781Y0049567D03*
X0236781Y0049667D03*
X0236781Y0049767D03*
X0241881Y0049767D03*
X0241881Y0049867D03*
X0241881Y0049967D03*
X0241881Y0050067D03*
X0241881Y0050167D03*
X0241881Y0050267D03*
X0241881Y0050367D03*
X0241881Y0050467D03*
X0241881Y0050567D03*
X0241881Y0050667D03*
X0241881Y0050767D03*
X0241881Y0050867D03*
X0241881Y0050967D03*
X0241881Y0051067D03*
X0241881Y0051167D03*
X0241881Y0051267D03*
X0241881Y0051367D03*
X0241881Y0051467D03*
X0241881Y0051567D03*
X0241881Y0051667D03*
X0241881Y0051767D03*
X0241881Y0051867D03*
X0241881Y0051967D03*
X0241881Y0052067D03*
X0241881Y0052167D03*
X0241881Y0052267D03*
X0241881Y0052367D03*
X0241881Y0052467D03*
X0241581Y0052867D03*
X0241481Y0052967D03*
X0241381Y0053067D03*
X0240981Y0053567D03*
X0240881Y0053667D03*
X0240481Y0054167D03*
X0240081Y0054667D03*
X0239981Y0054767D03*
X0239581Y0055267D03*
X0239481Y0055367D03*
X0239081Y0055867D03*
X0238981Y0055967D03*
X0238681Y0056367D03*
X0238581Y0056467D03*
X0238181Y0056967D03*
X0238081Y0057067D03*
X0233981Y0061767D03*
X0233981Y0062167D03*
X0233381Y0062167D03*
X0233181Y0061367D03*
X0235381Y0070167D03*
X0235581Y0070667D03*
X0235581Y0070967D03*
X0235881Y0071367D03*
X0226081Y0076967D03*
X0225781Y0077367D03*
X0223581Y0079467D03*
X0223581Y0079867D03*
X0222981Y0079767D03*
X0222981Y0079567D03*
X0217581Y0079467D03*
X0213281Y0069067D03*
X0207181Y0068367D03*
X0242081Y0079367D03*
X0242081Y0079767D03*
X0242681Y0079767D03*
X0247481Y0079767D03*
X0247481Y0079867D03*
X0247481Y0079967D03*
X0247481Y0080067D03*
X0247481Y0080167D03*
X0247481Y0080267D03*
X0247481Y0080367D03*
X0247481Y0080467D03*
X0247481Y0080567D03*
X0247481Y0080667D03*
X0247481Y0080767D03*
X0247481Y0080867D03*
X0247481Y0080967D03*
X0247481Y0081067D03*
X0247481Y0081167D03*
X0247481Y0081267D03*
X0247481Y0081367D03*
X0246781Y0082267D03*
X0246381Y0082767D03*
X0246381Y0082867D03*
X0246381Y0082967D03*
X0246381Y0083067D03*
X0248581Y0083067D03*
X0248581Y0082867D03*
X0250981Y0082867D03*
X0250981Y0082967D03*
X0250981Y0083067D03*
X0250981Y0083167D03*
X0250981Y0083267D03*
X0250981Y0083367D03*
X0250981Y0083467D03*
X0250981Y0083567D03*
X0250981Y0083667D03*
X0250981Y0083767D03*
X0250981Y0083867D03*
X0250981Y0083967D03*
X0250981Y0084067D03*
X0250981Y0084167D03*
X0250981Y0084267D03*
X0250981Y0084367D03*
X0250981Y0084467D03*
X0250981Y0084567D03*
X0250981Y0084667D03*
X0250981Y0084767D03*
X0250981Y0084867D03*
X0250981Y0084967D03*
X0250981Y0085067D03*
X0250981Y0085167D03*
X0250981Y0085267D03*
X0250981Y0085367D03*
X0250981Y0085467D03*
X0250981Y0085567D03*
X0250981Y0085667D03*
X0250981Y0085767D03*
X0250981Y0085867D03*
X0250981Y0085967D03*
X0250981Y0086067D03*
X0250981Y0086167D03*
X0251181Y0086567D03*
X0250581Y0086567D03*
X0250581Y0086867D03*
X0250881Y0087267D03*
X0252681Y0086867D03*
X0252681Y0086667D03*
X0253281Y0086567D03*
X0253381Y0086667D03*
X0253081Y0086167D03*
X0253081Y0086067D03*
X0253081Y0085967D03*
X0253081Y0085867D03*
X0253081Y0085767D03*
X0253081Y0085667D03*
X0253081Y0085567D03*
X0253081Y0085467D03*
X0253081Y0085367D03*
X0253081Y0085267D03*
X0253081Y0085167D03*
X0253081Y0085067D03*
X0253081Y0084967D03*
X0253081Y0084867D03*
X0253081Y0084767D03*
X0253081Y0084667D03*
X0253081Y0084567D03*
X0253081Y0084467D03*
X0253081Y0084367D03*
X0253081Y0084267D03*
X0253081Y0084167D03*
X0253081Y0084067D03*
X0253081Y0083967D03*
X0253081Y0083867D03*
X0253081Y0083767D03*
X0253081Y0083667D03*
X0253081Y0083567D03*
X0253081Y0083467D03*
X0253081Y0083367D03*
X0253081Y0083267D03*
X0253081Y0083167D03*
X0253081Y0083067D03*
X0253081Y0082967D03*
X0253081Y0082867D03*
X0253081Y0082767D03*
X0251581Y0081967D03*
X0251481Y0082067D03*
X0251081Y0082567D03*
X0250981Y0082767D03*
X0251981Y0081267D03*
X0251981Y0081167D03*
X0251981Y0081067D03*
X0251981Y0080967D03*
X0251981Y0080867D03*
X0251981Y0080767D03*
X0251981Y0080667D03*
X0251981Y0080567D03*
X0251981Y0080467D03*
X0251981Y0080367D03*
X0251981Y0080267D03*
X0251981Y0080167D03*
X0251981Y0080067D03*
X0251981Y0079967D03*
X0251981Y0079867D03*
X0251981Y0079767D03*
X0251981Y0079667D03*
X0251981Y0079567D03*
X0251981Y0079467D03*
X0251981Y0079367D03*
X0251981Y0079267D03*
X0251981Y0079167D03*
X0251981Y0079067D03*
X0251981Y0078967D03*
X0251981Y0078867D03*
X0251981Y0078767D03*
X0251981Y0078667D03*
X0251981Y0078567D03*
X0251981Y0078467D03*
X0251981Y0078367D03*
X0251981Y0078267D03*
X0251981Y0078167D03*
X0251981Y0078067D03*
X0251981Y0077967D03*
X0251981Y0077867D03*
X0251981Y0077767D03*
X0251981Y0077667D03*
X0252881Y0078767D03*
X0252881Y0079167D03*
X0253481Y0079167D03*
X0256481Y0079167D03*
X0256481Y0079267D03*
X0256481Y0079367D03*
X0256481Y0079467D03*
X0256481Y0079567D03*
X0256481Y0079667D03*
X0256481Y0079767D03*
X0256481Y0079867D03*
X0256481Y0079967D03*
X0256481Y0080067D03*
X0256481Y0080167D03*
X0256481Y0080267D03*
X0256481Y0080367D03*
X0256481Y0080467D03*
X0256481Y0080567D03*
X0256481Y0080667D03*
X0256481Y0080767D03*
X0256481Y0080867D03*
X0256481Y0080967D03*
X0256481Y0081067D03*
X0256481Y0081167D03*
X0256081Y0081767D03*
X0255581Y0082367D03*
X0255481Y0082467D03*
X0255381Y0082767D03*
X0255381Y0082867D03*
X0255381Y0083167D03*
X0255381Y0083367D03*
X0255381Y0083467D03*
X0255381Y0083567D03*
X0255381Y0083767D03*
X0255381Y0083867D03*
X0255381Y0083967D03*
X0255381Y0084067D03*
X0255381Y0084167D03*
X0255381Y0084267D03*
X0255381Y0084367D03*
X0255381Y0084467D03*
X0255381Y0084567D03*
X0255381Y0084667D03*
X0255381Y0084767D03*
X0255381Y0084867D03*
X0255381Y0084967D03*
X0255381Y0085067D03*
X0255381Y0085167D03*
X0255381Y0085267D03*
X0255381Y0085367D03*
X0255381Y0085467D03*
X0255381Y0085567D03*
X0255381Y0085667D03*
X0255381Y0085767D03*
X0255381Y0085867D03*
X0255381Y0085967D03*
X0255381Y0086067D03*
X0255681Y0086767D03*
X0255381Y0087167D03*
X0257181Y0086767D03*
X0257181Y0086567D03*
X0257581Y0086067D03*
X0257581Y0085967D03*
X0257581Y0085867D03*
X0257581Y0085767D03*
X0257581Y0085667D03*
X0257581Y0085567D03*
X0257581Y0085467D03*
X0257581Y0085367D03*
X0257581Y0085267D03*
X0257581Y0085167D03*
X0257581Y0085067D03*
X0257581Y0084967D03*
X0257581Y0084867D03*
X0257581Y0084767D03*
X0257581Y0084667D03*
X0257581Y0084567D03*
X0257581Y0084467D03*
X0257581Y0084367D03*
X0257581Y0084267D03*
X0257581Y0084167D03*
X0257581Y0084067D03*
X0257581Y0083967D03*
X0257581Y0083867D03*
X0257581Y0083767D03*
X0257581Y0083667D03*
X0257581Y0083567D03*
X0257581Y0083467D03*
X0257581Y0083367D03*
X0257581Y0083267D03*
X0257581Y0083167D03*
X0257581Y0083067D03*
X0257581Y0082967D03*
X0257581Y0082867D03*
X0257581Y0082767D03*
X0257581Y0082667D03*
X0257581Y0082567D03*
X0259681Y0082667D03*
X0259681Y0082767D03*
X0259681Y0082867D03*
X0259681Y0082967D03*
X0259681Y0083067D03*
X0259681Y0083167D03*
X0259681Y0083267D03*
X0259681Y0083367D03*
X0259681Y0083467D03*
X0259681Y0083567D03*
X0259681Y0083667D03*
X0259681Y0083767D03*
X0259681Y0083867D03*
X0259681Y0083967D03*
X0259681Y0084067D03*
X0259681Y0084167D03*
X0259681Y0084267D03*
X0259681Y0084367D03*
X0259681Y0084467D03*
X0259681Y0084567D03*
X0259681Y0084667D03*
X0259681Y0084767D03*
X0259681Y0084867D03*
X0259681Y0084967D03*
X0259681Y0085067D03*
X0259681Y0085167D03*
X0259681Y0085267D03*
X0259681Y0085367D03*
X0259681Y0085467D03*
X0259681Y0085567D03*
X0259681Y0085667D03*
X0259681Y0085767D03*
X0259681Y0085867D03*
X0259681Y0085967D03*
X0259681Y0086067D03*
X0259981Y0086567D03*
X0259681Y0087167D03*
X0261781Y0087167D03*
X0262081Y0086767D03*
X0262081Y0086567D03*
X0261781Y0086067D03*
X0261781Y0085967D03*
X0261781Y0085867D03*
X0261781Y0085767D03*
X0261781Y0085667D03*
X0261781Y0085567D03*
X0261781Y0085467D03*
X0261781Y0085367D03*
X0261781Y0085267D03*
X0261781Y0085167D03*
X0261781Y0085067D03*
X0261781Y0084967D03*
X0261781Y0084867D03*
X0261781Y0084767D03*
X0261781Y0084667D03*
X0261781Y0084567D03*
X0261781Y0084467D03*
X0261781Y0084367D03*
X0261781Y0084267D03*
X0261781Y0084167D03*
X0261781Y0084067D03*
X0261781Y0083967D03*
X0261781Y0083867D03*
X0261781Y0083767D03*
X0261781Y0083667D03*
X0261781Y0083567D03*
X0261781Y0083467D03*
X0261781Y0083367D03*
X0261781Y0083267D03*
X0261781Y0083167D03*
X0261781Y0083067D03*
X0261781Y0082967D03*
X0261781Y0082867D03*
X0261781Y0082767D03*
X0261781Y0082667D03*
X0261781Y0082567D03*
X0260781Y0081267D03*
X0260781Y0081167D03*
X0260781Y0081067D03*
X0260781Y0080967D03*
X0260781Y0080867D03*
X0260781Y0080767D03*
X0260781Y0080667D03*
X0260781Y0080567D03*
X0260781Y0080467D03*
X0260781Y0080367D03*
X0260781Y0080267D03*
X0260781Y0080167D03*
X0260781Y0080067D03*
X0260781Y0079967D03*
X0260781Y0079867D03*
X0260781Y0079767D03*
X0260781Y0079667D03*
X0260781Y0079567D03*
X0260781Y0079467D03*
X0260781Y0079367D03*
X0260781Y0079267D03*
X0260781Y0079167D03*
X0260781Y0079067D03*
X0260781Y0078967D03*
X0260781Y0078867D03*
X0260781Y0078767D03*
X0260781Y0078667D03*
X0260781Y0078567D03*
X0260781Y0078467D03*
X0260781Y0078367D03*
X0260781Y0078267D03*
X0260781Y0078167D03*
X0260781Y0078067D03*
X0260781Y0077967D03*
X0260781Y0077867D03*
X0260781Y0077767D03*
X0260781Y0077667D03*
X0260781Y0077567D03*
X0260781Y0077467D03*
X0260781Y0077367D03*
X0260781Y0077267D03*
X0260781Y0077167D03*
X0260781Y0077067D03*
X0260781Y0076967D03*
X0260781Y0076867D03*
X0260781Y0076767D03*
X0260781Y0076667D03*
X0260781Y0076567D03*
X0260781Y0076467D03*
X0260781Y0076367D03*
X0260781Y0076267D03*
X0260781Y0076167D03*
X0260781Y0076067D03*
X0260781Y0075967D03*
X0260781Y0075867D03*
X0260781Y0075767D03*
X0260781Y0075667D03*
X0260781Y0075567D03*
X0260781Y0075467D03*
X0260781Y0075367D03*
X0260781Y0075267D03*
X0260781Y0075167D03*
X0260781Y0075067D03*
X0260781Y0074967D03*
X0260781Y0074867D03*
X0260781Y0074767D03*
X0260781Y0074667D03*
X0260781Y0074567D03*
X0260781Y0074467D03*
X0262081Y0077067D03*
X0262681Y0077367D03*
X0262781Y0077067D03*
X0264081Y0077167D03*
X0264781Y0077267D03*
X0264681Y0077567D03*
X0265481Y0078767D03*
X0265481Y0078867D03*
X0265481Y0078967D03*
X0265481Y0079067D03*
X0265481Y0079167D03*
X0265481Y0079267D03*
X0265481Y0079367D03*
X0265481Y0079467D03*
X0265481Y0079567D03*
X0265481Y0079667D03*
X0265481Y0079767D03*
X0265481Y0079867D03*
X0265481Y0079967D03*
X0265481Y0080067D03*
X0265481Y0080167D03*
X0265481Y0080267D03*
X0265481Y0080367D03*
X0265481Y0080467D03*
X0265481Y0080567D03*
X0265481Y0080667D03*
X0265481Y0080767D03*
X0265481Y0080867D03*
X0265481Y0080967D03*
X0265481Y0081067D03*
X0265181Y0081667D03*
X0264781Y0082167D03*
X0264681Y0082267D03*
X0264481Y0082567D03*
X0264481Y0082667D03*
X0264481Y0082767D03*
X0264481Y0082867D03*
X0264481Y0082967D03*
X0264481Y0083067D03*
X0264481Y0083167D03*
X0264481Y0083267D03*
X0264481Y0083367D03*
X0264481Y0083467D03*
X0264481Y0083567D03*
X0264481Y0083667D03*
X0264481Y0083767D03*
X0264481Y0083867D03*
X0264481Y0083967D03*
X0264481Y0084067D03*
X0264481Y0084167D03*
X0264481Y0084267D03*
X0264481Y0084367D03*
X0264481Y0084467D03*
X0264481Y0084567D03*
X0264481Y0084667D03*
X0264481Y0084767D03*
X0264481Y0084867D03*
X0264481Y0084967D03*
X0264481Y0085067D03*
X0264481Y0085167D03*
X0264481Y0085267D03*
X0264481Y0085367D03*
X0264481Y0085467D03*
X0264481Y0085567D03*
X0264481Y0085667D03*
X0264481Y0085767D03*
X0264481Y0085867D03*
X0264481Y0085967D03*
X0264081Y0086467D03*
X0264081Y0086667D03*
X0264381Y0087067D03*
X0264681Y0086767D03*
X0266281Y0086767D03*
X0266781Y0086767D03*
X0266881Y0086567D03*
X0266881Y0086467D03*
X0266581Y0086067D03*
X0266581Y0085967D03*
X0266581Y0085867D03*
X0266581Y0085767D03*
X0266581Y0085667D03*
X0266581Y0085567D03*
X0266581Y0085467D03*
X0266581Y0085367D03*
X0266581Y0085267D03*
X0266581Y0085167D03*
X0266581Y0085067D03*
X0266581Y0084967D03*
X0266581Y0084867D03*
X0266581Y0084767D03*
X0266581Y0084667D03*
X0266581Y0084567D03*
X0266581Y0084467D03*
X0266581Y0084367D03*
X0266581Y0084267D03*
X0266581Y0084167D03*
X0266581Y0084067D03*
X0266581Y0083967D03*
X0266581Y0083867D03*
X0266581Y0083767D03*
X0266581Y0083667D03*
X0266581Y0083567D03*
X0266581Y0083467D03*
X0266581Y0083367D03*
X0266581Y0083267D03*
X0266581Y0083167D03*
X0266581Y0083067D03*
X0266581Y0082967D03*
X0266581Y0082867D03*
X0266581Y0082767D03*
X0266581Y0082667D03*
X0266581Y0082567D03*
X0268181Y0082667D03*
X0268181Y0082767D03*
X0268181Y0082867D03*
X0268181Y0082967D03*
X0268181Y0083067D03*
X0268181Y0083167D03*
X0268181Y0083267D03*
X0268181Y0083367D03*
X0268181Y0083467D03*
X0268181Y0083567D03*
X0268181Y0083667D03*
X0268181Y0083767D03*
X0268181Y0083867D03*
X0268181Y0083967D03*
X0268181Y0084067D03*
X0268181Y0084167D03*
X0268181Y0084267D03*
X0268181Y0084367D03*
X0268181Y0084467D03*
X0268181Y0084567D03*
X0268181Y0084667D03*
X0268181Y0084767D03*
X0268181Y0084867D03*
X0268181Y0084967D03*
X0268181Y0085067D03*
X0268181Y0085167D03*
X0268181Y0085267D03*
X0268181Y0085367D03*
X0268181Y0085467D03*
X0268181Y0085567D03*
X0268181Y0085667D03*
X0268181Y0085767D03*
X0268181Y0085867D03*
X0268181Y0085967D03*
X0268481Y0086467D03*
X0268381Y0086767D03*
X0268181Y0087067D03*
X0267881Y0086767D03*
X0270381Y0085267D03*
X0270381Y0085167D03*
X0270381Y0085067D03*
X0270381Y0084967D03*
X0270381Y0084867D03*
X0270381Y0084767D03*
X0270381Y0084667D03*
X0270381Y0084567D03*
X0270381Y0084467D03*
X0270381Y0084367D03*
X0270381Y0084267D03*
X0270381Y0084167D03*
X0270381Y0084067D03*
X0270381Y0083967D03*
X0270381Y0083867D03*
X0270381Y0083767D03*
X0270381Y0083667D03*
X0270381Y0083567D03*
X0270381Y0083467D03*
X0270381Y0083367D03*
X0270381Y0083267D03*
X0270381Y0083167D03*
X0270381Y0083067D03*
X0270381Y0082967D03*
X0270381Y0082867D03*
X0270381Y0082767D03*
X0270381Y0082667D03*
X0270381Y0082567D03*
X0268881Y0081767D03*
X0268781Y0081867D03*
X0268381Y0082367D03*
X0268281Y0082467D03*
X0269281Y0081167D03*
X0269281Y0081067D03*
X0269281Y0080967D03*
X0269281Y0080867D03*
X0269281Y0080767D03*
X0269281Y0080667D03*
X0269281Y0080567D03*
X0269281Y0080467D03*
X0269281Y0080367D03*
X0269281Y0080267D03*
X0269281Y0080167D03*
X0269281Y0080067D03*
X0269281Y0079967D03*
X0269281Y0079867D03*
X0269281Y0079767D03*
X0269281Y0079667D03*
X0269281Y0079567D03*
X0269281Y0079467D03*
X0269281Y0079367D03*
X0269281Y0079267D03*
X0269281Y0079167D03*
X0269281Y0079067D03*
X0269281Y0078967D03*
X0269281Y0078867D03*
X0269281Y0078767D03*
X0269281Y0078667D03*
X0269281Y0078567D03*
X0269281Y0078467D03*
X0269281Y0078367D03*
X0269281Y0078267D03*
X0269281Y0078167D03*
X0269281Y0078067D03*
X0269281Y0077967D03*
X0269281Y0077867D03*
X0269281Y0077767D03*
X0269281Y0077667D03*
X0269281Y0077567D03*
X0269281Y0077267D03*
X0269281Y0077167D03*
X0270381Y0075767D03*
X0270681Y0075367D03*
X0270381Y0074667D03*
X0270881Y0071567D03*
X0271181Y0071167D03*
X0270881Y0070467D03*
X0270781Y0067367D03*
X0271281Y0067367D03*
X0270681Y0065867D03*
X0270481Y0065567D03*
X0270981Y0065467D03*
X0270981Y0065167D03*
X0269081Y0063667D03*
X0267881Y0062867D03*
X0267781Y0062967D03*
X0267681Y0063067D03*
X0267481Y0063367D03*
X0267381Y0063467D03*
X0267281Y0063567D03*
X0266181Y0060867D03*
X0264681Y0059967D03*
X0264581Y0060067D03*
X0264481Y0060167D03*
X0264381Y0060267D03*
X0264181Y0060567D03*
X0263481Y0057267D03*
X0261981Y0056367D03*
X0261881Y0056467D03*
X0261781Y0056567D03*
X0261681Y0056667D03*
X0261581Y0056867D03*
X0266181Y0055367D03*
X0267081Y0055767D03*
X0267181Y0055667D03*
X0264781Y0052967D03*
X0264881Y0052867D03*
X0265081Y0052567D03*
X0265181Y0052467D03*
X0265281Y0052367D03*
X0265381Y0052267D03*
X0265681Y0051767D03*
X0265581Y0051667D03*
X0265481Y0051567D03*
X0265381Y0051467D03*
X0265281Y0051267D03*
X0265181Y0051167D03*
X0265081Y0051067D03*
X0264981Y0050967D03*
X0264681Y0050567D03*
X0264681Y0050467D03*
X0264781Y0050367D03*
X0264881Y0050267D03*
X0264981Y0050167D03*
X0265081Y0049967D03*
X0266281Y0050767D03*
X0265981Y0052167D03*
X0263481Y0052167D03*
X0269081Y0049067D03*
X0253781Y0050667D03*
X0253781Y0050767D03*
X0253781Y0050867D03*
X0253781Y0050967D03*
X0253481Y0050267D03*
X0251981Y0049767D03*
X0251981Y0049467D03*
X0251681Y0049067D03*
X0251381Y0049467D03*
X0251381Y0049767D03*
X0251681Y0050367D03*
X0251681Y0050467D03*
X0251681Y0050967D03*
X0251781Y0051267D03*
X0249081Y0051267D03*
X0249081Y0051367D03*
X0249081Y0051467D03*
X0249081Y0051567D03*
X0249081Y0051667D03*
X0249081Y0051767D03*
X0249081Y0051867D03*
X0249081Y0051967D03*
X0249081Y0052067D03*
X0249081Y0052167D03*
X0248181Y0051767D03*
X0248181Y0051567D03*
X0248081Y0051467D03*
X0247881Y0051067D03*
X0247881Y0050967D03*
X0247881Y0050867D03*
X0247881Y0050767D03*
X0247881Y0050667D03*
X0247881Y0050567D03*
X0247881Y0050467D03*
X0247881Y0050367D03*
X0247881Y0050267D03*
X0247881Y0050167D03*
X0247881Y0050067D03*
X0247881Y0049967D03*
X0247881Y0049867D03*
X0247881Y0049767D03*
X0247881Y0049667D03*
X0247881Y0049567D03*
X0247881Y0049467D03*
X0247881Y0049367D03*
X0247881Y0049267D03*
X0247881Y0049167D03*
X0247881Y0049067D03*
X0247881Y0048967D03*
X0247881Y0048867D03*
X0247881Y0048767D03*
X0247881Y0048667D03*
X0247881Y0048567D03*
X0247881Y0048467D03*
X0247881Y0048367D03*
X0247881Y0048267D03*
X0247881Y0048167D03*
X0247881Y0048067D03*
X0247881Y0047967D03*
X0247881Y0047867D03*
X0247881Y0047767D03*
X0249081Y0047867D03*
X0249081Y0047967D03*
X0249081Y0048067D03*
X0249081Y0048167D03*
X0249081Y0048267D03*
X0249081Y0048367D03*
X0249081Y0048467D03*
X0249081Y0048567D03*
X0249081Y0048667D03*
X0249081Y0048767D03*
X0249081Y0048867D03*
X0249081Y0048967D03*
X0249081Y0049067D03*
X0249081Y0049167D03*
X0249081Y0049267D03*
X0249081Y0049367D03*
X0249081Y0049467D03*
X0249081Y0049567D03*
X0249081Y0049667D03*
X0249081Y0049767D03*
X0249081Y0049867D03*
X0249081Y0049967D03*
X0249081Y0050067D03*
X0249081Y0050167D03*
X0249081Y0050267D03*
X0249081Y0050367D03*
X0249081Y0050467D03*
X0249081Y0050567D03*
X0249081Y0050667D03*
X0249081Y0050767D03*
X0249081Y0050867D03*
X0249081Y0050967D03*
X0249081Y0051067D03*
X0249081Y0051167D03*
X0247581Y0051467D03*
X0246581Y0049667D03*
X0246881Y0049267D03*
X0246881Y0049067D03*
X0246581Y0048567D03*
X0246581Y0048467D03*
X0246581Y0048367D03*
X0246581Y0048267D03*
X0246581Y0048167D03*
X0246581Y0048067D03*
X0246581Y0047967D03*
X0246581Y0047867D03*
X0244781Y0047867D03*
X0244781Y0047967D03*
X0244781Y0048067D03*
X0244781Y0048167D03*
X0244781Y0048267D03*
X0244781Y0048367D03*
X0244781Y0048467D03*
X0244781Y0048567D03*
X0244381Y0049067D03*
X0244381Y0049267D03*
X0244681Y0049667D03*
X0243281Y0049667D03*
X0243281Y0049767D03*
X0243281Y0049867D03*
X0243281Y0049967D03*
X0243281Y0050067D03*
X0243281Y0050167D03*
X0243281Y0050267D03*
X0243281Y0050367D03*
X0243281Y0050467D03*
X0243281Y0050567D03*
X0243481Y0050967D03*
X0242881Y0051067D03*
X0242881Y0051267D03*
X0243281Y0049567D03*
X0243281Y0049467D03*
X0243281Y0049367D03*
X0243281Y0049267D03*
X0243281Y0049167D03*
X0243281Y0049067D03*
X0243281Y0048967D03*
X0243281Y0048867D03*
X0243281Y0048767D03*
X0243281Y0048667D03*
X0243281Y0048567D03*
X0243281Y0048467D03*
X0243281Y0048367D03*
X0243281Y0048267D03*
X0243281Y0048167D03*
X0243281Y0048067D03*
X0243281Y0047967D03*
X0243281Y0047867D03*
X0243281Y0047767D03*
X0241881Y0047867D03*
X0241881Y0047967D03*
X0241881Y0048067D03*
X0241881Y0048167D03*
X0241881Y0048267D03*
X0241881Y0048367D03*
X0241881Y0048467D03*
X0241881Y0048567D03*
X0241881Y0048667D03*
X0241881Y0048767D03*
X0241881Y0048867D03*
X0241881Y0048967D03*
X0241881Y0049067D03*
X0241881Y0049167D03*
X0241881Y0049267D03*
X0241881Y0049367D03*
X0241881Y0049467D03*
X0241881Y0049567D03*
X0241881Y0049667D03*
X0244781Y0047767D03*
X0250481Y0047667D03*
X0269081Y0058867D03*
X0270581Y0060067D03*
X0270681Y0059967D03*
X0270781Y0059867D03*
X0270881Y0059767D03*
X0270981Y0059667D03*
X0271081Y0059467D03*
X0271181Y0059367D03*
X0271281Y0059267D03*
X0271281Y0058467D03*
X0271181Y0058367D03*
X0270981Y0058067D03*
X0264281Y0068867D03*
X0256481Y0075967D03*
X0256481Y0076067D03*
X0256481Y0076167D03*
X0256481Y0076267D03*
X0256481Y0076367D03*
X0256481Y0076467D03*
X0256481Y0076567D03*
X0256481Y0076667D03*
X0256481Y0076767D03*
X0256481Y0076867D03*
X0256481Y0076967D03*
X0256481Y0077067D03*
X0256481Y0077167D03*
X0256481Y0077267D03*
X0256481Y0077367D03*
X0256481Y0077467D03*
X0256481Y0077567D03*
X0256481Y0077667D03*
X0256481Y0077767D03*
X0256481Y0077867D03*
X0256481Y0077967D03*
X0256481Y0078067D03*
X0256481Y0078167D03*
X0256481Y0078267D03*
X0256481Y0078367D03*
X0256481Y0078467D03*
X0256481Y0078567D03*
X0256481Y0078667D03*
X0256481Y0078767D03*
X0256481Y0078867D03*
X0256481Y0078967D03*
X0256481Y0079067D03*
X0257281Y0077567D03*
X0257281Y0077167D03*
X0257881Y0077567D03*
X0260081Y0082167D03*
X0250481Y0078967D03*
X0250381Y0079267D03*
X0247481Y0079267D03*
X0247481Y0079367D03*
X0247481Y0079467D03*
X0247481Y0079567D03*
X0247481Y0079667D03*
X0247481Y0079167D03*
X0247481Y0079067D03*
X0247481Y0078967D03*
X0247481Y0078867D03*
X0246381Y0085967D03*
X0246381Y0086067D03*
X0246381Y0086167D03*
X0246581Y0086567D03*
X0246681Y0086667D03*
X0246681Y0086867D03*
X0246081Y0086567D03*
X0248181Y0086567D03*
X0248181Y0086867D03*
X0248481Y0087267D03*
X0248781Y0086867D03*
X0248781Y0086567D03*
X0257481Y0087167D03*
X0250581Y0065367D03*
X0224481Y0047767D03*
X0223281Y0047767D03*
D19*
X0226231Y0047767D03*
X0226231Y0047867D03*
X0226231Y0047967D03*
X0226231Y0048067D03*
X0226231Y0048167D03*
X0226231Y0048267D03*
X0226231Y0048367D03*
X0226231Y0048467D03*
X0226231Y0048567D03*
X0226231Y0048667D03*
X0226231Y0048767D03*
X0226231Y0048867D03*
X0226231Y0048967D03*
X0226231Y0049067D03*
X0226231Y0049167D03*
X0226231Y0049267D03*
X0226231Y0049367D03*
X0226231Y0049467D03*
X0226231Y0049567D03*
X0226231Y0049667D03*
X0226231Y0049767D03*
X0226231Y0049867D03*
X0226231Y0049967D03*
X0226231Y0050067D03*
X0226231Y0050167D03*
X0226231Y0050267D03*
X0226231Y0050367D03*
X0226231Y0050467D03*
X0226231Y0050567D03*
X0226231Y0050667D03*
X0226231Y0050767D03*
X0225331Y0052967D03*
X0222531Y0052967D03*
X0222531Y0052867D03*
X0222531Y0052767D03*
X0222531Y0052667D03*
X0222531Y0052567D03*
X0222531Y0052467D03*
X0222531Y0052367D03*
X0222531Y0052267D03*
X0222531Y0052167D03*
X0222531Y0052067D03*
X0222531Y0051967D03*
X0222531Y0051867D03*
X0222531Y0051767D03*
X0222531Y0051667D03*
X0222531Y0051567D03*
X0222531Y0051467D03*
X0220331Y0047767D03*
X0217231Y0047767D03*
X0213431Y0051267D03*
X0213431Y0051467D03*
X0213431Y0051567D03*
X0213431Y0051667D03*
X0213431Y0051767D03*
X0213431Y0051867D03*
X0213431Y0051967D03*
X0213431Y0052067D03*
X0213431Y0052167D03*
X0213431Y0052267D03*
X0213431Y0052367D03*
X0213431Y0052467D03*
X0213431Y0052567D03*
X0213431Y0052667D03*
X0213431Y0052767D03*
X0213431Y0052867D03*
X0213431Y0052967D03*
X0216531Y0052967D03*
X0211131Y0050767D03*
X0211131Y0050467D03*
X0211131Y0050167D03*
X0211131Y0050067D03*
X0211131Y0049967D03*
X0211131Y0049867D03*
X0211131Y0049767D03*
X0211131Y0049667D03*
X0211131Y0049567D03*
X0211131Y0049467D03*
X0211131Y0049367D03*
X0211131Y0049267D03*
X0211131Y0049167D03*
X0211131Y0049067D03*
X0211131Y0048967D03*
X0211131Y0048867D03*
X0211131Y0048767D03*
X0211131Y0048667D03*
X0211131Y0048567D03*
X0211131Y0048467D03*
X0211131Y0048367D03*
X0211131Y0048267D03*
X0211131Y0048167D03*
X0211131Y0048067D03*
X0211131Y0047967D03*
X0210631Y0051267D03*
X0209131Y0057367D03*
X0209131Y0058367D03*
X0207231Y0059367D03*
X0207231Y0060367D03*
X0207431Y0068067D03*
X0207431Y0069067D03*
X0206931Y0076967D03*
X0206931Y0077067D03*
X0222031Y0078067D03*
X0222131Y0078167D03*
X0222231Y0078267D03*
X0222431Y0078567D03*
X0222531Y0078667D03*
X0222631Y0078767D03*
X0222731Y0078967D03*
X0227631Y0069067D03*
X0234331Y0068867D03*
X0234431Y0068967D03*
X0234731Y0069367D03*
X0234831Y0069467D03*
X0234931Y0069567D03*
X0235031Y0069767D03*
X0235131Y0069867D03*
X0235231Y0069967D03*
X0235331Y0070067D03*
X0233131Y0061267D03*
X0233031Y0061167D03*
X0232931Y0061067D03*
X0232831Y0060867D03*
X0232731Y0060767D03*
X0232631Y0060667D03*
X0232331Y0060267D03*
X0232231Y0060167D03*
X0237631Y0057567D03*
X0237731Y0057467D03*
X0237831Y0057367D03*
X0237931Y0057267D03*
X0238031Y0057167D03*
X0238231Y0056867D03*
X0238331Y0056767D03*
X0238431Y0056667D03*
X0238531Y0056567D03*
X0238731Y0056267D03*
X0238831Y0056167D03*
X0238931Y0056067D03*
X0239131Y0055767D03*
X0239231Y0055667D03*
X0239331Y0055567D03*
X0239431Y0055467D03*
X0239631Y0055167D03*
X0239731Y0055067D03*
X0239831Y0054967D03*
X0239931Y0054867D03*
X0240131Y0054567D03*
X0240231Y0054467D03*
X0240331Y0054367D03*
X0240431Y0054267D03*
X0240531Y0054067D03*
X0240631Y0053967D03*
X0240731Y0053867D03*
X0240831Y0053767D03*
X0241031Y0053467D03*
X0241131Y0053367D03*
X0241231Y0053267D03*
X0241331Y0053167D03*
X0241631Y0052767D03*
X0241731Y0052667D03*
X0241831Y0052567D03*
X0242931Y0050967D03*
X0243231Y0050667D03*
X0244731Y0048667D03*
X0243231Y0047667D03*
X0241831Y0047667D03*
X0241831Y0047767D03*
X0246631Y0047767D03*
X0246631Y0047667D03*
X0246631Y0048667D03*
X0249031Y0047667D03*
X0249131Y0047767D03*
X0250531Y0047767D03*
X0250531Y0047867D03*
X0250531Y0047967D03*
X0250531Y0048067D03*
X0250531Y0048167D03*
X0250531Y0048267D03*
X0250531Y0048367D03*
X0250531Y0048467D03*
X0250531Y0048567D03*
X0250531Y0048667D03*
X0250531Y0048767D03*
X0250531Y0048867D03*
X0250531Y0048967D03*
X0250531Y0049067D03*
X0250531Y0049167D03*
X0250531Y0049267D03*
X0250531Y0049367D03*
X0250531Y0049467D03*
X0250531Y0049567D03*
X0250531Y0049667D03*
X0250531Y0049767D03*
X0250531Y0049867D03*
X0250531Y0049967D03*
X0250531Y0050067D03*
X0250531Y0050167D03*
X0250531Y0050267D03*
X0250531Y0050367D03*
X0250531Y0050467D03*
X0250531Y0050567D03*
X0250531Y0050667D03*
X0250531Y0050767D03*
X0250531Y0050867D03*
X0250531Y0050967D03*
X0250531Y0051067D03*
X0250531Y0051167D03*
X0250531Y0051267D03*
X0250531Y0051367D03*
X0250531Y0051467D03*
X0250531Y0051567D03*
X0250531Y0051667D03*
X0250531Y0051767D03*
X0250531Y0051867D03*
X0250531Y0051967D03*
X0250531Y0052067D03*
X0250531Y0052167D03*
X0250531Y0052267D03*
X0250631Y0052367D03*
X0250731Y0052467D03*
X0250831Y0052567D03*
X0251031Y0052867D03*
X0251131Y0052967D03*
X0251231Y0053067D03*
X0251331Y0053167D03*
X0251431Y0053367D03*
X0251531Y0053467D03*
X0251631Y0053567D03*
X0251731Y0053667D03*
X0251831Y0053767D03*
X0252031Y0054067D03*
X0252131Y0054167D03*
X0252231Y0054267D03*
X0252331Y0054367D03*
X0252431Y0054567D03*
X0252531Y0054667D03*
X0252631Y0054767D03*
X0252731Y0054867D03*
X0252831Y0054967D03*
X0252931Y0055167D03*
X0253031Y0055267D03*
X0253131Y0055367D03*
X0253231Y0055467D03*
X0253331Y0055567D03*
X0253431Y0055767D03*
X0253531Y0055867D03*
X0253631Y0055967D03*
X0253731Y0056067D03*
X0253831Y0056167D03*
X0253931Y0056367D03*
X0254031Y0056467D03*
X0254131Y0056567D03*
X0254231Y0056667D03*
X0254431Y0056967D03*
X0254531Y0057067D03*
X0254631Y0057167D03*
X0254731Y0057267D03*
X0254831Y0057467D03*
X0254931Y0057567D03*
X0255031Y0057667D03*
X0255131Y0057767D03*
X0255231Y0057867D03*
X0255331Y0058067D03*
X0255431Y0058167D03*
X0255531Y0058267D03*
X0255631Y0058367D03*
X0255731Y0058467D03*
X0255831Y0058667D03*
X0255931Y0058767D03*
X0256031Y0058867D03*
X0256131Y0058967D03*
X0256331Y0059267D03*
X0256431Y0059367D03*
X0256531Y0059467D03*
X0256631Y0059567D03*
X0256731Y0059667D03*
X0256731Y0059767D03*
X0256831Y0059867D03*
X0256931Y0059967D03*
X0257031Y0060067D03*
X0257131Y0060167D03*
X0257231Y0060267D03*
X0257331Y0060467D03*
X0257431Y0060567D03*
X0257531Y0060667D03*
X0257631Y0060767D03*
X0257831Y0061067D03*
X0257931Y0061167D03*
X0258031Y0061267D03*
X0258131Y0061367D03*
X0258231Y0061567D03*
X0258331Y0061667D03*
X0258431Y0061767D03*
X0258531Y0061867D03*
X0258631Y0061967D03*
X0258731Y0062167D03*
X0258831Y0062267D03*
X0258931Y0062367D03*
X0259031Y0062467D03*
X0259131Y0062567D03*
X0259231Y0062767D03*
X0259331Y0062867D03*
X0259431Y0062967D03*
X0259531Y0063067D03*
X0259631Y0063167D03*
X0259631Y0063267D03*
X0259731Y0063367D03*
X0259831Y0063467D03*
X0259931Y0063567D03*
X0260031Y0063667D03*
X0260131Y0063767D03*
X0260131Y0063867D03*
X0260231Y0063967D03*
X0260331Y0064067D03*
X0260431Y0064167D03*
X0260531Y0064267D03*
X0260731Y0064567D03*
X0260831Y0064667D03*
X0260931Y0064767D03*
X0261031Y0064867D03*
X0261131Y0065067D03*
X0261231Y0065167D03*
X0261331Y0065267D03*
X0261431Y0065367D03*
X0261531Y0065467D03*
X0261631Y0065667D03*
X0261731Y0065767D03*
X0261831Y0065867D03*
X0261931Y0065967D03*
X0262031Y0066067D03*
X0262131Y0066267D03*
X0262231Y0066367D03*
X0262331Y0066467D03*
X0262431Y0066567D03*
X0262531Y0066667D03*
X0262531Y0066767D03*
X0262631Y0066867D03*
X0262731Y0066967D03*
X0262831Y0067067D03*
X0262931Y0067167D03*
X0263031Y0067267D03*
X0263031Y0067367D03*
X0263131Y0067467D03*
X0263231Y0067567D03*
X0263331Y0067667D03*
X0263431Y0067767D03*
X0263531Y0067967D03*
X0263631Y0068067D03*
X0263731Y0068167D03*
X0263831Y0068267D03*
X0263931Y0068367D03*
X0264031Y0068567D03*
X0264131Y0068667D03*
X0264231Y0068767D03*
X0263231Y0069767D03*
X0263131Y0069667D03*
X0263031Y0069567D03*
X0262831Y0069267D03*
X0262731Y0069167D03*
X0262631Y0069067D03*
X0262531Y0068967D03*
X0262031Y0068367D03*
X0261831Y0068067D03*
X0261731Y0067967D03*
X0261631Y0067867D03*
X0261531Y0067767D03*
X0261431Y0067667D03*
X0261331Y0067467D03*
X0261231Y0067367D03*
X0261131Y0067267D03*
X0261031Y0067167D03*
X0260231Y0067067D03*
X0260131Y0067167D03*
X0260031Y0067367D03*
X0259931Y0067467D03*
X0259831Y0067567D03*
X0259731Y0067667D03*
X0259531Y0067967D03*
X0259431Y0068067D03*
X0259331Y0068167D03*
X0259231Y0068267D03*
X0259131Y0068367D03*
X0259031Y0068567D03*
X0258931Y0068667D03*
X0258831Y0068767D03*
X0258731Y0068867D03*
X0258631Y0069067D03*
X0258531Y0069167D03*
X0258431Y0069267D03*
X0258331Y0069367D03*
X0258231Y0069467D03*
X0258031Y0069767D03*
X0257931Y0069867D03*
X0257831Y0069967D03*
X0257731Y0070067D03*
X0257631Y0070267D03*
X0257531Y0070367D03*
X0257431Y0070467D03*
X0257331Y0070567D03*
X0257131Y0070867D03*
X0257031Y0070967D03*
X0256931Y0071067D03*
X0256831Y0071167D03*
X0256731Y0071267D03*
X0256631Y0071367D03*
X0256631Y0071467D03*
X0256531Y0071567D03*
X0256431Y0071667D03*
X0256331Y0071767D03*
X0256131Y0072067D03*
X0256031Y0072167D03*
X0255931Y0072267D03*
X0255831Y0072367D03*
X0255631Y0072667D03*
X0255531Y0072767D03*
X0255431Y0072867D03*
X0255331Y0072967D03*
X0255231Y0073167D03*
X0255131Y0073267D03*
X0255031Y0073367D03*
X0254931Y0073467D03*
X0254831Y0073567D03*
X0254731Y0073767D03*
X0254631Y0073867D03*
X0254531Y0073967D03*
X0254431Y0074067D03*
X0254331Y0074167D03*
X0254231Y0074367D03*
X0254131Y0074467D03*
X0254031Y0074567D03*
X0253931Y0074667D03*
X0253731Y0074967D03*
X0253631Y0075067D03*
X0253531Y0075167D03*
X0253431Y0075267D03*
X0253331Y0075367D03*
X0253231Y0075467D03*
X0253231Y0075567D03*
X0253131Y0075667D03*
X0253031Y0075767D03*
X0252931Y0075867D03*
X0252731Y0076167D03*
X0252631Y0076267D03*
X0252531Y0076367D03*
X0252431Y0076467D03*
X0252331Y0076667D03*
X0252231Y0076767D03*
X0252131Y0076867D03*
X0252031Y0076967D03*
X0251431Y0077667D03*
X0251331Y0077767D03*
X0251331Y0077867D03*
X0251231Y0077967D03*
X0251131Y0078067D03*
X0251031Y0078167D03*
X0250931Y0078267D03*
X0250831Y0078467D03*
X0250431Y0078867D03*
X0248431Y0077667D03*
X0248331Y0077767D03*
X0248231Y0077867D03*
X0248131Y0077967D03*
X0248031Y0078167D03*
X0247931Y0078267D03*
X0247831Y0078367D03*
X0247731Y0078467D03*
X0247631Y0078567D03*
X0247531Y0078767D03*
X0248631Y0077367D03*
X0248731Y0077267D03*
X0248831Y0077167D03*
X0248931Y0077067D03*
X0249131Y0076767D03*
X0249231Y0076667D03*
X0249331Y0076567D03*
X0249431Y0076467D03*
X0249631Y0076167D03*
X0249731Y0076067D03*
X0249831Y0075967D03*
X0249931Y0075867D03*
X0249931Y0075767D03*
X0250031Y0075667D03*
X0250131Y0075567D03*
X0250231Y0075467D03*
X0250331Y0075367D03*
X0250431Y0075267D03*
X0250631Y0074967D03*
X0250731Y0074867D03*
X0250831Y0074767D03*
X0250931Y0074667D03*
X0250931Y0074567D03*
X0251031Y0074467D03*
X0251131Y0074367D03*
X0251231Y0074267D03*
X0251331Y0074167D03*
X0251431Y0074067D03*
X0251531Y0073867D03*
X0251631Y0073767D03*
X0251731Y0073667D03*
X0251831Y0073567D03*
X0252031Y0073267D03*
X0252131Y0073167D03*
X0252231Y0073067D03*
X0252331Y0072967D03*
X0252431Y0072767D03*
X0252531Y0072667D03*
X0252631Y0072567D03*
X0252731Y0072467D03*
X0252831Y0072367D03*
X0253031Y0072067D03*
X0253131Y0071967D03*
X0253231Y0071867D03*
X0253331Y0071767D03*
X0253331Y0071667D03*
X0253431Y0071567D03*
X0253531Y0071467D03*
X0253631Y0071367D03*
X0253731Y0071267D03*
X0253831Y0071167D03*
X0253931Y0070967D03*
X0254031Y0070867D03*
X0254131Y0070767D03*
X0254231Y0070667D03*
X0254331Y0070467D03*
X0254431Y0070367D03*
X0254531Y0070267D03*
X0254631Y0070167D03*
X0254731Y0070067D03*
X0254931Y0069767D03*
X0255031Y0069667D03*
X0255131Y0069567D03*
X0255231Y0069467D03*
X0255431Y0069167D03*
X0255531Y0069067D03*
X0255631Y0068967D03*
X0255731Y0068867D03*
X0255731Y0068767D03*
X0255831Y0068667D03*
X0255931Y0068567D03*
X0256031Y0068467D03*
X0256131Y0068367D03*
X0256431Y0067967D03*
X0256531Y0067867D03*
X0256631Y0067767D03*
X0256731Y0067567D03*
X0256831Y0067467D03*
X0256931Y0067367D03*
X0257031Y0067267D03*
X0257131Y0067167D03*
X0257331Y0066867D03*
X0257431Y0066767D03*
X0257531Y0066667D03*
X0257631Y0066567D03*
X0257731Y0066367D03*
X0257831Y0066267D03*
X0257931Y0066167D03*
X0258031Y0066067D03*
X0258131Y0065967D03*
X0258231Y0065767D03*
X0258331Y0065667D03*
X0258431Y0065567D03*
X0258531Y0065467D03*
X0258631Y0065367D03*
X0258731Y0065167D03*
X0258931Y0064567D03*
X0258831Y0064467D03*
X0258731Y0064367D03*
X0258631Y0064267D03*
X0258431Y0063967D03*
X0258331Y0063867D03*
X0258231Y0063767D03*
X0258131Y0063667D03*
X0258031Y0063467D03*
X0257931Y0063367D03*
X0257831Y0063267D03*
X0257731Y0063167D03*
X0257631Y0063067D03*
X0257531Y0062867D03*
X0257431Y0062767D03*
X0257331Y0062667D03*
X0257231Y0062567D03*
X0257031Y0062267D03*
X0256931Y0062167D03*
X0256831Y0062067D03*
X0256731Y0061967D03*
X0256631Y0061867D03*
X0256531Y0061667D03*
X0256431Y0061567D03*
X0256331Y0061467D03*
X0256231Y0061367D03*
X0256031Y0061067D03*
X0255931Y0060967D03*
X0255831Y0060867D03*
X0255731Y0060767D03*
X0255531Y0060467D03*
X0255431Y0060367D03*
X0255331Y0060267D03*
X0255231Y0060167D03*
X0255031Y0059867D03*
X0254931Y0059767D03*
X0254831Y0059667D03*
X0254731Y0059567D03*
X0254631Y0059367D03*
X0254531Y0059267D03*
X0254431Y0059167D03*
X0254331Y0059067D03*
X0254231Y0058967D03*
X0254131Y0058767D03*
X0254031Y0058667D03*
X0253931Y0058567D03*
X0253831Y0058467D03*
X0253631Y0058167D03*
X0253531Y0058067D03*
X0253431Y0057967D03*
X0253331Y0057867D03*
X0253231Y0057767D03*
X0253131Y0057567D03*
X0253031Y0057467D03*
X0252931Y0057367D03*
X0252731Y0057067D03*
X0252631Y0056967D03*
X0252531Y0056867D03*
X0252431Y0056767D03*
X0252331Y0056667D03*
X0252231Y0056467D03*
X0252131Y0056367D03*
X0252031Y0056267D03*
X0251931Y0056167D03*
X0251831Y0056067D03*
X0251731Y0055867D03*
X0251631Y0055767D03*
X0251531Y0055667D03*
X0251431Y0055567D03*
X0251331Y0055467D03*
X0251231Y0055267D03*
X0251131Y0055167D03*
X0251031Y0055067D03*
X0250931Y0054967D03*
X0250731Y0054667D03*
X0250631Y0054567D03*
X0250531Y0054467D03*
X0250431Y0054367D03*
X0250231Y0054067D03*
X0250131Y0053967D03*
X0250031Y0053867D03*
X0249931Y0053767D03*
X0249831Y0053667D03*
X0249831Y0053567D03*
X0249731Y0053467D03*
X0249631Y0053367D03*
X0249531Y0053267D03*
X0249131Y0052767D03*
X0249131Y0052667D03*
X0249131Y0052567D03*
X0249131Y0052467D03*
X0249131Y0052367D03*
X0249131Y0052267D03*
X0251831Y0051367D03*
X0251931Y0051567D03*
X0252031Y0051667D03*
X0252131Y0051767D03*
X0252231Y0051867D03*
X0252331Y0051967D03*
X0252431Y0052167D03*
X0252531Y0052267D03*
X0252631Y0052367D03*
X0252731Y0052467D03*
X0252831Y0052567D03*
X0253031Y0052867D03*
X0253131Y0052967D03*
X0253231Y0053067D03*
X0253331Y0053167D03*
X0253431Y0053367D03*
X0253531Y0053467D03*
X0253631Y0053567D03*
X0253731Y0053667D03*
X0253831Y0053767D03*
X0253931Y0053967D03*
X0254031Y0054067D03*
X0254131Y0054167D03*
X0254231Y0054267D03*
X0254331Y0054367D03*
X0254531Y0054667D03*
X0254631Y0054767D03*
X0254731Y0054867D03*
X0254931Y0055167D03*
X0255031Y0055267D03*
X0255131Y0055367D03*
X0255231Y0055467D03*
X0255431Y0055767D03*
X0255531Y0055867D03*
X0255631Y0055967D03*
X0255731Y0056067D03*
X0255831Y0056267D03*
X0255931Y0056367D03*
X0256031Y0056467D03*
X0256131Y0056567D03*
X0256231Y0056667D03*
X0256431Y0056967D03*
X0256531Y0057067D03*
X0256631Y0057167D03*
X0256731Y0057267D03*
X0256831Y0057467D03*
X0256931Y0057567D03*
X0257031Y0057667D03*
X0257131Y0057767D03*
X0257231Y0057867D03*
X0257331Y0058067D03*
X0257431Y0058167D03*
X0257531Y0058267D03*
X0257631Y0058367D03*
X0257931Y0058767D03*
X0258031Y0058867D03*
X0258131Y0058967D03*
X0258331Y0059267D03*
X0258431Y0059367D03*
X0258531Y0059467D03*
X0258631Y0059567D03*
X0258831Y0059867D03*
X0258931Y0059967D03*
X0259031Y0060067D03*
X0259131Y0060167D03*
X0259231Y0060367D03*
X0259331Y0060467D03*
X0259431Y0060567D03*
X0259531Y0060667D03*
X0259631Y0060767D03*
X0259831Y0061067D03*
X0259931Y0061167D03*
X0260031Y0061267D03*
X0260131Y0061367D03*
X0260231Y0061567D03*
X0260331Y0061667D03*
X0260431Y0061767D03*
X0260531Y0061867D03*
X0260731Y0062167D03*
X0260831Y0062267D03*
X0260931Y0062367D03*
X0261031Y0062467D03*
X0261131Y0062667D03*
X0261231Y0062767D03*
X0261331Y0062867D03*
X0261431Y0062967D03*
X0261531Y0063067D03*
X0261631Y0063267D03*
X0261731Y0063367D03*
X0261831Y0063467D03*
X0261931Y0063567D03*
X0262031Y0063667D03*
X0262231Y0063967D03*
X0262331Y0064067D03*
X0262431Y0064167D03*
X0262531Y0064267D03*
X0262531Y0064367D03*
X0262631Y0064467D03*
X0262731Y0064567D03*
X0262831Y0064667D03*
X0262931Y0064767D03*
X0263031Y0064867D03*
X0263231Y0065167D03*
X0263331Y0065267D03*
X0263431Y0065367D03*
X0263631Y0065667D03*
X0263731Y0065767D03*
X0263831Y0065867D03*
X0263931Y0065967D03*
X0264131Y0066267D03*
X0264231Y0066367D03*
X0264331Y0066467D03*
X0264431Y0066567D03*
X0264531Y0066767D03*
X0265031Y0064967D03*
X0264931Y0064767D03*
X0264831Y0064667D03*
X0264731Y0064567D03*
X0264631Y0064467D03*
X0264431Y0064167D03*
X0264331Y0064067D03*
X0264231Y0063967D03*
X0264131Y0063867D03*
X0263931Y0063567D03*
X0263831Y0063467D03*
X0263731Y0063367D03*
X0263631Y0063267D03*
X0263431Y0062967D03*
X0263331Y0062867D03*
X0263231Y0062767D03*
X0263131Y0062667D03*
X0263031Y0062467D03*
X0262931Y0062367D03*
X0262831Y0062267D03*
X0262731Y0062167D03*
X0262531Y0061867D03*
X0262431Y0061767D03*
X0262331Y0061667D03*
X0262231Y0061567D03*
X0262031Y0061267D03*
X0261931Y0061167D03*
X0261831Y0061067D03*
X0261731Y0060967D03*
X0261531Y0060667D03*
X0261431Y0060567D03*
X0261331Y0060467D03*
X0261131Y0060167D03*
X0261031Y0060067D03*
X0260931Y0059967D03*
X0260831Y0059867D03*
X0260731Y0059767D03*
X0260631Y0059567D03*
X0260531Y0059467D03*
X0260431Y0059367D03*
X0260331Y0059267D03*
X0260131Y0058967D03*
X0260031Y0058867D03*
X0259931Y0058767D03*
X0259831Y0058667D03*
X0259631Y0058367D03*
X0259531Y0058267D03*
X0259431Y0058167D03*
X0259331Y0058067D03*
X0259131Y0057767D03*
X0259031Y0057667D03*
X0258931Y0057567D03*
X0258831Y0057467D03*
X0258631Y0057167D03*
X0258531Y0057067D03*
X0258431Y0056967D03*
X0258331Y0056867D03*
X0258231Y0056667D03*
X0258131Y0056567D03*
X0258031Y0056467D03*
X0257931Y0056367D03*
X0257731Y0056067D03*
X0257631Y0055967D03*
X0257531Y0055867D03*
X0257431Y0055767D03*
X0257331Y0055667D03*
X0257231Y0055467D03*
X0257131Y0055367D03*
X0257031Y0055267D03*
X0256931Y0055167D03*
X0256731Y0054867D03*
X0256631Y0054767D03*
X0256531Y0054667D03*
X0256431Y0054567D03*
X0256231Y0054267D03*
X0256131Y0054167D03*
X0256031Y0054067D03*
X0255931Y0053967D03*
X0255731Y0053667D03*
X0255631Y0053567D03*
X0255531Y0053467D03*
X0255231Y0053067D03*
X0255131Y0052967D03*
X0255031Y0052867D03*
X0254931Y0052767D03*
X0254831Y0052567D03*
X0254731Y0052467D03*
X0254631Y0052367D03*
X0254531Y0052267D03*
X0254231Y0051867D03*
X0254131Y0051767D03*
X0254031Y0051667D03*
X0253831Y0051367D03*
X0253831Y0051267D03*
X0253831Y0051167D03*
X0253831Y0051067D03*
X0253731Y0050567D03*
X0251731Y0050567D03*
X0251731Y0050667D03*
X0251731Y0050767D03*
X0251731Y0050867D03*
X0261631Y0056767D03*
X0262031Y0056267D03*
X0263531Y0057167D03*
X0264731Y0059867D03*
X0264331Y0060367D03*
X0264231Y0060467D03*
X0267531Y0063267D03*
X0267631Y0063167D03*
X0269131Y0063567D03*
X0271031Y0066667D03*
X0271031Y0067667D03*
X0267131Y0071367D03*
X0267031Y0071267D03*
X0267231Y0071567D03*
X0267331Y0071667D03*
X0267431Y0071767D03*
X0267531Y0071867D03*
X0267731Y0072167D03*
X0267831Y0072267D03*
X0267931Y0072367D03*
X0268031Y0072467D03*
X0268131Y0072667D03*
X0268231Y0072767D03*
X0268331Y0072867D03*
X0268431Y0072967D03*
X0268531Y0073067D03*
X0268731Y0073367D03*
X0268831Y0073467D03*
X0268931Y0073567D03*
X0269031Y0073667D03*
X0269131Y0073867D03*
X0269231Y0073967D03*
X0269331Y0074067D03*
X0269431Y0074167D03*
X0269531Y0074267D03*
X0269631Y0074467D03*
X0269731Y0074567D03*
X0269831Y0074667D03*
X0268431Y0076067D03*
X0268531Y0076167D03*
X0268631Y0076267D03*
X0268831Y0076567D03*
X0268931Y0076667D03*
X0269031Y0076767D03*
X0269231Y0077067D03*
X0269331Y0077367D03*
X0269331Y0077467D03*
X0267731Y0076067D03*
X0267631Y0076167D03*
X0267531Y0076267D03*
X0267431Y0076367D03*
X0267331Y0076567D03*
X0267231Y0076667D03*
X0267131Y0076767D03*
X0266831Y0077167D03*
X0266731Y0077267D03*
X0266631Y0077367D03*
X0266531Y0077467D03*
X0266431Y0077667D03*
X0266331Y0077767D03*
X0266231Y0077867D03*
X0266131Y0077967D03*
X0266031Y0078067D03*
X0265931Y0078267D03*
X0265831Y0078367D03*
X0265731Y0078467D03*
X0265631Y0078567D03*
X0265531Y0078667D03*
X0264431Y0077867D03*
X0264731Y0077167D03*
X0265131Y0076667D03*
X0265231Y0076567D03*
X0265331Y0076467D03*
X0265431Y0076367D03*
X0265631Y0076067D03*
X0265731Y0075967D03*
X0265831Y0075867D03*
X0265931Y0075767D03*
X0266031Y0075567D03*
X0266131Y0075467D03*
X0266231Y0075367D03*
X0266331Y0075267D03*
X0266431Y0075167D03*
X0266531Y0074967D03*
X0266631Y0074867D03*
X0267031Y0074367D03*
X0266931Y0074267D03*
X0266831Y0074167D03*
X0266631Y0073867D03*
X0266531Y0073767D03*
X0266431Y0073667D03*
X0265931Y0073067D03*
X0265831Y0072967D03*
X0265731Y0072767D03*
X0265631Y0072667D03*
X0265531Y0072567D03*
X0265431Y0072467D03*
X0265231Y0072167D03*
X0265131Y0072067D03*
X0265031Y0071967D03*
X0264931Y0071867D03*
X0264831Y0071767D03*
X0264731Y0071567D03*
X0264631Y0071467D03*
X0264531Y0071367D03*
X0264431Y0071267D03*
X0264231Y0070967D03*
X0264131Y0070867D03*
X0264031Y0070767D03*
X0263331Y0070667D03*
X0263231Y0070767D03*
X0263131Y0070867D03*
X0263031Y0070967D03*
X0262931Y0071067D03*
X0262931Y0071167D03*
X0262831Y0071267D03*
X0262731Y0071367D03*
X0262631Y0071467D03*
X0262531Y0071567D03*
X0262431Y0071667D03*
X0262331Y0071867D03*
X0262231Y0071967D03*
X0262131Y0072067D03*
X0261931Y0072367D03*
X0261831Y0072467D03*
X0261731Y0072567D03*
X0261631Y0072667D03*
X0261431Y0072967D03*
X0261331Y0073067D03*
X0261231Y0073167D03*
X0261131Y0073267D03*
X0261031Y0073367D03*
X0260931Y0073567D03*
X0260831Y0073667D03*
X0260731Y0073767D03*
X0260131Y0074467D03*
X0260031Y0074667D03*
X0259931Y0074767D03*
X0259831Y0074867D03*
X0259731Y0074967D03*
X0259531Y0075267D03*
X0259431Y0075367D03*
X0259331Y0075467D03*
X0259231Y0075567D03*
X0259131Y0075667D03*
X0259031Y0075767D03*
X0259031Y0075867D03*
X0258931Y0075967D03*
X0258831Y0076067D03*
X0258731Y0076167D03*
X0258531Y0076467D03*
X0258431Y0076567D03*
X0258331Y0076667D03*
X0258231Y0076767D03*
X0257931Y0077167D03*
X0255731Y0076167D03*
X0255631Y0076267D03*
X0255531Y0076367D03*
X0255431Y0076467D03*
X0255331Y0076567D03*
X0255231Y0076767D03*
X0255131Y0076867D03*
X0255031Y0076967D03*
X0254931Y0077067D03*
X0254831Y0077167D03*
X0254731Y0077267D03*
X0254731Y0077367D03*
X0254631Y0077467D03*
X0254531Y0077567D03*
X0254431Y0077667D03*
X0254331Y0077767D03*
X0254231Y0077967D03*
X0254131Y0078067D03*
X0254031Y0078167D03*
X0253931Y0078267D03*
X0253531Y0078767D03*
X0252031Y0081367D03*
X0252331Y0081767D03*
X0252431Y0081867D03*
X0252631Y0082167D03*
X0252731Y0082267D03*
X0252831Y0082367D03*
X0252931Y0082467D03*
X0253031Y0082667D03*
X0251731Y0081767D03*
X0251631Y0081867D03*
X0251431Y0082167D03*
X0251331Y0082267D03*
X0251231Y0082367D03*
X0251131Y0082467D03*
X0251031Y0082667D03*
X0248531Y0082667D03*
X0248531Y0082767D03*
X0248531Y0082967D03*
X0248531Y0083167D03*
X0248531Y0083267D03*
X0248531Y0083367D03*
X0248531Y0083467D03*
X0248531Y0083567D03*
X0248531Y0083667D03*
X0248531Y0083767D03*
X0248531Y0083867D03*
X0248531Y0083967D03*
X0248531Y0084067D03*
X0248531Y0084167D03*
X0248531Y0084267D03*
X0248531Y0084367D03*
X0248531Y0084467D03*
X0248531Y0084567D03*
X0248531Y0084667D03*
X0248531Y0084767D03*
X0248531Y0084867D03*
X0248531Y0084967D03*
X0248531Y0085067D03*
X0248531Y0085167D03*
X0248531Y0085267D03*
X0248531Y0085367D03*
X0248531Y0085467D03*
X0248531Y0085567D03*
X0248531Y0085667D03*
X0248531Y0085767D03*
X0248531Y0085867D03*
X0248531Y0085967D03*
X0248531Y0086067D03*
X0248531Y0086167D03*
X0248531Y0086267D03*
X0246431Y0085867D03*
X0246431Y0085767D03*
X0246431Y0085667D03*
X0246431Y0085567D03*
X0246431Y0085467D03*
X0246431Y0085367D03*
X0246431Y0085267D03*
X0246431Y0085167D03*
X0246431Y0085067D03*
X0246431Y0084967D03*
X0246431Y0084867D03*
X0246431Y0084767D03*
X0246431Y0084667D03*
X0246431Y0084567D03*
X0246431Y0084467D03*
X0246431Y0084367D03*
X0246431Y0084267D03*
X0246431Y0084167D03*
X0246431Y0084067D03*
X0246431Y0083967D03*
X0246431Y0083867D03*
X0246431Y0083767D03*
X0246431Y0083667D03*
X0246431Y0083567D03*
X0246431Y0083467D03*
X0246431Y0083367D03*
X0246431Y0083267D03*
X0246431Y0083167D03*
X0246431Y0082667D03*
X0246531Y0082567D03*
X0246631Y0082467D03*
X0246731Y0082367D03*
X0246831Y0082167D03*
X0246931Y0082067D03*
X0247031Y0081967D03*
X0247131Y0081867D03*
X0247831Y0081867D03*
X0247931Y0081967D03*
X0248031Y0082067D03*
X0248131Y0082167D03*
X0248331Y0082467D03*
X0250931Y0086267D03*
X0252731Y0086567D03*
X0253031Y0086267D03*
X0255431Y0086167D03*
X0257531Y0086167D03*
X0259631Y0086167D03*
X0261831Y0086167D03*
X0264131Y0086767D03*
X0264431Y0086067D03*
X0266531Y0087067D03*
X0268231Y0086067D03*
X0268231Y0082567D03*
X0268431Y0082267D03*
X0268531Y0082167D03*
X0268631Y0082067D03*
X0268731Y0081967D03*
X0268931Y0081667D03*
X0269331Y0081267D03*
X0269731Y0081767D03*
X0269831Y0081867D03*
X0269931Y0081967D03*
X0270131Y0082267D03*
X0270231Y0082367D03*
X0270331Y0082467D03*
X0266531Y0082467D03*
X0266331Y0082167D03*
X0266231Y0082067D03*
X0266131Y0081967D03*
X0266031Y0081867D03*
X0265531Y0081267D03*
X0265531Y0081167D03*
X0265131Y0081767D03*
X0265031Y0081867D03*
X0264931Y0081967D03*
X0264831Y0082067D03*
X0264631Y0082367D03*
X0264531Y0082467D03*
X0261731Y0082467D03*
X0261631Y0082367D03*
X0261531Y0082267D03*
X0261431Y0082167D03*
X0261331Y0081967D03*
X0261231Y0081867D03*
X0261131Y0081767D03*
X0260431Y0081767D03*
X0260331Y0081867D03*
X0260231Y0081967D03*
X0260131Y0082067D03*
X0260031Y0082267D03*
X0259931Y0082367D03*
X0259831Y0082467D03*
X0259731Y0082567D03*
X0257531Y0082467D03*
X0257431Y0082367D03*
X0257331Y0082267D03*
X0257231Y0082167D03*
X0257231Y0082067D03*
X0257131Y0081967D03*
X0257031Y0081867D03*
X0256931Y0081767D03*
X0256531Y0081267D03*
X0256131Y0081667D03*
X0256031Y0081867D03*
X0255931Y0081967D03*
X0255831Y0082067D03*
X0255731Y0082167D03*
X0255631Y0082267D03*
X0255431Y0082567D03*
X0255431Y0082667D03*
X0255431Y0082967D03*
X0255431Y0083067D03*
X0255431Y0083267D03*
X0255431Y0083667D03*
X0255831Y0075967D03*
X0256431Y0075267D03*
X0256531Y0075167D03*
X0256631Y0075067D03*
X0256731Y0074867D03*
X0256831Y0074767D03*
X0256931Y0074667D03*
X0257031Y0074567D03*
X0257131Y0074467D03*
X0257231Y0074267D03*
X0257331Y0074167D03*
X0257431Y0074067D03*
X0257531Y0073967D03*
X0257631Y0073867D03*
X0257731Y0073667D03*
X0257831Y0073567D03*
X0257931Y0073467D03*
X0258031Y0073367D03*
X0258131Y0073167D03*
X0258231Y0073067D03*
X0258331Y0072967D03*
X0258431Y0072867D03*
X0258531Y0072767D03*
X0258731Y0072467D03*
X0258831Y0072367D03*
X0258931Y0072267D03*
X0259031Y0072167D03*
X0259131Y0071967D03*
X0259231Y0071867D03*
X0259331Y0071767D03*
X0259431Y0071667D03*
X0259531Y0071567D03*
X0259631Y0071367D03*
X0259731Y0071267D03*
X0259831Y0071167D03*
X0259931Y0071067D03*
X0260031Y0070967D03*
X0260131Y0070767D03*
X0260231Y0070667D03*
X0260331Y0070567D03*
X0260431Y0070467D03*
X0260531Y0070367D03*
X0260631Y0070167D03*
X0260731Y0070067D03*
X0260831Y0069967D03*
X0260931Y0069867D03*
X0261031Y0069767D03*
X0261031Y0069667D03*
X0261131Y0069567D03*
X0261231Y0069467D03*
X0261331Y0069367D03*
X0261431Y0069267D03*
X0261631Y0068967D03*
X0261731Y0068867D03*
X0263431Y0070067D03*
X0263531Y0070167D03*
X0260431Y0066367D03*
X0260331Y0066267D03*
X0260231Y0066167D03*
X0260131Y0066067D03*
X0260031Y0065967D03*
X0259931Y0065767D03*
X0259831Y0065667D03*
X0259731Y0065567D03*
X0259631Y0065467D03*
X0250131Y0069267D03*
X0263131Y0076567D03*
X0263231Y0076467D03*
X0263331Y0076267D03*
X0263431Y0076167D03*
X0263531Y0076067D03*
X0263631Y0075967D03*
X0263731Y0075767D03*
X0263831Y0075667D03*
X0263931Y0075567D03*
X0264031Y0075467D03*
X0264131Y0075367D03*
X0264331Y0075067D03*
X0264431Y0074967D03*
X0264531Y0074867D03*
X0264631Y0074767D03*
X0264731Y0074567D03*
X0264831Y0074467D03*
X0264931Y0074367D03*
X0265031Y0074267D03*
X0265131Y0074167D03*
X0265231Y0073967D03*
X0265331Y0073867D03*
X0265431Y0073767D03*
X0265531Y0073667D03*
X0265631Y0073567D03*
X0267431Y0074867D03*
X0267531Y0074967D03*
X0267631Y0075067D03*
X0267731Y0075267D03*
X0267831Y0075367D03*
X0267931Y0075467D03*
X0268031Y0075567D03*
X0241931Y0078967D03*
X0241831Y0078867D03*
X0241731Y0078767D03*
X0241431Y0078367D03*
X0241331Y0078267D03*
X0241231Y0078167D03*
X0241131Y0078067D03*
X0240931Y0077767D03*
X0271031Y0059567D03*
X0271131Y0058267D03*
X0271031Y0058167D03*
X0270031Y0058367D03*
X0268231Y0056967D03*
X0268131Y0057067D03*
X0264931Y0052767D03*
X0265031Y0052667D03*
X0265431Y0052167D03*
X0265731Y0051867D03*
X0265331Y0051367D03*
X0264931Y0050867D03*
X0264831Y0050767D03*
X0264731Y0050667D03*
X0265031Y0050067D03*
X0266331Y0050667D03*
X0239131Y0052167D03*
X0238931Y0052467D03*
X0238831Y0052567D03*
X0238731Y0052667D03*
X0238631Y0052767D03*
X0238431Y0053067D03*
X0238331Y0053167D03*
X0238231Y0053267D03*
X0238131Y0053367D03*
X0237931Y0053667D03*
X0237831Y0053767D03*
X0237731Y0053867D03*
X0237631Y0053967D03*
X0237531Y0054167D03*
X0237431Y0054267D03*
X0237331Y0054367D03*
X0237231Y0054467D03*
X0237031Y0054767D03*
X0236931Y0054867D03*
X0236831Y0054967D03*
X0235531Y0052967D03*
X0235631Y0052867D03*
X0235731Y0052767D03*
X0235831Y0052667D03*
X0235931Y0052567D03*
X0236131Y0052267D03*
X0236231Y0052167D03*
X0236331Y0052067D03*
X0236431Y0051967D03*
X0236631Y0051667D03*
X0236731Y0051567D03*
X0234831Y0050267D03*
X0234831Y0048667D03*
X0236831Y0047767D03*
X0232631Y0047767D03*
X0232631Y0047867D03*
X0232631Y0047967D03*
X0232631Y0048067D03*
X0232631Y0048167D03*
X0232631Y0048267D03*
X0232631Y0048367D03*
X0232631Y0048467D03*
X0232631Y0048567D03*
X0232631Y0048667D03*
X0232631Y0048767D03*
X0232631Y0048867D03*
X0232631Y0048967D03*
X0232631Y0049067D03*
X0232631Y0049167D03*
X0232631Y0049267D03*
X0232631Y0049367D03*
X0232631Y0049467D03*
X0232631Y0049567D03*
X0232631Y0049667D03*
X0232631Y0049767D03*
X0232631Y0049867D03*
X0232631Y0049967D03*
X0232631Y0050067D03*
X0232631Y0050167D03*
X0232631Y0050267D03*
X0232631Y0050367D03*
X0232631Y0050467D03*
X0232631Y0050567D03*
X0232631Y0050667D03*
X0232631Y0050767D03*
X0231831Y0052367D03*
X0229231Y0047767D03*
D20*
X0239381Y0047667D03*
X0226181Y0061367D03*
X0226581Y0064367D03*
X0221181Y0069067D03*
X0221081Y0077167D03*
X0210181Y0069067D03*
X0209181Y0058467D03*
X0207781Y0055867D03*
X0209481Y0048567D03*
X0261581Y0056967D03*
X0264081Y0060767D03*
X0266181Y0060967D03*
X0269081Y0058767D03*
X0271381Y0058767D03*
X0271381Y0058667D03*
X0271381Y0058967D03*
X0271381Y0059067D03*
X0269081Y0063767D03*
X0267281Y0063767D03*
X0270681Y0064767D03*
X0266181Y0055267D03*
X0266281Y0050867D03*
X0269081Y0048967D03*
X0270281Y0085567D03*
D21*
X0247881Y0074167D03*
X0247781Y0074267D03*
X0247681Y0074367D03*
X0243181Y0074867D03*
X0243081Y0074767D03*
X0242981Y0074667D03*
X0249481Y0068167D03*
X0253581Y0067567D03*
X0253681Y0067467D03*
X0253781Y0067367D03*
X0253981Y0062367D03*
X0253781Y0062167D03*
X0253681Y0061967D03*
X0247481Y0054967D03*
X0243281Y0054567D03*
X0236581Y0062167D03*
X0236481Y0062267D03*
X0236381Y0062367D03*
X0236681Y0067367D03*
X0236781Y0067467D03*
X0223981Y0065167D03*
X0223981Y0065067D03*
X0223981Y0064967D03*
X0223981Y0064867D03*
X0220681Y0063667D03*
X0220681Y0063567D03*
X0220681Y0063467D03*
X0220681Y0063367D03*
X0213281Y0069467D03*
X0209981Y0069467D03*
X0210081Y0074167D03*
X0213281Y0074167D03*
X0221081Y0074067D03*
X0230881Y0081167D03*
X0231081Y0081367D03*
X0234981Y0084067D03*
X0268881Y0062767D03*
X0269081Y0059967D03*
X0266181Y0056467D03*
X0266081Y0049867D03*
X0266181Y0049767D03*
X0266281Y0049667D03*
X0231781Y0047667D03*
X0225281Y0047667D03*
X0222481Y0047667D03*
X0219481Y0047667D03*
X0213381Y0047667D03*
X0225381Y0050867D03*
D22*
X0225331Y0050967D03*
X0225331Y0051067D03*
X0225331Y0051167D03*
X0228331Y0047667D03*
X0231831Y0050867D03*
X0231831Y0050967D03*
X0231831Y0051067D03*
X0242931Y0054867D03*
X0243031Y0054767D03*
X0243131Y0054667D03*
X0244531Y0056067D03*
X0247431Y0054867D03*
X0247631Y0055067D03*
X0247731Y0055167D03*
X0245231Y0051467D03*
X0245231Y0051367D03*
X0236931Y0061767D03*
X0236831Y0061867D03*
X0236731Y0061967D03*
X0236631Y0062067D03*
X0236831Y0067567D03*
X0236931Y0067667D03*
X0237031Y0067767D03*
X0242931Y0074567D03*
X0247931Y0074067D03*
X0248031Y0073967D03*
X0248131Y0073867D03*
X0245231Y0078067D03*
X0249531Y0068267D03*
X0253231Y0067967D03*
X0253331Y0067867D03*
X0253431Y0067767D03*
X0253531Y0067667D03*
X0253731Y0062067D03*
X0253531Y0061867D03*
X0270031Y0057367D03*
X0269131Y0049967D03*
X0265531Y0047767D03*
X0227631Y0069467D03*
X0221031Y0069467D03*
X0221031Y0074167D03*
X0224731Y0074367D03*
X0227631Y0074167D03*
X0230731Y0081067D03*
X0231531Y0081767D03*
X0231631Y0081867D03*
X0220731Y0064367D03*
X0220731Y0064267D03*
X0220731Y0064167D03*
X0220731Y0064067D03*
X0220731Y0063967D03*
X0220731Y0063867D03*
X0220731Y0063767D03*
X0218331Y0063767D03*
X0218331Y0063867D03*
X0218331Y0063967D03*
X0218331Y0063667D03*
X0218331Y0063567D03*
X0218331Y0063467D03*
X0218331Y0063367D03*
X0219431Y0051167D03*
X0219431Y0051067D03*
X0219431Y0050967D03*
X0219431Y0050867D03*
X0216431Y0050867D03*
X0216431Y0050967D03*
X0216431Y0051067D03*
X0213431Y0051067D03*
X0213431Y0051167D03*
X0213431Y0050967D03*
X0213431Y0050867D03*
X0210331Y0050867D03*
X0210331Y0050967D03*
X0210331Y0051067D03*
X0216431Y0047667D03*
D23*
X0215531Y0047867D03*
X0215531Y0047967D03*
X0215531Y0048067D03*
X0215531Y0048167D03*
X0215531Y0048267D03*
X0215531Y0048367D03*
X0215531Y0048467D03*
X0215531Y0048567D03*
X0215531Y0048667D03*
X0215531Y0048767D03*
X0215531Y0048867D03*
X0215531Y0048967D03*
X0215531Y0049067D03*
X0215531Y0049167D03*
X0215531Y0049267D03*
X0215531Y0049367D03*
X0215531Y0049467D03*
X0215531Y0049567D03*
X0215531Y0049667D03*
X0215531Y0049767D03*
X0215531Y0049867D03*
X0215531Y0049967D03*
X0215531Y0050067D03*
X0215531Y0050167D03*
X0215531Y0050267D03*
X0215531Y0050367D03*
X0215531Y0050467D03*
X0215531Y0050567D03*
X0215531Y0050667D03*
X0215531Y0050767D03*
X0218531Y0050767D03*
X0218531Y0050667D03*
X0218531Y0050567D03*
X0218531Y0050467D03*
X0218531Y0050367D03*
X0218531Y0050267D03*
X0218531Y0050167D03*
X0218531Y0050067D03*
X0218531Y0049967D03*
X0218531Y0049867D03*
X0218531Y0049767D03*
X0218531Y0049667D03*
X0218531Y0049567D03*
X0218531Y0049467D03*
X0218531Y0049367D03*
X0218531Y0049267D03*
X0218531Y0049167D03*
X0218531Y0049067D03*
X0218531Y0048967D03*
X0218531Y0048867D03*
X0218531Y0048767D03*
X0218531Y0048667D03*
X0218531Y0048567D03*
X0218531Y0048467D03*
X0218531Y0048367D03*
X0218531Y0048267D03*
X0218531Y0048167D03*
X0218531Y0048067D03*
X0218531Y0047967D03*
X0218531Y0047867D03*
X0218531Y0047767D03*
X0221631Y0047767D03*
X0221631Y0047867D03*
X0221631Y0047967D03*
X0221631Y0048067D03*
X0221631Y0048167D03*
X0221631Y0048267D03*
X0221631Y0048367D03*
X0221631Y0048467D03*
X0221631Y0048567D03*
X0221631Y0048667D03*
X0221631Y0048767D03*
X0221631Y0048867D03*
X0221631Y0048967D03*
X0221631Y0049067D03*
X0221631Y0049167D03*
X0221631Y0049267D03*
X0221631Y0049367D03*
X0221631Y0049467D03*
X0221631Y0049567D03*
X0221631Y0049667D03*
X0221631Y0049767D03*
X0221631Y0049867D03*
X0221631Y0049967D03*
X0221631Y0050067D03*
X0221631Y0050167D03*
X0221631Y0050267D03*
X0221631Y0050367D03*
X0221631Y0050467D03*
X0221631Y0050567D03*
X0221631Y0050667D03*
X0221631Y0050767D03*
X0224431Y0050767D03*
X0224431Y0050667D03*
X0224431Y0050567D03*
X0224431Y0050467D03*
X0224431Y0050367D03*
X0224431Y0050267D03*
X0224431Y0050167D03*
X0224431Y0050067D03*
X0224431Y0049967D03*
X0224431Y0049867D03*
X0224431Y0049767D03*
X0224431Y0049667D03*
X0224431Y0049567D03*
X0224431Y0049467D03*
X0224431Y0049367D03*
X0224431Y0049267D03*
X0224431Y0049167D03*
X0224431Y0049067D03*
X0224431Y0048967D03*
X0224431Y0048867D03*
X0224431Y0048767D03*
X0224431Y0048667D03*
X0224431Y0048567D03*
X0224431Y0048467D03*
X0224431Y0048367D03*
X0224431Y0048267D03*
X0224431Y0048167D03*
X0224431Y0048067D03*
X0224431Y0047967D03*
X0224431Y0047867D03*
X0227531Y0047867D03*
X0227531Y0047967D03*
X0227531Y0048067D03*
X0227531Y0048167D03*
X0227531Y0048267D03*
X0227531Y0048367D03*
X0227531Y0048467D03*
X0227531Y0048567D03*
X0227531Y0048667D03*
X0227531Y0048767D03*
X0227531Y0048867D03*
X0227531Y0048967D03*
X0227531Y0049067D03*
X0227531Y0049167D03*
X0227531Y0049267D03*
X0227531Y0049367D03*
X0227531Y0049467D03*
X0227531Y0049567D03*
X0227531Y0049667D03*
X0227531Y0049767D03*
X0227531Y0049867D03*
X0227531Y0049967D03*
X0227531Y0050067D03*
X0227531Y0050167D03*
X0227531Y0050267D03*
X0227531Y0050367D03*
X0227531Y0050467D03*
X0227531Y0050567D03*
X0227531Y0050667D03*
X0227531Y0050767D03*
X0227531Y0047767D03*
X0230931Y0047767D03*
X0230931Y0047867D03*
X0230931Y0047967D03*
X0230931Y0048067D03*
X0230931Y0048167D03*
X0230931Y0048267D03*
X0230931Y0048367D03*
X0230931Y0048467D03*
X0230931Y0048567D03*
X0230931Y0048667D03*
X0230931Y0048767D03*
X0230931Y0048867D03*
X0230931Y0048967D03*
X0230931Y0049067D03*
X0230931Y0049167D03*
X0230931Y0049267D03*
X0230931Y0049367D03*
X0230931Y0049467D03*
X0230931Y0049567D03*
X0230931Y0049667D03*
X0230931Y0049767D03*
X0230931Y0049867D03*
X0230931Y0049967D03*
X0230931Y0050067D03*
X0230931Y0050167D03*
X0230931Y0050267D03*
X0230931Y0050367D03*
X0230931Y0050467D03*
X0230931Y0050567D03*
X0230931Y0050667D03*
X0230931Y0050767D03*
X0234231Y0049567D03*
X0234231Y0049467D03*
X0234231Y0049367D03*
X0234331Y0049167D03*
X0234331Y0049767D03*
X0235231Y0049767D03*
X0235331Y0049667D03*
X0235331Y0049567D03*
X0235331Y0049467D03*
X0235331Y0049367D03*
X0235331Y0049267D03*
X0235231Y0049167D03*
X0235231Y0049067D03*
X0239331Y0047767D03*
X0242831Y0051167D03*
X0243231Y0051667D03*
X0243531Y0051267D03*
X0243531Y0051167D03*
X0243531Y0051067D03*
X0244331Y0049167D03*
X0245031Y0049167D03*
X0245031Y0049267D03*
X0245031Y0049067D03*
X0246231Y0049067D03*
X0246231Y0049167D03*
X0246231Y0049267D03*
X0246931Y0049167D03*
X0247531Y0051567D03*
X0247531Y0051667D03*
X0247531Y0051767D03*
X0247831Y0052167D03*
X0248231Y0051667D03*
X0251731Y0051167D03*
X0251731Y0051067D03*
X0251731Y0050267D03*
X0251731Y0050167D03*
X0252031Y0049667D03*
X0252031Y0049567D03*
X0251331Y0049567D03*
X0251331Y0049667D03*
X0253431Y0049967D03*
X0253431Y0050067D03*
X0253431Y0050167D03*
X0254031Y0050267D03*
X0254131Y0050167D03*
X0254131Y0050067D03*
X0254031Y0049967D03*
X0253731Y0049567D03*
X0245131Y0054867D03*
X0236931Y0057567D03*
X0234031Y0061867D03*
X0234031Y0061967D03*
X0234031Y0062067D03*
X0233731Y0062567D03*
X0233331Y0062067D03*
X0233331Y0061967D03*
X0233331Y0061867D03*
X0233431Y0061767D03*
X0235531Y0070767D03*
X0235531Y0070867D03*
X0236231Y0070867D03*
X0236231Y0070967D03*
X0236231Y0070767D03*
X0236231Y0070667D03*
X0242031Y0079467D03*
X0242031Y0079567D03*
X0242031Y0079667D03*
X0242331Y0080167D03*
X0242731Y0079667D03*
X0242731Y0079567D03*
X0242731Y0079467D03*
X0242631Y0079367D03*
X0249731Y0079167D03*
X0249731Y0079067D03*
X0249731Y0078967D03*
X0249831Y0078867D03*
X0249831Y0079267D03*
X0250131Y0079667D03*
X0250431Y0079167D03*
X0250431Y0079067D03*
X0250131Y0078467D03*
X0252831Y0078867D03*
X0252831Y0078967D03*
X0252831Y0079067D03*
X0253131Y0079567D03*
X0253531Y0079067D03*
X0253531Y0078967D03*
X0253531Y0078867D03*
X0257231Y0077467D03*
X0257231Y0077367D03*
X0257231Y0077267D03*
X0257531Y0076767D03*
X0257931Y0077267D03*
X0257931Y0077367D03*
X0257931Y0077467D03*
X0262031Y0077267D03*
X0262031Y0077167D03*
X0262131Y0077367D03*
X0262131Y0076967D03*
X0262731Y0077167D03*
X0262731Y0077267D03*
X0262431Y0077767D03*
X0264031Y0077467D03*
X0264031Y0077367D03*
X0264031Y0077267D03*
X0264131Y0077567D03*
X0264731Y0077467D03*
X0264731Y0077367D03*
X0264431Y0076767D03*
X0270031Y0075367D03*
X0270031Y0075267D03*
X0270031Y0075167D03*
X0270031Y0075067D03*
X0270731Y0075067D03*
X0270731Y0075167D03*
X0270731Y0075267D03*
X0271231Y0071067D03*
X0271231Y0070967D03*
X0271231Y0070867D03*
X0270031Y0070667D03*
X0271331Y0067267D03*
X0271331Y0067167D03*
X0271331Y0067067D03*
X0271331Y0066967D03*
X0271031Y0066567D03*
X0270931Y0065567D03*
X0271031Y0065367D03*
X0271031Y0065267D03*
X0267231Y0063667D03*
X0264131Y0060667D03*
X0270031Y0058467D03*
X0271331Y0058567D03*
X0271331Y0059167D03*
X0250531Y0065467D03*
X0250231Y0069367D03*
X0226031Y0078067D03*
X0225731Y0077667D03*
X0225731Y0077567D03*
X0225731Y0077467D03*
X0223631Y0079567D03*
X0223631Y0079667D03*
X0223631Y0079767D03*
X0223331Y0080267D03*
X0223031Y0079867D03*
X0222931Y0079667D03*
X0223031Y0079467D03*
X0207931Y0077167D03*
X0206631Y0077367D03*
X0206631Y0077467D03*
X0206631Y0077567D03*
X0206631Y0077667D03*
X0206931Y0078067D03*
X0209031Y0072867D03*
X0207431Y0069167D03*
X0207131Y0068767D03*
X0207131Y0068667D03*
X0207131Y0068567D03*
X0207131Y0068467D03*
X0206931Y0059967D03*
X0206931Y0059867D03*
X0206931Y0059767D03*
X0206931Y0059667D03*
X0208831Y0057967D03*
X0208831Y0057867D03*
X0208831Y0057767D03*
X0209131Y0057267D03*
X0207431Y0055367D03*
X0207431Y0055267D03*
X0209431Y0050767D03*
X0209431Y0050667D03*
X0209431Y0050567D03*
X0209431Y0050467D03*
X0209431Y0050367D03*
X0209431Y0050267D03*
X0209431Y0050167D03*
X0209431Y0050067D03*
X0209431Y0049967D03*
X0209431Y0049867D03*
X0209431Y0049767D03*
X0209431Y0049667D03*
X0209431Y0049567D03*
X0209431Y0049467D03*
X0209431Y0049367D03*
X0209431Y0049267D03*
X0209431Y0049167D03*
X0209431Y0049067D03*
X0209431Y0048967D03*
X0209431Y0048867D03*
X0209431Y0048767D03*
X0209431Y0048667D03*
X0210631Y0051367D03*
X0212531Y0050767D03*
X0212531Y0050667D03*
X0212531Y0050567D03*
X0212531Y0050467D03*
X0212531Y0050367D03*
X0212531Y0050267D03*
X0212531Y0050167D03*
X0212531Y0050067D03*
X0212531Y0049967D03*
X0212531Y0049867D03*
X0212531Y0049767D03*
X0212531Y0049667D03*
X0212531Y0049567D03*
X0212531Y0049467D03*
X0212531Y0049367D03*
X0212531Y0049267D03*
X0212531Y0049167D03*
X0212531Y0049067D03*
X0212531Y0048967D03*
X0212531Y0048867D03*
X0212531Y0048767D03*
X0212531Y0048667D03*
X0212531Y0048567D03*
X0212531Y0048467D03*
X0212531Y0048367D03*
X0212531Y0048267D03*
X0212531Y0048167D03*
X0212531Y0048067D03*
X0212531Y0047967D03*
X0212531Y0047867D03*
X0212531Y0047767D03*
X0246031Y0086667D03*
X0246031Y0086767D03*
X0246031Y0086867D03*
X0246331Y0087267D03*
X0246731Y0086767D03*
X0248131Y0086767D03*
X0248131Y0086667D03*
X0248831Y0086667D03*
X0248831Y0086767D03*
X0250531Y0086767D03*
X0250531Y0086667D03*
X0251231Y0086667D03*
X0251231Y0086767D03*
X0251231Y0086867D03*
X0252631Y0086767D03*
X0253031Y0087267D03*
X0253331Y0086867D03*
X0253331Y0086767D03*
X0255031Y0086767D03*
X0255031Y0086667D03*
X0255031Y0086567D03*
X0255731Y0086567D03*
X0255731Y0086667D03*
X0257131Y0086667D03*
X0257831Y0086667D03*
X0257831Y0086767D03*
X0257831Y0086567D03*
X0259331Y0086567D03*
X0259331Y0086667D03*
X0259331Y0086767D03*
X0259931Y0086767D03*
X0260031Y0086667D03*
X0261431Y0086667D03*
X0261431Y0086767D03*
X0261431Y0086567D03*
X0262131Y0086667D03*
X0264031Y0086567D03*
X0264731Y0086567D03*
X0264731Y0086667D03*
X0264731Y0086467D03*
X0266231Y0086467D03*
X0266231Y0086567D03*
X0266231Y0086667D03*
X0266831Y0086667D03*
X0267831Y0086667D03*
X0267831Y0086567D03*
X0267831Y0086467D03*
X0268531Y0086567D03*
X0268531Y0086667D03*
X0270331Y0085467D03*
X0270331Y0085367D03*
D24*
X0270231Y0085667D03*
X0271831Y0087367D03*
X0250231Y0069467D03*
X0250531Y0065667D03*
X0250531Y0065567D03*
X0240031Y0077167D03*
X0231531Y0069167D03*
X0229231Y0064367D03*
X0226431Y0061367D03*
X0211331Y0052967D03*
X0209531Y0048467D03*
X0211331Y0047767D03*
X0209631Y0072867D03*
X0209331Y0072867D03*
X0263531Y0052067D03*
X0270031Y0058567D03*
X0271431Y0058867D03*
D25*
X0269081Y0060067D03*
X0269081Y0062467D03*
X0266181Y0056567D03*
X0263481Y0053367D03*
X0263581Y0053267D03*
X0266281Y0049567D03*
X0266281Y0049467D03*
X0265681Y0047867D03*
X0269181Y0050167D03*
X0254281Y0062667D03*
X0254181Y0062567D03*
X0254081Y0062467D03*
X0253981Y0067167D03*
X0253881Y0067267D03*
X0249381Y0068067D03*
X0247481Y0074567D03*
X0247381Y0074667D03*
X0247281Y0074767D03*
X0247181Y0074867D03*
X0245181Y0077867D03*
X0234981Y0083967D03*
X0231081Y0074167D03*
X0231081Y0071767D03*
X0227681Y0069667D03*
X0224581Y0071967D03*
X0224581Y0074167D03*
X0221081Y0069667D03*
X0223981Y0064567D03*
X0223981Y0064467D03*
X0223981Y0064367D03*
X0223981Y0064267D03*
X0223981Y0064167D03*
X0227281Y0063367D03*
X0227281Y0063267D03*
X0227281Y0063167D03*
X0227281Y0063067D03*
X0227281Y0062967D03*
X0227281Y0062867D03*
X0227281Y0062767D03*
X0227281Y0062667D03*
X0227281Y0062567D03*
X0236081Y0062667D03*
X0236281Y0066967D03*
X0236381Y0067067D03*
X0244481Y0056267D03*
X0243481Y0054367D03*
X0246981Y0054467D03*
X0247081Y0054567D03*
X0213281Y0069667D03*
X0213281Y0073967D03*
X0210081Y0073967D03*
X0210081Y0074067D03*
D26*
X0224381Y0071567D03*
X0224381Y0069867D03*
X0224381Y0069767D03*
X0224381Y0069667D03*
X0224381Y0069567D03*
X0235581Y0066167D03*
X0235681Y0066267D03*
X0235781Y0066367D03*
X0235481Y0063367D03*
X0244381Y0056567D03*
X0254781Y0063267D03*
X0254881Y0063367D03*
X0254981Y0063467D03*
X0254881Y0066167D03*
X0254781Y0066267D03*
X0249181Y0067767D03*
X0246781Y0075167D03*
X0234981Y0083767D03*
X0231081Y0078867D03*
X0266181Y0059467D03*
X0266181Y0056867D03*
X0263481Y0055867D03*
X0269981Y0056967D03*
X0269081Y0062167D03*
X0269181Y0050367D03*
X0266281Y0049267D03*
X0265781Y0047967D03*
D27*
X0265881Y0048067D03*
X0266281Y0049067D03*
X0263481Y0055567D03*
X0266181Y0057067D03*
X0266181Y0059167D03*
X0269081Y0060567D03*
X0269081Y0061967D03*
X0269881Y0056667D03*
X0269881Y0056567D03*
X0255481Y0064067D03*
X0255481Y0064167D03*
X0255581Y0064267D03*
X0255581Y0064367D03*
X0255481Y0065367D03*
X0255381Y0065567D03*
X0255281Y0065667D03*
X0248981Y0067567D03*
X0235181Y0065667D03*
X0235081Y0065567D03*
X0234981Y0065467D03*
X0234981Y0063967D03*
X0230381Y0064567D03*
X0230381Y0065067D03*
X0230381Y0065167D03*
X0223981Y0061967D03*
X0220181Y0063267D03*
X0234981Y0079167D03*
X0234981Y0079267D03*
X0234981Y0083467D03*
D28*
X0245231Y0076967D03*
X0248831Y0067367D03*
X0244231Y0057067D03*
X0245231Y0052567D03*
X0263531Y0055367D03*
X0269731Y0056167D03*
X0269131Y0060767D03*
X0269131Y0061767D03*
X0269131Y0050867D03*
X0266031Y0048167D03*
X0217731Y0080767D03*
X0217731Y0080867D03*
X0217731Y0080967D03*
X0217731Y0081067D03*
X0217731Y0081167D03*
X0217731Y0081267D03*
X0217731Y0081367D03*
X0217731Y0081467D03*
X0217731Y0081567D03*
X0217731Y0081667D03*
X0217731Y0081767D03*
X0213331Y0081767D03*
X0213331Y0081667D03*
X0213331Y0081567D03*
X0213331Y0081467D03*
X0213331Y0081367D03*
X0213331Y0081267D03*
X0213331Y0081167D03*
X0213331Y0081067D03*
X0213331Y0080967D03*
X0213331Y0080867D03*
X0213331Y0080767D03*
X0208931Y0080767D03*
X0208931Y0080867D03*
X0208931Y0080967D03*
X0208931Y0081067D03*
X0208931Y0081167D03*
X0208931Y0081267D03*
X0208931Y0081367D03*
X0208931Y0081467D03*
X0208931Y0081567D03*
X0208931Y0081667D03*
X0208931Y0081767D03*
D29*
X0208831Y0083167D03*
X0208831Y0083267D03*
X0208831Y0083367D03*
X0208831Y0083467D03*
X0208831Y0083567D03*
X0208831Y0083667D03*
X0208831Y0083767D03*
X0208831Y0083867D03*
X0208831Y0083967D03*
X0208831Y0084067D03*
X0208831Y0084167D03*
X0213231Y0084067D03*
X0213231Y0083967D03*
X0213231Y0083867D03*
X0213231Y0083767D03*
X0213231Y0083667D03*
X0213231Y0083567D03*
X0213231Y0083467D03*
X0213231Y0083367D03*
X0213231Y0083267D03*
X0213231Y0083167D03*
X0217631Y0083267D03*
X0217631Y0083367D03*
X0217631Y0083467D03*
X0217631Y0083567D03*
X0217631Y0083667D03*
X0217631Y0083867D03*
X0217631Y0083967D03*
X0217631Y0079267D03*
X0217631Y0079167D03*
X0217631Y0079067D03*
X0217631Y0078967D03*
X0217631Y0078867D03*
X0217631Y0078767D03*
X0217631Y0078667D03*
X0217631Y0078567D03*
X0217631Y0078467D03*
X0213231Y0078467D03*
X0213231Y0078567D03*
X0213231Y0078667D03*
X0213231Y0078767D03*
X0213231Y0078867D03*
X0213231Y0078967D03*
X0213231Y0079067D03*
X0213231Y0079167D03*
X0213231Y0079267D03*
X0213231Y0079367D03*
X0213231Y0078367D03*
X0208831Y0078367D03*
X0208831Y0078467D03*
X0208831Y0078567D03*
X0208831Y0078667D03*
X0208831Y0078767D03*
X0208831Y0078867D03*
X0208831Y0078967D03*
X0208831Y0079067D03*
X0208831Y0079167D03*
X0208831Y0079267D03*
X0208831Y0079367D03*
X0245231Y0076867D03*
X0245231Y0076767D03*
X0248731Y0067267D03*
X0263531Y0055267D03*
X0263531Y0054167D03*
X0269631Y0055967D03*
X0269131Y0050967D03*
X0266031Y0048267D03*
X0245231Y0052667D03*
X0245231Y0052767D03*
D30*
X0263481Y0055067D03*
X0266181Y0057567D03*
X0266181Y0058667D03*
X0266181Y0058767D03*
X0269081Y0060967D03*
X0269081Y0061467D03*
X0269081Y0051267D03*
X0269081Y0051167D03*
X0266281Y0048567D03*
X0266281Y0048467D03*
X0266181Y0048367D03*
X0248581Y0067067D03*
D31*
X0248681Y0067167D03*
X0244181Y0057167D03*
X0266181Y0057367D03*
X0266181Y0057467D03*
X0266281Y0057267D03*
X0266381Y0057167D03*
X0266181Y0058867D03*
X0269081Y0060867D03*
X0269081Y0061567D03*
X0269581Y0055867D03*
X0269081Y0051067D03*
X0266281Y0048667D03*
D32*
X0266281Y0048767D03*
X0263481Y0054067D03*
X0269681Y0056067D03*
X0266181Y0058967D03*
X0269081Y0061667D03*
X0217681Y0078367D03*
X0217681Y0079367D03*
X0217681Y0083067D03*
X0217681Y0083167D03*
X0217681Y0083767D03*
X0217681Y0084067D03*
X0217681Y0084167D03*
X0213281Y0084167D03*
X0213281Y0083067D03*
X0208881Y0083067D03*
X0208881Y0079467D03*
D33*
X0206931Y0077967D03*
X0206931Y0077867D03*
X0206931Y0077167D03*
X0207631Y0081867D03*
X0223331Y0080067D03*
X0235931Y0071267D03*
X0245231Y0078967D03*
X0250131Y0079467D03*
X0251831Y0077367D03*
X0251831Y0077267D03*
X0256331Y0075467D03*
X0260631Y0073967D03*
X0263631Y0070367D03*
X0260631Y0066767D03*
X0267031Y0074467D03*
X0270931Y0071367D03*
X0271031Y0067567D03*
X0271031Y0066767D03*
X0269131Y0059067D03*
X0263531Y0057067D03*
X0265731Y0051967D03*
X0253731Y0050467D03*
X0253731Y0049767D03*
X0247831Y0051267D03*
X0247831Y0052067D03*
X0246531Y0049567D03*
X0246531Y0048767D03*
X0244731Y0048767D03*
X0244731Y0049567D03*
X0243231Y0050767D03*
X0243231Y0051567D03*
X0209131Y0057467D03*
X0209131Y0058267D03*
X0207231Y0059467D03*
X0207231Y0060267D03*
X0207431Y0068167D03*
X0207431Y0068967D03*
X0246331Y0086367D03*
X0246331Y0087167D03*
X0250931Y0086367D03*
X0253031Y0086367D03*
X0253031Y0087167D03*
X0255331Y0086267D03*
X0257531Y0086267D03*
X0257531Y0087067D03*
X0259631Y0087067D03*
X0259631Y0086267D03*
X0261731Y0086267D03*
X0264431Y0086167D03*
X0264431Y0086967D03*
X0266531Y0086967D03*
X0266531Y0086167D03*
X0268131Y0086167D03*
X0268131Y0086967D03*
X0269331Y0081367D03*
X0265531Y0081367D03*
X0264431Y0077767D03*
X0256531Y0081367D03*
D34*
X0257581Y0077767D03*
X0257581Y0077667D03*
X0256281Y0075667D03*
X0256281Y0075567D03*
X0260581Y0074167D03*
X0260581Y0074067D03*
X0262381Y0077567D03*
X0264381Y0077667D03*
X0267081Y0074567D03*
X0268081Y0075767D03*
X0270381Y0075567D03*
X0265981Y0073267D03*
X0270881Y0071267D03*
X0270881Y0070667D03*
X0271081Y0067467D03*
X0270681Y0065667D03*
X0270681Y0064967D03*
X0269081Y0063367D03*
X0266181Y0060667D03*
X0269081Y0059167D03*
X0269981Y0058167D03*
X0266181Y0055667D03*
X0266181Y0055567D03*
X0265681Y0052067D03*
X0266281Y0050467D03*
X0269081Y0049267D03*
X0263481Y0052367D03*
X0251681Y0049967D03*
X0251681Y0049267D03*
X0246581Y0049467D03*
X0246581Y0048867D03*
X0244681Y0048867D03*
X0244681Y0049467D03*
X0243181Y0051467D03*
X0244981Y0055067D03*
X0234781Y0050167D03*
X0234781Y0048767D03*
X0233681Y0062267D03*
X0233681Y0062367D03*
X0243881Y0066467D03*
X0235881Y0071167D03*
X0226081Y0077167D03*
X0226081Y0077767D03*
X0226081Y0077867D03*
X0242381Y0079967D03*
X0247481Y0081567D03*
X0252081Y0081567D03*
X0253181Y0079367D03*
X0253181Y0079267D03*
X0251781Y0077467D03*
X0260781Y0081467D03*
X0261781Y0086367D03*
X0261781Y0086967D03*
X0264381Y0086867D03*
X0264381Y0086267D03*
X0268181Y0086267D03*
X0268181Y0086867D03*
X0257481Y0086967D03*
X0257481Y0086367D03*
X0255381Y0086367D03*
X0255381Y0086967D03*
X0250881Y0087067D03*
X0250881Y0086467D03*
X0248481Y0086467D03*
X0248481Y0086367D03*
X0248481Y0087067D03*
X0246381Y0087067D03*
X0262081Y0068567D03*
X0259081Y0064967D03*
X0209181Y0058167D03*
X0209181Y0057567D03*
X0207781Y0055667D03*
X0207781Y0055567D03*
X0207781Y0054967D03*
X0207181Y0060167D03*
X0207381Y0068867D03*
D35*
X0223881Y0061367D03*
X0234881Y0064167D03*
X0234781Y0064867D03*
X0244281Y0056967D03*
X0263481Y0053967D03*
X0266281Y0048967D03*
X0266281Y0048867D03*
X0269781Y0056267D03*
X0269781Y0056367D03*
X0269781Y0056867D03*
X0269081Y0060667D03*
X0269081Y0061867D03*
X0266181Y0059067D03*
X0217781Y0081867D03*
X0213381Y0081867D03*
D36*
X0206931Y0077767D03*
X0223031Y0079067D03*
X0223131Y0079167D03*
X0223231Y0079267D03*
X0223331Y0079367D03*
X0223331Y0079967D03*
X0231131Y0078367D03*
X0235931Y0071067D03*
X0235931Y0070567D03*
X0235831Y0070467D03*
X0235731Y0070367D03*
X0235631Y0070267D03*
X0233631Y0061667D03*
X0233531Y0061467D03*
X0247831Y0051967D03*
X0247831Y0051867D03*
X0247831Y0051367D03*
X0246531Y0049367D03*
X0246531Y0048967D03*
X0243231Y0050867D03*
X0243231Y0051367D03*
X0234831Y0050067D03*
X0234831Y0048867D03*
X0251631Y0049367D03*
X0251631Y0049867D03*
X0253731Y0049867D03*
X0253731Y0050367D03*
X0263531Y0052467D03*
X0263531Y0056967D03*
X0270031Y0058067D03*
X0260631Y0066867D03*
X0262131Y0068667D03*
X0263631Y0070467D03*
X0260531Y0074267D03*
X0262431Y0077467D03*
X0260831Y0081567D03*
X0256531Y0081467D03*
X0252031Y0081667D03*
X0250131Y0079367D03*
X0251731Y0077567D03*
X0256231Y0075767D03*
X0247531Y0081667D03*
X0242331Y0079867D03*
X0242331Y0079267D03*
X0242231Y0079167D03*
X0246331Y0086467D03*
X0246331Y0086967D03*
X0248431Y0086967D03*
X0253031Y0086967D03*
X0253031Y0087067D03*
X0253031Y0086467D03*
X0255331Y0086467D03*
X0255331Y0086867D03*
X0259631Y0086867D03*
X0259631Y0086967D03*
X0259631Y0086467D03*
X0259631Y0086367D03*
X0261731Y0086467D03*
X0261731Y0086867D03*
X0266531Y0086867D03*
X0266531Y0086367D03*
X0266531Y0086267D03*
X0268131Y0086367D03*
X0269331Y0081467D03*
X0265531Y0081467D03*
X0270331Y0075467D03*
X0250031Y0069067D03*
D37*
X0249981Y0068967D03*
X0259081Y0065067D03*
X0266181Y0060567D03*
X0269081Y0059267D03*
X0269081Y0063267D03*
X0263481Y0056867D03*
X0266181Y0055767D03*
X0266281Y0050367D03*
X0245281Y0050567D03*
X0244681Y0049367D03*
X0244681Y0048967D03*
X0244881Y0055167D03*
X0233581Y0061567D03*
X0230081Y0069267D03*
X0230081Y0069467D03*
X0230081Y0069567D03*
X0230081Y0069667D03*
X0230081Y0069767D03*
X0227281Y0078367D03*
X0234981Y0078367D03*
X0242181Y0079067D03*
X0245181Y0078867D03*
X0256181Y0075867D03*
X0260481Y0074367D03*
X0265981Y0073367D03*
X0267081Y0074667D03*
X0268081Y0075867D03*
X0268081Y0075967D03*
X0270281Y0074967D03*
X0270281Y0074867D03*
X0270181Y0074767D03*
X0260781Y0081667D03*
X0257481Y0086467D03*
X0257481Y0086867D03*
X0264381Y0086367D03*
X0250881Y0086967D03*
X0219481Y0060967D03*
X0219481Y0060867D03*
X0219481Y0060767D03*
X0219481Y0060667D03*
X0219481Y0060567D03*
D38*
X0219531Y0061067D03*
X0219531Y0061167D03*
X0221031Y0069167D03*
X0221831Y0070067D03*
X0221831Y0070167D03*
X0221831Y0070267D03*
X0223531Y0071267D03*
X0223631Y0072467D03*
X0223531Y0072567D03*
X0223531Y0072667D03*
X0223531Y0072767D03*
X0223531Y0072867D03*
X0223531Y0072967D03*
X0223531Y0073067D03*
X0223531Y0073167D03*
X0223531Y0073267D03*
X0221831Y0073267D03*
X0221831Y0073367D03*
X0221831Y0073467D03*
X0221031Y0074467D03*
X0220231Y0072767D03*
X0220231Y0072667D03*
X0220231Y0072567D03*
X0220231Y0072467D03*
X0220231Y0072367D03*
X0220231Y0072267D03*
X0220231Y0072167D03*
X0220231Y0072067D03*
X0220231Y0071967D03*
X0220231Y0071867D03*
X0220231Y0071767D03*
X0220231Y0071667D03*
X0220231Y0071567D03*
X0227631Y0074467D03*
X0228431Y0073367D03*
X0228431Y0073267D03*
X0228431Y0073167D03*
X0230031Y0073067D03*
X0230031Y0072967D03*
X0230131Y0072767D03*
X0230131Y0072667D03*
X0230131Y0072567D03*
X0230131Y0072467D03*
X0230131Y0073267D03*
X0230131Y0073367D03*
X0230131Y0073467D03*
X0230131Y0071467D03*
X0230131Y0071367D03*
X0230131Y0071267D03*
X0230131Y0071167D03*
X0230131Y0071067D03*
X0230031Y0070967D03*
X0230031Y0070867D03*
X0230031Y0070767D03*
X0230031Y0070667D03*
X0230031Y0070567D03*
X0230031Y0070467D03*
X0230031Y0070367D03*
X0230031Y0070267D03*
X0230031Y0070167D03*
X0230031Y0070067D03*
X0230031Y0069967D03*
X0230031Y0069867D03*
X0230131Y0069367D03*
X0231631Y0069267D03*
X0228431Y0070167D03*
X0228431Y0070267D03*
X0228431Y0070367D03*
X0228431Y0070467D03*
X0238731Y0065367D03*
X0249931Y0068867D03*
X0260631Y0066967D03*
X0262131Y0068767D03*
X0263631Y0070567D03*
X0267031Y0074767D03*
X0264531Y0077067D03*
X0262731Y0076667D03*
X0262631Y0076767D03*
X0257731Y0077067D03*
X0253331Y0078667D03*
X0250431Y0078567D03*
X0250331Y0078667D03*
X0250231Y0078767D03*
X0247531Y0081767D03*
X0239931Y0084167D03*
X0239931Y0078467D03*
X0237931Y0078467D03*
X0256531Y0081567D03*
X0265531Y0081567D03*
X0269331Y0081567D03*
X0266131Y0060467D03*
X0263531Y0052567D03*
X0269131Y0049367D03*
X0244831Y0055267D03*
X0234831Y0049967D03*
X0234831Y0048967D03*
X0214031Y0070067D03*
X0212431Y0070167D03*
X0212431Y0070267D03*
X0212431Y0070367D03*
X0212431Y0070467D03*
X0210831Y0070467D03*
X0210831Y0070567D03*
X0210831Y0070667D03*
X0210831Y0070767D03*
X0210831Y0070867D03*
X0210831Y0070967D03*
X0210831Y0070367D03*
X0210831Y0070267D03*
X0210831Y0070167D03*
X0210831Y0070067D03*
X0209231Y0070167D03*
X0209231Y0070267D03*
X0209231Y0070367D03*
X0209231Y0070467D03*
X0209231Y0070567D03*
X0209231Y0070667D03*
X0209331Y0072967D03*
X0209331Y0073067D03*
X0209331Y0073167D03*
X0209331Y0073267D03*
X0209331Y0073367D03*
X0209331Y0073467D03*
X0209331Y0073567D03*
X0210831Y0073567D03*
X0210831Y0073467D03*
X0210831Y0073367D03*
X0212431Y0073367D03*
X0212431Y0073267D03*
X0212431Y0073167D03*
X0213231Y0074467D03*
X0216631Y0079467D03*
D39*
X0231081Y0079067D03*
X0234981Y0079067D03*
X0234981Y0083567D03*
X0234981Y0083667D03*
X0231181Y0083667D03*
X0231181Y0083567D03*
X0249081Y0067667D03*
X0255181Y0065867D03*
X0266181Y0059367D03*
X0266181Y0059267D03*
X0266181Y0056967D03*
X0263481Y0055667D03*
X0269081Y0060467D03*
X0269081Y0062067D03*
X0266281Y0049167D03*
X0244381Y0056667D03*
X0235381Y0065867D03*
D40*
X0235881Y0066467D03*
X0235981Y0066567D03*
X0236081Y0066667D03*
X0235581Y0063267D03*
X0235681Y0063167D03*
X0235781Y0063067D03*
X0227181Y0061267D03*
X0227181Y0061167D03*
X0227181Y0061067D03*
X0227181Y0060967D03*
X0227181Y0060867D03*
X0227181Y0060767D03*
X0227181Y0060567D03*
X0223981Y0063967D03*
X0224481Y0069367D03*
X0224481Y0071767D03*
X0224481Y0072267D03*
X0224481Y0073867D03*
X0224481Y0073967D03*
X0230981Y0073967D03*
X0230981Y0073867D03*
X0230981Y0072267D03*
X0230981Y0072167D03*
X0230981Y0071567D03*
X0227681Y0069867D03*
X0221081Y0069867D03*
X0213281Y0069867D03*
X0213281Y0069767D03*
X0209981Y0069867D03*
X0210081Y0073767D03*
X0213281Y0073767D03*
X0209381Y0081867D03*
X0231081Y0078767D03*
X0234981Y0078767D03*
X0234981Y0083867D03*
X0246981Y0075067D03*
X0249281Y0067967D03*
X0254381Y0066667D03*
X0254481Y0066567D03*
X0254581Y0066467D03*
X0254681Y0063167D03*
X0254581Y0063067D03*
X0246881Y0054367D03*
X0244481Y0056367D03*
X0263481Y0053467D03*
X0269181Y0050267D03*
X0266281Y0049367D03*
X0266181Y0056667D03*
X0269981Y0057067D03*
X0269081Y0062267D03*
D41*
X0263531Y0052667D03*
X0269131Y0049467D03*
X0245231Y0050767D03*
X0244731Y0055467D03*
X0224831Y0062267D03*
X0224831Y0062367D03*
X0224831Y0062467D03*
X0224831Y0062567D03*
X0224831Y0062667D03*
X0224731Y0063067D03*
X0224731Y0063167D03*
X0224731Y0063267D03*
X0224631Y0063667D03*
X0224631Y0063767D03*
X0224631Y0063867D03*
X0223231Y0063567D03*
X0223131Y0063067D03*
X0223131Y0062967D03*
X0223131Y0062867D03*
X0223131Y0062767D03*
X0223031Y0062467D03*
X0223031Y0062367D03*
X0223031Y0062267D03*
X0221131Y0062267D03*
X0221131Y0062367D03*
X0221131Y0062467D03*
X0221131Y0062567D03*
X0221131Y0062667D03*
X0221131Y0062767D03*
X0221131Y0062867D03*
X0221131Y0062967D03*
X0221131Y0063067D03*
X0221131Y0063167D03*
X0221131Y0062167D03*
X0221131Y0062067D03*
X0221131Y0061967D03*
X0221131Y0061867D03*
X0221131Y0061767D03*
X0221131Y0061667D03*
X0221131Y0061567D03*
X0221131Y0061467D03*
X0221131Y0061367D03*
X0221131Y0061267D03*
X0221131Y0061167D03*
X0221131Y0061067D03*
X0221131Y0060967D03*
X0221131Y0060867D03*
X0221131Y0060767D03*
X0221131Y0060667D03*
X0221131Y0060567D03*
X0219531Y0061667D03*
X0219531Y0061767D03*
X0220331Y0069967D03*
X0223531Y0070167D03*
X0225131Y0070167D03*
X0225131Y0070267D03*
X0225131Y0070367D03*
X0225131Y0070467D03*
X0225131Y0070667D03*
X0225131Y0070767D03*
X0225131Y0071167D03*
X0225131Y0071267D03*
X0225131Y0071367D03*
X0225131Y0071467D03*
X0225131Y0072367D03*
X0225131Y0072467D03*
X0225131Y0072567D03*
X0225131Y0073367D03*
X0225131Y0073467D03*
X0226831Y0072967D03*
X0226931Y0073667D03*
X0228331Y0073667D03*
X0230231Y0072367D03*
X0231631Y0072367D03*
X0221731Y0073667D03*
X0218031Y0073367D03*
X0214031Y0073567D03*
X0212531Y0073667D03*
X0210731Y0072667D03*
X0209331Y0071067D03*
X0210031Y0069167D03*
X0212531Y0069967D03*
X0214431Y0079667D03*
X0214431Y0079767D03*
X0214431Y0079867D03*
X0214431Y0079967D03*
X0214431Y0080067D03*
X0214431Y0080167D03*
X0214431Y0080367D03*
X0214431Y0080467D03*
X0214431Y0080567D03*
X0214431Y0082067D03*
X0214431Y0082167D03*
X0214431Y0082267D03*
X0214431Y0082367D03*
X0214431Y0082467D03*
X0214431Y0082567D03*
X0214431Y0082667D03*
X0214431Y0082767D03*
X0214431Y0082867D03*
X0218831Y0082867D03*
X0218831Y0082767D03*
X0218831Y0082667D03*
X0218831Y0082567D03*
X0218831Y0082467D03*
X0218831Y0082367D03*
X0218831Y0082267D03*
X0218831Y0082167D03*
X0218831Y0082067D03*
X0218831Y0080567D03*
X0218831Y0080467D03*
X0218831Y0080367D03*
X0218831Y0080267D03*
X0218831Y0080167D03*
X0218831Y0080067D03*
X0218831Y0079967D03*
X0218831Y0079867D03*
X0218831Y0079767D03*
X0218831Y0079667D03*
X0220831Y0078367D03*
X0220831Y0084167D03*
X0230331Y0083267D03*
X0231231Y0084267D03*
X0232131Y0083167D03*
X0232131Y0083067D03*
X0232131Y0082967D03*
X0232131Y0082867D03*
X0232131Y0082767D03*
X0232131Y0082667D03*
X0232131Y0080367D03*
X0232131Y0080267D03*
X0232131Y0080167D03*
X0232131Y0080067D03*
X0232131Y0079967D03*
X0232131Y0079867D03*
X0232131Y0079767D03*
X0232131Y0079667D03*
X0232031Y0079367D03*
X0237931Y0078667D03*
X0237931Y0078567D03*
X0239931Y0083867D03*
X0239931Y0083967D03*
X0239931Y0084067D03*
X0234931Y0084267D03*
X0249831Y0068767D03*
D42*
X0249781Y0068667D03*
X0243781Y0066367D03*
X0239581Y0070767D03*
X0239681Y0070867D03*
X0239781Y0070967D03*
X0240081Y0071367D03*
X0240181Y0071467D03*
X0237981Y0078767D03*
X0237981Y0078867D03*
X0237981Y0078967D03*
X0235981Y0079467D03*
X0235981Y0079567D03*
X0235981Y0079667D03*
X0235981Y0079767D03*
X0235981Y0079867D03*
X0235981Y0079967D03*
X0235981Y0080067D03*
X0235981Y0080167D03*
X0235981Y0080267D03*
X0235981Y0080367D03*
X0235981Y0080467D03*
X0235981Y0080567D03*
X0235981Y0080667D03*
X0235981Y0080767D03*
X0235981Y0080867D03*
X0235981Y0080967D03*
X0235981Y0081067D03*
X0235981Y0081167D03*
X0235981Y0081267D03*
X0235981Y0081367D03*
X0235981Y0081467D03*
X0235981Y0081567D03*
X0235981Y0081667D03*
X0235981Y0081767D03*
X0235981Y0081867D03*
X0235981Y0081967D03*
X0235981Y0082067D03*
X0235981Y0082167D03*
X0235981Y0082267D03*
X0235981Y0082367D03*
X0235981Y0082467D03*
X0235981Y0082567D03*
X0235981Y0082667D03*
X0235981Y0082767D03*
X0235981Y0082867D03*
X0235981Y0082967D03*
X0235981Y0083067D03*
X0235981Y0083167D03*
X0235881Y0083367D03*
X0234081Y0083267D03*
X0233981Y0083167D03*
X0233981Y0083067D03*
X0233981Y0082967D03*
X0233981Y0082867D03*
X0233981Y0082767D03*
X0233981Y0082667D03*
X0233981Y0082567D03*
X0233981Y0082467D03*
X0233981Y0082367D03*
X0233981Y0082267D03*
X0233981Y0082167D03*
X0233981Y0082067D03*
X0233981Y0081967D03*
X0233981Y0081867D03*
X0233981Y0081767D03*
X0233981Y0080667D03*
X0233981Y0080567D03*
X0233981Y0080467D03*
X0233981Y0080367D03*
X0233981Y0080267D03*
X0233981Y0080167D03*
X0233981Y0080067D03*
X0233981Y0079967D03*
X0233981Y0079867D03*
X0233981Y0079767D03*
X0233981Y0079667D03*
X0233981Y0079567D03*
X0234081Y0079467D03*
X0234081Y0079367D03*
X0235881Y0079367D03*
X0232081Y0079467D03*
X0232081Y0079567D03*
X0230281Y0079367D03*
X0230181Y0079467D03*
X0230181Y0079567D03*
X0230181Y0079667D03*
X0230181Y0079767D03*
X0230181Y0079867D03*
X0230181Y0079967D03*
X0230181Y0080067D03*
X0230181Y0080167D03*
X0230181Y0080267D03*
X0228281Y0080267D03*
X0228281Y0080367D03*
X0228281Y0080467D03*
X0228281Y0080567D03*
X0228281Y0080667D03*
X0228281Y0080767D03*
X0228281Y0080867D03*
X0228281Y0080967D03*
X0228281Y0081067D03*
X0228281Y0081167D03*
X0228281Y0081267D03*
X0228281Y0081367D03*
X0228281Y0081467D03*
X0228281Y0081567D03*
X0228281Y0081667D03*
X0228281Y0081767D03*
X0228281Y0081867D03*
X0228281Y0081967D03*
X0228281Y0082067D03*
X0228281Y0082167D03*
X0228281Y0082267D03*
X0228281Y0082367D03*
X0228281Y0082467D03*
X0228281Y0082567D03*
X0228281Y0082667D03*
X0228281Y0082767D03*
X0228281Y0082867D03*
X0228281Y0082967D03*
X0228281Y0083067D03*
X0228281Y0083167D03*
X0228281Y0083267D03*
X0228281Y0083367D03*
X0228281Y0083467D03*
X0228281Y0083567D03*
X0228281Y0083667D03*
X0228281Y0083767D03*
X0228281Y0083867D03*
X0228281Y0083967D03*
X0228281Y0084067D03*
X0228281Y0084167D03*
X0226381Y0084167D03*
X0226381Y0084067D03*
X0226381Y0083967D03*
X0226381Y0083867D03*
X0226381Y0083767D03*
X0226381Y0083667D03*
X0226381Y0083567D03*
X0226381Y0083467D03*
X0226381Y0083367D03*
X0226381Y0083267D03*
X0226381Y0083167D03*
X0226381Y0083067D03*
X0226381Y0082967D03*
X0226381Y0082867D03*
X0226381Y0082767D03*
X0226381Y0082667D03*
X0226381Y0082567D03*
X0226381Y0082467D03*
X0226381Y0082367D03*
X0226381Y0082267D03*
X0226381Y0082167D03*
X0226381Y0082067D03*
X0226381Y0081967D03*
X0226381Y0081867D03*
X0226381Y0081767D03*
X0226381Y0081667D03*
X0226381Y0081567D03*
X0226381Y0081467D03*
X0226381Y0081367D03*
X0226381Y0081267D03*
X0226381Y0081167D03*
X0226381Y0081067D03*
X0226381Y0080967D03*
X0226381Y0080867D03*
X0226381Y0080767D03*
X0226381Y0080667D03*
X0226381Y0080567D03*
X0226381Y0080467D03*
X0226381Y0080367D03*
X0226381Y0080267D03*
X0226381Y0080167D03*
X0226381Y0080067D03*
X0226381Y0079967D03*
X0226381Y0079867D03*
X0226381Y0079767D03*
X0226381Y0079667D03*
X0226381Y0079567D03*
X0228281Y0079567D03*
X0228281Y0079667D03*
X0228281Y0079767D03*
X0228281Y0079867D03*
X0228281Y0079967D03*
X0228281Y0080067D03*
X0228281Y0080167D03*
X0228281Y0079467D03*
X0230281Y0082667D03*
X0230281Y0082767D03*
X0230281Y0082867D03*
X0230281Y0082967D03*
X0230281Y0083067D03*
X0230281Y0083167D03*
X0230381Y0083367D03*
X0232081Y0083367D03*
X0232081Y0083267D03*
X0232081Y0082567D03*
X0232081Y0082467D03*
X0239881Y0083567D03*
X0239881Y0083667D03*
X0239881Y0083767D03*
X0245181Y0078667D03*
X0220881Y0078667D03*
X0220881Y0078767D03*
X0220881Y0078867D03*
X0220881Y0078967D03*
X0220881Y0079067D03*
X0220881Y0079167D03*
X0220881Y0079267D03*
X0220881Y0079367D03*
X0220881Y0079467D03*
X0220881Y0079567D03*
X0220881Y0079667D03*
X0220881Y0079767D03*
X0220881Y0079867D03*
X0220881Y0079967D03*
X0220881Y0080067D03*
X0220881Y0080167D03*
X0220881Y0080267D03*
X0220881Y0080367D03*
X0220881Y0080467D03*
X0220881Y0080567D03*
X0220881Y0080667D03*
X0220881Y0080767D03*
X0220881Y0080867D03*
X0220881Y0080967D03*
X0220881Y0081067D03*
X0220881Y0081167D03*
X0220881Y0081267D03*
X0220881Y0081367D03*
X0220881Y0081467D03*
X0220881Y0081567D03*
X0220881Y0081667D03*
X0220881Y0081767D03*
X0220881Y0081867D03*
X0220881Y0081967D03*
X0220881Y0082067D03*
X0220881Y0082167D03*
X0220881Y0082267D03*
X0220881Y0082367D03*
X0220881Y0082467D03*
X0220881Y0082567D03*
X0220881Y0082667D03*
X0220881Y0082767D03*
X0220881Y0082867D03*
X0220881Y0082967D03*
X0220881Y0083067D03*
X0220881Y0083167D03*
X0220881Y0083267D03*
X0220881Y0083367D03*
X0220881Y0083467D03*
X0220881Y0083567D03*
X0220881Y0083667D03*
X0220881Y0083767D03*
X0220881Y0083867D03*
X0220881Y0083967D03*
X0220881Y0084067D03*
X0218781Y0082967D03*
X0218781Y0081967D03*
X0218781Y0080667D03*
X0218781Y0079567D03*
X0220881Y0078567D03*
X0220881Y0078467D03*
X0214381Y0079567D03*
X0214381Y0080267D03*
X0214381Y0080667D03*
X0214381Y0081967D03*
X0214381Y0082967D03*
X0209981Y0082967D03*
X0209981Y0082867D03*
X0209981Y0082767D03*
X0209981Y0082667D03*
X0209981Y0082567D03*
X0209981Y0082467D03*
X0209981Y0082367D03*
X0209981Y0082267D03*
X0209981Y0082167D03*
X0209981Y0082067D03*
X0209981Y0081967D03*
X0209981Y0080667D03*
X0209981Y0080567D03*
X0209981Y0080467D03*
X0209981Y0080367D03*
X0209981Y0080267D03*
X0209981Y0080167D03*
X0209981Y0080067D03*
X0209981Y0079967D03*
X0209981Y0079867D03*
X0209981Y0079767D03*
X0209981Y0079667D03*
X0209981Y0079567D03*
X0210681Y0072567D03*
X0209481Y0071267D03*
X0209381Y0071167D03*
X0219481Y0062167D03*
X0219481Y0062067D03*
X0219481Y0061967D03*
X0219481Y0061867D03*
X0222881Y0061167D03*
X0222881Y0061067D03*
X0222881Y0060967D03*
X0222881Y0060867D03*
X0222881Y0060767D03*
X0223081Y0062167D03*
X0224781Y0062167D03*
X0224981Y0060967D03*
X0224981Y0060867D03*
X0239081Y0059267D03*
X0239581Y0058667D03*
X0239681Y0058567D03*
X0239781Y0058467D03*
X0239881Y0058367D03*
X0240181Y0057967D03*
X0240281Y0057867D03*
X0240381Y0057767D03*
X0240481Y0057667D03*
X0245281Y0050867D03*
X0263481Y0052767D03*
X0266281Y0050167D03*
X0266281Y0050067D03*
X0269181Y0049567D03*
X0263481Y0056667D03*
X0266181Y0060267D03*
X0269081Y0059467D03*
X0269081Y0063067D03*
D43*
X0266181Y0060167D03*
X0270081Y0057767D03*
X0270181Y0057867D03*
X0270281Y0057967D03*
X0266381Y0055867D03*
X0266281Y0055967D03*
X0263481Y0052867D03*
X0266281Y0049967D03*
X0269181Y0049667D03*
X0252181Y0060267D03*
X0252081Y0060167D03*
X0251981Y0060067D03*
X0251881Y0059967D03*
X0251881Y0059867D03*
X0251681Y0059667D03*
X0251581Y0059567D03*
X0251481Y0059467D03*
X0251381Y0059367D03*
X0251281Y0059267D03*
X0250781Y0058667D03*
X0250081Y0057867D03*
X0249981Y0057767D03*
X0249881Y0057667D03*
X0249781Y0057567D03*
X0249681Y0057467D03*
X0249581Y0057267D03*
X0249481Y0057167D03*
X0249381Y0057067D03*
X0249281Y0056967D03*
X0249181Y0056867D03*
X0244681Y0055667D03*
X0241681Y0056267D03*
X0241581Y0056367D03*
X0241481Y0056467D03*
X0241381Y0056567D03*
X0238681Y0059767D03*
X0238581Y0059867D03*
X0238481Y0059967D03*
X0238381Y0060067D03*
X0238281Y0060167D03*
X0227681Y0064367D03*
X0221081Y0069267D03*
X0213281Y0069267D03*
X0210581Y0072467D03*
X0209581Y0071367D03*
X0210081Y0074367D03*
X0213281Y0074367D03*
X0212381Y0079467D03*
X0214281Y0079467D03*
X0227281Y0078467D03*
X0231981Y0082267D03*
X0234981Y0078467D03*
X0238081Y0079367D03*
X0238081Y0079467D03*
X0238081Y0079567D03*
X0238081Y0079667D03*
X0239781Y0082967D03*
X0239781Y0083067D03*
X0239781Y0083167D03*
X0245181Y0078467D03*
X0241381Y0072867D03*
X0241281Y0072767D03*
X0241181Y0072667D03*
X0241081Y0072567D03*
X0240981Y0072467D03*
X0240981Y0072367D03*
X0240881Y0072267D03*
X0239081Y0070167D03*
X0238981Y0070067D03*
X0238581Y0069567D03*
X0238481Y0069467D03*
X0238381Y0069367D03*
X0249981Y0071767D03*
X0250181Y0071467D03*
X0250281Y0071367D03*
X0250381Y0071267D03*
X0250481Y0071167D03*
X0250581Y0071067D03*
X0250781Y0070767D03*
X0250881Y0070667D03*
X0250981Y0070567D03*
X0251081Y0070467D03*
X0251181Y0070367D03*
X0251481Y0069967D03*
X0251581Y0069867D03*
X0245281Y0050967D03*
X0219481Y0062567D03*
X0219481Y0062667D03*
D44*
X0219481Y0063167D03*
X0218181Y0065267D03*
X0220881Y0065267D03*
X0210381Y0072267D03*
X0221081Y0074267D03*
X0230481Y0080767D03*
X0231781Y0082067D03*
X0234981Y0084167D03*
X0238181Y0080367D03*
X0238181Y0080267D03*
X0238181Y0080167D03*
X0239681Y0082267D03*
X0239681Y0082367D03*
X0239681Y0082467D03*
X0245181Y0078367D03*
X0242281Y0073867D03*
X0242181Y0073767D03*
X0242081Y0073667D03*
X0241981Y0073567D03*
X0241881Y0073467D03*
X0241781Y0073367D03*
X0237881Y0068767D03*
X0237781Y0068667D03*
X0237681Y0068567D03*
X0249681Y0068467D03*
X0252281Y0069067D03*
X0252381Y0068967D03*
X0252481Y0068867D03*
X0249281Y0072567D03*
X0249181Y0072667D03*
X0249081Y0072767D03*
X0248981Y0072867D03*
X0248881Y0072967D03*
X0252881Y0061067D03*
X0252781Y0060967D03*
X0252681Y0060867D03*
X0252581Y0060767D03*
X0248781Y0056367D03*
X0248681Y0056267D03*
X0248581Y0056167D03*
X0248381Y0055867D03*
X0248281Y0055767D03*
X0242481Y0055367D03*
X0242381Y0055467D03*
X0242281Y0055567D03*
X0237781Y0060767D03*
X0237681Y0060867D03*
X0237581Y0060967D03*
X0237481Y0061067D03*
X0266181Y0060067D03*
X0269081Y0059767D03*
X0269981Y0057567D03*
X0266181Y0056267D03*
X0266181Y0056167D03*
X0269181Y0049767D03*
D45*
X0269181Y0049867D03*
X0266181Y0056367D03*
X0263481Y0056267D03*
X0266181Y0059867D03*
X0266181Y0059967D03*
X0269081Y0059867D03*
X0253481Y0061767D03*
X0253381Y0061667D03*
X0253281Y0061567D03*
X0253181Y0068067D03*
X0253081Y0068167D03*
X0252981Y0068267D03*
X0252881Y0068367D03*
X0248481Y0073467D03*
X0248381Y0073567D03*
X0248281Y0073667D03*
X0248181Y0073767D03*
X0242781Y0074467D03*
X0242681Y0074367D03*
X0245181Y0078167D03*
X0238281Y0080767D03*
X0234981Y0078567D03*
X0231081Y0078567D03*
X0230681Y0080967D03*
X0231681Y0081967D03*
X0227281Y0078567D03*
X0231181Y0074367D03*
X0237381Y0068167D03*
X0237281Y0068067D03*
X0237181Y0067967D03*
X0237081Y0067867D03*
X0236981Y0061667D03*
X0237081Y0061567D03*
X0237181Y0061467D03*
X0242581Y0055267D03*
X0242681Y0055167D03*
X0242781Y0055067D03*
X0242881Y0054967D03*
X0244581Y0055967D03*
X0247781Y0055267D03*
X0247881Y0055367D03*
X0247981Y0055467D03*
X0248081Y0055567D03*
X0231781Y0051167D03*
X0228381Y0051167D03*
X0228381Y0051067D03*
X0228381Y0050967D03*
X0228381Y0050867D03*
X0222481Y0050867D03*
X0222481Y0050967D03*
X0222481Y0051067D03*
X0222481Y0051167D03*
X0216481Y0051167D03*
X0210281Y0051167D03*
X0218281Y0064067D03*
X0218281Y0064167D03*
X0218281Y0064267D03*
X0218281Y0064367D03*
X0218281Y0064467D03*
X0218281Y0064567D03*
X0220781Y0064567D03*
X0220781Y0064667D03*
X0220781Y0064767D03*
X0220781Y0064867D03*
X0220781Y0064467D03*
X0223981Y0065267D03*
X0213281Y0069367D03*
D46*
X0213231Y0069567D03*
X0210031Y0069567D03*
X0213231Y0074067D03*
X0221031Y0073967D03*
X0224631Y0074267D03*
X0224631Y0072067D03*
X0227631Y0073967D03*
X0227631Y0074067D03*
X0231131Y0074267D03*
X0231131Y0071967D03*
X0231131Y0071867D03*
X0227631Y0069567D03*
X0221031Y0069567D03*
X0223931Y0064767D03*
X0223931Y0064667D03*
X0227231Y0065267D03*
X0236231Y0062567D03*
X0236331Y0062467D03*
X0236531Y0067167D03*
X0236531Y0067267D03*
X0243331Y0074967D03*
X0247531Y0074467D03*
X0245231Y0077967D03*
X0235031Y0078667D03*
X0231131Y0078667D03*
X0230931Y0081267D03*
X0231231Y0081467D03*
X0231331Y0081567D03*
X0231431Y0081667D03*
X0231231Y0084067D03*
X0227331Y0078667D03*
X0254031Y0067067D03*
X0253931Y0062267D03*
X0247331Y0054767D03*
X0247231Y0054667D03*
X0244531Y0056167D03*
X0243331Y0054467D03*
X0245231Y0051667D03*
X0245231Y0051567D03*
X0263631Y0053167D03*
X0263731Y0053067D03*
X0269131Y0050067D03*
X0270031Y0057267D03*
X0269031Y0062567D03*
X0268931Y0062667D03*
D47*
X0269081Y0063167D03*
X0269081Y0059367D03*
X0266181Y0060367D03*
X0263481Y0056767D03*
X0266281Y0050267D03*
X0245281Y0050667D03*
X0244781Y0055367D03*
X0250781Y0065167D03*
X0265981Y0073467D03*
X0264681Y0076867D03*
X0264581Y0076967D03*
X0262581Y0076867D03*
X0257881Y0076867D03*
X0257781Y0076967D03*
X0253481Y0078467D03*
X0253381Y0078567D03*
X0245181Y0078767D03*
X0239981Y0078767D03*
X0239981Y0078867D03*
X0239981Y0078967D03*
X0239981Y0079067D03*
X0239981Y0079167D03*
X0239981Y0079267D03*
X0239981Y0079367D03*
X0239981Y0079467D03*
X0239981Y0079567D03*
X0239981Y0079667D03*
X0239981Y0079767D03*
X0239981Y0079867D03*
X0239981Y0079967D03*
X0239981Y0080067D03*
X0239981Y0080167D03*
X0239981Y0080267D03*
X0239981Y0080367D03*
X0239981Y0080467D03*
X0239981Y0080567D03*
X0239981Y0080667D03*
X0239981Y0080767D03*
X0239981Y0078667D03*
X0239981Y0078567D03*
X0237881Y0081967D03*
X0237881Y0082067D03*
X0237881Y0082167D03*
X0237881Y0082267D03*
X0237881Y0082367D03*
X0237881Y0082467D03*
X0237881Y0082567D03*
X0237881Y0082667D03*
X0237881Y0082767D03*
X0237881Y0082867D03*
X0237881Y0082967D03*
X0237881Y0083067D03*
X0237881Y0083167D03*
X0237881Y0083267D03*
X0237881Y0083367D03*
X0237881Y0083467D03*
X0237881Y0083567D03*
X0237881Y0083667D03*
X0237881Y0083767D03*
X0237881Y0083867D03*
X0237881Y0083967D03*
X0237881Y0084067D03*
X0237881Y0084167D03*
X0232081Y0080467D03*
X0230281Y0082567D03*
X0228381Y0073567D03*
X0228381Y0073467D03*
X0228481Y0073067D03*
X0228481Y0072967D03*
X0228481Y0072867D03*
X0228481Y0072767D03*
X0228481Y0072667D03*
X0228481Y0072567D03*
X0228481Y0072467D03*
X0228481Y0072367D03*
X0228481Y0072267D03*
X0228481Y0072167D03*
X0228481Y0072067D03*
X0228481Y0071967D03*
X0228481Y0071867D03*
X0228481Y0071767D03*
X0228481Y0071667D03*
X0228481Y0071567D03*
X0228481Y0071467D03*
X0228481Y0071367D03*
X0228481Y0071267D03*
X0228481Y0071167D03*
X0228481Y0071067D03*
X0228481Y0070967D03*
X0228481Y0070867D03*
X0228481Y0070767D03*
X0228481Y0070667D03*
X0228481Y0070567D03*
X0228381Y0070067D03*
X0228381Y0069967D03*
X0227581Y0069167D03*
X0226881Y0069967D03*
X0226881Y0070067D03*
X0226881Y0070167D03*
X0226881Y0070267D03*
X0226881Y0070367D03*
X0226881Y0070467D03*
X0226881Y0070567D03*
X0226881Y0070667D03*
X0226881Y0070767D03*
X0226881Y0070867D03*
X0226881Y0070967D03*
X0226881Y0071067D03*
X0226881Y0071167D03*
X0226881Y0071267D03*
X0226881Y0071367D03*
X0226881Y0071467D03*
X0226881Y0071567D03*
X0226881Y0071667D03*
X0226881Y0071767D03*
X0226881Y0071867D03*
X0226881Y0071967D03*
X0226881Y0072067D03*
X0226881Y0072167D03*
X0226881Y0072267D03*
X0226881Y0072367D03*
X0226881Y0072467D03*
X0226881Y0072567D03*
X0226881Y0072667D03*
X0226881Y0072767D03*
X0226881Y0072867D03*
X0226881Y0073067D03*
X0226881Y0073167D03*
X0226881Y0073267D03*
X0226881Y0073367D03*
X0226881Y0073467D03*
X0226881Y0073567D03*
X0225181Y0073267D03*
X0225181Y0073167D03*
X0225181Y0073067D03*
X0225181Y0072967D03*
X0225181Y0072867D03*
X0225181Y0072767D03*
X0225181Y0072667D03*
X0223681Y0072367D03*
X0223581Y0071467D03*
X0223581Y0071367D03*
X0223481Y0071167D03*
X0223481Y0071067D03*
X0223481Y0070967D03*
X0223481Y0070867D03*
X0223481Y0070767D03*
X0223481Y0070667D03*
X0223481Y0070567D03*
X0223481Y0070467D03*
X0223481Y0070367D03*
X0223481Y0070267D03*
X0221881Y0070367D03*
X0221881Y0070467D03*
X0221881Y0070567D03*
X0221881Y0070667D03*
X0221881Y0070767D03*
X0221881Y0070867D03*
X0221881Y0070967D03*
X0221881Y0071067D03*
X0221881Y0071167D03*
X0221881Y0071267D03*
X0221881Y0071367D03*
X0221881Y0071467D03*
X0221881Y0071567D03*
X0221881Y0071667D03*
X0221881Y0071767D03*
X0221881Y0071867D03*
X0221881Y0071967D03*
X0221881Y0072067D03*
X0221881Y0072167D03*
X0221881Y0072267D03*
X0221881Y0072367D03*
X0221881Y0072467D03*
X0221881Y0072567D03*
X0221881Y0072667D03*
X0221881Y0072767D03*
X0221881Y0072867D03*
X0221881Y0072967D03*
X0221881Y0073067D03*
X0221881Y0073167D03*
X0221781Y0073567D03*
X0220381Y0073667D03*
X0220281Y0073567D03*
X0220281Y0073467D03*
X0220281Y0073367D03*
X0220281Y0073267D03*
X0220281Y0073167D03*
X0220281Y0073067D03*
X0220281Y0072967D03*
X0220281Y0072867D03*
X0220281Y0071467D03*
X0220281Y0071367D03*
X0220281Y0071267D03*
X0220281Y0071167D03*
X0220281Y0071067D03*
X0220281Y0070967D03*
X0220281Y0070867D03*
X0220281Y0070767D03*
X0220281Y0070667D03*
X0220281Y0070567D03*
X0220281Y0070467D03*
X0220281Y0070367D03*
X0220281Y0070267D03*
X0220281Y0070167D03*
X0220281Y0070067D03*
X0221781Y0069967D03*
X0225181Y0070567D03*
X0225181Y0070867D03*
X0225181Y0070967D03*
X0225181Y0071067D03*
X0223581Y0073367D03*
X0223581Y0073467D03*
X0218081Y0073267D03*
X0218081Y0073167D03*
X0218081Y0073067D03*
X0218081Y0072967D03*
X0218081Y0072867D03*
X0218081Y0072767D03*
X0218081Y0072667D03*
X0218081Y0072567D03*
X0218081Y0072467D03*
X0218081Y0072367D03*
X0218081Y0072267D03*
X0218081Y0072167D03*
X0218081Y0072067D03*
X0218081Y0071967D03*
X0218081Y0071867D03*
X0218081Y0071767D03*
X0218081Y0071667D03*
X0218081Y0071567D03*
X0218081Y0071467D03*
X0218081Y0071367D03*
X0218081Y0071267D03*
X0218081Y0071167D03*
X0218081Y0071067D03*
X0218081Y0070967D03*
X0218081Y0070867D03*
X0218081Y0070767D03*
X0218081Y0070667D03*
X0218081Y0070567D03*
X0218081Y0070467D03*
X0218081Y0070367D03*
X0218081Y0070267D03*
X0218081Y0070167D03*
X0218081Y0070067D03*
X0218081Y0069967D03*
X0218081Y0069867D03*
X0218081Y0069767D03*
X0218081Y0069667D03*
X0218081Y0069567D03*
X0218081Y0069467D03*
X0218081Y0069367D03*
X0218081Y0069267D03*
X0215781Y0069267D03*
X0215781Y0069367D03*
X0215781Y0069467D03*
X0215781Y0069567D03*
X0215781Y0069667D03*
X0215781Y0069767D03*
X0215781Y0069867D03*
X0215781Y0069967D03*
X0215781Y0070067D03*
X0215781Y0070167D03*
X0215781Y0070267D03*
X0215781Y0070367D03*
X0215781Y0070467D03*
X0215781Y0070567D03*
X0215781Y0070667D03*
X0215781Y0070767D03*
X0215781Y0070867D03*
X0215781Y0070967D03*
X0215781Y0071067D03*
X0215781Y0071167D03*
X0215781Y0071267D03*
X0215781Y0071367D03*
X0215781Y0071467D03*
X0215781Y0071567D03*
X0215781Y0071667D03*
X0215781Y0071767D03*
X0215781Y0071867D03*
X0215781Y0071967D03*
X0215781Y0072067D03*
X0215781Y0072167D03*
X0215781Y0072267D03*
X0215781Y0072367D03*
X0215781Y0072467D03*
X0215781Y0072567D03*
X0215781Y0072667D03*
X0215781Y0072767D03*
X0215781Y0072867D03*
X0215781Y0072967D03*
X0215781Y0073067D03*
X0215781Y0073167D03*
X0215781Y0073267D03*
X0215781Y0073367D03*
X0215781Y0073467D03*
X0215781Y0073567D03*
X0215781Y0073667D03*
X0215781Y0073767D03*
X0215781Y0073867D03*
X0215781Y0073967D03*
X0215781Y0074067D03*
X0215781Y0074167D03*
X0215781Y0074267D03*
X0215781Y0074367D03*
X0214081Y0073467D03*
X0214081Y0073367D03*
X0214081Y0073267D03*
X0214081Y0073167D03*
X0214081Y0073067D03*
X0214081Y0072967D03*
X0214081Y0072867D03*
X0214081Y0072767D03*
X0214081Y0072667D03*
X0214081Y0072567D03*
X0214081Y0072467D03*
X0214081Y0072367D03*
X0214081Y0072267D03*
X0214081Y0072167D03*
X0214081Y0072067D03*
X0214081Y0071967D03*
X0214081Y0071867D03*
X0214081Y0071767D03*
X0214081Y0071667D03*
X0214081Y0071567D03*
X0214081Y0071467D03*
X0214081Y0071367D03*
X0214081Y0071267D03*
X0214081Y0071167D03*
X0214081Y0071067D03*
X0214081Y0070967D03*
X0214081Y0070867D03*
X0214081Y0070767D03*
X0214081Y0070667D03*
X0214081Y0070567D03*
X0214081Y0070467D03*
X0214081Y0070367D03*
X0214081Y0070267D03*
X0214081Y0070167D03*
X0213981Y0069967D03*
X0213281Y0069167D03*
X0212481Y0070067D03*
X0212381Y0070567D03*
X0212381Y0070667D03*
X0212381Y0070767D03*
X0212381Y0070867D03*
X0212381Y0070967D03*
X0212381Y0071067D03*
X0212381Y0071167D03*
X0212381Y0072267D03*
X0212381Y0072367D03*
X0212381Y0072467D03*
X0212381Y0072567D03*
X0212381Y0072667D03*
X0212381Y0072767D03*
X0212381Y0072867D03*
X0212381Y0072967D03*
X0212381Y0073067D03*
X0212481Y0073467D03*
X0212481Y0073567D03*
X0213981Y0073667D03*
X0210881Y0073267D03*
X0210881Y0073167D03*
X0210881Y0073067D03*
X0210881Y0072967D03*
X0210881Y0072867D03*
X0210781Y0072767D03*
X0210781Y0073667D03*
X0210081Y0074467D03*
X0209381Y0073667D03*
X0209281Y0070967D03*
X0209281Y0070867D03*
X0209281Y0070767D03*
X0209281Y0070067D03*
X0209281Y0069967D03*
X0210781Y0069967D03*
X0217881Y0063267D03*
X0217881Y0063167D03*
X0217881Y0063067D03*
X0217881Y0062967D03*
X0217881Y0062867D03*
X0217881Y0062767D03*
X0217881Y0062667D03*
X0217881Y0062567D03*
X0217881Y0062467D03*
X0217881Y0062367D03*
X0217881Y0062267D03*
X0217881Y0062167D03*
X0217881Y0062067D03*
X0217881Y0061967D03*
X0217881Y0061867D03*
X0217881Y0061767D03*
X0217881Y0061667D03*
X0217881Y0061567D03*
X0217881Y0061467D03*
X0217881Y0061367D03*
X0217881Y0061267D03*
X0217881Y0061167D03*
X0217881Y0061067D03*
X0217881Y0060967D03*
X0217881Y0060867D03*
X0217881Y0060767D03*
X0217881Y0060667D03*
X0217881Y0060567D03*
X0219481Y0061267D03*
X0219481Y0061367D03*
X0219481Y0061467D03*
X0219481Y0061567D03*
X0223081Y0062567D03*
X0223081Y0062667D03*
X0223181Y0063167D03*
X0223181Y0063267D03*
X0223181Y0063367D03*
X0223181Y0063467D03*
X0223281Y0063667D03*
X0223281Y0063767D03*
X0223281Y0063867D03*
X0224681Y0063567D03*
X0224681Y0063467D03*
X0224681Y0063367D03*
X0224781Y0062967D03*
X0224781Y0062867D03*
X0224781Y0062767D03*
X0231681Y0069367D03*
X0231681Y0069467D03*
X0231681Y0069567D03*
X0231681Y0069667D03*
X0231681Y0069767D03*
X0231681Y0069867D03*
X0231681Y0069967D03*
X0231681Y0070067D03*
X0231681Y0070167D03*
X0231681Y0070267D03*
X0231681Y0070367D03*
X0231681Y0070467D03*
X0231681Y0070567D03*
X0231681Y0070667D03*
X0231681Y0070767D03*
X0231681Y0070867D03*
X0231681Y0070967D03*
X0231681Y0071067D03*
X0231681Y0071167D03*
X0231681Y0071267D03*
X0231681Y0071367D03*
X0231681Y0071467D03*
X0231681Y0072467D03*
X0231681Y0072567D03*
X0231681Y0072667D03*
X0231681Y0072767D03*
X0231681Y0072867D03*
X0231681Y0072967D03*
X0231681Y0073067D03*
X0231681Y0073167D03*
X0231681Y0073267D03*
X0231681Y0073367D03*
X0231681Y0073467D03*
X0230081Y0073167D03*
X0230081Y0072867D03*
D48*
X0224331Y0070067D03*
X0224331Y0069967D03*
X0235431Y0065967D03*
X0235531Y0066067D03*
X0235331Y0063567D03*
X0235431Y0063467D03*
X0245231Y0052167D03*
X0245231Y0052067D03*
X0263531Y0053667D03*
X0263531Y0055767D03*
X0269131Y0060367D03*
X0269231Y0060267D03*
X0269331Y0060167D03*
X0269131Y0050467D03*
X0255131Y0063667D03*
X0255031Y0063567D03*
X0255031Y0065967D03*
X0254931Y0066067D03*
X0268131Y0070667D03*
X0245231Y0077367D03*
X0245231Y0077467D03*
X0235031Y0078967D03*
X0231131Y0078967D03*
X0227331Y0078967D03*
X0227331Y0079067D03*
X0231231Y0083767D03*
D49*
X0231231Y0083467D03*
X0231131Y0079267D03*
X0231131Y0079167D03*
X0227331Y0079167D03*
X0227331Y0079267D03*
X0245231Y0077267D03*
X0255231Y0065767D03*
X0255431Y0063967D03*
X0255331Y0063867D03*
X0255231Y0063767D03*
X0244331Y0056767D03*
X0245231Y0052267D03*
X0263531Y0053767D03*
X0269131Y0050567D03*
X0235231Y0063667D03*
X0235131Y0063767D03*
X0235031Y0063867D03*
X0235231Y0065767D03*
X0230431Y0065267D03*
X0230431Y0064467D03*
X0223931Y0062067D03*
D50*
X0223931Y0061867D03*
X0223931Y0061767D03*
X0223931Y0061667D03*
X0223931Y0061567D03*
X0223931Y0061467D03*
X0230431Y0064667D03*
X0230431Y0064767D03*
X0230431Y0064867D03*
X0230431Y0064967D03*
X0234731Y0064767D03*
X0234731Y0064667D03*
X0234731Y0064567D03*
X0234831Y0064467D03*
X0234831Y0064367D03*
X0234831Y0064267D03*
X0234931Y0064067D03*
X0234831Y0064967D03*
X0234831Y0065067D03*
X0234831Y0065167D03*
X0234931Y0065267D03*
X0234931Y0065367D03*
X0244331Y0056867D03*
X0245231Y0052467D03*
X0245231Y0052367D03*
X0263531Y0053867D03*
X0263531Y0055467D03*
X0269831Y0056467D03*
X0269831Y0056767D03*
X0269131Y0050767D03*
X0269131Y0050667D03*
X0255631Y0064467D03*
X0255631Y0064567D03*
X0255631Y0064667D03*
X0255631Y0064767D03*
X0255631Y0064867D03*
X0255631Y0064967D03*
X0255631Y0065067D03*
X0255531Y0065167D03*
X0255531Y0065267D03*
X0255431Y0065467D03*
X0248931Y0067467D03*
X0245231Y0077067D03*
X0245231Y0077167D03*
X0238931Y0080867D03*
X0238931Y0080967D03*
X0238931Y0081067D03*
X0238931Y0081167D03*
X0238931Y0081267D03*
X0238931Y0081367D03*
X0238931Y0081467D03*
X0238931Y0081567D03*
X0238931Y0081667D03*
X0238931Y0081767D03*
X0238931Y0081867D03*
D51*
X0239731Y0082567D03*
X0239731Y0082667D03*
X0239731Y0082767D03*
X0239731Y0082867D03*
X0238131Y0080067D03*
X0238131Y0079967D03*
X0238131Y0079867D03*
X0238131Y0079767D03*
X0231931Y0082167D03*
X0230431Y0080667D03*
X0241431Y0072967D03*
X0241531Y0073067D03*
X0241631Y0073167D03*
X0241731Y0073267D03*
X0238331Y0069267D03*
X0238231Y0069167D03*
X0238131Y0069067D03*
X0238031Y0068967D03*
X0237931Y0068867D03*
X0230431Y0064367D03*
X0227631Y0061367D03*
X0219531Y0062767D03*
X0219531Y0062867D03*
X0219531Y0062967D03*
X0219531Y0063067D03*
X0227631Y0069267D03*
X0237831Y0060667D03*
X0237931Y0060567D03*
X0238031Y0060467D03*
X0238131Y0060367D03*
X0238231Y0060267D03*
X0241731Y0056167D03*
X0241831Y0056067D03*
X0241931Y0055967D03*
X0242031Y0055867D03*
X0242131Y0055767D03*
X0242231Y0055667D03*
X0244631Y0055767D03*
X0248431Y0055967D03*
X0248531Y0056067D03*
X0248831Y0056467D03*
X0248931Y0056567D03*
X0249031Y0056667D03*
X0249131Y0056767D03*
X0249631Y0057367D03*
X0252231Y0060367D03*
X0252331Y0060467D03*
X0252431Y0060567D03*
X0252531Y0060667D03*
X0263531Y0056467D03*
X0266231Y0056067D03*
X0263531Y0052967D03*
X0270031Y0057667D03*
X0269131Y0059667D03*
X0269131Y0062867D03*
X0252231Y0069167D03*
X0252131Y0069267D03*
X0252031Y0069367D03*
X0251931Y0069467D03*
X0251831Y0069567D03*
X0251731Y0069667D03*
X0251631Y0069767D03*
X0251431Y0070067D03*
X0251331Y0070167D03*
X0251231Y0070267D03*
X0250731Y0070867D03*
X0250631Y0070967D03*
X0250131Y0071567D03*
X0250031Y0071667D03*
X0249831Y0071867D03*
X0249831Y0071967D03*
X0249731Y0072067D03*
X0249631Y0072167D03*
X0249531Y0072267D03*
X0249431Y0072367D03*
X0249331Y0072467D03*
X0249731Y0068567D03*
X0245231Y0051167D03*
X0245231Y0051067D03*
X0210031Y0069267D03*
X0209631Y0071467D03*
X0209731Y0071567D03*
X0210531Y0072367D03*
D52*
X0210331Y0072167D03*
X0210231Y0072067D03*
X0210131Y0071967D03*
X0210031Y0071867D03*
X0209931Y0071767D03*
X0209831Y0071667D03*
X0210031Y0069367D03*
X0210131Y0074267D03*
X0213231Y0074267D03*
X0221031Y0069367D03*
X0227631Y0069367D03*
X0227631Y0074267D03*
X0230531Y0080867D03*
X0231231Y0084167D03*
X0238231Y0080667D03*
X0238231Y0080567D03*
X0238231Y0080467D03*
X0239631Y0081967D03*
X0239631Y0082067D03*
X0239631Y0082167D03*
X0245231Y0078267D03*
X0242631Y0074267D03*
X0242531Y0074167D03*
X0242431Y0074067D03*
X0242331Y0073967D03*
X0248531Y0073367D03*
X0248631Y0073267D03*
X0248731Y0073167D03*
X0248831Y0073067D03*
X0249631Y0068367D03*
X0252531Y0068767D03*
X0252631Y0068667D03*
X0252731Y0068567D03*
X0252831Y0068467D03*
X0253231Y0061467D03*
X0253131Y0061367D03*
X0253031Y0061267D03*
X0252931Y0061167D03*
X0248131Y0055667D03*
X0244631Y0055867D03*
X0245231Y0051267D03*
X0237431Y0061167D03*
X0237331Y0061267D03*
X0237231Y0061367D03*
X0237431Y0068267D03*
X0237531Y0068367D03*
X0237631Y0068467D03*
X0220831Y0065167D03*
X0220831Y0065067D03*
X0220831Y0064967D03*
X0218231Y0064967D03*
X0218231Y0065067D03*
X0218231Y0065167D03*
X0218231Y0064867D03*
X0218231Y0064767D03*
X0218231Y0064667D03*
X0263531Y0056367D03*
X0270031Y0057467D03*
D53*
X0269081Y0061167D03*
X0269081Y0061267D03*
X0269081Y0061367D03*
X0266181Y0058567D03*
X0266181Y0057667D03*
X0263481Y0054967D03*
X0263481Y0054467D03*
X0269081Y0051367D03*
X0244081Y0057467D03*
X0248381Y0066867D03*
X0248481Y0066967D03*
X0268681Y0071067D03*
D54*
X0268631Y0070967D03*
X0268631Y0070867D03*
X0245231Y0076367D03*
X0244031Y0057567D03*
X0245231Y0053167D03*
X0263531Y0054867D03*
X0269331Y0055167D03*
X0269331Y0055267D03*
X0269331Y0055367D03*
X0269031Y0051467D03*
D55*
X0269031Y0051567D03*
X0269231Y0054967D03*
X0269231Y0055567D03*
X0263531Y0054767D03*
X0263531Y0054667D03*
X0245231Y0053367D03*
X0244031Y0057667D03*
X0244031Y0057767D03*
X0245231Y0076167D03*
X0245231Y0076267D03*
D56*
X0248181Y0066667D03*
X0266181Y0058367D03*
X0266181Y0057867D03*
X0269181Y0054867D03*
X0268981Y0051667D03*
D57*
X0268981Y0051767D03*
X0268981Y0051867D03*
X0269081Y0054567D03*
X0269081Y0054667D03*
X0266181Y0058067D03*
X0266181Y0058167D03*
X0266181Y0058267D03*
X0248081Y0066567D03*
X0245281Y0075967D03*
D58*
X0245231Y0077767D03*
X0243431Y0075067D03*
X0247131Y0074967D03*
X0254131Y0066967D03*
X0254231Y0066867D03*
X0254331Y0066767D03*
X0254531Y0062967D03*
X0254431Y0062867D03*
X0254331Y0062767D03*
X0269131Y0062367D03*
X0270031Y0057167D03*
X0245231Y0051867D03*
X0245231Y0051767D03*
X0236031Y0062767D03*
X0235931Y0062867D03*
X0235831Y0062967D03*
X0236131Y0066767D03*
X0236231Y0066867D03*
X0231031Y0071667D03*
X0231031Y0072067D03*
X0231031Y0074067D03*
X0227631Y0073867D03*
X0227631Y0073767D03*
X0224531Y0074067D03*
X0224531Y0072167D03*
X0224531Y0071867D03*
X0224531Y0069267D03*
X0227631Y0069767D03*
X0221031Y0069767D03*
X0221031Y0073767D03*
X0221031Y0073867D03*
X0213231Y0073867D03*
X0210131Y0073867D03*
X0210031Y0069767D03*
X0210031Y0069667D03*
X0223931Y0064067D03*
X0227231Y0064467D03*
X0227231Y0064567D03*
X0227231Y0064667D03*
X0227231Y0064767D03*
X0227231Y0064867D03*
X0227231Y0064967D03*
X0227231Y0065067D03*
X0227231Y0065167D03*
X0227231Y0060667D03*
X0227331Y0078767D03*
X0231231Y0083967D03*
D59*
X0245231Y0075867D03*
X0247931Y0066467D03*
X0244031Y0057967D03*
X0245231Y0053667D03*
X0268931Y0051967D03*
X0269031Y0054467D03*
D60*
X0266131Y0056767D03*
X0266131Y0059567D03*
X0266031Y0059667D03*
X0265931Y0059767D03*
X0263231Y0056167D03*
X0263331Y0056067D03*
X0263431Y0055967D03*
X0263531Y0053567D03*
X0246731Y0054267D03*
X0245231Y0051967D03*
X0243631Y0054267D03*
X0244431Y0056467D03*
X0249231Y0067867D03*
X0254631Y0066367D03*
X0243631Y0075167D03*
X0245231Y0077567D03*
X0245231Y0077667D03*
X0235031Y0078867D03*
X0231231Y0083867D03*
X0227331Y0078867D03*
X0224431Y0073767D03*
X0224431Y0073667D03*
X0224431Y0073567D03*
X0224431Y0071667D03*
X0224431Y0069467D03*
X0218031Y0073467D03*
X0218031Y0073567D03*
X0218031Y0073667D03*
X0218031Y0073767D03*
X0218031Y0073867D03*
X0218031Y0073967D03*
X0218031Y0074067D03*
X0218031Y0074167D03*
X0218031Y0074267D03*
X0218031Y0074367D03*
X0230931Y0073767D03*
X0230931Y0073667D03*
X0230931Y0073567D03*
D61*
X0243981Y0058067D03*
X0268981Y0054367D03*
X0268881Y0052067D03*
D62*
X0268881Y0052167D03*
X0268881Y0054167D03*
X0245181Y0053867D03*
D63*
X0245181Y0054167D03*
X0243881Y0058467D03*
X0267781Y0065167D03*
X0268681Y0053667D03*
X0268681Y0052667D03*
X0268681Y0052267D03*
D64*
X0268731Y0052367D03*
X0268731Y0052467D03*
X0268731Y0052567D03*
X0268731Y0053767D03*
X0267831Y0065267D03*
X0245231Y0075467D03*
X0243931Y0058367D03*
X0245231Y0054067D03*
D65*
X0268631Y0053567D03*
X0268631Y0052767D03*
X0245231Y0075367D03*
D66*
X0245281Y0075267D03*
X0243881Y0058667D03*
X0243881Y0058567D03*
X0268581Y0053467D03*
X0268581Y0053367D03*
X0268581Y0052867D03*
D67*
X0269531Y0055667D03*
X0269531Y0055767D03*
X0263531Y0055167D03*
X0263531Y0054267D03*
X0245231Y0052867D03*
X0244131Y0057267D03*
X0245231Y0076667D03*
D68*
X0268531Y0053267D03*
X0268531Y0053067D03*
X0268531Y0052967D03*
D69*
X0263531Y0054367D03*
X0269131Y0061067D03*
X0268731Y0071167D03*
X0245231Y0076467D03*
X0245231Y0076567D03*
X0244131Y0057367D03*
X0245231Y0053067D03*
X0245231Y0052967D03*
D70*
X0223131Y0053067D03*
D71*
X0243881Y0058767D03*
X0268481Y0053167D03*
D72*
X0223081Y0053167D03*
X0219381Y0059567D03*
D73*
X0245181Y0053267D03*
X0263481Y0054567D03*
X0266181Y0057767D03*
X0266181Y0058467D03*
X0269281Y0055467D03*
X0269281Y0055067D03*
X0248281Y0066767D03*
D74*
X0223031Y0053267D03*
D75*
X0222981Y0053367D03*
X0219881Y0059967D03*
D76*
X0244031Y0057867D03*
X0245231Y0053567D03*
X0245231Y0053467D03*
X0266131Y0057967D03*
X0269131Y0054767D03*
X0268931Y0070767D03*
X0245231Y0076067D03*
D77*
X0219831Y0059867D03*
X0222931Y0053467D03*
D78*
X0243931Y0058167D03*
X0245231Y0053767D03*
X0268931Y0054267D03*
X0247831Y0066367D03*
X0245231Y0075767D03*
D79*
X0267781Y0065367D03*
X0267881Y0065467D03*
X0268781Y0053867D03*
D80*
X0268831Y0053967D03*
X0268831Y0054067D03*
X0245231Y0053967D03*
X0243931Y0058267D03*
X0245231Y0075567D03*
X0245231Y0075667D03*
D81*
X0222181Y0055067D03*
D82*
X0222381Y0055167D03*
D83*
X0222381Y0055267D03*
X0222381Y0055367D03*
X0222281Y0055467D03*
D84*
X0222831Y0060567D03*
X0222831Y0060667D03*
X0222931Y0061267D03*
X0224931Y0061267D03*
X0224931Y0061167D03*
X0224931Y0061067D03*
X0225031Y0060767D03*
X0225031Y0060667D03*
X0225031Y0060567D03*
X0227731Y0061467D03*
X0227731Y0061567D03*
X0227731Y0061667D03*
X0227731Y0061767D03*
X0227731Y0061867D03*
X0227731Y0061967D03*
X0227731Y0062067D03*
X0227731Y0062167D03*
X0227731Y0062267D03*
X0227731Y0062367D03*
X0227731Y0062467D03*
X0227731Y0063467D03*
X0227731Y0063567D03*
X0227731Y0063667D03*
X0227731Y0063767D03*
X0227731Y0063867D03*
X0227731Y0063967D03*
X0227731Y0064067D03*
X0227731Y0064167D03*
X0227731Y0064267D03*
X0230431Y0064267D03*
X0230431Y0064167D03*
X0230431Y0064067D03*
X0230431Y0063967D03*
X0230431Y0063867D03*
X0230431Y0063767D03*
X0230431Y0063667D03*
X0230431Y0063567D03*
X0230431Y0063467D03*
X0230431Y0063367D03*
X0230431Y0063267D03*
X0230431Y0063167D03*
X0230431Y0063067D03*
X0230431Y0062967D03*
X0230431Y0062867D03*
X0230431Y0062767D03*
X0230431Y0062667D03*
X0230431Y0062567D03*
X0230431Y0062467D03*
X0230431Y0062367D03*
X0230431Y0062267D03*
X0230431Y0062167D03*
X0230431Y0062067D03*
X0230431Y0061967D03*
X0230431Y0061867D03*
X0230431Y0061767D03*
X0230431Y0061667D03*
X0230431Y0061567D03*
X0230431Y0061467D03*
X0230431Y0061367D03*
X0230431Y0061267D03*
X0230431Y0061167D03*
X0230431Y0061067D03*
X0230431Y0060967D03*
X0230431Y0060867D03*
X0230431Y0060767D03*
X0230431Y0060667D03*
X0230431Y0060567D03*
X0238731Y0059667D03*
X0238831Y0059567D03*
X0238931Y0059467D03*
X0239031Y0059367D03*
X0239131Y0059167D03*
X0239231Y0059067D03*
X0239331Y0058967D03*
X0239431Y0058867D03*
X0239531Y0058767D03*
X0239931Y0058267D03*
X0240031Y0058167D03*
X0240131Y0058067D03*
X0240531Y0057567D03*
X0240631Y0057467D03*
X0240731Y0057367D03*
X0240731Y0057267D03*
X0240931Y0057167D03*
X0240931Y0057067D03*
X0241031Y0056967D03*
X0241131Y0056867D03*
X0241231Y0056767D03*
X0241331Y0056667D03*
X0244731Y0055567D03*
X0250131Y0057967D03*
X0250231Y0058067D03*
X0250331Y0058167D03*
X0250431Y0058267D03*
X0250531Y0058367D03*
X0250631Y0058467D03*
X0250731Y0058567D03*
X0250831Y0058767D03*
X0250931Y0058867D03*
X0251031Y0058967D03*
X0251131Y0059067D03*
X0251231Y0059167D03*
X0251731Y0059767D03*
X0263531Y0056567D03*
X0269131Y0059567D03*
X0269131Y0062967D03*
X0240731Y0072167D03*
X0240631Y0072067D03*
X0240531Y0071967D03*
X0240531Y0071867D03*
X0240431Y0071767D03*
X0240331Y0071667D03*
X0240231Y0071567D03*
X0240031Y0071267D03*
X0239931Y0071167D03*
X0239831Y0071067D03*
X0239531Y0070667D03*
X0239431Y0070567D03*
X0239331Y0070467D03*
X0239231Y0070367D03*
X0239131Y0070267D03*
X0238931Y0069967D03*
X0238831Y0069867D03*
X0238731Y0069767D03*
X0238631Y0069667D03*
X0227631Y0074367D03*
X0221031Y0074367D03*
X0218731Y0079467D03*
X0226431Y0079467D03*
X0226431Y0079367D03*
X0228231Y0079367D03*
X0230231Y0080367D03*
X0230231Y0080467D03*
X0230331Y0080567D03*
X0231131Y0078467D03*
X0232031Y0082367D03*
X0234131Y0083367D03*
X0235931Y0083267D03*
X0239831Y0083267D03*
X0239831Y0083367D03*
X0239831Y0083467D03*
X0238031Y0079267D03*
X0238031Y0079167D03*
X0238031Y0079067D03*
X0245231Y0078567D03*
X0219531Y0062467D03*
X0219531Y0062367D03*
X0219531Y0062267D03*
D85*
X0223481Y0057667D03*
D86*
X0223531Y0057767D03*
D87*
X0223481Y0057867D03*
D88*
X0223431Y0057967D03*
D89*
X0243831Y0058867D03*
D90*
X0243831Y0058967D03*
X0267731Y0067067D03*
D91*
X0243881Y0059067D03*
D92*
X0243881Y0059167D03*
D93*
X0243881Y0059267D03*
D94*
X0243881Y0059367D03*
D95*
X0243881Y0059467D03*
D96*
X0243831Y0059567D03*
X0268231Y0069467D03*
D97*
X0268181Y0069367D03*
X0243881Y0059667D03*
D98*
X0219781Y0059767D03*
X0219681Y0059667D03*
D99*
X0243881Y0059767D03*
X0268081Y0069167D03*
D100*
X0246281Y0066067D03*
X0243881Y0059867D03*
D101*
X0243831Y0059967D03*
D102*
X0243831Y0060067D03*
X0246031Y0065867D03*
D103*
X0243781Y0060167D03*
D104*
X0243831Y0060267D03*
X0245931Y0065767D03*
D105*
X0243831Y0060367D03*
D106*
X0243831Y0060467D03*
X0245631Y0065567D03*
D107*
X0245481Y0065467D03*
X0243781Y0060567D03*
D108*
X0243781Y0060667D03*
X0245381Y0065367D03*
D109*
X0243831Y0060767D03*
D110*
X0243781Y0060867D03*
D111*
X0243781Y0060967D03*
D112*
X0243781Y0061067D03*
D113*
X0243781Y0061167D03*
D114*
X0243831Y0061267D03*
D115*
X0243831Y0061367D03*
D116*
X0243831Y0061467D03*
D117*
X0243881Y0061567D03*
D118*
X0243831Y0061667D03*
D119*
X0243831Y0061767D03*
D120*
X0243881Y0061867D03*
D121*
X0243931Y0061967D03*
D122*
X0243931Y0062067D03*
D123*
X0243981Y0062167D03*
D124*
X0244031Y0062267D03*
D125*
X0244131Y0062367D03*
D126*
X0244181Y0062467D03*
X0243781Y0065267D03*
D127*
X0244281Y0062567D03*
D128*
X0244331Y0062667D03*
D129*
X0244331Y0062767D03*
D130*
X0244381Y0062867D03*
D131*
X0244381Y0062967D03*
D132*
X0244431Y0063067D03*
D133*
X0244431Y0063167D03*
X0244431Y0063267D03*
D134*
X0244431Y0063367D03*
X0244431Y0063467D03*
D135*
X0244431Y0063567D03*
X0244431Y0063667D03*
D136*
X0244431Y0063767D03*
X0244431Y0063867D03*
D137*
X0244381Y0063967D03*
X0244381Y0064067D03*
X0244381Y0064167D03*
X0244381Y0064267D03*
X0244381Y0065067D03*
D138*
X0244331Y0064967D03*
X0244331Y0064867D03*
X0244331Y0064767D03*
X0244331Y0064667D03*
X0244331Y0064567D03*
X0244331Y0064467D03*
X0244331Y0064367D03*
D139*
X0267781Y0067167D03*
X0267781Y0067267D03*
X0267981Y0065067D03*
D140*
X0243681Y0065167D03*
D141*
X0245781Y0065667D03*
D142*
X0246181Y0065967D03*
D143*
X0246431Y0066167D03*
X0268031Y0068967D03*
X0268031Y0069067D03*
D144*
X0268131Y0069267D03*
X0246531Y0066267D03*
D145*
X0267931Y0066867D03*
D146*
X0267731Y0066967D03*
D147*
X0220931Y0068467D03*
X0220831Y0068367D03*
X0220431Y0068267D03*
D148*
X0220981Y0068567D03*
D149*
X0221031Y0068667D03*
X0221031Y0068767D03*
D150*
X0214031Y0077267D03*
X0233231Y0077267D03*
D151*
X0233481Y0077367D03*
X0214381Y0077367D03*
D152*
X0214431Y0077467D03*
X0233531Y0077467D03*
D153*
X0233631Y0077567D03*
X0233631Y0077667D03*
X0214531Y0077667D03*
D154*
X0214481Y0077567D03*
M02*
