%
M48
M72
T01C0.0130
T02C0.0394
T03C0.0400
T04C0.0500
T05C0.1083
%
T01
X7400Y7000
X7700Y9100
X8150Y9550
X8750Y9300
X9350Y9100
X9750Y9500
X10850Y9350
X11050Y9750
X11300Y11300
X12050Y11650
X11300Y12000
X10500Y12150
X10500Y11300
X9650Y11250
X9650Y12200
X9800Y12950
X8900Y12950
X8200Y12050
X7750Y11600
X6750Y12050
X6700Y12950
X7800Y12950
X6750Y10700
X9650Y6950
X13050Y9750
X13350Y9450
X13500Y11200
X12750Y11300
X12750Y12000
X13500Y12150
X13900Y12200
X14900Y13650
X14450Y14000
X16500Y14000
X16750Y16050
X16250Y18150
X17100Y18450
X16750Y18950
X18050Y20750
X18850Y19250
X19200Y18950
X21600Y18850
X21800Y18150
X21050Y16250
X22810Y15400
X23750Y16250
X24100Y14950
X23750Y13550
X23350Y13400
X22800Y13400
X22850Y13900
X22300Y13900
X21700Y13300
X20550Y13300
X19300Y13300
X19400Y12050
X20500Y11600
X21050Y12050
X19400Y10700
X18500Y10750
X20500Y9100
X20950Y9550
X21550Y9300
X22150Y9100
X22550Y9500
X23700Y9300
X23850Y9700
X24150Y11300
X24150Y11950
X24900Y11650
X25550Y11300
X25550Y12000
X26300Y12150
X26300Y11200
X25850Y9750
X26150Y9450
X27600Y9700
X27450Y8350
X27750Y7750
X28050Y7450
X28350Y7150
X28650Y6850
X28950Y6550
X29300Y6250
X30550Y4950
X27100Y7550
X23350Y11300
X22500Y11250
X22500Y12200
X23350Y12150
X27600Y14200
X25250Y17750
X22600Y21450
X22400Y22000
X21650Y22550
X19250Y25200
X18750Y25150
X18050Y25150
X18250Y26150
X18700Y26050
X19300Y26000
X18550Y23600
X15250Y23900
X14750Y25400
X12650Y27250
X11250Y30900
X4400Y29050
X12900Y16550
X10800Y13900
X11200Y13450
X15250Y10850
X16150Y10750
X4400Y15900
X26600Y22850
X27050Y22400
X27550Y21950
X29050Y19500
X29700Y18400
X34450Y12150
X40300Y7450
T02
X30691Y33944
X30691Y34944
X29691Y34944
X29691Y33944
X28691Y33944
X28691Y34944
X27691Y34944
X27691Y33944
X26691Y33944
X26691Y34944
X25691Y34944
X25691Y33944
X24691Y33944
X24691Y34944
X23691Y34944
X23691Y33944
X22691Y33944
X22691Y34944
X21691Y34944
X21691Y33944
X20691Y33944
X20691Y34944
X19691Y34944
X19691Y33944
X18691Y33944
X18691Y34944
X17691Y34944
X17691Y33944
X16691Y33944
X16691Y34944
X15691Y34944
X15691Y33944
X14691Y33944
X14691Y34944
X13691Y34944
X13691Y33944
X12691Y33944
X12691Y34944
X11691Y34944
X11691Y33944
T03
X5050Y5500
X6050Y5500
X7050Y5500
X8050Y5500
X9050Y5500
X10050Y5500
X11300Y5500
X12300Y5500
X13300Y5500
X14300Y5500
X15300Y5500
X16300Y5500
X17550Y5500
X18550Y5500
X19550Y5500
X20550Y5500
X21550Y5500
X22550Y5500
X23800Y5500
X24800Y5500
X25800Y5500
X26800Y5500
X27800Y5500
X28800Y5500
X33800Y5300
X34800Y5300
X35800Y5300
X36800Y5300
X37800Y5300
X38800Y5300
X19950Y14500
X19950Y15500
X18950Y15500
X18950Y14500
X17950Y14500
X17950Y15500
X7800Y14750
X6800Y14750
X5800Y14750
X4800Y14750
X5500Y13300
X5500Y12300
X5517Y10773
X5517Y9773
X5517Y8773
X5517Y7773
X5800Y16950
X4800Y16950
X6800Y16950
X7800Y16950
X7800Y19150
X6800Y19150
X5800Y19150
X4800Y19150
X4800Y21350
X5800Y21350
X6800Y21350
X7800Y21350
X7800Y23550
X6800Y23550
X5800Y23550
X4800Y23550
X4800Y25750
X5800Y25750
X6800Y25750
X7800Y25750
X7800Y27950
X6800Y27950
X5800Y27950
X4800Y27950
X4800Y30150
X5800Y30150
X6800Y30150
X7800Y30150
X7800Y32350
X6800Y32350
X5800Y32350
X4800Y32350
X4800Y34550
X5800Y34550
X6800Y34550
X7800Y34550
T04
X14350Y28500
X15350Y28500
X26650Y16350
X26650Y15350
X14950Y15650
X14950Y14650
T05
X9773Y15152
X9773Y34444
X32608Y34444
X32608Y15152
M30
