G75*
%MOIN*%
%OFA0B0*%
%FSLAX25Y25*%
%IPPOS*%
%LPD*%
%AMOC8*
5,1,8,0,0,1.08239X$1,22.5*
%
%ADD10C,0.00000*%
%ADD11R,0.01378X0.03937*%
%ADD12R,0.19685X0.11811*%
%ADD13R,0.06299X0.07098*%
%ADD14R,0.03543X0.02756*%
%ADD15R,0.02756X0.03543*%
%ADD16R,0.10630X0.10039*%
%ADD17R,0.01969X0.05906*%
%ADD18R,0.05906X0.01969*%
%ADD19R,0.05118X0.05906*%
%ADD20R,0.03150X0.03150*%
%ADD21R,0.07098X0.06299*%
%ADD22R,0.05906X0.05118*%
%ADD23R,0.06300X0.05512*%
D10*
X0034500Y0035000D02*
X0034500Y0359000D01*
X0341000Y0359000D01*
X0341000Y0138500D01*
X0408516Y0138500D01*
X0408516Y0035000D01*
X0034500Y0035000D01*
D11*
X0103839Y0104270D03*
X0106398Y0104270D03*
X0108957Y0104270D03*
X0111516Y0104270D03*
X0114075Y0104270D03*
X0116634Y0104270D03*
X0119193Y0104270D03*
X0121752Y0104270D03*
X0124311Y0104270D03*
X0126870Y0104270D03*
X0129429Y0104270D03*
X0131988Y0104270D03*
X0134547Y0104270D03*
X0137106Y0104270D03*
X0137106Y0128581D03*
X0134547Y0128581D03*
X0131988Y0128581D03*
X0129429Y0128581D03*
X0126870Y0128581D03*
X0124311Y0128581D03*
X0121752Y0128581D03*
X0119193Y0128581D03*
X0116634Y0128581D03*
X0114075Y0128581D03*
X0111516Y0128581D03*
X0108957Y0128581D03*
X0106398Y0128581D03*
X0103839Y0128581D03*
X0231839Y0128581D03*
X0234398Y0128581D03*
X0236957Y0128581D03*
X0239516Y0128581D03*
X0242075Y0128581D03*
X0244634Y0128581D03*
X0247193Y0128581D03*
X0249752Y0128581D03*
X0252311Y0128581D03*
X0254870Y0128581D03*
X0257429Y0128581D03*
X0259988Y0128581D03*
X0262547Y0128581D03*
X0265106Y0128581D03*
X0265106Y0104270D03*
X0262547Y0104270D03*
X0259988Y0104270D03*
X0257429Y0104270D03*
X0254870Y0104270D03*
X0252311Y0104270D03*
X0249752Y0104270D03*
X0247193Y0104270D03*
X0244634Y0104270D03*
X0242075Y0104270D03*
X0239516Y0104270D03*
X0236957Y0104270D03*
X0234398Y0104270D03*
X0231839Y0104270D03*
D12*
X0248472Y0116425D03*
X0120472Y0116425D03*
D13*
X0127669Y0142016D03*
X0138866Y0142016D03*
X0137866Y0083945D03*
X0126669Y0083945D03*
X0114228Y0083945D03*
X0103031Y0083945D03*
X0056098Y0180500D03*
X0044902Y0180500D03*
X0231031Y0083945D03*
X0242228Y0083945D03*
X0254669Y0083945D03*
X0265866Y0083945D03*
X0266866Y0142016D03*
X0255669Y0142016D03*
D14*
X0225866Y0106610D03*
X0225866Y0101492D03*
X0221008Y0101720D03*
X0221008Y0096602D03*
X0233209Y0094295D03*
X0233209Y0099413D03*
X0105209Y0099413D03*
X0105209Y0094295D03*
X0097866Y0101492D03*
X0093008Y0101720D03*
X0093008Y0096602D03*
X0097866Y0106610D03*
D15*
X0135583Y0090835D03*
X0140701Y0090835D03*
X0143535Y0103661D03*
X0143535Y0108740D03*
X0148654Y0108740D03*
X0148654Y0103661D03*
X0142701Y0134142D03*
X0137583Y0134142D03*
X0265583Y0134142D03*
X0270701Y0134142D03*
X0271535Y0108740D03*
X0271535Y0103661D03*
X0276654Y0103661D03*
X0276654Y0108740D03*
X0268701Y0090835D03*
X0263583Y0090835D03*
D16*
X0207744Y0093024D03*
X0207744Y0117984D03*
X0079744Y0117984D03*
X0079744Y0093024D03*
D17*
X0166752Y0199665D03*
X0169902Y0199665D03*
X0173051Y0199665D03*
X0176201Y0199665D03*
X0179350Y0199665D03*
X0182500Y0199665D03*
X0185650Y0199665D03*
X0188799Y0199665D03*
X0191949Y0199665D03*
X0195098Y0199665D03*
X0198248Y0199665D03*
X0198248Y0245335D03*
X0195098Y0245335D03*
X0191949Y0245335D03*
X0188799Y0245335D03*
X0185650Y0245335D03*
X0182500Y0245335D03*
X0179350Y0245335D03*
X0176201Y0245335D03*
X0173051Y0245335D03*
X0169902Y0245335D03*
X0166752Y0245335D03*
D18*
X0159665Y0238248D03*
X0159665Y0235098D03*
X0159665Y0231949D03*
X0159665Y0228799D03*
X0159665Y0225650D03*
X0159665Y0222500D03*
X0159665Y0219350D03*
X0159665Y0216201D03*
X0159665Y0213051D03*
X0159665Y0209902D03*
X0159665Y0206752D03*
X0205335Y0206752D03*
X0205335Y0209902D03*
X0205335Y0213051D03*
X0205335Y0216201D03*
X0205335Y0219350D03*
X0205335Y0222500D03*
X0205335Y0225650D03*
X0205335Y0228799D03*
X0205335Y0231949D03*
X0205335Y0235098D03*
X0205335Y0238248D03*
D19*
G36*
X0206249Y0194041D02*
X0202630Y0197660D01*
X0206805Y0201835D01*
X0210424Y0198216D01*
X0206249Y0194041D01*
G37*
G36*
X0211538Y0188751D02*
X0207919Y0192370D01*
X0212094Y0196545D01*
X0215713Y0192926D01*
X0211538Y0188751D01*
G37*
X0158240Y0246000D03*
X0150760Y0246000D03*
X0056740Y0290500D03*
X0049260Y0290500D03*
X0049260Y0159000D03*
X0056740Y0159000D03*
X0049740Y0067000D03*
X0042260Y0067000D03*
X0388260Y0074500D03*
X0395740Y0074500D03*
D20*
X0328500Y0055453D03*
X0328500Y0049547D03*
X0319000Y0049547D03*
X0319000Y0055453D03*
X0309500Y0055453D03*
X0309500Y0049547D03*
X0127000Y0277047D03*
X0127000Y0282953D03*
X0039500Y0170953D03*
X0039500Y0165047D03*
D21*
X0161000Y0157598D03*
X0161000Y0146402D03*
X0277000Y0150402D03*
X0277000Y0161598D03*
X0309500Y0078598D03*
X0319000Y0078598D03*
X0328500Y0078598D03*
X0328500Y0067402D03*
X0319000Y0067402D03*
X0309500Y0067402D03*
X0379000Y0074902D03*
X0388000Y0083402D03*
X0379000Y0086098D03*
X0388000Y0094598D03*
X0137000Y0312902D03*
X0127000Y0312902D03*
X0127000Y0303098D03*
X0127000Y0291902D03*
X0127000Y0324098D03*
X0137000Y0324098D03*
D22*
X0113000Y0323240D03*
X0113000Y0315760D03*
X0298000Y0051740D03*
X0298000Y0044260D03*
D23*
X0328965Y0103642D03*
X0328965Y0121358D03*
X0362035Y0121358D03*
X0362035Y0103642D03*
M02*
