G75*
%MOIN*%
%OFA0B0*%
%FSLAX25Y25*%
%IPPOS*%
%LPD*%
%AMOC8*
5,1,8,0,0,1.08239X$1,22.5*
%
%ADD10C,0.00000*%
%ADD11R,0.07000X0.07000*%
%ADD12C,0.07000*%
%ADD13C,0.24409*%
%ADD14C,0.06000*%
%ADD15R,0.07500X0.07500*%
%ADD16C,0.07500*%
%ADD17OC8,0.06000*%
%ADD18C,0.01600*%
%ADD19C,0.01950*%
%ADD20C,0.00800*%
%ADD21C,0.01200*%
%ADD22C,0.01300*%
D10*
X0034500Y0035000D02*
X0034500Y0359000D01*
X0341000Y0359000D01*
X0341000Y0138500D01*
X0408516Y0138500D01*
X0408516Y0035000D01*
X0034500Y0035000D01*
D11*
X0116906Y0339437D03*
D12*
X0116906Y0349437D03*
X0126906Y0349437D03*
X0136906Y0349437D03*
X0146906Y0349437D03*
X0156906Y0349437D03*
X0166906Y0349437D03*
X0176906Y0349437D03*
X0186906Y0349437D03*
X0186906Y0339437D03*
X0176906Y0339437D03*
X0166906Y0339437D03*
X0156906Y0339437D03*
X0146906Y0339437D03*
X0136906Y0339437D03*
X0126906Y0339437D03*
X0196906Y0339437D03*
X0206906Y0339437D03*
X0216906Y0339437D03*
X0226906Y0339437D03*
X0236906Y0339437D03*
X0246906Y0339437D03*
X0256906Y0339437D03*
X0266906Y0339437D03*
X0266906Y0349437D03*
X0256906Y0349437D03*
X0246906Y0349437D03*
X0236906Y0349437D03*
X0226906Y0349437D03*
X0216906Y0349437D03*
X0206906Y0349437D03*
X0196906Y0349437D03*
X0276906Y0349437D03*
X0286906Y0349437D03*
X0296906Y0349437D03*
X0306906Y0349437D03*
X0306906Y0339437D03*
X0296906Y0339437D03*
X0286906Y0339437D03*
X0276906Y0339437D03*
D13*
X0326079Y0344437D03*
X0326079Y0151524D03*
X0097732Y0151524D03*
X0097732Y0344437D03*
D14*
X0078000Y0342500D02*
X0078000Y0348500D01*
X0068000Y0348500D02*
X0068000Y0342500D01*
X0058000Y0342500D02*
X0058000Y0348500D01*
X0048000Y0348500D02*
X0048000Y0342500D01*
X0048000Y0326500D02*
X0048000Y0320500D01*
X0058000Y0320500D02*
X0058000Y0326500D01*
X0068000Y0326500D02*
X0068000Y0320500D01*
X0078000Y0320500D02*
X0078000Y0326500D01*
X0078000Y0304500D02*
X0078000Y0298500D01*
X0068000Y0298500D02*
X0068000Y0304500D01*
X0058000Y0304500D02*
X0058000Y0298500D01*
X0048000Y0298500D02*
X0048000Y0304500D01*
X0048000Y0282500D02*
X0048000Y0276500D01*
X0058000Y0276500D02*
X0058000Y0282500D01*
X0068000Y0282500D02*
X0068000Y0276500D01*
X0078000Y0276500D02*
X0078000Y0282500D01*
X0078000Y0260500D02*
X0078000Y0254500D01*
X0068000Y0254500D02*
X0068000Y0260500D01*
X0058000Y0260500D02*
X0058000Y0254500D01*
X0048000Y0254500D02*
X0048000Y0260500D01*
X0048000Y0238500D02*
X0048000Y0232500D01*
X0058000Y0232500D02*
X0058000Y0238500D01*
X0068000Y0238500D02*
X0068000Y0232500D01*
X0078000Y0232500D02*
X0078000Y0238500D01*
X0078000Y0216500D02*
X0078000Y0210500D01*
X0068000Y0210500D02*
X0068000Y0216500D01*
X0058000Y0216500D02*
X0058000Y0210500D01*
X0048000Y0210500D02*
X0048000Y0216500D01*
X0048000Y0194500D02*
X0048000Y0188500D01*
X0058000Y0188500D02*
X0058000Y0194500D01*
X0068000Y0194500D02*
X0068000Y0188500D01*
X0078000Y0188500D02*
X0078000Y0194500D01*
X0078000Y0172500D02*
X0078000Y0166500D01*
X0068000Y0166500D02*
X0068000Y0172500D01*
X0058000Y0172500D02*
X0058000Y0166500D01*
X0048000Y0166500D02*
X0048000Y0172500D01*
X0048000Y0150500D02*
X0048000Y0144500D01*
X0058000Y0144500D02*
X0058000Y0150500D01*
X0068000Y0150500D02*
X0068000Y0144500D01*
X0078000Y0144500D02*
X0078000Y0150500D01*
X0058000Y0133000D02*
X0052000Y0133000D01*
X0052000Y0123000D02*
X0058000Y0123000D01*
X0058169Y0107728D02*
X0052169Y0107728D01*
X0052169Y0097728D02*
X0058169Y0097728D01*
X0058169Y0087728D02*
X0052169Y0087728D01*
X0052169Y0077728D02*
X0058169Y0077728D01*
X0060500Y0058000D02*
X0060500Y0052000D01*
X0050500Y0052000D02*
X0050500Y0058000D01*
X0070500Y0058000D02*
X0070500Y0052000D01*
X0080500Y0052000D02*
X0080500Y0058000D01*
X0090500Y0058000D02*
X0090500Y0052000D01*
X0100500Y0052000D02*
X0100500Y0058000D01*
X0113000Y0058000D02*
X0113000Y0052000D01*
X0123000Y0052000D02*
X0123000Y0058000D01*
X0133000Y0058000D02*
X0133000Y0052000D01*
X0143000Y0052000D02*
X0143000Y0058000D01*
X0153000Y0058000D02*
X0153000Y0052000D01*
X0163000Y0052000D02*
X0163000Y0058000D01*
X0175500Y0058000D02*
X0175500Y0052000D01*
X0185500Y0052000D02*
X0185500Y0058000D01*
X0195500Y0058000D02*
X0195500Y0052000D01*
X0205500Y0052000D02*
X0205500Y0058000D01*
X0215500Y0058000D02*
X0215500Y0052000D01*
X0225500Y0052000D02*
X0225500Y0058000D01*
X0238000Y0058000D02*
X0238000Y0052000D01*
X0248000Y0052000D02*
X0248000Y0058000D01*
X0258000Y0058000D02*
X0258000Y0052000D01*
X0268000Y0052000D02*
X0268000Y0058000D01*
X0278000Y0058000D02*
X0278000Y0052000D01*
X0288000Y0052000D02*
X0288000Y0058000D01*
X0338000Y0056000D02*
X0338000Y0050000D01*
X0348000Y0050000D02*
X0348000Y0056000D01*
X0358000Y0056000D02*
X0358000Y0050000D01*
X0368000Y0050000D02*
X0368000Y0056000D01*
X0378000Y0056000D02*
X0378000Y0050000D01*
X0388000Y0050000D02*
X0388000Y0056000D01*
D15*
X0266500Y0153500D03*
X0149500Y0146500D03*
X0153500Y0285000D03*
D16*
X0143500Y0285000D03*
X0266500Y0163500D03*
X0149500Y0156500D03*
D17*
X0179500Y0155000D03*
X0179500Y0145000D03*
X0189500Y0145000D03*
X0189500Y0155000D03*
X0199500Y0155000D03*
X0199500Y0145000D03*
D18*
X0194300Y0145297D02*
X0313502Y0145297D01*
X0313028Y0146118D02*
X0314872Y0142925D01*
X0317480Y0140317D01*
X0320673Y0138473D01*
X0324235Y0137519D01*
X0327922Y0137519D01*
X0331484Y0138473D01*
X0334678Y0140317D01*
X0337285Y0142925D01*
X0339129Y0146118D01*
X0339200Y0146383D01*
X0339200Y0137754D01*
X0340254Y0136700D01*
X0406716Y0136700D01*
X0406716Y0036800D01*
X0036300Y0036800D01*
X0036300Y0357200D01*
X0091829Y0357200D01*
X0089133Y0355644D01*
X0086526Y0353036D01*
X0084682Y0349843D01*
X0083728Y0346281D01*
X0083728Y0342593D01*
X0084682Y0339031D01*
X0086526Y0335838D01*
X0089133Y0333230D01*
X0092327Y0331387D01*
X0095889Y0330432D01*
X0099576Y0330432D01*
X0103138Y0331387D01*
X0106331Y0333230D01*
X0108939Y0335838D01*
X0110783Y0339031D01*
X0111606Y0342103D01*
X0111606Y0335191D01*
X0112660Y0334137D01*
X0121151Y0334137D01*
X0122205Y0335191D01*
X0122205Y0336934D01*
X0122412Y0336435D01*
X0123903Y0334944D01*
X0125851Y0334137D01*
X0127960Y0334137D01*
X0129908Y0334944D01*
X0131399Y0336435D01*
X0131905Y0337659D01*
X0132412Y0336435D01*
X0133903Y0334944D01*
X0135851Y0334137D01*
X0137960Y0334137D01*
X0139908Y0334944D01*
X0141399Y0336435D01*
X0141905Y0337659D01*
X0142412Y0336435D01*
X0143903Y0334944D01*
X0145851Y0334137D01*
X0147960Y0334137D01*
X0149908Y0334944D01*
X0151399Y0336435D01*
X0152205Y0338383D01*
X0152205Y0340491D01*
X0151399Y0342439D01*
X0149908Y0343930D01*
X0148684Y0344437D01*
X0149908Y0344944D01*
X0151399Y0346435D01*
X0151905Y0347659D01*
X0152412Y0346435D01*
X0153903Y0344944D01*
X0155851Y0344137D01*
X0157960Y0344137D01*
X0159908Y0344944D01*
X0161399Y0346435D01*
X0161905Y0347659D01*
X0162412Y0346435D01*
X0163903Y0344944D01*
X0165127Y0344437D01*
X0163903Y0343930D01*
X0162412Y0342439D01*
X0161606Y0340491D01*
X0161606Y0338383D01*
X0162412Y0336435D01*
X0163903Y0334944D01*
X0165851Y0334137D01*
X0167960Y0334137D01*
X0169908Y0334944D01*
X0171399Y0336435D01*
X0171905Y0337659D01*
X0172412Y0336435D01*
X0173903Y0334944D01*
X0175851Y0334137D01*
X0177960Y0334137D01*
X0179908Y0334944D01*
X0181399Y0336435D01*
X0181905Y0337659D01*
X0182412Y0336435D01*
X0183903Y0334944D01*
X0185851Y0334137D01*
X0187960Y0334137D01*
X0189908Y0334944D01*
X0191399Y0336435D01*
X0191905Y0337659D01*
X0192412Y0336435D01*
X0193903Y0334944D01*
X0195851Y0334137D01*
X0197960Y0334137D01*
X0199908Y0334944D01*
X0201399Y0336435D01*
X0201905Y0337659D01*
X0202412Y0336435D01*
X0203903Y0334944D01*
X0205851Y0334137D01*
X0207960Y0334137D01*
X0209908Y0334944D01*
X0211399Y0336435D01*
X0211905Y0337659D01*
X0212412Y0336435D01*
X0213903Y0334944D01*
X0215851Y0334137D01*
X0217960Y0334137D01*
X0219908Y0334944D01*
X0221399Y0336435D01*
X0221905Y0337659D01*
X0222412Y0336435D01*
X0223903Y0334944D01*
X0225851Y0334137D01*
X0227960Y0334137D01*
X0229908Y0334944D01*
X0231399Y0336435D01*
X0232205Y0338383D01*
X0232205Y0340491D01*
X0231399Y0342439D01*
X0229908Y0343930D01*
X0228684Y0344437D01*
X0229908Y0344944D01*
X0231399Y0346435D01*
X0231905Y0347659D01*
X0232412Y0346435D01*
X0233903Y0344944D01*
X0235851Y0344137D01*
X0237960Y0344137D01*
X0239908Y0344944D01*
X0241399Y0346435D01*
X0241905Y0347659D01*
X0242412Y0346435D01*
X0243903Y0344944D01*
X0245127Y0344437D01*
X0243903Y0343930D01*
X0242412Y0342439D01*
X0241606Y0340491D01*
X0241606Y0338383D01*
X0242412Y0336435D01*
X0243903Y0334944D01*
X0245851Y0334137D01*
X0247960Y0334137D01*
X0249908Y0334944D01*
X0251399Y0336435D01*
X0251905Y0337659D01*
X0252412Y0336435D01*
X0253903Y0334944D01*
X0255851Y0334137D01*
X0257960Y0334137D01*
X0259908Y0334944D01*
X0261399Y0336435D01*
X0261905Y0337659D01*
X0262412Y0336435D01*
X0263903Y0334944D01*
X0265851Y0334137D01*
X0267960Y0334137D01*
X0269908Y0334944D01*
X0271399Y0336435D01*
X0271905Y0337659D01*
X0272412Y0336435D01*
X0273903Y0334944D01*
X0275851Y0334137D01*
X0277960Y0334137D01*
X0279908Y0334944D01*
X0281399Y0336435D01*
X0281905Y0337659D01*
X0282412Y0336435D01*
X0283903Y0334944D01*
X0285851Y0334137D01*
X0287960Y0334137D01*
X0289908Y0334944D01*
X0291399Y0336435D01*
X0291905Y0337659D01*
X0292412Y0336435D01*
X0293903Y0334944D01*
X0295851Y0334137D01*
X0297960Y0334137D01*
X0299908Y0334944D01*
X0301399Y0336435D01*
X0302205Y0338383D01*
X0302205Y0340491D01*
X0301399Y0342439D01*
X0299908Y0343930D01*
X0298684Y0344437D01*
X0299908Y0344944D01*
X0301399Y0346435D01*
X0301906Y0347659D01*
X0302412Y0346435D01*
X0303903Y0344944D01*
X0305851Y0344137D01*
X0307960Y0344137D01*
X0309908Y0344944D01*
X0311399Y0346435D01*
X0312205Y0348383D01*
X0312205Y0350491D01*
X0311399Y0352439D01*
X0309908Y0353930D01*
X0307960Y0354737D01*
X0305851Y0354737D01*
X0303903Y0353930D01*
X0302412Y0352439D01*
X0301906Y0351215D01*
X0301399Y0352439D01*
X0299908Y0353930D01*
X0297960Y0354737D01*
X0295851Y0354737D01*
X0293903Y0353930D01*
X0292412Y0352439D01*
X0291905Y0351215D01*
X0291399Y0352439D01*
X0289908Y0353930D01*
X0287960Y0354737D01*
X0285851Y0354737D01*
X0283903Y0353930D01*
X0282412Y0352439D01*
X0281606Y0350491D01*
X0281606Y0348383D01*
X0282412Y0346435D01*
X0283903Y0344944D01*
X0285127Y0344437D01*
X0283903Y0343930D01*
X0282412Y0342439D01*
X0281905Y0341215D01*
X0281399Y0342439D01*
X0279908Y0343930D01*
X0277960Y0344737D01*
X0275851Y0344737D01*
X0273903Y0343930D01*
X0272412Y0342439D01*
X0271905Y0341215D01*
X0271399Y0342439D01*
X0269908Y0343930D01*
X0268684Y0344437D01*
X0269908Y0344944D01*
X0271399Y0346435D01*
X0272205Y0348383D01*
X0272205Y0350491D01*
X0271399Y0352439D01*
X0269908Y0353930D01*
X0267960Y0354737D01*
X0265851Y0354737D01*
X0263903Y0353930D01*
X0262412Y0352439D01*
X0261606Y0350491D01*
X0261606Y0348383D01*
X0262412Y0346435D01*
X0263903Y0344944D01*
X0265127Y0344437D01*
X0263903Y0343930D01*
X0262412Y0342439D01*
X0261905Y0341215D01*
X0261399Y0342439D01*
X0259908Y0343930D01*
X0257960Y0344737D01*
X0255851Y0344737D01*
X0253903Y0343930D01*
X0252412Y0342439D01*
X0251905Y0341215D01*
X0251399Y0342439D01*
X0249908Y0343930D01*
X0248684Y0344437D01*
X0249908Y0344944D01*
X0251399Y0346435D01*
X0252205Y0348383D01*
X0252205Y0350491D01*
X0251399Y0352439D01*
X0249908Y0353930D01*
X0247960Y0354737D01*
X0245851Y0354737D01*
X0243903Y0353930D01*
X0242412Y0352439D01*
X0241905Y0351215D01*
X0241399Y0352439D01*
X0239908Y0353930D01*
X0237960Y0354737D01*
X0235851Y0354737D01*
X0233903Y0353930D01*
X0232412Y0352439D01*
X0231905Y0351215D01*
X0231399Y0352439D01*
X0229908Y0353930D01*
X0227960Y0354737D01*
X0225851Y0354737D01*
X0223903Y0353930D01*
X0222412Y0352439D01*
X0221905Y0351215D01*
X0221399Y0352439D01*
X0219908Y0353930D01*
X0217960Y0354737D01*
X0215851Y0354737D01*
X0213903Y0353930D01*
X0212412Y0352439D01*
X0211606Y0350491D01*
X0211606Y0348383D01*
X0212412Y0346435D01*
X0213903Y0344944D01*
X0215127Y0344437D01*
X0213903Y0343930D01*
X0212412Y0342439D01*
X0211905Y0341215D01*
X0211399Y0342439D01*
X0209908Y0343930D01*
X0207960Y0344737D01*
X0205851Y0344737D01*
X0203903Y0343930D01*
X0202412Y0342439D01*
X0201905Y0341215D01*
X0201399Y0342439D01*
X0199908Y0343930D01*
X0198684Y0344437D01*
X0199908Y0344944D01*
X0201399Y0346435D01*
X0202205Y0348383D01*
X0202205Y0350491D01*
X0201399Y0352439D01*
X0199908Y0353930D01*
X0197960Y0354737D01*
X0195851Y0354737D01*
X0193903Y0353930D01*
X0192412Y0352439D01*
X0191905Y0351215D01*
X0191399Y0352439D01*
X0189908Y0353930D01*
X0187960Y0354737D01*
X0185851Y0354737D01*
X0183903Y0353930D01*
X0182412Y0352439D01*
X0181606Y0350491D01*
X0181606Y0348383D01*
X0182412Y0346435D01*
X0183903Y0344944D01*
X0185127Y0344437D01*
X0183903Y0343930D01*
X0182412Y0342439D01*
X0181905Y0341215D01*
X0181399Y0342439D01*
X0179908Y0343930D01*
X0177960Y0344737D01*
X0175851Y0344737D01*
X0173903Y0343930D01*
X0172412Y0342439D01*
X0171905Y0341215D01*
X0171399Y0342439D01*
X0169908Y0343930D01*
X0168684Y0344437D01*
X0169908Y0344944D01*
X0171399Y0346435D01*
X0172205Y0348383D01*
X0172205Y0350491D01*
X0171399Y0352439D01*
X0169908Y0353930D01*
X0167960Y0354737D01*
X0165851Y0354737D01*
X0163903Y0353930D01*
X0162412Y0352439D01*
X0161905Y0351215D01*
X0161399Y0352439D01*
X0159908Y0353930D01*
X0157960Y0354737D01*
X0155851Y0354737D01*
X0153903Y0353930D01*
X0152412Y0352439D01*
X0151905Y0351215D01*
X0151399Y0352439D01*
X0149908Y0353930D01*
X0147960Y0354737D01*
X0145851Y0354737D01*
X0143903Y0353930D01*
X0142412Y0352439D01*
X0141606Y0350491D01*
X0141606Y0348383D01*
X0142412Y0346435D01*
X0143903Y0344944D01*
X0145127Y0344437D01*
X0143903Y0343930D01*
X0142412Y0342439D01*
X0141905Y0341215D01*
X0141399Y0342439D01*
X0139908Y0343930D01*
X0137960Y0344737D01*
X0135851Y0344737D01*
X0133903Y0343930D01*
X0132412Y0342439D01*
X0131905Y0341215D01*
X0131399Y0342439D01*
X0129908Y0343930D01*
X0128684Y0344437D01*
X0129908Y0344944D01*
X0131399Y0346435D01*
X0132205Y0348383D01*
X0132205Y0350491D01*
X0131399Y0352439D01*
X0129908Y0353930D01*
X0127960Y0354737D01*
X0125851Y0354737D01*
X0123903Y0353930D01*
X0122412Y0352439D01*
X0121905Y0351215D01*
X0121399Y0352439D01*
X0119908Y0353930D01*
X0117960Y0354737D01*
X0115851Y0354737D01*
X0113903Y0353930D01*
X0112412Y0352439D01*
X0111606Y0350491D01*
X0111606Y0348383D01*
X0112412Y0346435D01*
X0113903Y0344944D01*
X0114403Y0344737D01*
X0112660Y0344737D01*
X0111737Y0343814D01*
X0111737Y0346281D01*
X0110783Y0349843D01*
X0108939Y0353036D01*
X0106331Y0355644D01*
X0103636Y0357200D01*
X0320175Y0357200D01*
X0317480Y0355644D01*
X0314872Y0353036D01*
X0313028Y0349843D01*
X0312074Y0346281D01*
X0312074Y0342593D01*
X0313028Y0339031D01*
X0314872Y0335838D01*
X0317480Y0333230D01*
X0320673Y0331387D01*
X0324235Y0330432D01*
X0327922Y0330432D01*
X0331484Y0331387D01*
X0334678Y0333230D01*
X0337285Y0335838D01*
X0339129Y0339031D01*
X0339200Y0339296D01*
X0339200Y0156664D01*
X0339129Y0156929D01*
X0337285Y0160123D01*
X0334678Y0162730D01*
X0331484Y0164574D01*
X0327922Y0165528D01*
X0324235Y0165528D01*
X0320673Y0164574D01*
X0317480Y0162730D01*
X0314872Y0160123D01*
X0313028Y0156929D01*
X0312074Y0153367D01*
X0312074Y0149680D01*
X0313028Y0146118D01*
X0312820Y0146896D02*
X0241964Y0146896D01*
X0241552Y0146725D02*
X0242572Y0147147D01*
X0243353Y0147928D01*
X0243775Y0148948D01*
X0243775Y0150052D01*
X0243353Y0151072D01*
X0242572Y0151853D01*
X0241552Y0152275D01*
X0240448Y0152275D01*
X0239428Y0151853D01*
X0239276Y0151700D01*
X0233511Y0151700D01*
X0230875Y0154336D01*
X0230875Y0154552D01*
X0230453Y0155572D01*
X0229672Y0156353D01*
X0228652Y0156775D01*
X0227548Y0156775D01*
X0226528Y0156353D01*
X0225747Y0155572D01*
X0225325Y0154552D01*
X0225325Y0153448D01*
X0225747Y0152428D01*
X0226528Y0151647D01*
X0227548Y0151225D01*
X0227764Y0151225D01*
X0230400Y0148589D01*
X0230400Y0148589D01*
X0231689Y0147300D01*
X0239276Y0147300D01*
X0239428Y0147147D01*
X0240448Y0146725D01*
X0241552Y0146725D01*
X0240036Y0146896D02*
X0194300Y0146896D01*
X0194300Y0146988D02*
X0191488Y0149800D01*
X0187512Y0149800D01*
X0184700Y0146988D01*
X0184700Y0143311D01*
X0183589Y0142200D01*
X0183488Y0142200D01*
X0184300Y0143012D01*
X0184300Y0146988D01*
X0181488Y0149800D01*
X0177512Y0149800D01*
X0174700Y0146988D01*
X0174700Y0143012D01*
X0175512Y0142200D01*
X0166724Y0142200D01*
X0166572Y0142353D01*
X0165552Y0142775D01*
X0164448Y0142775D01*
X0163428Y0142353D01*
X0162647Y0141572D01*
X0162225Y0140552D01*
X0162225Y0139448D01*
X0162647Y0138428D01*
X0163428Y0137647D01*
X0164448Y0137225D01*
X0165552Y0137225D01*
X0166572Y0137647D01*
X0166724Y0137800D01*
X0185411Y0137800D01*
X0187811Y0140200D01*
X0191488Y0140200D01*
X0194300Y0143012D01*
X0194300Y0146988D01*
X0192794Y0148494D02*
X0230494Y0148494D01*
X0228896Y0150093D02*
X0155050Y0150093D01*
X0155050Y0150996D02*
X0153996Y0152050D01*
X0152899Y0152050D01*
X0154205Y0153356D01*
X0155050Y0155396D01*
X0155050Y0157604D01*
X0154205Y0159644D01*
X0152644Y0161205D01*
X0150604Y0162050D01*
X0148396Y0162050D01*
X0146356Y0161205D01*
X0144795Y0159644D01*
X0143950Y0157604D01*
X0143950Y0155396D01*
X0144795Y0153356D01*
X0146101Y0152050D01*
X0145004Y0152050D01*
X0143950Y0150996D01*
X0143950Y0142775D01*
X0143948Y0142775D01*
X0142928Y0142353D01*
X0142147Y0141572D01*
X0141993Y0141200D01*
X0109724Y0141200D01*
X0109572Y0141353D01*
X0108552Y0141775D01*
X0107789Y0141775D01*
X0108939Y0142925D01*
X0110783Y0146118D01*
X0111737Y0149680D01*
X0111737Y0153367D01*
X0110783Y0156929D01*
X0108939Y0160123D01*
X0106331Y0162730D01*
X0103138Y0164574D01*
X0099576Y0165528D01*
X0095889Y0165528D01*
X0092327Y0164574D01*
X0089133Y0162730D01*
X0086526Y0160123D01*
X0084682Y0156929D01*
X0083728Y0153367D01*
X0083728Y0149680D01*
X0084682Y0146118D01*
X0086526Y0142925D01*
X0089133Y0140317D01*
X0092327Y0138473D01*
X0095889Y0137519D01*
X0099576Y0137519D01*
X0103138Y0138473D01*
X0105294Y0139718D01*
X0105225Y0139552D01*
X0105225Y0138448D01*
X0105647Y0137428D01*
X0106428Y0136647D01*
X0107448Y0136225D01*
X0108552Y0136225D01*
X0109572Y0136647D01*
X0109724Y0136800D01*
X0110376Y0136800D01*
X0109647Y0136072D01*
X0109225Y0135052D01*
X0109225Y0133948D01*
X0109647Y0132928D01*
X0110428Y0132147D01*
X0111448Y0131725D01*
X0112552Y0131725D01*
X0113572Y0132147D01*
X0113724Y0132300D01*
X0147911Y0132300D01*
X0149336Y0133725D01*
X0149552Y0133725D01*
X0150572Y0134147D01*
X0151353Y0134928D01*
X0151775Y0135948D01*
X0151775Y0137052D01*
X0151353Y0138072D01*
X0150572Y0138853D01*
X0149552Y0139275D01*
X0148448Y0139275D01*
X0147428Y0138853D01*
X0146647Y0138072D01*
X0146225Y0137052D01*
X0146225Y0136836D01*
X0146089Y0136700D01*
X0113724Y0136700D01*
X0113624Y0136800D01*
X0144411Y0136800D01*
X0144836Y0137225D01*
X0145052Y0137225D01*
X0146072Y0137647D01*
X0146853Y0138428D01*
X0147275Y0139448D01*
X0147275Y0140552D01*
X0147110Y0140950D01*
X0153996Y0140950D01*
X0155050Y0142004D01*
X0155050Y0150996D01*
X0154354Y0151691D02*
X0176020Y0151691D01*
X0174700Y0153012D02*
X0177512Y0150200D01*
X0181488Y0150200D01*
X0184300Y0153012D01*
X0184300Y0156988D01*
X0181488Y0159800D01*
X0177512Y0159800D01*
X0174700Y0156988D01*
X0174700Y0153012D01*
X0174700Y0153290D02*
X0154139Y0153290D01*
X0154840Y0154888D02*
X0174700Y0154888D01*
X0174700Y0156487D02*
X0155050Y0156487D01*
X0154851Y0158085D02*
X0166078Y0158085D01*
X0165928Y0158147D02*
X0166948Y0157725D01*
X0168052Y0157725D01*
X0169072Y0158147D01*
X0169853Y0158928D01*
X0170275Y0159948D01*
X0170275Y0161052D01*
X0169853Y0162072D01*
X0169072Y0162853D01*
X0168052Y0163275D01*
X0167836Y0163275D01*
X0163411Y0167700D01*
X0130724Y0167700D01*
X0130572Y0167853D01*
X0129552Y0168275D01*
X0128448Y0168275D01*
X0127428Y0167853D01*
X0126647Y0167072D01*
X0126225Y0166052D01*
X0126225Y0164948D01*
X0126647Y0163928D01*
X0127428Y0163147D01*
X0128448Y0162725D01*
X0129552Y0162725D01*
X0130572Y0163147D01*
X0130724Y0163300D01*
X0161589Y0163300D01*
X0164725Y0160164D01*
X0164725Y0159948D01*
X0165147Y0158928D01*
X0165928Y0158147D01*
X0164834Y0159684D02*
X0154165Y0159684D01*
X0152457Y0161282D02*
X0163606Y0161282D01*
X0162008Y0162881D02*
X0129928Y0162881D01*
X0128072Y0162881D02*
X0106070Y0162881D01*
X0107779Y0161282D02*
X0146543Y0161282D01*
X0144835Y0159684D02*
X0109192Y0159684D01*
X0110115Y0158085D02*
X0144149Y0158085D01*
X0143950Y0156487D02*
X0110901Y0156487D01*
X0111329Y0154888D02*
X0144160Y0154888D01*
X0144861Y0153290D02*
X0111737Y0153290D01*
X0111737Y0151691D02*
X0144646Y0151691D01*
X0143950Y0150093D02*
X0111737Y0150093D01*
X0111419Y0148494D02*
X0143950Y0148494D01*
X0143950Y0146896D02*
X0110991Y0146896D01*
X0110309Y0145297D02*
X0143950Y0145297D01*
X0143950Y0143699D02*
X0109386Y0143699D01*
X0108115Y0142100D02*
X0142676Y0142100D01*
X0147275Y0140502D02*
X0162225Y0140502D01*
X0162451Y0138903D02*
X0150449Y0138903D01*
X0151670Y0137305D02*
X0164256Y0137305D01*
X0165744Y0137305D02*
X0220771Y0137305D01*
X0220647Y0137428D02*
X0221428Y0136647D01*
X0222448Y0136225D01*
X0222664Y0136225D01*
X0225225Y0133664D01*
X0225225Y0133448D01*
X0225647Y0132428D01*
X0226428Y0131647D01*
X0227448Y0131225D01*
X0228552Y0131225D01*
X0229572Y0131647D01*
X0230353Y0132428D01*
X0230750Y0133388D01*
X0231147Y0132428D01*
X0231928Y0131647D01*
X0232948Y0131225D01*
X0234052Y0131225D01*
X0235072Y0131647D01*
X0235853Y0132428D01*
X0236118Y0133069D01*
X0236948Y0132725D01*
X0238052Y0132725D01*
X0239072Y0133147D01*
X0239853Y0133928D01*
X0240275Y0134948D01*
X0240275Y0135164D01*
X0244911Y0139800D01*
X0274276Y0139800D01*
X0274428Y0139647D01*
X0275448Y0139225D01*
X0276552Y0139225D01*
X0277572Y0139647D01*
X0278353Y0140428D01*
X0278775Y0141448D01*
X0278775Y0142552D01*
X0278353Y0143572D01*
X0277572Y0144353D01*
X0276552Y0144775D01*
X0275448Y0144775D01*
X0274428Y0144353D01*
X0274276Y0144200D01*
X0243089Y0144200D01*
X0237164Y0138275D01*
X0236948Y0138275D01*
X0235928Y0137853D01*
X0235147Y0137072D01*
X0234882Y0136431D01*
X0234052Y0136775D01*
X0233836Y0136775D01*
X0231275Y0139336D01*
X0231275Y0139552D01*
X0230853Y0140572D01*
X0230072Y0141353D01*
X0229052Y0141775D01*
X0227948Y0141775D01*
X0226928Y0141353D01*
X0226147Y0140572D01*
X0225750Y0139612D01*
X0225353Y0140572D01*
X0224572Y0141353D01*
X0223552Y0141775D01*
X0222448Y0141775D01*
X0221428Y0141353D01*
X0220647Y0140572D01*
X0220225Y0139552D01*
X0220225Y0138448D01*
X0220647Y0137428D01*
X0220225Y0138903D02*
X0186515Y0138903D01*
X0184700Y0143699D02*
X0184300Y0143699D01*
X0184300Y0145297D02*
X0184700Y0145297D01*
X0184700Y0146896D02*
X0184300Y0146896D01*
X0182794Y0148494D02*
X0186206Y0148494D01*
X0187512Y0150200D02*
X0184700Y0153012D01*
X0184700Y0156988D01*
X0187512Y0159800D01*
X0191488Y0159800D01*
X0194300Y0156988D01*
X0194300Y0153012D01*
X0191488Y0150200D01*
X0187512Y0150200D01*
X0186020Y0151691D02*
X0182980Y0151691D01*
X0184300Y0153290D02*
X0184700Y0153290D01*
X0184700Y0154888D02*
X0184300Y0154888D01*
X0184300Y0156487D02*
X0184700Y0156487D01*
X0185797Y0158085D02*
X0183203Y0158085D01*
X0181604Y0159684D02*
X0187396Y0159684D01*
X0191604Y0159684D02*
X0262467Y0159684D01*
X0262004Y0159050D02*
X0260950Y0157996D01*
X0260950Y0149004D01*
X0262004Y0147950D01*
X0270996Y0147950D01*
X0272050Y0149004D01*
X0272050Y0157996D01*
X0270996Y0159050D01*
X0269899Y0159050D01*
X0271205Y0160356D01*
X0272050Y0162396D01*
X0272050Y0164604D01*
X0271659Y0165548D01*
X0287911Y0181800D01*
X0295276Y0181800D01*
X0295428Y0181647D01*
X0296448Y0181225D01*
X0297552Y0181225D01*
X0298572Y0181647D01*
X0299353Y0182428D01*
X0299775Y0183448D01*
X0299775Y0184552D01*
X0299353Y0185572D01*
X0298572Y0186353D01*
X0297552Y0186775D01*
X0296448Y0186775D01*
X0295428Y0186353D01*
X0295276Y0186200D01*
X0286089Y0186200D01*
X0284800Y0184911D01*
X0268548Y0168659D01*
X0267604Y0169050D01*
X0265396Y0169050D01*
X0263356Y0168205D01*
X0261795Y0166644D01*
X0260950Y0164604D01*
X0260950Y0162396D01*
X0261795Y0160356D01*
X0263101Y0159050D01*
X0262004Y0159050D01*
X0261040Y0158085D02*
X0193203Y0158085D01*
X0194300Y0156487D02*
X0226852Y0156487D01*
X0225464Y0154888D02*
X0194300Y0154888D01*
X0194300Y0153290D02*
X0225391Y0153290D01*
X0226484Y0151691D02*
X0192980Y0151691D01*
X0194300Y0143699D02*
X0242587Y0143699D01*
X0240989Y0142100D02*
X0193388Y0142100D01*
X0191790Y0140502D02*
X0220618Y0140502D01*
X0225382Y0140502D02*
X0226118Y0140502D01*
X0230882Y0140502D02*
X0239390Y0140502D01*
X0237792Y0138903D02*
X0231708Y0138903D01*
X0233307Y0137305D02*
X0235380Y0137305D01*
X0235886Y0132509D02*
X0406716Y0132509D01*
X0406716Y0130911D02*
X0062330Y0130911D01*
X0062069Y0130281D02*
X0062800Y0132045D01*
X0062800Y0133955D01*
X0062069Y0135719D01*
X0060719Y0137069D01*
X0058955Y0137800D01*
X0051045Y0137800D01*
X0049281Y0137069D01*
X0047931Y0135719D01*
X0047200Y0133955D01*
X0047200Y0132045D01*
X0047931Y0130281D01*
X0049281Y0128931D01*
X0051045Y0128200D01*
X0058955Y0128200D01*
X0060719Y0128931D01*
X0062069Y0130281D01*
X0061100Y0129312D02*
X0406716Y0129312D01*
X0406716Y0127714D02*
X0036300Y0127714D01*
X0036300Y0129312D02*
X0048900Y0129312D01*
X0047670Y0130911D02*
X0036300Y0130911D01*
X0036300Y0132509D02*
X0047200Y0132509D01*
X0047263Y0134108D02*
X0036300Y0134108D01*
X0036300Y0135706D02*
X0047925Y0135706D01*
X0049850Y0137305D02*
X0036300Y0137305D01*
X0036300Y0138903D02*
X0091582Y0138903D01*
X0088948Y0140502D02*
X0080790Y0140502D01*
X0080719Y0140431D02*
X0082069Y0141781D01*
X0082800Y0143545D01*
X0082800Y0151455D01*
X0082069Y0153219D01*
X0080719Y0154569D01*
X0078955Y0155300D01*
X0077045Y0155300D01*
X0075281Y0154569D01*
X0073931Y0153219D01*
X0073200Y0151455D01*
X0073200Y0143545D01*
X0073931Y0141781D01*
X0075281Y0140431D01*
X0077045Y0139700D01*
X0078955Y0139700D01*
X0080719Y0140431D01*
X0082201Y0142100D02*
X0087350Y0142100D01*
X0086079Y0143699D02*
X0082800Y0143699D01*
X0082800Y0145297D02*
X0085156Y0145297D01*
X0084474Y0146896D02*
X0082800Y0146896D01*
X0082800Y0148494D02*
X0084045Y0148494D01*
X0083728Y0150093D02*
X0082800Y0150093D01*
X0082702Y0151691D02*
X0083728Y0151691D01*
X0083728Y0153290D02*
X0081998Y0153290D01*
X0079949Y0154888D02*
X0084135Y0154888D01*
X0084563Y0156487D02*
X0036300Y0156487D01*
X0036300Y0158085D02*
X0085349Y0158085D01*
X0086272Y0159684D02*
X0036300Y0159684D01*
X0036300Y0161282D02*
X0087685Y0161282D01*
X0089394Y0162881D02*
X0081169Y0162881D01*
X0080719Y0162431D02*
X0082069Y0163781D01*
X0082800Y0165545D01*
X0082800Y0173455D01*
X0082069Y0175219D01*
X0080719Y0176569D01*
X0078955Y0177300D01*
X0077045Y0177300D01*
X0075281Y0176569D01*
X0073931Y0175219D01*
X0073200Y0173455D01*
X0073200Y0165545D01*
X0073931Y0163781D01*
X0075281Y0162431D01*
X0077045Y0161700D01*
X0078955Y0161700D01*
X0080719Y0162431D01*
X0082359Y0164479D02*
X0092163Y0164479D01*
X0082800Y0166078D02*
X0126236Y0166078D01*
X0126419Y0164479D02*
X0103302Y0164479D01*
X0082800Y0167676D02*
X0127252Y0167676D01*
X0155050Y0148494D02*
X0176206Y0148494D01*
X0174700Y0146896D02*
X0155050Y0146896D01*
X0155050Y0145297D02*
X0174700Y0145297D01*
X0174700Y0143699D02*
X0155050Y0143699D01*
X0155050Y0142100D02*
X0163176Y0142100D01*
X0151675Y0135706D02*
X0223183Y0135706D01*
X0224781Y0134108D02*
X0150476Y0134108D01*
X0148120Y0132509D02*
X0225614Y0132509D01*
X0230386Y0132509D02*
X0231114Y0132509D01*
X0239927Y0134108D02*
X0406716Y0134108D01*
X0406716Y0135706D02*
X0240817Y0135706D01*
X0242416Y0137305D02*
X0339650Y0137305D01*
X0339200Y0138903D02*
X0332229Y0138903D01*
X0334863Y0140502D02*
X0339200Y0140502D01*
X0339200Y0142100D02*
X0336461Y0142100D01*
X0337732Y0143699D02*
X0339200Y0143699D01*
X0339200Y0145297D02*
X0338655Y0145297D01*
X0338462Y0158085D02*
X0339200Y0158085D01*
X0339200Y0159684D02*
X0337539Y0159684D01*
X0336126Y0161282D02*
X0339200Y0161282D01*
X0339200Y0162881D02*
X0334417Y0162881D01*
X0331648Y0164479D02*
X0339200Y0164479D01*
X0339200Y0166078D02*
X0272189Y0166078D01*
X0272050Y0164479D02*
X0320509Y0164479D01*
X0317741Y0162881D02*
X0272050Y0162881D01*
X0271589Y0161282D02*
X0316032Y0161282D01*
X0314619Y0159684D02*
X0270533Y0159684D01*
X0271960Y0158085D02*
X0313696Y0158085D01*
X0312910Y0156487D02*
X0272050Y0156487D01*
X0272050Y0154888D02*
X0312482Y0154888D01*
X0312074Y0153290D02*
X0272050Y0153290D01*
X0272050Y0151691D02*
X0312074Y0151691D01*
X0312074Y0150093D02*
X0272050Y0150093D01*
X0271540Y0148494D02*
X0312392Y0148494D01*
X0314425Y0143699D02*
X0278226Y0143699D01*
X0278775Y0142100D02*
X0315696Y0142100D01*
X0317295Y0140502D02*
X0278383Y0140502D01*
X0261460Y0148494D02*
X0243587Y0148494D01*
X0243758Y0150093D02*
X0260950Y0150093D01*
X0260950Y0151691D02*
X0242733Y0151691D01*
X0239072Y0160147D02*
X0238052Y0159725D01*
X0236948Y0159725D01*
X0235928Y0160147D01*
X0235776Y0160300D01*
X0212224Y0160300D01*
X0212072Y0160147D01*
X0211052Y0159725D01*
X0209948Y0159725D01*
X0208928Y0160147D01*
X0208147Y0160928D01*
X0207725Y0161948D01*
X0207725Y0163052D01*
X0208147Y0164072D01*
X0208928Y0164853D01*
X0209948Y0165275D01*
X0211052Y0165275D01*
X0212072Y0164853D01*
X0212224Y0164700D01*
X0235776Y0164700D01*
X0235928Y0164853D01*
X0236948Y0165275D01*
X0238052Y0165275D01*
X0239072Y0164853D01*
X0239853Y0164072D01*
X0240275Y0163052D01*
X0240275Y0161948D01*
X0239853Y0160928D01*
X0239072Y0160147D01*
X0239999Y0161282D02*
X0261411Y0161282D01*
X0260950Y0162881D02*
X0240275Y0162881D01*
X0239445Y0164479D02*
X0260950Y0164479D01*
X0261561Y0166078D02*
X0165033Y0166078D01*
X0163435Y0167676D02*
X0262828Y0167676D01*
X0269164Y0169275D02*
X0082800Y0169275D01*
X0082800Y0170873D02*
X0270762Y0170873D01*
X0272361Y0172472D02*
X0082800Y0172472D01*
X0082545Y0174070D02*
X0273959Y0174070D01*
X0275558Y0175669D02*
X0254593Y0175669D01*
X0254853Y0175928D02*
X0255275Y0176948D01*
X0255275Y0177164D01*
X0270911Y0192800D01*
X0288776Y0192800D01*
X0288928Y0192647D01*
X0289948Y0192225D01*
X0291052Y0192225D01*
X0292072Y0192647D01*
X0292853Y0193428D01*
X0293275Y0194448D01*
X0293275Y0195552D01*
X0292853Y0196572D01*
X0292072Y0197353D01*
X0291052Y0197775D01*
X0289948Y0197775D01*
X0288928Y0197353D01*
X0288776Y0197200D01*
X0269089Y0197200D01*
X0267800Y0195911D01*
X0252164Y0180275D01*
X0251948Y0180275D01*
X0250928Y0179853D01*
X0250147Y0179072D01*
X0249725Y0178052D01*
X0249725Y0176948D01*
X0250147Y0175928D01*
X0250928Y0175147D01*
X0251948Y0174725D01*
X0253052Y0174725D01*
X0254072Y0175147D01*
X0254853Y0175928D01*
X0255379Y0177268D02*
X0277156Y0177268D01*
X0278755Y0178866D02*
X0256977Y0178866D01*
X0258576Y0180465D02*
X0280353Y0180465D01*
X0281952Y0182063D02*
X0260174Y0182063D01*
X0261773Y0183662D02*
X0283550Y0183662D01*
X0285149Y0185260D02*
X0263371Y0185260D01*
X0264970Y0186859D02*
X0339200Y0186859D01*
X0339200Y0188457D02*
X0266568Y0188457D01*
X0268167Y0190056D02*
X0339200Y0190056D01*
X0339200Y0191654D02*
X0269765Y0191654D01*
X0266740Y0194851D02*
X0190073Y0194851D01*
X0190072Y0194853D02*
X0189052Y0195275D01*
X0187948Y0195275D01*
X0186928Y0194853D01*
X0186147Y0194072D01*
X0185725Y0193052D01*
X0185725Y0192836D01*
X0184589Y0191700D01*
X0169224Y0191700D01*
X0169072Y0191853D01*
X0168052Y0192275D01*
X0166948Y0192275D01*
X0165928Y0191853D01*
X0165147Y0191072D01*
X0164725Y0190052D01*
X0164725Y0188948D01*
X0165147Y0187928D01*
X0165928Y0187147D01*
X0166948Y0186725D01*
X0168052Y0186725D01*
X0169072Y0187147D01*
X0169224Y0187300D01*
X0186411Y0187300D01*
X0188836Y0189725D01*
X0189052Y0189725D01*
X0189157Y0189769D01*
X0186089Y0186700D01*
X0172724Y0186700D01*
X0172572Y0186853D01*
X0171552Y0187275D01*
X0170448Y0187275D01*
X0169428Y0186853D01*
X0168647Y0186072D01*
X0168225Y0185052D01*
X0168225Y0183948D01*
X0168328Y0183700D01*
X0164224Y0183700D01*
X0164072Y0183853D01*
X0163052Y0184275D01*
X0161948Y0184275D01*
X0160928Y0183853D01*
X0160147Y0183072D01*
X0159725Y0182052D01*
X0159725Y0180948D01*
X0160147Y0179928D01*
X0160928Y0179147D01*
X0161948Y0178725D01*
X0163052Y0178725D01*
X0164072Y0179147D01*
X0164224Y0179300D01*
X0216276Y0179300D01*
X0216428Y0179147D01*
X0217448Y0178725D01*
X0218552Y0178725D01*
X0219572Y0179147D01*
X0220353Y0179928D01*
X0220775Y0180948D01*
X0220775Y0182052D01*
X0220353Y0183072D01*
X0219572Y0183853D01*
X0218552Y0184275D01*
X0217448Y0184275D01*
X0216428Y0183853D01*
X0216276Y0183700D01*
X0189311Y0183700D01*
X0192336Y0186725D01*
X0192552Y0186725D01*
X0193572Y0187147D01*
X0194353Y0187928D01*
X0194775Y0188948D01*
X0194775Y0190052D01*
X0194353Y0191072D01*
X0193572Y0191853D01*
X0192552Y0192275D01*
X0191448Y0192275D01*
X0191275Y0192203D01*
X0191275Y0193052D01*
X0190853Y0194072D01*
X0190072Y0194853D01*
X0191192Y0193253D02*
X0265141Y0193253D01*
X0263543Y0191654D02*
X0193770Y0191654D01*
X0194773Y0190056D02*
X0261944Y0190056D01*
X0260346Y0188457D02*
X0194572Y0188457D01*
X0192874Y0186859D02*
X0258747Y0186859D01*
X0257149Y0185260D02*
X0190871Y0185260D01*
X0187846Y0188457D02*
X0187568Y0188457D01*
X0186247Y0186859D02*
X0172557Y0186859D01*
X0169443Y0186859D02*
X0168374Y0186859D01*
X0168311Y0185260D02*
X0081548Y0185260D01*
X0082069Y0185781D02*
X0082800Y0187545D01*
X0082800Y0195455D01*
X0082069Y0197219D01*
X0080719Y0198569D01*
X0078955Y0199300D01*
X0077045Y0199300D01*
X0075281Y0198569D01*
X0073931Y0197219D01*
X0073200Y0195455D01*
X0073200Y0187545D01*
X0073931Y0185781D01*
X0075281Y0184431D01*
X0077045Y0183700D01*
X0078955Y0183700D01*
X0080719Y0184431D01*
X0082069Y0185781D01*
X0082516Y0186859D02*
X0166626Y0186859D01*
X0164928Y0188457D02*
X0082800Y0188457D01*
X0082800Y0190056D02*
X0164727Y0190056D01*
X0165730Y0191654D02*
X0082800Y0191654D01*
X0082800Y0193253D02*
X0185808Y0193253D01*
X0186927Y0194851D02*
X0082800Y0194851D01*
X0082388Y0196450D02*
X0268338Y0196450D01*
X0255550Y0183662D02*
X0219763Y0183662D01*
X0220770Y0182063D02*
X0253952Y0182063D01*
X0252353Y0180465D02*
X0220575Y0180465D01*
X0218892Y0178866D02*
X0250062Y0178866D01*
X0249725Y0177268D02*
X0079033Y0177268D01*
X0076967Y0177268D02*
X0069033Y0177268D01*
X0068955Y0177300D02*
X0067045Y0177300D01*
X0065281Y0176569D01*
X0063931Y0175219D01*
X0063200Y0173455D01*
X0063200Y0165545D01*
X0063931Y0163781D01*
X0065281Y0162431D01*
X0067045Y0161700D01*
X0068955Y0161700D01*
X0070719Y0162431D01*
X0072069Y0163781D01*
X0072800Y0165545D01*
X0072800Y0173455D01*
X0072069Y0175219D01*
X0070719Y0176569D01*
X0068955Y0177300D01*
X0066967Y0177268D02*
X0059033Y0177268D01*
X0058955Y0177300D02*
X0057045Y0177300D01*
X0055281Y0176569D01*
X0053931Y0175219D01*
X0053200Y0173455D01*
X0053200Y0165545D01*
X0053931Y0163781D01*
X0055281Y0162431D01*
X0057045Y0161700D01*
X0058955Y0161700D01*
X0060719Y0162431D01*
X0062069Y0163781D01*
X0062800Y0165545D01*
X0062800Y0173455D01*
X0062069Y0175219D01*
X0060719Y0176569D01*
X0058955Y0177300D01*
X0056967Y0177268D02*
X0036300Y0177268D01*
X0036300Y0178866D02*
X0161608Y0178866D01*
X0163392Y0178866D02*
X0217108Y0178866D01*
X0208555Y0164479D02*
X0166632Y0164479D01*
X0169003Y0162881D02*
X0207725Y0162881D01*
X0208001Y0161282D02*
X0170180Y0161282D01*
X0170166Y0159684D02*
X0177396Y0159684D01*
X0175797Y0158085D02*
X0168922Y0158085D01*
X0159925Y0180465D02*
X0036300Y0180465D01*
X0036300Y0182063D02*
X0159730Y0182063D01*
X0160737Y0183662D02*
X0036300Y0183662D01*
X0036300Y0185260D02*
X0054452Y0185260D01*
X0053931Y0185781D02*
X0055281Y0184431D01*
X0057045Y0183700D01*
X0058955Y0183700D01*
X0060719Y0184431D01*
X0062069Y0185781D01*
X0062800Y0187545D01*
X0062800Y0195455D01*
X0062069Y0197219D01*
X0060719Y0198569D01*
X0058955Y0199300D01*
X0057045Y0199300D01*
X0055281Y0198569D01*
X0053931Y0197219D01*
X0053200Y0195455D01*
X0053200Y0187545D01*
X0053931Y0185781D01*
X0053484Y0186859D02*
X0036300Y0186859D01*
X0036300Y0188457D02*
X0053200Y0188457D01*
X0053200Y0190056D02*
X0036300Y0190056D01*
X0036300Y0191654D02*
X0053200Y0191654D01*
X0053200Y0193253D02*
X0036300Y0193253D01*
X0036300Y0194851D02*
X0053200Y0194851D01*
X0053612Y0196450D02*
X0036300Y0196450D01*
X0036300Y0198048D02*
X0054760Y0198048D01*
X0061240Y0198048D02*
X0064760Y0198048D01*
X0065281Y0198569D02*
X0063931Y0197219D01*
X0063200Y0195455D01*
X0063200Y0187545D01*
X0063931Y0185781D01*
X0065281Y0184431D01*
X0067045Y0183700D01*
X0068955Y0183700D01*
X0070719Y0184431D01*
X0072069Y0185781D01*
X0072800Y0187545D01*
X0072800Y0195455D01*
X0072069Y0197219D01*
X0070719Y0198569D01*
X0068955Y0199300D01*
X0067045Y0199300D01*
X0065281Y0198569D01*
X0063612Y0196450D02*
X0062388Y0196450D01*
X0062800Y0194851D02*
X0063200Y0194851D01*
X0063200Y0193253D02*
X0062800Y0193253D01*
X0062800Y0191654D02*
X0063200Y0191654D01*
X0063200Y0190056D02*
X0062800Y0190056D01*
X0062800Y0188457D02*
X0063200Y0188457D01*
X0063484Y0186859D02*
X0062516Y0186859D01*
X0061548Y0185260D02*
X0064452Y0185260D01*
X0071548Y0185260D02*
X0074452Y0185260D01*
X0073484Y0186859D02*
X0072516Y0186859D01*
X0072800Y0188457D02*
X0073200Y0188457D01*
X0073200Y0190056D02*
X0072800Y0190056D01*
X0072800Y0191654D02*
X0073200Y0191654D01*
X0073200Y0193253D02*
X0072800Y0193253D01*
X0072800Y0194851D02*
X0073200Y0194851D01*
X0073612Y0196450D02*
X0072388Y0196450D01*
X0071240Y0198048D02*
X0074760Y0198048D01*
X0081240Y0198048D02*
X0339200Y0198048D01*
X0339200Y0196450D02*
X0292903Y0196450D01*
X0293275Y0194851D02*
X0339200Y0194851D01*
X0339200Y0193253D02*
X0292677Y0193253D01*
X0299482Y0185260D02*
X0339200Y0185260D01*
X0339200Y0183662D02*
X0299775Y0183662D01*
X0298987Y0182063D02*
X0339200Y0182063D01*
X0339200Y0180465D02*
X0286576Y0180465D01*
X0284977Y0178866D02*
X0339200Y0178866D01*
X0339200Y0177268D02*
X0283379Y0177268D01*
X0281780Y0175669D02*
X0339200Y0175669D01*
X0339200Y0174070D02*
X0280182Y0174070D01*
X0278583Y0172472D02*
X0339200Y0172472D01*
X0339200Y0170873D02*
X0276985Y0170873D01*
X0275386Y0169275D02*
X0339200Y0169275D01*
X0339200Y0167676D02*
X0273788Y0167676D01*
X0260950Y0156487D02*
X0229348Y0156487D01*
X0230736Y0154888D02*
X0260950Y0154888D01*
X0260950Y0153290D02*
X0231921Y0153290D01*
X0244015Y0138903D02*
X0319928Y0138903D01*
X0272200Y0103411D02*
X0270911Y0104700D01*
X0046089Y0104700D01*
X0044800Y0103411D01*
X0044800Y0082089D01*
X0046089Y0080800D01*
X0268689Y0080800D01*
X0267589Y0079700D01*
X0066089Y0079700D01*
X0049589Y0063200D01*
X0048937Y0062548D01*
X0047781Y0062069D01*
X0046431Y0060719D01*
X0045700Y0058955D01*
X0045700Y0051045D01*
X0046431Y0049281D01*
X0047781Y0047931D01*
X0049545Y0047200D01*
X0051455Y0047200D01*
X0053219Y0047931D01*
X0054569Y0049281D01*
X0055300Y0051045D01*
X0055300Y0058955D01*
X0054569Y0060719D01*
X0053950Y0061338D01*
X0067911Y0075300D01*
X0069689Y0075300D01*
X0059589Y0065200D01*
X0058300Y0063911D01*
X0058300Y0062284D01*
X0057781Y0062069D01*
X0056431Y0060719D01*
X0055700Y0058955D01*
X0055700Y0051045D01*
X0056431Y0049281D01*
X0057781Y0047931D01*
X0059545Y0047200D01*
X0061455Y0047200D01*
X0063219Y0047931D01*
X0064569Y0049281D01*
X0065300Y0051045D01*
X0065300Y0058955D01*
X0064569Y0060719D01*
X0063219Y0062069D01*
X0062838Y0062227D01*
X0073911Y0073300D01*
X0123689Y0073300D01*
X0113189Y0062800D01*
X0112045Y0062800D01*
X0110281Y0062069D01*
X0108931Y0060719D01*
X0108200Y0058955D01*
X0108200Y0051045D01*
X0108931Y0049281D01*
X0110281Y0047931D01*
X0112045Y0047200D01*
X0113955Y0047200D01*
X0115719Y0047931D01*
X0117069Y0049281D01*
X0117800Y0051045D01*
X0117800Y0058955D01*
X0117146Y0060534D01*
X0126911Y0070300D01*
X0131189Y0070300D01*
X0123689Y0062800D01*
X0122045Y0062800D01*
X0120281Y0062069D01*
X0118931Y0060719D01*
X0118200Y0058955D01*
X0118200Y0051045D01*
X0118931Y0049281D01*
X0120281Y0047931D01*
X0122045Y0047200D01*
X0123955Y0047200D01*
X0125719Y0047931D01*
X0127069Y0049281D01*
X0127800Y0051045D01*
X0127800Y0058955D01*
X0127292Y0060181D01*
X0135411Y0068300D01*
X0180689Y0068300D01*
X0175189Y0062800D01*
X0174545Y0062800D01*
X0172781Y0062069D01*
X0171431Y0060719D01*
X0170700Y0058955D01*
X0170700Y0051045D01*
X0171431Y0049281D01*
X0172781Y0047931D01*
X0174545Y0047200D01*
X0176455Y0047200D01*
X0178219Y0047931D01*
X0179569Y0049281D01*
X0180300Y0051045D01*
X0180300Y0058955D01*
X0179569Y0060719D01*
X0179450Y0060838D01*
X0184911Y0066300D01*
X0189189Y0066300D01*
X0185689Y0062800D01*
X0184545Y0062800D01*
X0182781Y0062069D01*
X0181431Y0060719D01*
X0180700Y0058955D01*
X0180700Y0051045D01*
X0181431Y0049281D01*
X0182781Y0047931D01*
X0184545Y0047200D01*
X0186455Y0047200D01*
X0188219Y0047931D01*
X0189569Y0049281D01*
X0190300Y0051045D01*
X0190300Y0058955D01*
X0189646Y0060534D01*
X0193411Y0064300D01*
X0239689Y0064300D01*
X0238189Y0062800D01*
X0237045Y0062800D01*
X0235281Y0062069D01*
X0233931Y0060719D01*
X0233200Y0058955D01*
X0233200Y0051045D01*
X0233931Y0049281D01*
X0235281Y0047931D01*
X0237045Y0047200D01*
X0238955Y0047200D01*
X0240719Y0047931D01*
X0242069Y0049281D01*
X0242800Y0051045D01*
X0242800Y0058955D01*
X0242146Y0060534D01*
X0243911Y0062300D01*
X0245838Y0062300D01*
X0245281Y0062069D01*
X0243931Y0060719D01*
X0243200Y0058955D01*
X0243200Y0051045D01*
X0243931Y0049281D01*
X0245281Y0047931D01*
X0247045Y0047200D01*
X0248955Y0047200D01*
X0250719Y0047931D01*
X0252069Y0049281D01*
X0252800Y0051045D01*
X0252800Y0058955D01*
X0252243Y0060300D01*
X0253757Y0060300D01*
X0253200Y0058955D01*
X0253200Y0051045D01*
X0253931Y0049281D01*
X0255281Y0047931D01*
X0257045Y0047200D01*
X0258955Y0047200D01*
X0260719Y0047931D01*
X0262069Y0049281D01*
X0262800Y0051045D01*
X0262800Y0058955D01*
X0262243Y0060300D01*
X0273757Y0060300D01*
X0273200Y0058955D01*
X0273200Y0051045D01*
X0273931Y0049281D01*
X0275281Y0047931D01*
X0277045Y0047200D01*
X0278955Y0047200D01*
X0280719Y0047931D01*
X0282069Y0049281D01*
X0282800Y0051045D01*
X0282800Y0058955D01*
X0282243Y0060300D01*
X0283757Y0060300D01*
X0283200Y0058955D01*
X0283200Y0051045D01*
X0283931Y0049281D01*
X0285281Y0047931D01*
X0287045Y0047200D01*
X0288955Y0047200D01*
X0290719Y0047931D01*
X0292069Y0049281D01*
X0292800Y0051045D01*
X0292800Y0058955D01*
X0292481Y0059725D01*
X0293552Y0059725D01*
X0294572Y0060147D01*
X0295353Y0060928D01*
X0295775Y0061948D01*
X0295775Y0063052D01*
X0295353Y0064072D01*
X0294572Y0064853D01*
X0293552Y0065275D01*
X0292448Y0065275D01*
X0292275Y0065203D01*
X0292275Y0066052D01*
X0291853Y0067072D01*
X0291072Y0067853D01*
X0290052Y0068275D01*
X0289275Y0068275D01*
X0289275Y0069052D01*
X0288853Y0070072D01*
X0288072Y0070853D01*
X0287052Y0071275D01*
X0286275Y0071275D01*
X0286275Y0072052D01*
X0285853Y0073072D01*
X0285072Y0073853D01*
X0284052Y0074275D01*
X0283275Y0074275D01*
X0283275Y0075052D01*
X0282853Y0076072D01*
X0282072Y0076853D01*
X0281052Y0077275D01*
X0280275Y0077275D01*
X0280275Y0078052D01*
X0279853Y0079072D01*
X0279072Y0079853D01*
X0278052Y0080275D01*
X0276948Y0080275D01*
X0275928Y0079853D01*
X0275147Y0079072D01*
X0274725Y0078052D01*
X0274725Y0077836D01*
X0273531Y0076642D01*
X0273353Y0077072D01*
X0272572Y0077853D01*
X0272142Y0078031D01*
X0274836Y0080725D01*
X0275052Y0080725D01*
X0276072Y0081147D01*
X0276853Y0081928D01*
X0277275Y0082948D01*
X0277275Y0084052D01*
X0276853Y0085072D01*
X0276072Y0085853D01*
X0275052Y0086275D01*
X0273948Y0086275D01*
X0272928Y0085853D01*
X0272200Y0085124D01*
X0272200Y0103411D01*
X0271875Y0103736D02*
X0406716Y0103736D01*
X0406716Y0105334D02*
X0036300Y0105334D01*
X0036300Y0103736D02*
X0045125Y0103736D01*
X0044800Y0102137D02*
X0036300Y0102137D01*
X0036300Y0100539D02*
X0044800Y0100539D01*
X0044800Y0098940D02*
X0036300Y0098940D01*
X0036300Y0097342D02*
X0044800Y0097342D01*
X0044800Y0095743D02*
X0036300Y0095743D01*
X0036300Y0094145D02*
X0044800Y0094145D01*
X0044800Y0092546D02*
X0036300Y0092546D01*
X0036300Y0090948D02*
X0044800Y0090948D01*
X0044800Y0089349D02*
X0036300Y0089349D01*
X0036300Y0087751D02*
X0044800Y0087751D01*
X0044800Y0086152D02*
X0036300Y0086152D01*
X0036300Y0084554D02*
X0044800Y0084554D01*
X0044800Y0082955D02*
X0036300Y0082955D01*
X0036300Y0081357D02*
X0045532Y0081357D01*
X0036300Y0079758D02*
X0267647Y0079758D01*
X0272271Y0078160D02*
X0274770Y0078160D01*
X0273870Y0079758D02*
X0275834Y0079758D01*
X0276281Y0081357D02*
X0406716Y0081357D01*
X0406716Y0082955D02*
X0277275Y0082955D01*
X0277067Y0084554D02*
X0406716Y0084554D01*
X0406716Y0086152D02*
X0275348Y0086152D01*
X0273652Y0086152D02*
X0272200Y0086152D01*
X0272200Y0087751D02*
X0406716Y0087751D01*
X0406716Y0089349D02*
X0272200Y0089349D01*
X0272200Y0090948D02*
X0406716Y0090948D01*
X0406716Y0092546D02*
X0272200Y0092546D01*
X0272200Y0094145D02*
X0406716Y0094145D01*
X0406716Y0095743D02*
X0272200Y0095743D01*
X0272200Y0097342D02*
X0406716Y0097342D01*
X0406716Y0098940D02*
X0272200Y0098940D01*
X0272200Y0100539D02*
X0406716Y0100539D01*
X0406716Y0102137D02*
X0272200Y0102137D01*
X0279166Y0079758D02*
X0406716Y0079758D01*
X0406716Y0078160D02*
X0280230Y0078160D01*
X0282363Y0076561D02*
X0406716Y0076561D01*
X0406716Y0074963D02*
X0283275Y0074963D01*
X0285560Y0073364D02*
X0406716Y0073364D01*
X0406716Y0071766D02*
X0286275Y0071766D01*
X0288757Y0070167D02*
X0406716Y0070167D01*
X0406716Y0068569D02*
X0289275Y0068569D01*
X0291895Y0066970D02*
X0406716Y0066970D01*
X0406716Y0065372D02*
X0292275Y0065372D01*
X0295476Y0063773D02*
X0406716Y0063773D01*
X0406716Y0062175D02*
X0295775Y0062175D01*
X0295001Y0060576D02*
X0336505Y0060576D01*
X0337045Y0060800D02*
X0335281Y0060069D01*
X0333931Y0058719D01*
X0333200Y0056955D01*
X0333200Y0049045D01*
X0333931Y0047281D01*
X0335281Y0045931D01*
X0337045Y0045200D01*
X0338955Y0045200D01*
X0340719Y0045931D01*
X0342069Y0047281D01*
X0342800Y0049045D01*
X0342800Y0056955D01*
X0342069Y0058719D01*
X0340719Y0060069D01*
X0338955Y0060800D01*
X0337045Y0060800D01*
X0339495Y0060576D02*
X0346505Y0060576D01*
X0347045Y0060800D02*
X0345281Y0060069D01*
X0343931Y0058719D01*
X0343200Y0056955D01*
X0343200Y0049045D01*
X0343931Y0047281D01*
X0345281Y0045931D01*
X0347045Y0045200D01*
X0348955Y0045200D01*
X0350719Y0045931D01*
X0352069Y0047281D01*
X0352800Y0049045D01*
X0352800Y0056955D01*
X0352069Y0058719D01*
X0350719Y0060069D01*
X0348955Y0060800D01*
X0347045Y0060800D01*
X0349495Y0060576D02*
X0356505Y0060576D01*
X0357045Y0060800D02*
X0355281Y0060069D01*
X0353931Y0058719D01*
X0353200Y0056955D01*
X0353200Y0049045D01*
X0353931Y0047281D01*
X0355281Y0045931D01*
X0357045Y0045200D01*
X0358955Y0045200D01*
X0360719Y0045931D01*
X0362069Y0047281D01*
X0362800Y0049045D01*
X0362800Y0056955D01*
X0362069Y0058719D01*
X0360719Y0060069D01*
X0358955Y0060800D01*
X0357045Y0060800D01*
X0359495Y0060576D02*
X0376505Y0060576D01*
X0377045Y0060800D02*
X0375281Y0060069D01*
X0373931Y0058719D01*
X0373200Y0056955D01*
X0373200Y0049045D01*
X0373931Y0047281D01*
X0375281Y0045931D01*
X0377045Y0045200D01*
X0378955Y0045200D01*
X0380719Y0045931D01*
X0382069Y0047281D01*
X0382800Y0049045D01*
X0382800Y0056955D01*
X0382069Y0058719D01*
X0380719Y0060069D01*
X0378955Y0060800D01*
X0377045Y0060800D01*
X0379495Y0060576D02*
X0386505Y0060576D01*
X0387045Y0060800D02*
X0385281Y0060069D01*
X0383931Y0058719D01*
X0383200Y0056955D01*
X0383200Y0049045D01*
X0383931Y0047281D01*
X0385281Y0045931D01*
X0387045Y0045200D01*
X0388955Y0045200D01*
X0390719Y0045931D01*
X0392069Y0047281D01*
X0392800Y0049045D01*
X0392800Y0056955D01*
X0392069Y0058719D01*
X0390719Y0060069D01*
X0388955Y0060800D01*
X0387045Y0060800D01*
X0389495Y0060576D02*
X0406716Y0060576D01*
X0406716Y0058978D02*
X0391811Y0058978D01*
X0392624Y0057379D02*
X0406716Y0057379D01*
X0406716Y0055781D02*
X0392800Y0055781D01*
X0392800Y0054182D02*
X0406716Y0054182D01*
X0406716Y0052584D02*
X0392800Y0052584D01*
X0392800Y0050985D02*
X0406716Y0050985D01*
X0406716Y0049387D02*
X0392800Y0049387D01*
X0392279Y0047788D02*
X0406716Y0047788D01*
X0406716Y0046190D02*
X0390978Y0046190D01*
X0385022Y0046190D02*
X0380978Y0046190D01*
X0382279Y0047788D02*
X0383721Y0047788D01*
X0383200Y0049387D02*
X0382800Y0049387D01*
X0382800Y0050985D02*
X0383200Y0050985D01*
X0383200Y0052584D02*
X0382800Y0052584D01*
X0382800Y0054182D02*
X0383200Y0054182D01*
X0383200Y0055781D02*
X0382800Y0055781D01*
X0382624Y0057379D02*
X0383376Y0057379D01*
X0384189Y0058978D02*
X0381811Y0058978D01*
X0374189Y0058978D02*
X0361811Y0058978D01*
X0362624Y0057379D02*
X0373376Y0057379D01*
X0373200Y0055781D02*
X0362800Y0055781D01*
X0362800Y0054182D02*
X0373200Y0054182D01*
X0373200Y0052584D02*
X0362800Y0052584D01*
X0362800Y0050985D02*
X0373200Y0050985D01*
X0373200Y0049387D02*
X0362800Y0049387D01*
X0362279Y0047788D02*
X0373721Y0047788D01*
X0375022Y0046190D02*
X0360978Y0046190D01*
X0355022Y0046190D02*
X0350978Y0046190D01*
X0352279Y0047788D02*
X0353721Y0047788D01*
X0353200Y0049387D02*
X0352800Y0049387D01*
X0352800Y0050985D02*
X0353200Y0050985D01*
X0353200Y0052584D02*
X0352800Y0052584D01*
X0352800Y0054182D02*
X0353200Y0054182D01*
X0353200Y0055781D02*
X0352800Y0055781D01*
X0352624Y0057379D02*
X0353376Y0057379D01*
X0354189Y0058978D02*
X0351811Y0058978D01*
X0344189Y0058978D02*
X0341811Y0058978D01*
X0342624Y0057379D02*
X0343376Y0057379D01*
X0343200Y0055781D02*
X0342800Y0055781D01*
X0342800Y0054182D02*
X0343200Y0054182D01*
X0343200Y0052584D02*
X0342800Y0052584D01*
X0342800Y0050985D02*
X0343200Y0050985D01*
X0343200Y0049387D02*
X0342800Y0049387D01*
X0342279Y0047788D02*
X0343721Y0047788D01*
X0345022Y0046190D02*
X0340978Y0046190D01*
X0335022Y0046190D02*
X0036300Y0046190D01*
X0036300Y0047788D02*
X0048125Y0047788D01*
X0046387Y0049387D02*
X0036300Y0049387D01*
X0036300Y0050985D02*
X0045725Y0050985D01*
X0045700Y0052584D02*
X0036300Y0052584D01*
X0036300Y0054182D02*
X0045700Y0054182D01*
X0045700Y0055781D02*
X0036300Y0055781D01*
X0036300Y0057379D02*
X0045700Y0057379D01*
X0045709Y0058978D02*
X0036300Y0058978D01*
X0036300Y0060576D02*
X0046372Y0060576D01*
X0048036Y0062175D02*
X0036300Y0062175D01*
X0036300Y0063773D02*
X0050162Y0063773D01*
X0051760Y0065372D02*
X0036300Y0065372D01*
X0036300Y0066970D02*
X0053359Y0066970D01*
X0054957Y0068569D02*
X0036300Y0068569D01*
X0036300Y0070167D02*
X0056556Y0070167D01*
X0058154Y0071766D02*
X0036300Y0071766D01*
X0036300Y0073364D02*
X0059753Y0073364D01*
X0061352Y0074963D02*
X0036300Y0074963D01*
X0036300Y0076561D02*
X0062950Y0076561D01*
X0064549Y0078160D02*
X0036300Y0078160D01*
X0054786Y0062175D02*
X0058036Y0062175D01*
X0058300Y0063773D02*
X0056384Y0063773D01*
X0057983Y0065372D02*
X0059760Y0065372D01*
X0059581Y0066970D02*
X0061359Y0066970D01*
X0061180Y0068569D02*
X0062957Y0068569D01*
X0062779Y0070167D02*
X0064556Y0070167D01*
X0064377Y0071766D02*
X0066155Y0071766D01*
X0065976Y0073364D02*
X0067753Y0073364D01*
X0067574Y0074963D02*
X0069352Y0074963D01*
X0072377Y0071766D02*
X0122155Y0071766D01*
X0120556Y0070167D02*
X0070779Y0070167D01*
X0069180Y0068569D02*
X0118957Y0068569D01*
X0117359Y0066970D02*
X0067581Y0066970D01*
X0065983Y0065372D02*
X0115760Y0065372D01*
X0114162Y0063773D02*
X0064384Y0063773D01*
X0062964Y0062175D02*
X0068036Y0062175D01*
X0067781Y0062069D02*
X0066431Y0060719D01*
X0065700Y0058955D01*
X0065700Y0051045D01*
X0066431Y0049281D01*
X0067781Y0047931D01*
X0069545Y0047200D01*
X0071455Y0047200D01*
X0073219Y0047931D01*
X0074569Y0049281D01*
X0075300Y0051045D01*
X0075300Y0058955D01*
X0074569Y0060719D01*
X0073219Y0062069D01*
X0071455Y0062800D01*
X0069545Y0062800D01*
X0067781Y0062069D01*
X0066372Y0060576D02*
X0064628Y0060576D01*
X0065291Y0058978D02*
X0065709Y0058978D01*
X0065700Y0057379D02*
X0065300Y0057379D01*
X0065300Y0055781D02*
X0065700Y0055781D01*
X0065700Y0054182D02*
X0065300Y0054182D01*
X0065300Y0052584D02*
X0065700Y0052584D01*
X0065725Y0050985D02*
X0065275Y0050985D01*
X0064613Y0049387D02*
X0066387Y0049387D01*
X0068125Y0047788D02*
X0062875Y0047788D01*
X0058125Y0047788D02*
X0052875Y0047788D01*
X0054613Y0049387D02*
X0056387Y0049387D01*
X0055725Y0050985D02*
X0055275Y0050985D01*
X0055300Y0052584D02*
X0055700Y0052584D01*
X0055700Y0054182D02*
X0055300Y0054182D01*
X0055300Y0055781D02*
X0055700Y0055781D01*
X0055700Y0057379D02*
X0055300Y0057379D01*
X0055291Y0058978D02*
X0055709Y0058978D01*
X0056372Y0060576D02*
X0054628Y0060576D01*
X0072964Y0062175D02*
X0088036Y0062175D01*
X0087781Y0062069D02*
X0086431Y0060719D01*
X0085700Y0058955D01*
X0085700Y0051045D01*
X0086431Y0049281D01*
X0087781Y0047931D01*
X0089545Y0047200D01*
X0091455Y0047200D01*
X0093219Y0047931D01*
X0094569Y0049281D01*
X0095300Y0051045D01*
X0095300Y0058955D01*
X0094569Y0060719D01*
X0093219Y0062069D01*
X0091455Y0062800D01*
X0089545Y0062800D01*
X0087781Y0062069D01*
X0086372Y0060576D02*
X0074628Y0060576D01*
X0075291Y0058978D02*
X0085709Y0058978D01*
X0085700Y0057379D02*
X0075300Y0057379D01*
X0075300Y0055781D02*
X0085700Y0055781D01*
X0085700Y0054182D02*
X0075300Y0054182D01*
X0075300Y0052584D02*
X0085700Y0052584D01*
X0085725Y0050985D02*
X0075275Y0050985D01*
X0074613Y0049387D02*
X0086387Y0049387D01*
X0088125Y0047788D02*
X0072875Y0047788D01*
X0092875Y0047788D02*
X0098125Y0047788D01*
X0097781Y0047931D02*
X0099545Y0047200D01*
X0101455Y0047200D01*
X0103219Y0047931D01*
X0104569Y0049281D01*
X0105300Y0051045D01*
X0105300Y0058955D01*
X0104569Y0060719D01*
X0103219Y0062069D01*
X0101455Y0062800D01*
X0099545Y0062800D01*
X0097781Y0062069D01*
X0096431Y0060719D01*
X0095700Y0058955D01*
X0095700Y0051045D01*
X0096431Y0049281D01*
X0097781Y0047931D01*
X0096387Y0049387D02*
X0094613Y0049387D01*
X0095275Y0050985D02*
X0095725Y0050985D01*
X0095700Y0052584D02*
X0095300Y0052584D01*
X0095300Y0054182D02*
X0095700Y0054182D01*
X0095700Y0055781D02*
X0095300Y0055781D01*
X0095300Y0057379D02*
X0095700Y0057379D01*
X0095709Y0058978D02*
X0095291Y0058978D01*
X0094628Y0060576D02*
X0096372Y0060576D01*
X0098036Y0062175D02*
X0092964Y0062175D01*
X0102964Y0062175D02*
X0110536Y0062175D01*
X0108872Y0060576D02*
X0104628Y0060576D01*
X0105291Y0058978D02*
X0108209Y0058978D01*
X0108200Y0057379D02*
X0105300Y0057379D01*
X0105300Y0055781D02*
X0108200Y0055781D01*
X0108200Y0054182D02*
X0105300Y0054182D01*
X0105300Y0052584D02*
X0108200Y0052584D01*
X0108225Y0050985D02*
X0105275Y0050985D01*
X0104613Y0049387D02*
X0108887Y0049387D01*
X0110625Y0047788D02*
X0102875Y0047788D01*
X0115375Y0047788D02*
X0120625Y0047788D01*
X0118887Y0049387D02*
X0117113Y0049387D01*
X0117775Y0050985D02*
X0118225Y0050985D01*
X0118200Y0052584D02*
X0117800Y0052584D01*
X0117800Y0054182D02*
X0118200Y0054182D01*
X0118200Y0055781D02*
X0117800Y0055781D01*
X0117800Y0057379D02*
X0118200Y0057379D01*
X0118209Y0058978D02*
X0117791Y0058978D01*
X0117187Y0060576D02*
X0118872Y0060576D01*
X0118786Y0062175D02*
X0120536Y0062175D01*
X0120384Y0063773D02*
X0124662Y0063773D01*
X0126260Y0065372D02*
X0121983Y0065372D01*
X0123581Y0066970D02*
X0127859Y0066970D01*
X0129457Y0068569D02*
X0125180Y0068569D01*
X0126779Y0070167D02*
X0131056Y0070167D01*
X0134081Y0066970D02*
X0179359Y0066970D01*
X0177760Y0065372D02*
X0132483Y0065372D01*
X0130884Y0063773D02*
X0176162Y0063773D01*
X0173036Y0062175D02*
X0165464Y0062175D01*
X0165719Y0062069D02*
X0163955Y0062800D01*
X0162045Y0062800D01*
X0160281Y0062069D01*
X0158931Y0060719D01*
X0158200Y0058955D01*
X0158200Y0051045D01*
X0158931Y0049281D01*
X0160281Y0047931D01*
X0162045Y0047200D01*
X0163955Y0047200D01*
X0165719Y0047931D01*
X0167069Y0049281D01*
X0167800Y0051045D01*
X0167800Y0058955D01*
X0167069Y0060719D01*
X0165719Y0062069D01*
X0167128Y0060576D02*
X0171372Y0060576D01*
X0170709Y0058978D02*
X0167791Y0058978D01*
X0167800Y0057379D02*
X0170700Y0057379D01*
X0170700Y0055781D02*
X0167800Y0055781D01*
X0167800Y0054182D02*
X0170700Y0054182D01*
X0170700Y0052584D02*
X0167800Y0052584D01*
X0167775Y0050985D02*
X0170725Y0050985D01*
X0171387Y0049387D02*
X0167113Y0049387D01*
X0165375Y0047788D02*
X0173125Y0047788D01*
X0177875Y0047788D02*
X0183125Y0047788D01*
X0181387Y0049387D02*
X0179613Y0049387D01*
X0180275Y0050985D02*
X0180725Y0050985D01*
X0180700Y0052584D02*
X0180300Y0052584D01*
X0180300Y0054182D02*
X0180700Y0054182D01*
X0180700Y0055781D02*
X0180300Y0055781D01*
X0180300Y0057379D02*
X0180700Y0057379D01*
X0180709Y0058978D02*
X0180291Y0058978D01*
X0179628Y0060576D02*
X0181372Y0060576D01*
X0180786Y0062175D02*
X0183036Y0062175D01*
X0182384Y0063773D02*
X0186662Y0063773D01*
X0188260Y0065372D02*
X0183983Y0065372D01*
X0189687Y0060576D02*
X0191372Y0060576D01*
X0191431Y0060719D02*
X0190700Y0058955D01*
X0190700Y0051045D01*
X0191431Y0049281D01*
X0192781Y0047931D01*
X0194545Y0047200D01*
X0196455Y0047200D01*
X0198219Y0047931D01*
X0199569Y0049281D01*
X0200300Y0051045D01*
X0200300Y0058955D01*
X0199569Y0060719D01*
X0198219Y0062069D01*
X0196455Y0062800D01*
X0194545Y0062800D01*
X0192781Y0062069D01*
X0191431Y0060719D01*
X0191286Y0062175D02*
X0193036Y0062175D01*
X0192884Y0063773D02*
X0239162Y0063773D01*
X0235536Y0062175D02*
X0227964Y0062175D01*
X0228219Y0062069D02*
X0226455Y0062800D01*
X0224545Y0062800D01*
X0222781Y0062069D01*
X0221431Y0060719D01*
X0220700Y0058955D01*
X0220700Y0051045D01*
X0221431Y0049281D01*
X0222781Y0047931D01*
X0224545Y0047200D01*
X0226455Y0047200D01*
X0228219Y0047931D01*
X0229569Y0049281D01*
X0230300Y0051045D01*
X0230300Y0058955D01*
X0229569Y0060719D01*
X0228219Y0062069D01*
X0229628Y0060576D02*
X0233872Y0060576D01*
X0233209Y0058978D02*
X0230291Y0058978D01*
X0230300Y0057379D02*
X0233200Y0057379D01*
X0233200Y0055781D02*
X0230300Y0055781D01*
X0230300Y0054182D02*
X0233200Y0054182D01*
X0233200Y0052584D02*
X0230300Y0052584D01*
X0230275Y0050985D02*
X0233225Y0050985D01*
X0233887Y0049387D02*
X0229613Y0049387D01*
X0227875Y0047788D02*
X0235625Y0047788D01*
X0240375Y0047788D02*
X0245625Y0047788D01*
X0243887Y0049387D02*
X0242113Y0049387D01*
X0242775Y0050985D02*
X0243225Y0050985D01*
X0243200Y0052584D02*
X0242800Y0052584D01*
X0242800Y0054182D02*
X0243200Y0054182D01*
X0243200Y0055781D02*
X0242800Y0055781D01*
X0242800Y0057379D02*
X0243200Y0057379D01*
X0243209Y0058978D02*
X0242791Y0058978D01*
X0242187Y0060576D02*
X0243872Y0060576D01*
X0243786Y0062175D02*
X0245536Y0062175D01*
X0252791Y0058978D02*
X0253209Y0058978D01*
X0253200Y0057379D02*
X0252800Y0057379D01*
X0252800Y0055781D02*
X0253200Y0055781D01*
X0253200Y0054182D02*
X0252800Y0054182D01*
X0252800Y0052584D02*
X0253200Y0052584D01*
X0253225Y0050985D02*
X0252775Y0050985D01*
X0252113Y0049387D02*
X0253887Y0049387D01*
X0255625Y0047788D02*
X0250375Y0047788D01*
X0260375Y0047788D02*
X0275625Y0047788D01*
X0273887Y0049387D02*
X0262113Y0049387D01*
X0262775Y0050985D02*
X0273225Y0050985D01*
X0273200Y0052584D02*
X0262800Y0052584D01*
X0262800Y0054182D02*
X0273200Y0054182D01*
X0273200Y0055781D02*
X0262800Y0055781D01*
X0262800Y0057379D02*
X0273200Y0057379D01*
X0273209Y0058978D02*
X0262791Y0058978D01*
X0280375Y0047788D02*
X0285625Y0047788D01*
X0283887Y0049387D02*
X0282113Y0049387D01*
X0282775Y0050985D02*
X0283225Y0050985D01*
X0283200Y0052584D02*
X0282800Y0052584D01*
X0282800Y0054182D02*
X0283200Y0054182D01*
X0283200Y0055781D02*
X0282800Y0055781D01*
X0282800Y0057379D02*
X0283200Y0057379D01*
X0283209Y0058978D02*
X0282791Y0058978D01*
X0292791Y0058978D02*
X0334189Y0058978D01*
X0333376Y0057379D02*
X0292800Y0057379D01*
X0292800Y0055781D02*
X0333200Y0055781D01*
X0333200Y0054182D02*
X0292800Y0054182D01*
X0292800Y0052584D02*
X0333200Y0052584D01*
X0333200Y0050985D02*
X0292775Y0050985D01*
X0292113Y0049387D02*
X0333200Y0049387D01*
X0333721Y0047788D02*
X0290375Y0047788D01*
X0223125Y0047788D02*
X0217875Y0047788D01*
X0218219Y0047931D02*
X0219569Y0049281D01*
X0220300Y0051045D01*
X0220300Y0058955D01*
X0219569Y0060719D01*
X0218219Y0062069D01*
X0216455Y0062800D01*
X0214545Y0062800D01*
X0212781Y0062069D01*
X0211431Y0060719D01*
X0210700Y0058955D01*
X0210700Y0051045D01*
X0211431Y0049281D01*
X0212781Y0047931D01*
X0214545Y0047200D01*
X0216455Y0047200D01*
X0218219Y0047931D01*
X0219613Y0049387D02*
X0221387Y0049387D01*
X0220725Y0050985D02*
X0220275Y0050985D01*
X0220300Y0052584D02*
X0220700Y0052584D01*
X0220700Y0054182D02*
X0220300Y0054182D01*
X0220300Y0055781D02*
X0220700Y0055781D01*
X0220700Y0057379D02*
X0220300Y0057379D01*
X0220291Y0058978D02*
X0220709Y0058978D01*
X0221372Y0060576D02*
X0219628Y0060576D01*
X0217964Y0062175D02*
X0223036Y0062175D01*
X0213036Y0062175D02*
X0197964Y0062175D01*
X0199628Y0060576D02*
X0211372Y0060576D01*
X0210709Y0058978D02*
X0200291Y0058978D01*
X0200300Y0057379D02*
X0210700Y0057379D01*
X0210700Y0055781D02*
X0200300Y0055781D01*
X0200300Y0054182D02*
X0210700Y0054182D01*
X0210700Y0052584D02*
X0200300Y0052584D01*
X0200275Y0050985D02*
X0210725Y0050985D01*
X0211387Y0049387D02*
X0199613Y0049387D01*
X0197875Y0047788D02*
X0213125Y0047788D01*
X0193125Y0047788D02*
X0187875Y0047788D01*
X0189613Y0049387D02*
X0191387Y0049387D01*
X0190725Y0050985D02*
X0190275Y0050985D01*
X0190300Y0052584D02*
X0190700Y0052584D01*
X0190700Y0054182D02*
X0190300Y0054182D01*
X0190300Y0055781D02*
X0190700Y0055781D01*
X0190700Y0057379D02*
X0190300Y0057379D01*
X0190291Y0058978D02*
X0190709Y0058978D01*
X0160536Y0062175D02*
X0155464Y0062175D01*
X0155719Y0062069D02*
X0153955Y0062800D01*
X0152045Y0062800D01*
X0150281Y0062069D01*
X0148931Y0060719D01*
X0148200Y0058955D01*
X0148200Y0051045D01*
X0148931Y0049281D01*
X0150281Y0047931D01*
X0152045Y0047200D01*
X0153955Y0047200D01*
X0155719Y0047931D01*
X0157069Y0049281D01*
X0157800Y0051045D01*
X0157800Y0058955D01*
X0157069Y0060719D01*
X0155719Y0062069D01*
X0157128Y0060576D02*
X0158872Y0060576D01*
X0158209Y0058978D02*
X0157791Y0058978D01*
X0157800Y0057379D02*
X0158200Y0057379D01*
X0158200Y0055781D02*
X0157800Y0055781D01*
X0157800Y0054182D02*
X0158200Y0054182D01*
X0158200Y0052584D02*
X0157800Y0052584D01*
X0157775Y0050985D02*
X0158225Y0050985D01*
X0158887Y0049387D02*
X0157113Y0049387D01*
X0155375Y0047788D02*
X0160625Y0047788D01*
X0150625Y0047788D02*
X0135375Y0047788D01*
X0135719Y0047931D02*
X0137069Y0049281D01*
X0137800Y0051045D01*
X0137800Y0058955D01*
X0137069Y0060719D01*
X0135719Y0062069D01*
X0133955Y0062800D01*
X0132045Y0062800D01*
X0130281Y0062069D01*
X0128931Y0060719D01*
X0128200Y0058955D01*
X0128200Y0051045D01*
X0128931Y0049281D01*
X0130281Y0047931D01*
X0132045Y0047200D01*
X0133955Y0047200D01*
X0135719Y0047931D01*
X0137113Y0049387D02*
X0148887Y0049387D01*
X0148225Y0050985D02*
X0137775Y0050985D01*
X0137800Y0052584D02*
X0148200Y0052584D01*
X0148200Y0054182D02*
X0137800Y0054182D01*
X0137800Y0055781D02*
X0148200Y0055781D01*
X0148200Y0057379D02*
X0137800Y0057379D01*
X0137791Y0058978D02*
X0148209Y0058978D01*
X0148872Y0060576D02*
X0137128Y0060576D01*
X0135464Y0062175D02*
X0150536Y0062175D01*
X0130536Y0062175D02*
X0129286Y0062175D01*
X0128872Y0060576D02*
X0127687Y0060576D01*
X0127791Y0058978D02*
X0128209Y0058978D01*
X0128200Y0057379D02*
X0127800Y0057379D01*
X0127800Y0055781D02*
X0128200Y0055781D01*
X0128200Y0054182D02*
X0127800Y0054182D01*
X0127800Y0052584D02*
X0128200Y0052584D01*
X0128225Y0050985D02*
X0127775Y0050985D01*
X0127113Y0049387D02*
X0128887Y0049387D01*
X0130625Y0047788D02*
X0125375Y0047788D01*
X0150928Y0106147D02*
X0151948Y0105725D01*
X0153052Y0105725D01*
X0154072Y0106147D01*
X0154853Y0106928D01*
X0155275Y0107948D01*
X0155275Y0109052D01*
X0154853Y0110072D01*
X0154072Y0110853D01*
X0153052Y0111275D01*
X0152836Y0111275D01*
X0141775Y0122336D01*
X0141775Y0122552D01*
X0141353Y0123572D01*
X0140572Y0124353D01*
X0139552Y0124775D01*
X0138448Y0124775D01*
X0137428Y0124353D01*
X0136647Y0123572D01*
X0136225Y0122552D01*
X0136225Y0121448D01*
X0136647Y0120428D01*
X0137428Y0119647D01*
X0138448Y0119225D01*
X0138664Y0119225D01*
X0149725Y0108164D01*
X0149725Y0107948D01*
X0150147Y0106928D01*
X0150928Y0106147D01*
X0150145Y0106933D02*
X0036300Y0106933D01*
X0036300Y0108532D02*
X0149357Y0108532D01*
X0147759Y0110130D02*
X0036300Y0110130D01*
X0036300Y0111729D02*
X0146160Y0111729D01*
X0144562Y0113327D02*
X0036300Y0113327D01*
X0036300Y0114926D02*
X0142963Y0114926D01*
X0141365Y0116524D02*
X0036300Y0116524D01*
X0036300Y0118123D02*
X0139766Y0118123D01*
X0137354Y0119721D02*
X0036300Y0119721D01*
X0036300Y0121320D02*
X0136278Y0121320D01*
X0136377Y0122918D02*
X0036300Y0122918D01*
X0036300Y0124517D02*
X0137824Y0124517D01*
X0140176Y0124517D02*
X0406716Y0124517D01*
X0406716Y0126115D02*
X0036300Y0126115D01*
X0036300Y0140502D02*
X0055210Y0140502D01*
X0055281Y0140431D02*
X0057045Y0139700D01*
X0058955Y0139700D01*
X0060719Y0140431D01*
X0062069Y0141781D01*
X0062800Y0143545D01*
X0062800Y0151455D01*
X0062069Y0153219D01*
X0060719Y0154569D01*
X0058955Y0155300D01*
X0057045Y0155300D01*
X0055281Y0154569D01*
X0053931Y0153219D01*
X0053200Y0151455D01*
X0053200Y0143545D01*
X0053931Y0141781D01*
X0055281Y0140431D01*
X0053799Y0142100D02*
X0036300Y0142100D01*
X0036300Y0143699D02*
X0053200Y0143699D01*
X0053200Y0145297D02*
X0036300Y0145297D01*
X0036300Y0146896D02*
X0053200Y0146896D01*
X0053200Y0148494D02*
X0036300Y0148494D01*
X0036300Y0150093D02*
X0053200Y0150093D01*
X0053298Y0151691D02*
X0036300Y0151691D01*
X0036300Y0153290D02*
X0054002Y0153290D01*
X0056051Y0154888D02*
X0036300Y0154888D01*
X0036300Y0162881D02*
X0054831Y0162881D01*
X0053641Y0164479D02*
X0036300Y0164479D01*
X0036300Y0166078D02*
X0053200Y0166078D01*
X0053200Y0167676D02*
X0036300Y0167676D01*
X0036300Y0169275D02*
X0053200Y0169275D01*
X0053200Y0170873D02*
X0036300Y0170873D01*
X0036300Y0172472D02*
X0053200Y0172472D01*
X0053455Y0174070D02*
X0036300Y0174070D01*
X0036300Y0175669D02*
X0054381Y0175669D01*
X0061619Y0175669D02*
X0064381Y0175669D01*
X0063455Y0174070D02*
X0062545Y0174070D01*
X0062800Y0172472D02*
X0063200Y0172472D01*
X0063200Y0170873D02*
X0062800Y0170873D01*
X0062800Y0169275D02*
X0063200Y0169275D01*
X0063200Y0167676D02*
X0062800Y0167676D01*
X0062800Y0166078D02*
X0063200Y0166078D01*
X0063641Y0164479D02*
X0062359Y0164479D01*
X0061169Y0162881D02*
X0064831Y0162881D01*
X0067045Y0155300D02*
X0065281Y0154569D01*
X0063931Y0153219D01*
X0063200Y0151455D01*
X0063200Y0143545D01*
X0063931Y0141781D01*
X0065281Y0140431D01*
X0067045Y0139700D01*
X0068955Y0139700D01*
X0070719Y0140431D01*
X0072069Y0141781D01*
X0072800Y0143545D01*
X0072800Y0151455D01*
X0072069Y0153219D01*
X0070719Y0154569D01*
X0068955Y0155300D01*
X0067045Y0155300D01*
X0066051Y0154888D02*
X0059949Y0154888D01*
X0061998Y0153290D02*
X0064002Y0153290D01*
X0063298Y0151691D02*
X0062702Y0151691D01*
X0062800Y0150093D02*
X0063200Y0150093D01*
X0063200Y0148494D02*
X0062800Y0148494D01*
X0062800Y0146896D02*
X0063200Y0146896D01*
X0063200Y0145297D02*
X0062800Y0145297D01*
X0062800Y0143699D02*
X0063200Y0143699D01*
X0063799Y0142100D02*
X0062201Y0142100D01*
X0060790Y0140502D02*
X0065210Y0140502D01*
X0062075Y0135706D02*
X0109496Y0135706D01*
X0109225Y0134108D02*
X0062737Y0134108D01*
X0062800Y0132509D02*
X0110066Y0132509D01*
X0105771Y0137305D02*
X0060150Y0137305D01*
X0070790Y0140502D02*
X0075210Y0140502D01*
X0073799Y0142100D02*
X0072201Y0142100D01*
X0072800Y0143699D02*
X0073200Y0143699D01*
X0073200Y0145297D02*
X0072800Y0145297D01*
X0072800Y0146896D02*
X0073200Y0146896D01*
X0073200Y0148494D02*
X0072800Y0148494D01*
X0072800Y0150093D02*
X0073200Y0150093D01*
X0073298Y0151691D02*
X0072702Y0151691D01*
X0071998Y0153290D02*
X0074002Y0153290D01*
X0076051Y0154888D02*
X0069949Y0154888D01*
X0071169Y0162881D02*
X0074831Y0162881D01*
X0073641Y0164479D02*
X0072359Y0164479D01*
X0072800Y0166078D02*
X0073200Y0166078D01*
X0073200Y0167676D02*
X0072800Y0167676D01*
X0072800Y0169275D02*
X0073200Y0169275D01*
X0073200Y0170873D02*
X0072800Y0170873D01*
X0072800Y0172472D02*
X0073200Y0172472D01*
X0073455Y0174070D02*
X0072545Y0174070D01*
X0071619Y0175669D02*
X0074381Y0175669D01*
X0081619Y0175669D02*
X0250407Y0175669D01*
X0227572Y0212147D02*
X0228353Y0212928D01*
X0228775Y0213948D01*
X0228775Y0214164D01*
X0231911Y0217300D01*
X0273776Y0217300D01*
X0273928Y0217147D01*
X0274948Y0216725D01*
X0276052Y0216725D01*
X0277072Y0217147D01*
X0277853Y0217928D01*
X0278275Y0218948D01*
X0278275Y0220052D01*
X0277853Y0221072D01*
X0277072Y0221853D01*
X0276052Y0222275D01*
X0274948Y0222275D01*
X0273928Y0221853D01*
X0273776Y0221700D01*
X0272124Y0221700D01*
X0272853Y0222428D01*
X0273275Y0223448D01*
X0273275Y0224552D01*
X0272853Y0225572D01*
X0272072Y0226353D01*
X0271052Y0226775D01*
X0269948Y0226775D01*
X0268928Y0226353D01*
X0268776Y0226200D01*
X0267624Y0226200D01*
X0268353Y0226928D01*
X0268775Y0227948D01*
X0268775Y0229052D01*
X0268353Y0230072D01*
X0267572Y0230853D01*
X0266552Y0231275D01*
X0265448Y0231275D01*
X0264428Y0230853D01*
X0264276Y0230700D01*
X0218589Y0230700D01*
X0216164Y0228275D01*
X0215948Y0228275D01*
X0214928Y0227853D01*
X0214147Y0227072D01*
X0213725Y0226052D01*
X0213725Y0224948D01*
X0214147Y0223928D01*
X0214928Y0223147D01*
X0215948Y0222725D01*
X0217052Y0222725D01*
X0218072Y0223147D01*
X0218853Y0223928D01*
X0219275Y0224948D01*
X0219275Y0225164D01*
X0220411Y0226300D01*
X0264276Y0226300D01*
X0264376Y0226200D01*
X0227089Y0226200D01*
X0225800Y0224911D01*
X0223664Y0222775D01*
X0223448Y0222775D01*
X0222428Y0222353D01*
X0221647Y0221572D01*
X0221225Y0220552D01*
X0221225Y0219448D01*
X0221647Y0218428D01*
X0222428Y0217647D01*
X0223448Y0217225D01*
X0224552Y0217225D01*
X0225572Y0217647D01*
X0226353Y0218428D01*
X0226775Y0219448D01*
X0226775Y0219664D01*
X0228911Y0221800D01*
X0268776Y0221800D01*
X0268876Y0221700D01*
X0230089Y0221700D01*
X0225664Y0217275D01*
X0225448Y0217275D01*
X0224428Y0216853D01*
X0223647Y0216072D01*
X0223225Y0215052D01*
X0223225Y0213948D01*
X0223647Y0212928D01*
X0224428Y0212147D01*
X0225448Y0211725D01*
X0226552Y0211725D01*
X0227572Y0212147D01*
X0227859Y0212435D02*
X0339200Y0212435D01*
X0339200Y0214033D02*
X0228775Y0214033D01*
X0230243Y0215632D02*
X0339200Y0215632D01*
X0339200Y0217230D02*
X0277155Y0217230D01*
X0278226Y0218829D02*
X0339200Y0218829D01*
X0339200Y0220427D02*
X0278120Y0220427D01*
X0276654Y0222026D02*
X0339200Y0222026D01*
X0339200Y0223624D02*
X0273275Y0223624D01*
X0272997Y0225223D02*
X0339200Y0225223D01*
X0339200Y0226821D02*
X0268246Y0226821D01*
X0268775Y0228420D02*
X0339200Y0228420D01*
X0339200Y0230018D02*
X0268375Y0230018D01*
X0272450Y0222026D02*
X0274346Y0222026D01*
X0273845Y0217230D02*
X0231842Y0217230D01*
X0228816Y0220427D02*
X0227539Y0220427D01*
X0227218Y0218829D02*
X0226518Y0218829D01*
X0225340Y0217230D02*
X0224565Y0217230D01*
X0223435Y0217230D02*
X0082800Y0217230D01*
X0082800Y0217455D02*
X0082069Y0219219D01*
X0080719Y0220569D01*
X0078955Y0221300D01*
X0077045Y0221300D01*
X0075281Y0220569D01*
X0073931Y0219219D01*
X0073200Y0217455D01*
X0073200Y0209545D01*
X0073931Y0207781D01*
X0075281Y0206431D01*
X0077045Y0205700D01*
X0078955Y0205700D01*
X0080719Y0206431D01*
X0082069Y0207781D01*
X0082800Y0209545D01*
X0082800Y0217455D01*
X0082231Y0218829D02*
X0221481Y0218829D01*
X0221225Y0220427D02*
X0080861Y0220427D01*
X0082800Y0215632D02*
X0223465Y0215632D01*
X0223225Y0214033D02*
X0082800Y0214033D01*
X0082800Y0212435D02*
X0224141Y0212435D01*
X0222101Y0222026D02*
X0036300Y0222026D01*
X0036300Y0223624D02*
X0214451Y0223624D01*
X0213725Y0225223D02*
X0036300Y0225223D01*
X0036300Y0226821D02*
X0214044Y0226821D01*
X0216309Y0228420D02*
X0080693Y0228420D01*
X0080719Y0228431D02*
X0082069Y0229781D01*
X0082800Y0231545D01*
X0082800Y0239455D01*
X0082069Y0241219D01*
X0080719Y0242569D01*
X0078955Y0243300D01*
X0077045Y0243300D01*
X0075281Y0242569D01*
X0073931Y0241219D01*
X0073200Y0239455D01*
X0073200Y0231545D01*
X0073931Y0229781D01*
X0075281Y0228431D01*
X0077045Y0227700D01*
X0078955Y0227700D01*
X0080719Y0228431D01*
X0082168Y0230018D02*
X0217907Y0230018D01*
X0219334Y0225223D02*
X0226112Y0225223D01*
X0225800Y0224911D02*
X0225800Y0224911D01*
X0224513Y0223624D02*
X0218549Y0223624D01*
X0188275Y0235448D02*
X0187853Y0234428D01*
X0187072Y0233647D01*
X0186052Y0233225D01*
X0184948Y0233225D01*
X0183928Y0233647D01*
X0183147Y0234428D01*
X0182725Y0235448D01*
X0182725Y0235664D01*
X0182300Y0236089D01*
X0182300Y0253089D01*
X0180300Y0255089D01*
X0180300Y0259776D01*
X0180147Y0259928D01*
X0179725Y0260948D01*
X0179725Y0262052D01*
X0180147Y0263072D01*
X0180928Y0263853D01*
X0181948Y0264275D01*
X0183052Y0264275D01*
X0184072Y0263853D01*
X0184853Y0263072D01*
X0185085Y0262510D01*
X0185428Y0262853D01*
X0186448Y0263275D01*
X0187552Y0263275D01*
X0188572Y0262853D01*
X0189353Y0262072D01*
X0189775Y0261052D01*
X0189775Y0259948D01*
X0189353Y0258928D01*
X0189200Y0258776D01*
X0189200Y0253724D01*
X0189853Y0253072D01*
X0189896Y0252966D01*
X0190147Y0253572D01*
X0190800Y0254224D01*
X0190800Y0258276D01*
X0190647Y0258428D01*
X0190225Y0259448D01*
X0190225Y0260552D01*
X0190647Y0261572D01*
X0191428Y0262353D01*
X0192448Y0262775D01*
X0193552Y0262775D01*
X0194572Y0262353D01*
X0195353Y0261572D01*
X0195775Y0260552D01*
X0195775Y0259448D01*
X0195353Y0258428D01*
X0195200Y0258276D01*
X0195200Y0252733D01*
X0195275Y0252552D01*
X0195275Y0251448D01*
X0194853Y0250428D01*
X0194072Y0249647D01*
X0193052Y0249225D01*
X0191948Y0249225D01*
X0190928Y0249647D01*
X0190147Y0250428D01*
X0190104Y0250534D01*
X0189853Y0249928D01*
X0189072Y0249147D01*
X0188052Y0248725D01*
X0186948Y0248725D01*
X0186700Y0248828D01*
X0186700Y0238507D01*
X0187072Y0238353D01*
X0187853Y0237572D01*
X0188275Y0236552D01*
X0188275Y0235448D01*
X0188012Y0234814D02*
X0339200Y0234814D01*
X0339200Y0236412D02*
X0188275Y0236412D01*
X0187413Y0238011D02*
X0339200Y0238011D01*
X0339200Y0239609D02*
X0186700Y0239609D01*
X0186700Y0241208D02*
X0339200Y0241208D01*
X0339200Y0242806D02*
X0186700Y0242806D01*
X0186700Y0244405D02*
X0339200Y0244405D01*
X0339200Y0246003D02*
X0186700Y0246003D01*
X0186700Y0247602D02*
X0339200Y0247602D01*
X0339200Y0249201D02*
X0189125Y0249201D01*
X0189200Y0253996D02*
X0190572Y0253996D01*
X0190800Y0255595D02*
X0189200Y0255595D01*
X0189200Y0257193D02*
X0190800Y0257193D01*
X0190497Y0258792D02*
X0189216Y0258792D01*
X0189775Y0260390D02*
X0190225Y0260390D01*
X0189387Y0261989D02*
X0191064Y0261989D01*
X0194936Y0261989D02*
X0339200Y0261989D01*
X0339200Y0263587D02*
X0184337Y0263587D01*
X0180663Y0263587D02*
X0081701Y0263587D01*
X0082069Y0263219D02*
X0080719Y0264569D01*
X0078955Y0265300D01*
X0077045Y0265300D01*
X0075281Y0264569D01*
X0073931Y0263219D01*
X0073200Y0261455D01*
X0073200Y0253545D01*
X0073931Y0251781D01*
X0075281Y0250431D01*
X0077045Y0249700D01*
X0078955Y0249700D01*
X0080719Y0250431D01*
X0082069Y0251781D01*
X0082800Y0253545D01*
X0082800Y0261455D01*
X0082069Y0263219D01*
X0082579Y0261989D02*
X0179725Y0261989D01*
X0179956Y0260390D02*
X0082800Y0260390D01*
X0082800Y0258792D02*
X0180300Y0258792D01*
X0180300Y0257193D02*
X0082800Y0257193D01*
X0082800Y0255595D02*
X0145170Y0255595D01*
X0145147Y0255572D02*
X0144822Y0254787D01*
X0139485Y0249450D01*
X0126513Y0249450D01*
X0126392Y0249400D01*
X0064977Y0249400D01*
X0064023Y0249400D01*
X0063141Y0249035D01*
X0057406Y0243300D01*
X0057045Y0243300D01*
X0055281Y0242569D01*
X0053931Y0241219D01*
X0053200Y0239455D01*
X0053200Y0231545D01*
X0053931Y0229781D01*
X0055281Y0228431D01*
X0057045Y0227700D01*
X0058955Y0227700D01*
X0060719Y0228431D01*
X0062069Y0229781D01*
X0062800Y0231545D01*
X0062800Y0239455D01*
X0062082Y0241188D01*
X0065494Y0244600D01*
X0126392Y0244600D01*
X0126513Y0244550D01*
X0140987Y0244550D01*
X0141888Y0244923D01*
X0142577Y0245612D01*
X0148287Y0251322D01*
X0149072Y0251647D01*
X0149853Y0252428D01*
X0150275Y0253448D01*
X0150275Y0254552D01*
X0149853Y0255572D01*
X0149072Y0256353D01*
X0148052Y0256775D01*
X0146948Y0256775D01*
X0145928Y0256353D01*
X0145147Y0255572D01*
X0144031Y0253996D02*
X0082800Y0253996D01*
X0082325Y0252398D02*
X0142433Y0252398D01*
X0140834Y0250799D02*
X0081087Y0250799D01*
X0074913Y0250799D02*
X0071087Y0250799D01*
X0070719Y0250431D02*
X0072069Y0251781D01*
X0072800Y0253545D01*
X0072800Y0261455D01*
X0072069Y0263219D01*
X0070719Y0264569D01*
X0068955Y0265300D01*
X0067045Y0265300D01*
X0065281Y0264569D01*
X0063931Y0263219D01*
X0063200Y0261455D01*
X0063200Y0253545D01*
X0063931Y0251781D01*
X0065281Y0250431D01*
X0067045Y0249700D01*
X0068955Y0249700D01*
X0070719Y0250431D01*
X0072325Y0252398D02*
X0073675Y0252398D01*
X0073200Y0253996D02*
X0072800Y0253996D01*
X0072800Y0255595D02*
X0073200Y0255595D01*
X0073200Y0257193D02*
X0072800Y0257193D01*
X0072800Y0258792D02*
X0073200Y0258792D01*
X0073200Y0260390D02*
X0072800Y0260390D01*
X0072579Y0261989D02*
X0073421Y0261989D01*
X0074299Y0263587D02*
X0071701Y0263587D01*
X0069231Y0265186D02*
X0076769Y0265186D01*
X0079231Y0265186D02*
X0339200Y0265186D01*
X0339200Y0266784D02*
X0036300Y0266784D01*
X0036300Y0265186D02*
X0056769Y0265186D01*
X0057045Y0265300D02*
X0055281Y0264569D01*
X0053931Y0263219D01*
X0053200Y0261455D01*
X0053200Y0253545D01*
X0053931Y0251781D01*
X0055281Y0250431D01*
X0057045Y0249700D01*
X0058955Y0249700D01*
X0060719Y0250431D01*
X0062069Y0251781D01*
X0062800Y0253545D01*
X0062800Y0261455D01*
X0062069Y0263219D01*
X0060719Y0264569D01*
X0058955Y0265300D01*
X0057045Y0265300D01*
X0059231Y0265186D02*
X0066769Y0265186D01*
X0064299Y0263587D02*
X0061701Y0263587D01*
X0062579Y0261989D02*
X0063421Y0261989D01*
X0063200Y0260390D02*
X0062800Y0260390D01*
X0062800Y0258792D02*
X0063200Y0258792D01*
X0063200Y0257193D02*
X0062800Y0257193D01*
X0062800Y0255595D02*
X0063200Y0255595D01*
X0063200Y0253996D02*
X0062800Y0253996D01*
X0062325Y0252398D02*
X0063675Y0252398D01*
X0064913Y0250799D02*
X0061087Y0250799D01*
X0063541Y0249201D02*
X0036300Y0249201D01*
X0036300Y0250799D02*
X0054913Y0250799D01*
X0053675Y0252398D02*
X0036300Y0252398D01*
X0036300Y0253996D02*
X0053200Y0253996D01*
X0053200Y0255595D02*
X0036300Y0255595D01*
X0036300Y0257193D02*
X0053200Y0257193D01*
X0053200Y0258792D02*
X0036300Y0258792D01*
X0036300Y0260390D02*
X0053200Y0260390D01*
X0053421Y0261989D02*
X0036300Y0261989D01*
X0036300Y0263587D02*
X0054299Y0263587D01*
X0057045Y0271700D02*
X0055281Y0272431D01*
X0053931Y0273781D01*
X0053200Y0275545D01*
X0053200Y0283455D01*
X0053931Y0285219D01*
X0055281Y0286569D01*
X0057045Y0287300D01*
X0058955Y0287300D01*
X0060719Y0286569D01*
X0062069Y0285219D01*
X0062800Y0283455D01*
X0062800Y0275545D01*
X0062069Y0273781D01*
X0060719Y0272431D01*
X0058955Y0271700D01*
X0057045Y0271700D01*
X0054534Y0273178D02*
X0036300Y0273178D01*
X0036300Y0271580D02*
X0339200Y0271580D01*
X0339200Y0273178D02*
X0081466Y0273178D01*
X0082069Y0273781D02*
X0082800Y0275545D01*
X0082800Y0283455D01*
X0082069Y0285219D01*
X0080719Y0286569D01*
X0078955Y0287300D01*
X0077045Y0287300D01*
X0075281Y0286569D01*
X0073931Y0285219D01*
X0073200Y0283455D01*
X0073200Y0275545D01*
X0073931Y0273781D01*
X0075281Y0272431D01*
X0077045Y0271700D01*
X0078955Y0271700D01*
X0080719Y0272431D01*
X0082069Y0273781D01*
X0082482Y0274777D02*
X0339200Y0274777D01*
X0339200Y0276375D02*
X0082800Y0276375D01*
X0082800Y0277974D02*
X0339200Y0277974D01*
X0339200Y0279572D02*
X0158118Y0279572D01*
X0157996Y0279450D02*
X0159050Y0280504D01*
X0159050Y0289496D01*
X0157996Y0290550D01*
X0149004Y0290550D01*
X0147950Y0289496D01*
X0147950Y0288399D01*
X0146644Y0289705D01*
X0144604Y0290550D01*
X0142396Y0290550D01*
X0140356Y0289705D01*
X0138795Y0288144D01*
X0137950Y0286104D01*
X0137950Y0283896D01*
X0138795Y0281856D01*
X0140356Y0280295D01*
X0142396Y0279450D01*
X0144604Y0279450D01*
X0146644Y0280295D01*
X0147950Y0281601D01*
X0147950Y0280504D01*
X0149004Y0279450D01*
X0157996Y0279450D01*
X0159050Y0281171D02*
X0339200Y0281171D01*
X0339200Y0282769D02*
X0159050Y0282769D01*
X0159050Y0284368D02*
X0339200Y0284368D01*
X0339200Y0285966D02*
X0159050Y0285966D01*
X0159050Y0287565D02*
X0339200Y0287565D01*
X0339200Y0289163D02*
X0159050Y0289163D01*
X0147950Y0289163D02*
X0147186Y0289163D01*
X0139814Y0289163D02*
X0036300Y0289163D01*
X0036300Y0287565D02*
X0138555Y0287565D01*
X0137950Y0285966D02*
X0081322Y0285966D01*
X0082422Y0284368D02*
X0137950Y0284368D01*
X0138417Y0282769D02*
X0082800Y0282769D01*
X0082800Y0281171D02*
X0139480Y0281171D01*
X0142101Y0279572D02*
X0082800Y0279572D01*
X0073200Y0279572D02*
X0072800Y0279572D01*
X0072800Y0277974D02*
X0073200Y0277974D01*
X0073200Y0276375D02*
X0072800Y0276375D01*
X0072800Y0275545D02*
X0072800Y0283455D01*
X0072069Y0285219D01*
X0070719Y0286569D01*
X0068955Y0287300D01*
X0067045Y0287300D01*
X0065281Y0286569D01*
X0063931Y0285219D01*
X0063200Y0283455D01*
X0063200Y0275545D01*
X0063931Y0273781D01*
X0065281Y0272431D01*
X0067045Y0271700D01*
X0068955Y0271700D01*
X0070719Y0272431D01*
X0072069Y0273781D01*
X0072800Y0275545D01*
X0072482Y0274777D02*
X0073518Y0274777D01*
X0074534Y0273178D02*
X0071466Y0273178D01*
X0064534Y0273178D02*
X0061466Y0273178D01*
X0062482Y0274777D02*
X0063518Y0274777D01*
X0063200Y0276375D02*
X0062800Y0276375D01*
X0062800Y0277974D02*
X0063200Y0277974D01*
X0063200Y0279572D02*
X0062800Y0279572D01*
X0062800Y0281171D02*
X0063200Y0281171D01*
X0063200Y0282769D02*
X0062800Y0282769D01*
X0062422Y0284368D02*
X0063578Y0284368D01*
X0064678Y0285966D02*
X0061322Y0285966D01*
X0054678Y0285966D02*
X0036300Y0285966D01*
X0036300Y0284368D02*
X0053578Y0284368D01*
X0053200Y0282769D02*
X0036300Y0282769D01*
X0036300Y0281171D02*
X0053200Y0281171D01*
X0053200Y0279572D02*
X0036300Y0279572D01*
X0036300Y0277974D02*
X0053200Y0277974D01*
X0053200Y0276375D02*
X0036300Y0276375D01*
X0036300Y0274777D02*
X0053518Y0274777D01*
X0036300Y0269981D02*
X0339200Y0269981D01*
X0339200Y0268383D02*
X0036300Y0268383D01*
X0036300Y0247602D02*
X0061708Y0247602D01*
X0060109Y0246003D02*
X0036300Y0246003D01*
X0036300Y0244405D02*
X0058511Y0244405D01*
X0055854Y0242806D02*
X0036300Y0242806D01*
X0036300Y0241208D02*
X0053926Y0241208D01*
X0053264Y0239609D02*
X0036300Y0239609D01*
X0036300Y0238011D02*
X0053200Y0238011D01*
X0053200Y0236412D02*
X0036300Y0236412D01*
X0036300Y0234814D02*
X0053200Y0234814D01*
X0053200Y0233215D02*
X0036300Y0233215D01*
X0036300Y0231617D02*
X0053200Y0231617D01*
X0053832Y0230018D02*
X0036300Y0230018D01*
X0036300Y0228420D02*
X0055307Y0228420D01*
X0060693Y0228420D02*
X0065307Y0228420D01*
X0065281Y0228431D02*
X0067045Y0227700D01*
X0068955Y0227700D01*
X0070719Y0228431D01*
X0072069Y0229781D01*
X0072800Y0231545D01*
X0072800Y0239455D01*
X0072069Y0241219D01*
X0070719Y0242569D01*
X0068955Y0243300D01*
X0067045Y0243300D01*
X0065281Y0242569D01*
X0063931Y0241219D01*
X0063200Y0239455D01*
X0063200Y0231545D01*
X0063931Y0229781D01*
X0065281Y0228431D01*
X0063832Y0230018D02*
X0062168Y0230018D01*
X0062800Y0231617D02*
X0063200Y0231617D01*
X0063200Y0233215D02*
X0062800Y0233215D01*
X0062800Y0234814D02*
X0063200Y0234814D01*
X0063200Y0236412D02*
X0062800Y0236412D01*
X0062800Y0238011D02*
X0063200Y0238011D01*
X0063264Y0239609D02*
X0062736Y0239609D01*
X0062102Y0241208D02*
X0063926Y0241208D01*
X0063701Y0242806D02*
X0065854Y0242806D01*
X0065299Y0244405D02*
X0182300Y0244405D01*
X0182300Y0246003D02*
X0142968Y0246003D01*
X0144567Y0247602D02*
X0182300Y0247602D01*
X0182300Y0249201D02*
X0146165Y0249201D01*
X0147764Y0250799D02*
X0182300Y0250799D01*
X0182300Y0252398D02*
X0149822Y0252398D01*
X0150275Y0253996D02*
X0181393Y0253996D01*
X0180300Y0255595D02*
X0149830Y0255595D01*
X0148882Y0279572D02*
X0144899Y0279572D01*
X0147520Y0281171D02*
X0147950Y0281171D01*
X0182300Y0242806D02*
X0080146Y0242806D01*
X0082074Y0241208D02*
X0182300Y0241208D01*
X0182300Y0239609D02*
X0082736Y0239609D01*
X0082800Y0238011D02*
X0182300Y0238011D01*
X0182300Y0236412D02*
X0082800Y0236412D01*
X0082800Y0234814D02*
X0182988Y0234814D01*
X0195006Y0250799D02*
X0339200Y0250799D01*
X0339200Y0252398D02*
X0195275Y0252398D01*
X0195200Y0253996D02*
X0339200Y0253996D01*
X0339200Y0255595D02*
X0195200Y0255595D01*
X0195200Y0257193D02*
X0339200Y0257193D01*
X0339200Y0258792D02*
X0195503Y0258792D01*
X0195775Y0260390D02*
X0339200Y0260390D01*
X0339200Y0233215D02*
X0082800Y0233215D01*
X0082800Y0231617D02*
X0339200Y0231617D01*
X0339200Y0210836D02*
X0082800Y0210836D01*
X0082673Y0209238D02*
X0339200Y0209238D01*
X0339200Y0207639D02*
X0081927Y0207639D01*
X0079777Y0206041D02*
X0339200Y0206041D01*
X0339200Y0204442D02*
X0036300Y0204442D01*
X0036300Y0202844D02*
X0339200Y0202844D01*
X0339200Y0201245D02*
X0036300Y0201245D01*
X0036300Y0199647D02*
X0339200Y0199647D01*
X0406716Y0122918D02*
X0141623Y0122918D01*
X0142792Y0121320D02*
X0406716Y0121320D01*
X0406716Y0119721D02*
X0144390Y0119721D01*
X0145989Y0118123D02*
X0406716Y0118123D01*
X0406716Y0116524D02*
X0147587Y0116524D01*
X0149186Y0114926D02*
X0406716Y0114926D01*
X0406716Y0113327D02*
X0150784Y0113327D01*
X0152383Y0111729D02*
X0406716Y0111729D01*
X0406716Y0110130D02*
X0154794Y0110130D01*
X0155275Y0108532D02*
X0406716Y0108532D01*
X0406716Y0106933D02*
X0154855Y0106933D01*
X0146330Y0137305D02*
X0145244Y0137305D01*
X0147049Y0138903D02*
X0147551Y0138903D01*
X0105225Y0138903D02*
X0103883Y0138903D01*
X0076223Y0206041D02*
X0069777Y0206041D01*
X0068955Y0205700D02*
X0070719Y0206431D01*
X0072069Y0207781D01*
X0072800Y0209545D01*
X0072800Y0217455D01*
X0072069Y0219219D01*
X0070719Y0220569D01*
X0068955Y0221300D01*
X0067045Y0221300D01*
X0065281Y0220569D01*
X0063931Y0219219D01*
X0063200Y0217455D01*
X0063200Y0209545D01*
X0063931Y0207781D01*
X0065281Y0206431D01*
X0067045Y0205700D01*
X0068955Y0205700D01*
X0066223Y0206041D02*
X0059777Y0206041D01*
X0058955Y0205700D02*
X0060719Y0206431D01*
X0062069Y0207781D01*
X0062800Y0209545D01*
X0062800Y0217455D01*
X0062069Y0219219D01*
X0060719Y0220569D01*
X0058955Y0221300D01*
X0057045Y0221300D01*
X0055281Y0220569D01*
X0053931Y0219219D01*
X0053200Y0217455D01*
X0053200Y0209545D01*
X0053931Y0207781D01*
X0055281Y0206431D01*
X0057045Y0205700D01*
X0058955Y0205700D01*
X0056223Y0206041D02*
X0036300Y0206041D01*
X0036300Y0207639D02*
X0054073Y0207639D01*
X0053327Y0209238D02*
X0036300Y0209238D01*
X0036300Y0210836D02*
X0053200Y0210836D01*
X0053200Y0212435D02*
X0036300Y0212435D01*
X0036300Y0214033D02*
X0053200Y0214033D01*
X0053200Y0215632D02*
X0036300Y0215632D01*
X0036300Y0217230D02*
X0053200Y0217230D01*
X0053769Y0218829D02*
X0036300Y0218829D01*
X0036300Y0220427D02*
X0055139Y0220427D01*
X0060861Y0220427D02*
X0065139Y0220427D01*
X0063769Y0218829D02*
X0062231Y0218829D01*
X0062800Y0217230D02*
X0063200Y0217230D01*
X0063200Y0215632D02*
X0062800Y0215632D01*
X0062800Y0214033D02*
X0063200Y0214033D01*
X0063200Y0212435D02*
X0062800Y0212435D01*
X0062800Y0210836D02*
X0063200Y0210836D01*
X0063327Y0209238D02*
X0062673Y0209238D01*
X0061927Y0207639D02*
X0064073Y0207639D01*
X0071927Y0207639D02*
X0074073Y0207639D01*
X0073327Y0209238D02*
X0072673Y0209238D01*
X0072800Y0210836D02*
X0073200Y0210836D01*
X0073200Y0212435D02*
X0072800Y0212435D01*
X0072800Y0214033D02*
X0073200Y0214033D01*
X0073200Y0215632D02*
X0072800Y0215632D01*
X0072800Y0217230D02*
X0073200Y0217230D01*
X0073769Y0218829D02*
X0072231Y0218829D01*
X0070861Y0220427D02*
X0075139Y0220427D01*
X0075307Y0228420D02*
X0070693Y0228420D01*
X0072168Y0230018D02*
X0073832Y0230018D01*
X0073200Y0231617D02*
X0072800Y0231617D01*
X0072800Y0233215D02*
X0073200Y0233215D01*
X0073200Y0234814D02*
X0072800Y0234814D01*
X0072800Y0236412D02*
X0073200Y0236412D01*
X0073200Y0238011D02*
X0072800Y0238011D01*
X0072736Y0239609D02*
X0073264Y0239609D01*
X0073926Y0241208D02*
X0072074Y0241208D01*
X0070146Y0242806D02*
X0075854Y0242806D01*
X0073200Y0281171D02*
X0072800Y0281171D01*
X0072800Y0282769D02*
X0073200Y0282769D01*
X0073578Y0284368D02*
X0072422Y0284368D01*
X0071322Y0285966D02*
X0074678Y0285966D01*
X0077045Y0293700D02*
X0078955Y0293700D01*
X0080719Y0294431D01*
X0082069Y0295781D01*
X0082800Y0297545D01*
X0082800Y0305455D01*
X0082069Y0307219D01*
X0080719Y0308569D01*
X0078955Y0309300D01*
X0077045Y0309300D01*
X0075281Y0308569D01*
X0073931Y0307219D01*
X0073200Y0305455D01*
X0073200Y0297545D01*
X0073931Y0295781D01*
X0075281Y0294431D01*
X0077045Y0293700D01*
X0076420Y0293959D02*
X0069580Y0293959D01*
X0068955Y0293700D02*
X0070719Y0294431D01*
X0072069Y0295781D01*
X0072800Y0297545D01*
X0072800Y0305455D01*
X0072069Y0307219D01*
X0070719Y0308569D01*
X0068955Y0309300D01*
X0067045Y0309300D01*
X0065281Y0308569D01*
X0063931Y0307219D01*
X0063200Y0305455D01*
X0063200Y0297545D01*
X0063931Y0295781D01*
X0065281Y0294431D01*
X0067045Y0293700D01*
X0068955Y0293700D01*
X0066420Y0293959D02*
X0059580Y0293959D01*
X0058955Y0293700D02*
X0060719Y0294431D01*
X0062069Y0295781D01*
X0062800Y0297545D01*
X0062800Y0305455D01*
X0062069Y0307219D01*
X0060719Y0308569D01*
X0058955Y0309300D01*
X0057045Y0309300D01*
X0055281Y0308569D01*
X0053931Y0307219D01*
X0053200Y0305455D01*
X0053200Y0297545D01*
X0053931Y0295781D01*
X0055281Y0294431D01*
X0057045Y0293700D01*
X0058955Y0293700D01*
X0056420Y0293959D02*
X0036300Y0293959D01*
X0036300Y0295557D02*
X0054154Y0295557D01*
X0053361Y0297156D02*
X0036300Y0297156D01*
X0036300Y0298754D02*
X0053200Y0298754D01*
X0053200Y0300353D02*
X0036300Y0300353D01*
X0036300Y0301951D02*
X0053200Y0301951D01*
X0053200Y0303550D02*
X0036300Y0303550D01*
X0036300Y0305148D02*
X0053200Y0305148D01*
X0053735Y0306747D02*
X0036300Y0306747D01*
X0036300Y0308345D02*
X0055057Y0308345D01*
X0060943Y0308345D02*
X0065057Y0308345D01*
X0063735Y0306747D02*
X0062265Y0306747D01*
X0062800Y0305148D02*
X0063200Y0305148D01*
X0063200Y0303550D02*
X0062800Y0303550D01*
X0062800Y0301951D02*
X0063200Y0301951D01*
X0063200Y0300353D02*
X0062800Y0300353D01*
X0062800Y0298754D02*
X0063200Y0298754D01*
X0063361Y0297156D02*
X0062639Y0297156D01*
X0061846Y0295557D02*
X0064154Y0295557D01*
X0071846Y0295557D02*
X0074154Y0295557D01*
X0073361Y0297156D02*
X0072639Y0297156D01*
X0072800Y0298754D02*
X0073200Y0298754D01*
X0073200Y0300353D02*
X0072800Y0300353D01*
X0072800Y0301951D02*
X0073200Y0301951D01*
X0073200Y0303550D02*
X0072800Y0303550D01*
X0072800Y0305148D02*
X0073200Y0305148D01*
X0073735Y0306747D02*
X0072265Y0306747D01*
X0070943Y0308345D02*
X0075057Y0308345D01*
X0080943Y0308345D02*
X0339200Y0308345D01*
X0339200Y0306747D02*
X0082265Y0306747D01*
X0082800Y0305148D02*
X0339200Y0305148D01*
X0339200Y0303550D02*
X0082800Y0303550D01*
X0082800Y0301951D02*
X0339200Y0301951D01*
X0339200Y0300353D02*
X0082800Y0300353D01*
X0082800Y0298754D02*
X0339200Y0298754D01*
X0339200Y0297156D02*
X0082639Y0297156D01*
X0081846Y0295557D02*
X0339200Y0295557D01*
X0339200Y0293959D02*
X0079580Y0293959D01*
X0078955Y0315700D02*
X0080719Y0316431D01*
X0082069Y0317781D01*
X0082800Y0319545D01*
X0082800Y0327455D01*
X0082069Y0329219D01*
X0080719Y0330569D01*
X0078955Y0331300D01*
X0077045Y0331300D01*
X0075281Y0330569D01*
X0073931Y0329219D01*
X0073200Y0327455D01*
X0073200Y0319545D01*
X0073931Y0317781D01*
X0075281Y0316431D01*
X0077045Y0315700D01*
X0078955Y0315700D01*
X0080495Y0316338D02*
X0339200Y0316338D01*
X0339200Y0317937D02*
X0082134Y0317937D01*
X0082796Y0319535D02*
X0339200Y0319535D01*
X0339200Y0321134D02*
X0082800Y0321134D01*
X0082800Y0322732D02*
X0339200Y0322732D01*
X0339200Y0324331D02*
X0082800Y0324331D01*
X0082800Y0325929D02*
X0339200Y0325929D01*
X0339200Y0327528D02*
X0082770Y0327528D01*
X0082108Y0329126D02*
X0339200Y0329126D01*
X0339200Y0330725D02*
X0329013Y0330725D01*
X0333106Y0332323D02*
X0339200Y0332323D01*
X0339200Y0333922D02*
X0335369Y0333922D01*
X0336968Y0335520D02*
X0339200Y0335520D01*
X0339200Y0337119D02*
X0338025Y0337119D01*
X0338948Y0338717D02*
X0339200Y0338717D01*
X0323144Y0330725D02*
X0100667Y0330725D01*
X0104760Y0332323D02*
X0319051Y0332323D01*
X0316788Y0333922D02*
X0107023Y0333922D01*
X0108621Y0335520D02*
X0111606Y0335520D01*
X0111606Y0337119D02*
X0109678Y0337119D01*
X0110601Y0338717D02*
X0111606Y0338717D01*
X0111606Y0340316D02*
X0111127Y0340316D01*
X0111555Y0341914D02*
X0111606Y0341914D01*
X0111737Y0345111D02*
X0113736Y0345111D01*
X0112299Y0346710D02*
X0111622Y0346710D01*
X0111636Y0348308D02*
X0111194Y0348308D01*
X0111606Y0349907D02*
X0110746Y0349907D01*
X0109823Y0351505D02*
X0112026Y0351505D01*
X0113077Y0353104D02*
X0108871Y0353104D01*
X0107273Y0354702D02*
X0115767Y0354702D01*
X0118044Y0354702D02*
X0125767Y0354702D01*
X0128044Y0354702D02*
X0145767Y0354702D01*
X0148044Y0354702D02*
X0155767Y0354702D01*
X0158044Y0354702D02*
X0165767Y0354702D01*
X0168044Y0354702D02*
X0185767Y0354702D01*
X0188044Y0354702D02*
X0195767Y0354702D01*
X0198044Y0354702D02*
X0215767Y0354702D01*
X0218044Y0354702D02*
X0225767Y0354702D01*
X0228044Y0354702D02*
X0235767Y0354702D01*
X0238044Y0354702D02*
X0245767Y0354702D01*
X0248044Y0354702D02*
X0265767Y0354702D01*
X0268044Y0354702D02*
X0285767Y0354702D01*
X0288044Y0354702D02*
X0295767Y0354702D01*
X0298044Y0354702D02*
X0305767Y0354702D01*
X0308044Y0354702D02*
X0316538Y0354702D01*
X0314940Y0353104D02*
X0310734Y0353104D01*
X0311785Y0351505D02*
X0313988Y0351505D01*
X0313065Y0349907D02*
X0312205Y0349907D01*
X0312175Y0348308D02*
X0312617Y0348308D01*
X0312189Y0346710D02*
X0311512Y0346710D01*
X0312074Y0345111D02*
X0310075Y0345111D01*
X0312074Y0343513D02*
X0300325Y0343513D01*
X0300075Y0345111D02*
X0303736Y0345111D01*
X0302299Y0346710D02*
X0301512Y0346710D01*
X0301616Y0341914D02*
X0312256Y0341914D01*
X0312684Y0340316D02*
X0302205Y0340316D01*
X0302205Y0338717D02*
X0313210Y0338717D01*
X0314133Y0337119D02*
X0301682Y0337119D01*
X0300484Y0335520D02*
X0315190Y0335520D01*
X0302026Y0351505D02*
X0301785Y0351505D01*
X0300734Y0353104D02*
X0303077Y0353104D01*
X0293077Y0353104D02*
X0290734Y0353104D01*
X0291785Y0351505D02*
X0292026Y0351505D01*
X0283077Y0353104D02*
X0270734Y0353104D01*
X0271785Y0351505D02*
X0282026Y0351505D01*
X0281606Y0349907D02*
X0272205Y0349907D01*
X0272175Y0348308D02*
X0281636Y0348308D01*
X0282299Y0346710D02*
X0271512Y0346710D01*
X0270075Y0345111D02*
X0283736Y0345111D01*
X0283486Y0343513D02*
X0280325Y0343513D01*
X0281616Y0341914D02*
X0282195Y0341914D01*
X0282129Y0337119D02*
X0281682Y0337119D01*
X0280484Y0335520D02*
X0283327Y0335520D01*
X0290484Y0335520D02*
X0293327Y0335520D01*
X0292129Y0337119D02*
X0291682Y0337119D01*
X0273327Y0335520D02*
X0270484Y0335520D01*
X0271682Y0337119D02*
X0272129Y0337119D01*
X0272195Y0341914D02*
X0271616Y0341914D01*
X0270325Y0343513D02*
X0273486Y0343513D01*
X0263736Y0345111D02*
X0250075Y0345111D01*
X0250325Y0343513D02*
X0253486Y0343513D01*
X0252195Y0341914D02*
X0251616Y0341914D01*
X0251682Y0337119D02*
X0252129Y0337119D01*
X0253327Y0335520D02*
X0250484Y0335520D01*
X0243327Y0335520D02*
X0230484Y0335520D01*
X0231682Y0337119D02*
X0242129Y0337119D01*
X0241606Y0338717D02*
X0232205Y0338717D01*
X0232205Y0340316D02*
X0241606Y0340316D01*
X0242195Y0341914D02*
X0231616Y0341914D01*
X0230325Y0343513D02*
X0243486Y0343513D01*
X0243736Y0345111D02*
X0240075Y0345111D01*
X0241512Y0346710D02*
X0242299Y0346710D01*
X0242026Y0351505D02*
X0241785Y0351505D01*
X0240734Y0353104D02*
X0243077Y0353104D01*
X0250734Y0353104D02*
X0263077Y0353104D01*
X0262026Y0351505D02*
X0251785Y0351505D01*
X0252205Y0349907D02*
X0261606Y0349907D01*
X0261636Y0348308D02*
X0252175Y0348308D01*
X0251512Y0346710D02*
X0262299Y0346710D01*
X0263486Y0343513D02*
X0260325Y0343513D01*
X0261616Y0341914D02*
X0262195Y0341914D01*
X0262129Y0337119D02*
X0261682Y0337119D01*
X0260484Y0335520D02*
X0263327Y0335520D01*
X0233736Y0345111D02*
X0230075Y0345111D01*
X0231512Y0346710D02*
X0232299Y0346710D01*
X0232026Y0351505D02*
X0231785Y0351505D01*
X0230734Y0353104D02*
X0233077Y0353104D01*
X0223077Y0353104D02*
X0220734Y0353104D01*
X0221785Y0351505D02*
X0222026Y0351505D01*
X0213077Y0353104D02*
X0200734Y0353104D01*
X0201785Y0351505D02*
X0212026Y0351505D01*
X0211606Y0349907D02*
X0202205Y0349907D01*
X0202175Y0348308D02*
X0211636Y0348308D01*
X0212299Y0346710D02*
X0201512Y0346710D01*
X0200075Y0345111D02*
X0213736Y0345111D01*
X0213486Y0343513D02*
X0210325Y0343513D01*
X0211616Y0341914D02*
X0212195Y0341914D01*
X0212129Y0337119D02*
X0211682Y0337119D01*
X0210484Y0335520D02*
X0213327Y0335520D01*
X0220484Y0335520D02*
X0223327Y0335520D01*
X0222129Y0337119D02*
X0221682Y0337119D01*
X0203327Y0335520D02*
X0200484Y0335520D01*
X0201682Y0337119D02*
X0202129Y0337119D01*
X0202195Y0341914D02*
X0201616Y0341914D01*
X0200325Y0343513D02*
X0203486Y0343513D01*
X0193327Y0335520D02*
X0190484Y0335520D01*
X0191682Y0337119D02*
X0192129Y0337119D01*
X0183327Y0335520D02*
X0180484Y0335520D01*
X0181682Y0337119D02*
X0182129Y0337119D01*
X0182195Y0341914D02*
X0181616Y0341914D01*
X0180325Y0343513D02*
X0183486Y0343513D01*
X0183736Y0345111D02*
X0170075Y0345111D01*
X0170325Y0343513D02*
X0173486Y0343513D01*
X0172195Y0341914D02*
X0171616Y0341914D01*
X0171682Y0337119D02*
X0172129Y0337119D01*
X0173327Y0335520D02*
X0170484Y0335520D01*
X0163327Y0335520D02*
X0150484Y0335520D01*
X0151682Y0337119D02*
X0162129Y0337119D01*
X0161606Y0338717D02*
X0152205Y0338717D01*
X0152205Y0340316D02*
X0161606Y0340316D01*
X0162195Y0341914D02*
X0151616Y0341914D01*
X0150325Y0343513D02*
X0163486Y0343513D01*
X0163736Y0345111D02*
X0160075Y0345111D01*
X0161512Y0346710D02*
X0162299Y0346710D01*
X0162026Y0351505D02*
X0161785Y0351505D01*
X0160734Y0353104D02*
X0163077Y0353104D01*
X0170734Y0353104D02*
X0183077Y0353104D01*
X0182026Y0351505D02*
X0171785Y0351505D01*
X0172205Y0349907D02*
X0181606Y0349907D01*
X0181636Y0348308D02*
X0172175Y0348308D01*
X0171512Y0346710D02*
X0182299Y0346710D01*
X0190734Y0353104D02*
X0193077Y0353104D01*
X0192026Y0351505D02*
X0191785Y0351505D01*
X0153736Y0345111D02*
X0150075Y0345111D01*
X0151512Y0346710D02*
X0152299Y0346710D01*
X0152026Y0351505D02*
X0151785Y0351505D01*
X0150734Y0353104D02*
X0153077Y0353104D01*
X0143077Y0353104D02*
X0130734Y0353104D01*
X0131785Y0351505D02*
X0142026Y0351505D01*
X0141606Y0349907D02*
X0132205Y0349907D01*
X0132175Y0348308D02*
X0141636Y0348308D01*
X0142299Y0346710D02*
X0131512Y0346710D01*
X0130075Y0345111D02*
X0143736Y0345111D01*
X0143486Y0343513D02*
X0140325Y0343513D01*
X0141616Y0341914D02*
X0142195Y0341914D01*
X0142129Y0337119D02*
X0141682Y0337119D01*
X0140484Y0335520D02*
X0143327Y0335520D01*
X0133327Y0335520D02*
X0130484Y0335520D01*
X0131682Y0337119D02*
X0132129Y0337119D01*
X0132195Y0341914D02*
X0131616Y0341914D01*
X0130325Y0343513D02*
X0133486Y0343513D01*
X0123327Y0335520D02*
X0122205Y0335520D01*
X0122026Y0351505D02*
X0121785Y0351505D01*
X0120734Y0353104D02*
X0123077Y0353104D01*
X0105193Y0356301D02*
X0318618Y0356301D01*
X0339200Y0314739D02*
X0036300Y0314739D01*
X0036300Y0313141D02*
X0339200Y0313141D01*
X0339200Y0311542D02*
X0036300Y0311542D01*
X0036300Y0309944D02*
X0339200Y0309944D01*
X0339200Y0292360D02*
X0036300Y0292360D01*
X0036300Y0290762D02*
X0339200Y0290762D01*
X0094798Y0330725D02*
X0080344Y0330725D01*
X0075656Y0330725D02*
X0070344Y0330725D01*
X0070719Y0330569D02*
X0068955Y0331300D01*
X0067045Y0331300D01*
X0065281Y0330569D01*
X0063931Y0329219D01*
X0063200Y0327455D01*
X0063200Y0319545D01*
X0063931Y0317781D01*
X0065281Y0316431D01*
X0067045Y0315700D01*
X0068955Y0315700D01*
X0070719Y0316431D01*
X0072069Y0317781D01*
X0072800Y0319545D01*
X0072800Y0327455D01*
X0072069Y0329219D01*
X0070719Y0330569D01*
X0072108Y0329126D02*
X0073892Y0329126D01*
X0073230Y0327528D02*
X0072770Y0327528D01*
X0072800Y0325929D02*
X0073200Y0325929D01*
X0073200Y0324331D02*
X0072800Y0324331D01*
X0072800Y0322732D02*
X0073200Y0322732D01*
X0073200Y0321134D02*
X0072800Y0321134D01*
X0072796Y0319535D02*
X0073204Y0319535D01*
X0073866Y0317937D02*
X0072134Y0317937D01*
X0070495Y0316338D02*
X0075505Y0316338D01*
X0065505Y0316338D02*
X0060495Y0316338D01*
X0060719Y0316431D02*
X0062069Y0317781D01*
X0062800Y0319545D01*
X0062800Y0327455D01*
X0062069Y0329219D01*
X0060719Y0330569D01*
X0058955Y0331300D01*
X0057045Y0331300D01*
X0055281Y0330569D01*
X0053931Y0329219D01*
X0053200Y0327455D01*
X0053200Y0319545D01*
X0053931Y0317781D01*
X0055281Y0316431D01*
X0057045Y0315700D01*
X0058955Y0315700D01*
X0060719Y0316431D01*
X0062134Y0317937D02*
X0063866Y0317937D01*
X0063204Y0319535D02*
X0062796Y0319535D01*
X0062800Y0321134D02*
X0063200Y0321134D01*
X0063200Y0322732D02*
X0062800Y0322732D01*
X0062800Y0324331D02*
X0063200Y0324331D01*
X0063200Y0325929D02*
X0062800Y0325929D01*
X0062770Y0327528D02*
X0063230Y0327528D01*
X0063892Y0329126D02*
X0062108Y0329126D01*
X0060344Y0330725D02*
X0065656Y0330725D01*
X0067045Y0337700D02*
X0065281Y0338431D01*
X0063931Y0339781D01*
X0063200Y0341545D01*
X0063200Y0349455D01*
X0063931Y0351219D01*
X0065281Y0352569D01*
X0067045Y0353300D01*
X0068955Y0353300D01*
X0070719Y0352569D01*
X0072069Y0351219D01*
X0072800Y0349455D01*
X0072800Y0341545D01*
X0072069Y0339781D01*
X0070719Y0338431D01*
X0068955Y0337700D01*
X0067045Y0337700D01*
X0064995Y0338717D02*
X0061005Y0338717D01*
X0060719Y0338431D02*
X0062069Y0339781D01*
X0062800Y0341545D01*
X0062800Y0349455D01*
X0062069Y0351219D01*
X0060719Y0352569D01*
X0058955Y0353300D01*
X0057045Y0353300D01*
X0055281Y0352569D01*
X0053931Y0351219D01*
X0053200Y0349455D01*
X0053200Y0341545D01*
X0053931Y0339781D01*
X0055281Y0338431D01*
X0057045Y0337700D01*
X0058955Y0337700D01*
X0060719Y0338431D01*
X0062291Y0340316D02*
X0063709Y0340316D01*
X0063200Y0341914D02*
X0062800Y0341914D01*
X0062800Y0343513D02*
X0063200Y0343513D01*
X0063200Y0345111D02*
X0062800Y0345111D01*
X0062800Y0346710D02*
X0063200Y0346710D01*
X0063200Y0348308D02*
X0062800Y0348308D01*
X0062613Y0349907D02*
X0063387Y0349907D01*
X0064217Y0351505D02*
X0061783Y0351505D01*
X0059429Y0353104D02*
X0066571Y0353104D01*
X0069429Y0353104D02*
X0076571Y0353104D01*
X0077045Y0353300D02*
X0075281Y0352569D01*
X0073931Y0351219D01*
X0073200Y0349455D01*
X0073200Y0341545D01*
X0073931Y0339781D01*
X0075281Y0338431D01*
X0077045Y0337700D01*
X0078955Y0337700D01*
X0080719Y0338431D01*
X0082069Y0339781D01*
X0082800Y0341545D01*
X0082800Y0349455D01*
X0082069Y0351219D01*
X0080719Y0352569D01*
X0078955Y0353300D01*
X0077045Y0353300D01*
X0079429Y0353104D02*
X0086593Y0353104D01*
X0085642Y0351505D02*
X0081783Y0351505D01*
X0082613Y0349907D02*
X0084719Y0349907D01*
X0084271Y0348308D02*
X0082800Y0348308D01*
X0082800Y0346710D02*
X0083842Y0346710D01*
X0083728Y0345111D02*
X0082800Y0345111D01*
X0082800Y0343513D02*
X0083728Y0343513D01*
X0083910Y0341914D02*
X0082800Y0341914D01*
X0082291Y0340316D02*
X0084338Y0340316D01*
X0084863Y0338717D02*
X0081005Y0338717D01*
X0085786Y0337119D02*
X0036300Y0337119D01*
X0036300Y0338717D02*
X0054995Y0338717D01*
X0053709Y0340316D02*
X0036300Y0340316D01*
X0036300Y0341914D02*
X0053200Y0341914D01*
X0053200Y0343513D02*
X0036300Y0343513D01*
X0036300Y0345111D02*
X0053200Y0345111D01*
X0053200Y0346710D02*
X0036300Y0346710D01*
X0036300Y0348308D02*
X0053200Y0348308D01*
X0053387Y0349907D02*
X0036300Y0349907D01*
X0036300Y0351505D02*
X0054217Y0351505D01*
X0056571Y0353104D02*
X0036300Y0353104D01*
X0036300Y0354702D02*
X0088192Y0354702D01*
X0090272Y0356301D02*
X0036300Y0356301D01*
X0036300Y0335520D02*
X0086843Y0335520D01*
X0088442Y0333922D02*
X0036300Y0333922D01*
X0036300Y0332323D02*
X0090705Y0332323D01*
X0074995Y0338717D02*
X0071005Y0338717D01*
X0072291Y0340316D02*
X0073709Y0340316D01*
X0073200Y0341914D02*
X0072800Y0341914D01*
X0072800Y0343513D02*
X0073200Y0343513D01*
X0073200Y0345111D02*
X0072800Y0345111D01*
X0072800Y0346710D02*
X0073200Y0346710D01*
X0073200Y0348308D02*
X0072800Y0348308D01*
X0072613Y0349907D02*
X0073387Y0349907D01*
X0074217Y0351505D02*
X0071783Y0351505D01*
X0055656Y0330725D02*
X0036300Y0330725D01*
X0036300Y0329126D02*
X0053892Y0329126D01*
X0053230Y0327528D02*
X0036300Y0327528D01*
X0036300Y0325929D02*
X0053200Y0325929D01*
X0053200Y0324331D02*
X0036300Y0324331D01*
X0036300Y0322732D02*
X0053200Y0322732D01*
X0053200Y0321134D02*
X0036300Y0321134D01*
X0036300Y0319535D02*
X0053204Y0319535D01*
X0053866Y0317937D02*
X0036300Y0317937D01*
X0036300Y0316338D02*
X0055505Y0316338D01*
X0036300Y0044591D02*
X0406716Y0044591D01*
X0406716Y0042993D02*
X0036300Y0042993D01*
X0036300Y0041394D02*
X0406716Y0041394D01*
X0406716Y0039796D02*
X0036300Y0039796D01*
X0036300Y0038197D02*
X0406716Y0038197D01*
D19*
X0403000Y0074500D03*
X0344500Y0121500D03*
X0286500Y0068500D03*
X0283500Y0071500D03*
X0280500Y0074500D03*
X0277500Y0077500D03*
X0274500Y0083500D03*
X0271000Y0075500D03*
X0289500Y0065500D03*
X0293000Y0062500D03*
X0305500Y0049500D03*
X0276000Y0097000D03*
X0261500Y0094500D03*
X0258500Y0097500D03*
X0263000Y0112000D03*
X0255500Y0113000D03*
X0249000Y0116500D03*
X0255500Y0120000D03*
X0263000Y0121500D03*
X0241500Y0119500D03*
X0241500Y0113000D03*
X0233500Y0113000D03*
X0225000Y0112500D03*
X0225000Y0122000D03*
X0233500Y0121500D03*
X0233500Y0134000D03*
X0237500Y0135500D03*
X0228000Y0134000D03*
X0228500Y0139000D03*
X0223000Y0139000D03*
X0217000Y0133000D03*
X0205500Y0133000D03*
X0193000Y0133000D03*
X0194000Y0120500D03*
X0205000Y0116000D03*
X0210500Y0120500D03*
X0194000Y0107000D03*
X0185000Y0107500D03*
X0205000Y0091000D03*
X0209500Y0095500D03*
X0215500Y0093000D03*
X0221500Y0091000D03*
X0225500Y0095000D03*
X0237000Y0093000D03*
X0238500Y0097000D03*
X0276000Y0142000D03*
X0241000Y0149500D03*
X0237500Y0162500D03*
X0228100Y0154000D03*
X0210500Y0162500D03*
X0218000Y0181500D03*
X0216000Y0188500D03*
X0192000Y0189500D03*
X0188500Y0192500D03*
X0180500Y0207500D03*
X0167500Y0189500D03*
X0171000Y0184500D03*
X0162500Y0181500D03*
X0167500Y0160500D03*
X0165000Y0140000D03*
X0149000Y0136500D03*
X0144500Y0140000D03*
X0139000Y0122000D03*
X0135000Y0121500D03*
X0127500Y0120000D03*
X0127500Y0113000D03*
X0135000Y0112000D03*
X0120500Y0116500D03*
X0113000Y0113000D03*
X0113000Y0120000D03*
X0105000Y0121500D03*
X0105000Y0113000D03*
X0096500Y0112500D03*
X0096500Y0122000D03*
X0098000Y0129500D03*
X0089000Y0129500D03*
X0082000Y0120500D03*
X0077500Y0116000D03*
X0067500Y0120500D03*
X0067000Y0129500D03*
X0078000Y0129500D03*
X0067500Y0107000D03*
X0081500Y0095500D03*
X0077000Y0091000D03*
X0087500Y0093000D03*
X0093500Y0091000D03*
X0097500Y0095000D03*
X0108500Y0093500D03*
X0110500Y0097500D03*
X0130500Y0097500D03*
X0133500Y0094500D03*
X0152500Y0108500D03*
X0161500Y0107500D03*
X0112000Y0134500D03*
X0108000Y0139000D03*
X0129000Y0165500D03*
X0152500Y0239000D03*
X0147500Y0254000D03*
X0126500Y0272500D03*
X0112500Y0309000D03*
X0182500Y0261500D03*
X0187000Y0260500D03*
X0193000Y0260000D03*
X0192500Y0252000D03*
X0187500Y0251500D03*
X0180500Y0251500D03*
X0185500Y0236000D03*
X0216500Y0225500D03*
X0224000Y0220000D03*
X0226000Y0214500D03*
X0266000Y0228500D03*
X0270500Y0224000D03*
X0275500Y0219500D03*
X0290500Y0195000D03*
X0297000Y0184000D03*
X0252500Y0177500D03*
X0096500Y0069500D03*
X0074000Y0070000D03*
X0044000Y0159000D03*
X0044000Y0290500D03*
D20*
X0162500Y0181500D02*
X0218000Y0181500D01*
X0210500Y0162500D02*
X0237500Y0162500D01*
X0228100Y0154000D02*
X0232600Y0149500D01*
X0241000Y0149500D01*
X0244000Y0142000D02*
X0237500Y0135500D01*
X0233500Y0134000D02*
X0228500Y0139000D01*
X0228000Y0134000D02*
X0223000Y0139000D01*
X0244000Y0142000D02*
X0276000Y0142000D01*
X0266500Y0163500D02*
X0287000Y0184000D01*
X0297000Y0184000D01*
X0290500Y0195000D02*
X0270000Y0195000D01*
X0252500Y0177500D01*
X0226000Y0214500D02*
X0231000Y0219500D01*
X0275500Y0219500D01*
X0270500Y0224000D02*
X0228000Y0224000D01*
X0224000Y0220000D01*
X0216500Y0225500D02*
X0219500Y0228500D01*
X0266000Y0228500D01*
X0193000Y0252500D02*
X0192500Y0252000D01*
X0193000Y0252500D02*
X0193000Y0260000D01*
X0187000Y0260500D02*
X0187000Y0252000D01*
X0187500Y0251500D01*
X0184500Y0254000D02*
X0184500Y0237000D01*
X0185500Y0236000D01*
X0184500Y0254000D02*
X0182500Y0256000D01*
X0182500Y0261500D01*
X0188500Y0192500D02*
X0185500Y0189500D01*
X0167500Y0189500D01*
X0171000Y0184500D02*
X0187000Y0184500D01*
X0192000Y0189500D01*
X0167500Y0160500D02*
X0162500Y0165500D01*
X0129000Y0165500D01*
X0144500Y0140000D02*
X0143500Y0139000D01*
X0108000Y0139000D01*
X0112000Y0134500D02*
X0147000Y0134500D01*
X0149000Y0136500D01*
X0139000Y0122000D02*
X0152500Y0108500D01*
X0165000Y0140000D02*
X0184500Y0140000D01*
X0189500Y0145000D01*
X0126000Y0072500D02*
X0272500Y0072500D01*
X0277500Y0077500D01*
X0280500Y0074500D02*
X0276500Y0070500D01*
X0134500Y0070500D01*
X0123000Y0059000D01*
X0123000Y0055000D01*
X0113000Y0055000D02*
X0113000Y0059500D01*
X0126000Y0072500D01*
X0175500Y0060000D02*
X0175500Y0055000D01*
X0175500Y0060000D02*
X0184000Y0068500D01*
X0280500Y0068500D01*
X0283500Y0071500D01*
X0286500Y0068500D02*
X0284500Y0066500D01*
X0192500Y0066500D01*
X0185500Y0059500D01*
X0185500Y0055000D01*
X0238000Y0055000D02*
X0238000Y0059500D01*
X0243000Y0064500D01*
X0288500Y0064500D01*
X0289500Y0065500D01*
X0293000Y0062500D02*
X0250500Y0062500D01*
X0248000Y0060000D01*
X0248000Y0055000D01*
X0268500Y0077500D02*
X0067000Y0077500D01*
X0050500Y0061000D01*
X0050500Y0055000D01*
X0060500Y0055000D02*
X0060500Y0063000D01*
X0073000Y0075500D01*
X0271000Y0075500D01*
X0268500Y0077500D02*
X0274500Y0083500D01*
X0270000Y0083709D02*
X0047000Y0083709D01*
X0047000Y0083000D02*
X0047000Y0102500D01*
X0270000Y0102500D01*
X0270000Y0083000D01*
X0047000Y0083000D01*
X0047000Y0084508D02*
X0270000Y0084508D01*
X0270000Y0085306D02*
X0047000Y0085306D01*
X0047000Y0086105D02*
X0270000Y0086105D01*
X0270000Y0086903D02*
X0047000Y0086903D01*
X0047000Y0087702D02*
X0270000Y0087702D01*
X0270000Y0088500D02*
X0047000Y0088500D01*
X0047000Y0089299D02*
X0270000Y0089299D01*
X0270000Y0090097D02*
X0047000Y0090097D01*
X0047000Y0090896D02*
X0270000Y0090896D01*
X0270000Y0091694D02*
X0047000Y0091694D01*
X0047000Y0092493D02*
X0270000Y0092493D01*
X0270000Y0093291D02*
X0047000Y0093291D01*
X0047000Y0094090D02*
X0270000Y0094090D01*
X0270000Y0094888D02*
X0047000Y0094888D01*
X0047000Y0095687D02*
X0270000Y0095687D01*
X0270000Y0096485D02*
X0047000Y0096485D01*
X0047000Y0097284D02*
X0270000Y0097284D01*
X0270000Y0098082D02*
X0047000Y0098082D01*
X0047000Y0098881D02*
X0270000Y0098881D01*
X0270000Y0099679D02*
X0047000Y0099679D01*
X0047000Y0100478D02*
X0270000Y0100478D01*
X0270000Y0101276D02*
X0047000Y0101276D01*
X0047000Y0102075D02*
X0270000Y0102075D01*
D21*
X0127000Y0247000D02*
X0064500Y0247000D01*
X0058000Y0240500D01*
X0058000Y0235500D01*
D22*
X0127000Y0247000D02*
X0140500Y0247000D01*
X0147500Y0254000D01*
M02*
