%
M48
M72
T01C0.0130
T02C0.0320
T03C0.0354
T04C0.0394
T05C0.0400
T06C0.0440
T07C0.0760
T08C0.1260
%
T01
X12542Y12900
X14942Y12900
X17062Y17460
X12062Y21100
X24462Y4500
T02
X20642Y8250
X19642Y8250
X26642Y14000
X26642Y15000
T03
X25892Y13500
X21892Y14500
X21892Y10500
X23142Y9000
X25892Y9500
X23142Y5000
X11392Y17750
X11392Y18750
X7392Y18750
X7392Y17750
T04
X12542Y20500
X13542Y20500
X14542Y20500
X15542Y20500
X16542Y20500
X17542Y20500
X18542Y20500
X19542Y20500
X21142Y20500
X22142Y20500
X23142Y20500
X24142Y20500
X25142Y20500
X26142Y20500
X27142Y20500
X28142Y20500
X28392Y18459
X28392Y17081
X25392Y7500
X26392Y7000
X25392Y6500
X26392Y6000
X25392Y5500
X26392Y5000
X25392Y4500
X26392Y4000
X26142Y1500
X27142Y1500
X28142Y1500
X25142Y1500
X24142Y1500
X23142Y1500
X21142Y1500
X20142Y1500
X19142Y1500
X18142Y1500
X17142Y1500
X16142Y1500
X13892Y4250
X12892Y4250
X11892Y4250
X10892Y4250
X11392Y5250
X12392Y5250
X13392Y5250
X14392Y5250
X7892Y7250
X6892Y7750
X7892Y8250
X6892Y8750
X7892Y9250
X6892Y9750
X7892Y10250
X6892Y10750
T05
X7442Y15800
X8442Y15800
X9442Y15800
X10442Y15800
X11442Y15800
X12642Y18250
X13642Y18250
X14642Y18250
X15642Y18250
X16642Y18250
X23642Y15000
X23642Y14000
X23642Y13000
X26862Y12390
X26862Y10610
X29422Y10610
X29422Y12390
X21592Y6150
X20592Y6150
X19592Y6150
X18592Y6150
X17592Y6150
X16592Y6150
X4892Y19500
X3892Y19500
X3892Y20500
X4892Y20500
T06
X22142Y17000
X26142Y17000
T07
X19642Y17000
X19642Y15000
X19642Y13000
X19642Y11000
T08
X8642Y1500
X4392Y6750
X10392Y7750
X14892Y7750
X4392Y11250
X9142Y20500
X28892Y8000
X28892Y3500
X29142Y14500
M30
