%
M48
M72
T01C0.0130
T02C0.0394
T03C0.0400
T04C0.1083
%
T01
X6100Y11850
X10900Y15450
X10600Y15800
X8000Y16000
X9200Y18550
X8250Y18750
X9950Y19600
X15000Y19000
X16350Y18400
X15750Y17150
X16450Y15800
X16950Y15450
X15750Y14950
X13900Y13700
X14150Y12650
X15900Y12200
X16750Y12200
X16700Y13100
X15900Y13100
X17900Y14400
X18900Y14900
X18600Y17650
X18600Y18600
X16350Y11150
X17250Y10850
X17350Y10350
X4200Y18800
T02
X6795Y20669
X7795Y20669
X8795Y20669
X9795Y20669
X10795Y20669
X11795Y20669
X12795Y20669
X13795Y20669
X14795Y20669
X15795Y20669
X16795Y20669
X17795Y20669
X18795Y20669
X19795Y20669
X20795Y20669
X21795Y20669
X22795Y20669
X23795Y20669
X24795Y20669
X25795Y20669
X25795Y21669
X24795Y21669
X23795Y21669
X22795Y21669
X21795Y21669
X20795Y21669
X19795Y21669
X18795Y21669
X17795Y21669
X16795Y21669
X15795Y21669
X14795Y21669
X13795Y21669
X12795Y21669
X11795Y21669
X10795Y21669
X9795Y21669
X8795Y21669
X7795Y21669
X6795Y21669
T03
X5500Y17000
X5500Y16000
X5000Y7200
X5000Y6200
X5000Y5200
X5000Y4200
X7000Y4200
X7000Y5200
X7000Y6200
X7000Y7200
X9000Y7200
X9000Y6200
X9000Y5200
X9000Y4200
X11000Y4200
X11000Y5200
X11000Y6200
X11000Y7200
X13000Y7200
X13000Y6200
X13000Y5200
X13000Y4200
X15000Y4200
X15000Y5200
X15000Y6200
X15000Y7200
X17000Y7200
X17000Y6200
X17000Y5200
X17000Y4200
X19000Y4200
X19000Y5200
X19000Y6200
X19000Y7200
X21000Y7200
X21000Y6200
X21000Y5200
X21000Y4200
X23000Y4200
X23000Y5200
X23000Y6200
X23000Y7200
T04
X4878Y1878
X27713Y1878
X27713Y21169
X4878Y21169
M30
