G75*
%MOIN*%
%OFA0B0*%
%FSLAX25Y25*%
%IPPOS*%
%LPD*%
%AMOC8*
5,1,8,0,0,1.08239X$1,22.5*
%
%ADD10C,0.25197*%
%ADD11C,0.00000*%
%ADD12R,0.07400X0.07400*%
%ADD13C,0.07400*%
%ADD14C,0.11227*%
%ADD15C,0.06400*%
D10*
X0048780Y0018780D03*
X0277126Y0018780D03*
X0277126Y0211693D03*
X0048780Y0211693D03*
D11*
X0035000Y0073898D02*
X0035000Y0016811D01*
X0035003Y0016526D01*
X0035014Y0016240D01*
X0035031Y0015955D01*
X0035055Y0015671D01*
X0035086Y0015387D01*
X0035124Y0015104D01*
X0035169Y0014823D01*
X0035220Y0014542D01*
X0035278Y0014262D01*
X0035343Y0013984D01*
X0035415Y0013708D01*
X0035493Y0013434D01*
X0035578Y0013161D01*
X0035670Y0012891D01*
X0035768Y0012623D01*
X0035872Y0012357D01*
X0035983Y0012094D01*
X0036100Y0011834D01*
X0036223Y0011576D01*
X0036353Y0011322D01*
X0036489Y0011071D01*
X0036630Y0010823D01*
X0036778Y0010579D01*
X0036931Y0010338D01*
X0037091Y0010102D01*
X0037256Y0009869D01*
X0037426Y0009640D01*
X0037602Y0009415D01*
X0037784Y0009195D01*
X0037970Y0008979D01*
X0038162Y0008768D01*
X0038359Y0008561D01*
X0038561Y0008359D01*
X0038768Y0008162D01*
X0038979Y0007970D01*
X0039195Y0007784D01*
X0039415Y0007602D01*
X0039640Y0007426D01*
X0039869Y0007256D01*
X0040102Y0007091D01*
X0040338Y0006931D01*
X0040579Y0006778D01*
X0040823Y0006630D01*
X0041071Y0006489D01*
X0041322Y0006353D01*
X0041576Y0006223D01*
X0041834Y0006100D01*
X0042094Y0005983D01*
X0042357Y0005872D01*
X0042623Y0005768D01*
X0042891Y0005670D01*
X0043161Y0005578D01*
X0043434Y0005493D01*
X0043708Y0005415D01*
X0043984Y0005343D01*
X0044262Y0005278D01*
X0044542Y0005220D01*
X0044823Y0005169D01*
X0045104Y0005124D01*
X0045387Y0005086D01*
X0045671Y0005055D01*
X0045955Y0005031D01*
X0046240Y0005014D01*
X0046526Y0005003D01*
X0046811Y0005000D01*
X0279094Y0005000D01*
X0279379Y0005003D01*
X0279665Y0005014D01*
X0279950Y0005031D01*
X0280234Y0005055D01*
X0280518Y0005086D01*
X0280801Y0005124D01*
X0281082Y0005169D01*
X0281363Y0005220D01*
X0281643Y0005278D01*
X0281921Y0005343D01*
X0282197Y0005415D01*
X0282471Y0005493D01*
X0282744Y0005578D01*
X0283014Y0005670D01*
X0283282Y0005768D01*
X0283548Y0005872D01*
X0283811Y0005983D01*
X0284071Y0006100D01*
X0284329Y0006223D01*
X0284583Y0006353D01*
X0284834Y0006489D01*
X0285082Y0006630D01*
X0285326Y0006778D01*
X0285567Y0006931D01*
X0285803Y0007091D01*
X0286036Y0007256D01*
X0286265Y0007426D01*
X0286490Y0007602D01*
X0286710Y0007784D01*
X0286926Y0007970D01*
X0287137Y0008162D01*
X0287344Y0008359D01*
X0287546Y0008561D01*
X0287743Y0008768D01*
X0287935Y0008979D01*
X0288121Y0009195D01*
X0288303Y0009415D01*
X0288479Y0009640D01*
X0288649Y0009869D01*
X0288814Y0010102D01*
X0288974Y0010338D01*
X0289127Y0010579D01*
X0289275Y0010823D01*
X0289416Y0011071D01*
X0289552Y0011322D01*
X0289682Y0011576D01*
X0289805Y0011834D01*
X0289922Y0012094D01*
X0290033Y0012357D01*
X0290137Y0012623D01*
X0290235Y0012891D01*
X0290327Y0013161D01*
X0290412Y0013434D01*
X0290490Y0013708D01*
X0290562Y0013984D01*
X0290627Y0014262D01*
X0290685Y0014542D01*
X0290736Y0014823D01*
X0290781Y0015104D01*
X0290819Y0015387D01*
X0290850Y0015671D01*
X0290874Y0015955D01*
X0290891Y0016240D01*
X0290902Y0016526D01*
X0290905Y0016811D01*
X0290906Y0016811D02*
X0290906Y0213661D01*
X0290905Y0213661D02*
X0290902Y0213946D01*
X0290891Y0214232D01*
X0290874Y0214517D01*
X0290850Y0214801D01*
X0290819Y0215085D01*
X0290781Y0215368D01*
X0290736Y0215649D01*
X0290685Y0215930D01*
X0290627Y0216210D01*
X0290562Y0216488D01*
X0290490Y0216764D01*
X0290412Y0217038D01*
X0290327Y0217311D01*
X0290235Y0217581D01*
X0290137Y0217849D01*
X0290033Y0218115D01*
X0289922Y0218378D01*
X0289805Y0218638D01*
X0289682Y0218896D01*
X0289552Y0219150D01*
X0289416Y0219401D01*
X0289275Y0219649D01*
X0289127Y0219893D01*
X0288974Y0220134D01*
X0288814Y0220370D01*
X0288649Y0220603D01*
X0288479Y0220832D01*
X0288303Y0221057D01*
X0288121Y0221277D01*
X0287935Y0221493D01*
X0287743Y0221704D01*
X0287546Y0221911D01*
X0287344Y0222113D01*
X0287137Y0222310D01*
X0286926Y0222502D01*
X0286710Y0222688D01*
X0286490Y0222870D01*
X0286265Y0223046D01*
X0286036Y0223216D01*
X0285803Y0223381D01*
X0285567Y0223541D01*
X0285326Y0223694D01*
X0285082Y0223842D01*
X0284834Y0223983D01*
X0284583Y0224119D01*
X0284329Y0224249D01*
X0284071Y0224372D01*
X0283811Y0224489D01*
X0283548Y0224600D01*
X0283282Y0224704D01*
X0283014Y0224802D01*
X0282744Y0224894D01*
X0282471Y0224979D01*
X0282197Y0225057D01*
X0281921Y0225129D01*
X0281643Y0225194D01*
X0281363Y0225252D01*
X0281082Y0225303D01*
X0280801Y0225348D01*
X0280518Y0225386D01*
X0280234Y0225417D01*
X0279950Y0225441D01*
X0279665Y0225458D01*
X0279379Y0225469D01*
X0279094Y0225472D01*
X0046811Y0225472D01*
X0046526Y0225469D01*
X0046240Y0225458D01*
X0045955Y0225441D01*
X0045671Y0225417D01*
X0045387Y0225386D01*
X0045104Y0225348D01*
X0044823Y0225303D01*
X0044542Y0225252D01*
X0044262Y0225194D01*
X0043984Y0225129D01*
X0043708Y0225057D01*
X0043434Y0224979D01*
X0043161Y0224894D01*
X0042891Y0224802D01*
X0042623Y0224704D01*
X0042357Y0224600D01*
X0042094Y0224489D01*
X0041834Y0224372D01*
X0041576Y0224249D01*
X0041322Y0224119D01*
X0041071Y0223983D01*
X0040823Y0223842D01*
X0040579Y0223694D01*
X0040338Y0223541D01*
X0040102Y0223381D01*
X0039869Y0223216D01*
X0039640Y0223046D01*
X0039415Y0222870D01*
X0039195Y0222688D01*
X0038979Y0222502D01*
X0038768Y0222310D01*
X0038561Y0222113D01*
X0038359Y0221911D01*
X0038162Y0221704D01*
X0037970Y0221493D01*
X0037784Y0221277D01*
X0037602Y0221057D01*
X0037426Y0220832D01*
X0037256Y0220603D01*
X0037091Y0220370D01*
X0036931Y0220134D01*
X0036778Y0219893D01*
X0036630Y0219649D01*
X0036489Y0219401D01*
X0036353Y0219150D01*
X0036223Y0218896D01*
X0036100Y0218638D01*
X0035983Y0218378D01*
X0035872Y0218115D01*
X0035768Y0217849D01*
X0035670Y0217581D01*
X0035578Y0217311D01*
X0035493Y0217038D01*
X0035415Y0216764D01*
X0035343Y0216488D01*
X0035278Y0216210D01*
X0035220Y0215930D01*
X0035169Y0215649D01*
X0035124Y0215368D01*
X0035086Y0215085D01*
X0035055Y0214801D01*
X0035031Y0214517D01*
X0035014Y0214232D01*
X0035003Y0213946D01*
X0035000Y0213661D01*
X0035000Y0156575D01*
X0035002Y0156385D01*
X0035009Y0156195D01*
X0035021Y0156005D01*
X0035037Y0155815D01*
X0035057Y0155626D01*
X0035083Y0155437D01*
X0035112Y0155249D01*
X0035147Y0155062D01*
X0035186Y0154876D01*
X0035229Y0154691D01*
X0035277Y0154506D01*
X0035329Y0154323D01*
X0035385Y0154142D01*
X0035446Y0153962D01*
X0035512Y0153783D01*
X0035581Y0153606D01*
X0035655Y0153430D01*
X0035733Y0153257D01*
X0035816Y0153085D01*
X0035902Y0152916D01*
X0035992Y0152748D01*
X0036087Y0152583D01*
X0036185Y0152420D01*
X0036288Y0152260D01*
X0036394Y0152102D01*
X0036504Y0151947D01*
X0036617Y0151794D01*
X0036735Y0151644D01*
X0036856Y0151498D01*
X0036980Y0151354D01*
X0037108Y0151213D01*
X0037239Y0151075D01*
X0037374Y0150940D01*
X0037512Y0150809D01*
X0037653Y0150681D01*
X0037797Y0150557D01*
X0037943Y0150436D01*
X0038093Y0150318D01*
X0038246Y0150205D01*
X0038401Y0150095D01*
X0038559Y0149989D01*
X0038719Y0149886D01*
X0038882Y0149788D01*
X0039047Y0149693D01*
X0039215Y0149603D01*
X0039384Y0149517D01*
X0039556Y0149434D01*
X0039729Y0149356D01*
X0039905Y0149282D01*
X0040082Y0149213D01*
X0040261Y0149147D01*
X0040441Y0149086D01*
X0040622Y0149030D01*
X0040805Y0148978D01*
X0040990Y0148930D01*
X0041175Y0148887D01*
X0041361Y0148848D01*
X0041548Y0148813D01*
X0041736Y0148784D01*
X0041925Y0148758D01*
X0042114Y0148738D01*
X0042304Y0148722D01*
X0042494Y0148710D01*
X0042684Y0148703D01*
X0042874Y0148701D01*
X0046811Y0148701D01*
X0047001Y0148699D01*
X0047191Y0148692D01*
X0047381Y0148680D01*
X0047571Y0148664D01*
X0047760Y0148644D01*
X0047949Y0148618D01*
X0048137Y0148589D01*
X0048324Y0148554D01*
X0048510Y0148515D01*
X0048695Y0148472D01*
X0048880Y0148424D01*
X0049063Y0148372D01*
X0049244Y0148316D01*
X0049424Y0148255D01*
X0049603Y0148189D01*
X0049780Y0148120D01*
X0049956Y0148046D01*
X0050129Y0147968D01*
X0050301Y0147885D01*
X0050470Y0147799D01*
X0050638Y0147709D01*
X0050803Y0147614D01*
X0050966Y0147516D01*
X0051126Y0147413D01*
X0051284Y0147307D01*
X0051439Y0147197D01*
X0051592Y0147084D01*
X0051742Y0146966D01*
X0051888Y0146845D01*
X0052032Y0146721D01*
X0052173Y0146593D01*
X0052311Y0146462D01*
X0052446Y0146327D01*
X0052577Y0146189D01*
X0052705Y0146048D01*
X0052829Y0145904D01*
X0052950Y0145758D01*
X0053068Y0145608D01*
X0053181Y0145455D01*
X0053291Y0145300D01*
X0053397Y0145142D01*
X0053500Y0144982D01*
X0053598Y0144819D01*
X0053693Y0144654D01*
X0053783Y0144486D01*
X0053869Y0144317D01*
X0053952Y0144145D01*
X0054030Y0143972D01*
X0054104Y0143796D01*
X0054173Y0143619D01*
X0054239Y0143440D01*
X0054300Y0143260D01*
X0054356Y0143079D01*
X0054408Y0142896D01*
X0054456Y0142711D01*
X0054499Y0142526D01*
X0054538Y0142340D01*
X0054573Y0142153D01*
X0054602Y0141965D01*
X0054628Y0141776D01*
X0054648Y0141587D01*
X0054664Y0141397D01*
X0054676Y0141207D01*
X0054683Y0141017D01*
X0054685Y0140827D01*
X0054685Y0089646D01*
X0054683Y0089456D01*
X0054676Y0089266D01*
X0054664Y0089076D01*
X0054648Y0088886D01*
X0054628Y0088697D01*
X0054602Y0088508D01*
X0054573Y0088320D01*
X0054538Y0088133D01*
X0054499Y0087947D01*
X0054456Y0087762D01*
X0054408Y0087577D01*
X0054356Y0087394D01*
X0054300Y0087213D01*
X0054239Y0087033D01*
X0054173Y0086854D01*
X0054104Y0086677D01*
X0054030Y0086501D01*
X0053952Y0086328D01*
X0053869Y0086156D01*
X0053783Y0085987D01*
X0053693Y0085819D01*
X0053598Y0085654D01*
X0053500Y0085491D01*
X0053397Y0085331D01*
X0053291Y0085173D01*
X0053181Y0085018D01*
X0053068Y0084865D01*
X0052950Y0084715D01*
X0052829Y0084569D01*
X0052705Y0084425D01*
X0052577Y0084284D01*
X0052446Y0084146D01*
X0052311Y0084011D01*
X0052173Y0083880D01*
X0052032Y0083752D01*
X0051888Y0083628D01*
X0051742Y0083507D01*
X0051592Y0083389D01*
X0051439Y0083276D01*
X0051284Y0083166D01*
X0051126Y0083060D01*
X0050966Y0082957D01*
X0050803Y0082859D01*
X0050638Y0082764D01*
X0050470Y0082674D01*
X0050301Y0082588D01*
X0050129Y0082505D01*
X0049956Y0082427D01*
X0049780Y0082353D01*
X0049603Y0082284D01*
X0049424Y0082218D01*
X0049244Y0082157D01*
X0049063Y0082101D01*
X0048880Y0082049D01*
X0048695Y0082001D01*
X0048510Y0081958D01*
X0048324Y0081919D01*
X0048137Y0081884D01*
X0047949Y0081855D01*
X0047760Y0081829D01*
X0047571Y0081809D01*
X0047381Y0081793D01*
X0047191Y0081781D01*
X0047001Y0081774D01*
X0046811Y0081772D01*
X0042874Y0081772D01*
X0042684Y0081770D01*
X0042494Y0081763D01*
X0042304Y0081751D01*
X0042114Y0081735D01*
X0041925Y0081715D01*
X0041736Y0081689D01*
X0041548Y0081660D01*
X0041361Y0081625D01*
X0041175Y0081586D01*
X0040990Y0081543D01*
X0040805Y0081495D01*
X0040622Y0081443D01*
X0040441Y0081387D01*
X0040261Y0081326D01*
X0040082Y0081260D01*
X0039905Y0081191D01*
X0039729Y0081117D01*
X0039556Y0081039D01*
X0039384Y0080956D01*
X0039215Y0080870D01*
X0039047Y0080780D01*
X0038882Y0080685D01*
X0038719Y0080587D01*
X0038559Y0080484D01*
X0038401Y0080378D01*
X0038246Y0080268D01*
X0038093Y0080155D01*
X0037943Y0080037D01*
X0037797Y0079916D01*
X0037653Y0079792D01*
X0037512Y0079664D01*
X0037374Y0079533D01*
X0037239Y0079398D01*
X0037108Y0079260D01*
X0036980Y0079119D01*
X0036856Y0078975D01*
X0036735Y0078829D01*
X0036617Y0078679D01*
X0036504Y0078526D01*
X0036394Y0078371D01*
X0036288Y0078213D01*
X0036185Y0078053D01*
X0036087Y0077890D01*
X0035992Y0077725D01*
X0035902Y0077557D01*
X0035816Y0077388D01*
X0035733Y0077216D01*
X0035655Y0077043D01*
X0035581Y0076867D01*
X0035512Y0076690D01*
X0035446Y0076511D01*
X0035385Y0076331D01*
X0035329Y0076150D01*
X0035277Y0075967D01*
X0035229Y0075782D01*
X0035186Y0075597D01*
X0035147Y0075411D01*
X0035112Y0075224D01*
X0035083Y0075036D01*
X0035057Y0074847D01*
X0035037Y0074658D01*
X0035021Y0074468D01*
X0035009Y0074278D01*
X0035002Y0074088D01*
X0035000Y0073898D01*
X0043367Y0018780D02*
X0043369Y0018927D01*
X0043375Y0019073D01*
X0043385Y0019219D01*
X0043399Y0019365D01*
X0043417Y0019511D01*
X0043438Y0019656D01*
X0043464Y0019800D01*
X0043494Y0019944D01*
X0043527Y0020086D01*
X0043564Y0020228D01*
X0043605Y0020369D01*
X0043650Y0020508D01*
X0043699Y0020647D01*
X0043751Y0020784D01*
X0043808Y0020919D01*
X0043867Y0021053D01*
X0043931Y0021185D01*
X0043998Y0021315D01*
X0044068Y0021444D01*
X0044142Y0021571D01*
X0044219Y0021695D01*
X0044300Y0021818D01*
X0044384Y0021938D01*
X0044471Y0022056D01*
X0044561Y0022171D01*
X0044654Y0022284D01*
X0044751Y0022395D01*
X0044850Y0022503D01*
X0044952Y0022608D01*
X0045057Y0022710D01*
X0045165Y0022809D01*
X0045276Y0022906D01*
X0045389Y0022999D01*
X0045504Y0023089D01*
X0045622Y0023176D01*
X0045742Y0023260D01*
X0045865Y0023341D01*
X0045989Y0023418D01*
X0046116Y0023492D01*
X0046245Y0023562D01*
X0046375Y0023629D01*
X0046507Y0023693D01*
X0046641Y0023752D01*
X0046776Y0023809D01*
X0046913Y0023861D01*
X0047052Y0023910D01*
X0047191Y0023955D01*
X0047332Y0023996D01*
X0047474Y0024033D01*
X0047616Y0024066D01*
X0047760Y0024096D01*
X0047904Y0024122D01*
X0048049Y0024143D01*
X0048195Y0024161D01*
X0048341Y0024175D01*
X0048487Y0024185D01*
X0048633Y0024191D01*
X0048780Y0024193D01*
X0048927Y0024191D01*
X0049073Y0024185D01*
X0049219Y0024175D01*
X0049365Y0024161D01*
X0049511Y0024143D01*
X0049656Y0024122D01*
X0049800Y0024096D01*
X0049944Y0024066D01*
X0050086Y0024033D01*
X0050228Y0023996D01*
X0050369Y0023955D01*
X0050508Y0023910D01*
X0050647Y0023861D01*
X0050784Y0023809D01*
X0050919Y0023752D01*
X0051053Y0023693D01*
X0051185Y0023629D01*
X0051315Y0023562D01*
X0051444Y0023492D01*
X0051571Y0023418D01*
X0051695Y0023341D01*
X0051818Y0023260D01*
X0051938Y0023176D01*
X0052056Y0023089D01*
X0052171Y0022999D01*
X0052284Y0022906D01*
X0052395Y0022809D01*
X0052503Y0022710D01*
X0052608Y0022608D01*
X0052710Y0022503D01*
X0052809Y0022395D01*
X0052906Y0022284D01*
X0052999Y0022171D01*
X0053089Y0022056D01*
X0053176Y0021938D01*
X0053260Y0021818D01*
X0053341Y0021695D01*
X0053418Y0021571D01*
X0053492Y0021444D01*
X0053562Y0021315D01*
X0053629Y0021185D01*
X0053693Y0021053D01*
X0053752Y0020919D01*
X0053809Y0020784D01*
X0053861Y0020647D01*
X0053910Y0020508D01*
X0053955Y0020369D01*
X0053996Y0020228D01*
X0054033Y0020086D01*
X0054066Y0019944D01*
X0054096Y0019800D01*
X0054122Y0019656D01*
X0054143Y0019511D01*
X0054161Y0019365D01*
X0054175Y0019219D01*
X0054185Y0019073D01*
X0054191Y0018927D01*
X0054193Y0018780D01*
X0054191Y0018633D01*
X0054185Y0018487D01*
X0054175Y0018341D01*
X0054161Y0018195D01*
X0054143Y0018049D01*
X0054122Y0017904D01*
X0054096Y0017760D01*
X0054066Y0017616D01*
X0054033Y0017474D01*
X0053996Y0017332D01*
X0053955Y0017191D01*
X0053910Y0017052D01*
X0053861Y0016913D01*
X0053809Y0016776D01*
X0053752Y0016641D01*
X0053693Y0016507D01*
X0053629Y0016375D01*
X0053562Y0016245D01*
X0053492Y0016116D01*
X0053418Y0015989D01*
X0053341Y0015865D01*
X0053260Y0015742D01*
X0053176Y0015622D01*
X0053089Y0015504D01*
X0052999Y0015389D01*
X0052906Y0015276D01*
X0052809Y0015165D01*
X0052710Y0015057D01*
X0052608Y0014952D01*
X0052503Y0014850D01*
X0052395Y0014751D01*
X0052284Y0014654D01*
X0052171Y0014561D01*
X0052056Y0014471D01*
X0051938Y0014384D01*
X0051818Y0014300D01*
X0051695Y0014219D01*
X0051571Y0014142D01*
X0051444Y0014068D01*
X0051315Y0013998D01*
X0051185Y0013931D01*
X0051053Y0013867D01*
X0050919Y0013808D01*
X0050784Y0013751D01*
X0050647Y0013699D01*
X0050508Y0013650D01*
X0050369Y0013605D01*
X0050228Y0013564D01*
X0050086Y0013527D01*
X0049944Y0013494D01*
X0049800Y0013464D01*
X0049656Y0013438D01*
X0049511Y0013417D01*
X0049365Y0013399D01*
X0049219Y0013385D01*
X0049073Y0013375D01*
X0048927Y0013369D01*
X0048780Y0013367D01*
X0048633Y0013369D01*
X0048487Y0013375D01*
X0048341Y0013385D01*
X0048195Y0013399D01*
X0048049Y0013417D01*
X0047904Y0013438D01*
X0047760Y0013464D01*
X0047616Y0013494D01*
X0047474Y0013527D01*
X0047332Y0013564D01*
X0047191Y0013605D01*
X0047052Y0013650D01*
X0046913Y0013699D01*
X0046776Y0013751D01*
X0046641Y0013808D01*
X0046507Y0013867D01*
X0046375Y0013931D01*
X0046245Y0013998D01*
X0046116Y0014068D01*
X0045989Y0014142D01*
X0045865Y0014219D01*
X0045742Y0014300D01*
X0045622Y0014384D01*
X0045504Y0014471D01*
X0045389Y0014561D01*
X0045276Y0014654D01*
X0045165Y0014751D01*
X0045057Y0014850D01*
X0044952Y0014952D01*
X0044850Y0015057D01*
X0044751Y0015165D01*
X0044654Y0015276D01*
X0044561Y0015389D01*
X0044471Y0015504D01*
X0044384Y0015622D01*
X0044300Y0015742D01*
X0044219Y0015865D01*
X0044142Y0015989D01*
X0044068Y0016116D01*
X0043998Y0016245D01*
X0043931Y0016375D01*
X0043867Y0016507D01*
X0043808Y0016641D01*
X0043751Y0016776D01*
X0043699Y0016913D01*
X0043650Y0017052D01*
X0043605Y0017191D01*
X0043564Y0017332D01*
X0043527Y0017474D01*
X0043494Y0017616D01*
X0043464Y0017760D01*
X0043438Y0017904D01*
X0043417Y0018049D01*
X0043399Y0018195D01*
X0043385Y0018341D01*
X0043375Y0018487D01*
X0043369Y0018633D01*
X0043367Y0018780D01*
X0271713Y0018780D02*
X0271715Y0018927D01*
X0271721Y0019073D01*
X0271731Y0019219D01*
X0271745Y0019365D01*
X0271763Y0019511D01*
X0271784Y0019656D01*
X0271810Y0019800D01*
X0271840Y0019944D01*
X0271873Y0020086D01*
X0271910Y0020228D01*
X0271951Y0020369D01*
X0271996Y0020508D01*
X0272045Y0020647D01*
X0272097Y0020784D01*
X0272154Y0020919D01*
X0272213Y0021053D01*
X0272277Y0021185D01*
X0272344Y0021315D01*
X0272414Y0021444D01*
X0272488Y0021571D01*
X0272565Y0021695D01*
X0272646Y0021818D01*
X0272730Y0021938D01*
X0272817Y0022056D01*
X0272907Y0022171D01*
X0273000Y0022284D01*
X0273097Y0022395D01*
X0273196Y0022503D01*
X0273298Y0022608D01*
X0273403Y0022710D01*
X0273511Y0022809D01*
X0273622Y0022906D01*
X0273735Y0022999D01*
X0273850Y0023089D01*
X0273968Y0023176D01*
X0274088Y0023260D01*
X0274211Y0023341D01*
X0274335Y0023418D01*
X0274462Y0023492D01*
X0274591Y0023562D01*
X0274721Y0023629D01*
X0274853Y0023693D01*
X0274987Y0023752D01*
X0275122Y0023809D01*
X0275259Y0023861D01*
X0275398Y0023910D01*
X0275537Y0023955D01*
X0275678Y0023996D01*
X0275820Y0024033D01*
X0275962Y0024066D01*
X0276106Y0024096D01*
X0276250Y0024122D01*
X0276395Y0024143D01*
X0276541Y0024161D01*
X0276687Y0024175D01*
X0276833Y0024185D01*
X0276979Y0024191D01*
X0277126Y0024193D01*
X0277273Y0024191D01*
X0277419Y0024185D01*
X0277565Y0024175D01*
X0277711Y0024161D01*
X0277857Y0024143D01*
X0278002Y0024122D01*
X0278146Y0024096D01*
X0278290Y0024066D01*
X0278432Y0024033D01*
X0278574Y0023996D01*
X0278715Y0023955D01*
X0278854Y0023910D01*
X0278993Y0023861D01*
X0279130Y0023809D01*
X0279265Y0023752D01*
X0279399Y0023693D01*
X0279531Y0023629D01*
X0279661Y0023562D01*
X0279790Y0023492D01*
X0279917Y0023418D01*
X0280041Y0023341D01*
X0280164Y0023260D01*
X0280284Y0023176D01*
X0280402Y0023089D01*
X0280517Y0022999D01*
X0280630Y0022906D01*
X0280741Y0022809D01*
X0280849Y0022710D01*
X0280954Y0022608D01*
X0281056Y0022503D01*
X0281155Y0022395D01*
X0281252Y0022284D01*
X0281345Y0022171D01*
X0281435Y0022056D01*
X0281522Y0021938D01*
X0281606Y0021818D01*
X0281687Y0021695D01*
X0281764Y0021571D01*
X0281838Y0021444D01*
X0281908Y0021315D01*
X0281975Y0021185D01*
X0282039Y0021053D01*
X0282098Y0020919D01*
X0282155Y0020784D01*
X0282207Y0020647D01*
X0282256Y0020508D01*
X0282301Y0020369D01*
X0282342Y0020228D01*
X0282379Y0020086D01*
X0282412Y0019944D01*
X0282442Y0019800D01*
X0282468Y0019656D01*
X0282489Y0019511D01*
X0282507Y0019365D01*
X0282521Y0019219D01*
X0282531Y0019073D01*
X0282537Y0018927D01*
X0282539Y0018780D01*
X0282537Y0018633D01*
X0282531Y0018487D01*
X0282521Y0018341D01*
X0282507Y0018195D01*
X0282489Y0018049D01*
X0282468Y0017904D01*
X0282442Y0017760D01*
X0282412Y0017616D01*
X0282379Y0017474D01*
X0282342Y0017332D01*
X0282301Y0017191D01*
X0282256Y0017052D01*
X0282207Y0016913D01*
X0282155Y0016776D01*
X0282098Y0016641D01*
X0282039Y0016507D01*
X0281975Y0016375D01*
X0281908Y0016245D01*
X0281838Y0016116D01*
X0281764Y0015989D01*
X0281687Y0015865D01*
X0281606Y0015742D01*
X0281522Y0015622D01*
X0281435Y0015504D01*
X0281345Y0015389D01*
X0281252Y0015276D01*
X0281155Y0015165D01*
X0281056Y0015057D01*
X0280954Y0014952D01*
X0280849Y0014850D01*
X0280741Y0014751D01*
X0280630Y0014654D01*
X0280517Y0014561D01*
X0280402Y0014471D01*
X0280284Y0014384D01*
X0280164Y0014300D01*
X0280041Y0014219D01*
X0279917Y0014142D01*
X0279790Y0014068D01*
X0279661Y0013998D01*
X0279531Y0013931D01*
X0279399Y0013867D01*
X0279265Y0013808D01*
X0279130Y0013751D01*
X0278993Y0013699D01*
X0278854Y0013650D01*
X0278715Y0013605D01*
X0278574Y0013564D01*
X0278432Y0013527D01*
X0278290Y0013494D01*
X0278146Y0013464D01*
X0278002Y0013438D01*
X0277857Y0013417D01*
X0277711Y0013399D01*
X0277565Y0013385D01*
X0277419Y0013375D01*
X0277273Y0013369D01*
X0277126Y0013367D01*
X0276979Y0013369D01*
X0276833Y0013375D01*
X0276687Y0013385D01*
X0276541Y0013399D01*
X0276395Y0013417D01*
X0276250Y0013438D01*
X0276106Y0013464D01*
X0275962Y0013494D01*
X0275820Y0013527D01*
X0275678Y0013564D01*
X0275537Y0013605D01*
X0275398Y0013650D01*
X0275259Y0013699D01*
X0275122Y0013751D01*
X0274987Y0013808D01*
X0274853Y0013867D01*
X0274721Y0013931D01*
X0274591Y0013998D01*
X0274462Y0014068D01*
X0274335Y0014142D01*
X0274211Y0014219D01*
X0274088Y0014300D01*
X0273968Y0014384D01*
X0273850Y0014471D01*
X0273735Y0014561D01*
X0273622Y0014654D01*
X0273511Y0014751D01*
X0273403Y0014850D01*
X0273298Y0014952D01*
X0273196Y0015057D01*
X0273097Y0015165D01*
X0273000Y0015276D01*
X0272907Y0015389D01*
X0272817Y0015504D01*
X0272730Y0015622D01*
X0272646Y0015742D01*
X0272565Y0015865D01*
X0272488Y0015989D01*
X0272414Y0016116D01*
X0272344Y0016245D01*
X0272277Y0016375D01*
X0272213Y0016507D01*
X0272154Y0016641D01*
X0272097Y0016776D01*
X0272045Y0016913D01*
X0271996Y0017052D01*
X0271951Y0017191D01*
X0271910Y0017332D01*
X0271873Y0017474D01*
X0271840Y0017616D01*
X0271810Y0017760D01*
X0271784Y0017904D01*
X0271763Y0018049D01*
X0271745Y0018195D01*
X0271731Y0018341D01*
X0271721Y0018487D01*
X0271715Y0018633D01*
X0271713Y0018780D01*
X0271713Y0211693D02*
X0271715Y0211840D01*
X0271721Y0211986D01*
X0271731Y0212132D01*
X0271745Y0212278D01*
X0271763Y0212424D01*
X0271784Y0212569D01*
X0271810Y0212713D01*
X0271840Y0212857D01*
X0271873Y0212999D01*
X0271910Y0213141D01*
X0271951Y0213282D01*
X0271996Y0213421D01*
X0272045Y0213560D01*
X0272097Y0213697D01*
X0272154Y0213832D01*
X0272213Y0213966D01*
X0272277Y0214098D01*
X0272344Y0214228D01*
X0272414Y0214357D01*
X0272488Y0214484D01*
X0272565Y0214608D01*
X0272646Y0214731D01*
X0272730Y0214851D01*
X0272817Y0214969D01*
X0272907Y0215084D01*
X0273000Y0215197D01*
X0273097Y0215308D01*
X0273196Y0215416D01*
X0273298Y0215521D01*
X0273403Y0215623D01*
X0273511Y0215722D01*
X0273622Y0215819D01*
X0273735Y0215912D01*
X0273850Y0216002D01*
X0273968Y0216089D01*
X0274088Y0216173D01*
X0274211Y0216254D01*
X0274335Y0216331D01*
X0274462Y0216405D01*
X0274591Y0216475D01*
X0274721Y0216542D01*
X0274853Y0216606D01*
X0274987Y0216665D01*
X0275122Y0216722D01*
X0275259Y0216774D01*
X0275398Y0216823D01*
X0275537Y0216868D01*
X0275678Y0216909D01*
X0275820Y0216946D01*
X0275962Y0216979D01*
X0276106Y0217009D01*
X0276250Y0217035D01*
X0276395Y0217056D01*
X0276541Y0217074D01*
X0276687Y0217088D01*
X0276833Y0217098D01*
X0276979Y0217104D01*
X0277126Y0217106D01*
X0277273Y0217104D01*
X0277419Y0217098D01*
X0277565Y0217088D01*
X0277711Y0217074D01*
X0277857Y0217056D01*
X0278002Y0217035D01*
X0278146Y0217009D01*
X0278290Y0216979D01*
X0278432Y0216946D01*
X0278574Y0216909D01*
X0278715Y0216868D01*
X0278854Y0216823D01*
X0278993Y0216774D01*
X0279130Y0216722D01*
X0279265Y0216665D01*
X0279399Y0216606D01*
X0279531Y0216542D01*
X0279661Y0216475D01*
X0279790Y0216405D01*
X0279917Y0216331D01*
X0280041Y0216254D01*
X0280164Y0216173D01*
X0280284Y0216089D01*
X0280402Y0216002D01*
X0280517Y0215912D01*
X0280630Y0215819D01*
X0280741Y0215722D01*
X0280849Y0215623D01*
X0280954Y0215521D01*
X0281056Y0215416D01*
X0281155Y0215308D01*
X0281252Y0215197D01*
X0281345Y0215084D01*
X0281435Y0214969D01*
X0281522Y0214851D01*
X0281606Y0214731D01*
X0281687Y0214608D01*
X0281764Y0214484D01*
X0281838Y0214357D01*
X0281908Y0214228D01*
X0281975Y0214098D01*
X0282039Y0213966D01*
X0282098Y0213832D01*
X0282155Y0213697D01*
X0282207Y0213560D01*
X0282256Y0213421D01*
X0282301Y0213282D01*
X0282342Y0213141D01*
X0282379Y0212999D01*
X0282412Y0212857D01*
X0282442Y0212713D01*
X0282468Y0212569D01*
X0282489Y0212424D01*
X0282507Y0212278D01*
X0282521Y0212132D01*
X0282531Y0211986D01*
X0282537Y0211840D01*
X0282539Y0211693D01*
X0282537Y0211546D01*
X0282531Y0211400D01*
X0282521Y0211254D01*
X0282507Y0211108D01*
X0282489Y0210962D01*
X0282468Y0210817D01*
X0282442Y0210673D01*
X0282412Y0210529D01*
X0282379Y0210387D01*
X0282342Y0210245D01*
X0282301Y0210104D01*
X0282256Y0209965D01*
X0282207Y0209826D01*
X0282155Y0209689D01*
X0282098Y0209554D01*
X0282039Y0209420D01*
X0281975Y0209288D01*
X0281908Y0209158D01*
X0281838Y0209029D01*
X0281764Y0208902D01*
X0281687Y0208778D01*
X0281606Y0208655D01*
X0281522Y0208535D01*
X0281435Y0208417D01*
X0281345Y0208302D01*
X0281252Y0208189D01*
X0281155Y0208078D01*
X0281056Y0207970D01*
X0280954Y0207865D01*
X0280849Y0207763D01*
X0280741Y0207664D01*
X0280630Y0207567D01*
X0280517Y0207474D01*
X0280402Y0207384D01*
X0280284Y0207297D01*
X0280164Y0207213D01*
X0280041Y0207132D01*
X0279917Y0207055D01*
X0279790Y0206981D01*
X0279661Y0206911D01*
X0279531Y0206844D01*
X0279399Y0206780D01*
X0279265Y0206721D01*
X0279130Y0206664D01*
X0278993Y0206612D01*
X0278854Y0206563D01*
X0278715Y0206518D01*
X0278574Y0206477D01*
X0278432Y0206440D01*
X0278290Y0206407D01*
X0278146Y0206377D01*
X0278002Y0206351D01*
X0277857Y0206330D01*
X0277711Y0206312D01*
X0277565Y0206298D01*
X0277419Y0206288D01*
X0277273Y0206282D01*
X0277126Y0206280D01*
X0276979Y0206282D01*
X0276833Y0206288D01*
X0276687Y0206298D01*
X0276541Y0206312D01*
X0276395Y0206330D01*
X0276250Y0206351D01*
X0276106Y0206377D01*
X0275962Y0206407D01*
X0275820Y0206440D01*
X0275678Y0206477D01*
X0275537Y0206518D01*
X0275398Y0206563D01*
X0275259Y0206612D01*
X0275122Y0206664D01*
X0274987Y0206721D01*
X0274853Y0206780D01*
X0274721Y0206844D01*
X0274591Y0206911D01*
X0274462Y0206981D01*
X0274335Y0207055D01*
X0274211Y0207132D01*
X0274088Y0207213D01*
X0273968Y0207297D01*
X0273850Y0207384D01*
X0273735Y0207474D01*
X0273622Y0207567D01*
X0273511Y0207664D01*
X0273403Y0207763D01*
X0273298Y0207865D01*
X0273196Y0207970D01*
X0273097Y0208078D01*
X0273000Y0208189D01*
X0272907Y0208302D01*
X0272817Y0208417D01*
X0272730Y0208535D01*
X0272646Y0208655D01*
X0272565Y0208778D01*
X0272488Y0208902D01*
X0272414Y0209029D01*
X0272344Y0209158D01*
X0272277Y0209288D01*
X0272213Y0209420D01*
X0272154Y0209554D01*
X0272097Y0209689D01*
X0272045Y0209826D01*
X0271996Y0209965D01*
X0271951Y0210104D01*
X0271910Y0210245D01*
X0271873Y0210387D01*
X0271840Y0210529D01*
X0271810Y0210673D01*
X0271784Y0210817D01*
X0271763Y0210962D01*
X0271745Y0211108D01*
X0271731Y0211254D01*
X0271721Y0211400D01*
X0271715Y0211546D01*
X0271713Y0211693D01*
X0043367Y0211693D02*
X0043369Y0211840D01*
X0043375Y0211986D01*
X0043385Y0212132D01*
X0043399Y0212278D01*
X0043417Y0212424D01*
X0043438Y0212569D01*
X0043464Y0212713D01*
X0043494Y0212857D01*
X0043527Y0212999D01*
X0043564Y0213141D01*
X0043605Y0213282D01*
X0043650Y0213421D01*
X0043699Y0213560D01*
X0043751Y0213697D01*
X0043808Y0213832D01*
X0043867Y0213966D01*
X0043931Y0214098D01*
X0043998Y0214228D01*
X0044068Y0214357D01*
X0044142Y0214484D01*
X0044219Y0214608D01*
X0044300Y0214731D01*
X0044384Y0214851D01*
X0044471Y0214969D01*
X0044561Y0215084D01*
X0044654Y0215197D01*
X0044751Y0215308D01*
X0044850Y0215416D01*
X0044952Y0215521D01*
X0045057Y0215623D01*
X0045165Y0215722D01*
X0045276Y0215819D01*
X0045389Y0215912D01*
X0045504Y0216002D01*
X0045622Y0216089D01*
X0045742Y0216173D01*
X0045865Y0216254D01*
X0045989Y0216331D01*
X0046116Y0216405D01*
X0046245Y0216475D01*
X0046375Y0216542D01*
X0046507Y0216606D01*
X0046641Y0216665D01*
X0046776Y0216722D01*
X0046913Y0216774D01*
X0047052Y0216823D01*
X0047191Y0216868D01*
X0047332Y0216909D01*
X0047474Y0216946D01*
X0047616Y0216979D01*
X0047760Y0217009D01*
X0047904Y0217035D01*
X0048049Y0217056D01*
X0048195Y0217074D01*
X0048341Y0217088D01*
X0048487Y0217098D01*
X0048633Y0217104D01*
X0048780Y0217106D01*
X0048927Y0217104D01*
X0049073Y0217098D01*
X0049219Y0217088D01*
X0049365Y0217074D01*
X0049511Y0217056D01*
X0049656Y0217035D01*
X0049800Y0217009D01*
X0049944Y0216979D01*
X0050086Y0216946D01*
X0050228Y0216909D01*
X0050369Y0216868D01*
X0050508Y0216823D01*
X0050647Y0216774D01*
X0050784Y0216722D01*
X0050919Y0216665D01*
X0051053Y0216606D01*
X0051185Y0216542D01*
X0051315Y0216475D01*
X0051444Y0216405D01*
X0051571Y0216331D01*
X0051695Y0216254D01*
X0051818Y0216173D01*
X0051938Y0216089D01*
X0052056Y0216002D01*
X0052171Y0215912D01*
X0052284Y0215819D01*
X0052395Y0215722D01*
X0052503Y0215623D01*
X0052608Y0215521D01*
X0052710Y0215416D01*
X0052809Y0215308D01*
X0052906Y0215197D01*
X0052999Y0215084D01*
X0053089Y0214969D01*
X0053176Y0214851D01*
X0053260Y0214731D01*
X0053341Y0214608D01*
X0053418Y0214484D01*
X0053492Y0214357D01*
X0053562Y0214228D01*
X0053629Y0214098D01*
X0053693Y0213966D01*
X0053752Y0213832D01*
X0053809Y0213697D01*
X0053861Y0213560D01*
X0053910Y0213421D01*
X0053955Y0213282D01*
X0053996Y0213141D01*
X0054033Y0212999D01*
X0054066Y0212857D01*
X0054096Y0212713D01*
X0054122Y0212569D01*
X0054143Y0212424D01*
X0054161Y0212278D01*
X0054175Y0212132D01*
X0054185Y0211986D01*
X0054191Y0211840D01*
X0054193Y0211693D01*
X0054191Y0211546D01*
X0054185Y0211400D01*
X0054175Y0211254D01*
X0054161Y0211108D01*
X0054143Y0210962D01*
X0054122Y0210817D01*
X0054096Y0210673D01*
X0054066Y0210529D01*
X0054033Y0210387D01*
X0053996Y0210245D01*
X0053955Y0210104D01*
X0053910Y0209965D01*
X0053861Y0209826D01*
X0053809Y0209689D01*
X0053752Y0209554D01*
X0053693Y0209420D01*
X0053629Y0209288D01*
X0053562Y0209158D01*
X0053492Y0209029D01*
X0053418Y0208902D01*
X0053341Y0208778D01*
X0053260Y0208655D01*
X0053176Y0208535D01*
X0053089Y0208417D01*
X0052999Y0208302D01*
X0052906Y0208189D01*
X0052809Y0208078D01*
X0052710Y0207970D01*
X0052608Y0207865D01*
X0052503Y0207763D01*
X0052395Y0207664D01*
X0052284Y0207567D01*
X0052171Y0207474D01*
X0052056Y0207384D01*
X0051938Y0207297D01*
X0051818Y0207213D01*
X0051695Y0207132D01*
X0051571Y0207055D01*
X0051444Y0206981D01*
X0051315Y0206911D01*
X0051185Y0206844D01*
X0051053Y0206780D01*
X0050919Y0206721D01*
X0050784Y0206664D01*
X0050647Y0206612D01*
X0050508Y0206563D01*
X0050369Y0206518D01*
X0050228Y0206477D01*
X0050086Y0206440D01*
X0049944Y0206407D01*
X0049800Y0206377D01*
X0049656Y0206351D01*
X0049511Y0206330D01*
X0049365Y0206312D01*
X0049219Y0206298D01*
X0049073Y0206288D01*
X0048927Y0206282D01*
X0048780Y0206280D01*
X0048633Y0206282D01*
X0048487Y0206288D01*
X0048341Y0206298D01*
X0048195Y0206312D01*
X0048049Y0206330D01*
X0047904Y0206351D01*
X0047760Y0206377D01*
X0047616Y0206407D01*
X0047474Y0206440D01*
X0047332Y0206477D01*
X0047191Y0206518D01*
X0047052Y0206563D01*
X0046913Y0206612D01*
X0046776Y0206664D01*
X0046641Y0206721D01*
X0046507Y0206780D01*
X0046375Y0206844D01*
X0046245Y0206911D01*
X0046116Y0206981D01*
X0045989Y0207055D01*
X0045865Y0207132D01*
X0045742Y0207213D01*
X0045622Y0207297D01*
X0045504Y0207384D01*
X0045389Y0207474D01*
X0045276Y0207567D01*
X0045165Y0207664D01*
X0045057Y0207763D01*
X0044952Y0207865D01*
X0044850Y0207970D01*
X0044751Y0208078D01*
X0044654Y0208189D01*
X0044561Y0208302D01*
X0044471Y0208417D01*
X0044384Y0208535D01*
X0044300Y0208655D01*
X0044219Y0208778D01*
X0044142Y0208902D01*
X0044068Y0209029D01*
X0043998Y0209158D01*
X0043931Y0209288D01*
X0043867Y0209420D01*
X0043808Y0209554D01*
X0043751Y0209689D01*
X0043699Y0209826D01*
X0043650Y0209965D01*
X0043605Y0210104D01*
X0043564Y0210245D01*
X0043527Y0210387D01*
X0043494Y0210529D01*
X0043464Y0210673D01*
X0043438Y0210817D01*
X0043417Y0210962D01*
X0043399Y0211108D01*
X0043385Y0211254D01*
X0043375Y0211400D01*
X0043369Y0211546D01*
X0043367Y0211693D01*
D12*
X0067953Y0206693D03*
D13*
X0077953Y0206693D03*
X0087953Y0206693D03*
X0097953Y0206693D03*
X0107953Y0206693D03*
X0117953Y0206693D03*
X0127953Y0206693D03*
X0137953Y0206693D03*
X0147953Y0206693D03*
X0157953Y0206693D03*
X0167953Y0206693D03*
X0177953Y0206693D03*
X0187953Y0206693D03*
X0197953Y0206693D03*
X0207953Y0206693D03*
X0217953Y0206693D03*
X0227953Y0206693D03*
X0237953Y0206693D03*
X0247953Y0206693D03*
X0257953Y0206693D03*
X0257953Y0216693D03*
X0247953Y0216693D03*
X0237953Y0216693D03*
X0227953Y0216693D03*
X0217953Y0216693D03*
X0207953Y0216693D03*
X0197953Y0216693D03*
X0187953Y0216693D03*
X0177953Y0216693D03*
X0167953Y0216693D03*
X0157953Y0216693D03*
X0147953Y0216693D03*
X0137953Y0216693D03*
X0127953Y0216693D03*
X0117953Y0216693D03*
X0107953Y0216693D03*
X0097953Y0216693D03*
X0087953Y0216693D03*
X0077953Y0216693D03*
X0067953Y0216693D03*
D14*
X0048780Y0211693D03*
X0277126Y0211693D03*
X0277126Y0018780D03*
X0048780Y0018780D03*
D15*
X0047000Y0042000D02*
X0053000Y0042000D01*
X0053000Y0052000D02*
X0047000Y0052000D01*
X0047000Y0062000D02*
X0053000Y0062000D01*
X0053000Y0072000D02*
X0047000Y0072000D01*
X0067000Y0072000D02*
X0073000Y0072000D01*
X0073000Y0062000D02*
X0067000Y0062000D01*
X0067000Y0052000D02*
X0073000Y0052000D01*
X0073000Y0042000D02*
X0067000Y0042000D01*
X0087000Y0042000D02*
X0093000Y0042000D01*
X0093000Y0052000D02*
X0087000Y0052000D01*
X0087000Y0062000D02*
X0093000Y0062000D01*
X0093000Y0072000D02*
X0087000Y0072000D01*
X0107000Y0072000D02*
X0113000Y0072000D01*
X0113000Y0062000D02*
X0107000Y0062000D01*
X0107000Y0052000D02*
X0113000Y0052000D01*
X0113000Y0042000D02*
X0107000Y0042000D01*
X0127000Y0042000D02*
X0133000Y0042000D01*
X0133000Y0052000D02*
X0127000Y0052000D01*
X0127000Y0062000D02*
X0133000Y0062000D01*
X0133000Y0072000D02*
X0127000Y0072000D01*
X0147000Y0072000D02*
X0153000Y0072000D01*
X0153000Y0062000D02*
X0147000Y0062000D01*
X0147000Y0052000D02*
X0153000Y0052000D01*
X0153000Y0042000D02*
X0147000Y0042000D01*
X0167000Y0042000D02*
X0173000Y0042000D01*
X0173000Y0052000D02*
X0167000Y0052000D01*
X0167000Y0062000D02*
X0173000Y0062000D01*
X0173000Y0072000D02*
X0167000Y0072000D01*
X0187000Y0072000D02*
X0193000Y0072000D01*
X0193000Y0062000D02*
X0187000Y0062000D01*
X0187000Y0052000D02*
X0193000Y0052000D01*
X0193000Y0042000D02*
X0187000Y0042000D01*
X0207000Y0042000D02*
X0213000Y0042000D01*
X0213000Y0052000D02*
X0207000Y0052000D01*
X0207000Y0062000D02*
X0213000Y0062000D01*
X0213000Y0072000D02*
X0207000Y0072000D01*
X0227000Y0072000D02*
X0233000Y0072000D01*
X0233000Y0062000D02*
X0227000Y0062000D01*
X0227000Y0052000D02*
X0233000Y0052000D01*
X0233000Y0042000D02*
X0227000Y0042000D01*
X0058000Y0160000D02*
X0052000Y0160000D01*
X0052000Y0170000D02*
X0058000Y0170000D01*
M02*
