G75*
%MOIN*%
%OFA0B0*%
%FSLAX24Y24*%
%IPPOS*%
%LPD*%
%AMOC8*
5,1,8,0,0,1.08239X$1,22.5*
%
%ADD10R,0.0610X0.0512*%
%ADD11R,0.0787X0.0433*%
%ADD12R,0.0630X0.0710*%
%ADD13R,0.0591X0.0394*%
%ADD14R,0.1063X0.1004*%
%ADD15R,0.1200X0.0900*%
D10*
X002278Y002754D03*
X002278Y004526D03*
X005408Y004526D03*
X006378Y004526D03*
X006378Y002754D03*
X005408Y002754D03*
X009508Y002754D03*
X010478Y002754D03*
X010478Y004526D03*
X009508Y004526D03*
X013608Y004526D03*
X014578Y004526D03*
X014578Y002754D03*
X013608Y002754D03*
X017708Y002754D03*
X018678Y002754D03*
X018678Y004526D03*
X017708Y004526D03*
X021808Y004526D03*
X022778Y004526D03*
X022778Y002754D03*
X021808Y002754D03*
X025908Y002754D03*
X026878Y002754D03*
X026878Y004526D03*
X025908Y004526D03*
X030008Y004526D03*
X030978Y004526D03*
X034108Y004526D03*
X034108Y002754D03*
X030978Y002754D03*
X030008Y002754D03*
D11*
X032098Y005671D03*
X032098Y006340D03*
X032098Y007009D03*
X033988Y007009D03*
X033988Y006340D03*
X033988Y005671D03*
D12*
X033703Y014840D03*
X032583Y014840D03*
X032683Y016540D03*
X033803Y016540D03*
D13*
X031858Y016540D03*
X031029Y016540D03*
X030929Y014840D03*
X031758Y014840D03*
D14*
X029143Y013992D03*
X029143Y016488D03*
D15*
X030243Y012190D03*
X030243Y010290D03*
M02*
