G75*
%MOIN*%
%OFA0B0*%
%FSLAX24Y24*%
%IPPOS*%
%LPD*%
%AMOC8*
5,1,8,0,0,1.08239X$1,22.5*
%
%ADD10C,0.0000*%
%ADD11C,0.0080*%
%ADD12R,0.0560X0.0560*%
%ADD13R,0.0590X0.0590*%
%ADD14C,0.0590*%
%ADD15R,0.0610X0.0512*%
%ADD16R,0.0787X0.0433*%
%ADD17C,0.0640*%
%ADD18R,0.0630X0.0710*%
%ADD19R,0.0591X0.0394*%
%ADD20R,0.1063X0.1004*%
%ADD21C,0.0680*%
%ADD22R,0.1200X0.0900*%
%ADD23C,0.0397*%
%ADD24C,0.0476*%
%ADD25C,0.0240*%
%ADD26C,0.0100*%
%ADD27C,0.0160*%
%ADD28C,0.0320*%
%ADD29C,0.0120*%
D10*
X001343Y039810D02*
X064335Y039810D01*
X064335Y000440D01*
D11*
X035143Y001540D02*
X001243Y001640D01*
X001243Y017740D01*
X035143Y017640D01*
X035143Y001540D01*
X034963Y001721D02*
X001423Y001819D01*
X001423Y015980D01*
X001431Y017559D01*
X034963Y017461D01*
X034963Y001721D01*
X034963Y001775D02*
X016666Y001775D01*
X017263Y002440D02*
X017345Y002358D01*
X018071Y002358D01*
X018153Y002440D01*
X018153Y003068D01*
X018071Y003150D01*
X017345Y003150D01*
X017263Y003068D01*
X017263Y002440D01*
X017263Y002481D02*
X015023Y002481D01*
X015023Y002480D02*
X015023Y002714D01*
X014618Y002714D01*
X014618Y002358D01*
X014902Y002358D01*
X014938Y002368D01*
X014969Y002386D01*
X014996Y002412D01*
X015014Y002444D01*
X015023Y002480D01*
X015023Y002560D02*
X017263Y002560D01*
X017263Y002638D02*
X015023Y002638D01*
X015023Y002794D02*
X014618Y002794D01*
X014538Y002794D01*
X014538Y002714D01*
X014133Y002714D01*
X014133Y002480D01*
X014143Y002444D01*
X014161Y002412D01*
X014187Y002386D01*
X014219Y002368D01*
X014255Y002358D01*
X014538Y002358D01*
X014538Y002714D01*
X014618Y002714D01*
X014618Y002794D01*
X014618Y003150D01*
X014902Y003150D01*
X014938Y003141D01*
X014969Y003122D01*
X014996Y003096D01*
X015014Y003064D01*
X015023Y003029D01*
X015023Y002794D01*
X015023Y002795D02*
X017263Y002795D01*
X017263Y002717D02*
X014618Y002717D01*
X014618Y002795D02*
X014538Y002795D01*
X014538Y002794D02*
X014538Y003150D01*
X014255Y003150D01*
X014219Y003141D01*
X014187Y003122D01*
X014161Y003096D01*
X014143Y003064D01*
X014133Y003029D01*
X014133Y002794D01*
X014538Y002794D01*
X014538Y002717D02*
X014053Y002717D01*
X014053Y002795D02*
X014133Y002795D01*
X014133Y002874D02*
X014053Y002874D01*
X014053Y002952D02*
X014133Y002952D01*
X014134Y003031D02*
X014053Y003031D01*
X014053Y003068D02*
X013971Y003150D01*
X013245Y003150D01*
X013163Y003068D01*
X013163Y002440D01*
X013245Y002358D01*
X013971Y002358D01*
X014053Y002440D01*
X014053Y003068D01*
X014012Y003109D02*
X014174Y003109D01*
X014538Y003109D02*
X014618Y003109D01*
X014618Y003031D02*
X014538Y003031D01*
X014538Y002952D02*
X014618Y002952D01*
X014618Y002874D02*
X014538Y002874D01*
X014538Y002638D02*
X014618Y002638D01*
X014618Y002560D02*
X014538Y002560D01*
X014538Y002481D02*
X014618Y002481D01*
X014618Y002403D02*
X014538Y002403D01*
X014171Y002403D02*
X014016Y002403D01*
X014053Y002481D02*
X014133Y002481D01*
X014133Y002560D02*
X014053Y002560D01*
X014053Y002638D02*
X014133Y002638D01*
X013201Y002403D02*
X010886Y002403D01*
X010896Y002412D02*
X010914Y002444D01*
X010923Y002480D01*
X010923Y002714D01*
X010518Y002714D01*
X010518Y002358D01*
X010802Y002358D01*
X010838Y002368D01*
X010869Y002386D01*
X010896Y002412D01*
X010923Y002481D02*
X013163Y002481D01*
X013163Y002560D02*
X010923Y002560D01*
X010923Y002638D02*
X013163Y002638D01*
X013163Y002717D02*
X010518Y002717D01*
X010518Y002714D02*
X010518Y002794D01*
X010438Y002794D01*
X010438Y002714D01*
X010033Y002714D01*
X010033Y002480D01*
X010043Y002444D01*
X010061Y002412D01*
X010087Y002386D01*
X010119Y002368D01*
X010155Y002358D01*
X010438Y002358D01*
X010438Y002714D01*
X010518Y002714D01*
X010518Y002638D02*
X010438Y002638D01*
X010438Y002560D02*
X010518Y002560D01*
X010518Y002481D02*
X010438Y002481D01*
X010438Y002403D02*
X010518Y002403D01*
X010438Y002717D02*
X009953Y002717D01*
X009953Y002795D02*
X010033Y002795D01*
X010033Y002794D02*
X010438Y002794D01*
X010438Y003150D01*
X010155Y003150D01*
X010119Y003141D01*
X010087Y003122D01*
X010061Y003096D01*
X010043Y003064D01*
X010033Y003029D01*
X010033Y002794D01*
X010033Y002874D02*
X009953Y002874D01*
X009953Y002952D02*
X010033Y002952D01*
X010034Y003031D02*
X009953Y003031D01*
X009953Y003068D02*
X009871Y003150D01*
X009145Y003150D01*
X009063Y003068D01*
X009063Y002440D01*
X009145Y002358D01*
X009871Y002358D01*
X009953Y002440D01*
X009953Y003068D01*
X009912Y003109D02*
X010074Y003109D01*
X010438Y003109D02*
X010518Y003109D01*
X010518Y003150D02*
X010518Y002794D01*
X010923Y002794D01*
X010923Y003029D01*
X010914Y003064D01*
X010896Y003096D01*
X010869Y003122D01*
X010838Y003141D01*
X010802Y003150D01*
X010518Y003150D01*
X010518Y003031D02*
X010438Y003031D01*
X010438Y002952D02*
X010518Y002952D01*
X010518Y002874D02*
X010438Y002874D01*
X010438Y002795D02*
X010518Y002795D01*
X010923Y002795D02*
X013163Y002795D01*
X013163Y002874D02*
X010923Y002874D01*
X010923Y002952D02*
X013163Y002952D01*
X013163Y003031D02*
X010923Y003031D01*
X010883Y003109D02*
X013204Y003109D01*
X014356Y003648D02*
X014452Y003553D01*
X014576Y003502D01*
X014711Y003502D01*
X014835Y003553D01*
X014930Y003648D01*
X014982Y003773D01*
X014982Y003907D01*
X014930Y004032D01*
X014835Y004127D01*
X014828Y004130D01*
X014941Y004130D01*
X015023Y004212D01*
X015023Y004840D01*
X014941Y004922D01*
X014215Y004922D01*
X014133Y004840D01*
X014133Y004212D01*
X014215Y004130D01*
X014398Y004130D01*
X014398Y004074D01*
X014356Y004032D01*
X014305Y003907D01*
X014305Y003773D01*
X014356Y003648D01*
X014352Y003659D02*
X010834Y003659D01*
X010830Y003648D02*
X010882Y003773D01*
X010882Y003907D01*
X010830Y004032D01*
X010735Y004127D01*
X010728Y004130D01*
X010841Y004130D01*
X010923Y004212D01*
X010923Y004840D01*
X010841Y004922D01*
X010115Y004922D01*
X010033Y004840D01*
X010033Y004212D01*
X010115Y004130D01*
X010298Y004130D01*
X010298Y004074D01*
X010256Y004032D01*
X010205Y003907D01*
X010205Y003773D01*
X010256Y003648D01*
X010352Y003553D01*
X010476Y003502D01*
X010611Y003502D01*
X010735Y003553D01*
X010830Y003648D01*
X010762Y003580D02*
X014425Y003580D01*
X014320Y003737D02*
X010867Y003737D01*
X010882Y003816D02*
X014305Y003816D01*
X014305Y003894D02*
X010882Y003894D01*
X010855Y003973D02*
X014332Y003973D01*
X014376Y004051D02*
X010811Y004051D01*
X010729Y004130D02*
X014398Y004130D01*
X014137Y004208D02*
X014049Y004208D01*
X014053Y004212D02*
X014053Y004840D01*
X013971Y004922D01*
X013245Y004922D01*
X013163Y004840D01*
X013163Y004212D01*
X013245Y004130D01*
X013971Y004130D01*
X014053Y004212D01*
X014053Y004287D02*
X014133Y004287D01*
X014133Y004365D02*
X014053Y004365D01*
X014053Y004444D02*
X014133Y004444D01*
X014133Y004522D02*
X014053Y004522D01*
X014053Y004601D02*
X014133Y004601D01*
X014133Y004679D02*
X014053Y004679D01*
X014053Y004758D02*
X014133Y004758D01*
X014133Y004836D02*
X014053Y004836D01*
X013979Y004915D02*
X014208Y004915D01*
X014578Y004526D02*
X014578Y003905D01*
X014643Y003840D01*
X014955Y003973D02*
X018432Y003973D01*
X018456Y004032D02*
X018405Y003907D01*
X018405Y003773D01*
X018456Y003648D01*
X018552Y003553D01*
X018676Y003502D01*
X018811Y003502D01*
X018935Y003553D01*
X019030Y003648D01*
X019082Y003773D01*
X019082Y003907D01*
X019030Y004032D01*
X018935Y004127D01*
X018928Y004130D01*
X019041Y004130D01*
X019123Y004212D01*
X019123Y004840D01*
X019041Y004922D01*
X018315Y004922D01*
X018233Y004840D01*
X018233Y004212D01*
X018315Y004130D01*
X018498Y004130D01*
X018498Y004074D01*
X018456Y004032D01*
X018476Y004051D02*
X014911Y004051D01*
X014829Y004130D02*
X018498Y004130D01*
X018405Y003894D02*
X014982Y003894D01*
X014982Y003816D02*
X018405Y003816D01*
X018420Y003737D02*
X014967Y003737D01*
X014934Y003659D02*
X018452Y003659D01*
X018525Y003580D02*
X014862Y003580D01*
X014983Y003109D02*
X017304Y003109D01*
X017263Y003031D02*
X015023Y003031D01*
X015023Y002952D02*
X017263Y002952D01*
X017263Y002874D02*
X015023Y002874D01*
X014986Y002403D02*
X017301Y002403D01*
X018116Y002403D02*
X018271Y002403D01*
X018261Y002412D02*
X018287Y002386D01*
X018319Y002368D01*
X018355Y002358D01*
X018638Y002358D01*
X018638Y002714D01*
X018233Y002714D01*
X018233Y002480D01*
X018243Y002444D01*
X018261Y002412D01*
X018233Y002481D02*
X018153Y002481D01*
X018153Y002560D02*
X018233Y002560D01*
X018233Y002638D02*
X018153Y002638D01*
X018153Y002717D02*
X018638Y002717D01*
X018638Y002714D02*
X018638Y002794D01*
X018233Y002794D01*
X018233Y003029D01*
X018243Y003064D01*
X018261Y003096D01*
X018287Y003122D01*
X018319Y003141D01*
X018355Y003150D01*
X018638Y003150D01*
X018638Y002794D01*
X018718Y002794D01*
X018718Y003150D01*
X019002Y003150D01*
X019038Y003141D01*
X019069Y003122D01*
X019096Y003096D01*
X019114Y003064D01*
X019123Y003029D01*
X019123Y002794D01*
X018718Y002794D01*
X018718Y002714D01*
X018718Y002358D01*
X019002Y002358D01*
X019038Y002368D01*
X019069Y002386D01*
X019096Y002412D01*
X019114Y002444D01*
X019123Y002480D01*
X019123Y002714D01*
X018718Y002714D01*
X018638Y002714D01*
X018638Y002638D02*
X018718Y002638D01*
X018718Y002560D02*
X018638Y002560D01*
X018638Y002481D02*
X018718Y002481D01*
X018718Y002403D02*
X018638Y002403D01*
X018718Y002717D02*
X021363Y002717D01*
X021363Y002795D02*
X019123Y002795D01*
X019123Y002874D02*
X021363Y002874D01*
X021363Y002952D02*
X019123Y002952D01*
X019123Y003031D02*
X021363Y003031D01*
X021363Y003068D02*
X021363Y002440D01*
X021445Y002358D01*
X022171Y002358D01*
X022253Y002440D01*
X022253Y003068D01*
X022171Y003150D01*
X021445Y003150D01*
X021363Y003068D01*
X021404Y003109D02*
X019083Y003109D01*
X018718Y003109D02*
X018638Y003109D01*
X018638Y003031D02*
X018718Y003031D01*
X018718Y002952D02*
X018638Y002952D01*
X018638Y002874D02*
X018718Y002874D01*
X018718Y002795D02*
X018638Y002795D01*
X018233Y002795D02*
X018153Y002795D01*
X018153Y002874D02*
X018233Y002874D01*
X018233Y002952D02*
X018153Y002952D01*
X018153Y003031D02*
X018234Y003031D01*
X018274Y003109D02*
X018112Y003109D01*
X018962Y003580D02*
X022625Y003580D01*
X022652Y003553D02*
X022776Y003502D01*
X022911Y003502D01*
X023035Y003553D01*
X023130Y003648D01*
X023182Y003773D01*
X023182Y003907D01*
X023130Y004032D01*
X023035Y004127D01*
X023028Y004130D01*
X023141Y004130D01*
X023223Y004212D01*
X023223Y004840D01*
X023141Y004922D01*
X022415Y004922D01*
X022333Y004840D01*
X022333Y004212D01*
X022415Y004130D01*
X022598Y004130D01*
X022598Y004074D01*
X022556Y004032D01*
X022505Y003907D01*
X022505Y003773D01*
X022556Y003648D01*
X022652Y003553D01*
X022552Y003659D02*
X019034Y003659D01*
X019067Y003737D02*
X022520Y003737D01*
X022505Y003816D02*
X019082Y003816D01*
X019082Y003894D02*
X022505Y003894D01*
X022532Y003973D02*
X019055Y003973D01*
X019011Y004051D02*
X022576Y004051D01*
X022598Y004130D02*
X018929Y004130D01*
X019120Y004208D02*
X021367Y004208D01*
X021363Y004212D02*
X021445Y004130D01*
X022171Y004130D01*
X022253Y004212D01*
X022253Y004840D01*
X022171Y004922D01*
X021445Y004922D01*
X021363Y004840D01*
X021363Y004212D01*
X021363Y004287D02*
X019123Y004287D01*
X019123Y004365D02*
X021363Y004365D01*
X021363Y004444D02*
X019123Y004444D01*
X019123Y004522D02*
X021363Y004522D01*
X021363Y004601D02*
X019123Y004601D01*
X019123Y004679D02*
X021363Y004679D01*
X021363Y004758D02*
X019123Y004758D01*
X019123Y004836D02*
X021363Y004836D01*
X021438Y004915D02*
X019049Y004915D01*
X018678Y004526D02*
X018678Y003905D01*
X018743Y003840D01*
X018237Y004208D02*
X018149Y004208D01*
X018153Y004212D02*
X018153Y004840D01*
X018071Y004922D01*
X017345Y004922D01*
X017263Y004840D01*
X017263Y004212D01*
X017345Y004130D01*
X018071Y004130D01*
X018153Y004212D01*
X018153Y004287D02*
X018233Y004287D01*
X018233Y004365D02*
X018153Y004365D01*
X018153Y004444D02*
X018233Y004444D01*
X018233Y004522D02*
X018153Y004522D01*
X018153Y004601D02*
X018233Y004601D01*
X018233Y004679D02*
X018153Y004679D01*
X018153Y004758D02*
X018233Y004758D01*
X018233Y004836D02*
X018153Y004836D01*
X018079Y004915D02*
X018308Y004915D01*
X017338Y004915D02*
X014949Y004915D01*
X015023Y004836D02*
X017263Y004836D01*
X017263Y004758D02*
X015023Y004758D01*
X015023Y004679D02*
X017263Y004679D01*
X017263Y004601D02*
X015023Y004601D01*
X015023Y004522D02*
X017263Y004522D01*
X017263Y004444D02*
X015023Y004444D01*
X015023Y004365D02*
X017263Y004365D01*
X017263Y004287D02*
X015023Y004287D01*
X015020Y004208D02*
X017267Y004208D01*
X019123Y002638D02*
X021363Y002638D01*
X021363Y002560D02*
X019123Y002560D01*
X019123Y002481D02*
X021363Y002481D01*
X021401Y002403D02*
X019086Y002403D01*
X022216Y002403D02*
X022371Y002403D01*
X022361Y002412D02*
X022387Y002386D01*
X022419Y002368D01*
X022455Y002358D01*
X022738Y002358D01*
X022738Y002714D01*
X022333Y002714D01*
X022333Y002480D01*
X022343Y002444D01*
X022361Y002412D01*
X022333Y002481D02*
X022253Y002481D01*
X022253Y002560D02*
X022333Y002560D01*
X022333Y002638D02*
X022253Y002638D01*
X022253Y002717D02*
X022738Y002717D01*
X022738Y002714D02*
X022738Y002794D01*
X022333Y002794D01*
X022333Y003029D01*
X022343Y003064D01*
X022361Y003096D01*
X022387Y003122D01*
X022419Y003141D01*
X022455Y003150D01*
X022738Y003150D01*
X022738Y002794D01*
X022818Y002794D01*
X022818Y003150D01*
X023102Y003150D01*
X023138Y003141D01*
X023169Y003122D01*
X023196Y003096D01*
X023214Y003064D01*
X023223Y003029D01*
X023223Y002794D01*
X022818Y002794D01*
X022818Y002714D01*
X022818Y002358D01*
X023102Y002358D01*
X023138Y002368D01*
X023169Y002386D01*
X023196Y002412D01*
X023214Y002444D01*
X023223Y002480D01*
X023223Y002714D01*
X022818Y002714D01*
X022738Y002714D01*
X022738Y002638D02*
X022818Y002638D01*
X022818Y002560D02*
X022738Y002560D01*
X022738Y002481D02*
X022818Y002481D01*
X022818Y002403D02*
X022738Y002403D01*
X022818Y002717D02*
X025463Y002717D01*
X025463Y002795D02*
X023223Y002795D01*
X023223Y002874D02*
X025463Y002874D01*
X025463Y002952D02*
X023223Y002952D01*
X023223Y003031D02*
X025463Y003031D01*
X025463Y003068D02*
X025463Y002440D01*
X025545Y002358D01*
X026271Y002358D01*
X026353Y002440D01*
X026353Y003068D01*
X026271Y003150D01*
X025545Y003150D01*
X025463Y003068D01*
X025504Y003109D02*
X023183Y003109D01*
X022818Y003109D02*
X022738Y003109D01*
X022738Y003031D02*
X022818Y003031D01*
X022818Y002952D02*
X022738Y002952D01*
X022738Y002874D02*
X022818Y002874D01*
X022818Y002795D02*
X022738Y002795D01*
X022333Y002795D02*
X022253Y002795D01*
X022253Y002874D02*
X022333Y002874D01*
X022333Y002952D02*
X022253Y002952D01*
X022253Y003031D02*
X022334Y003031D01*
X022374Y003109D02*
X022212Y003109D01*
X023062Y003580D02*
X026725Y003580D01*
X026752Y003553D02*
X026876Y003502D01*
X027011Y003502D01*
X027135Y003553D01*
X027230Y003648D01*
X027282Y003773D01*
X027282Y003907D01*
X027230Y004032D01*
X027135Y004127D01*
X027128Y004130D01*
X027241Y004130D01*
X027323Y004212D01*
X027323Y004840D01*
X027241Y004922D01*
X026515Y004922D01*
X026433Y004840D01*
X026433Y004212D01*
X026515Y004130D01*
X026698Y004130D01*
X026698Y004074D01*
X026656Y004032D01*
X026605Y003907D01*
X026605Y003773D01*
X026656Y003648D01*
X026752Y003553D01*
X026652Y003659D02*
X023134Y003659D01*
X023167Y003737D02*
X026620Y003737D01*
X026605Y003816D02*
X023182Y003816D01*
X023182Y003894D02*
X026605Y003894D01*
X026632Y003973D02*
X023155Y003973D01*
X023111Y004051D02*
X026676Y004051D01*
X026698Y004130D02*
X023029Y004130D01*
X023220Y004208D02*
X025467Y004208D01*
X025463Y004212D02*
X025545Y004130D01*
X026271Y004130D01*
X026353Y004212D01*
X026353Y004840D01*
X026271Y004922D01*
X025545Y004922D01*
X025463Y004840D01*
X025463Y004212D01*
X025463Y004287D02*
X023223Y004287D01*
X023223Y004365D02*
X025463Y004365D01*
X025463Y004444D02*
X023223Y004444D01*
X023223Y004522D02*
X025463Y004522D01*
X025463Y004601D02*
X023223Y004601D01*
X023223Y004679D02*
X025463Y004679D01*
X025463Y004758D02*
X023223Y004758D01*
X023223Y004836D02*
X025463Y004836D01*
X025538Y004915D02*
X023149Y004915D01*
X022778Y004526D02*
X022778Y003905D01*
X022843Y003840D01*
X022337Y004208D02*
X022249Y004208D01*
X022253Y004287D02*
X022333Y004287D01*
X022333Y004365D02*
X022253Y004365D01*
X022253Y004444D02*
X022333Y004444D01*
X022333Y004522D02*
X022253Y004522D01*
X022253Y004601D02*
X022333Y004601D01*
X022333Y004679D02*
X022253Y004679D01*
X022253Y004758D02*
X022333Y004758D01*
X022333Y004836D02*
X022253Y004836D01*
X022179Y004915D02*
X022408Y004915D01*
X025223Y005202D02*
X025305Y005120D01*
X025981Y005120D01*
X026063Y005202D01*
X026063Y005878D01*
X025981Y005960D01*
X025823Y005960D01*
X025823Y013048D01*
X025835Y013053D01*
X025930Y013148D01*
X025982Y013273D01*
X025982Y013407D01*
X025930Y013532D01*
X025835Y013627D01*
X025711Y013678D01*
X025576Y013678D01*
X025452Y013627D01*
X025356Y013532D01*
X025305Y013407D01*
X025305Y013273D01*
X025356Y013148D01*
X025452Y013053D01*
X025463Y013048D01*
X025463Y005960D01*
X025305Y005960D01*
X025223Y005878D01*
X025223Y005202D01*
X025223Y005229D02*
X009063Y005229D01*
X009063Y005202D02*
X009063Y005878D01*
X008981Y005960D01*
X008478Y005960D01*
X008060Y006378D01*
X008130Y006448D01*
X008182Y006573D01*
X008182Y006707D01*
X008130Y006832D01*
X008035Y006927D01*
X007955Y006960D01*
X008852Y006960D01*
X008856Y006948D01*
X008952Y006853D01*
X009076Y006802D01*
X009211Y006802D01*
X009335Y006853D01*
X009430Y006948D01*
X009482Y007073D01*
X009482Y007207D01*
X009430Y007332D01*
X009335Y007427D01*
X009211Y007478D01*
X009076Y007478D01*
X008952Y007427D01*
X008856Y007332D01*
X008852Y007320D01*
X005669Y007320D01*
X004322Y005974D01*
X004311Y005978D01*
X004176Y005978D01*
X004052Y005927D01*
X003956Y005832D01*
X003905Y005707D01*
X003905Y005573D01*
X003956Y005448D01*
X004052Y005353D01*
X004176Y005302D01*
X004311Y005302D01*
X004435Y005353D01*
X004530Y005448D01*
X004582Y005573D01*
X004582Y005707D01*
X004577Y005719D01*
X005818Y006960D01*
X007732Y006960D01*
X007652Y006927D01*
X007556Y006832D01*
X007505Y006707D01*
X007505Y006573D01*
X007556Y006448D01*
X007652Y006353D01*
X007663Y006348D01*
X007663Y006265D01*
X007969Y005960D01*
X007305Y005960D01*
X007223Y005878D01*
X007223Y005202D01*
X007305Y005120D01*
X007981Y005120D01*
X008063Y005202D01*
X008063Y005865D01*
X008223Y005705D01*
X008223Y005202D01*
X008305Y005120D01*
X008981Y005120D01*
X009063Y005202D01*
X009011Y005150D02*
X025275Y005150D01*
X025223Y005307D02*
X009063Y005307D01*
X009063Y005386D02*
X025223Y005386D01*
X025223Y005464D02*
X009063Y005464D01*
X009063Y005543D02*
X025223Y005543D01*
X025223Y005621D02*
X009063Y005621D01*
X009063Y005700D02*
X025223Y005700D01*
X025223Y005778D02*
X009063Y005778D01*
X009063Y005857D02*
X025223Y005857D01*
X025280Y005935D02*
X009006Y005935D01*
X008643Y005540D02*
X007843Y006340D01*
X007843Y006640D01*
X007505Y006642D02*
X005499Y006642D01*
X005578Y006720D02*
X007510Y006720D01*
X007543Y006799D02*
X005656Y006799D01*
X005735Y006877D02*
X007602Y006877D01*
X007721Y006956D02*
X005813Y006956D01*
X005743Y007140D02*
X004243Y005640D01*
X003934Y005778D02*
X001423Y005778D01*
X001423Y005700D02*
X003905Y005700D01*
X003905Y005621D02*
X001423Y005621D01*
X001423Y005543D02*
X003917Y005543D01*
X003950Y005464D02*
X001423Y005464D01*
X001423Y005386D02*
X004019Y005386D01*
X004163Y005307D02*
X001423Y005307D01*
X001423Y005229D02*
X007223Y005229D01*
X007223Y005307D02*
X004324Y005307D01*
X004467Y005386D02*
X007223Y005386D01*
X007223Y005464D02*
X004537Y005464D01*
X004569Y005543D02*
X007223Y005543D01*
X007223Y005621D02*
X004582Y005621D01*
X004582Y005700D02*
X007223Y005700D01*
X007223Y005778D02*
X004636Y005778D01*
X004714Y005857D02*
X007223Y005857D01*
X007280Y005935D02*
X004793Y005935D01*
X004871Y006014D02*
X007915Y006014D01*
X007837Y006092D02*
X004950Y006092D01*
X005028Y006171D02*
X007758Y006171D01*
X007680Y006249D02*
X005107Y006249D01*
X005185Y006328D02*
X007663Y006328D01*
X007599Y006406D02*
X005264Y006406D01*
X005342Y006485D02*
X007541Y006485D01*
X007509Y006563D02*
X005421Y006563D01*
X005147Y006799D02*
X001423Y006799D01*
X001423Y006877D02*
X005226Y006877D01*
X005304Y006956D02*
X001423Y006956D01*
X001423Y007034D02*
X005383Y007034D01*
X005461Y007113D02*
X001423Y007113D01*
X001423Y007191D02*
X005540Y007191D01*
X005618Y007270D02*
X001423Y007270D01*
X001423Y007348D02*
X008873Y007348D01*
X008951Y007427D02*
X001423Y007427D01*
X001423Y007505D02*
X016703Y007505D01*
X016723Y007554D02*
X016666Y007415D01*
X016666Y007265D01*
X016723Y007126D01*
X016829Y007020D01*
X016968Y006962D01*
X017118Y006962D01*
X017257Y007020D01*
X017364Y007126D01*
X017421Y007265D01*
X017421Y007415D01*
X017364Y007554D01*
X017303Y007614D01*
X017303Y013966D01*
X017364Y014026D01*
X017421Y014165D01*
X017421Y014315D01*
X017364Y014454D01*
X017257Y014560D01*
X017118Y014618D01*
X016968Y014618D01*
X016829Y014560D01*
X016723Y014454D01*
X016666Y014315D01*
X016666Y014165D01*
X016723Y014026D01*
X016783Y013966D01*
X016783Y007614D01*
X016723Y007554D01*
X016753Y007584D02*
X001423Y007584D01*
X001423Y007662D02*
X016783Y007662D01*
X016783Y007741D02*
X001423Y007741D01*
X001423Y007819D02*
X003123Y007819D01*
X003157Y007805D02*
X003330Y007805D01*
X003490Y007871D01*
X003612Y007994D01*
X003678Y008153D01*
X003678Y008327D01*
X003612Y008486D01*
X003490Y008609D01*
X003330Y008675D01*
X003157Y008675D01*
X002997Y008609D01*
X002875Y008486D01*
X002808Y008327D01*
X002808Y008153D01*
X002875Y007994D01*
X002997Y007871D01*
X003157Y007805D01*
X003364Y007819D02*
X004123Y007819D01*
X004157Y007805D02*
X004330Y007805D01*
X004490Y007871D01*
X004612Y007994D01*
X004678Y008153D01*
X004678Y008327D01*
X004612Y008486D01*
X004490Y008609D01*
X004330Y008675D01*
X004157Y008675D01*
X003997Y008609D01*
X003875Y008486D01*
X003808Y008327D01*
X003808Y008153D01*
X003875Y007994D01*
X003997Y007871D01*
X004157Y007805D01*
X004364Y007819D02*
X016783Y007819D01*
X016783Y007898D02*
X004516Y007898D01*
X004595Y007976D02*
X016783Y007976D01*
X016783Y008055D02*
X004637Y008055D01*
X004670Y008133D02*
X016783Y008133D01*
X016783Y008212D02*
X004678Y008212D01*
X004678Y008290D02*
X016783Y008290D01*
X016783Y008369D02*
X004661Y008369D01*
X004628Y008447D02*
X016783Y008447D01*
X016783Y008526D02*
X004573Y008526D01*
X004494Y008604D02*
X016783Y008604D01*
X016783Y008683D02*
X001423Y008683D01*
X001423Y008761D02*
X016783Y008761D01*
X016783Y008840D02*
X004413Y008840D01*
X004490Y008871D02*
X004612Y008994D01*
X004678Y009153D01*
X004678Y009327D01*
X004612Y009486D01*
X004490Y009609D01*
X004330Y009675D01*
X004157Y009675D01*
X003997Y009609D01*
X003875Y009486D01*
X003808Y009327D01*
X003808Y009153D01*
X003875Y008994D01*
X003997Y008871D01*
X004157Y008805D01*
X004330Y008805D01*
X004490Y008871D01*
X004537Y008918D02*
X016783Y008918D01*
X016783Y008997D02*
X004613Y008997D01*
X004646Y009075D02*
X006930Y009075D01*
X006952Y009053D02*
X007076Y009002D01*
X007211Y009002D01*
X007335Y009053D01*
X007430Y009148D01*
X007482Y009273D01*
X007482Y009407D01*
X007430Y009532D01*
X007335Y009627D01*
X007323Y009632D01*
X007323Y010165D01*
X008933Y011775D01*
X008905Y011707D01*
X008905Y011573D01*
X008956Y011448D01*
X009052Y011353D01*
X009176Y011302D01*
X009311Y011302D01*
X009435Y011353D01*
X009530Y011448D01*
X009582Y011573D01*
X009582Y011707D01*
X009530Y011832D01*
X009460Y011902D01*
X010018Y012460D01*
X010685Y012460D01*
X010656Y012432D01*
X010605Y012307D01*
X010605Y012173D01*
X010656Y012048D01*
X010752Y011953D01*
X010763Y011948D01*
X010763Y010932D01*
X010752Y010927D01*
X010656Y010832D01*
X010605Y010707D01*
X010605Y010573D01*
X010656Y010448D01*
X010752Y010353D01*
X010832Y010320D01*
X010718Y010320D01*
X009918Y011120D01*
X008935Y011120D01*
X008930Y011132D01*
X008835Y011227D01*
X008711Y011278D01*
X008576Y011278D01*
X008452Y011227D01*
X008356Y011132D01*
X008305Y011007D01*
X008305Y010873D01*
X008356Y010748D01*
X008452Y010653D01*
X008576Y010602D01*
X008711Y010602D01*
X008835Y010653D01*
X008930Y010748D01*
X008935Y010760D01*
X009769Y010760D01*
X010463Y010065D01*
X010569Y009960D01*
X011218Y009960D01*
X012964Y011706D01*
X012976Y011702D01*
X013111Y011702D01*
X013235Y011753D01*
X013330Y011848D01*
X013382Y011973D01*
X013382Y012107D01*
X013330Y012232D01*
X013235Y012327D01*
X013111Y012378D01*
X012976Y012378D01*
X012852Y012327D01*
X012756Y012232D01*
X012705Y012107D01*
X012705Y011973D01*
X012710Y011961D01*
X011254Y010505D01*
X011282Y010573D01*
X011282Y010707D01*
X011230Y010832D01*
X011135Y010927D01*
X011123Y010932D01*
X011123Y011948D01*
X011135Y011953D01*
X011230Y012048D01*
X011282Y012173D01*
X011282Y012307D01*
X011230Y012432D01*
X011202Y012460D01*
X012818Y012460D01*
X013364Y013006D01*
X013376Y013002D01*
X013511Y013002D01*
X013635Y013053D01*
X013730Y013148D01*
X013782Y013273D01*
X013782Y013407D01*
X013730Y013532D01*
X013635Y013627D01*
X013511Y013678D01*
X013376Y013678D01*
X013252Y013627D01*
X013156Y013532D01*
X013105Y013407D01*
X013105Y013273D01*
X013110Y013261D01*
X012669Y012820D01*
X012078Y012820D01*
X013764Y014506D01*
X013776Y014502D01*
X013911Y014502D01*
X014035Y014553D01*
X014130Y014648D01*
X014182Y014773D01*
X014182Y014907D01*
X014130Y015032D01*
X014035Y015127D01*
X013911Y015178D01*
X013776Y015178D01*
X013665Y015132D01*
X013682Y015173D01*
X013682Y015307D01*
X013630Y015432D01*
X013535Y015527D01*
X013411Y015578D01*
X013276Y015578D01*
X013152Y015527D01*
X013056Y015432D01*
X013005Y015307D01*
X013005Y015173D01*
X013010Y015161D01*
X011922Y014074D01*
X011911Y014078D01*
X011776Y014078D01*
X011652Y014027D01*
X011556Y013932D01*
X011543Y013900D01*
X011530Y013932D01*
X011435Y014027D01*
X011311Y014078D01*
X011176Y014078D01*
X011052Y014027D01*
X010956Y013932D01*
X010952Y013920D01*
X009818Y013920D01*
X009277Y014461D01*
X009282Y014473D01*
X009282Y014607D01*
X009230Y014732D01*
X009135Y014827D01*
X009011Y014878D01*
X008876Y014878D01*
X008752Y014827D01*
X008656Y014732D01*
X008605Y014607D01*
X008605Y014473D01*
X008656Y014348D01*
X008752Y014253D01*
X008876Y014202D01*
X009011Y014202D01*
X009022Y014206D01*
X009669Y013560D01*
X010952Y013560D01*
X010956Y013548D01*
X011052Y013453D01*
X011176Y013402D01*
X011311Y013402D01*
X011435Y013453D01*
X011530Y013548D01*
X011543Y013580D01*
X011556Y013548D01*
X011652Y013453D01*
X011776Y013402D01*
X011911Y013402D01*
X012035Y013453D01*
X012130Y013548D01*
X012182Y013673D01*
X012182Y013807D01*
X012177Y013819D01*
X013264Y014906D01*
X013276Y014902D01*
X013411Y014902D01*
X013522Y014948D01*
X013505Y014907D01*
X013505Y014773D01*
X013510Y014761D01*
X011869Y013120D01*
X009769Y013120D01*
X009663Y013015D01*
X006963Y010315D01*
X006963Y009632D01*
X006952Y009627D01*
X006856Y009532D01*
X006805Y009407D01*
X006805Y009273D01*
X006856Y009148D01*
X006952Y009053D01*
X006854Y009154D02*
X004678Y009154D01*
X004678Y009232D02*
X006822Y009232D01*
X006805Y009311D02*
X004678Y009311D01*
X004652Y009389D02*
X006805Y009389D01*
X006830Y009468D02*
X004620Y009468D01*
X004552Y009546D02*
X006871Y009546D01*
X006949Y009625D02*
X004452Y009625D01*
X004330Y009805D02*
X004490Y009871D01*
X004612Y009994D01*
X004678Y010153D01*
X004678Y010327D01*
X004612Y010486D01*
X004490Y010609D01*
X004330Y010675D01*
X004157Y010675D01*
X003997Y010609D01*
X003875Y010486D01*
X003808Y010327D01*
X003808Y010153D01*
X003875Y009994D01*
X003997Y009871D01*
X004157Y009805D01*
X004330Y009805D01*
X004463Y009860D02*
X006963Y009860D01*
X006963Y009782D02*
X001423Y009782D01*
X001423Y009860D02*
X003031Y009860D01*
X003015Y009868D02*
X003076Y009837D01*
X003141Y009816D01*
X003203Y009806D01*
X003203Y010200D01*
X002809Y010200D01*
X002819Y010138D01*
X002840Y010073D01*
X002871Y010012D01*
X002912Y009957D01*
X002960Y009908D01*
X003015Y009868D01*
X002930Y009939D02*
X001423Y009939D01*
X001423Y010017D02*
X002869Y010017D01*
X002833Y010096D02*
X001423Y010096D01*
X001423Y010174D02*
X002813Y010174D01*
X002809Y010280D02*
X003203Y010280D01*
X003203Y010200D01*
X003283Y010200D01*
X003283Y009806D01*
X003345Y009816D01*
X003410Y009837D01*
X003471Y009868D01*
X003527Y009908D01*
X003575Y009957D01*
X003615Y010012D01*
X003646Y010073D01*
X003668Y010138D01*
X003677Y010200D01*
X003283Y010200D01*
X003283Y010280D01*
X003203Y010280D01*
X003203Y010674D01*
X003141Y010664D01*
X003076Y010643D01*
X003015Y010612D01*
X002960Y010572D01*
X002912Y010523D01*
X002871Y010468D01*
X002840Y010407D01*
X002819Y010342D01*
X002809Y010280D01*
X002817Y010331D02*
X001423Y010331D01*
X001423Y010253D02*
X003203Y010253D01*
X003203Y010331D02*
X003283Y010331D01*
X003283Y010280D02*
X003283Y010674D01*
X003345Y010664D01*
X003410Y010643D01*
X003471Y010612D01*
X003527Y010572D01*
X003575Y010523D01*
X003615Y010468D01*
X003646Y010407D01*
X003668Y010342D01*
X003677Y010280D01*
X003283Y010280D01*
X003283Y010253D02*
X003808Y010253D01*
X003810Y010331D02*
X003669Y010331D01*
X003645Y010410D02*
X003843Y010410D01*
X003876Y010488D02*
X003601Y010488D01*
X003532Y010567D02*
X003955Y010567D01*
X004084Y010645D02*
X003404Y010645D01*
X003283Y010645D02*
X003203Y010645D01*
X003203Y010567D02*
X003283Y010567D01*
X003283Y010488D02*
X003203Y010488D01*
X003203Y010410D02*
X003283Y010410D01*
X003283Y010174D02*
X003203Y010174D01*
X003203Y010096D02*
X003283Y010096D01*
X003283Y010017D02*
X003203Y010017D01*
X003203Y009939D02*
X003283Y009939D01*
X003283Y009860D02*
X003203Y009860D01*
X003157Y009675D02*
X002997Y009609D01*
X002875Y009486D01*
X002808Y009327D01*
X002808Y009153D01*
X002875Y008994D01*
X002997Y008871D01*
X003157Y008805D01*
X003330Y008805D01*
X003490Y008871D01*
X003612Y008994D01*
X003678Y009153D01*
X003678Y009327D01*
X003612Y009486D01*
X003490Y009609D01*
X003330Y009675D01*
X003157Y009675D01*
X003035Y009625D02*
X001423Y009625D01*
X001423Y009703D02*
X006963Y009703D01*
X006963Y009939D02*
X004557Y009939D01*
X004622Y010017D02*
X006963Y010017D01*
X006963Y010096D02*
X004654Y010096D01*
X004678Y010174D02*
X006963Y010174D01*
X006963Y010253D02*
X004678Y010253D01*
X004676Y010331D02*
X006980Y010331D01*
X007058Y010410D02*
X004644Y010410D01*
X004610Y010488D02*
X007137Y010488D01*
X007215Y010567D02*
X004532Y010567D01*
X004402Y010645D02*
X007294Y010645D01*
X007372Y010724D02*
X001423Y010724D01*
X001423Y010802D02*
X007451Y010802D01*
X007529Y010881D02*
X004499Y010881D01*
X004490Y010871D02*
X004612Y010994D01*
X004678Y011153D01*
X004678Y011327D01*
X004651Y011393D01*
X005218Y011960D01*
X007252Y011960D01*
X007256Y011948D01*
X007352Y011853D01*
X007476Y011802D01*
X007611Y011802D01*
X007735Y011853D01*
X007830Y011948D01*
X007882Y012073D01*
X007882Y012207D01*
X007830Y012332D01*
X007735Y012427D01*
X007611Y012478D01*
X007476Y012478D01*
X007352Y012427D01*
X007256Y012332D01*
X007252Y012320D01*
X005069Y012320D01*
X004396Y011647D01*
X004330Y011675D01*
X004157Y011675D01*
X003997Y011609D01*
X003875Y011486D01*
X003808Y011327D01*
X003808Y011153D01*
X003875Y010994D01*
X003997Y010871D01*
X004157Y010805D01*
X004330Y010805D01*
X004490Y010871D01*
X004578Y010959D02*
X007608Y010959D01*
X007686Y011038D02*
X004630Y011038D01*
X004663Y011116D02*
X007765Y011116D01*
X007843Y011195D02*
X004678Y011195D01*
X004678Y011273D02*
X007922Y011273D01*
X008000Y011352D02*
X004668Y011352D01*
X004688Y011430D02*
X008079Y011430D01*
X008157Y011509D02*
X004766Y011509D01*
X004845Y011587D02*
X008236Y011587D01*
X008314Y011666D02*
X004923Y011666D01*
X005002Y011744D02*
X008393Y011744D01*
X008471Y011823D02*
X007661Y011823D01*
X007783Y011901D02*
X008550Y011901D01*
X008628Y011980D02*
X007843Y011980D01*
X007876Y012058D02*
X008707Y012058D01*
X008785Y012137D02*
X007882Y012137D01*
X007879Y012215D02*
X008864Y012215D01*
X008942Y012294D02*
X007846Y012294D01*
X007790Y012372D02*
X009021Y012372D01*
X009099Y012451D02*
X007678Y012451D01*
X007409Y012451D02*
X004627Y012451D01*
X004612Y012486D02*
X004539Y012560D01*
X005118Y012560D01*
X005964Y013406D01*
X005976Y013402D01*
X006111Y013402D01*
X006235Y013453D01*
X006330Y013548D01*
X006382Y013673D01*
X006382Y013807D01*
X006330Y013932D01*
X006235Y014027D01*
X006111Y014078D01*
X005976Y014078D01*
X005852Y014027D01*
X005756Y013932D01*
X005705Y013807D01*
X005705Y013673D01*
X005710Y013661D01*
X004969Y012920D01*
X004539Y012920D01*
X004612Y012994D01*
X004678Y013153D01*
X004678Y013327D01*
X004651Y013393D01*
X004918Y013660D01*
X005023Y013765D01*
X005023Y015948D01*
X005035Y015953D01*
X005130Y016048D01*
X005182Y016173D01*
X005182Y016307D01*
X005130Y016432D01*
X005035Y016527D01*
X004911Y016578D01*
X004776Y016578D01*
X004652Y016527D01*
X004556Y016432D01*
X004505Y016307D01*
X004505Y016173D01*
X004556Y016048D01*
X004652Y015953D01*
X004663Y015948D01*
X004663Y014363D01*
X004612Y014486D01*
X004490Y014609D01*
X004330Y014675D01*
X004157Y014675D01*
X003997Y014609D01*
X003875Y014486D01*
X003808Y014327D01*
X003808Y014153D01*
X003875Y013994D01*
X003997Y013871D01*
X004157Y013805D01*
X004330Y013805D01*
X004490Y013871D01*
X004612Y013994D01*
X004663Y014117D01*
X004663Y013915D01*
X004396Y013647D01*
X004330Y013675D01*
X004157Y013675D01*
X003997Y013609D01*
X003875Y013486D01*
X003808Y013327D01*
X003808Y013153D01*
X003875Y012994D01*
X003948Y012920D01*
X003539Y012920D01*
X003612Y012994D01*
X003678Y013153D01*
X003678Y013327D01*
X003612Y013486D01*
X003490Y013609D01*
X003330Y013675D01*
X003157Y013675D01*
X002997Y013609D01*
X002875Y013486D01*
X002808Y013327D01*
X002808Y013153D01*
X002875Y012994D01*
X002948Y012920D01*
X002835Y012920D01*
X002830Y012932D01*
X002735Y013027D01*
X002611Y013078D01*
X002476Y013078D01*
X002352Y013027D01*
X002256Y012932D01*
X002205Y012807D01*
X002205Y012673D01*
X002256Y012548D01*
X002352Y012453D01*
X002476Y012402D01*
X002611Y012402D01*
X002735Y012453D01*
X002830Y012548D01*
X002835Y012560D01*
X002948Y012560D01*
X002875Y012486D01*
X002808Y012327D01*
X002808Y012153D01*
X002875Y011994D01*
X002997Y011871D01*
X003157Y011805D01*
X003330Y011805D01*
X003490Y011871D01*
X003612Y011994D01*
X003678Y012153D01*
X003678Y012327D01*
X003612Y012486D01*
X003539Y012560D01*
X003948Y012560D01*
X003875Y012486D01*
X003808Y012327D01*
X003808Y012153D01*
X003875Y011994D01*
X003997Y011871D01*
X004157Y011805D01*
X004330Y011805D01*
X004490Y011871D01*
X004612Y011994D01*
X004678Y012153D01*
X004678Y012327D01*
X004612Y012486D01*
X004569Y012529D02*
X009178Y012529D01*
X009256Y012608D02*
X005165Y012608D01*
X005244Y012686D02*
X009335Y012686D01*
X009413Y012765D02*
X005322Y012765D01*
X005401Y012843D02*
X009492Y012843D01*
X009570Y012922D02*
X005479Y012922D01*
X005558Y013000D02*
X009649Y013000D01*
X009727Y013079D02*
X005636Y013079D01*
X005715Y013157D02*
X011906Y013157D01*
X011984Y013236D02*
X005793Y013236D01*
X005872Y013314D02*
X012063Y013314D01*
X012141Y013393D02*
X005950Y013393D01*
X006253Y013471D02*
X011034Y013471D01*
X010956Y013550D02*
X006331Y013550D01*
X006363Y013628D02*
X009601Y013628D01*
X009522Y013707D02*
X006382Y013707D01*
X006382Y013785D02*
X009444Y013785D01*
X009365Y013864D02*
X006358Y013864D01*
X006320Y013942D02*
X009287Y013942D01*
X009208Y014021D02*
X006241Y014021D01*
X006043Y013740D02*
X005043Y012740D01*
X002543Y012740D01*
X002232Y012608D02*
X001423Y012608D01*
X001423Y012686D02*
X002205Y012686D01*
X002205Y012765D02*
X001423Y012765D01*
X001423Y012843D02*
X002220Y012843D01*
X002252Y012922D02*
X001423Y012922D01*
X001423Y013000D02*
X002325Y013000D01*
X002762Y013000D02*
X002872Y013000D01*
X002839Y013079D02*
X001423Y013079D01*
X001423Y013157D02*
X002808Y013157D01*
X002808Y013236D02*
X001423Y013236D01*
X001423Y013314D02*
X002808Y013314D01*
X002836Y013393D02*
X001423Y013393D01*
X001423Y013471D02*
X002868Y013471D01*
X002938Y013550D02*
X001423Y013550D01*
X001423Y013628D02*
X003043Y013628D01*
X002890Y013805D02*
X003596Y013805D01*
X003678Y013887D01*
X003678Y014593D01*
X003596Y014675D01*
X002890Y014675D01*
X002808Y014593D01*
X002808Y013887D01*
X002890Y013805D01*
X002832Y013864D02*
X001423Y013864D01*
X001423Y013942D02*
X002808Y013942D01*
X002808Y014021D02*
X001423Y014021D01*
X001423Y014099D02*
X002808Y014099D01*
X002808Y014178D02*
X001423Y014178D01*
X001423Y014256D02*
X002808Y014256D01*
X002808Y014335D02*
X001423Y014335D01*
X001423Y014413D02*
X002808Y014413D01*
X002808Y014492D02*
X001423Y014492D01*
X001423Y014570D02*
X002808Y014570D01*
X002864Y014649D02*
X001423Y014649D01*
X001423Y014727D02*
X004663Y014727D01*
X004663Y014649D02*
X004394Y014649D01*
X004528Y014570D02*
X004663Y014570D01*
X004663Y014492D02*
X004607Y014492D01*
X004642Y014413D02*
X004663Y014413D01*
X004656Y014099D02*
X004663Y014099D01*
X004663Y014021D02*
X004623Y014021D01*
X004663Y013942D02*
X004561Y013942D01*
X004612Y013864D02*
X004471Y013864D01*
X004534Y013785D02*
X001423Y013785D01*
X001423Y013707D02*
X004455Y013707D01*
X004729Y013471D02*
X005520Y013471D01*
X005598Y013550D02*
X004807Y013550D01*
X004886Y013628D02*
X005677Y013628D01*
X005705Y013707D02*
X004964Y013707D01*
X005023Y013785D02*
X005705Y013785D01*
X005728Y013864D02*
X005023Y013864D01*
X005023Y013942D02*
X005767Y013942D01*
X005845Y014021D02*
X005023Y014021D01*
X005023Y014099D02*
X009130Y014099D01*
X009051Y014178D02*
X005023Y014178D01*
X005023Y014256D02*
X008749Y014256D01*
X008670Y014335D02*
X005023Y014335D01*
X005023Y014413D02*
X008630Y014413D01*
X008605Y014492D02*
X005023Y014492D01*
X005023Y014570D02*
X008605Y014570D01*
X008622Y014649D02*
X005023Y014649D01*
X005023Y014727D02*
X008655Y014727D01*
X008730Y014806D02*
X007620Y014806D01*
X007611Y014802D02*
X007735Y014853D01*
X007830Y014948D01*
X007835Y014960D01*
X009918Y014960D01*
X010264Y015306D01*
X010276Y015302D01*
X010411Y015302D01*
X010535Y015353D01*
X010630Y015448D01*
X010682Y015573D01*
X010682Y015707D01*
X010630Y015832D01*
X010535Y015927D01*
X010411Y015978D01*
X010276Y015978D01*
X010152Y015927D01*
X010056Y015832D01*
X010005Y015707D01*
X010005Y015573D01*
X010010Y015561D01*
X009769Y015320D01*
X007835Y015320D01*
X007830Y015332D01*
X007735Y015427D01*
X007611Y015478D01*
X007476Y015478D01*
X007352Y015427D01*
X007256Y015332D01*
X007205Y015207D01*
X007205Y015073D01*
X007256Y014948D01*
X007352Y014853D01*
X007476Y014802D01*
X007611Y014802D01*
X007466Y014806D02*
X005023Y014806D01*
X005023Y014884D02*
X007321Y014884D01*
X007251Y014963D02*
X005023Y014963D01*
X005023Y015041D02*
X007218Y015041D01*
X007205Y015120D02*
X005023Y015120D01*
X005023Y015198D02*
X007205Y015198D01*
X007234Y015277D02*
X005023Y015277D01*
X005023Y015355D02*
X007280Y015355D01*
X007368Y015434D02*
X005023Y015434D01*
X005023Y015512D02*
X009961Y015512D01*
X010005Y015591D02*
X005023Y015591D01*
X005023Y015669D02*
X010005Y015669D01*
X010022Y015748D02*
X005023Y015748D01*
X005023Y015826D02*
X010054Y015826D01*
X010129Y015905D02*
X005023Y015905D01*
X005065Y015983D02*
X028472Y015983D01*
X028472Y015968D02*
X028481Y015932D01*
X028500Y015900D01*
X028526Y015874D01*
X028558Y015856D01*
X028593Y015846D01*
X029103Y015846D01*
X029103Y016448D01*
X028472Y016448D01*
X028472Y015968D01*
X028497Y015905D02*
X010557Y015905D01*
X010633Y015826D02*
X030154Y015826D01*
X030156Y015832D02*
X030105Y015707D01*
X030105Y015573D01*
X030156Y015448D01*
X030252Y015353D01*
X030376Y015302D01*
X030511Y015302D01*
X030635Y015353D01*
X030730Y015448D01*
X030782Y015573D01*
X030782Y015707D01*
X030730Y015832D01*
X030653Y015909D01*
X030947Y016203D01*
X031382Y016203D01*
X031443Y016264D01*
X031504Y016203D01*
X032211Y016203D01*
X032229Y016221D01*
X032229Y016127D01*
X032311Y016045D01*
X033056Y016045D01*
X033138Y016127D01*
X033138Y016953D01*
X033056Y017035D01*
X032311Y017035D01*
X032229Y016953D01*
X032229Y016859D01*
X032211Y016877D01*
X031504Y016877D01*
X031443Y016816D01*
X031382Y016877D01*
X030676Y016877D01*
X030594Y016795D01*
X030594Y016359D01*
X030369Y016134D01*
X030263Y016029D01*
X030263Y015932D01*
X030252Y015927D01*
X030156Y015832D01*
X030122Y015748D02*
X010665Y015748D01*
X010682Y015669D02*
X030105Y015669D01*
X030105Y015591D02*
X010682Y015591D01*
X010657Y015512D02*
X013137Y015512D01*
X013058Y015434D02*
X010615Y015434D01*
X010537Y015355D02*
X013025Y015355D01*
X013005Y015277D02*
X010234Y015277D01*
X010156Y015198D02*
X013005Y015198D01*
X012968Y015120D02*
X010077Y015120D01*
X009999Y015041D02*
X012890Y015041D01*
X012811Y014963D02*
X009920Y014963D01*
X009843Y015140D02*
X010343Y015640D01*
X010305Y016120D02*
X010981Y016120D01*
X011063Y016202D01*
X011063Y016878D01*
X010981Y016960D01*
X010305Y016960D01*
X010223Y016878D01*
X010223Y016202D01*
X010305Y016120D01*
X010285Y016140D02*
X010001Y016140D01*
X009981Y016120D02*
X010063Y016202D01*
X010063Y016878D01*
X009981Y016960D01*
X009305Y016960D01*
X009223Y016878D01*
X009223Y016202D01*
X009305Y016120D01*
X009981Y016120D01*
X010063Y016219D02*
X010223Y016219D01*
X010223Y016297D02*
X010063Y016297D01*
X010063Y016376D02*
X010223Y016376D01*
X010223Y016454D02*
X010063Y016454D01*
X010063Y016533D02*
X010223Y016533D01*
X010223Y016611D02*
X010063Y016611D01*
X010063Y016690D02*
X010223Y016690D01*
X010223Y016768D02*
X010063Y016768D01*
X010063Y016847D02*
X010223Y016847D01*
X010270Y016925D02*
X010016Y016925D01*
X009270Y016925D02*
X009016Y016925D01*
X008981Y016960D02*
X008305Y016960D01*
X008223Y016878D01*
X008223Y016202D01*
X008305Y016120D01*
X008981Y016120D01*
X009063Y016202D01*
X009063Y016878D01*
X008981Y016960D01*
X009063Y016847D02*
X009223Y016847D01*
X009223Y016768D02*
X009063Y016768D01*
X009063Y016690D02*
X009223Y016690D01*
X009223Y016611D02*
X009063Y016611D01*
X009063Y016533D02*
X009223Y016533D01*
X009223Y016454D02*
X009063Y016454D01*
X009063Y016376D02*
X009223Y016376D01*
X009223Y016297D02*
X009063Y016297D01*
X009063Y016219D02*
X009223Y016219D01*
X009285Y016140D02*
X009001Y016140D01*
X008285Y016140D02*
X008001Y016140D01*
X007981Y016120D02*
X008063Y016202D01*
X008063Y016878D01*
X007981Y016960D01*
X007305Y016960D01*
X007223Y016878D01*
X007223Y016202D01*
X007305Y016120D01*
X007981Y016120D01*
X008063Y016219D02*
X008223Y016219D01*
X008223Y016297D02*
X008063Y016297D01*
X008063Y016376D02*
X008223Y016376D01*
X008223Y016454D02*
X008063Y016454D01*
X008063Y016533D02*
X008223Y016533D01*
X008223Y016611D02*
X008063Y016611D01*
X008063Y016690D02*
X008223Y016690D01*
X008223Y016768D02*
X008063Y016768D01*
X008063Y016847D02*
X008223Y016847D01*
X008270Y016925D02*
X008016Y016925D01*
X007270Y016925D02*
X001428Y016925D01*
X001428Y016847D02*
X007223Y016847D01*
X007223Y016768D02*
X001427Y016768D01*
X001427Y016690D02*
X007223Y016690D01*
X007223Y016611D02*
X001427Y016611D01*
X001426Y016533D02*
X004665Y016533D01*
X004579Y016454D02*
X001426Y016454D01*
X001425Y016376D02*
X004533Y016376D01*
X004505Y016297D02*
X001425Y016297D01*
X001425Y016219D02*
X004505Y016219D01*
X004518Y016140D02*
X001424Y016140D01*
X001424Y016062D02*
X004551Y016062D01*
X004622Y015983D02*
X001423Y015983D01*
X001423Y015905D02*
X004663Y015905D01*
X004663Y015826D02*
X001423Y015826D01*
X001423Y015748D02*
X004663Y015748D01*
X004663Y015669D02*
X001423Y015669D01*
X001423Y015591D02*
X004663Y015591D01*
X004663Y015512D02*
X001423Y015512D01*
X001423Y015434D02*
X004663Y015434D01*
X004663Y015355D02*
X001423Y015355D01*
X001423Y015277D02*
X004663Y015277D01*
X004663Y015198D02*
X001423Y015198D01*
X001423Y015120D02*
X004663Y015120D01*
X004663Y015041D02*
X001423Y015041D01*
X001423Y014963D02*
X004663Y014963D01*
X004663Y014884D02*
X001423Y014884D01*
X001423Y014806D02*
X004663Y014806D01*
X004093Y014649D02*
X003623Y014649D01*
X003678Y014570D02*
X003958Y014570D01*
X003880Y014492D02*
X003678Y014492D01*
X003678Y014413D02*
X003844Y014413D01*
X003812Y014335D02*
X003678Y014335D01*
X003678Y014256D02*
X003808Y014256D01*
X003808Y014178D02*
X003678Y014178D01*
X003678Y014099D02*
X003831Y014099D01*
X003863Y014021D02*
X003678Y014021D01*
X003678Y013942D02*
X003926Y013942D01*
X004015Y013864D02*
X003655Y013864D01*
X003443Y013628D02*
X004043Y013628D01*
X003938Y013550D02*
X003549Y013550D01*
X003618Y013471D02*
X003868Y013471D01*
X003836Y013393D02*
X003651Y013393D01*
X003678Y013314D02*
X003808Y013314D01*
X003808Y013236D02*
X003678Y013236D01*
X003678Y013157D02*
X003808Y013157D01*
X003839Y013079D02*
X003647Y013079D01*
X003615Y013000D02*
X003872Y013000D01*
X003947Y012922D02*
X003540Y012922D01*
X003569Y012529D02*
X003917Y012529D01*
X003860Y012451D02*
X003627Y012451D01*
X003659Y012372D02*
X003827Y012372D01*
X003808Y012294D02*
X003678Y012294D01*
X003678Y012215D02*
X003808Y012215D01*
X003815Y012137D02*
X003671Y012137D01*
X003639Y012058D02*
X003848Y012058D01*
X003889Y011980D02*
X003598Y011980D01*
X003520Y011901D02*
X003967Y011901D01*
X004114Y011823D02*
X003372Y011823D01*
X003330Y011675D02*
X003157Y011675D01*
X002997Y011609D01*
X002875Y011486D01*
X002808Y011327D01*
X002808Y011153D01*
X002875Y010994D01*
X002997Y010871D01*
X003157Y010805D01*
X003330Y010805D01*
X003490Y010871D01*
X003612Y010994D01*
X003678Y011153D01*
X003678Y011327D01*
X003612Y011486D01*
X003490Y011609D01*
X003330Y011675D01*
X003353Y011666D02*
X004134Y011666D01*
X003975Y011587D02*
X003511Y011587D01*
X003590Y011509D02*
X003897Y011509D01*
X003851Y011430D02*
X003635Y011430D01*
X003668Y011352D02*
X003819Y011352D01*
X003808Y011273D02*
X003678Y011273D01*
X003678Y011195D02*
X003808Y011195D01*
X003824Y011116D02*
X003663Y011116D01*
X003630Y011038D02*
X003856Y011038D01*
X003909Y010959D02*
X003578Y010959D01*
X003499Y010881D02*
X003988Y010881D01*
X004243Y011240D02*
X005143Y012140D01*
X007543Y012140D01*
X007304Y011901D02*
X005159Y011901D01*
X005080Y011823D02*
X007425Y011823D01*
X007297Y012372D02*
X004659Y012372D01*
X004678Y012294D02*
X005042Y012294D01*
X004964Y012215D02*
X004678Y012215D01*
X004671Y012137D02*
X004885Y012137D01*
X004807Y012058D02*
X004639Y012058D01*
X004598Y011980D02*
X004728Y011980D01*
X004650Y011901D02*
X004520Y011901D01*
X004571Y011823D02*
X004372Y011823D01*
X004493Y011744D02*
X001423Y011744D01*
X001423Y011666D02*
X003134Y011666D01*
X003114Y011823D02*
X001423Y011823D01*
X001423Y011901D02*
X002967Y011901D01*
X002889Y011980D02*
X001423Y011980D01*
X001423Y012058D02*
X002848Y012058D01*
X002815Y012137D02*
X001423Y012137D01*
X001423Y012215D02*
X002808Y012215D01*
X002808Y012294D02*
X001423Y012294D01*
X001423Y012372D02*
X002827Y012372D01*
X002860Y012451D02*
X002729Y012451D01*
X002811Y012529D02*
X002917Y012529D01*
X002947Y012922D02*
X002834Y012922D01*
X002358Y012451D02*
X001423Y012451D01*
X001423Y012529D02*
X002276Y012529D01*
X002975Y011587D02*
X001423Y011587D01*
X001423Y011509D02*
X002897Y011509D01*
X002851Y011430D02*
X001423Y011430D01*
X001423Y011352D02*
X002819Y011352D01*
X002808Y011273D02*
X001423Y011273D01*
X001423Y011195D02*
X002808Y011195D01*
X002824Y011116D02*
X001423Y011116D01*
X001423Y011038D02*
X002856Y011038D01*
X002909Y010959D02*
X001423Y010959D01*
X001423Y010881D02*
X002988Y010881D01*
X003082Y010645D02*
X001423Y010645D01*
X001423Y010567D02*
X002955Y010567D01*
X002886Y010488D02*
X001423Y010488D01*
X001423Y010410D02*
X002842Y010410D01*
X003673Y010174D02*
X003808Y010174D01*
X003832Y010096D02*
X003654Y010096D01*
X003618Y010017D02*
X003865Y010017D01*
X003930Y009939D02*
X003557Y009939D01*
X003456Y009860D02*
X004024Y009860D01*
X004035Y009625D02*
X003452Y009625D01*
X003552Y009546D02*
X003934Y009546D01*
X003867Y009468D02*
X003620Y009468D01*
X003652Y009389D02*
X003834Y009389D01*
X003808Y009311D02*
X003678Y009311D01*
X003678Y009232D02*
X003808Y009232D01*
X003808Y009154D02*
X003678Y009154D01*
X003646Y009075D02*
X003841Y009075D01*
X003873Y008997D02*
X003613Y008997D01*
X003537Y008918D02*
X003950Y008918D01*
X004073Y008840D02*
X003413Y008840D01*
X003494Y008604D02*
X003992Y008604D01*
X003914Y008526D02*
X003573Y008526D01*
X003628Y008447D02*
X003858Y008447D01*
X003826Y008369D02*
X003661Y008369D01*
X003678Y008290D02*
X003808Y008290D01*
X003808Y008212D02*
X003678Y008212D01*
X003670Y008133D02*
X003817Y008133D01*
X003849Y008055D02*
X003637Y008055D01*
X003595Y007976D02*
X003892Y007976D01*
X003971Y007898D02*
X003516Y007898D01*
X002971Y007898D02*
X001423Y007898D01*
X001423Y007976D02*
X002892Y007976D01*
X002849Y008055D02*
X001423Y008055D01*
X001423Y008133D02*
X002817Y008133D01*
X002808Y008212D02*
X001423Y008212D01*
X001423Y008290D02*
X002808Y008290D01*
X002826Y008369D02*
X001423Y008369D01*
X001423Y008447D02*
X002858Y008447D01*
X002914Y008526D02*
X001423Y008526D01*
X001423Y008604D02*
X002992Y008604D01*
X003073Y008840D02*
X001423Y008840D01*
X001423Y008918D02*
X002950Y008918D01*
X002873Y008997D02*
X001423Y008997D01*
X001423Y009075D02*
X002841Y009075D01*
X002808Y009154D02*
X001423Y009154D01*
X001423Y009232D02*
X002808Y009232D01*
X002808Y009311D02*
X001423Y009311D01*
X001423Y009389D02*
X002834Y009389D01*
X002867Y009468D02*
X001423Y009468D01*
X001423Y009546D02*
X002934Y009546D01*
X004353Y011666D02*
X004414Y011666D01*
X004540Y012922D02*
X004970Y012922D01*
X005049Y013000D02*
X004615Y013000D01*
X004647Y013079D02*
X005127Y013079D01*
X005206Y013157D02*
X004678Y013157D01*
X004678Y013236D02*
X005284Y013236D01*
X005363Y013314D02*
X004678Y013314D01*
X004651Y013393D02*
X005441Y013393D01*
X004843Y013840D02*
X004843Y016240D01*
X005153Y016376D02*
X007223Y016376D01*
X007223Y016454D02*
X005108Y016454D01*
X005021Y016533D02*
X007223Y016533D01*
X007223Y016297D02*
X005182Y016297D01*
X005182Y016219D02*
X007223Y016219D01*
X007285Y016140D02*
X005168Y016140D01*
X005136Y016062D02*
X028472Y016062D01*
X028472Y016140D02*
X027001Y016140D01*
X026981Y016120D02*
X027063Y016202D01*
X027063Y016878D01*
X026981Y016960D01*
X026305Y016960D01*
X026223Y016878D01*
X026223Y016202D01*
X026305Y016120D01*
X026981Y016120D01*
X027063Y016219D02*
X028472Y016219D01*
X028472Y016297D02*
X027063Y016297D01*
X027063Y016376D02*
X028472Y016376D01*
X028472Y016528D02*
X028472Y017008D01*
X028481Y017044D01*
X028500Y017076D01*
X028526Y017102D01*
X028558Y017120D01*
X028593Y017130D01*
X029103Y017130D01*
X029103Y016528D01*
X029103Y016448D01*
X029183Y016448D01*
X029183Y015846D01*
X029693Y015846D01*
X029729Y015856D01*
X029761Y015874D01*
X029787Y015900D01*
X029805Y015932D01*
X029815Y015968D01*
X029815Y016448D01*
X029183Y016448D01*
X029183Y016528D01*
X029103Y016528D01*
X028472Y016528D01*
X028472Y016533D02*
X027063Y016533D01*
X027063Y016611D02*
X028472Y016611D01*
X028472Y016690D02*
X027063Y016690D01*
X027063Y016768D02*
X028472Y016768D01*
X028472Y016847D02*
X027063Y016847D01*
X027016Y016925D02*
X028472Y016925D01*
X028472Y017004D02*
X001429Y017004D01*
X001429Y017082D02*
X028506Y017082D01*
X029103Y017082D02*
X029183Y017082D01*
X029183Y017130D02*
X029183Y016528D01*
X029815Y016528D01*
X029815Y017008D01*
X029805Y017044D01*
X029787Y017076D01*
X029761Y017102D01*
X029729Y017120D01*
X029693Y017130D01*
X029183Y017130D01*
X029183Y017004D02*
X029103Y017004D01*
X029103Y016925D02*
X029183Y016925D01*
X029183Y016847D02*
X029103Y016847D01*
X029103Y016768D02*
X029183Y016768D01*
X029183Y016690D02*
X029103Y016690D01*
X029103Y016611D02*
X029183Y016611D01*
X029183Y016533D02*
X029103Y016533D01*
X029103Y016454D02*
X027063Y016454D01*
X026285Y016140D02*
X026001Y016140D01*
X025981Y016120D02*
X026063Y016202D01*
X026063Y016878D01*
X025981Y016960D01*
X025305Y016960D01*
X025223Y016878D01*
X025223Y016202D01*
X025305Y016120D01*
X025981Y016120D01*
X026063Y016219D02*
X026223Y016219D01*
X026223Y016297D02*
X026063Y016297D01*
X026063Y016376D02*
X026223Y016376D01*
X026223Y016454D02*
X026063Y016454D01*
X026063Y016533D02*
X026223Y016533D01*
X026223Y016611D02*
X026063Y016611D01*
X026063Y016690D02*
X026223Y016690D01*
X026223Y016768D02*
X026063Y016768D01*
X026063Y016847D02*
X026223Y016847D01*
X026270Y016925D02*
X026016Y016925D01*
X025270Y016925D02*
X025016Y016925D01*
X025009Y016932D02*
X024977Y016950D01*
X024942Y016960D01*
X024683Y016960D01*
X024683Y016580D01*
X024603Y016580D01*
X024603Y016500D01*
X024223Y016500D01*
X024223Y016242D01*
X024233Y016206D01*
X024251Y016174D01*
X024277Y016148D01*
X024309Y016130D01*
X024345Y016120D01*
X024603Y016120D01*
X024603Y016500D01*
X024683Y016500D01*
X024683Y016120D01*
X024942Y016120D01*
X024977Y016130D01*
X025009Y016148D01*
X025035Y016174D01*
X025054Y016206D01*
X025063Y016242D01*
X025063Y016500D01*
X024683Y016500D01*
X024683Y016580D01*
X025063Y016580D01*
X025063Y016838D01*
X025054Y016874D01*
X025035Y016906D01*
X025009Y016932D01*
X025061Y016847D02*
X025223Y016847D01*
X025223Y016768D02*
X025063Y016768D01*
X025063Y016690D02*
X025223Y016690D01*
X025223Y016611D02*
X025063Y016611D01*
X025063Y016454D02*
X025223Y016454D01*
X025223Y016376D02*
X025063Y016376D01*
X025063Y016297D02*
X025223Y016297D01*
X025223Y016219D02*
X025057Y016219D01*
X024996Y016140D02*
X025285Y016140D01*
X025223Y016533D02*
X024683Y016533D01*
X024683Y016611D02*
X024603Y016611D01*
X024603Y016580D02*
X024603Y016960D01*
X024345Y016960D01*
X024309Y016950D01*
X024277Y016932D01*
X024251Y016906D01*
X024233Y016874D01*
X024223Y016838D01*
X024223Y016580D01*
X024603Y016580D01*
X024603Y016533D02*
X024063Y016533D01*
X024063Y016611D02*
X024223Y016611D01*
X024223Y016690D02*
X024063Y016690D01*
X024063Y016768D02*
X024223Y016768D01*
X024226Y016847D02*
X024063Y016847D01*
X024063Y016878D02*
X023981Y016960D01*
X023305Y016960D01*
X023223Y016878D01*
X023223Y016202D01*
X023305Y016120D01*
X023981Y016120D01*
X024063Y016202D01*
X024063Y016878D01*
X024016Y016925D02*
X024270Y016925D01*
X024603Y016925D02*
X024683Y016925D01*
X024683Y016847D02*
X024603Y016847D01*
X024603Y016768D02*
X024683Y016768D01*
X024683Y016690D02*
X024603Y016690D01*
X024603Y016454D02*
X024683Y016454D01*
X024683Y016376D02*
X024603Y016376D01*
X024603Y016297D02*
X024683Y016297D01*
X024683Y016219D02*
X024603Y016219D01*
X024603Y016140D02*
X024683Y016140D01*
X024291Y016140D02*
X024001Y016140D01*
X024063Y016219D02*
X024230Y016219D01*
X024223Y016297D02*
X024063Y016297D01*
X024063Y016376D02*
X024223Y016376D01*
X024223Y016454D02*
X024063Y016454D01*
X023285Y016140D02*
X023001Y016140D01*
X022981Y016120D02*
X023063Y016202D01*
X023063Y016878D01*
X022981Y016960D01*
X022305Y016960D01*
X022223Y016878D01*
X022223Y016202D01*
X022305Y016120D01*
X022981Y016120D01*
X023063Y016219D02*
X023223Y016219D01*
X023223Y016297D02*
X023063Y016297D01*
X023063Y016376D02*
X023223Y016376D01*
X023223Y016454D02*
X023063Y016454D01*
X023063Y016533D02*
X023223Y016533D01*
X023223Y016611D02*
X023063Y016611D01*
X023063Y016690D02*
X023223Y016690D01*
X023223Y016768D02*
X023063Y016768D01*
X023063Y016847D02*
X023223Y016847D01*
X023270Y016925D02*
X023016Y016925D01*
X022270Y016925D02*
X022016Y016925D01*
X021981Y016960D02*
X021305Y016960D01*
X021223Y016878D01*
X021223Y016202D01*
X021305Y016120D01*
X021981Y016120D01*
X022063Y016202D01*
X022063Y016878D01*
X021981Y016960D01*
X022063Y016847D02*
X022223Y016847D01*
X022223Y016768D02*
X022063Y016768D01*
X022063Y016690D02*
X022223Y016690D01*
X022223Y016611D02*
X022063Y016611D01*
X022063Y016533D02*
X022223Y016533D01*
X022223Y016454D02*
X022063Y016454D01*
X022063Y016376D02*
X022223Y016376D01*
X022223Y016297D02*
X022063Y016297D01*
X022063Y016219D02*
X022223Y016219D01*
X022285Y016140D02*
X022001Y016140D01*
X021285Y016140D02*
X020996Y016140D01*
X021009Y016148D02*
X021035Y016174D01*
X021054Y016206D01*
X021063Y016242D01*
X021063Y016500D01*
X020683Y016500D01*
X020683Y016120D01*
X020942Y016120D01*
X020977Y016130D01*
X021009Y016148D01*
X021057Y016219D02*
X021223Y016219D01*
X021223Y016297D02*
X021063Y016297D01*
X021063Y016376D02*
X021223Y016376D01*
X021223Y016454D02*
X021063Y016454D01*
X021063Y016580D02*
X021063Y016838D01*
X021054Y016874D01*
X021035Y016906D01*
X021009Y016932D01*
X020977Y016950D01*
X020942Y016960D01*
X020683Y016960D01*
X020683Y016580D01*
X020603Y016580D01*
X020603Y016500D01*
X020223Y016500D01*
X020223Y016242D01*
X020233Y016206D01*
X020251Y016174D01*
X020277Y016148D01*
X020309Y016130D01*
X020345Y016120D01*
X020603Y016120D01*
X020603Y016500D01*
X020683Y016500D01*
X020683Y016580D01*
X021063Y016580D01*
X021063Y016611D02*
X021223Y016611D01*
X021223Y016533D02*
X020683Y016533D01*
X020683Y016611D02*
X020603Y016611D01*
X020603Y016580D02*
X020603Y016960D01*
X020345Y016960D01*
X020309Y016950D01*
X020277Y016932D01*
X020251Y016906D01*
X020233Y016874D01*
X020223Y016838D01*
X020223Y016580D01*
X020603Y016580D01*
X020603Y016533D02*
X020063Y016533D01*
X020063Y016611D02*
X020223Y016611D01*
X020223Y016690D02*
X020063Y016690D01*
X020063Y016768D02*
X020223Y016768D01*
X020226Y016847D02*
X020063Y016847D01*
X020063Y016878D02*
X019981Y016960D01*
X019305Y016960D01*
X019223Y016878D01*
X019223Y016202D01*
X019305Y016120D01*
X019981Y016120D01*
X020063Y016202D01*
X020063Y016878D01*
X020016Y016925D02*
X020270Y016925D01*
X020603Y016925D02*
X020683Y016925D01*
X020683Y016847D02*
X020603Y016847D01*
X020603Y016768D02*
X020683Y016768D01*
X020683Y016690D02*
X020603Y016690D01*
X020603Y016454D02*
X020683Y016454D01*
X020683Y016376D02*
X020603Y016376D01*
X020603Y016297D02*
X020683Y016297D01*
X020683Y016219D02*
X020603Y016219D01*
X020603Y016140D02*
X020683Y016140D01*
X020291Y016140D02*
X020001Y016140D01*
X020063Y016219D02*
X020230Y016219D01*
X020223Y016297D02*
X020063Y016297D01*
X020063Y016376D02*
X020223Y016376D01*
X020223Y016454D02*
X020063Y016454D01*
X021063Y016690D02*
X021223Y016690D01*
X021223Y016768D02*
X021063Y016768D01*
X021061Y016847D02*
X021223Y016847D01*
X021270Y016925D02*
X021016Y016925D01*
X019270Y016925D02*
X019016Y016925D01*
X018981Y016960D02*
X018305Y016960D01*
X018223Y016878D01*
X018223Y016202D01*
X018305Y016120D01*
X018981Y016120D01*
X019063Y016202D01*
X019063Y016878D01*
X018981Y016960D01*
X019063Y016847D02*
X019223Y016847D01*
X019223Y016768D02*
X019063Y016768D01*
X019063Y016690D02*
X019223Y016690D01*
X019223Y016611D02*
X019063Y016611D01*
X019063Y016533D02*
X019223Y016533D01*
X019223Y016454D02*
X019063Y016454D01*
X019063Y016376D02*
X019223Y016376D01*
X019223Y016297D02*
X019063Y016297D01*
X019063Y016219D02*
X019223Y016219D01*
X019285Y016140D02*
X019001Y016140D01*
X018285Y016140D02*
X018001Y016140D01*
X017981Y016120D02*
X018063Y016202D01*
X018063Y016878D01*
X017981Y016960D01*
X017305Y016960D01*
X017223Y016878D01*
X017223Y016202D01*
X017305Y016120D01*
X017981Y016120D01*
X018063Y016219D02*
X018223Y016219D01*
X018223Y016297D02*
X018063Y016297D01*
X018063Y016376D02*
X018223Y016376D01*
X018223Y016454D02*
X018063Y016454D01*
X018063Y016533D02*
X018223Y016533D01*
X018223Y016611D02*
X018063Y016611D01*
X018063Y016690D02*
X018223Y016690D01*
X018223Y016768D02*
X018063Y016768D01*
X018063Y016847D02*
X018223Y016847D01*
X018270Y016925D02*
X018016Y016925D01*
X017270Y016925D02*
X017016Y016925D01*
X016981Y016960D02*
X016305Y016960D01*
X016223Y016878D01*
X016223Y016202D01*
X016305Y016120D01*
X016981Y016120D01*
X017063Y016202D01*
X017063Y016878D01*
X016981Y016960D01*
X017063Y016847D02*
X017223Y016847D01*
X017223Y016768D02*
X017063Y016768D01*
X017063Y016690D02*
X017223Y016690D01*
X017223Y016611D02*
X017063Y016611D01*
X017063Y016533D02*
X017223Y016533D01*
X017223Y016454D02*
X017063Y016454D01*
X017063Y016376D02*
X017223Y016376D01*
X017223Y016297D02*
X017063Y016297D01*
X017063Y016219D02*
X017223Y016219D01*
X017285Y016140D02*
X017001Y016140D01*
X016285Y016140D02*
X016001Y016140D01*
X015981Y016120D02*
X016063Y016202D01*
X016063Y016878D01*
X015981Y016960D01*
X015305Y016960D01*
X015223Y016878D01*
X015223Y016202D01*
X015305Y016120D01*
X015981Y016120D01*
X016063Y016219D02*
X016223Y016219D01*
X016223Y016297D02*
X016063Y016297D01*
X016063Y016376D02*
X016223Y016376D01*
X016223Y016454D02*
X016063Y016454D01*
X016063Y016533D02*
X016223Y016533D01*
X016223Y016611D02*
X016063Y016611D01*
X016063Y016690D02*
X016223Y016690D01*
X016223Y016768D02*
X016063Y016768D01*
X016063Y016847D02*
X016223Y016847D01*
X016270Y016925D02*
X016016Y016925D01*
X015270Y016925D02*
X015016Y016925D01*
X014981Y016960D02*
X014305Y016960D01*
X014223Y016878D01*
X014223Y016202D01*
X014305Y016120D01*
X014981Y016120D01*
X015063Y016202D01*
X015063Y016878D01*
X014981Y016960D01*
X015063Y016847D02*
X015223Y016847D01*
X015223Y016768D02*
X015063Y016768D01*
X015063Y016690D02*
X015223Y016690D01*
X015223Y016611D02*
X015063Y016611D01*
X015063Y016533D02*
X015223Y016533D01*
X015223Y016454D02*
X015063Y016454D01*
X015063Y016376D02*
X015223Y016376D01*
X015223Y016297D02*
X015063Y016297D01*
X015063Y016219D02*
X015223Y016219D01*
X015285Y016140D02*
X015001Y016140D01*
X014285Y016140D02*
X014001Y016140D01*
X013981Y016120D02*
X014063Y016202D01*
X014063Y016878D01*
X013981Y016960D01*
X013305Y016960D01*
X013223Y016878D01*
X013223Y016202D01*
X013305Y016120D01*
X013981Y016120D01*
X014063Y016219D02*
X014223Y016219D01*
X014223Y016297D02*
X014063Y016297D01*
X014063Y016376D02*
X014223Y016376D01*
X014223Y016454D02*
X014063Y016454D01*
X014063Y016533D02*
X014223Y016533D01*
X014223Y016611D02*
X014063Y016611D01*
X014063Y016690D02*
X014223Y016690D01*
X014223Y016768D02*
X014063Y016768D01*
X014063Y016847D02*
X014223Y016847D01*
X014270Y016925D02*
X014016Y016925D01*
X013270Y016925D02*
X013016Y016925D01*
X012981Y016960D02*
X012305Y016960D01*
X012223Y016878D01*
X012223Y016202D01*
X012305Y016120D01*
X012981Y016120D01*
X013063Y016202D01*
X013063Y016878D01*
X012981Y016960D01*
X013063Y016847D02*
X013223Y016847D01*
X013223Y016768D02*
X013063Y016768D01*
X013063Y016690D02*
X013223Y016690D01*
X013223Y016611D02*
X013063Y016611D01*
X013063Y016533D02*
X013223Y016533D01*
X013223Y016454D02*
X013063Y016454D01*
X013063Y016376D02*
X013223Y016376D01*
X013223Y016297D02*
X013063Y016297D01*
X013063Y016219D02*
X013223Y016219D01*
X013285Y016140D02*
X013001Y016140D01*
X012285Y016140D02*
X012001Y016140D01*
X011981Y016120D02*
X012063Y016202D01*
X012063Y016878D01*
X011981Y016960D01*
X011305Y016960D01*
X011223Y016878D01*
X011223Y016202D01*
X011305Y016120D01*
X011981Y016120D01*
X012063Y016219D02*
X012223Y016219D01*
X012223Y016297D02*
X012063Y016297D01*
X012063Y016376D02*
X012223Y016376D01*
X012223Y016454D02*
X012063Y016454D01*
X012063Y016533D02*
X012223Y016533D01*
X012223Y016611D02*
X012063Y016611D01*
X012063Y016690D02*
X012223Y016690D01*
X012223Y016768D02*
X012063Y016768D01*
X012063Y016847D02*
X012223Y016847D01*
X012270Y016925D02*
X012016Y016925D01*
X011270Y016925D02*
X011016Y016925D01*
X011063Y016847D02*
X011223Y016847D01*
X011223Y016768D02*
X011063Y016768D01*
X011063Y016690D02*
X011223Y016690D01*
X011223Y016611D02*
X011063Y016611D01*
X011063Y016533D02*
X011223Y016533D01*
X011223Y016454D02*
X011063Y016454D01*
X011063Y016376D02*
X011223Y016376D01*
X011223Y016297D02*
X011063Y016297D01*
X011063Y016219D02*
X011223Y016219D01*
X011285Y016140D02*
X011001Y016140D01*
X009882Y015434D02*
X007719Y015434D01*
X007807Y015355D02*
X009804Y015355D01*
X009843Y015140D02*
X007543Y015140D01*
X007766Y014884D02*
X012733Y014884D01*
X012654Y014806D02*
X009156Y014806D01*
X009232Y014727D02*
X012576Y014727D01*
X012497Y014649D02*
X009265Y014649D01*
X009282Y014570D02*
X012419Y014570D01*
X012340Y014492D02*
X009282Y014492D01*
X009325Y014413D02*
X012262Y014413D01*
X012183Y014335D02*
X009403Y014335D01*
X009482Y014256D02*
X012105Y014256D01*
X012026Y014178D02*
X009560Y014178D01*
X009639Y014099D02*
X011948Y014099D01*
X011645Y014021D02*
X011441Y014021D01*
X011520Y013942D02*
X011567Y013942D01*
X011843Y013740D02*
X013343Y015240D01*
X013662Y015355D02*
X030250Y015355D01*
X030171Y015434D02*
X013628Y015434D01*
X013550Y015512D02*
X030130Y015512D01*
X030443Y015640D02*
X030443Y015954D01*
X031029Y016540D01*
X030884Y016140D02*
X032229Y016140D01*
X032226Y016219D02*
X032229Y016219D01*
X032294Y016062D02*
X030805Y016062D01*
X030727Y015983D02*
X034963Y015983D01*
X034963Y015905D02*
X030657Y015905D01*
X030733Y015826D02*
X034963Y015826D01*
X034963Y015748D02*
X030765Y015748D01*
X030782Y015669D02*
X034963Y015669D01*
X034963Y015591D02*
X030782Y015591D01*
X030757Y015512D02*
X034963Y015512D01*
X034963Y015434D02*
X030715Y015434D01*
X030637Y015355D02*
X034963Y015355D01*
X034963Y015277D02*
X034133Y015277D01*
X034130Y015281D02*
X034104Y015307D01*
X034072Y015325D01*
X034037Y015335D01*
X033743Y015335D01*
X033743Y014880D01*
X033663Y014880D01*
X033663Y014800D01*
X033248Y014800D01*
X033248Y014467D01*
X033258Y014431D01*
X033276Y014399D01*
X033302Y014373D01*
X033334Y014355D01*
X033370Y014345D01*
X033663Y014345D01*
X033663Y014800D01*
X033743Y014800D01*
X033743Y014345D01*
X034037Y014345D01*
X034072Y014355D01*
X034104Y014373D01*
X034130Y014399D01*
X034149Y014431D01*
X034158Y014467D01*
X034158Y014800D01*
X033743Y014800D01*
X033743Y014880D01*
X034158Y014880D01*
X034158Y015213D01*
X034149Y015249D01*
X034130Y015281D01*
X034158Y015198D02*
X034963Y015198D01*
X034963Y015120D02*
X034158Y015120D01*
X034158Y015041D02*
X034963Y015041D01*
X034963Y014963D02*
X034158Y014963D01*
X034158Y014884D02*
X034963Y014884D01*
X034963Y014806D02*
X033743Y014806D01*
X033743Y014884D02*
X033663Y014884D01*
X033663Y014880D02*
X033663Y015335D01*
X033370Y015335D01*
X033334Y015325D01*
X033302Y015307D01*
X033276Y015281D01*
X033258Y015249D01*
X033248Y015213D01*
X033248Y014880D01*
X033663Y014880D01*
X033663Y014806D02*
X033038Y014806D01*
X033038Y014884D02*
X033248Y014884D01*
X033248Y014963D02*
X033038Y014963D01*
X033038Y015041D02*
X033248Y015041D01*
X033248Y015120D02*
X033038Y015120D01*
X033038Y015198D02*
X033248Y015198D01*
X033274Y015277D02*
X033015Y015277D01*
X033038Y015253D02*
X032956Y015335D01*
X032211Y015335D01*
X032129Y015253D01*
X032129Y015159D01*
X032111Y015177D01*
X031404Y015177D01*
X031343Y015116D01*
X031282Y015177D01*
X030576Y015177D01*
X030494Y015095D01*
X030494Y014688D01*
X029998Y014192D01*
X029815Y014192D01*
X029815Y014552D01*
X029733Y014634D01*
X028554Y014634D01*
X028472Y014552D01*
X028472Y013432D01*
X028543Y013361D01*
X028543Y013019D01*
X028436Y012912D01*
X028363Y012735D01*
X028363Y012545D01*
X028436Y012368D01*
X028571Y012233D01*
X028748Y012160D01*
X028939Y012160D01*
X029115Y012233D01*
X029250Y012368D01*
X029323Y012545D01*
X029323Y012735D01*
X029250Y012912D01*
X029143Y013019D01*
X029143Y013350D01*
X029733Y013350D01*
X029815Y013432D01*
X029815Y013792D01*
X030164Y013792D01*
X030875Y014503D01*
X031282Y014503D01*
X031343Y014564D01*
X031404Y014503D01*
X032111Y014503D01*
X032129Y014521D01*
X032129Y014427D01*
X032211Y014345D01*
X032956Y014345D01*
X033038Y014427D01*
X033038Y015253D01*
X033663Y015277D02*
X033743Y015277D01*
X033743Y015198D02*
X033663Y015198D01*
X033663Y015120D02*
X033743Y015120D01*
X033743Y015041D02*
X033663Y015041D01*
X033663Y014963D02*
X033743Y014963D01*
X033743Y014727D02*
X033663Y014727D01*
X033663Y014649D02*
X033743Y014649D01*
X033743Y014570D02*
X033663Y014570D01*
X033663Y014492D02*
X033743Y014492D01*
X033743Y014413D02*
X033663Y014413D01*
X033268Y014413D02*
X033024Y014413D01*
X033038Y014492D02*
X033248Y014492D01*
X033248Y014570D02*
X033038Y014570D01*
X033038Y014649D02*
X033248Y014649D01*
X033248Y014727D02*
X033038Y014727D01*
X034138Y014413D02*
X034963Y014413D01*
X034963Y014335D02*
X030706Y014335D01*
X030785Y014413D02*
X032143Y014413D01*
X032129Y014492D02*
X030863Y014492D01*
X030628Y014256D02*
X034963Y014256D01*
X034963Y014178D02*
X030549Y014178D01*
X030471Y014099D02*
X034963Y014099D01*
X034963Y014021D02*
X030392Y014021D01*
X030314Y013942D02*
X034963Y013942D01*
X034963Y013864D02*
X030235Y013864D01*
X029815Y013785D02*
X034963Y013785D01*
X034963Y013707D02*
X029815Y013707D01*
X029815Y013628D02*
X034963Y013628D01*
X034963Y013550D02*
X033573Y013550D01*
X033604Y013533D02*
X033540Y013566D01*
X033471Y013589D01*
X033400Y013600D01*
X033083Y013600D01*
X033083Y013180D01*
X033003Y013180D01*
X033003Y013100D01*
X032264Y013100D01*
X032275Y013032D01*
X032297Y012963D01*
X032330Y012899D01*
X032372Y012840D01*
X032424Y012789D01*
X032482Y012747D01*
X032547Y012714D01*
X032616Y012691D01*
X032687Y012680D01*
X033003Y012680D01*
X033003Y013100D01*
X033083Y013100D01*
X033083Y012680D01*
X033400Y012680D01*
X033471Y012691D01*
X033540Y012714D01*
X033604Y012747D01*
X033663Y012789D01*
X033714Y012840D01*
X033757Y012899D01*
X033790Y012963D01*
X033812Y013032D01*
X033823Y013100D01*
X033083Y013100D01*
X033083Y013180D01*
X033823Y013180D01*
X033812Y013248D01*
X033790Y013317D01*
X033757Y013381D01*
X033714Y013440D01*
X033663Y013491D01*
X033604Y013533D01*
X033683Y013471D02*
X034963Y013471D01*
X034963Y013393D02*
X033748Y013393D01*
X033790Y013314D02*
X034963Y013314D01*
X034963Y013236D02*
X033814Y013236D01*
X033819Y013079D02*
X034963Y013079D01*
X034963Y013157D02*
X033083Y013157D01*
X033083Y013079D02*
X033003Y013079D01*
X033003Y013157D02*
X029143Y013157D01*
X029143Y013079D02*
X032267Y013079D01*
X032285Y013000D02*
X029162Y013000D01*
X029241Y012922D02*
X032318Y012922D01*
X032370Y012843D02*
X029279Y012843D01*
X029311Y012765D02*
X029570Y012765D01*
X029585Y012780D02*
X029503Y012698D01*
X029503Y011682D01*
X029585Y011600D01*
X030901Y011600D01*
X030983Y011682D01*
X030983Y011840D01*
X032373Y011840D01*
X032463Y011750D01*
X032632Y011680D01*
X033455Y011680D01*
X033624Y011750D01*
X033753Y011879D01*
X033823Y012048D01*
X033823Y012231D01*
X033753Y012401D01*
X033624Y012530D01*
X033455Y012600D01*
X032632Y012600D01*
X032463Y012530D01*
X032373Y012440D01*
X030983Y012440D01*
X030983Y012698D01*
X030901Y012780D01*
X029585Y012780D01*
X029503Y012686D02*
X029323Y012686D01*
X029323Y012608D02*
X029503Y012608D01*
X029503Y012529D02*
X029317Y012529D01*
X029284Y012451D02*
X029503Y012451D01*
X029503Y012372D02*
X029252Y012372D01*
X029176Y012294D02*
X029503Y012294D01*
X029503Y012215D02*
X029072Y012215D01*
X029503Y012137D02*
X026818Y012137D01*
X026830Y012148D02*
X026882Y012273D01*
X026882Y012407D01*
X026830Y012532D01*
X026735Y012627D01*
X026611Y012678D01*
X026476Y012678D01*
X026352Y012627D01*
X026256Y012532D01*
X026205Y012407D01*
X026205Y012273D01*
X026256Y012148D01*
X026352Y012053D01*
X026363Y012048D01*
X026363Y005960D01*
X026305Y005960D01*
X026223Y005878D01*
X026223Y005202D01*
X026305Y005120D01*
X026981Y005120D01*
X027063Y005202D01*
X027063Y005878D01*
X026981Y005960D01*
X026723Y005960D01*
X026723Y012048D01*
X026735Y012053D01*
X026830Y012148D01*
X026858Y012215D02*
X028615Y012215D01*
X028511Y012294D02*
X026882Y012294D01*
X026882Y012372D02*
X028435Y012372D01*
X028402Y012451D02*
X026864Y012451D01*
X026831Y012529D02*
X028370Y012529D01*
X028363Y012608D02*
X026754Y012608D01*
X026543Y012340D02*
X026543Y005640D01*
X026643Y005540D01*
X026223Y005543D02*
X026063Y005543D01*
X026063Y005621D02*
X026223Y005621D01*
X026223Y005700D02*
X026063Y005700D01*
X026063Y005778D02*
X026223Y005778D01*
X026223Y005857D02*
X026063Y005857D01*
X026006Y005935D02*
X026280Y005935D01*
X026363Y006014D02*
X025823Y006014D01*
X025823Y006092D02*
X026363Y006092D01*
X026363Y006171D02*
X025823Y006171D01*
X025823Y006249D02*
X026363Y006249D01*
X026363Y006328D02*
X025823Y006328D01*
X025823Y006406D02*
X026363Y006406D01*
X026363Y006485D02*
X025823Y006485D01*
X025823Y006563D02*
X026363Y006563D01*
X026363Y006642D02*
X025823Y006642D01*
X025823Y006720D02*
X026363Y006720D01*
X026363Y006799D02*
X025823Y006799D01*
X025823Y006877D02*
X026363Y006877D01*
X026363Y006956D02*
X025823Y006956D01*
X025823Y007034D02*
X026363Y007034D01*
X026363Y007113D02*
X025823Y007113D01*
X025823Y007191D02*
X026363Y007191D01*
X026363Y007270D02*
X025823Y007270D01*
X025823Y007348D02*
X026363Y007348D01*
X026363Y007427D02*
X025823Y007427D01*
X025823Y007505D02*
X026363Y007505D01*
X026363Y007584D02*
X025823Y007584D01*
X025823Y007662D02*
X026363Y007662D01*
X026363Y007741D02*
X025823Y007741D01*
X025823Y007819D02*
X026363Y007819D01*
X026363Y007898D02*
X025823Y007898D01*
X025823Y007976D02*
X026363Y007976D01*
X026363Y008055D02*
X025823Y008055D01*
X025823Y008133D02*
X026363Y008133D01*
X026363Y008212D02*
X025823Y008212D01*
X025823Y008290D02*
X026363Y008290D01*
X026363Y008369D02*
X025823Y008369D01*
X025823Y008447D02*
X026363Y008447D01*
X026363Y008526D02*
X025823Y008526D01*
X025823Y008604D02*
X026363Y008604D01*
X026363Y008683D02*
X025823Y008683D01*
X025823Y008761D02*
X026363Y008761D01*
X026363Y008840D02*
X025823Y008840D01*
X025823Y008918D02*
X026363Y008918D01*
X026363Y008997D02*
X025823Y008997D01*
X025823Y009075D02*
X026363Y009075D01*
X026363Y009154D02*
X025823Y009154D01*
X025823Y009232D02*
X026363Y009232D01*
X026363Y009311D02*
X025823Y009311D01*
X025823Y009389D02*
X026363Y009389D01*
X026363Y009468D02*
X025823Y009468D01*
X025823Y009546D02*
X026363Y009546D01*
X026363Y009625D02*
X025823Y009625D01*
X025823Y009703D02*
X026363Y009703D01*
X026363Y009782D02*
X025823Y009782D01*
X025823Y009860D02*
X026363Y009860D01*
X026363Y009939D02*
X025823Y009939D01*
X025823Y010017D02*
X026363Y010017D01*
X026363Y010096D02*
X025823Y010096D01*
X025823Y010174D02*
X026363Y010174D01*
X026363Y010253D02*
X025823Y010253D01*
X025823Y010331D02*
X026363Y010331D01*
X026363Y010410D02*
X025823Y010410D01*
X025823Y010488D02*
X026363Y010488D01*
X026363Y010567D02*
X025823Y010567D01*
X025823Y010645D02*
X026363Y010645D01*
X026363Y010724D02*
X025823Y010724D01*
X025823Y010802D02*
X026363Y010802D01*
X026363Y010881D02*
X025823Y010881D01*
X025823Y010959D02*
X026363Y010959D01*
X026363Y011038D02*
X025823Y011038D01*
X025823Y011116D02*
X026363Y011116D01*
X026363Y011195D02*
X025823Y011195D01*
X025823Y011273D02*
X026363Y011273D01*
X026363Y011352D02*
X025823Y011352D01*
X025823Y011430D02*
X026363Y011430D01*
X026363Y011509D02*
X025823Y011509D01*
X025823Y011587D02*
X026363Y011587D01*
X026363Y011666D02*
X025823Y011666D01*
X025823Y011744D02*
X026363Y011744D01*
X026363Y011823D02*
X025823Y011823D01*
X025823Y011901D02*
X026363Y011901D01*
X026363Y011980D02*
X025823Y011980D01*
X025823Y012058D02*
X026347Y012058D01*
X026268Y012137D02*
X025823Y012137D01*
X025823Y012215D02*
X026229Y012215D01*
X026205Y012294D02*
X025823Y012294D01*
X025823Y012372D02*
X026205Y012372D01*
X026223Y012451D02*
X025823Y012451D01*
X025823Y012529D02*
X026255Y012529D01*
X026332Y012608D02*
X025823Y012608D01*
X025823Y012686D02*
X028363Y012686D01*
X028375Y012765D02*
X025823Y012765D01*
X025823Y012843D02*
X028408Y012843D01*
X028446Y012922D02*
X025823Y012922D01*
X025823Y013000D02*
X028525Y013000D01*
X028543Y013079D02*
X025860Y013079D01*
X025934Y013157D02*
X028543Y013157D01*
X028543Y013236D02*
X025966Y013236D01*
X025982Y013314D02*
X028543Y013314D01*
X028511Y013393D02*
X025982Y013393D01*
X025955Y013471D02*
X028472Y013471D01*
X028472Y013550D02*
X025912Y013550D01*
X025832Y013628D02*
X028472Y013628D01*
X028472Y013707D02*
X017303Y013707D01*
X017303Y013785D02*
X028472Y013785D01*
X028472Y013864D02*
X017303Y013864D01*
X017303Y013942D02*
X028472Y013942D01*
X028472Y014021D02*
X017358Y014021D01*
X017394Y014099D02*
X028472Y014099D01*
X028472Y014178D02*
X017421Y014178D01*
X017421Y014256D02*
X028472Y014256D01*
X028472Y014335D02*
X017413Y014335D01*
X017381Y014413D02*
X028472Y014413D01*
X028472Y014492D02*
X017326Y014492D01*
X017234Y014570D02*
X028490Y014570D01*
X029797Y014570D02*
X030376Y014570D01*
X030298Y014492D02*
X029815Y014492D01*
X029815Y014413D02*
X030219Y014413D01*
X030141Y014335D02*
X029815Y014335D01*
X029815Y014256D02*
X030062Y014256D01*
X030455Y014649D02*
X014130Y014649D01*
X014163Y014727D02*
X030494Y014727D01*
X030494Y014806D02*
X014182Y014806D01*
X014182Y014884D02*
X030494Y014884D01*
X030494Y014963D02*
X014159Y014963D01*
X014121Y015041D02*
X030494Y015041D01*
X030518Y015120D02*
X014042Y015120D01*
X013843Y014840D02*
X011943Y012940D01*
X009843Y012940D01*
X007143Y010240D01*
X007143Y009340D01*
X007457Y009468D02*
X016783Y009468D01*
X016783Y009546D02*
X007416Y009546D01*
X007337Y009625D02*
X016783Y009625D01*
X016783Y009703D02*
X007323Y009703D01*
X007323Y009782D02*
X016783Y009782D01*
X016783Y009860D02*
X007323Y009860D01*
X007323Y009939D02*
X016783Y009939D01*
X016783Y010017D02*
X011275Y010017D01*
X011353Y010096D02*
X016783Y010096D01*
X016783Y010174D02*
X011432Y010174D01*
X011510Y010253D02*
X016783Y010253D01*
X016783Y010331D02*
X011589Y010331D01*
X011667Y010410D02*
X016783Y010410D01*
X016783Y010488D02*
X011746Y010488D01*
X011824Y010567D02*
X016783Y010567D01*
X016783Y010645D02*
X011903Y010645D01*
X011981Y010724D02*
X016783Y010724D01*
X016783Y010802D02*
X012060Y010802D01*
X012138Y010881D02*
X016783Y010881D01*
X016783Y010959D02*
X012217Y010959D01*
X012295Y011038D02*
X016783Y011038D01*
X016783Y011116D02*
X012374Y011116D01*
X012452Y011195D02*
X016783Y011195D01*
X016783Y011273D02*
X012531Y011273D01*
X012609Y011352D02*
X016783Y011352D01*
X016783Y011430D02*
X012688Y011430D01*
X012766Y011509D02*
X016783Y011509D01*
X016783Y011587D02*
X012845Y011587D01*
X012923Y011666D02*
X016783Y011666D01*
X016783Y011744D02*
X013213Y011744D01*
X013304Y011823D02*
X016783Y011823D01*
X016783Y011901D02*
X013352Y011901D01*
X013382Y011980D02*
X016783Y011980D01*
X016783Y012058D02*
X013382Y012058D01*
X013370Y012137D02*
X016783Y012137D01*
X016783Y012215D02*
X013337Y012215D01*
X013268Y012294D02*
X016783Y012294D01*
X016783Y012372D02*
X013126Y012372D01*
X012961Y012372D02*
X011255Y012372D01*
X011282Y012294D02*
X012818Y012294D01*
X012750Y012215D02*
X011282Y012215D01*
X011267Y012137D02*
X012717Y012137D01*
X012705Y012058D02*
X011234Y012058D01*
X011161Y011980D02*
X012705Y011980D01*
X012650Y011901D02*
X011123Y011901D01*
X011123Y011823D02*
X012571Y011823D01*
X012493Y011744D02*
X011123Y011744D01*
X011123Y011666D02*
X012414Y011666D01*
X012336Y011587D02*
X011123Y011587D01*
X011123Y011509D02*
X012257Y011509D01*
X012179Y011430D02*
X011123Y011430D01*
X011123Y011352D02*
X012100Y011352D01*
X012022Y011273D02*
X011123Y011273D01*
X011123Y011195D02*
X011943Y011195D01*
X011865Y011116D02*
X011123Y011116D01*
X011123Y011038D02*
X011786Y011038D01*
X011708Y010959D02*
X011123Y010959D01*
X011181Y010881D02*
X011629Y010881D01*
X011551Y010802D02*
X011243Y010802D01*
X011275Y010724D02*
X011472Y010724D01*
X011394Y010645D02*
X011282Y010645D01*
X011279Y010567D02*
X011315Y010567D01*
X010943Y010640D02*
X010943Y012240D01*
X010632Y012372D02*
X009930Y012372D01*
X010008Y012451D02*
X010675Y012451D01*
X010605Y012294D02*
X009851Y012294D01*
X009773Y012215D02*
X010605Y012215D01*
X010620Y012137D02*
X009694Y012137D01*
X009616Y012058D02*
X010652Y012058D01*
X010725Y011980D02*
X009537Y011980D01*
X009461Y011901D02*
X010763Y011901D01*
X010763Y011823D02*
X009534Y011823D01*
X009567Y011744D02*
X010763Y011744D01*
X010763Y011666D02*
X009582Y011666D01*
X009582Y011587D02*
X010763Y011587D01*
X010763Y011509D02*
X009555Y011509D01*
X009512Y011430D02*
X010763Y011430D01*
X010763Y011352D02*
X009431Y011352D01*
X009243Y011640D02*
X009243Y011940D01*
X009943Y012640D01*
X012743Y012640D01*
X013443Y013340D01*
X013131Y013471D02*
X012729Y013471D01*
X012807Y013550D02*
X013174Y013550D01*
X013254Y013628D02*
X012886Y013628D01*
X012964Y013707D02*
X016783Y013707D01*
X016783Y013785D02*
X013043Y013785D01*
X013121Y013864D02*
X016783Y013864D01*
X016783Y013942D02*
X013200Y013942D01*
X013278Y014021D02*
X016729Y014021D01*
X016693Y014099D02*
X013357Y014099D01*
X013435Y014178D02*
X016666Y014178D01*
X016666Y014256D02*
X013514Y014256D01*
X013592Y014335D02*
X016674Y014335D01*
X016706Y014413D02*
X013671Y014413D01*
X013749Y014492D02*
X016761Y014492D01*
X016853Y014570D02*
X014052Y014570D01*
X013505Y014806D02*
X013163Y014806D01*
X013242Y014884D02*
X013505Y014884D01*
X013476Y014727D02*
X013085Y014727D01*
X013006Y014649D02*
X013397Y014649D01*
X013319Y014570D02*
X012928Y014570D01*
X012849Y014492D02*
X013240Y014492D01*
X013162Y014413D02*
X012771Y014413D01*
X012692Y014335D02*
X013083Y014335D01*
X013005Y014256D02*
X012614Y014256D01*
X012535Y014178D02*
X012926Y014178D01*
X012848Y014099D02*
X012457Y014099D01*
X012378Y014021D02*
X012769Y014021D01*
X012691Y013942D02*
X012300Y013942D01*
X012221Y013864D02*
X012612Y013864D01*
X012534Y013785D02*
X012182Y013785D01*
X012182Y013707D02*
X012455Y013707D01*
X012377Y013628D02*
X012163Y013628D01*
X012131Y013550D02*
X012298Y013550D01*
X012220Y013471D02*
X012053Y013471D01*
X011634Y013471D02*
X011453Y013471D01*
X011531Y013550D02*
X011556Y013550D01*
X011243Y013740D02*
X009743Y013740D01*
X008943Y014540D01*
X009717Y014021D02*
X011045Y014021D01*
X010967Y013942D02*
X009796Y013942D01*
X011211Y012451D02*
X016783Y012451D01*
X016783Y012529D02*
X012887Y012529D01*
X012965Y012608D02*
X016783Y012608D01*
X016783Y012686D02*
X013044Y012686D01*
X013122Y012765D02*
X016783Y012765D01*
X016783Y012843D02*
X013201Y012843D01*
X013279Y012922D02*
X016783Y012922D01*
X016783Y013000D02*
X013358Y013000D01*
X013660Y013079D02*
X016783Y013079D01*
X016783Y013157D02*
X013734Y013157D01*
X013766Y013236D02*
X016783Y013236D01*
X016783Y013314D02*
X013782Y013314D01*
X013782Y013393D02*
X016783Y013393D01*
X016783Y013471D02*
X013755Y013471D01*
X013712Y013550D02*
X016783Y013550D01*
X016783Y013628D02*
X013632Y013628D01*
X013105Y013393D02*
X012650Y013393D01*
X012572Y013314D02*
X013105Y013314D01*
X013084Y013236D02*
X012493Y013236D01*
X012415Y013157D02*
X013006Y013157D01*
X012927Y013079D02*
X012336Y013079D01*
X012258Y013000D02*
X012849Y013000D01*
X012770Y012922D02*
X012179Y012922D01*
X012101Y012843D02*
X012692Y012843D01*
X013043Y012040D02*
X011143Y010140D01*
X010643Y010140D01*
X009843Y010940D01*
X008643Y010940D01*
X008334Y010802D02*
X007960Y010802D01*
X008038Y010881D02*
X008305Y010881D01*
X008305Y010959D02*
X008117Y010959D01*
X008195Y011038D02*
X008317Y011038D01*
X008350Y011116D02*
X008274Y011116D01*
X008352Y011195D02*
X008419Y011195D01*
X008431Y011273D02*
X008563Y011273D01*
X008509Y011352D02*
X009055Y011352D01*
X008975Y011430D02*
X008588Y011430D01*
X008666Y011509D02*
X008931Y011509D01*
X008905Y011587D02*
X008745Y011587D01*
X008823Y011666D02*
X008905Y011666D01*
X008902Y011744D02*
X008920Y011744D01*
X008724Y011273D02*
X010763Y011273D01*
X010763Y011195D02*
X008867Y011195D01*
X008905Y010724D02*
X009805Y010724D01*
X009884Y010645D02*
X008816Y010645D01*
X008471Y010645D02*
X007803Y010645D01*
X007881Y010724D02*
X008381Y010724D01*
X007724Y010567D02*
X009962Y010567D01*
X010041Y010488D02*
X007646Y010488D01*
X007567Y010410D02*
X010119Y010410D01*
X010198Y010331D02*
X007489Y010331D01*
X007410Y010253D02*
X010276Y010253D01*
X010355Y010174D02*
X007332Y010174D01*
X007323Y010096D02*
X010433Y010096D01*
X010512Y010017D02*
X007323Y010017D01*
X007482Y009389D02*
X016783Y009389D01*
X016783Y009311D02*
X007482Y009311D01*
X007465Y009232D02*
X016783Y009232D01*
X016783Y009154D02*
X007432Y009154D01*
X007357Y009075D02*
X016783Y009075D01*
X017303Y009075D02*
X025463Y009075D01*
X025463Y008997D02*
X017303Y008997D01*
X017303Y008918D02*
X025463Y008918D01*
X025463Y008840D02*
X017303Y008840D01*
X017303Y008761D02*
X025463Y008761D01*
X025463Y008683D02*
X017303Y008683D01*
X017303Y008604D02*
X025463Y008604D01*
X025463Y008526D02*
X017303Y008526D01*
X017303Y008447D02*
X025463Y008447D01*
X025463Y008369D02*
X017303Y008369D01*
X017303Y008290D02*
X025463Y008290D01*
X025463Y008212D02*
X017303Y008212D01*
X017303Y008133D02*
X025463Y008133D01*
X025463Y008055D02*
X017303Y008055D01*
X017303Y007976D02*
X025463Y007976D01*
X025463Y007898D02*
X017303Y007898D01*
X017303Y007819D02*
X025463Y007819D01*
X025463Y007741D02*
X017303Y007741D01*
X017303Y007662D02*
X025463Y007662D01*
X025463Y007584D02*
X017334Y007584D01*
X017384Y007505D02*
X025463Y007505D01*
X025463Y007427D02*
X017416Y007427D01*
X017421Y007348D02*
X025463Y007348D01*
X025463Y007270D02*
X017421Y007270D01*
X017391Y007191D02*
X025463Y007191D01*
X025463Y007113D02*
X017350Y007113D01*
X017272Y007034D02*
X025463Y007034D01*
X025463Y006956D02*
X009433Y006956D01*
X009466Y007034D02*
X016815Y007034D01*
X016737Y007113D02*
X009482Y007113D01*
X009482Y007191D02*
X016696Y007191D01*
X016666Y007270D02*
X009456Y007270D01*
X009414Y007348D02*
X016666Y007348D01*
X016670Y007427D02*
X009335Y007427D01*
X009143Y007140D02*
X005743Y007140D01*
X005069Y006720D02*
X001423Y006720D01*
X001423Y006642D02*
X004990Y006642D01*
X004912Y006563D02*
X001423Y006563D01*
X001423Y006485D02*
X004833Y006485D01*
X004755Y006406D02*
X001423Y006406D01*
X001423Y006328D02*
X004676Y006328D01*
X004598Y006249D02*
X001423Y006249D01*
X001423Y006171D02*
X004519Y006171D01*
X004441Y006092D02*
X001423Y006092D01*
X001423Y006014D02*
X004362Y006014D01*
X004071Y005935D02*
X001423Y005935D01*
X001423Y005857D02*
X003981Y005857D01*
X004963Y004840D02*
X004963Y004212D01*
X005045Y004130D01*
X005771Y004130D01*
X005853Y004212D01*
X005853Y004840D01*
X005771Y004922D01*
X005045Y004922D01*
X004963Y004840D01*
X004963Y004836D02*
X002714Y004836D01*
X002696Y004868D01*
X002669Y004894D01*
X002638Y004912D01*
X002602Y004922D01*
X002318Y004922D01*
X002318Y004566D01*
X002238Y004566D01*
X002238Y004486D01*
X001833Y004486D01*
X001833Y004251D01*
X001843Y004216D01*
X001861Y004184D01*
X001887Y004158D01*
X001919Y004139D01*
X001955Y004130D01*
X002238Y004130D01*
X002238Y004486D01*
X002318Y004486D01*
X002318Y004130D01*
X002602Y004130D01*
X002638Y004139D01*
X002669Y004158D01*
X002696Y004184D01*
X002714Y004216D01*
X002723Y004251D01*
X002723Y004486D01*
X002318Y004486D01*
X002318Y004566D01*
X002723Y004566D01*
X002723Y004800D01*
X002714Y004836D01*
X002723Y004758D02*
X004963Y004758D01*
X004963Y004679D02*
X002723Y004679D01*
X002723Y004601D02*
X004963Y004601D01*
X004963Y004522D02*
X002318Y004522D01*
X002318Y004444D02*
X002238Y004444D01*
X002238Y004522D02*
X001423Y004522D01*
X001423Y004444D02*
X001833Y004444D01*
X001833Y004365D02*
X001423Y004365D01*
X001423Y004287D02*
X001833Y004287D01*
X001847Y004208D02*
X001423Y004208D01*
X001423Y004130D02*
X006198Y004130D01*
X006198Y004074D01*
X006156Y004032D01*
X006105Y003907D01*
X006105Y003773D01*
X006156Y003648D01*
X006252Y003553D01*
X006376Y003502D01*
X006511Y003502D01*
X006635Y003553D01*
X006730Y003648D01*
X006782Y003773D01*
X006782Y003907D01*
X006730Y004032D01*
X006635Y004127D01*
X006628Y004130D01*
X006741Y004130D01*
X006823Y004212D01*
X006823Y004840D01*
X006741Y004922D01*
X006015Y004922D01*
X005933Y004840D01*
X005933Y004212D01*
X006015Y004130D01*
X006198Y004130D01*
X006176Y004051D02*
X001423Y004051D01*
X001423Y003973D02*
X003062Y003973D01*
X003076Y003978D02*
X002952Y003927D01*
X002856Y003832D01*
X002805Y003707D01*
X002805Y003573D01*
X002810Y003561D01*
X002399Y003150D01*
X001915Y003150D01*
X001833Y003068D01*
X001833Y002440D01*
X001915Y002358D01*
X002641Y002358D01*
X002723Y002440D01*
X002723Y002966D01*
X003064Y003306D01*
X003076Y003302D01*
X003211Y003302D01*
X003335Y003353D01*
X003430Y003448D01*
X003482Y003573D01*
X003482Y003707D01*
X003430Y003832D01*
X003335Y003927D01*
X003211Y003978D01*
X003076Y003978D01*
X003225Y003973D02*
X006132Y003973D01*
X006105Y003894D02*
X003368Y003894D01*
X003437Y003816D02*
X006105Y003816D01*
X006120Y003737D02*
X003469Y003737D01*
X003482Y003659D02*
X006152Y003659D01*
X006225Y003580D02*
X003482Y003580D01*
X003452Y003502D02*
X034963Y003502D01*
X034963Y003580D02*
X031262Y003580D01*
X031235Y003553D02*
X031330Y003648D01*
X031382Y003773D01*
X031382Y003907D01*
X031330Y004032D01*
X031235Y004127D01*
X031228Y004130D01*
X031341Y004130D01*
X031423Y004212D01*
X031423Y004840D01*
X031341Y004922D01*
X030615Y004922D01*
X030533Y004840D01*
X030533Y004212D01*
X030615Y004130D01*
X030798Y004130D01*
X030798Y004074D01*
X030756Y004032D01*
X030705Y003907D01*
X030705Y003773D01*
X030756Y003648D01*
X030852Y003553D01*
X030976Y003502D01*
X031111Y003502D01*
X031235Y003553D01*
X031334Y003659D02*
X034963Y003659D01*
X034963Y003737D02*
X031367Y003737D01*
X031382Y003816D02*
X034963Y003816D01*
X034963Y003894D02*
X031382Y003894D01*
X031355Y003973D02*
X034963Y003973D01*
X034963Y004051D02*
X031311Y004051D01*
X031229Y004130D02*
X034963Y004130D01*
X034963Y004208D02*
X034549Y004208D01*
X034553Y004212D02*
X034553Y004840D01*
X034471Y004922D01*
X033745Y004922D01*
X033663Y004840D01*
X033663Y004212D01*
X033745Y004130D01*
X034471Y004130D01*
X034553Y004212D01*
X034553Y004287D02*
X034963Y004287D01*
X034963Y004365D02*
X034553Y004365D01*
X034553Y004444D02*
X034963Y004444D01*
X034963Y004522D02*
X034553Y004522D01*
X034553Y004601D02*
X034963Y004601D01*
X034963Y004679D02*
X034553Y004679D01*
X034553Y004758D02*
X034963Y004758D01*
X034963Y004836D02*
X034553Y004836D01*
X034479Y004915D02*
X034963Y004915D01*
X034963Y004993D02*
X001423Y004993D01*
X001423Y004915D02*
X001928Y004915D01*
X001919Y004912D02*
X001887Y004894D01*
X001861Y004868D01*
X001843Y004836D01*
X001423Y004836D01*
X001423Y004758D02*
X001833Y004758D01*
X001833Y004800D02*
X001833Y004566D01*
X002238Y004566D01*
X002238Y004922D01*
X001955Y004922D01*
X001919Y004912D01*
X001843Y004836D02*
X001833Y004800D01*
X001833Y004679D02*
X001423Y004679D01*
X001423Y004601D02*
X001833Y004601D01*
X002238Y004601D02*
X002318Y004601D01*
X002318Y004679D02*
X002238Y004679D01*
X002238Y004758D02*
X002318Y004758D01*
X002318Y004836D02*
X002238Y004836D01*
X002238Y004915D02*
X002318Y004915D01*
X002629Y004915D02*
X005038Y004915D01*
X004963Y004444D02*
X002723Y004444D01*
X002723Y004365D02*
X004963Y004365D01*
X004963Y004287D02*
X002723Y004287D01*
X002709Y004208D02*
X004967Y004208D01*
X005849Y004208D02*
X005937Y004208D01*
X005933Y004287D02*
X005853Y004287D01*
X005853Y004365D02*
X005933Y004365D01*
X005933Y004444D02*
X005853Y004444D01*
X005853Y004522D02*
X005933Y004522D01*
X005933Y004601D02*
X005853Y004601D01*
X005853Y004679D02*
X005933Y004679D01*
X005933Y004758D02*
X005853Y004758D01*
X005853Y004836D02*
X005933Y004836D01*
X006008Y004915D02*
X005779Y004915D01*
X006378Y004526D02*
X006378Y003905D01*
X006443Y003840D01*
X006755Y003973D02*
X010232Y003973D01*
X010205Y003894D02*
X006782Y003894D01*
X006782Y003816D02*
X010205Y003816D01*
X010220Y003737D02*
X006767Y003737D01*
X006734Y003659D02*
X010252Y003659D01*
X010325Y003580D02*
X006662Y003580D01*
X006702Y003150D02*
X006418Y003150D01*
X006418Y002794D01*
X006338Y002794D01*
X006338Y002714D01*
X005933Y002714D01*
X005933Y002480D01*
X005943Y002444D01*
X005961Y002412D01*
X005987Y002386D01*
X006019Y002368D01*
X006055Y002358D01*
X006338Y002358D01*
X006338Y002714D01*
X006418Y002714D01*
X006418Y002358D01*
X006702Y002358D01*
X006738Y002368D01*
X006769Y002386D01*
X006796Y002412D01*
X006814Y002444D01*
X006823Y002480D01*
X006823Y002714D01*
X006418Y002714D01*
X006418Y002794D01*
X006823Y002794D01*
X006823Y003029D01*
X006814Y003064D01*
X006796Y003096D01*
X006769Y003122D01*
X006738Y003141D01*
X006702Y003150D01*
X006783Y003109D02*
X009104Y003109D01*
X009063Y003031D02*
X006823Y003031D01*
X006823Y002952D02*
X009063Y002952D01*
X009063Y002874D02*
X006823Y002874D01*
X006823Y002795D02*
X009063Y002795D01*
X009063Y002717D02*
X006418Y002717D01*
X006418Y002795D02*
X006338Y002795D01*
X006338Y002794D02*
X006338Y003150D01*
X006055Y003150D01*
X006019Y003141D01*
X005987Y003122D01*
X005961Y003096D01*
X005943Y003064D01*
X005933Y003029D01*
X005933Y002794D01*
X006338Y002794D01*
X006338Y002717D02*
X005853Y002717D01*
X005853Y002795D02*
X005933Y002795D01*
X005933Y002874D02*
X005853Y002874D01*
X005853Y002952D02*
X005933Y002952D01*
X005934Y003031D02*
X005853Y003031D01*
X005853Y003068D02*
X005771Y003150D01*
X005045Y003150D01*
X004963Y003068D01*
X004963Y002440D01*
X005045Y002358D01*
X005771Y002358D01*
X005853Y002440D01*
X005853Y003068D01*
X005812Y003109D02*
X005974Y003109D01*
X006338Y003109D02*
X006418Y003109D01*
X006418Y003031D02*
X006338Y003031D01*
X006338Y002952D02*
X006418Y002952D01*
X006418Y002874D02*
X006338Y002874D01*
X006338Y002638D02*
X006418Y002638D01*
X006418Y002560D02*
X006338Y002560D01*
X006338Y002481D02*
X006418Y002481D01*
X006418Y002403D02*
X006338Y002403D01*
X005971Y002403D02*
X005816Y002403D01*
X005853Y002481D02*
X005933Y002481D01*
X005933Y002560D02*
X005853Y002560D01*
X005853Y002638D02*
X005933Y002638D01*
X006786Y002403D02*
X009101Y002403D01*
X009063Y002481D02*
X006823Y002481D01*
X006823Y002560D02*
X009063Y002560D01*
X009063Y002638D02*
X006823Y002638D01*
X005001Y002403D02*
X002686Y002403D01*
X002723Y002481D02*
X004963Y002481D01*
X004963Y002560D02*
X002723Y002560D01*
X002723Y002638D02*
X004963Y002638D01*
X004963Y002717D02*
X002723Y002717D01*
X002723Y002795D02*
X004963Y002795D01*
X004963Y002874D02*
X002723Y002874D01*
X002723Y002952D02*
X004963Y002952D01*
X004963Y003031D02*
X002788Y003031D01*
X002867Y003109D02*
X005004Y003109D01*
X003405Y003423D02*
X034963Y003423D01*
X034963Y003345D02*
X003314Y003345D01*
X003024Y003266D02*
X034963Y003266D01*
X034963Y003188D02*
X002945Y003188D01*
X002672Y003423D02*
X001423Y003423D01*
X001423Y003345D02*
X002593Y003345D01*
X002515Y003266D02*
X001423Y003266D01*
X001423Y003188D02*
X002436Y003188D01*
X002278Y002775D02*
X003143Y003640D01*
X002805Y003659D02*
X001423Y003659D01*
X001423Y003737D02*
X002817Y003737D01*
X002850Y003816D02*
X001423Y003816D01*
X001423Y003894D02*
X002919Y003894D01*
X002805Y003580D02*
X001423Y003580D01*
X001423Y003502D02*
X002750Y003502D01*
X002318Y004208D02*
X002238Y004208D01*
X002238Y004287D02*
X002318Y004287D01*
X002318Y004365D02*
X002238Y004365D01*
X001423Y005072D02*
X034963Y005072D01*
X034963Y005150D02*
X027011Y005150D01*
X027063Y005229D02*
X034963Y005229D01*
X034963Y005307D02*
X027063Y005307D01*
X027063Y005386D02*
X031575Y005386D01*
X031565Y005396D02*
X031647Y005314D01*
X032550Y005314D01*
X032632Y005396D01*
X032632Y005945D01*
X032572Y006005D01*
X032632Y006065D01*
X032632Y006615D01*
X032572Y006675D01*
X032632Y006735D01*
X032632Y007284D01*
X032550Y007366D01*
X031647Y007366D01*
X031565Y007284D01*
X031565Y007220D01*
X031335Y007220D01*
X031330Y007232D01*
X031235Y007327D01*
X031111Y007378D01*
X030976Y007378D01*
X030852Y007327D01*
X030756Y007232D01*
X030705Y007107D01*
X030705Y006973D01*
X030756Y006848D01*
X030852Y006753D01*
X030976Y006702D01*
X031111Y006702D01*
X031235Y006753D01*
X031330Y006848D01*
X031335Y006860D01*
X031565Y006860D01*
X031565Y006735D01*
X031625Y006675D01*
X031565Y006615D01*
X031565Y006520D01*
X031235Y006520D01*
X031230Y006532D01*
X031135Y006627D01*
X031011Y006678D01*
X030876Y006678D01*
X030752Y006627D01*
X030656Y006532D01*
X030605Y006407D01*
X030605Y006273D01*
X030656Y006148D01*
X030752Y006053D01*
X030783Y006040D01*
X030752Y006027D01*
X030656Y005932D01*
X030605Y005807D01*
X030605Y005673D01*
X030656Y005548D01*
X030752Y005453D01*
X030876Y005402D01*
X031011Y005402D01*
X031135Y005453D01*
X031230Y005548D01*
X031235Y005560D01*
X031565Y005560D01*
X031565Y005396D01*
X031565Y005464D02*
X031146Y005464D01*
X031224Y005543D02*
X031565Y005543D01*
X032029Y005740D02*
X030943Y005740D01*
X030626Y005621D02*
X027063Y005621D01*
X027063Y005543D02*
X030662Y005543D01*
X030741Y005464D02*
X027063Y005464D01*
X027063Y005700D02*
X030605Y005700D01*
X030605Y005778D02*
X027063Y005778D01*
X027063Y005857D02*
X030625Y005857D01*
X030660Y005935D02*
X027006Y005935D01*
X026723Y006014D02*
X030738Y006014D01*
X030713Y006092D02*
X026723Y006092D01*
X026723Y006171D02*
X030647Y006171D01*
X030615Y006249D02*
X026723Y006249D01*
X026723Y006328D02*
X030605Y006328D01*
X030605Y006406D02*
X026723Y006406D01*
X026723Y006485D02*
X030637Y006485D01*
X030688Y006563D02*
X026723Y006563D01*
X026723Y006642D02*
X030787Y006642D01*
X030806Y006799D02*
X026723Y006799D01*
X026723Y006877D02*
X030745Y006877D01*
X030712Y006956D02*
X026723Y006956D01*
X026723Y007034D02*
X030705Y007034D01*
X030707Y007113D02*
X026723Y007113D01*
X026723Y007191D02*
X030740Y007191D01*
X030794Y007270D02*
X026723Y007270D01*
X026723Y007348D02*
X030903Y007348D01*
X031184Y007348D02*
X031629Y007348D01*
X031565Y007270D02*
X031292Y007270D01*
X031043Y007040D02*
X032068Y007040D01*
X032098Y007009D01*
X032632Y007034D02*
X033948Y007034D01*
X033948Y007049D02*
X033948Y006969D01*
X034028Y006969D01*
X034028Y006380D01*
X033948Y006380D01*
X033948Y006300D01*
X033455Y006300D01*
X033455Y006105D01*
X033464Y006069D01*
X033482Y006038D01*
X033509Y006011D01*
X033519Y006005D01*
X033509Y005999D01*
X033482Y005973D01*
X033464Y005941D01*
X033455Y005906D01*
X033455Y005711D01*
X033948Y005711D01*
X033948Y006027D01*
X033948Y006300D01*
X034028Y006300D01*
X034028Y005711D01*
X033948Y005711D01*
X033948Y005631D01*
X033455Y005631D01*
X033455Y005436D01*
X033464Y005400D01*
X033482Y005368D01*
X033509Y005342D01*
X033540Y005324D01*
X033576Y005314D01*
X033948Y005314D01*
X033948Y005631D01*
X034028Y005631D01*
X034028Y005711D01*
X034522Y005711D01*
X034522Y005906D01*
X034512Y005941D01*
X034494Y005973D01*
X034468Y005999D01*
X034457Y006005D01*
X034468Y006011D01*
X034494Y006038D01*
X034512Y006069D01*
X034522Y006105D01*
X034522Y006300D01*
X034028Y006300D01*
X034028Y006380D01*
X034522Y006380D01*
X034522Y006575D01*
X034512Y006611D01*
X034494Y006642D01*
X034468Y006669D01*
X034457Y006675D01*
X034468Y006681D01*
X034494Y006707D01*
X034512Y006739D01*
X034522Y006774D01*
X034522Y006969D01*
X034028Y006969D01*
X034028Y007049D01*
X034522Y007049D01*
X034522Y007244D01*
X034512Y007280D01*
X034494Y007312D01*
X034468Y007338D01*
X034436Y007356D01*
X034400Y007366D01*
X034028Y007366D01*
X034028Y007049D01*
X033948Y007049D01*
X033455Y007049D01*
X033455Y007244D01*
X033464Y007280D01*
X033482Y007312D01*
X033509Y007338D01*
X033540Y007356D01*
X033576Y007366D01*
X033948Y007366D01*
X033948Y007049D01*
X033948Y007113D02*
X034028Y007113D01*
X034028Y007191D02*
X033948Y007191D01*
X033948Y007270D02*
X034028Y007270D01*
X034028Y007348D02*
X033948Y007348D01*
X034028Y007034D02*
X034963Y007034D01*
X034963Y006956D02*
X034522Y006956D01*
X034522Y006877D02*
X034963Y006877D01*
X034963Y006799D02*
X034522Y006799D01*
X034502Y006720D02*
X034963Y006720D01*
X034963Y006642D02*
X034495Y006642D01*
X034522Y006563D02*
X034963Y006563D01*
X034963Y006485D02*
X034522Y006485D01*
X034522Y006406D02*
X034963Y006406D01*
X034963Y006328D02*
X034028Y006328D01*
X034028Y006406D02*
X033948Y006406D01*
X033948Y006380D02*
X033948Y006697D01*
X033948Y006969D01*
X033455Y006969D01*
X033455Y006774D01*
X033464Y006739D01*
X033482Y006707D01*
X033509Y006681D01*
X033519Y006675D01*
X033509Y006669D01*
X033482Y006642D01*
X032605Y006642D01*
X032617Y006720D02*
X033475Y006720D01*
X033482Y006642D02*
X033464Y006611D01*
X033455Y006575D01*
X033455Y006380D01*
X033948Y006380D01*
X033948Y006328D02*
X032632Y006328D01*
X032632Y006406D02*
X033455Y006406D01*
X033455Y006485D02*
X032632Y006485D01*
X032632Y006563D02*
X033455Y006563D01*
X033455Y006799D02*
X032632Y006799D01*
X032632Y006877D02*
X033455Y006877D01*
X033455Y006956D02*
X032632Y006956D01*
X032632Y007113D02*
X033455Y007113D01*
X033455Y007191D02*
X032632Y007191D01*
X032632Y007270D02*
X033461Y007270D01*
X033526Y007348D02*
X032568Y007348D01*
X032632Y007680D02*
X032463Y007750D01*
X032333Y007879D01*
X032263Y008048D01*
X032263Y008231D01*
X032333Y008401D01*
X032463Y008530D01*
X032632Y008600D01*
X033455Y008600D01*
X033624Y008530D01*
X033753Y008401D01*
X033823Y008231D01*
X033823Y008048D01*
X033753Y007879D01*
X033624Y007750D01*
X033455Y007680D01*
X032632Y007680D01*
X032486Y007741D02*
X026723Y007741D01*
X026723Y007819D02*
X032394Y007819D01*
X032326Y007898D02*
X026723Y007898D01*
X026723Y007976D02*
X032293Y007976D01*
X032263Y008055D02*
X026723Y008055D01*
X026723Y008133D02*
X032263Y008133D01*
X032263Y008212D02*
X029063Y008212D01*
X029115Y008233D02*
X029250Y008368D01*
X029323Y008545D01*
X029323Y008696D01*
X030328Y009700D01*
X030901Y009700D01*
X030983Y009782D01*
X030983Y010798D01*
X030901Y010880D01*
X029585Y010880D01*
X029503Y010798D01*
X029503Y009782D01*
X029532Y009753D01*
X028899Y009120D01*
X028748Y009120D01*
X028571Y009047D01*
X028436Y008912D01*
X028363Y008735D01*
X028363Y008545D01*
X028436Y008368D01*
X028571Y008233D01*
X028748Y008160D01*
X028939Y008160D01*
X029115Y008233D01*
X029172Y008290D02*
X032288Y008290D01*
X032320Y008369D02*
X029250Y008369D01*
X029283Y008447D02*
X032380Y008447D01*
X032458Y008526D02*
X029315Y008526D01*
X029323Y008604D02*
X034963Y008604D01*
X034963Y008526D02*
X033628Y008526D01*
X033707Y008447D02*
X034963Y008447D01*
X034963Y008369D02*
X033767Y008369D01*
X033799Y008290D02*
X034963Y008290D01*
X034963Y008212D02*
X033823Y008212D01*
X033823Y008133D02*
X034963Y008133D01*
X034963Y008055D02*
X033823Y008055D01*
X033793Y007976D02*
X034963Y007976D01*
X034963Y007898D02*
X033761Y007898D01*
X033693Y007819D02*
X034963Y007819D01*
X034963Y007741D02*
X033601Y007741D01*
X034450Y007348D02*
X034963Y007348D01*
X034963Y007270D02*
X034515Y007270D01*
X034522Y007191D02*
X034963Y007191D01*
X034963Y007113D02*
X034522Y007113D01*
X034028Y006956D02*
X033948Y006956D01*
X033948Y006877D02*
X034028Y006877D01*
X034028Y006799D02*
X033948Y006799D01*
X033948Y006720D02*
X034028Y006720D01*
X034028Y006642D02*
X033948Y006642D01*
X033948Y006563D02*
X034028Y006563D01*
X034028Y006485D02*
X033948Y006485D01*
X033948Y006249D02*
X034028Y006249D01*
X034028Y006171D02*
X033948Y006171D01*
X033948Y006092D02*
X034028Y006092D01*
X034028Y006014D02*
X033948Y006014D01*
X033948Y005935D02*
X034028Y005935D01*
X034028Y005857D02*
X033948Y005857D01*
X033948Y005778D02*
X034028Y005778D01*
X034028Y005700D02*
X034963Y005700D01*
X034963Y005778D02*
X034522Y005778D01*
X034522Y005857D02*
X034963Y005857D01*
X034963Y005935D02*
X034514Y005935D01*
X034470Y006014D02*
X034963Y006014D01*
X034963Y006092D02*
X034518Y006092D01*
X034522Y006171D02*
X034963Y006171D01*
X034963Y006249D02*
X034522Y006249D01*
X034522Y005631D02*
X034028Y005631D01*
X034028Y005314D01*
X034400Y005314D01*
X034436Y005324D01*
X034468Y005342D01*
X034494Y005368D01*
X034512Y005400D01*
X034522Y005436D01*
X034522Y005631D01*
X034522Y005621D02*
X034963Y005621D01*
X034963Y005543D02*
X034522Y005543D01*
X034522Y005464D02*
X034963Y005464D01*
X034963Y005386D02*
X034504Y005386D01*
X034028Y005386D02*
X033948Y005386D01*
X033948Y005464D02*
X034028Y005464D01*
X034028Y005543D02*
X033948Y005543D01*
X033948Y005621D02*
X034028Y005621D01*
X033948Y005700D02*
X032632Y005700D01*
X032632Y005778D02*
X033455Y005778D01*
X033455Y005857D02*
X032632Y005857D01*
X032632Y005935D02*
X033462Y005935D01*
X033506Y006014D02*
X032580Y006014D01*
X032632Y006092D02*
X033458Y006092D01*
X033455Y006171D02*
X032632Y006171D01*
X032632Y006249D02*
X033455Y006249D01*
X033455Y005621D02*
X032632Y005621D01*
X032632Y005543D02*
X033455Y005543D01*
X033455Y005464D02*
X032632Y005464D01*
X032621Y005386D02*
X033472Y005386D01*
X033738Y004915D02*
X031349Y004915D01*
X031423Y004836D02*
X033663Y004836D01*
X033663Y004758D02*
X031423Y004758D01*
X031423Y004679D02*
X033663Y004679D01*
X033663Y004601D02*
X031423Y004601D01*
X031423Y004522D02*
X033663Y004522D01*
X033663Y004444D02*
X031423Y004444D01*
X031423Y004365D02*
X033663Y004365D01*
X033663Y004287D02*
X031423Y004287D01*
X031420Y004208D02*
X033667Y004208D01*
X033745Y003150D02*
X033663Y003068D01*
X033663Y002440D01*
X033745Y002358D01*
X034471Y002358D01*
X034553Y002440D01*
X034553Y003068D01*
X034471Y003150D01*
X033745Y003150D01*
X033704Y003109D02*
X031383Y003109D01*
X031396Y003096D02*
X031369Y003122D01*
X031338Y003141D01*
X031302Y003150D01*
X031018Y003150D01*
X031018Y002794D01*
X030938Y002794D01*
X030938Y002714D01*
X030533Y002714D01*
X030533Y002480D01*
X030543Y002444D01*
X030561Y002412D01*
X030587Y002386D01*
X030619Y002368D01*
X030655Y002358D01*
X030938Y002358D01*
X030938Y002714D01*
X031018Y002714D01*
X031018Y002358D01*
X031302Y002358D01*
X031338Y002368D01*
X031369Y002386D01*
X031396Y002412D01*
X031414Y002444D01*
X031423Y002480D01*
X031423Y002714D01*
X031018Y002714D01*
X031018Y002794D01*
X031423Y002794D01*
X031423Y003029D01*
X031414Y003064D01*
X031396Y003096D01*
X031423Y003031D02*
X033663Y003031D01*
X033663Y002952D02*
X031423Y002952D01*
X031423Y002874D02*
X033663Y002874D01*
X033663Y002795D02*
X031423Y002795D01*
X031423Y002638D02*
X033663Y002638D01*
X033663Y002560D02*
X031423Y002560D01*
X031423Y002481D02*
X033663Y002481D01*
X033701Y002403D02*
X031386Y002403D01*
X031018Y002403D02*
X030938Y002403D01*
X030938Y002481D02*
X031018Y002481D01*
X031018Y002560D02*
X030938Y002560D01*
X030938Y002638D02*
X031018Y002638D01*
X031018Y002717D02*
X033663Y002717D01*
X034553Y002717D02*
X034963Y002717D01*
X034963Y002795D02*
X034553Y002795D01*
X034553Y002874D02*
X034963Y002874D01*
X034963Y002952D02*
X034553Y002952D01*
X034553Y003031D02*
X034963Y003031D01*
X034963Y003109D02*
X034512Y003109D01*
X034553Y002638D02*
X034963Y002638D01*
X034963Y002560D02*
X034553Y002560D01*
X034553Y002481D02*
X034963Y002481D01*
X034963Y002403D02*
X034516Y002403D01*
X034963Y002324D02*
X001423Y002324D01*
X001423Y002246D02*
X034963Y002246D01*
X034963Y002167D02*
X001423Y002167D01*
X001423Y002089D02*
X034963Y002089D01*
X034963Y002010D02*
X001423Y002010D01*
X001423Y001932D02*
X034963Y001932D01*
X034963Y001853D02*
X001423Y001853D01*
X001423Y002403D02*
X001871Y002403D01*
X001833Y002481D02*
X001423Y002481D01*
X001423Y002560D02*
X001833Y002560D01*
X001833Y002638D02*
X001423Y002638D01*
X001423Y002717D02*
X001833Y002717D01*
X001833Y002795D02*
X001423Y002795D01*
X001423Y002874D02*
X001833Y002874D01*
X001833Y002952D02*
X001423Y002952D01*
X001423Y003031D02*
X001833Y003031D01*
X001874Y003109D02*
X001423Y003109D01*
X002278Y002775D02*
X002278Y002754D01*
X001423Y005150D02*
X007275Y005150D01*
X006823Y004836D02*
X009063Y004836D01*
X009063Y004840D02*
X009063Y004212D01*
X009145Y004130D01*
X009871Y004130D01*
X009953Y004212D01*
X009953Y004840D01*
X009871Y004922D01*
X009145Y004922D01*
X009063Y004840D01*
X009063Y004758D02*
X006823Y004758D01*
X006823Y004679D02*
X009063Y004679D01*
X009063Y004601D02*
X006823Y004601D01*
X006823Y004522D02*
X009063Y004522D01*
X009063Y004444D02*
X006823Y004444D01*
X006823Y004365D02*
X009063Y004365D01*
X009063Y004287D02*
X006823Y004287D01*
X006820Y004208D02*
X009067Y004208D01*
X009949Y004208D02*
X010037Y004208D01*
X010033Y004287D02*
X009953Y004287D01*
X009953Y004365D02*
X010033Y004365D01*
X010033Y004444D02*
X009953Y004444D01*
X009953Y004522D02*
X010033Y004522D01*
X010033Y004601D02*
X009953Y004601D01*
X009953Y004679D02*
X010033Y004679D01*
X010033Y004758D02*
X009953Y004758D01*
X009953Y004836D02*
X010033Y004836D01*
X010108Y004915D02*
X009879Y004915D01*
X010478Y004526D02*
X010478Y003905D01*
X010543Y003840D01*
X010276Y004051D02*
X006711Y004051D01*
X006629Y004130D02*
X010298Y004130D01*
X010920Y004208D02*
X013167Y004208D01*
X013163Y004287D02*
X010923Y004287D01*
X010923Y004365D02*
X013163Y004365D01*
X013163Y004444D02*
X010923Y004444D01*
X010923Y004522D02*
X013163Y004522D01*
X013163Y004601D02*
X010923Y004601D01*
X010923Y004679D02*
X013163Y004679D01*
X013163Y004758D02*
X010923Y004758D01*
X010923Y004836D02*
X013163Y004836D01*
X013238Y004915D02*
X010849Y004915D01*
X009138Y004915D02*
X006749Y004915D01*
X008011Y005150D02*
X008275Y005150D01*
X008223Y005229D02*
X008063Y005229D01*
X008063Y005307D02*
X008223Y005307D01*
X008223Y005386D02*
X008063Y005386D01*
X008063Y005464D02*
X008223Y005464D01*
X008223Y005543D02*
X008063Y005543D01*
X008063Y005621D02*
X008223Y005621D01*
X008223Y005700D02*
X008063Y005700D01*
X008063Y005778D02*
X008151Y005778D01*
X008072Y005857D02*
X008063Y005857D01*
X008346Y006092D02*
X025463Y006092D01*
X025463Y006014D02*
X008424Y006014D01*
X008267Y006171D02*
X025463Y006171D01*
X025463Y006249D02*
X008189Y006249D01*
X008110Y006328D02*
X025463Y006328D01*
X025463Y006406D02*
X008088Y006406D01*
X008145Y006485D02*
X025463Y006485D01*
X025463Y006563D02*
X008178Y006563D01*
X008182Y006642D02*
X025463Y006642D01*
X025463Y006720D02*
X008176Y006720D01*
X008144Y006799D02*
X025463Y006799D01*
X025463Y006877D02*
X009359Y006877D01*
X008928Y006877D02*
X008085Y006877D01*
X007966Y006956D02*
X008853Y006956D01*
X010707Y010331D02*
X010805Y010331D01*
X010695Y010410D02*
X010628Y010410D01*
X010640Y010488D02*
X010550Y010488D01*
X010607Y010567D02*
X010471Y010567D01*
X010393Y010645D02*
X010605Y010645D01*
X010612Y010724D02*
X010314Y010724D01*
X010236Y010802D02*
X010644Y010802D01*
X010705Y010881D02*
X010157Y010881D01*
X010079Y010959D02*
X010763Y010959D01*
X010763Y011038D02*
X010000Y011038D01*
X009922Y011116D02*
X010763Y011116D01*
X004843Y013840D02*
X004243Y013240D01*
X001429Y017161D02*
X034963Y017161D01*
X034963Y017239D02*
X001430Y017239D01*
X001430Y017318D02*
X034963Y017318D01*
X034963Y017396D02*
X001430Y017396D01*
X001431Y017475D02*
X030210Y017475D01*
X029781Y017082D02*
X034963Y017082D01*
X034963Y017004D02*
X034207Y017004D01*
X034204Y017007D02*
X034172Y017025D01*
X034137Y017035D01*
X033843Y017035D01*
X033843Y016580D01*
X033763Y016580D01*
X033763Y016500D01*
X033348Y016500D01*
X033348Y016167D01*
X033358Y016131D01*
X033376Y016099D01*
X033402Y016073D01*
X033434Y016055D01*
X033470Y016045D01*
X033763Y016045D01*
X033763Y016500D01*
X033843Y016500D01*
X033843Y016045D01*
X034137Y016045D01*
X034172Y016055D01*
X034204Y016073D01*
X034230Y016099D01*
X034249Y016131D01*
X034258Y016167D01*
X034258Y016500D01*
X033843Y016500D01*
X033843Y016580D01*
X034258Y016580D01*
X034258Y016913D01*
X034249Y016949D01*
X034230Y016981D01*
X034204Y017007D01*
X034255Y016925D02*
X034963Y016925D01*
X034963Y016847D02*
X034258Y016847D01*
X034258Y016768D02*
X034963Y016768D01*
X034963Y016690D02*
X034258Y016690D01*
X034258Y016611D02*
X034963Y016611D01*
X034963Y016533D02*
X033843Y016533D01*
X033843Y016611D02*
X033763Y016611D01*
X033763Y016580D02*
X033763Y017035D01*
X033470Y017035D01*
X033434Y017025D01*
X033402Y017007D01*
X033376Y016981D01*
X033358Y016949D01*
X033348Y016913D01*
X033348Y016580D01*
X033763Y016580D01*
X033763Y016533D02*
X033138Y016533D01*
X033138Y016611D02*
X033348Y016611D01*
X033348Y016690D02*
X033138Y016690D01*
X033138Y016768D02*
X033348Y016768D01*
X033348Y016847D02*
X033138Y016847D01*
X033138Y016925D02*
X033351Y016925D01*
X033399Y017004D02*
X033088Y017004D01*
X033138Y016454D02*
X033348Y016454D01*
X033348Y016376D02*
X033138Y016376D01*
X033138Y016297D02*
X033348Y016297D01*
X033348Y016219D02*
X033138Y016219D01*
X033138Y016140D02*
X033355Y016140D01*
X033422Y016062D02*
X033073Y016062D01*
X033763Y016062D02*
X033843Y016062D01*
X033843Y016140D02*
X033763Y016140D01*
X033763Y016219D02*
X033843Y016219D01*
X033843Y016297D02*
X033763Y016297D01*
X033763Y016376D02*
X033843Y016376D01*
X033843Y016454D02*
X033763Y016454D01*
X033763Y016690D02*
X033843Y016690D01*
X033843Y016768D02*
X033763Y016768D01*
X033763Y016847D02*
X033843Y016847D01*
X033843Y016925D02*
X033763Y016925D01*
X033763Y017004D02*
X033843Y017004D01*
X034258Y016454D02*
X034963Y016454D01*
X034963Y016376D02*
X034258Y016376D01*
X034258Y016297D02*
X034963Y016297D01*
X034963Y016219D02*
X034258Y016219D01*
X034251Y016140D02*
X034963Y016140D01*
X034963Y016062D02*
X034184Y016062D01*
X032279Y017004D02*
X029815Y017004D01*
X029815Y016925D02*
X032229Y016925D01*
X031474Y016847D02*
X031413Y016847D01*
X030645Y016847D02*
X029815Y016847D01*
X029815Y016768D02*
X030594Y016768D01*
X030594Y016690D02*
X029815Y016690D01*
X029815Y016611D02*
X030594Y016611D01*
X030594Y016533D02*
X029815Y016533D01*
X029815Y016376D02*
X030594Y016376D01*
X030594Y016454D02*
X029183Y016454D01*
X029183Y016376D02*
X029103Y016376D01*
X029103Y016297D02*
X029183Y016297D01*
X029183Y016219D02*
X029103Y016219D01*
X029103Y016140D02*
X029183Y016140D01*
X029183Y016062D02*
X029103Y016062D01*
X029103Y015983D02*
X029183Y015983D01*
X029183Y015905D02*
X029103Y015905D01*
X029789Y015905D02*
X030229Y015905D01*
X030263Y015983D02*
X029815Y015983D01*
X029815Y016062D02*
X030296Y016062D01*
X030374Y016140D02*
X029815Y016140D01*
X029815Y016219D02*
X030453Y016219D01*
X030531Y016297D02*
X029815Y016297D01*
X031398Y016219D02*
X031489Y016219D01*
X032152Y015277D02*
X013682Y015277D01*
X013682Y015198D02*
X032129Y015198D01*
X031347Y015120D02*
X031340Y015120D01*
X032547Y013566D02*
X032616Y013589D01*
X032687Y013600D01*
X033003Y013600D01*
X033003Y013180D01*
X032264Y013180D01*
X032275Y013248D01*
X032297Y013317D01*
X032330Y013381D01*
X032372Y013440D01*
X032424Y013491D01*
X032482Y013533D01*
X032547Y013566D01*
X032514Y013550D02*
X029815Y013550D01*
X029815Y013471D02*
X032404Y013471D01*
X032338Y013393D02*
X029775Y013393D01*
X029143Y013314D02*
X032296Y013314D01*
X032273Y013236D02*
X029143Y013236D01*
X030917Y012765D02*
X032458Y012765D01*
X032649Y012686D02*
X030983Y012686D01*
X030983Y012608D02*
X034963Y012608D01*
X034963Y012686D02*
X033438Y012686D01*
X033629Y012765D02*
X034963Y012765D01*
X034963Y012843D02*
X033716Y012843D01*
X033768Y012922D02*
X034963Y012922D01*
X034963Y013000D02*
X033802Y013000D01*
X033625Y012529D02*
X034963Y012529D01*
X034963Y012451D02*
X033703Y012451D01*
X033765Y012372D02*
X034963Y012372D01*
X034963Y012294D02*
X033798Y012294D01*
X033823Y012215D02*
X034963Y012215D01*
X034963Y012137D02*
X033823Y012137D01*
X033823Y012058D02*
X034963Y012058D01*
X034963Y011980D02*
X033795Y011980D01*
X033762Y011901D02*
X034963Y011901D01*
X034963Y011823D02*
X033696Y011823D01*
X033609Y011744D02*
X034963Y011744D01*
X034963Y011666D02*
X030967Y011666D01*
X030983Y011744D02*
X032477Y011744D01*
X032390Y011823D02*
X030983Y011823D01*
X030983Y012451D02*
X032383Y012451D01*
X032462Y012529D02*
X030983Y012529D01*
X032463Y011530D02*
X032632Y011600D01*
X033455Y011600D01*
X033624Y011530D01*
X033753Y011401D01*
X033823Y011231D01*
X033823Y011048D01*
X033753Y010879D01*
X033624Y010750D01*
X033455Y010680D01*
X032632Y010680D01*
X032463Y010750D01*
X032333Y010879D01*
X032263Y011048D01*
X032263Y011231D01*
X032333Y011401D01*
X032463Y011530D01*
X032441Y011509D02*
X026723Y011509D01*
X026723Y011587D02*
X032601Y011587D01*
X032363Y011430D02*
X026723Y011430D01*
X026723Y011352D02*
X032313Y011352D01*
X032281Y011273D02*
X026723Y011273D01*
X026723Y011195D02*
X032263Y011195D01*
X032263Y011116D02*
X026723Y011116D01*
X026723Y011038D02*
X032268Y011038D01*
X032300Y010959D02*
X026723Y010959D01*
X026723Y010881D02*
X032333Y010881D01*
X032411Y010802D02*
X030979Y010802D01*
X030983Y010724D02*
X032527Y010724D01*
X032551Y010567D02*
X030983Y010567D01*
X030983Y010645D02*
X034963Y010645D01*
X034963Y010567D02*
X033536Y010567D01*
X033455Y010600D02*
X033624Y010530D01*
X033753Y010401D01*
X033823Y010231D01*
X033823Y010048D01*
X033753Y009879D01*
X033624Y009750D01*
X033455Y009680D01*
X032632Y009680D01*
X032463Y009750D01*
X032333Y009879D01*
X032263Y010048D01*
X032263Y010231D01*
X032333Y010401D01*
X032463Y010530D01*
X032632Y010600D01*
X033455Y010600D01*
X033560Y010724D02*
X034963Y010724D01*
X034963Y010802D02*
X033676Y010802D01*
X033754Y010881D02*
X034963Y010881D01*
X034963Y010959D02*
X033786Y010959D01*
X033819Y011038D02*
X034963Y011038D01*
X034963Y011116D02*
X033823Y011116D01*
X033823Y011195D02*
X034963Y011195D01*
X034963Y011273D02*
X033806Y011273D01*
X033774Y011352D02*
X034963Y011352D01*
X034963Y011430D02*
X033724Y011430D01*
X033645Y011509D02*
X034963Y011509D01*
X034963Y011587D02*
X033486Y011587D01*
X033083Y012686D02*
X033003Y012686D01*
X033003Y012765D02*
X033083Y012765D01*
X033083Y012843D02*
X033003Y012843D01*
X033003Y012922D02*
X033083Y012922D01*
X033083Y013000D02*
X033003Y013000D01*
X033003Y013236D02*
X033083Y013236D01*
X033083Y013314D02*
X033003Y013314D01*
X033003Y013393D02*
X033083Y013393D01*
X033083Y013471D02*
X033003Y013471D01*
X033003Y013550D02*
X033083Y013550D01*
X034158Y014492D02*
X034963Y014492D01*
X034963Y014570D02*
X034158Y014570D01*
X034158Y014649D02*
X034963Y014649D01*
X034963Y014727D02*
X034158Y014727D01*
X029503Y012058D02*
X026740Y012058D01*
X026723Y011980D02*
X029503Y011980D01*
X029503Y011901D02*
X026723Y011901D01*
X026723Y011823D02*
X029503Y011823D01*
X029503Y011744D02*
X026723Y011744D01*
X026723Y011666D02*
X029520Y011666D01*
X029507Y010802D02*
X026723Y010802D01*
X026723Y010724D02*
X029503Y010724D01*
X029503Y010645D02*
X026723Y010645D01*
X026723Y010567D02*
X029503Y010567D01*
X029503Y010488D02*
X026723Y010488D01*
X026723Y010410D02*
X029503Y010410D01*
X029503Y010331D02*
X026723Y010331D01*
X026723Y010253D02*
X029503Y010253D01*
X029503Y010174D02*
X026723Y010174D01*
X026723Y010096D02*
X029503Y010096D01*
X029503Y010017D02*
X026723Y010017D01*
X026723Y009939D02*
X029503Y009939D01*
X029503Y009860D02*
X026723Y009860D01*
X026723Y009782D02*
X029504Y009782D01*
X029482Y009703D02*
X026723Y009703D01*
X026723Y009625D02*
X029404Y009625D01*
X029325Y009546D02*
X026723Y009546D01*
X026723Y009468D02*
X029247Y009468D01*
X029168Y009389D02*
X026723Y009389D01*
X026723Y009311D02*
X029090Y009311D01*
X029011Y009232D02*
X026723Y009232D01*
X026723Y009154D02*
X028933Y009154D01*
X028639Y009075D02*
X026723Y009075D01*
X026723Y008997D02*
X028521Y008997D01*
X028443Y008918D02*
X026723Y008918D01*
X026723Y008840D02*
X028406Y008840D01*
X028374Y008761D02*
X026723Y008761D01*
X026723Y008683D02*
X028363Y008683D01*
X028363Y008604D02*
X026723Y008604D01*
X026723Y008526D02*
X028371Y008526D01*
X028404Y008447D02*
X026723Y008447D01*
X026723Y008369D02*
X028436Y008369D01*
X028514Y008290D02*
X026723Y008290D01*
X026723Y008212D02*
X028623Y008212D01*
X029323Y008683D02*
X032626Y008683D01*
X032632Y008680D02*
X032463Y008750D01*
X032333Y008879D01*
X032263Y009048D01*
X032263Y009231D01*
X032333Y009401D01*
X032463Y009530D01*
X032632Y009600D01*
X033455Y009600D01*
X033624Y009530D01*
X033753Y009401D01*
X033823Y009231D01*
X033823Y009048D01*
X033753Y008879D01*
X033624Y008750D01*
X033455Y008680D01*
X032632Y008680D01*
X032452Y008761D02*
X029389Y008761D01*
X029467Y008840D02*
X032373Y008840D01*
X032317Y008918D02*
X029546Y008918D01*
X029624Y008997D02*
X032285Y008997D01*
X032263Y009075D02*
X029703Y009075D01*
X029781Y009154D02*
X032263Y009154D01*
X032264Y009232D02*
X029860Y009232D01*
X029938Y009311D02*
X032296Y009311D01*
X032329Y009389D02*
X030017Y009389D01*
X030095Y009468D02*
X032400Y009468D01*
X032502Y009546D02*
X030174Y009546D01*
X030252Y009625D02*
X034963Y009625D01*
X034963Y009703D02*
X033510Y009703D01*
X033655Y009782D02*
X034963Y009782D01*
X034963Y009860D02*
X033734Y009860D01*
X033778Y009939D02*
X034963Y009939D01*
X034963Y010017D02*
X033810Y010017D01*
X033823Y010096D02*
X034963Y010096D01*
X034963Y010174D02*
X033823Y010174D01*
X033815Y010253D02*
X034963Y010253D01*
X034963Y010331D02*
X033782Y010331D01*
X033744Y010410D02*
X034963Y010410D01*
X034963Y010488D02*
X033666Y010488D01*
X032421Y010488D02*
X030983Y010488D01*
X030983Y010410D02*
X032342Y010410D01*
X032305Y010331D02*
X030983Y010331D01*
X030983Y010253D02*
X032272Y010253D01*
X032263Y010174D02*
X030983Y010174D01*
X030983Y010096D02*
X032263Y010096D01*
X032276Y010017D02*
X030983Y010017D01*
X030983Y009939D02*
X032309Y009939D01*
X032353Y009860D02*
X030983Y009860D01*
X030983Y009782D02*
X032431Y009782D01*
X032576Y009703D02*
X030904Y009703D01*
X033461Y008683D02*
X034963Y008683D01*
X034963Y008761D02*
X033635Y008761D01*
X033713Y008840D02*
X034963Y008840D01*
X034963Y008918D02*
X033769Y008918D01*
X033802Y008997D02*
X034963Y008997D01*
X034963Y009075D02*
X033823Y009075D01*
X033823Y009154D02*
X034963Y009154D01*
X034963Y009232D02*
X033823Y009232D01*
X033791Y009311D02*
X034963Y009311D01*
X034963Y009389D02*
X033758Y009389D01*
X033686Y009468D02*
X034963Y009468D01*
X034963Y009546D02*
X033585Y009546D01*
X034963Y007662D02*
X026723Y007662D01*
X026723Y007584D02*
X034963Y007584D01*
X034963Y007505D02*
X026723Y007505D01*
X026723Y007427D02*
X034963Y007427D01*
X032098Y006340D02*
X030943Y006340D01*
X031199Y006563D02*
X031565Y006563D01*
X031592Y006642D02*
X031100Y006642D01*
X031155Y006720D02*
X031579Y006720D01*
X031565Y006799D02*
X031280Y006799D01*
X030931Y006720D02*
X026723Y006720D01*
X026223Y005464D02*
X026063Y005464D01*
X026063Y005386D02*
X026223Y005386D01*
X026223Y005307D02*
X026063Y005307D01*
X026063Y005229D02*
X026223Y005229D01*
X026275Y005150D02*
X026011Y005150D01*
X026279Y004915D02*
X026508Y004915D01*
X026433Y004836D02*
X026353Y004836D01*
X026353Y004758D02*
X026433Y004758D01*
X026433Y004679D02*
X026353Y004679D01*
X026353Y004601D02*
X026433Y004601D01*
X026433Y004522D02*
X026353Y004522D01*
X026353Y004444D02*
X026433Y004444D01*
X026433Y004365D02*
X026353Y004365D01*
X026353Y004287D02*
X026433Y004287D01*
X026437Y004208D02*
X026349Y004208D01*
X026878Y003905D02*
X026943Y003840D01*
X026878Y003905D02*
X026878Y004526D01*
X027323Y004522D02*
X029563Y004522D01*
X029563Y004444D02*
X027323Y004444D01*
X027323Y004365D02*
X029563Y004365D01*
X029563Y004287D02*
X027323Y004287D01*
X027320Y004208D02*
X029567Y004208D01*
X029563Y004212D02*
X029645Y004130D01*
X030371Y004130D01*
X030453Y004212D01*
X030453Y004840D01*
X030371Y004922D01*
X029645Y004922D01*
X029563Y004840D01*
X029563Y004212D01*
X029563Y004601D02*
X027323Y004601D01*
X027323Y004679D02*
X029563Y004679D01*
X029563Y004758D02*
X027323Y004758D01*
X027323Y004836D02*
X029563Y004836D01*
X029638Y004915D02*
X027249Y004915D01*
X027129Y004130D02*
X030798Y004130D01*
X030776Y004051D02*
X027211Y004051D01*
X027255Y003973D02*
X030732Y003973D01*
X030705Y003894D02*
X027282Y003894D01*
X027282Y003816D02*
X030705Y003816D01*
X030720Y003737D02*
X027267Y003737D01*
X027234Y003659D02*
X030752Y003659D01*
X030825Y003580D02*
X027162Y003580D01*
X027202Y003150D02*
X026918Y003150D01*
X026918Y002794D01*
X026838Y002794D01*
X026838Y002714D01*
X026433Y002714D01*
X026433Y002480D01*
X026443Y002444D01*
X026461Y002412D01*
X026487Y002386D01*
X026519Y002368D01*
X026555Y002358D01*
X026838Y002358D01*
X026838Y002714D01*
X026918Y002714D01*
X026918Y002358D01*
X027202Y002358D01*
X027238Y002368D01*
X027269Y002386D01*
X027296Y002412D01*
X027314Y002444D01*
X027323Y002480D01*
X027323Y002714D01*
X026918Y002714D01*
X026918Y002794D01*
X027323Y002794D01*
X027323Y003029D01*
X027314Y003064D01*
X027296Y003096D01*
X027269Y003122D01*
X027238Y003141D01*
X027202Y003150D01*
X027283Y003109D02*
X029604Y003109D01*
X029563Y003068D02*
X029563Y002440D01*
X029645Y002358D01*
X030371Y002358D01*
X030453Y002440D01*
X030453Y003068D01*
X030371Y003150D01*
X029645Y003150D01*
X029563Y003068D01*
X029563Y003031D02*
X027323Y003031D01*
X027323Y002952D02*
X029563Y002952D01*
X029563Y002874D02*
X027323Y002874D01*
X027323Y002795D02*
X029563Y002795D01*
X029563Y002717D02*
X026918Y002717D01*
X026918Y002795D02*
X026838Y002795D01*
X026838Y002794D02*
X026838Y003150D01*
X026555Y003150D01*
X026519Y003141D01*
X026487Y003122D01*
X026461Y003096D01*
X026443Y003064D01*
X026433Y003029D01*
X026433Y002794D01*
X026838Y002794D01*
X026838Y002717D02*
X026353Y002717D01*
X026353Y002795D02*
X026433Y002795D01*
X026433Y002874D02*
X026353Y002874D01*
X026353Y002952D02*
X026433Y002952D01*
X026434Y003031D02*
X026353Y003031D01*
X026312Y003109D02*
X026474Y003109D01*
X026838Y003109D02*
X026918Y003109D01*
X026918Y003031D02*
X026838Y003031D01*
X026838Y002952D02*
X026918Y002952D01*
X026918Y002874D02*
X026838Y002874D01*
X026838Y002638D02*
X026918Y002638D01*
X026918Y002560D02*
X026838Y002560D01*
X026838Y002481D02*
X026918Y002481D01*
X026918Y002403D02*
X026838Y002403D01*
X026471Y002403D02*
X026316Y002403D01*
X026353Y002481D02*
X026433Y002481D01*
X026433Y002560D02*
X026353Y002560D01*
X026353Y002638D02*
X026433Y002638D01*
X027286Y002403D02*
X029601Y002403D01*
X029563Y002481D02*
X027323Y002481D01*
X027323Y002560D02*
X029563Y002560D01*
X029563Y002638D02*
X027323Y002638D01*
X025501Y002403D02*
X023186Y002403D01*
X023223Y002481D02*
X025463Y002481D01*
X025463Y002560D02*
X023223Y002560D01*
X023223Y002638D02*
X025463Y002638D01*
X025643Y005540D02*
X025643Y013340D01*
X025331Y013471D02*
X017303Y013471D01*
X017303Y013393D02*
X025305Y013393D01*
X025305Y013314D02*
X017303Y013314D01*
X017303Y013236D02*
X025320Y013236D01*
X025353Y013157D02*
X017303Y013157D01*
X017303Y013079D02*
X025426Y013079D01*
X025463Y013000D02*
X017303Y013000D01*
X017303Y012922D02*
X025463Y012922D01*
X025463Y012843D02*
X017303Y012843D01*
X017303Y012765D02*
X025463Y012765D01*
X025463Y012686D02*
X017303Y012686D01*
X017303Y012608D02*
X025463Y012608D01*
X025463Y012529D02*
X017303Y012529D01*
X017303Y012451D02*
X025463Y012451D01*
X025463Y012372D02*
X017303Y012372D01*
X017303Y012294D02*
X025463Y012294D01*
X025463Y012215D02*
X017303Y012215D01*
X017303Y012137D02*
X025463Y012137D01*
X025463Y012058D02*
X017303Y012058D01*
X017303Y011980D02*
X025463Y011980D01*
X025463Y011901D02*
X017303Y011901D01*
X017303Y011823D02*
X025463Y011823D01*
X025463Y011744D02*
X017303Y011744D01*
X017303Y011666D02*
X025463Y011666D01*
X025463Y011587D02*
X017303Y011587D01*
X017303Y011509D02*
X025463Y011509D01*
X025463Y011430D02*
X017303Y011430D01*
X017303Y011352D02*
X025463Y011352D01*
X025463Y011273D02*
X017303Y011273D01*
X017303Y011195D02*
X025463Y011195D01*
X025463Y011116D02*
X017303Y011116D01*
X017303Y011038D02*
X025463Y011038D01*
X025463Y010959D02*
X017303Y010959D01*
X017303Y010881D02*
X025463Y010881D01*
X025463Y010802D02*
X017303Y010802D01*
X017303Y010724D02*
X025463Y010724D01*
X025463Y010645D02*
X017303Y010645D01*
X017303Y010567D02*
X025463Y010567D01*
X025463Y010488D02*
X017303Y010488D01*
X017303Y010410D02*
X025463Y010410D01*
X025463Y010331D02*
X017303Y010331D01*
X017303Y010253D02*
X025463Y010253D01*
X025463Y010174D02*
X017303Y010174D01*
X017303Y010096D02*
X025463Y010096D01*
X025463Y010017D02*
X017303Y010017D01*
X017303Y009939D02*
X025463Y009939D01*
X025463Y009860D02*
X017303Y009860D01*
X017303Y009782D02*
X025463Y009782D01*
X025463Y009703D02*
X017303Y009703D01*
X017303Y009625D02*
X025463Y009625D01*
X025463Y009546D02*
X017303Y009546D01*
X017303Y009468D02*
X025463Y009468D01*
X025463Y009389D02*
X017303Y009389D01*
X017303Y009311D02*
X025463Y009311D01*
X025463Y009232D02*
X017303Y009232D01*
X017303Y009154D02*
X025463Y009154D01*
X030379Y004915D02*
X030608Y004915D01*
X030533Y004836D02*
X030453Y004836D01*
X030453Y004758D02*
X030533Y004758D01*
X030533Y004679D02*
X030453Y004679D01*
X030453Y004601D02*
X030533Y004601D01*
X030533Y004522D02*
X030453Y004522D01*
X030453Y004444D02*
X030533Y004444D01*
X030533Y004365D02*
X030453Y004365D01*
X030453Y004287D02*
X030533Y004287D01*
X030537Y004208D02*
X030449Y004208D01*
X030978Y003905D02*
X031043Y003840D01*
X030978Y003905D02*
X030978Y004526D01*
X032098Y005671D02*
X032029Y005740D01*
X030938Y003150D02*
X030655Y003150D01*
X030619Y003141D01*
X030587Y003122D01*
X030561Y003096D01*
X030543Y003064D01*
X030533Y003029D01*
X030533Y002794D01*
X030938Y002794D01*
X030938Y003150D01*
X030938Y003109D02*
X031018Y003109D01*
X031018Y003031D02*
X030938Y003031D01*
X030938Y002952D02*
X031018Y002952D01*
X031018Y002874D02*
X030938Y002874D01*
X030938Y002795D02*
X031018Y002795D01*
X030938Y002717D02*
X030453Y002717D01*
X030453Y002795D02*
X030533Y002795D01*
X030533Y002874D02*
X030453Y002874D01*
X030453Y002952D02*
X030533Y002952D01*
X030534Y003031D02*
X030453Y003031D01*
X030412Y003109D02*
X030574Y003109D01*
X030533Y002638D02*
X030453Y002638D01*
X030453Y002560D02*
X030533Y002560D01*
X030533Y002481D02*
X030453Y002481D01*
X030416Y002403D02*
X030571Y002403D01*
X025374Y013550D02*
X017303Y013550D01*
X017303Y013628D02*
X025454Y013628D01*
X010033Y002638D02*
X009953Y002638D01*
X009953Y002560D02*
X010033Y002560D01*
X010033Y002481D02*
X009953Y002481D01*
X009916Y002403D02*
X010071Y002403D01*
X003598Y017553D02*
X001431Y017553D01*
D12*
X007643Y016540D03*
X008643Y016540D03*
X009643Y016540D03*
X010643Y016540D03*
X011643Y016540D03*
X012643Y016540D03*
X013643Y016540D03*
X014643Y016540D03*
X015643Y016540D03*
X016643Y016540D03*
X017643Y016540D03*
X018643Y016540D03*
X019643Y016540D03*
X020643Y016540D03*
X021643Y016540D03*
X022643Y016540D03*
X023643Y016540D03*
X024643Y016540D03*
X025643Y016540D03*
X026643Y016540D03*
X026643Y005540D03*
X025643Y005540D03*
X008643Y005540D03*
X007643Y005540D03*
D13*
X003243Y014240D03*
D14*
X004243Y014240D03*
X004243Y013240D03*
X003243Y013240D03*
X003243Y012240D03*
X004243Y012240D03*
X004243Y011240D03*
X003243Y011240D03*
X003243Y010240D03*
X004243Y010240D03*
X004243Y009240D03*
X003243Y009240D03*
X003243Y008240D03*
X004243Y008240D03*
D15*
X005408Y004526D03*
X006378Y004526D03*
X006378Y002754D03*
X005408Y002754D03*
X002278Y002754D03*
X002278Y004526D03*
X009508Y004526D03*
X010478Y004526D03*
X010478Y002754D03*
X009508Y002754D03*
X013608Y002754D03*
X014578Y002754D03*
X014578Y004526D03*
X013608Y004526D03*
X017708Y004526D03*
X018678Y004526D03*
X018678Y002754D03*
X017708Y002754D03*
X021808Y002754D03*
X022778Y002754D03*
X022778Y004526D03*
X021808Y004526D03*
X025908Y004526D03*
X026878Y004526D03*
X026878Y002754D03*
X025908Y002754D03*
X030008Y002754D03*
X030978Y002754D03*
X034108Y002754D03*
X034108Y004526D03*
X030978Y004526D03*
X030008Y004526D03*
D16*
X032098Y005671D03*
X032098Y006340D03*
X032098Y007009D03*
X033988Y007009D03*
X033988Y006340D03*
X033988Y005671D03*
D17*
X033363Y008140D02*
X032723Y008140D01*
X032723Y009140D02*
X033363Y009140D01*
X033363Y010140D02*
X032723Y010140D01*
X032723Y011140D02*
X033363Y011140D01*
X033363Y012140D02*
X032723Y012140D01*
X032723Y013140D02*
X033363Y013140D01*
D18*
X033703Y014840D03*
X032583Y014840D03*
X032683Y016540D03*
X033803Y016540D03*
D19*
X031858Y016540D03*
X031029Y016540D03*
X030929Y014840D03*
X031758Y014840D03*
D20*
X029143Y013992D03*
X029143Y016488D03*
D21*
X028843Y012640D03*
X028843Y008640D03*
D22*
X030243Y010290D03*
X030243Y012190D03*
D23*
X026543Y012340D03*
X025643Y013340D03*
X020743Y012040D03*
X018443Y013840D03*
X016343Y012740D03*
X016143Y010440D03*
X017943Y010440D03*
X013043Y012040D03*
X013443Y013340D03*
X011843Y013740D03*
X011243Y013740D03*
X010943Y012240D03*
X010343Y012140D03*
X009243Y011640D03*
X008643Y010940D03*
X007543Y012140D03*
X006043Y013740D03*
X007543Y015140D03*
X008943Y014540D03*
X009543Y015740D03*
X010343Y015640D03*
X012643Y015240D03*
X013343Y015240D03*
X013843Y014840D03*
X012243Y010440D03*
X010943Y010640D03*
X007143Y009340D03*
X009143Y007140D03*
X007843Y006640D03*
X004243Y005640D03*
X003143Y003640D03*
X006443Y003840D03*
X010543Y003840D03*
X014643Y003840D03*
X018743Y003840D03*
X022843Y003840D03*
X026943Y003840D03*
X031043Y003840D03*
X030943Y005740D03*
X030943Y006340D03*
X031043Y007040D03*
X030443Y015640D03*
X004843Y016240D03*
X002543Y012740D03*
D24*
X017043Y014240D03*
X017043Y007340D03*
D25*
X017043Y014240D01*
D26*
X031858Y016540D02*
X032683Y016540D01*
D27*
X032583Y014840D02*
X031758Y014840D01*
D28*
X029143Y013992D02*
X028843Y013692D01*
X028843Y012640D01*
X030243Y012190D02*
X030293Y012140D01*
X033043Y012140D01*
X030243Y010290D02*
X030243Y010040D01*
X028843Y008640D01*
D29*
X029143Y013992D02*
X030081Y013992D01*
X030929Y014840D01*
M02*
