G75*
%MOIN*%
%OFA0B0*%
%FSLAX24Y24*%
%IPPOS*%
%LPD*%
%AMOC8*
5,1,8,0,0,1.08239X$1,22.5*
%
%ADD10C,0.0000*%
%ADD11C,0.0080*%
%ADD12C,0.0040*%
%ADD13C,0.0030*%
%ADD14C,0.0060*%
%ADD15C,0.0010*%
%ADD16C,0.0050*%
D10*
X030323Y016120D02*
X030325Y016099D01*
X030330Y016079D01*
X030339Y016060D01*
X030351Y016043D01*
X030366Y016028D01*
X030383Y016016D01*
X030402Y016007D01*
X030422Y016002D01*
X030443Y016000D01*
X030464Y016002D01*
X030484Y016007D01*
X030503Y016016D01*
X030520Y016028D01*
X030535Y016043D01*
X030547Y016060D01*
X030556Y016079D01*
X030561Y016099D01*
X030563Y016120D01*
X064335Y000440D02*
X064335Y039810D01*
X001343Y039810D01*
D11*
X001243Y001640D02*
X035143Y001540D01*
X035143Y017640D01*
X001243Y017740D01*
X001243Y001640D01*
X012423Y010063D02*
X012547Y009940D01*
X013164Y009940D01*
X012423Y010063D02*
X012423Y010310D01*
X012547Y010434D01*
X013164Y010434D01*
X012794Y010695D02*
X012794Y011065D01*
X012670Y011189D01*
X012547Y011189D01*
X012423Y011065D01*
X012423Y010818D01*
X012547Y010695D01*
X012794Y010695D01*
X013041Y010942D01*
X013164Y011189D01*
X027571Y014513D02*
X027571Y014946D01*
X027571Y014513D02*
X027728Y014356D01*
X028358Y014356D01*
X028516Y014513D01*
X028516Y014946D01*
X028516Y015734D02*
X028516Y016324D01*
X027571Y016324D01*
X027571Y015734D01*
X030905Y016493D02*
X031028Y016370D01*
X031275Y016370D01*
X031398Y016493D01*
X031398Y016740D02*
X031151Y016864D01*
X031028Y016864D01*
X030905Y016740D01*
X030905Y016493D01*
X031398Y016740D02*
X031398Y017111D01*
X030905Y017111D01*
X031660Y017111D02*
X031660Y016493D01*
X031783Y016370D01*
X032030Y016370D01*
X032153Y016493D01*
X032153Y017111D01*
X032417Y014512D02*
X032850Y014512D01*
X032417Y014512D02*
X032259Y014355D01*
X032259Y013725D01*
X032417Y013568D01*
X032850Y013568D01*
X033637Y013568D02*
X034228Y013568D01*
X034228Y014512D01*
X033637Y014512D01*
D12*
X027773Y014320D02*
X027773Y013860D01*
X027773Y014013D02*
X027543Y014013D01*
X027466Y014090D01*
X027466Y014244D01*
X027543Y014320D01*
X027773Y014320D01*
X027620Y014013D02*
X027466Y013860D01*
X027313Y013860D02*
X027006Y013860D01*
X027159Y013860D02*
X027159Y014320D01*
X027313Y014167D01*
X026853Y014090D02*
X026546Y014090D01*
X026622Y013860D02*
X026622Y014320D01*
X026853Y014090D01*
X023555Y012820D02*
X023555Y012360D01*
X023555Y012513D02*
X023324Y012513D01*
X023248Y012590D01*
X023248Y012744D01*
X023324Y012820D01*
X023555Y012820D01*
X023401Y012513D02*
X023248Y012360D01*
X023094Y012360D02*
X022787Y012360D01*
X022634Y012360D02*
X022327Y012667D01*
X022327Y012744D01*
X022404Y012820D01*
X022557Y012820D01*
X022634Y012744D01*
X022941Y012820D02*
X023094Y012667D01*
X022941Y012820D02*
X022941Y012360D01*
X022634Y012360D02*
X022327Y012360D01*
X021874Y012610D02*
X021874Y012917D01*
X021874Y012763D02*
X021413Y012763D01*
X021413Y013070D02*
X021413Y013377D01*
X021413Y013224D02*
X021874Y013224D01*
X021720Y013070D01*
X022504Y011820D02*
X022427Y011744D01*
X022427Y011667D01*
X022504Y011590D01*
X022427Y011513D01*
X022427Y011437D01*
X022504Y011360D01*
X022657Y011360D01*
X022734Y011437D01*
X022887Y011360D02*
X023194Y011360D01*
X023041Y011360D02*
X023041Y011820D01*
X023194Y011667D01*
X023348Y011744D02*
X023348Y011590D01*
X023424Y011513D01*
X023655Y011513D01*
X023655Y011360D02*
X023655Y011820D01*
X023424Y011820D01*
X023348Y011744D01*
X023501Y011513D02*
X023348Y011360D01*
X022734Y011744D02*
X022657Y011820D01*
X022504Y011820D01*
X022504Y011590D02*
X022580Y011590D01*
X019374Y011710D02*
X019374Y012017D01*
X019374Y011863D02*
X018913Y011863D01*
X018990Y012170D02*
X018913Y012247D01*
X018913Y012401D01*
X018990Y012477D01*
X019067Y012477D01*
X019144Y012401D01*
X019144Y012324D01*
X019144Y012401D02*
X019220Y012477D01*
X019297Y012477D01*
X019374Y012401D01*
X019374Y012247D01*
X019297Y012170D01*
X028559Y008720D02*
X028559Y008260D01*
X028406Y008260D02*
X028713Y008260D01*
X028866Y008260D02*
X029020Y008413D01*
X028943Y008413D02*
X029173Y008413D01*
X029173Y008260D02*
X029173Y008720D01*
X028943Y008720D01*
X028866Y008644D01*
X028866Y008490D01*
X028943Y008413D01*
X028713Y008567D02*
X028559Y008720D01*
X028483Y007620D02*
X028636Y007620D01*
X028713Y007544D01*
X028866Y007544D02*
X028866Y007390D01*
X028943Y007313D01*
X029173Y007313D01*
X029173Y007160D02*
X029173Y007620D01*
X028943Y007620D01*
X028866Y007544D01*
X029020Y007313D02*
X028866Y007160D01*
X028713Y007160D02*
X028406Y007467D01*
X028406Y007544D01*
X028483Y007620D01*
X028406Y007160D02*
X028713Y007160D01*
X028813Y006820D02*
X028813Y006590D01*
X028659Y006667D01*
X028583Y006667D01*
X028506Y006590D01*
X028506Y006437D01*
X028583Y006360D01*
X028736Y006360D01*
X028813Y006437D01*
X028966Y006360D02*
X029120Y006513D01*
X029043Y006513D02*
X029273Y006513D01*
X029273Y006360D02*
X029273Y006820D01*
X029043Y006820D01*
X028966Y006744D01*
X028966Y006590D01*
X029043Y006513D01*
X028813Y006820D02*
X028506Y006820D01*
X028417Y004020D02*
X028264Y004020D01*
X028187Y003944D01*
X028187Y003867D01*
X028494Y003560D01*
X028187Y003560D01*
X028034Y003560D02*
X027727Y003867D01*
X027727Y003944D01*
X027804Y004020D01*
X027957Y004020D01*
X028034Y003944D01*
X028034Y003560D02*
X027727Y003560D01*
X028417Y004020D02*
X028494Y003944D01*
X028648Y003944D02*
X028648Y003790D01*
X028724Y003713D01*
X028955Y003713D01*
X028955Y003560D02*
X028955Y004020D01*
X028724Y004020D01*
X028648Y003944D01*
X028801Y003713D02*
X028648Y003560D01*
X028155Y002620D02*
X027924Y002620D01*
X027848Y002544D01*
X027848Y002390D01*
X027924Y002313D01*
X028155Y002313D01*
X028155Y002160D02*
X028155Y002620D01*
X028001Y002313D02*
X027848Y002160D01*
X027694Y002160D02*
X027387Y002160D01*
X027541Y002160D02*
X027541Y002620D01*
X027694Y002467D01*
X027234Y002390D02*
X027080Y002467D01*
X027004Y002467D01*
X026927Y002390D01*
X026927Y002237D01*
X027004Y002160D01*
X027157Y002160D01*
X027234Y002237D01*
X027234Y002390D02*
X027234Y002620D01*
X026927Y002620D01*
X024855Y003560D02*
X024855Y004020D01*
X024624Y004020D01*
X024548Y003944D01*
X024548Y003790D01*
X024624Y003713D01*
X024855Y003713D01*
X024701Y003713D02*
X024548Y003560D01*
X024394Y003560D02*
X024087Y003867D01*
X024087Y003944D01*
X024164Y004020D01*
X024317Y004020D01*
X024394Y003944D01*
X024394Y003560D02*
X024087Y003560D01*
X023934Y003637D02*
X023857Y003560D01*
X023704Y003560D01*
X023627Y003637D01*
X023627Y003713D01*
X023704Y003790D01*
X023780Y003790D01*
X023704Y003790D02*
X023627Y003867D01*
X023627Y003944D01*
X023704Y004020D01*
X023857Y004020D01*
X023934Y003944D01*
X023824Y002620D02*
X023748Y002544D01*
X023748Y002390D01*
X023824Y002313D01*
X024055Y002313D01*
X024055Y002160D02*
X024055Y002620D01*
X023824Y002620D01*
X023594Y002467D02*
X023441Y002620D01*
X023441Y002160D01*
X023594Y002160D02*
X023287Y002160D01*
X023134Y002237D02*
X023057Y002160D01*
X022904Y002160D01*
X022827Y002237D01*
X022827Y002313D01*
X022904Y002390D01*
X023134Y002390D01*
X023134Y002237D01*
X023134Y002390D02*
X022980Y002544D01*
X022827Y002620D01*
X023748Y002160D02*
X023901Y002313D01*
X020855Y003560D02*
X020855Y004020D01*
X020624Y004020D01*
X020548Y003944D01*
X020548Y003790D01*
X020624Y003713D01*
X020855Y003713D01*
X020701Y003713D02*
X020548Y003560D01*
X020394Y003560D02*
X020087Y003867D01*
X020087Y003944D01*
X020164Y004020D01*
X020317Y004020D01*
X020394Y003944D01*
X020394Y003560D02*
X020087Y003560D01*
X019934Y003790D02*
X019627Y003790D01*
X019704Y003560D02*
X019704Y004020D01*
X019934Y003790D01*
X019855Y002620D02*
X019624Y002620D01*
X019548Y002544D01*
X019548Y002390D01*
X019624Y002313D01*
X019855Y002313D01*
X019855Y002160D02*
X019855Y002620D01*
X019701Y002313D02*
X019548Y002160D01*
X019394Y002160D02*
X019087Y002160D01*
X018934Y002160D02*
X018934Y002237D01*
X018627Y002544D01*
X018627Y002620D01*
X018934Y002620D01*
X019241Y002620D02*
X019241Y002160D01*
X019394Y002467D02*
X019241Y002620D01*
X016755Y003560D02*
X016755Y004020D01*
X016524Y004020D01*
X016448Y003944D01*
X016448Y003790D01*
X016524Y003713D01*
X016755Y003713D01*
X016601Y003713D02*
X016448Y003560D01*
X016294Y003560D02*
X015987Y003867D01*
X015987Y003944D01*
X016064Y004020D01*
X016217Y004020D01*
X016294Y003944D01*
X016294Y003560D02*
X015987Y003560D01*
X015834Y003637D02*
X015757Y003560D01*
X015604Y003560D01*
X015527Y003637D01*
X015527Y003790D01*
X015604Y003867D01*
X015680Y003867D01*
X015834Y003790D01*
X015834Y004020D01*
X015527Y004020D01*
X015341Y002620D02*
X015341Y002160D01*
X015494Y002160D02*
X015187Y002160D01*
X015034Y002237D02*
X015034Y002313D01*
X014957Y002390D01*
X014804Y002390D01*
X014727Y002313D01*
X014727Y002237D01*
X014804Y002160D01*
X014957Y002160D01*
X015034Y002237D01*
X014957Y002390D02*
X015034Y002467D01*
X015034Y002544D01*
X014957Y002620D01*
X014804Y002620D01*
X014727Y002544D01*
X014727Y002467D01*
X014804Y002390D01*
X015341Y002620D02*
X015494Y002467D01*
X015648Y002544D02*
X015648Y002390D01*
X015724Y002313D01*
X015955Y002313D01*
X015955Y002160D02*
X015955Y002620D01*
X015724Y002620D01*
X015648Y002544D01*
X015801Y002313D02*
X015648Y002160D01*
X012655Y003560D02*
X012655Y004020D01*
X012424Y004020D01*
X012348Y003944D01*
X012348Y003790D01*
X012424Y003713D01*
X012655Y003713D01*
X012501Y003713D02*
X012348Y003560D01*
X012194Y003560D02*
X011887Y003867D01*
X011887Y003944D01*
X011964Y004020D01*
X012117Y004020D01*
X012194Y003944D01*
X012194Y003560D02*
X011887Y003560D01*
X011734Y003637D02*
X011657Y003560D01*
X011504Y003560D01*
X011427Y003637D01*
X011427Y003713D01*
X011504Y003790D01*
X011734Y003790D01*
X011734Y003637D01*
X011734Y003790D02*
X011580Y003944D01*
X011427Y004020D01*
X011241Y002620D02*
X011241Y002160D01*
X011394Y002160D02*
X011087Y002160D01*
X010934Y002237D02*
X010857Y002160D01*
X010704Y002160D01*
X010627Y002237D01*
X010627Y002544D01*
X010704Y002620D01*
X010857Y002620D01*
X010934Y002544D01*
X010934Y002467D01*
X010857Y002390D01*
X010627Y002390D01*
X011241Y002620D02*
X011394Y002467D01*
X011548Y002544D02*
X011548Y002390D01*
X011624Y002313D01*
X011855Y002313D01*
X011855Y002160D02*
X011855Y002620D01*
X011624Y002620D01*
X011548Y002544D01*
X011701Y002313D02*
X011548Y002160D01*
X008555Y003560D02*
X008555Y004020D01*
X008324Y004020D01*
X008248Y003944D01*
X008248Y003790D01*
X008324Y003713D01*
X008555Y003713D01*
X008401Y003713D02*
X008248Y003560D01*
X008094Y003560D02*
X007787Y003867D01*
X007787Y003944D01*
X007864Y004020D01*
X008017Y004020D01*
X008094Y003944D01*
X008094Y003560D02*
X007787Y003560D01*
X007634Y003560D02*
X007634Y003637D01*
X007327Y003944D01*
X007327Y004020D01*
X007634Y004020D01*
X007724Y002520D02*
X007648Y002444D01*
X007648Y002290D01*
X007724Y002213D01*
X007955Y002213D01*
X007955Y002060D02*
X007955Y002520D01*
X007724Y002520D01*
X007494Y002444D02*
X007417Y002520D01*
X007264Y002520D01*
X007187Y002444D01*
X007187Y002367D01*
X007494Y002060D01*
X007187Y002060D01*
X007034Y002137D02*
X006727Y002444D01*
X006727Y002137D01*
X006804Y002060D01*
X006957Y002060D01*
X007034Y002137D01*
X007034Y002444D01*
X006957Y002520D01*
X006804Y002520D01*
X006727Y002444D01*
X007648Y002060D02*
X007801Y002213D01*
X007155Y005660D02*
X007155Y006120D01*
X006924Y006120D01*
X006848Y006044D01*
X006848Y005890D01*
X006924Y005813D01*
X007155Y005813D01*
X007001Y005813D02*
X006848Y005660D01*
X006694Y005660D02*
X006387Y005660D01*
X006234Y005660D02*
X005927Y005660D01*
X006080Y005660D02*
X006080Y006120D01*
X006234Y005967D01*
X006541Y006120D02*
X006541Y005660D01*
X006694Y005967D02*
X006541Y006120D01*
X005874Y006063D02*
X005413Y006063D01*
X005413Y006370D02*
X005720Y006677D01*
X005797Y006677D01*
X005874Y006601D01*
X005874Y006447D01*
X005797Y006370D01*
X005874Y006217D02*
X005874Y005910D01*
X005413Y006370D02*
X005413Y006677D01*
X003324Y009510D02*
X002863Y009510D01*
X003017Y009510D02*
X003017Y009740D01*
X003094Y009817D01*
X003247Y009817D01*
X003324Y009740D01*
X003324Y009510D01*
X003017Y009663D02*
X002863Y009817D01*
X002940Y009970D02*
X003017Y009970D01*
X003094Y010047D01*
X003094Y010201D01*
X003017Y010277D01*
X002940Y010277D01*
X002863Y010201D01*
X002863Y010047D01*
X002940Y009970D01*
X003094Y010047D02*
X003170Y009970D01*
X003247Y009970D01*
X003324Y010047D01*
X003324Y010201D01*
X003247Y010277D01*
X003170Y010277D01*
X003094Y010201D01*
X003704Y014260D02*
X003627Y014337D01*
X003627Y014644D01*
X003704Y014720D01*
X003857Y014720D01*
X003934Y014644D01*
X003934Y014567D01*
X003857Y014490D01*
X003627Y014490D01*
X003704Y014260D02*
X003857Y014260D01*
X003934Y014337D01*
X004087Y014260D02*
X004241Y014413D01*
X004164Y014413D02*
X004394Y014413D01*
X004394Y014260D02*
X004394Y014720D01*
X004164Y014720D01*
X004087Y014644D01*
X004087Y014490D01*
X004164Y014413D01*
X004087Y015160D02*
X004241Y015313D01*
X004164Y015313D02*
X004394Y015313D01*
X004394Y015160D02*
X004394Y015620D01*
X004164Y015620D01*
X004087Y015544D01*
X004087Y015390D01*
X004164Y015313D01*
X003934Y015237D02*
X003857Y015160D01*
X003704Y015160D01*
X003627Y015237D01*
X003627Y015313D01*
X003704Y015390D01*
X003934Y015390D01*
X003934Y015237D01*
X003934Y015390D02*
X003780Y015544D01*
X003627Y015620D01*
X005863Y014970D02*
X005940Y014970D01*
X006247Y015277D01*
X006324Y015277D01*
X006324Y014970D01*
X006247Y014817D02*
X006094Y014817D01*
X006017Y014740D01*
X006017Y014510D01*
X006017Y014663D02*
X005863Y014817D01*
X005863Y014510D02*
X006324Y014510D01*
X006324Y014740D01*
X006247Y014817D01*
X031227Y002444D02*
X031534Y002137D01*
X031457Y002060D01*
X031304Y002060D01*
X031227Y002137D01*
X031227Y002444D01*
X031304Y002520D01*
X031457Y002520D01*
X031534Y002444D01*
X031534Y002137D01*
X031687Y002060D02*
X031994Y002060D01*
X031841Y002060D02*
X031841Y002520D01*
X031994Y002367D01*
X032148Y002444D02*
X032148Y002290D01*
X032224Y002213D01*
X032455Y002213D01*
X032455Y002060D02*
X032455Y002520D01*
X032224Y002520D01*
X032148Y002444D01*
X032301Y002213D02*
X032148Y002060D01*
X032080Y003560D02*
X032080Y004020D01*
X032234Y003867D01*
X032387Y003867D02*
X032387Y003944D01*
X032464Y004020D01*
X032617Y004020D01*
X032694Y003944D01*
X032848Y003944D02*
X032848Y003790D01*
X032924Y003713D01*
X033155Y003713D01*
X033155Y003560D02*
X033155Y004020D01*
X032924Y004020D01*
X032848Y003944D01*
X033001Y003713D02*
X032848Y003560D01*
X032694Y003560D02*
X032387Y003867D01*
X032387Y003560D02*
X032694Y003560D01*
X032234Y003560D02*
X031927Y003560D01*
X033063Y006510D02*
X033524Y006510D01*
X033524Y006740D01*
X033447Y006817D01*
X033294Y006817D01*
X033217Y006740D01*
X033217Y006510D01*
X033217Y006663D02*
X033063Y006817D01*
X033140Y006970D02*
X033063Y007047D01*
X033063Y007201D01*
X033140Y007277D01*
X033217Y007277D01*
X033294Y007201D01*
X033294Y007124D01*
X033294Y007201D02*
X033370Y007277D01*
X033447Y007277D01*
X033524Y007201D01*
X033524Y007047D01*
X033447Y006970D01*
D13*
X023235Y014684D02*
X023173Y014622D01*
X023050Y014622D01*
X022988Y014684D01*
X022867Y014684D02*
X022805Y014622D01*
X022682Y014622D01*
X022620Y014684D01*
X022620Y014745D01*
X022682Y014807D01*
X022743Y014807D01*
X022682Y014807D02*
X022620Y014869D01*
X022620Y014931D01*
X022682Y014992D01*
X022805Y014992D01*
X022867Y014931D01*
X022988Y014931D02*
X023050Y014992D01*
X023173Y014992D01*
X023235Y014931D01*
X023235Y014684D01*
X026243Y015888D02*
X026490Y015888D01*
X026367Y015888D02*
X026367Y016258D01*
X026490Y016135D01*
X026611Y016197D02*
X026673Y016258D01*
X026797Y016258D01*
X026858Y016197D01*
X026858Y015950D01*
X026797Y015888D01*
X026673Y015888D01*
X026611Y015950D01*
X031695Y016010D02*
X032008Y016010D01*
X032008Y015853D02*
X031695Y016167D01*
X031852Y016167D02*
X031852Y015853D01*
X031695Y015853D02*
X032008Y016167D01*
X012240Y009959D02*
X011927Y009645D01*
X012084Y009645D02*
X012084Y009959D01*
X011927Y009959D02*
X012240Y009645D01*
X012240Y009802D02*
X011927Y009802D01*
D14*
X011923Y010320D02*
X011923Y011320D01*
X011923Y011560D01*
X011923Y012560D01*
X011923Y011560D02*
X011902Y011558D01*
X011882Y011553D01*
X011863Y011544D01*
X011846Y011532D01*
X011831Y011517D01*
X011819Y011500D01*
X011810Y011481D01*
X011805Y011461D01*
X011803Y011440D01*
X011805Y011419D01*
X011810Y011399D01*
X011819Y011380D01*
X011831Y011363D01*
X011846Y011348D01*
X011863Y011336D01*
X011882Y011327D01*
X011902Y011322D01*
X011923Y011320D01*
X011707Y014622D02*
X011707Y014858D01*
X012180Y014858D02*
X012180Y014622D01*
X011080Y014622D02*
X011080Y014858D01*
X010607Y014858D02*
X010607Y014622D01*
X009980Y014622D02*
X009980Y014858D01*
X009507Y014858D02*
X009507Y014622D01*
X006963Y012560D02*
X006963Y010320D01*
X002580Y011222D02*
X002580Y011458D01*
X002107Y011458D02*
X002107Y011222D01*
X029743Y013560D02*
X029743Y016120D01*
X030323Y016120D01*
X030563Y016120D01*
X031143Y016120D01*
X031143Y013560D01*
X029743Y013560D01*
D15*
X027470Y015903D02*
X027370Y015903D01*
X027345Y015928D01*
X027345Y015978D01*
X027370Y016003D01*
X027345Y016050D02*
X027345Y016150D01*
X027345Y016198D02*
X027345Y016298D01*
X027345Y016248D02*
X027495Y016248D01*
X027445Y016198D01*
X027495Y016100D02*
X027345Y016100D01*
X027445Y016050D02*
X027495Y016100D01*
X027470Y016003D02*
X027495Y015978D01*
X027495Y015928D01*
X027470Y015903D01*
X033844Y014714D02*
X033944Y014614D01*
X033919Y014589D01*
X033869Y014589D01*
X033844Y014614D01*
X033844Y014714D01*
X033869Y014739D01*
X033919Y014739D01*
X033944Y014714D01*
X033944Y014614D01*
X033991Y014589D02*
X034091Y014589D01*
X034041Y014589D02*
X034041Y014739D01*
X034091Y014689D01*
X034138Y014714D02*
X034163Y014739D01*
X034213Y014739D01*
X034238Y014714D01*
X034238Y014614D01*
X034213Y014589D01*
X034163Y014589D01*
X034138Y014614D01*
X012423Y014642D02*
X012273Y014642D01*
X012273Y014592D02*
X012273Y014692D01*
X012298Y014740D02*
X012273Y014765D01*
X012273Y014815D01*
X012298Y014840D01*
X012348Y014840D01*
X012373Y014815D01*
X012373Y014790D01*
X012348Y014740D01*
X012423Y014740D01*
X012423Y014840D01*
X012423Y014642D02*
X012373Y014592D01*
X012398Y014545D02*
X012423Y014520D01*
X012423Y014470D01*
X012398Y014445D01*
X012298Y014445D01*
X012273Y014470D01*
X012273Y014520D01*
X012298Y014545D01*
X011323Y014520D02*
X011323Y014470D01*
X011298Y014445D01*
X011198Y014445D01*
X011173Y014470D01*
X011173Y014520D01*
X011198Y014545D01*
X011173Y014592D02*
X011173Y014692D01*
X011173Y014642D02*
X011323Y014642D01*
X011273Y014592D01*
X011298Y014545D02*
X011323Y014520D01*
X011248Y014740D02*
X011248Y014840D01*
X011173Y014815D02*
X011323Y014815D01*
X011248Y014740D01*
X009413Y014800D02*
X009363Y014750D01*
X009388Y014703D02*
X009413Y014678D01*
X009413Y014628D01*
X009388Y014603D01*
X009288Y014603D01*
X009263Y014628D01*
X009263Y014678D01*
X009288Y014703D01*
X009263Y014750D02*
X009263Y014850D01*
X009263Y014898D02*
X009363Y014998D01*
X009388Y014998D01*
X009413Y014973D01*
X009413Y014923D01*
X009388Y014898D01*
X009413Y014800D02*
X009263Y014800D01*
X009263Y014898D02*
X009263Y014998D01*
X002013Y011598D02*
X001988Y011548D01*
X001938Y011498D01*
X001938Y011573D01*
X001913Y011598D01*
X001888Y011598D01*
X001863Y011573D01*
X001863Y011523D01*
X001888Y011498D01*
X001938Y011498D01*
X001863Y011450D02*
X001863Y011350D01*
X001863Y011400D02*
X002013Y011400D01*
X001963Y011350D01*
X001988Y011303D02*
X002013Y011278D01*
X002013Y011228D01*
X001988Y011203D01*
X001888Y011203D01*
X001863Y011228D01*
X001863Y011278D01*
X001888Y011303D01*
D16*
X027643Y015190D02*
X028443Y015190D01*
X033093Y014440D02*
X033093Y013640D01*
M02*
