G75*
%MOIN*%
%OFA0B0*%
%FSLAX24Y24*%
%IPPOS*%
%LPD*%
%AMOC8*
5,1,8,0,0,1.08239X$1,22.5*
%
%ADD10R,0.0640X0.0640*%
%ADD11R,0.0670X0.0670*%
%ADD12C,0.0670*%
%ADD13R,0.0690X0.0592*%
%ADD14R,0.0867X0.0513*%
%ADD15C,0.0720*%
%ADD16R,0.0710X0.0790*%
%ADD17R,0.0671X0.0474*%
%ADD18R,0.1143X0.1084*%
%ADD19C,0.0760*%
%ADD20R,0.1280X0.0980*%
%ADD21C,0.0556*%
D10*
X007643Y005540D03*
X008643Y005540D03*
X025643Y005540D03*
X026643Y005540D03*
X026643Y016540D03*
X025643Y016540D03*
X024643Y016540D03*
X023643Y016540D03*
X022643Y016540D03*
X021643Y016540D03*
X020643Y016540D03*
X019643Y016540D03*
X018643Y016540D03*
X017643Y016540D03*
X016643Y016540D03*
X015643Y016540D03*
X014643Y016540D03*
X013643Y016540D03*
X012643Y016540D03*
X011643Y016540D03*
X010643Y016540D03*
X009643Y016540D03*
X008643Y016540D03*
X007643Y016540D03*
D11*
X003243Y014240D03*
D12*
X004243Y014240D03*
X004243Y013240D03*
X003243Y013240D03*
X003243Y012240D03*
X004243Y012240D03*
X004243Y011240D03*
X003243Y011240D03*
X003243Y010240D03*
X004243Y010240D03*
X004243Y009240D03*
X003243Y009240D03*
X003243Y008240D03*
X004243Y008240D03*
D13*
X002278Y002754D03*
X002278Y004526D03*
X005408Y004526D03*
X006378Y004526D03*
X006378Y002754D03*
X005408Y002754D03*
X009508Y002754D03*
X010478Y002754D03*
X010478Y004526D03*
X009508Y004526D03*
X013608Y004526D03*
X014578Y004526D03*
X014578Y002754D03*
X013608Y002754D03*
X017708Y002754D03*
X018678Y002754D03*
X018678Y004526D03*
X017708Y004526D03*
X021808Y004526D03*
X022778Y004526D03*
X022778Y002754D03*
X021808Y002754D03*
X025908Y002754D03*
X026878Y002754D03*
X026878Y004526D03*
X025908Y004526D03*
X030008Y004526D03*
X030978Y004526D03*
X034108Y004526D03*
X034108Y002754D03*
X030978Y002754D03*
X030008Y002754D03*
D14*
X032098Y005671D03*
X032098Y006340D03*
X032098Y007009D03*
X033988Y007009D03*
X033988Y006340D03*
X033988Y005671D03*
D15*
X033363Y008140D02*
X032723Y008140D01*
X032723Y009140D02*
X033363Y009140D01*
X033363Y010140D02*
X032723Y010140D01*
X032723Y011140D02*
X033363Y011140D01*
X033363Y012140D02*
X032723Y012140D01*
X032723Y013140D02*
X033363Y013140D01*
D16*
X033703Y014840D03*
X032583Y014840D03*
X032683Y016540D03*
X033803Y016540D03*
D17*
X031858Y016540D03*
X031029Y016540D03*
X030929Y014840D03*
X031758Y014840D03*
D18*
X029143Y013992D03*
X029143Y016488D03*
D19*
X028843Y012640D03*
X028843Y008640D03*
D20*
X030243Y010290D03*
X030243Y012190D03*
D21*
X017043Y014240D03*
X017043Y007340D03*
M02*
