%
M48
M72
T01C0.0120
T02C0.0130
T03C0.0250
T04C0.0350
T05C0.0400
T06C0.0500
T07C0.1260
%
T01
X5750Y22430
X5750Y23280
X6650Y23280
X6650Y22430
T02
X7650Y21980
X6950Y20830
X7250Y19930
X6700Y19380
X7000Y19080
X7300Y18780
X7250Y18380
X7300Y18030
X6400Y19930
X4250Y22380
X4250Y23130
X3350Y22530
X5250Y24080
X5550Y24080
X5900Y24130
X5800Y25080
X4950Y24630
X4350Y24880
X3300Y25680
X7550Y24180
X9300Y23530
X9900Y27580
X15450Y29130
X23250Y24180
X23200Y17980
X23200Y12180
X23250Y6130
X9350Y4130
X5600Y9680
X6250Y10230
X5850Y10780
X6850Y10980
X6550Y11680
X6600Y12180
X7300Y14030
X7650Y14180
X8500Y14330
X8550Y13430
X9250Y12030
X8600Y11180
X7000Y15530
X6700Y15830
X7300Y15830
X7600Y15630
T03
X6550Y24230
T04
X8550Y18930
T05
X14250Y19180
X15250Y19180
X16250Y19180
X17250Y19180
X18750Y19180
X19750Y19180
X20750Y19180
X21750Y19180
X21750Y21180
X20750Y21180
X19750Y21180
X18750Y21180
X17250Y21180
X16250Y21180
X15250Y21180
X14250Y21180
X14250Y23180
X15250Y23180
X16250Y23180
X17250Y23180
X18750Y23180
X19750Y23180
X20750Y23180
X21750Y23180
X21750Y25180
X20750Y25180
X19750Y25180
X18750Y25180
X17250Y25180
X16250Y25180
X15250Y25180
X14250Y25180
X14250Y27180
X15250Y27180
X16250Y27180
X17250Y27180
X18750Y27180
X19750Y27180
X20750Y27180
X21750Y27180
X11650Y28880
X10650Y28880
X9550Y28880
X8550Y28880
X14250Y17180
X15250Y17180
X16250Y17180
X17250Y17180
X18750Y17180
X19750Y17180
X20750Y17180
X21750Y17180
X21750Y15180
X20750Y15180
X19750Y15180
X18750Y15180
X17250Y15180
X16250Y15180
X15250Y15180
X14250Y15180
X14250Y13180
X15250Y13180
X16250Y13180
X17250Y13180
X18750Y13180
X19750Y13180
X20750Y13180
X21750Y13180
X21750Y11180
X20750Y11180
X19750Y11180
X18750Y11180
X17250Y11180
X16250Y11180
X15250Y11180
X14250Y11180
X14250Y9180
X15250Y9180
X16250Y9180
X17250Y9180
X18750Y9180
X19750Y9180
X20750Y9180
X21750Y9180
X21750Y7180
X20750Y7180
X19750Y7180
X18750Y7180
X17250Y7180
X16250Y7180
X15250Y7180
X14250Y7180
X14250Y5180
X15250Y5180
X16250Y5180
X17250Y5180
X18750Y5180
X19750Y5180
X20750Y5180
X21750Y5180
X21750Y3180
X20750Y3180
X19750Y3180
X18750Y3180
X17250Y3180
X16250Y3180
X15250Y3180
X14250Y3180
X14250Y1180
X15250Y1180
X16250Y1180
X17250Y1180
X18750Y1180
X19750Y1180
X20750Y1180
X21750Y1180
X4500Y4230
X4500Y5230
X4500Y6230
X4500Y7230
X4500Y8230
X4500Y9230
T06
X3350Y15380
X3350Y16380
X3350Y17380
T07
X4750Y2180
X23950Y2180
X23950Y27680
X4750Y27680
M30
