G75*
%MOIN*%
%OFA0B0*%
%FSLAX25Y25*%
%IPPOS*%
%LPD*%
%AMOC8*
5,1,8,0,0,1.08239X$1,22.5*
%
%ADD10C,0.01600*%
%ADD11C,0.00100*%
%ADD12R,0.02369X0.06306*%
%ADD13R,0.06306X0.02369*%
%ADD14R,0.05518X0.06306*%
%ADD15R,0.03550X0.03550*%
%ADD16C,0.06400*%
%ADD17R,0.06306X0.05518*%
%ADD18R,0.05912X0.06700*%
%ADD19R,0.01181X0.02362*%
%ADD20R,0.02362X0.01181*%
%ADD21R,0.01969X0.01969*%
%ADD22R,0.05912X0.01778*%
%ADD23R,0.07880X0.07487*%
%ADD24R,0.07880X0.07880*%
%ADD25C,0.07900*%
%ADD26C,0.23400*%
%ADD27R,0.06300X0.08300*%
%ADD28R,0.15400X0.08300*%
D10*
X0027500Y0001800D02*
X0027500Y0297076D01*
X0257500Y0297076D01*
X0257500Y0001800D02*
X0027500Y0001800D01*
D11*
X0257500Y0001800D02*
X0257500Y0297076D01*
D12*
X0098248Y0149635D03*
X0095098Y0149635D03*
X0091949Y0149635D03*
X0088799Y0149635D03*
X0085650Y0149635D03*
X0082500Y0149635D03*
X0079350Y0149635D03*
X0076201Y0149635D03*
X0073051Y0149635D03*
X0069902Y0149635D03*
X0066752Y0149635D03*
X0066752Y0103965D03*
X0069902Y0103965D03*
X0073051Y0103965D03*
X0076201Y0103965D03*
X0079350Y0103965D03*
X0082500Y0103965D03*
X0085650Y0103965D03*
X0088799Y0103965D03*
X0091949Y0103965D03*
X0095098Y0103965D03*
X0098248Y0103965D03*
D13*
X0105335Y0111052D03*
X0105335Y0114202D03*
X0105335Y0117351D03*
X0105335Y0120501D03*
X0105335Y0123650D03*
X0105335Y0126800D03*
X0105335Y0129950D03*
X0105335Y0133099D03*
X0105335Y0136249D03*
X0105335Y0139398D03*
X0105335Y0142548D03*
X0059665Y0142548D03*
X0059665Y0139398D03*
X0059665Y0136249D03*
X0059665Y0133099D03*
X0059665Y0129950D03*
X0059665Y0126800D03*
X0059665Y0123650D03*
X0059665Y0120501D03*
X0059665Y0117351D03*
X0059665Y0114202D03*
X0059665Y0111052D03*
D14*
X0053240Y0181800D03*
X0045760Y0181800D03*
X0045760Y0190300D03*
X0053240Y0190300D03*
X0053240Y0198300D03*
X0045760Y0198300D03*
X0045760Y0206300D03*
X0053240Y0206300D03*
X0053240Y0214300D03*
X0045760Y0214300D03*
X0075260Y0241800D03*
X0082740Y0241800D03*
X0065740Y0250800D03*
X0058260Y0250800D03*
X0085760Y0214800D03*
X0093240Y0214800D03*
X0093240Y0206800D03*
X0085760Y0206800D03*
X0098760Y0275800D03*
X0106240Y0275800D03*
X0129260Y0291300D03*
X0136740Y0291300D03*
X0225260Y0241300D03*
X0232740Y0241300D03*
X0231740Y0179800D03*
X0224260Y0179800D03*
X0224260Y0121800D03*
X0231740Y0121800D03*
X0232740Y0061300D03*
X0225260Y0061300D03*
X0092240Y0010300D03*
X0084760Y0010300D03*
X0076240Y0010300D03*
X0068760Y0010300D03*
D15*
X0037953Y0181800D03*
X0032047Y0181800D03*
X0032047Y0190300D03*
X0037953Y0190300D03*
X0037953Y0198300D03*
X0032047Y0198300D03*
X0032047Y0206300D03*
X0037953Y0206300D03*
X0037953Y0213800D03*
X0032047Y0213800D03*
X0073547Y0214800D03*
X0079453Y0214800D03*
X0079453Y0206800D03*
X0073547Y0206800D03*
X0144547Y0291300D03*
X0150453Y0291300D03*
D16*
X0152500Y0274800D02*
X0152500Y0268800D01*
X0162500Y0268800D02*
X0162500Y0274800D01*
X0172500Y0274800D02*
X0172500Y0268800D01*
X0172500Y0254800D02*
X0172500Y0248800D01*
X0162500Y0248800D02*
X0162500Y0254800D01*
X0152500Y0254800D02*
X0152500Y0248800D01*
X0142500Y0248800D02*
X0142500Y0254800D01*
X0142500Y0268800D02*
X0142500Y0274800D01*
X0116500Y0285800D02*
X0116500Y0291800D01*
X0106500Y0291800D02*
X0106500Y0285800D01*
X0095500Y0285800D02*
X0095500Y0291800D01*
X0085500Y0291800D02*
X0085500Y0285800D01*
X0142500Y0234800D02*
X0142500Y0228800D01*
X0152500Y0228800D02*
X0152500Y0234800D01*
X0162500Y0234800D02*
X0162500Y0228800D01*
X0172500Y0228800D02*
X0172500Y0234800D01*
X0187500Y0234800D02*
X0187500Y0228800D01*
X0197500Y0228800D02*
X0197500Y0234800D01*
X0207500Y0234800D02*
X0207500Y0228800D01*
X0217500Y0228800D02*
X0217500Y0234800D01*
X0217500Y0248800D02*
X0217500Y0254800D01*
X0207500Y0254800D02*
X0207500Y0248800D01*
X0197500Y0248800D02*
X0197500Y0254800D01*
X0187500Y0254800D02*
X0187500Y0248800D01*
X0187500Y0268800D02*
X0187500Y0274800D01*
X0197500Y0274800D02*
X0197500Y0268800D01*
X0207500Y0268800D02*
X0207500Y0274800D01*
X0217500Y0274800D02*
X0217500Y0268800D01*
X0217500Y0214800D02*
X0217500Y0208800D01*
X0207500Y0208800D02*
X0207500Y0214800D01*
X0197500Y0214800D02*
X0197500Y0208800D01*
X0187500Y0208800D02*
X0187500Y0214800D01*
X0172500Y0214800D02*
X0172500Y0208800D01*
X0162500Y0208800D02*
X0162500Y0214800D01*
X0152500Y0214800D02*
X0152500Y0208800D01*
X0142500Y0208800D02*
X0142500Y0214800D01*
X0142500Y0194800D02*
X0142500Y0188800D01*
X0152500Y0188800D02*
X0152500Y0194800D01*
X0162500Y0194800D02*
X0162500Y0188800D01*
X0172500Y0188800D02*
X0172500Y0194800D01*
X0187500Y0194800D02*
X0187500Y0188800D01*
X0197500Y0188800D02*
X0197500Y0194800D01*
X0207500Y0194800D02*
X0207500Y0188800D01*
X0217500Y0188800D02*
X0217500Y0194800D01*
X0217500Y0174800D02*
X0217500Y0168800D01*
X0207500Y0168800D02*
X0207500Y0174800D01*
X0197500Y0174800D02*
X0197500Y0168800D01*
X0187500Y0168800D02*
X0187500Y0174800D01*
X0172500Y0174800D02*
X0172500Y0168800D01*
X0162500Y0168800D02*
X0162500Y0174800D01*
X0152500Y0174800D02*
X0152500Y0168800D01*
X0142500Y0168800D02*
X0142500Y0174800D01*
X0142500Y0154800D02*
X0142500Y0148800D01*
X0152500Y0148800D02*
X0152500Y0154800D01*
X0162500Y0154800D02*
X0162500Y0148800D01*
X0172500Y0148800D02*
X0172500Y0154800D01*
X0187500Y0154800D02*
X0187500Y0148800D01*
X0197500Y0148800D02*
X0197500Y0154800D01*
X0207500Y0154800D02*
X0207500Y0148800D01*
X0217500Y0148800D02*
X0217500Y0154800D01*
X0217500Y0134800D02*
X0217500Y0128800D01*
X0207500Y0128800D02*
X0207500Y0134800D01*
X0197500Y0134800D02*
X0197500Y0128800D01*
X0187500Y0128800D02*
X0187500Y0134800D01*
X0172500Y0134800D02*
X0172500Y0128800D01*
X0162500Y0128800D02*
X0162500Y0134800D01*
X0152500Y0134800D02*
X0152500Y0128800D01*
X0142500Y0128800D02*
X0142500Y0134800D01*
X0142500Y0114800D02*
X0142500Y0108800D01*
X0152500Y0108800D02*
X0152500Y0114800D01*
X0162500Y0114800D02*
X0162500Y0108800D01*
X0172500Y0108800D02*
X0172500Y0114800D01*
X0187500Y0114800D02*
X0187500Y0108800D01*
X0197500Y0108800D02*
X0197500Y0114800D01*
X0207500Y0114800D02*
X0207500Y0108800D01*
X0217500Y0108800D02*
X0217500Y0114800D01*
X0217500Y0094800D02*
X0217500Y0088800D01*
X0207500Y0088800D02*
X0207500Y0094800D01*
X0197500Y0094800D02*
X0197500Y0088800D01*
X0187500Y0088800D02*
X0187500Y0094800D01*
X0172500Y0094800D02*
X0172500Y0088800D01*
X0162500Y0088800D02*
X0162500Y0094800D01*
X0152500Y0094800D02*
X0152500Y0088800D01*
X0142500Y0088800D02*
X0142500Y0094800D01*
X0142500Y0074800D02*
X0142500Y0068800D01*
X0152500Y0068800D02*
X0152500Y0074800D01*
X0162500Y0074800D02*
X0162500Y0068800D01*
X0172500Y0068800D02*
X0172500Y0074800D01*
X0187500Y0074800D02*
X0187500Y0068800D01*
X0197500Y0068800D02*
X0197500Y0074800D01*
X0207500Y0074800D02*
X0207500Y0068800D01*
X0217500Y0068800D02*
X0217500Y0074800D01*
X0217500Y0054800D02*
X0217500Y0048800D01*
X0207500Y0048800D02*
X0207500Y0054800D01*
X0197500Y0054800D02*
X0197500Y0048800D01*
X0187500Y0048800D02*
X0187500Y0054800D01*
X0172500Y0054800D02*
X0172500Y0048800D01*
X0162500Y0048800D02*
X0162500Y0054800D01*
X0152500Y0054800D02*
X0152500Y0048800D01*
X0142500Y0048800D02*
X0142500Y0054800D01*
X0142500Y0034800D02*
X0142500Y0028800D01*
X0152500Y0028800D02*
X0152500Y0034800D01*
X0162500Y0034800D02*
X0162500Y0028800D01*
X0172500Y0028800D02*
X0172500Y0034800D01*
X0187500Y0034800D02*
X0187500Y0028800D01*
X0197500Y0028800D02*
X0197500Y0034800D01*
X0207500Y0034800D02*
X0207500Y0028800D01*
X0217500Y0028800D02*
X0217500Y0034800D01*
X0217500Y0014800D02*
X0217500Y0008800D01*
X0207500Y0008800D02*
X0207500Y0014800D01*
X0197500Y0014800D02*
X0197500Y0008800D01*
X0187500Y0008800D02*
X0187500Y0014800D01*
X0172500Y0014800D02*
X0172500Y0008800D01*
X0162500Y0008800D02*
X0162500Y0014800D01*
X0152500Y0014800D02*
X0152500Y0008800D01*
X0142500Y0008800D02*
X0142500Y0014800D01*
X0048000Y0042300D02*
X0042000Y0042300D01*
X0042000Y0052300D02*
X0048000Y0052300D01*
X0048000Y0062300D02*
X0042000Y0062300D01*
X0042000Y0072300D02*
X0048000Y0072300D01*
X0048000Y0082300D02*
X0042000Y0082300D01*
X0042000Y0092300D02*
X0048000Y0092300D01*
D17*
X0075500Y0068540D03*
X0075500Y0061060D03*
X0093000Y0235060D03*
X0093000Y0242540D03*
D18*
X0093358Y0051835D03*
X0075642Y0051835D03*
X0075642Y0018765D03*
X0093358Y0018765D03*
D19*
X0067906Y0219745D03*
X0065937Y0219745D03*
X0063969Y0219745D03*
X0062000Y0219745D03*
X0060031Y0219745D03*
X0058063Y0219745D03*
X0056094Y0219745D03*
X0057079Y0224863D03*
X0059047Y0224863D03*
X0061016Y0224863D03*
X0062984Y0224863D03*
X0064953Y0224863D03*
X0066921Y0224863D03*
X0066921Y0228800D03*
X0064953Y0228800D03*
X0062984Y0228800D03*
X0061016Y0228800D03*
X0059047Y0228800D03*
X0057079Y0228800D03*
X0057079Y0232737D03*
X0059047Y0232737D03*
X0061016Y0232737D03*
X0062984Y0232737D03*
X0064953Y0232737D03*
X0066921Y0232737D03*
X0065937Y0237855D03*
X0063969Y0237855D03*
X0062000Y0237855D03*
X0060031Y0237855D03*
X0058063Y0237855D03*
X0056094Y0237855D03*
X0067906Y0237855D03*
D20*
X0071055Y0234706D03*
X0071055Y0232737D03*
X0071055Y0230769D03*
X0071055Y0228800D03*
X0071055Y0226831D03*
X0071055Y0224863D03*
X0071055Y0222894D03*
X0052945Y0222894D03*
X0052945Y0224863D03*
X0052945Y0226831D03*
X0052945Y0228800D03*
X0052945Y0230769D03*
X0052945Y0232737D03*
X0052945Y0234706D03*
D21*
X0070278Y0237078D03*
D22*
X0043933Y0236182D03*
X0043933Y0238741D03*
X0043933Y0241300D03*
X0043933Y0243859D03*
X0043933Y0246418D03*
D23*
X0033500Y0257048D03*
X0033500Y0225552D03*
D24*
X0033500Y0236300D03*
X0033500Y0246300D03*
D25*
X0033500Y0173800D03*
X0033500Y0163800D03*
X0033500Y0153800D03*
D26*
X0047500Y0276800D03*
X0239500Y0276800D03*
X0239500Y0021800D03*
X0047500Y0021800D03*
D27*
X0074600Y0251400D03*
X0083600Y0251400D03*
X0092600Y0251400D03*
D28*
X0083500Y0276200D03*
M02*
