G75*
%MOIN*%
%OFA0B0*%
%FSLAX25Y25*%
%IPPOS*%
%LPD*%
%AMOC8*
5,1,8,0,0,1.08239X$1,22.5*
%
%ADD10C,0.00100*%
%ADD11R,0.07000X0.07000*%
%ADD12C,0.07000*%
%ADD13C,0.24409*%
%ADD14R,0.02756X0.03543*%
%ADD15R,0.06299X0.10630*%
%ADD16R,0.03543X0.02756*%
%ADD17R,0.04331X0.03937*%
%ADD18C,0.02375*%
%ADD19R,0.01181X0.02953*%
%ADD20R,0.02953X0.01181*%
%ADD21R,0.01772X0.01063*%
%ADD22R,0.08268X0.08268*%
%ADD23C,0.00000*%
%ADD24C,0.06000*%
%ADD25R,0.03150X0.03150*%
%ADD26C,0.00800*%
%ADD27C,0.01950*%
%ADD28C,0.01000*%
D10*
X0038731Y0035000D02*
X0270731Y0035000D01*
X0271073Y0035045D01*
X0271413Y0035098D01*
X0271752Y0035160D01*
X0272090Y0035230D01*
X0272425Y0035309D01*
X0272759Y0035395D01*
X0273091Y0035490D01*
X0273420Y0035593D01*
X0273746Y0035704D01*
X0274070Y0035823D01*
X0274390Y0035949D01*
X0274708Y0036084D01*
X0275022Y0036226D01*
X0275332Y0036376D01*
X0275639Y0036534D01*
X0275941Y0036698D01*
X0276240Y0036871D01*
X0276534Y0037050D01*
X0276824Y0037237D01*
X0277109Y0037431D01*
X0277390Y0037632D01*
X0277665Y0037839D01*
X0277935Y0038053D01*
X0278200Y0038274D01*
X0278459Y0038501D01*
X0278713Y0038735D01*
X0278961Y0038974D01*
X0279203Y0039220D01*
X0279438Y0039471D01*
X0279668Y0039728D01*
X0279891Y0039991D01*
X0280108Y0040259D01*
X0280318Y0040532D01*
X0280522Y0040811D01*
X0280718Y0041094D01*
X0280908Y0041382D01*
X0281090Y0041674D01*
X0281265Y0041971D01*
X0281433Y0042272D01*
X0281593Y0042578D01*
X0281746Y0042887D01*
X0281891Y0043199D01*
X0282029Y0043515D01*
X0282159Y0043835D01*
X0282281Y0044157D01*
X0282395Y0044483D01*
X0282501Y0044811D01*
X0282599Y0045141D01*
X0282688Y0045474D01*
X0282770Y0045809D01*
X0282843Y0046146D01*
X0282908Y0046484D01*
X0282965Y0046824D01*
X0283014Y0047166D01*
X0283054Y0047508D01*
X0283085Y0047851D01*
X0283109Y0048195D01*
X0283123Y0048540D01*
X0283130Y0048884D01*
X0283128Y0049229D01*
X0283117Y0049574D01*
X0283098Y0049918D01*
X0283071Y0050261D01*
X0283035Y0050604D01*
X0282991Y0050946D01*
X0282938Y0051287D01*
X0282877Y0051626D01*
X0282808Y0051964D01*
X0282731Y0052300D01*
X0282731Y0248900D01*
X0282745Y0249176D01*
X0282753Y0249453D01*
X0282753Y0249729D01*
X0282747Y0250006D01*
X0282735Y0250282D01*
X0282715Y0250558D01*
X0282689Y0250834D01*
X0282656Y0251109D01*
X0282616Y0251382D01*
X0282569Y0251655D01*
X0282516Y0251927D01*
X0282457Y0252197D01*
X0282390Y0252466D01*
X0282317Y0252733D01*
X0282238Y0252998D01*
X0282152Y0253261D01*
X0282060Y0253521D01*
X0281961Y0253780D01*
X0281856Y0254036D01*
X0281745Y0254289D01*
X0281627Y0254540D01*
X0281504Y0254787D01*
X0281374Y0255032D01*
X0281239Y0255273D01*
X0281097Y0255511D01*
X0280950Y0255745D01*
X0280797Y0255976D01*
X0280639Y0256203D01*
X0280475Y0256426D01*
X0280305Y0256645D01*
X0280131Y0256859D01*
X0279951Y0257069D01*
X0279766Y0257275D01*
X0279576Y0257476D01*
X0279381Y0257673D01*
X0279182Y0257865D01*
X0278977Y0258051D01*
X0278769Y0258233D01*
X0278555Y0258409D01*
X0278338Y0258581D01*
X0278117Y0258746D01*
X0277891Y0258907D01*
X0277662Y0259062D01*
X0277429Y0259211D01*
X0277192Y0259354D01*
X0276952Y0259491D01*
X0276708Y0259623D01*
X0276462Y0259749D01*
X0276212Y0259868D01*
X0275960Y0259982D01*
X0275705Y0260089D01*
X0275447Y0260190D01*
X0275187Y0260284D01*
X0274925Y0260372D01*
X0274660Y0260454D01*
X0274394Y0260529D01*
X0274126Y0260598D01*
X0273856Y0260660D01*
X0273585Y0260715D01*
X0273313Y0260764D01*
X0273039Y0260806D01*
X0272765Y0260841D01*
X0272490Y0260870D01*
X0272214Y0260892D01*
X0271938Y0260907D01*
X0271661Y0260915D01*
X0271384Y0260917D01*
X0271108Y0260912D01*
X0270831Y0260900D01*
X0038831Y0260900D01*
X0038830Y0260900D02*
X0038554Y0260914D01*
X0038277Y0260922D01*
X0038001Y0260922D01*
X0037724Y0260916D01*
X0037448Y0260904D01*
X0037172Y0260884D01*
X0036896Y0260858D01*
X0036621Y0260825D01*
X0036348Y0260785D01*
X0036075Y0260738D01*
X0035803Y0260685D01*
X0035533Y0260626D01*
X0035264Y0260559D01*
X0034997Y0260486D01*
X0034732Y0260407D01*
X0034469Y0260321D01*
X0034209Y0260229D01*
X0033950Y0260130D01*
X0033694Y0260025D01*
X0033441Y0259914D01*
X0033190Y0259796D01*
X0032943Y0259673D01*
X0032698Y0259543D01*
X0032457Y0259408D01*
X0032219Y0259266D01*
X0031985Y0259119D01*
X0031754Y0258966D01*
X0031527Y0258808D01*
X0031304Y0258644D01*
X0031085Y0258474D01*
X0030871Y0258300D01*
X0030661Y0258120D01*
X0030455Y0257935D01*
X0030254Y0257745D01*
X0030057Y0257550D01*
X0029865Y0257351D01*
X0029679Y0257146D01*
X0029497Y0256938D01*
X0029321Y0256724D01*
X0029149Y0256507D01*
X0028984Y0256286D01*
X0028823Y0256060D01*
X0028668Y0255831D01*
X0028519Y0255598D01*
X0028376Y0255361D01*
X0028239Y0255121D01*
X0028107Y0254877D01*
X0027981Y0254631D01*
X0027862Y0254381D01*
X0027748Y0254129D01*
X0027641Y0253874D01*
X0027540Y0253616D01*
X0027446Y0253356D01*
X0027358Y0253094D01*
X0027276Y0252829D01*
X0027201Y0252563D01*
X0027132Y0252295D01*
X0027070Y0252025D01*
X0027015Y0251754D01*
X0026966Y0251482D01*
X0026924Y0251208D01*
X0026889Y0250934D01*
X0026860Y0250659D01*
X0026838Y0250383D01*
X0026823Y0250107D01*
X0026815Y0249830D01*
X0026813Y0249553D01*
X0026818Y0249277D01*
X0026830Y0249000D01*
X0026831Y0249000D02*
X0026831Y0052400D01*
X0026751Y0052064D01*
X0026680Y0051727D01*
X0026617Y0051387D01*
X0026562Y0051047D01*
X0026515Y0050705D01*
X0026477Y0050362D01*
X0026447Y0050018D01*
X0026426Y0049673D01*
X0026413Y0049328D01*
X0026409Y0048983D01*
X0026413Y0048638D01*
X0026426Y0048293D01*
X0026447Y0047949D01*
X0026476Y0047605D01*
X0026514Y0047262D01*
X0026560Y0046920D01*
X0026615Y0046579D01*
X0026678Y0046239D01*
X0026749Y0045902D01*
X0026828Y0045566D01*
X0026916Y0045232D01*
X0027012Y0044900D01*
X0027116Y0044571D01*
X0027228Y0044245D01*
X0027348Y0043921D01*
X0027476Y0043601D01*
X0027611Y0043283D01*
X0027755Y0042969D01*
X0027906Y0042659D01*
X0028064Y0042352D01*
X0028230Y0042050D01*
X0028404Y0041751D01*
X0028584Y0041457D01*
X0028772Y0041168D01*
X0028967Y0040883D01*
X0029169Y0040603D01*
X0029377Y0040328D01*
X0029592Y0040058D01*
X0029814Y0039793D01*
X0030042Y0039534D01*
X0030277Y0039281D01*
X0030518Y0039034D01*
X0030764Y0038792D01*
X0031017Y0038557D01*
X0031275Y0038328D01*
X0031538Y0038105D01*
X0031807Y0037889D01*
X0032082Y0037679D01*
X0032361Y0037476D01*
X0032645Y0037280D01*
X0032934Y0037092D01*
X0033227Y0036910D01*
X0033525Y0036735D01*
X0033827Y0036568D01*
X0034133Y0036409D01*
X0034443Y0036256D01*
X0034756Y0036112D01*
X0035073Y0035975D01*
X0035393Y0035846D01*
X0035717Y0035725D01*
X0036043Y0035612D01*
X0036372Y0035507D01*
X0036703Y0035410D01*
X0037036Y0035321D01*
X0037372Y0035240D01*
X0037709Y0035168D01*
X0038048Y0035104D01*
X0038389Y0035048D01*
X0038731Y0035000D01*
D11*
X0059783Y0242093D03*
D12*
X0059783Y0252093D03*
X0069783Y0252093D03*
X0079783Y0252093D03*
X0079783Y0242093D03*
X0069783Y0242093D03*
X0089783Y0242093D03*
X0089783Y0252093D03*
X0099783Y0252093D03*
X0099783Y0242093D03*
X0109783Y0242093D03*
X0109783Y0252093D03*
X0119783Y0252093D03*
X0129783Y0252093D03*
X0129783Y0242093D03*
X0119783Y0242093D03*
X0139783Y0242093D03*
X0139783Y0252093D03*
X0149783Y0252093D03*
X0149783Y0242093D03*
X0159783Y0242093D03*
X0169783Y0242093D03*
X0169783Y0252093D03*
X0159783Y0252093D03*
X0179783Y0252093D03*
X0179783Y0242093D03*
X0189783Y0242093D03*
X0189783Y0252093D03*
X0199783Y0252093D03*
X0209783Y0252093D03*
X0209783Y0242093D03*
X0199783Y0242093D03*
X0219783Y0242093D03*
X0219783Y0252093D03*
X0229783Y0252093D03*
X0229783Y0242093D03*
X0239783Y0242093D03*
X0249783Y0242093D03*
X0249783Y0252093D03*
X0239783Y0252093D03*
D13*
X0268957Y0247093D03*
X0040610Y0247093D03*
X0040610Y0054180D03*
X0268957Y0054180D03*
D14*
X0236390Y0138400D03*
X0231272Y0138400D03*
X0228772Y0150900D03*
X0233890Y0150900D03*
X0210890Y0152900D03*
X0205772Y0152900D03*
X0205772Y0158900D03*
X0210890Y0158900D03*
X0210890Y0164400D03*
X0205772Y0164400D03*
X0228772Y0180400D03*
X0233890Y0180400D03*
X0148890Y0180400D03*
X0143772Y0180400D03*
X0125890Y0164400D03*
X0120772Y0164400D03*
X0120772Y0158900D03*
X0125890Y0158900D03*
X0125890Y0152900D03*
X0120772Y0152900D03*
X0143772Y0150900D03*
X0148890Y0150900D03*
X0151390Y0138400D03*
X0146272Y0138400D03*
X0078890Y0110400D03*
X0073772Y0110400D03*
X0055890Y0094400D03*
X0050772Y0094400D03*
X0050772Y0088900D03*
X0055890Y0088900D03*
X0055890Y0082900D03*
X0050772Y0082900D03*
X0073772Y0080900D03*
X0078890Y0080900D03*
X0081390Y0068400D03*
X0076272Y0068400D03*
X0051890Y0157700D03*
X0046772Y0157700D03*
D15*
X0102319Y0112400D03*
X0113343Y0112400D03*
X0172319Y0182400D03*
X0183343Y0182400D03*
X0257319Y0182400D03*
X0268343Y0182400D03*
D16*
X0222331Y0182841D03*
X0222331Y0187959D03*
X0216331Y0187959D03*
X0216331Y0182841D03*
X0216331Y0147959D03*
X0216331Y0142841D03*
X0222331Y0142841D03*
X0222331Y0147959D03*
X0202131Y0098759D03*
X0202131Y0093641D03*
X0134831Y0093641D03*
X0134831Y0098759D03*
X0128031Y0098759D03*
X0128031Y0093641D03*
X0067331Y0077959D03*
X0067331Y0072841D03*
X0061331Y0072841D03*
X0061331Y0077959D03*
X0061331Y0112841D03*
X0061331Y0117959D03*
X0067331Y0117959D03*
X0067331Y0112841D03*
X0131331Y0142841D03*
X0137331Y0142841D03*
X0137331Y0147959D03*
X0131331Y0147959D03*
X0131331Y0182841D03*
X0137331Y0182841D03*
X0137331Y0187959D03*
X0131331Y0187959D03*
D17*
X0143484Y0187400D03*
X0150177Y0187400D03*
X0228484Y0187400D03*
X0235177Y0187400D03*
X0080177Y0117400D03*
X0073484Y0117400D03*
D18*
X0089268Y0095463D02*
X0089268Y0084337D01*
X0089268Y0095463D02*
X0096394Y0095463D01*
X0096394Y0084337D01*
X0089268Y0084337D01*
X0089268Y0086711D02*
X0096394Y0086711D01*
X0096394Y0089085D02*
X0089268Y0089085D01*
X0089268Y0091459D02*
X0096394Y0091459D01*
X0096394Y0093833D02*
X0089268Y0093833D01*
X0112268Y0095463D02*
X0112268Y0084337D01*
X0112268Y0095463D02*
X0119394Y0095463D01*
X0119394Y0084337D01*
X0112268Y0084337D01*
X0112268Y0086711D02*
X0119394Y0086711D01*
X0119394Y0089085D02*
X0112268Y0089085D01*
X0112268Y0091459D02*
X0119394Y0091459D01*
X0119394Y0093833D02*
X0112268Y0093833D01*
X0159268Y0154337D02*
X0159268Y0165463D01*
X0166394Y0165463D01*
X0166394Y0154337D01*
X0159268Y0154337D01*
X0159268Y0156711D02*
X0166394Y0156711D01*
X0166394Y0159085D02*
X0159268Y0159085D01*
X0159268Y0161459D02*
X0166394Y0161459D01*
X0166394Y0163833D02*
X0159268Y0163833D01*
X0182268Y0165463D02*
X0182268Y0154337D01*
X0182268Y0165463D02*
X0189394Y0165463D01*
X0189394Y0154337D01*
X0182268Y0154337D01*
X0182268Y0156711D02*
X0189394Y0156711D01*
X0189394Y0159085D02*
X0182268Y0159085D01*
X0182268Y0161459D02*
X0189394Y0161459D01*
X0189394Y0163833D02*
X0182268Y0163833D01*
X0244268Y0165463D02*
X0244268Y0154337D01*
X0244268Y0165463D02*
X0251394Y0165463D01*
X0251394Y0154337D01*
X0244268Y0154337D01*
X0244268Y0156711D02*
X0251394Y0156711D01*
X0251394Y0159085D02*
X0244268Y0159085D01*
X0244268Y0161459D02*
X0251394Y0161459D01*
X0251394Y0163833D02*
X0244268Y0163833D01*
X0267268Y0165463D02*
X0267268Y0154337D01*
X0267268Y0165463D02*
X0274394Y0165463D01*
X0274394Y0154337D01*
X0267268Y0154337D01*
X0267268Y0156711D02*
X0274394Y0156711D01*
X0274394Y0159085D02*
X0267268Y0159085D01*
X0267268Y0161459D02*
X0274394Y0161459D01*
X0274394Y0163833D02*
X0267268Y0163833D01*
D19*
X0231752Y0159888D03*
X0227815Y0159888D03*
X0225846Y0159888D03*
X0223878Y0159888D03*
X0221909Y0159888D03*
X0221909Y0170912D03*
X0223878Y0170912D03*
X0225846Y0170912D03*
X0227815Y0170912D03*
X0231752Y0170912D03*
X0146752Y0170912D03*
X0142815Y0170912D03*
X0140846Y0170912D03*
X0138878Y0170912D03*
X0136909Y0170912D03*
X0136909Y0159888D03*
X0138878Y0159888D03*
X0140846Y0159888D03*
X0142815Y0159888D03*
X0146752Y0159888D03*
X0076752Y0100912D03*
X0072815Y0100912D03*
X0070846Y0100912D03*
X0068878Y0100912D03*
X0066909Y0100912D03*
X0066909Y0089888D03*
X0068878Y0089888D03*
X0070846Y0089888D03*
X0072815Y0089888D03*
X0076752Y0089888D03*
D20*
X0079311Y0092447D03*
X0079311Y0094416D03*
X0079311Y0096384D03*
X0079311Y0098353D03*
X0064350Y0098353D03*
X0064350Y0096384D03*
X0064350Y0094416D03*
X0064350Y0092447D03*
X0134350Y0162447D03*
X0134350Y0164416D03*
X0134350Y0166384D03*
X0134350Y0168353D03*
X0149311Y0168353D03*
X0149311Y0166384D03*
X0149311Y0164416D03*
X0149311Y0162447D03*
X0219350Y0162447D03*
X0219350Y0164416D03*
X0219350Y0166384D03*
X0219350Y0168353D03*
X0234311Y0168353D03*
X0234311Y0166384D03*
X0234311Y0164416D03*
X0234311Y0162447D03*
D21*
X0231063Y0165400D03*
X0228031Y0165400D03*
X0146063Y0165400D03*
X0143031Y0165400D03*
X0076063Y0095400D03*
X0073031Y0095400D03*
D22*
X0077484Y0200400D03*
X0055831Y0200400D03*
D23*
X0032996Y0218117D02*
X0032998Y0218275D01*
X0033004Y0218433D01*
X0033014Y0218591D01*
X0033028Y0218749D01*
X0033046Y0218906D01*
X0033067Y0219063D01*
X0033093Y0219219D01*
X0033123Y0219375D01*
X0033156Y0219530D01*
X0033194Y0219683D01*
X0033235Y0219836D01*
X0033280Y0219988D01*
X0033329Y0220139D01*
X0033382Y0220288D01*
X0033438Y0220436D01*
X0033498Y0220582D01*
X0033562Y0220727D01*
X0033630Y0220870D01*
X0033701Y0221012D01*
X0033775Y0221152D01*
X0033853Y0221289D01*
X0033935Y0221425D01*
X0034019Y0221559D01*
X0034108Y0221690D01*
X0034199Y0221819D01*
X0034294Y0221946D01*
X0034391Y0222071D01*
X0034492Y0222193D01*
X0034596Y0222312D01*
X0034703Y0222429D01*
X0034813Y0222543D01*
X0034926Y0222654D01*
X0035041Y0222763D01*
X0035159Y0222868D01*
X0035280Y0222970D01*
X0035403Y0223070D01*
X0035529Y0223166D01*
X0035657Y0223259D01*
X0035787Y0223349D01*
X0035920Y0223435D01*
X0036055Y0223519D01*
X0036191Y0223598D01*
X0036330Y0223675D01*
X0036471Y0223747D01*
X0036613Y0223817D01*
X0036757Y0223882D01*
X0036903Y0223944D01*
X0037050Y0224002D01*
X0037199Y0224057D01*
X0037349Y0224108D01*
X0037500Y0224155D01*
X0037652Y0224198D01*
X0037805Y0224237D01*
X0037960Y0224273D01*
X0038115Y0224304D01*
X0038271Y0224332D01*
X0038427Y0224356D01*
X0038584Y0224376D01*
X0038742Y0224392D01*
X0038899Y0224404D01*
X0039058Y0224412D01*
X0039216Y0224416D01*
X0039374Y0224416D01*
X0039532Y0224412D01*
X0039691Y0224404D01*
X0039848Y0224392D01*
X0040006Y0224376D01*
X0040163Y0224356D01*
X0040319Y0224332D01*
X0040475Y0224304D01*
X0040630Y0224273D01*
X0040785Y0224237D01*
X0040938Y0224198D01*
X0041090Y0224155D01*
X0041241Y0224108D01*
X0041391Y0224057D01*
X0041540Y0224002D01*
X0041687Y0223944D01*
X0041833Y0223882D01*
X0041977Y0223817D01*
X0042119Y0223747D01*
X0042260Y0223675D01*
X0042399Y0223598D01*
X0042535Y0223519D01*
X0042670Y0223435D01*
X0042803Y0223349D01*
X0042933Y0223259D01*
X0043061Y0223166D01*
X0043187Y0223070D01*
X0043310Y0222970D01*
X0043431Y0222868D01*
X0043549Y0222763D01*
X0043664Y0222654D01*
X0043777Y0222543D01*
X0043887Y0222429D01*
X0043994Y0222312D01*
X0044098Y0222193D01*
X0044199Y0222071D01*
X0044296Y0221946D01*
X0044391Y0221819D01*
X0044482Y0221690D01*
X0044571Y0221559D01*
X0044655Y0221425D01*
X0044737Y0221289D01*
X0044815Y0221152D01*
X0044889Y0221012D01*
X0044960Y0220870D01*
X0045028Y0220727D01*
X0045092Y0220582D01*
X0045152Y0220436D01*
X0045208Y0220288D01*
X0045261Y0220139D01*
X0045310Y0219988D01*
X0045355Y0219836D01*
X0045396Y0219683D01*
X0045434Y0219530D01*
X0045467Y0219375D01*
X0045497Y0219219D01*
X0045523Y0219063D01*
X0045544Y0218906D01*
X0045562Y0218749D01*
X0045576Y0218591D01*
X0045586Y0218433D01*
X0045592Y0218275D01*
X0045594Y0218117D01*
X0045592Y0217959D01*
X0045586Y0217801D01*
X0045576Y0217643D01*
X0045562Y0217485D01*
X0045544Y0217328D01*
X0045523Y0217171D01*
X0045497Y0217015D01*
X0045467Y0216859D01*
X0045434Y0216704D01*
X0045396Y0216551D01*
X0045355Y0216398D01*
X0045310Y0216246D01*
X0045261Y0216095D01*
X0045208Y0215946D01*
X0045152Y0215798D01*
X0045092Y0215652D01*
X0045028Y0215507D01*
X0044960Y0215364D01*
X0044889Y0215222D01*
X0044815Y0215082D01*
X0044737Y0214945D01*
X0044655Y0214809D01*
X0044571Y0214675D01*
X0044482Y0214544D01*
X0044391Y0214415D01*
X0044296Y0214288D01*
X0044199Y0214163D01*
X0044098Y0214041D01*
X0043994Y0213922D01*
X0043887Y0213805D01*
X0043777Y0213691D01*
X0043664Y0213580D01*
X0043549Y0213471D01*
X0043431Y0213366D01*
X0043310Y0213264D01*
X0043187Y0213164D01*
X0043061Y0213068D01*
X0042933Y0212975D01*
X0042803Y0212885D01*
X0042670Y0212799D01*
X0042535Y0212715D01*
X0042399Y0212636D01*
X0042260Y0212559D01*
X0042119Y0212487D01*
X0041977Y0212417D01*
X0041833Y0212352D01*
X0041687Y0212290D01*
X0041540Y0212232D01*
X0041391Y0212177D01*
X0041241Y0212126D01*
X0041090Y0212079D01*
X0040938Y0212036D01*
X0040785Y0211997D01*
X0040630Y0211961D01*
X0040475Y0211930D01*
X0040319Y0211902D01*
X0040163Y0211878D01*
X0040006Y0211858D01*
X0039848Y0211842D01*
X0039691Y0211830D01*
X0039532Y0211822D01*
X0039374Y0211818D01*
X0039216Y0211818D01*
X0039058Y0211822D01*
X0038899Y0211830D01*
X0038742Y0211842D01*
X0038584Y0211858D01*
X0038427Y0211878D01*
X0038271Y0211902D01*
X0038115Y0211930D01*
X0037960Y0211961D01*
X0037805Y0211997D01*
X0037652Y0212036D01*
X0037500Y0212079D01*
X0037349Y0212126D01*
X0037199Y0212177D01*
X0037050Y0212232D01*
X0036903Y0212290D01*
X0036757Y0212352D01*
X0036613Y0212417D01*
X0036471Y0212487D01*
X0036330Y0212559D01*
X0036191Y0212636D01*
X0036055Y0212715D01*
X0035920Y0212799D01*
X0035787Y0212885D01*
X0035657Y0212975D01*
X0035529Y0213068D01*
X0035403Y0213164D01*
X0035280Y0213264D01*
X0035159Y0213366D01*
X0035041Y0213471D01*
X0034926Y0213580D01*
X0034813Y0213691D01*
X0034703Y0213805D01*
X0034596Y0213922D01*
X0034492Y0214041D01*
X0034391Y0214163D01*
X0034294Y0214288D01*
X0034199Y0214415D01*
X0034108Y0214544D01*
X0034019Y0214675D01*
X0033935Y0214809D01*
X0033853Y0214945D01*
X0033775Y0215082D01*
X0033701Y0215222D01*
X0033630Y0215364D01*
X0033562Y0215507D01*
X0033498Y0215652D01*
X0033438Y0215798D01*
X0033382Y0215946D01*
X0033329Y0216095D01*
X0033280Y0216246D01*
X0033235Y0216398D01*
X0033194Y0216551D01*
X0033156Y0216704D01*
X0033123Y0216859D01*
X0033093Y0217015D01*
X0033067Y0217171D01*
X0033046Y0217328D01*
X0033028Y0217485D01*
X0033014Y0217643D01*
X0033004Y0217801D01*
X0032998Y0217959D01*
X0032996Y0218117D01*
X0032996Y0182683D02*
X0032998Y0182841D01*
X0033004Y0182999D01*
X0033014Y0183157D01*
X0033028Y0183315D01*
X0033046Y0183472D01*
X0033067Y0183629D01*
X0033093Y0183785D01*
X0033123Y0183941D01*
X0033156Y0184096D01*
X0033194Y0184249D01*
X0033235Y0184402D01*
X0033280Y0184554D01*
X0033329Y0184705D01*
X0033382Y0184854D01*
X0033438Y0185002D01*
X0033498Y0185148D01*
X0033562Y0185293D01*
X0033630Y0185436D01*
X0033701Y0185578D01*
X0033775Y0185718D01*
X0033853Y0185855D01*
X0033935Y0185991D01*
X0034019Y0186125D01*
X0034108Y0186256D01*
X0034199Y0186385D01*
X0034294Y0186512D01*
X0034391Y0186637D01*
X0034492Y0186759D01*
X0034596Y0186878D01*
X0034703Y0186995D01*
X0034813Y0187109D01*
X0034926Y0187220D01*
X0035041Y0187329D01*
X0035159Y0187434D01*
X0035280Y0187536D01*
X0035403Y0187636D01*
X0035529Y0187732D01*
X0035657Y0187825D01*
X0035787Y0187915D01*
X0035920Y0188001D01*
X0036055Y0188085D01*
X0036191Y0188164D01*
X0036330Y0188241D01*
X0036471Y0188313D01*
X0036613Y0188383D01*
X0036757Y0188448D01*
X0036903Y0188510D01*
X0037050Y0188568D01*
X0037199Y0188623D01*
X0037349Y0188674D01*
X0037500Y0188721D01*
X0037652Y0188764D01*
X0037805Y0188803D01*
X0037960Y0188839D01*
X0038115Y0188870D01*
X0038271Y0188898D01*
X0038427Y0188922D01*
X0038584Y0188942D01*
X0038742Y0188958D01*
X0038899Y0188970D01*
X0039058Y0188978D01*
X0039216Y0188982D01*
X0039374Y0188982D01*
X0039532Y0188978D01*
X0039691Y0188970D01*
X0039848Y0188958D01*
X0040006Y0188942D01*
X0040163Y0188922D01*
X0040319Y0188898D01*
X0040475Y0188870D01*
X0040630Y0188839D01*
X0040785Y0188803D01*
X0040938Y0188764D01*
X0041090Y0188721D01*
X0041241Y0188674D01*
X0041391Y0188623D01*
X0041540Y0188568D01*
X0041687Y0188510D01*
X0041833Y0188448D01*
X0041977Y0188383D01*
X0042119Y0188313D01*
X0042260Y0188241D01*
X0042399Y0188164D01*
X0042535Y0188085D01*
X0042670Y0188001D01*
X0042803Y0187915D01*
X0042933Y0187825D01*
X0043061Y0187732D01*
X0043187Y0187636D01*
X0043310Y0187536D01*
X0043431Y0187434D01*
X0043549Y0187329D01*
X0043664Y0187220D01*
X0043777Y0187109D01*
X0043887Y0186995D01*
X0043994Y0186878D01*
X0044098Y0186759D01*
X0044199Y0186637D01*
X0044296Y0186512D01*
X0044391Y0186385D01*
X0044482Y0186256D01*
X0044571Y0186125D01*
X0044655Y0185991D01*
X0044737Y0185855D01*
X0044815Y0185718D01*
X0044889Y0185578D01*
X0044960Y0185436D01*
X0045028Y0185293D01*
X0045092Y0185148D01*
X0045152Y0185002D01*
X0045208Y0184854D01*
X0045261Y0184705D01*
X0045310Y0184554D01*
X0045355Y0184402D01*
X0045396Y0184249D01*
X0045434Y0184096D01*
X0045467Y0183941D01*
X0045497Y0183785D01*
X0045523Y0183629D01*
X0045544Y0183472D01*
X0045562Y0183315D01*
X0045576Y0183157D01*
X0045586Y0182999D01*
X0045592Y0182841D01*
X0045594Y0182683D01*
X0045592Y0182525D01*
X0045586Y0182367D01*
X0045576Y0182209D01*
X0045562Y0182051D01*
X0045544Y0181894D01*
X0045523Y0181737D01*
X0045497Y0181581D01*
X0045467Y0181425D01*
X0045434Y0181270D01*
X0045396Y0181117D01*
X0045355Y0180964D01*
X0045310Y0180812D01*
X0045261Y0180661D01*
X0045208Y0180512D01*
X0045152Y0180364D01*
X0045092Y0180218D01*
X0045028Y0180073D01*
X0044960Y0179930D01*
X0044889Y0179788D01*
X0044815Y0179648D01*
X0044737Y0179511D01*
X0044655Y0179375D01*
X0044571Y0179241D01*
X0044482Y0179110D01*
X0044391Y0178981D01*
X0044296Y0178854D01*
X0044199Y0178729D01*
X0044098Y0178607D01*
X0043994Y0178488D01*
X0043887Y0178371D01*
X0043777Y0178257D01*
X0043664Y0178146D01*
X0043549Y0178037D01*
X0043431Y0177932D01*
X0043310Y0177830D01*
X0043187Y0177730D01*
X0043061Y0177634D01*
X0042933Y0177541D01*
X0042803Y0177451D01*
X0042670Y0177365D01*
X0042535Y0177281D01*
X0042399Y0177202D01*
X0042260Y0177125D01*
X0042119Y0177053D01*
X0041977Y0176983D01*
X0041833Y0176918D01*
X0041687Y0176856D01*
X0041540Y0176798D01*
X0041391Y0176743D01*
X0041241Y0176692D01*
X0041090Y0176645D01*
X0040938Y0176602D01*
X0040785Y0176563D01*
X0040630Y0176527D01*
X0040475Y0176496D01*
X0040319Y0176468D01*
X0040163Y0176444D01*
X0040006Y0176424D01*
X0039848Y0176408D01*
X0039691Y0176396D01*
X0039532Y0176388D01*
X0039374Y0176384D01*
X0039216Y0176384D01*
X0039058Y0176388D01*
X0038899Y0176396D01*
X0038742Y0176408D01*
X0038584Y0176424D01*
X0038427Y0176444D01*
X0038271Y0176468D01*
X0038115Y0176496D01*
X0037960Y0176527D01*
X0037805Y0176563D01*
X0037652Y0176602D01*
X0037500Y0176645D01*
X0037349Y0176692D01*
X0037199Y0176743D01*
X0037050Y0176798D01*
X0036903Y0176856D01*
X0036757Y0176918D01*
X0036613Y0176983D01*
X0036471Y0177053D01*
X0036330Y0177125D01*
X0036191Y0177202D01*
X0036055Y0177281D01*
X0035920Y0177365D01*
X0035787Y0177451D01*
X0035657Y0177541D01*
X0035529Y0177634D01*
X0035403Y0177730D01*
X0035280Y0177830D01*
X0035159Y0177932D01*
X0035041Y0178037D01*
X0034926Y0178146D01*
X0034813Y0178257D01*
X0034703Y0178371D01*
X0034596Y0178488D01*
X0034492Y0178607D01*
X0034391Y0178729D01*
X0034294Y0178854D01*
X0034199Y0178981D01*
X0034108Y0179110D01*
X0034019Y0179241D01*
X0033935Y0179375D01*
X0033853Y0179511D01*
X0033775Y0179648D01*
X0033701Y0179788D01*
X0033630Y0179930D01*
X0033562Y0180073D01*
X0033498Y0180218D01*
X0033438Y0180364D01*
X0033382Y0180512D01*
X0033329Y0180661D01*
X0033280Y0180812D01*
X0033235Y0180964D01*
X0033194Y0181117D01*
X0033156Y0181270D01*
X0033123Y0181425D01*
X0033093Y0181581D01*
X0033067Y0181737D01*
X0033046Y0181894D01*
X0033028Y0182051D01*
X0033014Y0182209D01*
X0033004Y0182367D01*
X0032998Y0182525D01*
X0032996Y0182683D01*
D24*
X0059231Y0058300D02*
X0059231Y0052300D01*
X0069231Y0052300D02*
X0069231Y0058300D01*
X0080631Y0058200D02*
X0080631Y0052200D01*
X0090631Y0052200D02*
X0090631Y0058200D01*
X0101931Y0058100D02*
X0101931Y0052100D01*
X0111931Y0052100D02*
X0111931Y0058100D01*
X0123531Y0058200D02*
X0123531Y0052200D01*
X0133531Y0052200D02*
X0133531Y0058200D01*
X0145231Y0058100D02*
X0145231Y0052100D01*
X0155231Y0052100D02*
X0155231Y0058100D01*
X0166731Y0058000D02*
X0166731Y0052000D01*
X0176731Y0052000D02*
X0176731Y0058000D01*
X0188631Y0058200D02*
X0188631Y0052200D01*
X0198631Y0052200D02*
X0198631Y0058200D01*
X0210331Y0058100D02*
X0210331Y0052100D01*
X0220331Y0052100D02*
X0220331Y0058100D01*
X0231831Y0058100D02*
X0231831Y0052100D01*
X0241831Y0052100D02*
X0241831Y0058100D01*
D25*
X0202131Y0104847D03*
X0202131Y0110753D03*
X0134831Y0110753D03*
X0134831Y0104847D03*
X0128031Y0104847D03*
X0128031Y0110753D03*
X0039383Y0157600D03*
X0033478Y0157600D03*
D26*
X0039831Y0144900D02*
X0105831Y0144900D01*
X0105831Y0127400D01*
X0081331Y0127400D01*
X0081331Y0135400D01*
X0069331Y0135400D01*
X0069331Y0116900D01*
X0057831Y0116900D01*
X0057831Y0108900D01*
X0064831Y0101900D01*
X0064831Y0100343D01*
X0062294Y0100343D01*
X0061474Y0099523D01*
X0061474Y0097900D01*
X0039831Y0097900D01*
X0047831Y0097900D01*
X0047831Y0075900D01*
X0049831Y0073900D01*
X0068831Y0073900D01*
X0068831Y0068400D01*
X0070737Y0066493D01*
X0070431Y0066187D01*
X0070431Y0062500D01*
X0060589Y0062500D01*
X0060106Y0062700D01*
X0058355Y0062700D01*
X0057873Y0062500D01*
X0053144Y0062500D01*
X0052544Y0061900D01*
X0051862Y0061900D01*
X0051497Y0062533D01*
X0048964Y0065066D01*
X0045861Y0066857D01*
X0042401Y0067784D01*
X0039831Y0067784D01*
X0039831Y0097900D01*
X0039831Y0144900D01*
X0039831Y0144605D02*
X0105831Y0144605D01*
X0105831Y0143806D02*
X0039831Y0143806D01*
X0039831Y0143008D02*
X0105831Y0143008D01*
X0105831Y0142209D02*
X0039831Y0142209D01*
X0039831Y0141411D02*
X0105831Y0141411D01*
X0105831Y0140612D02*
X0039831Y0140612D01*
X0039831Y0139814D02*
X0105831Y0139814D01*
X0105831Y0139015D02*
X0039831Y0139015D01*
X0039831Y0138217D02*
X0105831Y0138217D01*
X0105831Y0137418D02*
X0039831Y0137418D01*
X0039831Y0136620D02*
X0105831Y0136620D01*
X0105831Y0135821D02*
X0039831Y0135821D01*
X0039831Y0135023D02*
X0069331Y0135023D01*
X0069331Y0134224D02*
X0039831Y0134224D01*
X0039831Y0133426D02*
X0069331Y0133426D01*
X0069331Y0132627D02*
X0039831Y0132627D01*
X0039831Y0131829D02*
X0069331Y0131829D01*
X0069331Y0131030D02*
X0039831Y0131030D01*
X0039831Y0130232D02*
X0069331Y0130232D01*
X0069331Y0129433D02*
X0039831Y0129433D01*
X0039831Y0128635D02*
X0069331Y0128635D01*
X0069331Y0127836D02*
X0039831Y0127836D01*
X0039831Y0127038D02*
X0069331Y0127038D01*
X0069331Y0126239D02*
X0039831Y0126239D01*
X0039831Y0125441D02*
X0069331Y0125441D01*
X0069331Y0124642D02*
X0039831Y0124642D01*
X0039831Y0123844D02*
X0069331Y0123844D01*
X0069331Y0123045D02*
X0039831Y0123045D01*
X0039831Y0122247D02*
X0069331Y0122247D01*
X0069331Y0121448D02*
X0039831Y0121448D01*
X0039831Y0120650D02*
X0069331Y0120650D01*
X0069331Y0119851D02*
X0039831Y0119851D01*
X0039831Y0119053D02*
X0069331Y0119053D01*
X0069331Y0118254D02*
X0039831Y0118254D01*
X0039831Y0117456D02*
X0069331Y0117456D01*
X0071331Y0117456D02*
X0075331Y0117456D01*
X0075331Y0118254D02*
X0071331Y0118254D01*
X0071331Y0119053D02*
X0075331Y0119053D01*
X0075331Y0119851D02*
X0071331Y0119851D01*
X0071331Y0120650D02*
X0075580Y0120650D01*
X0075331Y0120400D02*
X0076331Y0121400D01*
X0078831Y0121400D01*
X0078831Y0133400D01*
X0071331Y0133400D01*
X0071331Y0108900D01*
X0075331Y0108900D01*
X0075331Y0120400D01*
X0077831Y0118900D02*
X0081331Y0118900D01*
X0081331Y0127400D01*
X0105831Y0127400D01*
X0105831Y0099900D01*
X0077831Y0099900D01*
X0077831Y0118900D01*
X0077831Y0118254D02*
X0105831Y0118254D01*
X0105831Y0117456D02*
X0077831Y0117456D01*
X0077831Y0116657D02*
X0105831Y0116657D01*
X0105831Y0115859D02*
X0077831Y0115859D01*
X0077831Y0115060D02*
X0105831Y0115060D01*
X0105831Y0114262D02*
X0077831Y0114262D01*
X0077831Y0113463D02*
X0105831Y0113463D01*
X0105831Y0112665D02*
X0077831Y0112665D01*
X0077831Y0111866D02*
X0105831Y0111866D01*
X0105831Y0111068D02*
X0077831Y0111068D01*
X0077831Y0110269D02*
X0105831Y0110269D01*
X0105831Y0109470D02*
X0077831Y0109470D01*
X0077831Y0108672D02*
X0105831Y0108672D01*
X0105831Y0107873D02*
X0077831Y0107873D01*
X0077831Y0107075D02*
X0105831Y0107075D01*
X0105831Y0106276D02*
X0077831Y0106276D01*
X0077831Y0105478D02*
X0105831Y0105478D01*
X0105831Y0104679D02*
X0077831Y0104679D01*
X0077831Y0103881D02*
X0105831Y0103881D01*
X0105831Y0103082D02*
X0077831Y0103082D01*
X0077831Y0102284D02*
X0105831Y0102284D01*
X0105831Y0101485D02*
X0077831Y0101485D01*
X0077831Y0100687D02*
X0105831Y0100687D01*
X0108831Y0100687D02*
X0122831Y0100687D01*
X0122831Y0101485D02*
X0108831Y0101485D01*
X0108831Y0102284D02*
X0122831Y0102284D01*
X0122831Y0103082D02*
X0108831Y0103082D01*
X0108831Y0103881D02*
X0122831Y0103881D01*
X0122831Y0104679D02*
X0108831Y0104679D01*
X0108831Y0105478D02*
X0122831Y0105478D01*
X0122831Y0106276D02*
X0108831Y0106276D01*
X0108831Y0107075D02*
X0122831Y0107075D01*
X0122831Y0107873D02*
X0108831Y0107873D01*
X0108831Y0108672D02*
X0122831Y0108672D01*
X0122831Y0109470D02*
X0108831Y0109470D01*
X0108831Y0110269D02*
X0122831Y0110269D01*
X0122831Y0111068D02*
X0108831Y0111068D01*
X0108831Y0111866D02*
X0122831Y0111866D01*
X0122831Y0112665D02*
X0108831Y0112665D01*
X0108831Y0113463D02*
X0122831Y0113463D01*
X0122831Y0114262D02*
X0108831Y0114262D01*
X0108831Y0115060D02*
X0122831Y0115060D01*
X0122831Y0115859D02*
X0108831Y0115859D01*
X0108831Y0116657D02*
X0122831Y0116657D01*
X0122831Y0117456D02*
X0108831Y0117456D01*
X0108831Y0118254D02*
X0122831Y0118254D01*
X0122831Y0119053D02*
X0108831Y0119053D01*
X0108831Y0119851D02*
X0122831Y0119851D01*
X0122831Y0120650D02*
X0108831Y0120650D01*
X0108831Y0121448D02*
X0122831Y0121448D01*
X0122831Y0122247D02*
X0108831Y0122247D01*
X0108831Y0123045D02*
X0122831Y0123045D01*
X0122831Y0123400D02*
X0122831Y0080400D01*
X0108831Y0080400D01*
X0108831Y0123400D01*
X0122831Y0123400D01*
X0109831Y0131900D02*
X0109831Y0167900D01*
X0117831Y0167900D01*
X0117831Y0145900D01*
X0119831Y0143900D01*
X0138831Y0143900D01*
X0138831Y0138400D01*
X0140831Y0136400D01*
X0140831Y0135759D01*
X0140456Y0135384D01*
X0140456Y0133416D01*
X0140831Y0133041D01*
X0140831Y0131900D01*
X0109831Y0131900D01*
X0109831Y0132627D02*
X0140831Y0132627D01*
X0140456Y0133426D02*
X0109831Y0133426D01*
X0109831Y0134224D02*
X0140456Y0134224D01*
X0140456Y0135023D02*
X0109831Y0135023D01*
X0109831Y0135821D02*
X0140831Y0135821D01*
X0140611Y0136620D02*
X0109831Y0136620D01*
X0109831Y0137418D02*
X0139812Y0137418D01*
X0139014Y0138217D02*
X0109831Y0138217D01*
X0109831Y0139015D02*
X0138831Y0139015D01*
X0138831Y0139814D02*
X0109831Y0139814D01*
X0109831Y0140612D02*
X0138831Y0140612D01*
X0138831Y0141411D02*
X0109831Y0141411D01*
X0109831Y0142209D02*
X0138831Y0142209D01*
X0138831Y0143008D02*
X0109831Y0143008D01*
X0109831Y0143806D02*
X0138831Y0143806D01*
X0142831Y0143806D02*
X0150331Y0143806D01*
X0150331Y0143400D02*
X0142831Y0143400D01*
X0142831Y0152400D01*
X0145331Y0152400D01*
X0145331Y0147900D01*
X0145831Y0147400D01*
X0150331Y0147400D01*
X0150331Y0143400D01*
X0150331Y0144605D02*
X0142831Y0144605D01*
X0142831Y0145403D02*
X0150331Y0145403D01*
X0150331Y0146202D02*
X0142831Y0146202D01*
X0142831Y0147001D02*
X0150331Y0147001D01*
X0152331Y0147001D02*
X0154831Y0147001D01*
X0154831Y0147799D02*
X0152331Y0147799D01*
X0152331Y0148400D02*
X0151331Y0149400D01*
X0147831Y0149400D01*
X0147831Y0155400D01*
X0150831Y0158400D01*
X0154831Y0158400D01*
X0154831Y0142900D01*
X0153831Y0141900D01*
X0152331Y0141900D01*
X0152331Y0148400D01*
X0152133Y0148598D02*
X0154831Y0148598D01*
X0154831Y0149396D02*
X0151335Y0149396D01*
X0154831Y0150195D02*
X0147831Y0150195D01*
X0147831Y0150993D02*
X0154831Y0150993D01*
X0154831Y0151792D02*
X0147831Y0151792D01*
X0147831Y0152590D02*
X0154831Y0152590D01*
X0154831Y0153389D02*
X0147831Y0153389D01*
X0147831Y0154187D02*
X0154831Y0154187D01*
X0154831Y0154986D02*
X0147831Y0154986D01*
X0148215Y0155784D02*
X0154831Y0155784D01*
X0154331Y0155784D02*
X0144615Y0155784D01*
X0144615Y0155400D02*
X0144615Y0157641D01*
X0144805Y0157832D01*
X0144805Y0161944D01*
X0143985Y0162765D01*
X0137227Y0162765D01*
X0137227Y0165586D01*
X0136429Y0166384D01*
X0137227Y0167182D01*
X0137227Y0168035D01*
X0143985Y0168035D01*
X0144805Y0168856D01*
X0144805Y0172875D01*
X0144831Y0172900D01*
X0153831Y0172900D01*
X0153831Y0168400D01*
X0145831Y0168400D01*
X0144831Y0167400D01*
X0140831Y0167400D01*
X0140831Y0166596D01*
X0140746Y0166511D01*
X0140746Y0164289D01*
X0140831Y0164204D01*
X0140831Y0163400D01*
X0144831Y0163400D01*
X0145831Y0162400D01*
X0150331Y0162400D01*
X0154331Y0158400D01*
X0154331Y0155400D01*
X0144615Y0155400D01*
X0144615Y0156583D02*
X0154331Y0156583D01*
X0154831Y0156583D02*
X0149013Y0156583D01*
X0149812Y0157381D02*
X0154831Y0157381D01*
X0154331Y0157381D02*
X0144615Y0157381D01*
X0144805Y0158180D02*
X0154331Y0158180D01*
X0154831Y0158180D02*
X0150610Y0158180D01*
X0152954Y0159777D02*
X0144805Y0159777D01*
X0144805Y0160575D02*
X0152155Y0160575D01*
X0151357Y0161374D02*
X0144805Y0161374D01*
X0144578Y0162172D02*
X0150558Y0162172D01*
X0152187Y0163543D02*
X0152187Y0163618D01*
X0151367Y0164438D01*
X0147255Y0164438D01*
X0147217Y0164400D01*
X0146376Y0164400D01*
X0145831Y0164946D01*
X0145831Y0165854D01*
X0146376Y0166400D01*
X0147217Y0166400D01*
X0147255Y0166362D01*
X0151367Y0166362D01*
X0151405Y0166400D01*
X0154831Y0166400D01*
X0156331Y0167900D01*
X0168831Y0167900D01*
X0168831Y0152400D01*
X0156831Y0152400D01*
X0156831Y0158900D01*
X0156631Y0159100D01*
X0156631Y0159146D01*
X0155576Y0160200D01*
X0155531Y0160200D01*
X0152187Y0163543D01*
X0152036Y0163769D02*
X0168831Y0163769D01*
X0168831Y0162971D02*
X0152760Y0162971D01*
X0153558Y0162172D02*
X0168831Y0162172D01*
X0168831Y0161374D02*
X0154357Y0161374D01*
X0155155Y0160575D02*
X0168831Y0160575D01*
X0168831Y0159777D02*
X0156000Y0159777D01*
X0156753Y0158978D02*
X0168831Y0158978D01*
X0168831Y0158180D02*
X0156831Y0158180D01*
X0156831Y0157381D02*
X0168831Y0157381D01*
X0168831Y0156583D02*
X0156831Y0156583D01*
X0156831Y0155784D02*
X0168831Y0155784D01*
X0168831Y0154986D02*
X0156831Y0154986D01*
X0156831Y0154187D02*
X0168831Y0154187D01*
X0168831Y0153389D02*
X0156831Y0153389D01*
X0156831Y0152900D02*
X0157331Y0153400D01*
X0156831Y0152900D02*
X0156831Y0141400D01*
X0153831Y0138400D01*
X0151390Y0138400D01*
X0152331Y0142209D02*
X0154140Y0142209D01*
X0154831Y0143008D02*
X0152331Y0143008D01*
X0152331Y0143806D02*
X0154831Y0143806D01*
X0154831Y0144605D02*
X0152331Y0144605D01*
X0152331Y0145403D02*
X0154831Y0145403D01*
X0154831Y0146202D02*
X0152331Y0146202D01*
X0145432Y0147799D02*
X0142831Y0147799D01*
X0142831Y0148598D02*
X0145331Y0148598D01*
X0145331Y0149396D02*
X0142831Y0149396D01*
X0142831Y0150195D02*
X0145331Y0150195D01*
X0145331Y0150993D02*
X0142831Y0150993D01*
X0142831Y0151792D02*
X0145331Y0151792D01*
X0143772Y0150900D02*
X0142815Y0152357D01*
X0142815Y0159888D01*
X0140846Y0159888D02*
X0140846Y0140384D01*
X0142831Y0138400D01*
X0146272Y0138400D01*
X0142831Y0134400D02*
X0171831Y0134400D01*
X0185831Y0148400D01*
X0185831Y0159900D01*
X0178831Y0159777D02*
X0192831Y0159777D01*
X0192831Y0160575D02*
X0178831Y0160575D01*
X0178831Y0161374D02*
X0192831Y0161374D01*
X0192831Y0162172D02*
X0178831Y0162172D01*
X0178831Y0162971D02*
X0192831Y0162971D01*
X0192831Y0163769D02*
X0178831Y0163769D01*
X0178831Y0164568D02*
X0192831Y0164568D01*
X0192831Y0165366D02*
X0178831Y0165366D01*
X0178831Y0166165D02*
X0192831Y0166165D01*
X0192831Y0166963D02*
X0178831Y0166963D01*
X0178831Y0167762D02*
X0192831Y0167762D01*
X0192831Y0168560D02*
X0178831Y0168560D01*
X0178831Y0169359D02*
X0192831Y0169359D01*
X0192831Y0170157D02*
X0178831Y0170157D01*
X0178831Y0170956D02*
X0192831Y0170956D01*
X0192831Y0171754D02*
X0178831Y0171754D01*
X0178831Y0172553D02*
X0192831Y0172553D01*
X0192831Y0173351D02*
X0178831Y0173351D01*
X0178831Y0174150D02*
X0192831Y0174150D01*
X0192831Y0174948D02*
X0178831Y0174948D01*
X0178831Y0175747D02*
X0192831Y0175747D01*
X0192831Y0176545D02*
X0178831Y0176545D01*
X0178831Y0177344D02*
X0192831Y0177344D01*
X0192831Y0178142D02*
X0178831Y0178142D01*
X0178831Y0178941D02*
X0192831Y0178941D01*
X0192831Y0179739D02*
X0178831Y0179739D01*
X0178831Y0180538D02*
X0192831Y0180538D01*
X0192831Y0181337D02*
X0178831Y0181337D01*
X0178831Y0182135D02*
X0192831Y0182135D01*
X0192831Y0182934D02*
X0178831Y0182934D01*
X0178831Y0183732D02*
X0192831Y0183732D01*
X0192831Y0184531D02*
X0178831Y0184531D01*
X0178831Y0185329D02*
X0192831Y0185329D01*
X0192831Y0186128D02*
X0178831Y0186128D01*
X0178831Y0186926D02*
X0192831Y0186926D01*
X0192831Y0187725D02*
X0178831Y0187725D01*
X0178831Y0188523D02*
X0192831Y0188523D01*
X0192831Y0189322D02*
X0178831Y0189322D01*
X0178831Y0190120D02*
X0192831Y0190120D01*
X0192831Y0190919D02*
X0178831Y0190919D01*
X0178831Y0191717D02*
X0192831Y0191717D01*
X0192831Y0192516D02*
X0178831Y0192516D01*
X0178831Y0193314D02*
X0192831Y0193314D01*
X0192831Y0193400D02*
X0192831Y0150400D01*
X0178831Y0150400D01*
X0178831Y0193400D01*
X0192831Y0193400D01*
X0175831Y0193314D02*
X0151331Y0193314D01*
X0151331Y0192516D02*
X0175831Y0192516D01*
X0175831Y0191717D02*
X0151331Y0191717D01*
X0151331Y0190919D02*
X0175831Y0190919D01*
X0175831Y0190120D02*
X0151331Y0190120D01*
X0151331Y0189322D02*
X0175831Y0189322D01*
X0175831Y0188523D02*
X0147831Y0188523D01*
X0147831Y0188900D02*
X0151331Y0188900D01*
X0151331Y0197400D01*
X0151331Y0205400D01*
X0139331Y0205400D01*
X0139331Y0186900D01*
X0127831Y0186900D01*
X0127831Y0178900D01*
X0134831Y0171900D01*
X0134831Y0170343D01*
X0132294Y0170343D01*
X0131474Y0169523D01*
X0131474Y0167900D01*
X0109831Y0167900D01*
X0109831Y0214900D01*
X0175831Y0214900D01*
X0175831Y0197400D01*
X0151331Y0197400D01*
X0175831Y0197400D01*
X0175831Y0169900D01*
X0147831Y0169900D01*
X0147831Y0188900D01*
X0147831Y0187725D02*
X0175831Y0187725D01*
X0175831Y0186926D02*
X0147831Y0186926D01*
X0147831Y0186128D02*
X0175831Y0186128D01*
X0175831Y0185329D02*
X0147831Y0185329D01*
X0147831Y0184531D02*
X0175831Y0184531D01*
X0175831Y0183732D02*
X0147831Y0183732D01*
X0147831Y0182934D02*
X0175831Y0182934D01*
X0175831Y0182135D02*
X0147831Y0182135D01*
X0147831Y0181337D02*
X0175831Y0181337D01*
X0175831Y0180538D02*
X0147831Y0180538D01*
X0147831Y0179739D02*
X0175831Y0179739D01*
X0175831Y0178941D02*
X0147831Y0178941D01*
X0147831Y0178142D02*
X0175831Y0178142D01*
X0175831Y0177344D02*
X0147831Y0177344D01*
X0147831Y0176545D02*
X0175831Y0176545D01*
X0175831Y0175747D02*
X0147831Y0175747D01*
X0147831Y0174948D02*
X0175831Y0174948D01*
X0175831Y0174150D02*
X0147831Y0174150D01*
X0147831Y0173351D02*
X0175831Y0173351D01*
X0175831Y0172553D02*
X0147831Y0172553D01*
X0147831Y0171754D02*
X0175831Y0171754D01*
X0175831Y0170956D02*
X0147831Y0170956D01*
X0147831Y0170157D02*
X0175831Y0170157D01*
X0168831Y0167762D02*
X0156193Y0167762D01*
X0155394Y0166963D02*
X0168831Y0166963D01*
X0168831Y0166165D02*
X0146141Y0166165D01*
X0146063Y0165400D02*
X0143031Y0165400D01*
X0140746Y0165366D02*
X0137227Y0165366D01*
X0137227Y0164568D02*
X0140746Y0164568D01*
X0140831Y0163769D02*
X0137227Y0163769D01*
X0137227Y0162971D02*
X0145260Y0162971D01*
X0146209Y0164568D02*
X0168831Y0164568D01*
X0168831Y0165366D02*
X0145831Y0165366D01*
X0145193Y0167762D02*
X0137227Y0167762D01*
X0137008Y0166963D02*
X0140831Y0166963D01*
X0140746Y0166165D02*
X0136648Y0166165D01*
X0134350Y0164416D02*
X0125906Y0164416D01*
X0125890Y0164400D01*
X0128831Y0166900D02*
X0129515Y0166216D01*
X0132104Y0166216D01*
X0132272Y0166384D01*
X0131474Y0167182D01*
X0131474Y0167257D01*
X0130831Y0167900D01*
X0130831Y0168900D01*
X0128831Y0168900D01*
X0128831Y0166900D01*
X0128831Y0166963D02*
X0131693Y0166963D01*
X0130969Y0167762D02*
X0128831Y0167762D01*
X0128831Y0168560D02*
X0130831Y0168560D01*
X0131474Y0168560D02*
X0109831Y0168560D01*
X0109831Y0167762D02*
X0117831Y0167762D01*
X0117831Y0166963D02*
X0109831Y0166963D01*
X0109831Y0166165D02*
X0117831Y0166165D01*
X0117831Y0165366D02*
X0109831Y0165366D01*
X0109831Y0164568D02*
X0117831Y0164568D01*
X0117831Y0163769D02*
X0109831Y0163769D01*
X0109831Y0162971D02*
X0117831Y0162971D01*
X0117831Y0162172D02*
X0109831Y0162172D01*
X0109831Y0161374D02*
X0117831Y0161374D01*
X0117831Y0160575D02*
X0109831Y0160575D01*
X0109831Y0159777D02*
X0117831Y0159777D01*
X0117831Y0158978D02*
X0109831Y0158978D01*
X0109831Y0158180D02*
X0117831Y0158180D01*
X0117831Y0157381D02*
X0109831Y0157381D01*
X0109831Y0156583D02*
X0117831Y0156583D01*
X0117831Y0155784D02*
X0109831Y0155784D01*
X0109831Y0154986D02*
X0117831Y0154986D01*
X0117831Y0154187D02*
X0109831Y0154187D01*
X0109831Y0153389D02*
X0117831Y0153389D01*
X0117831Y0152590D02*
X0109831Y0152590D01*
X0109831Y0151792D02*
X0117831Y0151792D01*
X0117831Y0150993D02*
X0109831Y0150993D01*
X0109831Y0150195D02*
X0117831Y0150195D01*
X0117831Y0149396D02*
X0109831Y0149396D01*
X0109831Y0148598D02*
X0117831Y0148598D01*
X0117831Y0147799D02*
X0109831Y0147799D01*
X0109831Y0147001D02*
X0117831Y0147001D01*
X0117831Y0146202D02*
X0109831Y0146202D01*
X0109831Y0145403D02*
X0118327Y0145403D01*
X0119126Y0144605D02*
X0109831Y0144605D01*
X0120831Y0148400D02*
X0120831Y0152841D01*
X0120772Y0152900D01*
X0120772Y0158900D01*
X0120772Y0164400D01*
X0125890Y0158900D02*
X0125890Y0152900D01*
X0130831Y0147959D01*
X0131331Y0147959D01*
X0137331Y0147959D02*
X0138878Y0149506D01*
X0138878Y0159888D01*
X0136909Y0159888D02*
X0136909Y0158479D01*
X0133831Y0155400D01*
X0129437Y0162447D02*
X0125890Y0158900D01*
X0129437Y0162447D02*
X0134350Y0162447D01*
X0131474Y0169359D02*
X0109831Y0169359D01*
X0109831Y0170157D02*
X0132108Y0170157D01*
X0134831Y0170956D02*
X0109831Y0170956D01*
X0109831Y0171754D02*
X0134831Y0171754D01*
X0134178Y0172553D02*
X0109831Y0172553D01*
X0109831Y0173351D02*
X0133379Y0173351D01*
X0132581Y0174150D02*
X0109831Y0174150D01*
X0109831Y0174948D02*
X0131782Y0174948D01*
X0130984Y0175747D02*
X0109831Y0175747D01*
X0109831Y0176545D02*
X0130185Y0176545D01*
X0129387Y0177344D02*
X0109831Y0177344D01*
X0109831Y0178142D02*
X0128588Y0178142D01*
X0127831Y0178941D02*
X0109831Y0178941D01*
X0109831Y0179739D02*
X0127831Y0179739D01*
X0127831Y0180538D02*
X0109831Y0180538D01*
X0109831Y0181337D02*
X0127831Y0181337D01*
X0127831Y0182135D02*
X0109831Y0182135D01*
X0109831Y0182934D02*
X0127831Y0182934D01*
X0127831Y0183732D02*
X0109831Y0183732D01*
X0109831Y0184531D02*
X0127831Y0184531D01*
X0127831Y0185329D02*
X0109831Y0185329D01*
X0109831Y0186128D02*
X0127831Y0186128D01*
X0131331Y0182841D02*
X0136909Y0177262D01*
X0136909Y0170912D01*
X0138878Y0170912D02*
X0138878Y0181294D01*
X0137331Y0182841D01*
X0141331Y0182934D02*
X0145331Y0182934D01*
X0145331Y0183732D02*
X0141331Y0183732D01*
X0141331Y0184531D02*
X0145331Y0184531D01*
X0145331Y0185329D02*
X0141331Y0185329D01*
X0141331Y0186128D02*
X0145331Y0186128D01*
X0145331Y0186926D02*
X0141331Y0186926D01*
X0141331Y0187725D02*
X0145331Y0187725D01*
X0145331Y0188523D02*
X0141331Y0188523D01*
X0141331Y0189322D02*
X0145331Y0189322D01*
X0145331Y0190120D02*
X0141331Y0190120D01*
X0141331Y0190919D02*
X0145849Y0190919D01*
X0146331Y0191400D02*
X0145331Y0190400D01*
X0145331Y0178900D01*
X0141331Y0178900D01*
X0141331Y0203400D01*
X0148831Y0203400D01*
X0148831Y0191400D01*
X0146331Y0191400D01*
X0148831Y0191717D02*
X0141331Y0191717D01*
X0141331Y0192516D02*
X0148831Y0192516D01*
X0148831Y0193314D02*
X0141331Y0193314D01*
X0141331Y0194113D02*
X0148831Y0194113D01*
X0148831Y0194911D02*
X0141331Y0194911D01*
X0141331Y0195710D02*
X0148831Y0195710D01*
X0148831Y0196508D02*
X0141331Y0196508D01*
X0141331Y0197307D02*
X0148831Y0197307D01*
X0148831Y0198105D02*
X0141331Y0198105D01*
X0141331Y0198904D02*
X0148831Y0198904D01*
X0148831Y0199702D02*
X0141331Y0199702D01*
X0141331Y0200501D02*
X0148831Y0200501D01*
X0148831Y0201299D02*
X0141331Y0201299D01*
X0141331Y0202098D02*
X0148831Y0202098D01*
X0148831Y0202896D02*
X0141331Y0202896D01*
X0139331Y0202896D02*
X0109831Y0202896D01*
X0109831Y0202098D02*
X0139331Y0202098D01*
X0139331Y0201299D02*
X0109831Y0201299D01*
X0109831Y0200501D02*
X0139331Y0200501D01*
X0139331Y0199702D02*
X0109831Y0199702D01*
X0109831Y0198904D02*
X0139331Y0198904D01*
X0139331Y0198105D02*
X0109831Y0198105D01*
X0109831Y0197307D02*
X0139331Y0197307D01*
X0139331Y0196508D02*
X0109831Y0196508D01*
X0109831Y0195710D02*
X0139331Y0195710D01*
X0139331Y0194911D02*
X0109831Y0194911D01*
X0109831Y0194113D02*
X0139331Y0194113D01*
X0139331Y0193314D02*
X0109831Y0193314D01*
X0109831Y0192516D02*
X0139331Y0192516D01*
X0139331Y0191717D02*
X0109831Y0191717D01*
X0109831Y0190919D02*
X0139331Y0190919D01*
X0139331Y0190120D02*
X0109831Y0190120D01*
X0109831Y0189322D02*
X0139331Y0189322D01*
X0139331Y0188523D02*
X0109831Y0188523D01*
X0109831Y0187725D02*
X0139331Y0187725D01*
X0139331Y0186926D02*
X0109831Y0186926D01*
X0109831Y0203695D02*
X0139331Y0203695D01*
X0139331Y0204493D02*
X0109831Y0204493D01*
X0109831Y0205292D02*
X0139331Y0205292D01*
X0151331Y0205292D02*
X0175831Y0205292D01*
X0175831Y0206090D02*
X0109831Y0206090D01*
X0109831Y0206889D02*
X0175831Y0206889D01*
X0175831Y0207687D02*
X0109831Y0207687D01*
X0109831Y0208486D02*
X0175831Y0208486D01*
X0175831Y0209284D02*
X0109831Y0209284D01*
X0109831Y0210083D02*
X0175831Y0210083D01*
X0175831Y0210881D02*
X0109831Y0210881D01*
X0109831Y0211680D02*
X0175831Y0211680D01*
X0175831Y0212478D02*
X0109831Y0212478D01*
X0109831Y0213277D02*
X0175831Y0213277D01*
X0175831Y0214075D02*
X0109831Y0214075D01*
X0109831Y0214874D02*
X0175831Y0214874D01*
X0175831Y0204493D02*
X0151331Y0204493D01*
X0151331Y0203695D02*
X0175831Y0203695D01*
X0175831Y0202896D02*
X0151331Y0202896D01*
X0151331Y0202098D02*
X0175831Y0202098D01*
X0175831Y0201299D02*
X0151331Y0201299D01*
X0151331Y0200501D02*
X0175831Y0200501D01*
X0175831Y0199702D02*
X0151331Y0199702D01*
X0151331Y0198904D02*
X0175831Y0198904D01*
X0175831Y0198105D02*
X0151331Y0198105D01*
X0151331Y0197307D02*
X0175831Y0197307D01*
X0175831Y0196508D02*
X0151331Y0196508D01*
X0151331Y0195710D02*
X0175831Y0195710D01*
X0175831Y0194911D02*
X0151331Y0194911D01*
X0151331Y0194113D02*
X0175831Y0194113D01*
X0153831Y0172553D02*
X0144805Y0172553D01*
X0144805Y0171754D02*
X0153831Y0171754D01*
X0153831Y0170956D02*
X0144805Y0170956D01*
X0144805Y0170157D02*
X0153831Y0170157D01*
X0153831Y0169359D02*
X0144805Y0169359D01*
X0144510Y0168560D02*
X0153831Y0168560D01*
X0142815Y0170912D02*
X0142815Y0179443D01*
X0143772Y0180400D01*
X0145331Y0180538D02*
X0141331Y0180538D01*
X0141331Y0181337D02*
X0145331Y0181337D01*
X0145331Y0182135D02*
X0141331Y0182135D01*
X0141331Y0179739D02*
X0145331Y0179739D01*
X0145331Y0178941D02*
X0141331Y0178941D01*
X0144805Y0158978D02*
X0153753Y0158978D01*
X0156831Y0152590D02*
X0168831Y0152590D01*
X0178831Y0152590D02*
X0192831Y0152590D01*
X0192831Y0151792D02*
X0178831Y0151792D01*
X0178831Y0150993D02*
X0192831Y0150993D01*
X0194831Y0150993D02*
X0202831Y0150993D01*
X0202831Y0150195D02*
X0194831Y0150195D01*
X0194831Y0149396D02*
X0202831Y0149396D01*
X0202831Y0148598D02*
X0194831Y0148598D01*
X0194831Y0147799D02*
X0202831Y0147799D01*
X0202831Y0147001D02*
X0194831Y0147001D01*
X0194831Y0146202D02*
X0202831Y0146202D01*
X0202831Y0145900D02*
X0204831Y0143900D01*
X0223831Y0143900D01*
X0223831Y0138400D01*
X0225831Y0136400D01*
X0225831Y0135759D01*
X0225456Y0135384D01*
X0225456Y0133416D01*
X0225831Y0133041D01*
X0225831Y0131900D01*
X0194831Y0131900D01*
X0194831Y0167900D01*
X0202831Y0167900D01*
X0202831Y0145900D01*
X0203327Y0145403D02*
X0194831Y0145403D01*
X0194831Y0144605D02*
X0204126Y0144605D01*
X0205831Y0148400D02*
X0205831Y0152841D01*
X0205772Y0152900D01*
X0205772Y0158900D01*
X0205772Y0164400D01*
X0202831Y0164568D02*
X0194831Y0164568D01*
X0194831Y0165366D02*
X0202831Y0165366D01*
X0202831Y0166165D02*
X0194831Y0166165D01*
X0194831Y0166963D02*
X0202831Y0166963D01*
X0202831Y0167762D02*
X0194831Y0167762D01*
X0194831Y0163769D02*
X0202831Y0163769D01*
X0202831Y0162971D02*
X0194831Y0162971D01*
X0194831Y0162172D02*
X0202831Y0162172D01*
X0202831Y0161374D02*
X0194831Y0161374D01*
X0194831Y0160575D02*
X0202831Y0160575D01*
X0202831Y0159777D02*
X0194831Y0159777D01*
X0194831Y0158978D02*
X0202831Y0158978D01*
X0202831Y0158180D02*
X0194831Y0158180D01*
X0194831Y0157381D02*
X0202831Y0157381D01*
X0202831Y0156583D02*
X0194831Y0156583D01*
X0194831Y0155784D02*
X0202831Y0155784D01*
X0202831Y0154986D02*
X0194831Y0154986D01*
X0194831Y0154187D02*
X0202831Y0154187D01*
X0202831Y0153389D02*
X0194831Y0153389D01*
X0194831Y0152590D02*
X0202831Y0152590D01*
X0202831Y0151792D02*
X0194831Y0151792D01*
X0192831Y0153389D02*
X0178831Y0153389D01*
X0178831Y0154187D02*
X0192831Y0154187D01*
X0192831Y0154986D02*
X0178831Y0154986D01*
X0178831Y0155784D02*
X0192831Y0155784D01*
X0192831Y0156583D02*
X0178831Y0156583D01*
X0178831Y0157381D02*
X0192831Y0157381D01*
X0192831Y0158180D02*
X0178831Y0158180D01*
X0178831Y0158978D02*
X0192831Y0158978D01*
X0194831Y0143806D02*
X0223831Y0143806D01*
X0223831Y0143008D02*
X0194831Y0143008D01*
X0194831Y0142209D02*
X0223831Y0142209D01*
X0223831Y0141411D02*
X0194831Y0141411D01*
X0194831Y0140612D02*
X0223831Y0140612D01*
X0223831Y0139814D02*
X0194831Y0139814D01*
X0194831Y0139015D02*
X0223831Y0139015D01*
X0224014Y0138217D02*
X0194831Y0138217D01*
X0194831Y0137418D02*
X0224812Y0137418D01*
X0225611Y0136620D02*
X0194831Y0136620D01*
X0194831Y0135821D02*
X0225831Y0135821D01*
X0225456Y0135023D02*
X0194831Y0135023D01*
X0194831Y0134224D02*
X0225456Y0134224D01*
X0225456Y0133426D02*
X0194831Y0133426D01*
X0194831Y0132627D02*
X0225831Y0132627D01*
X0227831Y0134400D02*
X0256831Y0134400D01*
X0270831Y0148400D01*
X0270831Y0159900D01*
X0263831Y0159777D02*
X0277831Y0159777D01*
X0277831Y0160575D02*
X0263831Y0160575D01*
X0263831Y0161374D02*
X0277831Y0161374D01*
X0277831Y0162172D02*
X0263831Y0162172D01*
X0263831Y0162971D02*
X0277831Y0162971D01*
X0277831Y0163769D02*
X0263831Y0163769D01*
X0263831Y0164568D02*
X0277831Y0164568D01*
X0277831Y0165366D02*
X0263831Y0165366D01*
X0263831Y0166165D02*
X0277831Y0166165D01*
X0277831Y0166963D02*
X0263831Y0166963D01*
X0263831Y0167762D02*
X0277831Y0167762D01*
X0277831Y0168560D02*
X0263831Y0168560D01*
X0263831Y0169359D02*
X0277831Y0169359D01*
X0277831Y0170157D02*
X0263831Y0170157D01*
X0263831Y0170956D02*
X0277831Y0170956D01*
X0277831Y0171754D02*
X0263831Y0171754D01*
X0263831Y0172553D02*
X0277831Y0172553D01*
X0277831Y0173351D02*
X0263831Y0173351D01*
X0263831Y0174150D02*
X0277831Y0174150D01*
X0277831Y0174948D02*
X0263831Y0174948D01*
X0263831Y0175747D02*
X0277831Y0175747D01*
X0277831Y0176545D02*
X0263831Y0176545D01*
X0263831Y0177344D02*
X0277831Y0177344D01*
X0277831Y0178142D02*
X0263831Y0178142D01*
X0263831Y0178941D02*
X0277831Y0178941D01*
X0277831Y0179739D02*
X0263831Y0179739D01*
X0263831Y0180538D02*
X0277831Y0180538D01*
X0277831Y0181337D02*
X0263831Y0181337D01*
X0263831Y0182135D02*
X0277831Y0182135D01*
X0277831Y0182934D02*
X0263831Y0182934D01*
X0263831Y0183732D02*
X0277831Y0183732D01*
X0277831Y0184531D02*
X0263831Y0184531D01*
X0263831Y0185329D02*
X0277831Y0185329D01*
X0277831Y0186128D02*
X0263831Y0186128D01*
X0263831Y0186926D02*
X0277831Y0186926D01*
X0277831Y0187725D02*
X0263831Y0187725D01*
X0263831Y0188523D02*
X0277831Y0188523D01*
X0277831Y0189322D02*
X0263831Y0189322D01*
X0263831Y0190120D02*
X0277831Y0190120D01*
X0277831Y0190919D02*
X0263831Y0190919D01*
X0263831Y0191717D02*
X0277831Y0191717D01*
X0277831Y0192516D02*
X0263831Y0192516D01*
X0263831Y0193314D02*
X0277831Y0193314D01*
X0277831Y0193400D02*
X0277831Y0150400D01*
X0263831Y0150400D01*
X0263831Y0193400D01*
X0277831Y0193400D01*
X0260831Y0193314D02*
X0236331Y0193314D01*
X0236331Y0192516D02*
X0260831Y0192516D01*
X0260831Y0191717D02*
X0236331Y0191717D01*
X0236331Y0190919D02*
X0260831Y0190919D01*
X0260831Y0190120D02*
X0236331Y0190120D01*
X0236331Y0189322D02*
X0260831Y0189322D01*
X0260831Y0188523D02*
X0232831Y0188523D01*
X0232831Y0188900D02*
X0236331Y0188900D01*
X0236331Y0197400D01*
X0260831Y0197400D01*
X0260831Y0169900D01*
X0232831Y0169900D01*
X0232831Y0188900D01*
X0232831Y0187725D02*
X0260831Y0187725D01*
X0260831Y0186926D02*
X0232831Y0186926D01*
X0232831Y0186128D02*
X0260831Y0186128D01*
X0260831Y0185329D02*
X0232831Y0185329D01*
X0232831Y0184531D02*
X0260831Y0184531D01*
X0260831Y0183732D02*
X0232831Y0183732D01*
X0232831Y0182934D02*
X0260831Y0182934D01*
X0260831Y0182135D02*
X0232831Y0182135D01*
X0232831Y0181337D02*
X0260831Y0181337D01*
X0260831Y0180538D02*
X0232831Y0180538D01*
X0232831Y0179739D02*
X0260831Y0179739D01*
X0260831Y0178941D02*
X0232831Y0178941D01*
X0232831Y0178142D02*
X0260831Y0178142D01*
X0260831Y0177344D02*
X0232831Y0177344D01*
X0232831Y0176545D02*
X0260831Y0176545D01*
X0260831Y0175747D02*
X0232831Y0175747D01*
X0232831Y0174948D02*
X0260831Y0174948D01*
X0260831Y0174150D02*
X0232831Y0174150D01*
X0232831Y0173351D02*
X0260831Y0173351D01*
X0260831Y0172553D02*
X0232831Y0172553D01*
X0232831Y0171754D02*
X0260831Y0171754D01*
X0260831Y0170956D02*
X0232831Y0170956D01*
X0232831Y0170157D02*
X0260831Y0170157D01*
X0253831Y0167900D02*
X0253831Y0152400D01*
X0241831Y0152400D01*
X0241831Y0158900D01*
X0241631Y0159100D01*
X0241631Y0159146D01*
X0240576Y0160200D01*
X0240531Y0160200D01*
X0237187Y0163543D01*
X0237187Y0163618D01*
X0236367Y0164438D01*
X0232255Y0164438D01*
X0232217Y0164400D01*
X0231376Y0164400D01*
X0230831Y0164946D01*
X0230831Y0165854D01*
X0231376Y0166400D01*
X0232217Y0166400D01*
X0232255Y0166362D01*
X0236367Y0166362D01*
X0236405Y0166400D01*
X0239831Y0166400D01*
X0241331Y0167900D01*
X0253831Y0167900D01*
X0253831Y0167762D02*
X0241193Y0167762D01*
X0240394Y0166963D02*
X0253831Y0166963D01*
X0253831Y0166165D02*
X0231141Y0166165D01*
X0231063Y0165400D02*
X0228031Y0165400D01*
X0225746Y0165366D02*
X0222227Y0165366D01*
X0222227Y0165586D02*
X0221429Y0166384D01*
X0222227Y0167182D01*
X0222227Y0168035D01*
X0228985Y0168035D01*
X0229805Y0168856D01*
X0229805Y0172875D01*
X0229831Y0172900D01*
X0238831Y0172900D01*
X0238831Y0168400D01*
X0230831Y0168400D01*
X0229831Y0167400D01*
X0225831Y0167400D01*
X0225831Y0166596D01*
X0225746Y0166511D01*
X0225746Y0164289D01*
X0225831Y0164204D01*
X0225831Y0163400D01*
X0229831Y0163400D01*
X0230831Y0162400D01*
X0235331Y0162400D01*
X0239331Y0158400D01*
X0239331Y0155400D01*
X0229615Y0155400D01*
X0229615Y0157641D01*
X0229805Y0157832D01*
X0229805Y0161944D01*
X0228985Y0162765D01*
X0222227Y0162765D01*
X0222227Y0165586D01*
X0221648Y0166165D02*
X0225746Y0166165D01*
X0225831Y0166963D02*
X0222008Y0166963D01*
X0222227Y0167762D02*
X0230193Y0167762D01*
X0229510Y0168560D02*
X0238831Y0168560D01*
X0238831Y0169359D02*
X0229805Y0169359D01*
X0229805Y0170157D02*
X0238831Y0170157D01*
X0238831Y0170956D02*
X0229805Y0170956D01*
X0229805Y0171754D02*
X0238831Y0171754D01*
X0238831Y0172553D02*
X0229805Y0172553D01*
X0227815Y0170912D02*
X0227815Y0179443D01*
X0228772Y0180400D01*
X0230331Y0180538D02*
X0226331Y0180538D01*
X0226331Y0181337D02*
X0230331Y0181337D01*
X0230331Y0182135D02*
X0226331Y0182135D01*
X0226331Y0182934D02*
X0230331Y0182934D01*
X0230331Y0183732D02*
X0226331Y0183732D01*
X0226331Y0184531D02*
X0230331Y0184531D01*
X0230331Y0185329D02*
X0226331Y0185329D01*
X0226331Y0186128D02*
X0230331Y0186128D01*
X0230331Y0186926D02*
X0226331Y0186926D01*
X0226331Y0187725D02*
X0230331Y0187725D01*
X0230331Y0188523D02*
X0226331Y0188523D01*
X0226331Y0189322D02*
X0230331Y0189322D01*
X0230331Y0190120D02*
X0226331Y0190120D01*
X0226331Y0190919D02*
X0230849Y0190919D01*
X0231331Y0191400D02*
X0230331Y0190400D01*
X0230331Y0178900D01*
X0226331Y0178900D01*
X0226331Y0203400D01*
X0233831Y0203400D01*
X0233831Y0191400D01*
X0231331Y0191400D01*
X0233831Y0191717D02*
X0226331Y0191717D01*
X0226331Y0192516D02*
X0233831Y0192516D01*
X0233831Y0193314D02*
X0226331Y0193314D01*
X0226331Y0194113D02*
X0233831Y0194113D01*
X0233831Y0194911D02*
X0226331Y0194911D01*
X0226331Y0195710D02*
X0233831Y0195710D01*
X0233831Y0196508D02*
X0226331Y0196508D01*
X0226331Y0197307D02*
X0233831Y0197307D01*
X0233831Y0198105D02*
X0226331Y0198105D01*
X0226331Y0198904D02*
X0233831Y0198904D01*
X0233831Y0199702D02*
X0226331Y0199702D01*
X0226331Y0200501D02*
X0233831Y0200501D01*
X0233831Y0201299D02*
X0226331Y0201299D01*
X0226331Y0202098D02*
X0233831Y0202098D01*
X0233831Y0202896D02*
X0226331Y0202896D01*
X0236331Y0197307D02*
X0260831Y0197307D01*
X0260831Y0196508D02*
X0236331Y0196508D01*
X0236331Y0195710D02*
X0260831Y0195710D01*
X0260831Y0194911D02*
X0236331Y0194911D01*
X0236331Y0194113D02*
X0260831Y0194113D01*
X0230331Y0179739D02*
X0226331Y0179739D01*
X0226331Y0178941D02*
X0230331Y0178941D01*
X0223878Y0181294D02*
X0222331Y0182841D01*
X0223878Y0181294D02*
X0223878Y0170912D01*
X0221909Y0170912D02*
X0221909Y0177262D01*
X0216331Y0182841D01*
X0215831Y0168900D02*
X0213831Y0168900D01*
X0213831Y0166900D01*
X0214515Y0166216D01*
X0217104Y0166216D01*
X0217272Y0166384D01*
X0216474Y0167182D01*
X0216474Y0167257D01*
X0215831Y0167900D01*
X0215831Y0168900D01*
X0215831Y0168560D02*
X0213831Y0168560D01*
X0213831Y0167762D02*
X0215969Y0167762D01*
X0216693Y0166963D02*
X0213831Y0166963D01*
X0210906Y0164416D02*
X0210890Y0164400D01*
X0210906Y0164416D02*
X0219350Y0164416D01*
X0219350Y0162447D02*
X0214437Y0162447D01*
X0210890Y0158900D01*
X0210890Y0152900D01*
X0215831Y0147959D01*
X0216331Y0147959D01*
X0222331Y0147959D02*
X0223878Y0149506D01*
X0223878Y0159888D01*
X0225846Y0159888D02*
X0225846Y0140384D01*
X0227831Y0138400D01*
X0231272Y0138400D01*
X0227831Y0143400D02*
X0227831Y0152400D01*
X0230331Y0152400D01*
X0230331Y0147900D01*
X0230831Y0147400D01*
X0235331Y0147400D01*
X0235331Y0143400D01*
X0227831Y0143400D01*
X0227831Y0143806D02*
X0235331Y0143806D01*
X0235331Y0144605D02*
X0227831Y0144605D01*
X0227831Y0145403D02*
X0235331Y0145403D01*
X0235331Y0146202D02*
X0227831Y0146202D01*
X0227831Y0147001D02*
X0235331Y0147001D01*
X0237331Y0147001D02*
X0239831Y0147001D01*
X0239831Y0147799D02*
X0237331Y0147799D01*
X0237331Y0148400D02*
X0236331Y0149400D01*
X0232831Y0149400D01*
X0232831Y0155400D01*
X0235831Y0158400D01*
X0239831Y0158400D01*
X0239831Y0142900D01*
X0238831Y0141900D01*
X0237331Y0141900D01*
X0237331Y0148400D01*
X0237133Y0148598D02*
X0239831Y0148598D01*
X0239831Y0149396D02*
X0236335Y0149396D01*
X0239831Y0150195D02*
X0232831Y0150195D01*
X0232831Y0150993D02*
X0239831Y0150993D01*
X0239831Y0151792D02*
X0232831Y0151792D01*
X0232831Y0152590D02*
X0239831Y0152590D01*
X0239831Y0153389D02*
X0232831Y0153389D01*
X0232831Y0154187D02*
X0239831Y0154187D01*
X0239831Y0154986D02*
X0232831Y0154986D01*
X0233215Y0155784D02*
X0239831Y0155784D01*
X0239331Y0155784D02*
X0229615Y0155784D01*
X0229615Y0156583D02*
X0239331Y0156583D01*
X0239831Y0156583D02*
X0234013Y0156583D01*
X0234812Y0157381D02*
X0239831Y0157381D01*
X0239331Y0157381D02*
X0229615Y0157381D01*
X0229805Y0158180D02*
X0239331Y0158180D01*
X0239831Y0158180D02*
X0235610Y0158180D01*
X0237954Y0159777D02*
X0229805Y0159777D01*
X0229805Y0160575D02*
X0237155Y0160575D01*
X0236357Y0161374D02*
X0229805Y0161374D01*
X0229578Y0162172D02*
X0235558Y0162172D01*
X0237036Y0163769D02*
X0253831Y0163769D01*
X0253831Y0162971D02*
X0237760Y0162971D01*
X0238558Y0162172D02*
X0253831Y0162172D01*
X0253831Y0161374D02*
X0239357Y0161374D01*
X0240155Y0160575D02*
X0253831Y0160575D01*
X0253831Y0159777D02*
X0241000Y0159777D01*
X0241753Y0158978D02*
X0253831Y0158978D01*
X0253831Y0158180D02*
X0241831Y0158180D01*
X0241831Y0157381D02*
X0253831Y0157381D01*
X0253831Y0156583D02*
X0241831Y0156583D01*
X0241831Y0155784D02*
X0253831Y0155784D01*
X0253831Y0154986D02*
X0241831Y0154986D01*
X0241831Y0154187D02*
X0253831Y0154187D01*
X0253831Y0153389D02*
X0241831Y0153389D01*
X0241831Y0152900D02*
X0242331Y0153400D01*
X0241831Y0152900D02*
X0241831Y0141400D01*
X0238831Y0138400D01*
X0236390Y0138400D01*
X0237331Y0142209D02*
X0239140Y0142209D01*
X0239831Y0143008D02*
X0237331Y0143008D01*
X0237331Y0143806D02*
X0239831Y0143806D01*
X0239831Y0144605D02*
X0237331Y0144605D01*
X0237331Y0145403D02*
X0239831Y0145403D01*
X0239831Y0146202D02*
X0237331Y0146202D01*
X0230432Y0147799D02*
X0227831Y0147799D01*
X0227831Y0148598D02*
X0230331Y0148598D01*
X0230331Y0149396D02*
X0227831Y0149396D01*
X0227831Y0150195D02*
X0230331Y0150195D01*
X0230331Y0150993D02*
X0227831Y0150993D01*
X0227831Y0151792D02*
X0230331Y0151792D01*
X0228772Y0150900D02*
X0227815Y0152357D01*
X0227815Y0159888D01*
X0229805Y0158978D02*
X0238753Y0158978D01*
X0241831Y0152590D02*
X0253831Y0152590D01*
X0263831Y0152590D02*
X0277831Y0152590D01*
X0277831Y0151792D02*
X0263831Y0151792D01*
X0263831Y0150993D02*
X0277831Y0150993D01*
X0277831Y0153389D02*
X0263831Y0153389D01*
X0263831Y0154187D02*
X0277831Y0154187D01*
X0277831Y0154986D02*
X0263831Y0154986D01*
X0263831Y0155784D02*
X0277831Y0155784D01*
X0277831Y0156583D02*
X0263831Y0156583D01*
X0263831Y0157381D02*
X0277831Y0157381D01*
X0277831Y0158180D02*
X0263831Y0158180D01*
X0263831Y0158978D02*
X0277831Y0158978D01*
X0253831Y0164568D02*
X0231209Y0164568D01*
X0230831Y0165366D02*
X0253831Y0165366D01*
X0230260Y0162971D02*
X0222227Y0162971D01*
X0222227Y0163769D02*
X0225831Y0163769D01*
X0225746Y0164568D02*
X0222227Y0164568D01*
X0221909Y0159888D02*
X0221909Y0158479D01*
X0218831Y0155400D01*
X0122831Y0099888D02*
X0108831Y0099888D01*
X0108831Y0099090D02*
X0122831Y0099090D01*
X0122831Y0098291D02*
X0108831Y0098291D01*
X0108831Y0097493D02*
X0122831Y0097493D01*
X0122831Y0096694D02*
X0108831Y0096694D01*
X0108831Y0095896D02*
X0122831Y0095896D01*
X0122831Y0095097D02*
X0108831Y0095097D01*
X0108831Y0094299D02*
X0122831Y0094299D01*
X0122831Y0093500D02*
X0108831Y0093500D01*
X0108831Y0092702D02*
X0122831Y0092702D01*
X0122831Y0091903D02*
X0108831Y0091903D01*
X0108831Y0091105D02*
X0122831Y0091105D01*
X0122831Y0090306D02*
X0108831Y0090306D01*
X0108831Y0089508D02*
X0122831Y0089508D01*
X0122831Y0088709D02*
X0108831Y0088709D01*
X0108831Y0087911D02*
X0122831Y0087911D01*
X0122831Y0087112D02*
X0108831Y0087112D01*
X0108831Y0086314D02*
X0122831Y0086314D01*
X0122831Y0085515D02*
X0108831Y0085515D01*
X0108831Y0084717D02*
X0122831Y0084717D01*
X0122831Y0083918D02*
X0108831Y0083918D01*
X0108831Y0083120D02*
X0122831Y0083120D01*
X0122831Y0082321D02*
X0108831Y0082321D01*
X0108831Y0081523D02*
X0122831Y0081523D01*
X0122831Y0080724D02*
X0108831Y0080724D01*
X0115831Y0078400D02*
X0101831Y0064400D01*
X0072831Y0064400D01*
X0070431Y0064754D02*
X0049276Y0064754D01*
X0050074Y0063955D02*
X0070431Y0063955D01*
X0070431Y0063157D02*
X0050873Y0063157D01*
X0051598Y0062358D02*
X0053002Y0062358D01*
X0048121Y0065552D02*
X0070431Y0065552D01*
X0070595Y0066351D02*
X0046738Y0066351D01*
X0044771Y0067149D02*
X0070081Y0067149D01*
X0069283Y0067948D02*
X0039831Y0067948D01*
X0039831Y0068746D02*
X0068831Y0068746D01*
X0068831Y0069545D02*
X0039831Y0069545D01*
X0039831Y0070343D02*
X0068831Y0070343D01*
X0068831Y0071142D02*
X0039831Y0071142D01*
X0039831Y0071940D02*
X0068831Y0071940D01*
X0068831Y0072739D02*
X0039831Y0072739D01*
X0039831Y0073537D02*
X0068831Y0073537D01*
X0070846Y0070384D02*
X0072831Y0068400D01*
X0076272Y0068400D01*
X0081390Y0068400D02*
X0083831Y0068400D01*
X0086831Y0071400D01*
X0086831Y0082900D01*
X0087331Y0083400D01*
X0086831Y0083120D02*
X0098831Y0083120D01*
X0098831Y0082487D02*
X0098744Y0082400D01*
X0086831Y0082400D01*
X0086831Y0088900D01*
X0086631Y0089100D01*
X0086631Y0089146D01*
X0085576Y0090200D01*
X0085531Y0090200D01*
X0082187Y0093543D01*
X0082187Y0093618D01*
X0081367Y0094438D01*
X0077255Y0094438D01*
X0077217Y0094400D01*
X0076376Y0094400D01*
X0075831Y0094946D01*
X0075831Y0095854D01*
X0076376Y0096400D01*
X0077217Y0096400D01*
X0077255Y0096362D01*
X0081367Y0096362D01*
X0081405Y0096400D01*
X0084831Y0096400D01*
X0086331Y0097900D01*
X0098831Y0097900D01*
X0098831Y0082487D01*
X0098831Y0083918D02*
X0086831Y0083918D01*
X0086831Y0084717D02*
X0098831Y0084717D01*
X0098831Y0085515D02*
X0086831Y0085515D01*
X0086831Y0086314D02*
X0098831Y0086314D01*
X0098831Y0087112D02*
X0086831Y0087112D01*
X0086831Y0087911D02*
X0098831Y0087911D01*
X0098831Y0088709D02*
X0086831Y0088709D01*
X0086269Y0089508D02*
X0098831Y0089508D01*
X0098831Y0090306D02*
X0085424Y0090306D01*
X0084626Y0091105D02*
X0098831Y0091105D01*
X0098831Y0091903D02*
X0083827Y0091903D01*
X0083029Y0092702D02*
X0098831Y0092702D01*
X0098831Y0093500D02*
X0082230Y0093500D01*
X0081506Y0094299D02*
X0098831Y0094299D01*
X0098831Y0095097D02*
X0075831Y0095097D01*
X0076063Y0095400D02*
X0073031Y0095400D01*
X0070746Y0095097D02*
X0067227Y0095097D01*
X0067227Y0095586D02*
X0066429Y0096384D01*
X0067227Y0097182D01*
X0067227Y0098035D01*
X0073985Y0098035D01*
X0074805Y0098856D01*
X0074805Y0102875D01*
X0074831Y0102900D01*
X0083831Y0102900D01*
X0083831Y0098400D01*
X0075831Y0098400D01*
X0074831Y0097400D01*
X0070831Y0097400D01*
X0070831Y0096596D01*
X0070746Y0096511D01*
X0070746Y0094289D01*
X0070831Y0094204D01*
X0070831Y0093400D01*
X0074831Y0093400D01*
X0075831Y0092400D01*
X0080331Y0092400D01*
X0084331Y0088400D01*
X0084331Y0085400D01*
X0074615Y0085400D01*
X0074615Y0087641D01*
X0074805Y0087832D01*
X0074805Y0091944D01*
X0073985Y0092765D01*
X0067227Y0092765D01*
X0067227Y0095586D01*
X0066917Y0095896D02*
X0070746Y0095896D01*
X0070831Y0096694D02*
X0066739Y0096694D01*
X0067227Y0097493D02*
X0074924Y0097493D01*
X0074241Y0098291D02*
X0075722Y0098291D01*
X0074805Y0099090D02*
X0083831Y0099090D01*
X0083831Y0099888D02*
X0074805Y0099888D01*
X0074805Y0100687D02*
X0083831Y0100687D01*
X0083831Y0101485D02*
X0074805Y0101485D01*
X0074805Y0102284D02*
X0083831Y0102284D01*
X0085924Y0097493D02*
X0098831Y0097493D01*
X0098831Y0096694D02*
X0085125Y0096694D01*
X0080827Y0091903D02*
X0074805Y0091903D01*
X0074805Y0091105D02*
X0081626Y0091105D01*
X0082424Y0090306D02*
X0074805Y0090306D01*
X0074805Y0089508D02*
X0083223Y0089508D01*
X0084022Y0088709D02*
X0074805Y0088709D01*
X0074805Y0087911D02*
X0084331Y0087911D01*
X0084831Y0087911D02*
X0080341Y0087911D01*
X0080831Y0088400D02*
X0084831Y0088400D01*
X0084831Y0072900D01*
X0083831Y0071900D01*
X0082331Y0071900D01*
X0082331Y0078400D01*
X0081331Y0079400D01*
X0077831Y0079400D01*
X0077831Y0085400D01*
X0080831Y0088400D01*
X0079543Y0087112D02*
X0084831Y0087112D01*
X0084331Y0087112D02*
X0074615Y0087112D01*
X0074615Y0086314D02*
X0084331Y0086314D01*
X0084831Y0086314D02*
X0078744Y0086314D01*
X0077946Y0085515D02*
X0084831Y0085515D01*
X0084331Y0085515D02*
X0074615Y0085515D01*
X0077831Y0084717D02*
X0084831Y0084717D01*
X0084831Y0083918D02*
X0077831Y0083918D01*
X0077831Y0083120D02*
X0084831Y0083120D01*
X0084831Y0082321D02*
X0077831Y0082321D01*
X0077831Y0081523D02*
X0084831Y0081523D01*
X0084831Y0080724D02*
X0077831Y0080724D01*
X0077831Y0079926D02*
X0084831Y0079926D01*
X0084831Y0079127D02*
X0081604Y0079127D01*
X0082331Y0078329D02*
X0084831Y0078329D01*
X0084831Y0077530D02*
X0082331Y0077530D01*
X0082331Y0076732D02*
X0084831Y0076732D01*
X0084831Y0075933D02*
X0082331Y0075933D01*
X0082331Y0075134D02*
X0084831Y0075134D01*
X0084831Y0074336D02*
X0082331Y0074336D01*
X0082331Y0073537D02*
X0084831Y0073537D01*
X0084670Y0072739D02*
X0082331Y0072739D01*
X0082331Y0071940D02*
X0083871Y0071940D01*
X0080331Y0073400D02*
X0072831Y0073400D01*
X0072831Y0082400D01*
X0075331Y0082400D01*
X0075331Y0077900D01*
X0075831Y0077400D01*
X0080331Y0077400D01*
X0080331Y0073400D01*
X0080331Y0073537D02*
X0072831Y0073537D01*
X0072831Y0074336D02*
X0080331Y0074336D01*
X0080331Y0075134D02*
X0072831Y0075134D01*
X0072831Y0075933D02*
X0080331Y0075933D01*
X0080331Y0076732D02*
X0072831Y0076732D01*
X0072831Y0077530D02*
X0075701Y0077530D01*
X0075331Y0078329D02*
X0072831Y0078329D01*
X0072831Y0079127D02*
X0075331Y0079127D01*
X0075331Y0079926D02*
X0072831Y0079926D01*
X0072831Y0080724D02*
X0075331Y0080724D01*
X0075331Y0081523D02*
X0072831Y0081523D01*
X0072831Y0082321D02*
X0075331Y0082321D01*
X0073772Y0080900D02*
X0072815Y0082357D01*
X0072815Y0089888D01*
X0070846Y0089888D02*
X0070846Y0070384D01*
X0067331Y0077959D02*
X0068878Y0079506D01*
X0068878Y0089888D01*
X0066909Y0089888D02*
X0066909Y0088479D01*
X0063831Y0085400D01*
X0064350Y0092447D02*
X0059437Y0092447D01*
X0055890Y0088900D01*
X0055890Y0082900D01*
X0060831Y0077959D01*
X0061331Y0077959D01*
X0050831Y0078400D02*
X0050831Y0082841D01*
X0050772Y0082900D01*
X0050772Y0088900D01*
X0050772Y0094400D01*
X0047831Y0094299D02*
X0039831Y0094299D01*
X0039831Y0095097D02*
X0047831Y0095097D01*
X0047831Y0095896D02*
X0039831Y0095896D01*
X0039831Y0096694D02*
X0047831Y0096694D01*
X0047831Y0097493D02*
X0039831Y0097493D01*
X0039831Y0098291D02*
X0061474Y0098291D01*
X0060831Y0098291D02*
X0058831Y0098291D01*
X0058831Y0098900D02*
X0058831Y0096900D01*
X0059515Y0096216D01*
X0062104Y0096216D01*
X0062272Y0096384D01*
X0061474Y0097182D01*
X0061474Y0097257D01*
X0060831Y0097900D01*
X0060831Y0098900D01*
X0058831Y0098900D01*
X0058831Y0097493D02*
X0061238Y0097493D01*
X0061962Y0096694D02*
X0059036Y0096694D01*
X0061474Y0099090D02*
X0039831Y0099090D01*
X0039831Y0099888D02*
X0061839Y0099888D01*
X0064831Y0100687D02*
X0039831Y0100687D01*
X0039831Y0101485D02*
X0064831Y0101485D01*
X0064447Y0102284D02*
X0039831Y0102284D01*
X0039831Y0103082D02*
X0063648Y0103082D01*
X0062850Y0103881D02*
X0039831Y0103881D01*
X0039831Y0104679D02*
X0062051Y0104679D01*
X0061253Y0105478D02*
X0039831Y0105478D01*
X0039831Y0106276D02*
X0060454Y0106276D01*
X0059656Y0107075D02*
X0039831Y0107075D01*
X0039831Y0107873D02*
X0058857Y0107873D01*
X0058059Y0108672D02*
X0039831Y0108672D01*
X0039831Y0109470D02*
X0057831Y0109470D01*
X0057831Y0110269D02*
X0039831Y0110269D01*
X0039831Y0111068D02*
X0057831Y0111068D01*
X0057831Y0111866D02*
X0039831Y0111866D01*
X0039831Y0112665D02*
X0057831Y0112665D01*
X0057831Y0113463D02*
X0039831Y0113463D01*
X0039831Y0114262D02*
X0057831Y0114262D01*
X0057831Y0115060D02*
X0039831Y0115060D01*
X0039831Y0115859D02*
X0057831Y0115859D01*
X0057831Y0116657D02*
X0039831Y0116657D01*
X0061331Y0112841D02*
X0066909Y0107262D01*
X0066909Y0100912D01*
X0068878Y0100912D02*
X0068878Y0111294D01*
X0067331Y0112841D01*
X0071331Y0112665D02*
X0075331Y0112665D01*
X0075331Y0113463D02*
X0071331Y0113463D01*
X0071331Y0114262D02*
X0075331Y0114262D01*
X0075331Y0115060D02*
X0071331Y0115060D01*
X0071331Y0115859D02*
X0075331Y0115859D01*
X0075331Y0116657D02*
X0071331Y0116657D01*
X0071331Y0111866D02*
X0075331Y0111866D01*
X0075331Y0111068D02*
X0071331Y0111068D01*
X0071331Y0110269D02*
X0075331Y0110269D01*
X0075331Y0109470D02*
X0071331Y0109470D01*
X0072815Y0109443D02*
X0073772Y0110400D01*
X0072815Y0109443D02*
X0072815Y0100912D01*
X0075872Y0095896D02*
X0098831Y0095896D01*
X0115831Y0089900D02*
X0115831Y0078400D01*
X0075529Y0092702D02*
X0074048Y0092702D01*
X0070831Y0093500D02*
X0067227Y0093500D01*
X0067227Y0094299D02*
X0070746Y0094299D01*
X0064350Y0094416D02*
X0055906Y0094416D01*
X0055890Y0094400D01*
X0047831Y0093500D02*
X0039831Y0093500D01*
X0039831Y0092702D02*
X0047831Y0092702D01*
X0047831Y0091903D02*
X0039831Y0091903D01*
X0039831Y0091105D02*
X0047831Y0091105D01*
X0047831Y0090306D02*
X0039831Y0090306D01*
X0039831Y0089508D02*
X0047831Y0089508D01*
X0047831Y0088709D02*
X0039831Y0088709D01*
X0039831Y0087911D02*
X0047831Y0087911D01*
X0047831Y0087112D02*
X0039831Y0087112D01*
X0039831Y0086314D02*
X0047831Y0086314D01*
X0047831Y0085515D02*
X0039831Y0085515D01*
X0039831Y0084717D02*
X0047831Y0084717D01*
X0047831Y0083918D02*
X0039831Y0083918D01*
X0039831Y0083120D02*
X0047831Y0083120D01*
X0047831Y0082321D02*
X0039831Y0082321D01*
X0039831Y0081523D02*
X0047831Y0081523D01*
X0047831Y0080724D02*
X0039831Y0080724D01*
X0039831Y0079926D02*
X0047831Y0079926D01*
X0047831Y0079127D02*
X0039831Y0079127D01*
X0039831Y0078329D02*
X0047831Y0078329D01*
X0047831Y0077530D02*
X0039831Y0077530D01*
X0039831Y0076732D02*
X0047831Y0076732D01*
X0047831Y0075933D02*
X0039831Y0075933D01*
X0039831Y0075134D02*
X0048596Y0075134D01*
X0049395Y0074336D02*
X0039831Y0074336D01*
X0081331Y0119053D02*
X0105831Y0119053D01*
X0105831Y0119851D02*
X0081331Y0119851D01*
X0081331Y0120650D02*
X0105831Y0120650D01*
X0105831Y0121448D02*
X0081331Y0121448D01*
X0081331Y0122247D02*
X0105831Y0122247D01*
X0105831Y0123045D02*
X0081331Y0123045D01*
X0081331Y0123844D02*
X0105831Y0123844D01*
X0105831Y0124642D02*
X0081331Y0124642D01*
X0081331Y0125441D02*
X0105831Y0125441D01*
X0105831Y0126239D02*
X0081331Y0126239D01*
X0081331Y0127038D02*
X0105831Y0127038D01*
X0105831Y0127836D02*
X0081331Y0127836D01*
X0081331Y0128635D02*
X0105831Y0128635D01*
X0105831Y0129433D02*
X0081331Y0129433D01*
X0081331Y0130232D02*
X0105831Y0130232D01*
X0105831Y0131030D02*
X0081331Y0131030D01*
X0081331Y0131829D02*
X0105831Y0131829D01*
X0105831Y0132627D02*
X0081331Y0132627D01*
X0081331Y0133426D02*
X0105831Y0133426D01*
X0105831Y0134224D02*
X0081331Y0134224D01*
X0081331Y0135023D02*
X0105831Y0135023D01*
X0078831Y0132627D02*
X0071331Y0132627D01*
X0071331Y0131829D02*
X0078831Y0131829D01*
X0078831Y0131030D02*
X0071331Y0131030D01*
X0071331Y0130232D02*
X0078831Y0130232D01*
X0078831Y0129433D02*
X0071331Y0129433D01*
X0071331Y0128635D02*
X0078831Y0128635D01*
X0078831Y0127836D02*
X0071331Y0127836D01*
X0071331Y0127038D02*
X0078831Y0127038D01*
X0078831Y0126239D02*
X0071331Y0126239D01*
X0071331Y0125441D02*
X0078831Y0125441D01*
X0078831Y0124642D02*
X0071331Y0124642D01*
X0071331Y0123844D02*
X0078831Y0123844D01*
X0078831Y0123045D02*
X0071331Y0123045D01*
X0071331Y0122247D02*
X0078831Y0122247D01*
X0078831Y0121448D02*
X0071331Y0121448D01*
D27*
X0073331Y0123900D03*
X0077331Y0123900D03*
X0077331Y0128400D03*
X0073331Y0128400D03*
X0065331Y0127900D03*
X0059831Y0127900D03*
X0059831Y0133900D03*
X0065331Y0133900D03*
X0065331Y0139400D03*
X0059831Y0139400D03*
X0083831Y0139900D03*
X0083831Y0133900D03*
X0083831Y0127900D03*
X0083831Y0121900D03*
X0083831Y0113400D03*
X0083831Y0107900D03*
X0083831Y0102900D03*
X0096331Y0102900D03*
X0096331Y0107400D03*
X0096331Y0113400D03*
X0096331Y0121900D03*
X0096331Y0127400D03*
X0096331Y0133900D03*
X0096331Y0139900D03*
X0115331Y0136900D03*
X0120831Y0136900D03*
X0126831Y0136900D03*
X0132831Y0136900D03*
X0142831Y0134400D03*
X0144831Y0145400D03*
X0148331Y0145400D03*
X0153331Y0144400D03*
X0153331Y0148400D03*
X0153331Y0152900D03*
X0152331Y0157400D03*
X0138831Y0165400D03*
X0128331Y0170900D03*
X0124331Y0170900D03*
X0119831Y0170900D03*
X0115331Y0170900D03*
X0115331Y0165400D03*
X0115331Y0158400D03*
X0115331Y0150900D03*
X0120831Y0148400D03*
X0115331Y0143400D03*
X0133831Y0155400D03*
X0153831Y0172900D03*
X0153831Y0177900D03*
X0153831Y0183400D03*
X0166331Y0183400D03*
X0166331Y0177400D03*
X0166331Y0172900D03*
X0166331Y0191900D03*
X0166331Y0197400D03*
X0166331Y0203900D03*
X0166331Y0209900D03*
X0153831Y0209900D03*
X0153831Y0203900D03*
X0153831Y0197900D03*
X0153831Y0191900D03*
X0147331Y0193900D03*
X0143331Y0193900D03*
X0143331Y0198400D03*
X0147331Y0198400D03*
X0135331Y0197900D03*
X0129831Y0197900D03*
X0129831Y0203900D03*
X0135331Y0203900D03*
X0135331Y0209400D03*
X0129831Y0209400D03*
X0075731Y0157400D03*
X0128131Y0114700D03*
X0082331Y0087400D03*
X0083331Y0082900D03*
X0083331Y0078400D03*
X0078331Y0075400D03*
X0074831Y0075400D03*
X0083331Y0074400D03*
X0072831Y0064400D03*
X0062831Y0066900D03*
X0056831Y0066900D03*
X0050831Y0066900D03*
X0045331Y0073400D03*
X0050831Y0078400D03*
X0045331Y0080900D03*
X0045331Y0088400D03*
X0045331Y0095400D03*
X0045331Y0100900D03*
X0049831Y0100900D03*
X0054331Y0100900D03*
X0058331Y0100900D03*
X0068831Y0095400D03*
X0063831Y0085400D03*
X0202031Y0114700D03*
X0227831Y0134400D03*
X0217831Y0136900D03*
X0211831Y0136900D03*
X0205831Y0136900D03*
X0200331Y0136900D03*
X0200331Y0143400D03*
X0205831Y0148400D03*
X0200331Y0150900D03*
X0200331Y0158400D03*
X0200331Y0165400D03*
X0200331Y0170900D03*
X0204831Y0170900D03*
X0209331Y0170900D03*
X0213331Y0170900D03*
X0223831Y0165400D03*
X0218831Y0155400D03*
X0229831Y0145400D03*
X0233331Y0145400D03*
X0238331Y0144400D03*
X0238331Y0148400D03*
X0238331Y0152900D03*
X0237331Y0157400D03*
X0238831Y0172900D03*
X0238831Y0177900D03*
X0238831Y0183400D03*
X0238831Y0191900D03*
X0232331Y0193900D03*
X0228331Y0193900D03*
X0228331Y0198400D03*
X0232331Y0198400D03*
X0238831Y0197900D03*
X0238831Y0203900D03*
X0238831Y0209900D03*
X0251331Y0209900D03*
X0251331Y0203900D03*
X0251331Y0197400D03*
X0251331Y0191900D03*
X0251331Y0183400D03*
X0251331Y0177400D03*
X0251331Y0172900D03*
X0220331Y0197900D03*
X0214831Y0197900D03*
X0214831Y0203900D03*
X0220331Y0203900D03*
X0220331Y0209400D03*
X0214831Y0209400D03*
D28*
X0223231Y0204900D02*
X0223231Y0190837D01*
X0222520Y0190837D01*
X0222520Y0188148D01*
X0222142Y0188148D01*
X0222142Y0190837D01*
X0220362Y0190837D01*
X0219980Y0190735D01*
X0219638Y0190537D01*
X0219359Y0190258D01*
X0219331Y0190209D01*
X0219303Y0190258D01*
X0219023Y0190537D01*
X0218681Y0190735D01*
X0218300Y0190837D01*
X0216520Y0190837D01*
X0216520Y0188148D01*
X0222142Y0188148D01*
X0222142Y0187770D01*
X0219602Y0187770D01*
X0216520Y0187770D01*
X0216520Y0188148D01*
X0216142Y0188148D01*
X0216142Y0190837D01*
X0214362Y0190837D01*
X0213980Y0190735D01*
X0213638Y0190537D01*
X0213359Y0190258D01*
X0213161Y0189916D01*
X0213059Y0189534D01*
X0213059Y0188148D01*
X0216142Y0188148D01*
X0216142Y0187770D01*
X0213059Y0187770D01*
X0213059Y0186384D01*
X0213161Y0186002D01*
X0213359Y0185660D01*
X0213619Y0185400D01*
X0213059Y0184840D01*
X0213059Y0180842D01*
X0213938Y0179963D01*
X0216522Y0179963D01*
X0220009Y0176475D01*
X0220009Y0173200D01*
X0219819Y0173010D01*
X0219819Y0170443D01*
X0217253Y0170443D01*
X0216374Y0169565D01*
X0216374Y0167800D01*
X0194931Y0167800D01*
X0194931Y0195400D01*
X0175131Y0195400D01*
X0175131Y0214800D01*
X0109931Y0214800D01*
X0109931Y0144800D01*
X0028381Y0144800D01*
X0028381Y0240866D01*
X0029644Y0238678D01*
X0032195Y0236126D01*
X0035320Y0234322D01*
X0038806Y0233388D01*
X0042414Y0233388D01*
X0045900Y0234322D01*
X0049025Y0236126D01*
X0051577Y0238678D01*
X0053381Y0241803D01*
X0054315Y0245289D01*
X0054315Y0248897D01*
X0053381Y0252383D01*
X0051577Y0255508D01*
X0049025Y0258059D01*
X0046790Y0259350D01*
X0262777Y0259350D01*
X0260542Y0258059D01*
X0257990Y0255508D01*
X0256186Y0252383D01*
X0255252Y0248897D01*
X0255252Y0245289D01*
X0256186Y0241803D01*
X0257990Y0238678D01*
X0260542Y0236126D01*
X0263667Y0234322D01*
X0267152Y0233388D01*
X0270761Y0233388D01*
X0274247Y0234322D01*
X0277372Y0236126D01*
X0279923Y0238678D01*
X0281181Y0240856D01*
X0281181Y0197300D01*
X0236431Y0197300D01*
X0236431Y0204900D01*
X0235018Y0204900D01*
X0234618Y0205300D01*
X0225544Y0205300D01*
X0225144Y0204900D01*
X0223231Y0204900D01*
X0223231Y0204754D02*
X0175131Y0204754D01*
X0175131Y0203756D02*
X0223231Y0203756D01*
X0223231Y0202757D02*
X0175131Y0202757D01*
X0175131Y0201759D02*
X0223231Y0201759D01*
X0223231Y0200760D02*
X0175131Y0200760D01*
X0175131Y0199762D02*
X0223231Y0199762D01*
X0223231Y0198763D02*
X0175131Y0198763D01*
X0175131Y0197765D02*
X0223231Y0197765D01*
X0223231Y0196766D02*
X0175131Y0196766D01*
X0175131Y0195768D02*
X0223231Y0195768D01*
X0223231Y0194769D02*
X0194931Y0194769D01*
X0194931Y0193771D02*
X0223231Y0193771D01*
X0223231Y0192772D02*
X0194931Y0192772D01*
X0194931Y0191774D02*
X0223231Y0191774D01*
X0222520Y0190775D02*
X0222142Y0190775D01*
X0222142Y0189777D02*
X0222520Y0189777D01*
X0222520Y0188778D02*
X0222142Y0188778D01*
X0222142Y0187780D02*
X0216520Y0187780D01*
X0216142Y0187780D02*
X0194931Y0187780D01*
X0194931Y0188778D02*
X0213059Y0188778D01*
X0213124Y0189777D02*
X0194931Y0189777D01*
X0194931Y0190775D02*
X0214131Y0190775D01*
X0216142Y0190775D02*
X0216520Y0190775D01*
X0216520Y0189777D02*
X0216142Y0189777D01*
X0216142Y0188778D02*
X0216520Y0188778D01*
X0218530Y0190775D02*
X0220131Y0190775D01*
X0213059Y0186781D02*
X0194931Y0186781D01*
X0194931Y0185783D02*
X0213288Y0185783D01*
X0213059Y0184784D02*
X0194931Y0184784D01*
X0194931Y0183786D02*
X0213059Y0183786D01*
X0213059Y0182787D02*
X0194931Y0182787D01*
X0194931Y0181789D02*
X0213059Y0181789D01*
X0213111Y0180790D02*
X0194931Y0180790D01*
X0194931Y0179792D02*
X0216693Y0179792D01*
X0217692Y0178793D02*
X0194931Y0178793D01*
X0194931Y0177795D02*
X0218690Y0177795D01*
X0219689Y0176796D02*
X0194931Y0176796D01*
X0194931Y0175798D02*
X0220009Y0175798D01*
X0220009Y0174799D02*
X0194931Y0174799D01*
X0194931Y0173801D02*
X0220009Y0173801D01*
X0219819Y0172802D02*
X0194931Y0172802D01*
X0194931Y0171803D02*
X0219819Y0171803D01*
X0219819Y0170805D02*
X0194931Y0170805D01*
X0194931Y0169806D02*
X0216616Y0169806D01*
X0216374Y0168808D02*
X0194931Y0168808D01*
X0194931Y0167809D02*
X0216374Y0167809D01*
X0216431Y0166600D02*
X0216431Y0166384D01*
X0219350Y0166384D01*
X0227815Y0179443D02*
X0228484Y0179443D01*
X0228484Y0187400D01*
X0236431Y0197765D02*
X0281181Y0197765D01*
X0281181Y0198763D02*
X0236431Y0198763D01*
X0236431Y0199762D02*
X0281181Y0199762D01*
X0281181Y0200760D02*
X0236431Y0200760D01*
X0236431Y0201759D02*
X0281181Y0201759D01*
X0281181Y0202757D02*
X0236431Y0202757D01*
X0236431Y0203756D02*
X0281181Y0203756D01*
X0281181Y0204754D02*
X0236431Y0204754D01*
X0265947Y0233711D02*
X0043620Y0233711D01*
X0046571Y0234710D02*
X0262996Y0234710D01*
X0261266Y0235708D02*
X0048301Y0235708D01*
X0049605Y0236707D02*
X0259961Y0236707D01*
X0258963Y0237705D02*
X0252256Y0237705D01*
X0252616Y0237854D02*
X0254022Y0239261D01*
X0254783Y0241098D01*
X0254783Y0243087D01*
X0254022Y0244925D01*
X0252616Y0246332D01*
X0250778Y0247093D01*
X0252616Y0247854D01*
X0254022Y0249261D01*
X0254783Y0251098D01*
X0254783Y0253087D01*
X0254022Y0254925D01*
X0252616Y0256332D01*
X0250778Y0257093D01*
X0248789Y0257093D01*
X0246951Y0256332D01*
X0245545Y0254925D01*
X0244783Y0253087D01*
X0244022Y0254925D01*
X0242616Y0256332D01*
X0240778Y0257093D01*
X0238789Y0257093D01*
X0236951Y0256332D01*
X0235545Y0254925D01*
X0234783Y0253087D01*
X0234022Y0254925D01*
X0232616Y0256332D01*
X0230778Y0257093D01*
X0228789Y0257093D01*
X0226951Y0256332D01*
X0225545Y0254925D01*
X0224783Y0253087D01*
X0224022Y0254925D01*
X0222616Y0256332D01*
X0220778Y0257093D01*
X0218789Y0257093D01*
X0216951Y0256332D01*
X0215545Y0254925D01*
X0214783Y0253087D01*
X0214022Y0254925D01*
X0212616Y0256332D01*
X0210778Y0257093D01*
X0208789Y0257093D01*
X0206951Y0256332D01*
X0205545Y0254925D01*
X0204783Y0253087D01*
X0204022Y0254925D01*
X0202616Y0256332D01*
X0200778Y0257093D01*
X0198789Y0257093D01*
X0196951Y0256332D01*
X0195545Y0254925D01*
X0194783Y0253087D01*
X0194022Y0254925D01*
X0192616Y0256332D01*
X0190778Y0257093D01*
X0188789Y0257093D01*
X0186951Y0256332D01*
X0185545Y0254925D01*
X0184783Y0253087D01*
X0184022Y0254925D01*
X0182616Y0256332D01*
X0180778Y0257093D01*
X0178789Y0257093D01*
X0176951Y0256332D01*
X0175545Y0254925D01*
X0174783Y0253087D01*
X0174022Y0254925D01*
X0172616Y0256332D01*
X0170778Y0257093D01*
X0168789Y0257093D01*
X0166951Y0256332D01*
X0165545Y0254925D01*
X0164783Y0253087D01*
X0164022Y0254925D01*
X0162616Y0256332D01*
X0160778Y0257093D01*
X0158789Y0257093D01*
X0156951Y0256332D01*
X0155545Y0254925D01*
X0154783Y0253087D01*
X0154022Y0254925D01*
X0152616Y0256332D01*
X0150778Y0257093D01*
X0148789Y0257093D01*
X0146951Y0256332D01*
X0145545Y0254925D01*
X0144783Y0253087D01*
X0144022Y0254925D01*
X0142616Y0256332D01*
X0140778Y0257093D01*
X0138789Y0257093D01*
X0136951Y0256332D01*
X0135545Y0254925D01*
X0134783Y0253087D01*
X0134022Y0254925D01*
X0132616Y0256332D01*
X0130778Y0257093D01*
X0128789Y0257093D01*
X0126951Y0256332D01*
X0125545Y0254925D01*
X0124783Y0253087D01*
X0124022Y0254925D01*
X0122616Y0256332D01*
X0120778Y0257093D01*
X0118789Y0257093D01*
X0116951Y0256332D01*
X0115545Y0254925D01*
X0114783Y0253087D01*
X0114022Y0254925D01*
X0112616Y0256332D01*
X0110778Y0257093D01*
X0108789Y0257093D01*
X0106951Y0256332D01*
X0105545Y0254925D01*
X0104783Y0253087D01*
X0104022Y0254925D01*
X0102616Y0256332D01*
X0100778Y0257093D01*
X0098789Y0257093D01*
X0096951Y0256332D01*
X0095545Y0254925D01*
X0094783Y0253087D01*
X0094022Y0254925D01*
X0092616Y0256332D01*
X0090778Y0257093D01*
X0088789Y0257093D01*
X0086951Y0256332D01*
X0085545Y0254925D01*
X0084783Y0253087D01*
X0084022Y0254925D01*
X0082616Y0256332D01*
X0080778Y0257093D01*
X0078789Y0257093D01*
X0076951Y0256332D01*
X0075545Y0254925D01*
X0074783Y0253087D01*
X0074022Y0254925D01*
X0072616Y0256332D01*
X0070778Y0257093D01*
X0068789Y0257093D01*
X0066951Y0256332D01*
X0065545Y0254925D01*
X0064783Y0253087D01*
X0064022Y0254925D01*
X0062616Y0256332D01*
X0060778Y0257093D01*
X0058789Y0257093D01*
X0056951Y0256332D01*
X0055545Y0254925D01*
X0054783Y0253087D01*
X0054783Y0251098D01*
X0055545Y0249261D01*
X0056951Y0247854D01*
X0058789Y0247093D01*
X0060778Y0247093D01*
X0062616Y0247854D01*
X0064022Y0249261D01*
X0064783Y0251098D01*
X0064783Y0253087D01*
X0064783Y0251098D01*
X0065545Y0249261D01*
X0066951Y0247854D01*
X0068789Y0247093D01*
X0070778Y0247093D01*
X0072616Y0247854D01*
X0074022Y0249261D01*
X0074783Y0251098D01*
X0074783Y0253087D01*
X0074783Y0251098D01*
X0075545Y0249261D01*
X0076951Y0247854D01*
X0078789Y0247093D01*
X0080778Y0247093D01*
X0082616Y0247854D01*
X0084022Y0249261D01*
X0084783Y0251098D01*
X0084783Y0253087D01*
X0084783Y0251098D01*
X0085545Y0249261D01*
X0086951Y0247854D01*
X0088789Y0247093D01*
X0090778Y0247093D01*
X0092616Y0247854D01*
X0094022Y0249261D01*
X0094783Y0251098D01*
X0094783Y0253087D01*
X0094783Y0251098D01*
X0095545Y0249261D01*
X0096951Y0247854D01*
X0098789Y0247093D01*
X0100778Y0247093D01*
X0102616Y0247854D01*
X0104022Y0249261D01*
X0104783Y0251098D01*
X0104783Y0253087D01*
X0104783Y0251098D01*
X0105545Y0249261D01*
X0106951Y0247854D01*
X0108789Y0247093D01*
X0110778Y0247093D01*
X0112616Y0247854D01*
X0114022Y0249261D01*
X0114783Y0251098D01*
X0114783Y0253087D01*
X0114783Y0251098D01*
X0115545Y0249261D01*
X0116951Y0247854D01*
X0118789Y0247093D01*
X0120778Y0247093D01*
X0122616Y0247854D01*
X0124022Y0249261D01*
X0124783Y0251098D01*
X0124783Y0253087D01*
X0124783Y0251098D01*
X0125545Y0249261D01*
X0126951Y0247854D01*
X0128789Y0247093D01*
X0130778Y0247093D01*
X0132616Y0247854D01*
X0134022Y0249261D01*
X0134783Y0251098D01*
X0134783Y0253087D01*
X0134783Y0251098D01*
X0135545Y0249261D01*
X0136951Y0247854D01*
X0138789Y0247093D01*
X0140778Y0247093D01*
X0142616Y0247854D01*
X0144022Y0249261D01*
X0144783Y0251098D01*
X0144783Y0253087D01*
X0144783Y0251098D01*
X0145545Y0249261D01*
X0146951Y0247854D01*
X0148789Y0247093D01*
X0150778Y0247093D01*
X0152616Y0247854D01*
X0154022Y0249261D01*
X0154783Y0251098D01*
X0154783Y0253087D01*
X0154783Y0251098D01*
X0155545Y0249261D01*
X0156951Y0247854D01*
X0158789Y0247093D01*
X0160778Y0247093D01*
X0162616Y0247854D01*
X0164022Y0249261D01*
X0164783Y0251098D01*
X0164783Y0253087D01*
X0164783Y0251098D01*
X0165545Y0249261D01*
X0166951Y0247854D01*
X0168789Y0247093D01*
X0170778Y0247093D01*
X0172616Y0247854D01*
X0174022Y0249261D01*
X0174783Y0251098D01*
X0174783Y0253087D01*
X0174783Y0251098D01*
X0175545Y0249261D01*
X0176951Y0247854D01*
X0178789Y0247093D01*
X0180778Y0247093D01*
X0182616Y0247854D01*
X0184022Y0249261D01*
X0184783Y0251098D01*
X0184783Y0253087D01*
X0184783Y0251098D01*
X0185545Y0249261D01*
X0186951Y0247854D01*
X0188789Y0247093D01*
X0190778Y0247093D01*
X0192616Y0247854D01*
X0194022Y0249261D01*
X0194783Y0251098D01*
X0194783Y0253087D01*
X0194783Y0251098D01*
X0195545Y0249261D01*
X0196951Y0247854D01*
X0198789Y0247093D01*
X0200778Y0247093D01*
X0202616Y0247854D01*
X0204022Y0249261D01*
X0204783Y0251098D01*
X0204783Y0253087D01*
X0204783Y0251098D01*
X0205545Y0249261D01*
X0206951Y0247854D01*
X0208789Y0247093D01*
X0210778Y0247093D01*
X0212616Y0247854D01*
X0214022Y0249261D01*
X0214783Y0251098D01*
X0214783Y0253087D01*
X0214783Y0251098D01*
X0215545Y0249261D01*
X0216951Y0247854D01*
X0218789Y0247093D01*
X0220778Y0247093D01*
X0222616Y0247854D01*
X0224022Y0249261D01*
X0224783Y0251098D01*
X0224783Y0253087D01*
X0224783Y0251098D01*
X0225545Y0249261D01*
X0226951Y0247854D01*
X0228789Y0247093D01*
X0230778Y0247093D01*
X0232616Y0247854D01*
X0234022Y0249261D01*
X0234783Y0251098D01*
X0234783Y0253087D01*
X0234783Y0251098D01*
X0235545Y0249261D01*
X0236951Y0247854D01*
X0238789Y0247093D01*
X0240778Y0247093D01*
X0242616Y0247854D01*
X0244022Y0249261D01*
X0244783Y0251098D01*
X0244783Y0253087D01*
X0244783Y0251098D01*
X0245545Y0249261D01*
X0246951Y0247854D01*
X0248789Y0247093D01*
X0250778Y0247093D01*
X0248789Y0247093D01*
X0246951Y0246332D01*
X0245545Y0244925D01*
X0244783Y0243087D01*
X0244022Y0244925D01*
X0242616Y0246332D01*
X0240778Y0247093D01*
X0238789Y0247093D01*
X0236951Y0246332D01*
X0235545Y0244925D01*
X0234783Y0243087D01*
X0234022Y0244925D01*
X0232616Y0246332D01*
X0230778Y0247093D01*
X0228789Y0247093D01*
X0226951Y0246332D01*
X0225545Y0244925D01*
X0224783Y0243087D01*
X0224022Y0244925D01*
X0222616Y0246332D01*
X0220778Y0247093D01*
X0218789Y0247093D01*
X0216951Y0246332D01*
X0215545Y0244925D01*
X0214783Y0243087D01*
X0214022Y0244925D01*
X0212616Y0246332D01*
X0210778Y0247093D01*
X0208789Y0247093D01*
X0206951Y0246332D01*
X0205545Y0244925D01*
X0204783Y0243087D01*
X0204022Y0244925D01*
X0202616Y0246332D01*
X0200778Y0247093D01*
X0198789Y0247093D01*
X0196951Y0246332D01*
X0195545Y0244925D01*
X0194783Y0243087D01*
X0194022Y0244925D01*
X0192616Y0246332D01*
X0190778Y0247093D01*
X0188789Y0247093D01*
X0186951Y0246332D01*
X0185545Y0244925D01*
X0184783Y0243087D01*
X0184022Y0244925D01*
X0182616Y0246332D01*
X0180778Y0247093D01*
X0178789Y0247093D01*
X0176951Y0246332D01*
X0175545Y0244925D01*
X0174783Y0243087D01*
X0174022Y0244925D01*
X0172616Y0246332D01*
X0170778Y0247093D01*
X0168789Y0247093D01*
X0166951Y0246332D01*
X0165545Y0244925D01*
X0164783Y0243087D01*
X0164022Y0244925D01*
X0162616Y0246332D01*
X0160778Y0247093D01*
X0158789Y0247093D01*
X0156951Y0246332D01*
X0155545Y0244925D01*
X0154783Y0243087D01*
X0154022Y0244925D01*
X0152616Y0246332D01*
X0150778Y0247093D01*
X0148789Y0247093D01*
X0146951Y0246332D01*
X0145545Y0244925D01*
X0144783Y0243087D01*
X0144022Y0244925D01*
X0142616Y0246332D01*
X0140778Y0247093D01*
X0138789Y0247093D01*
X0136951Y0246332D01*
X0135545Y0244925D01*
X0134783Y0243087D01*
X0134022Y0244925D01*
X0132616Y0246332D01*
X0130778Y0247093D01*
X0128789Y0247093D01*
X0126951Y0246332D01*
X0125545Y0244925D01*
X0124783Y0243087D01*
X0124022Y0244925D01*
X0122616Y0246332D01*
X0120778Y0247093D01*
X0118789Y0247093D01*
X0116951Y0246332D01*
X0115545Y0244925D01*
X0114783Y0243087D01*
X0114022Y0244925D01*
X0112616Y0246332D01*
X0110778Y0247093D01*
X0108789Y0247093D01*
X0106951Y0246332D01*
X0105545Y0244925D01*
X0104783Y0243087D01*
X0104022Y0244925D01*
X0102616Y0246332D01*
X0100778Y0247093D01*
X0098789Y0247093D01*
X0096951Y0246332D01*
X0095545Y0244925D01*
X0094783Y0243087D01*
X0094022Y0244925D01*
X0092616Y0246332D01*
X0090778Y0247093D01*
X0088789Y0247093D01*
X0086951Y0246332D01*
X0085545Y0244925D01*
X0084783Y0243087D01*
X0084022Y0244925D01*
X0082616Y0246332D01*
X0080778Y0247093D01*
X0078789Y0247093D01*
X0076951Y0246332D01*
X0075545Y0244925D01*
X0074783Y0243087D01*
X0074022Y0244925D01*
X0072616Y0246332D01*
X0070778Y0247093D01*
X0068789Y0247093D01*
X0066951Y0246332D01*
X0065545Y0244925D01*
X0064783Y0243087D01*
X0064783Y0241098D01*
X0065545Y0239261D01*
X0066951Y0237854D01*
X0068789Y0237093D01*
X0070778Y0237093D01*
X0072616Y0237854D01*
X0074022Y0239261D01*
X0074783Y0241098D01*
X0074783Y0243087D01*
X0074783Y0241098D01*
X0075545Y0239261D01*
X0076951Y0237854D01*
X0078789Y0237093D01*
X0080778Y0237093D01*
X0082616Y0237854D01*
X0084022Y0239261D01*
X0084783Y0241098D01*
X0084783Y0243087D01*
X0084783Y0241098D01*
X0085545Y0239261D01*
X0086951Y0237854D01*
X0088789Y0237093D01*
X0090778Y0237093D01*
X0092616Y0237854D01*
X0094022Y0239261D01*
X0094783Y0241098D01*
X0094783Y0243087D01*
X0094783Y0241098D01*
X0095545Y0239261D01*
X0096951Y0237854D01*
X0098789Y0237093D01*
X0100778Y0237093D01*
X0102616Y0237854D01*
X0104022Y0239261D01*
X0104783Y0241098D01*
X0104783Y0243087D01*
X0104783Y0241098D01*
X0105545Y0239261D01*
X0106951Y0237854D01*
X0108789Y0237093D01*
X0110778Y0237093D01*
X0112616Y0237854D01*
X0114022Y0239261D01*
X0114783Y0241098D01*
X0114783Y0243087D01*
X0114783Y0241098D01*
X0115545Y0239261D01*
X0116951Y0237854D01*
X0118789Y0237093D01*
X0120778Y0237093D01*
X0122616Y0237854D01*
X0124022Y0239261D01*
X0124783Y0241098D01*
X0124783Y0243087D01*
X0124783Y0241098D01*
X0125545Y0239261D01*
X0126951Y0237854D01*
X0128789Y0237093D01*
X0130778Y0237093D01*
X0132616Y0237854D01*
X0134022Y0239261D01*
X0134783Y0241098D01*
X0134783Y0243087D01*
X0134783Y0241098D01*
X0135545Y0239261D01*
X0136951Y0237854D01*
X0138789Y0237093D01*
X0140778Y0237093D01*
X0142616Y0237854D01*
X0144022Y0239261D01*
X0144783Y0241098D01*
X0144783Y0243087D01*
X0144783Y0241098D01*
X0145545Y0239261D01*
X0146951Y0237854D01*
X0148789Y0237093D01*
X0150778Y0237093D01*
X0152616Y0237854D01*
X0154022Y0239261D01*
X0154783Y0241098D01*
X0154783Y0243087D01*
X0154783Y0241098D01*
X0155545Y0239261D01*
X0156951Y0237854D01*
X0158789Y0237093D01*
X0160778Y0237093D01*
X0162616Y0237854D01*
X0164022Y0239261D01*
X0164783Y0241098D01*
X0164783Y0243087D01*
X0164783Y0241098D01*
X0165545Y0239261D01*
X0166951Y0237854D01*
X0168789Y0237093D01*
X0170778Y0237093D01*
X0172616Y0237854D01*
X0174022Y0239261D01*
X0174783Y0241098D01*
X0174783Y0243087D01*
X0174783Y0241098D01*
X0175545Y0239261D01*
X0176951Y0237854D01*
X0178789Y0237093D01*
X0180778Y0237093D01*
X0182616Y0237854D01*
X0184022Y0239261D01*
X0184783Y0241098D01*
X0184783Y0243087D01*
X0184783Y0241098D01*
X0185545Y0239261D01*
X0186951Y0237854D01*
X0188789Y0237093D01*
X0190778Y0237093D01*
X0192616Y0237854D01*
X0194022Y0239261D01*
X0194783Y0241098D01*
X0194783Y0243087D01*
X0194783Y0241098D01*
X0195545Y0239261D01*
X0196951Y0237854D01*
X0198789Y0237093D01*
X0200778Y0237093D01*
X0202616Y0237854D01*
X0204022Y0239261D01*
X0204783Y0241098D01*
X0204783Y0243087D01*
X0204783Y0241098D01*
X0205545Y0239261D01*
X0206951Y0237854D01*
X0208789Y0237093D01*
X0210778Y0237093D01*
X0212616Y0237854D01*
X0214022Y0239261D01*
X0214783Y0241098D01*
X0214783Y0243087D01*
X0214783Y0241098D01*
X0215545Y0239261D01*
X0216951Y0237854D01*
X0218789Y0237093D01*
X0220778Y0237093D01*
X0222616Y0237854D01*
X0224022Y0239261D01*
X0224783Y0241098D01*
X0224783Y0243087D01*
X0224783Y0241098D01*
X0225545Y0239261D01*
X0226951Y0237854D01*
X0228789Y0237093D01*
X0230778Y0237093D01*
X0232616Y0237854D01*
X0234022Y0239261D01*
X0234783Y0241098D01*
X0234783Y0243087D01*
X0234783Y0241098D01*
X0235545Y0239261D01*
X0236951Y0237854D01*
X0238789Y0237093D01*
X0240778Y0237093D01*
X0242616Y0237854D01*
X0244022Y0239261D01*
X0244783Y0241098D01*
X0244783Y0243087D01*
X0244783Y0241098D01*
X0245545Y0239261D01*
X0246951Y0237854D01*
X0248789Y0237093D01*
X0250778Y0237093D01*
X0252616Y0237854D01*
X0253465Y0238704D02*
X0257975Y0238704D01*
X0257399Y0239702D02*
X0254205Y0239702D01*
X0254619Y0240701D02*
X0256822Y0240701D01*
X0256246Y0241699D02*
X0254783Y0241699D01*
X0254783Y0242698D02*
X0255946Y0242698D01*
X0255679Y0243696D02*
X0254531Y0243696D01*
X0254118Y0244695D02*
X0255411Y0244695D01*
X0255252Y0245693D02*
X0253254Y0245693D01*
X0251746Y0246692D02*
X0255252Y0246692D01*
X0255252Y0247690D02*
X0252220Y0247690D01*
X0253450Y0248689D02*
X0255252Y0248689D01*
X0255464Y0249687D02*
X0254199Y0249687D01*
X0254613Y0250686D02*
X0255731Y0250686D01*
X0255999Y0251684D02*
X0254783Y0251684D01*
X0254783Y0252683D02*
X0256359Y0252683D01*
X0256936Y0253681D02*
X0254537Y0253681D01*
X0254124Y0254680D02*
X0257512Y0254680D01*
X0258161Y0255678D02*
X0253269Y0255678D01*
X0251782Y0256677D02*
X0259159Y0256677D01*
X0260158Y0257675D02*
X0049409Y0257675D01*
X0050408Y0256677D02*
X0057785Y0256677D01*
X0056298Y0255678D02*
X0051406Y0255678D01*
X0052055Y0254680D02*
X0055443Y0254680D01*
X0055029Y0253681D02*
X0052631Y0253681D01*
X0053208Y0252683D02*
X0054783Y0252683D01*
X0054783Y0251684D02*
X0053568Y0251684D01*
X0053836Y0250686D02*
X0054954Y0250686D01*
X0055368Y0249687D02*
X0054103Y0249687D01*
X0054315Y0248689D02*
X0056116Y0248689D01*
X0057347Y0247690D02*
X0054315Y0247690D01*
X0054315Y0246692D02*
X0055261Y0246692D01*
X0055662Y0247093D02*
X0054783Y0246214D01*
X0054783Y0237972D01*
X0055662Y0237093D01*
X0063905Y0237093D01*
X0064783Y0237972D01*
X0064783Y0246214D01*
X0063905Y0247093D01*
X0055662Y0247093D01*
X0054783Y0245693D02*
X0054315Y0245693D01*
X0054156Y0244695D02*
X0054783Y0244695D01*
X0054783Y0243696D02*
X0053888Y0243696D01*
X0053621Y0242698D02*
X0054783Y0242698D01*
X0054783Y0241699D02*
X0053321Y0241699D01*
X0052745Y0240701D02*
X0054783Y0240701D01*
X0054783Y0239702D02*
X0052168Y0239702D01*
X0051592Y0238704D02*
X0054783Y0238704D01*
X0055050Y0237705D02*
X0050604Y0237705D01*
X0037600Y0233711D02*
X0028381Y0233711D01*
X0028381Y0232713D02*
X0281181Y0232713D01*
X0281181Y0233711D02*
X0271966Y0233711D01*
X0274918Y0234710D02*
X0281181Y0234710D01*
X0281181Y0235708D02*
X0276647Y0235708D01*
X0277952Y0236707D02*
X0281181Y0236707D01*
X0281181Y0237705D02*
X0278950Y0237705D01*
X0279938Y0238704D02*
X0281181Y0238704D01*
X0281181Y0239702D02*
X0280515Y0239702D01*
X0281091Y0240701D02*
X0281181Y0240701D01*
X0281181Y0231714D02*
X0028381Y0231714D01*
X0028381Y0230716D02*
X0281181Y0230716D01*
X0281181Y0229717D02*
X0028381Y0229717D01*
X0028381Y0228719D02*
X0281181Y0228719D01*
X0281181Y0227720D02*
X0028381Y0227720D01*
X0028381Y0226722D02*
X0281181Y0226722D01*
X0281181Y0225723D02*
X0041312Y0225723D01*
X0040847Y0225916D02*
X0037744Y0225916D01*
X0034877Y0224728D01*
X0032683Y0222534D01*
X0031496Y0219668D01*
X0031496Y0216565D01*
X0032683Y0213699D01*
X0034877Y0211505D01*
X0037744Y0210317D01*
X0040847Y0210317D01*
X0043713Y0211505D01*
X0045907Y0213699D01*
X0047094Y0216565D01*
X0047094Y0219668D01*
X0045907Y0222534D01*
X0043713Y0224728D01*
X0040847Y0225916D01*
X0043717Y0224725D02*
X0281181Y0224725D01*
X0281181Y0223726D02*
X0044715Y0223726D01*
X0045714Y0222728D02*
X0281181Y0222728D01*
X0281181Y0221729D02*
X0046241Y0221729D01*
X0046654Y0220731D02*
X0281181Y0220731D01*
X0281181Y0219732D02*
X0047068Y0219732D01*
X0047094Y0218734D02*
X0281181Y0218734D01*
X0281181Y0217735D02*
X0047094Y0217735D01*
X0047094Y0216737D02*
X0281181Y0216737D01*
X0281181Y0215738D02*
X0046752Y0215738D01*
X0046338Y0214739D02*
X0109931Y0214739D01*
X0109931Y0213741D02*
X0045925Y0213741D01*
X0044951Y0212742D02*
X0109931Y0212742D01*
X0109931Y0211744D02*
X0043952Y0211744D01*
X0041880Y0210745D02*
X0109931Y0210745D01*
X0109931Y0209747D02*
X0028381Y0209747D01*
X0028381Y0210745D02*
X0036710Y0210745D01*
X0034638Y0211744D02*
X0028381Y0211744D01*
X0028381Y0212742D02*
X0033640Y0212742D01*
X0032666Y0213741D02*
X0028381Y0213741D01*
X0028381Y0214739D02*
X0032252Y0214739D01*
X0031839Y0215738D02*
X0028381Y0215738D01*
X0028381Y0216737D02*
X0031496Y0216737D01*
X0031496Y0217735D02*
X0028381Y0217735D01*
X0028381Y0218734D02*
X0031496Y0218734D01*
X0031523Y0219732D02*
X0028381Y0219732D01*
X0028381Y0220731D02*
X0031936Y0220731D01*
X0032350Y0221729D02*
X0028381Y0221729D01*
X0028381Y0222728D02*
X0032877Y0222728D01*
X0033875Y0223726D02*
X0028381Y0223726D01*
X0028381Y0224725D02*
X0034874Y0224725D01*
X0037279Y0225723D02*
X0028381Y0225723D01*
X0028381Y0234710D02*
X0034649Y0234710D01*
X0032920Y0235708D02*
X0028381Y0235708D01*
X0028381Y0236707D02*
X0031615Y0236707D01*
X0030616Y0237705D02*
X0028381Y0237705D01*
X0028381Y0238704D02*
X0029629Y0238704D01*
X0029052Y0239702D02*
X0028381Y0239702D01*
X0028381Y0240701D02*
X0028476Y0240701D01*
X0047961Y0258674D02*
X0261606Y0258674D01*
X0247785Y0256677D02*
X0241782Y0256677D01*
X0243269Y0255678D02*
X0246298Y0255678D01*
X0245443Y0254680D02*
X0244124Y0254680D01*
X0244537Y0253681D02*
X0245029Y0253681D01*
X0244783Y0252683D02*
X0244783Y0252683D01*
X0244783Y0251684D02*
X0244783Y0251684D01*
X0244613Y0250686D02*
X0244954Y0250686D01*
X0245368Y0249687D02*
X0244199Y0249687D01*
X0243450Y0248689D02*
X0246116Y0248689D01*
X0247347Y0247690D02*
X0242220Y0247690D01*
X0241746Y0246692D02*
X0247821Y0246692D01*
X0246313Y0245693D02*
X0243254Y0245693D01*
X0244118Y0244695D02*
X0245449Y0244695D01*
X0245036Y0243696D02*
X0244531Y0243696D01*
X0244783Y0242698D02*
X0244783Y0242698D01*
X0244783Y0241699D02*
X0244783Y0241699D01*
X0244619Y0240701D02*
X0244948Y0240701D01*
X0245362Y0239702D02*
X0244205Y0239702D01*
X0243465Y0238704D02*
X0246102Y0238704D01*
X0247311Y0237705D02*
X0242256Y0237705D01*
X0237311Y0237705D02*
X0232256Y0237705D01*
X0233465Y0238704D02*
X0236102Y0238704D01*
X0235362Y0239702D02*
X0234205Y0239702D01*
X0234619Y0240701D02*
X0234948Y0240701D01*
X0234783Y0241699D02*
X0234783Y0241699D01*
X0234783Y0242698D02*
X0234783Y0242698D01*
X0234531Y0243696D02*
X0235036Y0243696D01*
X0235449Y0244695D02*
X0234118Y0244695D01*
X0233254Y0245693D02*
X0236313Y0245693D01*
X0237821Y0246692D02*
X0231746Y0246692D01*
X0232220Y0247690D02*
X0237347Y0247690D01*
X0236116Y0248689D02*
X0233450Y0248689D01*
X0234199Y0249687D02*
X0235368Y0249687D01*
X0234954Y0250686D02*
X0234613Y0250686D01*
X0234783Y0251684D02*
X0234783Y0251684D01*
X0234783Y0252683D02*
X0234783Y0252683D01*
X0234537Y0253681D02*
X0235029Y0253681D01*
X0235443Y0254680D02*
X0234124Y0254680D01*
X0233269Y0255678D02*
X0236298Y0255678D01*
X0237785Y0256677D02*
X0231782Y0256677D01*
X0227785Y0256677D02*
X0221782Y0256677D01*
X0223269Y0255678D02*
X0226298Y0255678D01*
X0225443Y0254680D02*
X0224124Y0254680D01*
X0224537Y0253681D02*
X0225029Y0253681D01*
X0224783Y0252683D02*
X0224783Y0252683D01*
X0224783Y0251684D02*
X0224783Y0251684D01*
X0224613Y0250686D02*
X0224954Y0250686D01*
X0225368Y0249687D02*
X0224199Y0249687D01*
X0223450Y0248689D02*
X0226116Y0248689D01*
X0227347Y0247690D02*
X0222220Y0247690D01*
X0221746Y0246692D02*
X0227821Y0246692D01*
X0226313Y0245693D02*
X0223254Y0245693D01*
X0224118Y0244695D02*
X0225449Y0244695D01*
X0225036Y0243696D02*
X0224531Y0243696D01*
X0224783Y0242698D02*
X0224783Y0242698D01*
X0224783Y0241699D02*
X0224783Y0241699D01*
X0224619Y0240701D02*
X0224948Y0240701D01*
X0225362Y0239702D02*
X0224205Y0239702D01*
X0223465Y0238704D02*
X0226102Y0238704D01*
X0227311Y0237705D02*
X0222256Y0237705D01*
X0217311Y0237705D02*
X0212256Y0237705D01*
X0213465Y0238704D02*
X0216102Y0238704D01*
X0215362Y0239702D02*
X0214205Y0239702D01*
X0214619Y0240701D02*
X0214948Y0240701D01*
X0214783Y0241699D02*
X0214783Y0241699D01*
X0214783Y0242698D02*
X0214783Y0242698D01*
X0214531Y0243696D02*
X0215036Y0243696D01*
X0215449Y0244695D02*
X0214118Y0244695D01*
X0213254Y0245693D02*
X0216313Y0245693D01*
X0217821Y0246692D02*
X0211746Y0246692D01*
X0212220Y0247690D02*
X0217347Y0247690D01*
X0216116Y0248689D02*
X0213450Y0248689D01*
X0214199Y0249687D02*
X0215368Y0249687D01*
X0214954Y0250686D02*
X0214613Y0250686D01*
X0214783Y0251684D02*
X0214783Y0251684D01*
X0214783Y0252683D02*
X0214783Y0252683D01*
X0214537Y0253681D02*
X0215029Y0253681D01*
X0215443Y0254680D02*
X0214124Y0254680D01*
X0213269Y0255678D02*
X0216298Y0255678D01*
X0217785Y0256677D02*
X0211782Y0256677D01*
X0207785Y0256677D02*
X0201782Y0256677D01*
X0203269Y0255678D02*
X0206298Y0255678D01*
X0205443Y0254680D02*
X0204124Y0254680D01*
X0204537Y0253681D02*
X0205029Y0253681D01*
X0204783Y0252683D02*
X0204783Y0252683D01*
X0204783Y0251684D02*
X0204783Y0251684D01*
X0204613Y0250686D02*
X0204954Y0250686D01*
X0205368Y0249687D02*
X0204199Y0249687D01*
X0203450Y0248689D02*
X0206116Y0248689D01*
X0207347Y0247690D02*
X0202220Y0247690D01*
X0201746Y0246692D02*
X0207821Y0246692D01*
X0206313Y0245693D02*
X0203254Y0245693D01*
X0204118Y0244695D02*
X0205449Y0244695D01*
X0205036Y0243696D02*
X0204531Y0243696D01*
X0204783Y0242698D02*
X0204783Y0242698D01*
X0204783Y0241699D02*
X0204783Y0241699D01*
X0204619Y0240701D02*
X0204948Y0240701D01*
X0205362Y0239702D02*
X0204205Y0239702D01*
X0203465Y0238704D02*
X0206102Y0238704D01*
X0207311Y0237705D02*
X0202256Y0237705D01*
X0197311Y0237705D02*
X0192256Y0237705D01*
X0193465Y0238704D02*
X0196102Y0238704D01*
X0195362Y0239702D02*
X0194205Y0239702D01*
X0194619Y0240701D02*
X0194948Y0240701D01*
X0194783Y0241699D02*
X0194783Y0241699D01*
X0194783Y0242698D02*
X0194783Y0242698D01*
X0194531Y0243696D02*
X0195036Y0243696D01*
X0195449Y0244695D02*
X0194118Y0244695D01*
X0193254Y0245693D02*
X0196313Y0245693D01*
X0197821Y0246692D02*
X0191746Y0246692D01*
X0192220Y0247690D02*
X0197347Y0247690D01*
X0196116Y0248689D02*
X0193450Y0248689D01*
X0194199Y0249687D02*
X0195368Y0249687D01*
X0194954Y0250686D02*
X0194613Y0250686D01*
X0194783Y0251684D02*
X0194783Y0251684D01*
X0194783Y0252683D02*
X0194783Y0252683D01*
X0194537Y0253681D02*
X0195029Y0253681D01*
X0195443Y0254680D02*
X0194124Y0254680D01*
X0193269Y0255678D02*
X0196298Y0255678D01*
X0197785Y0256677D02*
X0191782Y0256677D01*
X0187785Y0256677D02*
X0181782Y0256677D01*
X0183269Y0255678D02*
X0186298Y0255678D01*
X0185443Y0254680D02*
X0184124Y0254680D01*
X0184537Y0253681D02*
X0185029Y0253681D01*
X0184783Y0252683D02*
X0184783Y0252683D01*
X0184783Y0251684D02*
X0184783Y0251684D01*
X0184613Y0250686D02*
X0184954Y0250686D01*
X0185368Y0249687D02*
X0184199Y0249687D01*
X0183450Y0248689D02*
X0186116Y0248689D01*
X0187347Y0247690D02*
X0182220Y0247690D01*
X0181746Y0246692D02*
X0187821Y0246692D01*
X0186313Y0245693D02*
X0183254Y0245693D01*
X0184118Y0244695D02*
X0185449Y0244695D01*
X0185036Y0243696D02*
X0184531Y0243696D01*
X0184783Y0242698D02*
X0184783Y0242698D01*
X0184783Y0241699D02*
X0184783Y0241699D01*
X0184619Y0240701D02*
X0184948Y0240701D01*
X0185362Y0239702D02*
X0184205Y0239702D01*
X0183465Y0238704D02*
X0186102Y0238704D01*
X0187311Y0237705D02*
X0182256Y0237705D01*
X0177311Y0237705D02*
X0172256Y0237705D01*
X0173465Y0238704D02*
X0176102Y0238704D01*
X0175362Y0239702D02*
X0174205Y0239702D01*
X0174619Y0240701D02*
X0174948Y0240701D01*
X0174783Y0241699D02*
X0174783Y0241699D01*
X0174783Y0242698D02*
X0174783Y0242698D01*
X0174531Y0243696D02*
X0175036Y0243696D01*
X0175449Y0244695D02*
X0174118Y0244695D01*
X0173254Y0245693D02*
X0176313Y0245693D01*
X0177821Y0246692D02*
X0171746Y0246692D01*
X0172220Y0247690D02*
X0177347Y0247690D01*
X0176116Y0248689D02*
X0173450Y0248689D01*
X0174199Y0249687D02*
X0175368Y0249687D01*
X0174954Y0250686D02*
X0174613Y0250686D01*
X0174783Y0251684D02*
X0174783Y0251684D01*
X0174783Y0252683D02*
X0174783Y0252683D01*
X0174537Y0253681D02*
X0175029Y0253681D01*
X0175443Y0254680D02*
X0174124Y0254680D01*
X0173269Y0255678D02*
X0176298Y0255678D01*
X0177785Y0256677D02*
X0171782Y0256677D01*
X0167785Y0256677D02*
X0161782Y0256677D01*
X0163269Y0255678D02*
X0166298Y0255678D01*
X0165443Y0254680D02*
X0164124Y0254680D01*
X0164537Y0253681D02*
X0165029Y0253681D01*
X0164783Y0252683D02*
X0164783Y0252683D01*
X0164783Y0251684D02*
X0164783Y0251684D01*
X0164613Y0250686D02*
X0164954Y0250686D01*
X0165368Y0249687D02*
X0164199Y0249687D01*
X0163450Y0248689D02*
X0166116Y0248689D01*
X0167347Y0247690D02*
X0162220Y0247690D01*
X0161746Y0246692D02*
X0167821Y0246692D01*
X0166313Y0245693D02*
X0163254Y0245693D01*
X0164118Y0244695D02*
X0165449Y0244695D01*
X0165036Y0243696D02*
X0164531Y0243696D01*
X0164783Y0242698D02*
X0164783Y0242698D01*
X0164783Y0241699D02*
X0164783Y0241699D01*
X0164619Y0240701D02*
X0164948Y0240701D01*
X0165362Y0239702D02*
X0164205Y0239702D01*
X0163465Y0238704D02*
X0166102Y0238704D01*
X0167311Y0237705D02*
X0162256Y0237705D01*
X0157311Y0237705D02*
X0152256Y0237705D01*
X0153465Y0238704D02*
X0156102Y0238704D01*
X0155362Y0239702D02*
X0154205Y0239702D01*
X0154619Y0240701D02*
X0154948Y0240701D01*
X0154783Y0241699D02*
X0154783Y0241699D01*
X0154783Y0242698D02*
X0154783Y0242698D01*
X0154531Y0243696D02*
X0155036Y0243696D01*
X0155449Y0244695D02*
X0154118Y0244695D01*
X0153254Y0245693D02*
X0156313Y0245693D01*
X0157821Y0246692D02*
X0151746Y0246692D01*
X0152220Y0247690D02*
X0157347Y0247690D01*
X0156116Y0248689D02*
X0153450Y0248689D01*
X0154199Y0249687D02*
X0155368Y0249687D01*
X0154954Y0250686D02*
X0154613Y0250686D01*
X0154783Y0251684D02*
X0154783Y0251684D01*
X0154783Y0252683D02*
X0154783Y0252683D01*
X0154537Y0253681D02*
X0155029Y0253681D01*
X0155443Y0254680D02*
X0154124Y0254680D01*
X0153269Y0255678D02*
X0156298Y0255678D01*
X0157785Y0256677D02*
X0151782Y0256677D01*
X0147785Y0256677D02*
X0141782Y0256677D01*
X0143269Y0255678D02*
X0146298Y0255678D01*
X0145443Y0254680D02*
X0144124Y0254680D01*
X0144537Y0253681D02*
X0145029Y0253681D01*
X0144783Y0252683D02*
X0144783Y0252683D01*
X0144783Y0251684D02*
X0144783Y0251684D01*
X0144613Y0250686D02*
X0144954Y0250686D01*
X0145368Y0249687D02*
X0144199Y0249687D01*
X0143450Y0248689D02*
X0146116Y0248689D01*
X0147347Y0247690D02*
X0142220Y0247690D01*
X0141746Y0246692D02*
X0147821Y0246692D01*
X0146313Y0245693D02*
X0143254Y0245693D01*
X0144118Y0244695D02*
X0145449Y0244695D01*
X0145036Y0243696D02*
X0144531Y0243696D01*
X0144783Y0242698D02*
X0144783Y0242698D01*
X0144783Y0241699D02*
X0144783Y0241699D01*
X0144619Y0240701D02*
X0144948Y0240701D01*
X0145362Y0239702D02*
X0144205Y0239702D01*
X0143465Y0238704D02*
X0146102Y0238704D01*
X0147311Y0237705D02*
X0142256Y0237705D01*
X0137311Y0237705D02*
X0132256Y0237705D01*
X0133465Y0238704D02*
X0136102Y0238704D01*
X0135362Y0239702D02*
X0134205Y0239702D01*
X0134619Y0240701D02*
X0134948Y0240701D01*
X0134783Y0241699D02*
X0134783Y0241699D01*
X0134783Y0242698D02*
X0134783Y0242698D01*
X0134531Y0243696D02*
X0135036Y0243696D01*
X0135449Y0244695D02*
X0134118Y0244695D01*
X0133254Y0245693D02*
X0136313Y0245693D01*
X0137821Y0246692D02*
X0131746Y0246692D01*
X0132220Y0247690D02*
X0137347Y0247690D01*
X0136116Y0248689D02*
X0133450Y0248689D01*
X0134199Y0249687D02*
X0135368Y0249687D01*
X0134954Y0250686D02*
X0134613Y0250686D01*
X0134783Y0251684D02*
X0134783Y0251684D01*
X0134783Y0252683D02*
X0134783Y0252683D01*
X0134537Y0253681D02*
X0135029Y0253681D01*
X0135443Y0254680D02*
X0134124Y0254680D01*
X0133269Y0255678D02*
X0136298Y0255678D01*
X0137785Y0256677D02*
X0131782Y0256677D01*
X0127785Y0256677D02*
X0121782Y0256677D01*
X0123269Y0255678D02*
X0126298Y0255678D01*
X0125443Y0254680D02*
X0124124Y0254680D01*
X0124537Y0253681D02*
X0125029Y0253681D01*
X0124783Y0252683D02*
X0124783Y0252683D01*
X0124783Y0251684D02*
X0124783Y0251684D01*
X0124613Y0250686D02*
X0124954Y0250686D01*
X0125368Y0249687D02*
X0124199Y0249687D01*
X0123450Y0248689D02*
X0126116Y0248689D01*
X0127347Y0247690D02*
X0122220Y0247690D01*
X0121746Y0246692D02*
X0127821Y0246692D01*
X0126313Y0245693D02*
X0123254Y0245693D01*
X0124118Y0244695D02*
X0125449Y0244695D01*
X0125036Y0243696D02*
X0124531Y0243696D01*
X0124783Y0242698D02*
X0124783Y0242698D01*
X0124783Y0241699D02*
X0124783Y0241699D01*
X0124619Y0240701D02*
X0124948Y0240701D01*
X0125362Y0239702D02*
X0124205Y0239702D01*
X0123465Y0238704D02*
X0126102Y0238704D01*
X0127311Y0237705D02*
X0122256Y0237705D01*
X0117311Y0237705D02*
X0112256Y0237705D01*
X0113465Y0238704D02*
X0116102Y0238704D01*
X0115362Y0239702D02*
X0114205Y0239702D01*
X0114619Y0240701D02*
X0114948Y0240701D01*
X0114783Y0241699D02*
X0114783Y0241699D01*
X0114783Y0242698D02*
X0114783Y0242698D01*
X0114531Y0243696D02*
X0115036Y0243696D01*
X0115449Y0244695D02*
X0114118Y0244695D01*
X0113254Y0245693D02*
X0116313Y0245693D01*
X0117821Y0246692D02*
X0111746Y0246692D01*
X0112220Y0247690D02*
X0117347Y0247690D01*
X0116116Y0248689D02*
X0113450Y0248689D01*
X0114199Y0249687D02*
X0115368Y0249687D01*
X0114954Y0250686D02*
X0114613Y0250686D01*
X0114783Y0251684D02*
X0114783Y0251684D01*
X0114783Y0252683D02*
X0114783Y0252683D01*
X0114537Y0253681D02*
X0115029Y0253681D01*
X0115443Y0254680D02*
X0114124Y0254680D01*
X0113269Y0255678D02*
X0116298Y0255678D01*
X0117785Y0256677D02*
X0111782Y0256677D01*
X0107785Y0256677D02*
X0101782Y0256677D01*
X0103269Y0255678D02*
X0106298Y0255678D01*
X0105443Y0254680D02*
X0104124Y0254680D01*
X0104537Y0253681D02*
X0105029Y0253681D01*
X0104783Y0252683D02*
X0104783Y0252683D01*
X0104783Y0251684D02*
X0104783Y0251684D01*
X0104613Y0250686D02*
X0104954Y0250686D01*
X0105368Y0249687D02*
X0104199Y0249687D01*
X0103450Y0248689D02*
X0106116Y0248689D01*
X0107347Y0247690D02*
X0102220Y0247690D01*
X0101746Y0246692D02*
X0107821Y0246692D01*
X0106313Y0245693D02*
X0103254Y0245693D01*
X0104118Y0244695D02*
X0105449Y0244695D01*
X0105036Y0243696D02*
X0104531Y0243696D01*
X0104783Y0242698D02*
X0104783Y0242698D01*
X0104783Y0241699D02*
X0104783Y0241699D01*
X0104619Y0240701D02*
X0104948Y0240701D01*
X0105362Y0239702D02*
X0104205Y0239702D01*
X0103465Y0238704D02*
X0106102Y0238704D01*
X0107311Y0237705D02*
X0102256Y0237705D01*
X0097311Y0237705D02*
X0092256Y0237705D01*
X0093465Y0238704D02*
X0096102Y0238704D01*
X0095362Y0239702D02*
X0094205Y0239702D01*
X0094619Y0240701D02*
X0094948Y0240701D01*
X0094783Y0241699D02*
X0094783Y0241699D01*
X0094783Y0242698D02*
X0094783Y0242698D01*
X0094531Y0243696D02*
X0095036Y0243696D01*
X0095449Y0244695D02*
X0094118Y0244695D01*
X0093254Y0245693D02*
X0096313Y0245693D01*
X0097821Y0246692D02*
X0091746Y0246692D01*
X0092220Y0247690D02*
X0097347Y0247690D01*
X0096116Y0248689D02*
X0093450Y0248689D01*
X0094199Y0249687D02*
X0095368Y0249687D01*
X0094954Y0250686D02*
X0094613Y0250686D01*
X0094783Y0251684D02*
X0094783Y0251684D01*
X0094783Y0252683D02*
X0094783Y0252683D01*
X0094537Y0253681D02*
X0095029Y0253681D01*
X0095443Y0254680D02*
X0094124Y0254680D01*
X0093269Y0255678D02*
X0096298Y0255678D01*
X0097785Y0256677D02*
X0091782Y0256677D01*
X0087785Y0256677D02*
X0081782Y0256677D01*
X0083269Y0255678D02*
X0086298Y0255678D01*
X0085443Y0254680D02*
X0084124Y0254680D01*
X0084537Y0253681D02*
X0085029Y0253681D01*
X0084783Y0252683D02*
X0084783Y0252683D01*
X0084783Y0251684D02*
X0084783Y0251684D01*
X0084613Y0250686D02*
X0084954Y0250686D01*
X0085368Y0249687D02*
X0084199Y0249687D01*
X0083450Y0248689D02*
X0086116Y0248689D01*
X0087347Y0247690D02*
X0082220Y0247690D01*
X0081746Y0246692D02*
X0087821Y0246692D01*
X0086313Y0245693D02*
X0083254Y0245693D01*
X0084118Y0244695D02*
X0085449Y0244695D01*
X0085036Y0243696D02*
X0084531Y0243696D01*
X0084783Y0242698D02*
X0084783Y0242698D01*
X0084783Y0241699D02*
X0084783Y0241699D01*
X0084619Y0240701D02*
X0084948Y0240701D01*
X0085362Y0239702D02*
X0084205Y0239702D01*
X0083465Y0238704D02*
X0086102Y0238704D01*
X0087311Y0237705D02*
X0082256Y0237705D01*
X0077311Y0237705D02*
X0072256Y0237705D01*
X0073465Y0238704D02*
X0076102Y0238704D01*
X0075362Y0239702D02*
X0074205Y0239702D01*
X0074619Y0240701D02*
X0074948Y0240701D01*
X0074783Y0241699D02*
X0074783Y0241699D01*
X0074783Y0242698D02*
X0074783Y0242698D01*
X0074531Y0243696D02*
X0075036Y0243696D01*
X0075449Y0244695D02*
X0074118Y0244695D01*
X0073254Y0245693D02*
X0076313Y0245693D01*
X0077821Y0246692D02*
X0071746Y0246692D01*
X0072220Y0247690D02*
X0077347Y0247690D01*
X0076116Y0248689D02*
X0073450Y0248689D01*
X0074199Y0249687D02*
X0075368Y0249687D01*
X0074954Y0250686D02*
X0074613Y0250686D01*
X0074783Y0251684D02*
X0074783Y0251684D01*
X0074783Y0252683D02*
X0074783Y0252683D01*
X0074537Y0253681D02*
X0075029Y0253681D01*
X0075443Y0254680D02*
X0074124Y0254680D01*
X0073269Y0255678D02*
X0076298Y0255678D01*
X0077785Y0256677D02*
X0071782Y0256677D01*
X0067785Y0256677D02*
X0061782Y0256677D01*
X0063269Y0255678D02*
X0066298Y0255678D01*
X0065443Y0254680D02*
X0064124Y0254680D01*
X0064537Y0253681D02*
X0065029Y0253681D01*
X0064783Y0252683D02*
X0064783Y0252683D01*
X0064783Y0251684D02*
X0064783Y0251684D01*
X0064613Y0250686D02*
X0064954Y0250686D01*
X0065368Y0249687D02*
X0064199Y0249687D01*
X0063450Y0248689D02*
X0066116Y0248689D01*
X0067347Y0247690D02*
X0062220Y0247690D01*
X0064306Y0246692D02*
X0067821Y0246692D01*
X0066313Y0245693D02*
X0064783Y0245693D01*
X0064783Y0244695D02*
X0065449Y0244695D01*
X0065036Y0243696D02*
X0064783Y0243696D01*
X0064783Y0242698D02*
X0064783Y0242698D01*
X0064783Y0241699D02*
X0064783Y0241699D01*
X0064783Y0240701D02*
X0064948Y0240701D01*
X0064783Y0239702D02*
X0065362Y0239702D01*
X0064783Y0238704D02*
X0066102Y0238704D01*
X0067311Y0237705D02*
X0064517Y0237705D01*
X0028381Y0208748D02*
X0109931Y0208748D01*
X0109931Y0207750D02*
X0028381Y0207750D01*
X0028381Y0206751D02*
X0109931Y0206751D01*
X0109931Y0205753D02*
X0082520Y0205753D01*
X0082239Y0206034D02*
X0072729Y0206034D01*
X0071850Y0205155D01*
X0071850Y0195645D01*
X0072729Y0194766D01*
X0082239Y0194766D01*
X0083118Y0195645D01*
X0083118Y0205155D01*
X0082239Y0206034D01*
X0083118Y0204754D02*
X0109931Y0204754D01*
X0109931Y0203756D02*
X0083118Y0203756D01*
X0083118Y0202757D02*
X0109931Y0202757D01*
X0109931Y0201759D02*
X0083118Y0201759D01*
X0083118Y0200760D02*
X0109931Y0200760D01*
X0109931Y0199762D02*
X0083118Y0199762D01*
X0083118Y0198763D02*
X0109931Y0198763D01*
X0109931Y0197765D02*
X0083118Y0197765D01*
X0083118Y0196766D02*
X0109931Y0196766D01*
X0109931Y0195768D02*
X0083118Y0195768D01*
X0082243Y0194769D02*
X0109931Y0194769D01*
X0109931Y0193771D02*
X0028381Y0193771D01*
X0028381Y0194769D02*
X0051488Y0194769D01*
X0051499Y0194766D02*
X0055331Y0194766D01*
X0055331Y0199900D01*
X0056331Y0199900D01*
X0056331Y0200900D01*
X0061465Y0200900D01*
X0061465Y0204731D01*
X0061362Y0205113D01*
X0061165Y0205455D01*
X0060886Y0205734D01*
X0060544Y0205932D01*
X0060162Y0206034D01*
X0056331Y0206034D01*
X0056331Y0200900D01*
X0055331Y0200900D01*
X0055331Y0206034D01*
X0051499Y0206034D01*
X0051118Y0205932D01*
X0050776Y0205734D01*
X0050497Y0205455D01*
X0050299Y0205113D01*
X0050197Y0204731D01*
X0050197Y0200900D01*
X0055331Y0200900D01*
X0055331Y0199900D01*
X0050197Y0199900D01*
X0050197Y0196069D01*
X0050299Y0195687D01*
X0050497Y0195345D01*
X0050776Y0195066D01*
X0051118Y0194868D01*
X0051499Y0194766D01*
X0050277Y0195768D02*
X0028381Y0195768D01*
X0028381Y0196766D02*
X0050197Y0196766D01*
X0050197Y0197765D02*
X0028381Y0197765D01*
X0028381Y0198763D02*
X0050197Y0198763D01*
X0050197Y0199762D02*
X0028381Y0199762D01*
X0028381Y0200760D02*
X0055331Y0200760D01*
X0055331Y0199762D02*
X0056331Y0199762D01*
X0056331Y0199900D02*
X0056331Y0194766D01*
X0060162Y0194766D01*
X0060544Y0194868D01*
X0060886Y0195066D01*
X0061165Y0195345D01*
X0061362Y0195687D01*
X0061465Y0196069D01*
X0061465Y0199900D01*
X0056331Y0199900D01*
X0056331Y0200760D02*
X0071850Y0200760D01*
X0071850Y0199762D02*
X0061465Y0199762D01*
X0061465Y0198763D02*
X0071850Y0198763D01*
X0071850Y0197765D02*
X0061465Y0197765D01*
X0061465Y0196766D02*
X0071850Y0196766D01*
X0071850Y0195768D02*
X0061384Y0195768D01*
X0060174Y0194769D02*
X0072726Y0194769D01*
X0071850Y0201759D02*
X0061465Y0201759D01*
X0061465Y0202757D02*
X0071850Y0202757D01*
X0071850Y0203756D02*
X0061465Y0203756D01*
X0061458Y0204754D02*
X0071850Y0204754D01*
X0072448Y0205753D02*
X0060853Y0205753D01*
X0056331Y0205753D02*
X0055331Y0205753D01*
X0055331Y0204754D02*
X0056331Y0204754D01*
X0056331Y0203756D02*
X0055331Y0203756D01*
X0055331Y0202757D02*
X0056331Y0202757D01*
X0056331Y0201759D02*
X0055331Y0201759D01*
X0055331Y0198763D02*
X0056331Y0198763D01*
X0056331Y0197765D02*
X0055331Y0197765D01*
X0055331Y0196766D02*
X0056331Y0196766D01*
X0056331Y0195768D02*
X0055331Y0195768D01*
X0055331Y0194769D02*
X0056331Y0194769D01*
X0050197Y0201759D02*
X0028381Y0201759D01*
X0028381Y0202757D02*
X0050197Y0202757D01*
X0050197Y0203756D02*
X0028381Y0203756D01*
X0028381Y0204754D02*
X0050203Y0204754D01*
X0050808Y0205753D02*
X0028381Y0205753D01*
X0028381Y0192772D02*
X0109931Y0192772D01*
X0109931Y0191774D02*
X0028381Y0191774D01*
X0028381Y0190775D02*
X0109931Y0190775D01*
X0109931Y0189777D02*
X0042551Y0189777D01*
X0043713Y0189295D02*
X0040847Y0190483D01*
X0037744Y0190483D01*
X0034877Y0189295D01*
X0032683Y0187101D01*
X0031496Y0184235D01*
X0031496Y0181132D01*
X0032683Y0178266D01*
X0034877Y0176072D01*
X0037744Y0174884D01*
X0040847Y0174884D01*
X0043713Y0176072D01*
X0045907Y0178266D01*
X0047094Y0181132D01*
X0047094Y0184235D01*
X0045907Y0187101D01*
X0043713Y0189295D01*
X0044230Y0188778D02*
X0109931Y0188778D01*
X0109931Y0187780D02*
X0045229Y0187780D01*
X0046040Y0186781D02*
X0109931Y0186781D01*
X0109931Y0185783D02*
X0046453Y0185783D01*
X0046867Y0184784D02*
X0109931Y0184784D01*
X0109931Y0183786D02*
X0047094Y0183786D01*
X0047094Y0182787D02*
X0109931Y0182787D01*
X0109931Y0181789D02*
X0047094Y0181789D01*
X0046953Y0180790D02*
X0109931Y0180790D01*
X0109931Y0179792D02*
X0046539Y0179792D01*
X0046126Y0178793D02*
X0109931Y0178793D01*
X0109931Y0177795D02*
X0045436Y0177795D01*
X0044438Y0176796D02*
X0109931Y0176796D01*
X0109931Y0175798D02*
X0043052Y0175798D01*
X0035539Y0175798D02*
X0028381Y0175798D01*
X0028381Y0176796D02*
X0034153Y0176796D01*
X0033154Y0177795D02*
X0028381Y0177795D01*
X0028381Y0178793D02*
X0032465Y0178793D01*
X0032051Y0179792D02*
X0028381Y0179792D01*
X0028381Y0180790D02*
X0031638Y0180790D01*
X0031496Y0181789D02*
X0028381Y0181789D01*
X0028381Y0182787D02*
X0031496Y0182787D01*
X0031496Y0183786D02*
X0028381Y0183786D01*
X0028381Y0184784D02*
X0031724Y0184784D01*
X0032137Y0185783D02*
X0028381Y0185783D01*
X0028381Y0186781D02*
X0032551Y0186781D01*
X0033362Y0187780D02*
X0028381Y0187780D01*
X0028381Y0188778D02*
X0034360Y0188778D01*
X0036040Y0189777D02*
X0028381Y0189777D01*
X0028381Y0174799D02*
X0109931Y0174799D01*
X0109931Y0173801D02*
X0028381Y0173801D01*
X0028381Y0172802D02*
X0109931Y0172802D01*
X0109931Y0171803D02*
X0028381Y0171803D01*
X0028381Y0170805D02*
X0109931Y0170805D01*
X0109931Y0169806D02*
X0028381Y0169806D01*
X0028381Y0168808D02*
X0109931Y0168808D01*
X0109931Y0167809D02*
X0028381Y0167809D01*
X0028381Y0166811D02*
X0109931Y0166811D01*
X0109931Y0165812D02*
X0028381Y0165812D01*
X0028381Y0164814D02*
X0109931Y0164814D01*
X0109931Y0163815D02*
X0028381Y0163815D01*
X0028381Y0162817D02*
X0109931Y0162817D01*
X0109931Y0161818D02*
X0028381Y0161818D01*
X0028381Y0160820D02*
X0044621Y0160820D01*
X0044772Y0160972D02*
X0043894Y0160093D01*
X0043894Y0159600D01*
X0042458Y0159600D01*
X0042458Y0159796D01*
X0041580Y0160675D01*
X0037187Y0160675D01*
X0036383Y0159871D01*
X0036253Y0160096D01*
X0035974Y0160375D01*
X0035632Y0160573D01*
X0035250Y0160675D01*
X0033765Y0160675D01*
X0033765Y0157887D01*
X0033191Y0157887D01*
X0033191Y0160675D01*
X0031706Y0160675D01*
X0031324Y0160573D01*
X0030982Y0160375D01*
X0030703Y0160096D01*
X0030505Y0159754D01*
X0030403Y0159372D01*
X0030403Y0157887D01*
X0033190Y0157887D01*
X0033190Y0157313D01*
X0030403Y0157313D01*
X0030403Y0155828D01*
X0030505Y0155446D01*
X0030703Y0155104D01*
X0030982Y0154825D01*
X0031324Y0154627D01*
X0031706Y0154525D01*
X0033191Y0154525D01*
X0033191Y0157313D01*
X0033765Y0157313D01*
X0033765Y0154525D01*
X0035250Y0154525D01*
X0035632Y0154627D01*
X0035974Y0154825D01*
X0036253Y0155104D01*
X0036383Y0155329D01*
X0037187Y0154525D01*
X0041580Y0154525D01*
X0042458Y0155404D01*
X0042458Y0155600D01*
X0043894Y0155600D01*
X0043894Y0155307D01*
X0044772Y0154428D01*
X0048771Y0154428D01*
X0049331Y0154988D01*
X0049890Y0154428D01*
X0053889Y0154428D01*
X0054768Y0155307D01*
X0054768Y0155700D01*
X0073931Y0155700D01*
X0074329Y0155302D01*
X0075238Y0154925D01*
X0076223Y0154925D01*
X0077133Y0155302D01*
X0077829Y0155998D01*
X0078206Y0156908D01*
X0078206Y0157892D01*
X0077829Y0158802D01*
X0077133Y0159498D01*
X0076223Y0159875D01*
X0075238Y0159875D01*
X0074816Y0159700D01*
X0054768Y0159700D01*
X0054768Y0160093D01*
X0053889Y0160972D01*
X0049890Y0160972D01*
X0049331Y0160412D01*
X0048771Y0160972D01*
X0044772Y0160972D01*
X0043894Y0159821D02*
X0042433Y0159821D01*
X0039383Y0157600D02*
X0046772Y0157600D01*
X0046772Y0157700D01*
X0049171Y0154829D02*
X0049490Y0154829D01*
X0051890Y0157700D02*
X0075731Y0157700D01*
X0075731Y0157400D01*
X0077658Y0155827D02*
X0109931Y0155827D01*
X0109931Y0154829D02*
X0054289Y0154829D01*
X0054768Y0159821D02*
X0075109Y0159821D01*
X0076352Y0159821D02*
X0109931Y0159821D01*
X0109931Y0158823D02*
X0077808Y0158823D01*
X0078206Y0157824D02*
X0109931Y0157824D01*
X0109931Y0156826D02*
X0078172Y0156826D01*
X0054041Y0160820D02*
X0109931Y0160820D01*
X0109931Y0153830D02*
X0028381Y0153830D01*
X0028381Y0152832D02*
X0109931Y0152832D01*
X0109931Y0151833D02*
X0028381Y0151833D01*
X0028381Y0150835D02*
X0109931Y0150835D01*
X0109931Y0149836D02*
X0028381Y0149836D01*
X0028381Y0148838D02*
X0109931Y0148838D01*
X0109931Y0147839D02*
X0028381Y0147839D01*
X0028381Y0146841D02*
X0109931Y0146841D01*
X0109931Y0145842D02*
X0028381Y0145842D01*
X0028381Y0144844D02*
X0109931Y0144844D01*
X0131531Y0166384D02*
X0131531Y0166400D01*
X0131531Y0166384D02*
X0134350Y0166384D01*
X0143484Y0180400D02*
X0143484Y0187400D01*
X0143484Y0180400D02*
X0143772Y0180400D01*
X0175131Y0205753D02*
X0281181Y0205753D01*
X0281181Y0206751D02*
X0175131Y0206751D01*
X0175131Y0207750D02*
X0281181Y0207750D01*
X0281181Y0208748D02*
X0175131Y0208748D01*
X0175131Y0209747D02*
X0281181Y0209747D01*
X0281181Y0210745D02*
X0175131Y0210745D01*
X0175131Y0211744D02*
X0281181Y0211744D01*
X0281181Y0212742D02*
X0175131Y0212742D01*
X0175131Y0213741D02*
X0281181Y0213741D01*
X0281181Y0214739D02*
X0175131Y0214739D01*
X0260608Y0151833D02*
X0277827Y0151833D01*
X0277827Y0150835D02*
X0259765Y0150835D01*
X0259931Y0151000D02*
X0194731Y0085800D01*
X0194731Y0085672D01*
X0193559Y0084500D01*
X0190059Y0081000D01*
X0183528Y0074469D01*
X0183031Y0052600D01*
X0183031Y0036550D01*
X0270604Y0036550D01*
X0272277Y0036871D01*
X0275515Y0038243D01*
X0277735Y0040048D01*
X0277738Y0043579D01*
X0277372Y0043213D01*
X0274247Y0041409D01*
X0270761Y0040475D01*
X0267152Y0040475D01*
X0263667Y0041409D01*
X0260542Y0043213D01*
X0257990Y0045765D01*
X0256186Y0048890D01*
X0255252Y0052375D01*
X0255252Y0055984D01*
X0256186Y0059469D01*
X0257990Y0062594D01*
X0260542Y0065146D01*
X0263667Y0066950D01*
X0267152Y0067884D01*
X0270761Y0067884D01*
X0274247Y0066950D01*
X0277372Y0065146D01*
X0277755Y0064762D01*
X0277831Y0155800D01*
X0263831Y0155800D01*
X0259931Y0151000D01*
X0258767Y0149836D02*
X0277826Y0149836D01*
X0277825Y0148838D02*
X0257768Y0148838D01*
X0256770Y0147839D02*
X0277824Y0147839D01*
X0277823Y0146841D02*
X0255771Y0146841D01*
X0254773Y0145842D02*
X0277822Y0145842D01*
X0277822Y0144844D02*
X0253774Y0144844D01*
X0252776Y0143845D02*
X0277821Y0143845D01*
X0277820Y0142847D02*
X0251777Y0142847D01*
X0250779Y0141848D02*
X0277819Y0141848D01*
X0277818Y0140850D02*
X0249780Y0140850D01*
X0248782Y0139851D02*
X0277818Y0139851D01*
X0277817Y0138853D02*
X0247783Y0138853D01*
X0246785Y0137854D02*
X0277816Y0137854D01*
X0277815Y0136856D02*
X0245786Y0136856D01*
X0244788Y0135857D02*
X0277814Y0135857D01*
X0277813Y0134859D02*
X0243789Y0134859D01*
X0242791Y0133860D02*
X0277813Y0133860D01*
X0277812Y0132862D02*
X0241792Y0132862D01*
X0240794Y0131863D02*
X0277811Y0131863D01*
X0277810Y0130865D02*
X0239795Y0130865D01*
X0238797Y0129866D02*
X0277809Y0129866D01*
X0277808Y0128868D02*
X0237798Y0128868D01*
X0236800Y0127869D02*
X0277808Y0127869D01*
X0277807Y0126870D02*
X0235801Y0126870D01*
X0234803Y0125872D02*
X0277806Y0125872D01*
X0277805Y0124873D02*
X0233804Y0124873D01*
X0232806Y0123875D02*
X0277804Y0123875D01*
X0277803Y0122876D02*
X0231807Y0122876D01*
X0230809Y0121878D02*
X0277803Y0121878D01*
X0277802Y0120879D02*
X0229810Y0120879D01*
X0228812Y0119881D02*
X0277801Y0119881D01*
X0277800Y0118882D02*
X0227813Y0118882D01*
X0226815Y0117884D02*
X0277799Y0117884D01*
X0277798Y0116885D02*
X0225816Y0116885D01*
X0224818Y0115887D02*
X0277798Y0115887D01*
X0277797Y0114888D02*
X0223819Y0114888D01*
X0222821Y0113890D02*
X0277796Y0113890D01*
X0277795Y0112891D02*
X0221822Y0112891D01*
X0220824Y0111893D02*
X0277794Y0111893D01*
X0277794Y0110894D02*
X0219825Y0110894D01*
X0218827Y0109896D02*
X0277793Y0109896D01*
X0277792Y0108897D02*
X0217828Y0108897D01*
X0216829Y0107899D02*
X0277791Y0107899D01*
X0277790Y0106900D02*
X0215831Y0106900D01*
X0214832Y0105902D02*
X0277789Y0105902D01*
X0277789Y0104903D02*
X0213834Y0104903D01*
X0212835Y0103905D02*
X0277788Y0103905D01*
X0277787Y0102906D02*
X0211837Y0102906D01*
X0210838Y0101908D02*
X0277786Y0101908D01*
X0277785Y0100909D02*
X0209840Y0100909D01*
X0208841Y0099911D02*
X0277784Y0099911D01*
X0277784Y0098912D02*
X0207843Y0098912D01*
X0206844Y0097914D02*
X0277783Y0097914D01*
X0277782Y0096915D02*
X0205846Y0096915D01*
X0204847Y0095917D02*
X0277781Y0095917D01*
X0277780Y0094918D02*
X0203849Y0094918D01*
X0202850Y0093920D02*
X0277779Y0093920D01*
X0277779Y0092921D02*
X0201852Y0092921D01*
X0202131Y0093641D02*
X0203231Y0093641D01*
X0203231Y0092100D01*
X0203331Y0092100D01*
X0200853Y0091923D02*
X0277778Y0091923D01*
X0277777Y0090924D02*
X0199855Y0090924D01*
X0198856Y0089926D02*
X0277776Y0089926D01*
X0277775Y0088927D02*
X0197858Y0088927D01*
X0196859Y0087929D02*
X0277775Y0087929D01*
X0277774Y0086930D02*
X0195861Y0086930D01*
X0194862Y0085932D02*
X0277773Y0085932D01*
X0277772Y0084933D02*
X0193992Y0084933D01*
X0192994Y0083934D02*
X0277771Y0083934D01*
X0277770Y0082936D02*
X0191995Y0082936D01*
X0190997Y0081937D02*
X0277770Y0081937D01*
X0277769Y0080939D02*
X0189998Y0080939D01*
X0189000Y0079940D02*
X0277768Y0079940D01*
X0277767Y0078942D02*
X0188001Y0078942D01*
X0187003Y0077943D02*
X0277766Y0077943D01*
X0277765Y0076945D02*
X0186004Y0076945D01*
X0185006Y0075946D02*
X0277765Y0075946D01*
X0277764Y0074948D02*
X0184007Y0074948D01*
X0183516Y0073949D02*
X0277763Y0073949D01*
X0277762Y0072951D02*
X0183493Y0072951D01*
X0183471Y0071952D02*
X0277761Y0071952D01*
X0277760Y0070954D02*
X0183448Y0070954D01*
X0183425Y0069955D02*
X0277760Y0069955D01*
X0277759Y0068957D02*
X0183402Y0068957D01*
X0183380Y0067958D02*
X0277758Y0067958D01*
X0277757Y0066960D02*
X0274211Y0066960D01*
X0275959Y0065961D02*
X0277756Y0065961D01*
X0277756Y0064963D02*
X0277555Y0064963D01*
X0263702Y0066960D02*
X0183357Y0066960D01*
X0183334Y0065961D02*
X0261954Y0065961D01*
X0260359Y0064963D02*
X0183312Y0064963D01*
X0183289Y0063964D02*
X0259360Y0063964D01*
X0258362Y0062966D02*
X0183266Y0062966D01*
X0183244Y0061967D02*
X0196034Y0061967D01*
X0196082Y0062015D02*
X0194816Y0060749D01*
X0194131Y0059095D01*
X0194131Y0051305D01*
X0194816Y0049651D01*
X0196082Y0048385D01*
X0197736Y0047700D01*
X0199526Y0047700D01*
X0201180Y0048385D01*
X0202446Y0049651D01*
X0203131Y0051305D01*
X0203131Y0059095D01*
X0202446Y0060749D01*
X0201180Y0062015D01*
X0199526Y0062700D01*
X0197736Y0062700D01*
X0196082Y0062015D01*
X0195035Y0060969D02*
X0183221Y0060969D01*
X0183198Y0059970D02*
X0194493Y0059970D01*
X0194131Y0058972D02*
X0183176Y0058972D01*
X0183153Y0057973D02*
X0194131Y0057973D01*
X0194131Y0056975D02*
X0183130Y0056975D01*
X0183107Y0055976D02*
X0194131Y0055976D01*
X0194131Y0054978D02*
X0183085Y0054978D01*
X0183062Y0053979D02*
X0194131Y0053979D01*
X0194131Y0052981D02*
X0183039Y0052981D01*
X0183031Y0051982D02*
X0194131Y0051982D01*
X0194264Y0050984D02*
X0183031Y0050984D01*
X0183031Y0049985D02*
X0194677Y0049985D01*
X0195480Y0048987D02*
X0183031Y0048987D01*
X0183031Y0047988D02*
X0197040Y0047988D01*
X0200221Y0047988D02*
X0218499Y0047988D01*
X0217782Y0048285D02*
X0219436Y0047600D01*
X0221226Y0047600D01*
X0222880Y0048285D01*
X0224146Y0049551D01*
X0224831Y0051205D01*
X0224831Y0058995D01*
X0224146Y0060649D01*
X0222880Y0061915D01*
X0221226Y0062600D01*
X0219436Y0062600D01*
X0217782Y0061915D01*
X0216516Y0060649D01*
X0215831Y0058995D01*
X0215831Y0051205D01*
X0216516Y0049551D01*
X0217782Y0048285D01*
X0217080Y0048987D02*
X0201781Y0048987D01*
X0202584Y0049985D02*
X0216336Y0049985D01*
X0215922Y0050984D02*
X0202998Y0050984D01*
X0203131Y0051982D02*
X0215831Y0051982D01*
X0215831Y0052981D02*
X0203131Y0052981D01*
X0203131Y0053979D02*
X0215831Y0053979D01*
X0215831Y0054978D02*
X0203131Y0054978D01*
X0203131Y0055976D02*
X0215831Y0055976D01*
X0215831Y0056975D02*
X0203131Y0056975D01*
X0203131Y0057973D02*
X0215831Y0057973D01*
X0215831Y0058972D02*
X0203131Y0058972D01*
X0202768Y0059970D02*
X0216235Y0059970D01*
X0216835Y0060969D02*
X0202226Y0060969D01*
X0201227Y0061967D02*
X0217908Y0061967D01*
X0222753Y0061967D02*
X0239408Y0061967D01*
X0239282Y0061915D02*
X0238016Y0060649D01*
X0237331Y0058995D01*
X0237331Y0051205D01*
X0238016Y0049551D01*
X0239282Y0048285D01*
X0240936Y0047600D01*
X0242726Y0047600D01*
X0244380Y0048285D01*
X0245646Y0049551D01*
X0246331Y0051205D01*
X0246331Y0058995D01*
X0245646Y0060649D01*
X0244380Y0061915D01*
X0242726Y0062600D01*
X0240936Y0062600D01*
X0239282Y0061915D01*
X0238335Y0060969D02*
X0223826Y0060969D01*
X0224427Y0059970D02*
X0237735Y0059970D01*
X0237331Y0058972D02*
X0224831Y0058972D01*
X0224831Y0057973D02*
X0237331Y0057973D01*
X0237331Y0056975D02*
X0224831Y0056975D01*
X0224831Y0055976D02*
X0237331Y0055976D01*
X0237331Y0054978D02*
X0224831Y0054978D01*
X0224831Y0053979D02*
X0237331Y0053979D01*
X0237331Y0052981D02*
X0224831Y0052981D01*
X0224831Y0051982D02*
X0237331Y0051982D01*
X0237422Y0050984D02*
X0224739Y0050984D01*
X0224325Y0049985D02*
X0237836Y0049985D01*
X0238580Y0048987D02*
X0223581Y0048987D01*
X0222163Y0047988D02*
X0239999Y0047988D01*
X0243663Y0047988D02*
X0256706Y0047988D01*
X0256160Y0048987D02*
X0245081Y0048987D01*
X0245825Y0049985D02*
X0255892Y0049985D01*
X0255625Y0050984D02*
X0246239Y0050984D01*
X0246331Y0051982D02*
X0255357Y0051982D01*
X0255252Y0052981D02*
X0246331Y0052981D01*
X0246331Y0053979D02*
X0255252Y0053979D01*
X0255252Y0054978D02*
X0246331Y0054978D01*
X0246331Y0055976D02*
X0255252Y0055976D01*
X0255517Y0056975D02*
X0246331Y0056975D01*
X0246331Y0057973D02*
X0255785Y0057973D01*
X0256053Y0058972D02*
X0246331Y0058972D01*
X0245927Y0059970D02*
X0256475Y0059970D01*
X0257052Y0060969D02*
X0245326Y0060969D01*
X0244253Y0061967D02*
X0257628Y0061967D01*
X0257283Y0046990D02*
X0183031Y0046990D01*
X0183031Y0045991D02*
X0257859Y0045991D01*
X0258762Y0044993D02*
X0183031Y0044993D01*
X0183031Y0043994D02*
X0259761Y0043994D01*
X0260918Y0042996D02*
X0183031Y0042996D01*
X0183031Y0041997D02*
X0262648Y0041997D01*
X0265198Y0040999D02*
X0183031Y0040999D01*
X0183031Y0040000D02*
X0277676Y0040000D01*
X0277736Y0040999D02*
X0272715Y0040999D01*
X0275265Y0041997D02*
X0277737Y0041997D01*
X0277737Y0042996D02*
X0276995Y0042996D01*
X0276447Y0039001D02*
X0183031Y0039001D01*
X0183031Y0038003D02*
X0274948Y0038003D01*
X0272592Y0037004D02*
X0183031Y0037004D01*
X0181031Y0037004D02*
X0119731Y0037004D01*
X0119731Y0036550D02*
X0119731Y0063672D01*
X0124731Y0068672D01*
X0124731Y0069400D01*
X0178831Y0123500D01*
X0178831Y0150600D01*
X0192731Y0150600D01*
X0192731Y0086500D01*
X0181031Y0074800D01*
X0181031Y0059378D01*
X0180546Y0060549D01*
X0179280Y0061815D01*
X0177626Y0062500D01*
X0175836Y0062500D01*
X0174182Y0061815D01*
X0172916Y0060549D01*
X0172231Y0058895D01*
X0172231Y0051105D01*
X0172916Y0049451D01*
X0174182Y0048185D01*
X0175836Y0047500D01*
X0177626Y0047500D01*
X0179280Y0048185D01*
X0180546Y0049451D01*
X0181031Y0050622D01*
X0181031Y0036550D01*
X0119731Y0036550D01*
X0119731Y0038003D02*
X0181031Y0038003D01*
X0181031Y0039001D02*
X0119731Y0039001D01*
X0119731Y0040000D02*
X0181031Y0040000D01*
X0181031Y0040999D02*
X0119731Y0040999D01*
X0119731Y0041997D02*
X0181031Y0041997D01*
X0181031Y0042996D02*
X0119731Y0042996D01*
X0119731Y0043994D02*
X0181031Y0043994D01*
X0181031Y0044993D02*
X0119731Y0044993D01*
X0119731Y0045991D02*
X0181031Y0045991D01*
X0181031Y0046990D02*
X0119731Y0046990D01*
X0119731Y0047988D02*
X0131940Y0047988D01*
X0132636Y0047700D02*
X0130982Y0048385D01*
X0129716Y0049651D01*
X0129031Y0051305D01*
X0129031Y0059095D01*
X0129716Y0060749D01*
X0130982Y0062015D01*
X0132636Y0062700D01*
X0134426Y0062700D01*
X0136080Y0062015D01*
X0137346Y0060749D01*
X0138031Y0059095D01*
X0138031Y0051305D01*
X0137346Y0049651D01*
X0136080Y0048385D01*
X0134426Y0047700D01*
X0132636Y0047700D01*
X0135121Y0047988D02*
X0153399Y0047988D01*
X0152682Y0048285D02*
X0154336Y0047600D01*
X0156126Y0047600D01*
X0157780Y0048285D01*
X0159046Y0049551D01*
X0159731Y0051205D01*
X0159731Y0058995D01*
X0159046Y0060649D01*
X0157780Y0061915D01*
X0156126Y0062600D01*
X0154336Y0062600D01*
X0152682Y0061915D01*
X0151416Y0060649D01*
X0150731Y0058995D01*
X0150731Y0051205D01*
X0151416Y0049551D01*
X0152682Y0048285D01*
X0151980Y0048987D02*
X0136681Y0048987D01*
X0137484Y0049985D02*
X0151236Y0049985D01*
X0150822Y0050984D02*
X0137898Y0050984D01*
X0138031Y0051982D02*
X0150731Y0051982D01*
X0150731Y0052981D02*
X0138031Y0052981D01*
X0138031Y0053979D02*
X0150731Y0053979D01*
X0150731Y0054978D02*
X0138031Y0054978D01*
X0138031Y0055976D02*
X0150731Y0055976D01*
X0150731Y0056975D02*
X0138031Y0056975D01*
X0138031Y0057973D02*
X0150731Y0057973D01*
X0150731Y0058972D02*
X0138031Y0058972D01*
X0137668Y0059970D02*
X0151135Y0059970D01*
X0151735Y0060969D02*
X0137126Y0060969D01*
X0136127Y0061967D02*
X0152808Y0061967D01*
X0157653Y0061967D02*
X0174549Y0061967D01*
X0173335Y0060969D02*
X0158726Y0060969D01*
X0159327Y0059970D02*
X0172676Y0059970D01*
X0172262Y0058972D02*
X0159731Y0058972D01*
X0159731Y0057973D02*
X0172231Y0057973D01*
X0172231Y0056975D02*
X0159731Y0056975D01*
X0159731Y0055976D02*
X0172231Y0055976D01*
X0172231Y0054978D02*
X0159731Y0054978D01*
X0159731Y0053979D02*
X0172231Y0053979D01*
X0172231Y0052981D02*
X0159731Y0052981D01*
X0159731Y0051982D02*
X0172231Y0051982D01*
X0172281Y0050984D02*
X0159639Y0050984D01*
X0159225Y0049985D02*
X0172695Y0049985D01*
X0173380Y0048987D02*
X0158481Y0048987D01*
X0157063Y0047988D02*
X0174657Y0047988D01*
X0178804Y0047988D02*
X0181031Y0047988D01*
X0181031Y0048987D02*
X0180081Y0048987D01*
X0180767Y0049985D02*
X0181031Y0049985D01*
X0181031Y0059970D02*
X0180785Y0059970D01*
X0181031Y0060969D02*
X0180126Y0060969D01*
X0181031Y0061967D02*
X0178912Y0061967D01*
X0181031Y0062966D02*
X0119731Y0062966D01*
X0119731Y0061967D02*
X0130934Y0061967D01*
X0129935Y0060969D02*
X0119731Y0060969D01*
X0119731Y0059970D02*
X0129393Y0059970D01*
X0129031Y0058972D02*
X0119731Y0058972D01*
X0119731Y0057973D02*
X0129031Y0057973D01*
X0129031Y0056975D02*
X0119731Y0056975D01*
X0119731Y0055976D02*
X0129031Y0055976D01*
X0129031Y0054978D02*
X0119731Y0054978D01*
X0119731Y0053979D02*
X0129031Y0053979D01*
X0129031Y0052981D02*
X0119731Y0052981D01*
X0119731Y0051982D02*
X0129031Y0051982D01*
X0129164Y0050984D02*
X0119731Y0050984D01*
X0119731Y0049985D02*
X0129577Y0049985D01*
X0130380Y0048987D02*
X0119731Y0048987D01*
X0117731Y0048987D02*
X0115181Y0048987D01*
X0115746Y0049551D02*
X0116431Y0051205D01*
X0116431Y0058995D01*
X0115746Y0060649D01*
X0114480Y0061915D01*
X0112826Y0062600D01*
X0111036Y0062600D01*
X0110931Y0062557D01*
X0110931Y0080500D01*
X0122731Y0080500D01*
X0122731Y0069500D01*
X0114813Y0061582D01*
X0114480Y0061915D01*
X0112826Y0062600D01*
X0111036Y0062600D01*
X0109382Y0061915D01*
X0108116Y0060649D01*
X0107431Y0058995D01*
X0107431Y0051205D01*
X0108116Y0049551D01*
X0109382Y0048285D01*
X0111036Y0047600D01*
X0112826Y0047600D01*
X0114480Y0048285D01*
X0115746Y0049551D01*
X0115925Y0049985D02*
X0117731Y0049985D01*
X0117731Y0050984D02*
X0116339Y0050984D01*
X0116431Y0051982D02*
X0117731Y0051982D01*
X0117731Y0052981D02*
X0116431Y0052981D01*
X0116431Y0053979D02*
X0117731Y0053979D01*
X0117731Y0054978D02*
X0116431Y0054978D01*
X0116431Y0055976D02*
X0117731Y0055976D01*
X0117731Y0056975D02*
X0116431Y0056975D01*
X0116431Y0057973D02*
X0117731Y0057973D01*
X0117731Y0058972D02*
X0116431Y0058972D01*
X0116027Y0059970D02*
X0117731Y0059970D01*
X0117731Y0060969D02*
X0115426Y0060969D01*
X0115198Y0061967D02*
X0114353Y0061967D01*
X0117731Y0061967D01*
X0117731Y0062966D02*
X0072331Y0062966D01*
X0072331Y0063964D02*
X0117731Y0063964D01*
X0117195Y0063964D02*
X0110931Y0063964D01*
X0110931Y0062966D02*
X0116196Y0062966D01*
X0117731Y0064963D02*
X0072331Y0064963D01*
X0072331Y0065400D02*
X0074001Y0065400D01*
X0074272Y0065128D01*
X0078271Y0065128D01*
X0078543Y0065400D01*
X0079119Y0065400D01*
X0079390Y0065128D01*
X0083389Y0065128D01*
X0083661Y0065400D01*
X0084431Y0065400D01*
X0099731Y0080700D01*
X0122731Y0080700D01*
X0117731Y0080400D01*
X0117731Y0036550D01*
X0053931Y0036550D01*
X0053931Y0050941D01*
X0054315Y0052375D01*
X0054315Y0055984D01*
X0053931Y0057418D01*
X0053931Y0060600D01*
X0065313Y0060600D01*
X0064731Y0059195D01*
X0064731Y0051405D01*
X0065416Y0049751D01*
X0066682Y0048485D01*
X0068336Y0047800D01*
X0070126Y0047800D01*
X0071780Y0048485D01*
X0073046Y0049751D01*
X0073731Y0051405D01*
X0073731Y0059195D01*
X0073046Y0060849D01*
X0072331Y0061564D01*
X0072331Y0065400D01*
X0072331Y0061967D02*
X0088034Y0061967D01*
X0088082Y0062015D02*
X0086816Y0060749D01*
X0086131Y0059095D01*
X0086131Y0051305D01*
X0086816Y0049651D01*
X0088082Y0048385D01*
X0089736Y0047700D01*
X0091526Y0047700D01*
X0093180Y0048385D01*
X0094446Y0049651D01*
X0095131Y0051305D01*
X0095131Y0059095D01*
X0094446Y0060749D01*
X0093180Y0062015D01*
X0091526Y0062700D01*
X0089736Y0062700D01*
X0088082Y0062015D01*
X0087035Y0060969D02*
X0072926Y0060969D01*
X0073410Y0059970D02*
X0086493Y0059970D01*
X0086131Y0058972D02*
X0073731Y0058972D01*
X0073731Y0057973D02*
X0086131Y0057973D01*
X0086131Y0056975D02*
X0073731Y0056975D01*
X0073731Y0055976D02*
X0086131Y0055976D01*
X0086131Y0054978D02*
X0073731Y0054978D01*
X0073731Y0053979D02*
X0086131Y0053979D01*
X0086131Y0052981D02*
X0073731Y0052981D01*
X0073731Y0051982D02*
X0086131Y0051982D01*
X0086264Y0050984D02*
X0073556Y0050984D01*
X0073143Y0049985D02*
X0086677Y0049985D01*
X0087480Y0048987D02*
X0072281Y0048987D01*
X0070580Y0047988D02*
X0089040Y0047988D01*
X0092221Y0047988D02*
X0110099Y0047988D01*
X0108680Y0048987D02*
X0093781Y0048987D01*
X0094584Y0049985D02*
X0107936Y0049985D01*
X0107522Y0050984D02*
X0094998Y0050984D01*
X0095131Y0051982D02*
X0107431Y0051982D01*
X0107431Y0052981D02*
X0095131Y0052981D01*
X0095131Y0053979D02*
X0107431Y0053979D01*
X0107431Y0054978D02*
X0095131Y0054978D01*
X0095131Y0055976D02*
X0107431Y0055976D01*
X0107431Y0056975D02*
X0095131Y0056975D01*
X0095131Y0057973D02*
X0107431Y0057973D01*
X0107431Y0058972D02*
X0095131Y0058972D01*
X0094768Y0059970D02*
X0107835Y0059970D01*
X0108435Y0060969D02*
X0094226Y0060969D01*
X0093227Y0061967D02*
X0109508Y0061967D01*
X0110931Y0064963D02*
X0118193Y0064963D01*
X0117731Y0065961D02*
X0084992Y0065961D01*
X0085991Y0066960D02*
X0117731Y0066960D01*
X0117731Y0067958D02*
X0086989Y0067958D01*
X0087988Y0068957D02*
X0117731Y0068957D01*
X0117731Y0069955D02*
X0088986Y0069955D01*
X0089985Y0070954D02*
X0117731Y0070954D01*
X0117731Y0071952D02*
X0090983Y0071952D01*
X0091982Y0072951D02*
X0117731Y0072951D01*
X0117731Y0073949D02*
X0092980Y0073949D01*
X0093979Y0074948D02*
X0117731Y0074948D01*
X0117731Y0075946D02*
X0094977Y0075946D01*
X0095976Y0076945D02*
X0117731Y0076945D01*
X0117731Y0077943D02*
X0096974Y0077943D01*
X0097973Y0078942D02*
X0117731Y0078942D01*
X0117731Y0079940D02*
X0098971Y0079940D01*
X0110931Y0079940D02*
X0122731Y0079940D01*
X0122731Y0078942D02*
X0110931Y0078942D01*
X0110931Y0077943D02*
X0122731Y0077943D01*
X0122731Y0076945D02*
X0110931Y0076945D01*
X0110931Y0075946D02*
X0122731Y0075946D01*
X0122731Y0074948D02*
X0110931Y0074948D01*
X0110931Y0073949D02*
X0122731Y0073949D01*
X0122731Y0072951D02*
X0110931Y0072951D01*
X0110931Y0071952D02*
X0122731Y0071952D01*
X0122731Y0070954D02*
X0110931Y0070954D01*
X0110931Y0069955D02*
X0122731Y0069955D01*
X0122188Y0068957D02*
X0110931Y0068957D01*
X0110931Y0067958D02*
X0121189Y0067958D01*
X0120191Y0066960D02*
X0110931Y0066960D01*
X0110931Y0065961D02*
X0119192Y0065961D01*
X0121022Y0064963D02*
X0181031Y0064963D01*
X0181031Y0065961D02*
X0122020Y0065961D01*
X0123019Y0066960D02*
X0181031Y0066960D01*
X0181031Y0067958D02*
X0124017Y0067958D01*
X0124731Y0068957D02*
X0181031Y0068957D01*
X0181031Y0069955D02*
X0125286Y0069955D01*
X0126285Y0070954D02*
X0181031Y0070954D01*
X0181031Y0071952D02*
X0127283Y0071952D01*
X0128282Y0072951D02*
X0181031Y0072951D01*
X0181031Y0073949D02*
X0129280Y0073949D01*
X0130279Y0074948D02*
X0181179Y0074948D01*
X0182177Y0075946D02*
X0131277Y0075946D01*
X0132276Y0076945D02*
X0183176Y0076945D01*
X0184174Y0077943D02*
X0133274Y0077943D01*
X0134273Y0078942D02*
X0185173Y0078942D01*
X0186171Y0079940D02*
X0135271Y0079940D01*
X0136270Y0080939D02*
X0187170Y0080939D01*
X0188168Y0081937D02*
X0137268Y0081937D01*
X0138267Y0082936D02*
X0189167Y0082936D01*
X0190165Y0083934D02*
X0139265Y0083934D01*
X0140264Y0084933D02*
X0191164Y0084933D01*
X0192162Y0085932D02*
X0141262Y0085932D01*
X0142261Y0086930D02*
X0192731Y0086930D01*
X0192731Y0087929D02*
X0143259Y0087929D01*
X0144258Y0088927D02*
X0192731Y0088927D01*
X0192731Y0089926D02*
X0145256Y0089926D01*
X0146255Y0090924D02*
X0192731Y0090924D01*
X0192731Y0091923D02*
X0147253Y0091923D01*
X0148252Y0092921D02*
X0192731Y0092921D01*
X0192731Y0093920D02*
X0149250Y0093920D01*
X0150231Y0093641D02*
X0150231Y0093100D01*
X0150231Y0093641D02*
X0134831Y0093641D01*
X0134831Y0098759D02*
X0134831Y0104847D01*
X0134831Y0110753D02*
X0128031Y0110753D01*
X0128131Y0110753D01*
X0128131Y0114700D01*
X0128031Y0104847D02*
X0128031Y0098759D01*
X0128031Y0093641D02*
X0120131Y0093641D01*
X0120131Y0092900D01*
X0150249Y0094918D02*
X0192731Y0094918D01*
X0192731Y0095917D02*
X0151247Y0095917D01*
X0152246Y0096915D02*
X0192731Y0096915D01*
X0192731Y0097914D02*
X0153244Y0097914D01*
X0154243Y0098912D02*
X0192731Y0098912D01*
X0192731Y0099911D02*
X0155241Y0099911D01*
X0156240Y0100909D02*
X0192731Y0100909D01*
X0192731Y0101908D02*
X0157238Y0101908D01*
X0158237Y0102906D02*
X0192731Y0102906D01*
X0192731Y0103905D02*
X0159235Y0103905D01*
X0160234Y0104903D02*
X0192731Y0104903D01*
X0192731Y0105902D02*
X0161232Y0105902D01*
X0162231Y0106900D02*
X0192731Y0106900D01*
X0192731Y0107899D02*
X0163229Y0107899D01*
X0164228Y0108897D02*
X0192731Y0108897D01*
X0192731Y0109896D02*
X0165227Y0109896D01*
X0166225Y0110894D02*
X0192731Y0110894D01*
X0192731Y0111893D02*
X0167224Y0111893D01*
X0168222Y0112891D02*
X0192731Y0112891D01*
X0192731Y0113890D02*
X0169221Y0113890D01*
X0170219Y0114888D02*
X0192731Y0114888D01*
X0192731Y0115887D02*
X0171218Y0115887D01*
X0172216Y0116885D02*
X0192731Y0116885D01*
X0192731Y0117884D02*
X0173215Y0117884D01*
X0174213Y0118882D02*
X0192731Y0118882D01*
X0192731Y0119881D02*
X0175212Y0119881D01*
X0176210Y0120879D02*
X0192731Y0120879D01*
X0192731Y0121878D02*
X0177209Y0121878D01*
X0178207Y0122876D02*
X0192731Y0122876D01*
X0192731Y0123875D02*
X0178831Y0123875D01*
X0178831Y0124873D02*
X0192731Y0124873D01*
X0192731Y0125872D02*
X0178831Y0125872D01*
X0178831Y0126870D02*
X0192731Y0126870D01*
X0192731Y0127869D02*
X0178831Y0127869D01*
X0178831Y0128868D02*
X0192731Y0128868D01*
X0192731Y0129866D02*
X0178831Y0129866D01*
X0178831Y0130865D02*
X0192731Y0130865D01*
X0192731Y0131863D02*
X0178831Y0131863D01*
X0178831Y0132862D02*
X0192731Y0132862D01*
X0192731Y0133860D02*
X0178831Y0133860D01*
X0178831Y0134859D02*
X0192731Y0134859D01*
X0192731Y0135857D02*
X0178831Y0135857D01*
X0178831Y0136856D02*
X0192731Y0136856D01*
X0192731Y0137854D02*
X0178831Y0137854D01*
X0178831Y0138853D02*
X0192731Y0138853D01*
X0192731Y0139851D02*
X0178831Y0139851D01*
X0178831Y0140850D02*
X0192731Y0140850D01*
X0192731Y0141848D02*
X0178831Y0141848D01*
X0178831Y0142847D02*
X0192731Y0142847D01*
X0192731Y0143845D02*
X0178831Y0143845D01*
X0178831Y0144844D02*
X0192731Y0144844D01*
X0192731Y0145842D02*
X0178831Y0145842D01*
X0178831Y0146841D02*
X0192731Y0146841D01*
X0192731Y0147839D02*
X0178831Y0147839D01*
X0178831Y0148838D02*
X0192731Y0148838D01*
X0192731Y0149836D02*
X0178831Y0149836D01*
X0202031Y0114700D02*
X0202031Y0110753D01*
X0202131Y0110753D01*
X0202131Y0104847D02*
X0202131Y0098759D01*
X0181031Y0063964D02*
X0120023Y0063964D01*
X0117731Y0047988D02*
X0113763Y0047988D01*
X0117731Y0046990D02*
X0053931Y0046990D01*
X0053931Y0047988D02*
X0067881Y0047988D01*
X0066180Y0048987D02*
X0053931Y0048987D01*
X0053931Y0049985D02*
X0065319Y0049985D01*
X0064905Y0050984D02*
X0053942Y0050984D01*
X0054210Y0051982D02*
X0064731Y0051982D01*
X0064731Y0052981D02*
X0054315Y0052981D01*
X0054315Y0053979D02*
X0064731Y0053979D01*
X0064731Y0054978D02*
X0054315Y0054978D01*
X0054315Y0055976D02*
X0064731Y0055976D01*
X0064731Y0056975D02*
X0054049Y0056975D01*
X0053931Y0057973D02*
X0064731Y0057973D01*
X0064731Y0058972D02*
X0053931Y0058972D01*
X0053931Y0059970D02*
X0065052Y0059970D01*
X0053931Y0045991D02*
X0117731Y0045991D01*
X0117731Y0044993D02*
X0053931Y0044993D01*
X0053931Y0043994D02*
X0117731Y0043994D01*
X0117731Y0042996D02*
X0053931Y0042996D01*
X0053931Y0041997D02*
X0117731Y0041997D01*
X0117731Y0040999D02*
X0053931Y0040999D01*
X0053931Y0040000D02*
X0117731Y0040000D01*
X0117731Y0039001D02*
X0053931Y0039001D01*
X0053931Y0038003D02*
X0117731Y0038003D01*
X0117731Y0037004D02*
X0053931Y0037004D01*
X0060231Y0096384D02*
X0060231Y0096800D01*
X0060231Y0096384D02*
X0064350Y0096384D01*
X0073484Y0110400D02*
X0073484Y0117400D01*
X0073484Y0110400D02*
X0073772Y0110400D01*
X0044372Y0154829D02*
X0041883Y0154829D01*
X0036884Y0154829D02*
X0035978Y0154829D01*
X0033765Y0154829D02*
X0033191Y0154829D01*
X0033191Y0155827D02*
X0033765Y0155827D01*
X0033765Y0156826D02*
X0033191Y0156826D01*
X0033190Y0157824D02*
X0028381Y0157824D01*
X0028381Y0156826D02*
X0030403Y0156826D01*
X0030403Y0155827D02*
X0028381Y0155827D01*
X0028381Y0154829D02*
X0030978Y0154829D01*
X0030403Y0158823D02*
X0028381Y0158823D01*
X0028381Y0159821D02*
X0030544Y0159821D01*
X0033191Y0159821D02*
X0033765Y0159821D01*
X0033765Y0158823D02*
X0033191Y0158823D01*
X0048923Y0160820D02*
X0049739Y0160820D01*
X0261419Y0152832D02*
X0277828Y0152832D01*
X0277829Y0153830D02*
X0262230Y0153830D01*
X0263042Y0154829D02*
X0277830Y0154829D01*
M02*
