%
M48
M72
T01C0.0130
T02C0.0394
T03C0.0400
T04C0.0551
T05C0.1083
T06C0.1260
%
T01
X7283Y6440
X6283Y6690
X5683Y6690
X5083Y6690
X4533Y7340
X5083Y7840
X4533Y8090
X4533Y8840
X4533Y9540
X4533Y10090
X4983Y10090
X5433Y10090
X5833Y10090
X6883Y9540
X6383Y8540
X7483Y7540
X7833Y7540
X8333Y7440
X8333Y7840
X8333Y8290
X8233Y8740
X8383Y10290
X8383Y10790
X8383Y11340
X8383Y12190
X7733Y12390
X7333Y12390
X7333Y12840
X7733Y12840
X8383Y12790
X8383Y13390
X8383Y13990
X9633Y13990
X9633Y13390
X9633Y12740
X9633Y12190
X9633Y11340
X9633Y10740
X9633Y10290
X12813Y11470
X14283Y13440
X13283Y13690
X12683Y13690
X12083Y13690
X11533Y13690
X11533Y14340
X12083Y14840
X11533Y15090
X11533Y15840
X11533Y16540
X11533Y17090
X11983Y17090
X12433Y17090
X12833Y17090
X13883Y16540
X15233Y15740
X15333Y15290
X15333Y14840
X15333Y14440
X14833Y14540
X14483Y14540
X13383Y15540
X15383Y17290
X15383Y17790
X15383Y18340
X16633Y18340
X16633Y17740
X16633Y17290
X16633Y19190
X16633Y19740
X16633Y20390
X16633Y20990
X15383Y20990
X15383Y20390
X15383Y19790
X15383Y19190
X14733Y19390
X14333Y19390
X14333Y19840
X14733Y19840
X13533Y19790
X12983Y19790
X12983Y20390
X12983Y20940
X13533Y20940
X13533Y20390
X7573Y15740
X6533Y13940
X5983Y13940
X5983Y13390
X6533Y13390
X6533Y12790
X5983Y12790
X20033Y13690
X20583Y13690
X21183Y13690
X21783Y13690
X22783Y13440
X22983Y14540
X23333Y14540
X23833Y14440
X23833Y14840
X23833Y15290
X23733Y15740
X22383Y16540
X21333Y17090
X20933Y17090
X20483Y17090
X20033Y17090
X20033Y16540
X20033Y15840
X20033Y15090
X20583Y14840
X20033Y14340
X21883Y15540
X23883Y17290
X23883Y17790
X23883Y18340
X23883Y19190
X23233Y19390
X22833Y19390
X22833Y19840
X23233Y19840
X23883Y19790
X23883Y20390
X23883Y20990
X25133Y20990
X25133Y20390
X25133Y19740
X25133Y19190
X25133Y18340
X25133Y17740
X25133Y17290
X22033Y19790
X21483Y19790
X21483Y20390
X22033Y20390
X22033Y20940
X21483Y20940
X20203Y11470
T02
X19978Y24209
X20978Y24209
X20978Y25209
X19978Y25209
X18978Y25209
X17978Y25209
X16978Y25209
X15978Y25209
X14978Y25209
X13978Y25209
X12978Y25209
X11978Y25209
X10978Y25209
X9978Y25209
X8978Y25209
X7978Y25209
X6978Y25209
X5978Y25209
X5978Y24209
X6978Y24209
X7978Y24209
X8978Y24209
X9978Y24209
X10978Y24209
X11978Y24209
X12978Y24209
X13978Y24209
X14978Y24209
X15978Y24209
X16978Y24209
X17978Y24209
X18978Y24209
X21978Y24209
X21978Y25209
X22978Y25209
X22978Y24209
X23978Y24209
X24978Y24209
X24978Y25209
X23978Y25209
T03
X24183Y5510
X23183Y5510
X22033Y5510
X21033Y5510
X19863Y5520
X18863Y5520
X17673Y5500
X16673Y5500
X15523Y5510
X14523Y5510
X13353Y5520
X12353Y5520
X11193Y5510
X10193Y5510
X9063Y5520
X8063Y5520
X6923Y5530
X5923Y5530
T04
X5583Y20040
X7748Y20040
T05
X4061Y5418
X26896Y5418
X26896Y24709
X4061Y24709
T06
X3930Y21812
X3930Y18268
M30
