G75*
%MOIN*%
%OFA0B0*%
%FSLAX25Y25*%
%IPPOS*%
%LPD*%
%AMOC8*
5,1,8,0,0,1.08239X$1,22.5*
%
%ADD10C,0.00100*%
%ADD11C,0.00300*%
%ADD12C,0.00500*%
%ADD13C,0.00400*%
%ADD14C,0.05000*%
%ADD15C,0.01000*%
%ADD16C,0.00000*%
%ADD17C,0.00700*%
%ADD18R,0.00591X0.01181*%
%ADD19R,0.01181X0.01181*%
%ADD20R,0.01181X0.00591*%
D10*
X0038731Y0035000D02*
X0270731Y0035000D01*
X0271073Y0035045D01*
X0271413Y0035098D01*
X0271752Y0035160D01*
X0272090Y0035230D01*
X0272425Y0035309D01*
X0272759Y0035395D01*
X0273091Y0035490D01*
X0273420Y0035593D01*
X0273746Y0035704D01*
X0274070Y0035823D01*
X0274390Y0035949D01*
X0274708Y0036084D01*
X0275022Y0036226D01*
X0275332Y0036376D01*
X0275639Y0036534D01*
X0275941Y0036698D01*
X0276240Y0036871D01*
X0276534Y0037050D01*
X0276824Y0037237D01*
X0277109Y0037431D01*
X0277390Y0037632D01*
X0277665Y0037839D01*
X0277935Y0038053D01*
X0278200Y0038274D01*
X0278459Y0038501D01*
X0278713Y0038735D01*
X0278961Y0038974D01*
X0279203Y0039220D01*
X0279438Y0039471D01*
X0279668Y0039728D01*
X0279891Y0039991D01*
X0280108Y0040259D01*
X0280318Y0040532D01*
X0280522Y0040811D01*
X0280718Y0041094D01*
X0280908Y0041382D01*
X0281090Y0041674D01*
X0281265Y0041971D01*
X0281433Y0042272D01*
X0281593Y0042578D01*
X0281746Y0042887D01*
X0281891Y0043199D01*
X0282029Y0043515D01*
X0282159Y0043835D01*
X0282281Y0044157D01*
X0282395Y0044483D01*
X0282501Y0044811D01*
X0282599Y0045141D01*
X0282688Y0045474D01*
X0282770Y0045809D01*
X0282843Y0046146D01*
X0282908Y0046484D01*
X0282965Y0046824D01*
X0283014Y0047166D01*
X0283054Y0047508D01*
X0283085Y0047851D01*
X0283109Y0048195D01*
X0283123Y0048540D01*
X0283130Y0048884D01*
X0283128Y0049229D01*
X0283117Y0049574D01*
X0283098Y0049918D01*
X0283071Y0050261D01*
X0283035Y0050604D01*
X0282991Y0050946D01*
X0282938Y0051287D01*
X0282877Y0051626D01*
X0282808Y0051964D01*
X0282731Y0052300D01*
X0282731Y0248900D01*
X0282745Y0249176D01*
X0282753Y0249453D01*
X0282753Y0249729D01*
X0282747Y0250006D01*
X0282735Y0250282D01*
X0282715Y0250558D01*
X0282689Y0250834D01*
X0282656Y0251109D01*
X0282616Y0251382D01*
X0282569Y0251655D01*
X0282516Y0251927D01*
X0282457Y0252197D01*
X0282390Y0252466D01*
X0282317Y0252733D01*
X0282238Y0252998D01*
X0282152Y0253261D01*
X0282060Y0253521D01*
X0281961Y0253780D01*
X0281856Y0254036D01*
X0281745Y0254289D01*
X0281627Y0254540D01*
X0281504Y0254787D01*
X0281374Y0255032D01*
X0281239Y0255273D01*
X0281097Y0255511D01*
X0280950Y0255745D01*
X0280797Y0255976D01*
X0280639Y0256203D01*
X0280475Y0256426D01*
X0280305Y0256645D01*
X0280131Y0256859D01*
X0279951Y0257069D01*
X0279766Y0257275D01*
X0279576Y0257476D01*
X0279381Y0257673D01*
X0279182Y0257865D01*
X0278977Y0258051D01*
X0278769Y0258233D01*
X0278555Y0258409D01*
X0278338Y0258581D01*
X0278117Y0258746D01*
X0277891Y0258907D01*
X0277662Y0259062D01*
X0277429Y0259211D01*
X0277192Y0259354D01*
X0276952Y0259491D01*
X0276708Y0259623D01*
X0276462Y0259749D01*
X0276212Y0259868D01*
X0275960Y0259982D01*
X0275705Y0260089D01*
X0275447Y0260190D01*
X0275187Y0260284D01*
X0274925Y0260372D01*
X0274660Y0260454D01*
X0274394Y0260529D01*
X0274126Y0260598D01*
X0273856Y0260660D01*
X0273585Y0260715D01*
X0273313Y0260764D01*
X0273039Y0260806D01*
X0272765Y0260841D01*
X0272490Y0260870D01*
X0272214Y0260892D01*
X0271938Y0260907D01*
X0271661Y0260915D01*
X0271384Y0260917D01*
X0271108Y0260912D01*
X0270831Y0260900D01*
X0038831Y0260900D01*
X0038830Y0260900D02*
X0038554Y0260914D01*
X0038277Y0260922D01*
X0038001Y0260922D01*
X0037724Y0260916D01*
X0037448Y0260904D01*
X0037172Y0260884D01*
X0036896Y0260858D01*
X0036621Y0260825D01*
X0036348Y0260785D01*
X0036075Y0260738D01*
X0035803Y0260685D01*
X0035533Y0260626D01*
X0035264Y0260559D01*
X0034997Y0260486D01*
X0034732Y0260407D01*
X0034469Y0260321D01*
X0034209Y0260229D01*
X0033950Y0260130D01*
X0033694Y0260025D01*
X0033441Y0259914D01*
X0033190Y0259796D01*
X0032943Y0259673D01*
X0032698Y0259543D01*
X0032457Y0259408D01*
X0032219Y0259266D01*
X0031985Y0259119D01*
X0031754Y0258966D01*
X0031527Y0258808D01*
X0031304Y0258644D01*
X0031085Y0258474D01*
X0030871Y0258300D01*
X0030661Y0258120D01*
X0030455Y0257935D01*
X0030254Y0257745D01*
X0030057Y0257550D01*
X0029865Y0257351D01*
X0029679Y0257146D01*
X0029497Y0256938D01*
X0029321Y0256724D01*
X0029149Y0256507D01*
X0028984Y0256286D01*
X0028823Y0256060D01*
X0028668Y0255831D01*
X0028519Y0255598D01*
X0028376Y0255361D01*
X0028239Y0255121D01*
X0028107Y0254877D01*
X0027981Y0254631D01*
X0027862Y0254381D01*
X0027748Y0254129D01*
X0027641Y0253874D01*
X0027540Y0253616D01*
X0027446Y0253356D01*
X0027358Y0253094D01*
X0027276Y0252829D01*
X0027201Y0252563D01*
X0027132Y0252295D01*
X0027070Y0252025D01*
X0027015Y0251754D01*
X0026966Y0251482D01*
X0026924Y0251208D01*
X0026889Y0250934D01*
X0026860Y0250659D01*
X0026838Y0250383D01*
X0026823Y0250107D01*
X0026815Y0249830D01*
X0026813Y0249553D01*
X0026818Y0249277D01*
X0026830Y0249000D01*
X0026831Y0249000D02*
X0026831Y0052400D01*
X0026751Y0052064D01*
X0026680Y0051727D01*
X0026617Y0051387D01*
X0026562Y0051047D01*
X0026515Y0050705D01*
X0026477Y0050362D01*
X0026447Y0050018D01*
X0026426Y0049673D01*
X0026413Y0049328D01*
X0026409Y0048983D01*
X0026413Y0048638D01*
X0026426Y0048293D01*
X0026447Y0047949D01*
X0026476Y0047605D01*
X0026514Y0047262D01*
X0026560Y0046920D01*
X0026615Y0046579D01*
X0026678Y0046239D01*
X0026749Y0045902D01*
X0026828Y0045566D01*
X0026916Y0045232D01*
X0027012Y0044900D01*
X0027116Y0044571D01*
X0027228Y0044245D01*
X0027348Y0043921D01*
X0027476Y0043601D01*
X0027611Y0043283D01*
X0027755Y0042969D01*
X0027906Y0042659D01*
X0028064Y0042352D01*
X0028230Y0042050D01*
X0028404Y0041751D01*
X0028584Y0041457D01*
X0028772Y0041168D01*
X0028967Y0040883D01*
X0029169Y0040603D01*
X0029377Y0040328D01*
X0029592Y0040058D01*
X0029814Y0039793D01*
X0030042Y0039534D01*
X0030277Y0039281D01*
X0030518Y0039034D01*
X0030764Y0038792D01*
X0031017Y0038557D01*
X0031275Y0038328D01*
X0031538Y0038105D01*
X0031807Y0037889D01*
X0032082Y0037679D01*
X0032361Y0037476D01*
X0032645Y0037280D01*
X0032934Y0037092D01*
X0033227Y0036910D01*
X0033525Y0036735D01*
X0033827Y0036568D01*
X0034133Y0036409D01*
X0034443Y0036256D01*
X0034756Y0036112D01*
X0035073Y0035975D01*
X0035393Y0035846D01*
X0035717Y0035725D01*
X0036043Y0035612D01*
X0036372Y0035507D01*
X0036703Y0035410D01*
X0037036Y0035321D01*
X0037372Y0035240D01*
X0037709Y0035168D01*
X0038048Y0035104D01*
X0038389Y0035048D01*
X0038731Y0035000D01*
D11*
X0064566Y0063756D02*
X0065049Y0063756D01*
X0065533Y0064240D01*
X0065533Y0066658D01*
X0065049Y0066658D02*
X0066017Y0066658D01*
X0067028Y0066175D02*
X0067512Y0066658D01*
X0068480Y0066658D01*
X0068963Y0066175D01*
X0068963Y0065691D01*
X0067028Y0063756D01*
X0068963Y0063756D01*
X0064566Y0063756D02*
X0064082Y0064240D01*
X0058981Y0071850D02*
X0056078Y0071850D01*
X0056078Y0073301D01*
X0056562Y0073785D01*
X0057529Y0073785D01*
X0058013Y0073301D01*
X0058013Y0071850D01*
X0058013Y0072817D02*
X0058981Y0073785D01*
X0058981Y0074797D02*
X0057046Y0076731D01*
X0056562Y0076731D01*
X0056078Y0076248D01*
X0056078Y0075280D01*
X0056562Y0074797D01*
X0058981Y0074797D02*
X0058981Y0076731D01*
X0056862Y0077450D02*
X0054927Y0077450D01*
X0056862Y0079385D01*
X0056862Y0079869D01*
X0056378Y0080352D01*
X0055411Y0080352D01*
X0054927Y0079869D01*
X0053916Y0079869D02*
X0053432Y0080352D01*
X0052464Y0080352D01*
X0051981Y0079869D01*
X0051981Y0077934D01*
X0052464Y0077450D01*
X0053432Y0077450D01*
X0053916Y0077934D01*
X0044369Y0087150D02*
X0042434Y0087150D01*
X0043402Y0087150D02*
X0043402Y0090052D01*
X0042434Y0089085D01*
X0041423Y0089569D02*
X0041423Y0088601D01*
X0040939Y0088117D01*
X0039488Y0088117D01*
X0039488Y0087150D02*
X0039488Y0090052D01*
X0040939Y0090052D01*
X0041423Y0089569D01*
X0040455Y0088117D02*
X0041423Y0087150D01*
X0042688Y0096650D02*
X0042688Y0099552D01*
X0044139Y0099552D01*
X0044623Y0099069D01*
X0044623Y0098101D01*
X0044139Y0097617D01*
X0042688Y0097617D01*
X0043655Y0097617D02*
X0044623Y0096650D01*
X0045634Y0098101D02*
X0047569Y0098101D01*
X0047085Y0096650D02*
X0047085Y0099552D01*
X0045634Y0098101D01*
X0056262Y0113050D02*
X0058197Y0113050D01*
X0058681Y0113534D01*
X0058681Y0114501D01*
X0058197Y0114985D01*
X0058197Y0115997D02*
X0058681Y0116480D01*
X0058681Y0117448D01*
X0058197Y0117931D01*
X0057713Y0117931D01*
X0057229Y0117448D01*
X0057229Y0115997D01*
X0058197Y0115997D01*
X0057229Y0115997D02*
X0056262Y0116964D01*
X0055778Y0117931D01*
X0056262Y0114985D02*
X0055778Y0114501D01*
X0055778Y0113534D01*
X0056262Y0113050D01*
X0066078Y0122450D02*
X0066078Y0123901D01*
X0066562Y0124385D01*
X0067529Y0124385D01*
X0068013Y0123901D01*
X0068013Y0122450D01*
X0068013Y0123417D02*
X0068981Y0124385D01*
X0068497Y0125397D02*
X0068981Y0125880D01*
X0068981Y0126848D01*
X0068497Y0127331D01*
X0068013Y0127331D01*
X0067529Y0126848D01*
X0067529Y0126364D01*
X0067529Y0126848D02*
X0067046Y0127331D01*
X0066562Y0127331D01*
X0066078Y0126848D01*
X0066078Y0125880D01*
X0066562Y0125397D01*
X0066078Y0122450D02*
X0068981Y0122450D01*
X0084881Y0119469D02*
X0084881Y0117534D01*
X0085364Y0117050D01*
X0086332Y0117050D01*
X0086816Y0117534D01*
X0087827Y0117534D02*
X0087827Y0118017D01*
X0088311Y0118501D01*
X0089278Y0118501D01*
X0089762Y0118017D01*
X0089762Y0117534D01*
X0089278Y0117050D01*
X0088311Y0117050D01*
X0087827Y0117534D01*
X0088311Y0118501D02*
X0087827Y0118985D01*
X0087827Y0119469D01*
X0088311Y0119952D01*
X0089278Y0119952D01*
X0089762Y0119469D01*
X0089762Y0118985D01*
X0089278Y0118501D01*
X0086816Y0119469D02*
X0086332Y0119952D01*
X0085364Y0119952D01*
X0084881Y0119469D01*
X0085364Y0112652D02*
X0084881Y0112169D01*
X0084881Y0110234D01*
X0085364Y0109750D01*
X0086332Y0109750D01*
X0086816Y0110234D01*
X0087827Y0110234D02*
X0088311Y0109750D01*
X0089278Y0109750D01*
X0089762Y0110234D01*
X0089762Y0110717D01*
X0089278Y0111201D01*
X0088795Y0111201D01*
X0089278Y0111201D02*
X0089762Y0111685D01*
X0089762Y0112169D01*
X0089278Y0112652D01*
X0088311Y0112652D01*
X0087827Y0112169D01*
X0086816Y0112169D02*
X0086332Y0112652D01*
X0085364Y0112652D01*
X0084981Y0099138D02*
X0084981Y0097203D01*
X0084981Y0098171D02*
X0082078Y0098171D01*
X0083046Y0097203D01*
X0082562Y0096192D02*
X0082078Y0095708D01*
X0082078Y0094741D01*
X0082562Y0094257D01*
X0083046Y0094257D01*
X0083529Y0094741D01*
X0083529Y0095708D01*
X0084013Y0096192D01*
X0084497Y0096192D01*
X0084981Y0095708D01*
X0084981Y0094741D01*
X0084497Y0094257D01*
X0084497Y0093245D02*
X0082078Y0093245D01*
X0082078Y0091310D02*
X0084497Y0091310D01*
X0084981Y0091794D01*
X0084981Y0092762D01*
X0084497Y0093245D01*
X0085464Y0095224D02*
X0081594Y0095224D01*
X0078862Y0086452D02*
X0078862Y0085969D01*
X0076927Y0084034D01*
X0076927Y0083550D01*
X0075916Y0084034D02*
X0075432Y0083550D01*
X0074464Y0083550D01*
X0073981Y0084034D01*
X0073981Y0085969D01*
X0074464Y0086452D01*
X0075432Y0086452D01*
X0075916Y0085969D01*
X0076927Y0086452D02*
X0078862Y0086452D01*
X0072397Y0077038D02*
X0072881Y0076555D01*
X0072881Y0075587D01*
X0072397Y0075103D01*
X0071429Y0075103D02*
X0070946Y0076071D01*
X0070946Y0076555D01*
X0071429Y0077038D01*
X0072397Y0077038D01*
X0071429Y0075103D02*
X0069978Y0075103D01*
X0069978Y0077038D01*
X0070462Y0074092D02*
X0069978Y0073608D01*
X0069978Y0072641D01*
X0070462Y0072157D01*
X0072397Y0072157D01*
X0072881Y0072641D01*
X0072881Y0073608D01*
X0072397Y0074092D01*
X0076481Y0073469D02*
X0076481Y0071534D01*
X0076964Y0071050D01*
X0077932Y0071050D01*
X0078416Y0071534D01*
X0079427Y0071050D02*
X0081362Y0071050D01*
X0080395Y0071050D02*
X0080395Y0073952D01*
X0079427Y0072985D01*
X0078416Y0073469D02*
X0077932Y0073952D01*
X0076964Y0073952D01*
X0076481Y0073469D01*
X0090381Y0069501D02*
X0092316Y0069501D01*
X0093327Y0069985D02*
X0094295Y0070952D01*
X0094295Y0068050D01*
X0095262Y0068050D02*
X0093327Y0068050D01*
X0094196Y0066658D02*
X0094196Y0063756D01*
X0095163Y0063756D02*
X0093228Y0063756D01*
X0091733Y0064240D02*
X0091249Y0063756D01*
X0090766Y0063756D01*
X0090282Y0064240D01*
X0091733Y0064240D02*
X0091733Y0066658D01*
X0091249Y0066658D02*
X0092217Y0066658D01*
X0093228Y0065691D02*
X0094196Y0066658D01*
X0096274Y0068050D02*
X0098209Y0069985D01*
X0098209Y0070469D01*
X0097725Y0070952D01*
X0096757Y0070952D01*
X0096274Y0070469D01*
X0096274Y0068050D02*
X0098209Y0068050D01*
X0099220Y0069017D02*
X0100188Y0068050D01*
X0101155Y0069017D01*
X0101155Y0070952D01*
X0099220Y0070952D02*
X0099220Y0069017D01*
X0091348Y0068534D02*
X0091348Y0070469D01*
X0111582Y0064140D02*
X0112066Y0063656D01*
X0112549Y0063656D01*
X0113033Y0064140D01*
X0113033Y0066558D01*
X0112549Y0066558D02*
X0113517Y0066558D01*
X0114528Y0066075D02*
X0115012Y0066558D01*
X0115980Y0066558D01*
X0116463Y0066075D01*
X0116463Y0065591D01*
X0115980Y0065107D01*
X0116463Y0064623D01*
X0116463Y0064140D01*
X0115980Y0063656D01*
X0115012Y0063656D01*
X0114528Y0064140D01*
X0115496Y0065107D02*
X0115980Y0065107D01*
X0133182Y0064240D02*
X0133666Y0063756D01*
X0134149Y0063756D01*
X0134633Y0064240D01*
X0134633Y0066658D01*
X0134149Y0066658D02*
X0135117Y0066658D01*
X0136128Y0065207D02*
X0137580Y0066658D01*
X0137580Y0063756D01*
X0138063Y0065207D02*
X0136128Y0065207D01*
X0145281Y0072101D02*
X0147216Y0072101D01*
X0148227Y0072101D02*
X0149678Y0072101D01*
X0150162Y0071617D01*
X0150162Y0071134D01*
X0149678Y0070650D01*
X0148711Y0070650D01*
X0148227Y0071134D01*
X0148227Y0072101D01*
X0149195Y0073069D01*
X0150162Y0073552D01*
X0151174Y0073552D02*
X0151174Y0071617D01*
X0152141Y0070650D01*
X0153109Y0071617D01*
X0153109Y0073552D01*
X0146248Y0073069D02*
X0146248Y0071134D01*
X0155849Y0066558D02*
X0156817Y0066558D01*
X0156333Y0066558D02*
X0156333Y0064140D01*
X0155849Y0063656D01*
X0155366Y0063656D01*
X0154882Y0064140D01*
X0157828Y0064140D02*
X0158312Y0063656D01*
X0159280Y0063656D01*
X0159763Y0064140D01*
X0159763Y0065107D01*
X0159280Y0065591D01*
X0158796Y0065591D01*
X0157828Y0065107D01*
X0157828Y0066558D01*
X0159763Y0066558D01*
X0176382Y0064040D02*
X0176866Y0063556D01*
X0177349Y0063556D01*
X0177833Y0064040D01*
X0177833Y0066458D01*
X0177349Y0066458D02*
X0178317Y0066458D01*
X0179328Y0065007D02*
X0180780Y0065007D01*
X0181263Y0064523D01*
X0181263Y0064040D01*
X0180780Y0063556D01*
X0179812Y0063556D01*
X0179328Y0064040D01*
X0179328Y0065007D01*
X0180296Y0065975D01*
X0181263Y0066458D01*
X0198282Y0064240D02*
X0198766Y0063756D01*
X0199249Y0063756D01*
X0199733Y0064240D01*
X0199733Y0066658D01*
X0199249Y0066658D02*
X0200217Y0066658D01*
X0201228Y0066658D02*
X0203163Y0066658D01*
X0203163Y0066175D01*
X0201228Y0064240D01*
X0201228Y0063756D01*
X0209281Y0071101D02*
X0211216Y0071101D01*
X0212227Y0071101D02*
X0213195Y0071585D01*
X0213678Y0071585D01*
X0214162Y0071101D01*
X0214162Y0070134D01*
X0213678Y0069650D01*
X0212711Y0069650D01*
X0212227Y0070134D01*
X0212227Y0071101D02*
X0212227Y0072552D01*
X0214162Y0072552D01*
X0215174Y0072552D02*
X0215174Y0070617D01*
X0216141Y0069650D01*
X0217109Y0070617D01*
X0217109Y0072552D01*
X0210248Y0072069D02*
X0210248Y0070134D01*
X0220949Y0066558D02*
X0221917Y0066558D01*
X0221433Y0066558D02*
X0221433Y0064140D01*
X0220949Y0063656D01*
X0220466Y0063656D01*
X0219982Y0064140D01*
X0222928Y0064140D02*
X0223412Y0063656D01*
X0224380Y0063656D01*
X0224863Y0064140D01*
X0224863Y0064623D01*
X0224380Y0065107D01*
X0223412Y0065107D01*
X0222928Y0065591D01*
X0222928Y0066075D01*
X0223412Y0066558D01*
X0224380Y0066558D01*
X0224863Y0066075D01*
X0224863Y0065591D01*
X0224380Y0065107D01*
X0223412Y0065107D02*
X0222928Y0064623D01*
X0222928Y0064140D01*
X0241482Y0064140D02*
X0241966Y0063656D01*
X0242449Y0063656D01*
X0242933Y0064140D01*
X0242933Y0066558D01*
X0242449Y0066558D02*
X0243417Y0066558D01*
X0244428Y0066075D02*
X0244912Y0066558D01*
X0245880Y0066558D01*
X0246363Y0066075D01*
X0246363Y0064140D01*
X0245880Y0063656D01*
X0244912Y0063656D01*
X0244428Y0064140D01*
X0244912Y0065107D02*
X0246363Y0065107D01*
X0244912Y0065107D02*
X0244428Y0065591D01*
X0244428Y0066075D01*
X0207681Y0090010D02*
X0204778Y0090010D01*
X0204778Y0091462D01*
X0205262Y0091945D01*
X0206229Y0091945D01*
X0206713Y0091462D01*
X0206713Y0090010D01*
X0206713Y0090978D02*
X0207681Y0091945D01*
X0207681Y0092957D02*
X0207681Y0094892D01*
X0207681Y0093924D02*
X0204778Y0093924D01*
X0205746Y0092957D01*
X0205746Y0095903D02*
X0205262Y0095903D01*
X0204778Y0096387D01*
X0204778Y0097355D01*
X0205262Y0097838D01*
X0205746Y0097838D01*
X0206229Y0097355D01*
X0206229Y0096387D01*
X0205746Y0095903D01*
X0206229Y0096387D02*
X0206713Y0095903D01*
X0207197Y0095903D01*
X0207681Y0096387D01*
X0207681Y0097355D01*
X0207197Y0097838D01*
X0206713Y0097838D01*
X0206229Y0097355D01*
X0199481Y0105450D02*
X0199481Y0107385D01*
X0199481Y0108397D02*
X0199481Y0110331D01*
X0199481Y0111343D02*
X0199481Y0112794D01*
X0198997Y0113278D01*
X0197062Y0113278D01*
X0196578Y0112794D01*
X0196578Y0111343D01*
X0199481Y0111343D01*
X0198029Y0109364D02*
X0198029Y0108397D01*
X0196578Y0108397D02*
X0199481Y0108397D01*
X0196578Y0108397D02*
X0196578Y0110331D01*
X0197546Y0114290D02*
X0196578Y0115257D01*
X0199481Y0115257D01*
X0199481Y0114290D02*
X0199481Y0116225D01*
X0198029Y0117236D02*
X0198029Y0119171D01*
X0196578Y0118687D02*
X0198029Y0117236D01*
X0199481Y0118687D02*
X0196578Y0118687D01*
X0196578Y0105450D02*
X0199481Y0105450D01*
X0225462Y0139210D02*
X0224978Y0139694D01*
X0224978Y0140662D01*
X0225462Y0141145D01*
X0225462Y0142157D02*
X0224978Y0142641D01*
X0224978Y0143608D01*
X0225462Y0144092D01*
X0225946Y0144092D01*
X0227881Y0142157D01*
X0227881Y0144092D01*
X0227881Y0145103D02*
X0227881Y0147038D01*
X0227881Y0146071D02*
X0224978Y0146071D01*
X0225946Y0145103D01*
X0227397Y0141145D02*
X0227881Y0140662D01*
X0227881Y0139694D01*
X0227397Y0139210D01*
X0225462Y0139210D01*
X0231481Y0141534D02*
X0231964Y0141050D01*
X0232932Y0141050D01*
X0233416Y0141534D01*
X0234427Y0141050D02*
X0236362Y0141050D01*
X0235395Y0141050D02*
X0235395Y0143952D01*
X0234427Y0142985D01*
X0233416Y0143469D02*
X0232932Y0143952D01*
X0231964Y0143952D01*
X0231481Y0143469D01*
X0231481Y0141534D01*
X0237374Y0141534D02*
X0237374Y0141050D01*
X0237374Y0141534D02*
X0239309Y0143469D01*
X0239309Y0143952D01*
X0237374Y0143952D01*
X0236325Y0153550D02*
X0235357Y0153550D01*
X0234874Y0154034D01*
X0233862Y0153550D02*
X0231927Y0153550D01*
X0233862Y0155485D01*
X0233862Y0155969D01*
X0233378Y0156452D01*
X0232411Y0156452D01*
X0231927Y0155969D01*
X0230916Y0155969D02*
X0230432Y0156452D01*
X0229464Y0156452D01*
X0228981Y0155969D01*
X0228981Y0154034D01*
X0229464Y0153550D01*
X0230432Y0153550D01*
X0230916Y0154034D01*
X0234874Y0155969D02*
X0235357Y0156452D01*
X0236325Y0156452D01*
X0236809Y0155969D01*
X0236809Y0155485D01*
X0236325Y0155001D01*
X0236809Y0154517D01*
X0236809Y0154034D01*
X0236325Y0153550D01*
X0236325Y0155001D02*
X0235841Y0155001D01*
X0237478Y0161710D02*
X0239897Y0161710D01*
X0240381Y0162194D01*
X0240381Y0163162D01*
X0239897Y0163645D01*
X0237478Y0163645D01*
X0237962Y0164657D02*
X0237478Y0165141D01*
X0237478Y0166108D01*
X0237962Y0166592D01*
X0237962Y0167603D02*
X0237478Y0168087D01*
X0237478Y0169055D01*
X0237962Y0169538D01*
X0238446Y0169538D01*
X0238929Y0169055D01*
X0239413Y0169538D01*
X0239897Y0169538D01*
X0240381Y0169055D01*
X0240381Y0168087D01*
X0239897Y0167603D01*
X0239897Y0166592D02*
X0239413Y0166592D01*
X0238929Y0166108D01*
X0238929Y0165141D01*
X0238446Y0164657D01*
X0237962Y0164657D01*
X0236994Y0165624D02*
X0240864Y0165624D01*
X0240381Y0165141D02*
X0240381Y0166108D01*
X0239897Y0166592D01*
X0240381Y0165141D02*
X0239897Y0164657D01*
X0238929Y0168571D02*
X0238929Y0169055D01*
X0241164Y0179650D02*
X0242132Y0179650D01*
X0242616Y0180134D01*
X0243627Y0179650D02*
X0245562Y0179650D01*
X0244595Y0179650D02*
X0244595Y0182552D01*
X0243627Y0181585D01*
X0242616Y0182069D02*
X0242132Y0182552D01*
X0241164Y0182552D01*
X0240681Y0182069D01*
X0240681Y0180134D01*
X0241164Y0179650D01*
X0246574Y0180134D02*
X0247057Y0179650D01*
X0248025Y0179650D01*
X0248509Y0180134D01*
X0248509Y0182069D01*
X0248025Y0182552D01*
X0247057Y0182552D01*
X0246574Y0182069D01*
X0246574Y0181585D01*
X0247057Y0181101D01*
X0248509Y0181101D01*
X0246425Y0186850D02*
X0246425Y0189752D01*
X0244974Y0188301D01*
X0246909Y0188301D01*
X0243962Y0188785D02*
X0243962Y0189269D01*
X0243478Y0189752D01*
X0242511Y0189752D01*
X0242027Y0189269D01*
X0241016Y0189269D02*
X0240532Y0189752D01*
X0239564Y0189752D01*
X0239081Y0189269D01*
X0239081Y0187334D01*
X0239564Y0186850D01*
X0240532Y0186850D01*
X0241016Y0187334D01*
X0242027Y0186850D02*
X0243962Y0188785D01*
X0243962Y0186850D02*
X0242027Y0186850D01*
X0225369Y0192250D02*
X0223434Y0192250D01*
X0224402Y0192250D02*
X0224402Y0195152D01*
X0223434Y0194185D01*
X0222423Y0192250D02*
X0220488Y0192250D01*
X0221455Y0192250D02*
X0221455Y0195152D01*
X0220488Y0194185D01*
X0219476Y0194669D02*
X0219476Y0193701D01*
X0218992Y0193217D01*
X0217541Y0193217D01*
X0217541Y0192250D02*
X0217541Y0195152D01*
X0218992Y0195152D01*
X0219476Y0194669D01*
X0218509Y0193217D02*
X0219476Y0192250D01*
X0213681Y0190878D02*
X0213681Y0188943D01*
X0211746Y0190878D01*
X0211262Y0190878D01*
X0210778Y0190394D01*
X0210778Y0189427D01*
X0211262Y0188943D01*
X0211262Y0187931D02*
X0210778Y0187448D01*
X0210778Y0186480D01*
X0211262Y0185997D01*
X0211262Y0184985D02*
X0210778Y0184501D01*
X0210778Y0183534D01*
X0211262Y0183050D01*
X0213197Y0183050D01*
X0213681Y0183534D01*
X0213681Y0184501D01*
X0213197Y0184985D01*
X0213681Y0185997D02*
X0211746Y0187931D01*
X0211262Y0187931D01*
X0213681Y0187931D02*
X0213681Y0185997D01*
X0211985Y0169552D02*
X0211018Y0169552D01*
X0210534Y0169069D01*
X0211985Y0169552D02*
X0212469Y0169069D01*
X0212469Y0168585D01*
X0210534Y0166650D01*
X0212469Y0166650D01*
X0209523Y0166650D02*
X0207588Y0166650D01*
X0208555Y0166650D02*
X0208555Y0169552D01*
X0207588Y0168585D01*
X0206576Y0169069D02*
X0206576Y0168101D01*
X0206092Y0167617D01*
X0204641Y0167617D01*
X0204641Y0166650D02*
X0204641Y0169552D01*
X0206092Y0169552D01*
X0206576Y0169069D01*
X0205609Y0167617D02*
X0206576Y0166650D01*
X0199469Y0162469D02*
X0199469Y0160534D01*
X0198985Y0160050D01*
X0198018Y0160050D01*
X0197534Y0160534D01*
X0198018Y0161501D02*
X0199469Y0161501D01*
X0199469Y0162469D02*
X0198985Y0162952D01*
X0198018Y0162952D01*
X0197534Y0162469D01*
X0197534Y0161985D01*
X0198018Y0161501D01*
X0196523Y0161501D02*
X0196039Y0161017D01*
X0194588Y0161017D01*
X0194588Y0160050D02*
X0194588Y0162952D01*
X0196039Y0162952D01*
X0196523Y0162469D01*
X0196523Y0161501D01*
X0195555Y0161017D02*
X0196523Y0160050D01*
X0195332Y0155552D02*
X0194364Y0155552D01*
X0193881Y0155069D01*
X0193881Y0153134D01*
X0194364Y0152650D01*
X0195332Y0152650D01*
X0195816Y0153134D01*
X0196827Y0152650D02*
X0198762Y0152650D01*
X0197795Y0152650D02*
X0197795Y0155552D01*
X0196827Y0154585D01*
X0195816Y0155069D02*
X0195332Y0155552D01*
X0199774Y0155069D02*
X0199774Y0154585D01*
X0200257Y0154101D01*
X0201225Y0154101D01*
X0201709Y0153617D01*
X0201709Y0153134D01*
X0201225Y0152650D01*
X0200257Y0152650D01*
X0199774Y0153134D01*
X0199774Y0153617D01*
X0200257Y0154101D01*
X0201225Y0154101D02*
X0201709Y0154585D01*
X0201709Y0155069D01*
X0201225Y0155552D01*
X0200257Y0155552D01*
X0199774Y0155069D01*
X0210778Y0150394D02*
X0211262Y0150878D01*
X0213197Y0148943D01*
X0213681Y0149427D01*
X0213681Y0150394D01*
X0213197Y0150878D01*
X0211262Y0150878D01*
X0210778Y0150394D02*
X0210778Y0149427D01*
X0211262Y0148943D01*
X0213197Y0148943D01*
X0213681Y0147931D02*
X0213681Y0145997D01*
X0213681Y0146964D02*
X0210778Y0146964D01*
X0211746Y0145997D01*
X0212229Y0144985D02*
X0212713Y0144501D01*
X0212713Y0143050D01*
X0212713Y0144017D02*
X0213681Y0144985D01*
X0212229Y0144985D02*
X0211262Y0144985D01*
X0210778Y0144501D01*
X0210778Y0143050D01*
X0213681Y0143050D01*
X0261641Y0172334D02*
X0262125Y0171850D01*
X0263092Y0171850D01*
X0263576Y0172334D01*
X0264588Y0171850D02*
X0266523Y0173785D01*
X0266523Y0174269D01*
X0266039Y0174752D01*
X0265071Y0174752D01*
X0264588Y0174269D01*
X0263576Y0174269D02*
X0263092Y0174752D01*
X0262125Y0174752D01*
X0261641Y0174269D01*
X0261641Y0172334D01*
X0264588Y0171850D02*
X0266523Y0171850D01*
X0267534Y0172334D02*
X0269469Y0174269D01*
X0269469Y0172334D01*
X0268985Y0171850D01*
X0268018Y0171850D01*
X0267534Y0172334D01*
X0267534Y0174269D01*
X0268018Y0174752D01*
X0268985Y0174752D01*
X0269469Y0174269D01*
X0181169Y0190850D02*
X0179234Y0190850D01*
X0181169Y0192785D01*
X0181169Y0193269D01*
X0180685Y0193752D01*
X0179718Y0193752D01*
X0179234Y0193269D01*
X0177255Y0193752D02*
X0177255Y0190850D01*
X0176288Y0190850D02*
X0178223Y0190850D01*
X0176288Y0192785D02*
X0177255Y0193752D01*
X0175276Y0193269D02*
X0174792Y0193752D01*
X0173825Y0193752D01*
X0173341Y0193269D01*
X0173341Y0191334D01*
X0173825Y0190850D01*
X0174792Y0190850D01*
X0175276Y0191334D01*
X0162709Y0189652D02*
X0161741Y0189169D01*
X0160774Y0188201D01*
X0162225Y0188201D01*
X0162709Y0187717D01*
X0162709Y0187234D01*
X0162225Y0186750D01*
X0161257Y0186750D01*
X0160774Y0187234D01*
X0160774Y0188201D01*
X0159762Y0186750D02*
X0157827Y0186750D01*
X0158795Y0186750D02*
X0158795Y0189652D01*
X0157827Y0188685D01*
X0156816Y0189169D02*
X0156332Y0189652D01*
X0155364Y0189652D01*
X0154881Y0189169D01*
X0154881Y0187234D01*
X0155364Y0186750D01*
X0156332Y0186750D01*
X0156816Y0187234D01*
X0156432Y0182752D02*
X0155464Y0182752D01*
X0154981Y0182269D01*
X0154981Y0180334D01*
X0155464Y0179850D01*
X0156432Y0179850D01*
X0156916Y0180334D01*
X0157927Y0179850D02*
X0159862Y0179850D01*
X0158895Y0179850D02*
X0158895Y0182752D01*
X0157927Y0181785D01*
X0156916Y0182269D02*
X0156432Y0182752D01*
X0160874Y0181785D02*
X0161841Y0182752D01*
X0161841Y0179850D01*
X0160874Y0179850D02*
X0162809Y0179850D01*
X0154081Y0169038D02*
X0154081Y0167103D01*
X0152146Y0169038D01*
X0151662Y0169038D01*
X0151178Y0168555D01*
X0151178Y0167587D01*
X0151662Y0167103D01*
X0151662Y0166092D02*
X0151178Y0165608D01*
X0151178Y0164641D01*
X0151662Y0164157D01*
X0152146Y0164157D01*
X0152629Y0164641D01*
X0152629Y0165608D01*
X0153113Y0166092D01*
X0153597Y0166092D01*
X0154081Y0165608D01*
X0154081Y0164641D01*
X0153597Y0164157D01*
X0153597Y0163145D02*
X0151178Y0163145D01*
X0151178Y0161210D02*
X0153597Y0161210D01*
X0154081Y0161694D01*
X0154081Y0162662D01*
X0153597Y0163145D01*
X0154564Y0165124D02*
X0150694Y0165124D01*
X0149874Y0156452D02*
X0149874Y0155001D01*
X0150841Y0155485D01*
X0151325Y0155485D01*
X0151809Y0155001D01*
X0151809Y0154034D01*
X0151325Y0153550D01*
X0150357Y0153550D01*
X0149874Y0154034D01*
X0148862Y0153550D02*
X0146927Y0153550D01*
X0147895Y0153550D02*
X0147895Y0156452D01*
X0146927Y0155485D01*
X0145916Y0155969D02*
X0145432Y0156452D01*
X0144464Y0156452D01*
X0143981Y0155969D01*
X0143981Y0154034D01*
X0144464Y0153550D01*
X0145432Y0153550D01*
X0145916Y0154034D01*
X0149874Y0156452D02*
X0151809Y0156452D01*
X0142397Y0147038D02*
X0142881Y0146555D01*
X0142881Y0145587D01*
X0142397Y0145103D01*
X0142881Y0144092D02*
X0142881Y0142157D01*
X0142881Y0143124D02*
X0139978Y0143124D01*
X0140946Y0142157D01*
X0140462Y0141145D02*
X0139978Y0140662D01*
X0139978Y0139694D01*
X0140462Y0139210D01*
X0142397Y0139210D01*
X0142881Y0139694D01*
X0142881Y0140662D01*
X0142397Y0141145D01*
X0146481Y0141534D02*
X0146964Y0141050D01*
X0147932Y0141050D01*
X0148416Y0141534D01*
X0149427Y0141534D02*
X0149911Y0141050D01*
X0150878Y0141050D01*
X0151362Y0141534D01*
X0151362Y0143469D01*
X0150878Y0143952D01*
X0149911Y0143952D01*
X0149427Y0143469D01*
X0149427Y0142985D01*
X0149911Y0142501D01*
X0151362Y0142501D01*
X0148416Y0143469D02*
X0147932Y0143952D01*
X0146964Y0143952D01*
X0146481Y0143469D01*
X0146481Y0141534D01*
X0141429Y0146071D02*
X0141429Y0146555D01*
X0141913Y0147038D01*
X0142397Y0147038D01*
X0141429Y0146555D02*
X0140946Y0147038D01*
X0140462Y0147038D01*
X0139978Y0146555D01*
X0139978Y0145587D01*
X0140462Y0145103D01*
X0128681Y0144985D02*
X0127713Y0144017D01*
X0127713Y0144501D02*
X0127713Y0143050D01*
X0128681Y0143050D02*
X0125778Y0143050D01*
X0125778Y0144501D01*
X0126262Y0144985D01*
X0127229Y0144985D01*
X0127713Y0144501D01*
X0127229Y0145997D02*
X0127229Y0147448D01*
X0127713Y0147931D01*
X0128197Y0147931D01*
X0128681Y0147448D01*
X0128681Y0146480D01*
X0128197Y0145997D01*
X0127229Y0145997D01*
X0126262Y0146964D01*
X0125778Y0147931D01*
X0117809Y0152934D02*
X0117325Y0152450D01*
X0116357Y0152450D01*
X0115874Y0152934D01*
X0117809Y0154869D01*
X0117809Y0152934D01*
X0117809Y0154869D02*
X0117325Y0155352D01*
X0116357Y0155352D01*
X0115874Y0154869D01*
X0115874Y0152934D01*
X0114862Y0152450D02*
X0112927Y0152450D01*
X0113895Y0152450D02*
X0113895Y0155352D01*
X0112927Y0154385D01*
X0111916Y0154869D02*
X0111432Y0155352D01*
X0110464Y0155352D01*
X0109981Y0154869D01*
X0109981Y0152934D01*
X0110464Y0152450D01*
X0111432Y0152450D01*
X0111916Y0152934D01*
X0112388Y0160050D02*
X0112388Y0162952D01*
X0113839Y0162952D01*
X0114323Y0162469D01*
X0114323Y0161501D01*
X0113839Y0161017D01*
X0112388Y0161017D01*
X0113355Y0161017D02*
X0114323Y0160050D01*
X0115334Y0160534D02*
X0115818Y0160050D01*
X0116785Y0160050D01*
X0117269Y0160534D01*
X0117269Y0161501D01*
X0116785Y0161985D01*
X0116302Y0161985D01*
X0115334Y0161501D01*
X0115334Y0162952D01*
X0117269Y0162952D01*
X0119988Y0166650D02*
X0119988Y0169552D01*
X0121439Y0169552D01*
X0121923Y0169069D01*
X0121923Y0168101D01*
X0121439Y0167617D01*
X0119988Y0167617D01*
X0120955Y0167617D02*
X0121923Y0166650D01*
X0122934Y0167134D02*
X0122934Y0167617D01*
X0123418Y0168101D01*
X0124385Y0168101D01*
X0124869Y0167617D01*
X0124869Y0167134D01*
X0124385Y0166650D01*
X0123418Y0166650D01*
X0122934Y0167134D01*
X0123418Y0168101D02*
X0122934Y0168585D01*
X0122934Y0169069D01*
X0123418Y0169552D01*
X0124385Y0169552D01*
X0124869Y0169069D01*
X0124869Y0168585D01*
X0124385Y0168101D01*
X0126262Y0183050D02*
X0128197Y0183050D01*
X0128681Y0183534D01*
X0128681Y0184501D01*
X0128197Y0184985D01*
X0128681Y0185997D02*
X0128681Y0187931D01*
X0128681Y0186964D02*
X0125778Y0186964D01*
X0126746Y0185997D01*
X0126262Y0184985D02*
X0125778Y0184501D01*
X0125778Y0183534D01*
X0126262Y0183050D01*
X0127229Y0188943D02*
X0125778Y0190394D01*
X0128681Y0190394D01*
X0127229Y0190878D02*
X0127229Y0188943D01*
X0135778Y0190850D02*
X0135778Y0192301D01*
X0136262Y0192785D01*
X0137229Y0192785D01*
X0137713Y0192301D01*
X0137713Y0190850D01*
X0137713Y0191817D02*
X0138681Y0192785D01*
X0138681Y0193797D02*
X0138197Y0193797D01*
X0136262Y0195731D01*
X0135778Y0195731D01*
X0135778Y0193797D01*
X0135778Y0190850D02*
X0138681Y0190850D01*
X0083225Y0207753D02*
X0081290Y0207753D01*
X0083225Y0209688D01*
X0083225Y0210172D01*
X0082742Y0210656D01*
X0081774Y0210656D01*
X0081290Y0210172D01*
X0079311Y0210656D02*
X0079311Y0207753D01*
X0078344Y0207753D02*
X0080279Y0207753D01*
X0078344Y0209688D02*
X0079311Y0210656D01*
X0077332Y0207753D02*
X0075397Y0207753D01*
X0075397Y0210656D01*
X0074386Y0210172D02*
X0074386Y0209204D01*
X0073902Y0208721D01*
X0072451Y0208721D01*
X0072451Y0207753D02*
X0072451Y0210656D01*
X0073902Y0210656D01*
X0074386Y0210172D01*
X0043827Y0165752D02*
X0043827Y0162850D01*
X0041892Y0165752D01*
X0041892Y0162850D01*
X0040895Y0162850D02*
X0039927Y0162850D01*
X0040411Y0162850D02*
X0040411Y0165752D01*
X0039927Y0165752D02*
X0040895Y0165752D01*
X0038916Y0165752D02*
X0038916Y0163817D01*
X0037948Y0162850D01*
X0036981Y0163817D01*
X0036981Y0165752D01*
X0104588Y0122369D02*
X0104588Y0120434D01*
X0105071Y0119950D01*
X0106039Y0119950D01*
X0106523Y0120434D01*
X0107534Y0121401D02*
X0109469Y0121401D01*
X0108985Y0119950D02*
X0108985Y0122852D01*
X0107534Y0121401D01*
X0106523Y0122369D02*
X0106039Y0122852D01*
X0105071Y0122852D01*
X0104588Y0122369D01*
X0122378Y0113441D02*
X0122378Y0112473D01*
X0122862Y0111990D01*
X0122862Y0110978D02*
X0122378Y0110494D01*
X0122378Y0109043D01*
X0125281Y0109043D01*
X0125281Y0110494D01*
X0124797Y0110978D01*
X0122862Y0110978D01*
X0122378Y0113441D02*
X0122862Y0113925D01*
X0123346Y0113925D01*
X0125281Y0111990D01*
X0125281Y0113925D01*
X0125281Y0108031D02*
X0125281Y0106097D01*
X0122378Y0106097D01*
X0122378Y0108031D01*
X0123829Y0107064D02*
X0123829Y0106097D01*
X0125281Y0105085D02*
X0125281Y0103150D01*
X0122378Y0103150D01*
X0123829Y0098438D02*
X0123829Y0096503D01*
X0122378Y0097955D01*
X0125281Y0097955D01*
X0125281Y0095492D02*
X0125281Y0093557D01*
X0125281Y0094524D02*
X0122378Y0094524D01*
X0123346Y0093557D01*
X0122862Y0092545D02*
X0123829Y0092545D01*
X0124313Y0092062D01*
X0124313Y0090610D01*
X0125281Y0090610D02*
X0122378Y0090610D01*
X0122378Y0092062D01*
X0122862Y0092545D01*
X0124313Y0091578D02*
X0125281Y0092545D01*
X0137478Y0091462D02*
X0137478Y0090010D01*
X0140381Y0090010D01*
X0139413Y0090010D02*
X0139413Y0091462D01*
X0138929Y0091945D01*
X0137962Y0091945D01*
X0137478Y0091462D01*
X0138446Y0092957D02*
X0137478Y0093924D01*
X0140381Y0093924D01*
X0140381Y0092957D02*
X0140381Y0094892D01*
X0139897Y0095903D02*
X0140381Y0096387D01*
X0140381Y0097355D01*
X0139897Y0097838D01*
X0139413Y0097838D01*
X0138929Y0097355D01*
X0138929Y0096871D01*
X0138929Y0097355D02*
X0138446Y0097838D01*
X0137962Y0097838D01*
X0137478Y0097355D01*
X0137478Y0096387D01*
X0137962Y0095903D01*
X0140381Y0091945D02*
X0139413Y0090978D01*
X0137978Y0103250D02*
X0140881Y0103250D01*
X0140881Y0105185D01*
X0140881Y0106197D02*
X0140881Y0108131D01*
X0140881Y0109143D02*
X0140881Y0110594D01*
X0140397Y0111078D01*
X0138462Y0111078D01*
X0137978Y0110594D01*
X0137978Y0109143D01*
X0140881Y0109143D01*
X0139429Y0107164D02*
X0139429Y0106197D01*
X0137978Y0106197D02*
X0140881Y0106197D01*
X0137978Y0106197D02*
X0137978Y0108131D01*
X0138946Y0112090D02*
X0137978Y0113057D01*
X0140881Y0113057D01*
X0140881Y0112090D02*
X0140881Y0114025D01*
D12*
X0117831Y0102650D02*
X0117831Y0077150D01*
X0090831Y0077150D01*
X0090831Y0102650D01*
X0117831Y0102650D01*
X0079705Y0101306D02*
X0079705Y0089494D01*
X0063957Y0089494D01*
X0063957Y0101306D01*
X0079705Y0101306D01*
X0061398Y0087526D02*
X0061400Y0087588D01*
X0061406Y0087651D01*
X0061416Y0087712D01*
X0061430Y0087773D01*
X0061447Y0087833D01*
X0061468Y0087892D01*
X0061494Y0087949D01*
X0061522Y0088004D01*
X0061554Y0088058D01*
X0061590Y0088109D01*
X0061628Y0088159D01*
X0061670Y0088205D01*
X0061714Y0088249D01*
X0061762Y0088290D01*
X0061811Y0088328D01*
X0061863Y0088362D01*
X0061917Y0088393D01*
X0061973Y0088421D01*
X0062031Y0088445D01*
X0062090Y0088466D01*
X0062150Y0088482D01*
X0062211Y0088495D01*
X0062273Y0088504D01*
X0062335Y0088509D01*
X0062398Y0088510D01*
X0062460Y0088507D01*
X0062522Y0088500D01*
X0062584Y0088489D01*
X0062644Y0088474D01*
X0062704Y0088456D01*
X0062762Y0088434D01*
X0062819Y0088408D01*
X0062874Y0088378D01*
X0062927Y0088345D01*
X0062978Y0088309D01*
X0063026Y0088270D01*
X0063072Y0088227D01*
X0063115Y0088182D01*
X0063155Y0088134D01*
X0063192Y0088084D01*
X0063226Y0088031D01*
X0063257Y0087977D01*
X0063283Y0087921D01*
X0063307Y0087863D01*
X0063326Y0087803D01*
X0063342Y0087743D01*
X0063354Y0087681D01*
X0063362Y0087620D01*
X0063366Y0087557D01*
X0063366Y0087495D01*
X0063362Y0087432D01*
X0063354Y0087371D01*
X0063342Y0087309D01*
X0063326Y0087249D01*
X0063307Y0087189D01*
X0063283Y0087131D01*
X0063257Y0087075D01*
X0063226Y0087021D01*
X0063192Y0086968D01*
X0063155Y0086918D01*
X0063115Y0086870D01*
X0063072Y0086825D01*
X0063026Y0086782D01*
X0062978Y0086743D01*
X0062927Y0086707D01*
X0062874Y0086674D01*
X0062819Y0086644D01*
X0062762Y0086618D01*
X0062704Y0086596D01*
X0062644Y0086578D01*
X0062584Y0086563D01*
X0062522Y0086552D01*
X0062460Y0086545D01*
X0062398Y0086542D01*
X0062335Y0086543D01*
X0062273Y0086548D01*
X0062211Y0086557D01*
X0062150Y0086570D01*
X0062090Y0086586D01*
X0062031Y0086607D01*
X0061973Y0086631D01*
X0061917Y0086659D01*
X0061863Y0086690D01*
X0061811Y0086724D01*
X0061762Y0086762D01*
X0061714Y0086803D01*
X0061670Y0086847D01*
X0061628Y0086893D01*
X0061590Y0086943D01*
X0061554Y0086994D01*
X0061522Y0087048D01*
X0061494Y0087103D01*
X0061468Y0087160D01*
X0061447Y0087219D01*
X0061430Y0087279D01*
X0061416Y0087340D01*
X0061406Y0087401D01*
X0061400Y0087464D01*
X0061398Y0087526D01*
X0131398Y0157526D02*
X0131400Y0157588D01*
X0131406Y0157651D01*
X0131416Y0157712D01*
X0131430Y0157773D01*
X0131447Y0157833D01*
X0131468Y0157892D01*
X0131494Y0157949D01*
X0131522Y0158004D01*
X0131554Y0158058D01*
X0131590Y0158109D01*
X0131628Y0158159D01*
X0131670Y0158205D01*
X0131714Y0158249D01*
X0131762Y0158290D01*
X0131811Y0158328D01*
X0131863Y0158362D01*
X0131917Y0158393D01*
X0131973Y0158421D01*
X0132031Y0158445D01*
X0132090Y0158466D01*
X0132150Y0158482D01*
X0132211Y0158495D01*
X0132273Y0158504D01*
X0132335Y0158509D01*
X0132398Y0158510D01*
X0132460Y0158507D01*
X0132522Y0158500D01*
X0132584Y0158489D01*
X0132644Y0158474D01*
X0132704Y0158456D01*
X0132762Y0158434D01*
X0132819Y0158408D01*
X0132874Y0158378D01*
X0132927Y0158345D01*
X0132978Y0158309D01*
X0133026Y0158270D01*
X0133072Y0158227D01*
X0133115Y0158182D01*
X0133155Y0158134D01*
X0133192Y0158084D01*
X0133226Y0158031D01*
X0133257Y0157977D01*
X0133283Y0157921D01*
X0133307Y0157863D01*
X0133326Y0157803D01*
X0133342Y0157743D01*
X0133354Y0157681D01*
X0133362Y0157620D01*
X0133366Y0157557D01*
X0133366Y0157495D01*
X0133362Y0157432D01*
X0133354Y0157371D01*
X0133342Y0157309D01*
X0133326Y0157249D01*
X0133307Y0157189D01*
X0133283Y0157131D01*
X0133257Y0157075D01*
X0133226Y0157021D01*
X0133192Y0156968D01*
X0133155Y0156918D01*
X0133115Y0156870D01*
X0133072Y0156825D01*
X0133026Y0156782D01*
X0132978Y0156743D01*
X0132927Y0156707D01*
X0132874Y0156674D01*
X0132819Y0156644D01*
X0132762Y0156618D01*
X0132704Y0156596D01*
X0132644Y0156578D01*
X0132584Y0156563D01*
X0132522Y0156552D01*
X0132460Y0156545D01*
X0132398Y0156542D01*
X0132335Y0156543D01*
X0132273Y0156548D01*
X0132211Y0156557D01*
X0132150Y0156570D01*
X0132090Y0156586D01*
X0132031Y0156607D01*
X0131973Y0156631D01*
X0131917Y0156659D01*
X0131863Y0156690D01*
X0131811Y0156724D01*
X0131762Y0156762D01*
X0131714Y0156803D01*
X0131670Y0156847D01*
X0131628Y0156893D01*
X0131590Y0156943D01*
X0131554Y0156994D01*
X0131522Y0157048D01*
X0131494Y0157103D01*
X0131468Y0157160D01*
X0131447Y0157219D01*
X0131430Y0157279D01*
X0131416Y0157340D01*
X0131406Y0157401D01*
X0131400Y0157464D01*
X0131398Y0157526D01*
X0133957Y0159494D02*
X0133957Y0171306D01*
X0149705Y0171306D01*
X0149705Y0159494D01*
X0133957Y0159494D01*
X0160831Y0147150D02*
X0160831Y0172650D01*
X0187831Y0172650D01*
X0187831Y0147150D01*
X0160831Y0147150D01*
X0216398Y0157526D02*
X0216400Y0157588D01*
X0216406Y0157651D01*
X0216416Y0157712D01*
X0216430Y0157773D01*
X0216447Y0157833D01*
X0216468Y0157892D01*
X0216494Y0157949D01*
X0216522Y0158004D01*
X0216554Y0158058D01*
X0216590Y0158109D01*
X0216628Y0158159D01*
X0216670Y0158205D01*
X0216714Y0158249D01*
X0216762Y0158290D01*
X0216811Y0158328D01*
X0216863Y0158362D01*
X0216917Y0158393D01*
X0216973Y0158421D01*
X0217031Y0158445D01*
X0217090Y0158466D01*
X0217150Y0158482D01*
X0217211Y0158495D01*
X0217273Y0158504D01*
X0217335Y0158509D01*
X0217398Y0158510D01*
X0217460Y0158507D01*
X0217522Y0158500D01*
X0217584Y0158489D01*
X0217644Y0158474D01*
X0217704Y0158456D01*
X0217762Y0158434D01*
X0217819Y0158408D01*
X0217874Y0158378D01*
X0217927Y0158345D01*
X0217978Y0158309D01*
X0218026Y0158270D01*
X0218072Y0158227D01*
X0218115Y0158182D01*
X0218155Y0158134D01*
X0218192Y0158084D01*
X0218226Y0158031D01*
X0218257Y0157977D01*
X0218283Y0157921D01*
X0218307Y0157863D01*
X0218326Y0157803D01*
X0218342Y0157743D01*
X0218354Y0157681D01*
X0218362Y0157620D01*
X0218366Y0157557D01*
X0218366Y0157495D01*
X0218362Y0157432D01*
X0218354Y0157371D01*
X0218342Y0157309D01*
X0218326Y0157249D01*
X0218307Y0157189D01*
X0218283Y0157131D01*
X0218257Y0157075D01*
X0218226Y0157021D01*
X0218192Y0156968D01*
X0218155Y0156918D01*
X0218115Y0156870D01*
X0218072Y0156825D01*
X0218026Y0156782D01*
X0217978Y0156743D01*
X0217927Y0156707D01*
X0217874Y0156674D01*
X0217819Y0156644D01*
X0217762Y0156618D01*
X0217704Y0156596D01*
X0217644Y0156578D01*
X0217584Y0156563D01*
X0217522Y0156552D01*
X0217460Y0156545D01*
X0217398Y0156542D01*
X0217335Y0156543D01*
X0217273Y0156548D01*
X0217211Y0156557D01*
X0217150Y0156570D01*
X0217090Y0156586D01*
X0217031Y0156607D01*
X0216973Y0156631D01*
X0216917Y0156659D01*
X0216863Y0156690D01*
X0216811Y0156724D01*
X0216762Y0156762D01*
X0216714Y0156803D01*
X0216670Y0156847D01*
X0216628Y0156893D01*
X0216590Y0156943D01*
X0216554Y0156994D01*
X0216522Y0157048D01*
X0216494Y0157103D01*
X0216468Y0157160D01*
X0216447Y0157219D01*
X0216430Y0157279D01*
X0216416Y0157340D01*
X0216406Y0157401D01*
X0216400Y0157464D01*
X0216398Y0157526D01*
X0218957Y0159494D02*
X0218957Y0171306D01*
X0234705Y0171306D01*
X0234705Y0159494D01*
X0218957Y0159494D01*
X0245831Y0147150D02*
X0245831Y0172650D01*
X0272831Y0172650D01*
X0272831Y0147150D01*
X0245831Y0147150D01*
X0254783Y0237093D02*
X0254783Y0257093D01*
X0054783Y0257093D01*
X0054783Y0247093D01*
X0064783Y0247093D01*
X0064783Y0237093D01*
X0254783Y0237093D01*
X0064783Y0237093D02*
X0061033Y0237093D01*
X0061033Y0235843D01*
X0058533Y0235843D01*
X0058533Y0237093D01*
X0061033Y0237093D01*
X0058533Y0237093D02*
X0054783Y0237093D01*
X0054783Y0247093D01*
D13*
X0059934Y0234646D02*
X0059934Y0231043D01*
X0058733Y0231043D02*
X0061136Y0231043D01*
X0058733Y0233445D02*
X0059934Y0234646D01*
X0059308Y0165004D02*
X0056239Y0165004D01*
X0056239Y0162702D01*
X0057773Y0163469D01*
X0058541Y0163469D01*
X0059308Y0162702D01*
X0059308Y0161167D01*
X0058541Y0160400D01*
X0057006Y0160400D01*
X0056239Y0161167D01*
X0054704Y0160400D02*
X0051635Y0160400D01*
X0053169Y0160400D02*
X0053169Y0165004D01*
X0051635Y0163469D01*
X0050100Y0162702D02*
X0049333Y0161935D01*
X0047031Y0161935D01*
X0048565Y0161935D02*
X0050100Y0160400D01*
X0050100Y0162702D02*
X0050100Y0164237D01*
X0049333Y0165004D01*
X0047031Y0165004D01*
X0047031Y0160400D01*
X0047798Y0155004D02*
X0049333Y0155004D01*
X0050100Y0154237D01*
X0050100Y0153469D01*
X0049333Y0152702D01*
X0050100Y0151935D01*
X0050100Y0151167D01*
X0049333Y0150400D01*
X0047798Y0150400D01*
X0047031Y0151167D01*
X0048565Y0152702D02*
X0049333Y0152702D01*
X0051635Y0154237D02*
X0052402Y0155004D01*
X0053937Y0155004D01*
X0054704Y0154237D01*
X0054704Y0153469D01*
X0053937Y0152702D01*
X0054704Y0151935D01*
X0054704Y0151167D01*
X0053937Y0150400D01*
X0052402Y0150400D01*
X0051635Y0151167D01*
X0053169Y0152702D02*
X0053937Y0152702D01*
X0056239Y0151167D02*
X0056239Y0154237D01*
X0057006Y0155004D01*
X0058541Y0155004D01*
X0059308Y0154237D01*
X0056239Y0151167D01*
X0057006Y0150400D01*
X0058541Y0150400D01*
X0059308Y0151167D01*
X0059308Y0154237D01*
X0047798Y0155004D02*
X0047031Y0154237D01*
X0037596Y0154137D02*
X0037596Y0153369D01*
X0036829Y0152602D01*
X0037596Y0151835D01*
X0037596Y0151067D01*
X0036829Y0150300D01*
X0035294Y0150300D01*
X0034527Y0151067D01*
X0032992Y0151067D02*
X0032992Y0154137D01*
X0032225Y0154904D01*
X0029923Y0154904D01*
X0029923Y0150300D01*
X0032225Y0150300D01*
X0032992Y0151067D01*
X0036061Y0152602D02*
X0036829Y0152602D01*
X0037596Y0154137D02*
X0036829Y0154904D01*
X0035294Y0154904D01*
X0034527Y0154137D01*
X0028388Y0154904D02*
X0025319Y0154904D01*
X0025319Y0150300D01*
X0028388Y0150300D01*
X0026854Y0152602D02*
X0025319Y0152602D01*
X0023784Y0150300D02*
X0020715Y0150300D01*
X0020715Y0154904D01*
D14*
X0059374Y0200400D02*
X0073941Y0200400D01*
D15*
X0060161Y0189770D02*
X0051500Y0189770D01*
X0027484Y0189770D02*
X0027484Y0170085D01*
X0052287Y0170085D01*
X0052287Y0230715D01*
X0027484Y0230715D01*
X0027484Y0211030D01*
X0001500Y0211030D01*
X0001500Y0189770D01*
X0027484Y0189770D01*
X0054231Y0047800D02*
X0054231Y0035300D01*
X0057731Y0035300D01*
X0057731Y0010800D01*
X0059031Y0009400D01*
X0059231Y0003800D02*
X0060231Y0001800D01*
X0064031Y0001800D01*
X0064431Y0001800D01*
X0064031Y0001800D02*
X0068231Y0001800D01*
X0069231Y0003800D01*
X0069231Y0035300D01*
X0074231Y0035300D01*
X0074231Y0047800D01*
X0071731Y0047800D01*
X0071731Y0045300D01*
X0066731Y0045300D01*
X0066731Y0047800D01*
X0061731Y0047800D01*
X0061731Y0045300D01*
X0056731Y0045300D01*
X0056731Y0047800D01*
X0054231Y0047800D01*
X0057731Y0035300D02*
X0069231Y0035300D01*
X0070731Y0035300D02*
X0070731Y0010800D01*
X0069431Y0009400D01*
X0079131Y0010700D02*
X0080431Y0009300D01*
X0079131Y0010700D02*
X0079131Y0035200D01*
X0090631Y0035200D01*
X0090631Y0003700D01*
X0089631Y0001700D01*
X0085431Y0001700D01*
X0085831Y0001700D01*
X0085431Y0001700D02*
X0081631Y0001700D01*
X0080631Y0003700D01*
X0080631Y0035200D01*
X0079131Y0035200D02*
X0075631Y0035200D01*
X0075631Y0047700D01*
X0078131Y0047700D01*
X0078131Y0045200D01*
X0083131Y0045200D01*
X0083131Y0047700D01*
X0088131Y0047700D01*
X0088131Y0045200D01*
X0093131Y0045200D01*
X0093131Y0047700D01*
X0095631Y0047700D01*
X0095631Y0035200D01*
X0090631Y0035200D01*
X0092131Y0035200D02*
X0092131Y0010700D01*
X0090831Y0009300D01*
X0100431Y0010600D02*
X0101731Y0009200D01*
X0100431Y0010600D02*
X0100431Y0035100D01*
X0111931Y0035100D01*
X0111931Y0003600D01*
X0110931Y0001600D01*
X0106731Y0001600D01*
X0107131Y0001600D01*
X0106731Y0001600D02*
X0102931Y0001600D01*
X0101931Y0003600D01*
X0101931Y0035100D01*
X0100431Y0035100D02*
X0096931Y0035100D01*
X0096931Y0047600D01*
X0099431Y0047600D01*
X0099431Y0045100D01*
X0104431Y0045100D01*
X0104431Y0047600D01*
X0109431Y0047600D01*
X0109431Y0045100D01*
X0114431Y0045100D01*
X0114431Y0047600D01*
X0116931Y0047600D01*
X0116931Y0035100D01*
X0111931Y0035100D01*
X0113431Y0035100D02*
X0113431Y0010600D01*
X0112131Y0009200D01*
X0122031Y0010700D02*
X0123331Y0009300D01*
X0122031Y0010700D02*
X0122031Y0035200D01*
X0133531Y0035200D01*
X0133531Y0003700D01*
X0132531Y0001700D01*
X0128331Y0001700D01*
X0128731Y0001700D01*
X0128331Y0001700D02*
X0124531Y0001700D01*
X0123531Y0003700D01*
X0123531Y0035200D01*
X0122031Y0035200D02*
X0118531Y0035200D01*
X0118531Y0047700D01*
X0121031Y0047700D01*
X0121031Y0045200D01*
X0126031Y0045200D01*
X0126031Y0047700D01*
X0131031Y0047700D01*
X0131031Y0045200D01*
X0136031Y0045200D01*
X0136031Y0047700D01*
X0138531Y0047700D01*
X0138531Y0035200D01*
X0133531Y0035200D01*
X0135031Y0035200D02*
X0135031Y0010700D01*
X0133731Y0009300D01*
X0143731Y0010600D02*
X0145031Y0009200D01*
X0143731Y0010600D02*
X0143731Y0035100D01*
X0155231Y0035100D01*
X0155231Y0003600D01*
X0154231Y0001600D01*
X0150031Y0001600D01*
X0150431Y0001600D01*
X0150031Y0001600D02*
X0146231Y0001600D01*
X0145231Y0003600D01*
X0145231Y0035100D01*
X0143731Y0035100D02*
X0140231Y0035100D01*
X0140231Y0047600D01*
X0142731Y0047600D01*
X0142731Y0045100D01*
X0147731Y0045100D01*
X0147731Y0047600D01*
X0152731Y0047600D01*
X0152731Y0045100D01*
X0157731Y0045100D01*
X0157731Y0047600D01*
X0160231Y0047600D01*
X0160231Y0035100D01*
X0155231Y0035100D01*
X0156731Y0035100D02*
X0156731Y0010600D01*
X0155431Y0009200D01*
X0165231Y0010500D02*
X0166531Y0009100D01*
X0165231Y0010500D02*
X0165231Y0035000D01*
X0176731Y0035000D01*
X0176731Y0003500D01*
X0175731Y0001500D01*
X0171531Y0001500D01*
X0171931Y0001500D01*
X0171531Y0001500D02*
X0167731Y0001500D01*
X0166731Y0003500D01*
X0166731Y0035000D01*
X0165231Y0035000D02*
X0161731Y0035000D01*
X0161731Y0047500D01*
X0164231Y0047500D01*
X0164231Y0045000D01*
X0169231Y0045000D01*
X0169231Y0047500D01*
X0174231Y0047500D01*
X0174231Y0045000D01*
X0179231Y0045000D01*
X0179231Y0047500D01*
X0181731Y0047500D01*
X0181731Y0035000D01*
X0176731Y0035000D01*
X0178231Y0035000D02*
X0178231Y0010500D01*
X0176931Y0009100D01*
X0187131Y0010700D02*
X0188431Y0009300D01*
X0187131Y0010700D02*
X0187131Y0035200D01*
X0198631Y0035200D01*
X0198631Y0003700D01*
X0197631Y0001700D01*
X0193431Y0001700D01*
X0193831Y0001700D01*
X0193431Y0001700D02*
X0189631Y0001700D01*
X0188631Y0003700D01*
X0188631Y0035200D01*
X0187131Y0035200D02*
X0183631Y0035200D01*
X0183631Y0047700D01*
X0186131Y0047700D01*
X0186131Y0045200D01*
X0191131Y0045200D01*
X0191131Y0047700D01*
X0196131Y0047700D01*
X0196131Y0045200D01*
X0201131Y0045200D01*
X0201131Y0047700D01*
X0203631Y0047700D01*
X0203631Y0035200D01*
X0198631Y0035200D01*
X0200131Y0035200D02*
X0200131Y0010700D01*
X0198831Y0009300D01*
X0208831Y0010600D02*
X0210131Y0009200D01*
X0208831Y0010600D02*
X0208831Y0035100D01*
X0220331Y0035100D01*
X0220331Y0003600D01*
X0219331Y0001600D01*
X0215131Y0001600D01*
X0215531Y0001600D01*
X0215131Y0001600D02*
X0211331Y0001600D01*
X0210331Y0003600D01*
X0210331Y0035100D01*
X0208831Y0035100D02*
X0205331Y0035100D01*
X0205331Y0047600D01*
X0207831Y0047600D01*
X0207831Y0045100D01*
X0212831Y0045100D01*
X0212831Y0047600D01*
X0217831Y0047600D01*
X0217831Y0045100D01*
X0222831Y0045100D01*
X0222831Y0047600D01*
X0225331Y0047600D01*
X0225331Y0035100D01*
X0220331Y0035100D01*
X0221831Y0035100D02*
X0221831Y0010600D01*
X0220531Y0009200D01*
X0230331Y0010600D02*
X0231631Y0009200D01*
X0230331Y0010600D02*
X0230331Y0035100D01*
X0241831Y0035100D01*
X0241831Y0003600D01*
X0240831Y0001600D01*
X0236631Y0001600D01*
X0237031Y0001600D01*
X0236631Y0001600D02*
X0232831Y0001600D01*
X0231831Y0003600D01*
X0231831Y0035100D01*
X0230331Y0035100D02*
X0226831Y0035100D01*
X0226831Y0047600D01*
X0229331Y0047600D01*
X0229331Y0045100D01*
X0234331Y0045100D01*
X0234331Y0047600D01*
X0239331Y0047600D01*
X0239331Y0045100D01*
X0244331Y0045100D01*
X0244331Y0047600D01*
X0246831Y0047600D01*
X0246831Y0035100D01*
X0241831Y0035100D01*
X0243331Y0035100D02*
X0243331Y0010600D01*
X0242031Y0009200D01*
X0059231Y0003800D02*
X0059231Y0035300D01*
D16*
X0032996Y0182683D02*
X0032998Y0182841D01*
X0033004Y0182999D01*
X0033014Y0183157D01*
X0033028Y0183315D01*
X0033046Y0183472D01*
X0033067Y0183629D01*
X0033093Y0183785D01*
X0033123Y0183941D01*
X0033156Y0184096D01*
X0033194Y0184249D01*
X0033235Y0184402D01*
X0033280Y0184554D01*
X0033329Y0184705D01*
X0033382Y0184854D01*
X0033438Y0185002D01*
X0033498Y0185148D01*
X0033562Y0185293D01*
X0033630Y0185436D01*
X0033701Y0185578D01*
X0033775Y0185718D01*
X0033853Y0185855D01*
X0033935Y0185991D01*
X0034019Y0186125D01*
X0034108Y0186256D01*
X0034199Y0186385D01*
X0034294Y0186512D01*
X0034391Y0186637D01*
X0034492Y0186759D01*
X0034596Y0186878D01*
X0034703Y0186995D01*
X0034813Y0187109D01*
X0034926Y0187220D01*
X0035041Y0187329D01*
X0035159Y0187434D01*
X0035280Y0187536D01*
X0035403Y0187636D01*
X0035529Y0187732D01*
X0035657Y0187825D01*
X0035787Y0187915D01*
X0035920Y0188001D01*
X0036055Y0188085D01*
X0036191Y0188164D01*
X0036330Y0188241D01*
X0036471Y0188313D01*
X0036613Y0188383D01*
X0036757Y0188448D01*
X0036903Y0188510D01*
X0037050Y0188568D01*
X0037199Y0188623D01*
X0037349Y0188674D01*
X0037500Y0188721D01*
X0037652Y0188764D01*
X0037805Y0188803D01*
X0037960Y0188839D01*
X0038115Y0188870D01*
X0038271Y0188898D01*
X0038427Y0188922D01*
X0038584Y0188942D01*
X0038742Y0188958D01*
X0038899Y0188970D01*
X0039058Y0188978D01*
X0039216Y0188982D01*
X0039374Y0188982D01*
X0039532Y0188978D01*
X0039691Y0188970D01*
X0039848Y0188958D01*
X0040006Y0188942D01*
X0040163Y0188922D01*
X0040319Y0188898D01*
X0040475Y0188870D01*
X0040630Y0188839D01*
X0040785Y0188803D01*
X0040938Y0188764D01*
X0041090Y0188721D01*
X0041241Y0188674D01*
X0041391Y0188623D01*
X0041540Y0188568D01*
X0041687Y0188510D01*
X0041833Y0188448D01*
X0041977Y0188383D01*
X0042119Y0188313D01*
X0042260Y0188241D01*
X0042399Y0188164D01*
X0042535Y0188085D01*
X0042670Y0188001D01*
X0042803Y0187915D01*
X0042933Y0187825D01*
X0043061Y0187732D01*
X0043187Y0187636D01*
X0043310Y0187536D01*
X0043431Y0187434D01*
X0043549Y0187329D01*
X0043664Y0187220D01*
X0043777Y0187109D01*
X0043887Y0186995D01*
X0043994Y0186878D01*
X0044098Y0186759D01*
X0044199Y0186637D01*
X0044296Y0186512D01*
X0044391Y0186385D01*
X0044482Y0186256D01*
X0044571Y0186125D01*
X0044655Y0185991D01*
X0044737Y0185855D01*
X0044815Y0185718D01*
X0044889Y0185578D01*
X0044960Y0185436D01*
X0045028Y0185293D01*
X0045092Y0185148D01*
X0045152Y0185002D01*
X0045208Y0184854D01*
X0045261Y0184705D01*
X0045310Y0184554D01*
X0045355Y0184402D01*
X0045396Y0184249D01*
X0045434Y0184096D01*
X0045467Y0183941D01*
X0045497Y0183785D01*
X0045523Y0183629D01*
X0045544Y0183472D01*
X0045562Y0183315D01*
X0045576Y0183157D01*
X0045586Y0182999D01*
X0045592Y0182841D01*
X0045594Y0182683D01*
X0045592Y0182525D01*
X0045586Y0182367D01*
X0045576Y0182209D01*
X0045562Y0182051D01*
X0045544Y0181894D01*
X0045523Y0181737D01*
X0045497Y0181581D01*
X0045467Y0181425D01*
X0045434Y0181270D01*
X0045396Y0181117D01*
X0045355Y0180964D01*
X0045310Y0180812D01*
X0045261Y0180661D01*
X0045208Y0180512D01*
X0045152Y0180364D01*
X0045092Y0180218D01*
X0045028Y0180073D01*
X0044960Y0179930D01*
X0044889Y0179788D01*
X0044815Y0179648D01*
X0044737Y0179511D01*
X0044655Y0179375D01*
X0044571Y0179241D01*
X0044482Y0179110D01*
X0044391Y0178981D01*
X0044296Y0178854D01*
X0044199Y0178729D01*
X0044098Y0178607D01*
X0043994Y0178488D01*
X0043887Y0178371D01*
X0043777Y0178257D01*
X0043664Y0178146D01*
X0043549Y0178037D01*
X0043431Y0177932D01*
X0043310Y0177830D01*
X0043187Y0177730D01*
X0043061Y0177634D01*
X0042933Y0177541D01*
X0042803Y0177451D01*
X0042670Y0177365D01*
X0042535Y0177281D01*
X0042399Y0177202D01*
X0042260Y0177125D01*
X0042119Y0177053D01*
X0041977Y0176983D01*
X0041833Y0176918D01*
X0041687Y0176856D01*
X0041540Y0176798D01*
X0041391Y0176743D01*
X0041241Y0176692D01*
X0041090Y0176645D01*
X0040938Y0176602D01*
X0040785Y0176563D01*
X0040630Y0176527D01*
X0040475Y0176496D01*
X0040319Y0176468D01*
X0040163Y0176444D01*
X0040006Y0176424D01*
X0039848Y0176408D01*
X0039691Y0176396D01*
X0039532Y0176388D01*
X0039374Y0176384D01*
X0039216Y0176384D01*
X0039058Y0176388D01*
X0038899Y0176396D01*
X0038742Y0176408D01*
X0038584Y0176424D01*
X0038427Y0176444D01*
X0038271Y0176468D01*
X0038115Y0176496D01*
X0037960Y0176527D01*
X0037805Y0176563D01*
X0037652Y0176602D01*
X0037500Y0176645D01*
X0037349Y0176692D01*
X0037199Y0176743D01*
X0037050Y0176798D01*
X0036903Y0176856D01*
X0036757Y0176918D01*
X0036613Y0176983D01*
X0036471Y0177053D01*
X0036330Y0177125D01*
X0036191Y0177202D01*
X0036055Y0177281D01*
X0035920Y0177365D01*
X0035787Y0177451D01*
X0035657Y0177541D01*
X0035529Y0177634D01*
X0035403Y0177730D01*
X0035280Y0177830D01*
X0035159Y0177932D01*
X0035041Y0178037D01*
X0034926Y0178146D01*
X0034813Y0178257D01*
X0034703Y0178371D01*
X0034596Y0178488D01*
X0034492Y0178607D01*
X0034391Y0178729D01*
X0034294Y0178854D01*
X0034199Y0178981D01*
X0034108Y0179110D01*
X0034019Y0179241D01*
X0033935Y0179375D01*
X0033853Y0179511D01*
X0033775Y0179648D01*
X0033701Y0179788D01*
X0033630Y0179930D01*
X0033562Y0180073D01*
X0033498Y0180218D01*
X0033438Y0180364D01*
X0033382Y0180512D01*
X0033329Y0180661D01*
X0033280Y0180812D01*
X0033235Y0180964D01*
X0033194Y0181117D01*
X0033156Y0181270D01*
X0033123Y0181425D01*
X0033093Y0181581D01*
X0033067Y0181737D01*
X0033046Y0181894D01*
X0033028Y0182051D01*
X0033014Y0182209D01*
X0033004Y0182367D01*
X0032998Y0182525D01*
X0032996Y0182683D01*
X0032996Y0218117D02*
X0032998Y0218275D01*
X0033004Y0218433D01*
X0033014Y0218591D01*
X0033028Y0218749D01*
X0033046Y0218906D01*
X0033067Y0219063D01*
X0033093Y0219219D01*
X0033123Y0219375D01*
X0033156Y0219530D01*
X0033194Y0219683D01*
X0033235Y0219836D01*
X0033280Y0219988D01*
X0033329Y0220139D01*
X0033382Y0220288D01*
X0033438Y0220436D01*
X0033498Y0220582D01*
X0033562Y0220727D01*
X0033630Y0220870D01*
X0033701Y0221012D01*
X0033775Y0221152D01*
X0033853Y0221289D01*
X0033935Y0221425D01*
X0034019Y0221559D01*
X0034108Y0221690D01*
X0034199Y0221819D01*
X0034294Y0221946D01*
X0034391Y0222071D01*
X0034492Y0222193D01*
X0034596Y0222312D01*
X0034703Y0222429D01*
X0034813Y0222543D01*
X0034926Y0222654D01*
X0035041Y0222763D01*
X0035159Y0222868D01*
X0035280Y0222970D01*
X0035403Y0223070D01*
X0035529Y0223166D01*
X0035657Y0223259D01*
X0035787Y0223349D01*
X0035920Y0223435D01*
X0036055Y0223519D01*
X0036191Y0223598D01*
X0036330Y0223675D01*
X0036471Y0223747D01*
X0036613Y0223817D01*
X0036757Y0223882D01*
X0036903Y0223944D01*
X0037050Y0224002D01*
X0037199Y0224057D01*
X0037349Y0224108D01*
X0037500Y0224155D01*
X0037652Y0224198D01*
X0037805Y0224237D01*
X0037960Y0224273D01*
X0038115Y0224304D01*
X0038271Y0224332D01*
X0038427Y0224356D01*
X0038584Y0224376D01*
X0038742Y0224392D01*
X0038899Y0224404D01*
X0039058Y0224412D01*
X0039216Y0224416D01*
X0039374Y0224416D01*
X0039532Y0224412D01*
X0039691Y0224404D01*
X0039848Y0224392D01*
X0040006Y0224376D01*
X0040163Y0224356D01*
X0040319Y0224332D01*
X0040475Y0224304D01*
X0040630Y0224273D01*
X0040785Y0224237D01*
X0040938Y0224198D01*
X0041090Y0224155D01*
X0041241Y0224108D01*
X0041391Y0224057D01*
X0041540Y0224002D01*
X0041687Y0223944D01*
X0041833Y0223882D01*
X0041977Y0223817D01*
X0042119Y0223747D01*
X0042260Y0223675D01*
X0042399Y0223598D01*
X0042535Y0223519D01*
X0042670Y0223435D01*
X0042803Y0223349D01*
X0042933Y0223259D01*
X0043061Y0223166D01*
X0043187Y0223070D01*
X0043310Y0222970D01*
X0043431Y0222868D01*
X0043549Y0222763D01*
X0043664Y0222654D01*
X0043777Y0222543D01*
X0043887Y0222429D01*
X0043994Y0222312D01*
X0044098Y0222193D01*
X0044199Y0222071D01*
X0044296Y0221946D01*
X0044391Y0221819D01*
X0044482Y0221690D01*
X0044571Y0221559D01*
X0044655Y0221425D01*
X0044737Y0221289D01*
X0044815Y0221152D01*
X0044889Y0221012D01*
X0044960Y0220870D01*
X0045028Y0220727D01*
X0045092Y0220582D01*
X0045152Y0220436D01*
X0045208Y0220288D01*
X0045261Y0220139D01*
X0045310Y0219988D01*
X0045355Y0219836D01*
X0045396Y0219683D01*
X0045434Y0219530D01*
X0045467Y0219375D01*
X0045497Y0219219D01*
X0045523Y0219063D01*
X0045544Y0218906D01*
X0045562Y0218749D01*
X0045576Y0218591D01*
X0045586Y0218433D01*
X0045592Y0218275D01*
X0045594Y0218117D01*
X0045592Y0217959D01*
X0045586Y0217801D01*
X0045576Y0217643D01*
X0045562Y0217485D01*
X0045544Y0217328D01*
X0045523Y0217171D01*
X0045497Y0217015D01*
X0045467Y0216859D01*
X0045434Y0216704D01*
X0045396Y0216551D01*
X0045355Y0216398D01*
X0045310Y0216246D01*
X0045261Y0216095D01*
X0045208Y0215946D01*
X0045152Y0215798D01*
X0045092Y0215652D01*
X0045028Y0215507D01*
X0044960Y0215364D01*
X0044889Y0215222D01*
X0044815Y0215082D01*
X0044737Y0214945D01*
X0044655Y0214809D01*
X0044571Y0214675D01*
X0044482Y0214544D01*
X0044391Y0214415D01*
X0044296Y0214288D01*
X0044199Y0214163D01*
X0044098Y0214041D01*
X0043994Y0213922D01*
X0043887Y0213805D01*
X0043777Y0213691D01*
X0043664Y0213580D01*
X0043549Y0213471D01*
X0043431Y0213366D01*
X0043310Y0213264D01*
X0043187Y0213164D01*
X0043061Y0213068D01*
X0042933Y0212975D01*
X0042803Y0212885D01*
X0042670Y0212799D01*
X0042535Y0212715D01*
X0042399Y0212636D01*
X0042260Y0212559D01*
X0042119Y0212487D01*
X0041977Y0212417D01*
X0041833Y0212352D01*
X0041687Y0212290D01*
X0041540Y0212232D01*
X0041391Y0212177D01*
X0041241Y0212126D01*
X0041090Y0212079D01*
X0040938Y0212036D01*
X0040785Y0211997D01*
X0040630Y0211961D01*
X0040475Y0211930D01*
X0040319Y0211902D01*
X0040163Y0211878D01*
X0040006Y0211858D01*
X0039848Y0211842D01*
X0039691Y0211830D01*
X0039532Y0211822D01*
X0039374Y0211818D01*
X0039216Y0211818D01*
X0039058Y0211822D01*
X0038899Y0211830D01*
X0038742Y0211842D01*
X0038584Y0211858D01*
X0038427Y0211878D01*
X0038271Y0211902D01*
X0038115Y0211930D01*
X0037960Y0211961D01*
X0037805Y0211997D01*
X0037652Y0212036D01*
X0037500Y0212079D01*
X0037349Y0212126D01*
X0037199Y0212177D01*
X0037050Y0212232D01*
X0036903Y0212290D01*
X0036757Y0212352D01*
X0036613Y0212417D01*
X0036471Y0212487D01*
X0036330Y0212559D01*
X0036191Y0212636D01*
X0036055Y0212715D01*
X0035920Y0212799D01*
X0035787Y0212885D01*
X0035657Y0212975D01*
X0035529Y0213068D01*
X0035403Y0213164D01*
X0035280Y0213264D01*
X0035159Y0213366D01*
X0035041Y0213471D01*
X0034926Y0213580D01*
X0034813Y0213691D01*
X0034703Y0213805D01*
X0034596Y0213922D01*
X0034492Y0214041D01*
X0034391Y0214163D01*
X0034294Y0214288D01*
X0034199Y0214415D01*
X0034108Y0214544D01*
X0034019Y0214675D01*
X0033935Y0214809D01*
X0033853Y0214945D01*
X0033775Y0215082D01*
X0033701Y0215222D01*
X0033630Y0215364D01*
X0033562Y0215507D01*
X0033498Y0215652D01*
X0033438Y0215798D01*
X0033382Y0215946D01*
X0033329Y0216095D01*
X0033280Y0216246D01*
X0033235Y0216398D01*
X0033194Y0216551D01*
X0033156Y0216704D01*
X0033123Y0216859D01*
X0033093Y0217015D01*
X0033067Y0217171D01*
X0033046Y0217328D01*
X0033028Y0217485D01*
X0033014Y0217643D01*
X0033004Y0217801D01*
X0032998Y0217959D01*
X0032996Y0218117D01*
D17*
X0058588Y0041021D02*
X0057871Y0040304D01*
X0057871Y0038869D01*
X0058588Y0038152D01*
X0058588Y0041021D02*
X0059306Y0041021D01*
X0062175Y0038152D01*
X0062175Y0041021D01*
X0067671Y0039087D02*
X0071975Y0039087D01*
X0071975Y0040521D02*
X0071975Y0037652D01*
X0069106Y0037652D02*
X0067671Y0039087D01*
X0079271Y0038769D02*
X0079988Y0038052D01*
X0079271Y0038769D02*
X0079271Y0040204D01*
X0079988Y0040921D01*
X0080706Y0040921D01*
X0083575Y0038052D01*
X0083575Y0040921D01*
X0089071Y0038987D02*
X0093375Y0038987D01*
X0093375Y0040421D02*
X0093375Y0037552D01*
X0090506Y0037552D02*
X0089071Y0038987D01*
X0100571Y0038669D02*
X0101288Y0037952D01*
X0100571Y0038669D02*
X0100571Y0040104D01*
X0101288Y0040821D01*
X0102006Y0040821D01*
X0104875Y0037952D01*
X0104875Y0040821D01*
X0110371Y0038887D02*
X0114675Y0038887D01*
X0114675Y0040321D02*
X0114675Y0037452D01*
X0111806Y0037452D02*
X0110371Y0038887D01*
X0122171Y0038769D02*
X0122888Y0038052D01*
X0122171Y0038769D02*
X0122171Y0040204D01*
X0122888Y0040921D01*
X0123606Y0040921D01*
X0126475Y0038052D01*
X0126475Y0040921D01*
X0131971Y0038987D02*
X0136275Y0038987D01*
X0136275Y0040421D02*
X0136275Y0037552D01*
X0133406Y0037552D02*
X0131971Y0038987D01*
X0143871Y0038669D02*
X0144588Y0037952D01*
X0143871Y0038669D02*
X0143871Y0040104D01*
X0144588Y0040821D01*
X0145306Y0040821D01*
X0148175Y0037952D01*
X0148175Y0040821D01*
X0153671Y0038887D02*
X0157975Y0038887D01*
X0157975Y0040321D02*
X0157975Y0037452D01*
X0155106Y0037452D02*
X0153671Y0038887D01*
X0165371Y0038569D02*
X0166088Y0037852D01*
X0165371Y0038569D02*
X0165371Y0040004D01*
X0166088Y0040721D01*
X0166806Y0040721D01*
X0169675Y0037852D01*
X0169675Y0040721D01*
X0175171Y0038787D02*
X0179475Y0038787D01*
X0179475Y0040221D02*
X0179475Y0037352D01*
X0176606Y0037352D02*
X0175171Y0038787D01*
X0187271Y0038769D02*
X0187988Y0038052D01*
X0187271Y0038769D02*
X0187271Y0040204D01*
X0187988Y0040921D01*
X0188706Y0040921D01*
X0191575Y0038052D01*
X0191575Y0040921D01*
X0197071Y0038987D02*
X0201375Y0038987D01*
X0201375Y0040421D02*
X0201375Y0037552D01*
X0198506Y0037552D02*
X0197071Y0038987D01*
X0208971Y0038669D02*
X0209688Y0037952D01*
X0208971Y0038669D02*
X0208971Y0040104D01*
X0209688Y0040821D01*
X0210406Y0040821D01*
X0213275Y0037952D01*
X0213275Y0040821D01*
X0218771Y0038887D02*
X0223075Y0038887D01*
X0223075Y0040321D02*
X0223075Y0037452D01*
X0220206Y0037452D02*
X0218771Y0038887D01*
X0230471Y0038669D02*
X0231188Y0037952D01*
X0230471Y0038669D02*
X0230471Y0040104D01*
X0231188Y0040821D01*
X0231906Y0040821D01*
X0234775Y0037952D01*
X0234775Y0040821D01*
X0240271Y0038887D02*
X0244575Y0038887D01*
X0244575Y0040321D02*
X0244575Y0037452D01*
X0241706Y0037452D02*
X0240271Y0038887D01*
D18*
X0203607Y0108391D03*
X0200654Y0108391D03*
X0136307Y0108391D03*
X0133354Y0108391D03*
X0129507Y0108391D03*
X0126554Y0108391D03*
D19*
X0128031Y0108391D03*
X0134831Y0108391D03*
X0202131Y0108391D03*
X0035840Y0157600D03*
D20*
X0035840Y0159076D03*
X0035840Y0156124D03*
M02*
