G75*
%MOIN*%
%OFA0B0*%
%FSLAX25Y25*%
%IPPOS*%
%LPD*%
%AMOC8*
5,1,8,0,0,1.08239X$1,22.5*
%
%ADD10C,0.00000*%
%ADD11R,0.06299X0.07098*%
%ADD12R,0.05118X0.05906*%
%ADD13R,0.05906X0.05118*%
%ADD14R,0.05900X0.07900*%
%ADD15R,0.15000X0.07900*%
D10*
X0034331Y0035000D02*
X0034331Y0231850D01*
X0231181Y0231850D01*
X0231181Y0035000D01*
X0034331Y0035000D01*
D11*
X0139000Y0211484D03*
X0150197Y0211484D03*
D12*
X0128071Y0226000D03*
X0120591Y0226000D03*
X0095071Y0226500D03*
X0087591Y0226500D03*
X0079071Y0226500D03*
X0071591Y0226500D03*
X0074071Y0193000D03*
X0066591Y0193000D03*
X0066591Y0185000D03*
X0074071Y0185000D03*
X0074071Y0177000D03*
X0066591Y0177000D03*
X0066591Y0169000D03*
X0074071Y0169000D03*
X0071091Y0149000D03*
X0078571Y0149000D03*
X0046571Y0155500D03*
X0039091Y0155500D03*
X0114091Y0181000D03*
X0121571Y0181000D03*
X0216591Y0101000D03*
X0224071Y0101000D03*
G36*
X0195546Y0072924D02*
X0199165Y0069305D01*
X0194990Y0065130D01*
X0191371Y0068749D01*
X0195546Y0072924D01*
G37*
G36*
X0190257Y0078213D02*
X0193876Y0074594D01*
X0189701Y0070419D01*
X0186082Y0074038D01*
X0190257Y0078213D01*
G37*
X0048571Y0067000D03*
X0041091Y0067000D03*
D13*
X0223831Y0200260D03*
X0223831Y0207740D03*
D14*
X0057231Y0168600D03*
X0048231Y0168600D03*
X0039231Y0168600D03*
D15*
X0048331Y0193400D03*
M02*
