G75*
%MOIN*%
%OFA0B0*%
%FSLAX25Y25*%
%IPPOS*%
%LPD*%
%AMOC8*
5,1,8,0,0,1.08239X$1,22.5*
%
%ADD10C,0.00039*%
D10*
X0300276Y0192366D02*
X0300329Y0196714D01*
X0300489Y0201059D01*
X0300756Y0205399D01*
X0301129Y0209731D01*
X0301608Y0214053D01*
X0302194Y0218362D01*
X0302884Y0222654D01*
X0303680Y0226929D01*
X0304581Y0231183D01*
X0305585Y0235414D01*
X0306694Y0239618D01*
X0307905Y0243794D01*
X0309218Y0247939D01*
X0310632Y0252051D01*
X0312147Y0256127D01*
X0313762Y0260164D01*
X0315475Y0264161D01*
X0317286Y0268114D01*
X0319193Y0272021D01*
X0321195Y0275881D01*
X0323292Y0279690D01*
X0325482Y0283447D01*
X0327763Y0287149D01*
X0330134Y0290794D01*
X0332594Y0294379D01*
X0335141Y0297903D01*
X0337774Y0301364D01*
X0340491Y0304758D01*
X0343290Y0308085D01*
X0346170Y0311343D01*
X0349130Y0314528D01*
X0352166Y0317641D01*
X0355279Y0320677D01*
X0358464Y0323637D01*
X0361722Y0326517D01*
X0365049Y0329316D01*
X0368443Y0332033D01*
X0371904Y0334666D01*
X0375428Y0337213D01*
X0379013Y0339673D01*
X0382658Y0342044D01*
X0386360Y0344325D01*
X0390117Y0346515D01*
X0393926Y0348612D01*
X0397786Y0350614D01*
X0401693Y0352521D01*
X0405646Y0354332D01*
X0409643Y0356045D01*
X0413680Y0357660D01*
X0417756Y0359175D01*
X0421868Y0360589D01*
X0426013Y0361902D01*
X0430189Y0363113D01*
X0434393Y0364222D01*
X0438624Y0365226D01*
X0442878Y0366127D01*
X0447153Y0366923D01*
X0451445Y0367613D01*
X0455754Y0368199D01*
X0460076Y0368678D01*
X0464408Y0369051D01*
X0468748Y0369318D01*
X0473093Y0369478D01*
X0477441Y0369531D01*
X0481789Y0369478D01*
X0486134Y0369318D01*
X0490474Y0369051D01*
X0494806Y0368678D01*
X0499128Y0368199D01*
X0503437Y0367613D01*
X0507729Y0366923D01*
X0512004Y0366127D01*
X0516258Y0365226D01*
X0520489Y0364222D01*
X0524693Y0363113D01*
X0528869Y0361902D01*
X0533014Y0360589D01*
X0537126Y0359175D01*
X0541202Y0357660D01*
X0545239Y0356045D01*
X0549236Y0354332D01*
X0553189Y0352521D01*
X0557096Y0350614D01*
X0560956Y0348612D01*
X0564765Y0346515D01*
X0568522Y0344325D01*
X0572224Y0342044D01*
X0575869Y0339673D01*
X0579454Y0337213D01*
X0582978Y0334666D01*
X0586439Y0332033D01*
X0589833Y0329316D01*
X0593160Y0326517D01*
X0596418Y0323637D01*
X0599603Y0320677D01*
X0602716Y0317641D01*
X0605752Y0314528D01*
X0608712Y0311343D01*
X0611592Y0308085D01*
X0614391Y0304758D01*
X0617108Y0301364D01*
X0619741Y0297903D01*
X0622288Y0294379D01*
X0624748Y0290794D01*
X0627119Y0287149D01*
X0629400Y0283447D01*
X0631590Y0279690D01*
X0633687Y0275881D01*
X0635689Y0272021D01*
X0637596Y0268114D01*
X0639407Y0264161D01*
X0641120Y0260164D01*
X0642735Y0256127D01*
X0644250Y0252051D01*
X0645664Y0247939D01*
X0646977Y0243794D01*
X0648188Y0239618D01*
X0649297Y0235414D01*
X0650301Y0231183D01*
X0651202Y0226929D01*
X0651998Y0222654D01*
X0652688Y0218362D01*
X0653274Y0214053D01*
X0653753Y0209731D01*
X0654126Y0205399D01*
X0654393Y0201059D01*
X0654553Y0196714D01*
X0654606Y0192366D01*
X0654553Y0188018D01*
X0654393Y0183673D01*
X0654126Y0179333D01*
X0653753Y0175001D01*
X0653274Y0170679D01*
X0652688Y0166370D01*
X0651998Y0162078D01*
X0651202Y0157803D01*
X0650301Y0153549D01*
X0649297Y0149318D01*
X0648188Y0145114D01*
X0646977Y0140938D01*
X0645664Y0136793D01*
X0644250Y0132681D01*
X0642735Y0128605D01*
X0641120Y0124568D01*
X0639407Y0120571D01*
X0637596Y0116618D01*
X0635689Y0112711D01*
X0633687Y0108851D01*
X0631590Y0105042D01*
X0629400Y0101285D01*
X0627119Y0097583D01*
X0624748Y0093938D01*
X0622288Y0090353D01*
X0619741Y0086829D01*
X0617108Y0083368D01*
X0614391Y0079974D01*
X0611592Y0076647D01*
X0608712Y0073389D01*
X0605752Y0070204D01*
X0602716Y0067091D01*
X0599603Y0064055D01*
X0596418Y0061095D01*
X0593160Y0058215D01*
X0589833Y0055416D01*
X0586439Y0052699D01*
X0582978Y0050066D01*
X0579454Y0047519D01*
X0575869Y0045059D01*
X0572224Y0042688D01*
X0568522Y0040407D01*
X0564765Y0038217D01*
X0560956Y0036120D01*
X0557096Y0034118D01*
X0553189Y0032211D01*
X0549236Y0030400D01*
X0545239Y0028687D01*
X0541202Y0027072D01*
X0537126Y0025557D01*
X0533014Y0024143D01*
X0528869Y0022830D01*
X0524693Y0021619D01*
X0520489Y0020510D01*
X0516258Y0019506D01*
X0512004Y0018605D01*
X0507729Y0017809D01*
X0503437Y0017119D01*
X0499128Y0016533D01*
X0494806Y0016054D01*
X0490474Y0015681D01*
X0486134Y0015414D01*
X0481789Y0015254D01*
X0477441Y0015201D01*
X0473093Y0015254D01*
X0468748Y0015414D01*
X0464408Y0015681D01*
X0460076Y0016054D01*
X0455754Y0016533D01*
X0451445Y0017119D01*
X0447153Y0017809D01*
X0442878Y0018605D01*
X0438624Y0019506D01*
X0434393Y0020510D01*
X0430189Y0021619D01*
X0426013Y0022830D01*
X0421868Y0024143D01*
X0417756Y0025557D01*
X0413680Y0027072D01*
X0409643Y0028687D01*
X0405646Y0030400D01*
X0401693Y0032211D01*
X0397786Y0034118D01*
X0393926Y0036120D01*
X0390117Y0038217D01*
X0386360Y0040407D01*
X0382658Y0042688D01*
X0379013Y0045059D01*
X0375428Y0047519D01*
X0371904Y0050066D01*
X0368443Y0052699D01*
X0365049Y0055416D01*
X0361722Y0058215D01*
X0358464Y0061095D01*
X0355279Y0064055D01*
X0352166Y0067091D01*
X0349130Y0070204D01*
X0346170Y0073389D01*
X0343290Y0076647D01*
X0340491Y0079974D01*
X0337774Y0083368D01*
X0335141Y0086829D01*
X0332594Y0090353D01*
X0330134Y0093938D01*
X0327763Y0097583D01*
X0325482Y0101285D01*
X0323292Y0105042D01*
X0321195Y0108851D01*
X0319193Y0112711D01*
X0317286Y0116618D01*
X0315475Y0120571D01*
X0313762Y0124568D01*
X0312147Y0128605D01*
X0310632Y0132681D01*
X0309218Y0136793D01*
X0307905Y0140938D01*
X0306694Y0145114D01*
X0305585Y0149318D01*
X0304581Y0153549D01*
X0303680Y0157803D01*
X0302884Y0162078D01*
X0302194Y0166370D01*
X0301608Y0170679D01*
X0301129Y0175001D01*
X0300756Y0179333D01*
X0300489Y0183673D01*
X0300329Y0188018D01*
X0300276Y0192366D01*
M02*
