%
M48
M72
T01C0.0130
T02C0.0236
T03C0.0240
T04C0.0250
T05C0.0276
T06C0.0400
T07C0.0500
T08C0.1260
%
T01
X33100Y25350
X34700Y17750
X35900Y15450
X39300Y14950
X41800Y14950
X45000Y14950
X46900Y14150
X46400Y13150
X46600Y11550
X47300Y11450
X48100Y10450
X48400Y9850
X47700Y8750
X44300Y10850
X43500Y9350
X45600Y3550
X49700Y5350
X53300Y8850
X53800Y8450
X55200Y8150
X55700Y8850
X54100Y13750
X54400Y17150
X55000Y18750
X58500Y15350
X49800Y14550
X48800Y15650
X46000Y19050
X46000Y20250
X45100Y21550
X45100Y22350
X44300Y22350
X44300Y21550
X45800Y23050
X43100Y23650
X42400Y24050
X42400Y24850
X42700Y26850
X41600Y26850
X42800Y21850
X48600Y28650
X47200Y32050
X52800Y24150
T02
X44200Y23650
X44100Y29650
T03
X40600Y25050
X38500Y22950
X36300Y24850
X36600Y27850
X50500Y27850
X52200Y28450
T04
X47500Y15450
X41300Y11950
X40300Y9050
X44100Y2850
X55700Y7450
X56600Y9850
T05
X56563Y7111
X47744Y19237
X38925Y7111
X33492Y23882
X47744Y34237
X61996Y23882
T06
X32200Y16250
X32200Y17250
X32200Y18250
X32200Y19250
X32200Y20250
X32200Y21250
X50200Y29050
X50200Y30050
X50200Y31050
X50200Y32050
X52800Y27550
X60900Y16750
X60900Y15750
T07
X37200Y23250
X37200Y24250
X37200Y25250
T08
X40610Y21556
X47744Y26737
X54878Y21556
X52154Y13170
X43335Y13170
X34500Y12193
X47744Y4237
X60988Y12193
X56559Y31370
X38929Y31370
M30
