%
M48
M72
T01C0.0120
T02C0.0130
T03C0.0150
T04C0.0250
T05C0.0350
T06C0.0400
T07C0.0500
T08C0.1260
%
T01
X5750Y22430
X5750Y23280
X6650Y23280
X6650Y22430
T02
X7650Y21980
X6950Y20830
X7250Y19930
X6700Y19380
X7000Y19080
X7300Y18780
X7250Y18380
X7300Y18030
X6400Y19930
X4250Y22380
X4250Y23130
X3350Y22530
X5250Y24080
X5550Y24080
X5900Y24130
X5800Y25080
X4950Y24630
X4350Y24880
X3300Y25680
X7550Y24180
X9300Y23530
X9900Y27580
X15450Y29130
X7300Y15830
X7600Y15630
X7000Y15530
X6700Y15830
X7650Y14180
X7300Y14030
X8500Y14330
X8550Y13430
X9250Y12030
X8600Y11180
X6850Y10980
X6250Y10230
X5850Y10780
X6550Y11680
X6600Y12180
X5600Y9680
X9350Y4130
T03
X9100Y6830
X8150Y9330
X11600Y10730
X14950Y6480
X18050Y10180
X18150Y12780
X22400Y13080
X23400Y13080
X23550Y10080
X21900Y6130
X29500Y9230
X29500Y12330
X29450Y18680
X23650Y19480
X29500Y25030
X16250Y21830
X14650Y22330
X14050Y22080
X13350Y22330
X12700Y22080
X12250Y21630
X10750Y21980
X10850Y24730
X11450Y25330
X11850Y24730
X12500Y25330
X12500Y19330
X12900Y18880
X11950Y18880
X14400Y19380
X11300Y15880
X12250Y15530
X8900Y15530
T04
X6550Y24230
T05
X8550Y18930
T06
X13061Y20259
X14061Y20259
X15061Y20259
X16061Y20259
X17589Y20259
X18589Y20259
X19589Y20259
X20589Y20259
X22116Y20259
X23116Y20259
X24116Y20259
X25116Y20259
X26644Y20259
X27644Y20259
X28644Y20259
X29644Y20259
X29644Y17109
X28644Y17109
X27644Y17109
X26644Y17109
X25116Y17109
X24116Y17109
X23116Y17109
X22116Y17109
X20589Y17109
X19589Y17109
X18589Y17109
X17589Y17109
X16061Y17109
X15061Y17109
X14061Y17109
X13061Y17109
X13061Y13960
X14061Y13960
X15061Y13960
X16061Y13960
X17589Y13960
X18589Y13960
X19589Y13960
X20589Y13960
X22116Y13960
X23116Y13960
X24116Y13960
X25116Y13960
X26644Y13960
X27644Y13960
X28644Y13960
X29644Y13960
X29644Y10810
X28644Y10810
X27644Y10810
X26644Y10810
X25116Y10810
X24116Y10810
X23116Y10810
X22116Y10810
X20589Y10810
X19589Y10810
X18589Y10810
X17589Y10810
X16061Y10810
X15061Y10810
X14061Y10810
X13061Y10810
X13061Y7660
X14061Y7660
X15061Y7660
X16061Y7660
X17589Y7660
X18589Y7660
X19589Y7660
X20589Y7660
X22116Y7660
X23116Y7660
X24116Y7660
X25116Y7660
X26644Y7660
X27644Y7660
X28644Y7660
X29644Y7660
X16061Y4511
X15061Y4511
X14061Y4511
X13061Y4511
X4500Y4230
X4500Y5230
X4500Y6230
X4500Y7230
X4500Y8230
X4500Y9230
X13061Y23408
X14061Y23408
X15061Y23408
X16061Y23408
X17589Y23408
X18589Y23408
X19589Y23408
X20589Y23408
X22116Y23408
X23116Y23408
X24116Y23408
X25116Y23408
X26644Y23408
X27644Y23408
X28644Y23408
X29644Y23408
X29644Y26558
X28644Y26558
X27644Y26558
X26644Y26558
X20589Y26558
X19589Y26558
X18589Y26558
X17589Y26558
X16061Y26558
X15061Y26558
X14061Y26558
X13061Y26558
X11650Y28880
X10650Y28880
X9550Y28880
X8550Y28880
T07
X3350Y17380
X3350Y16380
X3350Y15380
T08
X4750Y2180
X23950Y2180
X23950Y27680
X4750Y27680
M30
