G75*
%MOIN*%
%OFA0B0*%
%FSLAX25Y25*%
%IPPOS*%
%LPD*%
%AMOC8*
5,1,8,0,0,1.08239X$1,22.5*
%
%ADD10C,0.01600*%
%ADD11C,0.00100*%
%ADD12C,0.00300*%
D10*
X0027500Y0001800D02*
X0027500Y0297076D01*
X0307028Y0297076D01*
X0307028Y0001800D02*
X0027500Y0001800D01*
D11*
X0307028Y0001800D02*
X0307028Y0297076D01*
D12*
X0093190Y0106169D02*
X0093190Y0104234D01*
X0092706Y0103750D01*
X0091738Y0103750D01*
X0091255Y0104234D01*
X0090243Y0103750D02*
X0088308Y0105685D01*
X0088308Y0106169D01*
X0088792Y0106652D01*
X0089759Y0106652D01*
X0090243Y0106169D01*
X0091255Y0106169D02*
X0091738Y0106652D01*
X0092706Y0106652D01*
X0093190Y0106169D01*
X0090243Y0103750D02*
X0088308Y0103750D01*
X0087297Y0104234D02*
X0085362Y0106169D01*
X0085362Y0104234D01*
X0085845Y0103750D01*
X0086813Y0103750D01*
X0087297Y0104234D01*
X0087297Y0106169D01*
X0086813Y0106652D01*
X0085845Y0106652D01*
X0085362Y0106169D01*
X0085845Y0135250D02*
X0086813Y0135250D01*
X0087297Y0135734D01*
X0087297Y0136701D02*
X0086329Y0137185D01*
X0085845Y0137185D01*
X0085362Y0136701D01*
X0085362Y0135734D01*
X0085845Y0135250D01*
X0087297Y0136701D02*
X0087297Y0138152D01*
X0085362Y0138152D01*
X0088308Y0137669D02*
X0088792Y0138152D01*
X0089759Y0138152D01*
X0090243Y0137669D01*
X0090243Y0135734D01*
X0089759Y0135250D01*
X0088792Y0135250D01*
X0088308Y0135734D01*
X0049743Y0155750D02*
X0049743Y0158652D01*
X0048292Y0158652D01*
X0047808Y0158169D01*
X0047808Y0157201D01*
X0048292Y0156717D01*
X0049743Y0156717D01*
X0048776Y0156717D02*
X0047808Y0155750D01*
X0046797Y0155750D02*
X0044862Y0155750D01*
X0045829Y0155750D02*
X0045829Y0158652D01*
X0046797Y0157685D01*
X0060952Y0195450D02*
X0061920Y0195450D01*
X0062403Y0195934D01*
X0062403Y0196417D01*
X0061920Y0196901D01*
X0060952Y0196901D01*
X0060469Y0196417D01*
X0060469Y0195934D01*
X0060952Y0195450D01*
X0060952Y0196901D02*
X0060469Y0197385D01*
X0060469Y0197869D01*
X0060952Y0198352D01*
X0061920Y0198352D01*
X0062403Y0197869D01*
X0062403Y0197385D01*
X0061920Y0196901D01*
X0063415Y0195934D02*
X0063899Y0195450D01*
X0064866Y0195450D01*
X0065350Y0195934D01*
X0065350Y0197869D01*
X0064866Y0198352D01*
X0063899Y0198352D01*
X0063415Y0197869D01*
X0064399Y0204950D02*
X0063915Y0205434D01*
X0064399Y0204950D02*
X0065366Y0204950D01*
X0065850Y0205434D01*
X0065850Y0207369D01*
X0065366Y0207852D01*
X0064399Y0207852D01*
X0063915Y0207369D01*
X0062903Y0207369D02*
X0062903Y0206885D01*
X0062420Y0206401D01*
X0060969Y0206401D01*
X0060969Y0205434D02*
X0060969Y0207369D01*
X0061452Y0207852D01*
X0062420Y0207852D01*
X0062903Y0207369D01*
X0062903Y0205434D02*
X0062420Y0204950D01*
X0061452Y0204950D01*
X0060969Y0205434D01*
X0060969Y0212950D02*
X0062903Y0212950D01*
X0060969Y0214885D01*
X0060969Y0215369D01*
X0061452Y0215852D01*
X0062420Y0215852D01*
X0062903Y0215369D01*
X0063915Y0215369D02*
X0064399Y0215852D01*
X0065366Y0215852D01*
X0065850Y0215369D01*
X0065850Y0213434D01*
X0065366Y0212950D01*
X0064399Y0212950D01*
X0063915Y0213434D01*
M02*
