G75*
%MOIN*%
%OFA0B0*%
%FSLAX25Y25*%
%IPPOS*%
%LPD*%
%AMOC8*
5,1,8,0,0,1.08239X$1,22.5*
%
%ADD10C,0.01600*%
%ADD11C,0.00100*%
%ADD12R,0.05518X0.06306*%
%ADD13C,0.06400*%
%ADD14C,0.07900*%
%ADD15C,0.23400*%
D10*
X0027500Y0001800D02*
X0027500Y0297076D01*
X0307028Y0297076D01*
X0307028Y0001800D02*
X0027500Y0001800D01*
D11*
X0307028Y0001800D02*
X0307028Y0297076D01*
D12*
X0093240Y0143300D03*
X0085760Y0143300D03*
X0085760Y0111800D03*
X0093240Y0111800D03*
X0050240Y0163800D03*
X0042760Y0163800D03*
X0049260Y0197800D03*
X0056740Y0197800D03*
X0056740Y0205800D03*
X0049260Y0205800D03*
X0049260Y0213800D03*
X0056740Y0213800D03*
D13*
X0130610Y0205587D02*
X0130610Y0199587D01*
X0140610Y0199587D02*
X0140610Y0205587D01*
X0150610Y0205587D02*
X0150610Y0199587D01*
X0160610Y0199587D02*
X0160610Y0205587D01*
X0175886Y0205587D02*
X0175886Y0199587D01*
X0185886Y0199587D02*
X0185886Y0205587D01*
X0195886Y0205587D02*
X0195886Y0199587D01*
X0205886Y0199587D02*
X0205886Y0205587D01*
X0221161Y0205587D02*
X0221161Y0199587D01*
X0231161Y0199587D02*
X0231161Y0205587D01*
X0241161Y0205587D02*
X0241161Y0199587D01*
X0251161Y0199587D02*
X0251161Y0205587D01*
X0266437Y0205587D02*
X0266437Y0199587D01*
X0276437Y0199587D02*
X0276437Y0205587D01*
X0286437Y0205587D02*
X0286437Y0199587D01*
X0296437Y0199587D02*
X0296437Y0205587D01*
X0296437Y0231083D02*
X0296437Y0237083D01*
X0286437Y0237083D02*
X0286437Y0231083D01*
X0276437Y0231083D02*
X0276437Y0237083D01*
X0266437Y0237083D02*
X0266437Y0231083D01*
X0251161Y0231083D02*
X0251161Y0237083D01*
X0241161Y0237083D02*
X0241161Y0231083D01*
X0231161Y0231083D02*
X0231161Y0237083D01*
X0221161Y0237083D02*
X0221161Y0231083D01*
X0205886Y0231083D02*
X0205886Y0237083D01*
X0195886Y0237083D02*
X0195886Y0231083D01*
X0185886Y0231083D02*
X0185886Y0237083D01*
X0175886Y0237083D02*
X0175886Y0231083D01*
X0160610Y0231083D02*
X0160610Y0237083D01*
X0150610Y0237083D02*
X0150610Y0231083D01*
X0140610Y0231083D02*
X0140610Y0237083D01*
X0130610Y0237083D02*
X0130610Y0231083D01*
X0130610Y0262580D02*
X0130610Y0268580D01*
X0140610Y0268580D02*
X0140610Y0262580D01*
X0150610Y0262580D02*
X0150610Y0268580D01*
X0160610Y0268580D02*
X0160610Y0262580D01*
X0175886Y0262580D02*
X0175886Y0268580D01*
X0185886Y0268580D02*
X0185886Y0262580D01*
X0195886Y0262580D02*
X0195886Y0268580D01*
X0205886Y0268580D02*
X0205886Y0262580D01*
X0266437Y0262580D02*
X0266437Y0268580D01*
X0276437Y0268580D02*
X0276437Y0262580D01*
X0286437Y0262580D02*
X0286437Y0268580D01*
X0296437Y0268580D02*
X0296437Y0262580D01*
X0296437Y0174091D02*
X0296437Y0168091D01*
X0286437Y0168091D02*
X0286437Y0174091D01*
X0276437Y0174091D02*
X0276437Y0168091D01*
X0266437Y0168091D02*
X0266437Y0174091D01*
X0251161Y0174091D02*
X0251161Y0168091D01*
X0241161Y0168091D02*
X0241161Y0174091D01*
X0231161Y0174091D02*
X0231161Y0168091D01*
X0221161Y0168091D02*
X0221161Y0174091D01*
X0205886Y0174091D02*
X0205886Y0168091D01*
X0195886Y0168091D02*
X0195886Y0174091D01*
X0185886Y0174091D02*
X0185886Y0168091D01*
X0175886Y0168091D02*
X0175886Y0174091D01*
X0160610Y0174091D02*
X0160610Y0168091D01*
X0150610Y0168091D02*
X0150610Y0174091D01*
X0140610Y0174091D02*
X0140610Y0168091D01*
X0130610Y0168091D02*
X0130610Y0174091D01*
X0130610Y0142595D02*
X0130610Y0136595D01*
X0140610Y0136595D02*
X0140610Y0142595D01*
X0150610Y0142595D02*
X0150610Y0136595D01*
X0160610Y0136595D02*
X0160610Y0142595D01*
X0175886Y0142595D02*
X0175886Y0136595D01*
X0185886Y0136595D02*
X0185886Y0142595D01*
X0195886Y0142595D02*
X0195886Y0136595D01*
X0205886Y0136595D02*
X0205886Y0142595D01*
X0221161Y0142595D02*
X0221161Y0136595D01*
X0231161Y0136595D02*
X0231161Y0142595D01*
X0241161Y0142595D02*
X0241161Y0136595D01*
X0251161Y0136595D02*
X0251161Y0142595D01*
X0266437Y0142595D02*
X0266437Y0136595D01*
X0276437Y0136595D02*
X0276437Y0142595D01*
X0286437Y0142595D02*
X0286437Y0136595D01*
X0296437Y0136595D02*
X0296437Y0142595D01*
X0296437Y0111099D02*
X0296437Y0105099D01*
X0286437Y0105099D02*
X0286437Y0111099D01*
X0276437Y0111099D02*
X0276437Y0105099D01*
X0266437Y0105099D02*
X0266437Y0111099D01*
X0251161Y0111099D02*
X0251161Y0105099D01*
X0241161Y0105099D02*
X0241161Y0111099D01*
X0231161Y0111099D02*
X0231161Y0105099D01*
X0221161Y0105099D02*
X0221161Y0111099D01*
X0205886Y0111099D02*
X0205886Y0105099D01*
X0195886Y0105099D02*
X0195886Y0111099D01*
X0185886Y0111099D02*
X0185886Y0105099D01*
X0175886Y0105099D02*
X0175886Y0111099D01*
X0160610Y0111099D02*
X0160610Y0105099D01*
X0150610Y0105099D02*
X0150610Y0111099D01*
X0140610Y0111099D02*
X0140610Y0105099D01*
X0130610Y0105099D02*
X0130610Y0111099D01*
X0130610Y0079603D02*
X0130610Y0073603D01*
X0140610Y0073603D02*
X0140610Y0079603D01*
X0150610Y0079603D02*
X0150610Y0073603D01*
X0160610Y0073603D02*
X0160610Y0079603D01*
X0175886Y0079603D02*
X0175886Y0073603D01*
X0185886Y0073603D02*
X0185886Y0079603D01*
X0195886Y0079603D02*
X0195886Y0073603D01*
X0205886Y0073603D02*
X0205886Y0079603D01*
X0221161Y0079603D02*
X0221161Y0073603D01*
X0231161Y0073603D02*
X0231161Y0079603D01*
X0241161Y0079603D02*
X0241161Y0073603D01*
X0251161Y0073603D02*
X0251161Y0079603D01*
X0266437Y0079603D02*
X0266437Y0073603D01*
X0276437Y0073603D02*
X0276437Y0079603D01*
X0286437Y0079603D02*
X0286437Y0073603D01*
X0296437Y0073603D02*
X0296437Y0079603D01*
X0160610Y0048111D02*
X0160610Y0042111D01*
X0150610Y0042111D02*
X0150610Y0048111D01*
X0140610Y0048111D02*
X0140610Y0042111D01*
X0130610Y0042111D02*
X0130610Y0048111D01*
X0048000Y0052300D02*
X0042000Y0052300D01*
X0042000Y0042300D02*
X0048000Y0042300D01*
X0048000Y0062300D02*
X0042000Y0062300D01*
X0042000Y0072300D02*
X0048000Y0072300D01*
X0048000Y0082300D02*
X0042000Y0082300D01*
X0042000Y0092300D02*
X0048000Y0092300D01*
X0085500Y0285800D02*
X0085500Y0291800D01*
X0095500Y0291800D02*
X0095500Y0285800D01*
X0106500Y0285800D02*
X0106500Y0291800D01*
X0116500Y0291800D02*
X0116500Y0285800D01*
D14*
X0033500Y0173800D03*
X0033500Y0163800D03*
X0033500Y0153800D03*
D15*
X0047500Y0276800D03*
X0239500Y0276800D03*
X0239500Y0021800D03*
X0047500Y0021800D03*
M02*
