%
M48
M72
T01C0.01500
T02C0.02362
T03C0.03000
T04C0.03937
T05C0.04000
T06C0.05512
T07C0.12500
T08C0.12598
%
T01
X74331Y31600
X114331Y129600
X114331Y160100
X111831Y173100
X121331Y173100
X118331Y188100
X102831Y204600
X94331Y204600
X80831Y201100
X72831Y187600
X87831Y218600
X92831Y218600
X97331Y238600
X133331Y208100
T02
X186331Y186100
X183831Y176100
X204831Y172600
X223831Y176100
X234831Y176100
X282581Y176100
X307581Y176100
X306581Y119100
X281581Y119100
X222831Y119100
X185331Y129100
X182831Y119100
X157831Y119100
X185331Y72100
X182831Y62100
X157831Y62100
X222831Y62100
X281581Y62100
X306581Y62100
X158831Y176100
T03
X318831Y102100
X318831Y95600
X318831Y89100
X319331Y139100
X319331Y145600
X319331Y152100
X320331Y200600
X320331Y207100
X320331Y213600
X116831Y65198
X337331Y40600
T04
X186581Y83350
X186581Y140350
X187581Y197350
T05
X186831Y225600
X196831Y225600
X206831Y225600
X216831Y225600
X226831Y225600
X236831Y225600
X246831Y225600
X256831Y225600
X266831Y225600
X276831Y225600
X286831Y225600
X296831Y225600
X306831Y225600
X316831Y225600
X326831Y225600
X326831Y235600
X316831Y235600
X306831Y235600
X296831Y235600
X286831Y235600
X276831Y235600
X266831Y235600
X256831Y235600
X246831Y235600
X236831Y235600
X226831Y235600
X216831Y235600
X206831Y235600
X196831Y235600
X186831Y235600
X176831Y235600
X166831Y235600
X156831Y235600
X146831Y235600
X136831Y235600
X126831Y235600
X116831Y235600
X106831Y235600
X106831Y225600
X116831Y225600
X126831Y225600
X136831Y225600
X146831Y225600
X156831Y225600
X166831Y225600
X176831Y225600
X359331Y228100
X359331Y238100
X359331Y216100
X359331Y206100
X359331Y194100
X359331Y184100
X359331Y172100
X359331Y162100
X359331Y150100
X359331Y140100
X359331Y130100
X359331Y120100
X359331Y108100
X359331Y98100
X359331Y86100
X359331Y76100
X359331Y64100
X359331Y54100
X359331Y42100
X359331Y32100
X326831Y35600
X316831Y35600
X306831Y35600
X296831Y35600
X286831Y35600
X276831Y35600
X266831Y35600
X256831Y35600
X246831Y35600
X236831Y35600
X226831Y35600
X216831Y35600
X206831Y35600
X196831Y35600
X186831Y35600
X176831Y35600
X166831Y35600
X156831Y35600
X146831Y35600
X136831Y35600
X126831Y35600
X116831Y35600
X106831Y35600
X106831Y45600
X116831Y45600
X126831Y45600
X136831Y45600
X146831Y45600
X156831Y45600
X166831Y45600
X176831Y45600
X186831Y45600
X196831Y45600
X206831Y45600
X216831Y45600
X226831Y45600
X236831Y45600
X246831Y45600
X256831Y45600
X266831Y45600
X276831Y45600
X286831Y45600
X296831Y45600
X306831Y45600
X316831Y45600
X326831Y45600
T06
X77484Y80100
X55831Y80100
T07
X84331Y40600
X344331Y53100
X344331Y218100
X84331Y230600
T08
X39295Y97817
X39295Y62383
M30
