G75*
%MOIN*%
%OFA0B0*%
%FSLAX25Y25*%
%IPPOS*%
%LPD*%
%AMOC8*
5,1,8,0,0,1.08239X$1,22.5*
%
%ADD10C,0.00500*%
%ADD11C,0.00000*%
%ADD12C,0.00800*%
%ADD13C,0.00600*%
%ADD14C,0.00300*%
%ADD15C,0.00400*%
%ADD16C,0.00200*%
%ADD17C,0.00984*%
%ADD18R,0.00787X0.00787*%
%ADD19C,0.01000*%
%ADD20C,0.00700*%
%ADD21C,0.05000*%
%ADD22R,0.06000X0.06000*%
D10*
X0026831Y0025600D02*
X0026831Y0110600D01*
X0106831Y0110600D01*
X0106831Y0180100D01*
X0066331Y0180100D01*
X0066331Y0244100D01*
X0378831Y0244100D01*
X0378831Y0025600D01*
X0026831Y0025600D01*
X0040081Y0025350D02*
X0040081Y0029854D01*
X0042333Y0029854D01*
X0043083Y0029103D01*
X0043083Y0027602D01*
X0042333Y0026851D01*
X0040081Y0026851D01*
X0044685Y0026101D02*
X0044685Y0029103D01*
X0045435Y0029854D01*
X0046937Y0029854D01*
X0047687Y0029103D01*
X0047687Y0026101D01*
X0046937Y0025350D01*
X0045435Y0025350D01*
X0044685Y0026101D01*
X0049289Y0025350D02*
X0049289Y0029854D01*
X0052291Y0029854D02*
X0052291Y0025350D01*
X0050790Y0026851D01*
X0049289Y0025350D01*
X0053892Y0025350D02*
X0056895Y0025350D01*
X0058496Y0025350D02*
X0058496Y0029854D01*
X0060748Y0029854D01*
X0061499Y0029103D01*
X0061499Y0027602D01*
X0060748Y0026851D01*
X0058496Y0026851D01*
X0059998Y0026851D02*
X0061499Y0025350D01*
X0056895Y0029854D02*
X0053892Y0029854D01*
X0053892Y0025350D01*
X0053892Y0027602D02*
X0055394Y0027602D01*
X0067704Y0029103D02*
X0067704Y0026101D01*
X0068455Y0025350D01*
X0069956Y0025350D01*
X0070707Y0026101D01*
X0070707Y0029103D01*
X0069956Y0029854D01*
X0068455Y0029854D01*
X0067704Y0029103D01*
X0072308Y0029854D02*
X0072308Y0025350D01*
X0075311Y0025350D02*
X0072308Y0029854D01*
X0075311Y0029854D02*
X0075311Y0025350D01*
X0064687Y0048850D02*
X0061685Y0048850D01*
X0063186Y0048850D02*
X0063186Y0053354D01*
X0061685Y0051853D01*
X0060083Y0052603D02*
X0059333Y0053354D01*
X0057831Y0053354D01*
X0057081Y0052603D01*
X0057081Y0051853D01*
X0057831Y0051102D01*
X0059333Y0051102D01*
X0060083Y0050351D01*
X0060083Y0049601D01*
X0059333Y0048850D01*
X0057831Y0048850D01*
X0057081Y0049601D01*
X0221374Y0064915D02*
X0264287Y0064915D01*
X0264287Y0104285D02*
X0221374Y0104285D01*
X0221374Y0121915D02*
X0264287Y0121915D01*
X0264287Y0161285D02*
X0221374Y0161285D01*
X0222374Y0178915D02*
X0265287Y0178915D01*
X0265287Y0218285D02*
X0222374Y0218285D01*
X0120902Y0216017D02*
X0120902Y0193183D01*
X0120114Y0193183D01*
X0085469Y0193183D02*
X0084681Y0193183D01*
X0084681Y0215624D01*
X0085469Y0215624D01*
X0087043Y0217986D02*
X0087043Y0220348D01*
X0086256Y0219954D02*
X0087831Y0218380D01*
X0088224Y0219167D02*
X0085862Y0219167D01*
X0086256Y0218380D02*
X0087831Y0219954D01*
X0120114Y0216017D02*
X0120902Y0216017D01*
D11*
X0078081Y0230600D02*
X0078083Y0230758D01*
X0078089Y0230915D01*
X0078099Y0231073D01*
X0078113Y0231230D01*
X0078131Y0231386D01*
X0078152Y0231543D01*
X0078178Y0231698D01*
X0078208Y0231853D01*
X0078241Y0232007D01*
X0078279Y0232160D01*
X0078320Y0232313D01*
X0078365Y0232464D01*
X0078414Y0232614D01*
X0078467Y0232762D01*
X0078523Y0232910D01*
X0078584Y0233055D01*
X0078647Y0233200D01*
X0078715Y0233342D01*
X0078786Y0233483D01*
X0078860Y0233622D01*
X0078938Y0233759D01*
X0079020Y0233894D01*
X0079104Y0234027D01*
X0079193Y0234158D01*
X0079284Y0234286D01*
X0079379Y0234413D01*
X0079476Y0234536D01*
X0079577Y0234658D01*
X0079681Y0234776D01*
X0079788Y0234892D01*
X0079898Y0235005D01*
X0080010Y0235116D01*
X0080126Y0235223D01*
X0080244Y0235328D01*
X0080364Y0235430D01*
X0080487Y0235528D01*
X0080613Y0235624D01*
X0080741Y0235716D01*
X0080871Y0235805D01*
X0081003Y0235891D01*
X0081138Y0235973D01*
X0081275Y0236052D01*
X0081413Y0236127D01*
X0081553Y0236199D01*
X0081696Y0236267D01*
X0081839Y0236332D01*
X0081985Y0236393D01*
X0082132Y0236450D01*
X0082280Y0236504D01*
X0082430Y0236554D01*
X0082580Y0236600D01*
X0082732Y0236642D01*
X0082885Y0236681D01*
X0083039Y0236715D01*
X0083194Y0236746D01*
X0083349Y0236772D01*
X0083505Y0236795D01*
X0083662Y0236814D01*
X0083819Y0236829D01*
X0083976Y0236840D01*
X0084134Y0236847D01*
X0084292Y0236850D01*
X0084449Y0236849D01*
X0084607Y0236844D01*
X0084764Y0236835D01*
X0084922Y0236822D01*
X0085078Y0236805D01*
X0085235Y0236784D01*
X0085390Y0236760D01*
X0085545Y0236731D01*
X0085700Y0236698D01*
X0085853Y0236662D01*
X0086006Y0236621D01*
X0086157Y0236577D01*
X0086307Y0236529D01*
X0086456Y0236478D01*
X0086604Y0236422D01*
X0086750Y0236363D01*
X0086895Y0236300D01*
X0087038Y0236233D01*
X0087179Y0236163D01*
X0087318Y0236090D01*
X0087456Y0236013D01*
X0087592Y0235932D01*
X0087725Y0235848D01*
X0087856Y0235761D01*
X0087985Y0235670D01*
X0088112Y0235576D01*
X0088237Y0235479D01*
X0088358Y0235379D01*
X0088478Y0235276D01*
X0088594Y0235170D01*
X0088708Y0235061D01*
X0088820Y0234949D01*
X0088928Y0234835D01*
X0089033Y0234717D01*
X0089136Y0234597D01*
X0089235Y0234475D01*
X0089331Y0234350D01*
X0089424Y0234222D01*
X0089514Y0234093D01*
X0089600Y0233961D01*
X0089684Y0233827D01*
X0089763Y0233691D01*
X0089840Y0233553D01*
X0089912Y0233413D01*
X0089981Y0233271D01*
X0090047Y0233128D01*
X0090109Y0232983D01*
X0090167Y0232836D01*
X0090222Y0232688D01*
X0090273Y0232539D01*
X0090320Y0232388D01*
X0090363Y0232237D01*
X0090402Y0232084D01*
X0090438Y0231930D01*
X0090469Y0231776D01*
X0090497Y0231621D01*
X0090521Y0231465D01*
X0090541Y0231308D01*
X0090557Y0231151D01*
X0090569Y0230994D01*
X0090577Y0230837D01*
X0090581Y0230679D01*
X0090581Y0230521D01*
X0090577Y0230363D01*
X0090569Y0230206D01*
X0090557Y0230049D01*
X0090541Y0229892D01*
X0090521Y0229735D01*
X0090497Y0229579D01*
X0090469Y0229424D01*
X0090438Y0229270D01*
X0090402Y0229116D01*
X0090363Y0228963D01*
X0090320Y0228812D01*
X0090273Y0228661D01*
X0090222Y0228512D01*
X0090167Y0228364D01*
X0090109Y0228217D01*
X0090047Y0228072D01*
X0089981Y0227929D01*
X0089912Y0227787D01*
X0089840Y0227647D01*
X0089763Y0227509D01*
X0089684Y0227373D01*
X0089600Y0227239D01*
X0089514Y0227107D01*
X0089424Y0226978D01*
X0089331Y0226850D01*
X0089235Y0226725D01*
X0089136Y0226603D01*
X0089033Y0226483D01*
X0088928Y0226365D01*
X0088820Y0226251D01*
X0088708Y0226139D01*
X0088594Y0226030D01*
X0088478Y0225924D01*
X0088358Y0225821D01*
X0088237Y0225721D01*
X0088112Y0225624D01*
X0087985Y0225530D01*
X0087856Y0225439D01*
X0087725Y0225352D01*
X0087592Y0225268D01*
X0087456Y0225187D01*
X0087318Y0225110D01*
X0087179Y0225037D01*
X0087038Y0224967D01*
X0086895Y0224900D01*
X0086750Y0224837D01*
X0086604Y0224778D01*
X0086456Y0224722D01*
X0086307Y0224671D01*
X0086157Y0224623D01*
X0086006Y0224579D01*
X0085853Y0224538D01*
X0085700Y0224502D01*
X0085545Y0224469D01*
X0085390Y0224440D01*
X0085235Y0224416D01*
X0085078Y0224395D01*
X0084922Y0224378D01*
X0084764Y0224365D01*
X0084607Y0224356D01*
X0084449Y0224351D01*
X0084292Y0224350D01*
X0084134Y0224353D01*
X0083976Y0224360D01*
X0083819Y0224371D01*
X0083662Y0224386D01*
X0083505Y0224405D01*
X0083349Y0224428D01*
X0083194Y0224454D01*
X0083039Y0224485D01*
X0082885Y0224519D01*
X0082732Y0224558D01*
X0082580Y0224600D01*
X0082430Y0224646D01*
X0082280Y0224696D01*
X0082132Y0224750D01*
X0081985Y0224807D01*
X0081839Y0224868D01*
X0081696Y0224933D01*
X0081553Y0225001D01*
X0081413Y0225073D01*
X0081275Y0225148D01*
X0081138Y0225227D01*
X0081003Y0225309D01*
X0080871Y0225395D01*
X0080741Y0225484D01*
X0080613Y0225576D01*
X0080487Y0225672D01*
X0080364Y0225770D01*
X0080244Y0225872D01*
X0080126Y0225977D01*
X0080010Y0226084D01*
X0079898Y0226195D01*
X0079788Y0226308D01*
X0079681Y0226424D01*
X0079577Y0226542D01*
X0079476Y0226664D01*
X0079379Y0226787D01*
X0079284Y0226914D01*
X0079193Y0227042D01*
X0079104Y0227173D01*
X0079020Y0227306D01*
X0078938Y0227441D01*
X0078860Y0227578D01*
X0078786Y0227717D01*
X0078715Y0227858D01*
X0078647Y0228000D01*
X0078584Y0228145D01*
X0078523Y0228290D01*
X0078467Y0228438D01*
X0078414Y0228586D01*
X0078365Y0228736D01*
X0078320Y0228887D01*
X0078279Y0229040D01*
X0078241Y0229193D01*
X0078208Y0229347D01*
X0078178Y0229502D01*
X0078152Y0229657D01*
X0078131Y0229814D01*
X0078113Y0229970D01*
X0078099Y0230127D01*
X0078089Y0230285D01*
X0078083Y0230442D01*
X0078081Y0230600D01*
X0167631Y0205900D02*
X0167636Y0205832D01*
X0167645Y0205764D01*
X0167657Y0205696D01*
X0167674Y0205630D01*
X0167694Y0205564D01*
X0167718Y0205500D01*
X0167745Y0205437D01*
X0167776Y0205376D01*
X0167811Y0205316D01*
X0167849Y0205259D01*
X0167890Y0205204D01*
X0167934Y0205152D01*
X0167981Y0205102D01*
X0168031Y0205055D01*
X0168083Y0205010D01*
X0168138Y0204969D01*
X0168195Y0204931D01*
X0168254Y0204897D01*
X0168315Y0204865D01*
X0168378Y0204838D01*
X0168442Y0204814D01*
X0168508Y0204793D01*
X0168574Y0204777D01*
X0168642Y0204764D01*
X0168710Y0204755D01*
X0168778Y0204750D01*
X0168847Y0204749D01*
X0168915Y0204752D01*
X0168984Y0204759D01*
X0169051Y0204769D01*
X0169118Y0204784D01*
X0169184Y0204802D01*
X0169249Y0204824D01*
X0169313Y0204850D01*
X0169375Y0204879D01*
X0169435Y0204912D01*
X0169493Y0204948D01*
X0169550Y0204988D01*
X0169603Y0205030D01*
X0169655Y0205076D01*
X0169703Y0205124D01*
X0169749Y0205175D01*
X0169792Y0205229D01*
X0169831Y0205285D01*
X0169868Y0205343D01*
X0169900Y0205403D01*
X0169930Y0205465D01*
X0169956Y0205529D01*
X0169978Y0205594D01*
X0169996Y0205660D01*
X0170011Y0205727D01*
X0170022Y0205795D01*
X0170029Y0205863D01*
X0170032Y0205931D01*
X0170031Y0206000D01*
X0170032Y0205931D01*
X0170029Y0205863D01*
X0170022Y0205795D01*
X0170011Y0205727D01*
X0169996Y0205660D01*
X0169978Y0205594D01*
X0169956Y0205529D01*
X0169930Y0205465D01*
X0169900Y0205403D01*
X0169868Y0205343D01*
X0169831Y0205285D01*
X0169792Y0205229D01*
X0169749Y0205175D01*
X0169703Y0205124D01*
X0169655Y0205076D01*
X0169603Y0205030D01*
X0169550Y0204988D01*
X0169493Y0204948D01*
X0169435Y0204912D01*
X0169375Y0204879D01*
X0169313Y0204850D01*
X0169249Y0204824D01*
X0169184Y0204802D01*
X0169118Y0204784D01*
X0169051Y0204769D01*
X0168984Y0204759D01*
X0168915Y0204752D01*
X0168847Y0204749D01*
X0168778Y0204750D01*
X0168710Y0204755D01*
X0168642Y0204764D01*
X0168574Y0204777D01*
X0168508Y0204793D01*
X0168442Y0204814D01*
X0168378Y0204838D01*
X0168315Y0204865D01*
X0168254Y0204897D01*
X0168195Y0204931D01*
X0168138Y0204969D01*
X0168083Y0205010D01*
X0168031Y0205055D01*
X0167981Y0205102D01*
X0167934Y0205152D01*
X0167890Y0205204D01*
X0167849Y0205259D01*
X0167811Y0205316D01*
X0167776Y0205376D01*
X0167745Y0205437D01*
X0167718Y0205500D01*
X0167694Y0205564D01*
X0167674Y0205630D01*
X0167657Y0205696D01*
X0167645Y0205764D01*
X0167636Y0205832D01*
X0167631Y0205900D01*
X0169031Y0149000D02*
X0169032Y0148931D01*
X0169029Y0148863D01*
X0169022Y0148795D01*
X0169011Y0148727D01*
X0168996Y0148660D01*
X0168978Y0148594D01*
X0168956Y0148529D01*
X0168930Y0148465D01*
X0168900Y0148403D01*
X0168868Y0148343D01*
X0168831Y0148285D01*
X0168792Y0148229D01*
X0168749Y0148175D01*
X0168703Y0148124D01*
X0168655Y0148076D01*
X0168603Y0148030D01*
X0168550Y0147988D01*
X0168493Y0147948D01*
X0168435Y0147912D01*
X0168375Y0147879D01*
X0168313Y0147850D01*
X0168249Y0147824D01*
X0168184Y0147802D01*
X0168118Y0147784D01*
X0168051Y0147769D01*
X0167984Y0147759D01*
X0167915Y0147752D01*
X0167847Y0147749D01*
X0167778Y0147750D01*
X0167710Y0147755D01*
X0167642Y0147764D01*
X0167574Y0147777D01*
X0167508Y0147793D01*
X0167442Y0147814D01*
X0167378Y0147838D01*
X0167315Y0147865D01*
X0167254Y0147897D01*
X0167195Y0147931D01*
X0167138Y0147969D01*
X0167083Y0148010D01*
X0167031Y0148055D01*
X0166981Y0148102D01*
X0166934Y0148152D01*
X0166890Y0148204D01*
X0166849Y0148259D01*
X0166811Y0148316D01*
X0166776Y0148376D01*
X0166745Y0148437D01*
X0166718Y0148500D01*
X0166694Y0148564D01*
X0166674Y0148630D01*
X0166657Y0148696D01*
X0166645Y0148764D01*
X0166636Y0148832D01*
X0166631Y0148900D01*
X0166636Y0148832D01*
X0166645Y0148764D01*
X0166657Y0148696D01*
X0166674Y0148630D01*
X0166694Y0148564D01*
X0166718Y0148500D01*
X0166745Y0148437D01*
X0166776Y0148376D01*
X0166811Y0148316D01*
X0166849Y0148259D01*
X0166890Y0148204D01*
X0166934Y0148152D01*
X0166981Y0148102D01*
X0167031Y0148055D01*
X0167083Y0148010D01*
X0167138Y0147969D01*
X0167195Y0147931D01*
X0167254Y0147897D01*
X0167315Y0147865D01*
X0167378Y0147838D01*
X0167442Y0147814D01*
X0167508Y0147793D01*
X0167574Y0147777D01*
X0167642Y0147764D01*
X0167710Y0147755D01*
X0167778Y0147750D01*
X0167847Y0147749D01*
X0167915Y0147752D01*
X0167984Y0147759D01*
X0168051Y0147769D01*
X0168118Y0147784D01*
X0168184Y0147802D01*
X0168249Y0147824D01*
X0168313Y0147850D01*
X0168375Y0147879D01*
X0168435Y0147912D01*
X0168493Y0147948D01*
X0168550Y0147988D01*
X0168603Y0148030D01*
X0168655Y0148076D01*
X0168703Y0148124D01*
X0168749Y0148175D01*
X0168792Y0148229D01*
X0168831Y0148285D01*
X0168868Y0148343D01*
X0168900Y0148403D01*
X0168930Y0148465D01*
X0168956Y0148529D01*
X0168978Y0148594D01*
X0168996Y0148660D01*
X0169011Y0148727D01*
X0169022Y0148795D01*
X0169029Y0148863D01*
X0169032Y0148931D01*
X0169031Y0149000D01*
X0169031Y0092000D02*
X0169032Y0091931D01*
X0169029Y0091863D01*
X0169022Y0091795D01*
X0169011Y0091727D01*
X0168996Y0091660D01*
X0168978Y0091594D01*
X0168956Y0091529D01*
X0168930Y0091465D01*
X0168900Y0091403D01*
X0168868Y0091343D01*
X0168831Y0091285D01*
X0168792Y0091229D01*
X0168749Y0091175D01*
X0168703Y0091124D01*
X0168655Y0091076D01*
X0168603Y0091030D01*
X0168550Y0090988D01*
X0168493Y0090948D01*
X0168435Y0090912D01*
X0168375Y0090879D01*
X0168313Y0090850D01*
X0168249Y0090824D01*
X0168184Y0090802D01*
X0168118Y0090784D01*
X0168051Y0090769D01*
X0167984Y0090759D01*
X0167915Y0090752D01*
X0167847Y0090749D01*
X0167778Y0090750D01*
X0167710Y0090755D01*
X0167642Y0090764D01*
X0167574Y0090777D01*
X0167508Y0090793D01*
X0167442Y0090814D01*
X0167378Y0090838D01*
X0167315Y0090865D01*
X0167254Y0090897D01*
X0167195Y0090931D01*
X0167138Y0090969D01*
X0167083Y0091010D01*
X0167031Y0091055D01*
X0166981Y0091102D01*
X0166934Y0091152D01*
X0166890Y0091204D01*
X0166849Y0091259D01*
X0166811Y0091316D01*
X0166776Y0091376D01*
X0166745Y0091437D01*
X0166718Y0091500D01*
X0166694Y0091564D01*
X0166674Y0091630D01*
X0166657Y0091696D01*
X0166645Y0091764D01*
X0166636Y0091832D01*
X0166631Y0091900D01*
X0166636Y0091832D01*
X0166645Y0091764D01*
X0166657Y0091696D01*
X0166674Y0091630D01*
X0166694Y0091564D01*
X0166718Y0091500D01*
X0166745Y0091437D01*
X0166776Y0091376D01*
X0166811Y0091316D01*
X0166849Y0091259D01*
X0166890Y0091204D01*
X0166934Y0091152D01*
X0166981Y0091102D01*
X0167031Y0091055D01*
X0167083Y0091010D01*
X0167138Y0090969D01*
X0167195Y0090931D01*
X0167254Y0090897D01*
X0167315Y0090865D01*
X0167378Y0090838D01*
X0167442Y0090814D01*
X0167508Y0090793D01*
X0167574Y0090777D01*
X0167642Y0090764D01*
X0167710Y0090755D01*
X0167778Y0090750D01*
X0167847Y0090749D01*
X0167915Y0090752D01*
X0167984Y0090759D01*
X0168051Y0090769D01*
X0168118Y0090784D01*
X0168184Y0090802D01*
X0168249Y0090824D01*
X0168313Y0090850D01*
X0168375Y0090879D01*
X0168435Y0090912D01*
X0168493Y0090948D01*
X0168550Y0090988D01*
X0168603Y0091030D01*
X0168655Y0091076D01*
X0168703Y0091124D01*
X0168749Y0091175D01*
X0168792Y0091229D01*
X0168831Y0091285D01*
X0168868Y0091343D01*
X0168900Y0091403D01*
X0168930Y0091465D01*
X0168956Y0091529D01*
X0168978Y0091594D01*
X0168996Y0091660D01*
X0169011Y0091727D01*
X0169022Y0091795D01*
X0169029Y0091863D01*
X0169032Y0091931D01*
X0169031Y0092000D01*
X0078081Y0040600D02*
X0078083Y0040758D01*
X0078089Y0040915D01*
X0078099Y0041073D01*
X0078113Y0041230D01*
X0078131Y0041386D01*
X0078152Y0041543D01*
X0078178Y0041698D01*
X0078208Y0041853D01*
X0078241Y0042007D01*
X0078279Y0042160D01*
X0078320Y0042313D01*
X0078365Y0042464D01*
X0078414Y0042614D01*
X0078467Y0042762D01*
X0078523Y0042910D01*
X0078584Y0043055D01*
X0078647Y0043200D01*
X0078715Y0043342D01*
X0078786Y0043483D01*
X0078860Y0043622D01*
X0078938Y0043759D01*
X0079020Y0043894D01*
X0079104Y0044027D01*
X0079193Y0044158D01*
X0079284Y0044286D01*
X0079379Y0044413D01*
X0079476Y0044536D01*
X0079577Y0044658D01*
X0079681Y0044776D01*
X0079788Y0044892D01*
X0079898Y0045005D01*
X0080010Y0045116D01*
X0080126Y0045223D01*
X0080244Y0045328D01*
X0080364Y0045430D01*
X0080487Y0045528D01*
X0080613Y0045624D01*
X0080741Y0045716D01*
X0080871Y0045805D01*
X0081003Y0045891D01*
X0081138Y0045973D01*
X0081275Y0046052D01*
X0081413Y0046127D01*
X0081553Y0046199D01*
X0081696Y0046267D01*
X0081839Y0046332D01*
X0081985Y0046393D01*
X0082132Y0046450D01*
X0082280Y0046504D01*
X0082430Y0046554D01*
X0082580Y0046600D01*
X0082732Y0046642D01*
X0082885Y0046681D01*
X0083039Y0046715D01*
X0083194Y0046746D01*
X0083349Y0046772D01*
X0083505Y0046795D01*
X0083662Y0046814D01*
X0083819Y0046829D01*
X0083976Y0046840D01*
X0084134Y0046847D01*
X0084292Y0046850D01*
X0084449Y0046849D01*
X0084607Y0046844D01*
X0084764Y0046835D01*
X0084922Y0046822D01*
X0085078Y0046805D01*
X0085235Y0046784D01*
X0085390Y0046760D01*
X0085545Y0046731D01*
X0085700Y0046698D01*
X0085853Y0046662D01*
X0086006Y0046621D01*
X0086157Y0046577D01*
X0086307Y0046529D01*
X0086456Y0046478D01*
X0086604Y0046422D01*
X0086750Y0046363D01*
X0086895Y0046300D01*
X0087038Y0046233D01*
X0087179Y0046163D01*
X0087318Y0046090D01*
X0087456Y0046013D01*
X0087592Y0045932D01*
X0087725Y0045848D01*
X0087856Y0045761D01*
X0087985Y0045670D01*
X0088112Y0045576D01*
X0088237Y0045479D01*
X0088358Y0045379D01*
X0088478Y0045276D01*
X0088594Y0045170D01*
X0088708Y0045061D01*
X0088820Y0044949D01*
X0088928Y0044835D01*
X0089033Y0044717D01*
X0089136Y0044597D01*
X0089235Y0044475D01*
X0089331Y0044350D01*
X0089424Y0044222D01*
X0089514Y0044093D01*
X0089600Y0043961D01*
X0089684Y0043827D01*
X0089763Y0043691D01*
X0089840Y0043553D01*
X0089912Y0043413D01*
X0089981Y0043271D01*
X0090047Y0043128D01*
X0090109Y0042983D01*
X0090167Y0042836D01*
X0090222Y0042688D01*
X0090273Y0042539D01*
X0090320Y0042388D01*
X0090363Y0042237D01*
X0090402Y0042084D01*
X0090438Y0041930D01*
X0090469Y0041776D01*
X0090497Y0041621D01*
X0090521Y0041465D01*
X0090541Y0041308D01*
X0090557Y0041151D01*
X0090569Y0040994D01*
X0090577Y0040837D01*
X0090581Y0040679D01*
X0090581Y0040521D01*
X0090577Y0040363D01*
X0090569Y0040206D01*
X0090557Y0040049D01*
X0090541Y0039892D01*
X0090521Y0039735D01*
X0090497Y0039579D01*
X0090469Y0039424D01*
X0090438Y0039270D01*
X0090402Y0039116D01*
X0090363Y0038963D01*
X0090320Y0038812D01*
X0090273Y0038661D01*
X0090222Y0038512D01*
X0090167Y0038364D01*
X0090109Y0038217D01*
X0090047Y0038072D01*
X0089981Y0037929D01*
X0089912Y0037787D01*
X0089840Y0037647D01*
X0089763Y0037509D01*
X0089684Y0037373D01*
X0089600Y0037239D01*
X0089514Y0037107D01*
X0089424Y0036978D01*
X0089331Y0036850D01*
X0089235Y0036725D01*
X0089136Y0036603D01*
X0089033Y0036483D01*
X0088928Y0036365D01*
X0088820Y0036251D01*
X0088708Y0036139D01*
X0088594Y0036030D01*
X0088478Y0035924D01*
X0088358Y0035821D01*
X0088237Y0035721D01*
X0088112Y0035624D01*
X0087985Y0035530D01*
X0087856Y0035439D01*
X0087725Y0035352D01*
X0087592Y0035268D01*
X0087456Y0035187D01*
X0087318Y0035110D01*
X0087179Y0035037D01*
X0087038Y0034967D01*
X0086895Y0034900D01*
X0086750Y0034837D01*
X0086604Y0034778D01*
X0086456Y0034722D01*
X0086307Y0034671D01*
X0086157Y0034623D01*
X0086006Y0034579D01*
X0085853Y0034538D01*
X0085700Y0034502D01*
X0085545Y0034469D01*
X0085390Y0034440D01*
X0085235Y0034416D01*
X0085078Y0034395D01*
X0084922Y0034378D01*
X0084764Y0034365D01*
X0084607Y0034356D01*
X0084449Y0034351D01*
X0084292Y0034350D01*
X0084134Y0034353D01*
X0083976Y0034360D01*
X0083819Y0034371D01*
X0083662Y0034386D01*
X0083505Y0034405D01*
X0083349Y0034428D01*
X0083194Y0034454D01*
X0083039Y0034485D01*
X0082885Y0034519D01*
X0082732Y0034558D01*
X0082580Y0034600D01*
X0082430Y0034646D01*
X0082280Y0034696D01*
X0082132Y0034750D01*
X0081985Y0034807D01*
X0081839Y0034868D01*
X0081696Y0034933D01*
X0081553Y0035001D01*
X0081413Y0035073D01*
X0081275Y0035148D01*
X0081138Y0035227D01*
X0081003Y0035309D01*
X0080871Y0035395D01*
X0080741Y0035484D01*
X0080613Y0035576D01*
X0080487Y0035672D01*
X0080364Y0035770D01*
X0080244Y0035872D01*
X0080126Y0035977D01*
X0080010Y0036084D01*
X0079898Y0036195D01*
X0079788Y0036308D01*
X0079681Y0036424D01*
X0079577Y0036542D01*
X0079476Y0036664D01*
X0079379Y0036787D01*
X0079284Y0036914D01*
X0079193Y0037042D01*
X0079104Y0037173D01*
X0079020Y0037306D01*
X0078938Y0037441D01*
X0078860Y0037578D01*
X0078786Y0037717D01*
X0078715Y0037858D01*
X0078647Y0038000D01*
X0078584Y0038145D01*
X0078523Y0038290D01*
X0078467Y0038438D01*
X0078414Y0038586D01*
X0078365Y0038736D01*
X0078320Y0038887D01*
X0078279Y0039040D01*
X0078241Y0039193D01*
X0078208Y0039347D01*
X0078178Y0039502D01*
X0078152Y0039657D01*
X0078131Y0039814D01*
X0078113Y0039970D01*
X0078099Y0040127D01*
X0078089Y0040285D01*
X0078083Y0040442D01*
X0078081Y0040600D01*
X0032996Y0062383D02*
X0032998Y0062541D01*
X0033004Y0062699D01*
X0033014Y0062857D01*
X0033028Y0063015D01*
X0033046Y0063172D01*
X0033067Y0063329D01*
X0033093Y0063485D01*
X0033123Y0063641D01*
X0033156Y0063796D01*
X0033194Y0063949D01*
X0033235Y0064102D01*
X0033280Y0064254D01*
X0033329Y0064405D01*
X0033382Y0064554D01*
X0033438Y0064702D01*
X0033498Y0064848D01*
X0033562Y0064993D01*
X0033630Y0065136D01*
X0033701Y0065278D01*
X0033775Y0065418D01*
X0033853Y0065555D01*
X0033935Y0065691D01*
X0034019Y0065825D01*
X0034108Y0065956D01*
X0034199Y0066085D01*
X0034294Y0066212D01*
X0034391Y0066337D01*
X0034492Y0066459D01*
X0034596Y0066578D01*
X0034703Y0066695D01*
X0034813Y0066809D01*
X0034926Y0066920D01*
X0035041Y0067029D01*
X0035159Y0067134D01*
X0035280Y0067236D01*
X0035403Y0067336D01*
X0035529Y0067432D01*
X0035657Y0067525D01*
X0035787Y0067615D01*
X0035920Y0067701D01*
X0036055Y0067785D01*
X0036191Y0067864D01*
X0036330Y0067941D01*
X0036471Y0068013D01*
X0036613Y0068083D01*
X0036757Y0068148D01*
X0036903Y0068210D01*
X0037050Y0068268D01*
X0037199Y0068323D01*
X0037349Y0068374D01*
X0037500Y0068421D01*
X0037652Y0068464D01*
X0037805Y0068503D01*
X0037960Y0068539D01*
X0038115Y0068570D01*
X0038271Y0068598D01*
X0038427Y0068622D01*
X0038584Y0068642D01*
X0038742Y0068658D01*
X0038899Y0068670D01*
X0039058Y0068678D01*
X0039216Y0068682D01*
X0039374Y0068682D01*
X0039532Y0068678D01*
X0039691Y0068670D01*
X0039848Y0068658D01*
X0040006Y0068642D01*
X0040163Y0068622D01*
X0040319Y0068598D01*
X0040475Y0068570D01*
X0040630Y0068539D01*
X0040785Y0068503D01*
X0040938Y0068464D01*
X0041090Y0068421D01*
X0041241Y0068374D01*
X0041391Y0068323D01*
X0041540Y0068268D01*
X0041687Y0068210D01*
X0041833Y0068148D01*
X0041977Y0068083D01*
X0042119Y0068013D01*
X0042260Y0067941D01*
X0042399Y0067864D01*
X0042535Y0067785D01*
X0042670Y0067701D01*
X0042803Y0067615D01*
X0042933Y0067525D01*
X0043061Y0067432D01*
X0043187Y0067336D01*
X0043310Y0067236D01*
X0043431Y0067134D01*
X0043549Y0067029D01*
X0043664Y0066920D01*
X0043777Y0066809D01*
X0043887Y0066695D01*
X0043994Y0066578D01*
X0044098Y0066459D01*
X0044199Y0066337D01*
X0044296Y0066212D01*
X0044391Y0066085D01*
X0044482Y0065956D01*
X0044571Y0065825D01*
X0044655Y0065691D01*
X0044737Y0065555D01*
X0044815Y0065418D01*
X0044889Y0065278D01*
X0044960Y0065136D01*
X0045028Y0064993D01*
X0045092Y0064848D01*
X0045152Y0064702D01*
X0045208Y0064554D01*
X0045261Y0064405D01*
X0045310Y0064254D01*
X0045355Y0064102D01*
X0045396Y0063949D01*
X0045434Y0063796D01*
X0045467Y0063641D01*
X0045497Y0063485D01*
X0045523Y0063329D01*
X0045544Y0063172D01*
X0045562Y0063015D01*
X0045576Y0062857D01*
X0045586Y0062699D01*
X0045592Y0062541D01*
X0045594Y0062383D01*
X0045592Y0062225D01*
X0045586Y0062067D01*
X0045576Y0061909D01*
X0045562Y0061751D01*
X0045544Y0061594D01*
X0045523Y0061437D01*
X0045497Y0061281D01*
X0045467Y0061125D01*
X0045434Y0060970D01*
X0045396Y0060817D01*
X0045355Y0060664D01*
X0045310Y0060512D01*
X0045261Y0060361D01*
X0045208Y0060212D01*
X0045152Y0060064D01*
X0045092Y0059918D01*
X0045028Y0059773D01*
X0044960Y0059630D01*
X0044889Y0059488D01*
X0044815Y0059348D01*
X0044737Y0059211D01*
X0044655Y0059075D01*
X0044571Y0058941D01*
X0044482Y0058810D01*
X0044391Y0058681D01*
X0044296Y0058554D01*
X0044199Y0058429D01*
X0044098Y0058307D01*
X0043994Y0058188D01*
X0043887Y0058071D01*
X0043777Y0057957D01*
X0043664Y0057846D01*
X0043549Y0057737D01*
X0043431Y0057632D01*
X0043310Y0057530D01*
X0043187Y0057430D01*
X0043061Y0057334D01*
X0042933Y0057241D01*
X0042803Y0057151D01*
X0042670Y0057065D01*
X0042535Y0056981D01*
X0042399Y0056902D01*
X0042260Y0056825D01*
X0042119Y0056753D01*
X0041977Y0056683D01*
X0041833Y0056618D01*
X0041687Y0056556D01*
X0041540Y0056498D01*
X0041391Y0056443D01*
X0041241Y0056392D01*
X0041090Y0056345D01*
X0040938Y0056302D01*
X0040785Y0056263D01*
X0040630Y0056227D01*
X0040475Y0056196D01*
X0040319Y0056168D01*
X0040163Y0056144D01*
X0040006Y0056124D01*
X0039848Y0056108D01*
X0039691Y0056096D01*
X0039532Y0056088D01*
X0039374Y0056084D01*
X0039216Y0056084D01*
X0039058Y0056088D01*
X0038899Y0056096D01*
X0038742Y0056108D01*
X0038584Y0056124D01*
X0038427Y0056144D01*
X0038271Y0056168D01*
X0038115Y0056196D01*
X0037960Y0056227D01*
X0037805Y0056263D01*
X0037652Y0056302D01*
X0037500Y0056345D01*
X0037349Y0056392D01*
X0037199Y0056443D01*
X0037050Y0056498D01*
X0036903Y0056556D01*
X0036757Y0056618D01*
X0036613Y0056683D01*
X0036471Y0056753D01*
X0036330Y0056825D01*
X0036191Y0056902D01*
X0036055Y0056981D01*
X0035920Y0057065D01*
X0035787Y0057151D01*
X0035657Y0057241D01*
X0035529Y0057334D01*
X0035403Y0057430D01*
X0035280Y0057530D01*
X0035159Y0057632D01*
X0035041Y0057737D01*
X0034926Y0057846D01*
X0034813Y0057957D01*
X0034703Y0058071D01*
X0034596Y0058188D01*
X0034492Y0058307D01*
X0034391Y0058429D01*
X0034294Y0058554D01*
X0034199Y0058681D01*
X0034108Y0058810D01*
X0034019Y0058941D01*
X0033935Y0059075D01*
X0033853Y0059211D01*
X0033775Y0059348D01*
X0033701Y0059488D01*
X0033630Y0059630D01*
X0033562Y0059773D01*
X0033498Y0059918D01*
X0033438Y0060064D01*
X0033382Y0060212D01*
X0033329Y0060361D01*
X0033280Y0060512D01*
X0033235Y0060664D01*
X0033194Y0060817D01*
X0033156Y0060970D01*
X0033123Y0061125D01*
X0033093Y0061281D01*
X0033067Y0061437D01*
X0033046Y0061594D01*
X0033028Y0061751D01*
X0033014Y0061909D01*
X0033004Y0062067D01*
X0032998Y0062225D01*
X0032996Y0062383D01*
X0032996Y0097817D02*
X0032998Y0097975D01*
X0033004Y0098133D01*
X0033014Y0098291D01*
X0033028Y0098449D01*
X0033046Y0098606D01*
X0033067Y0098763D01*
X0033093Y0098919D01*
X0033123Y0099075D01*
X0033156Y0099230D01*
X0033194Y0099383D01*
X0033235Y0099536D01*
X0033280Y0099688D01*
X0033329Y0099839D01*
X0033382Y0099988D01*
X0033438Y0100136D01*
X0033498Y0100282D01*
X0033562Y0100427D01*
X0033630Y0100570D01*
X0033701Y0100712D01*
X0033775Y0100852D01*
X0033853Y0100989D01*
X0033935Y0101125D01*
X0034019Y0101259D01*
X0034108Y0101390D01*
X0034199Y0101519D01*
X0034294Y0101646D01*
X0034391Y0101771D01*
X0034492Y0101893D01*
X0034596Y0102012D01*
X0034703Y0102129D01*
X0034813Y0102243D01*
X0034926Y0102354D01*
X0035041Y0102463D01*
X0035159Y0102568D01*
X0035280Y0102670D01*
X0035403Y0102770D01*
X0035529Y0102866D01*
X0035657Y0102959D01*
X0035787Y0103049D01*
X0035920Y0103135D01*
X0036055Y0103219D01*
X0036191Y0103298D01*
X0036330Y0103375D01*
X0036471Y0103447D01*
X0036613Y0103517D01*
X0036757Y0103582D01*
X0036903Y0103644D01*
X0037050Y0103702D01*
X0037199Y0103757D01*
X0037349Y0103808D01*
X0037500Y0103855D01*
X0037652Y0103898D01*
X0037805Y0103937D01*
X0037960Y0103973D01*
X0038115Y0104004D01*
X0038271Y0104032D01*
X0038427Y0104056D01*
X0038584Y0104076D01*
X0038742Y0104092D01*
X0038899Y0104104D01*
X0039058Y0104112D01*
X0039216Y0104116D01*
X0039374Y0104116D01*
X0039532Y0104112D01*
X0039691Y0104104D01*
X0039848Y0104092D01*
X0040006Y0104076D01*
X0040163Y0104056D01*
X0040319Y0104032D01*
X0040475Y0104004D01*
X0040630Y0103973D01*
X0040785Y0103937D01*
X0040938Y0103898D01*
X0041090Y0103855D01*
X0041241Y0103808D01*
X0041391Y0103757D01*
X0041540Y0103702D01*
X0041687Y0103644D01*
X0041833Y0103582D01*
X0041977Y0103517D01*
X0042119Y0103447D01*
X0042260Y0103375D01*
X0042399Y0103298D01*
X0042535Y0103219D01*
X0042670Y0103135D01*
X0042803Y0103049D01*
X0042933Y0102959D01*
X0043061Y0102866D01*
X0043187Y0102770D01*
X0043310Y0102670D01*
X0043431Y0102568D01*
X0043549Y0102463D01*
X0043664Y0102354D01*
X0043777Y0102243D01*
X0043887Y0102129D01*
X0043994Y0102012D01*
X0044098Y0101893D01*
X0044199Y0101771D01*
X0044296Y0101646D01*
X0044391Y0101519D01*
X0044482Y0101390D01*
X0044571Y0101259D01*
X0044655Y0101125D01*
X0044737Y0100989D01*
X0044815Y0100852D01*
X0044889Y0100712D01*
X0044960Y0100570D01*
X0045028Y0100427D01*
X0045092Y0100282D01*
X0045152Y0100136D01*
X0045208Y0099988D01*
X0045261Y0099839D01*
X0045310Y0099688D01*
X0045355Y0099536D01*
X0045396Y0099383D01*
X0045434Y0099230D01*
X0045467Y0099075D01*
X0045497Y0098919D01*
X0045523Y0098763D01*
X0045544Y0098606D01*
X0045562Y0098449D01*
X0045576Y0098291D01*
X0045586Y0098133D01*
X0045592Y0097975D01*
X0045594Y0097817D01*
X0045592Y0097659D01*
X0045586Y0097501D01*
X0045576Y0097343D01*
X0045562Y0097185D01*
X0045544Y0097028D01*
X0045523Y0096871D01*
X0045497Y0096715D01*
X0045467Y0096559D01*
X0045434Y0096404D01*
X0045396Y0096251D01*
X0045355Y0096098D01*
X0045310Y0095946D01*
X0045261Y0095795D01*
X0045208Y0095646D01*
X0045152Y0095498D01*
X0045092Y0095352D01*
X0045028Y0095207D01*
X0044960Y0095064D01*
X0044889Y0094922D01*
X0044815Y0094782D01*
X0044737Y0094645D01*
X0044655Y0094509D01*
X0044571Y0094375D01*
X0044482Y0094244D01*
X0044391Y0094115D01*
X0044296Y0093988D01*
X0044199Y0093863D01*
X0044098Y0093741D01*
X0043994Y0093622D01*
X0043887Y0093505D01*
X0043777Y0093391D01*
X0043664Y0093280D01*
X0043549Y0093171D01*
X0043431Y0093066D01*
X0043310Y0092964D01*
X0043187Y0092864D01*
X0043061Y0092768D01*
X0042933Y0092675D01*
X0042803Y0092585D01*
X0042670Y0092499D01*
X0042535Y0092415D01*
X0042399Y0092336D01*
X0042260Y0092259D01*
X0042119Y0092187D01*
X0041977Y0092117D01*
X0041833Y0092052D01*
X0041687Y0091990D01*
X0041540Y0091932D01*
X0041391Y0091877D01*
X0041241Y0091826D01*
X0041090Y0091779D01*
X0040938Y0091736D01*
X0040785Y0091697D01*
X0040630Y0091661D01*
X0040475Y0091630D01*
X0040319Y0091602D01*
X0040163Y0091578D01*
X0040006Y0091558D01*
X0039848Y0091542D01*
X0039691Y0091530D01*
X0039532Y0091522D01*
X0039374Y0091518D01*
X0039216Y0091518D01*
X0039058Y0091522D01*
X0038899Y0091530D01*
X0038742Y0091542D01*
X0038584Y0091558D01*
X0038427Y0091578D01*
X0038271Y0091602D01*
X0038115Y0091630D01*
X0037960Y0091661D01*
X0037805Y0091697D01*
X0037652Y0091736D01*
X0037500Y0091779D01*
X0037349Y0091826D01*
X0037199Y0091877D01*
X0037050Y0091932D01*
X0036903Y0091990D01*
X0036757Y0092052D01*
X0036613Y0092117D01*
X0036471Y0092187D01*
X0036330Y0092259D01*
X0036191Y0092336D01*
X0036055Y0092415D01*
X0035920Y0092499D01*
X0035787Y0092585D01*
X0035657Y0092675D01*
X0035529Y0092768D01*
X0035403Y0092864D01*
X0035280Y0092964D01*
X0035159Y0093066D01*
X0035041Y0093171D01*
X0034926Y0093280D01*
X0034813Y0093391D01*
X0034703Y0093505D01*
X0034596Y0093622D01*
X0034492Y0093741D01*
X0034391Y0093863D01*
X0034294Y0093988D01*
X0034199Y0094115D01*
X0034108Y0094244D01*
X0034019Y0094375D01*
X0033935Y0094509D01*
X0033853Y0094645D01*
X0033775Y0094782D01*
X0033701Y0094922D01*
X0033630Y0095064D01*
X0033562Y0095207D01*
X0033498Y0095352D01*
X0033438Y0095498D01*
X0033382Y0095646D01*
X0033329Y0095795D01*
X0033280Y0095946D01*
X0033235Y0096098D01*
X0033194Y0096251D01*
X0033156Y0096404D01*
X0033123Y0096559D01*
X0033093Y0096715D01*
X0033067Y0096871D01*
X0033046Y0097028D01*
X0033028Y0097185D01*
X0033014Y0097343D01*
X0033004Y0097501D01*
X0032998Y0097659D01*
X0032996Y0097817D01*
X0338081Y0053100D02*
X0338083Y0053258D01*
X0338089Y0053415D01*
X0338099Y0053573D01*
X0338113Y0053730D01*
X0338131Y0053886D01*
X0338152Y0054043D01*
X0338178Y0054198D01*
X0338208Y0054353D01*
X0338241Y0054507D01*
X0338279Y0054660D01*
X0338320Y0054813D01*
X0338365Y0054964D01*
X0338414Y0055114D01*
X0338467Y0055262D01*
X0338523Y0055410D01*
X0338584Y0055555D01*
X0338647Y0055700D01*
X0338715Y0055842D01*
X0338786Y0055983D01*
X0338860Y0056122D01*
X0338938Y0056259D01*
X0339020Y0056394D01*
X0339104Y0056527D01*
X0339193Y0056658D01*
X0339284Y0056786D01*
X0339379Y0056913D01*
X0339476Y0057036D01*
X0339577Y0057158D01*
X0339681Y0057276D01*
X0339788Y0057392D01*
X0339898Y0057505D01*
X0340010Y0057616D01*
X0340126Y0057723D01*
X0340244Y0057828D01*
X0340364Y0057930D01*
X0340487Y0058028D01*
X0340613Y0058124D01*
X0340741Y0058216D01*
X0340871Y0058305D01*
X0341003Y0058391D01*
X0341138Y0058473D01*
X0341275Y0058552D01*
X0341413Y0058627D01*
X0341553Y0058699D01*
X0341696Y0058767D01*
X0341839Y0058832D01*
X0341985Y0058893D01*
X0342132Y0058950D01*
X0342280Y0059004D01*
X0342430Y0059054D01*
X0342580Y0059100D01*
X0342732Y0059142D01*
X0342885Y0059181D01*
X0343039Y0059215D01*
X0343194Y0059246D01*
X0343349Y0059272D01*
X0343505Y0059295D01*
X0343662Y0059314D01*
X0343819Y0059329D01*
X0343976Y0059340D01*
X0344134Y0059347D01*
X0344292Y0059350D01*
X0344449Y0059349D01*
X0344607Y0059344D01*
X0344764Y0059335D01*
X0344922Y0059322D01*
X0345078Y0059305D01*
X0345235Y0059284D01*
X0345390Y0059260D01*
X0345545Y0059231D01*
X0345700Y0059198D01*
X0345853Y0059162D01*
X0346006Y0059121D01*
X0346157Y0059077D01*
X0346307Y0059029D01*
X0346456Y0058978D01*
X0346604Y0058922D01*
X0346750Y0058863D01*
X0346895Y0058800D01*
X0347038Y0058733D01*
X0347179Y0058663D01*
X0347318Y0058590D01*
X0347456Y0058513D01*
X0347592Y0058432D01*
X0347725Y0058348D01*
X0347856Y0058261D01*
X0347985Y0058170D01*
X0348112Y0058076D01*
X0348237Y0057979D01*
X0348358Y0057879D01*
X0348478Y0057776D01*
X0348594Y0057670D01*
X0348708Y0057561D01*
X0348820Y0057449D01*
X0348928Y0057335D01*
X0349033Y0057217D01*
X0349136Y0057097D01*
X0349235Y0056975D01*
X0349331Y0056850D01*
X0349424Y0056722D01*
X0349514Y0056593D01*
X0349600Y0056461D01*
X0349684Y0056327D01*
X0349763Y0056191D01*
X0349840Y0056053D01*
X0349912Y0055913D01*
X0349981Y0055771D01*
X0350047Y0055628D01*
X0350109Y0055483D01*
X0350167Y0055336D01*
X0350222Y0055188D01*
X0350273Y0055039D01*
X0350320Y0054888D01*
X0350363Y0054737D01*
X0350402Y0054584D01*
X0350438Y0054430D01*
X0350469Y0054276D01*
X0350497Y0054121D01*
X0350521Y0053965D01*
X0350541Y0053808D01*
X0350557Y0053651D01*
X0350569Y0053494D01*
X0350577Y0053337D01*
X0350581Y0053179D01*
X0350581Y0053021D01*
X0350577Y0052863D01*
X0350569Y0052706D01*
X0350557Y0052549D01*
X0350541Y0052392D01*
X0350521Y0052235D01*
X0350497Y0052079D01*
X0350469Y0051924D01*
X0350438Y0051770D01*
X0350402Y0051616D01*
X0350363Y0051463D01*
X0350320Y0051312D01*
X0350273Y0051161D01*
X0350222Y0051012D01*
X0350167Y0050864D01*
X0350109Y0050717D01*
X0350047Y0050572D01*
X0349981Y0050429D01*
X0349912Y0050287D01*
X0349840Y0050147D01*
X0349763Y0050009D01*
X0349684Y0049873D01*
X0349600Y0049739D01*
X0349514Y0049607D01*
X0349424Y0049478D01*
X0349331Y0049350D01*
X0349235Y0049225D01*
X0349136Y0049103D01*
X0349033Y0048983D01*
X0348928Y0048865D01*
X0348820Y0048751D01*
X0348708Y0048639D01*
X0348594Y0048530D01*
X0348478Y0048424D01*
X0348358Y0048321D01*
X0348237Y0048221D01*
X0348112Y0048124D01*
X0347985Y0048030D01*
X0347856Y0047939D01*
X0347725Y0047852D01*
X0347592Y0047768D01*
X0347456Y0047687D01*
X0347318Y0047610D01*
X0347179Y0047537D01*
X0347038Y0047467D01*
X0346895Y0047400D01*
X0346750Y0047337D01*
X0346604Y0047278D01*
X0346456Y0047222D01*
X0346307Y0047171D01*
X0346157Y0047123D01*
X0346006Y0047079D01*
X0345853Y0047038D01*
X0345700Y0047002D01*
X0345545Y0046969D01*
X0345390Y0046940D01*
X0345235Y0046916D01*
X0345078Y0046895D01*
X0344922Y0046878D01*
X0344764Y0046865D01*
X0344607Y0046856D01*
X0344449Y0046851D01*
X0344292Y0046850D01*
X0344134Y0046853D01*
X0343976Y0046860D01*
X0343819Y0046871D01*
X0343662Y0046886D01*
X0343505Y0046905D01*
X0343349Y0046928D01*
X0343194Y0046954D01*
X0343039Y0046985D01*
X0342885Y0047019D01*
X0342732Y0047058D01*
X0342580Y0047100D01*
X0342430Y0047146D01*
X0342280Y0047196D01*
X0342132Y0047250D01*
X0341985Y0047307D01*
X0341839Y0047368D01*
X0341696Y0047433D01*
X0341553Y0047501D01*
X0341413Y0047573D01*
X0341275Y0047648D01*
X0341138Y0047727D01*
X0341003Y0047809D01*
X0340871Y0047895D01*
X0340741Y0047984D01*
X0340613Y0048076D01*
X0340487Y0048172D01*
X0340364Y0048270D01*
X0340244Y0048372D01*
X0340126Y0048477D01*
X0340010Y0048584D01*
X0339898Y0048695D01*
X0339788Y0048808D01*
X0339681Y0048924D01*
X0339577Y0049042D01*
X0339476Y0049164D01*
X0339379Y0049287D01*
X0339284Y0049414D01*
X0339193Y0049542D01*
X0339104Y0049673D01*
X0339020Y0049806D01*
X0338938Y0049941D01*
X0338860Y0050078D01*
X0338786Y0050217D01*
X0338715Y0050358D01*
X0338647Y0050500D01*
X0338584Y0050645D01*
X0338523Y0050790D01*
X0338467Y0050938D01*
X0338414Y0051086D01*
X0338365Y0051236D01*
X0338320Y0051387D01*
X0338279Y0051540D01*
X0338241Y0051693D01*
X0338208Y0051847D01*
X0338178Y0052002D01*
X0338152Y0052157D01*
X0338131Y0052314D01*
X0338113Y0052470D01*
X0338099Y0052627D01*
X0338089Y0052785D01*
X0338083Y0052942D01*
X0338081Y0053100D01*
X0338081Y0218100D02*
X0338083Y0218258D01*
X0338089Y0218415D01*
X0338099Y0218573D01*
X0338113Y0218730D01*
X0338131Y0218886D01*
X0338152Y0219043D01*
X0338178Y0219198D01*
X0338208Y0219353D01*
X0338241Y0219507D01*
X0338279Y0219660D01*
X0338320Y0219813D01*
X0338365Y0219964D01*
X0338414Y0220114D01*
X0338467Y0220262D01*
X0338523Y0220410D01*
X0338584Y0220555D01*
X0338647Y0220700D01*
X0338715Y0220842D01*
X0338786Y0220983D01*
X0338860Y0221122D01*
X0338938Y0221259D01*
X0339020Y0221394D01*
X0339104Y0221527D01*
X0339193Y0221658D01*
X0339284Y0221786D01*
X0339379Y0221913D01*
X0339476Y0222036D01*
X0339577Y0222158D01*
X0339681Y0222276D01*
X0339788Y0222392D01*
X0339898Y0222505D01*
X0340010Y0222616D01*
X0340126Y0222723D01*
X0340244Y0222828D01*
X0340364Y0222930D01*
X0340487Y0223028D01*
X0340613Y0223124D01*
X0340741Y0223216D01*
X0340871Y0223305D01*
X0341003Y0223391D01*
X0341138Y0223473D01*
X0341275Y0223552D01*
X0341413Y0223627D01*
X0341553Y0223699D01*
X0341696Y0223767D01*
X0341839Y0223832D01*
X0341985Y0223893D01*
X0342132Y0223950D01*
X0342280Y0224004D01*
X0342430Y0224054D01*
X0342580Y0224100D01*
X0342732Y0224142D01*
X0342885Y0224181D01*
X0343039Y0224215D01*
X0343194Y0224246D01*
X0343349Y0224272D01*
X0343505Y0224295D01*
X0343662Y0224314D01*
X0343819Y0224329D01*
X0343976Y0224340D01*
X0344134Y0224347D01*
X0344292Y0224350D01*
X0344449Y0224349D01*
X0344607Y0224344D01*
X0344764Y0224335D01*
X0344922Y0224322D01*
X0345078Y0224305D01*
X0345235Y0224284D01*
X0345390Y0224260D01*
X0345545Y0224231D01*
X0345700Y0224198D01*
X0345853Y0224162D01*
X0346006Y0224121D01*
X0346157Y0224077D01*
X0346307Y0224029D01*
X0346456Y0223978D01*
X0346604Y0223922D01*
X0346750Y0223863D01*
X0346895Y0223800D01*
X0347038Y0223733D01*
X0347179Y0223663D01*
X0347318Y0223590D01*
X0347456Y0223513D01*
X0347592Y0223432D01*
X0347725Y0223348D01*
X0347856Y0223261D01*
X0347985Y0223170D01*
X0348112Y0223076D01*
X0348237Y0222979D01*
X0348358Y0222879D01*
X0348478Y0222776D01*
X0348594Y0222670D01*
X0348708Y0222561D01*
X0348820Y0222449D01*
X0348928Y0222335D01*
X0349033Y0222217D01*
X0349136Y0222097D01*
X0349235Y0221975D01*
X0349331Y0221850D01*
X0349424Y0221722D01*
X0349514Y0221593D01*
X0349600Y0221461D01*
X0349684Y0221327D01*
X0349763Y0221191D01*
X0349840Y0221053D01*
X0349912Y0220913D01*
X0349981Y0220771D01*
X0350047Y0220628D01*
X0350109Y0220483D01*
X0350167Y0220336D01*
X0350222Y0220188D01*
X0350273Y0220039D01*
X0350320Y0219888D01*
X0350363Y0219737D01*
X0350402Y0219584D01*
X0350438Y0219430D01*
X0350469Y0219276D01*
X0350497Y0219121D01*
X0350521Y0218965D01*
X0350541Y0218808D01*
X0350557Y0218651D01*
X0350569Y0218494D01*
X0350577Y0218337D01*
X0350581Y0218179D01*
X0350581Y0218021D01*
X0350577Y0217863D01*
X0350569Y0217706D01*
X0350557Y0217549D01*
X0350541Y0217392D01*
X0350521Y0217235D01*
X0350497Y0217079D01*
X0350469Y0216924D01*
X0350438Y0216770D01*
X0350402Y0216616D01*
X0350363Y0216463D01*
X0350320Y0216312D01*
X0350273Y0216161D01*
X0350222Y0216012D01*
X0350167Y0215864D01*
X0350109Y0215717D01*
X0350047Y0215572D01*
X0349981Y0215429D01*
X0349912Y0215287D01*
X0349840Y0215147D01*
X0349763Y0215009D01*
X0349684Y0214873D01*
X0349600Y0214739D01*
X0349514Y0214607D01*
X0349424Y0214478D01*
X0349331Y0214350D01*
X0349235Y0214225D01*
X0349136Y0214103D01*
X0349033Y0213983D01*
X0348928Y0213865D01*
X0348820Y0213751D01*
X0348708Y0213639D01*
X0348594Y0213530D01*
X0348478Y0213424D01*
X0348358Y0213321D01*
X0348237Y0213221D01*
X0348112Y0213124D01*
X0347985Y0213030D01*
X0347856Y0212939D01*
X0347725Y0212852D01*
X0347592Y0212768D01*
X0347456Y0212687D01*
X0347318Y0212610D01*
X0347179Y0212537D01*
X0347038Y0212467D01*
X0346895Y0212400D01*
X0346750Y0212337D01*
X0346604Y0212278D01*
X0346456Y0212222D01*
X0346307Y0212171D01*
X0346157Y0212123D01*
X0346006Y0212079D01*
X0345853Y0212038D01*
X0345700Y0212002D01*
X0345545Y0211969D01*
X0345390Y0211940D01*
X0345235Y0211916D01*
X0345078Y0211895D01*
X0344922Y0211878D01*
X0344764Y0211865D01*
X0344607Y0211856D01*
X0344449Y0211851D01*
X0344292Y0211850D01*
X0344134Y0211853D01*
X0343976Y0211860D01*
X0343819Y0211871D01*
X0343662Y0211886D01*
X0343505Y0211905D01*
X0343349Y0211928D01*
X0343194Y0211954D01*
X0343039Y0211985D01*
X0342885Y0212019D01*
X0342732Y0212058D01*
X0342580Y0212100D01*
X0342430Y0212146D01*
X0342280Y0212196D01*
X0342132Y0212250D01*
X0341985Y0212307D01*
X0341839Y0212368D01*
X0341696Y0212433D01*
X0341553Y0212501D01*
X0341413Y0212573D01*
X0341275Y0212648D01*
X0341138Y0212727D01*
X0341003Y0212809D01*
X0340871Y0212895D01*
X0340741Y0212984D01*
X0340613Y0213076D01*
X0340487Y0213172D01*
X0340364Y0213270D01*
X0340244Y0213372D01*
X0340126Y0213477D01*
X0340010Y0213584D01*
X0339898Y0213695D01*
X0339788Y0213808D01*
X0339681Y0213924D01*
X0339577Y0214042D01*
X0339476Y0214164D01*
X0339379Y0214287D01*
X0339284Y0214414D01*
X0339193Y0214542D01*
X0339104Y0214673D01*
X0339020Y0214806D01*
X0338938Y0214941D01*
X0338860Y0215078D01*
X0338786Y0215217D01*
X0338715Y0215358D01*
X0338647Y0215500D01*
X0338584Y0215645D01*
X0338523Y0215790D01*
X0338467Y0215938D01*
X0338414Y0216086D01*
X0338365Y0216236D01*
X0338320Y0216387D01*
X0338279Y0216540D01*
X0338241Y0216693D01*
X0338208Y0216847D01*
X0338178Y0217002D01*
X0338152Y0217157D01*
X0338131Y0217314D01*
X0338113Y0217470D01*
X0338099Y0217627D01*
X0338089Y0217785D01*
X0338083Y0217942D01*
X0338081Y0218100D01*
D12*
X0101431Y0223698D02*
X0101431Y0226500D01*
X0101431Y0225099D02*
X0097227Y0225099D01*
X0098628Y0223698D01*
X0096431Y0226396D02*
X0092227Y0226396D01*
X0092227Y0228498D01*
X0092928Y0229198D01*
X0094329Y0229198D01*
X0095030Y0228498D01*
X0095030Y0226396D01*
X0095030Y0231000D02*
X0094329Y0231701D01*
X0094329Y0233102D01*
X0095030Y0233802D01*
X0095730Y0233802D01*
X0096431Y0233102D01*
X0096431Y0231701D01*
X0095730Y0231000D01*
X0095030Y0231000D01*
X0094329Y0231701D02*
X0093628Y0231000D01*
X0092928Y0231000D01*
X0092227Y0231701D01*
X0092227Y0233102D01*
X0092928Y0233802D01*
X0093628Y0233802D01*
X0094329Y0233102D01*
X0094329Y0043802D02*
X0094329Y0041701D01*
X0093628Y0041000D01*
X0092928Y0041000D01*
X0092227Y0041701D01*
X0092227Y0043102D01*
X0092928Y0043802D01*
X0095730Y0043802D01*
X0096431Y0043102D01*
X0096431Y0041701D01*
X0095730Y0041000D01*
X0094329Y0039198D02*
X0095030Y0038498D01*
X0095030Y0036396D01*
X0096431Y0036396D02*
X0092227Y0036396D01*
X0092227Y0038498D01*
X0092928Y0039198D01*
X0094329Y0039198D01*
D13*
X0098128Y0035193D02*
X0101531Y0035193D01*
X0101531Y0036327D02*
X0101531Y0034058D01*
X0099262Y0034058D02*
X0098128Y0035193D01*
X0098695Y0044058D02*
X0098128Y0044626D01*
X0098128Y0045760D01*
X0098695Y0046327D01*
X0099262Y0046327D01*
X0101531Y0044058D01*
X0101531Y0046327D01*
X0096931Y0052900D02*
X0089731Y0052900D01*
X0089731Y0055900D01*
X0089731Y0063300D01*
X0089731Y0066300D01*
X0096831Y0066300D01*
X0096931Y0066300D01*
X0096931Y0055900D01*
X0096931Y0052900D01*
X0096931Y0055900D02*
X0089731Y0055900D01*
X0089731Y0057200D02*
X0089731Y0062000D01*
X0089731Y0063300D02*
X0096931Y0063300D01*
X0096831Y0066300D01*
X0096931Y0062000D02*
X0096931Y0057200D01*
X0064931Y0046600D02*
X0039731Y0046600D01*
X0039731Y0031600D01*
X0064931Y0031600D01*
X0064931Y0046600D01*
X0060331Y0042100D02*
X0044331Y0042100D01*
X0044331Y0036100D01*
X0060331Y0036100D01*
X0060331Y0042100D01*
X0155631Y0073800D02*
X0160031Y0073800D01*
X0160031Y0075400D01*
X0155631Y0075400D01*
X0155631Y0073800D01*
X0160031Y0072300D02*
X0175631Y0072300D01*
X0175631Y0091900D01*
X0166631Y0091900D01*
X0160031Y0091900D01*
X0160031Y0072300D01*
X0175631Y0072300D01*
X0175631Y0073800D02*
X0180031Y0073800D01*
X0180031Y0075400D01*
X0175631Y0075400D01*
X0175631Y0073800D01*
X0175631Y0078800D02*
X0180031Y0078800D01*
X0180031Y0080400D01*
X0175631Y0080400D01*
X0175631Y0078800D01*
X0175631Y0083800D02*
X0180031Y0083800D01*
X0180031Y0085400D01*
X0175631Y0085400D01*
X0175631Y0083800D01*
X0175631Y0088800D02*
X0180031Y0088800D01*
X0180031Y0090400D01*
X0175631Y0090400D01*
X0175631Y0088800D01*
X0175631Y0091900D02*
X0166631Y0091900D01*
X0160031Y0091900D01*
X0160031Y0090400D02*
X0155631Y0090400D01*
X0155631Y0088800D01*
X0160031Y0088800D01*
X0160031Y0090400D01*
X0160031Y0085400D02*
X0155631Y0085400D01*
X0155631Y0083800D01*
X0160031Y0083800D01*
X0160031Y0085400D01*
X0160031Y0080400D02*
X0155631Y0080400D01*
X0155631Y0078800D01*
X0160031Y0078800D01*
X0160031Y0080400D01*
X0163431Y0094300D02*
X0163431Y0099900D01*
X0166431Y0099900D01*
X0172231Y0099900D01*
X0172231Y0094300D01*
X0169231Y0094300D01*
X0166431Y0094300D01*
X0163431Y0094300D01*
X0166431Y0094300D02*
X0166431Y0099900D01*
X0169231Y0099900D02*
X0172231Y0100000D01*
X0172231Y0099900D01*
X0169231Y0099900D02*
X0169231Y0094300D01*
X0187981Y0078800D02*
X0187981Y0075800D01*
X0187981Y0068400D01*
X0187981Y0065400D01*
X0195181Y0065400D01*
X0195181Y0068400D01*
X0195181Y0078800D01*
X0195081Y0078800D01*
X0187981Y0078800D01*
X0187981Y0075800D02*
X0195181Y0075800D01*
X0195081Y0078800D01*
X0195181Y0074500D02*
X0195181Y0069700D01*
X0195181Y0068400D02*
X0187981Y0068400D01*
X0187981Y0069700D02*
X0187981Y0074500D01*
X0194431Y0066500D02*
X0194433Y0066544D01*
X0194439Y0066587D01*
X0194448Y0066629D01*
X0194461Y0066671D01*
X0194478Y0066711D01*
X0194498Y0066750D01*
X0194521Y0066787D01*
X0194548Y0066821D01*
X0194577Y0066854D01*
X0194610Y0066883D01*
X0194644Y0066910D01*
X0194681Y0066933D01*
X0194720Y0066953D01*
X0194760Y0066970D01*
X0194802Y0066983D01*
X0194844Y0066992D01*
X0194887Y0066998D01*
X0194931Y0067000D01*
X0194975Y0066998D01*
X0195018Y0066992D01*
X0195060Y0066983D01*
X0195102Y0066970D01*
X0195142Y0066953D01*
X0195181Y0066933D01*
X0195218Y0066910D01*
X0195252Y0066883D01*
X0195285Y0066854D01*
X0195314Y0066821D01*
X0195341Y0066787D01*
X0195364Y0066750D01*
X0195384Y0066711D01*
X0195401Y0066671D01*
X0195414Y0066629D01*
X0195423Y0066587D01*
X0195429Y0066544D01*
X0195431Y0066500D01*
X0195429Y0066456D01*
X0195423Y0066413D01*
X0195414Y0066371D01*
X0195401Y0066329D01*
X0195384Y0066289D01*
X0195364Y0066250D01*
X0195341Y0066213D01*
X0195314Y0066179D01*
X0195285Y0066146D01*
X0195252Y0066117D01*
X0195218Y0066090D01*
X0195181Y0066067D01*
X0195142Y0066047D01*
X0195102Y0066030D01*
X0195060Y0066017D01*
X0195018Y0066008D01*
X0194975Y0066002D01*
X0194931Y0066000D01*
X0194887Y0066002D01*
X0194844Y0066008D01*
X0194802Y0066017D01*
X0194760Y0066030D01*
X0194720Y0066047D01*
X0194681Y0066067D01*
X0194644Y0066090D01*
X0194610Y0066117D01*
X0194577Y0066146D01*
X0194548Y0066179D01*
X0194521Y0066213D01*
X0194498Y0066250D01*
X0194478Y0066289D01*
X0194461Y0066329D01*
X0194448Y0066371D01*
X0194439Y0066413D01*
X0194433Y0066456D01*
X0194431Y0066500D01*
X0194433Y0066544D01*
X0194439Y0066587D01*
X0194448Y0066629D01*
X0194461Y0066671D01*
X0194478Y0066711D01*
X0194498Y0066750D01*
X0194521Y0066787D01*
X0194548Y0066821D01*
X0194577Y0066854D01*
X0194610Y0066883D01*
X0194644Y0066910D01*
X0194681Y0066933D01*
X0194720Y0066953D01*
X0194760Y0066970D01*
X0194802Y0066983D01*
X0194844Y0066992D01*
X0194887Y0066998D01*
X0194931Y0067000D01*
X0194975Y0066998D01*
X0195018Y0066992D01*
X0195060Y0066983D01*
X0195102Y0066970D01*
X0195142Y0066953D01*
X0195181Y0066933D01*
X0195218Y0066910D01*
X0195252Y0066883D01*
X0195285Y0066854D01*
X0195314Y0066821D01*
X0195341Y0066787D01*
X0195364Y0066750D01*
X0195384Y0066711D01*
X0195401Y0066671D01*
X0195414Y0066629D01*
X0195423Y0066587D01*
X0195429Y0066544D01*
X0195431Y0066500D01*
X0195429Y0066456D01*
X0195423Y0066413D01*
X0195414Y0066371D01*
X0195401Y0066329D01*
X0195384Y0066289D01*
X0195364Y0066250D01*
X0195341Y0066213D01*
X0195314Y0066179D01*
X0195285Y0066146D01*
X0195252Y0066117D01*
X0195218Y0066090D01*
X0195181Y0066067D01*
X0195142Y0066047D01*
X0195102Y0066030D01*
X0195060Y0066017D01*
X0195018Y0066008D01*
X0194975Y0066002D01*
X0194931Y0066000D01*
X0194887Y0066002D01*
X0194844Y0066008D01*
X0194802Y0066017D01*
X0194760Y0066030D01*
X0194720Y0066047D01*
X0194681Y0066067D01*
X0194644Y0066090D01*
X0194610Y0066117D01*
X0194577Y0066146D01*
X0194548Y0066179D01*
X0194521Y0066213D01*
X0194498Y0066250D01*
X0194478Y0066289D01*
X0194461Y0066329D01*
X0194448Y0066371D01*
X0194439Y0066413D01*
X0194433Y0066456D01*
X0194431Y0066500D01*
X0199831Y0066300D02*
X0199831Y0087900D01*
X0215831Y0087900D01*
X0215831Y0066300D01*
X0199831Y0066300D01*
X0199831Y0087900D01*
X0215831Y0087900D02*
X0215831Y0066300D01*
X0272231Y0061500D02*
X0313431Y0061500D01*
X0313431Y0102700D01*
X0272231Y0102700D01*
X0272231Y0061500D01*
X0289931Y0061500D01*
X0295731Y0061500D02*
X0313431Y0061500D01*
X0313431Y0102700D01*
X0295731Y0102700D01*
X0292831Y0107700D02*
X0292831Y0110700D01*
X0292831Y0107700D01*
X0294331Y0109100D02*
X0291331Y0109100D01*
X0294331Y0109100D01*
X0289931Y0102700D02*
X0282531Y0102700D01*
X0272231Y0092400D01*
X0282531Y0102700D01*
X0272231Y0102700D01*
X0272231Y0061500D01*
X0303131Y0102700D02*
X0313431Y0092400D01*
X0303131Y0102700D01*
X0295731Y0118500D02*
X0313431Y0118500D01*
X0313431Y0159700D01*
X0272231Y0159700D01*
X0272231Y0118500D01*
X0313431Y0118500D01*
X0313431Y0159700D01*
X0295731Y0159700D01*
X0292831Y0164700D02*
X0292831Y0167700D01*
X0292831Y0164700D01*
X0294331Y0166100D02*
X0291331Y0166100D01*
X0294331Y0166100D01*
X0289931Y0159700D02*
X0282531Y0159700D01*
X0272231Y0149400D01*
X0282531Y0159700D01*
X0272231Y0159700D01*
X0272231Y0118500D01*
X0289931Y0118500D01*
X0313431Y0149400D02*
X0303131Y0159700D01*
X0313431Y0149400D01*
X0314431Y0175500D02*
X0273231Y0175500D01*
X0273231Y0216700D01*
X0314431Y0216700D01*
X0314431Y0175500D01*
X0314431Y0216700D01*
X0296731Y0216700D01*
X0290931Y0216700D02*
X0283531Y0216700D01*
X0273231Y0206400D01*
X0283531Y0216700D01*
X0273231Y0216700D01*
X0273231Y0175500D01*
X0290931Y0175500D01*
X0296731Y0175500D02*
X0314431Y0175500D01*
X0314431Y0206400D02*
X0304131Y0216700D01*
X0314431Y0206400D01*
X0333128Y0223918D02*
X0334829Y0222217D01*
X0334829Y0224485D01*
X0334829Y0225900D02*
X0334262Y0227034D01*
X0334262Y0227601D01*
X0334829Y0228169D01*
X0335964Y0228169D01*
X0336531Y0227601D01*
X0336531Y0226467D01*
X0335964Y0225900D01*
X0334829Y0225900D02*
X0333128Y0225900D01*
X0333128Y0228169D01*
X0334829Y0232217D02*
X0334829Y0234485D01*
X0334829Y0235900D02*
X0334829Y0237601D01*
X0335396Y0238169D01*
X0335964Y0238169D01*
X0336531Y0237601D01*
X0336531Y0236467D01*
X0335964Y0235900D01*
X0334829Y0235900D01*
X0333695Y0237034D01*
X0333128Y0238169D01*
X0333128Y0233918D02*
X0334829Y0232217D01*
X0333128Y0233918D02*
X0336531Y0233918D01*
X0336531Y0223918D02*
X0333128Y0223918D01*
X0295331Y0223100D02*
X0292331Y0223100D01*
X0295331Y0223100D01*
X0293831Y0221700D02*
X0293831Y0224700D01*
X0293831Y0221700D01*
X0216831Y0201900D02*
X0216831Y0180300D01*
X0200831Y0180300D01*
X0200831Y0201900D01*
X0216831Y0201900D01*
X0216831Y0180300D01*
X0200831Y0180300D02*
X0200831Y0201900D01*
X0196181Y0192800D02*
X0196081Y0192800D01*
X0188981Y0192800D01*
X0188981Y0189800D01*
X0188981Y0182400D01*
X0188981Y0179400D01*
X0196181Y0179400D01*
X0196181Y0182400D01*
X0196181Y0192800D01*
X0196081Y0192800D02*
X0196181Y0189800D01*
X0188981Y0189800D01*
X0188981Y0188500D02*
X0188981Y0183700D01*
X0188981Y0182400D02*
X0196181Y0182400D01*
X0196181Y0183700D02*
X0196181Y0188500D01*
X0196431Y0180500D02*
X0196429Y0180544D01*
X0196423Y0180587D01*
X0196414Y0180629D01*
X0196401Y0180671D01*
X0196384Y0180711D01*
X0196364Y0180750D01*
X0196341Y0180787D01*
X0196314Y0180821D01*
X0196285Y0180854D01*
X0196252Y0180883D01*
X0196218Y0180910D01*
X0196181Y0180933D01*
X0196142Y0180953D01*
X0196102Y0180970D01*
X0196060Y0180983D01*
X0196018Y0180992D01*
X0195975Y0180998D01*
X0195931Y0181000D01*
X0195887Y0180998D01*
X0195844Y0180992D01*
X0195802Y0180983D01*
X0195760Y0180970D01*
X0195720Y0180953D01*
X0195681Y0180933D01*
X0195644Y0180910D01*
X0195610Y0180883D01*
X0195577Y0180854D01*
X0195548Y0180821D01*
X0195521Y0180787D01*
X0195498Y0180750D01*
X0195478Y0180711D01*
X0195461Y0180671D01*
X0195448Y0180629D01*
X0195439Y0180587D01*
X0195433Y0180544D01*
X0195431Y0180500D01*
X0195433Y0180456D01*
X0195439Y0180413D01*
X0195448Y0180371D01*
X0195461Y0180329D01*
X0195478Y0180289D01*
X0195498Y0180250D01*
X0195521Y0180213D01*
X0195548Y0180179D01*
X0195577Y0180146D01*
X0195610Y0180117D01*
X0195644Y0180090D01*
X0195681Y0180067D01*
X0195720Y0180047D01*
X0195760Y0180030D01*
X0195802Y0180017D01*
X0195844Y0180008D01*
X0195887Y0180002D01*
X0195931Y0180000D01*
X0195975Y0180002D01*
X0196018Y0180008D01*
X0196060Y0180017D01*
X0196102Y0180030D01*
X0196142Y0180047D01*
X0196181Y0180067D01*
X0196218Y0180090D01*
X0196252Y0180117D01*
X0196285Y0180146D01*
X0196314Y0180179D01*
X0196341Y0180213D01*
X0196364Y0180250D01*
X0196384Y0180289D01*
X0196401Y0180329D01*
X0196414Y0180371D01*
X0196423Y0180413D01*
X0196429Y0180456D01*
X0196431Y0180500D01*
X0196429Y0180544D01*
X0196423Y0180587D01*
X0196414Y0180629D01*
X0196401Y0180671D01*
X0196384Y0180711D01*
X0196364Y0180750D01*
X0196341Y0180787D01*
X0196314Y0180821D01*
X0196285Y0180854D01*
X0196252Y0180883D01*
X0196218Y0180910D01*
X0196181Y0180933D01*
X0196142Y0180953D01*
X0196102Y0180970D01*
X0196060Y0180983D01*
X0196018Y0180992D01*
X0195975Y0180998D01*
X0195931Y0181000D01*
X0195887Y0180998D01*
X0195844Y0180992D01*
X0195802Y0180983D01*
X0195760Y0180970D01*
X0195720Y0180953D01*
X0195681Y0180933D01*
X0195644Y0180910D01*
X0195610Y0180883D01*
X0195577Y0180854D01*
X0195548Y0180821D01*
X0195521Y0180787D01*
X0195498Y0180750D01*
X0195478Y0180711D01*
X0195461Y0180671D01*
X0195448Y0180629D01*
X0195439Y0180587D01*
X0195433Y0180544D01*
X0195431Y0180500D01*
X0195433Y0180456D01*
X0195439Y0180413D01*
X0195448Y0180371D01*
X0195461Y0180329D01*
X0195478Y0180289D01*
X0195498Y0180250D01*
X0195521Y0180213D01*
X0195548Y0180179D01*
X0195577Y0180146D01*
X0195610Y0180117D01*
X0195644Y0180090D01*
X0195681Y0180067D01*
X0195720Y0180047D01*
X0195760Y0180030D01*
X0195802Y0180017D01*
X0195844Y0180008D01*
X0195887Y0180002D01*
X0195931Y0180000D01*
X0195975Y0180002D01*
X0196018Y0180008D01*
X0196060Y0180017D01*
X0196102Y0180030D01*
X0196142Y0180047D01*
X0196181Y0180067D01*
X0196218Y0180090D01*
X0196252Y0180117D01*
X0196285Y0180146D01*
X0196314Y0180179D01*
X0196341Y0180213D01*
X0196364Y0180250D01*
X0196384Y0180289D01*
X0196401Y0180329D01*
X0196414Y0180371D01*
X0196423Y0180413D01*
X0196429Y0180456D01*
X0196431Y0180500D01*
X0181031Y0187800D02*
X0181031Y0189400D01*
X0176631Y0189400D01*
X0176631Y0187800D01*
X0181031Y0187800D01*
X0176631Y0186300D02*
X0161031Y0186300D01*
X0161031Y0205900D01*
X0167631Y0205900D01*
X0176631Y0205900D01*
X0167631Y0205900D01*
X0161031Y0205900D01*
X0161031Y0204400D02*
X0156631Y0204400D01*
X0156631Y0202800D01*
X0161031Y0202800D01*
X0161031Y0204400D01*
X0161031Y0199400D02*
X0156631Y0199400D01*
X0156631Y0197800D01*
X0161031Y0197800D01*
X0161031Y0199400D01*
X0161031Y0194400D02*
X0156631Y0194400D01*
X0156631Y0192800D01*
X0161031Y0192800D01*
X0161031Y0194400D01*
X0161031Y0189400D02*
X0156631Y0189400D01*
X0156631Y0187800D01*
X0161031Y0187800D01*
X0161031Y0189400D01*
X0161031Y0186300D02*
X0176631Y0186300D01*
X0176631Y0205900D01*
X0176631Y0204400D02*
X0181031Y0204400D01*
X0181031Y0202800D01*
X0176631Y0202800D01*
X0176631Y0204400D01*
X0176631Y0199400D02*
X0181031Y0199400D01*
X0181031Y0197800D01*
X0176631Y0197800D01*
X0176631Y0199400D01*
X0176631Y0194400D02*
X0181031Y0194400D01*
X0181031Y0192800D01*
X0176631Y0192800D01*
X0176631Y0194400D01*
X0173231Y0208300D02*
X0173231Y0213900D01*
X0167431Y0213900D01*
X0164431Y0213900D01*
X0164431Y0208300D01*
X0167431Y0208300D01*
X0170231Y0208300D01*
X0173231Y0208300D01*
X0170231Y0208300D02*
X0170231Y0213900D01*
X0173231Y0214000D01*
X0173231Y0213900D01*
X0167431Y0213900D02*
X0167431Y0208300D01*
X0101531Y0234058D02*
X0099262Y0236327D01*
X0098695Y0236327D01*
X0098128Y0235760D01*
X0098128Y0234626D01*
X0098695Y0234058D01*
X0101531Y0234058D02*
X0101531Y0236327D01*
X0163431Y0156900D02*
X0163431Y0151300D01*
X0166431Y0151300D01*
X0169231Y0151300D01*
X0172231Y0151300D01*
X0172231Y0156900D01*
X0166431Y0156900D01*
X0163431Y0156900D01*
X0166431Y0156900D02*
X0166431Y0151300D01*
X0166631Y0148900D02*
X0160031Y0148900D01*
X0160031Y0129300D01*
X0175631Y0129300D01*
X0175631Y0148900D01*
X0166631Y0148900D01*
X0160031Y0148900D01*
X0160031Y0147400D02*
X0155631Y0147400D01*
X0155631Y0145800D01*
X0160031Y0145800D01*
X0160031Y0147400D01*
X0160031Y0142400D02*
X0155631Y0142400D01*
X0155631Y0140800D01*
X0160031Y0140800D01*
X0160031Y0142400D01*
X0160031Y0137400D02*
X0155631Y0137400D01*
X0155631Y0135800D01*
X0160031Y0135800D01*
X0160031Y0137400D01*
X0160031Y0132400D02*
X0155631Y0132400D01*
X0155631Y0130800D01*
X0160031Y0130800D01*
X0160031Y0132400D01*
X0160031Y0129300D02*
X0175631Y0129300D01*
X0175631Y0130800D02*
X0180031Y0130800D01*
X0180031Y0132400D01*
X0175631Y0132400D01*
X0175631Y0130800D01*
X0175631Y0135800D02*
X0180031Y0135800D01*
X0180031Y0137400D01*
X0175631Y0137400D01*
X0175631Y0135800D01*
X0175631Y0140800D02*
X0180031Y0140800D01*
X0180031Y0142400D01*
X0175631Y0142400D01*
X0175631Y0140800D01*
X0175631Y0145800D02*
X0180031Y0145800D01*
X0180031Y0147400D01*
X0175631Y0147400D01*
X0175631Y0145800D01*
X0175631Y0148900D02*
X0166631Y0148900D01*
X0169231Y0151300D02*
X0169231Y0156900D01*
X0172231Y0157000D01*
X0172231Y0156900D01*
X0199831Y0144900D02*
X0199831Y0123300D01*
X0215831Y0123300D01*
X0215831Y0144900D01*
X0199831Y0144900D01*
X0199831Y0123300D01*
X0195181Y0122400D02*
X0195181Y0125400D01*
X0195181Y0135800D01*
X0195081Y0135800D01*
X0187981Y0135800D01*
X0187981Y0132800D01*
X0187981Y0125400D01*
X0187981Y0122400D01*
X0195181Y0122400D01*
X0195431Y0123500D02*
X0195429Y0123544D01*
X0195423Y0123587D01*
X0195414Y0123629D01*
X0195401Y0123671D01*
X0195384Y0123711D01*
X0195364Y0123750D01*
X0195341Y0123787D01*
X0195314Y0123821D01*
X0195285Y0123854D01*
X0195252Y0123883D01*
X0195218Y0123910D01*
X0195181Y0123933D01*
X0195142Y0123953D01*
X0195102Y0123970D01*
X0195060Y0123983D01*
X0195018Y0123992D01*
X0194975Y0123998D01*
X0194931Y0124000D01*
X0194887Y0123998D01*
X0194844Y0123992D01*
X0194802Y0123983D01*
X0194760Y0123970D01*
X0194720Y0123953D01*
X0194681Y0123933D01*
X0194644Y0123910D01*
X0194610Y0123883D01*
X0194577Y0123854D01*
X0194548Y0123821D01*
X0194521Y0123787D01*
X0194498Y0123750D01*
X0194478Y0123711D01*
X0194461Y0123671D01*
X0194448Y0123629D01*
X0194439Y0123587D01*
X0194433Y0123544D01*
X0194431Y0123500D01*
X0194433Y0123456D01*
X0194439Y0123413D01*
X0194448Y0123371D01*
X0194461Y0123329D01*
X0194478Y0123289D01*
X0194498Y0123250D01*
X0194521Y0123213D01*
X0194548Y0123179D01*
X0194577Y0123146D01*
X0194610Y0123117D01*
X0194644Y0123090D01*
X0194681Y0123067D01*
X0194720Y0123047D01*
X0194760Y0123030D01*
X0194802Y0123017D01*
X0194844Y0123008D01*
X0194887Y0123002D01*
X0194931Y0123000D01*
X0194975Y0123002D01*
X0195018Y0123008D01*
X0195060Y0123017D01*
X0195102Y0123030D01*
X0195142Y0123047D01*
X0195181Y0123067D01*
X0195218Y0123090D01*
X0195252Y0123117D01*
X0195285Y0123146D01*
X0195314Y0123179D01*
X0195341Y0123213D01*
X0195364Y0123250D01*
X0195384Y0123289D01*
X0195401Y0123329D01*
X0195414Y0123371D01*
X0195423Y0123413D01*
X0195429Y0123456D01*
X0195431Y0123500D01*
X0195429Y0123544D01*
X0195423Y0123587D01*
X0195414Y0123629D01*
X0195401Y0123671D01*
X0195384Y0123711D01*
X0195364Y0123750D01*
X0195341Y0123787D01*
X0195314Y0123821D01*
X0195285Y0123854D01*
X0195252Y0123883D01*
X0195218Y0123910D01*
X0195181Y0123933D01*
X0195142Y0123953D01*
X0195102Y0123970D01*
X0195060Y0123983D01*
X0195018Y0123992D01*
X0194975Y0123998D01*
X0194931Y0124000D01*
X0194887Y0123998D01*
X0194844Y0123992D01*
X0194802Y0123983D01*
X0194760Y0123970D01*
X0194720Y0123953D01*
X0194681Y0123933D01*
X0194644Y0123910D01*
X0194610Y0123883D01*
X0194577Y0123854D01*
X0194548Y0123821D01*
X0194521Y0123787D01*
X0194498Y0123750D01*
X0194478Y0123711D01*
X0194461Y0123671D01*
X0194448Y0123629D01*
X0194439Y0123587D01*
X0194433Y0123544D01*
X0194431Y0123500D01*
X0194433Y0123456D01*
X0194439Y0123413D01*
X0194448Y0123371D01*
X0194461Y0123329D01*
X0194478Y0123289D01*
X0194498Y0123250D01*
X0194521Y0123213D01*
X0194548Y0123179D01*
X0194577Y0123146D01*
X0194610Y0123117D01*
X0194644Y0123090D01*
X0194681Y0123067D01*
X0194720Y0123047D01*
X0194760Y0123030D01*
X0194802Y0123017D01*
X0194844Y0123008D01*
X0194887Y0123002D01*
X0194931Y0123000D01*
X0194975Y0123002D01*
X0195018Y0123008D01*
X0195060Y0123017D01*
X0195102Y0123030D01*
X0195142Y0123047D01*
X0195181Y0123067D01*
X0195218Y0123090D01*
X0195252Y0123117D01*
X0195285Y0123146D01*
X0195314Y0123179D01*
X0195341Y0123213D01*
X0195364Y0123250D01*
X0195384Y0123289D01*
X0195401Y0123329D01*
X0195414Y0123371D01*
X0195423Y0123413D01*
X0195429Y0123456D01*
X0195431Y0123500D01*
X0195181Y0125400D02*
X0187981Y0125400D01*
X0187981Y0126700D02*
X0187981Y0131500D01*
X0187981Y0132800D02*
X0195181Y0132800D01*
X0195081Y0135800D01*
X0195181Y0131500D02*
X0195181Y0126700D01*
X0215831Y0123300D02*
X0215831Y0144900D01*
X0333128Y0048169D02*
X0333695Y0047034D01*
X0334829Y0045900D01*
X0334829Y0047601D01*
X0335396Y0048169D01*
X0335964Y0048169D01*
X0336531Y0047601D01*
X0336531Y0046467D01*
X0335964Y0045900D01*
X0334829Y0045900D01*
X0334829Y0044485D02*
X0334829Y0042217D01*
X0333128Y0043918D01*
X0336531Y0043918D01*
X0335964Y0038169D02*
X0334829Y0038169D01*
X0334262Y0037601D01*
X0334262Y0037034D01*
X0334829Y0035900D01*
X0333128Y0035900D01*
X0333128Y0038169D01*
X0335964Y0038169D02*
X0336531Y0037601D01*
X0336531Y0036467D01*
X0335964Y0035900D01*
X0334829Y0034485D02*
X0334829Y0032217D01*
X0333128Y0033918D01*
X0336531Y0033918D01*
D14*
X0323744Y0068094D02*
X0320841Y0068094D01*
X0323744Y0068094D02*
X0323744Y0070029D01*
X0323744Y0071041D02*
X0320841Y0071041D01*
X0320841Y0072976D01*
X0320841Y0073988D02*
X0320841Y0075439D01*
X0321325Y0075923D01*
X0323260Y0075923D01*
X0323744Y0075439D01*
X0323744Y0073988D01*
X0320841Y0073988D01*
X0322292Y0072008D02*
X0322292Y0071041D01*
X0323744Y0071041D02*
X0323744Y0072976D01*
X0322292Y0076934D02*
X0322292Y0078869D01*
X0320841Y0078385D02*
X0322292Y0076934D01*
X0323744Y0078385D02*
X0320841Y0078385D01*
X0332778Y0094750D02*
X0332778Y0096201D01*
X0333262Y0096685D01*
X0334229Y0096685D01*
X0334713Y0096201D01*
X0334713Y0094750D01*
X0334713Y0095717D02*
X0335681Y0096685D01*
X0334229Y0097697D02*
X0334229Y0099631D01*
X0332778Y0099148D02*
X0334229Y0097697D01*
X0335681Y0099148D02*
X0332778Y0099148D01*
X0332778Y0094750D02*
X0335681Y0094750D01*
X0323744Y0124594D02*
X0320841Y0124594D01*
X0323744Y0124594D02*
X0323744Y0126529D01*
X0323744Y0127541D02*
X0320841Y0127541D01*
X0320841Y0129476D01*
X0320841Y0130488D02*
X0320841Y0131939D01*
X0321325Y0132423D01*
X0323260Y0132423D01*
X0323744Y0131939D01*
X0323744Y0130488D01*
X0320841Y0130488D01*
X0322292Y0128508D02*
X0322292Y0127541D01*
X0323744Y0127541D02*
X0323744Y0129476D01*
X0323744Y0133434D02*
X0321809Y0135369D01*
X0321325Y0135369D01*
X0320841Y0134885D01*
X0320841Y0133918D01*
X0321325Y0133434D01*
X0323744Y0133434D02*
X0323744Y0135369D01*
X0332278Y0150250D02*
X0332278Y0151701D01*
X0332762Y0152185D01*
X0333729Y0152185D01*
X0334213Y0151701D01*
X0334213Y0150250D01*
X0334213Y0151217D02*
X0335181Y0152185D01*
X0335181Y0153197D02*
X0335181Y0155131D01*
X0335181Y0154164D02*
X0332278Y0154164D01*
X0333246Y0153197D01*
X0332762Y0156143D02*
X0332278Y0156627D01*
X0332278Y0157594D01*
X0332762Y0158078D01*
X0334697Y0156143D01*
X0335181Y0156627D01*
X0335181Y0157594D01*
X0334697Y0158078D01*
X0332762Y0158078D01*
X0332762Y0156143D02*
X0334697Y0156143D01*
X0335181Y0150250D02*
X0332278Y0150250D01*
X0324744Y0181594D02*
X0321841Y0181594D01*
X0324744Y0181594D02*
X0324744Y0183529D01*
X0324744Y0184541D02*
X0324744Y0186476D01*
X0324744Y0187488D02*
X0321841Y0187488D01*
X0321841Y0188939D01*
X0322325Y0189423D01*
X0324260Y0189423D01*
X0324744Y0188939D01*
X0324744Y0187488D01*
X0323292Y0185508D02*
X0323292Y0184541D01*
X0321841Y0184541D02*
X0324744Y0184541D01*
X0321841Y0184541D02*
X0321841Y0186476D01*
X0322809Y0190434D02*
X0321841Y0191402D01*
X0324744Y0191402D01*
X0324744Y0192369D02*
X0324744Y0190434D01*
X0333778Y0209250D02*
X0333778Y0210701D01*
X0334262Y0211185D01*
X0335229Y0211185D01*
X0335713Y0210701D01*
X0335713Y0209250D01*
X0335713Y0210217D02*
X0336681Y0211185D01*
X0336681Y0212197D02*
X0336197Y0212197D01*
X0334262Y0214131D01*
X0333778Y0214131D01*
X0333778Y0212197D01*
X0333778Y0209250D02*
X0336681Y0209250D01*
X0245398Y0174093D02*
X0244914Y0174576D01*
X0243946Y0174576D01*
X0243463Y0174093D01*
X0245398Y0174093D02*
X0245398Y0173609D01*
X0243463Y0171674D01*
X0245398Y0171674D01*
X0242451Y0171674D02*
X0240516Y0171674D01*
X0240516Y0174576D01*
X0241016Y0166076D02*
X0241016Y0163174D01*
X0242951Y0163174D01*
X0243963Y0163658D02*
X0244446Y0163174D01*
X0245414Y0163174D01*
X0245898Y0163658D01*
X0245898Y0164141D01*
X0245414Y0164625D01*
X0244930Y0164625D01*
X0245414Y0164625D02*
X0245898Y0165109D01*
X0245898Y0165593D01*
X0245414Y0166076D01*
X0244446Y0166076D01*
X0243963Y0165593D01*
X0158117Y0151970D02*
X0154981Y0148834D01*
X0158117Y0151970D01*
X0158117Y0150402D02*
X0154981Y0150402D01*
X0158117Y0150402D01*
X0158117Y0148834D02*
X0154981Y0151970D01*
X0158117Y0148834D01*
X0156549Y0148834D02*
X0156549Y0151970D01*
X0156549Y0148834D01*
X0143181Y0149250D02*
X0140278Y0149250D01*
X0140278Y0150701D01*
X0140762Y0151185D01*
X0141729Y0151185D01*
X0142213Y0150701D01*
X0142213Y0149250D01*
X0142213Y0150217D02*
X0143181Y0151185D01*
X0142697Y0152197D02*
X0142213Y0152197D01*
X0141729Y0152680D01*
X0141729Y0153648D01*
X0142213Y0154131D01*
X0142697Y0154131D01*
X0143181Y0153648D01*
X0143181Y0152680D01*
X0142697Y0152197D01*
X0141729Y0152680D02*
X0141246Y0152197D01*
X0140762Y0152197D01*
X0140278Y0152680D01*
X0140278Y0153648D01*
X0140762Y0154131D01*
X0141246Y0154131D01*
X0141729Y0153648D01*
X0142197Y0131631D02*
X0140262Y0131631D01*
X0139778Y0131148D01*
X0139778Y0130180D01*
X0140262Y0129697D01*
X0140746Y0129697D01*
X0141229Y0130180D01*
X0141229Y0131631D01*
X0142197Y0131631D02*
X0142681Y0131148D01*
X0142681Y0130180D01*
X0142197Y0129697D01*
X0142681Y0128685D02*
X0141713Y0127717D01*
X0141713Y0128201D02*
X0141713Y0126750D01*
X0142681Y0126750D02*
X0139778Y0126750D01*
X0139778Y0128201D01*
X0140262Y0128685D01*
X0141229Y0128685D01*
X0141713Y0128201D01*
X0141246Y0097631D02*
X0140762Y0097631D01*
X0140278Y0097148D01*
X0140278Y0096180D01*
X0140762Y0095697D01*
X0140762Y0094685D02*
X0141729Y0094685D01*
X0142213Y0094201D01*
X0142213Y0092750D01*
X0142213Y0093717D02*
X0143181Y0094685D01*
X0143181Y0095697D02*
X0141246Y0097631D01*
X0143181Y0097631D02*
X0143181Y0095697D01*
X0140762Y0094685D02*
X0140278Y0094201D01*
X0140278Y0092750D01*
X0143181Y0092750D01*
X0154981Y0093402D02*
X0158117Y0093402D01*
X0154981Y0093402D01*
X0154981Y0094970D02*
X0158117Y0091834D01*
X0154981Y0094970D01*
X0156549Y0094970D02*
X0156549Y0091834D01*
X0156549Y0094970D01*
X0158117Y0094970D02*
X0154981Y0091834D01*
X0158117Y0094970D01*
X0142697Y0074131D02*
X0143181Y0073648D01*
X0143181Y0072680D01*
X0142697Y0072197D01*
X0143181Y0071185D02*
X0142213Y0070217D01*
X0142213Y0070701D02*
X0142213Y0069250D01*
X0143181Y0069250D02*
X0140278Y0069250D01*
X0140278Y0070701D01*
X0140762Y0071185D01*
X0141729Y0071185D01*
X0142213Y0070701D01*
X0140762Y0072197D02*
X0140278Y0072680D01*
X0140278Y0073648D01*
X0140762Y0074131D01*
X0141246Y0074131D01*
X0141729Y0073648D01*
X0142213Y0074131D01*
X0142697Y0074131D01*
X0141729Y0073648D02*
X0141729Y0073164D01*
X0088181Y0063690D02*
X0088181Y0060554D01*
X0088181Y0062122D02*
X0083477Y0062122D01*
X0085045Y0060554D01*
X0084261Y0059086D02*
X0083477Y0058302D01*
X0083477Y0056734D01*
X0084261Y0055950D01*
X0087397Y0055950D01*
X0088181Y0056734D01*
X0088181Y0058302D01*
X0087397Y0059086D01*
X0051181Y0038536D02*
X0051181Y0036067D01*
X0051181Y0037301D02*
X0047478Y0037301D01*
X0048712Y0036067D01*
X0087477Y0017796D02*
X0087477Y0014660D01*
X0092181Y0014660D01*
X0092181Y0013192D02*
X0089045Y0013192D01*
X0089829Y0014660D02*
X0089829Y0016228D01*
X0092181Y0013192D02*
X0092181Y0010840D01*
X0091397Y0010056D01*
X0089045Y0010056D01*
X0087477Y0007020D02*
X0092181Y0007020D01*
X0092181Y0005452D02*
X0092181Y0008588D01*
X0089045Y0005452D02*
X0087477Y0007020D01*
X0091397Y0003934D02*
X0092181Y0003934D01*
X0092181Y0003150D01*
X0091397Y0003150D01*
X0091397Y0003934D01*
X0240016Y0107674D02*
X0241951Y0107674D01*
X0242963Y0107674D02*
X0244898Y0107674D01*
X0243930Y0107674D02*
X0243930Y0110576D01*
X0242963Y0109609D01*
X0240016Y0110576D02*
X0240016Y0107674D01*
X0128469Y0176034D02*
X0127985Y0175550D01*
X0127018Y0175550D01*
X0126534Y0176034D01*
X0125523Y0175550D02*
X0123588Y0175550D01*
X0124555Y0175550D02*
X0124555Y0178452D01*
X0123588Y0177485D01*
X0122576Y0177969D02*
X0122576Y0177001D01*
X0122092Y0176517D01*
X0120641Y0176517D01*
X0120641Y0175550D02*
X0120641Y0178452D01*
X0122092Y0178452D01*
X0122576Y0177969D01*
X0121609Y0176517D02*
X0122576Y0175550D01*
X0126534Y0177969D02*
X0127018Y0178452D01*
X0127985Y0178452D01*
X0128469Y0177969D01*
X0128469Y0177485D01*
X0127985Y0177001D01*
X0128469Y0176517D01*
X0128469Y0176034D01*
X0127985Y0177001D02*
X0127502Y0177001D01*
X0127857Y0181750D02*
X0127374Y0182234D01*
X0129309Y0184169D01*
X0129309Y0182234D01*
X0128825Y0181750D01*
X0127857Y0181750D01*
X0127374Y0182234D02*
X0127374Y0184169D01*
X0127857Y0184652D01*
X0128825Y0184652D01*
X0129309Y0184169D01*
X0126362Y0184169D02*
X0125878Y0184652D01*
X0124911Y0184652D01*
X0124427Y0184169D01*
X0123416Y0184169D02*
X0122932Y0184652D01*
X0121964Y0184652D01*
X0121481Y0184169D01*
X0121481Y0182234D01*
X0121964Y0181750D01*
X0122932Y0181750D01*
X0123416Y0182234D01*
X0124427Y0181750D02*
X0126362Y0183685D01*
X0126362Y0184169D01*
X0126362Y0181750D02*
X0124427Y0181750D01*
X0123063Y0189077D02*
X0123063Y0190528D01*
X0122579Y0191012D01*
X0120644Y0191012D01*
X0120160Y0190528D01*
X0120160Y0189077D01*
X0123063Y0189077D01*
X0123063Y0192023D02*
X0123063Y0193958D01*
X0123063Y0194970D02*
X0123063Y0196421D01*
X0122579Y0196905D01*
X0122095Y0196905D01*
X0121611Y0196421D01*
X0121611Y0194970D01*
X0120160Y0194970D02*
X0120160Y0196421D01*
X0120644Y0196905D01*
X0121128Y0196905D01*
X0121611Y0196421D01*
X0122579Y0197916D02*
X0123063Y0198400D01*
X0123063Y0199368D01*
X0122579Y0199851D01*
X0120160Y0199851D01*
X0120644Y0200863D02*
X0122579Y0200863D01*
X0123063Y0201347D01*
X0123063Y0202314D01*
X0122579Y0202798D01*
X0121611Y0202798D01*
X0121611Y0201830D01*
X0120644Y0200863D02*
X0120160Y0201347D01*
X0120160Y0202314D01*
X0120644Y0202798D01*
X0123546Y0203809D02*
X0123546Y0205744D01*
X0122579Y0206756D02*
X0123063Y0207240D01*
X0123063Y0208207D01*
X0122579Y0208691D01*
X0122579Y0209702D02*
X0123063Y0210186D01*
X0123063Y0211154D01*
X0122579Y0211637D01*
X0120644Y0211637D01*
X0120160Y0211154D01*
X0120160Y0210186D01*
X0120644Y0209702D01*
X0122579Y0209702D01*
X0120644Y0208691D02*
X0120160Y0208207D01*
X0120160Y0207240D01*
X0120644Y0206756D01*
X0122579Y0206756D01*
X0125575Y0209687D02*
X0127510Y0209687D01*
X0128522Y0209687D02*
X0128522Y0212589D01*
X0130457Y0212589D01*
X0131468Y0212589D02*
X0132919Y0212589D01*
X0133403Y0212106D01*
X0133403Y0210171D01*
X0132919Y0209687D01*
X0131468Y0209687D01*
X0131468Y0212589D01*
X0129489Y0211138D02*
X0128522Y0211138D01*
X0128522Y0209687D02*
X0130457Y0209687D01*
X0134415Y0210171D02*
X0134898Y0209687D01*
X0135866Y0209687D01*
X0136350Y0210171D01*
X0136350Y0210654D01*
X0135866Y0211138D01*
X0135382Y0211138D01*
X0135866Y0211138D02*
X0136350Y0211622D01*
X0136350Y0212106D01*
X0135866Y0212589D01*
X0134898Y0212589D01*
X0134415Y0212106D01*
X0135881Y0205238D02*
X0135881Y0203303D01*
X0135881Y0204271D02*
X0132978Y0204271D01*
X0133946Y0203303D01*
X0135881Y0202292D02*
X0135881Y0200357D01*
X0135881Y0201324D02*
X0132978Y0201324D01*
X0133946Y0200357D01*
X0134429Y0199345D02*
X0134913Y0198862D01*
X0134913Y0197410D01*
X0135881Y0197410D02*
X0132978Y0197410D01*
X0132978Y0198862D01*
X0133462Y0199345D01*
X0134429Y0199345D01*
X0134913Y0198378D02*
X0135881Y0199345D01*
X0122579Y0197916D02*
X0120160Y0197916D01*
X0120160Y0194970D02*
X0123063Y0194970D01*
X0121611Y0192991D02*
X0121611Y0192023D01*
X0120160Y0192023D02*
X0123063Y0192023D01*
X0120160Y0192023D02*
X0120160Y0193958D01*
X0106469Y0183969D02*
X0105985Y0184452D01*
X0105018Y0184452D01*
X0104534Y0183969D01*
X0106469Y0183969D02*
X0106469Y0183485D01*
X0104534Y0181550D01*
X0106469Y0181550D01*
X0103523Y0181550D02*
X0101588Y0181550D01*
X0102555Y0181550D02*
X0102555Y0184452D01*
X0101588Y0183485D01*
X0100576Y0183969D02*
X0100576Y0183001D01*
X0100092Y0182517D01*
X0098641Y0182517D01*
X0098641Y0181550D02*
X0098641Y0184452D01*
X0100092Y0184452D01*
X0100576Y0183969D01*
X0099609Y0182517D02*
X0100576Y0181550D01*
X0096309Y0183201D02*
X0094374Y0183201D01*
X0095825Y0184652D01*
X0095825Y0181750D01*
X0093362Y0181750D02*
X0091427Y0181750D01*
X0092395Y0181750D02*
X0092395Y0184652D01*
X0091427Y0183685D01*
X0090416Y0184169D02*
X0090416Y0183201D01*
X0089932Y0182717D01*
X0088481Y0182717D01*
X0088481Y0181750D02*
X0088481Y0184652D01*
X0089932Y0184652D01*
X0090416Y0184169D01*
X0089448Y0182717D02*
X0090416Y0181750D01*
X0076391Y0195613D02*
X0075423Y0195613D01*
X0074940Y0196097D01*
X0074940Y0197064D02*
X0075907Y0197548D01*
X0076391Y0197548D01*
X0076875Y0197064D01*
X0076875Y0196097D01*
X0076391Y0195613D01*
X0074940Y0197064D02*
X0074940Y0198515D01*
X0076875Y0198515D01*
X0073928Y0198032D02*
X0073928Y0196097D01*
X0073444Y0195613D01*
X0071993Y0195613D01*
X0071993Y0198515D01*
X0073444Y0198515D01*
X0073928Y0198032D01*
X0070982Y0198515D02*
X0069047Y0198515D01*
X0069047Y0195613D01*
X0070982Y0195613D01*
X0070014Y0197064D02*
X0069047Y0197064D01*
X0068035Y0195613D02*
X0066100Y0195613D01*
X0066100Y0198515D01*
X0120160Y0212649D02*
X0123063Y0214584D01*
X0120160Y0214584D01*
X0120160Y0212649D02*
X0123063Y0212649D01*
X0125575Y0212589D02*
X0125575Y0209687D01*
X0153778Y0211250D02*
X0153778Y0212701D01*
X0154262Y0213185D01*
X0155229Y0213185D01*
X0155713Y0212701D01*
X0155713Y0211250D01*
X0155713Y0212217D02*
X0156681Y0213185D01*
X0156197Y0214197D02*
X0156681Y0214680D01*
X0156681Y0215648D01*
X0156197Y0216131D01*
X0155229Y0216131D01*
X0154746Y0215648D01*
X0154746Y0215164D01*
X0155229Y0214197D01*
X0153778Y0214197D01*
X0153778Y0216131D01*
X0153778Y0211250D02*
X0156681Y0211250D01*
X0155981Y0208970D02*
X0159117Y0205834D01*
X0155981Y0208970D01*
X0157549Y0208970D02*
X0157549Y0205834D01*
X0157549Y0208970D01*
X0159117Y0208970D02*
X0155981Y0205834D01*
X0159117Y0208970D01*
X0159117Y0207402D02*
X0155981Y0207402D01*
X0159117Y0207402D01*
X0143697Y0189131D02*
X0143213Y0189131D01*
X0142729Y0188648D01*
X0142729Y0187197D01*
X0143697Y0187197D01*
X0144181Y0187680D01*
X0144181Y0188648D01*
X0143697Y0189131D01*
X0142729Y0187197D02*
X0141762Y0188164D01*
X0141278Y0189131D01*
X0141762Y0186185D02*
X0142729Y0186185D01*
X0143213Y0185701D01*
X0143213Y0184250D01*
X0143213Y0185217D02*
X0144181Y0186185D01*
X0144181Y0184250D02*
X0141278Y0184250D01*
X0141278Y0185701D01*
X0141762Y0186185D01*
X0075969Y0240534D02*
X0075485Y0240050D01*
X0074518Y0240050D01*
X0074034Y0240534D01*
X0074034Y0241501D02*
X0075002Y0241985D01*
X0075485Y0241985D01*
X0075969Y0241501D01*
X0075969Y0240534D01*
X0074034Y0241501D02*
X0074034Y0242952D01*
X0075969Y0242952D01*
X0072055Y0242952D02*
X0072055Y0240050D01*
X0071088Y0240050D02*
X0073023Y0240050D01*
X0071088Y0241985D02*
X0072055Y0242952D01*
X0070076Y0242469D02*
X0070076Y0241501D01*
X0069592Y0241017D01*
X0068141Y0241017D01*
X0068141Y0240050D02*
X0068141Y0242952D01*
X0069592Y0242952D01*
X0070076Y0242469D01*
X0069109Y0241017D02*
X0070076Y0240050D01*
D15*
X0080830Y0089395D02*
X0080830Y0086326D01*
X0083132Y0086326D01*
X0082365Y0087861D01*
X0082365Y0088628D01*
X0083132Y0089395D01*
X0084667Y0089395D01*
X0085434Y0088628D01*
X0085434Y0087093D01*
X0084667Y0086326D01*
X0085434Y0084791D02*
X0085434Y0081722D01*
X0080830Y0081722D01*
X0081597Y0080187D02*
X0083132Y0080187D01*
X0083899Y0079420D01*
X0083899Y0077118D01*
X0085434Y0077118D02*
X0080830Y0077118D01*
X0080830Y0079420D01*
X0081597Y0080187D01*
X0108027Y0062439D02*
X0112631Y0062439D01*
X0112631Y0063973D02*
X0112631Y0060904D01*
X0112631Y0059369D02*
X0111096Y0057835D01*
X0111096Y0058602D02*
X0111096Y0056300D01*
X0112631Y0056300D02*
X0108027Y0056300D01*
X0108027Y0058602D01*
X0108794Y0059369D01*
X0110329Y0059369D01*
X0111096Y0058602D01*
X0109561Y0060904D02*
X0108027Y0062439D01*
X0347922Y0063529D02*
X0347922Y0064730D01*
X0347922Y0064129D02*
X0350924Y0064129D01*
X0351525Y0063529D01*
X0351525Y0062928D01*
X0350924Y0062328D01*
X0349723Y0066011D02*
X0347922Y0067812D01*
X0351525Y0067812D01*
X0349723Y0068413D02*
X0349723Y0066011D01*
X0350924Y0084328D02*
X0351525Y0084928D01*
X0351525Y0085529D01*
X0350924Y0086129D01*
X0347922Y0086129D01*
X0347922Y0085529D02*
X0347922Y0086730D01*
X0348522Y0088011D02*
X0347922Y0088611D01*
X0347922Y0089812D01*
X0348522Y0090413D01*
X0349123Y0090413D01*
X0349723Y0089812D01*
X0350324Y0090413D01*
X0350924Y0090413D01*
X0351525Y0089812D01*
X0351525Y0088611D01*
X0350924Y0088011D01*
X0349723Y0089212D02*
X0349723Y0089812D01*
X0350924Y0106328D02*
X0351525Y0106928D01*
X0351525Y0107529D01*
X0350924Y0108129D01*
X0347922Y0108129D01*
X0347922Y0107529D02*
X0347922Y0108730D01*
X0348522Y0110011D02*
X0347922Y0110611D01*
X0347922Y0111812D01*
X0348522Y0112413D01*
X0349123Y0112413D01*
X0351525Y0110011D01*
X0351525Y0112413D01*
X0350924Y0148328D02*
X0351525Y0148928D01*
X0351525Y0149529D01*
X0350924Y0150129D01*
X0347922Y0150129D01*
X0347922Y0149529D02*
X0347922Y0150730D01*
X0349123Y0152011D02*
X0347922Y0153212D01*
X0351525Y0153212D01*
X0351525Y0152011D02*
X0351525Y0154413D01*
X0350924Y0170328D02*
X0351525Y0170928D01*
X0351525Y0171529D01*
X0350924Y0172129D01*
X0347922Y0172129D01*
X0347922Y0171529D02*
X0347922Y0172730D01*
X0349723Y0174011D02*
X0349723Y0175812D01*
X0350324Y0176413D01*
X0350924Y0176413D01*
X0351525Y0175812D01*
X0351525Y0174611D01*
X0350924Y0174011D01*
X0349723Y0174011D01*
X0348522Y0175212D01*
X0347922Y0176413D01*
X0350924Y0192328D02*
X0351525Y0192928D01*
X0351525Y0193529D01*
X0350924Y0194129D01*
X0347922Y0194129D01*
X0347922Y0193529D02*
X0347922Y0194730D01*
X0347922Y0196011D02*
X0347922Y0198413D01*
X0348522Y0198413D01*
X0350924Y0196011D01*
X0351525Y0196011D01*
X0350924Y0214328D02*
X0351525Y0214928D01*
X0351525Y0215529D01*
X0350924Y0216129D01*
X0347922Y0216129D01*
X0347922Y0215529D02*
X0347922Y0216730D01*
X0348522Y0218011D02*
X0347922Y0218611D01*
X0347922Y0219812D01*
X0348522Y0220413D01*
X0349123Y0220413D01*
X0349723Y0219812D01*
X0349723Y0218611D01*
X0349123Y0218011D01*
X0348522Y0218011D01*
X0349723Y0218611D02*
X0350324Y0218011D01*
X0350924Y0218011D01*
X0351525Y0218611D01*
X0351525Y0219812D01*
X0350924Y0220413D01*
X0350324Y0220413D01*
X0349723Y0219812D01*
X0350924Y0232828D02*
X0351525Y0233428D01*
X0351525Y0234029D01*
X0350924Y0234629D01*
X0347922Y0234629D01*
X0347922Y0234029D02*
X0347922Y0235230D01*
X0348522Y0236511D02*
X0347922Y0237111D01*
X0347922Y0238312D01*
X0348522Y0238913D01*
X0350924Y0238913D01*
X0351525Y0238312D01*
X0351525Y0237111D01*
X0350924Y0236511D01*
X0349723Y0237111D02*
X0349723Y0238913D01*
X0349723Y0237111D02*
X0349123Y0236511D01*
X0348522Y0236511D01*
X0347922Y0046413D02*
X0347922Y0044011D01*
X0349723Y0044011D01*
X0349123Y0045212D01*
X0349123Y0045812D01*
X0349723Y0046413D01*
X0350924Y0046413D01*
X0351525Y0045812D01*
X0351525Y0044611D01*
X0350924Y0044011D01*
X0350924Y0042129D02*
X0347922Y0042129D01*
X0347922Y0041529D02*
X0347922Y0042730D01*
X0350924Y0042129D02*
X0351525Y0041529D01*
X0351525Y0040928D01*
X0350924Y0040328D01*
D16*
X0296079Y0054200D02*
X0295579Y0053700D01*
X0294578Y0053700D01*
X0294077Y0054200D01*
X0293132Y0054200D02*
X0292632Y0053700D01*
X0291631Y0053700D01*
X0291131Y0054200D01*
X0291131Y0056202D01*
X0291631Y0056703D01*
X0292632Y0056703D01*
X0293132Y0056202D01*
X0294077Y0056703D02*
X0294077Y0055201D01*
X0295078Y0055702D01*
X0295579Y0055702D01*
X0296079Y0055201D01*
X0296079Y0054200D01*
X0296079Y0056703D02*
X0294077Y0056703D01*
X0210079Y0057700D02*
X0208077Y0057700D01*
X0210079Y0059702D01*
X0210079Y0060202D01*
X0209579Y0060703D01*
X0208578Y0060703D01*
X0208077Y0060202D01*
X0207132Y0060202D02*
X0207132Y0058200D01*
X0206632Y0057700D01*
X0205131Y0057700D01*
X0205131Y0060703D01*
X0206632Y0060703D01*
X0207132Y0060202D01*
X0194079Y0060451D02*
X0194079Y0059950D01*
X0193579Y0059450D01*
X0192578Y0059450D01*
X0192077Y0059950D01*
X0192077Y0060451D01*
X0192578Y0060951D01*
X0193579Y0060951D01*
X0194079Y0060451D01*
X0193579Y0060951D02*
X0194079Y0061452D01*
X0194079Y0061952D01*
X0193579Y0062453D01*
X0192578Y0062453D01*
X0192077Y0061952D01*
X0192077Y0061452D01*
X0192578Y0060951D01*
X0191132Y0059950D02*
X0190632Y0059450D01*
X0189631Y0059450D01*
X0189131Y0059950D01*
X0189131Y0061952D01*
X0189631Y0062453D01*
X0190632Y0062453D01*
X0191132Y0061952D01*
X0171525Y0067700D02*
X0169524Y0067700D01*
X0171525Y0069702D01*
X0171525Y0070202D01*
X0171025Y0070703D01*
X0170024Y0070703D01*
X0169524Y0070202D01*
X0168579Y0070202D02*
X0168079Y0070703D01*
X0167078Y0070703D01*
X0166577Y0070202D01*
X0166577Y0069702D01*
X0167078Y0069201D01*
X0168079Y0069201D01*
X0168579Y0068701D01*
X0168579Y0068200D01*
X0168079Y0067700D01*
X0167078Y0067700D01*
X0166577Y0068200D01*
X0165632Y0068200D02*
X0165632Y0070703D01*
X0163631Y0070703D02*
X0163631Y0068200D01*
X0164131Y0067700D01*
X0165132Y0067700D01*
X0165632Y0068200D01*
X0167578Y0067200D02*
X0167578Y0071203D01*
X0167632Y0100700D02*
X0168132Y0101200D01*
X0167632Y0100700D02*
X0166631Y0100700D01*
X0166131Y0101200D01*
X0166131Y0103202D01*
X0166631Y0103703D01*
X0167632Y0103703D01*
X0168132Y0103202D01*
X0169077Y0102201D02*
X0171079Y0102201D01*
X0170579Y0100700D02*
X0170579Y0103703D01*
X0169077Y0102201D01*
X0187631Y0116950D02*
X0188131Y0116450D01*
X0189132Y0116450D01*
X0189632Y0116950D01*
X0190577Y0116450D02*
X0192579Y0116450D01*
X0191578Y0116450D02*
X0191578Y0119453D01*
X0190577Y0118452D01*
X0189632Y0118952D02*
X0189132Y0119453D01*
X0188131Y0119453D01*
X0187631Y0118952D01*
X0187631Y0116950D01*
X0193524Y0116950D02*
X0194024Y0116450D01*
X0195025Y0116450D01*
X0195525Y0116950D01*
X0195525Y0118952D01*
X0195025Y0119453D01*
X0194024Y0119453D01*
X0193524Y0118952D01*
X0193524Y0118452D01*
X0194024Y0117951D01*
X0195525Y0117951D01*
X0206131Y0118203D02*
X0206131Y0115200D01*
X0207632Y0115200D01*
X0208132Y0115700D01*
X0208132Y0117702D01*
X0207632Y0118203D01*
X0206131Y0118203D01*
X0209077Y0117702D02*
X0209578Y0118203D01*
X0210579Y0118203D01*
X0211079Y0117702D01*
X0211079Y0117202D01*
X0210579Y0116701D01*
X0211079Y0116201D01*
X0211079Y0115700D01*
X0210579Y0115200D01*
X0209578Y0115200D01*
X0209077Y0115700D01*
X0210078Y0116701D02*
X0210579Y0116701D01*
X0172025Y0126201D02*
X0170024Y0126201D01*
X0171525Y0127703D01*
X0171525Y0124700D01*
X0169079Y0125200D02*
X0169079Y0125701D01*
X0168579Y0126201D01*
X0167578Y0126201D01*
X0167077Y0126702D01*
X0167077Y0127202D01*
X0167578Y0127703D01*
X0168579Y0127703D01*
X0169079Y0127202D01*
X0168078Y0128203D02*
X0168078Y0124200D01*
X0167578Y0124700D02*
X0168579Y0124700D01*
X0169079Y0125200D01*
X0167578Y0124700D02*
X0167077Y0125200D01*
X0166132Y0125200D02*
X0166132Y0127703D01*
X0164131Y0127703D02*
X0164131Y0125200D01*
X0164631Y0124700D01*
X0165632Y0124700D01*
X0166132Y0125200D01*
X0166577Y0158200D02*
X0168579Y0158200D01*
X0167578Y0158200D02*
X0167578Y0161203D01*
X0166577Y0160202D01*
X0165632Y0160702D02*
X0165132Y0161203D01*
X0164131Y0161203D01*
X0163631Y0160702D01*
X0163631Y0158700D01*
X0164131Y0158200D01*
X0165132Y0158200D01*
X0165632Y0158700D01*
X0169524Y0158700D02*
X0170024Y0158200D01*
X0171025Y0158200D01*
X0171525Y0158700D01*
X0171525Y0159701D01*
X0171025Y0160202D01*
X0170525Y0160202D01*
X0169524Y0159701D01*
X0169524Y0161203D01*
X0171525Y0161203D01*
X0168578Y0181700D02*
X0168578Y0185703D01*
X0168078Y0185203D02*
X0169079Y0185203D01*
X0169579Y0184702D01*
X0170524Y0184702D02*
X0171024Y0185203D01*
X0172025Y0185203D01*
X0172525Y0184702D01*
X0172525Y0184202D01*
X0172025Y0183701D01*
X0172525Y0183201D01*
X0172525Y0182700D01*
X0172025Y0182200D01*
X0171024Y0182200D01*
X0170524Y0182700D01*
X0169579Y0182700D02*
X0169079Y0182200D01*
X0168078Y0182200D01*
X0167577Y0182700D01*
X0166632Y0182700D02*
X0166632Y0185203D01*
X0167577Y0184702D02*
X0168078Y0185203D01*
X0167577Y0184702D02*
X0167577Y0184202D01*
X0168078Y0183701D01*
X0169079Y0183701D01*
X0169579Y0183201D01*
X0169579Y0182700D01*
X0171525Y0183701D02*
X0172025Y0183701D01*
X0166632Y0182700D02*
X0166132Y0182200D01*
X0165131Y0182200D01*
X0164631Y0182700D01*
X0164631Y0185203D01*
X0196978Y0184401D02*
X0196978Y0183400D01*
X0197479Y0182900D01*
X0199480Y0182900D01*
X0199981Y0183400D01*
X0199981Y0184401D01*
X0199480Y0184902D01*
X0199981Y0185847D02*
X0199981Y0187848D01*
X0199981Y0186847D02*
X0196978Y0186847D01*
X0197979Y0185847D01*
X0197479Y0184902D02*
X0196978Y0184401D01*
X0197479Y0188793D02*
X0196978Y0189293D01*
X0196978Y0190294D01*
X0197479Y0190795D01*
X0197979Y0190795D01*
X0198479Y0190294D01*
X0198980Y0190795D01*
X0199480Y0190795D01*
X0199981Y0190294D01*
X0199981Y0189293D01*
X0199480Y0188793D01*
X0198479Y0189794D02*
X0198479Y0190294D01*
X0207631Y0175203D02*
X0209132Y0175203D01*
X0209632Y0174702D01*
X0209632Y0172700D01*
X0209132Y0172200D01*
X0207631Y0172200D01*
X0207631Y0175203D01*
X0210577Y0174202D02*
X0211578Y0175203D01*
X0211578Y0172200D01*
X0210577Y0172200D02*
X0212579Y0172200D01*
X0170579Y0214700D02*
X0169578Y0214700D01*
X0169077Y0215200D01*
X0168132Y0215200D02*
X0167632Y0214700D01*
X0166631Y0214700D01*
X0166131Y0215200D01*
X0166131Y0217202D01*
X0166631Y0217703D01*
X0167632Y0217703D01*
X0168132Y0217202D01*
X0169077Y0217202D02*
X0169077Y0216702D01*
X0169578Y0216201D01*
X0171079Y0216201D01*
X0171079Y0215200D02*
X0171079Y0217202D01*
X0170579Y0217703D01*
X0169578Y0217703D01*
X0169077Y0217202D01*
X0171079Y0215200D02*
X0170579Y0214700D01*
X0287631Y0171202D02*
X0287631Y0169200D01*
X0288131Y0168700D01*
X0289132Y0168700D01*
X0289632Y0169200D01*
X0290577Y0168700D02*
X0292579Y0168700D01*
X0291578Y0168700D02*
X0291578Y0171703D01*
X0290577Y0170702D01*
X0289632Y0171202D02*
X0289132Y0171703D01*
X0288131Y0171703D01*
X0287631Y0171202D01*
X0293524Y0171202D02*
X0293524Y0169200D01*
X0295525Y0171202D01*
X0295525Y0169200D01*
X0295025Y0168700D01*
X0294024Y0168700D01*
X0293524Y0169200D01*
X0293524Y0171202D02*
X0294024Y0171703D01*
X0295025Y0171703D01*
X0295525Y0171202D01*
X0297025Y0115203D02*
X0296025Y0114702D01*
X0295024Y0113701D01*
X0296525Y0113701D01*
X0297025Y0113201D01*
X0297025Y0112700D01*
X0296525Y0112200D01*
X0295524Y0112200D01*
X0295024Y0112700D01*
X0295024Y0113701D01*
X0294079Y0112200D02*
X0292077Y0112200D01*
X0293078Y0112200D02*
X0293078Y0115203D01*
X0292077Y0114202D01*
X0291132Y0114702D02*
X0290632Y0115203D01*
X0289631Y0115203D01*
X0289131Y0114702D01*
X0289131Y0112700D01*
X0289631Y0112200D01*
X0290632Y0112200D01*
X0291132Y0112700D01*
D17*
X0325764Y0127496D03*
X0326764Y0184496D03*
X0325764Y0070496D03*
X0130476Y0218167D03*
X0070764Y0207246D03*
D18*
X0072831Y0210100D03*
X0133331Y0216100D03*
X0328831Y0187350D03*
X0327831Y0130350D03*
X0327831Y0073350D03*
D19*
X0366831Y0073600D02*
X0366831Y0071100D01*
X0379331Y0071100D01*
X0379331Y0074600D01*
X0403831Y0074600D01*
X0405231Y0075900D01*
X0410831Y0076100D02*
X0412831Y0077100D01*
X0412831Y0080900D01*
X0412831Y0081300D01*
X0412831Y0080900D02*
X0412831Y0085100D01*
X0410831Y0086100D01*
X0379331Y0086100D01*
X0379331Y0091100D01*
X0366831Y0091100D01*
X0366831Y0088600D01*
X0369331Y0088600D01*
X0369331Y0083600D01*
X0366831Y0083600D01*
X0366831Y0078600D01*
X0369331Y0078600D01*
X0369331Y0073600D01*
X0366831Y0073600D01*
X0366831Y0069100D02*
X0366831Y0066600D01*
X0369331Y0066600D01*
X0369331Y0061600D01*
X0366831Y0061600D01*
X0366831Y0056600D01*
X0369331Y0056600D01*
X0369331Y0051600D01*
X0366831Y0051600D01*
X0366831Y0049100D01*
X0379331Y0049100D01*
X0379331Y0052600D01*
X0403831Y0052600D01*
X0405231Y0053900D01*
X0410831Y0054100D02*
X0412831Y0055100D01*
X0412831Y0058900D01*
X0412831Y0059300D01*
X0412831Y0058900D02*
X0412831Y0063100D01*
X0410831Y0064100D01*
X0379331Y0064100D01*
X0379331Y0069100D01*
X0366831Y0069100D01*
X0379331Y0065600D02*
X0403831Y0065600D01*
X0405231Y0064300D01*
X0410831Y0054100D02*
X0379331Y0054100D01*
X0379331Y0052600D02*
X0379331Y0064100D01*
X0379331Y0074600D02*
X0379331Y0086100D01*
X0379331Y0087600D02*
X0403831Y0087600D01*
X0405231Y0086300D01*
X0403831Y0096600D02*
X0405231Y0097900D01*
X0403831Y0096600D02*
X0379331Y0096600D01*
X0379331Y0108100D01*
X0410831Y0108100D01*
X0412831Y0107100D01*
X0412831Y0102900D01*
X0412831Y0103300D01*
X0412831Y0102900D02*
X0412831Y0099100D01*
X0410831Y0098100D01*
X0379331Y0098100D01*
X0379331Y0096600D02*
X0379331Y0093100D01*
X0366831Y0093100D01*
X0366831Y0095600D01*
X0369331Y0095600D01*
X0369331Y0100600D01*
X0366831Y0100600D01*
X0366831Y0105600D01*
X0369331Y0105600D01*
X0369331Y0110600D01*
X0366831Y0110600D01*
X0366831Y0113100D01*
X0379331Y0113100D01*
X0379331Y0108100D01*
X0379331Y0109600D02*
X0403831Y0109600D01*
X0405231Y0108300D01*
X0403831Y0118600D02*
X0405231Y0119900D01*
X0403831Y0118600D02*
X0379331Y0118600D01*
X0379331Y0150100D01*
X0410831Y0150100D01*
X0412831Y0149100D01*
X0412831Y0134900D01*
X0412831Y0135300D02*
X0412831Y0121100D01*
X0410831Y0120100D01*
X0379331Y0120100D01*
X0379331Y0118600D02*
X0379331Y0115100D01*
X0366831Y0115100D01*
X0366831Y0117600D01*
X0369331Y0117600D01*
X0369331Y0122600D01*
X0366831Y0122600D01*
X0366831Y0127600D01*
X0369331Y0127600D01*
X0369331Y0132600D01*
X0366831Y0132600D01*
X0366831Y0137600D01*
X0369331Y0137600D01*
X0369331Y0142600D01*
X0366831Y0142600D01*
X0366831Y0147600D01*
X0369331Y0147600D01*
X0369331Y0152600D01*
X0366831Y0152600D01*
X0366831Y0155100D01*
X0379331Y0155100D01*
X0379331Y0150100D01*
X0379331Y0151600D02*
X0403831Y0151600D01*
X0405231Y0150300D01*
X0403831Y0160600D02*
X0405231Y0161900D01*
X0403831Y0160600D02*
X0379331Y0160600D01*
X0379331Y0172100D01*
X0410831Y0172100D01*
X0412831Y0171100D01*
X0412831Y0166900D01*
X0412831Y0167300D01*
X0412831Y0166900D02*
X0412831Y0163100D01*
X0410831Y0162100D01*
X0379331Y0162100D01*
X0379331Y0160600D02*
X0379331Y0157100D01*
X0366831Y0157100D01*
X0366831Y0159600D01*
X0369331Y0159600D01*
X0369331Y0164600D01*
X0366831Y0164600D01*
X0366831Y0169600D01*
X0369331Y0169600D01*
X0369331Y0174600D01*
X0366831Y0174600D01*
X0366831Y0177100D01*
X0379331Y0177100D01*
X0379331Y0172100D01*
X0379331Y0173600D02*
X0403831Y0173600D01*
X0405231Y0172300D01*
X0403831Y0182600D02*
X0405231Y0183900D01*
X0403831Y0182600D02*
X0379331Y0182600D01*
X0379331Y0194100D01*
X0410831Y0194100D01*
X0412831Y0193100D01*
X0412831Y0188900D01*
X0412831Y0189300D01*
X0412831Y0188900D02*
X0412831Y0185100D01*
X0410831Y0184100D01*
X0379331Y0184100D01*
X0379331Y0182600D02*
X0379331Y0179100D01*
X0366831Y0179100D01*
X0366831Y0181600D01*
X0369331Y0181600D01*
X0369331Y0186600D01*
X0366831Y0186600D01*
X0366831Y0191600D01*
X0369331Y0191600D01*
X0369331Y0196600D01*
X0366831Y0196600D01*
X0366831Y0199100D01*
X0379331Y0199100D01*
X0379331Y0194100D01*
X0379331Y0195600D02*
X0403831Y0195600D01*
X0405231Y0194300D01*
X0403831Y0204600D02*
X0405231Y0205900D01*
X0403831Y0204600D02*
X0379331Y0204600D01*
X0379331Y0216100D01*
X0410831Y0216100D01*
X0412831Y0215100D01*
X0412831Y0210900D01*
X0412831Y0211300D01*
X0412831Y0210900D02*
X0412831Y0207100D01*
X0410831Y0206100D01*
X0379331Y0206100D01*
X0379331Y0204600D02*
X0379331Y0201100D01*
X0366831Y0201100D01*
X0366831Y0203600D01*
X0369331Y0203600D01*
X0369331Y0208600D01*
X0366831Y0208600D01*
X0366831Y0213600D01*
X0369331Y0213600D01*
X0369331Y0218600D01*
X0366831Y0218600D01*
X0366831Y0221100D01*
X0379331Y0221100D01*
X0379331Y0216100D01*
X0379331Y0217600D02*
X0403831Y0217600D01*
X0405231Y0216300D01*
X0403831Y0226600D02*
X0405231Y0227900D01*
X0403831Y0226600D02*
X0379331Y0226600D01*
X0379331Y0238100D01*
X0410831Y0238100D01*
X0412831Y0237100D01*
X0412831Y0232900D01*
X0412831Y0233300D01*
X0412831Y0232900D02*
X0412831Y0229100D01*
X0410831Y0228100D01*
X0379331Y0228100D01*
X0379331Y0226600D02*
X0379331Y0223100D01*
X0366831Y0223100D01*
X0366831Y0225600D01*
X0369331Y0225600D01*
X0369331Y0230600D01*
X0366831Y0230600D01*
X0366831Y0235600D01*
X0369331Y0235600D01*
X0369331Y0240600D01*
X0366831Y0240600D01*
X0366831Y0243100D01*
X0379331Y0243100D01*
X0379331Y0238100D01*
X0379331Y0239600D02*
X0403831Y0239600D01*
X0405231Y0238300D01*
X0410831Y0076100D02*
X0379331Y0076100D01*
X0379331Y0047100D02*
X0366831Y0047100D01*
X0366831Y0044600D01*
X0369331Y0044600D01*
X0369331Y0039600D01*
X0366831Y0039600D01*
X0366831Y0034600D01*
X0369331Y0034600D01*
X0369331Y0029600D01*
X0366831Y0029600D01*
X0366831Y0027100D01*
X0379331Y0027100D01*
X0379331Y0030600D01*
X0403831Y0030600D01*
X0405231Y0031900D01*
X0410831Y0032100D02*
X0412831Y0033100D01*
X0412831Y0036900D01*
X0412831Y0037300D01*
X0412831Y0036900D02*
X0412831Y0041100D01*
X0410831Y0042100D01*
X0379331Y0042100D01*
X0379331Y0047100D01*
X0379331Y0043600D02*
X0403831Y0043600D01*
X0405231Y0042300D01*
X0410831Y0032100D02*
X0379331Y0032100D01*
X0379331Y0030600D02*
X0379331Y0042100D01*
X0060161Y0069470D02*
X0051500Y0069470D01*
X0027484Y0069470D02*
X0027484Y0049785D01*
X0052287Y0049785D01*
X0052287Y0110415D01*
X0027484Y0110415D01*
X0027484Y0090730D01*
X0001500Y0090730D01*
X0001500Y0069470D01*
X0027484Y0069470D01*
D20*
X0372575Y0074744D02*
X0375444Y0077613D01*
X0375444Y0078330D01*
X0374727Y0079048D01*
X0373292Y0079048D01*
X0372575Y0078330D01*
X0372575Y0074744D02*
X0375444Y0074744D01*
X0374509Y0066848D02*
X0374509Y0062544D01*
X0373075Y0062544D02*
X0375944Y0062544D01*
X0373075Y0065413D02*
X0374509Y0066848D01*
X0374727Y0057048D02*
X0373292Y0057048D01*
X0372575Y0056330D01*
X0374727Y0057048D02*
X0375444Y0056330D01*
X0375444Y0055613D01*
X0372575Y0052744D01*
X0375444Y0052744D01*
X0374509Y0044848D02*
X0374509Y0040544D01*
X0373075Y0040544D02*
X0375944Y0040544D01*
X0373075Y0043413D02*
X0374509Y0044848D01*
X0374727Y0035048D02*
X0373292Y0035048D01*
X0372575Y0034330D01*
X0374727Y0035048D02*
X0375444Y0034330D01*
X0375444Y0033613D01*
X0372575Y0030744D01*
X0375444Y0030744D01*
X0375944Y0084544D02*
X0373075Y0084544D01*
X0374509Y0084544D02*
X0374509Y0088848D01*
X0373075Y0087413D01*
X0372575Y0096744D02*
X0375444Y0099613D01*
X0375444Y0100330D01*
X0374727Y0101048D01*
X0373292Y0101048D01*
X0372575Y0100330D01*
X0372575Y0096744D02*
X0375444Y0096744D01*
X0375944Y0106544D02*
X0373075Y0106544D01*
X0374509Y0106544D02*
X0374509Y0110848D01*
X0373075Y0109413D01*
X0374727Y0118744D02*
X0374727Y0123048D01*
X0372575Y0120896D01*
X0375444Y0120896D01*
X0375944Y0148544D02*
X0373075Y0148544D01*
X0374509Y0148544D02*
X0374509Y0152848D01*
X0373075Y0151413D01*
X0372575Y0160744D02*
X0375444Y0163613D01*
X0375444Y0164330D01*
X0374727Y0165048D01*
X0373292Y0165048D01*
X0372575Y0164330D01*
X0372575Y0160744D02*
X0375444Y0160744D01*
X0375944Y0170544D02*
X0373075Y0170544D01*
X0374509Y0170544D02*
X0374509Y0174848D01*
X0373075Y0173413D01*
X0372575Y0182744D02*
X0375444Y0185613D01*
X0375444Y0186330D01*
X0374727Y0187048D01*
X0373292Y0187048D01*
X0372575Y0186330D01*
X0372575Y0182744D02*
X0375444Y0182744D01*
X0375944Y0192544D02*
X0373075Y0192544D01*
X0374509Y0192544D02*
X0374509Y0196848D01*
X0373075Y0195413D01*
X0372575Y0204744D02*
X0375444Y0207613D01*
X0375444Y0208330D01*
X0374727Y0209048D01*
X0373292Y0209048D01*
X0372575Y0208330D01*
X0372575Y0204744D02*
X0375444Y0204744D01*
X0375944Y0214544D02*
X0373075Y0214544D01*
X0374509Y0214544D02*
X0374509Y0218848D01*
X0373075Y0217413D01*
X0372575Y0226744D02*
X0375444Y0229613D01*
X0375444Y0230330D01*
X0374727Y0231048D01*
X0373292Y0231048D01*
X0372575Y0230330D01*
X0372575Y0226744D02*
X0375444Y0226744D01*
X0375944Y0236544D02*
X0373075Y0236544D01*
X0374509Y0236544D02*
X0374509Y0240848D01*
X0373075Y0239413D01*
D21*
X0073941Y0080100D02*
X0059374Y0080100D01*
D22*
X0057331Y0039100D03*
M02*
