G75*
%MOIN*%
%OFA0B0*%
%FSLAX25Y25*%
%IPPOS*%
%LPD*%
%AMOC8*
5,1,8,0,0,1.08239X$1,22.5*
%
%ADD10C,0.00000*%
%ADD11R,0.07000X0.07000*%
%ADD12C,0.07000*%
%ADD13C,0.24409*%
%ADD14R,0.01378X0.03937*%
%ADD15R,0.19685X0.11811*%
%ADD16R,0.06299X0.07098*%
%ADD17R,0.03543X0.02756*%
%ADD18R,0.02756X0.03543*%
%ADD19R,0.10630X0.10039*%
%ADD20C,0.06000*%
%ADD21R,0.01969X0.05906*%
%ADD22R,0.05906X0.01969*%
%ADD23R,0.05118X0.05906*%
%ADD24R,0.03150X0.03150*%
%ADD25R,0.07098X0.06299*%
%ADD26R,0.05906X0.05118*%
%ADD27R,0.06300X0.05512*%
%ADD28R,0.07500X0.07500*%
%ADD29C,0.07500*%
%ADD30OC8,0.06000*%
%ADD31C,0.00800*%
%ADD32C,0.01950*%
%ADD33C,0.01200*%
%ADD34C,0.01300*%
%ADD35C,0.03000*%
D10*
X0034500Y0035000D02*
X0034500Y0359000D01*
X0341000Y0359000D01*
X0341000Y0138500D01*
X0408516Y0138500D01*
X0408516Y0035000D01*
X0034500Y0035000D01*
D11*
X0116906Y0339437D03*
D12*
X0116906Y0349437D03*
X0126906Y0349437D03*
X0136906Y0349437D03*
X0146906Y0349437D03*
X0156906Y0349437D03*
X0166906Y0349437D03*
X0176906Y0349437D03*
X0186906Y0349437D03*
X0186906Y0339437D03*
X0176906Y0339437D03*
X0166906Y0339437D03*
X0156906Y0339437D03*
X0146906Y0339437D03*
X0136906Y0339437D03*
X0126906Y0339437D03*
X0196906Y0339437D03*
X0206906Y0339437D03*
X0216906Y0339437D03*
X0226906Y0339437D03*
X0236906Y0339437D03*
X0246906Y0339437D03*
X0256906Y0339437D03*
X0266906Y0339437D03*
X0266906Y0349437D03*
X0256906Y0349437D03*
X0246906Y0349437D03*
X0236906Y0349437D03*
X0226906Y0349437D03*
X0216906Y0349437D03*
X0206906Y0349437D03*
X0196906Y0349437D03*
X0276906Y0349437D03*
X0286906Y0349437D03*
X0296906Y0349437D03*
X0306906Y0349437D03*
X0306906Y0339437D03*
X0296906Y0339437D03*
X0286906Y0339437D03*
X0276906Y0339437D03*
D13*
X0326079Y0344437D03*
X0326079Y0151524D03*
X0097732Y0151524D03*
X0097732Y0344437D03*
D14*
X0103839Y0128581D03*
X0106398Y0128581D03*
X0108957Y0128581D03*
X0111516Y0128581D03*
X0114075Y0128581D03*
X0116634Y0128581D03*
X0119193Y0128581D03*
X0121752Y0128581D03*
X0124311Y0128581D03*
X0126870Y0128581D03*
X0129429Y0128581D03*
X0131988Y0128581D03*
X0134547Y0128581D03*
X0137106Y0128581D03*
X0137106Y0104270D03*
X0134547Y0104270D03*
X0131988Y0104270D03*
X0129429Y0104270D03*
X0126870Y0104270D03*
X0124311Y0104270D03*
X0121752Y0104270D03*
X0119193Y0104270D03*
X0116634Y0104270D03*
X0114075Y0104270D03*
X0111516Y0104270D03*
X0108957Y0104270D03*
X0106398Y0104270D03*
X0103839Y0104270D03*
X0231839Y0104270D03*
X0234398Y0104270D03*
X0236957Y0104270D03*
X0239516Y0104270D03*
X0242075Y0104270D03*
X0244634Y0104270D03*
X0247193Y0104270D03*
X0249752Y0104270D03*
X0252311Y0104270D03*
X0254870Y0104270D03*
X0257429Y0104270D03*
X0259988Y0104270D03*
X0262547Y0104270D03*
X0265106Y0104270D03*
X0265106Y0128581D03*
X0262547Y0128581D03*
X0259988Y0128581D03*
X0257429Y0128581D03*
X0254870Y0128581D03*
X0252311Y0128581D03*
X0249752Y0128581D03*
X0247193Y0128581D03*
X0244634Y0128581D03*
X0242075Y0128581D03*
X0239516Y0128581D03*
X0236957Y0128581D03*
X0234398Y0128581D03*
X0231839Y0128581D03*
D15*
X0248472Y0116425D03*
X0120472Y0116425D03*
D16*
X0127669Y0142016D03*
X0138866Y0142016D03*
X0137866Y0083945D03*
X0126669Y0083945D03*
X0114228Y0083945D03*
X0103031Y0083945D03*
X0056098Y0180500D03*
X0044902Y0180500D03*
X0231031Y0083945D03*
X0242228Y0083945D03*
X0254669Y0083945D03*
X0265866Y0083945D03*
X0266866Y0142016D03*
X0255669Y0142016D03*
D17*
X0225866Y0106610D03*
X0225866Y0101492D03*
X0221008Y0101720D03*
X0221008Y0096602D03*
X0233209Y0094295D03*
X0233209Y0099413D03*
X0105209Y0099413D03*
X0105209Y0094295D03*
X0097866Y0101492D03*
X0093008Y0101720D03*
X0093008Y0096602D03*
X0097866Y0106610D03*
D18*
X0135583Y0090835D03*
X0140701Y0090835D03*
X0143535Y0103661D03*
X0143535Y0108740D03*
X0148654Y0108740D03*
X0148654Y0103661D03*
X0142701Y0134142D03*
X0137583Y0134142D03*
X0265583Y0134142D03*
X0270701Y0134142D03*
X0271535Y0108740D03*
X0271535Y0103661D03*
X0276654Y0103661D03*
X0276654Y0108740D03*
X0268701Y0090835D03*
X0263583Y0090835D03*
D19*
X0207744Y0093024D03*
X0207744Y0117984D03*
X0079744Y0117984D03*
X0079744Y0093024D03*
D20*
X0058169Y0097728D02*
X0052169Y0097728D01*
X0052169Y0107728D02*
X0058169Y0107728D01*
X0058000Y0123000D02*
X0052000Y0123000D01*
X0052000Y0133000D02*
X0058000Y0133000D01*
X0058000Y0144500D02*
X0058000Y0150500D01*
X0048000Y0150500D02*
X0048000Y0144500D01*
X0068000Y0144500D02*
X0068000Y0150500D01*
X0078000Y0150500D02*
X0078000Y0144500D01*
X0078000Y0166500D02*
X0078000Y0172500D01*
X0068000Y0172500D02*
X0068000Y0166500D01*
X0058000Y0166500D02*
X0058000Y0172500D01*
X0048000Y0172500D02*
X0048000Y0166500D01*
X0048000Y0188500D02*
X0048000Y0194500D01*
X0058000Y0194500D02*
X0058000Y0188500D01*
X0068000Y0188500D02*
X0068000Y0194500D01*
X0078000Y0194500D02*
X0078000Y0188500D01*
X0078000Y0210500D02*
X0078000Y0216500D01*
X0068000Y0216500D02*
X0068000Y0210500D01*
X0058000Y0210500D02*
X0058000Y0216500D01*
X0048000Y0216500D02*
X0048000Y0210500D01*
X0048000Y0232500D02*
X0048000Y0238500D01*
X0058000Y0238500D02*
X0058000Y0232500D01*
X0068000Y0232500D02*
X0068000Y0238500D01*
X0078000Y0238500D02*
X0078000Y0232500D01*
X0078000Y0254500D02*
X0078000Y0260500D01*
X0068000Y0260500D02*
X0068000Y0254500D01*
X0058000Y0254500D02*
X0058000Y0260500D01*
X0048000Y0260500D02*
X0048000Y0254500D01*
X0048000Y0276500D02*
X0048000Y0282500D01*
X0058000Y0282500D02*
X0058000Y0276500D01*
X0068000Y0276500D02*
X0068000Y0282500D01*
X0078000Y0282500D02*
X0078000Y0276500D01*
X0078000Y0298500D02*
X0078000Y0304500D01*
X0068000Y0304500D02*
X0068000Y0298500D01*
X0058000Y0298500D02*
X0058000Y0304500D01*
X0048000Y0304500D02*
X0048000Y0298500D01*
X0048000Y0320500D02*
X0048000Y0326500D01*
X0058000Y0326500D02*
X0058000Y0320500D01*
X0068000Y0320500D02*
X0068000Y0326500D01*
X0078000Y0326500D02*
X0078000Y0320500D01*
X0078000Y0342500D02*
X0078000Y0348500D01*
X0068000Y0348500D02*
X0068000Y0342500D01*
X0058000Y0342500D02*
X0058000Y0348500D01*
X0048000Y0348500D02*
X0048000Y0342500D01*
X0052169Y0087728D02*
X0058169Y0087728D01*
X0058169Y0077728D02*
X0052169Y0077728D01*
X0050500Y0058000D02*
X0050500Y0052000D01*
X0060500Y0052000D02*
X0060500Y0058000D01*
X0070500Y0058000D02*
X0070500Y0052000D01*
X0080500Y0052000D02*
X0080500Y0058000D01*
X0090500Y0058000D02*
X0090500Y0052000D01*
X0100500Y0052000D02*
X0100500Y0058000D01*
X0113000Y0058000D02*
X0113000Y0052000D01*
X0123000Y0052000D02*
X0123000Y0058000D01*
X0133000Y0058000D02*
X0133000Y0052000D01*
X0143000Y0052000D02*
X0143000Y0058000D01*
X0153000Y0058000D02*
X0153000Y0052000D01*
X0163000Y0052000D02*
X0163000Y0058000D01*
X0175500Y0058000D02*
X0175500Y0052000D01*
X0185500Y0052000D02*
X0185500Y0058000D01*
X0195500Y0058000D02*
X0195500Y0052000D01*
X0205500Y0052000D02*
X0205500Y0058000D01*
X0215500Y0058000D02*
X0215500Y0052000D01*
X0225500Y0052000D02*
X0225500Y0058000D01*
X0238000Y0058000D02*
X0238000Y0052000D01*
X0248000Y0052000D02*
X0248000Y0058000D01*
X0258000Y0058000D02*
X0258000Y0052000D01*
X0268000Y0052000D02*
X0268000Y0058000D01*
X0278000Y0058000D02*
X0278000Y0052000D01*
X0288000Y0052000D02*
X0288000Y0058000D01*
X0338000Y0056000D02*
X0338000Y0050000D01*
X0348000Y0050000D02*
X0348000Y0056000D01*
X0358000Y0056000D02*
X0358000Y0050000D01*
X0368000Y0050000D02*
X0368000Y0056000D01*
X0378000Y0056000D02*
X0378000Y0050000D01*
X0388000Y0050000D02*
X0388000Y0056000D01*
D21*
X0198248Y0199665D03*
X0195098Y0199665D03*
X0191949Y0199665D03*
X0188799Y0199665D03*
X0185650Y0199665D03*
X0182500Y0199665D03*
X0179350Y0199665D03*
X0176201Y0199665D03*
X0173051Y0199665D03*
X0169902Y0199665D03*
X0166752Y0199665D03*
X0166752Y0245335D03*
X0169902Y0245335D03*
X0173051Y0245335D03*
X0176201Y0245335D03*
X0179350Y0245335D03*
X0182500Y0245335D03*
X0185650Y0245335D03*
X0188799Y0245335D03*
X0191949Y0245335D03*
X0195098Y0245335D03*
X0198248Y0245335D03*
D22*
X0205335Y0238248D03*
X0205335Y0235098D03*
X0205335Y0231949D03*
X0205335Y0228799D03*
X0205335Y0225650D03*
X0205335Y0222500D03*
X0205335Y0219350D03*
X0205335Y0216201D03*
X0205335Y0213051D03*
X0205335Y0209902D03*
X0205335Y0206752D03*
X0159665Y0206752D03*
X0159665Y0209902D03*
X0159665Y0213051D03*
X0159665Y0216201D03*
X0159665Y0219350D03*
X0159665Y0222500D03*
X0159665Y0225650D03*
X0159665Y0228799D03*
X0159665Y0231949D03*
X0159665Y0235098D03*
X0159665Y0238248D03*
D23*
X0158240Y0246000D03*
X0150760Y0246000D03*
G36*
X0206249Y0194041D02*
X0202630Y0197660D01*
X0206805Y0201835D01*
X0210424Y0198216D01*
X0206249Y0194041D01*
G37*
G36*
X0211538Y0188751D02*
X0207919Y0192370D01*
X0212094Y0196545D01*
X0215713Y0192926D01*
X0211538Y0188751D01*
G37*
X0056740Y0159000D03*
X0049260Y0159000D03*
X0049740Y0067000D03*
X0042260Y0067000D03*
X0049260Y0290500D03*
X0056740Y0290500D03*
X0388260Y0074500D03*
X0395740Y0074500D03*
D24*
X0328500Y0055453D03*
X0328500Y0049547D03*
X0319000Y0049547D03*
X0319000Y0055453D03*
X0309500Y0055453D03*
X0309500Y0049547D03*
X0127000Y0277047D03*
X0127000Y0282953D03*
X0039500Y0170953D03*
X0039500Y0165047D03*
D25*
X0161000Y0157598D03*
X0161000Y0146402D03*
X0277000Y0150402D03*
X0277000Y0161598D03*
X0309500Y0078598D03*
X0319000Y0078598D03*
X0328500Y0078598D03*
X0328500Y0067402D03*
X0319000Y0067402D03*
X0309500Y0067402D03*
X0379000Y0074902D03*
X0388000Y0083402D03*
X0379000Y0086098D03*
X0388000Y0094598D03*
X0137000Y0312902D03*
X0127000Y0312902D03*
X0127000Y0303098D03*
X0127000Y0291902D03*
X0127000Y0324098D03*
X0137000Y0324098D03*
D26*
X0113000Y0323240D03*
X0113000Y0315760D03*
X0298000Y0051740D03*
X0298000Y0044260D03*
D27*
X0328965Y0103642D03*
X0328965Y0121358D03*
X0362035Y0121358D03*
X0362035Y0103642D03*
D28*
X0266500Y0153500D03*
X0149500Y0146500D03*
X0153500Y0285000D03*
D29*
X0143500Y0285000D03*
X0266500Y0163500D03*
X0149500Y0156500D03*
D30*
X0179500Y0155000D03*
X0179500Y0145000D03*
X0189500Y0145000D03*
X0189500Y0155000D03*
X0199500Y0155000D03*
X0199500Y0145000D03*
D31*
X0194500Y0150000D02*
X0189500Y0155000D01*
X0189500Y0158000D01*
X0187000Y0160500D01*
X0167500Y0160500D01*
X0166402Y0157598D02*
X0161000Y0157598D01*
X0166402Y0157598D02*
X0168000Y0156000D01*
X0168000Y0138500D01*
X0166000Y0136500D01*
X0177500Y0136500D01*
X0179500Y0138500D01*
X0179500Y0155000D01*
X0179500Y0145000D01*
X0177500Y0136500D02*
X0236500Y0136500D01*
X0237500Y0135500D01*
X0239516Y0133484D01*
X0239516Y0128581D01*
X0242075Y0128581D02*
X0242075Y0135925D01*
X0212500Y0165500D01*
X0192000Y0165500D01*
X0176500Y0181000D01*
X0176500Y0199366D01*
X0176201Y0199665D01*
X0179350Y0199665D02*
X0179350Y0183650D01*
X0195500Y0167500D01*
X0214600Y0167500D01*
X0228100Y0154000D01*
X0217500Y0150000D02*
X0194500Y0150000D01*
X0189500Y0145000D02*
X0195500Y0139000D01*
X0223000Y0139000D01*
X0225625Y0134700D02*
X0225625Y0133016D01*
X0227016Y0131625D01*
X0227829Y0131625D01*
X0232309Y0127146D01*
X0232309Y0126032D01*
X0233129Y0125212D01*
X0235667Y0125212D01*
X0235677Y0125223D01*
X0235688Y0125212D01*
X0238226Y0125212D01*
X0238236Y0125223D01*
X0238247Y0125212D01*
X0240785Y0125212D01*
X0240795Y0125223D01*
X0240806Y0125212D01*
X0243344Y0125212D01*
X0243354Y0125223D01*
X0243365Y0125212D01*
X0245903Y0125212D01*
X0245913Y0125223D01*
X0245924Y0125212D01*
X0248462Y0125212D01*
X0248472Y0125223D01*
X0248483Y0125212D01*
X0251021Y0125212D01*
X0251031Y0125223D01*
X0251042Y0125212D01*
X0253580Y0125212D01*
X0253591Y0125223D01*
X0253601Y0125212D01*
X0256139Y0125212D01*
X0256150Y0125223D01*
X0256160Y0125212D01*
X0258698Y0125212D01*
X0258709Y0125223D01*
X0258719Y0125212D01*
X0261257Y0125212D01*
X0261268Y0125223D01*
X0261278Y0125212D01*
X0263816Y0125212D01*
X0263827Y0125223D01*
X0263837Y0125212D01*
X0266375Y0125212D01*
X0267195Y0126032D01*
X0267195Y0126700D01*
X0268254Y0126700D01*
X0274854Y0120101D01*
X0274854Y0111912D01*
X0274696Y0111912D01*
X0274094Y0111311D01*
X0273493Y0111912D01*
X0269578Y0111912D01*
X0268757Y0111092D01*
X0268757Y0106389D01*
X0268945Y0106201D01*
X0268814Y0106070D01*
X0267195Y0106070D01*
X0267195Y0106818D01*
X0266375Y0107638D01*
X0263837Y0107638D01*
X0263827Y0107628D01*
X0263816Y0107638D01*
X0261278Y0107638D01*
X0260458Y0106818D01*
X0260458Y0101721D01*
X0261278Y0100901D01*
X0263816Y0100901D01*
X0263827Y0100912D01*
X0263837Y0100901D01*
X0266375Y0100901D01*
X0267195Y0101721D01*
X0267195Y0102470D01*
X0268757Y0102470D01*
X0268757Y0101310D01*
X0269578Y0100490D01*
X0273493Y0100490D01*
X0274313Y0101310D01*
X0274313Y0105951D01*
X0274696Y0105569D01*
X0278611Y0105569D01*
X0279431Y0106389D01*
X0279431Y0111092D01*
X0278611Y0111912D01*
X0278454Y0111912D01*
X0278454Y0121592D01*
X0270800Y0129246D01*
X0269746Y0130300D01*
X0267195Y0130300D01*
X0267195Y0130970D01*
X0267541Y0130970D01*
X0268361Y0131790D01*
X0268361Y0136493D01*
X0267787Y0137067D01*
X0270596Y0137067D01*
X0271416Y0137887D01*
X0271416Y0138000D01*
X0281200Y0138000D01*
X0281200Y0092746D01*
X0274329Y0085875D01*
X0273516Y0085875D01*
X0272125Y0084484D01*
X0272125Y0082516D01*
X0273516Y0081125D01*
X0274079Y0081125D01*
X0270829Y0077875D01*
X0270016Y0077875D01*
X0268625Y0076484D01*
X0268625Y0074516D01*
X0270016Y0073125D01*
X0271984Y0073125D01*
X0273375Y0074516D01*
X0273375Y0075329D01*
X0275125Y0077079D01*
X0275125Y0076516D01*
X0276516Y0075125D01*
X0278125Y0075125D01*
X0278125Y0073516D01*
X0279516Y0072125D01*
X0281125Y0072125D01*
X0281125Y0070516D01*
X0282516Y0069125D01*
X0284125Y0069125D01*
X0284125Y0067516D01*
X0284641Y0067000D01*
X0278899Y0067000D01*
X0273349Y0072550D01*
X0265349Y0072550D01*
X0262050Y0075849D01*
X0262050Y0086700D01*
X0266246Y0086700D01*
X0267300Y0087754D01*
X0267300Y0094246D01*
X0259800Y0101746D01*
X0259800Y0106246D01*
X0259518Y0106527D01*
X0259518Y0106818D01*
X0258698Y0107638D01*
X0256160Y0107638D01*
X0256150Y0107628D01*
X0256139Y0107638D01*
X0253601Y0107638D01*
X0253591Y0107628D01*
X0253580Y0107638D01*
X0251042Y0107638D01*
X0251031Y0107628D01*
X0251021Y0107638D01*
X0248483Y0107638D01*
X0248472Y0107628D01*
X0248462Y0107638D01*
X0245924Y0107638D01*
X0245913Y0107628D01*
X0245903Y0107638D01*
X0243365Y0107638D01*
X0243354Y0107628D01*
X0243344Y0107638D01*
X0240806Y0107638D01*
X0240795Y0107628D01*
X0240785Y0107638D01*
X0238247Y0107638D01*
X0238236Y0107628D01*
X0238226Y0107638D01*
X0236448Y0107638D01*
X0236448Y0107952D01*
X0234349Y0110050D01*
X0226407Y0110050D01*
X0225745Y0109388D01*
X0223515Y0109388D01*
X0222694Y0108568D01*
X0222694Y0104652D01*
X0223296Y0104051D01*
X0222694Y0103450D01*
X0222694Y0099800D01*
X0201754Y0099800D01*
X0200700Y0098746D01*
X0200700Y0087754D01*
X0201029Y0087425D01*
X0201029Y0087424D01*
X0201849Y0086604D01*
X0213639Y0086604D01*
X0213735Y0086700D01*
X0234450Y0086700D01*
X0234450Y0076849D01*
X0224601Y0067000D01*
X0153899Y0067000D01*
X0147849Y0073050D01*
X0140349Y0073050D01*
X0134050Y0079349D01*
X0134050Y0086700D01*
X0138246Y0086700D01*
X0139300Y0087754D01*
X0139300Y0093790D01*
X0139325Y0093817D01*
X0139300Y0094531D01*
X0139300Y0095246D01*
X0139274Y0095271D01*
X0139273Y0095307D01*
X0138751Y0095795D01*
X0138246Y0096300D01*
X0138209Y0096300D01*
X0133280Y0100901D01*
X0135816Y0100901D01*
X0135827Y0100912D01*
X0135837Y0100901D01*
X0138375Y0100901D01*
X0139195Y0101721D01*
X0139195Y0102470D01*
X0140757Y0102470D01*
X0140757Y0101310D01*
X0141578Y0100490D01*
X0145493Y0100490D01*
X0146313Y0101310D01*
X0146313Y0105951D01*
X0146696Y0105569D01*
X0150611Y0105569D01*
X0151342Y0106299D01*
X0151516Y0106125D01*
X0153484Y0106125D01*
X0154875Y0107516D01*
X0154875Y0109484D01*
X0153484Y0110875D01*
X0151516Y0110875D01*
X0151431Y0110790D01*
X0151431Y0111092D01*
X0150611Y0111912D01*
X0146696Y0111912D01*
X0146094Y0111311D01*
X0145493Y0111912D01*
X0141578Y0111912D01*
X0140757Y0111092D01*
X0140757Y0106389D01*
X0140945Y0106201D01*
X0140814Y0106070D01*
X0139195Y0106070D01*
X0139195Y0106818D01*
X0138375Y0107638D01*
X0135837Y0107638D01*
X0135827Y0107628D01*
X0135816Y0107638D01*
X0133278Y0107638D01*
X0132458Y0106818D01*
X0132458Y0101721D01*
X0133261Y0100919D01*
X0131800Y0102282D01*
X0131800Y0106246D01*
X0131518Y0106527D01*
X0131518Y0106818D01*
X0130698Y0107638D01*
X0128160Y0107638D01*
X0128150Y0107628D01*
X0128139Y0107638D01*
X0125601Y0107638D01*
X0125591Y0107628D01*
X0125580Y0107638D01*
X0123042Y0107638D01*
X0123031Y0107628D01*
X0123021Y0107638D01*
X0120483Y0107638D01*
X0120472Y0107628D01*
X0120462Y0107638D01*
X0117924Y0107638D01*
X0117913Y0107628D01*
X0117903Y0107638D01*
X0115365Y0107638D01*
X0115354Y0107628D01*
X0115344Y0107638D01*
X0114407Y0107638D01*
X0114246Y0107800D01*
X0109754Y0107800D01*
X0109593Y0107638D01*
X0108198Y0107638D01*
X0108198Y0108348D01*
X0107800Y0108746D01*
X0106746Y0109800D01*
X0098510Y0109800D01*
X0098099Y0109388D01*
X0095515Y0109388D01*
X0094694Y0108568D01*
X0094694Y0104652D01*
X0095296Y0104051D01*
X0094694Y0103450D01*
X0094694Y0099534D01*
X0094848Y0099380D01*
X0090656Y0099380D01*
X0090576Y0099300D01*
X0085782Y0099300D01*
X0085639Y0099443D01*
X0073849Y0099443D01*
X0073706Y0099300D01*
X0065802Y0099300D01*
X0065000Y0100191D01*
X0065000Y0132700D01*
X0104598Y0132700D01*
X0104598Y0131418D01*
X0104309Y0131129D01*
X0104309Y0126032D01*
X0105129Y0125212D01*
X0107667Y0125212D01*
X0107677Y0125223D01*
X0107688Y0125212D01*
X0110226Y0125212D01*
X0110236Y0125223D01*
X0110247Y0125212D01*
X0112785Y0125212D01*
X0112795Y0125223D01*
X0112806Y0125212D01*
X0115344Y0125212D01*
X0115354Y0125223D01*
X0115365Y0125212D01*
X0117903Y0125212D01*
X0117913Y0125223D01*
X0117924Y0125212D01*
X0120462Y0125212D01*
X0120472Y0125223D01*
X0120483Y0125212D01*
X0123021Y0125212D01*
X0123031Y0125223D01*
X0123042Y0125212D01*
X0125580Y0125212D01*
X0125591Y0125223D01*
X0125601Y0125212D01*
X0128139Y0125212D01*
X0128150Y0125223D01*
X0128160Y0125212D01*
X0130698Y0125212D01*
X0130709Y0125223D01*
X0130719Y0125212D01*
X0133257Y0125212D01*
X0133268Y0125223D01*
X0133278Y0125212D01*
X0135816Y0125212D01*
X0135827Y0125223D01*
X0135837Y0125212D01*
X0137200Y0125212D01*
X0137200Y0123559D01*
X0136625Y0122984D01*
X0136625Y0121016D01*
X0138016Y0119625D01*
X0139984Y0119625D01*
X0141375Y0121016D01*
X0141375Y0122984D01*
X0140800Y0123559D01*
X0140800Y0127433D01*
X0139195Y0129037D01*
X0139195Y0130970D01*
X0139541Y0130970D01*
X0140361Y0131790D01*
X0140361Y0136493D01*
X0139787Y0137067D01*
X0142596Y0137067D01*
X0143335Y0137806D01*
X0143516Y0137625D01*
X0145484Y0137625D01*
X0145859Y0138000D01*
X0147141Y0138000D01*
X0146625Y0137484D01*
X0146625Y0135516D01*
X0148016Y0134125D01*
X0149984Y0134125D01*
X0150559Y0134700D01*
X0225625Y0134700D01*
X0225625Y0134015D02*
X0140361Y0134015D01*
X0140361Y0133217D02*
X0225625Y0133217D01*
X0226223Y0132418D02*
X0140361Y0132418D01*
X0140190Y0131620D02*
X0227835Y0131620D01*
X0228633Y0130821D02*
X0139195Y0130821D01*
X0139195Y0130023D02*
X0229432Y0130023D01*
X0230230Y0129224D02*
X0139195Y0129224D01*
X0139807Y0128426D02*
X0231029Y0128426D01*
X0231827Y0127627D02*
X0140605Y0127627D01*
X0140800Y0126829D02*
X0232309Y0126829D01*
X0232311Y0126030D02*
X0140800Y0126030D01*
X0140800Y0125232D02*
X0233109Y0125232D01*
X0233419Y0128581D02*
X0228000Y0134000D01*
X0228500Y0139000D02*
X0217500Y0150000D01*
X0210500Y0162500D02*
X0155500Y0162500D01*
X0149500Y0156500D01*
X0143000Y0156500D01*
X0133000Y0146500D01*
X0133000Y0137500D01*
X0131988Y0136488D01*
X0131988Y0128581D01*
X0129429Y0128581D02*
X0129429Y0140256D01*
X0129429Y0148429D01*
X0162500Y0181500D01*
X0161500Y0184500D02*
X0171000Y0184500D01*
X0170000Y0184500D01*
X0169000Y0186500D02*
X0173051Y0190551D01*
X0173051Y0199665D01*
X0169902Y0199665D02*
X0169902Y0195902D01*
X0166500Y0192500D01*
X0160500Y0192500D01*
X0114075Y0146075D01*
X0114075Y0128581D01*
X0116500Y0128715D02*
X0116500Y0145500D01*
X0160500Y0189500D01*
X0167500Y0189500D01*
X0166500Y0189500D01*
X0169000Y0186500D02*
X0160500Y0186500D01*
X0119193Y0145193D01*
X0119193Y0128581D01*
X0121752Y0128581D02*
X0121752Y0144752D01*
X0161500Y0184500D01*
X0166752Y0199665D02*
X0122165Y0199665D01*
X0080500Y0158000D01*
X0072000Y0158000D01*
X0068000Y0154000D01*
X0068000Y0147500D01*
X0070500Y0140000D02*
X0058000Y0140000D01*
X0056500Y0134500D02*
X0112000Y0134500D01*
X0111516Y0132984D01*
X0111516Y0128581D01*
X0108957Y0128581D02*
X0108957Y0136457D01*
X0112000Y0139500D01*
X0112000Y0148500D01*
X0129000Y0165500D01*
X0149500Y0146500D02*
X0160902Y0146500D01*
X0161000Y0146402D01*
X0165000Y0140000D02*
X0144500Y0140000D01*
X0142739Y0137209D02*
X0146625Y0137209D01*
X0146625Y0136411D02*
X0140361Y0136411D01*
X0140361Y0135612D02*
X0146625Y0135612D01*
X0147327Y0134814D02*
X0140361Y0134814D01*
X0137583Y0134142D02*
X0137106Y0133665D01*
X0137106Y0140106D01*
X0139000Y0142000D01*
X0138984Y0142016D01*
X0138866Y0142016D01*
X0137106Y0133665D02*
X0137106Y0128581D01*
X0139000Y0126687D01*
X0139000Y0122000D01*
X0141375Y0122038D02*
X0272917Y0122038D01*
X0273715Y0121239D02*
X0141375Y0121239D01*
X0140799Y0120441D02*
X0274514Y0120441D01*
X0274854Y0119642D02*
X0140001Y0119642D01*
X0137999Y0119642D02*
X0065000Y0119642D01*
X0065000Y0118844D02*
X0274854Y0118844D01*
X0274854Y0118045D02*
X0065000Y0118045D01*
X0065000Y0117247D02*
X0274854Y0117247D01*
X0274854Y0116448D02*
X0065000Y0116448D01*
X0065000Y0115650D02*
X0274854Y0115650D01*
X0274854Y0114851D02*
X0065000Y0114851D01*
X0065000Y0114053D02*
X0274854Y0114053D01*
X0274854Y0113254D02*
X0065000Y0113254D01*
X0065000Y0112456D02*
X0274854Y0112456D01*
X0274441Y0111657D02*
X0273748Y0111657D01*
X0271535Y0108740D02*
X0271535Y0103661D01*
X0270927Y0104270D01*
X0265106Y0104270D01*
X0262547Y0104270D01*
X0260458Y0104470D02*
X0259800Y0104470D01*
X0259800Y0103672D02*
X0260458Y0103672D01*
X0260458Y0102873D02*
X0259800Y0102873D01*
X0259800Y0102075D02*
X0260458Y0102075D01*
X0260269Y0101276D02*
X0260903Y0101276D01*
X0261068Y0100478D02*
X0281200Y0100478D01*
X0281200Y0101276D02*
X0274280Y0101276D01*
X0274313Y0102075D02*
X0281200Y0102075D01*
X0281200Y0102873D02*
X0274313Y0102873D01*
X0274313Y0103672D02*
X0281200Y0103672D01*
X0281200Y0104470D02*
X0274313Y0104470D01*
X0274313Y0105269D02*
X0281200Y0105269D01*
X0281200Y0106068D02*
X0279110Y0106068D01*
X0279431Y0106866D02*
X0281200Y0106866D01*
X0281200Y0107665D02*
X0279431Y0107665D01*
X0279431Y0108463D02*
X0281200Y0108463D01*
X0281200Y0109262D02*
X0279431Y0109262D01*
X0279431Y0110060D02*
X0281200Y0110060D01*
X0281200Y0110859D02*
X0279431Y0110859D01*
X0278866Y0111657D02*
X0281200Y0111657D01*
X0281200Y0112456D02*
X0278454Y0112456D01*
X0278454Y0113254D02*
X0281200Y0113254D01*
X0281200Y0114053D02*
X0278454Y0114053D01*
X0278454Y0114851D02*
X0281200Y0114851D01*
X0281200Y0115650D02*
X0278454Y0115650D01*
X0278454Y0116448D02*
X0281200Y0116448D01*
X0281200Y0117247D02*
X0278454Y0117247D01*
X0278454Y0118045D02*
X0281200Y0118045D01*
X0281200Y0118844D02*
X0278454Y0118844D01*
X0278454Y0119642D02*
X0281200Y0119642D01*
X0281200Y0120441D02*
X0278454Y0120441D01*
X0278454Y0121239D02*
X0281200Y0121239D01*
X0281200Y0122038D02*
X0278008Y0122038D01*
X0277209Y0122836D02*
X0281200Y0122836D01*
X0281200Y0123635D02*
X0276411Y0123635D01*
X0275612Y0124433D02*
X0281200Y0124433D01*
X0281200Y0125232D02*
X0274814Y0125232D01*
X0274015Y0126030D02*
X0281200Y0126030D01*
X0281200Y0126829D02*
X0273217Y0126829D01*
X0272418Y0127627D02*
X0281200Y0127627D01*
X0281200Y0128426D02*
X0271620Y0128426D01*
X0270821Y0129224D02*
X0281200Y0129224D01*
X0281200Y0130023D02*
X0270023Y0130023D01*
X0269000Y0128500D02*
X0265187Y0128500D01*
X0265106Y0128581D01*
X0265106Y0134500D01*
X0265465Y0134142D01*
X0265583Y0134142D01*
X0265106Y0134500D02*
X0265106Y0140256D01*
X0266866Y0142016D01*
X0266866Y0141634D01*
X0267000Y0141500D01*
X0268361Y0136411D02*
X0281200Y0136411D01*
X0281200Y0137209D02*
X0270739Y0137209D01*
X0268361Y0135612D02*
X0281200Y0135612D01*
X0281200Y0134814D02*
X0268361Y0134814D01*
X0268361Y0134015D02*
X0281200Y0134015D01*
X0281200Y0133217D02*
X0268361Y0133217D01*
X0268361Y0132418D02*
X0281200Y0132418D01*
X0281200Y0131620D02*
X0268190Y0131620D01*
X0267195Y0130821D02*
X0281200Y0130821D01*
X0283000Y0133500D02*
X0283000Y0092000D01*
X0274500Y0083500D01*
X0272947Y0085306D02*
X0262050Y0085306D01*
X0262050Y0084508D02*
X0272149Y0084508D01*
X0272125Y0083709D02*
X0262050Y0083709D01*
X0262050Y0082911D02*
X0272125Y0082911D01*
X0272529Y0082112D02*
X0262050Y0082112D01*
X0262050Y0081314D02*
X0273328Y0081314D01*
X0273470Y0080515D02*
X0262050Y0080515D01*
X0262050Y0079717D02*
X0272671Y0079717D01*
X0271873Y0078918D02*
X0262050Y0078918D01*
X0262050Y0078120D02*
X0271074Y0078120D01*
X0269462Y0077321D02*
X0262050Y0077321D01*
X0262050Y0076523D02*
X0268664Y0076523D01*
X0268625Y0075724D02*
X0262175Y0075724D01*
X0262974Y0074926D02*
X0268625Y0074926D01*
X0269014Y0074127D02*
X0263772Y0074127D01*
X0264571Y0073329D02*
X0269813Y0073329D01*
X0272187Y0073329D02*
X0278313Y0073329D01*
X0278125Y0074127D02*
X0272986Y0074127D01*
X0273375Y0074926D02*
X0278125Y0074926D01*
X0275917Y0075724D02*
X0273770Y0075724D01*
X0274568Y0076523D02*
X0275125Y0076523D01*
X0277500Y0077500D02*
X0287000Y0087000D01*
X0287000Y0170000D01*
X0221902Y0235098D01*
X0205335Y0235098D01*
X0205335Y0231949D02*
X0221551Y0231949D01*
X0285000Y0168500D01*
X0285000Y0089500D01*
X0271000Y0075500D01*
X0273369Y0072530D02*
X0279111Y0072530D01*
X0281125Y0071732D02*
X0274168Y0071732D01*
X0274966Y0070933D02*
X0281125Y0070933D01*
X0281507Y0070134D02*
X0275765Y0070134D01*
X0276563Y0069336D02*
X0282305Y0069336D01*
X0284125Y0068537D02*
X0277362Y0068537D01*
X0278160Y0067739D02*
X0284125Y0067739D01*
X0286500Y0068500D02*
X0293000Y0075000D01*
X0293000Y0173500D01*
X0215000Y0251500D01*
X0196000Y0251500D01*
X0195098Y0250598D01*
X0195098Y0245335D01*
X0191949Y0245335D02*
X0191949Y0251449D01*
X0192500Y0252000D01*
X0188799Y0250201D02*
X0188799Y0245335D01*
X0185650Y0245335D02*
X0185500Y0245185D01*
X0185500Y0236000D01*
X0176201Y0245335D02*
X0176201Y0253201D01*
X0178000Y0255000D01*
X0214500Y0255000D01*
X0295000Y0174500D01*
X0295000Y0071000D01*
X0289500Y0065500D01*
X0293000Y0062500D02*
X0297000Y0066500D01*
X0297000Y0175500D01*
X0215500Y0257000D01*
X0176500Y0257000D01*
X0173051Y0253551D01*
X0173051Y0245335D01*
X0170000Y0245433D02*
X0170000Y0268500D01*
X0153500Y0285000D01*
X0145500Y0293000D01*
X0145500Y0322000D01*
X0142000Y0325500D01*
X0142000Y0343000D01*
X0140500Y0344500D01*
X0129500Y0344500D01*
X0127000Y0342000D01*
X0127000Y0324098D01*
X0126906Y0324193D01*
X0126906Y0339437D01*
X0136906Y0339437D02*
X0136906Y0324193D01*
X0137000Y0324098D01*
X0141402Y0324098D01*
X0143500Y0322000D01*
X0143500Y0285000D01*
X0143500Y0242500D01*
X0150902Y0235098D01*
X0159665Y0235098D01*
X0159665Y0231949D02*
X0151051Y0231949D01*
X0099500Y0283500D01*
X0099500Y0314000D01*
X0068000Y0345500D01*
X0070000Y0353500D02*
X0062500Y0353500D01*
X0058000Y0349000D01*
X0058000Y0345500D01*
X0070000Y0353500D02*
X0078000Y0345500D01*
X0070000Y0331500D02*
X0062000Y0331500D01*
X0058000Y0327500D01*
X0058000Y0323500D01*
X0068000Y0323500D02*
X0097000Y0294500D01*
X0097000Y0282000D01*
X0150201Y0228799D01*
X0159665Y0228799D01*
X0159665Y0225650D02*
X0147000Y0225650D01*
X0145350Y0225650D01*
X0143850Y0225650D01*
X0068000Y0301500D01*
X0070500Y0309000D02*
X0061500Y0309000D01*
X0058000Y0305500D01*
X0058000Y0301500D01*
X0058000Y0290500D02*
X0056740Y0290500D01*
X0049260Y0290500D02*
X0044000Y0290500D01*
X0058000Y0279500D02*
X0058500Y0279500D01*
X0066000Y0287000D01*
X0070500Y0287000D01*
X0078000Y0279500D01*
X0068000Y0279500D02*
X0125000Y0222500D01*
X0129000Y0222500D01*
X0131500Y0222500D01*
X0159665Y0222500D01*
X0159665Y0219350D02*
X0106150Y0219350D01*
X0068000Y0257500D01*
X0066000Y0265000D02*
X0070500Y0265000D01*
X0078000Y0257500D01*
X0066000Y0265000D02*
X0058500Y0257500D01*
X0058000Y0257500D01*
X0064000Y0243000D02*
X0070500Y0243000D01*
X0078000Y0235500D01*
X0068000Y0235500D02*
X0087299Y0216201D01*
X0159665Y0216201D01*
X0159665Y0213051D02*
X0087051Y0213051D01*
X0079500Y0205500D01*
X0076000Y0205500D01*
X0068000Y0213500D01*
X0066000Y0221000D02*
X0070500Y0221000D01*
X0078000Y0213500D01*
X0086402Y0209902D02*
X0068000Y0191500D01*
X0066000Y0184000D02*
X0070500Y0184000D01*
X0078000Y0191500D01*
X0066000Y0184000D02*
X0058500Y0191500D01*
X0058000Y0191500D01*
X0056098Y0180500D02*
X0056598Y0180000D01*
X0058000Y0180000D01*
X0058000Y0169500D02*
X0058500Y0169500D01*
X0066000Y0162000D01*
X0070500Y0162000D01*
X0078000Y0169500D01*
X0068000Y0169500D02*
X0068000Y0176500D01*
X0071000Y0179500D01*
X0082000Y0179500D01*
X0109252Y0206752D01*
X0159665Y0206752D01*
X0159665Y0209902D02*
X0086402Y0209902D01*
X0066000Y0221000D02*
X0058500Y0213500D01*
X0058000Y0213500D01*
X0058000Y0235500D02*
X0058000Y0237000D01*
X0064000Y0243000D01*
X0078000Y0301500D02*
X0070500Y0309000D01*
X0078000Y0323500D02*
X0070000Y0331500D01*
X0113000Y0335531D02*
X0113000Y0323240D01*
X0113240Y0323000D01*
X0118000Y0323000D01*
X0119500Y0321500D01*
X0119500Y0314500D01*
X0121098Y0312902D01*
X0127000Y0312902D01*
X0127000Y0303098D01*
X0127000Y0312902D02*
X0137000Y0312902D01*
X0127000Y0291902D02*
X0127000Y0282953D01*
X0127000Y0277047D02*
X0126500Y0276547D01*
X0126500Y0272500D01*
X0150260Y0246500D02*
X0150260Y0241240D01*
X0152500Y0239000D01*
X0169902Y0245335D02*
X0170000Y0245433D01*
X0182500Y0261500D02*
X0186000Y0265000D01*
X0220500Y0265000D01*
X0290500Y0195000D01*
X0303000Y0182500D01*
X0303000Y0091000D01*
X0306500Y0087500D01*
X0319598Y0087500D01*
X0328500Y0078598D01*
X0319000Y0078598D02*
X0319000Y0082500D01*
X0316000Y0085500D01*
X0305500Y0085500D01*
X0301000Y0090000D01*
X0301000Y0180000D01*
X0297000Y0184000D01*
X0218000Y0263000D01*
X0189500Y0263000D01*
X0187000Y0260500D01*
X0193000Y0260000D02*
X0215500Y0260000D01*
X0299000Y0176500D01*
X0299000Y0089000D01*
X0309402Y0078598D01*
X0309500Y0078598D01*
X0309500Y0067402D02*
X0309500Y0055453D01*
X0309500Y0049547D02*
X0305547Y0049547D01*
X0305500Y0049500D01*
X0303260Y0051740D01*
X0298000Y0051740D01*
X0298000Y0044260D02*
X0296760Y0044260D01*
X0296000Y0043500D01*
X0309500Y0049547D02*
X0319000Y0049547D01*
X0328500Y0049547D01*
X0328500Y0055453D02*
X0328500Y0067402D01*
X0319000Y0067402D02*
X0319000Y0055453D01*
X0348000Y0053000D02*
X0348000Y0073500D01*
X0332000Y0089500D01*
X0308000Y0089500D01*
X0305000Y0092500D01*
X0305000Y0190000D01*
X0275500Y0219500D01*
X0277000Y0224000D02*
X0270500Y0224000D01*
X0266000Y0228500D02*
X0275500Y0228500D01*
X0309000Y0195000D01*
X0309000Y0097500D01*
X0311902Y0094598D01*
X0388000Y0094598D01*
X0379000Y0086098D02*
X0378902Y0086000D01*
X0373000Y0086000D01*
X0372000Y0085000D01*
X0372000Y0068000D01*
X0378000Y0062000D01*
X0378000Y0053000D01*
X0388000Y0053000D02*
X0399500Y0053000D01*
X0406500Y0060000D01*
X0406500Y0095500D01*
X0398358Y0103642D01*
X0362035Y0103642D01*
X0328965Y0103642D01*
X0333500Y0091500D02*
X0310000Y0091500D01*
X0307000Y0094500D01*
X0307000Y0194000D01*
X0277000Y0224000D01*
X0255669Y0178831D02*
X0218500Y0216000D01*
X0205535Y0216000D01*
X0205335Y0216201D01*
X0205335Y0219350D02*
X0220150Y0219350D01*
X0225000Y0214500D01*
X0226000Y0214500D01*
X0224000Y0220000D02*
X0221500Y0222500D01*
X0205335Y0222500D01*
X0205484Y0225500D02*
X0205335Y0225650D01*
X0205484Y0225500D02*
X0216500Y0225500D01*
X0219701Y0228799D02*
X0283000Y0165500D01*
X0283000Y0141000D01*
X0283000Y0133500D01*
X0276000Y0142000D02*
X0277000Y0143000D01*
X0277000Y0150402D01*
X0266500Y0153500D02*
X0274598Y0161598D01*
X0277000Y0161598D01*
X0289000Y0171500D02*
X0222252Y0238248D01*
X0205335Y0238248D01*
X0205335Y0228799D02*
X0219701Y0228799D01*
X0213500Y0213000D02*
X0205386Y0213000D01*
X0205335Y0213051D01*
X0213500Y0213000D02*
X0224500Y0202000D01*
X0224500Y0186000D01*
X0220000Y0181500D01*
X0218000Y0181500D01*
X0198248Y0196752D02*
X0198248Y0199665D01*
X0195500Y0199264D02*
X0195098Y0199665D01*
X0195000Y0199567D01*
X0195500Y0199264D02*
X0195500Y0197500D01*
X0195000Y0197000D01*
X0195000Y0191500D01*
X0244634Y0141866D01*
X0244634Y0128581D01*
X0247193Y0128581D02*
X0247193Y0143307D01*
X0241000Y0149500D01*
X0249752Y0145248D02*
X0198248Y0196752D01*
X0192000Y0199614D02*
X0192000Y0189500D01*
X0188500Y0192500D02*
X0188500Y0199366D01*
X0188799Y0199665D01*
X0191949Y0199665D02*
X0192000Y0199614D01*
X0179500Y0199516D02*
X0179500Y0196500D01*
X0179500Y0199516D02*
X0179350Y0199665D01*
X0198248Y0245335D02*
X0218165Y0245335D01*
X0291000Y0172500D01*
X0291000Y0079000D01*
X0283500Y0071500D01*
X0280500Y0074500D02*
X0289000Y0083000D01*
X0289000Y0171500D01*
X0266500Y0163500D02*
X0262500Y0163500D01*
X0260500Y0161500D01*
X0260500Y0149000D01*
X0261500Y0148000D01*
X0261500Y0137500D01*
X0259988Y0135988D01*
X0259988Y0128581D01*
X0257429Y0128581D02*
X0257429Y0140256D01*
X0255669Y0142016D01*
X0255669Y0178831D01*
X0252500Y0177500D02*
X0237500Y0162500D01*
X0249752Y0145248D02*
X0249752Y0128581D01*
X0236957Y0128581D02*
X0236957Y0130543D01*
X0233500Y0134000D01*
X0233419Y0128581D02*
X0234398Y0128581D01*
X0235138Y0109262D02*
X0268757Y0109262D01*
X0268757Y0110060D02*
X0154299Y0110060D01*
X0154875Y0109262D02*
X0223388Y0109262D01*
X0222694Y0108463D02*
X0154875Y0108463D01*
X0154875Y0107665D02*
X0222694Y0107665D01*
X0222694Y0106866D02*
X0154225Y0106866D01*
X0152500Y0108500D02*
X0148894Y0108500D01*
X0148654Y0108740D01*
X0151431Y0110859D02*
X0151500Y0110859D01*
X0150866Y0111657D02*
X0269323Y0111657D01*
X0268757Y0110859D02*
X0153500Y0110859D01*
X0146441Y0111657D02*
X0145748Y0111657D01*
X0143535Y0108740D02*
X0143535Y0103661D01*
X0142927Y0104270D01*
X0137106Y0104270D01*
X0134547Y0104270D01*
X0132458Y0104470D02*
X0131800Y0104470D01*
X0131988Y0104270D02*
X0131988Y0108988D01*
X0132000Y0109000D01*
X0132506Y0106866D02*
X0131470Y0106866D01*
X0131800Y0106068D02*
X0132458Y0106068D01*
X0132458Y0105269D02*
X0131800Y0105269D01*
X0131800Y0103672D02*
X0132458Y0103672D01*
X0132458Y0102873D02*
X0131800Y0102873D01*
X0132022Y0102075D02*
X0132458Y0102075D01*
X0132878Y0101276D02*
X0132903Y0101276D01*
X0133733Y0100478D02*
X0222694Y0100478D01*
X0222694Y0101276D02*
X0146280Y0101276D01*
X0146313Y0102075D02*
X0222694Y0102075D01*
X0222694Y0102873D02*
X0146313Y0102873D01*
X0146313Y0103672D02*
X0222916Y0103672D01*
X0222876Y0104470D02*
X0146313Y0104470D01*
X0146313Y0105269D02*
X0222694Y0105269D01*
X0222694Y0106068D02*
X0151110Y0106068D01*
X0140757Y0106866D02*
X0139147Y0106866D01*
X0140757Y0107665D02*
X0114381Y0107665D01*
X0111986Y0106000D02*
X0111986Y0101721D01*
X0112025Y0101682D01*
X0112025Y0094924D01*
X0107651Y0090550D01*
X0106450Y0089349D01*
X0106450Y0088894D01*
X0099302Y0088894D01*
X0098482Y0088074D01*
X0098482Y0088000D01*
X0065000Y0088000D01*
X0060000Y0083000D01*
X0047000Y0083000D01*
X0047000Y0102500D01*
X0060500Y0102500D01*
X0065000Y0097500D01*
X0067500Y0097500D01*
X0067500Y0088000D01*
X0065000Y0088000D01*
X0065000Y0097500D01*
X0102037Y0097500D01*
X0102037Y0097456D01*
X0102857Y0096635D01*
X0107560Y0096635D01*
X0108380Y0097456D01*
X0108380Y0097835D01*
X0109300Y0098754D01*
X0110757Y0100211D01*
X0110757Y0101432D01*
X0111046Y0101721D01*
X0111046Y0106000D01*
X0111986Y0106000D01*
X0111986Y0105269D02*
X0111046Y0105269D01*
X0111046Y0104470D02*
X0111986Y0104470D01*
X0111986Y0103672D02*
X0111046Y0103672D01*
X0111046Y0102873D02*
X0111986Y0102873D01*
X0111986Y0102075D02*
X0111046Y0102075D01*
X0110757Y0101276D02*
X0112025Y0101276D01*
X0112025Y0100478D02*
X0110757Y0100478D01*
X0110225Y0099679D02*
X0112025Y0099679D01*
X0112025Y0098881D02*
X0109426Y0098881D01*
X0108628Y0098082D02*
X0112025Y0098082D01*
X0112025Y0097284D02*
X0108209Y0097284D01*
X0107500Y0099500D02*
X0105295Y0099500D01*
X0105209Y0099413D01*
X0107500Y0099500D02*
X0108957Y0100957D01*
X0108957Y0104270D01*
X0106398Y0104270D02*
X0106398Y0107602D01*
X0106000Y0108000D01*
X0099256Y0108000D01*
X0097866Y0106610D01*
X0094694Y0106866D02*
X0065000Y0106866D01*
X0065000Y0106068D02*
X0094694Y0106068D01*
X0094694Y0105269D02*
X0065000Y0105269D01*
X0065000Y0104470D02*
X0094876Y0104470D01*
X0094916Y0103672D02*
X0065000Y0103672D01*
X0065000Y0102873D02*
X0094694Y0102873D01*
X0094694Y0102075D02*
X0065000Y0102075D01*
X0065000Y0101276D02*
X0094694Y0101276D01*
X0094694Y0100478D02*
X0065000Y0100478D01*
X0065460Y0099679D02*
X0094694Y0099679D01*
X0097866Y0101492D02*
X0101061Y0101492D01*
X0103839Y0104270D01*
X0108198Y0107665D02*
X0109619Y0107665D01*
X0108083Y0108463D02*
X0140757Y0108463D01*
X0140757Y0109262D02*
X0107284Y0109262D01*
X0095388Y0109262D02*
X0065000Y0109262D01*
X0065000Y0110060D02*
X0140757Y0110060D01*
X0140757Y0110859D02*
X0065000Y0110859D01*
X0065000Y0111657D02*
X0141323Y0111657D01*
X0140757Y0102075D02*
X0139195Y0102075D01*
X0138750Y0101276D02*
X0140791Y0101276D01*
X0137155Y0097284D02*
X0200700Y0097284D01*
X0200700Y0098082D02*
X0136300Y0098082D01*
X0135444Y0098881D02*
X0200835Y0098881D01*
X0201634Y0099679D02*
X0134589Y0099679D01*
X0133662Y0098082D02*
X0128920Y0098082D01*
X0128920Y0097284D02*
X0134517Y0097284D01*
X0135373Y0096485D02*
X0128920Y0096485D01*
X0128920Y0095687D02*
X0136228Y0095687D01*
X0137084Y0094888D02*
X0129011Y0094888D01*
X0128920Y0094979D02*
X0128920Y0101682D01*
X0128959Y0101721D01*
X0128959Y0105500D01*
X0129899Y0105500D01*
X0129899Y0101721D01*
X0130000Y0101620D01*
X0130000Y0101500D01*
X0137500Y0094500D01*
X0137500Y0088894D01*
X0134137Y0088894D01*
X0134050Y0088807D01*
X0134050Y0089849D01*
X0132849Y0091050D01*
X0128920Y0094979D01*
X0129809Y0094090D02*
X0137500Y0094090D01*
X0137500Y0093291D02*
X0130608Y0093291D01*
X0131406Y0092493D02*
X0137500Y0092493D01*
X0137500Y0091694D02*
X0132205Y0091694D01*
X0133003Y0090896D02*
X0137500Y0090896D01*
X0137500Y0090097D02*
X0133802Y0090097D01*
X0134050Y0089299D02*
X0137500Y0089299D01*
X0139300Y0089299D02*
X0200700Y0089299D01*
X0200700Y0090097D02*
X0139300Y0090097D01*
X0139300Y0090896D02*
X0200700Y0090896D01*
X0200700Y0091694D02*
X0139300Y0091694D01*
X0139300Y0092493D02*
X0200700Y0092493D01*
X0200700Y0093291D02*
X0139300Y0093291D01*
X0139315Y0094090D02*
X0200700Y0094090D01*
X0200700Y0094888D02*
X0139300Y0094888D01*
X0138866Y0095687D02*
X0200700Y0095687D01*
X0200700Y0096485D02*
X0138011Y0096485D01*
X0132806Y0098881D02*
X0128920Y0098881D01*
X0128920Y0099679D02*
X0131951Y0099679D01*
X0131095Y0100478D02*
X0128920Y0100478D01*
X0128920Y0101276D02*
X0130240Y0101276D01*
X0129899Y0102075D02*
X0128959Y0102075D01*
X0128959Y0102873D02*
X0129899Y0102873D01*
X0129899Y0103672D02*
X0128959Y0103672D01*
X0128959Y0104470D02*
X0129899Y0104470D01*
X0129899Y0105269D02*
X0128959Y0105269D01*
X0141000Y0091500D02*
X0140701Y0091201D01*
X0140701Y0090835D01*
X0139300Y0088500D02*
X0200700Y0088500D01*
X0200753Y0087702D02*
X0139247Y0087702D01*
X0138449Y0086903D02*
X0201550Y0086903D01*
X0202500Y0088500D02*
X0202500Y0098000D01*
X0230037Y0098000D01*
X0230037Y0097456D01*
X0230857Y0096635D01*
X0235560Y0096635D01*
X0236380Y0097456D01*
X0236380Y0097981D01*
X0237050Y0098651D01*
X0239007Y0100608D01*
X0239007Y0101682D01*
X0239046Y0101721D01*
X0239046Y0105500D01*
X0239986Y0105500D01*
X0239986Y0101721D01*
X0240025Y0101682D01*
X0240025Y0093924D01*
X0235651Y0089550D01*
X0234878Y0088777D01*
X0234761Y0088894D01*
X0227302Y0088894D01*
X0226908Y0088500D01*
X0202500Y0088500D01*
X0226908Y0088500D01*
X0234450Y0086105D02*
X0134050Y0086105D01*
X0134050Y0085306D02*
X0234450Y0085306D01*
X0234450Y0084508D02*
X0134050Y0084508D01*
X0134050Y0083709D02*
X0234450Y0083709D01*
X0234450Y0082911D02*
X0134050Y0082911D01*
X0134050Y0082112D02*
X0234450Y0082112D01*
X0234450Y0081314D02*
X0134050Y0081314D01*
X0134050Y0080515D02*
X0234450Y0080515D01*
X0234450Y0079717D02*
X0134050Y0079717D01*
X0134481Y0078918D02*
X0234450Y0078918D01*
X0234450Y0078120D02*
X0135280Y0078120D01*
X0136078Y0077321D02*
X0234450Y0077321D01*
X0234123Y0076523D02*
X0136877Y0076523D01*
X0137675Y0075724D02*
X0233325Y0075724D01*
X0232526Y0074926D02*
X0138474Y0074926D01*
X0139272Y0074127D02*
X0231728Y0074127D01*
X0230929Y0073329D02*
X0140071Y0073329D01*
X0148369Y0072530D02*
X0230131Y0072530D01*
X0229332Y0071732D02*
X0149168Y0071732D01*
X0149966Y0070933D02*
X0228534Y0070933D01*
X0227735Y0070134D02*
X0150765Y0070134D01*
X0151563Y0069336D02*
X0226937Y0069336D01*
X0226138Y0068537D02*
X0152362Y0068537D01*
X0153160Y0067739D02*
X0225340Y0067739D01*
X0235400Y0089299D02*
X0202500Y0089299D01*
X0202500Y0090097D02*
X0236198Y0090097D01*
X0236997Y0090896D02*
X0202500Y0090896D01*
X0202500Y0091694D02*
X0237795Y0091694D01*
X0238594Y0092493D02*
X0202500Y0092493D01*
X0202500Y0093291D02*
X0239392Y0093291D01*
X0240025Y0094090D02*
X0202500Y0094090D01*
X0202500Y0094888D02*
X0240025Y0094888D01*
X0240025Y0095687D02*
X0202500Y0095687D01*
X0202500Y0096485D02*
X0240025Y0096485D01*
X0240025Y0097284D02*
X0236209Y0097284D01*
X0236482Y0098082D02*
X0240025Y0098082D01*
X0240025Y0098881D02*
X0237280Y0098881D01*
X0238079Y0099679D02*
X0240025Y0099679D01*
X0240025Y0100478D02*
X0238877Y0100478D01*
X0239007Y0101276D02*
X0240025Y0101276D01*
X0239986Y0102075D02*
X0239046Y0102075D01*
X0239046Y0102873D02*
X0239986Y0102873D01*
X0239986Y0103672D02*
X0239046Y0103672D01*
X0239046Y0104470D02*
X0239986Y0104470D01*
X0239986Y0105269D02*
X0239046Y0105269D01*
X0236448Y0107665D02*
X0268757Y0107665D01*
X0268757Y0108463D02*
X0235936Y0108463D01*
X0230209Y0097284D02*
X0202500Y0097284D01*
X0166000Y0136500D02*
X0149000Y0136500D01*
X0140800Y0124433D02*
X0270521Y0124433D01*
X0271320Y0123635D02*
X0140800Y0123635D01*
X0141375Y0122836D02*
X0272118Y0122836D01*
X0269723Y0125232D02*
X0266395Y0125232D01*
X0267193Y0126030D02*
X0268924Y0126030D01*
X0269000Y0128500D02*
X0276654Y0120846D01*
X0276654Y0108740D01*
X0268757Y0106866D02*
X0267147Y0106866D01*
X0267195Y0102075D02*
X0268757Y0102075D01*
X0268791Y0101276D02*
X0266750Y0101276D01*
X0263463Y0098082D02*
X0281200Y0098082D01*
X0281200Y0097284D02*
X0264262Y0097284D01*
X0265060Y0096485D02*
X0281200Y0096485D01*
X0281200Y0095687D02*
X0265859Y0095687D01*
X0266657Y0094888D02*
X0281200Y0094888D01*
X0281200Y0094090D02*
X0267300Y0094090D01*
X0267300Y0093291D02*
X0281200Y0093291D01*
X0280947Y0092493D02*
X0267300Y0092493D01*
X0267300Y0091694D02*
X0280149Y0091694D01*
X0279350Y0090896D02*
X0267300Y0090896D01*
X0267300Y0090097D02*
X0278552Y0090097D01*
X0277753Y0089299D02*
X0267300Y0089299D01*
X0267300Y0088500D02*
X0276955Y0088500D01*
X0276156Y0087702D02*
X0267247Y0087702D01*
X0266449Y0086903D02*
X0275358Y0086903D01*
X0274559Y0086105D02*
X0262050Y0086105D01*
X0261821Y0088578D02*
X0260849Y0089550D01*
X0256920Y0093479D01*
X0256920Y0101682D01*
X0256959Y0101721D01*
X0256959Y0105500D01*
X0257899Y0105500D01*
X0257899Y0101721D01*
X0258000Y0101620D01*
X0258000Y0101000D01*
X0265500Y0093500D01*
X0265500Y0088894D01*
X0262137Y0088894D01*
X0261821Y0088578D01*
X0261100Y0089299D02*
X0265500Y0089299D01*
X0265500Y0090097D02*
X0260302Y0090097D01*
X0259503Y0090896D02*
X0265500Y0090896D01*
X0265500Y0091694D02*
X0258705Y0091694D01*
X0257906Y0092493D02*
X0265500Y0092493D01*
X0265500Y0093291D02*
X0257108Y0093291D01*
X0256920Y0094090D02*
X0264910Y0094090D01*
X0264112Y0094888D02*
X0256920Y0094888D01*
X0256920Y0095687D02*
X0263313Y0095687D01*
X0262515Y0096485D02*
X0256920Y0096485D01*
X0256920Y0097284D02*
X0261716Y0097284D01*
X0260918Y0098082D02*
X0256920Y0098082D01*
X0256920Y0098881D02*
X0260119Y0098881D01*
X0259321Y0099679D02*
X0256920Y0099679D01*
X0256920Y0100478D02*
X0258522Y0100478D01*
X0258000Y0101276D02*
X0256920Y0101276D01*
X0256959Y0102075D02*
X0257899Y0102075D01*
X0257899Y0102873D02*
X0256959Y0102873D01*
X0256959Y0103672D02*
X0257899Y0103672D01*
X0257899Y0104470D02*
X0256959Y0104470D01*
X0256959Y0105269D02*
X0257899Y0105269D01*
X0259800Y0105269D02*
X0260458Y0105269D01*
X0260458Y0106068D02*
X0259800Y0106068D01*
X0259470Y0106866D02*
X0260506Y0106866D01*
X0261866Y0099679D02*
X0281200Y0099679D01*
X0281200Y0098881D02*
X0262665Y0098881D01*
X0333500Y0091500D02*
X0358000Y0067000D01*
X0358000Y0053000D01*
X0379000Y0074902D02*
X0387858Y0074902D01*
X0388260Y0074500D01*
X0388260Y0083142D01*
X0388000Y0083402D01*
X0388260Y0074500D02*
X0388000Y0074240D01*
X0388000Y0053000D01*
X0395740Y0074500D02*
X0403000Y0074500D01*
X0188799Y0250201D02*
X0187500Y0251500D01*
X0113000Y0309500D02*
X0112500Y0309000D01*
X0113000Y0309500D02*
X0113000Y0315760D01*
X0113000Y0335531D02*
X0116906Y0339437D01*
X0044902Y0180500D02*
X0039500Y0175098D01*
X0039500Y0170953D01*
X0039500Y0165047D02*
X0039500Y0163500D01*
X0044000Y0159000D01*
X0049260Y0159000D01*
X0056740Y0159000D02*
X0058000Y0159000D01*
X0070500Y0140000D02*
X0078000Y0147500D01*
X0065000Y0132418D02*
X0104598Y0132418D01*
X0104598Y0131620D02*
X0065000Y0131620D01*
X0065000Y0130821D02*
X0104309Y0130821D01*
X0104309Y0130023D02*
X0065000Y0130023D01*
X0065000Y0129224D02*
X0104309Y0129224D01*
X0104309Y0128426D02*
X0065000Y0128426D01*
X0065000Y0127627D02*
X0104309Y0127627D01*
X0104309Y0126829D02*
X0065000Y0126829D01*
X0065000Y0126030D02*
X0104311Y0126030D01*
X0105109Y0125232D02*
X0065000Y0125232D01*
X0065000Y0124433D02*
X0137200Y0124433D01*
X0137200Y0123635D02*
X0065000Y0123635D01*
X0065000Y0122836D02*
X0136625Y0122836D01*
X0136625Y0122038D02*
X0065000Y0122038D01*
X0065000Y0121239D02*
X0136625Y0121239D01*
X0137201Y0120441D02*
X0065000Y0120441D01*
X0065000Y0108463D02*
X0094694Y0108463D01*
X0094694Y0107665D02*
X0065000Y0107665D01*
X0060883Y0102075D02*
X0047000Y0102075D01*
X0047000Y0101276D02*
X0061601Y0101276D01*
X0062320Y0100478D02*
X0047000Y0100478D01*
X0047000Y0099679D02*
X0063039Y0099679D01*
X0063757Y0098881D02*
X0047000Y0098881D01*
X0047000Y0098082D02*
X0064476Y0098082D01*
X0065000Y0097284D02*
X0102209Y0097284D01*
X0107198Y0090097D02*
X0065000Y0090097D01*
X0065000Y0089299D02*
X0106450Y0089299D01*
X0107997Y0090896D02*
X0065000Y0090896D01*
X0065000Y0091694D02*
X0108795Y0091694D01*
X0109594Y0092493D02*
X0065000Y0092493D01*
X0065000Y0093291D02*
X0110392Y0093291D01*
X0111191Y0094090D02*
X0065000Y0094090D01*
X0065000Y0094888D02*
X0111989Y0094888D01*
X0112025Y0095687D02*
X0065000Y0095687D01*
X0065000Y0096485D02*
X0112025Y0096485D01*
X0106450Y0086200D02*
X0106450Y0073849D01*
X0099601Y0067000D01*
X0065000Y0067000D01*
X0065000Y0085454D01*
X0065746Y0086200D01*
X0106450Y0086200D01*
X0106450Y0086105D02*
X0065650Y0086105D01*
X0065000Y0085306D02*
X0106450Y0085306D01*
X0106450Y0084508D02*
X0065000Y0084508D01*
X0065000Y0083709D02*
X0106450Y0083709D01*
X0106450Y0082911D02*
X0065000Y0082911D01*
X0065000Y0082112D02*
X0106450Y0082112D01*
X0106450Y0081314D02*
X0065000Y0081314D01*
X0065000Y0080515D02*
X0106450Y0080515D01*
X0106450Y0079717D02*
X0065000Y0079717D01*
X0065000Y0078918D02*
X0106450Y0078918D01*
X0106450Y0078120D02*
X0065000Y0078120D01*
X0065000Y0077321D02*
X0106450Y0077321D01*
X0106450Y0076523D02*
X0065000Y0076523D01*
X0065000Y0075724D02*
X0106450Y0075724D01*
X0106450Y0074926D02*
X0065000Y0074926D01*
X0065000Y0074127D02*
X0106450Y0074127D01*
X0105929Y0073329D02*
X0065000Y0073329D01*
X0065000Y0072530D02*
X0105131Y0072530D01*
X0104332Y0071732D02*
X0065000Y0071732D01*
X0065000Y0070933D02*
X0103534Y0070933D01*
X0102735Y0070134D02*
X0065000Y0070134D01*
X0065000Y0069336D02*
X0101937Y0069336D01*
X0101138Y0068537D02*
X0065000Y0068537D01*
X0065000Y0067739D02*
X0100340Y0067739D01*
X0098908Y0088500D02*
X0065000Y0088500D01*
X0064702Y0087702D02*
X0047000Y0087702D01*
X0047000Y0088500D02*
X0067500Y0088500D01*
X0067500Y0089299D02*
X0047000Y0089299D01*
X0047000Y0090097D02*
X0067500Y0090097D01*
X0067500Y0090896D02*
X0047000Y0090896D01*
X0047000Y0091694D02*
X0067500Y0091694D01*
X0067500Y0092493D02*
X0047000Y0092493D01*
X0047000Y0093291D02*
X0067500Y0093291D01*
X0067500Y0094090D02*
X0047000Y0094090D01*
X0047000Y0094888D02*
X0067500Y0094888D01*
X0067500Y0095687D02*
X0047000Y0095687D01*
X0047000Y0096485D02*
X0067500Y0096485D01*
X0067500Y0097284D02*
X0047000Y0097284D01*
X0047000Y0086903D02*
X0063903Y0086903D01*
X0063105Y0086105D02*
X0047000Y0086105D01*
X0047000Y0085306D02*
X0062306Y0085306D01*
X0061508Y0084508D02*
X0047000Y0084508D01*
X0047000Y0083709D02*
X0060709Y0083709D01*
X0055169Y0077728D02*
X0049740Y0072299D01*
X0049740Y0067000D01*
X0042260Y0067000D02*
X0041500Y0067000D01*
X0041000Y0066500D01*
X0106398Y0128581D02*
X0106398Y0137398D01*
X0108000Y0139000D01*
X0116500Y0128715D02*
X0116634Y0128581D01*
X0129429Y0140256D02*
X0127669Y0142016D01*
D32*
X0144500Y0140000D03*
X0149000Y0136500D03*
X0139000Y0122000D03*
X0135000Y0121500D03*
X0127500Y0120000D03*
X0127500Y0113000D03*
X0135000Y0112000D03*
X0120500Y0116500D03*
X0113000Y0113000D03*
X0113000Y0120000D03*
X0105000Y0121500D03*
X0105000Y0113000D03*
X0096500Y0112500D03*
X0096500Y0122000D03*
X0098000Y0129500D03*
X0089000Y0129500D03*
X0082000Y0120500D03*
X0077500Y0116000D03*
X0067500Y0120500D03*
X0067000Y0129500D03*
X0078000Y0129500D03*
X0067500Y0107000D03*
X0081500Y0095500D03*
X0077000Y0091000D03*
X0087500Y0093000D03*
X0093500Y0091000D03*
X0097500Y0095000D03*
X0108500Y0093500D03*
X0110500Y0097500D03*
X0130500Y0097500D03*
X0133500Y0094500D03*
X0152500Y0108500D03*
X0161500Y0107500D03*
X0185000Y0107500D03*
X0194000Y0107000D03*
X0205000Y0116000D03*
X0210500Y0120500D03*
X0205500Y0133000D03*
X0193000Y0133000D03*
X0194000Y0120500D03*
X0217000Y0133000D03*
X0223000Y0139000D03*
X0228500Y0139000D03*
X0228000Y0134000D03*
X0233500Y0134000D03*
X0237500Y0135500D03*
X0241000Y0149500D03*
X0237500Y0162500D03*
X0228100Y0154000D03*
X0210500Y0162500D03*
X0218000Y0181500D03*
X0216000Y0188500D03*
X0192000Y0189500D03*
X0188500Y0192500D03*
X0180500Y0207500D03*
X0167500Y0189500D03*
X0171000Y0184500D03*
X0162500Y0181500D03*
X0167500Y0160500D03*
X0165000Y0140000D03*
X0129000Y0165500D03*
X0108000Y0139000D03*
X0112000Y0134500D03*
X0044000Y0159000D03*
X0074000Y0070000D03*
X0096500Y0069500D03*
X0205000Y0091000D03*
X0209500Y0095500D03*
X0215500Y0093000D03*
X0221500Y0091000D03*
X0225500Y0095000D03*
X0237000Y0093000D03*
X0238500Y0097000D03*
X0241500Y0113000D03*
X0241500Y0119500D03*
X0249000Y0116500D03*
X0255500Y0113000D03*
X0255500Y0120000D03*
X0263000Y0121500D03*
X0263000Y0112000D03*
X0258500Y0097500D03*
X0261500Y0094500D03*
X0276000Y0097000D03*
X0274500Y0083500D03*
X0277500Y0077500D03*
X0280500Y0074500D03*
X0283500Y0071500D03*
X0286500Y0068500D03*
X0289500Y0065500D03*
X0293000Y0062500D03*
X0305500Y0049500D03*
X0271000Y0075500D03*
X0233500Y0113000D03*
X0225000Y0112500D03*
X0225000Y0122000D03*
X0233500Y0121500D03*
X0276000Y0142000D03*
X0252500Y0177500D03*
X0226000Y0214500D03*
X0224000Y0220000D03*
X0216500Y0225500D03*
X0192500Y0252000D03*
X0187500Y0251500D03*
X0180500Y0251500D03*
X0182500Y0261500D03*
X0187000Y0260500D03*
X0193000Y0260000D03*
X0185500Y0236000D03*
X0152500Y0239000D03*
X0147500Y0254000D03*
X0126500Y0272500D03*
X0112500Y0309000D03*
X0044000Y0290500D03*
X0266000Y0228500D03*
X0270500Y0224000D03*
X0275500Y0219500D03*
X0290500Y0195000D03*
X0297000Y0184000D03*
X0344500Y0121500D03*
X0403000Y0074500D03*
D33*
X0216000Y0188500D02*
X0215964Y0188500D01*
X0211816Y0192648D01*
X0206527Y0197938D02*
X0206303Y0197938D01*
X0158240Y0246000D01*
X0158240Y0252260D01*
X0156500Y0254000D01*
X0158240Y0246000D02*
X0158500Y0246000D01*
X0165500Y0239000D01*
X0181500Y0239000D01*
X0182500Y0240000D01*
X0182500Y0245335D01*
X0179350Y0245335D02*
X0179350Y0250350D01*
X0180500Y0251500D01*
X0150760Y0246000D02*
X0150260Y0246500D01*
X0180500Y0207500D02*
X0182500Y0205500D01*
X0182500Y0199665D01*
X0185500Y0199815D02*
X0185500Y0204500D01*
X0187500Y0206500D01*
X0198000Y0206500D01*
X0206527Y0197973D01*
X0206527Y0197938D01*
X0185650Y0199665D02*
X0185500Y0199815D01*
D34*
X0156500Y0254000D02*
X0147500Y0254000D01*
X0227256Y0108000D02*
X0225866Y0106610D01*
X0227256Y0108000D02*
X0233500Y0108000D01*
X0234398Y0107102D01*
X0234398Y0104270D01*
X0236957Y0104270D02*
X0236957Y0101457D01*
X0235000Y0099500D01*
X0233295Y0099500D01*
X0233209Y0099413D01*
X0231839Y0104270D02*
X0228644Y0104270D01*
X0225866Y0101492D01*
X0242075Y0104270D02*
X0242075Y0093075D01*
X0236500Y0087500D01*
X0236500Y0076000D01*
X0215500Y0055000D01*
X0225500Y0055000D02*
X0247193Y0076693D01*
X0247193Y0104270D01*
X0249752Y0104270D02*
X0249752Y0075248D01*
X0257500Y0067500D01*
X0271000Y0067500D01*
X0277500Y0061000D01*
X0277500Y0055500D01*
X0278000Y0055000D01*
X0288000Y0055000D02*
X0272500Y0070500D01*
X0264500Y0070500D01*
X0260000Y0075000D01*
X0260000Y0087500D01*
X0254870Y0092630D01*
X0254870Y0104270D01*
X0252311Y0104270D02*
X0252311Y0086303D01*
X0254669Y0083945D01*
X0244634Y0086350D02*
X0242228Y0083945D01*
X0244634Y0086350D02*
X0244634Y0104270D01*
X0328965Y0121358D02*
X0329106Y0121500D01*
X0344500Y0121500D01*
X0344642Y0121358D01*
X0362035Y0121358D01*
X0163000Y0055000D02*
X0147000Y0071000D01*
X0139500Y0071000D01*
X0132000Y0078500D01*
X0132000Y0089000D01*
X0126870Y0094130D01*
X0126870Y0104270D01*
X0124311Y0104270D02*
X0124311Y0086303D01*
X0126669Y0083945D01*
X0121752Y0076248D02*
X0129500Y0068500D01*
X0145000Y0068500D01*
X0153000Y0060500D01*
X0153000Y0055000D01*
X0121752Y0076248D02*
X0121752Y0104270D01*
X0119193Y0104270D02*
X0119193Y0073693D01*
X0100500Y0055000D01*
X0090500Y0055000D02*
X0108500Y0073000D01*
X0108500Y0088500D01*
X0114075Y0094075D01*
X0114075Y0104270D01*
X0116634Y0104270D02*
X0116634Y0086850D01*
X0114228Y0083945D01*
D35*
X0133000Y0055000D02*
X0133000Y0047500D01*
X0129000Y0043500D01*
X0192000Y0043500D01*
X0195500Y0047000D01*
X0195500Y0055000D01*
X0192000Y0043500D02*
X0254500Y0043500D01*
X0296000Y0043500D01*
X0373000Y0043500D01*
X0378000Y0048500D01*
X0378000Y0053000D01*
X0258000Y0055000D02*
X0258000Y0047000D01*
X0254500Y0043500D01*
X0129000Y0043500D02*
X0068000Y0043500D01*
X0070500Y0046000D01*
X0070500Y0055000D01*
X0068000Y0043500D02*
X0044500Y0043500D01*
X0041000Y0047000D01*
X0041000Y0066500D01*
X0041000Y0127000D01*
X0047000Y0133000D01*
X0055000Y0133000D01*
X0056500Y0134500D01*
X0058000Y0136000D01*
X0058000Y0140000D01*
X0058000Y0147500D01*
X0058000Y0159000D01*
X0058000Y0169500D01*
X0058000Y0180000D01*
X0058000Y0191500D01*
X0058000Y0213500D01*
X0058000Y0235500D01*
X0058000Y0257500D01*
X0058000Y0279500D01*
X0058000Y0290500D01*
X0058000Y0301500D01*
X0058000Y0323500D01*
X0058000Y0345500D01*
M02*
