G75*
%MOIN*%
%OFA0B0*%
%FSLAX25Y25*%
%IPPOS*%
%LPD*%
%AMOC8*
5,1,8,0,0,1.08239X$1,22.5*
%
%ADD10C,0.01600*%
%ADD11C,0.00100*%
%ADD12R,0.05518X0.06306*%
%ADD13C,0.06400*%
%ADD14C,0.07900*%
%ADD15C,0.23400*%
D10*
X0027500Y0001800D02*
X0027500Y0297076D01*
X0257500Y0297076D01*
X0257500Y0001800D02*
X0027500Y0001800D01*
D11*
X0257500Y0001800D02*
X0257500Y0297076D01*
D12*
X0093240Y0143300D03*
X0085760Y0143300D03*
X0085760Y0111800D03*
X0093240Y0111800D03*
X0050240Y0163800D03*
X0042760Y0163800D03*
X0049260Y0197800D03*
X0056740Y0197800D03*
X0056740Y0205800D03*
X0049260Y0205800D03*
X0049260Y0213800D03*
X0056740Y0213800D03*
D13*
X0085500Y0285800D02*
X0085500Y0291800D01*
X0095500Y0291800D02*
X0095500Y0285800D01*
X0106500Y0285800D02*
X0106500Y0291800D01*
X0116500Y0291800D02*
X0116500Y0285800D01*
X0142500Y0274800D02*
X0142500Y0268800D01*
X0152500Y0268800D02*
X0152500Y0274800D01*
X0162500Y0274800D02*
X0162500Y0268800D01*
X0172500Y0268800D02*
X0172500Y0274800D01*
X0187500Y0274800D02*
X0187500Y0268800D01*
X0197500Y0268800D02*
X0197500Y0274800D01*
X0207500Y0274800D02*
X0207500Y0268800D01*
X0217500Y0268800D02*
X0217500Y0274800D01*
X0217500Y0254800D02*
X0217500Y0248800D01*
X0207500Y0248800D02*
X0207500Y0254800D01*
X0197500Y0254800D02*
X0197500Y0248800D01*
X0187500Y0248800D02*
X0187500Y0254800D01*
X0172500Y0254800D02*
X0172500Y0248800D01*
X0162500Y0248800D02*
X0162500Y0254800D01*
X0152500Y0254800D02*
X0152500Y0248800D01*
X0142500Y0248800D02*
X0142500Y0254800D01*
X0142500Y0234800D02*
X0142500Y0228800D01*
X0152500Y0228800D02*
X0152500Y0234800D01*
X0162500Y0234800D02*
X0162500Y0228800D01*
X0172500Y0228800D02*
X0172500Y0234800D01*
X0187500Y0234800D02*
X0187500Y0228800D01*
X0197500Y0228800D02*
X0197500Y0234800D01*
X0207500Y0234800D02*
X0207500Y0228800D01*
X0217500Y0228800D02*
X0217500Y0234800D01*
X0217500Y0214800D02*
X0217500Y0208800D01*
X0207500Y0208800D02*
X0207500Y0214800D01*
X0197500Y0214800D02*
X0197500Y0208800D01*
X0187500Y0208800D02*
X0187500Y0214800D01*
X0172500Y0214800D02*
X0172500Y0208800D01*
X0162500Y0208800D02*
X0162500Y0214800D01*
X0152500Y0214800D02*
X0152500Y0208800D01*
X0142500Y0208800D02*
X0142500Y0214800D01*
X0142500Y0194800D02*
X0142500Y0188800D01*
X0152500Y0188800D02*
X0152500Y0194800D01*
X0162500Y0194800D02*
X0162500Y0188800D01*
X0172500Y0188800D02*
X0172500Y0194800D01*
X0187500Y0194800D02*
X0187500Y0188800D01*
X0197500Y0188800D02*
X0197500Y0194800D01*
X0207500Y0194800D02*
X0207500Y0188800D01*
X0217500Y0188800D02*
X0217500Y0194800D01*
X0217500Y0174800D02*
X0217500Y0168800D01*
X0207500Y0168800D02*
X0207500Y0174800D01*
X0197500Y0174800D02*
X0197500Y0168800D01*
X0187500Y0168800D02*
X0187500Y0174800D01*
X0172500Y0174800D02*
X0172500Y0168800D01*
X0162500Y0168800D02*
X0162500Y0174800D01*
X0152500Y0174800D02*
X0152500Y0168800D01*
X0142500Y0168800D02*
X0142500Y0174800D01*
X0142500Y0154800D02*
X0142500Y0148800D01*
X0152500Y0148800D02*
X0152500Y0154800D01*
X0162500Y0154800D02*
X0162500Y0148800D01*
X0172500Y0148800D02*
X0172500Y0154800D01*
X0187500Y0154800D02*
X0187500Y0148800D01*
X0197500Y0148800D02*
X0197500Y0154800D01*
X0207500Y0154800D02*
X0207500Y0148800D01*
X0217500Y0148800D02*
X0217500Y0154800D01*
X0217500Y0134800D02*
X0217500Y0128800D01*
X0207500Y0128800D02*
X0207500Y0134800D01*
X0197500Y0134800D02*
X0197500Y0128800D01*
X0187500Y0128800D02*
X0187500Y0134800D01*
X0172500Y0134800D02*
X0172500Y0128800D01*
X0162500Y0128800D02*
X0162500Y0134800D01*
X0152500Y0134800D02*
X0152500Y0128800D01*
X0142500Y0128800D02*
X0142500Y0134800D01*
X0142500Y0114800D02*
X0142500Y0108800D01*
X0152500Y0108800D02*
X0152500Y0114800D01*
X0162500Y0114800D02*
X0162500Y0108800D01*
X0172500Y0108800D02*
X0172500Y0114800D01*
X0187500Y0114800D02*
X0187500Y0108800D01*
X0197500Y0108800D02*
X0197500Y0114800D01*
X0207500Y0114800D02*
X0207500Y0108800D01*
X0217500Y0108800D02*
X0217500Y0114800D01*
X0217500Y0094800D02*
X0217500Y0088800D01*
X0207500Y0088800D02*
X0207500Y0094800D01*
X0197500Y0094800D02*
X0197500Y0088800D01*
X0187500Y0088800D02*
X0187500Y0094800D01*
X0172500Y0094800D02*
X0172500Y0088800D01*
X0162500Y0088800D02*
X0162500Y0094800D01*
X0152500Y0094800D02*
X0152500Y0088800D01*
X0142500Y0088800D02*
X0142500Y0094800D01*
X0142500Y0074800D02*
X0142500Y0068800D01*
X0152500Y0068800D02*
X0152500Y0074800D01*
X0162500Y0074800D02*
X0162500Y0068800D01*
X0172500Y0068800D02*
X0172500Y0074800D01*
X0187500Y0074800D02*
X0187500Y0068800D01*
X0197500Y0068800D02*
X0197500Y0074800D01*
X0207500Y0074800D02*
X0207500Y0068800D01*
X0217500Y0068800D02*
X0217500Y0074800D01*
X0217500Y0054800D02*
X0217500Y0048800D01*
X0207500Y0048800D02*
X0207500Y0054800D01*
X0197500Y0054800D02*
X0197500Y0048800D01*
X0187500Y0048800D02*
X0187500Y0054800D01*
X0172500Y0054800D02*
X0172500Y0048800D01*
X0162500Y0048800D02*
X0162500Y0054800D01*
X0152500Y0054800D02*
X0152500Y0048800D01*
X0142500Y0048800D02*
X0142500Y0054800D01*
X0142500Y0034800D02*
X0142500Y0028800D01*
X0152500Y0028800D02*
X0152500Y0034800D01*
X0162500Y0034800D02*
X0162500Y0028800D01*
X0172500Y0028800D02*
X0172500Y0034800D01*
X0187500Y0034800D02*
X0187500Y0028800D01*
X0197500Y0028800D02*
X0197500Y0034800D01*
X0207500Y0034800D02*
X0207500Y0028800D01*
X0217500Y0028800D02*
X0217500Y0034800D01*
X0217500Y0014800D02*
X0217500Y0008800D01*
X0207500Y0008800D02*
X0207500Y0014800D01*
X0197500Y0014800D02*
X0197500Y0008800D01*
X0187500Y0008800D02*
X0187500Y0014800D01*
X0172500Y0014800D02*
X0172500Y0008800D01*
X0162500Y0008800D02*
X0162500Y0014800D01*
X0152500Y0014800D02*
X0152500Y0008800D01*
X0142500Y0008800D02*
X0142500Y0014800D01*
X0048000Y0042300D02*
X0042000Y0042300D01*
X0042000Y0052300D02*
X0048000Y0052300D01*
X0048000Y0062300D02*
X0042000Y0062300D01*
X0042000Y0072300D02*
X0048000Y0072300D01*
X0048000Y0082300D02*
X0042000Y0082300D01*
X0042000Y0092300D02*
X0048000Y0092300D01*
D14*
X0033500Y0153800D03*
X0033500Y0163800D03*
X0033500Y0173800D03*
D15*
X0047500Y0276800D03*
X0239500Y0276800D03*
X0239500Y0021800D03*
X0047500Y0021800D03*
M02*
