G75*
%MOIN*%
%OFA0B0*%
%FSLAX25Y25*%
%IPPOS*%
%LPD*%
%AMOC8*
5,1,8,0,0,1.08239X$1,22.5*
%
%ADD10C,0.01600*%
%ADD11C,0.00100*%
%ADD12R,0.05118X0.05906*%
%ADD13C,0.06000*%
%ADD14C,0.07500*%
%ADD15C,0.23000*%
%ADD16C,0.01950*%
%ADD17C,0.01800*%
%ADD18C,0.01000*%
%ADD19C,0.02000*%
%ADD20C,0.03750*%
%ADD21C,0.03000*%
%ADD22C,0.05250*%
D10*
X0027500Y0001800D02*
X0027500Y0297076D01*
X0257500Y0297076D01*
X0255650Y0294476D02*
X0255650Y0004400D01*
X0189437Y0004400D01*
X0190016Y0004695D01*
X0190627Y0005139D01*
X0191161Y0005673D01*
X0191605Y0006284D01*
X0191948Y0006957D01*
X0192182Y0007676D01*
X0192300Y0008422D01*
X0192300Y0011600D01*
X0187700Y0011600D01*
X0187700Y0012000D01*
X0187300Y0012000D01*
X0187300Y0019600D01*
X0187122Y0019600D01*
X0186376Y0019482D01*
X0185657Y0019248D01*
X0184984Y0018905D01*
X0184373Y0018461D01*
X0183839Y0017927D01*
X0183395Y0017316D01*
X0183052Y0016643D01*
X0182818Y0015924D01*
X0182700Y0015178D01*
X0182700Y0012000D01*
X0187300Y0012000D01*
X0187300Y0011600D01*
X0182700Y0011600D01*
X0182700Y0008422D01*
X0182818Y0007676D01*
X0183052Y0006957D01*
X0183395Y0006284D01*
X0183839Y0005673D01*
X0184373Y0005139D01*
X0184984Y0004695D01*
X0185563Y0004400D01*
X0144437Y0004400D01*
X0145016Y0004695D01*
X0145627Y0005139D01*
X0146161Y0005673D01*
X0146605Y0006284D01*
X0146948Y0006957D01*
X0147182Y0007676D01*
X0147300Y0008422D01*
X0147300Y0011600D01*
X0142700Y0011600D01*
X0142700Y0012000D01*
X0142300Y0012000D01*
X0142300Y0019600D01*
X0142122Y0019600D01*
X0141376Y0019482D01*
X0140657Y0019248D01*
X0139984Y0018905D01*
X0139373Y0018461D01*
X0138839Y0017927D01*
X0138395Y0017316D01*
X0138052Y0016643D01*
X0137818Y0015924D01*
X0137700Y0015178D01*
X0137700Y0012000D01*
X0142300Y0012000D01*
X0142300Y0011600D01*
X0137700Y0011600D01*
X0137700Y0008422D01*
X0137818Y0007676D01*
X0138052Y0006957D01*
X0138395Y0006284D01*
X0138839Y0005673D01*
X0139373Y0005139D01*
X0139984Y0004695D01*
X0140563Y0004400D01*
X0030100Y0004400D01*
X0030100Y0149410D01*
X0030591Y0149053D01*
X0031370Y0148657D01*
X0032200Y0148387D01*
X0033050Y0148252D01*
X0033050Y0153350D01*
X0033950Y0153350D01*
X0033950Y0154250D01*
X0039048Y0154250D01*
X0038913Y0155100D01*
X0038643Y0155930D01*
X0038247Y0156709D01*
X0037733Y0157416D01*
X0037116Y0158033D01*
X0036409Y0158547D01*
X0035630Y0158943D01*
X0035408Y0159016D01*
X0036417Y0159434D01*
X0037866Y0160883D01*
X0038287Y0161900D01*
X0038801Y0161900D01*
X0038801Y0160267D01*
X0039621Y0159447D01*
X0045899Y0159447D01*
X0046500Y0160048D01*
X0047101Y0159447D01*
X0053379Y0159447D01*
X0054199Y0160267D01*
X0054199Y0167333D01*
X0053379Y0168153D01*
X0052140Y0168153D01*
X0052140Y0193447D01*
X0052399Y0193447D01*
X0052723Y0193772D01*
X0052741Y0193742D01*
X0053076Y0193407D01*
X0053486Y0193170D01*
X0053944Y0193047D01*
X0056261Y0193047D01*
X0056261Y0197320D01*
X0057220Y0197320D01*
X0057220Y0193047D01*
X0059536Y0193047D01*
X0059994Y0193170D01*
X0060404Y0193407D01*
X0060740Y0193742D01*
X0060977Y0194152D01*
X0061099Y0194610D01*
X0061099Y0197320D01*
X0057220Y0197320D01*
X0057220Y0198280D01*
X0056261Y0198280D01*
X0056261Y0205320D01*
X0057220Y0205320D01*
X0057220Y0201047D01*
X0057220Y0198280D01*
X0061099Y0198280D01*
X0061099Y0200990D01*
X0060977Y0201448D01*
X0060773Y0201800D01*
X0060977Y0202152D01*
X0061099Y0202610D01*
X0061099Y0205320D01*
X0057220Y0205320D01*
X0057220Y0206280D01*
X0056261Y0206280D01*
X0056261Y0210553D01*
X0056261Y0213320D01*
X0057220Y0213320D01*
X0057220Y0206280D01*
X0061099Y0206280D01*
X0061099Y0208990D01*
X0060977Y0209448D01*
X0060773Y0209800D01*
X0060977Y0210152D01*
X0061099Y0210610D01*
X0061099Y0213320D01*
X0057220Y0213320D01*
X0057220Y0214280D01*
X0056261Y0214280D01*
X0056261Y0218553D01*
X0053944Y0218553D01*
X0053486Y0218430D01*
X0053076Y0218193D01*
X0052741Y0217858D01*
X0052723Y0217828D01*
X0052399Y0218153D01*
X0051660Y0218153D01*
X0051660Y0232066D01*
X0054994Y0235400D01*
X0061477Y0235400D01*
X0062359Y0235765D01*
X0065619Y0239025D01*
X0066151Y0239025D01*
X0067355Y0239524D01*
X0068276Y0240445D01*
X0068775Y0241649D01*
X0068775Y0242951D01*
X0068276Y0244155D01*
X0067355Y0245076D01*
X0066151Y0245575D01*
X0064849Y0245575D01*
X0063645Y0245076D01*
X0062724Y0244155D01*
X0062225Y0242951D01*
X0062225Y0242419D01*
X0061375Y0241569D01*
X0061375Y0242284D01*
X0059984Y0243675D01*
X0059312Y0243675D01*
X0054787Y0248200D01*
X0050959Y0248200D01*
X0050484Y0248675D01*
X0048516Y0248675D01*
X0047414Y0247573D01*
X0045875Y0249112D01*
X0045875Y0249784D01*
X0044484Y0251175D01*
X0042516Y0251175D01*
X0041125Y0249784D01*
X0041125Y0247816D01*
X0042516Y0246425D01*
X0043188Y0246425D01*
X0050713Y0238900D01*
X0051041Y0238900D01*
X0051374Y0238568D01*
X0047225Y0234419D01*
X0046860Y0233537D01*
X0046860Y0218153D01*
X0046121Y0218153D01*
X0045301Y0217333D01*
X0045301Y0210267D01*
X0045768Y0209800D01*
X0045301Y0209333D01*
X0045301Y0202267D01*
X0045768Y0201800D01*
X0045301Y0201333D01*
X0045301Y0194267D01*
X0046121Y0193447D01*
X0048340Y0193447D01*
X0048340Y0168153D01*
X0047101Y0168153D01*
X0046500Y0167552D01*
X0045899Y0168153D01*
X0044400Y0168153D01*
X0044400Y0222341D01*
X0044875Y0222816D01*
X0044875Y0224784D01*
X0043484Y0226175D01*
X0041516Y0226175D01*
X0040125Y0224784D01*
X0040125Y0222816D01*
X0040600Y0222341D01*
X0040600Y0168153D01*
X0039621Y0168153D01*
X0038801Y0167333D01*
X0038801Y0165700D01*
X0038287Y0165700D01*
X0037866Y0166717D01*
X0036417Y0168166D01*
X0034886Y0168800D01*
X0036417Y0169434D01*
X0037866Y0170883D01*
X0038650Y0172776D01*
X0038650Y0174824D01*
X0037866Y0176717D01*
X0036417Y0178166D01*
X0034524Y0178950D01*
X0032476Y0178950D01*
X0030583Y0178166D01*
X0030100Y0177683D01*
X0030100Y0294476D01*
X0081953Y0294476D01*
X0081770Y0294292D01*
X0081100Y0292675D01*
X0081100Y0284925D01*
X0081770Y0283308D01*
X0083008Y0282070D01*
X0084625Y0281400D01*
X0086375Y0281400D01*
X0087992Y0282070D01*
X0089230Y0283308D01*
X0089900Y0284925D01*
X0089900Y0292675D01*
X0089230Y0294292D01*
X0089047Y0294476D01*
X0091953Y0294476D01*
X0091770Y0294292D01*
X0091100Y0292675D01*
X0091100Y0284925D01*
X0091770Y0283308D01*
X0093008Y0282070D01*
X0094625Y0281400D01*
X0096375Y0281400D01*
X0097992Y0282070D01*
X0099230Y0283308D01*
X0099900Y0284925D01*
X0099900Y0292675D01*
X0099230Y0294292D01*
X0099047Y0294476D01*
X0102953Y0294476D01*
X0102770Y0294292D01*
X0102100Y0292675D01*
X0102100Y0284925D01*
X0102770Y0283308D01*
X0104008Y0282070D01*
X0105625Y0281400D01*
X0107375Y0281400D01*
X0108992Y0282070D01*
X0110230Y0283308D01*
X0110900Y0284925D01*
X0110900Y0292675D01*
X0110230Y0294292D01*
X0110047Y0294476D01*
X0112511Y0294476D01*
X0112395Y0294316D01*
X0112052Y0293643D01*
X0111818Y0292924D01*
X0111700Y0292178D01*
X0111700Y0289000D01*
X0116300Y0289000D01*
X0116300Y0288600D01*
X0116700Y0288600D01*
X0116700Y0289000D01*
X0121300Y0289000D01*
X0121300Y0292178D01*
X0121182Y0292924D01*
X0120948Y0293643D01*
X0120605Y0294316D01*
X0120489Y0294476D01*
X0255650Y0294476D01*
X0255650Y0294328D02*
X0120597Y0294328D01*
X0121213Y0292729D02*
X0255650Y0292729D01*
X0255650Y0291131D02*
X0121300Y0291131D01*
X0121300Y0289532D02*
X0235655Y0289532D01*
X0236264Y0289717D02*
X0235014Y0289338D01*
X0233807Y0288838D01*
X0232654Y0288222D01*
X0231568Y0287496D01*
X0230557Y0286667D01*
X0229633Y0285742D01*
X0228804Y0284732D01*
X0228078Y0283646D01*
X0227462Y0282493D01*
X0226962Y0281286D01*
X0226583Y0280036D01*
X0226328Y0278754D01*
X0226214Y0277600D01*
X0238700Y0277600D01*
X0238700Y0290086D01*
X0237546Y0289972D01*
X0236264Y0289717D01*
X0238700Y0289532D02*
X0240300Y0289532D01*
X0240300Y0290086D02*
X0241454Y0289972D01*
X0242736Y0289717D01*
X0243986Y0289338D01*
X0245193Y0288838D01*
X0246346Y0288222D01*
X0247432Y0287496D01*
X0248442Y0286667D01*
X0249367Y0285742D01*
X0250196Y0284732D01*
X0250922Y0283646D01*
X0251538Y0282493D01*
X0252038Y0281286D01*
X0252417Y0280036D01*
X0252672Y0278754D01*
X0252786Y0277600D01*
X0240300Y0277600D01*
X0240300Y0276000D01*
X0252786Y0276000D01*
X0252672Y0274846D01*
X0252417Y0273564D01*
X0252038Y0272314D01*
X0251538Y0271107D01*
X0250922Y0269954D01*
X0250196Y0268868D01*
X0249367Y0267857D01*
X0248442Y0266933D01*
X0247432Y0266104D01*
X0246346Y0265378D01*
X0245193Y0264762D01*
X0243986Y0264262D01*
X0242736Y0263883D01*
X0241454Y0263628D01*
X0240300Y0263514D01*
X0240300Y0276000D01*
X0238700Y0276000D01*
X0238700Y0263514D01*
X0237546Y0263628D01*
X0236264Y0263883D01*
X0235014Y0264262D01*
X0233807Y0264762D01*
X0232654Y0265378D01*
X0231568Y0266104D01*
X0230557Y0266933D01*
X0229633Y0267857D01*
X0228804Y0268868D01*
X0228078Y0269954D01*
X0227462Y0271107D01*
X0226962Y0272314D01*
X0226583Y0273564D01*
X0226328Y0274846D01*
X0226214Y0276000D01*
X0238700Y0276000D01*
X0238700Y0277600D01*
X0240300Y0277600D01*
X0240300Y0290086D01*
X0240300Y0287934D02*
X0238700Y0287934D01*
X0238700Y0286335D02*
X0240300Y0286335D01*
X0240300Y0284737D02*
X0238700Y0284737D01*
X0238700Y0283138D02*
X0240300Y0283138D01*
X0240300Y0281539D02*
X0238700Y0281539D01*
X0238700Y0279941D02*
X0240300Y0279941D01*
X0240300Y0278342D02*
X0238700Y0278342D01*
X0238700Y0276744D02*
X0221457Y0276744D01*
X0221230Y0277292D02*
X0219992Y0278530D01*
X0218375Y0279200D01*
X0216625Y0279200D01*
X0215008Y0278530D01*
X0213770Y0277292D01*
X0213100Y0275675D01*
X0213100Y0267925D01*
X0213770Y0266308D01*
X0215008Y0265070D01*
X0216625Y0264400D01*
X0218375Y0264400D01*
X0219992Y0265070D01*
X0221230Y0266308D01*
X0221900Y0267925D01*
X0221900Y0275675D01*
X0221230Y0277292D01*
X0220180Y0278342D02*
X0226288Y0278342D01*
X0226564Y0279941D02*
X0060436Y0279941D01*
X0060417Y0280036D02*
X0060038Y0281286D01*
X0059538Y0282493D01*
X0058922Y0283646D01*
X0058196Y0284732D01*
X0057367Y0285742D01*
X0056442Y0286667D01*
X0055432Y0287496D01*
X0054346Y0288222D01*
X0053193Y0288838D01*
X0051986Y0289338D01*
X0050736Y0289717D01*
X0049454Y0289972D01*
X0048300Y0290086D01*
X0048300Y0277600D01*
X0060786Y0277600D01*
X0060672Y0278754D01*
X0060417Y0280036D01*
X0059933Y0281539D02*
X0084288Y0281539D01*
X0086712Y0281539D02*
X0094288Y0281539D01*
X0096712Y0281539D02*
X0105288Y0281539D01*
X0107712Y0281539D02*
X0114289Y0281539D01*
X0113984Y0281695D02*
X0114657Y0281352D01*
X0115376Y0281118D01*
X0116122Y0281000D01*
X0116300Y0281000D01*
X0116300Y0288600D01*
X0111700Y0288600D01*
X0111700Y0285422D01*
X0111818Y0284676D01*
X0112052Y0283957D01*
X0112395Y0283284D01*
X0112839Y0282673D01*
X0113373Y0282139D01*
X0113984Y0281695D01*
X0112501Y0283138D02*
X0110061Y0283138D01*
X0110822Y0284737D02*
X0111809Y0284737D01*
X0111700Y0286335D02*
X0110900Y0286335D01*
X0110900Y0287934D02*
X0111700Y0287934D01*
X0111700Y0289532D02*
X0110900Y0289532D01*
X0110900Y0291131D02*
X0111700Y0291131D01*
X0111787Y0292729D02*
X0110878Y0292729D01*
X0110195Y0294328D02*
X0112403Y0294328D01*
X0116700Y0288600D02*
X0121300Y0288600D01*
X0121300Y0285422D01*
X0121182Y0284676D01*
X0120948Y0283957D01*
X0120605Y0283284D01*
X0120161Y0282673D01*
X0119627Y0282139D01*
X0119016Y0281695D01*
X0118343Y0281352D01*
X0117624Y0281118D01*
X0116878Y0281000D01*
X0116700Y0281000D01*
X0116700Y0288600D01*
X0116700Y0287934D02*
X0116300Y0287934D01*
X0116300Y0286335D02*
X0116700Y0286335D01*
X0116700Y0284737D02*
X0116300Y0284737D01*
X0116300Y0283138D02*
X0116700Y0283138D01*
X0116700Y0281539D02*
X0116300Y0281539D01*
X0118711Y0281539D02*
X0227067Y0281539D01*
X0227807Y0283138D02*
X0120499Y0283138D01*
X0121191Y0284737D02*
X0228808Y0284737D01*
X0230226Y0286335D02*
X0121300Y0286335D01*
X0121300Y0287934D02*
X0232223Y0287934D01*
X0243345Y0289532D02*
X0255650Y0289532D01*
X0255650Y0287934D02*
X0246777Y0287934D01*
X0248774Y0286335D02*
X0255650Y0286335D01*
X0255650Y0284737D02*
X0250192Y0284737D01*
X0251193Y0283138D02*
X0255650Y0283138D01*
X0255650Y0281539D02*
X0251933Y0281539D01*
X0252436Y0279941D02*
X0255650Y0279941D01*
X0255650Y0278342D02*
X0252712Y0278342D01*
X0252701Y0275145D02*
X0255650Y0275145D01*
X0255650Y0273547D02*
X0252412Y0273547D01*
X0251886Y0271948D02*
X0255650Y0271948D01*
X0255650Y0270350D02*
X0251133Y0270350D01*
X0250100Y0268751D02*
X0255650Y0268751D01*
X0255650Y0267153D02*
X0248662Y0267153D01*
X0246609Y0265554D02*
X0255650Y0265554D01*
X0255650Y0263956D02*
X0242976Y0263956D01*
X0240300Y0263956D02*
X0238700Y0263956D01*
X0238700Y0265554D02*
X0240300Y0265554D01*
X0240300Y0267153D02*
X0238700Y0267153D01*
X0238700Y0268751D02*
X0240300Y0268751D01*
X0240300Y0270350D02*
X0238700Y0270350D01*
X0238700Y0271948D02*
X0240300Y0271948D01*
X0240300Y0273547D02*
X0238700Y0273547D01*
X0238700Y0275145D02*
X0240300Y0275145D01*
X0240300Y0276744D02*
X0255650Y0276744D01*
X0255650Y0262357D02*
X0030100Y0262357D01*
X0030100Y0260759D02*
X0255650Y0260759D01*
X0255650Y0259160D02*
X0218471Y0259160D01*
X0218375Y0259200D02*
X0216625Y0259200D01*
X0215008Y0258530D01*
X0213770Y0257292D01*
X0213100Y0255675D01*
X0213100Y0247925D01*
X0213770Y0246308D01*
X0215008Y0245070D01*
X0216625Y0244400D01*
X0218375Y0244400D01*
X0219992Y0245070D01*
X0221230Y0246308D01*
X0221900Y0247925D01*
X0221900Y0255675D01*
X0221230Y0257292D01*
X0219992Y0258530D01*
X0218375Y0259200D01*
X0216529Y0259160D02*
X0208471Y0259160D01*
X0208375Y0259200D02*
X0206625Y0259200D01*
X0205008Y0258530D01*
X0203770Y0257292D01*
X0203100Y0255675D01*
X0203100Y0247925D01*
X0203770Y0246308D01*
X0205008Y0245070D01*
X0206625Y0244400D01*
X0208375Y0244400D01*
X0209992Y0245070D01*
X0211230Y0246308D01*
X0211900Y0247925D01*
X0211900Y0255675D01*
X0211230Y0257292D01*
X0209992Y0258530D01*
X0208375Y0259200D01*
X0206529Y0259160D02*
X0198471Y0259160D01*
X0198375Y0259200D02*
X0196625Y0259200D01*
X0195008Y0258530D01*
X0193770Y0257292D01*
X0193100Y0255675D01*
X0193100Y0247925D01*
X0193770Y0246308D01*
X0195008Y0245070D01*
X0196625Y0244400D01*
X0198375Y0244400D01*
X0199992Y0245070D01*
X0201230Y0246308D01*
X0201900Y0247925D01*
X0201900Y0255675D01*
X0201230Y0257292D01*
X0199992Y0258530D01*
X0198375Y0259200D01*
X0196529Y0259160D02*
X0189515Y0259160D01*
X0189343Y0259248D02*
X0188624Y0259482D01*
X0187878Y0259600D01*
X0187700Y0259600D01*
X0187700Y0252000D01*
X0192300Y0252000D01*
X0192300Y0255178D01*
X0192182Y0255924D01*
X0191948Y0256643D01*
X0191605Y0257316D01*
X0191161Y0257927D01*
X0190627Y0258461D01*
X0190016Y0258905D01*
X0189343Y0259248D01*
X0187700Y0259160D02*
X0187300Y0259160D01*
X0187300Y0259600D02*
X0187122Y0259600D01*
X0186376Y0259482D01*
X0185657Y0259248D01*
X0184984Y0258905D01*
X0184373Y0258461D01*
X0183839Y0257927D01*
X0183395Y0257316D01*
X0183052Y0256643D01*
X0182818Y0255924D01*
X0182700Y0255178D01*
X0182700Y0252000D01*
X0187300Y0252000D01*
X0187300Y0259600D01*
X0185485Y0259160D02*
X0173471Y0259160D01*
X0173375Y0259200D02*
X0171625Y0259200D01*
X0170008Y0258530D01*
X0168770Y0257292D01*
X0168100Y0255675D01*
X0168100Y0247925D01*
X0168770Y0246308D01*
X0170008Y0245070D01*
X0171625Y0244400D01*
X0173375Y0244400D01*
X0174992Y0245070D01*
X0176230Y0246308D01*
X0176900Y0247925D01*
X0176900Y0255675D01*
X0176230Y0257292D01*
X0174992Y0258530D01*
X0173375Y0259200D01*
X0171529Y0259160D02*
X0163471Y0259160D01*
X0163375Y0259200D02*
X0161625Y0259200D01*
X0160008Y0258530D01*
X0158770Y0257292D01*
X0158100Y0255675D01*
X0158100Y0247925D01*
X0158770Y0246308D01*
X0160008Y0245070D01*
X0161625Y0244400D01*
X0163375Y0244400D01*
X0164992Y0245070D01*
X0166230Y0246308D01*
X0166900Y0247925D01*
X0166900Y0255675D01*
X0166230Y0257292D01*
X0164992Y0258530D01*
X0163375Y0259200D01*
X0161529Y0259160D02*
X0153471Y0259160D01*
X0153375Y0259200D02*
X0151625Y0259200D01*
X0150008Y0258530D01*
X0148770Y0257292D01*
X0148100Y0255675D01*
X0148100Y0247925D01*
X0148770Y0246308D01*
X0150008Y0245070D01*
X0151625Y0244400D01*
X0153375Y0244400D01*
X0154992Y0245070D01*
X0156230Y0246308D01*
X0156900Y0247925D01*
X0156900Y0255675D01*
X0156230Y0257292D01*
X0154992Y0258530D01*
X0153375Y0259200D01*
X0151529Y0259160D02*
X0144515Y0259160D01*
X0144343Y0259248D02*
X0143624Y0259482D01*
X0142878Y0259600D01*
X0142700Y0259600D01*
X0142700Y0252000D01*
X0147300Y0252000D01*
X0147300Y0255178D01*
X0147182Y0255924D01*
X0146948Y0256643D01*
X0146605Y0257316D01*
X0146161Y0257927D01*
X0145627Y0258461D01*
X0145016Y0258905D01*
X0144343Y0259248D01*
X0142700Y0259160D02*
X0142300Y0259160D01*
X0142300Y0259600D02*
X0142122Y0259600D01*
X0141376Y0259482D01*
X0140657Y0259248D01*
X0139984Y0258905D01*
X0139373Y0258461D01*
X0138839Y0257927D01*
X0138395Y0257316D01*
X0138052Y0256643D01*
X0137818Y0255924D01*
X0137700Y0255178D01*
X0137700Y0252000D01*
X0142300Y0252000D01*
X0142300Y0259600D01*
X0140485Y0259160D02*
X0030100Y0259160D01*
X0030100Y0257562D02*
X0138573Y0257562D01*
X0137831Y0255963D02*
X0030100Y0255963D01*
X0030100Y0254365D02*
X0137700Y0254365D01*
X0137700Y0252766D02*
X0030100Y0252766D01*
X0030100Y0251168D02*
X0042509Y0251168D01*
X0044491Y0251168D02*
X0137700Y0251168D01*
X0137700Y0251600D02*
X0137700Y0248422D01*
X0137818Y0247676D01*
X0138052Y0246957D01*
X0138395Y0246284D01*
X0138839Y0245673D01*
X0139373Y0245139D01*
X0139984Y0244695D01*
X0140657Y0244352D01*
X0141376Y0244118D01*
X0142122Y0244000D01*
X0142300Y0244000D01*
X0142300Y0251600D01*
X0142700Y0251600D01*
X0142700Y0252000D01*
X0142300Y0252000D01*
X0142300Y0251600D01*
X0137700Y0251600D01*
X0137700Y0249569D02*
X0045875Y0249569D01*
X0047016Y0247971D02*
X0047812Y0247971D01*
X0044839Y0244774D02*
X0030100Y0244774D01*
X0030100Y0246372D02*
X0043241Y0246372D01*
X0041125Y0247971D02*
X0030100Y0247971D01*
X0030100Y0249569D02*
X0041125Y0249569D01*
X0046438Y0243175D02*
X0030100Y0243175D01*
X0030100Y0241577D02*
X0048036Y0241577D01*
X0049635Y0239978D02*
X0030100Y0239978D01*
X0030100Y0238380D02*
X0051186Y0238380D01*
X0049587Y0236781D02*
X0030100Y0236781D01*
X0030100Y0235183D02*
X0047989Y0235183D01*
X0046879Y0233584D02*
X0030100Y0233584D01*
X0030100Y0231986D02*
X0046860Y0231986D01*
X0046860Y0230387D02*
X0030100Y0230387D01*
X0030100Y0228789D02*
X0046860Y0228789D01*
X0046860Y0227190D02*
X0030100Y0227190D01*
X0030100Y0225592D02*
X0040933Y0225592D01*
X0040125Y0223993D02*
X0030100Y0223993D01*
X0030100Y0222395D02*
X0040547Y0222395D01*
X0040600Y0220796D02*
X0030100Y0220796D01*
X0030100Y0219198D02*
X0040600Y0219198D01*
X0040600Y0217599D02*
X0030100Y0217599D01*
X0030100Y0216001D02*
X0040600Y0216001D01*
X0040600Y0214402D02*
X0030100Y0214402D01*
X0030100Y0212803D02*
X0040600Y0212803D01*
X0040600Y0211205D02*
X0030100Y0211205D01*
X0030100Y0209606D02*
X0040600Y0209606D01*
X0040600Y0208008D02*
X0030100Y0208008D01*
X0030100Y0206409D02*
X0040600Y0206409D01*
X0040600Y0204811D02*
X0030100Y0204811D01*
X0030100Y0203212D02*
X0040600Y0203212D01*
X0040600Y0201614D02*
X0030100Y0201614D01*
X0030100Y0200015D02*
X0040600Y0200015D01*
X0040600Y0198417D02*
X0030100Y0198417D01*
X0030100Y0196818D02*
X0040600Y0196818D01*
X0040600Y0195220D02*
X0030100Y0195220D01*
X0030100Y0193621D02*
X0040600Y0193621D01*
X0040600Y0192023D02*
X0030100Y0192023D01*
X0030100Y0190424D02*
X0040600Y0190424D01*
X0040600Y0188826D02*
X0030100Y0188826D01*
X0030100Y0187227D02*
X0040600Y0187227D01*
X0040600Y0185629D02*
X0030100Y0185629D01*
X0030100Y0184030D02*
X0040600Y0184030D01*
X0040600Y0182432D02*
X0030100Y0182432D01*
X0030100Y0180833D02*
X0040600Y0180833D01*
X0040600Y0179235D02*
X0030100Y0179235D01*
X0036947Y0177636D02*
X0040600Y0177636D01*
X0040600Y0176038D02*
X0038147Y0176038D01*
X0038650Y0174439D02*
X0040600Y0174439D01*
X0040600Y0172841D02*
X0038650Y0172841D01*
X0038015Y0171242D02*
X0040600Y0171242D01*
X0040600Y0169644D02*
X0036627Y0169644D01*
X0036538Y0168045D02*
X0039513Y0168045D01*
X0038801Y0166447D02*
X0037978Y0166447D01*
X0038184Y0161651D02*
X0038801Y0161651D01*
X0039016Y0160053D02*
X0037036Y0160053D01*
X0036536Y0158454D02*
X0064625Y0158454D01*
X0064625Y0159284D02*
X0064625Y0157316D01*
X0066016Y0155925D01*
X0067625Y0155925D01*
X0067625Y0154316D01*
X0069016Y0152925D01*
X0070984Y0152925D01*
X0072375Y0154316D01*
X0072375Y0155925D01*
X0073625Y0155925D01*
X0073625Y0155316D01*
X0075016Y0153925D01*
X0075263Y0153925D01*
X0072265Y0151200D01*
X0072213Y0151200D01*
X0071689Y0150676D01*
X0071140Y0150176D01*
X0071137Y0150124D01*
X0071100Y0150087D01*
X0071100Y0149345D01*
X0071065Y0148604D01*
X0071100Y0148565D01*
X0071100Y0141759D01*
X0070625Y0141284D01*
X0070625Y0139316D01*
X0072016Y0137925D01*
X0073984Y0137925D01*
X0075375Y0139316D01*
X0075375Y0141284D01*
X0074900Y0141759D01*
X0074900Y0148459D01*
X0079235Y0152400D01*
X0079287Y0152400D01*
X0079811Y0152924D01*
X0080360Y0153423D01*
X0080363Y0153476D01*
X0080400Y0153513D01*
X0080400Y0154255D01*
X0080435Y0154996D01*
X0080400Y0155035D01*
X0080400Y0183087D01*
X0075375Y0188112D01*
X0075375Y0188784D01*
X0073984Y0190175D01*
X0072375Y0190175D01*
X0072375Y0191784D01*
X0070984Y0193175D01*
X0069375Y0193175D01*
X0069375Y0194784D01*
X0067984Y0196175D01*
X0066016Y0196175D01*
X0064625Y0194784D01*
X0064625Y0192816D01*
X0065100Y0192341D01*
X0065100Y0159759D01*
X0064625Y0159284D01*
X0065100Y0160053D02*
X0053984Y0160053D01*
X0054199Y0161651D02*
X0065100Y0161651D01*
X0065100Y0163250D02*
X0054199Y0163250D01*
X0054199Y0164848D02*
X0065100Y0164848D01*
X0065100Y0166447D02*
X0054199Y0166447D01*
X0053487Y0168045D02*
X0065100Y0168045D01*
X0065100Y0169644D02*
X0052140Y0169644D01*
X0052140Y0171242D02*
X0065100Y0171242D01*
X0065100Y0172841D02*
X0052140Y0172841D01*
X0052140Y0174439D02*
X0065100Y0174439D01*
X0065100Y0176038D02*
X0052140Y0176038D01*
X0052140Y0177636D02*
X0065100Y0177636D01*
X0065100Y0179235D02*
X0052140Y0179235D01*
X0052140Y0180833D02*
X0065100Y0180833D01*
X0065100Y0182432D02*
X0052140Y0182432D01*
X0052140Y0184030D02*
X0065100Y0184030D01*
X0065100Y0185629D02*
X0052140Y0185629D01*
X0052140Y0187227D02*
X0065100Y0187227D01*
X0065100Y0188826D02*
X0052140Y0188826D01*
X0052140Y0190424D02*
X0065100Y0190424D01*
X0065100Y0192023D02*
X0052140Y0192023D01*
X0052573Y0193621D02*
X0052861Y0193621D01*
X0056261Y0193621D02*
X0057220Y0193621D01*
X0057220Y0195220D02*
X0056261Y0195220D01*
X0056261Y0196818D02*
X0057220Y0196818D01*
X0057220Y0198417D02*
X0056261Y0198417D01*
X0056261Y0200015D02*
X0057220Y0200015D01*
X0057220Y0201614D02*
X0056261Y0201614D01*
X0056261Y0203212D02*
X0057220Y0203212D01*
X0057220Y0204811D02*
X0056261Y0204811D01*
X0056261Y0206409D02*
X0057220Y0206409D01*
X0057220Y0208008D02*
X0056261Y0208008D01*
X0056261Y0209606D02*
X0057220Y0209606D01*
X0057220Y0211205D02*
X0056261Y0211205D01*
X0056261Y0212803D02*
X0057220Y0212803D01*
X0057220Y0214280D02*
X0061099Y0214280D01*
X0061099Y0216990D01*
X0060977Y0217448D01*
X0060740Y0217858D01*
X0060404Y0218193D01*
X0059994Y0218430D01*
X0059536Y0218553D01*
X0057220Y0218553D01*
X0057220Y0214280D01*
X0057220Y0214402D02*
X0056261Y0214402D01*
X0056261Y0216001D02*
X0057220Y0216001D01*
X0057220Y0217599D02*
X0056261Y0217599D01*
X0060889Y0217599D02*
X0074600Y0217599D01*
X0074600Y0218341D02*
X0074600Y0216087D01*
X0069188Y0210675D01*
X0068516Y0210675D01*
X0067125Y0209284D01*
X0067125Y0207316D01*
X0068516Y0205925D01*
X0070484Y0205925D01*
X0071875Y0207316D01*
X0071875Y0207988D01*
X0078400Y0214513D01*
X0078400Y0218341D01*
X0078875Y0218816D01*
X0078875Y0220784D01*
X0077484Y0222175D01*
X0075516Y0222175D01*
X0074125Y0220784D01*
X0074125Y0218816D01*
X0074600Y0218341D01*
X0074125Y0219198D02*
X0051660Y0219198D01*
X0051660Y0220796D02*
X0074137Y0220796D01*
X0074514Y0216001D02*
X0061099Y0216001D01*
X0061099Y0214402D02*
X0072915Y0214402D01*
X0071316Y0212803D02*
X0061099Y0212803D01*
X0061099Y0211205D02*
X0069718Y0211205D01*
X0067448Y0209606D02*
X0060885Y0209606D01*
X0061099Y0208008D02*
X0067125Y0208008D01*
X0068032Y0206409D02*
X0061099Y0206409D01*
X0061099Y0204811D02*
X0139824Y0204811D01*
X0139984Y0204695D02*
X0140657Y0204352D01*
X0141376Y0204118D01*
X0142122Y0204000D01*
X0142300Y0204000D01*
X0142300Y0211600D01*
X0142700Y0211600D01*
X0142700Y0212000D01*
X0147300Y0212000D01*
X0147300Y0215178D01*
X0147182Y0215924D01*
X0146948Y0216643D01*
X0146605Y0217316D01*
X0146161Y0217927D01*
X0145627Y0218461D01*
X0145016Y0218905D01*
X0144343Y0219248D01*
X0143624Y0219482D01*
X0142878Y0219600D01*
X0142700Y0219600D01*
X0142700Y0212000D01*
X0142300Y0212000D01*
X0142300Y0219600D01*
X0142122Y0219600D01*
X0141376Y0219482D01*
X0140657Y0219248D01*
X0139984Y0218905D01*
X0139373Y0218461D01*
X0138839Y0217927D01*
X0138395Y0217316D01*
X0138052Y0216643D01*
X0137818Y0215924D01*
X0137700Y0215178D01*
X0137700Y0212000D01*
X0142300Y0212000D01*
X0142300Y0211600D01*
X0137700Y0211600D01*
X0137700Y0208422D01*
X0137818Y0207676D01*
X0138052Y0206957D01*
X0138395Y0206284D01*
X0138839Y0205673D01*
X0139373Y0205139D01*
X0139984Y0204695D01*
X0142300Y0204811D02*
X0142700Y0204811D01*
X0142700Y0204000D02*
X0142878Y0204000D01*
X0143624Y0204118D01*
X0144343Y0204352D01*
X0145016Y0204695D01*
X0145627Y0205139D01*
X0146161Y0205673D01*
X0146605Y0206284D01*
X0146948Y0206957D01*
X0147182Y0207676D01*
X0147300Y0208422D01*
X0147300Y0211600D01*
X0142700Y0211600D01*
X0142700Y0204000D01*
X0142700Y0206409D02*
X0142300Y0206409D01*
X0142300Y0208008D02*
X0142700Y0208008D01*
X0142700Y0209606D02*
X0142300Y0209606D01*
X0142300Y0211205D02*
X0142700Y0211205D01*
X0142700Y0212803D02*
X0142300Y0212803D01*
X0142300Y0214402D02*
X0142700Y0214402D01*
X0142700Y0216001D02*
X0142300Y0216001D01*
X0142300Y0217599D02*
X0142700Y0217599D01*
X0142700Y0219198D02*
X0142300Y0219198D01*
X0140558Y0219198D02*
X0078875Y0219198D01*
X0078863Y0220796D02*
X0255650Y0220796D01*
X0255650Y0219198D02*
X0218381Y0219198D01*
X0218375Y0219200D02*
X0216625Y0219200D01*
X0215008Y0218530D01*
X0213770Y0217292D01*
X0213100Y0215675D01*
X0213100Y0207925D01*
X0213770Y0206308D01*
X0215008Y0205070D01*
X0216625Y0204400D01*
X0218375Y0204400D01*
X0219992Y0205070D01*
X0221230Y0206308D01*
X0221900Y0207925D01*
X0221900Y0215675D01*
X0221230Y0217292D01*
X0219992Y0218530D01*
X0218375Y0219200D01*
X0216619Y0219198D02*
X0208381Y0219198D01*
X0208375Y0219200D02*
X0206625Y0219200D01*
X0205008Y0218530D01*
X0203770Y0217292D01*
X0203100Y0215675D01*
X0203100Y0207925D01*
X0203770Y0206308D01*
X0205008Y0205070D01*
X0206625Y0204400D01*
X0208375Y0204400D01*
X0209992Y0205070D01*
X0211230Y0206308D01*
X0211900Y0207925D01*
X0211900Y0215675D01*
X0211230Y0217292D01*
X0209992Y0218530D01*
X0208375Y0219200D01*
X0206619Y0219198D02*
X0198381Y0219198D01*
X0198375Y0219200D02*
X0196625Y0219200D01*
X0195008Y0218530D01*
X0193770Y0217292D01*
X0193100Y0215675D01*
X0193100Y0207925D01*
X0193770Y0206308D01*
X0195008Y0205070D01*
X0196625Y0204400D01*
X0198375Y0204400D01*
X0199992Y0205070D01*
X0201230Y0206308D01*
X0201900Y0207925D01*
X0201900Y0215675D01*
X0201230Y0217292D01*
X0199992Y0218530D01*
X0198375Y0219200D01*
X0196619Y0219198D02*
X0189442Y0219198D01*
X0189343Y0219248D02*
X0188624Y0219482D01*
X0187878Y0219600D01*
X0187700Y0219600D01*
X0187700Y0212000D01*
X0192300Y0212000D01*
X0192300Y0215178D01*
X0192182Y0215924D01*
X0191948Y0216643D01*
X0191605Y0217316D01*
X0191161Y0217927D01*
X0190627Y0218461D01*
X0190016Y0218905D01*
X0189343Y0219248D01*
X0187700Y0219198D02*
X0187300Y0219198D01*
X0187300Y0219600D02*
X0187122Y0219600D01*
X0186376Y0219482D01*
X0185657Y0219248D01*
X0184984Y0218905D01*
X0184373Y0218461D01*
X0183839Y0217927D01*
X0183395Y0217316D01*
X0183052Y0216643D01*
X0182818Y0215924D01*
X0182700Y0215178D01*
X0182700Y0212000D01*
X0187300Y0212000D01*
X0187300Y0219600D01*
X0185558Y0219198D02*
X0173381Y0219198D01*
X0173375Y0219200D02*
X0171625Y0219200D01*
X0170008Y0218530D01*
X0168770Y0217292D01*
X0168100Y0215675D01*
X0168100Y0207925D01*
X0168770Y0206308D01*
X0170008Y0205070D01*
X0171625Y0204400D01*
X0173375Y0204400D01*
X0174992Y0205070D01*
X0176230Y0206308D01*
X0176900Y0207925D01*
X0176900Y0215675D01*
X0176230Y0217292D01*
X0174992Y0218530D01*
X0173375Y0219200D01*
X0171619Y0219198D02*
X0163381Y0219198D01*
X0163375Y0219200D02*
X0161625Y0219200D01*
X0160008Y0218530D01*
X0158770Y0217292D01*
X0158100Y0215675D01*
X0158100Y0207925D01*
X0158770Y0206308D01*
X0160008Y0205070D01*
X0161625Y0204400D01*
X0163375Y0204400D01*
X0164992Y0205070D01*
X0166230Y0206308D01*
X0166900Y0207925D01*
X0166900Y0215675D01*
X0166230Y0217292D01*
X0164992Y0218530D01*
X0163375Y0219200D01*
X0161619Y0219198D02*
X0153381Y0219198D01*
X0153375Y0219200D02*
X0151625Y0219200D01*
X0150008Y0218530D01*
X0148770Y0217292D01*
X0148100Y0215675D01*
X0148100Y0207925D01*
X0148770Y0206308D01*
X0150008Y0205070D01*
X0151625Y0204400D01*
X0153375Y0204400D01*
X0154992Y0205070D01*
X0156230Y0206308D01*
X0156900Y0207925D01*
X0156900Y0215675D01*
X0156230Y0217292D01*
X0154992Y0218530D01*
X0153375Y0219200D01*
X0151619Y0219198D02*
X0144442Y0219198D01*
X0146399Y0217599D02*
X0149076Y0217599D01*
X0148235Y0216001D02*
X0147157Y0216001D01*
X0147300Y0214402D02*
X0148100Y0214402D01*
X0148100Y0212803D02*
X0147300Y0212803D01*
X0147300Y0211205D02*
X0148100Y0211205D01*
X0148100Y0209606D02*
X0147300Y0209606D01*
X0147234Y0208008D02*
X0148100Y0208008D01*
X0148728Y0206409D02*
X0146669Y0206409D01*
X0145176Y0204811D02*
X0150633Y0204811D01*
X0154367Y0204811D02*
X0160633Y0204811D01*
X0158728Y0206409D02*
X0156272Y0206409D01*
X0156900Y0208008D02*
X0158100Y0208008D01*
X0158100Y0209606D02*
X0156900Y0209606D01*
X0156900Y0211205D02*
X0158100Y0211205D01*
X0158100Y0212803D02*
X0156900Y0212803D01*
X0156900Y0214402D02*
X0158100Y0214402D01*
X0158235Y0216001D02*
X0156765Y0216001D01*
X0155923Y0217599D02*
X0159076Y0217599D01*
X0165923Y0217599D02*
X0169076Y0217599D01*
X0168235Y0216001D02*
X0166765Y0216001D01*
X0166900Y0214402D02*
X0168100Y0214402D01*
X0168100Y0212803D02*
X0166900Y0212803D01*
X0166900Y0211205D02*
X0168100Y0211205D01*
X0168100Y0209606D02*
X0166900Y0209606D01*
X0166900Y0208008D02*
X0168100Y0208008D01*
X0168728Y0206409D02*
X0166272Y0206409D01*
X0164367Y0204811D02*
X0170633Y0204811D01*
X0174367Y0204811D02*
X0184824Y0204811D01*
X0184984Y0204695D02*
X0184373Y0205139D01*
X0183839Y0205673D01*
X0183395Y0206284D01*
X0183052Y0206957D01*
X0182818Y0207676D01*
X0182700Y0208422D01*
X0182700Y0211600D01*
X0187300Y0211600D01*
X0187700Y0211600D01*
X0187700Y0212000D01*
X0187300Y0212000D01*
X0187300Y0211600D01*
X0187300Y0204000D01*
X0187122Y0204000D01*
X0186376Y0204118D01*
X0185657Y0204352D01*
X0184984Y0204695D01*
X0187300Y0204811D02*
X0187700Y0204811D01*
X0187700Y0204000D02*
X0187878Y0204000D01*
X0188624Y0204118D01*
X0189343Y0204352D01*
X0190016Y0204695D01*
X0190627Y0205139D01*
X0191161Y0205673D01*
X0191605Y0206284D01*
X0191948Y0206957D01*
X0192182Y0207676D01*
X0192300Y0208422D01*
X0192300Y0211600D01*
X0187700Y0211600D01*
X0187700Y0204000D01*
X0187700Y0206409D02*
X0187300Y0206409D01*
X0187300Y0208008D02*
X0187700Y0208008D01*
X0187700Y0209606D02*
X0187300Y0209606D01*
X0187300Y0211205D02*
X0187700Y0211205D01*
X0187700Y0212803D02*
X0187300Y0212803D01*
X0187300Y0214402D02*
X0187700Y0214402D01*
X0187700Y0216001D02*
X0187300Y0216001D01*
X0187300Y0217599D02*
X0187700Y0217599D01*
X0183601Y0217599D02*
X0175923Y0217599D01*
X0176765Y0216001D02*
X0182843Y0216001D01*
X0182700Y0214402D02*
X0176900Y0214402D01*
X0176900Y0212803D02*
X0182700Y0212803D01*
X0182700Y0211205D02*
X0176900Y0211205D01*
X0176900Y0209606D02*
X0182700Y0209606D01*
X0182766Y0208008D02*
X0176900Y0208008D01*
X0176272Y0206409D02*
X0183331Y0206409D01*
X0190176Y0204811D02*
X0195633Y0204811D01*
X0193728Y0206409D02*
X0191669Y0206409D01*
X0192234Y0208008D02*
X0193100Y0208008D01*
X0193100Y0209606D02*
X0192300Y0209606D01*
X0192300Y0211205D02*
X0193100Y0211205D01*
X0193100Y0212803D02*
X0192300Y0212803D01*
X0192300Y0214402D02*
X0193100Y0214402D01*
X0193235Y0216001D02*
X0192157Y0216001D01*
X0191399Y0217599D02*
X0194076Y0217599D01*
X0200923Y0217599D02*
X0204076Y0217599D01*
X0203235Y0216001D02*
X0201765Y0216001D01*
X0201900Y0214402D02*
X0203100Y0214402D01*
X0203100Y0212803D02*
X0201900Y0212803D01*
X0201900Y0211205D02*
X0203100Y0211205D01*
X0203100Y0209606D02*
X0201900Y0209606D01*
X0201900Y0208008D02*
X0203100Y0208008D01*
X0203728Y0206409D02*
X0201272Y0206409D01*
X0199367Y0204811D02*
X0205633Y0204811D01*
X0209367Y0204811D02*
X0215633Y0204811D01*
X0213728Y0206409D02*
X0211272Y0206409D01*
X0211900Y0208008D02*
X0213100Y0208008D01*
X0213100Y0209606D02*
X0211900Y0209606D01*
X0211900Y0211205D02*
X0213100Y0211205D01*
X0213100Y0212803D02*
X0211900Y0212803D01*
X0211900Y0214402D02*
X0213100Y0214402D01*
X0213235Y0216001D02*
X0211765Y0216001D01*
X0210923Y0217599D02*
X0214076Y0217599D01*
X0220923Y0217599D02*
X0255650Y0217599D01*
X0255650Y0216001D02*
X0221765Y0216001D01*
X0221900Y0214402D02*
X0255650Y0214402D01*
X0255650Y0212803D02*
X0221900Y0212803D01*
X0221900Y0211205D02*
X0255650Y0211205D01*
X0255650Y0209606D02*
X0221900Y0209606D01*
X0221900Y0208008D02*
X0255650Y0208008D01*
X0255650Y0206409D02*
X0221272Y0206409D01*
X0219367Y0204811D02*
X0255650Y0204811D01*
X0255650Y0203212D02*
X0061099Y0203212D01*
X0060880Y0201614D02*
X0062955Y0201614D01*
X0063016Y0201675D02*
X0061625Y0200284D01*
X0061625Y0198316D01*
X0063016Y0196925D01*
X0064984Y0196925D01*
X0065459Y0197400D01*
X0071041Y0197400D01*
X0071516Y0196925D01*
X0073484Y0196925D01*
X0074875Y0198316D01*
X0074875Y0200284D01*
X0073484Y0201675D01*
X0071516Y0201675D01*
X0071041Y0201200D01*
X0065459Y0201200D01*
X0064984Y0201675D01*
X0063016Y0201675D01*
X0065045Y0201614D02*
X0071455Y0201614D01*
X0073545Y0201614D02*
X0255650Y0201614D01*
X0255650Y0200015D02*
X0074875Y0200015D01*
X0074875Y0198417D02*
X0139329Y0198417D01*
X0139373Y0198461D02*
X0138839Y0197927D01*
X0138395Y0197316D01*
X0138052Y0196643D01*
X0137818Y0195924D01*
X0137700Y0195178D01*
X0137700Y0192000D01*
X0142300Y0192000D01*
X0142300Y0199600D01*
X0142122Y0199600D01*
X0141376Y0199482D01*
X0140657Y0199248D01*
X0139984Y0198905D01*
X0139373Y0198461D01*
X0138141Y0196818D02*
X0061099Y0196818D01*
X0061099Y0195220D02*
X0065061Y0195220D01*
X0064625Y0193621D02*
X0060619Y0193621D01*
X0061099Y0198417D02*
X0061625Y0198417D01*
X0061625Y0200015D02*
X0061099Y0200015D01*
X0068939Y0195220D02*
X0137707Y0195220D01*
X0137700Y0193621D02*
X0069375Y0193621D01*
X0072136Y0192023D02*
X0082531Y0192023D01*
X0082088Y0191580D02*
X0081475Y0190101D01*
X0081475Y0188499D01*
X0082088Y0187020D01*
X0082600Y0186508D01*
X0082600Y0147632D01*
X0081801Y0146833D01*
X0081801Y0139767D01*
X0082621Y0138947D01*
X0082860Y0138947D01*
X0082860Y0135504D01*
X0082600Y0134877D01*
X0082600Y0133723D01*
X0082860Y0133096D01*
X0082860Y0116153D01*
X0082621Y0116153D01*
X0081801Y0115333D01*
X0081801Y0108267D01*
X0082621Y0107447D01*
X0088899Y0107447D01*
X0089223Y0107772D01*
X0089241Y0107742D01*
X0089576Y0107407D01*
X0089986Y0107170D01*
X0090444Y0107047D01*
X0092761Y0107047D01*
X0092761Y0111320D01*
X0093720Y0111320D01*
X0093720Y0107047D01*
X0096036Y0107047D01*
X0096494Y0107170D01*
X0096904Y0107407D01*
X0097240Y0107742D01*
X0097477Y0108152D01*
X0097599Y0108610D01*
X0097599Y0111320D01*
X0093720Y0111320D01*
X0093720Y0112280D01*
X0092761Y0112280D01*
X0092761Y0116553D01*
X0090444Y0116553D01*
X0089986Y0116430D01*
X0089576Y0116193D01*
X0089241Y0115858D01*
X0089223Y0115828D01*
X0088899Y0116153D01*
X0088660Y0116153D01*
X0088660Y0138947D01*
X0088899Y0138947D01*
X0089223Y0139272D01*
X0089241Y0139242D01*
X0089576Y0138907D01*
X0089986Y0138670D01*
X0090444Y0138547D01*
X0092761Y0138547D01*
X0092761Y0142820D01*
X0093720Y0142820D01*
X0093720Y0138547D01*
X0096036Y0138547D01*
X0096494Y0138670D01*
X0096904Y0138907D01*
X0097240Y0139242D01*
X0097477Y0139652D01*
X0097599Y0140110D01*
X0097599Y0142820D01*
X0093720Y0142820D01*
X0093720Y0143780D01*
X0092761Y0143780D01*
X0092761Y0148053D01*
X0090444Y0148053D01*
X0089986Y0147930D01*
X0089576Y0147693D01*
X0089241Y0147358D01*
X0089223Y0147328D01*
X0088899Y0147653D01*
X0088400Y0147653D01*
X0088400Y0186508D01*
X0088912Y0187020D01*
X0089525Y0188499D01*
X0089525Y0190101D01*
X0088912Y0191580D01*
X0087780Y0192712D01*
X0086301Y0193325D01*
X0084699Y0193325D01*
X0083220Y0192712D01*
X0082088Y0191580D01*
X0081609Y0190424D02*
X0072375Y0190424D01*
X0075333Y0188826D02*
X0081475Y0188826D01*
X0082002Y0187227D02*
X0076260Y0187227D01*
X0077858Y0185629D02*
X0082600Y0185629D01*
X0082600Y0184030D02*
X0079457Y0184030D01*
X0080400Y0182432D02*
X0082600Y0182432D01*
X0082600Y0180833D02*
X0080400Y0180833D01*
X0080400Y0179235D02*
X0082600Y0179235D01*
X0082600Y0177636D02*
X0080400Y0177636D01*
X0080400Y0176038D02*
X0082600Y0176038D01*
X0082600Y0174439D02*
X0080400Y0174439D01*
X0080400Y0172841D02*
X0082600Y0172841D01*
X0082600Y0171242D02*
X0080400Y0171242D01*
X0080400Y0169644D02*
X0082600Y0169644D01*
X0082600Y0168045D02*
X0080400Y0168045D01*
X0080400Y0166447D02*
X0082600Y0166447D01*
X0082600Y0164848D02*
X0080400Y0164848D01*
X0080400Y0163250D02*
X0082600Y0163250D01*
X0082600Y0161651D02*
X0080400Y0161651D01*
X0080400Y0160053D02*
X0082600Y0160053D01*
X0082600Y0158454D02*
X0080400Y0158454D01*
X0080400Y0156856D02*
X0082600Y0156856D01*
X0082600Y0155257D02*
X0080400Y0155257D01*
X0080400Y0153659D02*
X0082600Y0153659D01*
X0082600Y0152060D02*
X0078861Y0152060D01*
X0077102Y0150462D02*
X0082600Y0150462D01*
X0082600Y0148863D02*
X0075344Y0148863D01*
X0074900Y0147265D02*
X0082233Y0147265D01*
X0081801Y0145666D02*
X0074900Y0145666D01*
X0074900Y0144068D02*
X0081801Y0144068D01*
X0081801Y0142469D02*
X0074900Y0142469D01*
X0075375Y0140870D02*
X0081801Y0140870D01*
X0082296Y0139272D02*
X0075331Y0139272D01*
X0070669Y0139272D02*
X0030100Y0139272D01*
X0030100Y0140870D02*
X0070625Y0140870D01*
X0071100Y0142469D02*
X0030100Y0142469D01*
X0030100Y0144068D02*
X0071100Y0144068D01*
X0071100Y0145666D02*
X0030100Y0145666D01*
X0030100Y0147265D02*
X0071100Y0147265D01*
X0071077Y0148863D02*
X0036036Y0148863D01*
X0036409Y0149053D02*
X0037116Y0149567D01*
X0037733Y0150184D01*
X0038247Y0150891D01*
X0038643Y0151670D01*
X0038913Y0152500D01*
X0039048Y0153350D01*
X0033950Y0153350D01*
X0033950Y0148252D01*
X0034800Y0148387D01*
X0035630Y0148657D01*
X0036409Y0149053D01*
X0037935Y0150462D02*
X0071453Y0150462D01*
X0073212Y0152060D02*
X0038770Y0152060D01*
X0038862Y0155257D02*
X0067625Y0155257D01*
X0068283Y0153659D02*
X0033950Y0153659D01*
X0033950Y0152060D02*
X0033050Y0152060D01*
X0033050Y0150462D02*
X0033950Y0150462D01*
X0033950Y0148863D02*
X0033050Y0148863D01*
X0030964Y0148863D02*
X0030100Y0148863D01*
X0030100Y0137673D02*
X0082860Y0137673D01*
X0082860Y0136075D02*
X0030100Y0136075D01*
X0030100Y0134476D02*
X0082600Y0134476D01*
X0082860Y0132878D02*
X0030100Y0132878D01*
X0030100Y0131279D02*
X0082860Y0131279D01*
X0082860Y0129681D02*
X0030100Y0129681D01*
X0030100Y0128082D02*
X0082860Y0128082D01*
X0082860Y0126484D02*
X0030100Y0126484D01*
X0030100Y0124885D02*
X0082860Y0124885D01*
X0082860Y0123287D02*
X0067872Y0123287D01*
X0068375Y0122784D02*
X0066984Y0124175D01*
X0065016Y0124175D01*
X0063625Y0122784D01*
X0063625Y0122112D01*
X0056600Y0115087D01*
X0056600Y0109259D01*
X0056125Y0108784D01*
X0056125Y0106816D01*
X0057516Y0105425D01*
X0059484Y0105425D01*
X0060600Y0106541D01*
X0060600Y0103759D01*
X0060125Y0103284D01*
X0060125Y0101316D01*
X0060741Y0100700D01*
X0057213Y0100700D01*
X0055688Y0099175D01*
X0055016Y0099175D01*
X0053625Y0097784D01*
X0053625Y0095816D01*
X0055016Y0094425D01*
X0056984Y0094425D01*
X0058375Y0095816D01*
X0058375Y0096488D01*
X0058787Y0096900D01*
X0066787Y0096900D01*
X0067900Y0098013D01*
X0070400Y0100513D01*
X0070400Y0108341D01*
X0070875Y0108816D01*
X0070875Y0110784D01*
X0069484Y0112175D01*
X0067516Y0112175D01*
X0066125Y0110784D01*
X0066125Y0108816D01*
X0066600Y0108341D01*
X0066600Y0102087D01*
X0065213Y0100700D01*
X0064259Y0100700D01*
X0064875Y0101316D01*
X0064875Y0103284D01*
X0064400Y0103759D01*
X0064400Y0113013D01*
X0065812Y0114425D01*
X0066484Y0114425D01*
X0067875Y0115816D01*
X0067875Y0117784D01*
X0066484Y0119175D01*
X0066062Y0119175D01*
X0066312Y0119425D01*
X0066984Y0119425D01*
X0068375Y0120816D01*
X0068375Y0122784D01*
X0068375Y0121688D02*
X0082860Y0121688D01*
X0082860Y0120090D02*
X0067649Y0120090D01*
X0067167Y0118491D02*
X0082860Y0118491D01*
X0082860Y0116893D02*
X0067875Y0116893D01*
X0067353Y0115294D02*
X0081801Y0115294D01*
X0081801Y0113696D02*
X0065083Y0113696D01*
X0064400Y0112097D02*
X0067439Y0112097D01*
X0066125Y0110499D02*
X0064400Y0110499D01*
X0064400Y0108900D02*
X0066125Y0108900D01*
X0066600Y0107302D02*
X0064400Y0107302D01*
X0064400Y0105703D02*
X0066600Y0105703D01*
X0066600Y0104105D02*
X0064400Y0104105D01*
X0064875Y0102506D02*
X0066600Y0102506D01*
X0065421Y0100908D02*
X0064466Y0100908D01*
X0060534Y0100908D02*
X0030100Y0100908D01*
X0030100Y0102506D02*
X0060125Y0102506D01*
X0060600Y0104105D02*
X0030100Y0104105D01*
X0030100Y0105703D02*
X0057238Y0105703D01*
X0056125Y0107302D02*
X0030100Y0107302D01*
X0030100Y0108900D02*
X0056242Y0108900D01*
X0056600Y0110499D02*
X0030100Y0110499D01*
X0030100Y0112097D02*
X0056600Y0112097D01*
X0056600Y0113696D02*
X0030100Y0113696D01*
X0030100Y0115294D02*
X0056807Y0115294D01*
X0058406Y0116893D02*
X0030100Y0116893D01*
X0030100Y0118491D02*
X0060004Y0118491D01*
X0061603Y0120090D02*
X0030100Y0120090D01*
X0030100Y0121688D02*
X0063201Y0121688D01*
X0064128Y0123287D02*
X0030100Y0123287D01*
X0030100Y0099309D02*
X0055822Y0099309D01*
X0053625Y0097711D02*
X0030100Y0097711D01*
X0030100Y0096112D02*
X0039706Y0096112D01*
X0039508Y0096030D02*
X0038270Y0094792D01*
X0037600Y0093175D01*
X0037600Y0091425D01*
X0038270Y0089808D01*
X0039508Y0088570D01*
X0041125Y0087900D01*
X0048875Y0087900D01*
X0050492Y0088570D01*
X0051730Y0089808D01*
X0052400Y0091425D01*
X0052400Y0093175D01*
X0051730Y0094792D01*
X0050492Y0096030D01*
X0048875Y0096700D01*
X0041125Y0096700D01*
X0039508Y0096030D01*
X0038154Y0094514D02*
X0030100Y0094514D01*
X0030100Y0092915D02*
X0037600Y0092915D01*
X0037645Y0091317D02*
X0030100Y0091317D01*
X0030100Y0089718D02*
X0038359Y0089718D01*
X0040595Y0088120D02*
X0030100Y0088120D01*
X0030100Y0086521D02*
X0040693Y0086521D01*
X0041125Y0086700D02*
X0039508Y0086030D01*
X0038270Y0084792D01*
X0037600Y0083175D01*
X0037600Y0081425D01*
X0038270Y0079808D01*
X0039508Y0078570D01*
X0041125Y0077900D01*
X0048875Y0077900D01*
X0050492Y0078570D01*
X0051730Y0079808D01*
X0052400Y0081425D01*
X0052400Y0083175D01*
X0051730Y0084792D01*
X0050492Y0086030D01*
X0048875Y0086700D01*
X0041125Y0086700D01*
X0038400Y0084923D02*
X0030100Y0084923D01*
X0030100Y0083324D02*
X0037662Y0083324D01*
X0037600Y0081726D02*
X0030100Y0081726D01*
X0030100Y0080127D02*
X0038138Y0080127D01*
X0039607Y0078529D02*
X0030100Y0078529D01*
X0030100Y0076930D02*
X0138198Y0076930D01*
X0138052Y0076643D02*
X0137818Y0075924D01*
X0137700Y0075178D01*
X0137700Y0072000D01*
X0142300Y0072000D01*
X0142300Y0079600D01*
X0142122Y0079600D01*
X0141376Y0079482D01*
X0140657Y0079248D01*
X0139984Y0078905D01*
X0139373Y0078461D01*
X0138839Y0077927D01*
X0138395Y0077316D01*
X0138052Y0076643D01*
X0137724Y0075332D02*
X0051191Y0075332D01*
X0051730Y0074792D02*
X0050492Y0076030D01*
X0048875Y0076700D01*
X0041125Y0076700D01*
X0039508Y0076030D01*
X0038270Y0074792D01*
X0037600Y0073175D01*
X0037600Y0071425D01*
X0038270Y0069808D01*
X0039508Y0068570D01*
X0041125Y0067900D01*
X0048875Y0067900D01*
X0050492Y0068570D01*
X0051730Y0069808D01*
X0052400Y0071425D01*
X0052400Y0073175D01*
X0051730Y0074792D01*
X0052169Y0073733D02*
X0137700Y0073733D01*
X0137700Y0072134D02*
X0052400Y0072134D01*
X0052032Y0070536D02*
X0137700Y0070536D01*
X0137700Y0071600D02*
X0137700Y0068422D01*
X0137818Y0067676D01*
X0138052Y0066957D01*
X0138395Y0066284D01*
X0138839Y0065673D01*
X0139373Y0065139D01*
X0139984Y0064695D01*
X0140657Y0064352D01*
X0141376Y0064118D01*
X0142122Y0064000D01*
X0142300Y0064000D01*
X0142300Y0071600D01*
X0142700Y0071600D01*
X0142700Y0072000D01*
X0147300Y0072000D01*
X0147300Y0075178D01*
X0147182Y0075924D01*
X0146948Y0076643D01*
X0146605Y0077316D01*
X0146161Y0077927D01*
X0145627Y0078461D01*
X0145016Y0078905D01*
X0144343Y0079248D01*
X0143624Y0079482D01*
X0142878Y0079600D01*
X0142700Y0079600D01*
X0142700Y0072000D01*
X0142300Y0072000D01*
X0142300Y0071600D01*
X0137700Y0071600D01*
X0137700Y0068937D02*
X0050860Y0068937D01*
X0049843Y0066748D02*
X0049124Y0066982D01*
X0048378Y0067100D01*
X0045200Y0067100D01*
X0045200Y0062500D01*
X0044800Y0062500D01*
X0044800Y0067100D01*
X0041622Y0067100D01*
X0040876Y0066982D01*
X0040157Y0066748D01*
X0039484Y0066405D01*
X0038873Y0065961D01*
X0038339Y0065427D01*
X0037895Y0064816D01*
X0037552Y0064143D01*
X0037318Y0063424D01*
X0037200Y0062678D01*
X0037200Y0062500D01*
X0044800Y0062500D01*
X0044800Y0062100D01*
X0045200Y0062100D01*
X0045200Y0062500D01*
X0052800Y0062500D01*
X0052800Y0062678D01*
X0052682Y0063424D01*
X0052448Y0064143D01*
X0052105Y0064816D01*
X0051661Y0065427D01*
X0051127Y0065961D01*
X0050516Y0066405D01*
X0049843Y0066748D01*
X0051348Y0065740D02*
X0138790Y0065740D01*
X0137928Y0067339D02*
X0030100Y0067339D01*
X0030100Y0068937D02*
X0039140Y0068937D01*
X0037968Y0070536D02*
X0030100Y0070536D01*
X0030100Y0072134D02*
X0037600Y0072134D01*
X0037831Y0073733D02*
X0030100Y0073733D01*
X0030100Y0075332D02*
X0038809Y0075332D01*
X0038652Y0065740D02*
X0030100Y0065740D01*
X0030100Y0064142D02*
X0037551Y0064142D01*
X0037200Y0062543D02*
X0030100Y0062543D01*
X0030100Y0060945D02*
X0037393Y0060945D01*
X0037318Y0061176D02*
X0037552Y0060457D01*
X0037895Y0059784D01*
X0038339Y0059173D01*
X0038873Y0058639D01*
X0039484Y0058195D01*
X0040157Y0057852D01*
X0040876Y0057618D01*
X0041622Y0057500D01*
X0044800Y0057500D01*
X0044800Y0062100D01*
X0037200Y0062100D01*
X0037200Y0061922D01*
X0037318Y0061176D01*
X0038213Y0059346D02*
X0030100Y0059346D01*
X0030100Y0057748D02*
X0040477Y0057748D01*
X0041125Y0056700D02*
X0039508Y0056030D01*
X0038270Y0054792D01*
X0037600Y0053175D01*
X0037600Y0051425D01*
X0038270Y0049808D01*
X0039508Y0048570D01*
X0041125Y0047900D01*
X0048875Y0047900D01*
X0050492Y0048570D01*
X0051730Y0049808D01*
X0052400Y0051425D01*
X0052400Y0053175D01*
X0051730Y0054792D01*
X0050492Y0056030D01*
X0048875Y0056700D01*
X0041125Y0056700D01*
X0039796Y0056149D02*
X0030100Y0056149D01*
X0030100Y0054551D02*
X0038170Y0054551D01*
X0037600Y0052952D02*
X0030100Y0052952D01*
X0030100Y0051354D02*
X0037629Y0051354D01*
X0038322Y0049755D02*
X0030100Y0049755D01*
X0030100Y0048157D02*
X0040505Y0048157D01*
X0041125Y0046700D02*
X0039508Y0046030D01*
X0038270Y0044792D01*
X0037600Y0043175D01*
X0037600Y0041425D01*
X0038270Y0039808D01*
X0039508Y0038570D01*
X0041125Y0037900D01*
X0048875Y0037900D01*
X0050492Y0038570D01*
X0051730Y0039808D01*
X0052400Y0041425D01*
X0052400Y0043175D01*
X0051730Y0044792D01*
X0050492Y0046030D01*
X0048875Y0046700D01*
X0041125Y0046700D01*
X0040783Y0046558D02*
X0030100Y0046558D01*
X0030100Y0044960D02*
X0038437Y0044960D01*
X0037677Y0043361D02*
X0030100Y0043361D01*
X0030100Y0041763D02*
X0037600Y0041763D01*
X0038122Y0040164D02*
X0030100Y0040164D01*
X0030100Y0038566D02*
X0039517Y0038566D01*
X0041807Y0033838D02*
X0040654Y0033222D01*
X0039568Y0032496D01*
X0038557Y0031667D01*
X0037633Y0030742D01*
X0036804Y0029732D01*
X0036078Y0028646D01*
X0035462Y0027493D01*
X0034962Y0026286D01*
X0034583Y0025036D01*
X0034328Y0023754D01*
X0034214Y0022600D01*
X0046700Y0022600D01*
X0046700Y0035086D01*
X0045546Y0034972D01*
X0044264Y0034717D01*
X0043014Y0034338D01*
X0041807Y0033838D01*
X0041681Y0033770D02*
X0030100Y0033770D01*
X0030100Y0032172D02*
X0039173Y0032172D01*
X0037495Y0030573D02*
X0030100Y0030573D01*
X0030100Y0028975D02*
X0036298Y0028975D01*
X0035414Y0027376D02*
X0030100Y0027376D01*
X0030100Y0025778D02*
X0034808Y0025778D01*
X0034413Y0024179D02*
X0030100Y0024179D01*
X0030100Y0022581D02*
X0046700Y0022581D01*
X0046700Y0022600D02*
X0046700Y0021000D01*
X0048300Y0021000D01*
X0048300Y0022600D01*
X0060786Y0022600D01*
X0060672Y0023754D01*
X0060417Y0025036D01*
X0060038Y0026286D01*
X0059538Y0027493D01*
X0058922Y0028646D01*
X0058196Y0029732D01*
X0057367Y0030742D01*
X0056442Y0031667D01*
X0055432Y0032496D01*
X0054346Y0033222D01*
X0053193Y0033838D01*
X0051986Y0034338D01*
X0050736Y0034717D01*
X0049454Y0034972D01*
X0048300Y0035086D01*
X0048300Y0022600D01*
X0046700Y0022600D01*
X0046700Y0024179D02*
X0048300Y0024179D01*
X0048300Y0022581D02*
X0238700Y0022581D01*
X0238700Y0022600D02*
X0238700Y0021000D01*
X0240300Y0021000D01*
X0240300Y0022600D01*
X0252786Y0022600D01*
X0252672Y0023754D01*
X0252417Y0025036D01*
X0252038Y0026286D01*
X0251538Y0027493D01*
X0250922Y0028646D01*
X0250196Y0029732D01*
X0249367Y0030742D01*
X0248442Y0031667D01*
X0247432Y0032496D01*
X0246346Y0033222D01*
X0245193Y0033838D01*
X0243986Y0034338D01*
X0242736Y0034717D01*
X0241454Y0034972D01*
X0240300Y0035086D01*
X0240300Y0022600D01*
X0238700Y0022600D01*
X0238700Y0035086D01*
X0237546Y0034972D01*
X0236264Y0034717D01*
X0235014Y0034338D01*
X0233807Y0033838D01*
X0232654Y0033222D01*
X0231568Y0032496D01*
X0230557Y0031667D01*
X0229633Y0030742D01*
X0228804Y0029732D01*
X0228078Y0028646D01*
X0227462Y0027493D01*
X0226962Y0026286D01*
X0226583Y0025036D01*
X0226328Y0023754D01*
X0226214Y0022600D01*
X0238700Y0022600D01*
X0238700Y0024179D02*
X0240300Y0024179D01*
X0240300Y0022581D02*
X0255650Y0022581D01*
X0255650Y0024179D02*
X0252587Y0024179D01*
X0252192Y0025778D02*
X0255650Y0025778D01*
X0255650Y0027376D02*
X0251586Y0027376D01*
X0250702Y0028975D02*
X0255650Y0028975D01*
X0255650Y0030573D02*
X0249505Y0030573D01*
X0247827Y0032172D02*
X0255650Y0032172D01*
X0255650Y0033770D02*
X0245319Y0033770D01*
X0240300Y0033770D02*
X0238700Y0033770D01*
X0238700Y0032172D02*
X0240300Y0032172D01*
X0240300Y0030573D02*
X0238700Y0030573D01*
X0238700Y0028975D02*
X0240300Y0028975D01*
X0240300Y0027376D02*
X0238700Y0027376D01*
X0238700Y0025778D02*
X0240300Y0025778D01*
X0240300Y0021000D02*
X0252786Y0021000D01*
X0252672Y0019846D01*
X0252417Y0018564D01*
X0252038Y0017314D01*
X0251538Y0016107D01*
X0250922Y0014954D01*
X0250196Y0013868D01*
X0249367Y0012857D01*
X0248442Y0011933D01*
X0247432Y0011104D01*
X0246346Y0010378D01*
X0245193Y0009762D01*
X0243986Y0009262D01*
X0242736Y0008883D01*
X0241454Y0008628D01*
X0240300Y0008514D01*
X0240300Y0021000D01*
X0240300Y0020982D02*
X0238700Y0020982D01*
X0238700Y0021000D02*
X0238700Y0008514D01*
X0237546Y0008628D01*
X0236264Y0008883D01*
X0235014Y0009262D01*
X0233807Y0009762D01*
X0232654Y0010378D01*
X0231568Y0011104D01*
X0230557Y0011933D01*
X0229633Y0012857D01*
X0228804Y0013868D01*
X0228078Y0014954D01*
X0227462Y0016107D01*
X0226962Y0017314D01*
X0226583Y0018564D01*
X0226328Y0019846D01*
X0226214Y0021000D01*
X0238700Y0021000D01*
X0238700Y0019384D02*
X0240300Y0019384D01*
X0240300Y0017785D02*
X0238700Y0017785D01*
X0238700Y0016187D02*
X0240300Y0016187D01*
X0240300Y0014588D02*
X0238700Y0014588D01*
X0238700Y0012990D02*
X0240300Y0012990D01*
X0240300Y0011391D02*
X0238700Y0011391D01*
X0238700Y0009793D02*
X0240300Y0009793D01*
X0245250Y0009793D02*
X0255650Y0009793D01*
X0255650Y0011391D02*
X0247782Y0011391D01*
X0249475Y0012990D02*
X0255650Y0012990D01*
X0255650Y0014588D02*
X0250677Y0014588D01*
X0251571Y0016187D02*
X0255650Y0016187D01*
X0255650Y0017785D02*
X0252181Y0017785D01*
X0252580Y0019384D02*
X0255650Y0019384D01*
X0255650Y0020982D02*
X0252784Y0020982D01*
X0255650Y0035369D02*
X0221900Y0035369D01*
X0221900Y0035675D02*
X0221230Y0037292D01*
X0219992Y0038530D01*
X0218375Y0039200D01*
X0216625Y0039200D01*
X0215008Y0038530D01*
X0213770Y0037292D01*
X0213100Y0035675D01*
X0213100Y0027925D01*
X0213770Y0026308D01*
X0215008Y0025070D01*
X0216625Y0024400D01*
X0218375Y0024400D01*
X0219992Y0025070D01*
X0221230Y0026308D01*
X0221900Y0027925D01*
X0221900Y0035675D01*
X0221365Y0036967D02*
X0255650Y0036967D01*
X0255650Y0038566D02*
X0219906Y0038566D01*
X0215094Y0038566D02*
X0209906Y0038566D01*
X0209992Y0038530D02*
X0208375Y0039200D01*
X0206625Y0039200D01*
X0205008Y0038530D01*
X0203770Y0037292D01*
X0203100Y0035675D01*
X0203100Y0027925D01*
X0203770Y0026308D01*
X0205008Y0025070D01*
X0206625Y0024400D01*
X0208375Y0024400D01*
X0209992Y0025070D01*
X0211230Y0026308D01*
X0211900Y0027925D01*
X0211900Y0035675D01*
X0211230Y0037292D01*
X0209992Y0038530D01*
X0211365Y0036967D02*
X0213635Y0036967D01*
X0213100Y0035369D02*
X0211900Y0035369D01*
X0211900Y0033770D02*
X0213100Y0033770D01*
X0213100Y0032172D02*
X0211900Y0032172D01*
X0211900Y0030573D02*
X0213100Y0030573D01*
X0213100Y0028975D02*
X0211900Y0028975D01*
X0211673Y0027376D02*
X0213327Y0027376D01*
X0214300Y0025778D02*
X0210700Y0025778D01*
X0204300Y0025778D02*
X0200700Y0025778D01*
X0201230Y0026308D02*
X0199992Y0025070D01*
X0198375Y0024400D01*
X0196625Y0024400D01*
X0195008Y0025070D01*
X0193770Y0026308D01*
X0193100Y0027925D01*
X0193100Y0035675D01*
X0193770Y0037292D01*
X0195008Y0038530D01*
X0196625Y0039200D01*
X0198375Y0039200D01*
X0199992Y0038530D01*
X0201230Y0037292D01*
X0201900Y0035675D01*
X0201900Y0027925D01*
X0201230Y0026308D01*
X0201673Y0027376D02*
X0203327Y0027376D01*
X0203100Y0028975D02*
X0201900Y0028975D01*
X0201900Y0030573D02*
X0203100Y0030573D01*
X0203100Y0032172D02*
X0201900Y0032172D01*
X0201900Y0033770D02*
X0203100Y0033770D01*
X0203100Y0035369D02*
X0201900Y0035369D01*
X0201365Y0036967D02*
X0203635Y0036967D01*
X0205094Y0038566D02*
X0199906Y0038566D01*
X0195094Y0038566D02*
X0190483Y0038566D01*
X0190627Y0038461D02*
X0190016Y0038905D01*
X0189343Y0039248D01*
X0188624Y0039482D01*
X0187878Y0039600D01*
X0187700Y0039600D01*
X0187700Y0032000D01*
X0192300Y0032000D01*
X0192300Y0035178D01*
X0192182Y0035924D01*
X0191948Y0036643D01*
X0191605Y0037316D01*
X0191161Y0037927D01*
X0190627Y0038461D01*
X0191783Y0036967D02*
X0193635Y0036967D01*
X0193100Y0035369D02*
X0192270Y0035369D01*
X0192300Y0033770D02*
X0193100Y0033770D01*
X0193100Y0032172D02*
X0192300Y0032172D01*
X0192300Y0031600D02*
X0187700Y0031600D01*
X0187700Y0032000D01*
X0187300Y0032000D01*
X0187300Y0039600D01*
X0187122Y0039600D01*
X0186376Y0039482D01*
X0185657Y0039248D01*
X0184984Y0038905D01*
X0184373Y0038461D01*
X0183839Y0037927D01*
X0183395Y0037316D01*
X0183052Y0036643D01*
X0182818Y0035924D01*
X0182700Y0035178D01*
X0182700Y0032000D01*
X0187300Y0032000D01*
X0187300Y0031600D01*
X0187700Y0031600D01*
X0187700Y0024000D01*
X0187878Y0024000D01*
X0188624Y0024118D01*
X0189343Y0024352D01*
X0190016Y0024695D01*
X0190627Y0025139D01*
X0191161Y0025673D01*
X0191605Y0026284D01*
X0191948Y0026957D01*
X0192182Y0027676D01*
X0192300Y0028422D01*
X0192300Y0031600D01*
X0192300Y0030573D02*
X0193100Y0030573D01*
X0193100Y0028975D02*
X0192300Y0028975D01*
X0192084Y0027376D02*
X0193327Y0027376D01*
X0194300Y0025778D02*
X0191237Y0025778D01*
X0188812Y0024179D02*
X0226413Y0024179D01*
X0226808Y0025778D02*
X0220700Y0025778D01*
X0221673Y0027376D02*
X0227414Y0027376D01*
X0228298Y0028975D02*
X0221900Y0028975D01*
X0221900Y0030573D02*
X0229495Y0030573D01*
X0231173Y0032172D02*
X0221900Y0032172D01*
X0221900Y0033770D02*
X0233681Y0033770D01*
X0226216Y0020982D02*
X0060784Y0020982D01*
X0060786Y0021000D02*
X0048300Y0021000D01*
X0048300Y0008514D01*
X0049454Y0008628D01*
X0050736Y0008883D01*
X0051986Y0009262D01*
X0053193Y0009762D01*
X0054346Y0010378D01*
X0055432Y0011104D01*
X0056442Y0011933D01*
X0057367Y0012857D01*
X0058196Y0013868D01*
X0058922Y0014954D01*
X0059538Y0016107D01*
X0060038Y0017314D01*
X0060417Y0018564D01*
X0060672Y0019846D01*
X0060786Y0021000D01*
X0060580Y0019384D02*
X0141074Y0019384D01*
X0142300Y0019384D02*
X0142700Y0019384D01*
X0142700Y0019600D02*
X0142700Y0012000D01*
X0147300Y0012000D01*
X0147300Y0015178D01*
X0147182Y0015924D01*
X0146948Y0016643D01*
X0146605Y0017316D01*
X0146161Y0017927D01*
X0145627Y0018461D01*
X0145016Y0018905D01*
X0144343Y0019248D01*
X0143624Y0019482D01*
X0142878Y0019600D01*
X0142700Y0019600D01*
X0143926Y0019384D02*
X0186074Y0019384D01*
X0187300Y0019384D02*
X0187700Y0019384D01*
X0187700Y0019600D02*
X0187700Y0012000D01*
X0192300Y0012000D01*
X0192300Y0015178D01*
X0192182Y0015924D01*
X0191948Y0016643D01*
X0191605Y0017316D01*
X0191161Y0017927D01*
X0190627Y0018461D01*
X0190016Y0018905D01*
X0189343Y0019248D01*
X0188624Y0019482D01*
X0187878Y0019600D01*
X0187700Y0019600D01*
X0188926Y0019384D02*
X0226420Y0019384D01*
X0226819Y0017785D02*
X0220737Y0017785D01*
X0221230Y0017292D02*
X0219992Y0018530D01*
X0218375Y0019200D01*
X0216625Y0019200D01*
X0215008Y0018530D01*
X0213770Y0017292D01*
X0213100Y0015675D01*
X0213100Y0007925D01*
X0213770Y0006308D01*
X0215008Y0005070D01*
X0216625Y0004400D01*
X0218375Y0004400D01*
X0219992Y0005070D01*
X0221230Y0006308D01*
X0221900Y0007925D01*
X0221900Y0015675D01*
X0221230Y0017292D01*
X0221688Y0016187D02*
X0227429Y0016187D01*
X0228323Y0014588D02*
X0221900Y0014588D01*
X0221900Y0012990D02*
X0229525Y0012990D01*
X0231218Y0011391D02*
X0221900Y0011391D01*
X0221900Y0009793D02*
X0233750Y0009793D01*
X0221900Y0008194D02*
X0255650Y0008194D01*
X0255650Y0006596D02*
X0221349Y0006596D01*
X0219817Y0004997D02*
X0255650Y0004997D01*
X0257500Y0001800D02*
X0027500Y0001800D01*
X0030100Y0004997D02*
X0139568Y0004997D01*
X0138236Y0006596D02*
X0030100Y0006596D01*
X0030100Y0008194D02*
X0137736Y0008194D01*
X0137700Y0009793D02*
X0053250Y0009793D01*
X0055782Y0011391D02*
X0137700Y0011391D01*
X0137700Y0012990D02*
X0057475Y0012990D01*
X0058677Y0014588D02*
X0137700Y0014588D01*
X0137904Y0016187D02*
X0059571Y0016187D01*
X0060181Y0017785D02*
X0138736Y0017785D01*
X0142300Y0017785D02*
X0142700Y0017785D01*
X0142700Y0016187D02*
X0142300Y0016187D01*
X0142300Y0014588D02*
X0142700Y0014588D01*
X0142700Y0012990D02*
X0142300Y0012990D01*
X0147300Y0012990D02*
X0148100Y0012990D01*
X0148100Y0014588D02*
X0147300Y0014588D01*
X0148100Y0015675D02*
X0148770Y0017292D01*
X0150008Y0018530D01*
X0151625Y0019200D01*
X0153375Y0019200D01*
X0154992Y0018530D01*
X0156230Y0017292D01*
X0156900Y0015675D01*
X0156900Y0007925D01*
X0156230Y0006308D01*
X0154992Y0005070D01*
X0153375Y0004400D01*
X0151625Y0004400D01*
X0150008Y0005070D01*
X0148770Y0006308D01*
X0148100Y0007925D01*
X0148100Y0015675D01*
X0148312Y0016187D02*
X0147096Y0016187D01*
X0146264Y0017785D02*
X0149263Y0017785D01*
X0155737Y0017785D02*
X0159263Y0017785D01*
X0158770Y0017292D02*
X0160008Y0018530D01*
X0161625Y0019200D01*
X0163375Y0019200D01*
X0164992Y0018530D01*
X0166230Y0017292D01*
X0166900Y0015675D01*
X0166900Y0007925D01*
X0166230Y0006308D01*
X0164992Y0005070D01*
X0163375Y0004400D01*
X0161625Y0004400D01*
X0160008Y0005070D01*
X0158770Y0006308D01*
X0158100Y0007925D01*
X0158100Y0015675D01*
X0158770Y0017292D01*
X0158312Y0016187D02*
X0156688Y0016187D01*
X0156900Y0014588D02*
X0158100Y0014588D01*
X0158100Y0012990D02*
X0156900Y0012990D01*
X0156900Y0011391D02*
X0158100Y0011391D01*
X0158100Y0009793D02*
X0156900Y0009793D01*
X0156900Y0008194D02*
X0158100Y0008194D01*
X0158651Y0006596D02*
X0156349Y0006596D01*
X0154817Y0004997D02*
X0160183Y0004997D01*
X0164817Y0004997D02*
X0170183Y0004997D01*
X0170008Y0005070D02*
X0171625Y0004400D01*
X0173375Y0004400D01*
X0174992Y0005070D01*
X0176230Y0006308D01*
X0176900Y0007925D01*
X0176900Y0015675D01*
X0176230Y0017292D01*
X0174992Y0018530D01*
X0173375Y0019200D01*
X0171625Y0019200D01*
X0170008Y0018530D01*
X0168770Y0017292D01*
X0168100Y0015675D01*
X0168100Y0007925D01*
X0168770Y0006308D01*
X0170008Y0005070D01*
X0168651Y0006596D02*
X0166349Y0006596D01*
X0166900Y0008194D02*
X0168100Y0008194D01*
X0168100Y0009793D02*
X0166900Y0009793D01*
X0166900Y0011391D02*
X0168100Y0011391D01*
X0168100Y0012990D02*
X0166900Y0012990D01*
X0166900Y0014588D02*
X0168100Y0014588D01*
X0168312Y0016187D02*
X0166688Y0016187D01*
X0165737Y0017785D02*
X0169263Y0017785D01*
X0175737Y0017785D02*
X0183736Y0017785D01*
X0182904Y0016187D02*
X0176688Y0016187D01*
X0176900Y0014588D02*
X0182700Y0014588D01*
X0182700Y0012990D02*
X0176900Y0012990D01*
X0176900Y0011391D02*
X0182700Y0011391D01*
X0182700Y0009793D02*
X0176900Y0009793D01*
X0176900Y0008194D02*
X0182736Y0008194D01*
X0183236Y0006596D02*
X0176349Y0006596D01*
X0174817Y0004997D02*
X0184568Y0004997D01*
X0190432Y0004997D02*
X0195183Y0004997D01*
X0195008Y0005070D02*
X0196625Y0004400D01*
X0198375Y0004400D01*
X0199992Y0005070D01*
X0201230Y0006308D01*
X0201900Y0007925D01*
X0201900Y0015675D01*
X0201230Y0017292D01*
X0199992Y0018530D01*
X0198375Y0019200D01*
X0196625Y0019200D01*
X0195008Y0018530D01*
X0193770Y0017292D01*
X0193100Y0015675D01*
X0193100Y0007925D01*
X0193770Y0006308D01*
X0195008Y0005070D01*
X0193651Y0006596D02*
X0191764Y0006596D01*
X0192264Y0008194D02*
X0193100Y0008194D01*
X0193100Y0009793D02*
X0192300Y0009793D01*
X0192300Y0011391D02*
X0193100Y0011391D01*
X0193100Y0012990D02*
X0192300Y0012990D01*
X0192300Y0014588D02*
X0193100Y0014588D01*
X0193312Y0016187D02*
X0192096Y0016187D01*
X0191264Y0017785D02*
X0194263Y0017785D01*
X0200737Y0017785D02*
X0204263Y0017785D01*
X0203770Y0017292D02*
X0203100Y0015675D01*
X0203100Y0007925D01*
X0203770Y0006308D01*
X0205008Y0005070D01*
X0206625Y0004400D01*
X0208375Y0004400D01*
X0209992Y0005070D01*
X0211230Y0006308D01*
X0211900Y0007925D01*
X0211900Y0015675D01*
X0211230Y0017292D01*
X0209992Y0018530D01*
X0208375Y0019200D01*
X0206625Y0019200D01*
X0205008Y0018530D01*
X0203770Y0017292D01*
X0203312Y0016187D02*
X0201688Y0016187D01*
X0201900Y0014588D02*
X0203100Y0014588D01*
X0203100Y0012990D02*
X0201900Y0012990D01*
X0201900Y0011391D02*
X0203100Y0011391D01*
X0203100Y0009793D02*
X0201900Y0009793D01*
X0201900Y0008194D02*
X0203100Y0008194D01*
X0203651Y0006596D02*
X0201349Y0006596D01*
X0199817Y0004997D02*
X0205183Y0004997D01*
X0209817Y0004997D02*
X0215183Y0004997D01*
X0213651Y0006596D02*
X0211349Y0006596D01*
X0211900Y0008194D02*
X0213100Y0008194D01*
X0213100Y0009793D02*
X0211900Y0009793D01*
X0211900Y0011391D02*
X0213100Y0011391D01*
X0213100Y0012990D02*
X0211900Y0012990D01*
X0211900Y0014588D02*
X0213100Y0014588D01*
X0213312Y0016187D02*
X0211688Y0016187D01*
X0210737Y0017785D02*
X0214263Y0017785D01*
X0187700Y0017785D02*
X0187300Y0017785D01*
X0187300Y0016187D02*
X0187700Y0016187D01*
X0187700Y0014588D02*
X0187300Y0014588D01*
X0187300Y0012990D02*
X0187700Y0012990D01*
X0187300Y0024000D02*
X0187300Y0031600D01*
X0182700Y0031600D01*
X0182700Y0028422D01*
X0182818Y0027676D01*
X0183052Y0026957D01*
X0183395Y0026284D01*
X0183839Y0025673D01*
X0184373Y0025139D01*
X0184984Y0024695D01*
X0185657Y0024352D01*
X0186376Y0024118D01*
X0187122Y0024000D01*
X0187300Y0024000D01*
X0187300Y0024179D02*
X0187700Y0024179D01*
X0186188Y0024179D02*
X0143812Y0024179D01*
X0143624Y0024118D02*
X0144343Y0024352D01*
X0145016Y0024695D01*
X0145627Y0025139D01*
X0146161Y0025673D01*
X0146605Y0026284D01*
X0146948Y0026957D01*
X0147182Y0027676D01*
X0147300Y0028422D01*
X0147300Y0031600D01*
X0142700Y0031600D01*
X0142700Y0032000D01*
X0147300Y0032000D01*
X0147300Y0035178D01*
X0147182Y0035924D01*
X0146948Y0036643D01*
X0146605Y0037316D01*
X0146161Y0037927D01*
X0145627Y0038461D01*
X0145016Y0038905D01*
X0144343Y0039248D01*
X0143624Y0039482D01*
X0142878Y0039600D01*
X0142700Y0039600D01*
X0142700Y0032000D01*
X0142300Y0032000D01*
X0142300Y0039600D01*
X0142122Y0039600D01*
X0141376Y0039482D01*
X0140657Y0039248D01*
X0139984Y0038905D01*
X0139373Y0038461D01*
X0138839Y0037927D01*
X0138395Y0037316D01*
X0138052Y0036643D01*
X0137818Y0035924D01*
X0137700Y0035178D01*
X0137700Y0032000D01*
X0142300Y0032000D01*
X0142300Y0031600D01*
X0142700Y0031600D01*
X0142700Y0024000D01*
X0142878Y0024000D01*
X0143624Y0024118D01*
X0142700Y0024179D02*
X0142300Y0024179D01*
X0142300Y0024000D02*
X0142300Y0031600D01*
X0137700Y0031600D01*
X0137700Y0028422D01*
X0137818Y0027676D01*
X0138052Y0026957D01*
X0138395Y0026284D01*
X0138839Y0025673D01*
X0139373Y0025139D01*
X0139984Y0024695D01*
X0140657Y0024352D01*
X0141376Y0024118D01*
X0142122Y0024000D01*
X0142300Y0024000D01*
X0141188Y0024179D02*
X0060587Y0024179D01*
X0060192Y0025778D02*
X0138763Y0025778D01*
X0137916Y0027376D02*
X0059586Y0027376D01*
X0058702Y0028975D02*
X0137700Y0028975D01*
X0137700Y0030573D02*
X0057505Y0030573D01*
X0055827Y0032172D02*
X0137700Y0032172D01*
X0137700Y0033770D02*
X0053319Y0033770D01*
X0050483Y0038566D02*
X0139517Y0038566D01*
X0138217Y0036967D02*
X0030100Y0036967D01*
X0030100Y0035369D02*
X0137730Y0035369D01*
X0142300Y0035369D02*
X0142700Y0035369D01*
X0142700Y0036967D02*
X0142300Y0036967D01*
X0142300Y0038566D02*
X0142700Y0038566D01*
X0145483Y0038566D02*
X0150094Y0038566D01*
X0150008Y0038530D02*
X0148770Y0037292D01*
X0148100Y0035675D01*
X0148100Y0027925D01*
X0148770Y0026308D01*
X0150008Y0025070D01*
X0151625Y0024400D01*
X0153375Y0024400D01*
X0154992Y0025070D01*
X0156230Y0026308D01*
X0156900Y0027925D01*
X0156900Y0035675D01*
X0156230Y0037292D01*
X0154992Y0038530D01*
X0153375Y0039200D01*
X0151625Y0039200D01*
X0150008Y0038530D01*
X0148635Y0036967D02*
X0146783Y0036967D01*
X0147270Y0035369D02*
X0148100Y0035369D01*
X0148100Y0033770D02*
X0147300Y0033770D01*
X0147300Y0032172D02*
X0148100Y0032172D01*
X0148100Y0030573D02*
X0147300Y0030573D01*
X0147300Y0028975D02*
X0148100Y0028975D01*
X0148327Y0027376D02*
X0147084Y0027376D01*
X0146237Y0025778D02*
X0149300Y0025778D01*
X0155700Y0025778D02*
X0159300Y0025778D01*
X0158770Y0026308D02*
X0160008Y0025070D01*
X0161625Y0024400D01*
X0163375Y0024400D01*
X0164992Y0025070D01*
X0166230Y0026308D01*
X0166900Y0027925D01*
X0166900Y0035675D01*
X0166230Y0037292D01*
X0164992Y0038530D01*
X0163375Y0039200D01*
X0161625Y0039200D01*
X0160008Y0038530D01*
X0158770Y0037292D01*
X0158100Y0035675D01*
X0158100Y0027925D01*
X0158770Y0026308D01*
X0158327Y0027376D02*
X0156673Y0027376D01*
X0156900Y0028975D02*
X0158100Y0028975D01*
X0158100Y0030573D02*
X0156900Y0030573D01*
X0156900Y0032172D02*
X0158100Y0032172D01*
X0158100Y0033770D02*
X0156900Y0033770D01*
X0156900Y0035369D02*
X0158100Y0035369D01*
X0158635Y0036967D02*
X0156365Y0036967D01*
X0154906Y0038566D02*
X0160094Y0038566D01*
X0164906Y0038566D02*
X0170094Y0038566D01*
X0170008Y0038530D02*
X0168770Y0037292D01*
X0168100Y0035675D01*
X0168100Y0027925D01*
X0168770Y0026308D01*
X0170008Y0025070D01*
X0171625Y0024400D01*
X0173375Y0024400D01*
X0174992Y0025070D01*
X0176230Y0026308D01*
X0176900Y0027925D01*
X0176900Y0035675D01*
X0176230Y0037292D01*
X0174992Y0038530D01*
X0173375Y0039200D01*
X0171625Y0039200D01*
X0170008Y0038530D01*
X0168635Y0036967D02*
X0166365Y0036967D01*
X0166900Y0035369D02*
X0168100Y0035369D01*
X0168100Y0033770D02*
X0166900Y0033770D01*
X0166900Y0032172D02*
X0168100Y0032172D01*
X0168100Y0030573D02*
X0166900Y0030573D01*
X0166900Y0028975D02*
X0168100Y0028975D01*
X0168327Y0027376D02*
X0166673Y0027376D01*
X0165700Y0025778D02*
X0169300Y0025778D01*
X0175700Y0025778D02*
X0183763Y0025778D01*
X0182916Y0027376D02*
X0176673Y0027376D01*
X0176900Y0028975D02*
X0182700Y0028975D01*
X0182700Y0030573D02*
X0176900Y0030573D01*
X0176900Y0032172D02*
X0182700Y0032172D01*
X0182700Y0033770D02*
X0176900Y0033770D01*
X0176900Y0035369D02*
X0182730Y0035369D01*
X0183217Y0036967D02*
X0176365Y0036967D01*
X0174906Y0038566D02*
X0184517Y0038566D01*
X0187300Y0038566D02*
X0187700Y0038566D01*
X0187700Y0036967D02*
X0187300Y0036967D01*
X0187300Y0035369D02*
X0187700Y0035369D01*
X0187700Y0033770D02*
X0187300Y0033770D01*
X0187300Y0032172D02*
X0187700Y0032172D01*
X0187700Y0030573D02*
X0187300Y0030573D01*
X0187300Y0028975D02*
X0187700Y0028975D01*
X0187700Y0027376D02*
X0187300Y0027376D01*
X0187300Y0025778D02*
X0187700Y0025778D01*
X0187700Y0044000D02*
X0187878Y0044000D01*
X0188624Y0044118D01*
X0189343Y0044352D01*
X0190016Y0044695D01*
X0190627Y0045139D01*
X0191161Y0045673D01*
X0191605Y0046284D01*
X0191948Y0046957D01*
X0192182Y0047676D01*
X0192300Y0048422D01*
X0192300Y0051600D01*
X0187700Y0051600D01*
X0187700Y0052000D01*
X0192300Y0052000D01*
X0192300Y0055178D01*
X0192182Y0055924D01*
X0191948Y0056643D01*
X0191605Y0057316D01*
X0191161Y0057927D01*
X0190627Y0058461D01*
X0190016Y0058905D01*
X0189343Y0059248D01*
X0188624Y0059482D01*
X0187878Y0059600D01*
X0187700Y0059600D01*
X0187700Y0052000D01*
X0187300Y0052000D01*
X0187300Y0059600D01*
X0187122Y0059600D01*
X0186376Y0059482D01*
X0185657Y0059248D01*
X0184984Y0058905D01*
X0184373Y0058461D01*
X0183839Y0057927D01*
X0183395Y0057316D01*
X0183052Y0056643D01*
X0182818Y0055924D01*
X0182700Y0055178D01*
X0182700Y0052000D01*
X0187300Y0052000D01*
X0187300Y0051600D01*
X0187700Y0051600D01*
X0187700Y0044000D01*
X0187300Y0044000D02*
X0187300Y0051600D01*
X0182700Y0051600D01*
X0182700Y0048422D01*
X0182818Y0047676D01*
X0183052Y0046957D01*
X0183395Y0046284D01*
X0183839Y0045673D01*
X0184373Y0045139D01*
X0184984Y0044695D01*
X0185657Y0044352D01*
X0186376Y0044118D01*
X0187122Y0044000D01*
X0187300Y0044000D01*
X0187300Y0044960D02*
X0187700Y0044960D01*
X0187700Y0046558D02*
X0187300Y0046558D01*
X0187300Y0048157D02*
X0187700Y0048157D01*
X0187700Y0049755D02*
X0187300Y0049755D01*
X0187300Y0051354D02*
X0187700Y0051354D01*
X0187700Y0052952D02*
X0187300Y0052952D01*
X0187300Y0054551D02*
X0187700Y0054551D01*
X0187700Y0056149D02*
X0187300Y0056149D01*
X0187300Y0057748D02*
X0187700Y0057748D01*
X0187700Y0059346D02*
X0187300Y0059346D01*
X0185959Y0059346D02*
X0144041Y0059346D01*
X0144343Y0059248D02*
X0143624Y0059482D01*
X0142878Y0059600D01*
X0142700Y0059600D01*
X0142700Y0052000D01*
X0147300Y0052000D01*
X0147300Y0055178D01*
X0147182Y0055924D01*
X0146948Y0056643D01*
X0146605Y0057316D01*
X0146161Y0057927D01*
X0145627Y0058461D01*
X0145016Y0058905D01*
X0144343Y0059248D01*
X0142700Y0059346D02*
X0142300Y0059346D01*
X0142300Y0059600D02*
X0142122Y0059600D01*
X0141376Y0059482D01*
X0140657Y0059248D01*
X0139984Y0058905D01*
X0139373Y0058461D01*
X0138839Y0057927D01*
X0138395Y0057316D01*
X0138052Y0056643D01*
X0137818Y0055924D01*
X0137700Y0055178D01*
X0137700Y0052000D01*
X0142300Y0052000D01*
X0142300Y0059600D01*
X0140959Y0059346D02*
X0051787Y0059346D01*
X0051661Y0059173D02*
X0052105Y0059784D01*
X0052448Y0060457D01*
X0052682Y0061176D01*
X0052800Y0061922D01*
X0052800Y0062100D01*
X0045200Y0062100D01*
X0045200Y0057500D01*
X0048378Y0057500D01*
X0049124Y0057618D01*
X0049843Y0057852D01*
X0050516Y0058195D01*
X0051127Y0058639D01*
X0051661Y0059173D01*
X0052607Y0060945D02*
X0255650Y0060945D01*
X0255650Y0062543D02*
X0052800Y0062543D01*
X0052449Y0064142D02*
X0141303Y0064142D01*
X0142300Y0064142D02*
X0142700Y0064142D01*
X0142700Y0064000D02*
X0142878Y0064000D01*
X0143624Y0064118D01*
X0144343Y0064352D01*
X0145016Y0064695D01*
X0145627Y0065139D01*
X0146161Y0065673D01*
X0146605Y0066284D01*
X0146948Y0066957D01*
X0147182Y0067676D01*
X0147300Y0068422D01*
X0147300Y0071600D01*
X0142700Y0071600D01*
X0142700Y0064000D01*
X0143697Y0064142D02*
X0186303Y0064142D01*
X0186376Y0064118D02*
X0187122Y0064000D01*
X0187300Y0064000D01*
X0187300Y0071600D01*
X0187700Y0071600D01*
X0187700Y0072000D01*
X0192300Y0072000D01*
X0192300Y0075178D01*
X0192182Y0075924D01*
X0191948Y0076643D01*
X0191605Y0077316D01*
X0191161Y0077927D01*
X0190627Y0078461D01*
X0190016Y0078905D01*
X0189343Y0079248D01*
X0188624Y0079482D01*
X0187878Y0079600D01*
X0187700Y0079600D01*
X0187700Y0072000D01*
X0187300Y0072000D01*
X0187300Y0079600D01*
X0187122Y0079600D01*
X0186376Y0079482D01*
X0185657Y0079248D01*
X0184984Y0078905D01*
X0184373Y0078461D01*
X0183839Y0077927D01*
X0183395Y0077316D01*
X0183052Y0076643D01*
X0182818Y0075924D01*
X0182700Y0075178D01*
X0182700Y0072000D01*
X0187300Y0072000D01*
X0187300Y0071600D01*
X0182700Y0071600D01*
X0182700Y0068422D01*
X0182818Y0067676D01*
X0183052Y0066957D01*
X0183395Y0066284D01*
X0183839Y0065673D01*
X0184373Y0065139D01*
X0184984Y0064695D01*
X0185657Y0064352D01*
X0186376Y0064118D01*
X0187300Y0064142D02*
X0187700Y0064142D01*
X0187700Y0064000D02*
X0187878Y0064000D01*
X0188624Y0064118D01*
X0189343Y0064352D01*
X0190016Y0064695D01*
X0190627Y0065139D01*
X0191161Y0065673D01*
X0191605Y0066284D01*
X0191948Y0066957D01*
X0192182Y0067676D01*
X0192300Y0068422D01*
X0192300Y0071600D01*
X0187700Y0071600D01*
X0187700Y0064000D01*
X0188697Y0064142D02*
X0255650Y0064142D01*
X0255650Y0065740D02*
X0220663Y0065740D01*
X0221230Y0066308D02*
X0221900Y0067925D01*
X0221900Y0075675D01*
X0221230Y0077292D01*
X0219992Y0078530D01*
X0218375Y0079200D01*
X0216625Y0079200D01*
X0215008Y0078530D01*
X0213770Y0077292D01*
X0213100Y0075675D01*
X0213100Y0067925D01*
X0213770Y0066308D01*
X0215008Y0065070D01*
X0216625Y0064400D01*
X0218375Y0064400D01*
X0219992Y0065070D01*
X0221230Y0066308D01*
X0221657Y0067339D02*
X0255650Y0067339D01*
X0255650Y0068937D02*
X0221900Y0068937D01*
X0221900Y0070536D02*
X0255650Y0070536D01*
X0255650Y0072134D02*
X0221900Y0072134D01*
X0221900Y0073733D02*
X0255650Y0073733D01*
X0255650Y0075332D02*
X0221900Y0075332D01*
X0221380Y0076930D02*
X0255650Y0076930D01*
X0255650Y0078529D02*
X0219994Y0078529D01*
X0215006Y0078529D02*
X0209994Y0078529D01*
X0209992Y0078530D02*
X0208375Y0079200D01*
X0206625Y0079200D01*
X0205008Y0078530D01*
X0203770Y0077292D01*
X0203100Y0075675D01*
X0203100Y0067925D01*
X0203770Y0066308D01*
X0205008Y0065070D01*
X0206625Y0064400D01*
X0208375Y0064400D01*
X0209992Y0065070D01*
X0211230Y0066308D01*
X0211900Y0067925D01*
X0211900Y0075675D01*
X0211230Y0077292D01*
X0209992Y0078530D01*
X0211380Y0076930D02*
X0213620Y0076930D01*
X0213100Y0075332D02*
X0211900Y0075332D01*
X0211900Y0073733D02*
X0213100Y0073733D01*
X0213100Y0072134D02*
X0211900Y0072134D01*
X0211900Y0070536D02*
X0213100Y0070536D01*
X0213100Y0068937D02*
X0211900Y0068937D01*
X0211657Y0067339D02*
X0213343Y0067339D01*
X0214337Y0065740D02*
X0210663Y0065740D01*
X0204337Y0065740D02*
X0200663Y0065740D01*
X0201230Y0066308D02*
X0199992Y0065070D01*
X0198375Y0064400D01*
X0196625Y0064400D01*
X0195008Y0065070D01*
X0193770Y0066308D01*
X0193100Y0067925D01*
X0193100Y0075675D01*
X0193770Y0077292D01*
X0195008Y0078530D01*
X0196625Y0079200D01*
X0198375Y0079200D01*
X0199992Y0078530D01*
X0201230Y0077292D01*
X0201900Y0075675D01*
X0201900Y0067925D01*
X0201230Y0066308D01*
X0201657Y0067339D02*
X0203343Y0067339D01*
X0203100Y0068937D02*
X0201900Y0068937D01*
X0201900Y0070536D02*
X0203100Y0070536D01*
X0203100Y0072134D02*
X0201900Y0072134D01*
X0201900Y0073733D02*
X0203100Y0073733D01*
X0203100Y0075332D02*
X0201900Y0075332D01*
X0201380Y0076930D02*
X0203620Y0076930D01*
X0205006Y0078529D02*
X0199994Y0078529D01*
X0195006Y0078529D02*
X0190534Y0078529D01*
X0191802Y0076930D02*
X0193620Y0076930D01*
X0193100Y0075332D02*
X0192276Y0075332D01*
X0192300Y0073733D02*
X0193100Y0073733D01*
X0193100Y0072134D02*
X0192300Y0072134D01*
X0192300Y0070536D02*
X0193100Y0070536D01*
X0193100Y0068937D02*
X0192300Y0068937D01*
X0192072Y0067339D02*
X0193343Y0067339D01*
X0194337Y0065740D02*
X0191210Y0065740D01*
X0187700Y0065740D02*
X0187300Y0065740D01*
X0187300Y0067339D02*
X0187700Y0067339D01*
X0187700Y0068937D02*
X0187300Y0068937D01*
X0187300Y0070536D02*
X0187700Y0070536D01*
X0187700Y0072134D02*
X0187300Y0072134D01*
X0187300Y0073733D02*
X0187700Y0073733D01*
X0187700Y0075332D02*
X0187300Y0075332D01*
X0187300Y0076930D02*
X0187700Y0076930D01*
X0187700Y0078529D02*
X0187300Y0078529D01*
X0184466Y0078529D02*
X0174994Y0078529D01*
X0174992Y0078530D02*
X0173375Y0079200D01*
X0171625Y0079200D01*
X0170008Y0078530D01*
X0168770Y0077292D01*
X0168100Y0075675D01*
X0168100Y0067925D01*
X0168770Y0066308D01*
X0170008Y0065070D01*
X0171625Y0064400D01*
X0173375Y0064400D01*
X0174992Y0065070D01*
X0176230Y0066308D01*
X0176900Y0067925D01*
X0176900Y0075675D01*
X0176230Y0077292D01*
X0174992Y0078530D01*
X0176380Y0076930D02*
X0183198Y0076930D01*
X0182724Y0075332D02*
X0176900Y0075332D01*
X0176900Y0073733D02*
X0182700Y0073733D01*
X0182700Y0072134D02*
X0176900Y0072134D01*
X0176900Y0070536D02*
X0182700Y0070536D01*
X0182700Y0068937D02*
X0176900Y0068937D01*
X0176657Y0067339D02*
X0182928Y0067339D01*
X0183790Y0065740D02*
X0175663Y0065740D01*
X0169337Y0065740D02*
X0165663Y0065740D01*
X0166230Y0066308D02*
X0166900Y0067925D01*
X0166900Y0075675D01*
X0166230Y0077292D01*
X0164992Y0078530D01*
X0163375Y0079200D01*
X0161625Y0079200D01*
X0160008Y0078530D01*
X0158770Y0077292D01*
X0158100Y0075675D01*
X0158100Y0067925D01*
X0158770Y0066308D01*
X0160008Y0065070D01*
X0161625Y0064400D01*
X0163375Y0064400D01*
X0164992Y0065070D01*
X0166230Y0066308D01*
X0166657Y0067339D02*
X0168343Y0067339D01*
X0168100Y0068937D02*
X0166900Y0068937D01*
X0166900Y0070536D02*
X0168100Y0070536D01*
X0168100Y0072134D02*
X0166900Y0072134D01*
X0166900Y0073733D02*
X0168100Y0073733D01*
X0168100Y0075332D02*
X0166900Y0075332D01*
X0166380Y0076930D02*
X0168620Y0076930D01*
X0170006Y0078529D02*
X0164994Y0078529D01*
X0160006Y0078529D02*
X0154994Y0078529D01*
X0154992Y0078530D02*
X0153375Y0079200D01*
X0151625Y0079200D01*
X0150008Y0078530D01*
X0148770Y0077292D01*
X0148100Y0075675D01*
X0148100Y0067925D01*
X0148770Y0066308D01*
X0150008Y0065070D01*
X0151625Y0064400D01*
X0153375Y0064400D01*
X0154992Y0065070D01*
X0156230Y0066308D01*
X0156900Y0067925D01*
X0156900Y0075675D01*
X0156230Y0077292D01*
X0154992Y0078530D01*
X0156380Y0076930D02*
X0158620Y0076930D01*
X0158100Y0075332D02*
X0156900Y0075332D01*
X0156900Y0073733D02*
X0158100Y0073733D01*
X0158100Y0072134D02*
X0156900Y0072134D01*
X0156900Y0070536D02*
X0158100Y0070536D01*
X0158100Y0068937D02*
X0156900Y0068937D01*
X0156657Y0067339D02*
X0158343Y0067339D01*
X0159337Y0065740D02*
X0155663Y0065740D01*
X0149337Y0065740D02*
X0146210Y0065740D01*
X0147072Y0067339D02*
X0148343Y0067339D01*
X0148100Y0068937D02*
X0147300Y0068937D01*
X0147300Y0070536D02*
X0148100Y0070536D01*
X0148100Y0072134D02*
X0147300Y0072134D01*
X0147300Y0073733D02*
X0148100Y0073733D01*
X0148100Y0075332D02*
X0147276Y0075332D01*
X0146802Y0076930D02*
X0148620Y0076930D01*
X0150006Y0078529D02*
X0145534Y0078529D01*
X0142700Y0078529D02*
X0142300Y0078529D01*
X0142300Y0076930D02*
X0142700Y0076930D01*
X0142700Y0075332D02*
X0142300Y0075332D01*
X0142300Y0073733D02*
X0142700Y0073733D01*
X0142700Y0072134D02*
X0142300Y0072134D01*
X0142300Y0070536D02*
X0142700Y0070536D01*
X0142700Y0068937D02*
X0142300Y0068937D01*
X0142300Y0067339D02*
X0142700Y0067339D01*
X0142700Y0065740D02*
X0142300Y0065740D01*
X0142300Y0057748D02*
X0142700Y0057748D01*
X0142700Y0056149D02*
X0142300Y0056149D01*
X0142300Y0054551D02*
X0142700Y0054551D01*
X0142700Y0052952D02*
X0142300Y0052952D01*
X0142300Y0052000D02*
X0142700Y0052000D01*
X0142700Y0051600D01*
X0147300Y0051600D01*
X0147300Y0048422D01*
X0147182Y0047676D01*
X0146948Y0046957D01*
X0146605Y0046284D01*
X0146161Y0045673D01*
X0145627Y0045139D01*
X0145016Y0044695D01*
X0144343Y0044352D01*
X0143624Y0044118D01*
X0142878Y0044000D01*
X0142700Y0044000D01*
X0142700Y0051600D01*
X0142300Y0051600D01*
X0142300Y0044000D01*
X0142122Y0044000D01*
X0141376Y0044118D01*
X0140657Y0044352D01*
X0139984Y0044695D01*
X0139373Y0045139D01*
X0138839Y0045673D01*
X0138395Y0046284D01*
X0138052Y0046957D01*
X0137818Y0047676D01*
X0137700Y0048422D01*
X0137700Y0051600D01*
X0142300Y0051600D01*
X0142300Y0052000D01*
X0142300Y0051354D02*
X0142700Y0051354D01*
X0142700Y0049755D02*
X0142300Y0049755D01*
X0142300Y0048157D02*
X0142700Y0048157D01*
X0142700Y0046558D02*
X0142300Y0046558D01*
X0142300Y0044960D02*
X0142700Y0044960D01*
X0145381Y0044960D02*
X0150273Y0044960D01*
X0150008Y0045070D02*
X0151625Y0044400D01*
X0153375Y0044400D01*
X0154992Y0045070D01*
X0156230Y0046308D01*
X0156900Y0047925D01*
X0156900Y0055675D01*
X0156230Y0057292D01*
X0154992Y0058530D01*
X0153375Y0059200D01*
X0151625Y0059200D01*
X0150008Y0058530D01*
X0148770Y0057292D01*
X0148100Y0055675D01*
X0148100Y0047925D01*
X0148770Y0046308D01*
X0150008Y0045070D01*
X0148666Y0046558D02*
X0146745Y0046558D01*
X0147258Y0048157D02*
X0148100Y0048157D01*
X0148100Y0049755D02*
X0147300Y0049755D01*
X0147300Y0051354D02*
X0148100Y0051354D01*
X0148100Y0052952D02*
X0147300Y0052952D01*
X0147300Y0054551D02*
X0148100Y0054551D01*
X0148296Y0056149D02*
X0147109Y0056149D01*
X0146291Y0057748D02*
X0149225Y0057748D01*
X0155775Y0057748D02*
X0159225Y0057748D01*
X0158770Y0057292D02*
X0160008Y0058530D01*
X0161625Y0059200D01*
X0163375Y0059200D01*
X0164992Y0058530D01*
X0166230Y0057292D01*
X0166900Y0055675D01*
X0166900Y0047925D01*
X0166230Y0046308D01*
X0164992Y0045070D01*
X0163375Y0044400D01*
X0161625Y0044400D01*
X0160008Y0045070D01*
X0158770Y0046308D01*
X0158100Y0047925D01*
X0158100Y0055675D01*
X0158770Y0057292D01*
X0158296Y0056149D02*
X0156704Y0056149D01*
X0156900Y0054551D02*
X0158100Y0054551D01*
X0158100Y0052952D02*
X0156900Y0052952D01*
X0156900Y0051354D02*
X0158100Y0051354D01*
X0158100Y0049755D02*
X0156900Y0049755D01*
X0156900Y0048157D02*
X0158100Y0048157D01*
X0158666Y0046558D02*
X0156334Y0046558D01*
X0154727Y0044960D02*
X0160273Y0044960D01*
X0164727Y0044960D02*
X0170273Y0044960D01*
X0170008Y0045070D02*
X0171625Y0044400D01*
X0173375Y0044400D01*
X0174992Y0045070D01*
X0176230Y0046308D01*
X0176900Y0047925D01*
X0176900Y0055675D01*
X0176230Y0057292D01*
X0174992Y0058530D01*
X0173375Y0059200D01*
X0171625Y0059200D01*
X0170008Y0058530D01*
X0168770Y0057292D01*
X0168100Y0055675D01*
X0168100Y0047925D01*
X0168770Y0046308D01*
X0170008Y0045070D01*
X0168666Y0046558D02*
X0166334Y0046558D01*
X0166900Y0048157D02*
X0168100Y0048157D01*
X0168100Y0049755D02*
X0166900Y0049755D01*
X0166900Y0051354D02*
X0168100Y0051354D01*
X0168100Y0052952D02*
X0166900Y0052952D01*
X0166900Y0054551D02*
X0168100Y0054551D01*
X0168296Y0056149D02*
X0166704Y0056149D01*
X0165775Y0057748D02*
X0169225Y0057748D01*
X0175775Y0057748D02*
X0183709Y0057748D01*
X0182891Y0056149D02*
X0176704Y0056149D01*
X0176900Y0054551D02*
X0182700Y0054551D01*
X0182700Y0052952D02*
X0176900Y0052952D01*
X0176900Y0051354D02*
X0182700Y0051354D01*
X0182700Y0049755D02*
X0176900Y0049755D01*
X0176900Y0048157D02*
X0182742Y0048157D01*
X0183255Y0046558D02*
X0176334Y0046558D01*
X0174727Y0044960D02*
X0184619Y0044960D01*
X0190381Y0044960D02*
X0195273Y0044960D01*
X0195008Y0045070D02*
X0196625Y0044400D01*
X0198375Y0044400D01*
X0199992Y0045070D01*
X0201230Y0046308D01*
X0201900Y0047925D01*
X0201900Y0055675D01*
X0201230Y0057292D01*
X0199992Y0058530D01*
X0198375Y0059200D01*
X0196625Y0059200D01*
X0195008Y0058530D01*
X0193770Y0057292D01*
X0193100Y0055675D01*
X0193100Y0047925D01*
X0193770Y0046308D01*
X0195008Y0045070D01*
X0193666Y0046558D02*
X0191745Y0046558D01*
X0192258Y0048157D02*
X0193100Y0048157D01*
X0193100Y0049755D02*
X0192300Y0049755D01*
X0192300Y0051354D02*
X0193100Y0051354D01*
X0193100Y0052952D02*
X0192300Y0052952D01*
X0192300Y0054551D02*
X0193100Y0054551D01*
X0193296Y0056149D02*
X0192109Y0056149D01*
X0191291Y0057748D02*
X0194225Y0057748D01*
X0189041Y0059346D02*
X0255650Y0059346D01*
X0255650Y0057748D02*
X0220775Y0057748D01*
X0221230Y0057292D02*
X0219992Y0058530D01*
X0218375Y0059200D01*
X0216625Y0059200D01*
X0215008Y0058530D01*
X0213770Y0057292D01*
X0213100Y0055675D01*
X0213100Y0047925D01*
X0213770Y0046308D01*
X0215008Y0045070D01*
X0216625Y0044400D01*
X0218375Y0044400D01*
X0219992Y0045070D01*
X0221230Y0046308D01*
X0221900Y0047925D01*
X0221900Y0055675D01*
X0221230Y0057292D01*
X0221704Y0056149D02*
X0255650Y0056149D01*
X0255650Y0054551D02*
X0221900Y0054551D01*
X0221900Y0052952D02*
X0255650Y0052952D01*
X0255650Y0051354D02*
X0221900Y0051354D01*
X0221900Y0049755D02*
X0255650Y0049755D01*
X0255650Y0048157D02*
X0221900Y0048157D01*
X0221334Y0046558D02*
X0255650Y0046558D01*
X0255650Y0044960D02*
X0219727Y0044960D01*
X0215273Y0044960D02*
X0209727Y0044960D01*
X0209992Y0045070D02*
X0211230Y0046308D01*
X0211900Y0047925D01*
X0211900Y0055675D01*
X0211230Y0057292D01*
X0209992Y0058530D01*
X0208375Y0059200D01*
X0206625Y0059200D01*
X0205008Y0058530D01*
X0203770Y0057292D01*
X0203100Y0055675D01*
X0203100Y0047925D01*
X0203770Y0046308D01*
X0205008Y0045070D01*
X0206625Y0044400D01*
X0208375Y0044400D01*
X0209992Y0045070D01*
X0211334Y0046558D02*
X0213666Y0046558D01*
X0213100Y0048157D02*
X0211900Y0048157D01*
X0211900Y0049755D02*
X0213100Y0049755D01*
X0213100Y0051354D02*
X0211900Y0051354D01*
X0211900Y0052952D02*
X0213100Y0052952D01*
X0213100Y0054551D02*
X0211900Y0054551D01*
X0211704Y0056149D02*
X0213296Y0056149D01*
X0214225Y0057748D02*
X0210775Y0057748D01*
X0204225Y0057748D02*
X0200775Y0057748D01*
X0201704Y0056149D02*
X0203296Y0056149D01*
X0203100Y0054551D02*
X0201900Y0054551D01*
X0201900Y0052952D02*
X0203100Y0052952D01*
X0203100Y0051354D02*
X0201900Y0051354D01*
X0201900Y0049755D02*
X0203100Y0049755D01*
X0203100Y0048157D02*
X0201900Y0048157D01*
X0201334Y0046558D02*
X0203666Y0046558D01*
X0205273Y0044960D02*
X0199727Y0044960D01*
X0198375Y0084400D02*
X0196625Y0084400D01*
X0195008Y0085070D01*
X0193770Y0086308D01*
X0193100Y0087925D01*
X0193100Y0095675D01*
X0193770Y0097292D01*
X0195008Y0098530D01*
X0196625Y0099200D01*
X0198375Y0099200D01*
X0199992Y0098530D01*
X0201230Y0097292D01*
X0201900Y0095675D01*
X0201900Y0087925D01*
X0201230Y0086308D01*
X0199992Y0085070D01*
X0198375Y0084400D01*
X0199637Y0084923D02*
X0205363Y0084923D01*
X0205008Y0085070D02*
X0206625Y0084400D01*
X0208375Y0084400D01*
X0209992Y0085070D01*
X0211230Y0086308D01*
X0211900Y0087925D01*
X0211900Y0095675D01*
X0211230Y0097292D01*
X0209992Y0098530D01*
X0208375Y0099200D01*
X0206625Y0099200D01*
X0205008Y0098530D01*
X0203770Y0097292D01*
X0203100Y0095675D01*
X0203100Y0087925D01*
X0203770Y0086308D01*
X0205008Y0085070D01*
X0203681Y0086521D02*
X0201319Y0086521D01*
X0201900Y0088120D02*
X0203100Y0088120D01*
X0203100Y0089718D02*
X0201900Y0089718D01*
X0201900Y0091317D02*
X0203100Y0091317D01*
X0203100Y0092915D02*
X0201900Y0092915D01*
X0201900Y0094514D02*
X0203100Y0094514D01*
X0203281Y0096112D02*
X0201719Y0096112D01*
X0200812Y0097711D02*
X0204188Y0097711D01*
X0206625Y0104400D02*
X0208375Y0104400D01*
X0209992Y0105070D01*
X0211230Y0106308D01*
X0211900Y0107925D01*
X0211900Y0115675D01*
X0211230Y0117292D01*
X0209992Y0118530D01*
X0208375Y0119200D01*
X0206625Y0119200D01*
X0205008Y0118530D01*
X0203770Y0117292D01*
X0203100Y0115675D01*
X0203100Y0107925D01*
X0203770Y0106308D01*
X0205008Y0105070D01*
X0206625Y0104400D01*
X0204374Y0105703D02*
X0200626Y0105703D01*
X0201230Y0106308D02*
X0199992Y0105070D01*
X0198375Y0104400D01*
X0196625Y0104400D01*
X0195008Y0105070D01*
X0193770Y0106308D01*
X0193100Y0107925D01*
X0193100Y0115675D01*
X0193770Y0117292D01*
X0195008Y0118530D01*
X0196625Y0119200D01*
X0198375Y0119200D01*
X0199992Y0118530D01*
X0201230Y0117292D01*
X0201900Y0115675D01*
X0201900Y0107925D01*
X0201230Y0106308D01*
X0201642Y0107302D02*
X0203358Y0107302D01*
X0203100Y0108900D02*
X0201900Y0108900D01*
X0201900Y0110499D02*
X0203100Y0110499D01*
X0203100Y0112097D02*
X0201900Y0112097D01*
X0201900Y0113696D02*
X0203100Y0113696D01*
X0203100Y0115294D02*
X0201900Y0115294D01*
X0201396Y0116893D02*
X0203604Y0116893D01*
X0204969Y0118491D02*
X0200031Y0118491D01*
X0194969Y0118491D02*
X0190586Y0118491D01*
X0190627Y0118461D02*
X0190016Y0118905D01*
X0189343Y0119248D01*
X0188624Y0119482D01*
X0187878Y0119600D01*
X0187700Y0119600D01*
X0187700Y0112000D01*
X0192300Y0112000D01*
X0192300Y0115178D01*
X0192182Y0115924D01*
X0191948Y0116643D01*
X0191605Y0117316D01*
X0191161Y0117927D01*
X0190627Y0118461D01*
X0191821Y0116893D02*
X0193604Y0116893D01*
X0193100Y0115294D02*
X0192282Y0115294D01*
X0192300Y0113696D02*
X0193100Y0113696D01*
X0193100Y0112097D02*
X0192300Y0112097D01*
X0192300Y0111600D02*
X0187700Y0111600D01*
X0187700Y0112000D01*
X0187300Y0112000D01*
X0187300Y0119600D01*
X0187122Y0119600D01*
X0186376Y0119482D01*
X0185657Y0119248D01*
X0184984Y0118905D01*
X0184373Y0118461D01*
X0183839Y0117927D01*
X0183395Y0117316D01*
X0183052Y0116643D01*
X0182818Y0115924D01*
X0182700Y0115178D01*
X0182700Y0112000D01*
X0187300Y0112000D01*
X0187300Y0111600D01*
X0187700Y0111600D01*
X0187700Y0104000D01*
X0187878Y0104000D01*
X0188624Y0104118D01*
X0189343Y0104352D01*
X0190016Y0104695D01*
X0190627Y0105139D01*
X0191161Y0105673D01*
X0191605Y0106284D01*
X0191948Y0106957D01*
X0192182Y0107676D01*
X0192300Y0108422D01*
X0192300Y0111600D01*
X0192300Y0110499D02*
X0193100Y0110499D01*
X0193100Y0108900D02*
X0192300Y0108900D01*
X0192060Y0107302D02*
X0193358Y0107302D01*
X0194374Y0105703D02*
X0191183Y0105703D01*
X0188539Y0104105D02*
X0255650Y0104105D01*
X0255650Y0105703D02*
X0220626Y0105703D01*
X0221230Y0106308D02*
X0221900Y0107925D01*
X0221900Y0115675D01*
X0221230Y0117292D01*
X0219992Y0118530D01*
X0218375Y0119200D01*
X0216625Y0119200D01*
X0215008Y0118530D01*
X0213770Y0117292D01*
X0213100Y0115675D01*
X0213100Y0107925D01*
X0213770Y0106308D01*
X0215008Y0105070D01*
X0216625Y0104400D01*
X0218375Y0104400D01*
X0219992Y0105070D01*
X0221230Y0106308D01*
X0221642Y0107302D02*
X0255650Y0107302D01*
X0255650Y0108900D02*
X0221900Y0108900D01*
X0221900Y0110499D02*
X0255650Y0110499D01*
X0255650Y0112097D02*
X0221900Y0112097D01*
X0221900Y0113696D02*
X0255650Y0113696D01*
X0255650Y0115294D02*
X0221900Y0115294D01*
X0221396Y0116893D02*
X0255650Y0116893D01*
X0255650Y0118491D02*
X0220031Y0118491D01*
X0214969Y0118491D02*
X0210031Y0118491D01*
X0211396Y0116893D02*
X0213604Y0116893D01*
X0213100Y0115294D02*
X0211900Y0115294D01*
X0211900Y0113696D02*
X0213100Y0113696D01*
X0213100Y0112097D02*
X0211900Y0112097D01*
X0211900Y0110499D02*
X0213100Y0110499D01*
X0213100Y0108900D02*
X0211900Y0108900D01*
X0211642Y0107302D02*
X0213358Y0107302D01*
X0214374Y0105703D02*
X0210626Y0105703D01*
X0215008Y0098530D02*
X0216625Y0099200D01*
X0218375Y0099200D01*
X0219992Y0098530D01*
X0221230Y0097292D01*
X0221900Y0095675D01*
X0221900Y0087925D01*
X0221230Y0086308D01*
X0219992Y0085070D01*
X0218375Y0084400D01*
X0216625Y0084400D01*
X0215008Y0085070D01*
X0213770Y0086308D01*
X0213100Y0087925D01*
X0213100Y0095675D01*
X0213770Y0097292D01*
X0215008Y0098530D01*
X0214188Y0097711D02*
X0210812Y0097711D01*
X0211719Y0096112D02*
X0213281Y0096112D01*
X0213100Y0094514D02*
X0211900Y0094514D01*
X0211900Y0092915D02*
X0213100Y0092915D01*
X0213100Y0091317D02*
X0211900Y0091317D01*
X0211900Y0089718D02*
X0213100Y0089718D01*
X0213100Y0088120D02*
X0211900Y0088120D01*
X0211319Y0086521D02*
X0213681Y0086521D01*
X0215363Y0084923D02*
X0209637Y0084923D01*
X0219637Y0084923D02*
X0255650Y0084923D01*
X0255650Y0086521D02*
X0221319Y0086521D01*
X0221900Y0088120D02*
X0255650Y0088120D01*
X0255650Y0089718D02*
X0221900Y0089718D01*
X0221900Y0091317D02*
X0255650Y0091317D01*
X0255650Y0092915D02*
X0221900Y0092915D01*
X0221900Y0094514D02*
X0255650Y0094514D01*
X0255650Y0096112D02*
X0221719Y0096112D01*
X0220812Y0097711D02*
X0255650Y0097711D01*
X0255650Y0099309D02*
X0189155Y0099309D01*
X0189343Y0099248D02*
X0188624Y0099482D01*
X0187878Y0099600D01*
X0187700Y0099600D01*
X0187700Y0092000D01*
X0192300Y0092000D01*
X0192300Y0095178D01*
X0192182Y0095924D01*
X0191948Y0096643D01*
X0191605Y0097316D01*
X0191161Y0097927D01*
X0190627Y0098461D01*
X0190016Y0098905D01*
X0189343Y0099248D01*
X0187700Y0099309D02*
X0187300Y0099309D01*
X0187300Y0099600D02*
X0187122Y0099600D01*
X0186376Y0099482D01*
X0185657Y0099248D01*
X0184984Y0098905D01*
X0184373Y0098461D01*
X0183839Y0097927D01*
X0183395Y0097316D01*
X0183052Y0096643D01*
X0182818Y0095924D01*
X0182700Y0095178D01*
X0182700Y0092000D01*
X0187300Y0092000D01*
X0187300Y0099600D01*
X0185845Y0099309D02*
X0144155Y0099309D01*
X0144343Y0099248D02*
X0143624Y0099482D01*
X0142878Y0099600D01*
X0142700Y0099600D01*
X0142700Y0092000D01*
X0147300Y0092000D01*
X0147300Y0095178D01*
X0147182Y0095924D01*
X0146948Y0096643D01*
X0146605Y0097316D01*
X0146161Y0097927D01*
X0145627Y0098461D01*
X0145016Y0098905D01*
X0144343Y0099248D01*
X0142700Y0099309D02*
X0142300Y0099309D01*
X0142300Y0099600D02*
X0142122Y0099600D01*
X0141376Y0099482D01*
X0140657Y0099248D01*
X0139984Y0098905D01*
X0139373Y0098461D01*
X0138839Y0097927D01*
X0138395Y0097316D01*
X0138052Y0096643D01*
X0137818Y0095924D01*
X0137700Y0095178D01*
X0137700Y0092000D01*
X0142300Y0092000D01*
X0142300Y0099600D01*
X0140845Y0099309D02*
X0069196Y0099309D01*
X0070400Y0100908D02*
X0255650Y0100908D01*
X0255650Y0102506D02*
X0070400Y0102506D01*
X0070400Y0104105D02*
X0141461Y0104105D01*
X0141376Y0104118D02*
X0142122Y0104000D01*
X0142300Y0104000D01*
X0142300Y0111600D01*
X0142700Y0111600D01*
X0142700Y0112000D01*
X0147300Y0112000D01*
X0147300Y0115178D01*
X0147182Y0115924D01*
X0146948Y0116643D01*
X0146605Y0117316D01*
X0146161Y0117927D01*
X0145627Y0118461D01*
X0145016Y0118905D01*
X0144343Y0119248D01*
X0143624Y0119482D01*
X0142878Y0119600D01*
X0142700Y0119600D01*
X0142700Y0112000D01*
X0142300Y0112000D01*
X0142300Y0119600D01*
X0142122Y0119600D01*
X0141376Y0119482D01*
X0140657Y0119248D01*
X0139984Y0118905D01*
X0139373Y0118461D01*
X0138839Y0117927D01*
X0138395Y0117316D01*
X0138052Y0116643D01*
X0137818Y0115924D01*
X0137700Y0115178D01*
X0137700Y0112000D01*
X0142300Y0112000D01*
X0142300Y0111600D01*
X0137700Y0111600D01*
X0137700Y0108422D01*
X0137818Y0107676D01*
X0138052Y0106957D01*
X0138395Y0106284D01*
X0138839Y0105673D01*
X0139373Y0105139D01*
X0139984Y0104695D01*
X0140657Y0104352D01*
X0141376Y0104118D01*
X0142300Y0104105D02*
X0142700Y0104105D01*
X0142700Y0104000D02*
X0142878Y0104000D01*
X0143624Y0104118D01*
X0144343Y0104352D01*
X0145016Y0104695D01*
X0145627Y0105139D01*
X0146161Y0105673D01*
X0146605Y0106284D01*
X0146948Y0106957D01*
X0147182Y0107676D01*
X0147300Y0108422D01*
X0147300Y0111600D01*
X0142700Y0111600D01*
X0142700Y0104000D01*
X0143539Y0104105D02*
X0186461Y0104105D01*
X0186376Y0104118D02*
X0187122Y0104000D01*
X0187300Y0104000D01*
X0187300Y0111600D01*
X0182700Y0111600D01*
X0182700Y0108422D01*
X0182818Y0107676D01*
X0183052Y0106957D01*
X0183395Y0106284D01*
X0183839Y0105673D01*
X0184373Y0105139D01*
X0184984Y0104695D01*
X0185657Y0104352D01*
X0186376Y0104118D01*
X0187300Y0104105D02*
X0187700Y0104105D01*
X0187700Y0105703D02*
X0187300Y0105703D01*
X0187300Y0107302D02*
X0187700Y0107302D01*
X0187700Y0108900D02*
X0187300Y0108900D01*
X0187300Y0110499D02*
X0187700Y0110499D01*
X0187700Y0112097D02*
X0187300Y0112097D01*
X0187300Y0113696D02*
X0187700Y0113696D01*
X0187700Y0115294D02*
X0187300Y0115294D01*
X0187300Y0116893D02*
X0187700Y0116893D01*
X0187700Y0118491D02*
X0187300Y0118491D01*
X0184414Y0118491D02*
X0175031Y0118491D01*
X0174992Y0118530D02*
X0173375Y0119200D01*
X0171625Y0119200D01*
X0170008Y0118530D01*
X0168770Y0117292D01*
X0168100Y0115675D01*
X0168100Y0107925D01*
X0168770Y0106308D01*
X0170008Y0105070D01*
X0171625Y0104400D01*
X0173375Y0104400D01*
X0174992Y0105070D01*
X0176230Y0106308D01*
X0176900Y0107925D01*
X0176900Y0115675D01*
X0176230Y0117292D01*
X0174992Y0118530D01*
X0176396Y0116893D02*
X0183179Y0116893D01*
X0182718Y0115294D02*
X0176900Y0115294D01*
X0176900Y0113696D02*
X0182700Y0113696D01*
X0182700Y0112097D02*
X0176900Y0112097D01*
X0176900Y0110499D02*
X0182700Y0110499D01*
X0182700Y0108900D02*
X0176900Y0108900D01*
X0176642Y0107302D02*
X0182940Y0107302D01*
X0183817Y0105703D02*
X0175626Y0105703D01*
X0169374Y0105703D02*
X0165626Y0105703D01*
X0166230Y0106308D02*
X0166900Y0107925D01*
X0166900Y0115675D01*
X0166230Y0117292D01*
X0164992Y0118530D01*
X0163375Y0119200D01*
X0161625Y0119200D01*
X0160008Y0118530D01*
X0158770Y0117292D01*
X0158100Y0115675D01*
X0158100Y0107925D01*
X0158770Y0106308D01*
X0160008Y0105070D01*
X0161625Y0104400D01*
X0163375Y0104400D01*
X0164992Y0105070D01*
X0166230Y0106308D01*
X0166642Y0107302D02*
X0168358Y0107302D01*
X0168100Y0108900D02*
X0166900Y0108900D01*
X0166900Y0110499D02*
X0168100Y0110499D01*
X0168100Y0112097D02*
X0166900Y0112097D01*
X0166900Y0113696D02*
X0168100Y0113696D01*
X0168100Y0115294D02*
X0166900Y0115294D01*
X0166396Y0116893D02*
X0168604Y0116893D01*
X0169969Y0118491D02*
X0165031Y0118491D01*
X0159969Y0118491D02*
X0155031Y0118491D01*
X0154992Y0118530D02*
X0153375Y0119200D01*
X0151625Y0119200D01*
X0150008Y0118530D01*
X0148770Y0117292D01*
X0148100Y0115675D01*
X0148100Y0107925D01*
X0148770Y0106308D01*
X0150008Y0105070D01*
X0151625Y0104400D01*
X0153375Y0104400D01*
X0154992Y0105070D01*
X0156230Y0106308D01*
X0156900Y0107925D01*
X0156900Y0115675D01*
X0156230Y0117292D01*
X0154992Y0118530D01*
X0156396Y0116893D02*
X0158604Y0116893D01*
X0158100Y0115294D02*
X0156900Y0115294D01*
X0156900Y0113696D02*
X0158100Y0113696D01*
X0158100Y0112097D02*
X0156900Y0112097D01*
X0156900Y0110499D02*
X0158100Y0110499D01*
X0158100Y0108900D02*
X0156900Y0108900D01*
X0156642Y0107302D02*
X0158358Y0107302D01*
X0159374Y0105703D02*
X0155626Y0105703D01*
X0149374Y0105703D02*
X0146183Y0105703D01*
X0147060Y0107302D02*
X0148358Y0107302D01*
X0148100Y0108900D02*
X0147300Y0108900D01*
X0147300Y0110499D02*
X0148100Y0110499D01*
X0148100Y0112097D02*
X0147300Y0112097D01*
X0147300Y0113696D02*
X0148100Y0113696D01*
X0148100Y0115294D02*
X0147282Y0115294D01*
X0146821Y0116893D02*
X0148604Y0116893D01*
X0149969Y0118491D02*
X0145586Y0118491D01*
X0142700Y0118491D02*
X0142300Y0118491D01*
X0142300Y0116893D02*
X0142700Y0116893D01*
X0142700Y0115294D02*
X0142300Y0115294D01*
X0142300Y0113696D02*
X0142700Y0113696D01*
X0142700Y0112097D02*
X0142300Y0112097D01*
X0142300Y0110499D02*
X0142700Y0110499D01*
X0142700Y0108900D02*
X0142300Y0108900D01*
X0142300Y0107302D02*
X0142700Y0107302D01*
X0142700Y0105703D02*
X0142300Y0105703D01*
X0138817Y0105703D02*
X0070400Y0105703D01*
X0070400Y0107302D02*
X0089758Y0107302D01*
X0092761Y0107302D02*
X0093720Y0107302D01*
X0093720Y0108900D02*
X0092761Y0108900D01*
X0092761Y0110499D02*
X0093720Y0110499D01*
X0093720Y0112097D02*
X0137700Y0112097D01*
X0137700Y0110499D02*
X0097599Y0110499D01*
X0097599Y0108900D02*
X0137700Y0108900D01*
X0137940Y0107302D02*
X0096722Y0107302D01*
X0097599Y0112280D02*
X0093720Y0112280D01*
X0093720Y0116553D01*
X0096036Y0116553D01*
X0096494Y0116430D01*
X0096904Y0116193D01*
X0097240Y0115858D01*
X0097477Y0115448D01*
X0097599Y0114990D01*
X0097599Y0112280D01*
X0097599Y0113696D02*
X0137700Y0113696D01*
X0137718Y0115294D02*
X0097518Y0115294D01*
X0093720Y0115294D02*
X0092761Y0115294D01*
X0092761Y0113696D02*
X0093720Y0113696D01*
X0088660Y0116893D02*
X0138179Y0116893D01*
X0139414Y0118491D02*
X0088660Y0118491D01*
X0088660Y0120090D02*
X0255650Y0120090D01*
X0255650Y0121688D02*
X0088660Y0121688D01*
X0088660Y0123287D02*
X0255650Y0123287D01*
X0255650Y0124885D02*
X0219547Y0124885D01*
X0219992Y0125070D02*
X0221230Y0126308D01*
X0221900Y0127925D01*
X0221900Y0135675D01*
X0221230Y0137292D01*
X0219992Y0138530D01*
X0218375Y0139200D01*
X0216625Y0139200D01*
X0215008Y0138530D01*
X0213770Y0137292D01*
X0213100Y0135675D01*
X0213100Y0127925D01*
X0213770Y0126308D01*
X0215008Y0125070D01*
X0216625Y0124400D01*
X0218375Y0124400D01*
X0219992Y0125070D01*
X0221303Y0126484D02*
X0255650Y0126484D01*
X0255650Y0128082D02*
X0221900Y0128082D01*
X0221900Y0129681D02*
X0255650Y0129681D01*
X0255650Y0131279D02*
X0221900Y0131279D01*
X0221900Y0132878D02*
X0255650Y0132878D01*
X0255650Y0134476D02*
X0221900Y0134476D01*
X0221734Y0136075D02*
X0255650Y0136075D01*
X0255650Y0137673D02*
X0220849Y0137673D01*
X0214151Y0137673D02*
X0210849Y0137673D01*
X0211230Y0137292D02*
X0209992Y0138530D01*
X0208375Y0139200D01*
X0206625Y0139200D01*
X0205008Y0138530D01*
X0203770Y0137292D01*
X0203100Y0135675D01*
X0203100Y0127925D01*
X0203770Y0126308D01*
X0205008Y0125070D01*
X0206625Y0124400D01*
X0208375Y0124400D01*
X0209992Y0125070D01*
X0211230Y0126308D01*
X0211900Y0127925D01*
X0211900Y0135675D01*
X0211230Y0137292D01*
X0211734Y0136075D02*
X0213266Y0136075D01*
X0213100Y0134476D02*
X0211900Y0134476D01*
X0211900Y0132878D02*
X0213100Y0132878D01*
X0213100Y0131279D02*
X0211900Y0131279D01*
X0211900Y0129681D02*
X0213100Y0129681D01*
X0213100Y0128082D02*
X0211900Y0128082D01*
X0211303Y0126484D02*
X0213697Y0126484D01*
X0215453Y0124885D02*
X0209547Y0124885D01*
X0205453Y0124885D02*
X0199547Y0124885D01*
X0199992Y0125070D02*
X0201230Y0126308D01*
X0201900Y0127925D01*
X0201900Y0135675D01*
X0201230Y0137292D01*
X0199992Y0138530D01*
X0198375Y0139200D01*
X0196625Y0139200D01*
X0195008Y0138530D01*
X0193770Y0137292D01*
X0193100Y0135675D01*
X0193100Y0127925D01*
X0193770Y0126308D01*
X0195008Y0125070D01*
X0196625Y0124400D01*
X0198375Y0124400D01*
X0199992Y0125070D01*
X0201303Y0126484D02*
X0203697Y0126484D01*
X0203100Y0128082D02*
X0201900Y0128082D01*
X0201900Y0129681D02*
X0203100Y0129681D01*
X0203100Y0131279D02*
X0201900Y0131279D01*
X0201900Y0132878D02*
X0203100Y0132878D01*
X0203100Y0134476D02*
X0201900Y0134476D01*
X0201734Y0136075D02*
X0203266Y0136075D01*
X0204151Y0137673D02*
X0200849Y0137673D01*
X0194151Y0137673D02*
X0191345Y0137673D01*
X0191161Y0137927D02*
X0191605Y0137316D01*
X0191948Y0136643D01*
X0192182Y0135924D01*
X0192300Y0135178D01*
X0192300Y0132000D01*
X0187700Y0132000D01*
X0187700Y0131600D01*
X0192300Y0131600D01*
X0192300Y0128422D01*
X0192182Y0127676D01*
X0191948Y0126957D01*
X0191605Y0126284D01*
X0191161Y0125673D01*
X0190627Y0125139D01*
X0190016Y0124695D01*
X0189343Y0124352D01*
X0188624Y0124118D01*
X0187878Y0124000D01*
X0187700Y0124000D01*
X0187700Y0131600D01*
X0187300Y0131600D01*
X0187300Y0124000D01*
X0187122Y0124000D01*
X0186376Y0124118D01*
X0185657Y0124352D01*
X0184984Y0124695D01*
X0184373Y0125139D01*
X0183839Y0125673D01*
X0183395Y0126284D01*
X0183052Y0126957D01*
X0182818Y0127676D01*
X0182700Y0128422D01*
X0182700Y0131600D01*
X0187300Y0131600D01*
X0187300Y0132000D01*
X0187300Y0139600D01*
X0187122Y0139600D01*
X0186376Y0139482D01*
X0185657Y0139248D01*
X0184984Y0138905D01*
X0184373Y0138461D01*
X0183839Y0137927D01*
X0183395Y0137316D01*
X0183052Y0136643D01*
X0182818Y0135924D01*
X0182700Y0135178D01*
X0182700Y0132000D01*
X0187300Y0132000D01*
X0187700Y0132000D01*
X0187700Y0139600D01*
X0187878Y0139600D01*
X0188624Y0139482D01*
X0189343Y0139248D01*
X0190016Y0138905D01*
X0190627Y0138461D01*
X0191161Y0137927D01*
X0192133Y0136075D02*
X0193266Y0136075D01*
X0193100Y0134476D02*
X0192300Y0134476D01*
X0192300Y0132878D02*
X0193100Y0132878D01*
X0193100Y0131279D02*
X0192300Y0131279D01*
X0192300Y0129681D02*
X0193100Y0129681D01*
X0193100Y0128082D02*
X0192246Y0128082D01*
X0191707Y0126484D02*
X0193697Y0126484D01*
X0195453Y0124885D02*
X0190278Y0124885D01*
X0187700Y0124885D02*
X0187300Y0124885D01*
X0187300Y0126484D02*
X0187700Y0126484D01*
X0187700Y0128082D02*
X0187300Y0128082D01*
X0187300Y0129681D02*
X0187700Y0129681D01*
X0187700Y0131279D02*
X0187300Y0131279D01*
X0187300Y0132878D02*
X0187700Y0132878D01*
X0187700Y0134476D02*
X0187300Y0134476D01*
X0187300Y0136075D02*
X0187700Y0136075D01*
X0187700Y0137673D02*
X0187300Y0137673D01*
X0187300Y0139272D02*
X0187700Y0139272D01*
X0189270Y0139272D02*
X0255650Y0139272D01*
X0255650Y0140870D02*
X0097599Y0140870D01*
X0097599Y0142469D02*
X0255650Y0142469D01*
X0255650Y0144068D02*
X0188304Y0144068D01*
X0188624Y0144118D02*
X0189343Y0144352D01*
X0190016Y0144695D01*
X0190627Y0145139D01*
X0191161Y0145673D01*
X0191605Y0146284D01*
X0191948Y0146957D01*
X0192182Y0147676D01*
X0192300Y0148422D01*
X0192300Y0151600D01*
X0187700Y0151600D01*
X0187700Y0152000D01*
X0192300Y0152000D01*
X0192300Y0155178D01*
X0192182Y0155924D01*
X0191948Y0156643D01*
X0191605Y0157316D01*
X0191161Y0157927D01*
X0190627Y0158461D01*
X0190016Y0158905D01*
X0189343Y0159248D01*
X0188624Y0159482D01*
X0187878Y0159600D01*
X0187700Y0159600D01*
X0187700Y0152000D01*
X0187300Y0152000D01*
X0187300Y0159600D01*
X0187122Y0159600D01*
X0186376Y0159482D01*
X0185657Y0159248D01*
X0184984Y0158905D01*
X0184373Y0158461D01*
X0183839Y0157927D01*
X0183395Y0157316D01*
X0183052Y0156643D01*
X0182818Y0155924D01*
X0182700Y0155178D01*
X0182700Y0152000D01*
X0187300Y0152000D01*
X0187300Y0151600D01*
X0187700Y0151600D01*
X0187700Y0144000D01*
X0187878Y0144000D01*
X0188624Y0144118D01*
X0187700Y0144068D02*
X0187300Y0144068D01*
X0187300Y0144000D02*
X0187300Y0151600D01*
X0182700Y0151600D01*
X0182700Y0148422D01*
X0182818Y0147676D01*
X0183052Y0146957D01*
X0183395Y0146284D01*
X0183839Y0145673D01*
X0184373Y0145139D01*
X0184984Y0144695D01*
X0185657Y0144352D01*
X0186376Y0144118D01*
X0187122Y0144000D01*
X0187300Y0144000D01*
X0186696Y0144068D02*
X0143304Y0144068D01*
X0143624Y0144118D02*
X0144343Y0144352D01*
X0145016Y0144695D01*
X0145627Y0145139D01*
X0146161Y0145673D01*
X0146605Y0146284D01*
X0146948Y0146957D01*
X0147182Y0147676D01*
X0147300Y0148422D01*
X0147300Y0151600D01*
X0142700Y0151600D01*
X0142700Y0152000D01*
X0147300Y0152000D01*
X0147300Y0155178D01*
X0147182Y0155924D01*
X0146948Y0156643D01*
X0146605Y0157316D01*
X0146161Y0157927D01*
X0145627Y0158461D01*
X0145016Y0158905D01*
X0144343Y0159248D01*
X0143624Y0159482D01*
X0142878Y0159600D01*
X0142700Y0159600D01*
X0142700Y0152000D01*
X0142300Y0152000D01*
X0142300Y0159600D01*
X0142122Y0159600D01*
X0141376Y0159482D01*
X0140657Y0159248D01*
X0139984Y0158905D01*
X0139373Y0158461D01*
X0138839Y0157927D01*
X0138395Y0157316D01*
X0138052Y0156643D01*
X0137818Y0155924D01*
X0137700Y0155178D01*
X0137700Y0152000D01*
X0142300Y0152000D01*
X0142300Y0151600D01*
X0142700Y0151600D01*
X0142700Y0144000D01*
X0142878Y0144000D01*
X0143624Y0144118D01*
X0142700Y0144068D02*
X0142300Y0144068D01*
X0142300Y0144000D02*
X0142300Y0151600D01*
X0137700Y0151600D01*
X0137700Y0148422D01*
X0137818Y0147676D01*
X0138052Y0146957D01*
X0138395Y0146284D01*
X0138839Y0145673D01*
X0139373Y0145139D01*
X0139984Y0144695D01*
X0140657Y0144352D01*
X0141376Y0144118D01*
X0142122Y0144000D01*
X0142300Y0144000D01*
X0141696Y0144068D02*
X0097599Y0144068D01*
X0097599Y0143780D02*
X0097599Y0146490D01*
X0097477Y0146948D01*
X0097240Y0147358D01*
X0096904Y0147693D01*
X0096494Y0147930D01*
X0096036Y0148053D01*
X0093720Y0148053D01*
X0093720Y0143780D01*
X0097599Y0143780D01*
X0097599Y0145666D02*
X0138846Y0145666D01*
X0137952Y0147265D02*
X0097294Y0147265D01*
X0093720Y0147265D02*
X0092761Y0147265D01*
X0092761Y0145666D02*
X0093720Y0145666D01*
X0093720Y0144068D02*
X0092761Y0144068D01*
X0092761Y0142469D02*
X0093720Y0142469D01*
X0093720Y0140870D02*
X0092761Y0140870D01*
X0092761Y0139272D02*
X0093720Y0139272D01*
X0097257Y0139272D02*
X0140730Y0139272D01*
X0140657Y0139248D02*
X0139984Y0138905D01*
X0139373Y0138461D01*
X0138839Y0137927D01*
X0138395Y0137316D01*
X0138052Y0136643D01*
X0137818Y0135924D01*
X0137700Y0135178D01*
X0137700Y0132000D01*
X0142300Y0132000D01*
X0142300Y0139600D01*
X0142122Y0139600D01*
X0141376Y0139482D01*
X0140657Y0139248D01*
X0142300Y0139272D02*
X0142700Y0139272D01*
X0142700Y0139600D02*
X0142700Y0132000D01*
X0147300Y0132000D01*
X0147300Y0135178D01*
X0147182Y0135924D01*
X0146948Y0136643D01*
X0146605Y0137316D01*
X0146161Y0137927D01*
X0145627Y0138461D01*
X0145016Y0138905D01*
X0144343Y0139248D01*
X0143624Y0139482D01*
X0142878Y0139600D01*
X0142700Y0139600D01*
X0144270Y0139272D02*
X0185730Y0139272D01*
X0183655Y0137673D02*
X0175849Y0137673D01*
X0176230Y0137292D02*
X0174992Y0138530D01*
X0173375Y0139200D01*
X0171625Y0139200D01*
X0170008Y0138530D01*
X0168770Y0137292D01*
X0168100Y0135675D01*
X0168100Y0127925D01*
X0168770Y0126308D01*
X0170008Y0125070D01*
X0171625Y0124400D01*
X0173375Y0124400D01*
X0174992Y0125070D01*
X0176230Y0126308D01*
X0176900Y0127925D01*
X0176900Y0135675D01*
X0176230Y0137292D01*
X0176734Y0136075D02*
X0182867Y0136075D01*
X0182700Y0134476D02*
X0176900Y0134476D01*
X0176900Y0132878D02*
X0182700Y0132878D01*
X0182700Y0131279D02*
X0176900Y0131279D01*
X0176900Y0129681D02*
X0182700Y0129681D01*
X0182754Y0128082D02*
X0176900Y0128082D01*
X0176303Y0126484D02*
X0183293Y0126484D01*
X0184722Y0124885D02*
X0174547Y0124885D01*
X0170453Y0124885D02*
X0164547Y0124885D01*
X0164992Y0125070D02*
X0166230Y0126308D01*
X0166900Y0127925D01*
X0166900Y0135675D01*
X0166230Y0137292D01*
X0164992Y0138530D01*
X0163375Y0139200D01*
X0161625Y0139200D01*
X0160008Y0138530D01*
X0158770Y0137292D01*
X0158100Y0135675D01*
X0158100Y0127925D01*
X0158770Y0126308D01*
X0160008Y0125070D01*
X0161625Y0124400D01*
X0163375Y0124400D01*
X0164992Y0125070D01*
X0166303Y0126484D02*
X0168697Y0126484D01*
X0168100Y0128082D02*
X0166900Y0128082D01*
X0166900Y0129681D02*
X0168100Y0129681D01*
X0168100Y0131279D02*
X0166900Y0131279D01*
X0166900Y0132878D02*
X0168100Y0132878D01*
X0168100Y0134476D02*
X0166900Y0134476D01*
X0166734Y0136075D02*
X0168266Y0136075D01*
X0169151Y0137673D02*
X0165849Y0137673D01*
X0159151Y0137673D02*
X0155849Y0137673D01*
X0156230Y0137292D02*
X0154992Y0138530D01*
X0153375Y0139200D01*
X0151625Y0139200D01*
X0150008Y0138530D01*
X0148770Y0137292D01*
X0148100Y0135675D01*
X0148100Y0127925D01*
X0148770Y0126308D01*
X0150008Y0125070D01*
X0151625Y0124400D01*
X0153375Y0124400D01*
X0154992Y0125070D01*
X0156230Y0126308D01*
X0156900Y0127925D01*
X0156900Y0135675D01*
X0156230Y0137292D01*
X0156734Y0136075D02*
X0158266Y0136075D01*
X0158100Y0134476D02*
X0156900Y0134476D01*
X0156900Y0132878D02*
X0158100Y0132878D01*
X0158100Y0131279D02*
X0156900Y0131279D01*
X0156900Y0129681D02*
X0158100Y0129681D01*
X0158100Y0128082D02*
X0156900Y0128082D01*
X0156303Y0126484D02*
X0158697Y0126484D01*
X0160453Y0124885D02*
X0154547Y0124885D01*
X0150453Y0124885D02*
X0145278Y0124885D01*
X0145016Y0124695D02*
X0145627Y0125139D01*
X0146161Y0125673D01*
X0146605Y0126284D01*
X0146948Y0126957D01*
X0147182Y0127676D01*
X0147300Y0128422D01*
X0147300Y0131600D01*
X0142700Y0131600D01*
X0142700Y0132000D01*
X0142300Y0132000D01*
X0142300Y0131600D01*
X0142700Y0131600D01*
X0142700Y0124000D01*
X0142878Y0124000D01*
X0143624Y0124118D01*
X0144343Y0124352D01*
X0145016Y0124695D01*
X0142700Y0124885D02*
X0142300Y0124885D01*
X0142300Y0124000D02*
X0142300Y0131600D01*
X0137700Y0131600D01*
X0137700Y0128422D01*
X0137818Y0127676D01*
X0138052Y0126957D01*
X0138395Y0126284D01*
X0138839Y0125673D01*
X0139373Y0125139D01*
X0139984Y0124695D01*
X0140657Y0124352D01*
X0141376Y0124118D01*
X0142122Y0124000D01*
X0142300Y0124000D01*
X0142300Y0126484D02*
X0142700Y0126484D01*
X0142700Y0128082D02*
X0142300Y0128082D01*
X0142300Y0129681D02*
X0142700Y0129681D01*
X0142700Y0131279D02*
X0142300Y0131279D01*
X0142300Y0132878D02*
X0142700Y0132878D01*
X0142700Y0134476D02*
X0142300Y0134476D01*
X0142300Y0136075D02*
X0142700Y0136075D01*
X0142700Y0137673D02*
X0142300Y0137673D01*
X0138655Y0137673D02*
X0088660Y0137673D01*
X0088660Y0136075D02*
X0137867Y0136075D01*
X0137700Y0134476D02*
X0088660Y0134476D01*
X0088660Y0132878D02*
X0137700Y0132878D01*
X0137700Y0131279D02*
X0088660Y0131279D01*
X0088660Y0129681D02*
X0137700Y0129681D01*
X0137754Y0128082D02*
X0088660Y0128082D01*
X0088660Y0126484D02*
X0138293Y0126484D01*
X0139722Y0124885D02*
X0088660Y0124885D01*
X0081801Y0112097D02*
X0069561Y0112097D01*
X0070875Y0110499D02*
X0081801Y0110499D01*
X0081801Y0108900D02*
X0070875Y0108900D01*
X0060600Y0105703D02*
X0059762Y0105703D01*
X0058375Y0096112D02*
X0137879Y0096112D01*
X0137700Y0094514D02*
X0057072Y0094514D01*
X0054928Y0094514D02*
X0051846Y0094514D01*
X0052400Y0092915D02*
X0137700Y0092915D01*
X0137700Y0091600D02*
X0137700Y0088422D01*
X0137818Y0087676D01*
X0138052Y0086957D01*
X0138395Y0086284D01*
X0138839Y0085673D01*
X0139373Y0085139D01*
X0139984Y0084695D01*
X0140657Y0084352D01*
X0141376Y0084118D01*
X0142122Y0084000D01*
X0142300Y0084000D01*
X0142300Y0091600D01*
X0142700Y0091600D01*
X0142700Y0092000D01*
X0142300Y0092000D01*
X0142300Y0091600D01*
X0137700Y0091600D01*
X0137700Y0091317D02*
X0052355Y0091317D01*
X0051641Y0089718D02*
X0137700Y0089718D01*
X0137748Y0088120D02*
X0049405Y0088120D01*
X0049307Y0086521D02*
X0138274Y0086521D01*
X0139671Y0084923D02*
X0051600Y0084923D01*
X0052338Y0083324D02*
X0255650Y0083324D01*
X0255650Y0081726D02*
X0052400Y0081726D01*
X0051862Y0080127D02*
X0255650Y0080127D01*
X0255650Y0043361D02*
X0052323Y0043361D01*
X0052400Y0041763D02*
X0255650Y0041763D01*
X0255650Y0040164D02*
X0051878Y0040164D01*
X0051563Y0044960D02*
X0139619Y0044960D01*
X0138255Y0046558D02*
X0049217Y0046558D01*
X0049495Y0048157D02*
X0137742Y0048157D01*
X0137700Y0049755D02*
X0051678Y0049755D01*
X0052371Y0051354D02*
X0137700Y0051354D01*
X0137700Y0052952D02*
X0052400Y0052952D01*
X0051830Y0054551D02*
X0137700Y0054551D01*
X0137891Y0056149D02*
X0050204Y0056149D01*
X0049523Y0057748D02*
X0138709Y0057748D01*
X0139466Y0078529D02*
X0050393Y0078529D01*
X0045200Y0065740D02*
X0044800Y0065740D01*
X0044800Y0064142D02*
X0045200Y0064142D01*
X0045200Y0062543D02*
X0044800Y0062543D01*
X0044800Y0060945D02*
X0045200Y0060945D01*
X0045200Y0059346D02*
X0044800Y0059346D01*
X0044800Y0057748D02*
X0045200Y0057748D01*
X0046700Y0033770D02*
X0048300Y0033770D01*
X0048300Y0032172D02*
X0046700Y0032172D01*
X0046700Y0030573D02*
X0048300Y0030573D01*
X0048300Y0028975D02*
X0046700Y0028975D01*
X0046700Y0027376D02*
X0048300Y0027376D01*
X0048300Y0025778D02*
X0046700Y0025778D01*
X0046700Y0021000D02*
X0034214Y0021000D01*
X0034328Y0019846D01*
X0034583Y0018564D01*
X0034962Y0017314D01*
X0035462Y0016107D01*
X0036078Y0014954D01*
X0036804Y0013868D01*
X0037633Y0012857D01*
X0038557Y0011933D01*
X0039568Y0011104D01*
X0040654Y0010378D01*
X0041807Y0009762D01*
X0043014Y0009262D01*
X0044264Y0008883D01*
X0045546Y0008628D01*
X0046700Y0008514D01*
X0046700Y0021000D01*
X0046700Y0020982D02*
X0048300Y0020982D01*
X0048300Y0019384D02*
X0046700Y0019384D01*
X0046700Y0017785D02*
X0048300Y0017785D01*
X0048300Y0016187D02*
X0046700Y0016187D01*
X0046700Y0014588D02*
X0048300Y0014588D01*
X0048300Y0012990D02*
X0046700Y0012990D01*
X0046700Y0011391D02*
X0048300Y0011391D01*
X0048300Y0009793D02*
X0046700Y0009793D01*
X0041750Y0009793D02*
X0030100Y0009793D01*
X0030100Y0011391D02*
X0039218Y0011391D01*
X0037525Y0012990D02*
X0030100Y0012990D01*
X0030100Y0014588D02*
X0036323Y0014588D01*
X0035429Y0016187D02*
X0030100Y0016187D01*
X0030100Y0017785D02*
X0034819Y0017785D01*
X0034420Y0019384D02*
X0030100Y0019384D01*
X0030100Y0020982D02*
X0034216Y0020982D01*
X0050294Y0096112D02*
X0053625Y0096112D01*
X0067598Y0097711D02*
X0138682Y0097711D01*
X0142300Y0097711D02*
X0142700Y0097711D01*
X0142700Y0096112D02*
X0142300Y0096112D01*
X0142300Y0094514D02*
X0142700Y0094514D01*
X0142700Y0092915D02*
X0142300Y0092915D01*
X0142700Y0091600D02*
X0147300Y0091600D01*
X0147300Y0088422D01*
X0147182Y0087676D01*
X0146948Y0086957D01*
X0146605Y0086284D01*
X0146161Y0085673D01*
X0145627Y0085139D01*
X0145016Y0084695D01*
X0144343Y0084352D01*
X0143624Y0084118D01*
X0142878Y0084000D01*
X0142700Y0084000D01*
X0142700Y0091600D01*
X0142700Y0091317D02*
X0142300Y0091317D01*
X0142300Y0089718D02*
X0142700Y0089718D01*
X0142700Y0088120D02*
X0142300Y0088120D01*
X0142300Y0086521D02*
X0142700Y0086521D01*
X0142700Y0084923D02*
X0142300Y0084923D01*
X0145329Y0084923D02*
X0150363Y0084923D01*
X0150008Y0085070D02*
X0151625Y0084400D01*
X0153375Y0084400D01*
X0154992Y0085070D01*
X0156230Y0086308D01*
X0156900Y0087925D01*
X0156900Y0095675D01*
X0156230Y0097292D01*
X0154992Y0098530D01*
X0153375Y0099200D01*
X0151625Y0099200D01*
X0150008Y0098530D01*
X0148770Y0097292D01*
X0148100Y0095675D01*
X0148100Y0087925D01*
X0148770Y0086308D01*
X0150008Y0085070D01*
X0148681Y0086521D02*
X0146726Y0086521D01*
X0147252Y0088120D02*
X0148100Y0088120D01*
X0148100Y0089718D02*
X0147300Y0089718D01*
X0147300Y0091317D02*
X0148100Y0091317D01*
X0148100Y0092915D02*
X0147300Y0092915D01*
X0147300Y0094514D02*
X0148100Y0094514D01*
X0148281Y0096112D02*
X0147121Y0096112D01*
X0146318Y0097711D02*
X0149188Y0097711D01*
X0155812Y0097711D02*
X0159188Y0097711D01*
X0158770Y0097292D02*
X0160008Y0098530D01*
X0161625Y0099200D01*
X0163375Y0099200D01*
X0164992Y0098530D01*
X0166230Y0097292D01*
X0166900Y0095675D01*
X0166900Y0087925D01*
X0166230Y0086308D01*
X0164992Y0085070D01*
X0163375Y0084400D01*
X0161625Y0084400D01*
X0160008Y0085070D01*
X0158770Y0086308D01*
X0158100Y0087925D01*
X0158100Y0095675D01*
X0158770Y0097292D01*
X0158281Y0096112D02*
X0156719Y0096112D01*
X0156900Y0094514D02*
X0158100Y0094514D01*
X0158100Y0092915D02*
X0156900Y0092915D01*
X0156900Y0091317D02*
X0158100Y0091317D01*
X0158100Y0089718D02*
X0156900Y0089718D01*
X0156900Y0088120D02*
X0158100Y0088120D01*
X0158681Y0086521D02*
X0156319Y0086521D01*
X0154637Y0084923D02*
X0160363Y0084923D01*
X0164637Y0084923D02*
X0170363Y0084923D01*
X0170008Y0085070D02*
X0171625Y0084400D01*
X0173375Y0084400D01*
X0174992Y0085070D01*
X0176230Y0086308D01*
X0176900Y0087925D01*
X0176900Y0095675D01*
X0176230Y0097292D01*
X0174992Y0098530D01*
X0173375Y0099200D01*
X0171625Y0099200D01*
X0170008Y0098530D01*
X0168770Y0097292D01*
X0168100Y0095675D01*
X0168100Y0087925D01*
X0168770Y0086308D01*
X0170008Y0085070D01*
X0168681Y0086521D02*
X0166319Y0086521D01*
X0166900Y0088120D02*
X0168100Y0088120D01*
X0168100Y0089718D02*
X0166900Y0089718D01*
X0166900Y0091317D02*
X0168100Y0091317D01*
X0168100Y0092915D02*
X0166900Y0092915D01*
X0166900Y0094514D02*
X0168100Y0094514D01*
X0168281Y0096112D02*
X0166719Y0096112D01*
X0165812Y0097711D02*
X0169188Y0097711D01*
X0175812Y0097711D02*
X0183682Y0097711D01*
X0182879Y0096112D02*
X0176719Y0096112D01*
X0176900Y0094514D02*
X0182700Y0094514D01*
X0182700Y0092915D02*
X0176900Y0092915D01*
X0176900Y0091317D02*
X0182700Y0091317D01*
X0182700Y0091600D02*
X0182700Y0088422D01*
X0182818Y0087676D01*
X0183052Y0086957D01*
X0183395Y0086284D01*
X0183839Y0085673D01*
X0184373Y0085139D01*
X0184984Y0084695D01*
X0185657Y0084352D01*
X0186376Y0084118D01*
X0187122Y0084000D01*
X0187300Y0084000D01*
X0187300Y0091600D01*
X0187700Y0091600D01*
X0187700Y0092000D01*
X0187300Y0092000D01*
X0187300Y0091600D01*
X0182700Y0091600D01*
X0182700Y0089718D02*
X0176900Y0089718D01*
X0176900Y0088120D02*
X0182748Y0088120D01*
X0183274Y0086521D02*
X0176319Y0086521D01*
X0174637Y0084923D02*
X0184671Y0084923D01*
X0187300Y0084923D02*
X0187700Y0084923D01*
X0187700Y0084000D02*
X0187878Y0084000D01*
X0188624Y0084118D01*
X0189343Y0084352D01*
X0190016Y0084695D01*
X0190627Y0085139D01*
X0191161Y0085673D01*
X0191605Y0086284D01*
X0191948Y0086957D01*
X0192182Y0087676D01*
X0192300Y0088422D01*
X0192300Y0091600D01*
X0187700Y0091600D01*
X0187700Y0084000D01*
X0187700Y0086521D02*
X0187300Y0086521D01*
X0187300Y0088120D02*
X0187700Y0088120D01*
X0187700Y0089718D02*
X0187300Y0089718D01*
X0187300Y0091317D02*
X0187700Y0091317D01*
X0187700Y0092915D02*
X0187300Y0092915D01*
X0187300Y0094514D02*
X0187700Y0094514D01*
X0187700Y0096112D02*
X0187300Y0096112D01*
X0187300Y0097711D02*
X0187700Y0097711D01*
X0191318Y0097711D02*
X0194188Y0097711D01*
X0193281Y0096112D02*
X0192121Y0096112D01*
X0192300Y0094514D02*
X0193100Y0094514D01*
X0193100Y0092915D02*
X0192300Y0092915D01*
X0192300Y0091317D02*
X0193100Y0091317D01*
X0193100Y0089718D02*
X0192300Y0089718D01*
X0192252Y0088120D02*
X0193100Y0088120D01*
X0193681Y0086521D02*
X0191726Y0086521D01*
X0190329Y0084923D02*
X0195363Y0084923D01*
X0148697Y0126484D02*
X0146707Y0126484D01*
X0147246Y0128082D02*
X0148100Y0128082D01*
X0148100Y0129681D02*
X0147300Y0129681D01*
X0147300Y0131279D02*
X0148100Y0131279D01*
X0148100Y0132878D02*
X0147300Y0132878D01*
X0147300Y0134476D02*
X0148100Y0134476D01*
X0148266Y0136075D02*
X0147133Y0136075D01*
X0146345Y0137673D02*
X0149151Y0137673D01*
X0151625Y0144400D02*
X0153375Y0144400D01*
X0154992Y0145070D01*
X0156230Y0146308D01*
X0156900Y0147925D01*
X0156900Y0155675D01*
X0156230Y0157292D01*
X0154992Y0158530D01*
X0153375Y0159200D01*
X0151625Y0159200D01*
X0150008Y0158530D01*
X0148770Y0157292D01*
X0148100Y0155675D01*
X0148100Y0147925D01*
X0148770Y0146308D01*
X0150008Y0145070D01*
X0151625Y0144400D01*
X0149411Y0145666D02*
X0146154Y0145666D01*
X0147048Y0147265D02*
X0148373Y0147265D01*
X0148100Y0148863D02*
X0147300Y0148863D01*
X0147300Y0150462D02*
X0148100Y0150462D01*
X0148100Y0152060D02*
X0147300Y0152060D01*
X0147300Y0153659D02*
X0148100Y0153659D01*
X0148100Y0155257D02*
X0147287Y0155257D01*
X0146840Y0156856D02*
X0148589Y0156856D01*
X0149932Y0158454D02*
X0145634Y0158454D01*
X0142700Y0158454D02*
X0142300Y0158454D01*
X0142300Y0156856D02*
X0142700Y0156856D01*
X0142700Y0155257D02*
X0142300Y0155257D01*
X0142300Y0153659D02*
X0142700Y0153659D01*
X0142700Y0152060D02*
X0142300Y0152060D01*
X0142300Y0150462D02*
X0142700Y0150462D01*
X0142700Y0148863D02*
X0142300Y0148863D01*
X0142300Y0147265D02*
X0142700Y0147265D01*
X0142700Y0145666D02*
X0142300Y0145666D01*
X0137700Y0148863D02*
X0088400Y0148863D01*
X0088400Y0150462D02*
X0137700Y0150462D01*
X0137700Y0152060D02*
X0088400Y0152060D01*
X0088400Y0153659D02*
X0137700Y0153659D01*
X0137713Y0155257D02*
X0088400Y0155257D01*
X0088400Y0156856D02*
X0138160Y0156856D01*
X0139366Y0158454D02*
X0088400Y0158454D01*
X0088400Y0160053D02*
X0255650Y0160053D01*
X0255650Y0161651D02*
X0088400Y0161651D01*
X0088400Y0163250D02*
X0255650Y0163250D01*
X0255650Y0164848D02*
X0219457Y0164848D01*
X0219992Y0165070D02*
X0221230Y0166308D01*
X0221900Y0167925D01*
X0221900Y0175675D01*
X0221230Y0177292D01*
X0219992Y0178530D01*
X0218375Y0179200D01*
X0216625Y0179200D01*
X0215008Y0178530D01*
X0213770Y0177292D01*
X0213100Y0175675D01*
X0213100Y0167925D01*
X0213770Y0166308D01*
X0215008Y0165070D01*
X0216625Y0164400D01*
X0218375Y0164400D01*
X0219992Y0165070D01*
X0221288Y0166447D02*
X0255650Y0166447D01*
X0255650Y0168045D02*
X0221900Y0168045D01*
X0221900Y0169644D02*
X0255650Y0169644D01*
X0255650Y0171242D02*
X0221900Y0171242D01*
X0221900Y0172841D02*
X0255650Y0172841D01*
X0255650Y0174439D02*
X0221900Y0174439D01*
X0221750Y0176038D02*
X0255650Y0176038D01*
X0255650Y0177636D02*
X0220886Y0177636D01*
X0214114Y0177636D02*
X0210886Y0177636D01*
X0211230Y0177292D02*
X0209992Y0178530D01*
X0208375Y0179200D01*
X0206625Y0179200D01*
X0205008Y0178530D01*
X0203770Y0177292D01*
X0203100Y0175675D01*
X0203100Y0167925D01*
X0203770Y0166308D01*
X0205008Y0165070D01*
X0206625Y0164400D01*
X0208375Y0164400D01*
X0209992Y0165070D01*
X0211230Y0166308D01*
X0211900Y0167925D01*
X0211900Y0175675D01*
X0211230Y0177292D01*
X0211750Y0176038D02*
X0213250Y0176038D01*
X0213100Y0174439D02*
X0211900Y0174439D01*
X0211900Y0172841D02*
X0213100Y0172841D01*
X0213100Y0171242D02*
X0211900Y0171242D01*
X0211900Y0169644D02*
X0213100Y0169644D01*
X0213100Y0168045D02*
X0211900Y0168045D01*
X0211288Y0166447D02*
X0213712Y0166447D01*
X0215543Y0164848D02*
X0209457Y0164848D01*
X0205543Y0164848D02*
X0199457Y0164848D01*
X0199992Y0165070D02*
X0201230Y0166308D01*
X0201900Y0167925D01*
X0201900Y0175675D01*
X0201230Y0177292D01*
X0199992Y0178530D01*
X0198375Y0179200D01*
X0196625Y0179200D01*
X0195008Y0178530D01*
X0193770Y0177292D01*
X0193100Y0175675D01*
X0193100Y0167925D01*
X0193770Y0166308D01*
X0195008Y0165070D01*
X0196625Y0164400D01*
X0198375Y0164400D01*
X0199992Y0165070D01*
X0201288Y0166447D02*
X0203712Y0166447D01*
X0203100Y0168045D02*
X0201900Y0168045D01*
X0201900Y0169644D02*
X0203100Y0169644D01*
X0203100Y0171242D02*
X0201900Y0171242D01*
X0201900Y0172841D02*
X0203100Y0172841D01*
X0203100Y0174439D02*
X0201900Y0174439D01*
X0201750Y0176038D02*
X0203250Y0176038D01*
X0204114Y0177636D02*
X0200886Y0177636D01*
X0194114Y0177636D02*
X0191372Y0177636D01*
X0191161Y0177927D02*
X0191605Y0177316D01*
X0191948Y0176643D01*
X0192182Y0175924D01*
X0192300Y0175178D01*
X0192300Y0172000D01*
X0187700Y0172000D01*
X0187700Y0171600D01*
X0192300Y0171600D01*
X0192300Y0168422D01*
X0192182Y0167676D01*
X0191948Y0166957D01*
X0191605Y0166284D01*
X0191161Y0165673D01*
X0190627Y0165139D01*
X0190016Y0164695D01*
X0189343Y0164352D01*
X0188624Y0164118D01*
X0187878Y0164000D01*
X0187700Y0164000D01*
X0187700Y0171600D01*
X0187300Y0171600D01*
X0187300Y0164000D01*
X0187122Y0164000D01*
X0186376Y0164118D01*
X0185657Y0164352D01*
X0184984Y0164695D01*
X0184373Y0165139D01*
X0183839Y0165673D01*
X0183395Y0166284D01*
X0183052Y0166957D01*
X0182818Y0167676D01*
X0182700Y0168422D01*
X0182700Y0171600D01*
X0187300Y0171600D01*
X0187300Y0172000D01*
X0187300Y0179600D01*
X0187122Y0179600D01*
X0186376Y0179482D01*
X0185657Y0179248D01*
X0184984Y0178905D01*
X0184373Y0178461D01*
X0183839Y0177927D01*
X0183395Y0177316D01*
X0183052Y0176643D01*
X0182818Y0175924D01*
X0182700Y0175178D01*
X0182700Y0172000D01*
X0187300Y0172000D01*
X0187700Y0172000D01*
X0187700Y0179600D01*
X0187878Y0179600D01*
X0188624Y0179482D01*
X0189343Y0179248D01*
X0190016Y0178905D01*
X0190627Y0178461D01*
X0191161Y0177927D01*
X0192145Y0176038D02*
X0193250Y0176038D01*
X0193100Y0174439D02*
X0192300Y0174439D01*
X0192300Y0172841D02*
X0193100Y0172841D01*
X0193100Y0171242D02*
X0192300Y0171242D01*
X0192300Y0169644D02*
X0193100Y0169644D01*
X0193100Y0168045D02*
X0192240Y0168045D01*
X0191688Y0166447D02*
X0193712Y0166447D01*
X0195543Y0164848D02*
X0190227Y0164848D01*
X0187700Y0164848D02*
X0187300Y0164848D01*
X0187300Y0166447D02*
X0187700Y0166447D01*
X0187700Y0168045D02*
X0187300Y0168045D01*
X0187300Y0169644D02*
X0187700Y0169644D01*
X0187700Y0171242D02*
X0187300Y0171242D01*
X0187300Y0172841D02*
X0187700Y0172841D01*
X0187700Y0174439D02*
X0187300Y0174439D01*
X0187300Y0176038D02*
X0187700Y0176038D01*
X0187700Y0177636D02*
X0187300Y0177636D01*
X0187300Y0179235D02*
X0187700Y0179235D01*
X0189369Y0179235D02*
X0255650Y0179235D01*
X0255650Y0180833D02*
X0088400Y0180833D01*
X0088400Y0179235D02*
X0140631Y0179235D01*
X0140657Y0179248D02*
X0139984Y0178905D01*
X0139373Y0178461D01*
X0138839Y0177927D01*
X0138395Y0177316D01*
X0138052Y0176643D01*
X0137818Y0175924D01*
X0137700Y0175178D01*
X0137700Y0172000D01*
X0142300Y0172000D01*
X0142300Y0179600D01*
X0142122Y0179600D01*
X0141376Y0179482D01*
X0140657Y0179248D01*
X0142300Y0179235D02*
X0142700Y0179235D01*
X0142700Y0179600D02*
X0142700Y0172000D01*
X0147300Y0172000D01*
X0147300Y0175178D01*
X0147182Y0175924D01*
X0146948Y0176643D01*
X0146605Y0177316D01*
X0146161Y0177927D01*
X0145627Y0178461D01*
X0145016Y0178905D01*
X0144343Y0179248D01*
X0143624Y0179482D01*
X0142878Y0179600D01*
X0142700Y0179600D01*
X0144369Y0179235D02*
X0185631Y0179235D01*
X0183628Y0177636D02*
X0175886Y0177636D01*
X0176230Y0177292D02*
X0174992Y0178530D01*
X0173375Y0179200D01*
X0171625Y0179200D01*
X0170008Y0178530D01*
X0168770Y0177292D01*
X0168100Y0175675D01*
X0168100Y0167925D01*
X0168770Y0166308D01*
X0170008Y0165070D01*
X0171625Y0164400D01*
X0173375Y0164400D01*
X0174992Y0165070D01*
X0176230Y0166308D01*
X0176900Y0167925D01*
X0176900Y0175675D01*
X0176230Y0177292D01*
X0176750Y0176038D02*
X0182855Y0176038D01*
X0182700Y0174439D02*
X0176900Y0174439D01*
X0176900Y0172841D02*
X0182700Y0172841D01*
X0182700Y0171242D02*
X0176900Y0171242D01*
X0176900Y0169644D02*
X0182700Y0169644D01*
X0182760Y0168045D02*
X0176900Y0168045D01*
X0176288Y0166447D02*
X0183312Y0166447D01*
X0184773Y0164848D02*
X0174457Y0164848D01*
X0170543Y0164848D02*
X0164457Y0164848D01*
X0164992Y0165070D02*
X0166230Y0166308D01*
X0166900Y0167925D01*
X0166900Y0175675D01*
X0166230Y0177292D01*
X0164992Y0178530D01*
X0163375Y0179200D01*
X0161625Y0179200D01*
X0160008Y0178530D01*
X0158770Y0177292D01*
X0158100Y0175675D01*
X0158100Y0167925D01*
X0158770Y0166308D01*
X0160008Y0165070D01*
X0161625Y0164400D01*
X0163375Y0164400D01*
X0164992Y0165070D01*
X0166288Y0166447D02*
X0168712Y0166447D01*
X0168100Y0168045D02*
X0166900Y0168045D01*
X0166900Y0169644D02*
X0168100Y0169644D01*
X0168100Y0171242D02*
X0166900Y0171242D01*
X0166900Y0172841D02*
X0168100Y0172841D01*
X0168100Y0174439D02*
X0166900Y0174439D01*
X0166750Y0176038D02*
X0168250Y0176038D01*
X0169114Y0177636D02*
X0165886Y0177636D01*
X0159114Y0177636D02*
X0155886Y0177636D01*
X0156230Y0177292D02*
X0154992Y0178530D01*
X0153375Y0179200D01*
X0151625Y0179200D01*
X0150008Y0178530D01*
X0148770Y0177292D01*
X0148100Y0175675D01*
X0148100Y0167925D01*
X0148770Y0166308D01*
X0150008Y0165070D01*
X0151625Y0164400D01*
X0153375Y0164400D01*
X0154992Y0165070D01*
X0156230Y0166308D01*
X0156900Y0167925D01*
X0156900Y0175675D01*
X0156230Y0177292D01*
X0156750Y0176038D02*
X0158250Y0176038D01*
X0158100Y0174439D02*
X0156900Y0174439D01*
X0156900Y0172841D02*
X0158100Y0172841D01*
X0158100Y0171242D02*
X0156900Y0171242D01*
X0156900Y0169644D02*
X0158100Y0169644D01*
X0158100Y0168045D02*
X0156900Y0168045D01*
X0156288Y0166447D02*
X0158712Y0166447D01*
X0160543Y0164848D02*
X0154457Y0164848D01*
X0150543Y0164848D02*
X0145227Y0164848D01*
X0145016Y0164695D02*
X0145627Y0165139D01*
X0146161Y0165673D01*
X0146605Y0166284D01*
X0146948Y0166957D01*
X0147182Y0167676D01*
X0147300Y0168422D01*
X0147300Y0171600D01*
X0142700Y0171600D01*
X0142700Y0172000D01*
X0142300Y0172000D01*
X0142300Y0171600D01*
X0142700Y0171600D01*
X0142700Y0164000D01*
X0142878Y0164000D01*
X0143624Y0164118D01*
X0144343Y0164352D01*
X0145016Y0164695D01*
X0142700Y0164848D02*
X0142300Y0164848D01*
X0142300Y0164000D02*
X0142300Y0171600D01*
X0137700Y0171600D01*
X0137700Y0168422D01*
X0137818Y0167676D01*
X0138052Y0166957D01*
X0138395Y0166284D01*
X0138839Y0165673D01*
X0139373Y0165139D01*
X0139984Y0164695D01*
X0140657Y0164352D01*
X0141376Y0164118D01*
X0142122Y0164000D01*
X0142300Y0164000D01*
X0142300Y0166447D02*
X0142700Y0166447D01*
X0142700Y0168045D02*
X0142300Y0168045D01*
X0142300Y0169644D02*
X0142700Y0169644D01*
X0142700Y0171242D02*
X0142300Y0171242D01*
X0142300Y0172841D02*
X0142700Y0172841D01*
X0142700Y0174439D02*
X0142300Y0174439D01*
X0142300Y0176038D02*
X0142700Y0176038D01*
X0142700Y0177636D02*
X0142300Y0177636D01*
X0138628Y0177636D02*
X0088400Y0177636D01*
X0088400Y0176038D02*
X0137855Y0176038D01*
X0137700Y0174439D02*
X0088400Y0174439D01*
X0088400Y0172841D02*
X0137700Y0172841D01*
X0137700Y0171242D02*
X0088400Y0171242D01*
X0088400Y0169644D02*
X0137700Y0169644D01*
X0137760Y0168045D02*
X0088400Y0168045D01*
X0088400Y0166447D02*
X0138312Y0166447D01*
X0139773Y0164848D02*
X0088400Y0164848D01*
X0074970Y0153659D02*
X0071717Y0153659D01*
X0072375Y0155257D02*
X0073684Y0155257D01*
X0065086Y0156856D02*
X0038140Y0156856D01*
X0046006Y0168045D02*
X0046994Y0168045D01*
X0048340Y0169644D02*
X0044400Y0169644D01*
X0044400Y0171242D02*
X0048340Y0171242D01*
X0048340Y0172841D02*
X0044400Y0172841D01*
X0044400Y0174439D02*
X0048340Y0174439D01*
X0048340Y0176038D02*
X0044400Y0176038D01*
X0044400Y0177636D02*
X0048340Y0177636D01*
X0048340Y0179235D02*
X0044400Y0179235D01*
X0044400Y0180833D02*
X0048340Y0180833D01*
X0048340Y0182432D02*
X0044400Y0182432D01*
X0044400Y0184030D02*
X0048340Y0184030D01*
X0048340Y0185629D02*
X0044400Y0185629D01*
X0044400Y0187227D02*
X0048340Y0187227D01*
X0048340Y0188826D02*
X0044400Y0188826D01*
X0044400Y0190424D02*
X0048340Y0190424D01*
X0048340Y0192023D02*
X0044400Y0192023D01*
X0044400Y0193621D02*
X0045947Y0193621D01*
X0045301Y0195220D02*
X0044400Y0195220D01*
X0044400Y0196818D02*
X0045301Y0196818D01*
X0045301Y0198417D02*
X0044400Y0198417D01*
X0044400Y0200015D02*
X0045301Y0200015D01*
X0045582Y0201614D02*
X0044400Y0201614D01*
X0044400Y0203212D02*
X0045301Y0203212D01*
X0045301Y0204811D02*
X0044400Y0204811D01*
X0044400Y0206409D02*
X0045301Y0206409D01*
X0045301Y0208008D02*
X0044400Y0208008D01*
X0044400Y0209606D02*
X0045575Y0209606D01*
X0045301Y0211205D02*
X0044400Y0211205D01*
X0044400Y0212803D02*
X0045301Y0212803D01*
X0045301Y0214402D02*
X0044400Y0214402D01*
X0044400Y0216001D02*
X0045301Y0216001D01*
X0045567Y0217599D02*
X0044400Y0217599D01*
X0044400Y0219198D02*
X0046860Y0219198D01*
X0046860Y0220796D02*
X0044400Y0220796D01*
X0044453Y0222395D02*
X0046860Y0222395D01*
X0046860Y0223993D02*
X0044875Y0223993D01*
X0044067Y0225592D02*
X0046860Y0225592D01*
X0051660Y0225592D02*
X0138920Y0225592D01*
X0138839Y0225673D02*
X0139373Y0225139D01*
X0139984Y0224695D01*
X0140657Y0224352D01*
X0141376Y0224118D01*
X0142122Y0224000D01*
X0142300Y0224000D01*
X0142300Y0231600D01*
X0142700Y0231600D01*
X0142700Y0232000D01*
X0147300Y0232000D01*
X0147300Y0235178D01*
X0147182Y0235924D01*
X0146948Y0236643D01*
X0146605Y0237316D01*
X0146161Y0237927D01*
X0145627Y0238461D01*
X0145016Y0238905D01*
X0144343Y0239248D01*
X0143624Y0239482D01*
X0142878Y0239600D01*
X0142700Y0239600D01*
X0142700Y0232000D01*
X0142300Y0232000D01*
X0142300Y0239600D01*
X0142122Y0239600D01*
X0141376Y0239482D01*
X0140657Y0239248D01*
X0139984Y0238905D01*
X0139373Y0238461D01*
X0138839Y0237927D01*
X0138395Y0237316D01*
X0138052Y0236643D01*
X0137818Y0235924D01*
X0137700Y0235178D01*
X0137700Y0232000D01*
X0142300Y0232000D01*
X0142300Y0231600D01*
X0137700Y0231600D01*
X0137700Y0228422D01*
X0137818Y0227676D01*
X0138052Y0226957D01*
X0138395Y0226284D01*
X0138839Y0225673D01*
X0137976Y0227190D02*
X0051660Y0227190D01*
X0051660Y0228789D02*
X0137700Y0228789D01*
X0137700Y0230387D02*
X0051660Y0230387D01*
X0051660Y0231986D02*
X0142300Y0231986D01*
X0142700Y0231986D02*
X0148100Y0231986D01*
X0147300Y0231600D02*
X0142700Y0231600D01*
X0142700Y0224000D01*
X0142878Y0224000D01*
X0143624Y0224118D01*
X0144343Y0224352D01*
X0145016Y0224695D01*
X0145627Y0225139D01*
X0146161Y0225673D01*
X0146605Y0226284D01*
X0146948Y0226957D01*
X0147182Y0227676D01*
X0147300Y0228422D01*
X0147300Y0231600D01*
X0147300Y0230387D02*
X0148100Y0230387D01*
X0148100Y0228789D02*
X0147300Y0228789D01*
X0148100Y0227925D02*
X0148770Y0226308D01*
X0150008Y0225070D01*
X0151625Y0224400D01*
X0153375Y0224400D01*
X0154992Y0225070D01*
X0156230Y0226308D01*
X0156900Y0227925D01*
X0156900Y0235675D01*
X0156230Y0237292D01*
X0154992Y0238530D01*
X0153375Y0239200D01*
X0151625Y0239200D01*
X0150008Y0238530D01*
X0148770Y0237292D01*
X0148100Y0235675D01*
X0148100Y0227925D01*
X0148404Y0227190D02*
X0147024Y0227190D01*
X0146080Y0225592D02*
X0149486Y0225592D01*
X0155514Y0225592D02*
X0159486Y0225592D01*
X0160008Y0225070D02*
X0161625Y0224400D01*
X0163375Y0224400D01*
X0164992Y0225070D01*
X0166230Y0226308D01*
X0166900Y0227925D01*
X0166900Y0235675D01*
X0166230Y0237292D01*
X0164992Y0238530D01*
X0163375Y0239200D01*
X0161625Y0239200D01*
X0160008Y0238530D01*
X0158770Y0237292D01*
X0158100Y0235675D01*
X0158100Y0227925D01*
X0158770Y0226308D01*
X0160008Y0225070D01*
X0158404Y0227190D02*
X0156596Y0227190D01*
X0156900Y0228789D02*
X0158100Y0228789D01*
X0158100Y0230387D02*
X0156900Y0230387D01*
X0156900Y0231986D02*
X0158100Y0231986D01*
X0158100Y0233584D02*
X0156900Y0233584D01*
X0156900Y0235183D02*
X0158100Y0235183D01*
X0158558Y0236781D02*
X0156442Y0236781D01*
X0155143Y0238380D02*
X0159857Y0238380D01*
X0165143Y0238380D02*
X0169857Y0238380D01*
X0170008Y0238530D02*
X0168770Y0237292D01*
X0168100Y0235675D01*
X0168100Y0227925D01*
X0168770Y0226308D01*
X0170008Y0225070D01*
X0171625Y0224400D01*
X0173375Y0224400D01*
X0174992Y0225070D01*
X0176230Y0226308D01*
X0176900Y0227925D01*
X0176900Y0235675D01*
X0176230Y0237292D01*
X0174992Y0238530D01*
X0173375Y0239200D01*
X0171625Y0239200D01*
X0170008Y0238530D01*
X0168558Y0236781D02*
X0166442Y0236781D01*
X0166900Y0235183D02*
X0168100Y0235183D01*
X0168100Y0233584D02*
X0166900Y0233584D01*
X0166900Y0231986D02*
X0168100Y0231986D01*
X0168100Y0230387D02*
X0166900Y0230387D01*
X0166900Y0228789D02*
X0168100Y0228789D01*
X0168404Y0227190D02*
X0166596Y0227190D01*
X0165514Y0225592D02*
X0169486Y0225592D01*
X0175514Y0225592D02*
X0183920Y0225592D01*
X0183839Y0225673D02*
X0184373Y0225139D01*
X0184984Y0224695D01*
X0185657Y0224352D01*
X0186376Y0224118D01*
X0187122Y0224000D01*
X0187300Y0224000D01*
X0187300Y0231600D01*
X0187700Y0231600D01*
X0187700Y0232000D01*
X0192300Y0232000D01*
X0192300Y0235178D01*
X0192182Y0235924D01*
X0191948Y0236643D01*
X0191605Y0237316D01*
X0191161Y0237927D01*
X0190627Y0238461D01*
X0190016Y0238905D01*
X0189343Y0239248D01*
X0188624Y0239482D01*
X0187878Y0239600D01*
X0187700Y0239600D01*
X0187700Y0232000D01*
X0187300Y0232000D01*
X0187300Y0239600D01*
X0187122Y0239600D01*
X0186376Y0239482D01*
X0185657Y0239248D01*
X0184984Y0238905D01*
X0184373Y0238461D01*
X0183839Y0237927D01*
X0183395Y0237316D01*
X0183052Y0236643D01*
X0182818Y0235924D01*
X0182700Y0235178D01*
X0182700Y0232000D01*
X0187300Y0232000D01*
X0187300Y0231600D01*
X0182700Y0231600D01*
X0182700Y0228422D01*
X0182818Y0227676D01*
X0183052Y0226957D01*
X0183395Y0226284D01*
X0183839Y0225673D01*
X0182976Y0227190D02*
X0176596Y0227190D01*
X0176900Y0228789D02*
X0182700Y0228789D01*
X0182700Y0230387D02*
X0176900Y0230387D01*
X0176900Y0231986D02*
X0187300Y0231986D01*
X0187700Y0231986D02*
X0193100Y0231986D01*
X0192300Y0231600D02*
X0187700Y0231600D01*
X0187700Y0224000D01*
X0187878Y0224000D01*
X0188624Y0224118D01*
X0189343Y0224352D01*
X0190016Y0224695D01*
X0190627Y0225139D01*
X0191161Y0225673D01*
X0191605Y0226284D01*
X0191948Y0226957D01*
X0192182Y0227676D01*
X0192300Y0228422D01*
X0192300Y0231600D01*
X0192300Y0230387D02*
X0193100Y0230387D01*
X0193100Y0228789D02*
X0192300Y0228789D01*
X0193100Y0227925D02*
X0193770Y0226308D01*
X0195008Y0225070D01*
X0196625Y0224400D01*
X0198375Y0224400D01*
X0199992Y0225070D01*
X0201230Y0226308D01*
X0201900Y0227925D01*
X0201900Y0235675D01*
X0201230Y0237292D01*
X0199992Y0238530D01*
X0198375Y0239200D01*
X0196625Y0239200D01*
X0195008Y0238530D01*
X0193770Y0237292D01*
X0193100Y0235675D01*
X0193100Y0227925D01*
X0193404Y0227190D02*
X0192024Y0227190D01*
X0191080Y0225592D02*
X0194486Y0225592D01*
X0200514Y0225592D02*
X0204486Y0225592D01*
X0205008Y0225070D02*
X0206625Y0224400D01*
X0208375Y0224400D01*
X0209992Y0225070D01*
X0211230Y0226308D01*
X0211900Y0227925D01*
X0211900Y0235675D01*
X0211230Y0237292D01*
X0209992Y0238530D01*
X0208375Y0239200D01*
X0206625Y0239200D01*
X0205008Y0238530D01*
X0203770Y0237292D01*
X0203100Y0235675D01*
X0203100Y0227925D01*
X0203770Y0226308D01*
X0205008Y0225070D01*
X0203404Y0227190D02*
X0201596Y0227190D01*
X0201900Y0228789D02*
X0203100Y0228789D01*
X0203100Y0230387D02*
X0201900Y0230387D01*
X0201900Y0231986D02*
X0203100Y0231986D01*
X0203100Y0233584D02*
X0201900Y0233584D01*
X0201900Y0235183D02*
X0203100Y0235183D01*
X0203558Y0236781D02*
X0201442Y0236781D01*
X0200143Y0238380D02*
X0204857Y0238380D01*
X0210143Y0238380D02*
X0214857Y0238380D01*
X0215008Y0238530D02*
X0213770Y0237292D01*
X0213100Y0235675D01*
X0213100Y0227925D01*
X0213770Y0226308D01*
X0215008Y0225070D01*
X0216625Y0224400D01*
X0218375Y0224400D01*
X0219992Y0225070D01*
X0221230Y0226308D01*
X0221900Y0227925D01*
X0221900Y0235675D01*
X0221230Y0237292D01*
X0219992Y0238530D01*
X0218375Y0239200D01*
X0216625Y0239200D01*
X0215008Y0238530D01*
X0213558Y0236781D02*
X0211442Y0236781D01*
X0211900Y0235183D02*
X0213100Y0235183D01*
X0213100Y0233584D02*
X0211900Y0233584D01*
X0211900Y0231986D02*
X0213100Y0231986D01*
X0213100Y0230387D02*
X0211900Y0230387D01*
X0211900Y0228789D02*
X0213100Y0228789D01*
X0213404Y0227190D02*
X0211596Y0227190D01*
X0210514Y0225592D02*
X0214486Y0225592D01*
X0220514Y0225592D02*
X0255650Y0225592D01*
X0255650Y0227190D02*
X0221596Y0227190D01*
X0221900Y0228789D02*
X0255650Y0228789D01*
X0255650Y0230387D02*
X0221900Y0230387D01*
X0221900Y0231986D02*
X0255650Y0231986D01*
X0255650Y0233584D02*
X0221900Y0233584D01*
X0221900Y0235183D02*
X0255650Y0235183D01*
X0255650Y0236781D02*
X0221442Y0236781D01*
X0220143Y0238380D02*
X0255650Y0238380D01*
X0255650Y0239978D02*
X0067810Y0239978D01*
X0068745Y0241577D02*
X0255650Y0241577D01*
X0255650Y0243175D02*
X0068682Y0243175D01*
X0067658Y0244774D02*
X0139875Y0244774D01*
X0138350Y0246372D02*
X0056615Y0246372D01*
X0058213Y0244774D02*
X0063342Y0244774D01*
X0062318Y0243175D02*
X0060484Y0243175D01*
X0061375Y0241577D02*
X0061383Y0241577D01*
X0063375Y0236781D02*
X0138122Y0236781D01*
X0137701Y0235183D02*
X0054777Y0235183D01*
X0053178Y0233584D02*
X0137700Y0233584D01*
X0142300Y0233584D02*
X0142700Y0233584D01*
X0142700Y0235183D02*
X0142300Y0235183D01*
X0142300Y0236781D02*
X0142700Y0236781D01*
X0142700Y0238380D02*
X0142300Y0238380D01*
X0139291Y0238380D02*
X0064974Y0238380D01*
X0055016Y0247971D02*
X0137772Y0247971D01*
X0142300Y0247971D02*
X0142700Y0247971D01*
X0142700Y0249569D02*
X0142300Y0249569D01*
X0142300Y0251168D02*
X0142700Y0251168D01*
X0142700Y0251600D02*
X0142700Y0244000D01*
X0142878Y0244000D01*
X0143624Y0244118D01*
X0144343Y0244352D01*
X0145016Y0244695D01*
X0145627Y0245139D01*
X0146161Y0245673D01*
X0146605Y0246284D01*
X0146948Y0246957D01*
X0147182Y0247676D01*
X0147300Y0248422D01*
X0147300Y0251600D01*
X0142700Y0251600D01*
X0142700Y0252766D02*
X0142300Y0252766D01*
X0142300Y0254365D02*
X0142700Y0254365D01*
X0142700Y0255963D02*
X0142300Y0255963D01*
X0142300Y0257562D02*
X0142700Y0257562D01*
X0146427Y0257562D02*
X0149039Y0257562D01*
X0148219Y0255963D02*
X0147169Y0255963D01*
X0147300Y0254365D02*
X0148100Y0254365D01*
X0148100Y0252766D02*
X0147300Y0252766D01*
X0147300Y0251168D02*
X0148100Y0251168D01*
X0148100Y0249569D02*
X0147300Y0249569D01*
X0147228Y0247971D02*
X0148100Y0247971D01*
X0148743Y0246372D02*
X0146650Y0246372D01*
X0145125Y0244774D02*
X0150723Y0244774D01*
X0154277Y0244774D02*
X0160723Y0244774D01*
X0158743Y0246372D02*
X0156257Y0246372D01*
X0156900Y0247971D02*
X0158100Y0247971D01*
X0158100Y0249569D02*
X0156900Y0249569D01*
X0156900Y0251168D02*
X0158100Y0251168D01*
X0158100Y0252766D02*
X0156900Y0252766D01*
X0156900Y0254365D02*
X0158100Y0254365D01*
X0158219Y0255963D02*
X0156781Y0255963D01*
X0155961Y0257562D02*
X0159039Y0257562D01*
X0165961Y0257562D02*
X0169039Y0257562D01*
X0168219Y0255963D02*
X0166781Y0255963D01*
X0166900Y0254365D02*
X0168100Y0254365D01*
X0168100Y0252766D02*
X0166900Y0252766D01*
X0166900Y0251168D02*
X0168100Y0251168D01*
X0168100Y0249569D02*
X0166900Y0249569D01*
X0166900Y0247971D02*
X0168100Y0247971D01*
X0168743Y0246372D02*
X0166257Y0246372D01*
X0164277Y0244774D02*
X0170723Y0244774D01*
X0174277Y0244774D02*
X0184875Y0244774D01*
X0184984Y0244695D02*
X0185657Y0244352D01*
X0186376Y0244118D01*
X0187122Y0244000D01*
X0187300Y0244000D01*
X0187300Y0251600D01*
X0187700Y0251600D01*
X0187700Y0252000D01*
X0187300Y0252000D01*
X0187300Y0251600D01*
X0182700Y0251600D01*
X0182700Y0248422D01*
X0182818Y0247676D01*
X0183052Y0246957D01*
X0183395Y0246284D01*
X0183839Y0245673D01*
X0184373Y0245139D01*
X0184984Y0244695D01*
X0187300Y0244774D02*
X0187700Y0244774D01*
X0187700Y0244000D02*
X0187878Y0244000D01*
X0188624Y0244118D01*
X0189343Y0244352D01*
X0190016Y0244695D01*
X0190627Y0245139D01*
X0191161Y0245673D01*
X0191605Y0246284D01*
X0191948Y0246957D01*
X0192182Y0247676D01*
X0192300Y0248422D01*
X0192300Y0251600D01*
X0187700Y0251600D01*
X0187700Y0244000D01*
X0187700Y0246372D02*
X0187300Y0246372D01*
X0187300Y0247971D02*
X0187700Y0247971D01*
X0187700Y0249569D02*
X0187300Y0249569D01*
X0187300Y0251168D02*
X0187700Y0251168D01*
X0187700Y0252766D02*
X0187300Y0252766D01*
X0187300Y0254365D02*
X0187700Y0254365D01*
X0187700Y0255963D02*
X0187300Y0255963D01*
X0187300Y0257562D02*
X0187700Y0257562D01*
X0183573Y0257562D02*
X0175961Y0257562D01*
X0176781Y0255963D02*
X0182831Y0255963D01*
X0182700Y0254365D02*
X0176900Y0254365D01*
X0176900Y0252766D02*
X0182700Y0252766D01*
X0182700Y0251168D02*
X0176900Y0251168D01*
X0176900Y0249569D02*
X0182700Y0249569D01*
X0182772Y0247971D02*
X0176900Y0247971D01*
X0176257Y0246372D02*
X0183350Y0246372D01*
X0190125Y0244774D02*
X0195723Y0244774D01*
X0193743Y0246372D02*
X0191650Y0246372D01*
X0192228Y0247971D02*
X0193100Y0247971D01*
X0193100Y0249569D02*
X0192300Y0249569D01*
X0192300Y0251168D02*
X0193100Y0251168D01*
X0193100Y0252766D02*
X0192300Y0252766D01*
X0192300Y0254365D02*
X0193100Y0254365D01*
X0193219Y0255963D02*
X0192169Y0255963D01*
X0191427Y0257562D02*
X0194039Y0257562D01*
X0200961Y0257562D02*
X0204039Y0257562D01*
X0203219Y0255963D02*
X0201781Y0255963D01*
X0201900Y0254365D02*
X0203100Y0254365D01*
X0203100Y0252766D02*
X0201900Y0252766D01*
X0201900Y0251168D02*
X0203100Y0251168D01*
X0203100Y0249569D02*
X0201900Y0249569D01*
X0201900Y0247971D02*
X0203100Y0247971D01*
X0203743Y0246372D02*
X0201257Y0246372D01*
X0199277Y0244774D02*
X0205723Y0244774D01*
X0209277Y0244774D02*
X0215723Y0244774D01*
X0213743Y0246372D02*
X0211257Y0246372D01*
X0211900Y0247971D02*
X0213100Y0247971D01*
X0213100Y0249569D02*
X0211900Y0249569D01*
X0211900Y0251168D02*
X0213100Y0251168D01*
X0213100Y0252766D02*
X0211900Y0252766D01*
X0211900Y0254365D02*
X0213100Y0254365D01*
X0213219Y0255963D02*
X0211781Y0255963D01*
X0210961Y0257562D02*
X0214039Y0257562D01*
X0220961Y0257562D02*
X0255650Y0257562D01*
X0255650Y0255963D02*
X0221781Y0255963D01*
X0221900Y0254365D02*
X0255650Y0254365D01*
X0255650Y0252766D02*
X0221900Y0252766D01*
X0221900Y0251168D02*
X0255650Y0251168D01*
X0255650Y0249569D02*
X0221900Y0249569D01*
X0221900Y0247971D02*
X0255650Y0247971D01*
X0255650Y0246372D02*
X0221257Y0246372D01*
X0219277Y0244774D02*
X0255650Y0244774D01*
X0255650Y0223993D02*
X0051660Y0223993D01*
X0051660Y0222395D02*
X0255650Y0222395D01*
X0255650Y0198417D02*
X0220106Y0198417D01*
X0219992Y0198530D02*
X0218375Y0199200D01*
X0216625Y0199200D01*
X0215008Y0198530D01*
X0213770Y0197292D01*
X0213100Y0195675D01*
X0213100Y0187925D01*
X0213770Y0186308D01*
X0215008Y0185070D01*
X0216625Y0184400D01*
X0218375Y0184400D01*
X0219992Y0185070D01*
X0221230Y0186308D01*
X0221900Y0187925D01*
X0221900Y0195675D01*
X0221230Y0197292D01*
X0219992Y0198530D01*
X0221426Y0196818D02*
X0255650Y0196818D01*
X0255650Y0195220D02*
X0221900Y0195220D01*
X0221900Y0193621D02*
X0255650Y0193621D01*
X0255650Y0192023D02*
X0221900Y0192023D01*
X0221900Y0190424D02*
X0255650Y0190424D01*
X0255650Y0188826D02*
X0221900Y0188826D01*
X0221611Y0187227D02*
X0255650Y0187227D01*
X0255650Y0185629D02*
X0220551Y0185629D01*
X0214449Y0185629D02*
X0210551Y0185629D01*
X0209992Y0185070D02*
X0211230Y0186308D01*
X0211900Y0187925D01*
X0211900Y0195675D01*
X0211230Y0197292D01*
X0209992Y0198530D01*
X0208375Y0199200D01*
X0206625Y0199200D01*
X0205008Y0198530D01*
X0203770Y0197292D01*
X0203100Y0195675D01*
X0203100Y0187925D01*
X0203770Y0186308D01*
X0205008Y0185070D01*
X0206625Y0184400D01*
X0208375Y0184400D01*
X0209992Y0185070D01*
X0211611Y0187227D02*
X0213389Y0187227D01*
X0213100Y0188826D02*
X0211900Y0188826D01*
X0211900Y0190424D02*
X0213100Y0190424D01*
X0213100Y0192023D02*
X0211900Y0192023D01*
X0211900Y0193621D02*
X0213100Y0193621D01*
X0213100Y0195220D02*
X0211900Y0195220D01*
X0211426Y0196818D02*
X0213574Y0196818D01*
X0214894Y0198417D02*
X0210106Y0198417D01*
X0204894Y0198417D02*
X0200106Y0198417D01*
X0199992Y0198530D02*
X0198375Y0199200D01*
X0196625Y0199200D01*
X0195008Y0198530D01*
X0193770Y0197292D01*
X0193100Y0195675D01*
X0193100Y0187925D01*
X0193770Y0186308D01*
X0195008Y0185070D01*
X0196625Y0184400D01*
X0198375Y0184400D01*
X0199992Y0185070D01*
X0201230Y0186308D01*
X0201900Y0187925D01*
X0201900Y0195675D01*
X0201230Y0197292D01*
X0199992Y0198530D01*
X0201426Y0196818D02*
X0203574Y0196818D01*
X0203100Y0195220D02*
X0201900Y0195220D01*
X0201900Y0193621D02*
X0203100Y0193621D01*
X0203100Y0192023D02*
X0201900Y0192023D01*
X0201900Y0190424D02*
X0203100Y0190424D01*
X0203100Y0188826D02*
X0201900Y0188826D01*
X0201611Y0187227D02*
X0203389Y0187227D01*
X0204449Y0185629D02*
X0200551Y0185629D01*
X0194449Y0185629D02*
X0191117Y0185629D01*
X0191161Y0185673D02*
X0191605Y0186284D01*
X0191948Y0186957D01*
X0192182Y0187676D01*
X0192300Y0188422D01*
X0192300Y0191600D01*
X0187700Y0191600D01*
X0187700Y0192000D01*
X0192300Y0192000D01*
X0192300Y0195178D01*
X0192182Y0195924D01*
X0191948Y0196643D01*
X0191605Y0197316D01*
X0191161Y0197927D01*
X0190627Y0198461D01*
X0190016Y0198905D01*
X0189343Y0199248D01*
X0188624Y0199482D01*
X0187878Y0199600D01*
X0187700Y0199600D01*
X0187700Y0192000D01*
X0187300Y0192000D01*
X0187300Y0199600D01*
X0187122Y0199600D01*
X0186376Y0199482D01*
X0185657Y0199248D01*
X0184984Y0198905D01*
X0184373Y0198461D01*
X0183839Y0197927D01*
X0183395Y0197316D01*
X0183052Y0196643D01*
X0182818Y0195924D01*
X0182700Y0195178D01*
X0182700Y0192000D01*
X0187300Y0192000D01*
X0187300Y0191600D01*
X0187700Y0191600D01*
X0187700Y0184000D01*
X0187878Y0184000D01*
X0188624Y0184118D01*
X0189343Y0184352D01*
X0190016Y0184695D01*
X0190627Y0185139D01*
X0191161Y0185673D01*
X0192036Y0187227D02*
X0193389Y0187227D01*
X0193100Y0188826D02*
X0192300Y0188826D01*
X0192300Y0190424D02*
X0193100Y0190424D01*
X0193100Y0192023D02*
X0192300Y0192023D01*
X0192300Y0193621D02*
X0193100Y0193621D01*
X0193100Y0195220D02*
X0192293Y0195220D01*
X0191859Y0196818D02*
X0193574Y0196818D01*
X0194894Y0198417D02*
X0190671Y0198417D01*
X0187700Y0198417D02*
X0187300Y0198417D01*
X0187300Y0196818D02*
X0187700Y0196818D01*
X0187700Y0195220D02*
X0187300Y0195220D01*
X0187300Y0193621D02*
X0187700Y0193621D01*
X0187700Y0192023D02*
X0187300Y0192023D01*
X0187300Y0191600D02*
X0182700Y0191600D01*
X0182700Y0188422D01*
X0182818Y0187676D01*
X0183052Y0186957D01*
X0183395Y0186284D01*
X0183839Y0185673D01*
X0184373Y0185139D01*
X0184984Y0184695D01*
X0185657Y0184352D01*
X0186376Y0184118D01*
X0187122Y0184000D01*
X0187300Y0184000D01*
X0187300Y0191600D01*
X0187300Y0190424D02*
X0187700Y0190424D01*
X0187700Y0188826D02*
X0187300Y0188826D01*
X0187300Y0187227D02*
X0187700Y0187227D01*
X0187700Y0185629D02*
X0187300Y0185629D01*
X0187300Y0184030D02*
X0187700Y0184030D01*
X0188069Y0184030D02*
X0255650Y0184030D01*
X0255650Y0182432D02*
X0088400Y0182432D01*
X0088400Y0184030D02*
X0141931Y0184030D01*
X0142122Y0184000D02*
X0142300Y0184000D01*
X0142300Y0191600D01*
X0142700Y0191600D01*
X0142700Y0192000D01*
X0147300Y0192000D01*
X0147300Y0195178D01*
X0147182Y0195924D01*
X0146948Y0196643D01*
X0146605Y0197316D01*
X0146161Y0197927D01*
X0145627Y0198461D01*
X0145016Y0198905D01*
X0144343Y0199248D01*
X0143624Y0199482D01*
X0142878Y0199600D01*
X0142700Y0199600D01*
X0142700Y0192000D01*
X0142300Y0192000D01*
X0142300Y0191600D01*
X0137700Y0191600D01*
X0137700Y0188422D01*
X0137818Y0187676D01*
X0138052Y0186957D01*
X0138395Y0186284D01*
X0138839Y0185673D01*
X0139373Y0185139D01*
X0139984Y0184695D01*
X0140657Y0184352D01*
X0141376Y0184118D01*
X0142122Y0184000D01*
X0142300Y0184030D02*
X0142700Y0184030D01*
X0142700Y0184000D02*
X0142878Y0184000D01*
X0143624Y0184118D01*
X0144343Y0184352D01*
X0145016Y0184695D01*
X0145627Y0185139D01*
X0146161Y0185673D01*
X0146605Y0186284D01*
X0146948Y0186957D01*
X0147182Y0187676D01*
X0147300Y0188422D01*
X0147300Y0191600D01*
X0142700Y0191600D01*
X0142700Y0184000D01*
X0143069Y0184030D02*
X0186931Y0184030D01*
X0183883Y0185629D02*
X0175551Y0185629D01*
X0174992Y0185070D02*
X0176230Y0186308D01*
X0176900Y0187925D01*
X0176900Y0195675D01*
X0176230Y0197292D01*
X0174992Y0198530D01*
X0173375Y0199200D01*
X0171625Y0199200D01*
X0170008Y0198530D01*
X0168770Y0197292D01*
X0168100Y0195675D01*
X0168100Y0187925D01*
X0168770Y0186308D01*
X0170008Y0185070D01*
X0171625Y0184400D01*
X0173375Y0184400D01*
X0174992Y0185070D01*
X0176611Y0187227D02*
X0182964Y0187227D01*
X0182700Y0188826D02*
X0176900Y0188826D01*
X0176900Y0190424D02*
X0182700Y0190424D01*
X0182700Y0192023D02*
X0176900Y0192023D01*
X0176900Y0193621D02*
X0182700Y0193621D01*
X0182707Y0195220D02*
X0176900Y0195220D01*
X0176426Y0196818D02*
X0183141Y0196818D01*
X0184329Y0198417D02*
X0175106Y0198417D01*
X0169894Y0198417D02*
X0165106Y0198417D01*
X0164992Y0198530D02*
X0163375Y0199200D01*
X0161625Y0199200D01*
X0160008Y0198530D01*
X0158770Y0197292D01*
X0158100Y0195675D01*
X0158100Y0187925D01*
X0158770Y0186308D01*
X0160008Y0185070D01*
X0161625Y0184400D01*
X0163375Y0184400D01*
X0164992Y0185070D01*
X0166230Y0186308D01*
X0166900Y0187925D01*
X0166900Y0195675D01*
X0166230Y0197292D01*
X0164992Y0198530D01*
X0166426Y0196818D02*
X0168574Y0196818D01*
X0168100Y0195220D02*
X0166900Y0195220D01*
X0166900Y0193621D02*
X0168100Y0193621D01*
X0168100Y0192023D02*
X0166900Y0192023D01*
X0166900Y0190424D02*
X0168100Y0190424D01*
X0168100Y0188826D02*
X0166900Y0188826D01*
X0166611Y0187227D02*
X0168389Y0187227D01*
X0169449Y0185629D02*
X0165551Y0185629D01*
X0159449Y0185629D02*
X0155551Y0185629D01*
X0154992Y0185070D02*
X0156230Y0186308D01*
X0156900Y0187925D01*
X0156900Y0195675D01*
X0156230Y0197292D01*
X0154992Y0198530D01*
X0153375Y0199200D01*
X0151625Y0199200D01*
X0150008Y0198530D01*
X0148770Y0197292D01*
X0148100Y0195675D01*
X0148100Y0187925D01*
X0148770Y0186308D01*
X0150008Y0185070D01*
X0151625Y0184400D01*
X0153375Y0184400D01*
X0154992Y0185070D01*
X0156611Y0187227D02*
X0158389Y0187227D01*
X0158100Y0188826D02*
X0156900Y0188826D01*
X0156900Y0190424D02*
X0158100Y0190424D01*
X0158100Y0192023D02*
X0156900Y0192023D01*
X0156900Y0193621D02*
X0158100Y0193621D01*
X0158100Y0195220D02*
X0156900Y0195220D01*
X0156426Y0196818D02*
X0158574Y0196818D01*
X0159894Y0198417D02*
X0155106Y0198417D01*
X0149894Y0198417D02*
X0145671Y0198417D01*
X0146859Y0196818D02*
X0148574Y0196818D01*
X0148100Y0195220D02*
X0147293Y0195220D01*
X0147300Y0193621D02*
X0148100Y0193621D01*
X0148100Y0192023D02*
X0147300Y0192023D01*
X0147300Y0190424D02*
X0148100Y0190424D01*
X0148100Y0188826D02*
X0147300Y0188826D01*
X0147036Y0187227D02*
X0148389Y0187227D01*
X0149449Y0185629D02*
X0146117Y0185629D01*
X0142700Y0185629D02*
X0142300Y0185629D01*
X0142300Y0187227D02*
X0142700Y0187227D01*
X0142700Y0188826D02*
X0142300Y0188826D01*
X0142300Y0190424D02*
X0142700Y0190424D01*
X0142700Y0192023D02*
X0142300Y0192023D01*
X0142300Y0193621D02*
X0142700Y0193621D01*
X0142700Y0195220D02*
X0142300Y0195220D01*
X0142300Y0196818D02*
X0142700Y0196818D01*
X0142700Y0198417D02*
X0142300Y0198417D01*
X0137700Y0192023D02*
X0088469Y0192023D01*
X0089391Y0190424D02*
X0137700Y0190424D01*
X0137700Y0188826D02*
X0089525Y0188826D01*
X0088998Y0187227D02*
X0137964Y0187227D01*
X0138883Y0185629D02*
X0088400Y0185629D01*
X0070968Y0206409D02*
X0138331Y0206409D01*
X0137766Y0208008D02*
X0071895Y0208008D01*
X0073493Y0209606D02*
X0137700Y0209606D01*
X0137700Y0211205D02*
X0075092Y0211205D01*
X0076690Y0212803D02*
X0137700Y0212803D01*
X0137700Y0214402D02*
X0078289Y0214402D01*
X0078400Y0216001D02*
X0137843Y0216001D01*
X0138601Y0217599D02*
X0078400Y0217599D01*
X0053193Y0264762D02*
X0054346Y0265378D01*
X0055432Y0266104D01*
X0056442Y0266933D01*
X0057367Y0267857D01*
X0058196Y0268868D01*
X0058922Y0269954D01*
X0059538Y0271107D01*
X0060038Y0272314D01*
X0060417Y0273564D01*
X0060672Y0274846D01*
X0060786Y0276000D01*
X0048300Y0276000D01*
X0048300Y0277600D01*
X0046700Y0277600D01*
X0046700Y0290086D01*
X0045546Y0289972D01*
X0044264Y0289717D01*
X0043014Y0289338D01*
X0041807Y0288838D01*
X0040654Y0288222D01*
X0039568Y0287496D01*
X0038557Y0286667D01*
X0037633Y0285742D01*
X0036804Y0284732D01*
X0036078Y0283646D01*
X0035462Y0282493D01*
X0034962Y0281286D01*
X0034583Y0280036D01*
X0034328Y0278754D01*
X0034214Y0277600D01*
X0046700Y0277600D01*
X0046700Y0276000D01*
X0048300Y0276000D01*
X0048300Y0263514D01*
X0049454Y0263628D01*
X0050736Y0263883D01*
X0051986Y0264262D01*
X0053193Y0264762D01*
X0054609Y0265554D02*
X0138957Y0265554D01*
X0138839Y0265673D02*
X0139373Y0265139D01*
X0139984Y0264695D01*
X0140657Y0264352D01*
X0141376Y0264118D01*
X0142122Y0264000D01*
X0142300Y0264000D01*
X0142300Y0271600D01*
X0142700Y0271600D01*
X0142700Y0272000D01*
X0147300Y0272000D01*
X0147300Y0275178D01*
X0147182Y0275924D01*
X0146948Y0276643D01*
X0146605Y0277316D01*
X0146161Y0277927D01*
X0145627Y0278461D01*
X0145016Y0278905D01*
X0144343Y0279248D01*
X0143624Y0279482D01*
X0142878Y0279600D01*
X0142700Y0279600D01*
X0142700Y0272000D01*
X0142300Y0272000D01*
X0142300Y0279600D01*
X0142122Y0279600D01*
X0141376Y0279482D01*
X0140657Y0279248D01*
X0139984Y0278905D01*
X0139373Y0278461D01*
X0138839Y0277927D01*
X0138395Y0277316D01*
X0138052Y0276643D01*
X0137818Y0275924D01*
X0137700Y0275178D01*
X0137700Y0272000D01*
X0142300Y0272000D01*
X0142300Y0271600D01*
X0137700Y0271600D01*
X0137700Y0268422D01*
X0137818Y0267676D01*
X0138052Y0266957D01*
X0138395Y0266284D01*
X0138839Y0265673D01*
X0137988Y0267153D02*
X0056662Y0267153D01*
X0058100Y0268751D02*
X0137700Y0268751D01*
X0137700Y0270350D02*
X0059133Y0270350D01*
X0059886Y0271948D02*
X0142300Y0271948D01*
X0142700Y0271948D02*
X0148100Y0271948D01*
X0147300Y0271600D02*
X0142700Y0271600D01*
X0142700Y0264000D01*
X0142878Y0264000D01*
X0143624Y0264118D01*
X0144343Y0264352D01*
X0145016Y0264695D01*
X0145627Y0265139D01*
X0146161Y0265673D01*
X0146605Y0266284D01*
X0146948Y0266957D01*
X0147182Y0267676D01*
X0147300Y0268422D01*
X0147300Y0271600D01*
X0147300Y0270350D02*
X0148100Y0270350D01*
X0148100Y0268751D02*
X0147300Y0268751D01*
X0148100Y0267925D02*
X0148770Y0266308D01*
X0150008Y0265070D01*
X0151625Y0264400D01*
X0153375Y0264400D01*
X0154992Y0265070D01*
X0156230Y0266308D01*
X0156900Y0267925D01*
X0156900Y0275675D01*
X0156230Y0277292D01*
X0154992Y0278530D01*
X0153375Y0279200D01*
X0151625Y0279200D01*
X0150008Y0278530D01*
X0148770Y0277292D01*
X0148100Y0275675D01*
X0148100Y0267925D01*
X0148420Y0267153D02*
X0147012Y0267153D01*
X0146043Y0265554D02*
X0149523Y0265554D01*
X0155477Y0265554D02*
X0159523Y0265554D01*
X0160008Y0265070D02*
X0161625Y0264400D01*
X0163375Y0264400D01*
X0164992Y0265070D01*
X0166230Y0266308D01*
X0166900Y0267925D01*
X0166900Y0275675D01*
X0166230Y0277292D01*
X0164992Y0278530D01*
X0163375Y0279200D01*
X0161625Y0279200D01*
X0160008Y0278530D01*
X0158770Y0277292D01*
X0158100Y0275675D01*
X0158100Y0267925D01*
X0158770Y0266308D01*
X0160008Y0265070D01*
X0158420Y0267153D02*
X0156580Y0267153D01*
X0156900Y0268751D02*
X0158100Y0268751D01*
X0158100Y0270350D02*
X0156900Y0270350D01*
X0156900Y0271948D02*
X0158100Y0271948D01*
X0158100Y0273547D02*
X0156900Y0273547D01*
X0156900Y0275145D02*
X0158100Y0275145D01*
X0158543Y0276744D02*
X0156457Y0276744D01*
X0155180Y0278342D02*
X0159820Y0278342D01*
X0165180Y0278342D02*
X0169820Y0278342D01*
X0170008Y0278530D02*
X0168770Y0277292D01*
X0168100Y0275675D01*
X0168100Y0267925D01*
X0168770Y0266308D01*
X0170008Y0265070D01*
X0171625Y0264400D01*
X0173375Y0264400D01*
X0174992Y0265070D01*
X0176230Y0266308D01*
X0176900Y0267925D01*
X0176900Y0275675D01*
X0176230Y0277292D01*
X0174992Y0278530D01*
X0173375Y0279200D01*
X0171625Y0279200D01*
X0170008Y0278530D01*
X0168543Y0276744D02*
X0166457Y0276744D01*
X0166900Y0275145D02*
X0168100Y0275145D01*
X0168100Y0273547D02*
X0166900Y0273547D01*
X0166900Y0271948D02*
X0168100Y0271948D01*
X0168100Y0270350D02*
X0166900Y0270350D01*
X0166900Y0268751D02*
X0168100Y0268751D01*
X0168420Y0267153D02*
X0166580Y0267153D01*
X0165477Y0265554D02*
X0169523Y0265554D01*
X0175477Y0265554D02*
X0183957Y0265554D01*
X0183839Y0265673D02*
X0184373Y0265139D01*
X0184984Y0264695D01*
X0185657Y0264352D01*
X0186376Y0264118D01*
X0187122Y0264000D01*
X0187300Y0264000D01*
X0187300Y0271600D01*
X0187700Y0271600D01*
X0187700Y0272000D01*
X0192300Y0272000D01*
X0192300Y0275178D01*
X0192182Y0275924D01*
X0191948Y0276643D01*
X0191605Y0277316D01*
X0191161Y0277927D01*
X0190627Y0278461D01*
X0190016Y0278905D01*
X0189343Y0279248D01*
X0188624Y0279482D01*
X0187878Y0279600D01*
X0187700Y0279600D01*
X0187700Y0272000D01*
X0187300Y0272000D01*
X0187300Y0279600D01*
X0187122Y0279600D01*
X0186376Y0279482D01*
X0185657Y0279248D01*
X0184984Y0278905D01*
X0184373Y0278461D01*
X0183839Y0277927D01*
X0183395Y0277316D01*
X0183052Y0276643D01*
X0182818Y0275924D01*
X0182700Y0275178D01*
X0182700Y0272000D01*
X0187300Y0272000D01*
X0187300Y0271600D01*
X0182700Y0271600D01*
X0182700Y0268422D01*
X0182818Y0267676D01*
X0183052Y0266957D01*
X0183395Y0266284D01*
X0183839Y0265673D01*
X0182988Y0267153D02*
X0176580Y0267153D01*
X0176900Y0268751D02*
X0182700Y0268751D01*
X0182700Y0270350D02*
X0176900Y0270350D01*
X0176900Y0271948D02*
X0187300Y0271948D01*
X0187700Y0271948D02*
X0193100Y0271948D01*
X0192300Y0271600D02*
X0187700Y0271600D01*
X0187700Y0264000D01*
X0187878Y0264000D01*
X0188624Y0264118D01*
X0189343Y0264352D01*
X0190016Y0264695D01*
X0190627Y0265139D01*
X0191161Y0265673D01*
X0191605Y0266284D01*
X0191948Y0266957D01*
X0192182Y0267676D01*
X0192300Y0268422D01*
X0192300Y0271600D01*
X0192300Y0270350D02*
X0193100Y0270350D01*
X0193100Y0268751D02*
X0192300Y0268751D01*
X0193100Y0267925D02*
X0193770Y0266308D01*
X0195008Y0265070D01*
X0196625Y0264400D01*
X0198375Y0264400D01*
X0199992Y0265070D01*
X0201230Y0266308D01*
X0201900Y0267925D01*
X0201900Y0275675D01*
X0201230Y0277292D01*
X0199992Y0278530D01*
X0198375Y0279200D01*
X0196625Y0279200D01*
X0195008Y0278530D01*
X0193770Y0277292D01*
X0193100Y0275675D01*
X0193100Y0267925D01*
X0193420Y0267153D02*
X0192012Y0267153D01*
X0191043Y0265554D02*
X0194523Y0265554D01*
X0200477Y0265554D02*
X0204523Y0265554D01*
X0205008Y0265070D02*
X0206625Y0264400D01*
X0208375Y0264400D01*
X0209992Y0265070D01*
X0211230Y0266308D01*
X0211900Y0267925D01*
X0211900Y0275675D01*
X0211230Y0277292D01*
X0209992Y0278530D01*
X0208375Y0279200D01*
X0206625Y0279200D01*
X0205008Y0278530D01*
X0203770Y0277292D01*
X0203100Y0275675D01*
X0203100Y0267925D01*
X0203770Y0266308D01*
X0205008Y0265070D01*
X0203420Y0267153D02*
X0201580Y0267153D01*
X0201900Y0268751D02*
X0203100Y0268751D01*
X0203100Y0270350D02*
X0201900Y0270350D01*
X0201900Y0271948D02*
X0203100Y0271948D01*
X0203100Y0273547D02*
X0201900Y0273547D01*
X0201900Y0275145D02*
X0203100Y0275145D01*
X0203543Y0276744D02*
X0201457Y0276744D01*
X0200180Y0278342D02*
X0204820Y0278342D01*
X0210180Y0278342D02*
X0214820Y0278342D01*
X0213543Y0276744D02*
X0211457Y0276744D01*
X0211900Y0275145D02*
X0213100Y0275145D01*
X0213100Y0273547D02*
X0211900Y0273547D01*
X0211900Y0271948D02*
X0213100Y0271948D01*
X0213100Y0270350D02*
X0211900Y0270350D01*
X0211900Y0268751D02*
X0213100Y0268751D01*
X0213420Y0267153D02*
X0211580Y0267153D01*
X0210477Y0265554D02*
X0214523Y0265554D01*
X0220477Y0265554D02*
X0232391Y0265554D01*
X0230338Y0267153D02*
X0221580Y0267153D01*
X0221900Y0268751D02*
X0228900Y0268751D01*
X0227867Y0270350D02*
X0221900Y0270350D01*
X0221900Y0271948D02*
X0227114Y0271948D01*
X0226588Y0273547D02*
X0221900Y0273547D01*
X0221900Y0275145D02*
X0226299Y0275145D01*
X0236024Y0263956D02*
X0050976Y0263956D01*
X0048300Y0263956D02*
X0046700Y0263956D01*
X0046700Y0263514D02*
X0046700Y0276000D01*
X0034214Y0276000D01*
X0034328Y0274846D01*
X0034583Y0273564D01*
X0034962Y0272314D01*
X0035462Y0271107D01*
X0036078Y0269954D01*
X0036804Y0268868D01*
X0037633Y0267857D01*
X0038557Y0266933D01*
X0039568Y0266104D01*
X0040654Y0265378D01*
X0041807Y0264762D01*
X0043014Y0264262D01*
X0044264Y0263883D01*
X0045546Y0263628D01*
X0046700Y0263514D01*
X0046700Y0265554D02*
X0048300Y0265554D01*
X0048300Y0267153D02*
X0046700Y0267153D01*
X0046700Y0268751D02*
X0048300Y0268751D01*
X0048300Y0270350D02*
X0046700Y0270350D01*
X0046700Y0271948D02*
X0048300Y0271948D01*
X0048300Y0273547D02*
X0046700Y0273547D01*
X0046700Y0275145D02*
X0048300Y0275145D01*
X0048300Y0276744D02*
X0138103Y0276744D01*
X0137700Y0275145D02*
X0060701Y0275145D01*
X0060412Y0273547D02*
X0137700Y0273547D01*
X0142300Y0273547D02*
X0142700Y0273547D01*
X0142700Y0275145D02*
X0142300Y0275145D01*
X0142300Y0276744D02*
X0142700Y0276744D01*
X0142700Y0278342D02*
X0142300Y0278342D01*
X0139254Y0278342D02*
X0060712Y0278342D01*
X0059193Y0283138D02*
X0081939Y0283138D01*
X0081178Y0284737D02*
X0058192Y0284737D01*
X0056774Y0286335D02*
X0081100Y0286335D01*
X0081100Y0287934D02*
X0054777Y0287934D01*
X0051345Y0289532D02*
X0081100Y0289532D01*
X0081100Y0291131D02*
X0030100Y0291131D01*
X0030100Y0292729D02*
X0081122Y0292729D01*
X0081805Y0294328D02*
X0030100Y0294328D01*
X0030100Y0289532D02*
X0043655Y0289532D01*
X0046700Y0289532D02*
X0048300Y0289532D01*
X0048300Y0287934D02*
X0046700Y0287934D01*
X0046700Y0286335D02*
X0048300Y0286335D01*
X0048300Y0284737D02*
X0046700Y0284737D01*
X0046700Y0283138D02*
X0048300Y0283138D01*
X0048300Y0281539D02*
X0046700Y0281539D01*
X0046700Y0279941D02*
X0048300Y0279941D01*
X0048300Y0278342D02*
X0046700Y0278342D01*
X0046700Y0276744D02*
X0030100Y0276744D01*
X0030100Y0278342D02*
X0034288Y0278342D01*
X0034564Y0279941D02*
X0030100Y0279941D01*
X0030100Y0281539D02*
X0035067Y0281539D01*
X0035807Y0283138D02*
X0030100Y0283138D01*
X0030100Y0284737D02*
X0036808Y0284737D01*
X0038226Y0286335D02*
X0030100Y0286335D01*
X0030100Y0287934D02*
X0040223Y0287934D01*
X0034299Y0275145D02*
X0030100Y0275145D01*
X0030100Y0273547D02*
X0034588Y0273547D01*
X0035114Y0271948D02*
X0030100Y0271948D01*
X0030100Y0270350D02*
X0035867Y0270350D01*
X0036900Y0268751D02*
X0030100Y0268751D01*
X0030100Y0267153D02*
X0038338Y0267153D01*
X0040391Y0265554D02*
X0030100Y0265554D01*
X0030100Y0263956D02*
X0044024Y0263956D01*
X0089061Y0283138D02*
X0091939Y0283138D01*
X0091178Y0284737D02*
X0089822Y0284737D01*
X0089900Y0286335D02*
X0091100Y0286335D01*
X0091100Y0287934D02*
X0089900Y0287934D01*
X0089900Y0289532D02*
X0091100Y0289532D01*
X0091100Y0291131D02*
X0089900Y0291131D01*
X0089878Y0292729D02*
X0091122Y0292729D01*
X0091805Y0294328D02*
X0089195Y0294328D01*
X0099195Y0294328D02*
X0102805Y0294328D01*
X0102122Y0292729D02*
X0099878Y0292729D01*
X0099900Y0291131D02*
X0102100Y0291131D01*
X0102100Y0289532D02*
X0099900Y0289532D01*
X0099900Y0287934D02*
X0102100Y0287934D01*
X0102100Y0286335D02*
X0099900Y0286335D01*
X0099822Y0284737D02*
X0102178Y0284737D01*
X0102939Y0283138D02*
X0099061Y0283138D01*
X0142300Y0270350D02*
X0142700Y0270350D01*
X0142700Y0268751D02*
X0142300Y0268751D01*
X0142300Y0267153D02*
X0142700Y0267153D01*
X0142700Y0265554D02*
X0142300Y0265554D01*
X0147300Y0273547D02*
X0148100Y0273547D01*
X0148100Y0275145D02*
X0147300Y0275145D01*
X0146897Y0276744D02*
X0148543Y0276744D01*
X0149820Y0278342D02*
X0145746Y0278342D01*
X0175180Y0278342D02*
X0184254Y0278342D01*
X0183103Y0276744D02*
X0176457Y0276744D01*
X0176900Y0275145D02*
X0182700Y0275145D01*
X0182700Y0273547D02*
X0176900Y0273547D01*
X0187300Y0273547D02*
X0187700Y0273547D01*
X0187700Y0275145D02*
X0187300Y0275145D01*
X0187300Y0276744D02*
X0187700Y0276744D01*
X0187700Y0278342D02*
X0187300Y0278342D01*
X0190746Y0278342D02*
X0194820Y0278342D01*
X0193543Y0276744D02*
X0191897Y0276744D01*
X0192300Y0275145D02*
X0193100Y0275145D01*
X0193100Y0273547D02*
X0192300Y0273547D01*
X0187700Y0270350D02*
X0187300Y0270350D01*
X0187300Y0268751D02*
X0187700Y0268751D01*
X0187700Y0267153D02*
X0187300Y0267153D01*
X0187300Y0265554D02*
X0187700Y0265554D01*
X0187700Y0238380D02*
X0187300Y0238380D01*
X0187300Y0236781D02*
X0187700Y0236781D01*
X0187700Y0235183D02*
X0187300Y0235183D01*
X0187300Y0233584D02*
X0187700Y0233584D01*
X0187700Y0230387D02*
X0187300Y0230387D01*
X0187300Y0228789D02*
X0187700Y0228789D01*
X0187700Y0227190D02*
X0187300Y0227190D01*
X0187300Y0225592D02*
X0187700Y0225592D01*
X0192300Y0233584D02*
X0193100Y0233584D01*
X0193100Y0235183D02*
X0192299Y0235183D01*
X0191878Y0236781D02*
X0193558Y0236781D01*
X0194857Y0238380D02*
X0190709Y0238380D01*
X0184291Y0238380D02*
X0175143Y0238380D01*
X0176442Y0236781D02*
X0183122Y0236781D01*
X0182701Y0235183D02*
X0176900Y0235183D01*
X0176900Y0233584D02*
X0182700Y0233584D01*
X0149857Y0238380D02*
X0145709Y0238380D01*
X0146878Y0236781D02*
X0148558Y0236781D01*
X0148100Y0235183D02*
X0147299Y0235183D01*
X0147300Y0233584D02*
X0148100Y0233584D01*
X0142700Y0230387D02*
X0142300Y0230387D01*
X0142300Y0228789D02*
X0142700Y0228789D01*
X0142700Y0227190D02*
X0142300Y0227190D01*
X0142300Y0225592D02*
X0142700Y0225592D01*
X0142700Y0244774D02*
X0142300Y0244774D01*
X0142300Y0246372D02*
X0142700Y0246372D01*
X0146372Y0177636D02*
X0149114Y0177636D01*
X0148250Y0176038D02*
X0147145Y0176038D01*
X0147300Y0174439D02*
X0148100Y0174439D01*
X0148100Y0172841D02*
X0147300Y0172841D01*
X0147300Y0171242D02*
X0148100Y0171242D01*
X0148100Y0169644D02*
X0147300Y0169644D01*
X0147240Y0168045D02*
X0148100Y0168045D01*
X0148712Y0166447D02*
X0146688Y0166447D01*
X0155068Y0158454D02*
X0159932Y0158454D01*
X0160008Y0158530D02*
X0158770Y0157292D01*
X0158100Y0155675D01*
X0158100Y0147925D01*
X0158770Y0146308D01*
X0160008Y0145070D01*
X0161625Y0144400D01*
X0163375Y0144400D01*
X0164992Y0145070D01*
X0166230Y0146308D01*
X0166900Y0147925D01*
X0166900Y0155675D01*
X0166230Y0157292D01*
X0164992Y0158530D01*
X0163375Y0159200D01*
X0161625Y0159200D01*
X0160008Y0158530D01*
X0158589Y0156856D02*
X0156411Y0156856D01*
X0156900Y0155257D02*
X0158100Y0155257D01*
X0158100Y0153659D02*
X0156900Y0153659D01*
X0156900Y0152060D02*
X0158100Y0152060D01*
X0158100Y0150462D02*
X0156900Y0150462D01*
X0156900Y0148863D02*
X0158100Y0148863D01*
X0158373Y0147265D02*
X0156627Y0147265D01*
X0155589Y0145666D02*
X0159411Y0145666D01*
X0165589Y0145666D02*
X0169411Y0145666D01*
X0170008Y0145070D02*
X0171625Y0144400D01*
X0173375Y0144400D01*
X0174992Y0145070D01*
X0176230Y0146308D01*
X0176900Y0147925D01*
X0176900Y0155675D01*
X0176230Y0157292D01*
X0174992Y0158530D01*
X0173375Y0159200D01*
X0171625Y0159200D01*
X0170008Y0158530D01*
X0168770Y0157292D01*
X0168100Y0155675D01*
X0168100Y0147925D01*
X0168770Y0146308D01*
X0170008Y0145070D01*
X0168373Y0147265D02*
X0166627Y0147265D01*
X0166900Y0148863D02*
X0168100Y0148863D01*
X0168100Y0150462D02*
X0166900Y0150462D01*
X0166900Y0152060D02*
X0168100Y0152060D01*
X0168100Y0153659D02*
X0166900Y0153659D01*
X0166900Y0155257D02*
X0168100Y0155257D01*
X0168589Y0156856D02*
X0166411Y0156856D01*
X0165068Y0158454D02*
X0169932Y0158454D01*
X0175068Y0158454D02*
X0184366Y0158454D01*
X0183160Y0156856D02*
X0176411Y0156856D01*
X0176900Y0155257D02*
X0182713Y0155257D01*
X0182700Y0153659D02*
X0176900Y0153659D01*
X0176900Y0152060D02*
X0182700Y0152060D01*
X0182700Y0150462D02*
X0176900Y0150462D01*
X0176900Y0148863D02*
X0182700Y0148863D01*
X0182952Y0147265D02*
X0176627Y0147265D01*
X0175589Y0145666D02*
X0183846Y0145666D01*
X0187300Y0145666D02*
X0187700Y0145666D01*
X0187700Y0147265D02*
X0187300Y0147265D01*
X0187300Y0148863D02*
X0187700Y0148863D01*
X0187700Y0150462D02*
X0187300Y0150462D01*
X0187300Y0152060D02*
X0187700Y0152060D01*
X0187700Y0153659D02*
X0187300Y0153659D01*
X0187300Y0155257D02*
X0187700Y0155257D01*
X0187700Y0156856D02*
X0187300Y0156856D01*
X0187300Y0158454D02*
X0187700Y0158454D01*
X0190634Y0158454D02*
X0194932Y0158454D01*
X0195008Y0158530D02*
X0193770Y0157292D01*
X0193100Y0155675D01*
X0193100Y0147925D01*
X0193770Y0146308D01*
X0195008Y0145070D01*
X0196625Y0144400D01*
X0198375Y0144400D01*
X0199992Y0145070D01*
X0201230Y0146308D01*
X0201900Y0147925D01*
X0201900Y0155675D01*
X0201230Y0157292D01*
X0199992Y0158530D01*
X0198375Y0159200D01*
X0196625Y0159200D01*
X0195008Y0158530D01*
X0193589Y0156856D02*
X0191840Y0156856D01*
X0192287Y0155257D02*
X0193100Y0155257D01*
X0193100Y0153659D02*
X0192300Y0153659D01*
X0192300Y0152060D02*
X0193100Y0152060D01*
X0193100Y0150462D02*
X0192300Y0150462D01*
X0192300Y0148863D02*
X0193100Y0148863D01*
X0193373Y0147265D02*
X0192048Y0147265D01*
X0191154Y0145666D02*
X0194411Y0145666D01*
X0200589Y0145666D02*
X0204411Y0145666D01*
X0205008Y0145070D02*
X0206625Y0144400D01*
X0208375Y0144400D01*
X0209992Y0145070D01*
X0211230Y0146308D01*
X0211900Y0147925D01*
X0211900Y0155675D01*
X0211230Y0157292D01*
X0209992Y0158530D01*
X0208375Y0159200D01*
X0206625Y0159200D01*
X0205008Y0158530D01*
X0203770Y0157292D01*
X0203100Y0155675D01*
X0203100Y0147925D01*
X0203770Y0146308D01*
X0205008Y0145070D01*
X0203373Y0147265D02*
X0201627Y0147265D01*
X0201900Y0148863D02*
X0203100Y0148863D01*
X0203100Y0150462D02*
X0201900Y0150462D01*
X0201900Y0152060D02*
X0203100Y0152060D01*
X0203100Y0153659D02*
X0201900Y0153659D01*
X0201900Y0155257D02*
X0203100Y0155257D01*
X0203589Y0156856D02*
X0201411Y0156856D01*
X0200068Y0158454D02*
X0204932Y0158454D01*
X0210068Y0158454D02*
X0214932Y0158454D01*
X0215008Y0158530D02*
X0213770Y0157292D01*
X0213100Y0155675D01*
X0213100Y0147925D01*
X0213770Y0146308D01*
X0215008Y0145070D01*
X0216625Y0144400D01*
X0218375Y0144400D01*
X0219992Y0145070D01*
X0221230Y0146308D01*
X0221900Y0147925D01*
X0221900Y0155675D01*
X0221230Y0157292D01*
X0219992Y0158530D01*
X0218375Y0159200D01*
X0216625Y0159200D01*
X0215008Y0158530D01*
X0213589Y0156856D02*
X0211411Y0156856D01*
X0211900Y0155257D02*
X0213100Y0155257D01*
X0213100Y0153659D02*
X0211900Y0153659D01*
X0211900Y0152060D02*
X0213100Y0152060D01*
X0213100Y0150462D02*
X0211900Y0150462D01*
X0211900Y0148863D02*
X0213100Y0148863D01*
X0213373Y0147265D02*
X0211627Y0147265D01*
X0210589Y0145666D02*
X0214411Y0145666D01*
X0220589Y0145666D02*
X0255650Y0145666D01*
X0255650Y0147265D02*
X0221627Y0147265D01*
X0221900Y0148863D02*
X0255650Y0148863D01*
X0255650Y0150462D02*
X0221900Y0150462D01*
X0221900Y0152060D02*
X0255650Y0152060D01*
X0255650Y0153659D02*
X0221900Y0153659D01*
X0221900Y0155257D02*
X0255650Y0155257D01*
X0255650Y0156856D02*
X0221411Y0156856D01*
X0220068Y0158454D02*
X0255650Y0158454D01*
X0142700Y0033770D02*
X0142300Y0033770D01*
X0142300Y0032172D02*
X0142700Y0032172D01*
X0142700Y0030573D02*
X0142300Y0030573D01*
X0142300Y0028975D02*
X0142700Y0028975D01*
X0142700Y0027376D02*
X0142300Y0027376D01*
X0142300Y0025778D02*
X0142700Y0025778D01*
X0147300Y0011391D02*
X0148100Y0011391D01*
X0148100Y0009793D02*
X0147300Y0009793D01*
X0147264Y0008194D02*
X0148100Y0008194D01*
X0148651Y0006596D02*
X0146764Y0006596D01*
X0145432Y0004997D02*
X0150183Y0004997D01*
D11*
X0257500Y0001800D02*
X0257500Y0297076D01*
D12*
X0093240Y0143300D03*
X0085760Y0143300D03*
X0085760Y0111800D03*
X0093240Y0111800D03*
X0050240Y0163800D03*
X0042760Y0163800D03*
X0049260Y0197800D03*
X0056740Y0197800D03*
X0056740Y0205800D03*
X0049260Y0205800D03*
X0049260Y0213800D03*
X0056740Y0213800D03*
D13*
X0085500Y0285800D02*
X0085500Y0291800D01*
X0095500Y0291800D02*
X0095500Y0285800D01*
X0106500Y0285800D02*
X0106500Y0291800D01*
X0116500Y0291800D02*
X0116500Y0285800D01*
X0142500Y0274800D02*
X0142500Y0268800D01*
X0152500Y0268800D02*
X0152500Y0274800D01*
X0162500Y0274800D02*
X0162500Y0268800D01*
X0172500Y0268800D02*
X0172500Y0274800D01*
X0187500Y0274800D02*
X0187500Y0268800D01*
X0197500Y0268800D02*
X0197500Y0274800D01*
X0207500Y0274800D02*
X0207500Y0268800D01*
X0217500Y0268800D02*
X0217500Y0274800D01*
X0217500Y0254800D02*
X0217500Y0248800D01*
X0207500Y0248800D02*
X0207500Y0254800D01*
X0197500Y0254800D02*
X0197500Y0248800D01*
X0187500Y0248800D02*
X0187500Y0254800D01*
X0172500Y0254800D02*
X0172500Y0248800D01*
X0162500Y0248800D02*
X0162500Y0254800D01*
X0152500Y0254800D02*
X0152500Y0248800D01*
X0142500Y0248800D02*
X0142500Y0254800D01*
X0142500Y0234800D02*
X0142500Y0228800D01*
X0152500Y0228800D02*
X0152500Y0234800D01*
X0162500Y0234800D02*
X0162500Y0228800D01*
X0172500Y0228800D02*
X0172500Y0234800D01*
X0187500Y0234800D02*
X0187500Y0228800D01*
X0197500Y0228800D02*
X0197500Y0234800D01*
X0207500Y0234800D02*
X0207500Y0228800D01*
X0217500Y0228800D02*
X0217500Y0234800D01*
X0217500Y0214800D02*
X0217500Y0208800D01*
X0207500Y0208800D02*
X0207500Y0214800D01*
X0197500Y0214800D02*
X0197500Y0208800D01*
X0187500Y0208800D02*
X0187500Y0214800D01*
X0172500Y0214800D02*
X0172500Y0208800D01*
X0162500Y0208800D02*
X0162500Y0214800D01*
X0152500Y0214800D02*
X0152500Y0208800D01*
X0142500Y0208800D02*
X0142500Y0214800D01*
X0142500Y0194800D02*
X0142500Y0188800D01*
X0152500Y0188800D02*
X0152500Y0194800D01*
X0162500Y0194800D02*
X0162500Y0188800D01*
X0172500Y0188800D02*
X0172500Y0194800D01*
X0187500Y0194800D02*
X0187500Y0188800D01*
X0197500Y0188800D02*
X0197500Y0194800D01*
X0207500Y0194800D02*
X0207500Y0188800D01*
X0217500Y0188800D02*
X0217500Y0194800D01*
X0217500Y0174800D02*
X0217500Y0168800D01*
X0207500Y0168800D02*
X0207500Y0174800D01*
X0197500Y0174800D02*
X0197500Y0168800D01*
X0187500Y0168800D02*
X0187500Y0174800D01*
X0172500Y0174800D02*
X0172500Y0168800D01*
X0162500Y0168800D02*
X0162500Y0174800D01*
X0152500Y0174800D02*
X0152500Y0168800D01*
X0142500Y0168800D02*
X0142500Y0174800D01*
X0142500Y0154800D02*
X0142500Y0148800D01*
X0152500Y0148800D02*
X0152500Y0154800D01*
X0162500Y0154800D02*
X0162500Y0148800D01*
X0172500Y0148800D02*
X0172500Y0154800D01*
X0187500Y0154800D02*
X0187500Y0148800D01*
X0197500Y0148800D02*
X0197500Y0154800D01*
X0207500Y0154800D02*
X0207500Y0148800D01*
X0217500Y0148800D02*
X0217500Y0154800D01*
X0217500Y0134800D02*
X0217500Y0128800D01*
X0207500Y0128800D02*
X0207500Y0134800D01*
X0197500Y0134800D02*
X0197500Y0128800D01*
X0187500Y0128800D02*
X0187500Y0134800D01*
X0172500Y0134800D02*
X0172500Y0128800D01*
X0162500Y0128800D02*
X0162500Y0134800D01*
X0152500Y0134800D02*
X0152500Y0128800D01*
X0142500Y0128800D02*
X0142500Y0134800D01*
X0142500Y0114800D02*
X0142500Y0108800D01*
X0152500Y0108800D02*
X0152500Y0114800D01*
X0162500Y0114800D02*
X0162500Y0108800D01*
X0172500Y0108800D02*
X0172500Y0114800D01*
X0187500Y0114800D02*
X0187500Y0108800D01*
X0197500Y0108800D02*
X0197500Y0114800D01*
X0207500Y0114800D02*
X0207500Y0108800D01*
X0217500Y0108800D02*
X0217500Y0114800D01*
X0217500Y0094800D02*
X0217500Y0088800D01*
X0207500Y0088800D02*
X0207500Y0094800D01*
X0197500Y0094800D02*
X0197500Y0088800D01*
X0187500Y0088800D02*
X0187500Y0094800D01*
X0172500Y0094800D02*
X0172500Y0088800D01*
X0162500Y0088800D02*
X0162500Y0094800D01*
X0152500Y0094800D02*
X0152500Y0088800D01*
X0142500Y0088800D02*
X0142500Y0094800D01*
X0142500Y0074800D02*
X0142500Y0068800D01*
X0152500Y0068800D02*
X0152500Y0074800D01*
X0162500Y0074800D02*
X0162500Y0068800D01*
X0172500Y0068800D02*
X0172500Y0074800D01*
X0187500Y0074800D02*
X0187500Y0068800D01*
X0197500Y0068800D02*
X0197500Y0074800D01*
X0207500Y0074800D02*
X0207500Y0068800D01*
X0217500Y0068800D02*
X0217500Y0074800D01*
X0217500Y0054800D02*
X0217500Y0048800D01*
X0207500Y0048800D02*
X0207500Y0054800D01*
X0197500Y0054800D02*
X0197500Y0048800D01*
X0187500Y0048800D02*
X0187500Y0054800D01*
X0172500Y0054800D02*
X0172500Y0048800D01*
X0162500Y0048800D02*
X0162500Y0054800D01*
X0152500Y0054800D02*
X0152500Y0048800D01*
X0142500Y0048800D02*
X0142500Y0054800D01*
X0142500Y0034800D02*
X0142500Y0028800D01*
X0152500Y0028800D02*
X0152500Y0034800D01*
X0162500Y0034800D02*
X0162500Y0028800D01*
X0172500Y0028800D02*
X0172500Y0034800D01*
X0187500Y0034800D02*
X0187500Y0028800D01*
X0197500Y0028800D02*
X0197500Y0034800D01*
X0207500Y0034800D02*
X0207500Y0028800D01*
X0217500Y0028800D02*
X0217500Y0034800D01*
X0217500Y0014800D02*
X0217500Y0008800D01*
X0207500Y0008800D02*
X0207500Y0014800D01*
X0197500Y0014800D02*
X0197500Y0008800D01*
X0187500Y0008800D02*
X0187500Y0014800D01*
X0172500Y0014800D02*
X0172500Y0008800D01*
X0162500Y0008800D02*
X0162500Y0014800D01*
X0152500Y0014800D02*
X0152500Y0008800D01*
X0142500Y0008800D02*
X0142500Y0014800D01*
X0048000Y0042300D02*
X0042000Y0042300D01*
X0042000Y0052300D02*
X0048000Y0052300D01*
X0048000Y0062300D02*
X0042000Y0062300D01*
X0042000Y0072300D02*
X0048000Y0072300D01*
X0048000Y0082300D02*
X0042000Y0082300D01*
X0042000Y0092300D02*
X0048000Y0092300D01*
D14*
X0033500Y0153800D03*
X0033500Y0163800D03*
X0033500Y0173800D03*
D15*
X0047500Y0276800D03*
X0239500Y0276800D03*
X0239500Y0021800D03*
X0047500Y0021800D03*
D16*
X0093500Y0041300D03*
X0056000Y0096800D03*
X0062500Y0102300D03*
X0058500Y0107800D03*
X0068500Y0109800D03*
X0065500Y0116800D03*
X0066000Y0121800D03*
X0073000Y0140300D03*
X0076500Y0141800D03*
X0085000Y0143300D03*
X0085500Y0134300D03*
X0092500Y0120300D03*
X0086000Y0111800D03*
X0070000Y0155300D03*
X0067000Y0158300D03*
X0073000Y0158300D03*
X0076000Y0156300D03*
X0073000Y0180300D03*
X0072500Y0183800D03*
X0073000Y0187800D03*
X0070000Y0190800D03*
X0067000Y0193800D03*
X0064000Y0199300D03*
X0072500Y0199300D03*
X0069500Y0208300D03*
X0076500Y0219800D03*
X0093000Y0235300D03*
X0075500Y0241800D03*
X0059000Y0241300D03*
X0055500Y0240800D03*
X0052500Y0240800D03*
X0049500Y0246300D03*
X0043500Y0248800D03*
X0033000Y0256800D03*
X0058000Y0250800D03*
X0042500Y0231300D03*
X0042500Y0223800D03*
X0033500Y0225300D03*
X0099000Y0275800D03*
X0154500Y0291300D03*
X0232500Y0241800D03*
X0232000Y0179800D03*
X0232000Y0121800D03*
X0232500Y0061300D03*
D17*
X0066500Y0224300D03*
X0066500Y0232800D03*
X0057500Y0232800D03*
X0057500Y0224300D03*
D18*
X0042500Y0223800D02*
X0042500Y0164060D01*
X0042760Y0163800D01*
X0033500Y0163800D01*
X0050240Y0163800D02*
X0050240Y0196820D01*
X0049260Y0197800D01*
X0064000Y0199300D02*
X0072500Y0199300D01*
X0067000Y0193800D02*
X0067000Y0158300D01*
X0070000Y0155300D02*
X0070000Y0190800D01*
X0073000Y0187800D02*
X0078500Y0182300D01*
X0078500Y0154300D01*
X0073000Y0149300D01*
X0073000Y0140300D01*
X0085000Y0143300D02*
X0085760Y0143300D01*
X0076000Y0156300D02*
X0076000Y0180300D01*
X0072500Y0183800D01*
X0073000Y0180300D02*
X0073000Y0158300D01*
X0066000Y0121800D02*
X0058500Y0114300D01*
X0058500Y0107800D01*
X0062500Y0102300D02*
X0062500Y0113800D01*
X0065500Y0116800D01*
X0068500Y0109800D02*
X0068500Y0101300D01*
X0066000Y0098800D01*
X0058000Y0098800D01*
X0056000Y0096800D01*
X0085760Y0111800D02*
X0086000Y0111800D01*
X0069500Y0208300D02*
X0076500Y0215300D01*
X0076500Y0219800D01*
X0059000Y0241300D02*
X0054000Y0246300D01*
X0049500Y0246300D01*
X0051500Y0240800D02*
X0043500Y0248800D01*
X0051500Y0240800D02*
X0052500Y0240800D01*
D19*
X0054000Y0237800D02*
X0061000Y0237800D01*
X0065500Y0242300D01*
X0054000Y0237800D02*
X0049260Y0233060D01*
X0049260Y0213800D01*
X0049260Y0205800D01*
X0049260Y0197800D01*
D20*
X0065500Y0242300D03*
D21*
X0085500Y0189300D02*
X0085500Y0143040D01*
X0085760Y0143300D01*
X0085760Y0134560D01*
X0085500Y0134300D01*
X0085760Y0134040D01*
X0085760Y0111800D01*
D22*
X0085500Y0189300D03*
M02*
