G75*
%MOIN*%
%OFA0B0*%
%FSLAX25Y25*%
%IPPOS*%
%LPD*%
%AMOC8*
5,1,8,0,0,1.08239X$1,22.5*
%
%ADD10C,0.01600*%
%ADD11C,0.00100*%
%ADD12R,0.01969X0.05906*%
%ADD13R,0.05906X0.01969*%
%ADD14R,0.05118X0.05906*%
%ADD15R,0.03150X0.03150*%
%ADD16C,0.06000*%
%ADD17R,0.05906X0.05118*%
%ADD18R,0.05512X0.06300*%
%ADD19R,0.01181X0.02362*%
%ADD20R,0.02362X0.01181*%
%ADD21R,0.12992X0.12992*%
%ADD22R,0.01713X0.01713*%
%ADD23R,0.05512X0.01378*%
%ADD24R,0.07480X0.07087*%
%ADD25R,0.07480X0.07480*%
%ADD26C,0.07500*%
%ADD27C,0.23000*%
%ADD28R,0.05900X0.07900*%
%ADD29R,0.15000X0.07900*%
%ADD30C,0.00800*%
%ADD31C,0.01000*%
%ADD32C,0.01950*%
%ADD33C,0.03000*%
%ADD34C,0.01800*%
%ADD35C,0.03750*%
%ADD36C,0.02000*%
%ADD37C,0.05250*%
D10*
X0027500Y0001800D02*
X0027500Y0297076D01*
X0257500Y0297076D01*
X0257500Y0001800D02*
X0027500Y0001800D01*
D11*
X0257500Y0001800D02*
X0257500Y0297076D01*
D12*
X0098248Y0149635D03*
X0095098Y0149635D03*
X0091949Y0149635D03*
X0088799Y0149635D03*
X0085650Y0149635D03*
X0082500Y0149635D03*
X0079350Y0149635D03*
X0076201Y0149635D03*
X0073051Y0149635D03*
X0069902Y0149635D03*
X0066752Y0149635D03*
X0066752Y0103965D03*
X0069902Y0103965D03*
X0073051Y0103965D03*
X0076201Y0103965D03*
X0079350Y0103965D03*
X0082500Y0103965D03*
X0085650Y0103965D03*
X0088799Y0103965D03*
X0091949Y0103965D03*
X0095098Y0103965D03*
X0098248Y0103965D03*
D13*
X0105335Y0111052D03*
X0105335Y0114202D03*
X0105335Y0117351D03*
X0105335Y0120501D03*
X0105335Y0123650D03*
X0105335Y0126800D03*
X0105335Y0129950D03*
X0105335Y0133099D03*
X0105335Y0136249D03*
X0105335Y0139398D03*
X0105335Y0142548D03*
X0059665Y0142548D03*
X0059665Y0139398D03*
X0059665Y0136249D03*
X0059665Y0133099D03*
X0059665Y0129950D03*
X0059665Y0126800D03*
X0059665Y0123650D03*
X0059665Y0120501D03*
X0059665Y0117351D03*
X0059665Y0114202D03*
X0059665Y0111052D03*
D14*
X0053240Y0181800D03*
X0045760Y0181800D03*
X0045760Y0190300D03*
X0053240Y0190300D03*
X0053240Y0198300D03*
X0045760Y0198300D03*
X0045760Y0206300D03*
X0053240Y0206300D03*
X0053240Y0214300D03*
X0045760Y0214300D03*
X0075260Y0241800D03*
X0082740Y0241800D03*
X0065740Y0250800D03*
X0058260Y0250800D03*
X0085760Y0214800D03*
X0093240Y0214800D03*
X0093240Y0206800D03*
X0085760Y0206800D03*
X0098760Y0275800D03*
X0106240Y0275800D03*
X0129260Y0291300D03*
X0136740Y0291300D03*
X0225260Y0241300D03*
X0232740Y0241300D03*
X0231740Y0179800D03*
X0224260Y0179800D03*
X0224260Y0121800D03*
X0231740Y0121800D03*
X0232740Y0061300D03*
X0225260Y0061300D03*
X0092240Y0010300D03*
X0084760Y0010300D03*
X0076240Y0010300D03*
X0068760Y0010300D03*
D15*
X0037953Y0181800D03*
X0032047Y0181800D03*
X0032047Y0190300D03*
X0037953Y0190300D03*
X0037953Y0198300D03*
X0032047Y0198300D03*
X0032047Y0206300D03*
X0037953Y0206300D03*
X0037953Y0213800D03*
X0032047Y0213800D03*
X0073547Y0214800D03*
X0079453Y0214800D03*
X0079453Y0206800D03*
X0073547Y0206800D03*
X0144547Y0291300D03*
X0150453Y0291300D03*
D16*
X0152500Y0274800D02*
X0152500Y0268800D01*
X0162500Y0268800D02*
X0162500Y0274800D01*
X0172500Y0274800D02*
X0172500Y0268800D01*
X0172500Y0254800D02*
X0172500Y0248800D01*
X0162500Y0248800D02*
X0162500Y0254800D01*
X0152500Y0254800D02*
X0152500Y0248800D01*
X0142500Y0248800D02*
X0142500Y0254800D01*
X0142500Y0268800D02*
X0142500Y0274800D01*
X0116500Y0285800D02*
X0116500Y0291800D01*
X0106500Y0291800D02*
X0106500Y0285800D01*
X0095500Y0285800D02*
X0095500Y0291800D01*
X0085500Y0291800D02*
X0085500Y0285800D01*
X0142500Y0234800D02*
X0142500Y0228800D01*
X0152500Y0228800D02*
X0152500Y0234800D01*
X0162500Y0234800D02*
X0162500Y0228800D01*
X0172500Y0228800D02*
X0172500Y0234800D01*
X0187500Y0234800D02*
X0187500Y0228800D01*
X0197500Y0228800D02*
X0197500Y0234800D01*
X0207500Y0234800D02*
X0207500Y0228800D01*
X0217500Y0228800D02*
X0217500Y0234800D01*
X0217500Y0248800D02*
X0217500Y0254800D01*
X0207500Y0254800D02*
X0207500Y0248800D01*
X0197500Y0248800D02*
X0197500Y0254800D01*
X0187500Y0254800D02*
X0187500Y0248800D01*
X0187500Y0268800D02*
X0187500Y0274800D01*
X0197500Y0274800D02*
X0197500Y0268800D01*
X0207500Y0268800D02*
X0207500Y0274800D01*
X0217500Y0274800D02*
X0217500Y0268800D01*
X0217500Y0214800D02*
X0217500Y0208800D01*
X0207500Y0208800D02*
X0207500Y0214800D01*
X0197500Y0214800D02*
X0197500Y0208800D01*
X0187500Y0208800D02*
X0187500Y0214800D01*
X0172500Y0214800D02*
X0172500Y0208800D01*
X0162500Y0208800D02*
X0162500Y0214800D01*
X0152500Y0214800D02*
X0152500Y0208800D01*
X0142500Y0208800D02*
X0142500Y0214800D01*
X0142500Y0194800D02*
X0142500Y0188800D01*
X0152500Y0188800D02*
X0152500Y0194800D01*
X0162500Y0194800D02*
X0162500Y0188800D01*
X0172500Y0188800D02*
X0172500Y0194800D01*
X0187500Y0194800D02*
X0187500Y0188800D01*
X0197500Y0188800D02*
X0197500Y0194800D01*
X0207500Y0194800D02*
X0207500Y0188800D01*
X0217500Y0188800D02*
X0217500Y0194800D01*
X0217500Y0174800D02*
X0217500Y0168800D01*
X0207500Y0168800D02*
X0207500Y0174800D01*
X0197500Y0174800D02*
X0197500Y0168800D01*
X0187500Y0168800D02*
X0187500Y0174800D01*
X0172500Y0174800D02*
X0172500Y0168800D01*
X0162500Y0168800D02*
X0162500Y0174800D01*
X0152500Y0174800D02*
X0152500Y0168800D01*
X0142500Y0168800D02*
X0142500Y0174800D01*
X0142500Y0154800D02*
X0142500Y0148800D01*
X0152500Y0148800D02*
X0152500Y0154800D01*
X0162500Y0154800D02*
X0162500Y0148800D01*
X0172500Y0148800D02*
X0172500Y0154800D01*
X0187500Y0154800D02*
X0187500Y0148800D01*
X0197500Y0148800D02*
X0197500Y0154800D01*
X0207500Y0154800D02*
X0207500Y0148800D01*
X0217500Y0148800D02*
X0217500Y0154800D01*
X0217500Y0134800D02*
X0217500Y0128800D01*
X0207500Y0128800D02*
X0207500Y0134800D01*
X0197500Y0134800D02*
X0197500Y0128800D01*
X0187500Y0128800D02*
X0187500Y0134800D01*
X0172500Y0134800D02*
X0172500Y0128800D01*
X0162500Y0128800D02*
X0162500Y0134800D01*
X0152500Y0134800D02*
X0152500Y0128800D01*
X0142500Y0128800D02*
X0142500Y0134800D01*
X0142500Y0114800D02*
X0142500Y0108800D01*
X0152500Y0108800D02*
X0152500Y0114800D01*
X0162500Y0114800D02*
X0162500Y0108800D01*
X0172500Y0108800D02*
X0172500Y0114800D01*
X0187500Y0114800D02*
X0187500Y0108800D01*
X0197500Y0108800D02*
X0197500Y0114800D01*
X0207500Y0114800D02*
X0207500Y0108800D01*
X0217500Y0108800D02*
X0217500Y0114800D01*
X0217500Y0094800D02*
X0217500Y0088800D01*
X0207500Y0088800D02*
X0207500Y0094800D01*
X0197500Y0094800D02*
X0197500Y0088800D01*
X0187500Y0088800D02*
X0187500Y0094800D01*
X0172500Y0094800D02*
X0172500Y0088800D01*
X0162500Y0088800D02*
X0162500Y0094800D01*
X0152500Y0094800D02*
X0152500Y0088800D01*
X0142500Y0088800D02*
X0142500Y0094800D01*
X0142500Y0074800D02*
X0142500Y0068800D01*
X0152500Y0068800D02*
X0152500Y0074800D01*
X0162500Y0074800D02*
X0162500Y0068800D01*
X0172500Y0068800D02*
X0172500Y0074800D01*
X0187500Y0074800D02*
X0187500Y0068800D01*
X0197500Y0068800D02*
X0197500Y0074800D01*
X0207500Y0074800D02*
X0207500Y0068800D01*
X0217500Y0068800D02*
X0217500Y0074800D01*
X0217500Y0054800D02*
X0217500Y0048800D01*
X0207500Y0048800D02*
X0207500Y0054800D01*
X0197500Y0054800D02*
X0197500Y0048800D01*
X0187500Y0048800D02*
X0187500Y0054800D01*
X0172500Y0054800D02*
X0172500Y0048800D01*
X0162500Y0048800D02*
X0162500Y0054800D01*
X0152500Y0054800D02*
X0152500Y0048800D01*
X0142500Y0048800D02*
X0142500Y0054800D01*
X0142500Y0034800D02*
X0142500Y0028800D01*
X0152500Y0028800D02*
X0152500Y0034800D01*
X0162500Y0034800D02*
X0162500Y0028800D01*
X0172500Y0028800D02*
X0172500Y0034800D01*
X0187500Y0034800D02*
X0187500Y0028800D01*
X0197500Y0028800D02*
X0197500Y0034800D01*
X0207500Y0034800D02*
X0207500Y0028800D01*
X0217500Y0028800D02*
X0217500Y0034800D01*
X0217500Y0014800D02*
X0217500Y0008800D01*
X0207500Y0008800D02*
X0207500Y0014800D01*
X0197500Y0014800D02*
X0197500Y0008800D01*
X0187500Y0008800D02*
X0187500Y0014800D01*
X0172500Y0014800D02*
X0172500Y0008800D01*
X0162500Y0008800D02*
X0162500Y0014800D01*
X0152500Y0014800D02*
X0152500Y0008800D01*
X0142500Y0008800D02*
X0142500Y0014800D01*
X0048000Y0042300D02*
X0042000Y0042300D01*
X0042000Y0052300D02*
X0048000Y0052300D01*
X0048000Y0062300D02*
X0042000Y0062300D01*
X0042000Y0072300D02*
X0048000Y0072300D01*
X0048000Y0082300D02*
X0042000Y0082300D01*
X0042000Y0092300D02*
X0048000Y0092300D01*
D17*
X0075500Y0068540D03*
X0075500Y0061060D03*
X0093000Y0235060D03*
X0093000Y0242540D03*
D18*
X0093358Y0051835D03*
X0075642Y0051835D03*
X0075642Y0018765D03*
X0093358Y0018765D03*
D19*
X0067906Y0219745D03*
X0065937Y0219745D03*
X0063969Y0219745D03*
X0062000Y0219745D03*
X0060031Y0219745D03*
X0058063Y0219745D03*
X0056094Y0219745D03*
X0056094Y0237855D03*
X0058063Y0237855D03*
X0060031Y0237855D03*
X0062000Y0237855D03*
X0063969Y0237855D03*
X0065937Y0237855D03*
X0067906Y0237855D03*
D20*
X0071055Y0234706D03*
X0071055Y0232737D03*
X0071055Y0230769D03*
X0071055Y0228800D03*
X0071055Y0226831D03*
X0071055Y0224863D03*
X0071055Y0222894D03*
X0052945Y0222894D03*
X0052945Y0224863D03*
X0052945Y0226831D03*
X0052945Y0228800D03*
X0052945Y0230769D03*
X0052945Y0232737D03*
X0052945Y0234706D03*
D21*
X0062000Y0228800D03*
D22*
X0070278Y0237078D03*
D23*
X0043933Y0236182D03*
X0043933Y0238741D03*
X0043933Y0241300D03*
X0043933Y0243859D03*
X0043933Y0246418D03*
D24*
X0033500Y0257048D03*
X0033500Y0225552D03*
D25*
X0033500Y0236300D03*
X0033500Y0246300D03*
D26*
X0033500Y0173800D03*
X0033500Y0163800D03*
X0033500Y0153800D03*
D27*
X0047500Y0276800D03*
X0239500Y0276800D03*
X0239500Y0021800D03*
X0047500Y0021800D03*
D28*
X0074600Y0251400D03*
X0083600Y0251400D03*
X0092600Y0251400D03*
D29*
X0083500Y0276200D03*
D30*
X0063969Y0237855D02*
X0063969Y0231300D01*
X0066500Y0232800D01*
X0063969Y0231300D02*
X0061469Y0233269D01*
X0062000Y0228800D01*
D31*
X0071055Y0228800D02*
X0073000Y0228800D01*
X0074000Y0227800D01*
X0074000Y0215253D01*
X0073547Y0214800D01*
X0070500Y0214800D01*
X0067000Y0211300D01*
X0067000Y0193800D01*
X0070000Y0190800D02*
X0070000Y0203253D01*
X0070274Y0203526D01*
X0069500Y0204300D01*
X0069500Y0208300D01*
X0073547Y0206800D02*
X0070274Y0203526D01*
X0072500Y0199300D02*
X0095500Y0199300D01*
X0102000Y0199800D02*
X0102000Y0257800D01*
X0125500Y0281300D01*
X0198000Y0281300D01*
X0207500Y0271800D01*
X0206000Y0263300D02*
X0197500Y0271800D01*
X0198000Y0261300D02*
X0126000Y0261300D01*
X0107500Y0242800D01*
X0107500Y0199800D01*
X0080500Y0172800D01*
X0050000Y0172800D01*
X0042500Y0165300D01*
X0042500Y0126300D01*
X0051000Y0117800D01*
X0059217Y0117800D01*
X0059665Y0117351D01*
X0059567Y0114300D02*
X0051000Y0114300D01*
X0040500Y0124800D01*
X0040500Y0166300D01*
X0049000Y0174800D01*
X0079500Y0174800D01*
X0105000Y0200300D01*
X0105000Y0256300D01*
X0128000Y0279300D01*
X0155000Y0279300D01*
X0162500Y0271800D01*
X0161000Y0263300D02*
X0181000Y0263300D01*
X0172500Y0271800D01*
X0181000Y0263300D02*
X0206000Y0263300D01*
X0217500Y0263300D01*
X0207500Y0251800D02*
X0198000Y0261300D01*
X0198000Y0241300D02*
X0125500Y0241300D01*
X0113500Y0229300D01*
X0113500Y0199800D01*
X0082500Y0168800D01*
X0052500Y0168800D01*
X0046500Y0162800D01*
X0046500Y0129300D01*
X0052000Y0123800D01*
X0059516Y0123800D01*
X0059665Y0123650D01*
X0059366Y0120800D02*
X0051500Y0120800D01*
X0044500Y0127800D01*
X0044500Y0163800D01*
X0051500Y0170800D01*
X0081500Y0170800D01*
X0110500Y0199800D01*
X0110500Y0242800D01*
X0127000Y0259300D01*
X0155000Y0259300D01*
X0162500Y0251800D01*
X0161000Y0263300D02*
X0152500Y0271800D01*
X0154500Y0291300D02*
X0150453Y0291300D01*
X0144547Y0291300D02*
X0136740Y0291300D01*
X0129260Y0291300D02*
X0129260Y0289560D01*
X0123750Y0284050D01*
X0127500Y0239300D02*
X0116500Y0228300D01*
X0116500Y0199800D01*
X0083500Y0166800D01*
X0053500Y0166800D01*
X0048500Y0161800D01*
X0048500Y0131300D01*
X0053000Y0126800D01*
X0059665Y0126800D01*
X0059516Y0129800D02*
X0059665Y0129950D01*
X0053850Y0129950D01*
X0050500Y0133300D01*
X0050500Y0160800D01*
X0054500Y0164800D01*
X0084500Y0164800D01*
X0119500Y0199800D01*
X0119500Y0212800D01*
X0128000Y0221300D01*
X0198000Y0221300D01*
X0207500Y0211800D01*
X0206000Y0203300D02*
X0197500Y0211800D01*
X0198000Y0201300D02*
X0127000Y0201300D01*
X0086500Y0160800D01*
X0057500Y0160800D01*
X0054500Y0157800D01*
X0054500Y0136800D01*
X0055051Y0136249D01*
X0059665Y0136249D01*
X0059614Y0136300D01*
X0059465Y0133300D02*
X0054000Y0133300D01*
X0052500Y0134800D01*
X0052500Y0159300D01*
X0056000Y0162800D01*
X0085500Y0162800D01*
X0122000Y0199300D01*
X0122000Y0210800D01*
X0130500Y0219300D01*
X0155000Y0219300D01*
X0162500Y0211800D01*
X0161000Y0203300D02*
X0181000Y0203300D01*
X0172500Y0211800D01*
X0181000Y0203300D02*
X0206000Y0203300D01*
X0217500Y0203300D01*
X0207500Y0191800D02*
X0198000Y0201300D01*
X0197500Y0191800D02*
X0205500Y0183800D01*
X0217500Y0183800D01*
X0205500Y0183800D02*
X0180500Y0183800D01*
X0172500Y0191800D01*
X0162500Y0191800D02*
X0155000Y0199300D01*
X0128000Y0199300D01*
X0085500Y0156800D01*
X0085500Y0149784D01*
X0085650Y0149635D01*
X0088799Y0149635D02*
X0089000Y0149835D01*
X0089000Y0156300D01*
X0114500Y0181800D01*
X0197500Y0181800D01*
X0207500Y0171800D01*
X0206000Y0163300D02*
X0197500Y0171800D01*
X0206000Y0163300D02*
X0217500Y0163300D01*
X0206000Y0163300D02*
X0181000Y0163300D01*
X0172500Y0171800D01*
X0162500Y0171800D02*
X0154500Y0179800D01*
X0115500Y0179800D01*
X0092000Y0156300D01*
X0092000Y0149686D01*
X0091949Y0149635D01*
X0095000Y0149733D02*
X0095000Y0154300D01*
X0102000Y0161300D01*
X0198000Y0161300D01*
X0207500Y0151800D01*
X0205500Y0143800D02*
X0205500Y0143300D01*
X0217500Y0143300D01*
X0205500Y0143300D02*
X0181000Y0143300D01*
X0172500Y0151800D01*
X0162500Y0151800D02*
X0155000Y0159300D01*
X0122087Y0159300D01*
X0105335Y0142548D01*
X0105335Y0139398D02*
X0105433Y0139300D01*
X0110000Y0139300D01*
X0112000Y0141300D01*
X0198000Y0141300D01*
X0207500Y0131800D01*
X0206000Y0123300D02*
X0197500Y0131800D01*
X0206000Y0123300D02*
X0217500Y0123300D01*
X0206000Y0123300D02*
X0180000Y0123300D01*
X0180000Y0124300D01*
X0172500Y0131800D01*
X0162500Y0131800D02*
X0155000Y0139300D01*
X0114500Y0139300D01*
X0111500Y0136300D01*
X0105386Y0136300D01*
X0105335Y0136249D01*
X0105335Y0133099D02*
X0105634Y0132800D01*
X0111000Y0132800D01*
X0122500Y0121300D01*
X0198000Y0121300D01*
X0207500Y0111800D01*
X0206000Y0103300D02*
X0197500Y0111800D01*
X0206000Y0103300D02*
X0217500Y0103300D01*
X0206000Y0103300D02*
X0180500Y0103300D01*
X0180500Y0103800D01*
X0172500Y0111800D01*
X0162500Y0111800D02*
X0155000Y0119300D01*
X0111500Y0119300D01*
X0110500Y0120300D01*
X0105535Y0120300D01*
X0105335Y0120501D01*
X0105335Y0123650D02*
X0082350Y0123650D01*
X0068500Y0109800D01*
X0069902Y0103965D02*
X0069902Y0090398D01*
X0138500Y0021800D01*
X0205000Y0021800D01*
X0207500Y0019300D01*
X0207500Y0011800D01*
X0205000Y0024300D02*
X0197500Y0031800D01*
X0197500Y0041800D02*
X0125500Y0041800D01*
X0076000Y0091300D01*
X0076000Y0103765D01*
X0076201Y0103965D01*
X0079350Y0103965D02*
X0079500Y0103816D01*
X0079500Y0097800D01*
X0117000Y0060300D01*
X0154000Y0060300D01*
X0162500Y0051800D01*
X0160000Y0044300D02*
X0180000Y0044300D01*
X0172500Y0051800D01*
X0180000Y0044300D02*
X0205000Y0044300D01*
X0197500Y0051800D01*
X0207500Y0051800D02*
X0197000Y0062300D01*
X0124000Y0062300D01*
X0089000Y0097300D01*
X0089000Y0103765D01*
X0088799Y0103965D01*
X0085650Y0103965D02*
X0085650Y0111450D01*
X0086000Y0111800D01*
X0082500Y0118800D02*
X0083500Y0119800D01*
X0092000Y0119800D01*
X0092500Y0120300D01*
X0082500Y0118800D02*
X0082500Y0103965D01*
X0073051Y0103965D02*
X0073000Y0103914D01*
X0073000Y0090300D01*
X0123500Y0039800D01*
X0160500Y0039800D01*
X0162500Y0037800D01*
X0162500Y0031800D01*
X0160000Y0024300D02*
X0180000Y0024300D01*
X0172500Y0031800D01*
X0180000Y0024300D02*
X0205000Y0024300D01*
X0217500Y0024300D01*
X0207500Y0031800D02*
X0197500Y0041800D01*
X0205000Y0044300D02*
X0217500Y0044300D01*
X0217500Y0064300D02*
X0205000Y0064300D01*
X0197500Y0071800D01*
X0198000Y0081300D02*
X0113000Y0081300D01*
X0095000Y0099300D01*
X0095000Y0103867D01*
X0095098Y0103965D01*
X0092000Y0103914D02*
X0091949Y0103965D01*
X0092000Y0103914D02*
X0092000Y0098300D01*
X0111000Y0079300D01*
X0155000Y0079300D01*
X0162500Y0071800D01*
X0160000Y0064300D02*
X0180000Y0064300D01*
X0172500Y0071800D01*
X0180000Y0064300D02*
X0205000Y0064300D01*
X0207500Y0071800D02*
X0198000Y0081300D01*
X0206000Y0083300D02*
X0197500Y0091800D01*
X0198000Y0101300D02*
X0125500Y0101300D01*
X0109500Y0117300D01*
X0105386Y0117300D01*
X0105335Y0117351D01*
X0105335Y0126800D02*
X0082000Y0126800D01*
X0059500Y0104300D01*
X0059500Y0080300D01*
X0051500Y0072300D01*
X0045000Y0072300D01*
X0045500Y0081800D02*
X0045000Y0082300D01*
X0045500Y0081800D02*
X0050000Y0081800D01*
X0056000Y0087800D01*
X0056000Y0096800D01*
X0062500Y0102300D02*
X0062500Y0088800D01*
X0075500Y0075800D01*
X0075500Y0068540D01*
X0075500Y0061060D02*
X0075642Y0060918D01*
X0075642Y0051835D01*
X0075642Y0018765D01*
X0076240Y0018166D01*
X0076240Y0010300D01*
X0084760Y0010300D01*
X0092240Y0010300D02*
X0092240Y0017646D01*
X0093358Y0018765D01*
X0093358Y0051835D01*
X0093358Y0041942D01*
X0093500Y0041300D01*
X0075500Y0045800D02*
X0075500Y0051694D01*
X0075642Y0051835D01*
X0075500Y0045800D02*
X0072000Y0042300D01*
X0045000Y0042300D01*
X0045000Y0052300D02*
X0038000Y0052300D01*
X0032000Y0046300D01*
X0032000Y0093800D01*
X0046000Y0107800D01*
X0058500Y0107800D01*
X0059665Y0111052D02*
X0059417Y0111300D01*
X0051000Y0111300D01*
X0038500Y0123800D01*
X0038500Y0167300D01*
X0048000Y0176800D01*
X0079000Y0176800D01*
X0102000Y0199800D01*
X0093240Y0206800D02*
X0093240Y0214800D01*
X0094000Y0215560D01*
X0094000Y0223300D01*
X0082740Y0234560D01*
X0082740Y0241800D01*
X0075500Y0241800D02*
X0070778Y0237078D01*
X0070278Y0237078D01*
X0071055Y0230769D02*
X0074531Y0230769D01*
X0076500Y0228800D01*
X0076500Y0219800D01*
X0079453Y0214800D02*
X0085760Y0214800D01*
X0085760Y0206800D02*
X0079453Y0206800D01*
X0064000Y0199300D02*
X0057000Y0206300D01*
X0053240Y0206300D01*
X0045760Y0206300D02*
X0037953Y0206300D01*
X0032047Y0206300D02*
X0032047Y0213800D01*
X0032047Y0224099D01*
X0033500Y0225552D01*
X0033500Y0225300D01*
X0039000Y0222300D02*
X0042000Y0219300D01*
X0052000Y0219300D01*
X0053000Y0218300D01*
X0053000Y0214540D01*
X0053240Y0214300D01*
X0045760Y0214300D02*
X0038453Y0214300D01*
X0037953Y0213800D01*
X0032047Y0206300D02*
X0032047Y0198300D01*
X0032047Y0190300D01*
X0032047Y0181800D01*
X0037953Y0181800D02*
X0045760Y0181800D01*
X0053240Y0181800D02*
X0054740Y0180300D01*
X0073000Y0180300D01*
X0072500Y0183800D02*
X0059740Y0183800D01*
X0053240Y0190300D01*
X0045760Y0190300D02*
X0037953Y0190300D01*
X0037953Y0198300D02*
X0045760Y0198300D01*
X0053240Y0198300D02*
X0053740Y0197800D01*
X0055500Y0197800D01*
X0065500Y0187800D01*
X0073000Y0187800D01*
X0073000Y0158300D02*
X0073051Y0158249D01*
X0073051Y0149635D01*
X0069902Y0149635D02*
X0069902Y0155202D01*
X0070000Y0155300D01*
X0067000Y0158300D02*
X0063500Y0154800D01*
X0063500Y0145800D01*
X0065000Y0144300D01*
X0065000Y0140300D01*
X0064098Y0139398D01*
X0059665Y0139398D01*
X0059465Y0133300D02*
X0059665Y0133099D01*
X0059366Y0120800D02*
X0059665Y0120501D01*
X0059567Y0114300D02*
X0059665Y0114202D01*
X0065500Y0116800D02*
X0078650Y0129950D01*
X0105335Y0129950D01*
X0096500Y0139300D02*
X0074000Y0139300D01*
X0073000Y0140300D01*
X0076500Y0141800D02*
X0079350Y0144650D01*
X0079350Y0149635D01*
X0076201Y0149635D02*
X0076201Y0156099D01*
X0076000Y0156300D01*
X0082500Y0149635D02*
X0082500Y0145800D01*
X0085000Y0143300D01*
X0085500Y0134300D02*
X0078500Y0134300D01*
X0066000Y0121800D01*
X0066752Y0103965D02*
X0066752Y0089548D01*
X0136500Y0019800D01*
X0159500Y0019800D01*
X0162500Y0016800D01*
X0162500Y0011800D01*
X0160000Y0024300D02*
X0152500Y0031800D01*
X0160000Y0044300D02*
X0152500Y0051800D01*
X0160000Y0064300D02*
X0152500Y0071800D01*
X0161000Y0083300D02*
X0181000Y0083300D01*
X0172500Y0091800D01*
X0162500Y0091800D02*
X0155000Y0099300D01*
X0102913Y0099300D01*
X0098248Y0103965D01*
X0096500Y0139300D02*
X0098248Y0141048D01*
X0098248Y0149635D01*
X0095098Y0149635D02*
X0095000Y0149733D01*
X0152500Y0151800D02*
X0161000Y0143300D01*
X0181000Y0143300D01*
X0197500Y0151800D02*
X0205500Y0143800D01*
X0181000Y0163300D02*
X0161000Y0163300D01*
X0152500Y0171800D01*
X0160500Y0183800D02*
X0180500Y0183800D01*
X0160500Y0183800D02*
X0152500Y0191800D01*
X0161000Y0203300D02*
X0152500Y0211800D01*
X0161000Y0223300D02*
X0181000Y0223300D01*
X0172500Y0231800D01*
X0162500Y0231800D02*
X0155000Y0239300D01*
X0127500Y0239300D01*
X0152500Y0231800D02*
X0161000Y0223300D01*
X0181000Y0223300D02*
X0206000Y0223300D01*
X0197500Y0231800D01*
X0198000Y0241300D02*
X0207500Y0231800D01*
X0206000Y0223300D02*
X0217500Y0223300D01*
X0152500Y0131800D02*
X0161000Y0123300D01*
X0180000Y0123300D01*
X0180500Y0103300D02*
X0161000Y0103300D01*
X0152500Y0111800D01*
X0152500Y0091800D02*
X0161000Y0083300D01*
X0181000Y0083300D02*
X0206000Y0083300D01*
X0217500Y0083300D01*
X0207500Y0091800D02*
X0198000Y0101300D01*
X0068760Y0010300D02*
X0063760Y0005300D01*
X0037000Y0005300D01*
X0032000Y0010300D01*
X0032000Y0046300D01*
X0039000Y0222300D02*
X0039000Y0245800D01*
X0039618Y0246418D01*
X0043933Y0246418D01*
X0043500Y0246851D01*
X0043500Y0248800D01*
X0043933Y0243859D02*
X0047059Y0243859D01*
X0049500Y0246300D01*
X0050500Y0243800D02*
X0048000Y0241300D01*
X0043933Y0241300D01*
X0043933Y0236182D02*
X0043933Y0232733D01*
X0042500Y0231300D01*
X0042500Y0223800D02*
X0051437Y0232737D01*
X0052945Y0232737D01*
X0052945Y0234706D02*
X0052945Y0240355D01*
X0052500Y0240800D01*
X0055500Y0240800D02*
X0056094Y0240206D01*
X0056094Y0237855D01*
X0058063Y0237855D01*
X0060031Y0237855D02*
X0060031Y0240269D01*
X0059000Y0241300D01*
X0059500Y0243800D02*
X0050500Y0243800D01*
X0058000Y0250800D02*
X0058260Y0250800D01*
X0059500Y0243800D02*
X0062000Y0241300D01*
X0062000Y0237855D01*
X0065740Y0250800D02*
X0065740Y0251060D01*
X0065500Y0251300D01*
X0033500Y0257048D02*
X0033248Y0257048D01*
X0033000Y0256800D01*
D32*
X0033000Y0256800D03*
X0043500Y0248800D03*
X0049500Y0246300D03*
X0052500Y0240800D03*
X0055500Y0240800D03*
X0059000Y0241300D03*
X0058000Y0250800D03*
X0075500Y0241800D03*
X0093000Y0235300D03*
X0076500Y0219800D03*
X0069500Y0208300D03*
X0072500Y0199300D03*
X0067000Y0193800D03*
X0070000Y0190800D03*
X0073000Y0187800D03*
X0072500Y0183800D03*
X0073000Y0180300D03*
X0064000Y0199300D03*
X0042500Y0223800D03*
X0042500Y0231300D03*
X0033500Y0225300D03*
X0099000Y0275800D03*
X0154500Y0291300D03*
X0232500Y0241800D03*
X0232000Y0179800D03*
X0232000Y0121800D03*
X0232500Y0061300D03*
X0093500Y0041300D03*
X0056000Y0096800D03*
X0062500Y0102300D03*
X0058500Y0107800D03*
X0068500Y0109800D03*
X0065500Y0116800D03*
X0066000Y0121800D03*
X0073000Y0140300D03*
X0076500Y0141800D03*
X0085000Y0143300D03*
X0085500Y0134300D03*
X0092500Y0120300D03*
X0086000Y0111800D03*
X0070000Y0155300D03*
X0067000Y0158300D03*
X0073000Y0158300D03*
X0076000Y0156300D03*
D33*
X0085500Y0189300D02*
X0095500Y0199300D01*
X0099000Y0202800D01*
X0099000Y0259300D01*
X0094000Y0254300D01*
X0094000Y0252800D01*
X0092600Y0251400D01*
X0093000Y0251000D01*
X0093000Y0242540D01*
X0093000Y0235300D02*
X0093000Y0235060D01*
X0082740Y0241800D02*
X0082740Y0250540D01*
X0083600Y0251400D01*
X0074600Y0251400D02*
X0074600Y0242460D01*
X0075260Y0241800D01*
X0075500Y0241800D01*
X0054500Y0256300D02*
X0067000Y0268800D01*
X0067000Y0279300D01*
X0077000Y0289300D01*
X0085000Y0289300D01*
X0085500Y0288800D01*
X0095500Y0288800D02*
X0106500Y0288800D01*
X0106500Y0275800D01*
X0106240Y0275800D01*
X0106500Y0275800D02*
X0106500Y0266800D01*
X0123750Y0284050D01*
X0125000Y0285300D01*
X0213500Y0285300D01*
X0217500Y0281300D01*
X0217500Y0271800D01*
X0217500Y0263300D01*
X0217500Y0251800D01*
X0217500Y0242300D01*
X0218500Y0241300D01*
X0225260Y0241300D01*
X0232500Y0241800D02*
X0232740Y0241560D01*
X0232740Y0241300D01*
X0217500Y0242300D02*
X0217500Y0231800D01*
X0217500Y0223300D01*
X0217500Y0211800D01*
X0217500Y0203300D01*
X0217500Y0191800D01*
X0217500Y0183800D01*
X0217500Y0180800D01*
X0218500Y0179800D01*
X0224260Y0179800D01*
X0217500Y0180800D02*
X0217500Y0171800D01*
X0217500Y0163300D01*
X0217500Y0151800D01*
X0217500Y0143300D01*
X0217500Y0131800D01*
X0217500Y0123300D01*
X0217500Y0121800D01*
X0224260Y0121800D01*
X0217500Y0121800D02*
X0217500Y0111800D01*
X0217500Y0103300D01*
X0217500Y0091800D01*
X0217500Y0083300D01*
X0217500Y0071800D01*
X0217500Y0064300D01*
X0217500Y0061300D01*
X0225260Y0061300D01*
X0232500Y0061300D02*
X0232740Y0061300D01*
X0217500Y0061300D02*
X0217500Y0051800D01*
X0217500Y0044300D01*
X0217500Y0031800D01*
X0217500Y0024300D01*
X0217500Y0011800D01*
X0231740Y0121800D02*
X0232000Y0121800D01*
X0231740Y0179800D02*
X0232000Y0179800D01*
X0106500Y0266800D02*
X0099000Y0259300D01*
X0099000Y0275800D02*
X0098760Y0275800D01*
X0054500Y0256300D02*
X0047500Y0256300D01*
X0043500Y0252300D01*
X0043500Y0248800D01*
D34*
X0057500Y0232800D03*
X0057500Y0224300D03*
X0066500Y0224300D03*
X0066500Y0232800D03*
D35*
X0065500Y0242300D03*
D36*
X0065500Y0251300D01*
X0065500Y0256300D01*
X0069000Y0259800D01*
X0082500Y0259800D01*
X0084000Y0258300D01*
X0084000Y0251800D01*
X0083600Y0251400D01*
D37*
X0085500Y0189300D03*
M02*
